<?xml version="1.0" encoding="UTF-8"?>
<svg xmlns="http://www.w3.org/2000/svg" xmlns:xlink="http://www.w3.org/1999/xlink" width="261px" height="420px" viewBox="0 0 261 426" version="1.1">
<g id="surface1">
<path style=" stroke:none;fill-rule:nonzero;fill:rgb(100%,100%,100%);fill-opacity:1;" d="M 18 0 L 243 0 C 252.941406 0 261 8.058594 261 18 L 261 402 C 261 411.941406 252.941406 420 243 420 L 18 420 C 8.058594 420 0 411.941406 0 402 L 0 18 C 0 8.058594 8.058594 0 18 0 Z M 18 0 "/>
<path style=" stroke:none;fill-rule:nonzero;fill:rgb(63.921569%,5.490196%,1.176471%);fill-opacity:1;" d="M 82.800781 139.199219 L 69 150 L 108.898438 150 L 96.300781 135.898438 Z M 82.800781 139.199219 "/>
<path style="fill:none;stroke-width:0.4;stroke-linecap:round;stroke-linejoin:round;stroke:rgb(0%,0%,0%);stroke-opacity:1;stroke-miterlimit:4;" d="M 21.200521 22.200521 C 21.200521 22.200521 17.200521 20.60026 15.799479 23.700521 C 14.39974 26.799479 18.299479 31.39974 18.700521 32.200521 C 19.135417 32.929688 18.964844 33.869792 18.299479 34.39974 C 15.89974 36 19.39974 38.299479 20.5 35.39974 C 21.60026 32.5 19.10026 29.299479 18.200521 27.200521 C 17.299479 25.10026 16.5 22.60026 21.39974 23.89974 M 38.799479 22.200521 C 38.799479 22.200521 42.799479 20.60026 44.200521 23.700521 C 45.60026 26.799479 41.700521 31.39974 41.299479 32.200521 C 40.864583 32.929688 41.035156 33.869792 41.700521 34.39974 C 44.10026 36 40.60026 38.299479 39.5 35.39974 C 38.39974 32.5 40.89974 29.299479 41.799479 27.200521 C 42.700521 25.10026 43.299479 22.700521 38.39974 24.10026 " transform="matrix(3,0,0,3,0,0)"/>
<path style=" stroke:none;fill-rule:nonzero;fill:rgb(100%,0%,0%);fill-opacity:1;" d="M 82.199219 129.898438 C 82.199219 129.898438 85.5 141.601562 68.699219 147.300781 C 68.699219 147.601562 88.5 150.300781 92.699219 131.699219 C 92.699219 132 82.199219 129.898438 82.199219 129.898438 Z M 82.199219 129.898438 "/>
<path style=" stroke:none;fill-rule:nonzero;fill:rgb(100%,0%,0%);fill-opacity:1;" d="M 98.101562 129.898438 C 98.101562 129.898438 95.101562 141.601562 111.601562 147.300781 C 111.898438 147.601562 92.101562 149.699219 87.898438 131.101562 C 88.199219 131.398438 98.101562 129.898438 98.101562 129.898438 Z M 98.101562 129.898438 "/>
<path style="fill:none;stroke-width:0.4;stroke-linecap:round;stroke-linejoin:round;stroke:rgb(0%,0%,0%);stroke-opacity:1;stroke-miterlimit:4;" d="M 27.39974 43.299479 C 27.39974 43.299479 28.5 47.200521 22.89974 49.10026 C 22.89974 49.200521 29.39974 50.10026 30.89974 43.89974 C 30.799479 44 27.39974 43.299479 27.39974 43.299479 Z M 27.39974 43.299479 " transform="matrix(3,0,0,3,0,0)"/>
<path style="fill:none;stroke-width:0.4;stroke-linecap:round;stroke-linejoin:round;stroke:rgb(0%,0%,0%);stroke-opacity:1;stroke-miterlimit:4;" d="M 32.700521 43.299479 C 32.700521 43.299479 31.700521 47.200521 37.200521 49.10026 C 37.299479 49.200521 30.60026 49.89974 29.200521 43.700521 C 30.376302 43.665365 31.546875 43.53125 32.700521 43.299479 Z M 32.700521 43.299479 " transform="matrix(3,0,0,3,0,0)"/>
<path style=" stroke:none;fill-rule:nonzero;fill:rgb(100%,0%,0%);fill-opacity:1;" d="M 82.800781 127.800781 C 83.597656 134.875 86.066406 141.664062 90 147.601562 C 90 147.300781 96 142.800781 97.199219 127.800781 C 99 127.5 82.800781 127.800781 82.800781 127.800781 Z M 82.800781 127.800781 "/>
<path style="fill:none;stroke-width:0.4;stroke-linecap:round;stroke-linejoin:round;stroke:rgb(0%,0%,0%);stroke-opacity:1;stroke-miterlimit:4;" d="M 27.299479 38.799479 C 27.299479 38.799479 26.700521 45 30 49.10026 C 30 49 33.299479 46.39974 32.89974 38.700521 C 32.89974 38.60026 27.299479 38.799479 27.299479 38.799479 Z M 27.299479 38.799479 " transform="matrix(3,0,0,3,0,0)"/>
<path style="fill-rule:nonzero;fill:rgb(100%,0%,0%);fill-opacity:1;stroke-width:0.4;stroke-linecap:round;stroke-linejoin:round;stroke:rgb(0%,0%,0%);stroke-opacity:1;stroke-miterlimit:4;" d="M 27.200521 42.60026 C 27.200521 42.60026 25.5 43 25.5 45.60026 C 25.5 45.60026 27.89974 46.200521 29 43.200521 M 33.200521 42.60026 C 33.200521 42.60026 34.799479 43 34.799479 45.60026 C 34.799479 45.60026 32.39974 46.200521 31.299479 43.200521 " transform="matrix(3,0,0,3,0,0)"/>
<path style=" stroke:none;fill-rule:nonzero;fill:rgb(100%,0%,0%);fill-opacity:1;" d="M 94.5 129 C 94.5 129 96 133.5 90 139.199219 C 86.773438 136.996094 85.042969 133.179688 85.5 129.300781 Z M 94.5 129 "/>
<path style="fill:none;stroke-width:0.4;stroke-linecap:round;stroke-linejoin:round;stroke:rgb(0%,0%,0%);stroke-opacity:1;stroke-miterlimit:4;" d="M 31.5 43 C 31.5 43 32 44.5 30 46.39974 C 28.942708 45.64974 28.369792 44.389323 28.5 43.10026 Z M 31.5 43 " transform="matrix(3,0,0,3,0,0)"/>
<path style=" stroke:none;fill-rule:nonzero;fill:rgb(84.313725%,62.352941%,3.529412%);fill-opacity:1;" d="M 68.101562 65.398438 C 65.980469 64.789062 63.960938 63.882812 62.101562 62.699219 C 62.398438 63.601562 63 64.800781 63.300781 66 C 63.601562 67.199219 64.199219 69 64.800781 70.5 C 65.398438 72 65.398438 75.300781 65.699219 78.300781 L 65.699219 85.199219 L 64.800781 92.699219 C 64.214844 94.128906 63.90625 95.65625 63.898438 97.199219 C 63.414062 99.464844 63.210938 101.785156 63.300781 104.101562 C 66.601562 100.199219 70.199219 101.101562 73.199219 106.800781 C 74.699219 104.101562 76.199219 102.898438 78 102.601562 C 79.800781 102.300781 78.300781 100.5 78.601562 99.601562 C 79.550781 95.570312 79.753906 91.402344 79.199219 87.300781 L 79.199219 79.800781 C 79.199219 78.601562 78.898438 77.101562 78.898438 75.898438 L 78 67.800781 L 68.398438 65.398438 M 104.398438 67.5 L 103.800781 79.199219 L 104.699219 102 C 106.5 102.300781 108 103.800781 109.800781 106.800781 C 112.5 100.199219 114.898438 99.601562 117.300781 105 C 117.25 102.589844 117.050781 100.183594 116.699219 97.800781 L 115.800781 92.699219 C 115.234375 90.035156 114.933594 87.324219 114.898438 84.601562 C 114.597656 82.109375 114.597656 79.589844 114.898438 77.101562 C 114.84375 75.195312 114.941406 73.289062 115.199219 71.398438 C 115.800781 69.898438 116.101562 68.398438 116.699219 66.898438 C 117.0625 65.359375 117.566406 63.851562 118.199219 62.398438 C 116.207031 63.804688 113.96875 64.820312 111.601562 65.398438 L 104.398438 67.5 "/>
<path style=" stroke:none;fill-rule:nonzero;fill:rgb(100%,0%,0%);fill-opacity:1;" d="M 120.898438 58.199219 C 120.898438 55.5 117.601562 53.101562 111.601562 51 C 105.082031 49.054688 98.300781 48.144531 91.5 48.300781 C 83.398438 51.300781 79.199219 57 79.800781 65.101562 L 79.800781 67.800781 C 83.175781 68.308594 86.589844 68.507812 90 68.398438 C 94.816406 68.4375 99.628906 68.136719 104.398438 67.5 L 111.601562 65.398438 C 113.96875 64.820312 116.207031 63.804688 118.199219 62.398438 C 119.769531 61.566406 120.792969 59.976562 120.898438 58.199219 "/>
<path style=" stroke:none;fill-rule:nonzero;fill:rgb(19.607843%,34.117647%,13.72549%);fill-opacity:1;" d="M 110.101562 106.800781 C 108.300781 103.800781 106.5 102.300781 104.699219 102 C 102.898438 101.699219 99.898438 103.199219 97.5 107.699219 C 93.300781 100.800781 89.398438 100.800781 85.5 107.699219 C 82.800781 104.101562 80.398438 102.300781 78 102.601562 C 75.898438 103.171875 74.214844 104.742188 73.5 106.800781 C 70.199219 101.101562 66.601562 100.199219 63.300781 104.101562 C 63.0625 104.453125 62.957031 104.878906 63 105.300781 C 63 116.699219 66 123 75.601562 129 L 77.398438 129.601562 C 77.398438 129.601562 86.101562 134.699219 101.398438 130.199219 L 103.800781 129 C 112.359375 124.679688 117.628906 115.78125 117.300781 106.199219 C 117.230469 105.695312 117.128906 105.195312 117 104.699219 C 114 99.300781 112.800781 100.199219 110.101562 106.800781 Z M 110.101562 106.800781 "/>
<path style=" stroke:none;fill-rule:nonzero;fill:rgb(98.431373%,76.078431%,9.803922%);fill-opacity:1;" d="M 103.800781 79.199219 L 104.398438 67.5 C 99.628906 68.136719 94.816406 68.4375 90 68.398438 C 86.589844 68.507812 83.175781 68.308594 79.800781 67.800781 L 77.699219 67.800781 L 78.601562 75.898438 C 78.601562 77.101562 78.898438 78.601562 78.898438 79.800781 L 78.898438 87.300781 C 79.453125 91.402344 79.25 95.570312 78.300781 99.601562 C 78 100.5 78 101.699219 77.699219 102.601562 C 77.398438 103.5 82.5 104.101562 85.199219 107.699219 C 89.101562 100.800781 93 100.800781 97.199219 107.699219 C 99.601562 103.199219 102 101.398438 104.398438 102 L 103.5 79.199219 "/>
<path style=" stroke:none;fill-rule:nonzero;fill:rgb(63.921569%,5.490196%,1.176471%);fill-opacity:1;" d="M 91.5 48.300781 L 90 48.300781 C 82.609375 48.136719 75.230469 49.046875 68.101562 51 C 62.101562 53 59.101562 55.398438 59.101562 58.199219 C 59.144531 59.996094 60.183594 61.613281 61.800781 62.398438 L 62.101562 62.398438 C 63.960938 63.582031 65.980469 64.492188 68.101562 65.101562 L 77.699219 67.5 L 79.800781 67.5 L 79.800781 64.800781 C 79.199219 56.699219 83.398438 51 91.5 48 "/>
<path style="fill:none;stroke-width:0.4;stroke-linecap:round;stroke-linejoin:round;stroke:rgb(0%,0%,0%);stroke-opacity:1;stroke-miterlimit:4;" d="M 34.5 26.5 L 38.200521 25.799479 C 38.21224 25.161458 38.278646 24.526042 38.39974 23.89974 C 38.485677 23.388021 38.619792 22.886719 38.799479 22.39974 C 38.90625 21.914062 39.074219 21.442708 39.299479 21 L 37.200521 21.89974 L 34.799479 22.60026 C 33.175781 22.808594 31.53776 22.908854 29.89974 22.89974 L 25.89974 22.89974 L 22.60026 22.10026 L 20.60026 21.200521 C 20.785156 21.557292 20.951823 21.924479 21.10026 22.299479 C 21.200521 22.799479 21.39974 23.299479 21.5 23.799479 C 21.690104 24.657552 21.822917 25.526042 21.89974 26.39974 L 26.200521 26.89974 C 28.972656 27.016927 31.751302 26.882812 34.5 26.5 Z M 20.60026 21 L 20.5 21 C 19.89974 20.5 19.60026 20.10026 19.60026 19.60026 C 19.60026 19.10026 20.60026 17.799479 22.60026 17.200521 C 24.96224 16.470052 27.428385 16.13151 29.89974 16.200521 L 30.5 16.200521 C 32.772135 16.184896 35.03125 16.522135 37.200521 17.200521 C 39.200521 17.799479 40.200521 18.60026 40.200521 19.60026 C 40.105469 20.170573 39.779948 20.677083 39.299479 21 M 26.39974 29.200521 C 24.852865 29.071615 23.315104 28.838542 21.799479 28.5 L 21.5 31 L 21.200521 32.5 C 21.088542 33.261719 21.020833 34.029948 21 34.799479 C 22.200521 33.5 23.299479 33.799479 24.39974 35.700521 C 24.89974 34.799479 25.39974 34.39974 25.89974 34.299479 C 26.39974 34.200521 27.5 34.799479 28.39974 36 C 29.700521 33.700521 31 33.700521 32.39974 36 C 33.200521 34.5 34 33.89974 34.799479 34.10026 C 35.566406 34.371094 36.182292 34.951823 36.5 35.700521 C 37.39974 33.5 38.299479 33.299479 39 35.10026 C 39.013021 34.298177 38.979167 33.497396 38.89974 32.700521 C 38.708333 32.148438 38.574219 31.579427 38.5 31 C 38.3125 30.111979 38.21224 29.207031 38.200521 28.299479 L 34.5 29 C 31.815104 29.365885 29.098958 29.433594 26.39974 29.200521 Z M 26.39974 29.200521 " transform="matrix(3,0,0,3,0,0)"/>
<path style="fill:none;stroke-width:0.4;stroke-linecap:round;stroke-linejoin:round;stroke:rgb(0%,0%,0%);stroke-opacity:1;stroke-miterlimit:4;" d="M 39 35.60026 C 39.045573 38.751302 37.302083 41.657552 34.5 43.10026 C 31.760417 44.246094 28.690104 44.317708 25.89974 43.299479 C 22.727865 41.738281 20.796875 38.429688 21 34.89974 M 39 35.10026 L 39 35.60026 M 21.89974 26.200521 C 21.89974 26.89974 21.799479 27.700521 21.799479 28.5 M 38.200521 28.299479 C 38.098958 27.470052 38.098958 26.630208 38.200521 25.799479 M 24.39974 35.700521 C 24.44401 37.447917 24.645833 39.1875 25 40.89974 M 28.39974 36 L 28.799479 41.39974 M 36.5 35.700521 C 36.455729 37.447917 36.255208 39.1875 35.89974 40.89974 M 32.5 36 L 32.10026 41.39974 " transform="matrix(3,0,0,3,0,0)"/>
<path style="fill-rule:nonzero;fill:rgb(100%,0%,0%);fill-opacity:1;stroke-width:0.4;stroke-linecap:round;stroke-linejoin:round;stroke:rgb(0%,0%,0%);stroke-opacity:1;stroke-miterlimit:4;" d="M 37.39974 49.200521 L 38.89974 49.200521 L 38.89974 52.89974 L 21.10026 52.89974 L 21.10026 49.200521 Z M 37.39974 49.200521 " transform="matrix(3,0,0,3,0,0)"/>
<path style=" stroke:none;fill-rule:nonzero;fill:rgb(63.921569%,5.490196%,1.176471%);fill-opacity:1;" d="M 82.800781 352.199219 L 69 363 L 108.898438 363 L 96.300781 348.898438 Z M 82.800781 352.199219 "/>
<path style="fill:none;stroke-width:0.4;stroke-linecap:round;stroke-linejoin:round;stroke:rgb(0%,0%,0%);stroke-opacity:1;stroke-miterlimit:4;" d="M 21.200521 93.200521 C 21.200521 93.200521 17.200521 91.60026 15.799479 94.700521 C 14.39974 97.799479 18.299479 102.39974 18.700521 103.200521 C 19.135417 103.929688 18.964844 104.869792 18.299479 105.39974 C 15.89974 107 19.39974 109.299479 20.5 106.39974 C 21.60026 103.5 19.10026 100.299479 18.200521 98.200521 C 17.299479 96.10026 16.5 93.60026 21.39974 94.89974 M 38.799479 93.200521 C 38.799479 93.200521 42.799479 91.60026 44.200521 94.700521 C 45.60026 97.799479 41.700521 102.39974 41.299479 103.200521 C 40.864583 103.929688 41.035156 104.869792 41.700521 105.39974 C 44.10026 107 40.60026 109.299479 39.5 106.39974 C 38.39974 103.5 40.89974 100.299479 41.799479 98.200521 C 42.700521 96.10026 43.299479 93.700521 38.39974 95.10026 " transform="matrix(3,0,0,3,0,0)"/>
<path style=" stroke:none;fill-rule:nonzero;fill:rgb(100%,0%,0%);fill-opacity:1;" d="M 82.199219 342.898438 C 82.199219 342.898438 85.5 354.601562 68.699219 360.300781 C 68.699219 360.601562 88.5 363.300781 92.699219 344.699219 Z M 82.199219 342.898438 "/>
<path style=" stroke:none;fill-rule:nonzero;fill:rgb(100%,0%,0%);fill-opacity:1;" d="M 98.101562 342.898438 C 98.101562 342.898438 95.101562 354.601562 111.601562 360.300781 C 111.898438 360.601562 92.101562 362.699219 87.898438 344.101562 C 88.199219 344.398438 98.101562 342.898438 98.101562 342.898438 Z M 98.101562 342.898438 "/>
<path style="fill:none;stroke-width:0.4;stroke-linecap:round;stroke-linejoin:round;stroke:rgb(0%,0%,0%);stroke-opacity:1;stroke-miterlimit:4;" d="M 27.39974 114.299479 C 27.39974 114.299479 28.5 118.200521 22.89974 120.10026 C 22.89974 120.200521 29.39974 121.10026 30.89974 114.89974 C 30.799479 115 27.39974 114.299479 27.39974 114.299479 Z M 27.39974 114.299479 " transform="matrix(3,0,0,3,0,0)"/>
<path style="fill:none;stroke-width:0.4;stroke-linecap:round;stroke-linejoin:round;stroke:rgb(0%,0%,0%);stroke-opacity:1;stroke-miterlimit:4;" d="M 32.700521 114.299479 C 32.700521 114.299479 31.700521 118.200521 37.200521 120.10026 C 37.299479 120.200521 30.60026 120.89974 29.200521 114.700521 C 30.376302 114.665365 31.546875 114.53125 32.700521 114.299479 Z M 32.700521 114.299479 " transform="matrix(3,0,0,3,0,0)"/>
<path style=" stroke:none;fill-rule:nonzero;fill:rgb(100%,0%,0%);fill-opacity:1;" d="M 82.800781 340.800781 C 83.597656 347.875 86.066406 354.664062 90 360.601562 C 90 360.300781 96 355.800781 97.199219 340.800781 Z M 82.800781 340.800781 "/>
<path style="fill:none;stroke-width:0.4;stroke-linecap:round;stroke-linejoin:round;stroke:rgb(0%,0%,0%);stroke-opacity:1;stroke-miterlimit:4;" d="M 27.299479 109.799479 C 27.299479 109.799479 26.700521 116 30 120.10026 C 30 120 33.299479 117.39974 32.89974 109.700521 C 32.89974 109.60026 27.299479 109.799479 27.299479 109.799479 Z M 27.299479 109.799479 " transform="matrix(3,0,0,3,0,0)"/>
<path style="fill-rule:nonzero;fill:rgb(100%,0%,0%);fill-opacity:1;stroke-width:0.4;stroke-linecap:round;stroke-linejoin:round;stroke:rgb(0%,0%,0%);stroke-opacity:1;stroke-miterlimit:4;" d="M 27.200521 113.60026 C 27.200521 113.60026 25.5 114 25.5 116.60026 C 25.5 116.60026 27.89974 117.200521 29 114.200521 M 33.200521 113.60026 C 33.200521 113.60026 34.799479 114 34.799479 116.60026 C 34.799479 116.60026 32.39974 117.200521 31.299479 114.200521 " transform="matrix(3,0,0,3,0,0)"/>
<path style=" stroke:none;fill-rule:nonzero;fill:rgb(100%,0%,0%);fill-opacity:1;" d="M 94.5 342 C 94.5 342 96 346.5 90 352.199219 C 86.773438 349.996094 85.042969 346.179688 85.5 342.300781 Z M 94.5 342 "/>
<path style="fill:none;stroke-width:0.4;stroke-linecap:round;stroke-linejoin:round;stroke:rgb(0%,0%,0%);stroke-opacity:1;stroke-miterlimit:4;" d="M 31.5 114 C 31.5 114 32 115.5 30 117.39974 C 28.942708 116.64974 28.369792 115.389323 28.5 114.10026 Z M 31.5 114 " transform="matrix(3,0,0,3,0,0)"/>
<path style=" stroke:none;fill-rule:nonzero;fill:rgb(84.313725%,62.352941%,3.529412%);fill-opacity:1;" d="M 68.101562 278.398438 C 65.980469 277.789062 63.960938 276.882812 62.101562 275.699219 C 62.398438 276.601562 63 277.800781 63.300781 279 C 63.601562 280.199219 64.199219 282 64.800781 283.5 C 65.398438 285 65.398438 288.300781 65.699219 291.300781 L 65.699219 298.199219 L 64.800781 305.699219 C 64.214844 307.128906 63.90625 308.65625 63.898438 310.199219 C 63.414062 312.464844 63.210938 314.785156 63.300781 317.101562 C 66.601562 313.199219 70.199219 314.101562 73.199219 319.800781 C 74.699219 317.101562 76.199219 315.898438 78 315.601562 C 79.800781 315.300781 78.300781 313.5 78.601562 312.601562 C 79.550781 308.570312 79.753906 304.402344 79.199219 300.300781 L 79.199219 292.800781 C 79.199219 291.601562 78.898438 290.101562 78.898438 288.898438 L 78 280.800781 C 74.75 280.214844 71.542969 279.410156 68.398438 278.398438 M 104.398438 280.5 L 103.800781 292.199219 L 104.699219 315 C 106.5 315.300781 108 316.800781 109.800781 319.800781 C 112.5 313.199219 114.898438 312.601562 117.300781 318 C 117.25 315.589844 117.050781 313.183594 116.699219 310.800781 L 115.800781 305.699219 C 115.234375 303.035156 114.933594 300.324219 114.898438 297.601562 C 114.597656 295.109375 114.597656 292.589844 114.898438 290.101562 C 114.84375 288.195312 114.941406 286.289062 115.199219 284.398438 C 115.800781 282.898438 116.101562 281.398438 116.699219 279.898438 C 117.0625 278.359375 117.566406 276.851562 118.199219 275.398438 C 116.207031 276.804688 113.96875 277.820312 111.601562 278.398438 L 104.398438 280.5 "/>
<path style=" stroke:none;fill-rule:nonzero;fill:rgb(100%,0%,0%);fill-opacity:1;" d="M 120.898438 271.199219 C 120.898438 268.5 117.601562 266.101562 111.601562 264 C 105.082031 262.054688 98.300781 261.144531 91.5 261.300781 C 83.398438 264.300781 79.199219 270 79.800781 278.101562 L 79.800781 280.800781 C 83.175781 281.308594 86.589844 281.507812 90 281.398438 C 94.816406 281.4375 99.628906 281.136719 104.398438 280.5 L 111.601562 278.398438 C 113.96875 277.820312 116.207031 276.804688 118.199219 275.398438 C 119.769531 274.566406 120.792969 272.976562 120.898438 271.199219 "/>
<path style=" stroke:none;fill-rule:nonzero;fill:rgb(19.607843%,34.117647%,13.72549%);fill-opacity:1;" d="M 110.101562 319.800781 C 108.300781 316.800781 106.5 315.300781 104.699219 315 C 102.898438 314.699219 99.898438 316.199219 97.5 320.699219 C 93.300781 313.800781 89.398438 313.800781 85.5 320.699219 C 82.800781 317.101562 80.398438 315.300781 78 315.601562 C 75.898438 316.171875 74.214844 317.742188 73.5 319.800781 C 70.199219 314.101562 66.601562 313.199219 63.300781 317.101562 C 63.0625 317.453125 62.957031 317.878906 63 318.300781 C 63 329.699219 67.800781 337.199219 77.699219 343.199219 L 81.300781 344.398438 C 81.300781 344.398438 86.398438 347.699219 101.699219 343.199219 L 103.800781 342 C 112.359375 337.679688 117.628906 328.78125 117.300781 319.199219 C 117.230469 318.695312 117.128906 318.195312 117 317.699219 C 114 312.300781 112.800781 313.199219 110.101562 319.800781 Z M 110.101562 319.800781 "/>
<path style=" stroke:none;fill-rule:nonzero;fill:rgb(98.431373%,76.078431%,9.803922%);fill-opacity:1;" d="M 103.800781 292.199219 L 104.398438 280.5 C 99.628906 281.136719 94.816406 281.4375 90 281.398438 C 86.589844 281.507812 83.175781 281.308594 79.800781 280.800781 L 77.699219 280.800781 L 78.601562 288.898438 C 78.601562 290.101562 78.898438 291.601562 78.898438 292.800781 L 78.898438 300.300781 C 79.453125 304.402344 79.25 308.570312 78.300781 312.601562 C 78 313.5 78 314.699219 77.699219 315.601562 C 77.398438 316.5 82.5 317.101562 85.199219 320.699219 C 89.101562 313.800781 93 313.800781 97.199219 320.699219 C 99.601562 316.199219 102 314.398438 104.398438 315 L 103.5 292.199219 "/>
<path style=" stroke:none;fill-rule:nonzero;fill:rgb(63.921569%,5.490196%,1.176471%);fill-opacity:1;" d="M 91.5 261.300781 L 90 261.300781 C 82.609375 261.136719 75.230469 262.046875 68.101562 264 C 62.101562 266.199219 59.101562 268.601562 59.101562 271.199219 C 59.144531 272.996094 60.183594 274.613281 61.800781 275.398438 L 62.101562 275.398438 C 63.960938 276.582031 65.980469 277.492188 68.101562 278.101562 C 71.242188 279.109375 74.449219 279.914062 77.699219 280.5 L 79.800781 280.5 L 79.800781 277.800781 C 79.199219 269.699219 83.398438 264 91.5 261 "/>
<path style="fill:none;stroke-width:0.4;stroke-linecap:round;stroke-linejoin:round;stroke:rgb(0%,0%,0%);stroke-opacity:1;stroke-miterlimit:4;" d="M 34.5 97.5 L 38.200521 96.799479 C 38.21224 96.161458 38.278646 95.526042 38.39974 94.89974 C 38.485677 94.388021 38.619792 93.886719 38.799479 93.39974 C 38.90625 92.914062 39.074219 92.442708 39.299479 92 L 37.200521 92.89974 L 34.799479 93.60026 C 33.175781 93.808594 31.53776 93.908854 29.89974 93.89974 L 25.89974 93.89974 L 22.60026 93.10026 L 20.60026 92.200521 C 20.785156 92.557292 20.951823 92.924479 21.10026 93.299479 C 21.200521 93.799479 21.39974 94.299479 21.5 94.799479 C 21.690104 95.657552 21.822917 96.526042 21.89974 97.39974 L 26.200521 97.89974 C 28.972656 98.016927 31.751302 97.882812 34.5 97.5 Z M 34.5 97.5 " transform="matrix(3,0,0,3,0,0)"/>
<path style="fill:none;stroke-width:0.4;stroke-linecap:round;stroke-linejoin:round;stroke:rgb(0%,0%,0%);stroke-opacity:1;stroke-miterlimit:4;" d="M 20.60026 92 L 20.5 92 C 19.89974 91.5 19.60026 91.10026 19.60026 90.60026 C 19.60026 90.10026 20.60026 88.799479 22.60026 88.200521 C 24.96224 87.470052 27.428385 87.13151 29.89974 87.200521 L 30.5 87.200521 C 32.772135 87.184896 35.03125 87.522135 37.200521 88.200521 C 39.200521 88.799479 40.200521 89.60026 40.200521 90.60026 C 40.105469 91.170573 39.779948 91.677083 39.299479 92 M 26.39974 100.200521 C 24.852865 100.071615 23.315104 99.838542 21.799479 99.5 L 21.5 102 L 21.200521 103.5 C 21.088542 104.261719 21.020833 105.029948 21 105.799479 C 22.200521 104.5 23.299479 104.799479 24.39974 106.700521 C 24.89974 105.799479 25.39974 105.39974 25.89974 105.299479 C 26.39974 105.200521 27.5 105.799479 28.39974 107 C 29.700521 104.700521 31 104.700521 32.39974 107 C 33.200521 105.5 34 104.89974 34.799479 105.10026 C 35.566406 105.371094 36.182292 105.951823 36.5 106.700521 C 37.39974 104.5 38.299479 104.299479 39 106.10026 C 39.013021 105.298177 38.979167 104.497396 38.89974 103.700521 C 38.708333 103.148438 38.574219 102.579427 38.5 102 C 38.3125 101.111979 38.21224 100.207031 38.200521 99.299479 L 34.5 100 C 31.815104 100.365885 29.098958 100.433594 26.39974 100.200521 Z M 26.39974 100.200521 " transform="matrix(3,0,0,3,0,0)"/>
<path style="fill:none;stroke-width:0.4;stroke-linecap:round;stroke-linejoin:round;stroke:rgb(0%,0%,0%);stroke-opacity:1;stroke-miterlimit:4;" d="M 39 106.60026 C 39.045573 109.751302 37.302083 112.657552 34.5 114.10026 C 31.760417 115.246094 28.690104 115.317708 25.89974 114.299479 C 22.727865 112.738281 20.796875 109.429688 21 105.89974 M 39 106.10026 L 39 106.60026 M 21.89974 97.200521 C 21.89974 97.89974 21.799479 98.700521 21.799479 99.5 M 38.200521 99.299479 C 38.098958 98.470052 38.098958 97.630208 38.200521 96.799479 M 24.39974 106.700521 C 24.44401 108.447917 24.645833 110.1875 25 111.89974 M 28.39974 107 L 28.799479 112.39974 M 36.5 106.700521 C 36.455729 108.447917 36.255208 110.1875 35.89974 111.89974 M 32.5 107 L 32.10026 112.39974 " transform="matrix(3,0,0,3,0,0)"/>
<path style="fill-rule:nonzero;fill:rgb(100%,0%,0%);fill-opacity:1;stroke-width:0.4;stroke-linecap:round;stroke-linejoin:round;stroke:rgb(0%,0%,0%);stroke-opacity:1;stroke-miterlimit:4;" d="M 37.39974 120.200521 L 38.89974 120.200521 L 38.89974 123.89974 L 21.10026 123.89974 L 21.10026 120.200521 Z M 37.39974 120.200521 " transform="matrix(3,0,0,3,0,0)"/>
<path style=" stroke:none;fill-rule:nonzero;fill:rgb(63.921569%,5.490196%,1.176471%);fill-opacity:1;" d="M 163.800781 244.199219 L 150 255 L 189.898438 255 L 177.300781 240.898438 Z M 163.800781 244.199219 "/>
<path style="fill:none;stroke-width:0.4;stroke-linecap:round;stroke-linejoin:round;stroke:rgb(0%,0%,0%);stroke-opacity:1;stroke-miterlimit:4;" d="M 48.200521 57.200521 C 48.200521 57.200521 44.200521 55.60026 42.799479 58.700521 C 41.39974 61.799479 45.299479 66.39974 45.700521 67.200521 C 46.135417 67.929688 45.964844 68.869792 45.299479 69.39974 C 42.89974 71 46.39974 73.299479 47.5 70.39974 C 48.60026 67.5 46.10026 64.299479 45.200521 62.200521 C 44.299479 60.10026 43.5 57.60026 48.39974 58.89974 M 65.799479 57.200521 C 65.799479 57.200521 69.799479 55.60026 71.200521 58.700521 C 72.60026 61.799479 68.700521 66.39974 68.299479 67.200521 C 67.864583 67.929688 68.035156 68.869792 68.700521 69.39974 C 71.10026 71 67.60026 73.299479 66.5 70.39974 C 65.39974 67.5 67.89974 64.299479 68.799479 62.200521 C 69.700521 60.10026 70.299479 57.700521 65.39974 59.10026 " transform="matrix(3,0,0,3,0,0)"/>
<path style=" stroke:none;fill-rule:nonzero;fill:rgb(100%,0%,0%);fill-opacity:1;" d="M 163.199219 234.898438 C 163.199219 234.898438 166.5 246.601562 149.699219 252.300781 C 149.699219 252.601562 169.5 255.300781 173.699219 236.699219 Z M 163.199219 234.898438 "/>
<path style=" stroke:none;fill-rule:nonzero;fill:rgb(100%,0%,0%);fill-opacity:1;" d="M 179.101562 234.898438 C 179.101562 234.898438 176.101562 246.601562 192.601562 252.300781 C 192.898438 252.601562 173.101562 254.699219 168.898438 236.101562 C 169.199219 236.398438 179.101562 234.898438 179.101562 234.898438 Z M 179.101562 234.898438 "/>
<path style="fill:none;stroke-width:0.4;stroke-linecap:round;stroke-linejoin:round;stroke:rgb(0%,0%,0%);stroke-opacity:1;stroke-miterlimit:4;" d="M 54.39974 78.299479 C 54.39974 78.299479 55.5 82.200521 49.89974 84.10026 C 49.89974 84.200521 56.39974 85.10026 57.89974 78.89974 C 57.799479 79 54.39974 78.299479 54.39974 78.299479 Z M 54.39974 78.299479 " transform="matrix(3,0,0,3,0,0)"/>
<path style="fill:none;stroke-width:0.4;stroke-linecap:round;stroke-linejoin:round;stroke:rgb(0%,0%,0%);stroke-opacity:1;stroke-miterlimit:4;" d="M 59.700521 78.299479 C 59.700521 78.299479 58.700521 82.200521 64.200521 84.10026 C 64.299479 84.200521 57.60026 84.89974 56.200521 78.700521 C 57.376302 78.665365 58.546875 78.53125 59.700521 78.299479 Z M 59.700521 78.299479 " transform="matrix(3,0,0,3,0,0)"/>
<path style=" stroke:none;fill-rule:nonzero;fill:rgb(100%,0%,0%);fill-opacity:1;" d="M 163.800781 232.800781 C 164.597656 239.875 167.066406 246.664062 171 252.601562 C 171 252.300781 177 247.800781 178.199219 232.800781 Z M 163.800781 232.800781 "/>
<path style="fill:none;stroke-width:0.4;stroke-linecap:round;stroke-linejoin:round;stroke:rgb(0%,0%,0%);stroke-opacity:1;stroke-miterlimit:4;" d="M 54.299479 73.799479 C 54.299479 73.799479 53.700521 80 57 84.10026 C 57 84 60.299479 81.39974 59.89974 73.700521 C 59.89974 73.60026 54.299479 73.799479 54.299479 73.799479 Z M 54.299479 73.799479 " transform="matrix(3,0,0,3,0,0)"/>
<path style="fill-rule:nonzero;fill:rgb(100%,0%,0%);fill-opacity:1;stroke-width:0.4;stroke-linecap:round;stroke-linejoin:round;stroke:rgb(0%,0%,0%);stroke-opacity:1;stroke-miterlimit:4;" d="M 54.200521 77.60026 C 54.200521 77.60026 52.5 78 52.5 80.60026 C 52.5 80.60026 54.89974 81.200521 56 78.200521 M 60.200521 77.60026 C 60.200521 77.60026 61.799479 78 61.799479 80.60026 C 61.799479 80.60026 59.39974 81.200521 58.299479 78.200521 " transform="matrix(3,0,0,3,0,0)"/>
<path style=" stroke:none;fill-rule:nonzero;fill:rgb(100%,0%,0%);fill-opacity:1;" d="M 175.5 234 C 175.5 234 177 238.5 171 244.199219 C 167.773438 241.996094 166.042969 238.179688 166.5 234.300781 Z M 175.5 234 "/>
<path style="fill:none;stroke-width:0.4;stroke-linecap:round;stroke-linejoin:round;stroke:rgb(0%,0%,0%);stroke-opacity:1;stroke-miterlimit:4;" d="M 58.5 78 C 58.5 78 59 79.5 57 81.39974 C 55.942708 80.64974 55.369792 79.389323 55.5 78.10026 Z M 58.5 78 " transform="matrix(3,0,0,3,0,0)"/>
<path style=" stroke:none;fill-rule:nonzero;fill:rgb(84.313725%,62.352941%,3.529412%);fill-opacity:1;" d="M 149.101562 170.398438 C 146.980469 169.789062 144.960938 168.882812 143.101562 167.699219 C 143.398438 168.601562 144 169.800781 144.300781 171 C 144.601562 172.199219 145.199219 174 145.800781 175.5 C 146.398438 177 146.398438 180.300781 146.699219 183.300781 L 146.699219 190.199219 L 145.800781 197.699219 C 145.214844 199.128906 144.90625 200.65625 144.898438 202.199219 C 144.414062 204.464844 144.210938 206.785156 144.300781 209.101562 C 147.601562 205.199219 151.199219 206.101562 154.199219 211.800781 C 155.699219 209.101562 157.199219 207.898438 159 207.601562 C 160.800781 207.300781 159.300781 205.5 159.601562 204.601562 C 160.550781 200.570312 160.753906 196.402344 160.199219 192.300781 L 160.199219 184.800781 C 160.199219 183.601562 159.898438 182.101562 159.898438 180.898438 L 159 172.800781 C 155.75 172.214844 152.542969 171.410156 149.398438 170.398438 M 185.398438 172.5 L 184.800781 184.199219 L 185.699219 207 C 187.5 207.300781 189 208.800781 190.800781 211.800781 C 193.5 205.199219 195.898438 204.601562 198.300781 210 C 198.25 207.589844 198.050781 205.183594 197.699219 202.800781 L 196.800781 197.699219 C 196.234375 195.035156 195.933594 192.324219 195.898438 189.601562 C 195.597656 187.109375 195.597656 184.589844 195.898438 182.101562 C 195.84375 180.195312 195.941406 178.289062 196.199219 176.398438 C 196.800781 174.898438 197.101562 173.398438 197.699219 171.898438 C 198.0625 170.359375 198.566406 168.851562 199.199219 167.398438 C 197.207031 168.804688 194.96875 169.820312 192.601562 170.398438 L 185.398438 172.5 "/>
<path style=" stroke:none;fill-rule:nonzero;fill:rgb(100%,0%,0%);fill-opacity:1;" d="M 201.898438 163.199219 C 201.898438 160.5 198.601562 158.101562 192.601562 156 C 186.082031 154.054688 179.300781 153.144531 172.5 153.300781 C 164.398438 156.300781 160.199219 162 160.800781 170.101562 L 160.800781 172.800781 C 164.175781 173.308594 167.589844 173.507812 171 173.398438 C 175.816406 173.4375 180.628906 173.136719 185.398438 172.5 L 192.601562 170.398438 C 194.96875 169.820312 197.207031 168.804688 199.199219 167.398438 C 200.769531 166.566406 201.792969 164.976562 201.898438 163.199219 "/>
<path style=" stroke:none;fill-rule:nonzero;fill:rgb(19.607843%,34.117647%,13.72549%);fill-opacity:1;" d="M 190.5 212.398438 C 189.546875 210.15625 187.699219 208.414062 185.398438 207.601562 C 183 207 180.601562 208.800781 178.199219 213.300781 C 174 206.398438 169.800781 206.398438 165.898438 213.300781 C 163.5 209.699219 160.800781 207.898438 158.699219 208.5 C 156.601562 209.101562 155.398438 209.699219 153.898438 212.398438 C 150.601562 206.699219 147.300781 205.800781 143.699219 209.699219 C 140.101562 213.601562 143.398438 210 143.699219 210.300781 C 143.699219 222 148.5 228.601562 158.398438 234.601562 L 160.5 235.199219 C 160.5 235.199219 168 239.699219 183.300781 234.898438 L 184.199219 234.898438 C 192.90625 230.429688 198.191406 221.273438 197.699219 211.5 L 197.699219 210 C 194.699219 204.898438 193.5 205.800781 190.5 212.398438 Z M 190.5 212.398438 "/>
<path style=" stroke:none;fill-rule:nonzero;fill:rgb(98.431373%,76.078431%,9.803922%);fill-opacity:1;" d="M 184.800781 184.199219 L 185.398438 172.5 C 180.628906 173.136719 175.816406 173.4375 171 173.398438 C 167.589844 173.507812 164.175781 173.308594 160.800781 172.800781 L 158.699219 172.800781 L 159.601562 180.898438 C 159.601562 182.101562 159.898438 183.601562 159.898438 184.800781 L 159.898438 192.300781 C 160.453125 196.402344 160.25 200.570312 159.300781 204.601562 C 159 205.5 159 206.699219 158.699219 207.601562 C 158.398438 208.5 163.5 209.101562 166.199219 212.699219 C 170.101562 205.800781 174 205.800781 178.199219 212.699219 C 180.601562 208.199219 183 206.398438 185.398438 207 L 184.5 184.199219 "/>
<path style=" stroke:none;fill-rule:nonzero;fill:rgb(63.921569%,5.490196%,1.176471%);fill-opacity:1;" d="M 172.5 153.300781 L 171 153.300781 C 163.609375 153.136719 156.230469 154.046875 149.101562 156 C 143.101562 158.199219 140.101562 160.601562 140.101562 163.199219 C 140.144531 164.996094 141.183594 166.613281 142.800781 167.398438 L 143.101562 167.398438 C 144.960938 168.582031 146.980469 169.492188 149.101562 170.101562 C 152.242188 171.109375 155.449219 171.914062 158.699219 172.5 L 160.800781 172.5 L 160.800781 169.800781 C 160.199219 161.699219 164.398438 156 172.5 153 "/>
<path style="fill:none;stroke-width:0.4;stroke-linecap:round;stroke-linejoin:round;stroke:rgb(0%,0%,0%);stroke-opacity:1;stroke-miterlimit:4;" d="M 61.5 61.5 L 65.200521 60.799479 C 65.21224 60.161458 65.278646 59.526042 65.39974 58.89974 C 65.485677 58.388021 65.619792 57.886719 65.799479 57.39974 C 65.90625 56.914062 66.074219 56.442708 66.299479 56 L 64.200521 56.89974 L 61.799479 57.60026 C 60.175781 57.808594 58.53776 57.908854 56.89974 57.89974 L 52.89974 57.89974 L 49.60026 57.10026 L 47.60026 56.200521 C 47.785156 56.557292 47.951823 56.924479 48.10026 57.299479 C 48.200521 57.799479 48.39974 58.299479 48.5 58.799479 C 48.690104 59.657552 48.822917 60.526042 48.89974 61.39974 L 53.200521 61.89974 C 55.972656 62.016927 58.751302 61.882812 61.5 61.5 Z M 47.60026 56 L 47.5 56 C 46.89974 55.5 46.60026 55.10026 46.60026 54.60026 C 46.60026 54.10026 47.60026 52.799479 49.60026 52.200521 C 51.96224 51.470052 54.428385 51.13151 56.89974 51.200521 L 57.5 51.200521 C 59.772135 51.184896 62.03125 51.522135 64.200521 52.200521 C 66.200521 52.799479 67.200521 53.60026 67.200521 54.60026 C 67.105469 55.170573 66.779948 55.677083 66.299479 56 M 53.39974 64.200521 C 51.852865 64.071615 50.315104 63.838542 48.799479 63.5 L 48.5 66 L 48.200521 67.5 C 48.088542 68.261719 48.020833 69.029948 48 69.799479 C 49.200521 68.5 50.299479 68.799479 51.39974 70.700521 C 51.89974 69.799479 52.39974 69.39974 52.89974 69.299479 C 53.39974 69.200521 54.5 69.799479 55.39974 71 C 56.700521 68.700521 58 68.700521 59.39974 71 C 60.200521 69.5 61 68.89974 61.799479 69.10026 C 62.566406 69.371094 63.182292 69.951823 63.5 70.700521 C 64.39974 68.5 65.299479 68.299479 66 70.10026 C 66.013021 69.298177 65.979167 68.497396 65.89974 67.700521 C 65.708333 67.148438 65.574219 66.579427 65.5 66 C 65.3125 65.111979 65.21224 64.207031 65.200521 63.299479 L 61.5 64 C 58.815104 64.365885 56.098958 64.433594 53.39974 64.200521 Z M 53.39974 64.200521 " transform="matrix(3,0,0,3,0,0)"/>
<path style="fill:none;stroke-width:0.4;stroke-linecap:round;stroke-linejoin:round;stroke:rgb(0%,0%,0%);stroke-opacity:1;stroke-miterlimit:4;" d="M 66 70.60026 C 66.045573 73.751302 64.302083 76.657552 61.5 78.10026 C 58.760417 79.246094 55.690104 79.317708 52.89974 78.299479 C 49.727865 76.738281 47.796875 73.429688 48 69.89974 M 66 70.10026 L 66 70.60026 M 48.89974 61.200521 C 48.89974 61.89974 48.799479 62.700521 48.799479 63.5 M 65.200521 63.299479 C 65.098958 62.470052 65.098958 61.630208 65.200521 60.799479 M 51.39974 70.700521 C 51.44401 72.447917 51.645833 74.1875 52 75.89974 M 55.39974 71 L 55.799479 76.39974 M 63.5 70.700521 C 63.455729 72.447917 63.255208 74.1875 62.89974 75.89974 M 59.5 71 L 59.10026 76.39974 " transform="matrix(3,0,0,3,0,0)"/>
<path style="fill-rule:nonzero;fill:rgb(100%,0%,0%);fill-opacity:1;stroke-width:0.4;stroke-linecap:round;stroke-linejoin:round;stroke:rgb(0%,0%,0%);stroke-opacity:1;stroke-miterlimit:4;" d="M 64.39974 84.200521 L 65.89974 84.200521 L 65.89974 87.89974 L 48.10026 87.89974 L 48.10026 84.200521 Z M 64.39974 84.200521 " transform="matrix(3,0,0,3,0,0)"/>
</g>
</svg>
