<?xml version="1.0" encoding="UTF-8"?>
<svg xmlns="http://www.w3.org/2000/svg" xmlns:xlink="http://www.w3.org/1999/xlink" width="261px" height="420px" viewBox="0 0 261 426" version="1.1">
<g id="surface1">
<path style=" stroke:none;fill-rule:nonzero;fill:rgb(100%,100%,100%);fill-opacity:1;" d="M 18 0 L 243 0 C 252.941406 0 261 8.175781 261 18.257812 L 261 407.742188 C 261 417.824219 252.941406 426 243 426 L 18 426 C 8.058594 426 0 417.824219 0 407.742188 L 0 18.257812 C 0 8.175781 8.058594 0 18 0 Z M 18 0 "/>
<path style=" stroke:none;fill-rule:nonzero;fill:rgb(0%,39.607843%,71.764706%);fill-opacity:1;" d="M 141 62.683594 L 130.800781 51.117188 L 120.898438 62.683594 L 120.898438 311.589844 L 141 311.589844 Z M 141 62.683594 "/>
<path style=" stroke:none;fill-rule:nonzero;fill:rgb(0%,30.196078%,63.137255%);fill-opacity:1;" d="M 141 62.683594 L 130.800781 51.117188 L 130.800781 311.589844 L 141 311.589844 Z M 141 62.683594 "/>
<path style="fill:none;stroke-width:0.4;stroke-linecap:round;stroke-linejoin:round;stroke:rgb(0%,0%,0%);stroke-opacity:1;stroke-miterlimit:4;" d="M 46.999993 20.600241 L 43.600254 16.799075 L 40.299474 20.600241 L 40.299474 102.400414 L 46.999993 102.400414 Z M 46.999993 20.600241 " transform="matrix(3,0,0,3.042857,0,0)"/>
<path style="fill:none;stroke-width:0.4;stroke-linecap:round;stroke-linejoin:round;stroke:rgb(0%,0%,0%);stroke-opacity:1;stroke-miterlimit:4;" d="M 43.600254 16.799075 L 43.600254 102.300282 " transform="matrix(3,0,0,3.042857,0,0)"/>
<path style="fill-rule:nonzero;fill:rgb(99.607843%,74.901961%,6.27451%);fill-opacity:1;stroke-width:0.4;stroke-linecap:round;stroke-linejoin:round;stroke:rgb(0%,0%,0%);stroke-opacity:1;stroke-miterlimit:4;" d="M 43.739577 105.039791 L 40.679682 101.890767 L 43.860671 98.790525 L 46.929681 101.949819 Z M 43.739577 105.039791 " transform="matrix(3,0,0,3.042857,0,0)"/>
<path style=" stroke:none;fill-rule:nonzero;fill:rgb(0%,0%,0%);fill-opacity:1;" d="M 131.097656 323.152344 L 121.917969 313.566406 L 131.460938 304.132812 L 140.667969 313.75 Z M 131.097656 323.152344 "/>
<path style="fill-rule:nonzero;fill:rgb(99.607843%,74.901961%,6.27451%);fill-opacity:1;stroke-width:0.4;stroke-linecap:round;stroke-linejoin:round;stroke:rgb(0%,0%,0%);stroke-opacity:1;stroke-miterlimit:4;" d="M 40.299474 111.299328 C 40.399734 105.8999 41.899734 102.499262 43.699213 102.499262 C 45.499994 102.499262 46.799473 106.000032 46.799473 111.400743 C 46.615879 114.952863 45.437494 118.383027 43.399734 121.299694 C 41.484369 118.307286 40.412755 114.852731 40.299474 111.299328 Z M 40.299474 111.299328 " transform="matrix(3,0,0,3.042857,0,0)"/>
<path style="fill:none;stroke-width:0.4;stroke-linecap:round;stroke-linejoin:round;stroke:rgb(0%,0%,0%);stroke-opacity:1;stroke-miterlimit:4;" d="M 46.700514 108.90001 C 45.999994 110.000179 45.100254 110.699819 43.100254 112.500912 C 42.09765 113.272442 41.335932 114.312275 40.899734 115.499738 M 41.699213 118.000472 C 42.264317 117.150633 42.937494 116.377819 43.699213 115.700002 C 44.769525 114.806516 45.772129 113.83729 46.700514 112.800024 M 46.200514 105.400524 C 45.399733 106.700956 44.600254 107.399313 42.499994 109.299254 C 41.618484 110.041258 40.902338 110.962987 40.399734 112.000252 " transform="matrix(3,0,0,3.042857,0,0)"/>
<path style="fill:none;stroke-width:0.4;stroke-linecap:round;stroke-linejoin:round;stroke:rgb(0%,0%,0%);stroke-opacity:1;stroke-miterlimit:4;" d="M 40.899734 115.499738 C 41.335932 114.312275 42.09765 113.272442 43.100254 112.500912 C 45.100254 110.699819 45.999994 110.000179 46.700514 108.90001 M 45.300775 102.999922 C 44.373692 104.134752 43.334629 105.173301 42.200515 106.100164 L 40.600255 107.699709 M 40.399734 112.000252 C 40.902338 110.962987 41.618484 110.041258 42.499994 109.299254 C 44.600254 107.399313 45.399733 106.700956 46.200514 105.400524 " transform="matrix(3,0,0,3.042857,0,0)"/>
<path style="fill-rule:nonzero;fill:rgb(99.607843%,74.901961%,6.27451%);fill-opacity:1;stroke-width:0.4;stroke-linecap:round;stroke-linejoin:round;stroke:rgb(0%,0%,0%);stroke-opacity:1;stroke-miterlimit:4;" d="M 42.200515 104.899863 C 42.200515 106.943584 40.544265 108.600898 38.499995 108.600898 C 36.457026 108.600898 34.800776 106.943584 34.800776 104.899863 C 34.800776 102.857427 36.457026 101.198829 38.499995 101.198829 C 40.544265 101.198829 42.200515 102.857427 42.200515 104.899863 Z M 42.200515 104.899863 " transform="matrix(3,0,0,3.042857,0,0)"/>
<path style="fill-rule:nonzero;fill:rgb(99.607843%,74.901961%,6.27451%);fill-opacity:1;stroke-width:0.4;stroke-linecap:round;stroke-linejoin:round;stroke:rgb(0%,0%,0%);stroke-opacity:1;stroke-miterlimit:4;" d="M 41.100255 104.899863 C 41.100255 106.336373 39.936192 107.500729 38.499995 107.500729 C 37.063797 107.500729 35.901037 106.336373 35.901037 104.899863 C 35.901037 103.463354 37.063797 102.300282 38.499995 102.300282 C 39.936192 102.300282 41.100255 103.463354 41.100255 104.899863 Z M 41.100255 104.899863 " transform="matrix(3,0,0,3.042857,0,0)"/>
<path style=" stroke:none;fill-rule:nonzero;fill:rgb(81.568627%,60.784314%,2.745098%);fill-opacity:1;" d="M 119.703125 319.195312 C 119.703125 321.546875 117.820312 323.457031 115.5 323.457031 C 113.179688 323.457031 111.300781 321.546875 111.300781 319.195312 C 111.300781 316.84375 113.179688 314.933594 115.5 314.933594 C 117.820312 314.933594 119.703125 316.84375 119.703125 319.195312 Z M 119.703125 319.195312 "/>
<path style="fill-rule:nonzero;fill:rgb(99.607843%,74.901961%,6.27451%);fill-opacity:1;stroke-width:0.4;stroke-linecap:round;stroke-linejoin:round;stroke:rgb(0%,0%,0%);stroke-opacity:1;stroke-miterlimit:4;" d="M 52.499993 105.100127 C 52.499993 107.142564 50.843743 108.801162 48.799472 108.801162 C 46.756504 108.801162 45.100254 107.142564 45.100254 105.100127 C 45.100254 103.056407 46.756504 101.400377 48.799472 101.400377 C 50.843743 101.400377 52.499993 103.056407 52.499993 105.100127 Z M 52.499993 105.100127 " transform="matrix(3,0,0,3.042857,0,0)"/>
<path style="fill-rule:nonzero;fill:rgb(99.607843%,74.901961%,6.27451%);fill-opacity:1;stroke-width:0.4;stroke-linecap:round;stroke-linejoin:round;stroke:rgb(0%,0%,0%);stroke-opacity:1;stroke-miterlimit:4;" d="M 51.401034 105.100127 C 51.401034 106.536637 50.23567 107.699709 48.799472 107.699709 C 47.363275 107.699709 46.200514 106.536637 46.200514 105.100127 C 46.200514 103.663618 47.363275 102.499262 48.799472 102.499262 C 50.23567 102.499262 51.401034 103.663618 51.401034 105.100127 Z M 51.401034 105.100127 " transform="matrix(3,0,0,3.042857,0,0)"/>
<path style=" stroke:none;fill-rule:nonzero;fill:rgb(81.568627%,60.784314%,2.745098%);fill-opacity:1;" d="M 150.597656 319.804688 C 150.597656 322.15625 148.71875 324.066406 146.398438 324.066406 C 144.078125 324.066406 142.199219 322.15625 142.199219 319.804688 C 142.199219 317.453125 144.078125 315.542969 146.398438 315.542969 C 148.71875 315.542969 150.597656 317.453125 150.597656 319.804688 Z M 150.597656 319.804688 "/>
<path style="fill-rule:nonzero;fill:rgb(99.607843%,74.901961%,6.27451%);fill-opacity:1;stroke-width:0.4;stroke-linecap:round;stroke-linejoin:round;stroke:rgb(0%,0%,0%);stroke-opacity:1;stroke-miterlimit:4;" d="M 44.999694 122.399892 C 44.999688 121.847755 44.283447 121.399378 43.400153 121.399992 C 42.51686 121.400606 41.799007 121.848173 41.800297 122.400292 C 41.800304 122.952429 42.516545 123.400806 43.399838 123.400192 C 44.283132 123.399578 45.001003 122.953313 44.999694 122.399892 Z M 44.999694 122.399892 " transform="matrix(0.0418866,-3.04256,2.999708,0.0424849,-238.486271,499.596944)"/>
<path style="fill-rule:nonzero;fill:rgb(99.607843%,74.901961%,6.27451%);fill-opacity:1;stroke-width:0.4;stroke-linecap:round;stroke-linejoin:round;stroke:rgb(0%,0%,0%);stroke-opacity:1;stroke-miterlimit:4;" d="M 46.399606 120.499992 C 46.400098 119.615784 45.952294 118.89931 45.398963 118.900526 C 44.848163 118.899101 44.399837 119.616368 44.400629 120.500558 C 44.400119 121.383464 44.847923 122.099937 45.399988 122.100042 C 45.953337 122.100128 46.400397 121.384181 46.399606 120.499992 Z M 46.399606 120.499992 " transform="matrix(0.0418866,-3.04256,2.999708,0.0424849,-226.810606,499.92135)"/>
<path style="fill-rule:nonzero;fill:rgb(99.607843%,74.901961%,6.27451%);fill-opacity:1;stroke-width:0.4;stroke-linecap:round;stroke-linejoin:round;stroke:rgb(0%,0%,0%);stroke-opacity:1;stroke-miterlimit:4;" d="M 42.398922 120.50024 C 42.400716 119.617316 41.952893 118.899541 41.399544 118.899454 C 40.847497 118.900651 40.399153 119.616617 40.399927 120.499504 C 40.400718 121.383694 40.848522 122.100168 41.399304 122.10029 C 41.952635 122.099075 42.399695 121.383128 42.398922 120.50024 Z M 42.398922 120.50024 " transform="matrix(0.0418866,-3.04256,2.999708,0.0424849,-238.792213,487.780268)"/>
<path style="fill-rule:nonzero;fill:rgb(99.607843%,74.901961%,6.27451%);fill-opacity:1;stroke-width:0.4;stroke-linecap:round;stroke-linejoin:round;stroke:rgb(0%,0%,0%);stroke-opacity:1;stroke-miterlimit:4;" d="M 44.600254 120.300941 C 44.600254 120.962069 44.062494 121.499958 43.399734 121.499958 C 42.736973 121.499958 42.200515 120.962069 42.200515 120.300941 C 42.200515 119.637245 42.736973 119.10064 43.399734 119.10064 C 44.062494 119.10064 44.600254 119.637245 44.600254 120.300941 Z M 44.600254 120.300941 " transform="matrix(3,0,0,3.042857,0,0)"/>
<path style=" stroke:none;fill-rule:nonzero;fill:rgb(81.568627%,60.784314%,2.745098%);fill-opacity:1;" d="M 130.199219 368.492188 L 131.699219 368.492188 C 130.492188 368.335938 129.589844 367.289062 129.601562 366.058594 C 129.507812 365.316406 129.859375 364.597656 130.5 364.230469 L 130.199219 364.230469 C 129.042969 364.230469 128.097656 365.183594 128.097656 366.359375 C 128.097656 367.535156 129.042969 368.492188 130.199219 368.492188 Z M 130.199219 368.492188 "/>
<path style="fill-rule:nonzero;fill:rgb(99.607843%,74.901961%,6.27451%);fill-opacity:1;stroke-width:0.4;stroke-linecap:round;stroke-linejoin:round;stroke:rgb(0%,0%,0%);stroke-opacity:1;stroke-miterlimit:4;" d="M 45.499994 108.100237 C 45.499994 109.093855 44.694004 109.900047 43.699213 109.900047 C 42.705723 109.900047 41.899734 109.093855 41.899734 108.100237 C 41.899734 107.105336 42.705723 106.300428 43.699213 106.300428 C 44.694004 106.300428 45.499994 107.105336 45.499994 108.100237 Z M 45.499994 108.100237 " transform="matrix(3,0,0,3.042857,0,0)"/>
<path style=" stroke:none;fill-rule:nonzero;fill:rgb(0%,0%,0%);fill-opacity:1;" d="M 134.398438 328.933594 C 134.398438 330.78125 132.921875 332.28125 131.097656 332.28125 C 129.277344 332.28125 127.800781 330.78125 127.800781 328.933594 C 127.800781 327.082031 129.277344 325.585938 131.097656 325.585938 C 132.921875 325.585938 134.398438 327.082031 134.398438 328.933594 Z M 134.398438 328.933594 "/>
<path style="fill-rule:nonzero;fill:rgb(99.607843%,74.901961%,6.27451%);fill-opacity:1;stroke-width:0.4;stroke-linecap:round;stroke-linejoin:round;stroke:rgb(0%,0%,0%);stroke-opacity:1;stroke-miterlimit:4;" d="M 48.600254 105.100127 C 48.600254 106.093745 47.794264 106.899937 46.799473 106.899937 C 45.805983 106.899937 44.999994 106.093745 44.999994 105.100127 C 44.999994 104.105226 45.805983 103.299034 46.799473 103.299034 C 47.794264 103.299034 48.600254 104.105226 48.600254 105.100127 Z M 48.600254 105.100127 " transform="matrix(3,0,0,3.042857,0,0)"/>
<path style=" stroke:none;fill-rule:nonzero;fill:rgb(0%,0%,0%);fill-opacity:1;" d="M 143.699219 319.804688 C 143.699219 321.652344 142.222656 323.152344 140.398438 323.152344 C 138.574219 323.152344 137.097656 321.652344 137.097656 319.804688 C 137.097656 317.957031 138.574219 316.457031 140.398438 316.457031 C 142.222656 316.457031 143.699219 317.957031 143.699219 319.804688 Z M 143.699219 319.804688 "/>
<path style="fill-rule:nonzero;fill:rgb(99.607843%,74.901961%,6.27451%);fill-opacity:1;stroke-width:0.4;stroke-linecap:round;stroke-linejoin:round;stroke:rgb(0%,0%,0%);stroke-opacity:1;stroke-miterlimit:4;" d="M 42.200515 105.100127 C 42.200515 106.093745 41.394525 106.899937 40.399734 106.899937 C 39.406244 106.899937 38.600255 106.093745 38.600255 105.100127 C 38.600255 104.105226 39.406244 103.299034 40.399734 103.299034 C 41.394525 103.299034 42.200515 104.105226 42.200515 105.100127 Z M 42.200515 105.100127 " transform="matrix(3,0,0,3.042857,0,0)"/>
<path style=" stroke:none;fill-rule:nonzero;fill:rgb(0%,0%,0%);fill-opacity:1;" d="M 124.5 319.804688 C 124.5 321.652344 123.023438 323.152344 121.199219 323.152344 C 119.375 323.152344 117.898438 321.652344 117.898438 319.804688 C 117.898438 317.957031 119.375 316.457031 121.199219 316.457031 C 123.023438 316.457031 124.5 317.957031 124.5 319.804688 Z M 124.5 319.804688 "/>
<path style="fill-rule:nonzero;fill:rgb(99.607843%,74.901961%,6.27451%);fill-opacity:1;stroke-width:0.4;stroke-linecap:round;stroke-linejoin:round;stroke:rgb(0%,0%,0%);stroke-opacity:1;stroke-miterlimit:4;" d="M 46.700514 105.100127 C 46.700514 106.757441 45.356764 108.100237 43.699213 108.100237 C 42.042963 108.100237 40.699213 106.757441 40.699213 105.100127 C 40.699213 103.442814 42.042963 102.100018 43.699213 102.100018 C 45.356764 102.100018 46.700514 103.442814 46.700514 105.100127 Z M 46.700514 105.100127 " transform="matrix(3,0,0,3.042857,0,0)"/>
<path style=" stroke:none;fill-rule:nonzero;fill:rgb(100%,0%,0%);fill-opacity:1;" d="M 121.199219 219.390625 C 121.199219 219.085938 110.402344 195.046875 89.402344 182.265625 L 97.796875 168.269531 C 123 183.789062 135.601562 211.175781 136.199219 212.390625 Z M 121.199219 219.390625 "/>
<path style="fill-rule:nonzero;fill:rgb(100%,0%,0%);fill-opacity:1;stroke-width:0.4;stroke-linecap:round;stroke-linejoin:round;stroke:rgb(100%,100%,100%);stroke-opacity:1;stroke-miterlimit:4;" d="M 46.700514 72.100202 C 46.700514 72.00007 50.401035 64.099909 57.299471 59.899499 L 54.499992 55.299844 C 49.003899 58.86095 44.605463 63.882956 41.799473 69.799733 Z M 46.700514 72.100202 " transform="matrix(3,0,0,3.042857,0,0)"/>
<path style=" stroke:none;fill-rule:nonzero;fill:rgb(59.607843%,3.137255%,1.960784%);fill-opacity:1;" d="M 96.601562 180.441406 C 96.601562 180.441406 113.703125 189.265625 124.800781 214.523438 C 123.742188 216.34375 122.542969 218.074219 121.199219 219.691406 C 121.199219 219.691406 111.601562 195.351562 92.699219 184.699219 Z M 169.199219 177.09375 C 154.972656 185.394531 143.726562 198.078125 137.097656 213.304688 C 138.15625 215.128906 139.363281 216.855469 140.699219 218.476562 C 140.699219 218.476562 150 196.265625 168.597656 184.699219 Z M 169.199219 177.09375 "/>
<path style="fill:none;stroke-width:0.4;stroke-linecap:round;stroke-linejoin:round;stroke:rgb(0%,0%,0%);stroke-opacity:1;stroke-miterlimit:4;" d="M 40.399734 72.100202 C 40.399734 72.00007 36.800776 64.099909 29.800777 59.899499 L 32.598954 55.299844 C 40.999994 60.400159 45.200515 69.400488 45.399733 69.799733 Z M 40.399734 72.100202 " transform="matrix(3,0,0,3.042857,0,0)"/>
<path style="fill:none;stroke-width:0.4;stroke-linecap:round;stroke-linejoin:round;stroke:rgb(0%,0%,0%);stroke-opacity:1;stroke-miterlimit:4;" d="M 46.700514 72.100202 C 46.700514 72.00007 50.401035 64.099909 57.299471 59.899499 L 54.499992 55.299844 C 49.003899 58.86095 44.605463 63.882956 41.799473 69.799733 Z M 46.700514 72.100202 " transform="matrix(3,0,0,3.042857,0,0)"/>
<path style="fill-rule:nonzero;fill:rgb(100%,0%,0%);fill-opacity:1;stroke-width:0.4;stroke-linecap:round;stroke-linejoin:round;stroke:rgb(0%,0%,0%);stroke-opacity:1;stroke-miterlimit:4;" d="M 62.29947 46.000401 C 64.243481 45.827096 66.041657 44.891247 67.29947 43.399536 C 67.214834 45.136442 66.545564 46.792472 65.39973 48.099323 C 65.39973 48.299587 67.79947 49.800284 67.901032 52.60013 C 66.283845 51.431923 64.252595 50.996733 62.29947 51.399829 C 62.200512 51.499961 62.29947 46.000401 62.29947 46.000401 Z M 24.299476 48.499851 C 22.355466 48.326546 20.558591 47.39198 19.300779 45.900269 C 19.282549 47.657715 19.966143 49.348406 21.199216 50.600056 C 19.763018 51.688671 18.825518 53.311324 18.600258 55.099579 C 20.240883 53.90313 22.316403 53.466657 24.299476 53.899279 C 24.401038 54.000695 24.299476 48.499851 24.299476 48.499851 Z M 24.299476 48.499851 " transform="matrix(3,0,0,3.042857,0,0)"/>
<path style="fill-rule:nonzero;fill:rgb(99.607843%,74.901961%,6.27451%);fill-opacity:1;stroke-width:0.4;stroke-linecap:round;stroke-linejoin:round;stroke:rgb(0%,0%,0%);stroke-opacity:1;stroke-miterlimit:4;" d="M 46.700514 72.199051 L 40.399734 72.199051 L 43.600254 66.099982 Z M 46.700514 72.199051 " transform="matrix(3,0,0,3.042857,0,0)"/>
<path style=" stroke:none;fill-rule:nonzero;fill:rgb(0%,39.607843%,71.764706%);fill-opacity:1;" d="M 189.300781 363.925781 L 179.101562 375.792969 L 168.898438 363.925781 L 168.898438 115.324219 L 189.300781 115.324219 Z M 189.300781 363.925781 "/>
<path style=" stroke:none;fill-rule:nonzero;fill:rgb(0%,30.196078%,63.137255%);fill-opacity:1;" d="M 189.300781 363.925781 L 179.101562 375.792969 L 179.101562 115.324219 L 189.300781 115.324219 Z M 189.300781 363.925781 "/>
<path style="fill:none;stroke-width:0.4;stroke-linecap:round;stroke-linejoin:round;stroke:rgb(0%,0%,0%);stroke-opacity:1;stroke-miterlimit:4;" d="M 63.100252 119.600017 L 59.700512 123.500031 L 56.299471 119.600017 L 56.299471 37.899976 L 63.100252 37.899976 Z M 63.100252 119.600017 " transform="matrix(3,0,0,3.042857,0,0)"/>
<path style="fill:none;stroke-width:0.4;stroke-linecap:round;stroke-linejoin:round;stroke:rgb(0%,0%,0%);stroke-opacity:1;stroke-miterlimit:4;" d="M 59.700512 123.500031 L 59.700512 37.998825 " transform="matrix(3,0,0,3.042857,0,0)"/>
<path style="fill-rule:nonzero;fill:rgb(99.607843%,74.901961%,6.27451%);fill-opacity:1;stroke-width:0.4;stroke-linecap:round;stroke-linejoin:round;stroke:rgb(0%,0%,0%);stroke-opacity:1;stroke-miterlimit:4;" d="M 59.639315 35.219519 L 62.700512 38.369827 L 59.519523 41.470069 L 56.450513 38.309491 Z M 59.639315 35.219519 " transform="matrix(3,0,0,3.042857,0,0)"/>
<path style=" stroke:none;fill-rule:nonzero;fill:rgb(0%,0%,0%);fill-opacity:1;" d="M 179.308594 103.609375 L 188.488281 113.226562 L 178.953125 122.660156 L 169.738281 113.042969 Z M 179.308594 103.609375 "/>
<path style="fill-rule:nonzero;fill:rgb(99.607843%,74.901961%,6.27451%);fill-opacity:1;stroke-width:0.4;stroke-linecap:round;stroke-linejoin:round;stroke:rgb(0%,0%,0%);stroke-opacity:1;stroke-miterlimit:4;" d="M 62.999991 28.90093 C 62.899731 34.40049 61.499991 37.799844 59.700512 37.699712 C 57.899731 37.59958 56.499992 34.299074 56.600253 28.799515 C 56.782544 25.29361 57.924471 21.903241 59.899731 19.000696 C 61.877596 21.926349 62.95572 25.368067 62.999991 28.90093 Z M 62.999991 28.90093 " transform="matrix(3,0,0,3.042857,0,0)"/>
<path style="fill:none;stroke-width:0.4;stroke-linecap:round;stroke-linejoin:round;stroke:rgb(0%,0%,0%);stroke-opacity:1;stroke-miterlimit:4;" d="M 56.700513 31.40038 C 57.399732 30.200079 58.199211 29.500439 60.19921 27.799478 C 61.170564 26.974031 61.954418 25.950886 62.499991 24.800652 M 61.59895 22.199786 C 61.143221 23.125366 60.496085 23.944394 59.700512 24.600388 C 58.614575 25.437389 57.610669 26.374522 56.700513 27.400234 M 57.199211 34.799734 C 57.899731 33.499302 58.700513 32.800945 60.800773 30.999852 C 61.744783 30.253997 62.498689 29.293756 62.999991 28.200006 " transform="matrix(3,0,0,3.042857,0,0)"/>
<path style="fill:none;stroke-width:0.4;stroke-linecap:round;stroke-linejoin:round;stroke:rgb(0%,0%,0%);stroke-opacity:1;stroke-miterlimit:4;" d="M 62.499991 24.800652 C 61.954418 25.950886 61.170564 26.974031 60.19921 27.799478 C 58.199211 29.500439 57.399732 30.200079 56.700513 31.40038 M 57.999992 37.300468 C 58.941398 36.145098 60.015617 35.105265 61.200512 34.200226 C 61.785148 33.714971 62.291658 33.141137 62.700512 32.499265 M 62.999991 28.200006 C 62.498689 29.293756 61.744783 30.253997 60.800773 30.999852 C 58.700513 32.800945 57.899731 33.499302 57.199211 34.799734 " transform="matrix(3,0,0,3.042857,0,0)"/>
<path style="fill-rule:nonzero;fill:rgb(99.607843%,74.901961%,6.27451%);fill-opacity:1;stroke-width:0.4;stroke-linecap:round;stroke-linejoin:round;stroke:rgb(0%,0%,0%);stroke-opacity:1;stroke-miterlimit:4;" d="M 68.49999 35.300395 C 68.49999 37.342831 66.843741 39.000145 64.800772 39.000145 C 62.756502 39.000145 61.100252 37.342831 61.100252 35.300395 C 61.100252 33.256674 62.756502 31.600644 64.800772 31.600644 C 66.843741 31.600644 68.49999 33.256674 68.49999 35.300395 Z M 68.49999 35.300395 " transform="matrix(3,0,0,3.042857,0,0)"/>
<path style="fill-rule:nonzero;fill:rgb(99.607843%,74.901961%,6.27451%);fill-opacity:1;stroke-width:0.4;stroke-linecap:round;stroke-linejoin:round;stroke:rgb(0%,0%,0%);stroke-opacity:1;stroke-miterlimit:4;" d="M 67.39973 35.300395 C 67.39973 36.73562 66.235668 37.899976 64.800772 37.899976 C 63.364574 37.899976 62.200512 36.73562 62.200512 35.300395 C 62.200512 33.863885 63.364574 32.699529 64.800772 32.699529 C 66.235668 32.699529 67.39973 33.863885 67.39973 35.300395 Z M 67.39973 35.300395 " transform="matrix(3,0,0,3.042857,0,0)"/>
<path style=" stroke:none;fill-rule:nonzero;fill:rgb(81.568627%,60.784314%,2.745098%);fill-opacity:1;" d="M 198.601562 107.414062 C 198.601562 109.765625 196.71875 111.675781 194.402344 111.675781 C 192.082031 111.675781 190.199219 109.765625 190.199219 107.414062 C 190.199219 105.058594 192.082031 103.152344 194.402344 103.152344 C 196.71875 103.152344 198.601562 105.058594 198.601562 107.414062 Z M 198.601562 107.414062 "/>
<path style="fill-rule:nonzero;fill:rgb(99.607843%,74.901961%,6.27451%);fill-opacity:1;stroke-width:0.4;stroke-linecap:round;stroke-linejoin:round;stroke:rgb(0%,0%,0%);stroke-opacity:1;stroke-miterlimit:4;" d="M 58.299471 35.200263 C 58.299471 37.243983 56.643221 38.900013 54.600253 38.900013 C 52.555982 38.900013 50.899732 37.243983 50.899732 35.200263 C 50.899732 33.156542 52.555982 31.500512 54.600253 31.500512 C 56.643221 31.500512 58.299471 33.156542 58.299471 35.200263 Z M 58.299471 35.200263 " transform="matrix(3,0,0,3.042857,0,0)"/>
<path style="fill-rule:nonzero;fill:rgb(99.607843%,74.901961%,6.27451%);fill-opacity:1;stroke-width:0.4;stroke-linecap:round;stroke-linejoin:round;stroke:rgb(0%,0%,0%);stroke-opacity:1;stroke-miterlimit:4;" d="M 57.199211 35.200263 C 57.199211 36.635488 56.036451 37.799844 54.600253 37.799844 C 53.164055 37.799844 51.999993 36.635488 51.999993 35.200263 C 51.999993 33.763753 53.164055 32.600681 54.600253 32.600681 C 56.036451 32.600681 57.199211 33.763753 57.199211 35.200263 Z M 57.199211 35.200263 " transform="matrix(3,0,0,3.042857,0,0)"/>
<path style=" stroke:none;fill-rule:nonzero;fill:rgb(81.568627%,60.784314%,2.745098%);fill-opacity:1;" d="M 168 107.109375 C 168 109.460938 166.117188 111.367188 163.800781 111.367188 C 161.480469 111.367188 159.597656 109.460938 159.597656 107.109375 C 159.597656 104.753906 161.480469 102.847656 163.800781 102.847656 C 166.117188 102.847656 168 104.753906 168 107.109375 Z M 168 107.109375 "/>
<path style="fill-rule:nonzero;fill:rgb(99.607843%,74.901961%,6.27451%);fill-opacity:1;stroke-width:0.4;stroke-linecap:round;stroke-linejoin:round;stroke:rgb(0%,0%,0%);stroke-opacity:1;stroke-miterlimit:4;" d="M 61.499881 17.900219 C 61.500519 17.348099 60.784591 16.899842 59.900044 16.89999 C 59.016781 16.900125 58.299965 17.34776 58.299328 17.89988 C 58.299975 18.451987 59.017186 18.90023 59.899165 18.900109 C 60.783712 18.899961 61.499244 18.452339 61.499881 17.900219 Z M 61.499881 17.900219 " transform="matrix(0.0314153,-3.04269,2.999836,0.0318641,123.823368,236.031265)"/>
<path style="fill-rule:nonzero;fill:rgb(99.607843%,74.901961%,6.27451%);fill-opacity:1;stroke-width:0.4;stroke-linecap:round;stroke-linejoin:round;stroke:rgb(0%,0%,0%);stroke-opacity:1;stroke-miterlimit:4;" d="M 58.899756 19.799625 C 58.900266 18.91672 58.452444 18.198944 57.900397 18.200142 C 57.347048 18.200055 56.900006 18.917304 56.899495 19.80021 C 56.900269 20.683098 57.348091 21.400873 57.900138 21.399676 C 58.452203 21.39978 58.900547 20.683815 58.899756 19.799625 Z M 58.899756 19.799625 " transform="matrix(0.0418866,-3.04256,2.999708,0.0424849,112.178866,235.513305)"/>
<path style="fill-rule:nonzero;fill:rgb(99.607843%,74.901961%,6.27451%);fill-opacity:1;stroke-width:0.4;stroke-linecap:round;stroke-linejoin:round;stroke:rgb(0%,0%,0%);stroke-opacity:1;stroke-miterlimit:4;" d="M 62.999474 19.799244 C 62.999984 18.916338 62.553464 18.199847 62.000115 18.19976 C 61.448049 18.199656 60.999724 18.916923 61.000497 19.79981 C 61.000005 20.684018 61.447809 21.400492 61.999856 21.399294 C 62.551939 21.400701 63.000265 20.683434 62.999474 19.799244 Z M 62.999474 19.799244 " transform="matrix(0.0418866,-3.04256,2.999708,0.0424849,124.187975,247.98696)"/>
<path style="fill-rule:nonzero;fill:rgb(99.607843%,74.901961%,6.27451%);fill-opacity:1;stroke-width:0.4;stroke-linecap:round;stroke-linejoin:round;stroke:rgb(0%,0%,0%);stroke-opacity:1;stroke-miterlimit:4;" d="M 61.100252 19.899317 C 61.100252 20.563013 60.562492 21.100901 59.899731 21.100901 C 59.236971 21.100901 58.700513 20.563013 58.700513 19.899317 C 58.700513 19.238189 59.236971 18.7003 59.899731 18.7003 C 60.562492 18.7003 61.100252 19.238189 61.100252 19.899317 Z M 61.100252 19.899317 " transform="matrix(3,0,0,3.042857,0,0)"/>
<path style=" stroke:none;fill-rule:nonzero;fill:rgb(81.568627%,60.784314%,2.745098%);fill-opacity:1;" d="M 179.699219 58.117188 L 178.5 58.726562 C 179.699219 58.726562 180.300781 59.941406 180.300781 61.160156 C 180.242188 61.867188 179.917969 62.519531 179.402344 62.984375 L 179.699219 62.984375 C 180.964844 62.851562 181.964844 61.835938 182.101562 60.550781 C 182.101562 59.210938 181.027344 58.117188 179.699219 58.117188 Z M 179.699219 58.117188 "/>
<path style="fill-rule:nonzero;fill:rgb(99.607843%,74.901961%,6.27451%);fill-opacity:1;stroke-width:0.4;stroke-linecap:round;stroke-linejoin:round;stroke:rgb(0%,0%,0%);stroke-opacity:1;stroke-miterlimit:4;" d="M 61.499991 32.100021 C 61.499991 33.094922 60.694002 33.89983 59.700512 33.89983 C 58.707023 33.89983 57.899731 33.094922 57.899731 32.100021 C 57.899731 31.106403 58.707023 30.300211 59.700512 30.300211 C 60.694002 30.300211 61.499991 31.106403 61.499991 32.100021 Z M 61.499991 32.100021 " transform="matrix(3,0,0,3.042857,0,0)"/>
<path style=" stroke:none;fill-rule:nonzero;fill:rgb(0%,0%,0%);fill-opacity:1;" d="M 182.402344 97.675781 C 182.402344 99.523438 180.921875 101.023438 179.101562 101.023438 C 177.277344 101.023438 175.800781 99.523438 175.800781 97.675781 C 175.800781 95.824219 177.277344 94.328125 179.101562 94.328125 C 180.921875 94.328125 182.402344 95.824219 182.402344 97.675781 Z M 182.402344 97.675781 "/>
<path style="fill-rule:nonzero;fill:rgb(99.607843%,74.901961%,6.27451%);fill-opacity:1;stroke-width:0.4;stroke-linecap:round;stroke-linejoin:round;stroke:rgb(0%,0%,0%);stroke-opacity:1;stroke-miterlimit:4;" d="M 58.399731 35.200263 C 58.399731 36.19388 57.593742 37.000072 56.600253 37.000072 C 55.606763 37.000072 54.799472 36.19388 54.799472 35.200263 C 54.799472 34.206645 55.606763 33.400453 56.600253 33.400453 C 57.593742 33.400453 58.399731 34.206645 58.399731 35.200263 Z M 58.399731 35.200263 " transform="matrix(3,0,0,3.042857,0,0)"/>
<path style=" stroke:none;fill-rule:nonzero;fill:rgb(0%,0%,0%);fill-opacity:1;" d="M 173.101562 107.109375 C 173.101562 108.957031 171.621094 110.457031 169.800781 110.457031 C 167.976562 110.457031 166.5 108.957031 166.5 107.109375 C 166.5 105.257812 167.976562 103.761719 169.800781 103.761719 C 171.621094 103.761719 173.101562 105.257812 173.101562 107.109375 Z M 173.101562 107.109375 "/>
<path style="fill-rule:nonzero;fill:rgb(99.607843%,74.901961%,6.27451%);fill-opacity:1;stroke-width:0.4;stroke-linecap:round;stroke-linejoin:round;stroke:rgb(0%,0%,0%);stroke-opacity:1;stroke-miterlimit:4;" d="M 64.800772 35.200263 C 64.800772 36.19388 63.994783 37.000072 62.999991 37.000072 C 62.006502 37.000072 61.200512 36.19388 61.200512 35.200263 C 61.200512 34.206645 62.006502 33.400453 62.999991 33.400453 C 63.994783 33.400453 64.800772 34.206645 64.800772 35.200263 Z M 64.800772 35.200263 " transform="matrix(3,0,0,3.042857,0,0)"/>
<path style=" stroke:none;fill-rule:nonzero;fill:rgb(0%,0%,0%);fill-opacity:1;" d="M 192.300781 107.109375 C 192.300781 108.957031 190.824219 110.457031 189 110.457031 C 187.175781 110.457031 185.699219 108.957031 185.699219 107.109375 C 185.699219 105.257812 187.175781 103.761719 189 103.761719 C 190.824219 103.761719 192.300781 105.257812 192.300781 107.109375 Z M 192.300781 107.109375 "/>
<path style="fill-rule:nonzero;fill:rgb(99.607843%,74.901961%,6.27451%);fill-opacity:1;stroke-width:0.4;stroke-linecap:round;stroke-linejoin:round;stroke:rgb(0%,0%,0%);stroke-opacity:1;stroke-miterlimit:4;" d="M 62.700512 35.200263 C 62.700512 36.856292 61.356762 38.199089 59.700512 38.199089 C 58.042961 38.199089 56.700513 36.856292 56.700513 35.200263 C 56.700513 33.542949 58.042961 32.200153 59.700512 32.200153 C 61.356762 32.200153 62.700512 33.542949 62.700512 35.200263 Z M 62.700512 35.200263 " transform="matrix(3,0,0,3.042857,0,0)"/>
<path style=" stroke:none;fill-rule:nonzero;fill:rgb(0%,39.607843%,71.764706%);fill-opacity:1;" d="M 92.101562 363.925781 L 81.898438 375.792969 L 71.699219 363.925781 L 71.699219 115.324219 L 92.101562 115.324219 Z M 92.101562 363.925781 "/>
<path style=" stroke:none;fill-rule:nonzero;fill:rgb(0%,30.196078%,63.137255%);fill-opacity:1;" d="M 92.101562 363.925781 L 81.898438 375.792969 L 81.898438 115.324219 L 92.101562 115.324219 Z M 92.101562 363.925781 "/>
<path style="fill:none;stroke-width:0.4;stroke-linecap:round;stroke-linejoin:round;stroke:rgb(0%,0%,0%);stroke-opacity:1;stroke-miterlimit:4;" d="M 30.700517 119.600017 L 27.299475 123.500031 L 23.899736 119.600017 L 23.899736 37.899976 L 30.700517 37.899976 Z M 30.700517 119.600017 " transform="matrix(3,0,0,3.042857,0,0)"/>
<path style="fill:none;stroke-width:0.4;stroke-linecap:round;stroke-linejoin:round;stroke:rgb(0%,0%,0%);stroke-opacity:1;stroke-miterlimit:4;" d="M 27.299475 123.500031 L 27.299475 37.998825 " transform="matrix(3,0,0,3.042857,0,0)"/>
<path style="fill-rule:nonzero;fill:rgb(99.607843%,74.901961%,6.27451%);fill-opacity:1;stroke-width:0.4;stroke-linecap:round;stroke-linejoin:round;stroke:rgb(0%,0%,0%);stroke-opacity:1;stroke-miterlimit:4;" d="M 27.249996 35.189993 L 30.320308 38.340301 L 27.130205 41.440542 L 24.070309 38.290235 Z M 27.249996 35.189993 " transform="matrix(3,0,0,3.042857,0,0)"/>
<path style=" stroke:none;fill-rule:nonzero;fill:rgb(0%,0%,0%);fill-opacity:1;" d="M 82.140625 103.546875 L 91.347656 113.132812 L 81.78125 122.566406 L 72.597656 112.953125 Z M 82.140625 103.546875 "/>
<path style="fill-rule:nonzero;fill:rgb(99.607843%,74.901961%,6.27451%);fill-opacity:1;stroke-width:0.4;stroke-linecap:round;stroke-linejoin:round;stroke:rgb(0%,0%,0%);stroke-opacity:1;stroke-miterlimit:4;" d="M 30.600256 28.90093 C 30.499996 34.40049 29.100256 37.799844 27.299475 37.699712 C 25.499996 37.59958 24.100257 34.299074 24.199215 28.799515 C 24.384111 25.29361 25.524736 21.903241 27.499996 19.000696 C 29.47786 21.926349 30.554683 25.368067 30.600256 28.90093 Z M 30.600256 28.90093 " transform="matrix(3,0,0,3.042857,0,0)"/>
<path style="fill:none;stroke-width:0.4;stroke-linecap:round;stroke-linejoin:round;stroke:rgb(0%,0%,0%);stroke-opacity:1;stroke-miterlimit:4;" d="M 24.299476 31.40038 C 24.999997 30.200079 25.799476 29.500439 27.800777 27.799478 C 28.770829 26.974031 29.554683 25.950886 30.100256 24.800652 M 29.199215 22.199786 C 28.743486 23.125366 28.09635 23.944394 27.299475 24.600388 C 26.21484 25.437389 25.210934 26.374522 24.299476 27.400234 M 24.799476 34.799734 C 25.499996 33.499302 26.299475 32.800945 28.399736 30.999852 C 29.345048 30.253997 30.098954 29.293756 30.600256 28.200006 " transform="matrix(3,0,0,3.042857,0,0)"/>
<path style="fill:none;stroke-width:0.4;stroke-linecap:round;stroke-linejoin:round;stroke:rgb(0%,0%,0%);stroke-opacity:1;stroke-miterlimit:4;" d="M 30.100256 24.800652 C 29.554683 25.950886 28.770829 26.974031 27.800777 27.799478 C 25.799476 29.500439 24.999997 30.200079 24.299476 31.40038 M 25.600257 37.300468 C 26.541663 36.145098 27.615882 35.105265 28.800777 34.200226 C 29.385413 33.714971 29.891923 33.141137 30.299475 32.499265 M 30.600256 28.200006 C 30.098954 29.293756 29.345048 30.253997 28.399736 30.999852 C 26.299475 32.800945 25.499996 33.499302 24.799476 34.799734 " transform="matrix(3,0,0,3.042857,0,0)"/>
<path style="fill-rule:nonzero;fill:rgb(99.607843%,74.901961%,6.27451%);fill-opacity:1;stroke-width:0.4;stroke-linecap:round;stroke-linejoin:round;stroke:rgb(0%,0%,0%);stroke-opacity:1;stroke-miterlimit:4;" d="M 36.100255 35.300395 C 36.100255 37.342831 34.444006 39.000145 32.399735 39.000145 C 30.356767 39.000145 28.700517 37.342831 28.700517 35.300395 C 28.700517 33.256674 30.356767 31.600644 32.399735 31.600644 C 34.444006 31.600644 36.100255 33.256674 36.100255 35.300395 Z M 36.100255 35.300395 " transform="matrix(3,0,0,3.042857,0,0)"/>
<path style="fill-rule:nonzero;fill:rgb(99.607843%,74.901961%,6.27451%);fill-opacity:1;stroke-width:0.4;stroke-linecap:round;stroke-linejoin:round;stroke:rgb(0%,0%,0%);stroke-opacity:1;stroke-miterlimit:4;" d="M 34.999995 35.300395 C 34.999995 36.73562 33.835933 37.899976 32.399735 37.899976 C 30.963537 37.899976 29.800777 36.73562 29.800777 35.300395 C 29.800777 33.863885 30.963537 32.699529 32.399735 32.699529 C 33.835933 32.699529 34.999995 33.863885 34.999995 35.300395 Z M 34.999995 35.300395 " transform="matrix(3,0,0,3.042857,0,0)"/>
<path style=" stroke:none;fill-rule:nonzero;fill:rgb(81.568627%,60.784314%,2.745098%);fill-opacity:1;" d="M 101.402344 107.414062 C 101.402344 109.765625 99.519531 111.675781 97.199219 111.675781 C 94.882812 111.675781 93 109.765625 93 107.414062 C 93 105.058594 94.882812 103.152344 97.199219 103.152344 C 99.519531 103.152344 101.402344 105.058594 101.402344 107.414062 Z M 101.402344 107.414062 "/>
<path style="fill-rule:nonzero;fill:rgb(99.607843%,74.901961%,6.27451%);fill-opacity:1;stroke-width:0.4;stroke-linecap:round;stroke-linejoin:round;stroke:rgb(0%,0%,0%);stroke-opacity:1;stroke-miterlimit:4;" d="M 25.899736 35.200263 C 25.899736 37.243983 24.243486 38.900013 22.199216 38.900013 C 20.156247 38.900013 18.499997 37.243983 18.499997 35.200263 C 18.499997 33.156542 20.156247 31.500512 22.199216 31.500512 C 24.243486 31.500512 25.899736 33.156542 25.899736 35.200263 Z M 25.899736 35.200263 " transform="matrix(3,0,0,3.042857,0,0)"/>
<path style="fill-rule:nonzero;fill:rgb(99.607843%,74.901961%,6.27451%);fill-opacity:1;stroke-width:0.4;stroke-linecap:round;stroke-linejoin:round;stroke:rgb(0%,0%,0%);stroke-opacity:1;stroke-miterlimit:4;" d="M 24.799476 35.200263 C 24.799476 36.635488 23.635413 37.799844 22.199216 37.799844 C 20.76432 37.799844 19.600258 36.635488 19.600258 35.200263 C 19.600258 33.763753 20.76432 32.600681 22.199216 32.600681 C 23.635413 32.600681 24.799476 33.763753 24.799476 35.200263 Z M 24.799476 35.200263 " transform="matrix(3,0,0,3.042857,0,0)"/>
<path style=" stroke:none;fill-rule:nonzero;fill:rgb(81.568627%,60.784314%,2.745098%);fill-opacity:1;" d="M 70.800781 107.109375 C 70.800781 109.460938 68.917969 111.367188 66.597656 111.367188 C 64.28125 111.367188 62.398438 109.460938 62.398438 107.109375 C 62.398438 104.753906 64.28125 102.847656 66.597656 102.847656 C 68.917969 102.847656 70.800781 104.753906 70.800781 107.109375 Z M 70.800781 107.109375 "/>
<path style="fill-rule:nonzero;fill:rgb(99.607843%,74.901961%,6.27451%);fill-opacity:1;stroke-width:0.4;stroke-linecap:round;stroke-linejoin:round;stroke:rgb(0%,0%,0%);stroke-opacity:1;stroke-miterlimit:4;" d="M 29.100675 17.900609 C 29.100668 17.348472 28.383144 16.900113 27.49985 16.900727 C 26.615255 16.900057 25.899969 17.347588 25.899976 17.899725 C 25.900001 18.453164 26.616205 18.898937 27.499535 18.900926 C 28.384112 18.900295 29.09938 18.451462 29.100675 17.900609 Z M 29.100675 17.900609 " transform="matrix(0.0418866,-3.04256,2.999708,0.0424849,27.920417,137.530049)"/>
<path style="fill-rule:nonzero;fill:rgb(99.607843%,74.901961%,6.27451%);fill-opacity:1;stroke-width:0.4;stroke-linecap:round;stroke-linejoin:round;stroke:rgb(0%,0%,0%);stroke-opacity:1;stroke-miterlimit:4;" d="M 26.49947 19.799244 C 26.49998 18.916339 26.053478 18.201149 25.50011 18.199761 C 24.948045 18.199656 24.499719 18.916923 24.500493 19.799811 C 24.500001 20.684019 24.947805 21.400492 25.499852 21.399295 C 26.051917 21.399399 26.500261 20.683434 26.49947 19.799244 Z M 26.49947 19.799244 " transform="matrix(0.0418866,-3.04256,2.999708,0.0424849,16.216834,136.9335)"/>
<path style="fill-rule:nonzero;fill:rgb(99.607843%,74.901961%,6.27451%);fill-opacity:1;stroke-width:0.4;stroke-linecap:round;stroke-linejoin:round;stroke:rgb(0%,0%,0%);stroke-opacity:1;stroke-miterlimit:4;" d="M 30.599187 19.798863 C 30.600981 18.915939 30.153177 18.199466 29.599847 18.200681 C 29.047763 18.199275 28.599437 18.916542 28.600229 19.800731 C 28.601002 20.683619 29.048806 21.400093 29.59957 21.398913 C 30.151653 21.40032 30.599997 20.684355 30.599187 19.798863 Z M 30.599187 19.798863 " transform="matrix(0.0418866,-3.04256,2.999708,0.0424849,28.225942,149.407154)"/>
<path style="fill-rule:nonzero;fill:rgb(99.607843%,74.901961%,6.27451%);fill-opacity:1;stroke-width:0.4;stroke-linecap:round;stroke-linejoin:round;stroke:rgb(0%,0%,0%);stroke-opacity:1;stroke-miterlimit:4;" d="M 28.700517 19.899317 C 28.700517 20.563013 28.162756 21.100901 27.499996 21.100901 C 26.837236 21.100901 26.299475 20.563013 26.299475 19.899317 C 26.299475 19.238189 26.837236 18.7003 27.499996 18.7003 C 28.162756 18.7003 28.700517 19.238189 28.700517 19.899317 Z M 28.700517 19.899317 " transform="matrix(3,0,0,3.042857,0,0)"/>
<path style=" stroke:none;fill-rule:nonzero;fill:rgb(81.568627%,60.784314%,2.745098%);fill-opacity:1;" d="M 82.5 58.117188 L 81.300781 58.726562 C 82.5 58.726562 83.101562 59.941406 83.101562 61.160156 C 83.042969 61.867188 82.722656 62.519531 82.199219 62.984375 L 82.5 62.984375 C 83.765625 62.851562 84.765625 61.835938 84.898438 60.550781 C 84.898438 59.210938 83.824219 58.117188 82.5 58.117188 Z M 82.5 58.117188 "/>
<path style="fill-rule:nonzero;fill:rgb(99.607843%,74.901961%,6.27451%);fill-opacity:1;stroke-width:0.4;stroke-linecap:round;stroke-linejoin:round;stroke:rgb(0%,0%,0%);stroke-opacity:1;stroke-miterlimit:4;" d="M 29.100256 32.100021 C 29.100256 33.094922 28.292965 33.89983 27.299475 33.89983 C 26.305986 33.89983 25.499996 33.094922 25.499996 32.100021 C 25.499996 31.106403 26.305986 30.300211 27.299475 30.300211 C 28.292965 30.300211 29.100256 31.106403 29.100256 32.100021 Z M 29.100256 32.100021 " transform="matrix(3,0,0,3.042857,0,0)"/>
<path style=" stroke:none;fill-rule:nonzero;fill:rgb(0%,0%,0%);fill-opacity:1;" d="M 85.199219 97.675781 C 85.199219 99.523438 83.722656 101.023438 81.898438 101.023438 C 80.078125 101.023438 78.597656 99.523438 78.597656 97.675781 C 78.597656 95.824219 80.078125 94.328125 81.898438 94.328125 C 83.722656 94.328125 85.199219 95.824219 85.199219 97.675781 Z M 85.199219 97.675781 "/>
<path style="fill-rule:nonzero;fill:rgb(99.607843%,74.901961%,6.27451%);fill-opacity:1;stroke-width:0.4;stroke-linecap:round;stroke-linejoin:round;stroke:rgb(0%,0%,0%);stroke-opacity:1;stroke-miterlimit:4;" d="M 25.999996 35.200263 C 25.999996 36.19388 25.194007 37.000072 24.199215 37.000072 C 23.205726 37.000072 22.401039 36.19388 22.401039 35.200263 C 22.401039 34.206645 23.205726 33.400453 24.199215 33.400453 C 25.194007 33.400453 25.999996 34.206645 25.999996 35.200263 Z M 25.999996 35.200263 " transform="matrix(3,0,0,3.042857,0,0)"/>
<path style=" stroke:none;fill-rule:nonzero;fill:rgb(0%,0%,0%);fill-opacity:1;" d="M 75.898438 107.109375 C 75.898438 108.957031 74.421875 110.457031 72.597656 110.457031 C 70.777344 110.457031 69.300781 108.957031 69.300781 107.109375 C 69.300781 105.257812 70.777344 103.761719 72.597656 103.761719 C 74.421875 103.761719 75.898438 105.257812 75.898438 107.109375 Z M 75.898438 107.109375 "/>
<path style="fill-rule:nonzero;fill:rgb(99.607843%,74.901961%,6.27451%);fill-opacity:1;stroke-width:0.4;stroke-linecap:round;stroke-linejoin:round;stroke:rgb(0%,0%,0%);stroke-opacity:1;stroke-miterlimit:4;" d="M 32.399735 35.200263 C 32.399735 36.19388 31.595048 37.000072 30.600256 37.000072 C 29.605465 37.000072 28.800777 36.19388 28.800777 35.200263 C 28.800777 34.206645 29.605465 33.400453 30.600256 33.400453 C 31.595048 33.400453 32.399735 34.206645 32.399735 35.200263 Z M 32.399735 35.200263 " transform="matrix(3,0,0,3.042857,0,0)"/>
<path style=" stroke:none;fill-rule:nonzero;fill:rgb(0%,0%,0%);fill-opacity:1;" d="M 95.101562 107.109375 C 95.101562 108.957031 93.621094 110.457031 91.800781 110.457031 C 89.976562 110.457031 88.5 108.957031 88.5 107.109375 C 88.5 105.257812 89.976562 103.761719 91.800781 103.761719 C 93.621094 103.761719 95.101562 105.257812 95.101562 107.109375 Z M 95.101562 107.109375 "/>
<path style="fill-rule:nonzero;fill:rgb(99.607843%,74.901961%,6.27451%);fill-opacity:1;stroke-width:0.4;stroke-linecap:round;stroke-linejoin:round;stroke:rgb(0%,0%,0%);stroke-opacity:1;stroke-miterlimit:4;" d="M 30.299475 35.200263 C 30.299475 36.856292 28.957027 38.199089 27.299475 38.199089 C 25.643226 38.199089 24.299476 36.856292 24.299476 35.200263 C 24.299476 33.542949 25.643226 32.200153 27.299475 32.200153 C 28.957027 32.200153 30.299475 33.542949 30.299475 35.200263 Z M 30.299475 35.200263 " transform="matrix(3,0,0,3.042857,0,0)"/>
<path style=" stroke:none;fill-rule:nonzero;fill:rgb(100%,0%,0%);fill-opacity:1;" d="M 168.898438 142.40625 C 159.1875 145.347656 153.585938 155.628906 156.300781 165.53125 C 159 173.75 174.300781 180.136719 177 181.355469 C 179.699219 182.574219 189.300781 186.222656 189.300781 194.441406 C 189.300781 194.441406 198.601562 183.484375 187.796875 173.75 C 177 164.007812 171 160.359375 168.898438 153.359375 L 168.898438 152.75 C 168.597656 151.230469 168.898438 142.40625 168.898438 142.40625 Z M 92.101562 150.015625 C 96.804688 151.347656 100.773438 154.5625 103.09375 158.925781 C 105.410156 163.285156 105.886719 168.417969 104.402344 173.140625 C 101.699219 181.355469 86.402344 187.742188 83.699219 188.960938 C 81 190.175781 71.398438 194.132812 71.398438 202.351562 C 71.398438 202.351562 62.101562 190.785156 72.898438 181.050781 C 83.699219 171.316406 90 167.964844 92.101562 160.664062 Z M 92.101562 150.015625 "/>
<path style=" stroke:none;fill-rule:nonzero;fill:rgb(59.607843%,3.137255%,1.960784%);fill-opacity:1;" d="M 70.5 201.132812 C 70.5 201.132812 66.902344 189.265625 74.398438 184.09375 C 81.898438 178.917969 94.199219 176.484375 97.796875 168.269531 C 101.402344 160.054688 92.101562 153.664062 92.101562 153.664062 L 92.101562 160.359375 C 92.101562 160.359375 90.898438 167.660156 78.898438 175.574219 C 66.902344 183.484375 64.800781 193.523438 70.5 201.132812 Z M 189.898438 193.222656 C 189.898438 193.222656 193.5 181.355469 186 176.183594 C 178.5 171.007812 166.199219 168.574219 162.597656 160.359375 C 159 152.140625 168.300781 145.449219 168.300781 145.449219 L 168.300781 152.449219 C 168.300781 152.449219 169.5 159.75 181.5 167.660156 C 193.5 175.574219 195.601562 185.617188 189.898438 193.222656 Z M 189.898438 193.222656 "/>
<path style="fill:none;stroke-width:0.4;stroke-linecap:round;stroke-linejoin:round;stroke:rgb(0%,0%,0%);stroke-opacity:1;stroke-miterlimit:4;" d="M 30.700517 49.300907 C 32.268225 49.738664 33.591141 50.795186 34.364579 52.229128 C 35.136714 53.661786 35.295568 55.348626 34.800776 56.900672 C 33.899735 59.600386 28.800777 61.699308 27.899736 62.099836 C 26.999996 62.49908 23.799476 63.799513 23.799476 66.500511 C 23.799476 66.500511 20.700518 62.699344 24.299476 59.500254 C 27.899736 56.301164 29.999996 55.199711 30.700517 52.800394 Z M 56.299471 46.800174 C 53.062493 47.766833 51.195305 51.145648 52.100253 54.399939 C 52.999993 57.100936 58.100252 59.199858 58.999992 59.600386 C 59.899731 60.000914 63.100252 61.199931 63.100252 63.900929 C 63.100252 63.900929 66.200512 60.300027 62.59895 57.100936 C 58.999992 53.899279 56.999992 52.700262 56.299471 50.399792 L 56.299471 50.199528 C 56.199211 49.700152 56.299471 46.800174 56.299471 46.800174 Z M 56.299471 46.800174 " transform="matrix(3,0,0,3.042857,0,0)"/>
</g>
</svg>
