<?xml version="1.0" encoding="UTF-8"?>
<svg xmlns="http://www.w3.org/2000/svg" xmlns:xlink="http://www.w3.org/1999/xlink" width="261px" height="420px" viewBox="0 0 261 426" version="1.1">
<g id="surface1">
<path style=" stroke:none;fill-rule:nonzero;fill:rgb(100%,100%,100%);fill-opacity:1;" d="M 18 0 L 243 0 C 252.941406 0 261 8.175781 261 18.257812 L 261 407.742188 C 261 417.824219 252.941406 426 243 426 L 18 426 C 8.058594 426 0 417.824219 0 407.742188 L 0 18.257812 C 0 8.175781 8.058594 0 18 0 Z M 18 0 "/>
<path style=" stroke:none;fill-rule:nonzero;fill:rgb(0%,39.607843%,71.764706%);fill-opacity:1;" d="M 81 366.359375 L 72 376.707031 L 62.699219 366.359375 L 62.699219 284.203125 L 81 284.203125 Z M 81 366.359375 "/>
<path style=" stroke:none;fill-rule:nonzero;fill:rgb(0%,30.196078%,63.137255%);fill-opacity:1;" d="M 81 366.359375 L 72 376.707031 L 71.699219 284.203125 L 81 284.203125 Z M 81 366.359375 "/>
<path style="fill:none;stroke-width:0.4;stroke-linecap:round;stroke-linejoin:round;stroke:rgb(0%,0%,0%);stroke-opacity:1;stroke-miterlimit:4;" d="M 26.999996 120.399789 L 23.999997 123.800427 L 20.899737 120.399789 L 20.899737 93.400084 L 26.999996 93.400084 Z M 26.999996 120.399789 " transform="matrix(3,0,0,3.042857,0,0)"/>
<path style="fill:none;stroke-width:0.4;stroke-linecap:round;stroke-linejoin:round;stroke:rgb(0%,0%,0%);stroke-opacity:1;stroke-miterlimit:4;" d="M 23.999997 123.800427 L 23.999997 93.500216 " transform="matrix(3,0,0,3.042857,0,0)"/>
<path style="fill-rule:nonzero;fill:rgb(99.607843%,74.901961%,6.27451%);fill-opacity:1;stroke-width:0.4;stroke-linecap:round;stroke-linejoin:round;stroke:rgb(0%,0%,0%);stroke-opacity:1;stroke-miterlimit:4;" d="M 23.98958 93.749262 L 26.779944 96.620998 L 23.940101 99.379764 L 21.149737 96.510596 Z M 23.98958 93.749262 " transform="matrix(3,0,0,3.042857,0,0)"/>
<path style=" stroke:none;fill-rule:nonzero;fill:rgb(0%,0%,0%);fill-opacity:1;" d="M 72 281.953125 L 80.402344 290.652344 L 71.878906 299.082031 L 63.480469 290.351562 Z M 72 281.953125 "/>
<path style="fill-rule:nonzero;fill:rgb(99.607843%,74.901961%,6.27451%);fill-opacity:1;stroke-width:0.4;stroke-linecap:round;stroke-linejoin:round;stroke:rgb(0%,0%,0%);stroke-opacity:1;stroke-miterlimit:4;" d="M 26.800778 88.099505 C 26.800778 92.900707 25.401038 96.000949 23.899736 95.899534 C 22.401039 95.800685 20.999997 92.900707 21.098955 88.000656 C 21.263018 84.845213 22.30208 81.797605 24.100257 79.199307 C 25.824215 81.851522 26.761715 84.937643 26.800778 88.099505 Z M 26.800778 88.099505 " transform="matrix(3,0,0,3.042857,0,0)"/>
<path style="fill:none;stroke-width:0.4;stroke-linecap:round;stroke-linejoin:round;stroke:rgb(0%,0%,0%);stroke-opacity:1;stroke-miterlimit:4;" d="M 21.199216 90.299842 C 21.799476 89.200957 22.499997 88.600165 24.299476 87.099468 C 25.182288 86.380571 25.869788 85.452424 26.299475 84.399754 M 25.600257 82.099285 C 25.131507 82.902909 24.522132 83.614103 23.799476 84.19949 C 22.86458 84.959467 21.996091 85.795184 21.199216 86.700224 M 21.600257 93.299952 C 22.528643 92.012357 23.640622 90.865973 24.899736 89.899314 C 25.682288 89.229199 26.328121 88.415306 26.800778 87.499996 " transform="matrix(3,0,0,3.042857,0,0)"/>
<path style="fill:none;stroke-width:0.4;stroke-linecap:round;stroke-linejoin:round;stroke:rgb(0%,0%,0%);stroke-opacity:1;stroke-miterlimit:4;" d="M 26.299475 84.399754 C 25.869788 85.452424 25.182288 86.380571 24.299476 87.099468 C 22.499997 88.600165 21.799476 89.200957 21.199216 90.299842 M 22.401039 95.500289 C 23.20833 94.478429 24.149736 93.569538 25.199215 92.799292 L 26.499996 91.301162 M 26.800778 87.499996 C 26.328121 88.415306 25.682288 89.229199 24.899736 89.899314 C 23.640622 90.865973 22.528643 92.012357 21.600257 93.299952 " transform="matrix(3,0,0,3.042857,0,0)"/>
<path style="fill-rule:nonzero;fill:rgb(99.607843%,74.901961%,6.27451%);fill-opacity:1;stroke-width:0.4;stroke-linecap:round;stroke-linejoin:round;stroke:rgb(0%,0%,0%);stroke-opacity:1;stroke-miterlimit:4;" d="M 31.899735 93.799328 C 31.899735 95.622245 30.423173 97.099834 28.600256 97.099834 C 26.77734 97.099834 25.299476 95.622245 25.299476 93.799328 C 25.299476 91.976412 26.77734 90.498822 28.600256 90.498822 C 30.423173 90.498822 31.899735 91.976412 31.899735 93.799328 Z M 31.899735 93.799328 " transform="matrix(3,0,0,3.042857,0,0)"/>
<path style="fill-rule:nonzero;fill:rgb(99.607843%,74.901961%,6.27451%);fill-opacity:1;stroke-width:0.4;stroke-linecap:round;stroke-linejoin:round;stroke:rgb(0%,0%,0%);stroke-opacity:1;stroke-miterlimit:4;" d="M 30.899735 93.799328 C 30.899735 95.070235 29.869787 96.099798 28.600256 96.099798 C 27.329423 96.099798 26.299475 95.070235 26.299475 93.799328 C 26.299475 92.529705 27.329423 91.500143 28.600256 91.500143 C 29.869787 91.500143 30.899735 92.529705 30.899735 93.799328 Z M 30.899735 93.799328 " transform="matrix(3,0,0,3.042857,0,0)"/>
<path style=" stroke:none;fill-rule:nonzero;fill:rgb(81.568627%,60.784314%,2.745098%);fill-opacity:1;" d="M 89.699219 285.417969 C 89.699219 287.605469 87.953125 289.375 85.800781 289.375 C 83.644531 289.375 81.898438 287.605469 81.898438 285.417969 C 81.898438 283.234375 83.644531 281.464844 85.800781 281.464844 C 87.953125 281.464844 89.699219 283.234375 89.699219 285.417969 Z M 89.699219 285.417969 "/>
<path style="fill-rule:nonzero;fill:rgb(99.607843%,74.901961%,6.27451%);fill-opacity:1;stroke-width:0.4;stroke-linecap:round;stroke-linejoin:round;stroke:rgb(0%,0%,0%);stroke-opacity:1;stroke-miterlimit:4;" d="M 22.700518 93.70048 C 22.700518 95.522113 21.222653 96.999702 19.399737 96.999702 C 17.57682 96.999702 16.100258 95.522113 16.100258 93.70048 C 16.100258 91.877563 17.57682 90.399974 19.399737 90.399974 C 21.222653 90.399974 22.700518 91.877563 22.700518 93.70048 Z M 22.700518 93.70048 " transform="matrix(3,0,0,3.042857,0,0)"/>
<path style="fill-rule:nonzero;fill:rgb(99.607843%,74.901961%,6.27451%);fill-opacity:1;stroke-width:0.4;stroke-linecap:round;stroke-linejoin:round;stroke:rgb(0%,0%,0%);stroke-opacity:1;stroke-miterlimit:4;" d="M 21.700518 93.70048 C 21.700518 94.970103 20.67057 96.000949 19.399737 96.000949 C 18.130206 96.000949 17.100258 94.970103 17.100258 93.70048 C 17.100258 92.430857 18.130206 91.400011 19.399737 91.400011 C 20.67057 91.400011 21.700518 92.430857 21.700518 93.70048 Z M 21.700518 93.70048 " transform="matrix(3,0,0,3.042857,0,0)"/>
<path style=" stroke:none;fill-rule:nonzero;fill:rgb(81.568627%,60.784314%,2.745098%);fill-opacity:1;" d="M 62.101562 285.117188 C 62.101562 287.300781 60.351562 289.074219 58.199219 289.074219 C 56.046875 289.074219 54.296875 287.300781 54.296875 285.117188 C 54.296875 282.929688 56.046875 281.160156 58.199219 281.160156 C 60.351562 281.160156 62.101562 282.929688 62.101562 285.117188 Z M 62.101562 285.117188 "/>
<path style="fill-rule:nonzero;fill:rgb(99.607843%,74.901961%,6.27451%);fill-opacity:1;stroke-width:0.4;stroke-linecap:round;stroke-linejoin:round;stroke:rgb(0%,0%,0%);stroke-opacity:1;stroke-miterlimit:4;" d="M 25.399852 78.199466 C 25.400627 77.703313 24.773593 77.299268 23.999425 77.29966 C 23.226541 77.300035 22.599225 77.703364 22.601017 78.199481 C 22.60026 78.696936 23.227276 79.099679 23.998895 79.100624 C 24.773063 79.100232 25.399095 78.69692 25.399852 78.199466 Z M 25.399852 78.199466 " transform="matrix(0.0418866,-3.04256,2.999708,0.0424849,-163.494914,307.923126)"/>
<path style="fill-rule:nonzero;fill:rgb(99.607843%,74.901961%,6.27451%);fill-opacity:1;stroke-width:0.4;stroke-linecap:round;stroke-linejoin:round;stroke:rgb(0%,0%,0%);stroke-opacity:1;stroke-miterlimit:4;" d="M 23.099492 79.900236 C 23.100246 79.126712 22.696056 78.499482 22.200488 78.499891 C 21.703636 78.500318 21.298983 79.127122 21.299494 79.899326 C 21.300024 80.672831 21.702931 81.300079 22.199782 81.299653 C 22.696634 81.299226 23.100022 80.673741 23.099492 79.900236 Z M 23.099492 79.900236 " transform="matrix(0.0418866,-3.04256,2.999708,0.0424849,-173.976935,307.30501)"/>
<path style="fill-rule:nonzero;fill:rgb(99.607843%,74.901961%,6.27451%);fill-opacity:1;stroke-width:0.4;stroke-linecap:round;stroke-linejoin:round;stroke:rgb(0%,0%,0%);stroke-opacity:1;stroke-miterlimit:4;" d="M 26.700096 79.900726 C 26.699566 79.127221 26.29666 78.499973 25.799808 78.5004 C 25.302939 78.499524 24.899569 79.126311 24.900099 79.899817 C 24.899345 80.67334 25.302252 81.300588 25.799085 81.298859 C 26.297238 81.299717 26.699324 80.672948 26.700096 79.900726 Z M 26.700096 79.900726 " transform="matrix(0.0418866,-3.04256,2.999708,0.0424849,-163.47688,318.287388)"/>
<path style="fill-rule:nonzero;fill:rgb(99.607843%,74.901961%,6.27451%);fill-opacity:1;stroke-width:0.4;stroke-linecap:round;stroke-linejoin:round;stroke:rgb(0%,0%,0%);stroke-opacity:1;stroke-miterlimit:4;" d="M 24.999997 79.99908 C 24.999997 80.552373 24.553382 81.0004 23.999997 81.0004 C 23.447913 81.0004 22.999997 80.552373 22.999997 79.99908 C 22.999997 79.448353 23.447913 78.999043 23.999997 78.999043 C 24.553382 78.999043 24.999997 79.448353 24.999997 79.99908 Z M 24.999997 79.99908 " transform="matrix(3,0,0,3.042857,0,0)"/>
<path style=" stroke:none;fill-rule:nonzero;fill:rgb(81.568627%,60.784314%,2.745098%);fill-opacity:1;" d="M 72 241.601562 L 70.800781 241.601562 C 71.84375 241.757812 72.609375 242.664062 72.597656 243.734375 C 72.652344 244.382812 72.292969 244.996094 71.699219 245.253906 L 72 245.253906 C 72.898438 245.253906 74.101562 244.339844 74.101562 243.425781 C 73.949219 242.371094 73.050781 241.59375 72 241.601562 Z M 72 241.601562 "/>
<path style="fill-rule:nonzero;fill:rgb(99.607843%,74.901961%,6.27451%);fill-opacity:1;stroke-width:0.4;stroke-linecap:round;stroke-linejoin:round;stroke:rgb(0%,0%,0%);stroke-opacity:1;stroke-miterlimit:4;" d="M 25.499996 90.89935 C 25.499996 91.78385 24.783851 92.500179 23.899736 92.500179 C 23.016924 92.500179 22.300778 91.78385 22.300778 90.89935 C 22.300778 90.016135 23.016924 89.299805 23.899736 89.299805 C 24.783851 89.299805 25.499996 90.016135 25.499996 90.89935 Z M 25.499996 90.89935 " transform="matrix(3,0,0,3.042857,0,0)"/>
<path style=" stroke:none;fill-rule:nonzero;fill:rgb(0%,0%,0%);fill-opacity:1;" d="M 74.699219 276.59375 C 74.699219 278.277344 73.355469 279.640625 71.699219 279.640625 C 70.042969 279.640625 68.699219 278.277344 68.699219 276.59375 C 68.699219 274.917969 70.042969 273.550781 71.699219 273.550781 C 73.355469 273.550781 74.699219 274.917969 74.699219 276.59375 Z M 74.699219 276.59375 "/>
<path style="fill-rule:nonzero;fill:rgb(99.607843%,74.901961%,6.27451%);fill-opacity:1;stroke-width:0.4;stroke-linecap:round;stroke-linejoin:round;stroke:rgb(0%,0%,0%);stroke-opacity:1;stroke-miterlimit:4;" d="M 22.799476 93.70048 C 22.799476 94.583696 22.08333 95.300025 21.199216 95.300025 C 20.316403 95.300025 19.600258 94.583696 19.600258 93.70048 C 19.600258 92.81598 20.316403 92.100935 21.199216 92.100935 C 22.08333 92.100935 22.799476 92.81598 22.799476 93.70048 Z M 22.799476 93.70048 " transform="matrix(3,0,0,3.042857,0,0)"/>
<path style=" stroke:none;fill-rule:nonzero;fill:rgb(0%,0%,0%);fill-opacity:1;" d="M 66.597656 285.117188 C 66.597656 286.796875 65.257812 288.160156 63.597656 288.160156 C 61.941406 288.160156 60.601562 286.796875 60.601562 285.117188 C 60.601562 283.433594 61.941406 282.074219 63.597656 282.074219 C 65.257812 282.074219 66.597656 283.433594 66.597656 285.117188 Z M 66.597656 285.117188 "/>
<path style="fill-rule:nonzero;fill:rgb(99.607843%,74.901961%,6.27451%);fill-opacity:1;stroke-width:0.4;stroke-linecap:round;stroke-linejoin:round;stroke:rgb(0%,0%,0%);stroke-opacity:1;stroke-miterlimit:4;" d="M 28.499996 93.70048 C 28.499996 94.583696 27.782548 95.300025 26.899736 95.300025 C 26.016923 95.300025 25.299476 94.583696 25.299476 93.70048 C 25.299476 92.81598 26.016923 92.100935 26.899736 92.100935 C 27.782548 92.100935 28.499996 92.81598 28.499996 93.70048 Z M 28.499996 93.70048 " transform="matrix(3,0,0,3.042857,0,0)"/>
<path style=" stroke:none;fill-rule:nonzero;fill:rgb(0%,0%,0%);fill-opacity:1;" d="M 83.699219 285.117188 C 83.699219 286.796875 82.355469 288.160156 80.699219 288.160156 C 79.042969 288.160156 77.699219 286.796875 77.699219 285.117188 C 77.699219 283.433594 79.042969 282.074219 80.699219 282.074219 C 82.355469 282.074219 83.699219 283.433594 83.699219 285.117188 Z M 83.699219 285.117188 "/>
<path style="fill-rule:nonzero;fill:rgb(99.607843%,74.901961%,6.27451%);fill-opacity:1;stroke-width:0.4;stroke-linecap:round;stroke-linejoin:round;stroke:rgb(0%,0%,0%);stroke-opacity:1;stroke-miterlimit:4;" d="M 26.600257 93.70048 C 26.600257 95.190907 25.390621 96.400194 23.899736 96.400194 C 22.408851 96.400194 21.199216 95.190907 21.199216 93.70048 C 21.199216 92.208769 22.408851 90.999483 23.899736 90.999483 C 25.390621 90.999483 26.600257 92.208769 26.600257 93.70048 Z M 26.600257 93.70048 " transform="matrix(3,0,0,3.042857,0,0)"/>
<path style=" stroke:none;fill-rule:nonzero;fill:rgb(0%,39.607843%,71.764706%);fill-opacity:1;" d="M 81.300781 59.640625 L 72 49.292969 L 63 59.640625 L 63 141.796875 L 81.300781 141.796875 Z M 81.300781 59.640625 "/>
<path style=" stroke:none;fill-rule:nonzero;fill:rgb(0%,30.196078%,63.137255%);fill-opacity:1;" d="M 81.300781 59.640625 L 72 49.292969 L 72 141.796875 L 81.300781 141.796875 Z M 81.300781 59.640625 "/>
<path style="fill:none;stroke-width:0.4;stroke-linecap:round;stroke-linejoin:round;stroke:rgb(0%,0%,0%);stroke-opacity:1;stroke-miterlimit:4;" d="M 27.100257 19.600205 L 23.999997 16.199566 L 20.999997 19.600205 L 20.999997 46.59991 L 27.100257 46.59991 Z M 27.100257 19.600205 " transform="matrix(3,0,0,3.042857,0,0)"/>
<path style="fill:none;stroke-width:0.4;stroke-linecap:round;stroke-linejoin:round;stroke:rgb(0%,0%,0%);stroke-opacity:1;stroke-miterlimit:4;" d="M 23.999997 16.199566 L 23.999997 46.499778 " transform="matrix(3,0,0,3.042857,0,0)"/>
<path style="fill-rule:nonzero;fill:rgb(99.607843%,74.901961%,6.27451%);fill-opacity:1;stroke-width:0.4;stroke-linecap:round;stroke-linejoin:round;stroke:rgb(0%,0%,0%);stroke-opacity:1;stroke-miterlimit:4;" d="M 24.040361 46.219922 L 21.260414 43.35974 L 24.08984 40.59969 L 26.890621 43.459872 Z M 24.040361 46.219922 " transform="matrix(3,0,0,3.042857,0,0)"/>
<path style=" stroke:none;fill-rule:nonzero;fill:rgb(0%,0%,0%);fill-opacity:1;" d="M 72.089844 144.109375 L 63.71875 135.375 L 72.242188 126.980469 L 80.640625 135.710938 Z M 72.089844 144.109375 "/>
<path style="fill-rule:nonzero;fill:rgb(99.607843%,74.901961%,6.27451%);fill-opacity:1;stroke-width:0.4;stroke-linecap:round;stroke-linejoin:round;stroke:rgb(0%,0%,0%);stroke-opacity:1;stroke-miterlimit:4;" d="M 21.098955 51.900489 C 21.199216 47.099286 22.499997 43.999044 24.100257 44.10046 C 25.700517 44.199309 26.899736 47.099286 26.800778 51.999338 C 26.699215 55.152213 25.692705 58.20624 23.899736 60.800687 C 22.118486 58.169012 21.14583 55.076472 21.098955 51.900489 Z M 21.098955 51.900489 " transform="matrix(3,0,0,3.042857,0,0)"/>
<path style="fill:none;stroke-width:0.4;stroke-linecap:round;stroke-linejoin:round;stroke:rgb(0%,0%,0%);stroke-opacity:1;stroke-miterlimit:4;" d="M 26.800778 49.700152 C 25.920569 50.938965 24.838538 52.021161 23.600257 52.900526 C 22.749997 53.647665 22.067705 54.569393 21.600257 55.60024 M 22.401039 57.900709 C 22.82682 57.098369 23.403643 56.384607 24.100257 55.800504 C 25.401038 54.600203 26.199215 54.000695 26.800778 53.29977 M 26.299475 46.700042 C 25.700517 47.800211 24.899736 48.399719 23.100257 50.10068 C 22.287757 50.741268 21.636716 51.561581 21.199216 52.499998 " transform="matrix(3,0,0,3.042857,0,0)"/>
<path style="fill:none;stroke-width:0.4;stroke-linecap:round;stroke-linejoin:round;stroke:rgb(0%,0%,0%);stroke-opacity:1;stroke-miterlimit:4;" d="M 21.600257 55.60024 C 22.067705 54.569393 22.749997 53.647665 23.600257 52.900526 C 24.838538 52.021161 25.920569 50.938965 26.800778 49.700152 M 25.600257 44.499705 C 24.723955 45.490755 23.751299 46.395795 22.700518 47.200702 L 21.401039 48.698831 M 21.199216 52.499998 C 21.636716 51.561581 22.287757 50.741268 23.100257 50.10068 C 24.899736 48.399719 25.700517 47.800211 26.299475 46.700042 " transform="matrix(3,0,0,3.042857,0,0)"/>
<path style="fill-rule:nonzero;fill:rgb(99.607843%,74.901961%,6.27451%);fill-opacity:1;stroke-width:0.4;stroke-linecap:round;stroke-linejoin:round;stroke:rgb(0%,0%,0%);stroke-opacity:1;stroke-miterlimit:4;" d="M 22.700518 46.200666 C 22.700518 48.023582 21.222653 49.501172 19.399737 49.501172 C 17.57682 49.501172 16.100258 48.023582 16.100258 46.200666 C 16.100258 44.377749 17.57682 42.90016 19.399737 42.90016 C 21.222653 42.90016 22.700518 44.377749 22.700518 46.200666 Z M 22.700518 46.200666 " transform="matrix(3,0,0,3.042857,0,0)"/>
<path style="fill-rule:nonzero;fill:rgb(99.607843%,74.901961%,6.27451%);fill-opacity:1;stroke-width:0.4;stroke-linecap:round;stroke-linejoin:round;stroke:rgb(0%,0%,0%);stroke-opacity:1;stroke-miterlimit:4;" d="M 21.700518 46.200666 C 21.700518 47.470288 20.67057 48.499851 19.399737 48.499851 C 18.130206 48.499851 17.100258 47.470288 17.100258 46.200666 C 17.100258 44.929759 18.130206 43.900196 19.399737 43.900196 C 20.67057 43.900196 21.700518 44.929759 21.700518 46.200666 Z M 21.700518 46.200666 " transform="matrix(3,0,0,3.042857,0,0)"/>
<path style=" stroke:none;fill-rule:nonzero;fill:rgb(81.568627%,60.784314%,2.745098%);fill-opacity:1;" d="M 62.101562 140.582031 C 62.101562 142.765625 60.351562 144.535156 58.199219 144.535156 C 56.046875 144.535156 54.296875 142.765625 54.296875 140.582031 C 54.296875 138.394531 56.046875 136.625 58.199219 136.625 C 60.351562 136.625 62.101562 138.394531 62.101562 140.582031 Z M 62.101562 140.582031 "/>
<path style="fill-rule:nonzero;fill:rgb(99.607843%,74.901961%,6.27451%);fill-opacity:1;stroke-width:0.4;stroke-linecap:round;stroke-linejoin:round;stroke:rgb(0%,0%,0%);stroke-opacity:1;stroke-miterlimit:4;" d="M 31.899735 46.299514 C 31.899735 48.12243 30.423173 49.60002 28.600256 49.60002 C 26.77734 49.60002 25.299476 48.12243 25.299476 46.299514 C 25.299476 44.477881 26.77734 43.000292 28.600256 43.000292 C 30.423173 43.000292 31.899735 44.477881 31.899735 46.299514 Z M 31.899735 46.299514 " transform="matrix(3,0,0,3.042857,0,0)"/>
<path style="fill-rule:nonzero;fill:rgb(99.607843%,74.901961%,6.27451%);fill-opacity:1;stroke-width:0.4;stroke-linecap:round;stroke-linejoin:round;stroke:rgb(0%,0%,0%);stroke-opacity:1;stroke-miterlimit:4;" d="M 30.899735 46.299514 C 30.899735 47.569137 29.869787 48.599983 28.600256 48.599983 C 27.329423 48.599983 26.299475 47.569137 26.299475 46.299514 C 26.299475 45.029891 27.329423 43.999044 28.600256 43.999044 C 29.869787 43.999044 30.899735 45.029891 30.899735 46.299514 Z M 30.899735 46.299514 " transform="matrix(3,0,0,3.042857,0,0)"/>
<path style=" stroke:none;fill-rule:nonzero;fill:rgb(81.568627%,60.784314%,2.745098%);fill-opacity:1;" d="M 89.699219 140.882812 C 89.699219 143.070312 87.953125 144.839844 85.800781 144.839844 C 83.644531 144.839844 81.898438 143.070312 81.898438 140.882812 C 81.898438 138.699219 83.644531 136.925781 85.800781 136.925781 C 87.953125 136.925781 89.699219 138.699219 89.699219 140.882812 Z M 89.699219 140.882812 "/>
<path style="fill-rule:nonzero;fill:rgb(99.607843%,74.901961%,6.27451%);fill-opacity:1;stroke-width:0.4;stroke-linecap:round;stroke-linejoin:round;stroke:rgb(0%,0%,0%);stroke-opacity:1;stroke-miterlimit:4;" d="M 25.299918 61.799675 C 25.29941 61.30354 24.672393 60.900796 23.900774 60.899851 C 23.126607 60.900244 22.500575 61.303555 22.499818 61.80101 C 22.500326 62.297145 23.127343 62.699888 23.900227 62.699513 C 24.673111 62.699139 25.300445 62.297112 25.299918 61.799675 Z M 25.299918 61.799675 " transform="matrix(0.0418866,-3.04256,2.999708,0.0424849,-114.593025,258.050189)"/>
<path style="fill-rule:nonzero;fill:rgb(99.607843%,74.901961%,6.27451%);fill-opacity:1;stroke-width:0.4;stroke-linecap:round;stroke-linejoin:round;stroke:rgb(0%,0%,0%);stroke-opacity:1;stroke-miterlimit:4;" d="M 26.600157 60.099848 C 26.60091 59.326324 26.196738 58.700396 25.701152 58.699503 C 25.203017 58.699948 24.799647 59.326734 24.800177 60.10024 C 24.800707 60.873745 25.202312 61.499709 25.700465 61.500567 C 26.196033 61.500158 26.600687 60.873353 26.600157 60.099848 Z M 26.600157 60.099848 " transform="matrix(0.0418866,-3.04256,2.999708,0.0424849,-104.111004,258.668304)"/>
<path style="fill-rule:nonzero;fill:rgb(99.607843%,74.901961%,6.27451%);fill-opacity:1;stroke-width:0.4;stroke-linecap:round;stroke-linejoin:round;stroke:rgb(0%,0%,0%);stroke-opacity:1;stroke-miterlimit:4;" d="M 23.000854 60.100641 C 23.000324 59.327135 22.597418 58.699887 22.100548 58.699012 C 21.602431 58.700759 21.200345 59.327527 21.199573 60.099749 C 21.200103 60.873254 21.601708 61.499219 22.099861 61.500076 C 22.596731 61.500951 23.000101 60.874164 23.000854 60.100641 Z M 23.000854 60.100641 " transform="matrix(0.0418866,-3.04256,2.999708,0.0424849,-114.611058,247.685926)"/>
<path style="fill-rule:nonzero;fill:rgb(99.607843%,74.901961%,6.27451%);fill-opacity:1;stroke-width:0.4;stroke-linecap:round;stroke-linejoin:round;stroke:rgb(0%,0%,0%);stroke-opacity:1;stroke-miterlimit:4;" d="M 24.999997 60.000914 C 24.999997 60.551641 24.553382 61.000951 23.999997 61.000951 C 23.447913 61.000951 22.999997 60.551641 22.999997 60.000914 C 22.999997 59.447621 23.447913 58.999594 23.999997 58.999594 C 24.553382 58.999594 24.999997 59.447621 24.999997 60.000914 Z M 24.999997 60.000914 " transform="matrix(3,0,0,3.042857,0,0)"/>
<path style=" stroke:none;fill-rule:nonzero;fill:rgb(81.568627%,60.784314%,2.745098%);fill-opacity:1;" d="M 71.699219 184.398438 L 73.203125 184.398438 C 72 184.398438 71.398438 183.484375 71.398438 182.265625 C 71.421875 181.703125 71.632812 181.167969 72 180.746094 C 71.171875 181.003906 70.585938 181.742188 70.519531 182.621094 C 70.453125 183.496094 70.921875 184.320312 71.699219 184.699219 Z M 71.699219 184.398438 "/>
<path style="fill-rule:nonzero;fill:rgb(99.607843%,74.901961%,6.27451%);fill-opacity:1;stroke-width:0.4;stroke-linecap:round;stroke-linejoin:round;stroke:rgb(0%,0%,0%);stroke-opacity:1;stroke-miterlimit:4;" d="M 25.700517 49.100643 C 25.700517 49.983859 24.984372 50.700189 24.100257 50.700189 C 23.216143 50.700189 22.499997 49.983859 22.499997 49.100643 C 22.499997 48.216144 23.216143 47.499815 24.100257 47.499815 C 24.984372 47.499815 25.700517 48.216144 25.700517 49.100643 Z M 25.700517 49.100643 " transform="matrix(3,0,0,3.042857,0,0)"/>
<path style=" stroke:none;fill-rule:nonzero;fill:rgb(0%,0%,0%);fill-opacity:1;" d="M 75.300781 149.40625 C 75.300781 151.082031 73.957031 152.449219 72.300781 152.449219 C 70.644531 152.449219 69.300781 151.082031 69.300781 149.40625 C 69.300781 147.722656 70.644531 146.359375 72.300781 146.359375 C 73.957031 146.359375 75.300781 147.722656 75.300781 149.40625 Z M 75.300781 149.40625 "/>
<path style="fill-rule:nonzero;fill:rgb(99.607843%,74.901961%,6.27451%);fill-opacity:1;stroke-width:0.4;stroke-linecap:round;stroke-linejoin:round;stroke:rgb(0%,0%,0%);stroke-opacity:1;stroke-miterlimit:4;" d="M 28.399736 46.299514 C 28.399736 47.184013 27.68359 47.899059 26.800778 47.899059 C 25.915361 47.899059 25.199215 47.184013 25.199215 46.299514 C 25.199215 45.416298 25.915361 44.699969 26.800778 44.699969 C 27.68359 44.699969 28.399736 45.416298 28.399736 46.299514 Z M 28.399736 46.299514 " transform="matrix(3,0,0,3.042857,0,0)"/>
<path style=" stroke:none;fill-rule:nonzero;fill:rgb(0%,0%,0%);fill-opacity:1;" d="M 83.402344 140.882812 C 83.402344 142.566406 82.054688 143.925781 80.402344 143.925781 C 78.742188 143.925781 77.398438 142.566406 77.398438 140.882812 C 77.398438 139.203125 78.742188 137.839844 80.402344 137.839844 C 82.054688 137.839844 83.402344 139.203125 83.402344 140.882812 Z M 83.402344 140.882812 "/>
<path style="fill-rule:nonzero;fill:rgb(99.607843%,74.901961%,6.27451%);fill-opacity:1;stroke-width:0.4;stroke-linecap:round;stroke-linejoin:round;stroke:rgb(0%,0%,0%);stroke-opacity:1;stroke-miterlimit:4;" d="M 22.700518 46.299514 C 22.700518 47.184013 21.984372 47.899059 21.098955 47.899059 C 20.216143 47.899059 19.499997 47.184013 19.499997 46.299514 C 19.499997 45.416298 20.216143 44.699969 21.098955 44.699969 C 21.984372 44.699969 22.700518 45.416298 22.700518 46.299514 Z M 22.700518 46.299514 " transform="matrix(3,0,0,3.042857,0,0)"/>
<path style=" stroke:none;fill-rule:nonzero;fill:rgb(0%,0%,0%);fill-opacity:1;" d="M 66.296875 140.882812 C 66.296875 142.566406 64.957031 143.925781 63.296875 143.925781 C 61.644531 143.925781 60.296875 142.566406 60.296875 140.882812 C 60.296875 139.203125 61.644531 137.839844 63.296875 137.839844 C 64.957031 137.839844 66.296875 139.203125 66.296875 140.882812 Z M 66.296875 140.882812 "/>
<path style="fill-rule:nonzero;fill:rgb(99.607843%,74.901961%,6.27451%);fill-opacity:1;stroke-width:0.4;stroke-linecap:round;stroke-linejoin:round;stroke:rgb(0%,0%,0%);stroke-opacity:1;stroke-miterlimit:4;" d="M 26.800778 46.299514 C 26.800778 47.791224 25.591142 49.000511 24.100257 49.000511 C 22.609372 49.000511 21.401039 47.791224 21.401039 46.299514 C 21.401039 44.809087 22.609372 43.5998 24.100257 43.5998 C 25.591142 43.5998 26.800778 44.809087 26.800778 46.299514 Z M 26.800778 46.299514 " transform="matrix(3,0,0,3.042857,0,0)"/>
<path style=" stroke:none;fill-rule:nonzero;fill:rgb(0%,39.607843%,71.764706%);fill-opacity:1;" d="M 198 366.359375 L 189 376.707031 L 179.699219 366.359375 L 179.699219 284.203125 L 198 284.203125 Z M 198 366.359375 "/>
<path style=" stroke:none;fill-rule:nonzero;fill:rgb(0%,30.196078%,63.137255%);fill-opacity:1;" d="M 198 366.359375 L 189 376.707031 L 188.699219 284.203125 L 198 284.203125 Z M 198 366.359375 "/>
<path style="fill:none;stroke-width:0.4;stroke-linecap:round;stroke-linejoin:round;stroke:rgb(0%,0%,0%);stroke-opacity:1;stroke-miterlimit:4;" d="M 65.999991 120.399789 L 62.999991 123.800427 L 59.899731 120.399789 L 59.899731 93.400084 L 65.999991 93.400084 Z M 65.999991 120.399789 " transform="matrix(3,0,0,3.042857,0,0)"/>
<path style="fill:none;stroke-width:0.4;stroke-linecap:round;stroke-linejoin:round;stroke:rgb(0%,0%,0%);stroke-opacity:1;stroke-miterlimit:4;" d="M 62.999991 123.800427 L 62.999991 93.500216 " transform="matrix(3,0,0,3.042857,0,0)"/>
<path style="fill-rule:nonzero;fill:rgb(99.607843%,74.901961%,6.27451%);fill-opacity:1;stroke-width:0.4;stroke-linecap:round;stroke-linejoin:round;stroke:rgb(0%,0%,0%);stroke-opacity:1;stroke-miterlimit:4;" d="M 62.979158 93.709466 L 65.769522 96.579918 L 62.929679 99.339968 L 60.140617 96.469516 Z M 62.979158 93.709466 " transform="matrix(3,0,0,3.042857,0,0)"/>
<path style=" stroke:none;fill-rule:nonzero;fill:rgb(0%,0%,0%);fill-opacity:1;" d="M 189 282.136719 L 197.339844 290.835938 L 188.851562 299.234375 L 180.449219 290.53125 Z M 189 282.136719 "/>
<path style="fill-rule:nonzero;fill:rgb(99.607843%,74.901961%,6.27451%);fill-opacity:1;stroke-width:0.4;stroke-linecap:round;stroke-linejoin:round;stroke:rgb(0%,0%,0%);stroke-opacity:1;stroke-miterlimit:4;" d="M 65.800772 88.099505 C 65.800772 92.900707 64.399731 96.000949 62.899731 95.899534 C 61.399731 95.800685 59.999992 92.900707 60.100252 88.000656 C 60.263012 84.845213 61.302075 81.797605 63.100252 79.199307 C 64.825512 81.851522 65.760407 84.937643 65.800772 88.099505 Z M 65.800772 88.099505 " transform="matrix(3,0,0,3.042857,0,0)"/>
<path style="fill:none;stroke-width:0.4;stroke-linecap:round;stroke-linejoin:round;stroke:rgb(0%,0%,0%);stroke-opacity:1;stroke-miterlimit:4;" d="M 60.19921 90.299842 C 60.800773 89.200957 61.499991 88.600165 63.29947 87.099468 C 64.182283 86.380571 64.869783 85.452424 65.29947 84.399754 M 64.598949 82.099285 C 64.131501 82.902909 63.522127 83.614103 62.800772 84.19949 C 61.864575 84.959467 60.994783 85.795184 60.19921 86.700224 M 60.600252 93.299952 C 61.528637 92.012357 62.640616 90.865973 63.899731 89.899314 C 64.682283 89.229199 65.326814 88.415306 65.800772 87.499996 " transform="matrix(3,0,0,3.042857,0,0)"/>
<path style="fill:none;stroke-width:0.4;stroke-linecap:round;stroke-linejoin:round;stroke:rgb(0%,0%,0%);stroke-opacity:1;stroke-miterlimit:4;" d="M 65.29947 84.399754 C 64.869783 85.452424 64.182283 86.380571 63.29947 87.099468 C 61.499991 88.600165 60.800773 89.200957 60.19921 90.299842 M 61.399731 95.500289 C 62.207023 94.478429 63.149731 93.569538 64.200512 92.799292 L 65.499991 91.301162 M 65.800772 87.499996 C 65.326814 88.415306 64.682283 89.229199 63.899731 89.899314 C 62.640616 90.865973 61.528637 92.012357 60.600252 93.299952 " transform="matrix(3,0,0,3.042857,0,0)"/>
<path style="fill-rule:nonzero;fill:rgb(99.607843%,74.901961%,6.27451%);fill-opacity:1;stroke-width:0.4;stroke-linecap:round;stroke-linejoin:round;stroke:rgb(0%,0%,0%);stroke-opacity:1;stroke-miterlimit:4;" d="M 70.89973 93.799328 C 70.89973 95.622245 69.423167 97.099834 67.600251 97.099834 C 65.777335 97.099834 64.29947 95.622245 64.29947 93.799328 C 64.29947 91.976412 65.777335 90.498822 67.600251 90.498822 C 69.423167 90.498822 70.89973 91.976412 70.89973 93.799328 Z M 70.89973 93.799328 " transform="matrix(3,0,0,3.042857,0,0)"/>
<path style="fill-rule:nonzero;fill:rgb(99.607843%,74.901961%,6.27451%);fill-opacity:1;stroke-width:0.4;stroke-linecap:round;stroke-linejoin:round;stroke:rgb(0%,0%,0%);stroke-opacity:1;stroke-miterlimit:4;" d="M 69.89973 93.799328 C 69.89973 95.070235 68.869782 96.099798 67.600251 96.099798 C 66.329418 96.099798 65.29947 95.070235 65.29947 93.799328 C 65.29947 92.529705 66.329418 91.500143 67.600251 91.500143 C 68.869782 91.500143 69.89973 92.529705 69.89973 93.799328 Z M 69.89973 93.799328 " transform="matrix(3,0,0,3.042857,0,0)"/>
<path style=" stroke:none;fill-rule:nonzero;fill:rgb(81.568627%,60.784314%,2.745098%);fill-opacity:1;" d="M 206.703125 285.417969 C 206.703125 287.605469 204.953125 289.375 202.800781 289.375 C 200.648438 289.375 198.898438 287.605469 198.898438 285.417969 C 198.898438 283.234375 200.648438 281.464844 202.800781 281.464844 C 204.953125 281.464844 206.703125 283.234375 206.703125 285.417969 Z M 206.703125 285.417969 "/>
<path style="fill-rule:nonzero;fill:rgb(99.607843%,74.901961%,6.27451%);fill-opacity:1;stroke-width:0.4;stroke-linecap:round;stroke-linejoin:round;stroke:rgb(0%,0%,0%);stroke-opacity:1;stroke-miterlimit:4;" d="M 61.700512 93.70048 C 61.700512 95.522113 60.222648 96.999702 58.399731 96.999702 C 56.576815 96.999702 55.100253 95.522113 55.100253 93.70048 C 55.100253 91.877563 56.576815 90.399974 58.399731 90.399974 C 60.222648 90.399974 61.700512 91.877563 61.700512 93.70048 Z M 61.700512 93.70048 " transform="matrix(3,0,0,3.042857,0,0)"/>
<path style="fill-rule:nonzero;fill:rgb(99.607843%,74.901961%,6.27451%);fill-opacity:1;stroke-width:0.4;stroke-linecap:round;stroke-linejoin:round;stroke:rgb(0%,0%,0%);stroke-opacity:1;stroke-miterlimit:4;" d="M 60.700512 93.70048 C 60.700512 94.970103 59.670565 96.000949 58.399731 96.000949 C 57.1302 96.000949 56.100253 94.970103 56.100253 93.70048 C 56.100253 92.430857 57.1302 91.400011 58.399731 91.400011 C 59.670565 91.400011 60.700512 92.430857 60.700512 93.70048 Z M 60.700512 93.70048 " transform="matrix(3,0,0,3.042857,0,0)"/>
<path style=" stroke:none;fill-rule:nonzero;fill:rgb(81.568627%,60.784314%,2.745098%);fill-opacity:1;" d="M 179.101562 285.117188 C 179.101562 287.300781 177.355469 289.074219 175.199219 289.074219 C 173.046875 289.074219 171.300781 287.300781 171.300781 285.117188 C 171.300781 282.929688 173.046875 281.160156 175.199219 281.160156 C 177.355469 281.160156 179.101562 282.929688 179.101562 285.117188 Z M 179.101562 285.117188 "/>
<path style="fill-rule:nonzero;fill:rgb(99.607843%,74.901961%,6.27451%);fill-opacity:1;stroke-width:0.4;stroke-linecap:round;stroke-linejoin:round;stroke:rgb(0%,0%,0%);stroke-opacity:1;stroke-miterlimit:4;" d="M 64.398996 78.199768 C 64.399753 77.702314 63.772736 77.29957 63.001136 77.299927 C 62.226968 77.30032 61.600918 77.702329 61.600161 78.199784 C 61.599386 78.695937 62.22642 79.099982 63.000588 79.099589 C 63.773491 79.100517 64.400806 78.697187 64.398996 78.199768 Z M 64.398996 78.199768 " transform="matrix(0.0418866,-3.04256,2.999708,0.0424849,-48.305144,426.279575)"/>
<path style="fill-rule:nonzero;fill:rgb(99.607843%,74.901961%,6.27451%);fill-opacity:1;stroke-width:0.4;stroke-linecap:round;stroke-linejoin:round;stroke:rgb(0%,0%,0%);stroke-opacity:1;stroke-miterlimit:4;" d="M 62.099944 79.899494 C 62.099433 79.12729 61.69781 78.500024 61.199675 78.500469 C 60.702805 78.499593 60.300719 79.126362 60.299965 79.899886 C 60.300477 80.672089 60.702118 81.300657 61.200253 81.300213 C 61.697104 81.299786 62.099191 80.673017 62.099944 79.899494 Z M 62.099944 79.899494 " transform="matrix(0.0418866,-3.04256,2.999708,0.0424849,-58.819242,425.993609)"/>
<path style="fill-rule:nonzero;fill:rgb(99.607843%,74.901961%,6.27451%);fill-opacity:1;stroke-width:0.4;stroke-linecap:round;stroke-linejoin:round;stroke:rgb(0%,0%,0%);stroke-opacity:1;stroke-miterlimit:4;" d="M 65.700369 79.900066 C 65.699839 79.12656 65.29695 78.500614 64.800081 78.499739 C 64.301946 78.500184 63.899841 79.125651 63.900389 79.900458 C 63.899636 80.673981 64.302524 81.299928 64.799394 81.300803 C 65.297511 81.299056 65.699597 80.672287 65.700369 79.900066 Z M 65.700369 79.900066 " transform="matrix(0.0418866,-3.04256,2.999708,0.0424849,-47.991299,436.948093)"/>
<path style="fill-rule:nonzero;fill:rgb(99.607843%,74.901961%,6.27451%);fill-opacity:1;stroke-width:0.4;stroke-linecap:round;stroke-linejoin:round;stroke:rgb(0%,0%,0%);stroke-opacity:1;stroke-miterlimit:4;" d="M 63.999991 79.99908 C 63.999991 80.552373 63.552074 81.0004 62.999991 81.0004 C 62.446606 81.0004 61.999991 80.552373 61.999991 79.99908 C 61.999991 79.448353 62.446606 78.999043 62.999991 78.999043 C 63.552074 78.999043 63.999991 79.448353 63.999991 79.99908 Z M 63.999991 79.99908 " transform="matrix(3,0,0,3.042857,0,0)"/>
<path style=" stroke:none;fill-rule:nonzero;fill:rgb(81.568627%,60.784314%,2.745098%);fill-opacity:1;" d="M 189 241.601562 L 187.796875 241.601562 C 188.839844 241.757812 189.609375 242.664062 189.601562 243.734375 C 189.652344 244.382812 189.289062 244.996094 188.699219 245.253906 L 189 245.253906 C 189.898438 245.253906 191.101562 244.339844 191.101562 243.425781 C 190.949219 242.371094 190.054688 241.59375 189 241.601562 Z M 189 241.601562 "/>
<path style="fill-rule:nonzero;fill:rgb(99.607843%,74.901961%,6.27451%);fill-opacity:1;stroke-width:0.4;stroke-linecap:round;stroke-linejoin:round;stroke:rgb(0%,0%,0%);stroke-opacity:1;stroke-miterlimit:4;" d="M 64.499991 90.89935 C 64.499991 91.78385 63.783845 92.500179 62.899731 92.500179 C 62.015616 92.500179 61.299471 91.78385 61.299471 90.89935 C 61.299471 90.016135 62.015616 89.299805 62.899731 89.299805 C 63.783845 89.299805 64.499991 90.016135 64.499991 90.89935 Z M 64.499991 90.89935 " transform="matrix(3,0,0,3.042857,0,0)"/>
<path style=" stroke:none;fill-rule:nonzero;fill:rgb(0%,0%,0%);fill-opacity:1;" d="M 191.699219 276.59375 C 191.699219 278.277344 190.355469 279.640625 188.699219 279.640625 C 187.042969 279.640625 185.699219 278.277344 185.699219 276.59375 C 185.699219 274.917969 187.042969 273.550781 188.699219 273.550781 C 190.355469 273.550781 191.699219 274.917969 191.699219 276.59375 Z M 191.699219 276.59375 "/>
<path style="fill-rule:nonzero;fill:rgb(99.607843%,74.901961%,6.27451%);fill-opacity:1;stroke-width:0.4;stroke-linecap:round;stroke-linejoin:round;stroke:rgb(0%,0%,0%);stroke-opacity:1;stroke-miterlimit:4;" d="M 61.800773 93.70048 C 61.800773 94.583696 61.084627 95.300025 60.19921 95.300025 C 59.316398 95.300025 58.600252 94.583696 58.600252 93.70048 C 58.600252 92.81598 59.316398 92.100935 60.19921 92.100935 C 61.084627 92.100935 61.800773 92.81598 61.800773 93.70048 Z M 61.800773 93.70048 " transform="matrix(3,0,0,3.042857,0,0)"/>
<path style=" stroke:none;fill-rule:nonzero;fill:rgb(0%,0%,0%);fill-opacity:1;" d="M 183.601562 285.117188 C 183.601562 286.796875 182.257812 288.160156 180.597656 288.160156 C 178.945312 288.160156 177.597656 286.796875 177.597656 285.117188 C 177.597656 283.433594 178.945312 282.074219 180.597656 282.074219 C 182.257812 282.074219 183.601562 283.433594 183.601562 285.117188 Z M 183.601562 285.117188 "/>
<path style="fill-rule:nonzero;fill:rgb(99.607843%,74.901961%,6.27451%);fill-opacity:1;stroke-width:0.4;stroke-linecap:round;stroke-linejoin:round;stroke:rgb(0%,0%,0%);stroke-opacity:1;stroke-miterlimit:4;" d="M 67.499991 93.70048 C 67.499991 94.583696 66.783845 95.300025 65.901032 95.300025 C 65.015616 95.300025 64.29947 94.583696 64.29947 93.70048 C 64.29947 92.81598 65.015616 92.100935 65.901032 92.100935 C 66.783845 92.100935 67.499991 92.81598 67.499991 93.70048 Z M 67.499991 93.70048 " transform="matrix(3,0,0,3.042857,0,0)"/>
<path style=" stroke:none;fill-rule:nonzero;fill:rgb(0%,0%,0%);fill-opacity:1;" d="M 200.703125 285.117188 C 200.703125 286.796875 199.355469 288.160156 197.703125 288.160156 C 196.042969 288.160156 194.703125 286.796875 194.703125 285.117188 C 194.703125 283.433594 196.042969 282.074219 197.703125 282.074219 C 199.355469 282.074219 200.703125 283.433594 200.703125 285.117188 Z M 200.703125 285.117188 "/>
<path style="fill-rule:nonzero;fill:rgb(99.607843%,74.901961%,6.27451%);fill-opacity:1;stroke-width:0.4;stroke-linecap:round;stroke-linejoin:round;stroke:rgb(0%,0%,0%);stroke-opacity:1;stroke-miterlimit:4;" d="M 65.598949 93.70048 C 65.598949 95.190907 64.390616 96.400194 62.899731 96.400194 C 61.408846 96.400194 60.19921 95.190907 60.19921 93.70048 C 60.19921 92.208769 61.408846 90.999483 62.899731 90.999483 C 64.390616 90.999483 65.598949 92.208769 65.598949 93.70048 Z M 65.598949 93.70048 " transform="matrix(3,0,0,3.042857,0,0)"/>
<path style=" stroke:none;fill-rule:nonzero;fill:rgb(0%,39.607843%,71.764706%);fill-opacity:1;" d="M 198.300781 59.640625 L 189 49.292969 L 180 59.640625 L 180 141.796875 L 198.300781 141.796875 Z M 198.300781 59.640625 "/>
<path style=" stroke:none;fill-rule:nonzero;fill:rgb(0%,30.196078%,63.137255%);fill-opacity:1;" d="M 198.300781 59.640625 L 189 49.292969 L 189 141.796875 L 198.300781 141.796875 Z M 198.300781 59.640625 "/>
<path style="fill:none;stroke-width:0.4;stroke-linecap:round;stroke-linejoin:round;stroke:rgb(0%,0%,0%);stroke-opacity:1;stroke-miterlimit:4;" d="M 66.100251 19.600205 L 62.999991 16.199566 L 59.999992 19.600205 L 59.999992 46.59991 L 66.100251 46.59991 Z M 66.100251 19.600205 " transform="matrix(3,0,0,3.042857,0,0)"/>
<path style="fill:none;stroke-width:0.4;stroke-linecap:round;stroke-linejoin:round;stroke:rgb(0%,0%,0%);stroke-opacity:1;stroke-miterlimit:4;" d="M 62.999991 16.199566 L 62.999991 46.499778 " transform="matrix(3,0,0,3.042857,0,0)"/>
<path style="fill-rule:nonzero;fill:rgb(99.607843%,74.901961%,6.27451%);fill-opacity:1;stroke-width:0.4;stroke-linecap:round;stroke-linejoin:round;stroke:rgb(0%,0%,0%);stroke-opacity:1;stroke-miterlimit:4;" d="M 63.059887 46.259718 L 60.259106 43.399536 L 63.109366 40.64077 L 65.889314 43.500952 Z M 63.059887 46.259718 " transform="matrix(3,0,0,3.042857,0,0)"/>
<path style=" stroke:none;fill-rule:nonzero;fill:rgb(0%,0%,0%);fill-opacity:1;" d="M 189.121094 143.925781 L 180.75 135.195312 L 189.269531 126.796875 L 197.667969 135.53125 Z M 189.121094 143.925781 "/>
<path style="fill-rule:nonzero;fill:rgb(99.607843%,74.901961%,6.27451%);fill-opacity:1;stroke-width:0.4;stroke-linecap:round;stroke-linejoin:round;stroke:rgb(0%,0%,0%);stroke-opacity:1;stroke-miterlimit:4;" d="M 60.100252 51.900489 C 60.19921 47.099286 61.499991 43.999044 63.100252 44.10046 C 64.69921 44.199309 65.901032 47.099286 65.800772 51.999338 C 65.69921 55.152213 64.692699 58.20624 62.899731 60.800687 C 61.119783 58.169012 60.145825 55.076472 60.100252 51.900489 Z M 60.100252 51.900489 " transform="matrix(3,0,0,3.042857,0,0)"/>
<path style="fill:none;stroke-width:0.4;stroke-linecap:round;stroke-linejoin:round;stroke:rgb(0%,0%,0%);stroke-opacity:1;stroke-miterlimit:4;" d="M 65.800772 49.700152 C 64.920564 50.938965 63.839835 52.021161 62.59895 52.900526 C 61.748689 53.647665 61.0677 54.569393 60.600252 55.60024 M 61.399731 57.900709 C 61.826814 57.098369 62.404939 56.384607 63.100252 55.800504 C 64.399731 54.600203 65.200512 54.000695 65.800772 53.29977 M 65.29947 46.700042 C 64.69921 47.800211 63.899731 48.399719 62.100252 50.10068 C 61.287752 50.741268 60.635408 51.561581 60.19921 52.499998 " transform="matrix(3,0,0,3.042857,0,0)"/>
<path style="fill:none;stroke-width:0.4;stroke-linecap:round;stroke-linejoin:round;stroke:rgb(0%,0%,0%);stroke-opacity:1;stroke-miterlimit:4;" d="M 60.600252 55.60024 C 61.0677 54.569393 61.748689 53.647665 62.59895 52.900526 C 63.839835 52.021161 64.920564 50.938965 65.800772 49.700152 M 64.598949 44.499705 C 63.722647 45.490755 62.751293 46.395795 61.700512 47.200702 L 60.399731 48.698831 M 60.19921 52.499998 C 60.635408 51.561581 61.287752 50.741268 62.100252 50.10068 C 63.899731 48.399719 64.69921 47.800211 65.29947 46.700042 " transform="matrix(3,0,0,3.042857,0,0)"/>
<path style="fill-rule:nonzero;fill:rgb(99.607843%,74.901961%,6.27451%);fill-opacity:1;stroke-width:0.4;stroke-linecap:round;stroke-linejoin:round;stroke:rgb(0%,0%,0%);stroke-opacity:1;stroke-miterlimit:4;" d="M 61.700512 46.200666 C 61.700512 48.023582 60.222648 49.501172 58.399731 49.501172 C 56.576815 49.501172 55.100253 48.023582 55.100253 46.200666 C 55.100253 44.377749 56.576815 42.90016 58.399731 42.90016 C 60.222648 42.90016 61.700512 44.377749 61.700512 46.200666 Z M 61.700512 46.200666 " transform="matrix(3,0,0,3.042857,0,0)"/>
<path style="fill-rule:nonzero;fill:rgb(99.607843%,74.901961%,6.27451%);fill-opacity:1;stroke-width:0.4;stroke-linecap:round;stroke-linejoin:round;stroke:rgb(0%,0%,0%);stroke-opacity:1;stroke-miterlimit:4;" d="M 60.700512 46.200666 C 60.700512 47.470288 59.670565 48.499851 58.399731 48.499851 C 57.1302 48.499851 56.100253 47.470288 56.100253 46.200666 C 56.100253 44.929759 57.1302 43.900196 58.399731 43.900196 C 59.670565 43.900196 60.700512 44.929759 60.700512 46.200666 Z M 60.700512 46.200666 " transform="matrix(3,0,0,3.042857,0,0)"/>
<path style=" stroke:none;fill-rule:nonzero;fill:rgb(81.568627%,60.784314%,2.745098%);fill-opacity:1;" d="M 179.101562 140.582031 C 179.101562 142.765625 177.355469 144.535156 175.199219 144.535156 C 173.046875 144.535156 171.300781 142.765625 171.300781 140.582031 C 171.300781 138.394531 173.046875 136.625 175.199219 136.625 C 177.355469 136.625 179.101562 138.394531 179.101562 140.582031 Z M 179.101562 140.582031 "/>
<path style="fill-rule:nonzero;fill:rgb(99.607843%,74.901961%,6.27451%);fill-opacity:1;stroke-width:0.4;stroke-linecap:round;stroke-linejoin:round;stroke:rgb(0%,0%,0%);stroke-opacity:1;stroke-miterlimit:4;" d="M 70.89973 46.299514 C 70.89973 48.12243 69.423167 49.60002 67.600251 49.60002 C 65.777335 49.60002 64.29947 48.12243 64.29947 46.299514 C 64.29947 44.477881 65.777335 43.000292 67.600251 43.000292 C 69.423167 43.000292 70.89973 44.477881 70.89973 46.299514 Z M 70.89973 46.299514 " transform="matrix(3,0,0,3.042857,0,0)"/>
<path style="fill-rule:nonzero;fill:rgb(99.607843%,74.901961%,6.27451%);fill-opacity:1;stroke-width:0.4;stroke-linecap:round;stroke-linejoin:round;stroke:rgb(0%,0%,0%);stroke-opacity:1;stroke-miterlimit:4;" d="M 69.89973 46.299514 C 69.89973 47.569137 68.869782 48.599983 67.600251 48.599983 C 66.329418 48.599983 65.29947 47.569137 65.29947 46.299514 C 65.29947 45.029891 66.329418 43.999044 67.600251 43.999044 C 68.869782 43.999044 69.89973 45.029891 69.89973 46.299514 Z M 69.89973 46.299514 " transform="matrix(3,0,0,3.042857,0,0)"/>
<path style=" stroke:none;fill-rule:nonzero;fill:rgb(81.568627%,60.784314%,2.745098%);fill-opacity:1;" d="M 206.703125 140.882812 C 206.703125 143.070312 204.953125 144.839844 202.800781 144.839844 C 200.648438 144.839844 198.898438 143.070312 198.898438 140.882812 C 198.898438 138.699219 200.648438 136.925781 202.800781 136.925781 C 204.953125 136.925781 206.703125 138.699219 206.703125 140.882812 Z M 206.703125 140.882812 "/>
<path style="fill-rule:nonzero;fill:rgb(99.607843%,74.901961%,6.27451%);fill-opacity:1;stroke-width:0.4;stroke-linecap:round;stroke-linejoin:round;stroke:rgb(0%,0%,0%);stroke-opacity:1;stroke-miterlimit:4;" d="M 64.300209 61.800316 C 64.299682 61.302879 63.672666 60.900136 62.899763 60.899209 C 62.126879 60.899583 61.499563 61.302912 61.50009 61.800349 C 61.500598 62.296484 62.127633 62.700529 62.899234 62.700173 C 63.67342 62.701082 64.299434 62.296469 64.300209 61.800316 Z M 64.300209 61.800316 " transform="matrix(0.0418866,-3.04256,2.999708,0.0424849,0.892556,376.710894)"/>
<path style="fill-rule:nonzero;fill:rgb(99.607843%,74.901961%,6.27451%);fill-opacity:1;stroke-width:0.4;stroke-linecap:round;stroke-linejoin:round;stroke:rgb(0%,0%,0%);stroke-opacity:1;stroke-miterlimit:4;" d="M 65.600845 60.099599 C 65.600315 59.326094 65.197426 58.700147 64.700575 58.700574 C 64.202422 58.699717 63.800335 59.326486 63.799582 60.100009 C 63.800111 60.873515 64.201716 61.499479 64.699869 61.500336 C 65.196721 61.499909 65.600091 60.873122 65.600845 60.099599 Z M 65.600845 60.099599 " transform="matrix(0.0418866,-3.04256,2.999708,0.0424849,11.404575,377.299005)"/>
<path style="fill-rule:nonzero;fill:rgb(99.607843%,74.901961%,6.27451%);fill-opacity:1;stroke-width:0.4;stroke-linecap:round;stroke-linejoin:round;stroke:rgb(0%,0%,0%);stroke-opacity:1;stroke-miterlimit:4;" d="M 62.000175 60.100889 C 62.000911 59.326063 61.596739 58.700135 61.101153 58.699242 C 60.603036 58.700989 60.199648 59.326473 60.200178 60.099979 C 60.200708 60.873484 60.602312 61.499448 61.100466 61.500306 C 61.596033 61.499897 62.000687 60.873092 62.000175 60.100889 Z M 62.000175 60.100889 " transform="matrix(0.0418866,-3.04256,2.999708,0.0424849,0.606213,366.374947)"/>
<path style="fill-rule:nonzero;fill:rgb(99.607843%,74.901961%,6.27451%);fill-opacity:1;stroke-width:0.4;stroke-linecap:round;stroke-linejoin:round;stroke:rgb(0%,0%,0%);stroke-opacity:1;stroke-miterlimit:4;" d="M 63.999991 60.000914 C 63.999991 60.551641 63.552074 61.000951 62.999991 61.000951 C 62.446606 61.000951 61.999991 60.551641 61.999991 60.000914 C 61.999991 59.447621 62.446606 58.999594 62.999991 58.999594 C 63.552074 58.999594 63.999991 59.447621 63.999991 60.000914 Z M 63.999991 60.000914 " transform="matrix(3,0,0,3.042857,0,0)"/>
<path style=" stroke:none;fill-rule:nonzero;fill:rgb(81.568627%,60.784314%,2.745098%);fill-opacity:1;" d="M 188.699219 184.398438 L 190.199219 184.398438 C 189 184.398438 188.402344 183.484375 188.402344 182.265625 C 188.417969 181.703125 188.632812 181.167969 189 180.746094 C 188.152344 180.332031 187.136719 180.539062 186.515625 181.25 C 185.890625 181.964844 185.8125 183.015625 186.320312 183.816406 C 186.828125 184.617188 187.800781 184.980469 188.699219 184.699219 Z M 188.699219 184.398438 "/>
<path style="fill-rule:nonzero;fill:rgb(99.607843%,74.901961%,6.27451%);fill-opacity:1;stroke-width:0.4;stroke-linecap:round;stroke-linejoin:round;stroke:rgb(0%,0%,0%);stroke-opacity:1;stroke-miterlimit:4;" d="M 64.69921 49.100643 C 64.69921 49.983859 63.983064 50.700189 63.100252 50.700189 C 62.216137 50.700189 61.499991 49.983859 61.499991 49.100643 C 61.499991 48.216144 62.216137 47.499815 63.100252 47.499815 C 63.983064 47.499815 64.69921 48.216144 64.69921 49.100643 Z M 64.69921 49.100643 " transform="matrix(3,0,0,3.042857,0,0)"/>
<path style=" stroke:none;fill-rule:nonzero;fill:rgb(0%,0%,0%);fill-opacity:1;" d="M 192.300781 149.40625 C 192.300781 151.082031 190.957031 152.449219 189.300781 152.449219 C 187.644531 152.449219 186.300781 151.082031 186.300781 149.40625 C 186.300781 147.722656 187.644531 146.359375 189.300781 146.359375 C 190.957031 146.359375 192.300781 147.722656 192.300781 149.40625 Z M 192.300781 149.40625 "/>
<path style="fill-rule:nonzero;fill:rgb(99.607843%,74.901961%,6.27451%);fill-opacity:1;stroke-width:0.4;stroke-linecap:round;stroke-linejoin:round;stroke:rgb(0%,0%,0%);stroke-opacity:1;stroke-miterlimit:4;" d="M 67.39973 46.299514 C 67.39973 47.184013 66.683584 47.899059 65.800772 47.899059 C 64.916658 47.899059 64.200512 47.184013 64.200512 46.299514 C 64.200512 45.416298 64.916658 44.699969 65.800772 44.699969 C 66.683584 44.699969 67.39973 45.416298 67.39973 46.299514 Z M 67.39973 46.299514 " transform="matrix(3,0,0,3.042857,0,0)"/>
<path style=" stroke:none;fill-rule:nonzero;fill:rgb(0%,0%,0%);fill-opacity:1;" d="M 200.398438 140.882812 C 200.398438 142.566406 199.058594 143.925781 197.402344 143.925781 C 195.742188 143.925781 194.402344 142.566406 194.402344 140.882812 C 194.402344 139.203125 195.742188 137.839844 197.402344 137.839844 C 199.058594 137.839844 200.398438 139.203125 200.398438 140.882812 Z M 200.398438 140.882812 "/>
<path style="fill-rule:nonzero;fill:rgb(99.607843%,74.901961%,6.27451%);fill-opacity:1;stroke-width:0.4;stroke-linecap:round;stroke-linejoin:round;stroke:rgb(0%,0%,0%);stroke-opacity:1;stroke-miterlimit:4;" d="M 61.700512 46.299514 C 61.700512 47.184013 60.983064 47.899059 60.100252 47.899059 C 59.21744 47.899059 58.499992 47.184013 58.499992 46.299514 C 58.499992 45.416298 59.21744 44.699969 60.100252 44.699969 C 60.983064 44.699969 61.700512 45.416298 61.700512 46.299514 Z M 61.700512 46.299514 " transform="matrix(3,0,0,3.042857,0,0)"/>
<path style=" stroke:none;fill-rule:nonzero;fill:rgb(0%,0%,0%);fill-opacity:1;" d="M 183.300781 140.882812 C 183.300781 142.566406 181.957031 143.925781 180.300781 143.925781 C 178.644531 143.925781 177.300781 142.566406 177.300781 140.882812 C 177.300781 139.203125 178.644531 137.839844 180.300781 137.839844 C 181.957031 137.839844 183.300781 139.203125 183.300781 140.882812 Z M 183.300781 140.882812 "/>
<path style="fill-rule:nonzero;fill:rgb(99.607843%,74.901961%,6.27451%);fill-opacity:1;stroke-width:0.4;stroke-linecap:round;stroke-linejoin:round;stroke:rgb(0%,0%,0%);stroke-opacity:1;stroke-miterlimit:4;" d="M 65.800772 46.299514 C 65.800772 47.791224 64.591137 49.000511 63.100252 49.000511 C 61.609366 49.000511 60.399731 47.791224 60.399731 46.299514 C 60.399731 44.809087 61.609366 43.5998 63.100252 43.5998 C 64.591137 43.5998 65.800772 44.809087 65.800772 46.299514 Z M 65.800772 46.299514 " transform="matrix(3,0,0,3.042857,0,0)"/>
<path style=" stroke:none;fill-rule:nonzero;fill:rgb(0%,39.607843%,71.764706%);fill-opacity:1;" d="M 193.199219 222.433594 L 203.398438 213.304688 L 193.199219 203.875 L 112.199219 204.175781 L 112.199219 222.433594 Z M 193.199219 222.433594 "/>
<path style=" stroke:none;fill-rule:nonzero;fill:rgb(0%,30.196078%,63.137255%);fill-opacity:1;" d="M 193.199219 222.433594 L 203.398438 213.304688 L 112.199219 213.304688 L 112.199219 222.433594 Z M 193.199219 222.433594 "/>
<path style="fill:none;stroke-width:0.4;stroke-linecap:round;stroke-linejoin:round;stroke:rgb(0%,0%,0%);stroke-opacity:1;stroke-miterlimit:4;" d="M 64.399731 73.100239 L 67.79947 70.100129 L 64.399731 67.001171 L 37.399734 67.100019 L 37.399734 73.100239 Z M 64.399731 73.100239 " transform="matrix(3,0,0,3.042857,0,0)"/>
<path style="fill:none;stroke-width:0.4;stroke-linecap:round;stroke-linejoin:round;stroke:rgb(0%,0%,0%);stroke-opacity:1;stroke-miterlimit:4;" d="M 67.79947 70.100129 L 37.499995 70.100129 " transform="matrix(3,0,0,3.042857,0,0)"/>
<path style="fill-rule:nonzero;fill:rgb(99.607843%,74.901961%,6.27451%);fill-opacity:1;stroke-width:0.4;stroke-linecap:round;stroke-linejoin:round;stroke:rgb(0%,0%,0%);stroke-opacity:1;stroke-miterlimit:4;" d="M 37.749995 70.008983 L 40.621088 67.220691 L 43.3789 70.060333 L 40.509109 72.849909 Z M 37.749995 70.008983 " transform="matrix(3,0,0,3.042857,0,0)"/>
<path style=" stroke:none;fill-rule:nonzero;fill:rgb(0%,0%,0%);fill-opacity:1;" d="M 109.980469 213.246094 L 118.589844 204.722656 L 126.871094 213.394531 L 118.257812 221.886719 Z M 109.980469 213.246094 "/>
<path style="fill-rule:nonzero;fill:rgb(99.607843%,74.901961%,6.27451%);fill-opacity:1;stroke-width:0.4;stroke-linecap:round;stroke-linejoin:round;stroke:rgb(0%,0%,0%);stroke-opacity:1;stroke-miterlimit:4;" d="M 32.100256 67.200151 C 36.999995 67.200151 39.999994 68.4993 39.999994 70.100129 C 39.999994 71.700958 36.901037 72.998823 31.999996 72.899975 C 28.8776 72.724102 25.867184 71.685553 23.299476 69.899865 C 25.920569 68.18735 28.97135 67.252785 32.100256 67.200151 Z M 32.100256 67.200151 " transform="matrix(3,0,0,3.042857,0,0)"/>
<path style="fill:none;stroke-width:0.4;stroke-linecap:round;stroke-linejoin:round;stroke:rgb(0%,0%,0%);stroke-opacity:1;stroke-miterlimit:4;" d="M 34.399735 72.799843 C 33.299475 72.199051 32.700516 71.399278 31.100256 69.699601 C 30.421871 68.776589 29.480465 68.079516 28.399736 67.699528 M 26.199215 68.400452 C 26.970048 68.833074 27.648434 69.410758 28.199215 70.100129 C 28.992183 71.068072 29.861975 71.971828 30.800777 72.799843 M 37.399734 72.399315 C 36.200516 71.700958 35.598953 71.000034 33.999995 69.100092 C 33.298172 68.31059 32.449214 67.663583 31.499996 67.200151 " transform="matrix(3,0,0,3.042857,0,0)"/>
<path style="fill:none;stroke-width:0.4;stroke-linecap:round;stroke-linejoin:round;stroke:rgb(0%,0%,0%);stroke-opacity:1;stroke-miterlimit:4;" d="M 28.399736 67.699528 C 29.480465 68.079516 30.421871 68.776589 31.100256 69.699601 C 32.700516 71.399278 33.299475 72.199051 34.399735 72.799843 M 39.600255 71.599542 C 38.565099 70.774095 37.626297 69.834394 36.800776 68.799696 L 35.399735 67.400415 M 31.499996 67.200151 C 32.449214 67.663583 33.298172 68.31059 33.999995 69.100092 C 35.598953 71.000034 36.200516 71.700958 37.399734 72.399315 " transform="matrix(3,0,0,3.042857,0,0)"/>
<path style="fill-rule:nonzero;fill:rgb(99.607843%,74.901961%,6.27451%);fill-opacity:1;stroke-width:0.4;stroke-linecap:round;stroke-linejoin:round;stroke:rgb(0%,0%,0%);stroke-opacity:1;stroke-miterlimit:4;" d="M 41.200515 65.500474 C 41.200515 67.322107 39.722651 68.799696 37.901036 68.799696 C 36.076818 68.799696 34.598953 67.322107 34.598953 65.500474 C 34.598953 63.677557 36.076818 62.199968 37.901036 62.199968 C 39.722651 62.199968 41.200515 63.677557 41.200515 65.500474 Z M 41.200515 65.500474 " transform="matrix(3,0,0,3.042857,0,0)"/>
<path style="fill-rule:nonzero;fill:rgb(99.607843%,74.901961%,6.27451%);fill-opacity:1;stroke-width:0.4;stroke-linecap:round;stroke-linejoin:round;stroke:rgb(0%,0%,0%);stroke-opacity:1;stroke-miterlimit:4;" d="M 40.200515 65.500474 C 40.200515 66.770097 39.169265 67.800943 37.901036 67.800943 C 36.630203 67.800943 35.598953 66.770097 35.598953 65.500474 C 35.598953 64.230851 36.630203 63.200005 37.901036 63.200005 C 39.169265 63.200005 40.200515 64.230851 40.200515 65.500474 Z M 40.200515 65.500474 " transform="matrix(3,0,0,3.042857,0,0)"/>
<path style=" stroke:none;fill-rule:nonzero;fill:rgb(81.568627%,60.784314%,2.745098%);fill-opacity:1;" d="M 117.601562 199.308594 C 117.601562 201.492188 115.855469 203.265625 113.703125 203.265625 C 111.546875 203.265625 109.796875 201.492188 109.796875 199.308594 C 109.796875 197.121094 111.546875 195.351562 113.703125 195.351562 C 115.855469 195.351562 117.601562 197.121094 117.601562 199.308594 Z M 117.601562 199.308594 "/>
<path style="fill-rule:nonzero;fill:rgb(99.607843%,74.901961%,6.27451%);fill-opacity:1;stroke-width:0.4;stroke-linecap:round;stroke-linejoin:round;stroke:rgb(0%,0%,0%);stroke-opacity:1;stroke-miterlimit:4;" d="M 40.999994 74.699784 C 40.999994 76.522701 39.523432 78.00029 37.699213 78.00029 C 35.877599 78.00029 34.399735 76.522701 34.399735 74.699784 C 34.399735 72.876867 35.877599 71.399278 37.699213 71.399278 C 39.523432 71.399278 40.999994 72.876867 40.999994 74.699784 Z M 40.999994 74.699784 " transform="matrix(3,0,0,3.042857,0,0)"/>
<path style="fill-rule:nonzero;fill:rgb(99.607843%,74.901961%,6.27451%);fill-opacity:1;stroke-width:0.4;stroke-linecap:round;stroke-linejoin:round;stroke:rgb(0%,0%,0%);stroke-opacity:1;stroke-miterlimit:4;" d="M 39.999994 74.699784 C 39.999994 75.970691 38.970047 77.000253 37.699213 77.000253 C 36.429682 77.000253 35.399735 75.970691 35.399735 74.699784 C 35.399735 73.430161 36.429682 72.399315 37.699213 72.399315 C 38.970047 72.399315 39.999994 73.430161 39.999994 74.699784 Z M 39.999994 74.699784 " transform="matrix(3,0,0,3.042857,0,0)"/>
<path style=" stroke:none;fill-rule:nonzero;fill:rgb(81.568627%,60.784314%,2.745098%);fill-opacity:1;" d="M 117 227.300781 C 117 229.488281 115.253906 231.257812 113.097656 231.257812 C 110.945312 231.257812 109.199219 229.488281 109.199219 227.300781 C 109.199219 225.117188 110.945312 223.34375 113.097656 223.34375 C 115.253906 223.34375 117 225.117188 117 227.300781 Z M 117 227.300781 "/>
<path style="fill-rule:nonzero;fill:rgb(99.607843%,74.901961%,6.27451%);fill-opacity:1;stroke-width:0.4;stroke-linecap:round;stroke-linejoin:round;stroke:rgb(0%,0%,0%);stroke-opacity:1;stroke-miterlimit:4;" d="M 23.200409 70.000345 C 23.199879 69.226839 22.796973 68.599591 22.300121 68.600018 C 21.80327 68.600445 21.3999 69.227231 21.400411 69.999435 C 21.399658 70.772958 21.803848 71.400188 22.300699 71.399762 C 22.796285 71.400655 23.200939 70.77385 23.200409 70.000345 Z M 23.200409 70.000345 " transform="matrix(0.0418866,-3.04256,2.999708,0.0424849,-143.983602,277.845152)"/>
<path style="fill-rule:nonzero;fill:rgb(99.607843%,74.901961%,6.27451%);fill-opacity:1;stroke-width:0.4;stroke-linecap:round;stroke-linejoin:round;stroke:rgb(0%,0%,0%);stroke-opacity:1;stroke-miterlimit:4;" d="M 25.399481 71.800218 C 25.400257 71.304065 24.773222 70.90002 24.000338 70.900395 C 23.226152 70.899485 22.60012 71.302797 22.599363 71.800252 C 22.599889 72.297689 23.226906 72.700432 23.99979 72.700057 C 24.773958 72.699665 25.400008 72.297655 25.399481 71.800218 Z M 25.399481 71.800218 " transform="matrix(0.0418866,-3.04256,2.999708,0.0424849,-144.295121,288.479026)"/>
<path style="fill-rule:nonzero;fill:rgb(99.607843%,74.901961%,6.27451%);fill-opacity:1;stroke-width:0.4;stroke-linecap:round;stroke-linejoin:round;stroke:rgb(0%,0%,0%);stroke-opacity:1;stroke-miterlimit:4;" d="M 25.399589 68.200357 C 25.400346 67.702902 24.773329 67.300159 23.999143 67.29925 C 23.227543 67.299607 22.600227 67.702936 22.600754 68.200373 C 22.599979 68.696526 23.227013 69.100571 23.999897 69.100196 C 24.772782 69.099822 25.400097 68.696492 25.399589 68.200357 Z M 25.399589 68.200357 " transform="matrix(0.0418866,-3.04256,2.999708,0.0424849,-133.465345,277.526823)"/>
<path style="fill-rule:nonzero;fill:rgb(99.607843%,74.901961%,6.27451%);fill-opacity:1;stroke-width:0.4;stroke-linecap:round;stroke-linejoin:round;stroke:rgb(0%,0%,0%);stroke-opacity:1;stroke-miterlimit:4;" d="M 25.100257 69.999997 C 25.100257 70.553291 24.65234 71.000034 24.100257 71.000034 C 23.548174 71.000034 23.100257 70.553291 23.100257 69.999997 C 23.100257 69.446703 23.548174 68.99996 24.100257 68.99996 C 24.65234 68.99996 25.100257 69.446703 25.100257 69.999997 Z M 25.100257 69.999997 " transform="matrix(3,0,0,3.042857,0,0)"/>
<path style=" stroke:none;fill-rule:nonzero;fill:rgb(81.568627%,60.784314%,2.745098%);fill-opacity:1;" d="M 70.203125 213 C 70.203125 213.304688 70.5 213.914062 70.5 214.21875 C 70.816406 213.261719 71.621094 212.5625 72.597656 212.390625 C 73.324219 212.296875 74.039062 212.65625 74.398438 213.304688 C 74.398438 212.128906 73.460938 211.175781 72.300781 211.175781 C 71.140625 211.175781 70.203125 212.128906 70.203125 213.304688 Z M 70.203125 213 "/>
<path style="fill-rule:nonzero;fill:rgb(99.607843%,74.901961%,6.27451%);fill-opacity:1;stroke-width:0.4;stroke-linecap:round;stroke-linejoin:round;stroke:rgb(0%,0%,0%);stroke-opacity:1;stroke-miterlimit:4;" d="M 36.598953 70.100129 C 36.598953 70.983345 35.882807 71.700958 34.999995 71.700958 C 34.115881 71.700958 33.399735 70.983345 33.399735 70.100129 C 33.399735 69.216913 34.115881 68.4993 34.999995 68.4993 C 35.882807 68.4993 36.598953 69.216913 36.598953 70.100129 Z M 36.598953 70.100129 " transform="matrix(3,0,0,3.042857,0,0)"/>
<path style=" stroke:none;fill-rule:nonzero;fill:rgb(0%,0%,0%);fill-opacity:1;" d="M 108 213.304688 C 108 214.984375 106.65625 216.347656 105 216.347656 C 103.339844 216.347656 102 214.984375 102 213.304688 C 102 211.625 103.339844 210.261719 105 210.261719 C 106.65625 210.261719 108 211.625 108 213.304688 Z M 108 213.304688 "/>
<path style="fill-rule:nonzero;fill:rgb(99.607843%,74.901961%,6.27451%);fill-opacity:1;stroke-width:0.4;stroke-linecap:round;stroke-linejoin:round;stroke:rgb(0%,0%,0%);stroke-opacity:1;stroke-miterlimit:4;" d="M 39.299474 72.799843 C 39.299474 73.684342 38.583328 74.400672 37.699213 74.400672 C 36.816401 74.400672 36.100255 73.684342 36.100255 72.799843 C 36.100255 71.916627 36.816401 71.200298 37.699213 71.200298 C 38.583328 71.200298 39.299474 71.916627 39.299474 72.799843 Z M 39.299474 72.799843 " transform="matrix(3,0,0,3.042857,0,0)"/>
<path style=" stroke:none;fill-rule:nonzero;fill:rgb(0%,0%,0%);fill-opacity:1;" d="M 116.097656 221.519531 C 116.097656 223.199219 114.757812 224.566406 113.097656 224.566406 C 111.441406 224.566406 110.097656 223.199219 110.097656 221.519531 C 110.097656 219.839844 111.441406 218.476562 113.097656 218.476562 C 114.757812 218.476562 116.097656 219.839844 116.097656 221.519531 Z M 116.097656 221.519531 "/>
<path style="fill-rule:nonzero;fill:rgb(99.607843%,74.901961%,6.27451%);fill-opacity:1;stroke-width:0.4;stroke-linecap:round;stroke-linejoin:round;stroke:rgb(0%,0%,0%);stroke-opacity:1;stroke-miterlimit:4;" d="M 39.299474 67.200151 C 39.299474 68.083367 38.583328 68.799696 37.699213 68.799696 C 36.816401 68.799696 36.100255 68.083367 36.100255 67.200151 C 36.100255 66.315651 36.816401 65.599322 37.699213 65.599322 C 38.583328 65.599322 39.299474 66.315651 39.299474 67.200151 Z M 39.299474 67.200151 " transform="matrix(3,0,0,3.042857,0,0)"/>
<path style=" stroke:none;fill-rule:nonzero;fill:rgb(0%,0%,0%);fill-opacity:1;" d="M 116.097656 204.480469 C 116.097656 206.160156 114.757812 207.523438 113.097656 207.523438 C 111.441406 207.523438 110.097656 206.160156 110.097656 204.480469 C 110.097656 202.800781 111.441406 201.433594 113.097656 201.433594 C 114.757812 201.433594 116.097656 202.800781 116.097656 204.480469 Z M 116.097656 204.480469 "/>
<path style="fill-rule:nonzero;fill:rgb(99.607843%,74.901961%,6.27451%);fill-opacity:1;stroke-width:0.4;stroke-linecap:round;stroke-linejoin:round;stroke:rgb(0%,0%,0%);stroke-opacity:1;stroke-miterlimit:4;" d="M 40.399734 70.100129 C 40.399734 71.59184 39.191401 72.799843 37.699213 72.799843 C 36.208328 72.799843 34.999995 71.59184 34.999995 70.100129 C 34.999995 68.608418 36.208328 67.400415 37.699213 67.400415 C 39.191401 67.400415 40.399734 68.608418 40.399734 70.100129 Z M 40.399734 70.100129 " transform="matrix(3,0,0,3.042857,0,0)"/>
<path style=" stroke:none;fill-rule:nonzero;fill:rgb(0%,0%,0%);fill-opacity:1;" d="M 128.097656 113.191406 C 128.097656 112.28125 128.699219 111.367188 126.601562 109.542969 C 124.5 107.71875 126.300781 108.632812 126 108.023438 C 125.699219 107.414062 126.601562 106.195312 127.800781 106.195312 L 129.902344 106.195312 C 130.375 106.386719 130.910156 106.363281 131.371094 106.132812 C 131.828125 105.898438 132.167969 105.476562 132.300781 104.976562 C 132.648438 104.425781 133.234375 104.070312 133.875 104.007812 C 134.523438 103.949219 135.160156 104.195312 135.601562 104.675781 C 136.511719 105.136719 137.09375 106.078125 137.097656 107.109375 C 136.800781 108.023438 137.398438 108.324219 138 108.632812 C 138.855469 109.292969 139.566406 110.121094 140.101562 111.066406 C 140.699219 111.675781 140.398438 112.585938 139.5 112.890625 L 137.097656 113.5 L 136.199219 114.109375 L 134.398438 115.933594 C 133.5 117.148438 133.800781 118.367188 135 118.671875 C 137.058594 119.40625 138.480469 121.328125 138.601562 123.539062 C 138.902344 124.757812 138.601562 125.976562 138.902344 126.886719 C 139.082031 128.121094 139.601562 129.28125 140.398438 130.234375 C 141.078125 130.964844 141.3125 132.019531 141 132.972656 C 140.699219 133.277344 140.699219 133.582031 140.699219 134.191406 C 140.878906 135.933594 141.179688 137.660156 141.601562 139.363281 C 141.757812 140.511719 142.0625 141.640625 142.5 142.710938 C 142.878906 143.355469 143.089844 144.085938 143.101562 144.839844 C 142.800781 146.058594 143.699219 146.667969 144.296875 147.578125 L 147.902344 152.140625 L 151.203125 155.792969 L 152.398438 157.316406 L 152.699219 157.316406 C 153.597656 157.617188 153.902344 158.53125 154.5 159.445312 C 154.832031 160.191406 155.234375 160.90625 155.699219 161.574219 C 156.019531 162.140625 156.019531 162.835938 155.699219 163.402344 L 153.597656 166.75 C 153.417969 167.050781 153.117188 167.265625 152.769531 167.320312 C 152.421875 167.378906 152.066406 167.28125 151.800781 167.050781 L 148.199219 164.925781 L 146.398438 164.007812 C 145.800781 163.707031 145.5 163.097656 146.101562 162.183594 C 146.792969 160.898438 147.597656 159.675781 148.5 158.53125 L 149.699219 157.925781 C 150.296875 157.617188 150.296875 157.316406 150 156.707031 L 149.101562 155.492188 L 147.296875 153.664062 L 144.601562 150.316406 L 142.5 147.882812 C 141.929688 146.945312 141.09375 146.199219 140.101562 145.75 L 139.199219 144.839844 C 138.902344 143.625 138 143.015625 137.097656 142.101562 C 136.023438 141.164062 135.023438 140.144531 134.097656 139.058594 L 132 136.925781 L 131.097656 136.925781 C 130.800781 136.925781 130.800781 137.234375 130.5 137.839844 C 130.308594 138.5625 130.414062 139.332031 130.800781 139.972656 C 131.621094 141.429688 132.324219 142.960938 132.902344 144.535156 C 133.234375 145.28125 133.636719 145.996094 134.097656 146.667969 C 134.519531 147.292969 134.632812 148.074219 134.398438 148.796875 C 134.097656 149.101562 134.097656 150.015625 133.800781 150.625 C 133.742188 151.269531 133.53125 151.894531 133.199219 152.449219 C 132.609375 154.316406 132.304688 156.265625 132.300781 158.226562 C 132.226562 160.003906 133.011719 161.707031 134.398438 162.792969 L 137.097656 165.226562 C 137.398438 165.226562 137.699219 165.835938 137.699219 166.140625 C 137.699219 166.441406 137.398438 167.359375 136.5 167.050781 C 134.664062 167.042969 132.839844 166.734375 131.097656 166.140625 L 129.300781 166.140625 C 128.449219 165.652344 127.976562 164.691406 128.097656 163.707031 C 128.054688 163.082031 128.15625 162.457031 128.398438 161.882812 C 128.601562 160.453125 128.5 159 128.097656 157.617188 C 128.097656 156.097656 127.5 154.882812 127.5 153.359375 C 127.765625 152.199219 128.167969 151.074219 128.699219 150.015625 C 128.707031 149.585938 128.601562 149.167969 128.398438 148.796875 L 126.902344 146.96875 C 126.601562 146.667969 126.601562 146.058594 126.300781 145.75 C 126.300781 145.582031 126.167969 145.449219 126 145.449219 C 125.832031 145.449219 125.699219 145.582031 125.699219 145.75 C 125.699219 146.058594 125.398438 146.667969 125.398438 146.96875 C 125.40625 147.847656 124.949219 148.660156 124.199219 149.101562 L 123.601562 149.707031 C 123 150.925781 121.800781 151.535156 120.898438 152.449219 C 118.984375 153.316406 117.332031 154.679688 116.097656 156.402344 C 115.765625 157.066406 115.5625 157.789062 115.5 158.53125 C 115.222656 160.394531 115.773438 162.289062 117 163.707031 C 117.351562 164.152344 117.351562 164.78125 117 165.226562 C 116.398438 165.835938 115.800781 165.835938 115.5 165.53125 L 112.800781 163.707031 L 110.097656 162.183594 C 109.5 161.882812 108.898438 161.574219 108.898438 160.664062 C 108.949219 159.800781 109.390625 159.011719 110.097656 158.53125 L 111 157.316406 L 111.898438 156.097656 L 114 152.449219 C 114.734375 151.292969 115.648438 150.269531 116.703125 149.40625 C 117.929688 148.777344 118.644531 147.445312 118.5 146.058594 C 118.5 143.925781 118.800781 142.101562 118.800781 140.273438 L 118.199219 139.363281 L 116.703125 138.144531 C 116.097656 137.535156 116.097656 137.234375 116.097656 136.925781 C 116.097656 136.625 116.703125 136.015625 116.703125 135.40625 L 118.199219 131.148438 C 118.5 129.929688 118.199219 129.324219 117 128.410156 C 115.59375 127.734375 114.671875 126.328125 114.601562 124.757812 C 114.601562 124.453125 114.898438 123.84375 114.898438 123.539062 L 117.898438 120.5 C 119.238281 118.523438 120.976562 116.863281 123 115.625 C 123.84375 115.226562 124.792969 115.121094 125.699219 115.324219 L 126.300781 115.324219 C 128.398438 115.324219 128.097656 114.410156 128.097656 113.191406 Z M 133.5 128.105469 L 132.902344 128.714844 C 132.601562 129.929688 132 130.84375 131.699219 132.058594 C 131.507812 132.78125 131.617188 133.550781 132 134.191406 L 136.199219 139.058594 L 136.800781 139.058594 L 136.800781 138.449219 L 135.902344 134.800781 C 135.902344 134.492188 135.601562 134.191406 135.300781 134.492188 C 135 134.800781 134.097656 134.191406 134.097656 133.582031 L 134.097656 131.449219 C 134.132812 130.304688 133.925781 129.164062 133.5 128.105469 Z M 133.199219 312.5 C 133.199219 313.71875 132.601562 314.324219 134.398438 316.152344 C 136.199219 317.976562 135 317.066406 135 317.675781 C 135 318.28125 134.699219 319.5 133.5 319.5 L 131.398438 319.5 C 130.351562 319.398438 129.328125 319.859375 128.699219 320.71875 C 128.097656 322.238281 126.300781 321.933594 125.398438 321.324219 C 124.554688 320.691406 124.097656 319.648438 124.199219 318.585938 C 124.25 317.9375 123.890625 317.324219 123.300781 317.066406 C 122.355469 316.417969 121.539062 315.589844 120.898438 314.632812 C 120.601562 314.324219 120.898438 313.109375 121.800781 312.808594 L 123.902344 312.199219 L 125.097656 311.589844 L 126.902344 309.765625 C 127.394531 309.410156 127.628906 308.789062 127.496094 308.191406 C 127.363281 307.59375 126.894531 307.132812 126.300781 307.023438 C 123.601562 306.417969 123 304.285156 122.398438 302.15625 L 122.398438 298.503906 C 122.21875 297.269531 121.695312 296.109375 120.898438 295.15625 C 120.097656 294.632812 119.832031 293.570312 120.300781 292.722656 L 120.300781 291.199219 C 120.230469 289.464844 120.03125 287.734375 119.703125 286.027344 C 119.429688 284.96875 119.027344 283.945312 118.5 282.984375 C 118.101562 282.242188 117.992188 281.371094 118.199219 280.550781 C 118.5 279.332031 117.601562 278.726562 117 277.816406 L 113.398438 273.550781 L 110.097656 269.902344 C 109.546875 269.542969 109.125 269.003906 108.898438 268.382812 L 108.601562 268.382812 C 107.757812 267.78125 107.128906 266.933594 106.796875 265.945312 L 105.300781 263.816406 C 104.984375 263.207031 105.101562 262.457031 105.601562 261.992188 L 107.402344 258.640625 C 107.960938 258.089844 108.808594 257.964844 109.5 258.339844 L 113.097656 260.46875 L 114.601562 261.382812 C 115.5 261.683594 115.800781 262.292969 115.199219 263.207031 L 112.5 266.859375 L 111.300781 267.46875 C 111 267.773438 110.703125 268.074219 111 268.683594 L 112.199219 269.902344 L 114 272.03125 L 116.703125 275.074219 L 118.800781 277.816406 C 119.300781 278.746094 120.175781 279.414062 121.199219 279.640625 C 121.5 279.941406 121.800781 280.25 121.800781 280.550781 C 122.253906 281.636719 122.976562 282.582031 123.902344 283.289062 L 127.199219 286.332031 L 129 288.765625 C 129.300781 289.074219 129.601562 289.375 129.902344 289.074219 L 130.800781 288.464844 C 130.921875 287.601562 130.703125 286.730469 130.199219 286.027344 C 129.621094 284.453125 128.921875 282.921875 128.097656 281.464844 L 127.199219 279.332031 C 126.703125 278.867188 126.582031 278.117188 126.902344 277.507812 C 127.140625 276.929688 127.242188 276.308594 127.199219 275.683594 C 127.5 275.074219 127.5 274.160156 127.800781 273.550781 C 128.515625 271.710938 128.921875 269.753906 129 267.773438 C 128.945312 266.023438 128.1875 264.375 126.902344 263.207031 L 123.902344 261.074219 C 123.601562 260.773438 123.601562 260.46875 123.601562 259.859375 C 123.601562 259.25 123.902344 258.949219 124.5 258.949219 L 129.902344 259.859375 L 131.699219 260.46875 C 132.601562 260.46875 133.199219 261.683594 133.199219 262.597656 C 133.199219 263.511719 132.902344 263.816406 132.902344 264.425781 C 132.601562 265.828125 132.601562 267.277344 132.902344 268.683594 C 133.246094 270.179688 133.449219 271.710938 133.5 273.25 C 133.339844 274.300781 133.035156 275.324219 132.601562 276.292969 C 132.300781 276.59375 132.300781 276.898438 132.601562 277.507812 L 134.398438 279.332031 C 134.398438 279.640625 134.699219 280.25 134.699219 280.550781 L 135.300781 280.550781 C 135.601562 280.25 135.601562 279.941406 135.601562 279.332031 C 135.734375 278.582031 136.167969 277.921875 136.800781 277.507812 L 137.398438 276.59375 C 138 275.375 139.199219 274.769531 140.398438 273.859375 C 142.144531 272.988281 143.683594 271.746094 144.902344 270.207031 C 145.28125 269.429688 145.585938 268.609375 145.800781 267.773438 C 145.808594 265.9375 145.285156 264.136719 144.296875 262.597656 C 144.03125 262.125 144.03125 261.546875 144.296875 261.074219 L 145.800781 261.074219 C 146.699219 261.382812 147.296875 262.292969 148.199219 262.902344 L 148.5 262.902344 L 151.203125 264.117188 C 151.800781 264.425781 152.398438 264.726562 152.398438 265.640625 C 152.398438 266.554688 152.101562 267.164062 151.203125 267.773438 L 150 268.988281 C 149.6875 269.328125 149.480469 269.75 149.398438 270.207031 C 148.589844 271.355469 147.886719 272.578125 147.296875 273.859375 C 146.457031 275.019531 145.445312 276.042969 144.296875 276.898438 C 143.125 277.726562 142.449219 279.101562 142.5 280.550781 L 142.5 286.027344 C 142.5 286.636719 142.5 286.636719 142.800781 286.941406 L 144.601562 288.464844 C 144.902344 288.765625 145.199219 289.074219 144.902344 289.679688 C 144.601562 290.289062 144.601562 290.59375 144.601562 290.898438 C 143.964844 292.371094 143.464844 293.898438 143.101562 295.460938 C 142.800781 296.675781 143.101562 297.285156 144.296875 297.894531 C 145.546875 298.691406 146.332031 300.054688 146.398438 301.546875 C 146.445312 301.976562 146.335938 302.40625 146.101562 302.765625 L 143.398438 306.109375 C 141.902344 307.597656 140.179688 308.824219 138.300781 309.765625 C 137.496094 310.296875 136.496094 310.410156 135.601562 310.066406 L 135 310.066406 C 132.902344 310.375 132.902344 311.589844 133.199219 312.5 Z M 127.800781 297.894531 L 128.398438 297.285156 C 128.699219 296.070312 129.300781 294.851562 129.601562 293.632812 C 129.902344 292.417969 129.601562 292.117188 129 291.808594 C 127.691406 290.011719 126.289062 288.285156 124.800781 286.636719 L 124.199219 286.636719 L 124.199219 287.550781 L 125.097656 290.898438 C 125.097656 291.199219 125.097656 291.507812 125.699219 291.507812 C 126.300781 291.507812 126.902344 291.507812 126.902344 292.117188 L 126.902344 294.242188 C 126.957031 295.507812 127.261719 296.75 127.800781 297.894531 Z M 127.800781 297.894531 "/>
</g>
</svg>
