<?xml version="1.0" encoding="UTF-8"?>
<svg xmlns="http://www.w3.org/2000/svg" xmlns:xlink="http://www.w3.org/1999/xlink" width="261px" height="420px" viewBox="0 0 261 426" version="1.1">
<g id="surface1">
<path style=" stroke:none;fill-rule:nonzero;fill:rgb(100%,100%,100%);fill-opacity:1;" d="M 18 0 L 243 0 C 252.941406 0 261 8.175781 261 18.257812 L 261 407.742188 C 261 417.824219 252.941406 426 243 426 L 18 426 C 8.058594 426 0 417.824219 0 407.742188 L 0 18.257812 C 0 8.175781 8.058594 0 18 0 Z M 18 0 "/>
<path style=" stroke:none;fill-rule:nonzero;fill:rgb(0%,39.607843%,71.764706%);fill-opacity:1;" d="M 72.597656 181.964844 L 63.296875 192.308594 L 54.296875 181.964844 L 54.296875 99.5 L 72.597656 99.5 Z M 72.597656 181.964844 "/>
<path style=" stroke:none;fill-rule:nonzero;fill:rgb(0%,30.196078%,63.137255%);fill-opacity:1;" d="M 72.597656 181.964844 L 63.296875 192.308594 L 63.296875 99.5 L 72.597656 99.5 Z M 72.597656 181.964844 "/>
<path style="fill:none;stroke-width:0.4;stroke-linecap:round;stroke-linejoin:round;stroke:rgb(0%,0%,0%);stroke-opacity:1;stroke-miterlimit:4;" d="M 24.199215 59.80065 L 21.098955 63.200005 L 18.098956 59.80065 L 18.098956 32.699529 L 24.199215 32.699529 Z M 24.199215 59.80065 " transform="matrix(3,0,0,3.042857,0,0)"/>
<path style="fill-rule:nonzero;fill:rgb(0%,39.607843%,71.764706%);fill-opacity:1;stroke-width:0.4;stroke-linecap:round;stroke-linejoin:round;stroke:rgb(0%,0%,0%);stroke-opacity:1;stroke-miterlimit:4;" d="M 21.098955 63.200005 L 21.199216 32.800945 " transform="matrix(3,0,0,3.042857,0,0)"/>
<path style="fill-rule:nonzero;fill:rgb(99.607843%,74.901961%,6.27451%);fill-opacity:1;stroke-width:0.4;stroke-linecap:round;stroke-linejoin:round;stroke:rgb(0%,0%,0%);stroke-opacity:1;stroke-miterlimit:4;" d="M 21.110674 33.029451 L 23.910153 35.889633 L 21.061195 38.659953 L 18.269529 35.790785 Z M 21.110674 33.029451 " transform="matrix(3,0,0,3.042857,0,0)"/>
<path style=" stroke:none;fill-rule:nonzero;fill:rgb(0%,0%,0%);fill-opacity:1;" d="M 63.808594 97.464844 L 72.179688 106.195312 L 63.660156 114.59375 L 55.289062 105.863281 Z M 63.808594 97.464844 "/>
<path style="fill-rule:nonzero;fill:rgb(99.607843%,74.901961%,6.27451%);fill-opacity:1;stroke-width:0.4;stroke-linecap:round;stroke-linejoin:round;stroke:rgb(0%,0%,0%);stroke-opacity:1;stroke-miterlimit:4;" d="M 24.100257 27.499082 C 23.999997 32.300285 22.700518 35.400527 21.098955 35.300395 C 19.499997 35.200263 18.300779 32.200153 18.300779 27.400234 C 18.462237 24.244791 19.501299 21.197182 21.300778 18.600168 C 23.029945 21.253667 23.999997 24.332085 24.100257 27.499082 Z M 24.100257 27.499082 " transform="matrix(3,0,0,3.042857,0,0)"/>
<path style="fill:none;stroke-width:0.4;stroke-linecap:round;stroke-linejoin:round;stroke:rgb(0%,0%,0%);stroke-opacity:1;stroke-miterlimit:4;" d="M 18.399737 29.700703 C 18.999997 28.599251 19.799476 27.999742 21.600257 26.400197 C 22.459632 25.70184 23.14583 24.810922 23.600257 23.799331 M 22.799476 21.500146 C 22.372393 22.302486 21.796872 23.014964 21.098955 23.599067 C 20.13932 24.364179 19.236976 25.20118 18.399737 26.099801 M 18.799477 32.699529 C 19.70182 31.39011 20.816403 30.239875 22.098955 29.300175 C 22.912757 28.659586 23.563799 27.83799 23.999997 26.899573 " transform="matrix(3,0,0,3.042857,0,0)"/>
<path style="fill:none;stroke-width:0.4;stroke-linecap:round;stroke-linejoin:round;stroke:rgb(0%,0%,0%);stroke-opacity:1;stroke-miterlimit:4;" d="M 23.600257 23.799331 C 23.14583 24.810922 22.459632 25.70184 21.600257 26.400197 C 19.799476 27.999742 18.999997 28.599251 18.399737 29.700703 M 19.600258 34.899866 C 20.436195 33.903681 21.373695 32.998641 22.401039 32.200153 L 23.799476 30.70074 M 23.999997 26.899573 C 23.563799 27.83799 22.912757 28.659586 22.098955 29.300175 C 20.816403 30.239875 19.70182 31.39011 18.799477 32.699529 " transform="matrix(3,0,0,3.042857,0,0)"/>
<path style="fill-rule:nonzero;fill:rgb(99.607843%,74.901961%,6.27451%);fill-opacity:1;stroke-width:0.4;stroke-linecap:round;stroke-linejoin:round;stroke:rgb(0%,0%,0%);stroke-opacity:1;stroke-miterlimit:4;" d="M 28.999996 33.200189 C 28.999996 35.023106 27.522132 36.500695 25.700517 36.500695 C 23.877601 36.500695 22.401039 35.023106 22.401039 33.200189 C 22.401039 31.377273 23.877601 29.899683 25.700517 29.899683 C 27.522132 29.899683 28.999996 31.377273 28.999996 33.200189 Z M 28.999996 33.200189 " transform="matrix(3,0,0,3.042857,0,0)"/>
<path style="fill-rule:nonzero;fill:rgb(99.607843%,74.901961%,6.27451%);fill-opacity:1;stroke-width:0.4;stroke-linecap:round;stroke-linejoin:round;stroke:rgb(0%,0%,0%);stroke-opacity:1;stroke-miterlimit:4;" d="M 27.999996 33.200189 C 27.999996 34.469812 26.970048 35.500659 25.700517 35.500659 C 24.429684 35.500659 23.401038 34.469812 23.401038 33.200189 C 23.401038 31.929283 24.429684 30.89972 25.700517 30.89972 C 26.970048 30.89972 27.999996 31.929283 27.999996 33.200189 Z M 27.999996 33.200189 " transform="matrix(3,0,0,3.042857,0,0)"/>
<path style=" stroke:none;fill-rule:nonzero;fill:rgb(81.568627%,60.784314%,2.745098%);fill-opacity:1;" d="M 81 101.023438 C 81 103.207031 79.253906 104.976562 77.101562 104.976562 C 74.945312 104.976562 73.203125 103.207031 73.203125 101.023438 C 73.203125 98.835938 74.945312 97.066406 77.101562 97.066406 C 79.253906 97.066406 81 98.835938 81 101.023438 Z M 81 101.023438 "/>
<path style="fill-rule:nonzero;fill:rgb(99.607843%,74.901961%,6.27451%);fill-opacity:1;stroke-width:0.4;stroke-linecap:round;stroke-linejoin:round;stroke:rgb(0%,0%,0%);stroke-opacity:1;stroke-miterlimit:4;" d="M 19.899737 32.999925 C 19.899737 34.822842 18.421872 36.300431 16.600258 36.300431 C 14.777342 36.300431 13.300779 34.822842 13.300779 32.999925 C 13.300779 31.178292 14.777342 29.700703 16.600258 29.700703 C 18.421872 29.700703 19.899737 31.178292 19.899737 32.999925 Z M 19.899737 32.999925 " transform="matrix(3,0,0,3.042857,0,0)"/>
<path style="fill-rule:nonzero;fill:rgb(99.607843%,74.901961%,6.27451%);fill-opacity:1;stroke-width:0.4;stroke-linecap:round;stroke-linejoin:round;stroke:rgb(0%,0%,0%);stroke-opacity:1;stroke-miterlimit:4;" d="M 18.899737 32.999925 C 18.899737 34.270832 17.869789 35.300395 16.600258 35.300395 C 15.329425 35.300395 14.300779 34.270832 14.300779 32.999925 C 14.300779 31.729019 15.329425 30.70074 16.600258 30.70074 C 17.869789 30.70074 18.899737 31.729019 18.899737 32.999925 Z M 18.899737 32.999925 " transform="matrix(3,0,0,3.042857,0,0)"/>
<path style=" stroke:none;fill-rule:nonzero;fill:rgb(81.568627%,60.784314%,2.745098%);fill-opacity:1;" d="M 53.699219 100.414062 C 53.699219 102.597656 51.953125 104.367188 49.800781 104.367188 C 47.648438 104.367188 45.902344 102.597656 45.902344 100.414062 C 45.902344 98.230469 47.648438 96.457031 49.800781 96.457031 C 51.953125 96.457031 53.699219 98.230469 53.699219 100.414062 Z M 53.699219 100.414062 "/>
<path style="fill-rule:nonzero;fill:rgb(99.607843%,74.901961%,6.27451%);fill-opacity:1;stroke-width:0.4;stroke-linecap:round;stroke-linejoin:round;stroke:rgb(0%,0%,0%);stroke-opacity:1;stroke-miterlimit:4;" d="M 22.699635 17.599936 C 22.70041 17.103783 22.073376 16.699738 21.300491 16.700113 C 20.526324 16.700505 19.900292 17.103817 19.9008 17.599952 C 19.900043 18.097407 20.527059 18.50015 21.299944 18.499775 C 22.072828 18.499401 22.700162 18.097373 22.699635 17.599936 Z M 22.699635 17.599936 " transform="matrix(0.0418866,-3.04256,2.999708,0.0424849,10.184214,117.461806)"/>
<path style="fill-rule:nonzero;fill:rgb(99.607843%,74.901961%,6.27451%);fill-opacity:1;stroke-width:0.4;stroke-linecap:round;stroke-linejoin:round;stroke:rgb(0%,0%,0%);stroke-opacity:1;stroke-miterlimit:4;" d="M 20.299575 19.300188 C 20.300329 18.526664 19.896157 17.900736 19.400571 17.899843 C 18.903701 17.898968 18.499047 18.525772 18.499577 19.299278 C 18.500125 20.074085 18.903014 20.700032 19.399883 20.700907 C 19.896717 20.699178 20.300087 20.072391 20.299575 19.300188 Z M 20.299575 19.300188 " transform="matrix(0.0418866,-3.04256,2.999708,0.0424849,-0.299887,117.145837)"/>
<path style="fill-rule:nonzero;fill:rgb(99.607843%,74.901961%,6.27451%);fill-opacity:1;stroke-width:0.4;stroke-linecap:round;stroke-linejoin:round;stroke:rgb(0%,0%,0%);stroke-opacity:1;stroke-miterlimit:4;" d="M 24.00032 19.300582 C 24.001073 18.527059 23.596883 17.899829 23.100032 17.900255 C 22.603162 17.89938 22.199792 18.526167 22.200322 19.299672 C 22.200852 20.073178 22.602475 20.700444 23.10061 20.699999 C 23.596178 20.69959 24.000831 20.072786 24.00032 19.300582 Z M 24.00032 19.300582 " transform="matrix(0.0418866,-3.04256,2.999708,0.0424849,10.200168,128.128215)"/>
<path style="fill-rule:nonzero;fill:rgb(99.607843%,74.901961%,6.27451%);fill-opacity:1;stroke-width:0.4;stroke-linecap:round;stroke-linejoin:round;stroke:rgb(0%,0%,0%);stroke-opacity:1;stroke-miterlimit:4;" d="M 22.199216 19.39994 C 22.199216 19.95195 21.752601 20.399977 21.199216 20.399977 C 20.647133 20.399977 20.200518 19.95195 20.200518 19.39994 C 20.200518 18.847931 20.647133 18.399904 21.199216 18.399904 C 21.752601 18.399904 22.199216 18.847931 22.199216 19.39994 Z M 22.199216 19.39994 " transform="matrix(3,0,0,3.042857,0,0)"/>
<path style=" stroke:none;fill-rule:nonzero;fill:rgb(81.568627%,60.784314%,2.745098%);fill-opacity:1;" d="M 63.597656 56.902344 L 62.398438 57.507812 C 63.597656 57.507812 64.203125 58.425781 64.203125 59.640625 C 64.253906 60.289062 63.890625 60.902344 63.296875 61.160156 L 63.597656 61.160156 C 64.761719 61.160156 65.699219 60.210938 65.699219 59.03125 C 65.566406 57.914062 64.703125 57.035156 63.597656 56.902344 Z M 63.597656 56.902344 "/>
<path style="fill-rule:nonzero;fill:rgb(99.607843%,74.901961%,6.27451%);fill-opacity:1;stroke-width:0.4;stroke-linecap:round;stroke-linejoin:round;stroke:rgb(0%,0%,0%);stroke-opacity:1;stroke-miterlimit:4;" d="M 22.700518 30.300211 C 22.700518 31.183427 21.984372 31.899757 21.098955 31.899757 C 20.216143 31.899757 19.499997 31.183427 19.499997 30.300211 C 19.499997 29.415712 20.216143 28.700666 21.098955 28.700666 C 21.984372 28.700666 22.700518 29.415712 22.700518 30.300211 Z M 22.700518 30.300211 " transform="matrix(3,0,0,3.042857,0,0)"/>
<path style=" stroke:none;fill-rule:nonzero;fill:rgb(0%,0%,0%);fill-opacity:1;" d="M 66.296875 92.199219 C 66.296875 93.882812 64.957031 95.242188 63.296875 95.242188 C 61.644531 95.242188 60.296875 93.882812 60.296875 92.199219 C 60.296875 90.515625 61.644531 89.15625 63.296875 89.15625 C 64.957031 89.15625 66.296875 90.515625 66.296875 92.199219 Z M 66.296875 92.199219 "/>
<path style="fill-rule:nonzero;fill:rgb(99.607843%,74.901961%,6.27451%);fill-opacity:1;stroke-width:0.4;stroke-linecap:round;stroke-linejoin:round;stroke:rgb(0%,0%,0%);stroke-opacity:1;stroke-miterlimit:4;" d="M 19.999997 33.100057 C 19.999997 33.984557 19.283851 34.699602 18.399737 34.699602 C 17.515623 34.699602 16.799477 33.984557 16.799477 33.100057 C 16.799477 32.216841 17.515623 31.500512 18.399737 31.500512 C 19.283851 31.500512 19.999997 32.216841 19.999997 33.100057 Z M 19.999997 33.100057 " transform="matrix(3,0,0,3.042857,0,0)"/>
<path style=" stroke:none;fill-rule:nonzero;fill:rgb(0%,0%,0%);fill-opacity:1;" d="M 58.199219 100.71875 C 58.199219 102.398438 56.855469 103.761719 55.199219 103.761719 C 53.542969 103.761719 52.199219 102.398438 52.199219 100.71875 C 52.199219 99.039062 53.542969 97.675781 55.199219 97.675781 C 56.855469 97.675781 58.199219 99.039062 58.199219 100.71875 Z M 58.199219 100.71875 "/>
<path style="fill-rule:nonzero;fill:rgb(99.607843%,74.901961%,6.27451%);fill-opacity:1;stroke-width:0.4;stroke-linecap:round;stroke-linejoin:round;stroke:rgb(0%,0%,0%);stroke-opacity:1;stroke-miterlimit:4;" d="M 25.700517 33.100057 C 25.700517 33.984557 24.984372 34.699602 24.100257 34.699602 C 23.216143 34.699602 22.499997 33.984557 22.499997 33.100057 C 22.499997 32.216841 23.216143 31.500512 24.100257 31.500512 C 24.984372 31.500512 25.700517 32.216841 25.700517 33.100057 Z M 25.700517 33.100057 " transform="matrix(3,0,0,3.042857,0,0)"/>
<path style=" stroke:none;fill-rule:nonzero;fill:rgb(0%,0%,0%);fill-opacity:1;" d="M 75.300781 100.71875 C 75.300781 102.398438 73.957031 103.761719 72.300781 103.761719 C 70.644531 103.761719 69.300781 102.398438 69.300781 100.71875 C 69.300781 99.039062 70.644531 97.675781 72.300781 97.675781 C 73.957031 97.675781 75.300781 99.039062 75.300781 100.71875 Z M 75.300781 100.71875 "/>
<path style="fill-rule:nonzero;fill:rgb(99.607843%,74.901961%,6.27451%);fill-opacity:1;stroke-width:0.4;stroke-linecap:round;stroke-linejoin:round;stroke:rgb(0%,0%,0%);stroke-opacity:1;stroke-miterlimit:4;" d="M 23.799476 33.100057 C 23.799476 34.590484 22.591143 35.799771 21.098955 35.799771 C 19.60807 35.799771 18.399737 34.590484 18.399737 33.100057 C 18.399737 31.608347 19.60807 30.39906 21.098955 30.39906 C 22.591143 30.39906 23.799476 31.608347 23.799476 33.100057 Z M 23.799476 33.100057 " transform="matrix(3,0,0,3.042857,0,0)"/>
<path style=" stroke:none;fill-rule:nonzero;fill:rgb(0%,39.607843%,71.764706%);fill-opacity:1;" d="M 139.5 181.964844 L 130.5 192.308594 L 121.5 181.964844 L 121.5 99.5 L 139.5 99.5 Z M 139.5 181.964844 "/>
<path style=" stroke:none;fill-rule:nonzero;fill:rgb(0%,30.196078%,63.137255%);fill-opacity:1;" d="M 139.5 181.964844 L 130.5 192.308594 L 130.5 99.5 L 139.5 99.5 Z M 139.5 181.964844 "/>
<path style="fill:none;stroke-width:0.4;stroke-linecap:round;stroke-linejoin:round;stroke:rgb(0%,0%,0%);stroke-opacity:1;stroke-miterlimit:4;" d="M 46.499994 59.80065 L 43.499994 63.200005 L 40.499994 59.80065 L 40.499994 32.699529 L 46.499994 32.699529 Z M 46.499994 59.80065 " transform="matrix(3,0,0,3.042857,0,0)"/>
<path style="fill:none;stroke-width:0.4;stroke-linecap:round;stroke-linejoin:round;stroke:rgb(0%,0%,0%);stroke-opacity:1;stroke-miterlimit:4;" d="M 43.499994 63.200005 L 43.499994 32.800945 " transform="matrix(3,0,0,3.042857,0,0)"/>
<path style="fill-rule:nonzero;fill:rgb(99.607843%,74.901961%,6.27451%);fill-opacity:1;stroke-width:0.4;stroke-linecap:round;stroke-linejoin:round;stroke:rgb(0%,0%,0%);stroke-opacity:1;stroke-miterlimit:4;" d="M 43.529942 33.089787 L 46.320306 35.949969 L 43.480463 38.710019 L 40.690098 35.849837 Z M 43.529942 33.089787 " transform="matrix(3,0,0,3.042857,0,0)"/>
<path style=" stroke:none;fill-rule:nonzero;fill:rgb(0%,0%,0%);fill-opacity:1;" d="M 130.558594 97.429688 L 138.929688 106.164062 L 130.410156 114.566406 L 122.011719 105.832031 Z M 130.558594 97.429688 "/>
<path style="fill-rule:nonzero;fill:rgb(99.607843%,74.901961%,6.27451%);fill-opacity:1;stroke-width:0.4;stroke-linecap:round;stroke-linejoin:round;stroke:rgb(0%,0%,0%);stroke-opacity:1;stroke-miterlimit:4;" d="M 46.399733 27.499082 C 46.300775 32.300285 44.999994 35.400527 43.399734 35.300395 C 41.799473 35.200263 40.600255 32.200153 40.699213 27.400234 C 40.812494 24.235804 41.856765 21.174075 43.699213 18.600168 C 45.424473 21.251099 46.360671 24.33722 46.399733 27.499082 Z M 46.399733 27.499082 " transform="matrix(3,0,0,3.042857,0,0)"/>
<path style="fill:none;stroke-width:0.4;stroke-linecap:round;stroke-linejoin:round;stroke:rgb(0%,0%,0%);stroke-opacity:1;stroke-miterlimit:4;" d="M 40.699213 29.700703 C 41.596348 28.446485 42.675775 27.334763 43.899733 26.400197 C 44.79166 25.731366 45.483067 24.832745 45.899733 23.799331 M 45.200515 21.500146 C 44.731765 22.30377 44.12239 23.014964 43.399734 23.599067 C 42.464838 24.360328 41.595046 25.196045 40.799473 26.099801 M 41.200515 32.699529 C 42.101557 31.39011 43.217442 30.239875 44.499994 29.300175 C 45.282546 28.628777 45.927077 27.814883 46.399733 26.899573 " transform="matrix(3,0,0,3.042857,0,0)"/>
<path style="fill:none;stroke-width:0.4;stroke-linecap:round;stroke-linejoin:round;stroke:rgb(0%,0%,0%);stroke-opacity:1;stroke-miterlimit:4;" d="M 45.899733 23.799331 C 45.483067 24.832745 44.79166 25.731366 43.899733 26.400197 C 42.675775 27.334763 41.596348 28.446485 40.699213 29.700703 M 41.899734 34.899866 C 42.777338 33.908816 43.748692 33.003776 44.799473 32.200153 L 46.100254 30.70074 M 46.399733 26.899573 C 45.927077 27.814883 45.282546 28.628777 44.499994 29.300175 C 43.217442 30.239875 42.101557 31.39011 41.200515 32.699529 " transform="matrix(3,0,0,3.042857,0,0)"/>
<path style="fill-rule:nonzero;fill:rgb(99.607843%,74.901961%,6.27451%);fill-opacity:1;stroke-width:0.4;stroke-linecap:round;stroke-linejoin:round;stroke:rgb(0%,0%,0%);stroke-opacity:1;stroke-miterlimit:4;" d="M 51.401034 33.200189 C 51.401034 35.023106 49.92317 36.500695 48.098952 36.500695 C 46.277337 36.500695 44.799473 35.023106 44.799473 33.200189 C 44.799473 31.377273 46.277337 29.899683 48.098952 29.899683 C 49.92317 29.899683 51.401034 31.377273 51.401034 33.200189 Z M 51.401034 33.200189 " transform="matrix(3,0,0,3.042857,0,0)"/>
<path style="fill-rule:nonzero;fill:rgb(99.607843%,74.901961%,6.27451%);fill-opacity:1;stroke-width:0.4;stroke-linecap:round;stroke-linejoin:round;stroke:rgb(0%,0%,0%);stroke-opacity:1;stroke-miterlimit:4;" d="M 50.401035 33.200189 C 50.401035 34.469812 49.369785 35.500659 48.098952 35.500659 C 46.830723 35.500659 45.799473 34.469812 45.799473 33.200189 C 45.799473 31.929283 46.830723 30.89972 48.098952 30.89972 C 49.369785 30.89972 50.401035 31.929283 50.401035 33.200189 Z M 50.401035 33.200189 " transform="matrix(3,0,0,3.042857,0,0)"/>
<path style=" stroke:none;fill-rule:nonzero;fill:rgb(81.568627%,60.784314%,2.745098%);fill-opacity:1;" d="M 148.199219 101.023438 C 148.199219 103.207031 146.453125 104.976562 144.296875 104.976562 C 142.144531 104.976562 140.398438 103.207031 140.398438 101.023438 C 140.398438 98.835938 142.144531 97.066406 144.296875 97.066406 C 146.453125 97.066406 148.199219 98.835938 148.199219 101.023438 Z M 148.199219 101.023438 "/>
<path style="fill-rule:nonzero;fill:rgb(99.607843%,74.901961%,6.27451%);fill-opacity:1;stroke-width:0.4;stroke-linecap:round;stroke-linejoin:round;stroke:rgb(0%,0%,0%);stroke-opacity:1;stroke-miterlimit:4;" d="M 42.200515 32.999925 C 42.200515 34.822842 40.722651 36.300431 38.901036 36.300431 C 37.076818 36.300431 35.598953 34.822842 35.598953 32.999925 C 35.598953 31.178292 37.076818 29.700703 38.901036 29.700703 C 40.722651 29.700703 42.200515 31.178292 42.200515 32.999925 Z M 42.200515 32.999925 " transform="matrix(3,0,0,3.042857,0,0)"/>
<path style="fill-rule:nonzero;fill:rgb(99.607843%,74.901961%,6.27451%);fill-opacity:1;stroke-width:0.4;stroke-linecap:round;stroke-linejoin:round;stroke:rgb(0%,0%,0%);stroke-opacity:1;stroke-miterlimit:4;" d="M 41.200515 32.999925 C 41.200515 34.270832 40.169265 35.300395 38.901036 35.300395 C 37.630203 35.300395 36.598953 34.270832 36.598953 32.999925 C 36.598953 31.729019 37.630203 30.70074 38.901036 30.70074 C 40.169265 30.70074 41.200515 31.729019 41.200515 32.999925 Z M 41.200515 32.999925 " transform="matrix(3,0,0,3.042857,0,0)"/>
<path style=" stroke:none;fill-rule:nonzero;fill:rgb(81.568627%,60.784314%,2.745098%);fill-opacity:1;" d="M 120.601562 100.414062 C 120.601562 102.597656 118.855469 104.367188 116.703125 104.367188 C 114.546875 104.367188 112.800781 102.597656 112.800781 100.414062 C 112.800781 98.230469 114.546875 96.457031 116.703125 96.457031 C 118.855469 96.457031 120.601562 98.230469 120.601562 100.414062 Z M 120.601562 100.414062 "/>
<path style="fill-rule:nonzero;fill:rgb(99.607843%,74.901961%,6.27451%);fill-opacity:1;stroke-width:0.4;stroke-linecap:round;stroke-linejoin:round;stroke:rgb(0%,0%,0%);stroke-opacity:1;stroke-miterlimit:4;" d="M 44.998939 17.59979 C 44.999696 17.102335 44.37268 16.699592 43.599795 16.699967 C 42.826893 16.699039 42.200879 17.103653 42.200104 17.599806 C 42.199347 18.097261 42.826364 18.500004 43.60055 18.500913 C 44.373434 18.500539 45.000749 18.097209 44.998939 17.59979 Z M 44.998939 17.59979 " transform="matrix(0.0418866,-3.04256,2.999708,0.0424849,76.207643,185.613475)"/>
<path style="fill-rule:nonzero;fill:rgb(99.607843%,74.901961%,6.27451%);fill-opacity:1;stroke-width:0.4;stroke-linecap:round;stroke-linejoin:round;stroke:rgb(0%,0%,0%);stroke-opacity:1;stroke-miterlimit:4;" d="M 42.699429 19.298829 C 42.700201 18.526607 42.297313 17.900661 41.800443 17.899786 C 41.303592 17.900212 40.898938 18.527017 40.899468 19.300523 C 40.899998 20.074028 41.302886 20.699974 41.799738 20.699548 C 42.296608 20.700423 42.699959 20.072334 42.699429 19.298829 Z M 42.699429 19.298829 " transform="matrix(0.0418866,-3.04256,2.999708,0.0424849,65.695624,185.025363)"/>
<path style="fill-rule:nonzero;fill:rgb(99.607843%,74.901961%,6.27451%);fill-opacity:1;stroke-width:0.4;stroke-linecap:round;stroke-linejoin:round;stroke:rgb(0%,0%,0%);stroke-opacity:1;stroke-miterlimit:4;" d="M 46.300135 19.300143 C 46.299605 18.526637 45.896717 17.900691 45.399847 17.899816 C 44.902996 17.900243 44.499608 18.525728 44.500137 19.299233 C 44.499384 20.072756 44.90229 20.700005 45.39916 20.70088 C 45.897277 20.699133 46.299363 20.072364 46.300135 19.300143 Z M 46.300135 19.300143 " transform="matrix(0.0418866,-3.04256,2.999708,0.0424849,76.493986,195.949421)"/>
<path style="fill-rule:nonzero;fill:rgb(99.607843%,74.901961%,6.27451%);fill-opacity:1;stroke-width:0.4;stroke-linecap:round;stroke-linejoin:round;stroke:rgb(0%,0%,0%);stroke-opacity:1;stroke-miterlimit:4;" d="M 44.600254 19.39994 C 44.600254 19.95195 44.152338 20.399977 43.600254 20.399977 C 43.048171 20.399977 42.600254 19.95195 42.600254 19.39994 C 42.600254 18.847931 43.048171 18.399904 43.600254 18.399904 C 44.152338 18.399904 44.600254 18.847931 44.600254 19.39994 Z M 44.600254 19.39994 " transform="matrix(3,0,0,3.042857,0,0)"/>
<path style=" stroke:none;fill-rule:nonzero;fill:rgb(81.568627%,60.784314%,2.745098%);fill-opacity:1;" d="M 130.800781 56.902344 C 130.328125 56.902344 129.882812 57.125 129.601562 57.507812 C 130.640625 57.660156 131.410156 58.574219 131.398438 59.640625 C 131.453125 60.289062 131.09375 60.902344 130.5 61.160156 L 130.800781 61.160156 C 131.957031 61.160156 132.902344 60.210938 132.902344 59.03125 C 132.902344 57.855469 131.957031 56.902344 130.800781 56.902344 Z M 130.800781 56.902344 "/>
<path style="fill-rule:nonzero;fill:rgb(99.607843%,74.901961%,6.27451%);fill-opacity:1;stroke-width:0.4;stroke-linecap:round;stroke-linejoin:round;stroke:rgb(0%,0%,0%);stroke-opacity:1;stroke-miterlimit:4;" d="M 45.100254 30.300211 C 45.100254 31.183427 44.382806 31.899757 43.499994 31.899757 C 42.617182 31.899757 41.899734 31.183427 41.899734 30.300211 C 41.899734 29.415712 42.617182 28.700666 43.499994 28.700666 C 44.382806 28.700666 45.100254 29.415712 45.100254 30.300211 Z M 45.100254 30.300211 " transform="matrix(3,0,0,3.042857,0,0)"/>
<path style=" stroke:none;fill-rule:nonzero;fill:rgb(0%,0%,0%);fill-opacity:1;" d="M 133.5 92.199219 C 133.5 93.882812 132.15625 95.242188 130.5 95.242188 C 128.84375 95.242188 127.5 93.882812 127.5 92.199219 C 127.5 90.515625 128.84375 89.15625 130.5 89.15625 C 132.15625 89.15625 133.5 90.515625 133.5 92.199219 Z M 133.5 92.199219 "/>
<path style="fill-rule:nonzero;fill:rgb(99.607843%,74.901961%,6.27451%);fill-opacity:1;stroke-width:0.4;stroke-linecap:round;stroke-linejoin:round;stroke:rgb(0%,0%,0%);stroke-opacity:1;stroke-miterlimit:4;" d="M 42.300775 33.100057 C 42.300775 33.984557 41.583328 34.699602 40.699213 34.699602 C 39.816401 34.699602 39.100255 33.984557 39.100255 33.100057 C 39.100255 32.216841 39.816401 31.500512 40.699213 31.500512 C 41.583328 31.500512 42.300775 32.216841 42.300775 33.100057 Z M 42.300775 33.100057 " transform="matrix(3,0,0,3.042857,0,0)"/>
<path style=" stroke:none;fill-rule:nonzero;fill:rgb(0%,0%,0%);fill-opacity:1;" d="M 125.097656 100.71875 C 125.097656 102.398438 123.757812 103.761719 122.097656 103.761719 C 120.445312 103.761719 119.097656 102.398438 119.097656 100.71875 C 119.097656 99.039062 120.445312 97.675781 122.097656 97.675781 C 123.757812 97.675781 125.097656 99.039062 125.097656 100.71875 Z M 125.097656 100.71875 "/>
<path style="fill-rule:nonzero;fill:rgb(99.607843%,74.901961%,6.27451%);fill-opacity:1;stroke-width:0.4;stroke-linecap:round;stroke-linejoin:round;stroke:rgb(0%,0%,0%);stroke-opacity:1;stroke-miterlimit:4;" d="M 47.999993 33.100057 C 47.999993 33.984557 47.283848 34.699602 46.399733 34.699602 C 45.515619 34.699602 44.799473 33.984557 44.799473 33.100057 C 44.799473 32.216841 45.515619 31.500512 46.399733 31.500512 C 47.283848 31.500512 47.999993 32.216841 47.999993 33.100057 Z M 47.999993 33.100057 " transform="matrix(3,0,0,3.042857,0,0)"/>
<path style=" stroke:none;fill-rule:nonzero;fill:rgb(0%,0%,0%);fill-opacity:1;" d="M 142.199219 100.71875 C 142.199219 102.398438 140.855469 103.761719 139.199219 103.761719 C 137.542969 103.761719 136.199219 102.398438 136.199219 100.71875 C 136.199219 99.039062 137.542969 97.675781 139.199219 97.675781 C 140.855469 97.675781 142.199219 99.039062 142.199219 100.71875 Z M 142.199219 100.71875 "/>
<path style="fill-rule:nonzero;fill:rgb(99.607843%,74.901961%,6.27451%);fill-opacity:1;stroke-width:0.4;stroke-linecap:round;stroke-linejoin:round;stroke:rgb(0%,0%,0%);stroke-opacity:1;stroke-miterlimit:4;" d="M 46.200514 33.100057 C 46.200514 34.590484 44.990879 35.799771 43.499994 35.799771 C 42.009109 35.799771 40.799473 34.590484 40.799473 33.100057 C 40.799473 31.608347 42.009109 30.39906 43.499994 30.39906 C 44.990879 30.39906 46.200514 31.608347 46.200514 33.100057 Z M 46.200514 33.100057 " transform="matrix(3,0,0,3.042857,0,0)"/>
<path style=" stroke:none;fill-rule:nonzero;fill:rgb(0%,39.607843%,71.764706%);fill-opacity:1;" d="M 206.703125 181.964844 L 197.402344 192.308594 L 188.402344 181.964844 L 188.402344 99.5 L 206.703125 99.5 Z M 206.703125 181.964844 "/>
<path style=" stroke:none;fill-rule:nonzero;fill:rgb(0%,30.196078%,63.137255%);fill-opacity:1;" d="M 206.703125 181.964844 L 197.402344 192.308594 L 197.402344 99.5 L 206.703125 99.5 Z M 206.703125 181.964844 "/>
<path style="fill:none;stroke-width:0.4;stroke-linecap:round;stroke-linejoin:round;stroke:rgb(0%,0%,0%);stroke-opacity:1;stroke-miterlimit:4;" d="M 68.901032 59.80065 L 65.800772 63.200005 L 62.800772 59.80065 L 62.800772 32.699529 L 68.901032 32.699529 Z M 68.901032 59.80065 " transform="matrix(3,0,0,3.042857,0,0)"/>
<path style="fill-rule:nonzero;fill:rgb(0%,39.607843%,71.764706%);fill-opacity:1;stroke-width:0.4;stroke-linecap:round;stroke-linejoin:round;stroke:rgb(0%,0%,0%);stroke-opacity:1;stroke-miterlimit:4;" d="M 65.800772 63.200005 L 65.901032 32.800945 " transform="matrix(3,0,0,3.042857,0,0)"/>
<path style="fill-rule:nonzero;fill:rgb(99.607843%,74.901961%,6.27451%);fill-opacity:1;stroke-width:0.4;stroke-linecap:round;stroke-linejoin:round;stroke:rgb(0%,0%,0%);stroke-opacity:1;stroke-miterlimit:4;" d="M 65.880199 33.070531 L 68.658845 35.939699 L 65.829418 38.699749 L 63.029939 35.829297 Z M 65.880199 33.070531 " transform="matrix(3,0,0,3.042857,0,0)"/>
<path style=" stroke:none;fill-rule:nonzero;fill:rgb(0%,0%,0%);fill-opacity:1;" d="M 197.789062 97.613281 L 206.191406 106.347656 L 197.640625 114.746094 L 189.300781 106.015625 Z M 197.789062 97.613281 "/>
<path style="fill-rule:nonzero;fill:rgb(99.607843%,74.901961%,6.27451%);fill-opacity:1;stroke-width:0.4;stroke-linecap:round;stroke-linejoin:round;stroke:rgb(0%,0%,0%);stroke-opacity:1;stroke-miterlimit:4;" d="M 68.79947 27.499082 C 68.699209 32.300285 67.39973 35.400527 65.800772 35.300395 C 64.200512 35.200263 62.999991 32.200153 62.999991 27.400234 C 63.164054 24.244791 64.201814 21.197182 65.999991 18.600168 C 67.731761 21.253667 68.699209 24.332085 68.79947 27.499082 Z M 68.79947 27.499082 " transform="matrix(3,0,0,3.042857,0,0)"/>
<path style="fill:none;stroke-width:0.4;stroke-linecap:round;stroke-linejoin:round;stroke:rgb(0%,0%,0%);stroke-opacity:1;stroke-miterlimit:4;" d="M 63.100252 29.700703 C 63.700512 28.599251 64.499991 27.999742 66.29947 26.400197 C 67.160147 25.70184 67.846345 24.810922 68.29947 23.799331 M 67.499991 21.500146 C 67.072907 22.302486 66.496084 23.014964 65.800772 23.599067 C 64.839835 24.364179 63.937491 25.20118 63.100252 26.099801 M 63.499991 32.699529 C 64.402335 31.39011 65.516918 30.239875 66.79947 29.300175 C 67.613272 28.659586 68.263011 27.83799 68.699209 26.899573 " transform="matrix(3,0,0,3.042857,0,0)"/>
<path style="fill:none;stroke-width:0.4;stroke-linecap:round;stroke-linejoin:round;stroke:rgb(0%,0%,0%);stroke-opacity:1;stroke-miterlimit:4;" d="M 68.29947 23.799331 C 67.846345 24.810922 67.160147 25.70184 66.29947 26.400197 C 64.499991 27.999742 63.700512 28.599251 63.100252 29.700703 M 64.29947 34.899866 C 65.135408 33.903681 66.072907 32.998641 67.100251 32.200153 L 68.49999 30.70074 M 68.699209 26.899573 C 68.263011 27.83799 67.613272 28.659586 66.79947 29.300175 C 65.516918 30.239875 64.402335 31.39011 63.499991 32.699529 " transform="matrix(3,0,0,3.042857,0,0)"/>
<path style="fill-rule:nonzero;fill:rgb(99.607843%,74.901961%,6.27451%);fill-opacity:1;stroke-width:0.4;stroke-linecap:round;stroke-linejoin:round;stroke:rgb(0%,0%,0%);stroke-opacity:1;stroke-miterlimit:4;" d="M 73.699208 33.200189 C 73.699208 35.023106 72.222646 36.500695 70.39973 36.500695 C 68.578115 36.500695 67.100251 35.023106 67.100251 33.200189 C 67.100251 31.377273 68.578115 29.899683 70.39973 29.899683 C 72.222646 29.899683 73.699208 31.377273 73.699208 33.200189 Z M 73.699208 33.200189 " transform="matrix(3,0,0,3.042857,0,0)"/>
<path style="fill-rule:nonzero;fill:rgb(99.607843%,74.901961%,6.27451%);fill-opacity:1;stroke-width:0.4;stroke-linecap:round;stroke-linejoin:round;stroke:rgb(0%,0%,0%);stroke-opacity:1;stroke-miterlimit:4;" d="M 72.699209 33.200189 C 72.699209 34.469812 71.670563 35.500659 70.39973 35.500659 C 69.130199 35.500659 68.100251 34.469812 68.100251 33.200189 C 68.100251 31.929283 69.130199 30.89972 70.39973 30.89972 C 71.670563 30.89972 72.699209 31.929283 72.699209 33.200189 Z M 72.699209 33.200189 " transform="matrix(3,0,0,3.042857,0,0)"/>
<path style=" stroke:none;fill-rule:nonzero;fill:rgb(81.568627%,60.784314%,2.745098%);fill-opacity:1;" d="M 215.097656 101.023438 C 215.097656 103.207031 213.351562 104.976562 211.199219 104.976562 C 209.046875 104.976562 207.300781 103.207031 207.300781 101.023438 C 207.300781 98.835938 209.046875 97.066406 211.199219 97.066406 C 213.351562 97.066406 215.097656 98.835938 215.097656 101.023438 Z M 215.097656 101.023438 "/>
<path style="fill-rule:nonzero;fill:rgb(99.607843%,74.901961%,6.27451%);fill-opacity:1;stroke-width:0.4;stroke-linecap:round;stroke-linejoin:round;stroke:rgb(0%,0%,0%);stroke-opacity:1;stroke-miterlimit:4;" d="M 64.598949 32.999925 C 64.598949 34.822842 63.122387 36.300431 61.299471 36.300431 C 59.477856 36.300431 57.999992 34.822842 57.999992 32.999925 C 57.999992 31.178292 59.477856 29.700703 61.299471 29.700703 C 63.122387 29.700703 64.598949 31.178292 64.598949 32.999925 Z M 64.598949 32.999925 " transform="matrix(3,0,0,3.042857,0,0)"/>
<path style="fill-rule:nonzero;fill:rgb(99.607843%,74.901961%,6.27451%);fill-opacity:1;stroke-width:0.4;stroke-linecap:round;stroke-linejoin:round;stroke:rgb(0%,0%,0%);stroke-opacity:1;stroke-miterlimit:4;" d="M 63.598949 32.999925 C 63.598949 34.270832 62.570304 35.300395 61.299471 35.300395 C 60.02994 35.300395 58.999992 34.270832 58.999992 32.999925 C 58.999992 31.729019 60.02994 30.70074 61.299471 30.70074 C 62.570304 30.70074 63.598949 31.729019 63.598949 32.999925 Z M 63.598949 32.999925 " transform="matrix(3,0,0,3.042857,0,0)"/>
<path style=" stroke:none;fill-rule:nonzero;fill:rgb(81.568627%,60.784314%,2.745098%);fill-opacity:1;" d="M 187.796875 100.414062 C 187.796875 102.597656 186.054688 104.367188 183.898438 104.367188 C 181.746094 104.367188 180 102.597656 180 100.414062 C 180 98.230469 181.746094 96.457031 183.898438 96.457031 C 186.054688 96.457031 187.796875 98.230469 187.796875 100.414062 Z M 187.796875 100.414062 "/>
<path style="fill-rule:nonzero;fill:rgb(99.607843%,74.901961%,6.27451%);fill-opacity:1;stroke-width:0.4;stroke-linecap:round;stroke-linejoin:round;stroke:rgb(0%,0%,0%);stroke-opacity:1;stroke-miterlimit:4;" d="M 67.400095 17.599715 C 67.399587 17.10358 66.77257 16.700837 66.000952 16.699892 C 65.226784 16.700284 64.600752 17.103596 64.599977 17.599748 C 64.59922 18.097203 65.226236 18.499946 66.000422 18.500856 C 66.773288 18.499179 67.400622 18.097152 67.400095 17.599715 Z M 67.400095 17.599715 " transform="matrix(0.0418866,-3.04256,2.999708,0.0424849,142.203154,253.493)"/>
<path style="fill-rule:nonzero;fill:rgb(99.607843%,74.901961%,6.27451%);fill-opacity:1;stroke-width:0.4;stroke-linecap:round;stroke-linejoin:round;stroke:rgb(0%,0%,0%);stroke-opacity:1;stroke-miterlimit:4;" d="M 65.00059 19.299948 C 65.00006 18.526443 64.597171 17.900496 64.100302 17.899621 C 63.602166 17.900066 63.20008 18.526835 63.199308 19.299056 C 63.199838 20.072562 63.602745 20.69981 64.099614 20.700685 C 64.59775 20.70024 64.999836 20.073471 65.00059 19.299948 Z M 65.00059 19.299948 " transform="matrix(0.0418866,-3.04256,2.999708,0.0424849,131.957366,253.178719)"/>
<path style="fill-rule:nonzero;fill:rgb(99.607843%,74.901961%,6.27451%);fill-opacity:1;stroke-width:0.4;stroke-linecap:round;stroke-linejoin:round;stroke:rgb(0%,0%,0%);stroke-opacity:1;stroke-miterlimit:4;" d="M 68.699164 19.299488 C 68.699918 18.525965 68.29703 17.900019 67.80016 17.899144 C 67.303327 17.900872 66.899957 18.527659 66.900469 19.299863 C 66.900998 20.073368 67.302603 20.699332 67.800757 20.70019 C 68.296343 20.701083 68.699694 20.072994 68.699164 19.299488 Z M 68.699164 19.299488 " transform="matrix(0.0418866,-3.04256,2.999708,0.0424849,142.487418,264.131094)"/>
<path style="fill-rule:nonzero;fill:rgb(99.607843%,74.901961%,6.27451%);fill-opacity:1;stroke-width:0.4;stroke-linecap:round;stroke-linejoin:round;stroke:rgb(0%,0%,0%);stroke-opacity:1;stroke-miterlimit:4;" d="M 66.901032 19.39994 C 66.901032 19.95195 66.451814 20.399977 65.901032 20.399977 C 65.347647 20.399977 64.901033 19.95195 64.901033 19.39994 C 64.901033 18.847931 65.347647 18.399904 65.901032 18.399904 C 66.451814 18.399904 66.901032 18.847931 66.901032 19.39994 Z M 66.901032 19.39994 " transform="matrix(3,0,0,3.042857,0,0)"/>
<path style=" stroke:none;fill-rule:nonzero;fill:rgb(81.568627%,60.784314%,2.745098%);fill-opacity:1;" d="M 197.703125 56.902344 L 196.5 57.507812 C 197.703125 57.507812 198.300781 58.425781 198.300781 59.640625 C 198.351562 60.289062 197.988281 60.902344 197.402344 61.160156 L 197.703125 61.160156 C 198.859375 61.160156 199.800781 60.210938 199.800781 59.03125 C 199.667969 57.914062 198.800781 57.035156 197.703125 56.902344 Z M 197.703125 56.902344 "/>
<path style="fill-rule:nonzero;fill:rgb(99.607843%,74.901961%,6.27451%);fill-opacity:1;stroke-width:0.4;stroke-linecap:round;stroke-linejoin:round;stroke:rgb(0%,0%,0%);stroke-opacity:1;stroke-miterlimit:4;" d="M 67.39973 30.300211 C 67.39973 31.183427 66.683584 31.899757 65.800772 31.899757 C 64.916658 31.899757 64.200512 31.183427 64.200512 30.300211 C 64.200512 29.415712 64.916658 28.700666 65.800772 28.700666 C 66.683584 28.700666 67.39973 29.415712 67.39973 30.300211 Z M 67.39973 30.300211 " transform="matrix(3,0,0,3.042857,0,0)"/>
<path style=" stroke:none;fill-rule:nonzero;fill:rgb(0%,0%,0%);fill-opacity:1;" d="M 200.398438 92.199219 C 200.398438 93.882812 199.058594 95.242188 197.402344 95.242188 C 195.742188 95.242188 194.402344 93.882812 194.402344 92.199219 C 194.402344 90.515625 195.742188 89.15625 197.402344 89.15625 C 199.058594 89.15625 200.398438 90.515625 200.398438 92.199219 Z M 200.398438 92.199219 "/>
<path style="fill-rule:nonzero;fill:rgb(99.607843%,74.901961%,6.27451%);fill-opacity:1;stroke-width:0.4;stroke-linecap:round;stroke-linejoin:round;stroke:rgb(0%,0%,0%);stroke-opacity:1;stroke-miterlimit:4;" d="M 64.69921 33.100057 C 64.69921 33.984557 63.983064 34.699602 63.100252 34.699602 C 62.216137 34.699602 61.499991 33.984557 61.499991 33.100057 C 61.499991 32.216841 62.216137 31.500512 63.100252 31.500512 C 63.983064 31.500512 64.69921 32.216841 64.69921 33.100057 Z M 64.69921 33.100057 " transform="matrix(3,0,0,3.042857,0,0)"/>
<path style=" stroke:none;fill-rule:nonzero;fill:rgb(0%,0%,0%);fill-opacity:1;" d="M 192.300781 100.71875 C 192.300781 102.398438 190.957031 103.761719 189.300781 103.761719 C 187.644531 103.761719 186.300781 102.398438 186.300781 100.71875 C 186.300781 99.039062 187.644531 97.675781 189.300781 97.675781 C 190.957031 97.675781 192.300781 99.039062 192.300781 100.71875 Z M 192.300781 100.71875 "/>
<path style="fill-rule:nonzero;fill:rgb(99.607843%,74.901961%,6.27451%);fill-opacity:1;stroke-width:0.4;stroke-linecap:round;stroke-linejoin:round;stroke:rgb(0%,0%,0%);stroke-opacity:1;stroke-miterlimit:4;" d="M 70.39973 33.100057 C 70.39973 33.984557 69.683584 34.699602 68.79947 34.699602 C 67.916657 34.699602 67.200511 33.984557 67.200511 33.100057 C 67.200511 32.216841 67.916657 31.500512 68.79947 31.500512 C 69.683584 31.500512 70.39973 32.216841 70.39973 33.100057 Z M 70.39973 33.100057 " transform="matrix(3,0,0,3.042857,0,0)"/>
<path style=" stroke:none;fill-rule:nonzero;fill:rgb(0%,0%,0%);fill-opacity:1;" d="M 209.398438 100.71875 C 209.398438 102.398438 208.058594 103.761719 206.398438 103.761719 C 204.742188 103.761719 203.398438 102.398438 203.398438 100.71875 C 203.398438 99.039062 204.742188 97.675781 206.398438 97.675781 C 208.058594 97.675781 209.398438 99.039062 209.398438 100.71875 Z M 209.398438 100.71875 "/>
<path style="fill-rule:nonzero;fill:rgb(99.607843%,74.901961%,6.27451%);fill-opacity:1;stroke-width:0.4;stroke-linecap:round;stroke-linejoin:round;stroke:rgb(0%,0%,0%);stroke-opacity:1;stroke-miterlimit:4;" d="M 68.49999 33.100057 C 68.49999 34.590484 67.291657 35.799771 65.800772 35.799771 C 64.308585 35.799771 63.100252 34.590484 63.100252 33.100057 C 63.100252 31.608347 64.308585 30.39906 65.800772 30.39906 C 67.291657 30.39906 68.49999 31.608347 68.49999 33.100057 Z M 68.49999 33.100057 " transform="matrix(3,0,0,3.042857,0,0)"/>
<path style=" stroke:none;fill-rule:nonzero;fill:rgb(0%,39.607843%,71.764706%);fill-opacity:1;" d="M 206.703125 244.035156 L 197.402344 233.691406 L 188.402344 244.035156 L 188.402344 326.5 L 206.703125 326.5 Z M 206.703125 244.035156 "/>
<path style=" stroke:none;fill-rule:nonzero;fill:rgb(0%,30.196078%,63.137255%);fill-opacity:1;" d="M 206.703125 244.035156 L 197.402344 233.691406 L 197.402344 326.5 L 206.703125 326.5 Z M 206.703125 244.035156 "/>
<path style="fill:none;stroke-width:0.4;stroke-linecap:round;stroke-linejoin:round;stroke:rgb(0%,0%,0%);stroke-opacity:1;stroke-miterlimit:4;" d="M 68.901032 80.199344 L 65.800772 76.799989 L 62.800772 80.199344 L 62.800772 107.300465 L 68.901032 107.300465 Z M 68.901032 80.199344 " transform="matrix(3,0,0,3.042857,0,0)"/>
<path style="fill-rule:nonzero;fill:rgb(0%,39.607843%,71.764706%);fill-opacity:1;stroke-width:0.4;stroke-linecap:round;stroke-linejoin:round;stroke:rgb(0%,0%,0%);stroke-opacity:1;stroke-miterlimit:4;" d="M 65.800772 76.799989 L 65.901032 107.199049 " transform="matrix(3,0,0,3.042857,0,0)"/>
<path style="fill-rule:nonzero;fill:rgb(99.607843%,74.901961%,6.27451%);fill-opacity:1;stroke-width:0.4;stroke-linecap:round;stroke-linejoin:round;stroke:rgb(0%,0%,0%);stroke-opacity:1;stroke-miterlimit:4;" d="M 65.850251 106.899937 L 63.050772 104.041039 L 65.901032 101.279705 L 68.690095 104.150157 Z M 65.850251 106.899937 " transform="matrix(3,0,0,3.042857,0,0)"/>
<path style=" stroke:none;fill-rule:nonzero;fill:rgb(0%,0%,0%);fill-opacity:1;" d="M 197.519531 328.445312 L 189.121094 319.710938 L 197.667969 311.316406 L 206.039062 320.046875 Z M 197.519531 328.445312 "/>
<path style="fill-rule:nonzero;fill:rgb(99.607843%,74.901961%,6.27451%);fill-opacity:1;stroke-width:0.4;stroke-linecap:round;stroke-linejoin:round;stroke:rgb(0%,0%,0%);stroke-opacity:1;stroke-miterlimit:4;" d="M 62.899731 112.500912 C 62.999991 107.699709 64.29947 104.599467 65.901032 104.699599 C 67.499991 104.799731 68.699209 107.799841 68.699209 112.59976 C 68.537751 115.755203 67.498688 118.802812 65.69921 121.399826 C 63.970043 118.746327 62.999991 115.667909 62.899731 112.500912 Z M 62.899731 112.500912 " transform="matrix(3,0,0,3.042857,0,0)"/>
<path style="fill:none;stroke-width:0.4;stroke-linecap:round;stroke-linejoin:round;stroke:rgb(0%,0%,0%);stroke-opacity:1;stroke-miterlimit:4;" d="M 68.600251 110.299291 C 67.99999 111.400743 67.200511 112.000252 65.39973 113.599797 C 64.540356 114.298154 63.854158 115.189072 63.399731 116.200662 M 64.200512 118.499848 C 64.627595 117.697508 65.203116 116.98503 65.901032 116.400927 C 66.860668 115.635815 67.763011 114.798814 68.600251 113.900193 M 68.200511 107.300465 C 67.298168 108.609884 66.183584 109.760118 64.901033 110.699819 C 64.087231 111.340407 63.436189 112.162004 62.999991 113.100421 " transform="matrix(3,0,0,3.042857,0,0)"/>
<path style="fill:none;stroke-width:0.4;stroke-linecap:round;stroke-linejoin:round;stroke:rgb(0%,0%,0%);stroke-opacity:1;stroke-miterlimit:4;" d="M 63.399731 116.200662 C 63.854158 115.189072 64.540356 114.298154 65.39973 113.599797 C 67.200511 112.000252 67.99999 111.400743 68.600251 110.299291 M 67.39973 105.100127 C 66.563793 106.096313 65.626293 107.001352 64.598949 107.799841 L 63.200512 109.299254 M 62.999991 113.100421 C 63.436189 112.162004 64.087231 111.340407 64.901033 110.699819 C 66.183584 109.760118 67.298168 108.609884 68.200511 107.300465 " transform="matrix(3,0,0,3.042857,0,0)"/>
<path style="fill-rule:nonzero;fill:rgb(99.607843%,74.901961%,6.27451%);fill-opacity:1;stroke-width:0.4;stroke-linecap:round;stroke-linejoin:round;stroke:rgb(0%,0%,0%);stroke-opacity:1;stroke-miterlimit:4;" d="M 64.598949 106.799805 C 64.598949 108.622721 63.122387 110.100311 61.299471 110.100311 C 59.477856 110.100311 57.999992 108.622721 57.999992 106.799805 C 57.999992 104.976888 59.477856 103.499299 61.299471 103.499299 C 63.122387 103.499299 64.598949 104.976888 64.598949 106.799805 Z M 64.598949 106.799805 " transform="matrix(3,0,0,3.042857,0,0)"/>
<path style="fill-rule:nonzero;fill:rgb(99.607843%,74.901961%,6.27451%);fill-opacity:1;stroke-width:0.4;stroke-linecap:round;stroke-linejoin:round;stroke:rgb(0%,0%,0%);stroke-opacity:1;stroke-miterlimit:4;" d="M 63.598949 106.799805 C 63.598949 108.070711 62.570304 109.100274 61.299471 109.100274 C 60.02994 109.100274 58.999992 108.070711 58.999992 106.799805 C 58.999992 105.530182 60.02994 104.499335 61.299471 104.499335 C 62.570304 104.499335 63.598949 105.530182 63.598949 106.799805 Z M 63.598949 106.799805 " transform="matrix(3,0,0,3.042857,0,0)"/>
<path style=" stroke:none;fill-rule:nonzero;fill:rgb(81.568627%,60.784314%,2.745098%);fill-opacity:1;" d="M 187.796875 324.976562 C 187.796875 327.164062 186.054688 328.933594 183.898438 328.933594 C 181.746094 328.933594 180 327.164062 180 324.976562 C 180 322.792969 181.746094 321.023438 183.898438 321.023438 C 186.054688 321.023438 187.796875 322.792969 187.796875 324.976562 Z M 187.796875 324.976562 "/>
<path style="fill-rule:nonzero;fill:rgb(99.607843%,74.901961%,6.27451%);fill-opacity:1;stroke-width:0.4;stroke-linecap:round;stroke-linejoin:round;stroke:rgb(0%,0%,0%);stroke-opacity:1;stroke-miterlimit:4;" d="M 73.699208 107.000069 C 73.699208 108.821702 72.222646 110.299291 70.39973 110.299291 C 68.578115 110.299291 67.100251 108.821702 67.100251 107.000069 C 67.100251 105.177152 68.578115 103.699563 70.39973 103.699563 C 72.222646 103.699563 73.699208 105.177152 73.699208 107.000069 Z M 73.699208 107.000069 " transform="matrix(3,0,0,3.042857,0,0)"/>
<path style="fill-rule:nonzero;fill:rgb(99.607843%,74.901961%,6.27451%);fill-opacity:1;stroke-width:0.4;stroke-linecap:round;stroke-linejoin:round;stroke:rgb(0%,0%,0%);stroke-opacity:1;stroke-miterlimit:4;" d="M 72.699209 107.000069 C 72.699209 108.270975 71.670563 109.299254 70.39973 109.299254 C 69.130199 109.299254 68.100251 108.270975 68.100251 107.000069 C 68.100251 105.729162 69.130199 104.699599 70.39973 104.699599 C 71.670563 104.699599 72.699209 105.729162 72.699209 107.000069 Z M 72.699209 107.000069 " transform="matrix(3,0,0,3.042857,0,0)"/>
<path style=" stroke:none;fill-rule:nonzero;fill:rgb(81.568627%,60.784314%,2.745098%);fill-opacity:1;" d="M 215.097656 325.585938 C 215.097656 327.769531 213.351562 329.542969 211.199219 329.542969 C 209.046875 329.542969 207.300781 327.769531 207.300781 325.585938 C 207.300781 323.402344 209.046875 321.632812 211.199219 321.632812 C 213.351562 321.632812 215.097656 323.402344 215.097656 325.585938 Z M 215.097656 325.585938 "/>
<path style="fill-rule:nonzero;fill:rgb(99.607843%,74.901961%,6.27451%);fill-opacity:1;stroke-width:0.4;stroke-linecap:round;stroke-linejoin:round;stroke:rgb(0%,0%,0%);stroke-opacity:1;stroke-miterlimit:4;" d="M 67.099971 122.399418 C 67.100746 121.903266 66.473711 121.49922 65.699543 121.499613 C 64.926659 121.499987 64.300627 121.903299 64.299852 122.399452 C 64.299095 122.896907 64.926111 123.29965 65.700297 123.300559 C 66.473182 123.300185 67.100497 122.896855 67.099971 122.399418 Z M 67.099971 122.399418 " transform="matrix(0.0418866,-3.04256,2.999708,0.0424849,-172.48868,567.174322)"/>
<path style="fill-rule:nonzero;fill:rgb(99.607843%,74.901961%,6.27451%);fill-opacity:1;stroke-width:0.4;stroke-linecap:round;stroke-linejoin:round;stroke:rgb(0%,0%,0%);stroke-opacity:1;stroke-miterlimit:4;" d="M 68.49968 120.701146 C 68.500415 119.92632 68.096243 119.300392 67.600657 119.299499 C 67.102522 119.299944 66.699152 119.92673 66.699682 120.700236 C 66.700212 121.473741 67.1031 122.099688 67.59997 122.100563 C 68.096822 122.100136 68.500191 121.473349 68.49968 120.701146 Z M 68.49968 120.701146 " transform="matrix(0.0418866,-3.04256,2.999708,0.0424849,-162.30455,567.790329)"/>
<path style="fill-rule:nonzero;fill:rgb(99.607843%,74.901961%,6.27451%);fill-opacity:1;stroke-width:0.4;stroke-linecap:round;stroke-linejoin:round;stroke:rgb(0%,0%,0%);stroke-opacity:1;stroke-miterlimit:4;" d="M 64.799937 120.699991 C 64.799407 119.926486 64.397803 119.300522 63.899649 119.299665 C 63.402798 119.300091 62.999428 119.926878 62.99994 120.699082 C 62.999204 121.473907 63.403376 122.099835 63.900246 122.10071 C 64.397079 122.098982 64.799184 121.473515 64.799937 120.699991 Z M 64.799937 120.699991 " transform="matrix(0.0418866,-3.04256,2.999708,0.0424849,-172.775024,556.838376)"/>
<path style="fill-rule:nonzero;fill:rgb(99.607843%,74.901961%,6.27451%);fill-opacity:1;stroke-width:0.4;stroke-linecap:round;stroke-linejoin:round;stroke:rgb(0%,0%,0%);stroke-opacity:1;stroke-miterlimit:4;" d="M 66.79947 120.600053 C 66.79947 121.152063 66.352855 121.60009 65.800772 121.60009 C 65.247387 121.60009 64.800772 121.152063 64.800772 120.600053 C 64.800772 120.048043 65.247387 119.600017 65.800772 119.600017 C 66.352855 119.600017 66.79947 120.048043 66.79947 120.600053 Z M 66.79947 120.600053 " transform="matrix(3,0,0,3.042857,0,0)"/>
<path style=" stroke:none;fill-rule:nonzero;fill:rgb(81.568627%,60.784314%,2.745098%);fill-opacity:1;" d="M 197.402344 369.097656 L 198.601562 368.492188 C 197.402344 368.492188 196.796875 367.574219 196.796875 366.359375 C 196.746094 365.710938 197.109375 365.097656 197.703125 364.839844 L 197.402344 364.839844 C 196.238281 364.839844 195.300781 365.789062 195.300781 366.96875 C 195.433594 368.085938 196.296875 368.964844 197.402344 369.097656 Z M 197.402344 369.097656 "/>
<path style="fill-rule:nonzero;fill:rgb(99.607843%,74.901961%,6.27451%);fill-opacity:1;stroke-width:0.4;stroke-linecap:round;stroke-linejoin:round;stroke:rgb(0%,0%,0%);stroke-opacity:1;stroke-miterlimit:4;" d="M 67.499991 109.699782 C 67.499991 110.584282 66.783845 111.299328 65.901032 111.299328 C 65.015616 111.299328 64.29947 110.584282 64.29947 109.699782 C 64.29947 108.816567 65.015616 108.100237 65.901032 108.100237 C 66.783845 108.100237 67.499991 108.816567 67.499991 109.699782 Z M 67.499991 109.699782 " transform="matrix(3,0,0,3.042857,0,0)"/>
<path style=" stroke:none;fill-rule:nonzero;fill:rgb(0%,0%,0%);fill-opacity:1;" d="M 200.703125 333.800781 C 200.703125 335.484375 199.355469 336.84375 197.703125 336.84375 C 196.042969 336.84375 194.703125 335.484375 194.703125 333.800781 C 194.703125 332.117188 196.042969 330.757812 197.703125 330.757812 C 199.355469 330.757812 200.703125 332.117188 200.703125 333.800781 Z M 200.703125 333.800781 "/>
<path style="fill-rule:nonzero;fill:rgb(99.607843%,74.901961%,6.27451%);fill-opacity:1;stroke-width:0.4;stroke-linecap:round;stroke-linejoin:round;stroke:rgb(0%,0%,0%);stroke-opacity:1;stroke-miterlimit:4;" d="M 70.200511 106.899937 C 70.200511 107.783153 69.484365 108.499482 68.600251 108.499482 C 67.716136 108.499482 66.999991 107.783153 66.999991 106.899937 C 66.999991 106.015437 67.716136 105.300392 68.600251 105.300392 C 69.484365 105.300392 70.200511 106.015437 70.200511 106.899937 Z M 70.200511 106.899937 " transform="matrix(3,0,0,3.042857,0,0)"/>
<path style=" stroke:none;fill-rule:nonzero;fill:rgb(0%,0%,0%);fill-opacity:1;" d="M 208.800781 325.28125 C 208.800781 326.960938 207.457031 328.324219 205.800781 328.324219 C 204.144531 328.324219 202.800781 326.960938 202.800781 325.28125 C 202.800781 323.601562 204.144531 322.238281 205.800781 322.238281 C 207.457031 322.238281 208.800781 323.601562 208.800781 325.28125 Z M 208.800781 325.28125 "/>
<path style="fill-rule:nonzero;fill:rgb(99.607843%,74.901961%,6.27451%);fill-opacity:1;stroke-width:0.4;stroke-linecap:round;stroke-linejoin:round;stroke:rgb(0%,0%,0%);stroke-opacity:1;stroke-miterlimit:4;" d="M 64.499991 106.899937 C 64.499991 107.783153 63.783845 108.499482 62.899731 108.499482 C 62.015616 108.499482 61.299471 107.783153 61.299471 106.899937 C 61.299471 106.015437 62.015616 105.300392 62.899731 105.300392 C 63.783845 105.300392 64.499991 106.015437 64.499991 106.899937 Z M 64.499991 106.899937 " transform="matrix(3,0,0,3.042857,0,0)"/>
<path style=" stroke:none;fill-rule:nonzero;fill:rgb(0%,0%,0%);fill-opacity:1;" d="M 191.699219 325.28125 C 191.699219 326.960938 190.355469 328.324219 188.699219 328.324219 C 187.042969 328.324219 185.699219 326.960938 185.699219 325.28125 C 185.699219 323.601562 187.042969 322.238281 188.699219 322.238281 C 190.355469 322.238281 191.699219 323.601562 191.699219 325.28125 Z M 191.699219 325.28125 "/>
<path style="fill-rule:nonzero;fill:rgb(99.607843%,74.901961%,6.27451%);fill-opacity:1;stroke-width:0.4;stroke-linecap:round;stroke-linejoin:round;stroke:rgb(0%,0%,0%);stroke-opacity:1;stroke-miterlimit:4;" d="M 68.600251 106.899937 C 68.600251 108.391647 67.391918 109.600934 65.901032 109.600934 C 64.408845 109.600934 63.200512 108.391647 63.200512 106.899937 C 63.200512 105.40951 64.408845 104.200223 65.901032 104.200223 C 67.391918 104.200223 68.600251 105.40951 68.600251 106.899937 Z M 68.600251 106.899937 " transform="matrix(3,0,0,3.042857,0,0)"/>
<path style=" stroke:none;fill-rule:nonzero;fill:rgb(0%,39.607843%,71.764706%);fill-opacity:1;" d="M 139.5 244.035156 L 130.5 233.691406 L 121.5 244.035156 L 121.5 326.5 L 139.5 326.5 Z M 139.5 244.035156 "/>
<path style=" stroke:none;fill-rule:nonzero;fill:rgb(0%,30.196078%,63.137255%);fill-opacity:1;" d="M 139.5 244.035156 L 130.5 233.691406 L 130.5 326.5 L 139.5 326.5 Z M 139.5 244.035156 "/>
<path style="fill:none;stroke-width:0.4;stroke-linecap:round;stroke-linejoin:round;stroke:rgb(0%,0%,0%);stroke-opacity:1;stroke-miterlimit:4;" d="M 46.499994 80.199344 L 43.499994 76.799989 L 40.499994 80.199344 L 40.499994 107.300465 L 46.499994 107.300465 Z M 46.499994 80.199344 " transform="matrix(3,0,0,3.042857,0,0)"/>
<path style="fill:none;stroke-width:0.4;stroke-linecap:round;stroke-linejoin:round;stroke:rgb(0%,0%,0%);stroke-opacity:1;stroke-miterlimit:4;" d="M 43.499994 76.799989 L 43.499994 107.199049 " transform="matrix(3,0,0,3.042857,0,0)"/>
<path style="fill-rule:nonzero;fill:rgb(99.607843%,74.901961%,6.27451%);fill-opacity:1;stroke-width:0.4;stroke-linecap:round;stroke-linejoin:round;stroke:rgb(0%,0%,0%);stroke-opacity:1;stroke-miterlimit:4;" d="M 43.499994 106.899937 L 40.699213 104.029485 L 43.540358 101.270719 L 46.341139 104.139887 Z M 43.499994 106.899937 " transform="matrix(3,0,0,3.042857,0,0)"/>
<path style=" stroke:none;fill-rule:nonzero;fill:rgb(0%,0%,0%);fill-opacity:1;" d="M 130.648438 328.625 L 122.28125 319.894531 L 130.800781 311.496094 L 139.199219 320.230469 Z M 130.648438 328.625 "/>
<path style="fill-rule:nonzero;fill:rgb(99.607843%,74.901961%,6.27451%);fill-opacity:1;stroke-width:0.4;stroke-linecap:round;stroke-linejoin:round;stroke:rgb(0%,0%,0%);stroke-opacity:1;stroke-miterlimit:4;" d="M 40.600255 112.500912 C 40.699213 107.699709 41.999994 104.599467 43.600254 104.699599 C 45.200515 104.799731 46.399733 107.799841 46.300775 112.59976 C 46.187494 115.764189 45.143223 118.825919 43.300775 121.399826 C 41.575515 118.748894 40.639317 115.662774 40.600255 112.500912 Z M 40.600255 112.500912 " transform="matrix(3,0,0,3.042857,0,0)"/>
<path style="fill:none;stroke-width:0.4;stroke-linecap:round;stroke-linejoin:round;stroke:rgb(0%,0%,0%);stroke-opacity:1;stroke-miterlimit:4;" d="M 46.300775 110.299291 C 45.403639 111.553509 44.324213 112.665231 43.100254 113.599797 C 42.208327 114.268628 41.516921 115.167248 41.100255 116.200662 M 41.799473 118.499848 C 42.268223 117.696224 42.877598 116.986314 43.600254 116.400927 C 44.53515 115.639666 45.404942 114.803949 46.200514 113.900193 M 45.799473 107.300465 C 44.898431 108.609884 43.782546 109.760118 42.499994 110.699819 C 41.717442 111.371217 41.072911 112.185111 40.600255 113.100421 " transform="matrix(3,0,0,3.042857,0,0)"/>
<path style="fill:none;stroke-width:0.4;stroke-linecap:round;stroke-linejoin:round;stroke:rgb(0%,0%,0%);stroke-opacity:1;stroke-miterlimit:4;" d="M 41.100255 116.200662 C 41.516921 115.167248 42.208327 114.268628 43.100254 113.599797 C 44.324213 112.665231 45.403639 111.553509 46.300775 110.299291 M 45.100254 105.100127 C 44.22265 106.091178 43.251296 106.996217 42.200515 107.799841 L 40.899734 109.299254 M 40.600255 113.100421 C 41.072911 112.185111 41.717442 111.371217 42.499994 110.699819 C 43.782546 109.760118 44.898431 108.609884 45.799473 107.300465 " transform="matrix(3,0,0,3.042857,0,0)"/>
<path style="fill-rule:nonzero;fill:rgb(99.607843%,74.901961%,6.27451%);fill-opacity:1;stroke-width:0.4;stroke-linecap:round;stroke-linejoin:round;stroke:rgb(0%,0%,0%);stroke-opacity:1;stroke-miterlimit:4;" d="M 42.200515 106.799805 C 42.200515 108.622721 40.722651 110.100311 38.901036 110.100311 C 37.076818 110.100311 35.598953 108.622721 35.598953 106.799805 C 35.598953 104.976888 37.076818 103.499299 38.901036 103.499299 C 40.722651 103.499299 42.200515 104.976888 42.200515 106.799805 Z M 42.200515 106.799805 " transform="matrix(3,0,0,3.042857,0,0)"/>
<path style="fill-rule:nonzero;fill:rgb(99.607843%,74.901961%,6.27451%);fill-opacity:1;stroke-width:0.4;stroke-linecap:round;stroke-linejoin:round;stroke:rgb(0%,0%,0%);stroke-opacity:1;stroke-miterlimit:4;" d="M 41.200515 106.799805 C 41.200515 108.070711 40.169265 109.100274 38.901036 109.100274 C 37.630203 109.100274 36.598953 108.070711 36.598953 106.799805 C 36.598953 105.530182 37.630203 104.499335 38.901036 104.499335 C 40.169265 104.499335 41.200515 105.530182 41.200515 106.799805 Z M 41.200515 106.799805 " transform="matrix(3,0,0,3.042857,0,0)"/>
<path style=" stroke:none;fill-rule:nonzero;fill:rgb(81.568627%,60.784314%,2.745098%);fill-opacity:1;" d="M 120.601562 324.976562 C 120.601562 327.164062 118.855469 328.933594 116.703125 328.933594 C 114.546875 328.933594 112.800781 327.164062 112.800781 324.976562 C 112.800781 322.792969 114.546875 321.023438 116.703125 321.023438 C 118.855469 321.023438 120.601562 322.792969 120.601562 324.976562 Z M 120.601562 324.976562 "/>
<path style="fill-rule:nonzero;fill:rgb(99.607843%,74.901961%,6.27451%);fill-opacity:1;stroke-width:0.4;stroke-linecap:round;stroke-linejoin:round;stroke:rgb(0%,0%,0%);stroke-opacity:1;stroke-miterlimit:4;" d="M 51.401034 107.000069 C 51.401034 108.821702 49.92317 110.299291 48.098952 110.299291 C 46.277337 110.299291 44.799473 108.821702 44.799473 107.000069 C 44.799473 105.177152 46.277337 103.699563 48.098952 103.699563 C 49.92317 103.699563 51.401034 105.177152 51.401034 107.000069 Z M 51.401034 107.000069 " transform="matrix(3,0,0,3.042857,0,0)"/>
<path style="fill-rule:nonzero;fill:rgb(99.607843%,74.901961%,6.27451%);fill-opacity:1;stroke-width:0.4;stroke-linecap:round;stroke-linejoin:round;stroke:rgb(0%,0%,0%);stroke-opacity:1;stroke-miterlimit:4;" d="M 50.401035 107.000069 C 50.401035 108.270975 49.369785 109.299254 48.098952 109.299254 C 46.830723 109.299254 45.799473 108.270975 45.799473 107.000069 C 45.799473 105.729162 46.830723 104.699599 48.098952 104.699599 C 49.369785 104.699599 50.401035 105.729162 50.401035 107.000069 Z M 50.401035 107.000069 " transform="matrix(3,0,0,3.042857,0,0)"/>
<path style=" stroke:none;fill-rule:nonzero;fill:rgb(81.568627%,60.784314%,2.745098%);fill-opacity:1;" d="M 148.199219 325.585938 C 148.199219 327.769531 146.453125 329.542969 144.296875 329.542969 C 142.144531 329.542969 140.398438 327.769531 140.398438 325.585938 C 140.398438 323.402344 142.144531 321.632812 144.296875 321.632812 C 146.453125 321.632812 148.199219 323.402344 148.199219 325.585938 Z M 148.199219 325.585938 "/>
<path style="fill-rule:nonzero;fill:rgb(99.607843%,74.901961%,6.27451%);fill-opacity:1;stroke-width:0.4;stroke-linecap:round;stroke-linejoin:round;stroke:rgb(0%,0%,0%);stroke-opacity:1;stroke-miterlimit:4;" d="M 44.799153 122.400618 C 44.79991 121.903163 44.172893 121.50042 43.399991 121.499492 C 42.627107 121.499867 41.999791 121.903196 42.000318 122.400633 C 41.999561 122.898088 42.626577 123.300831 43.400727 123.299137 C 44.172346 123.300082 44.800945 122.896735 44.799153 122.400618 Z M 44.799153 122.400618 " transform="matrix(0.0418866,-3.04256,2.999708,0.0424849,-238.812079,499.322691)"/>
<path style="fill-rule:nonzero;fill:rgb(99.607843%,74.901961%,6.27451%);fill-opacity:1;stroke-width:0.4;stroke-linecap:round;stroke-linejoin:round;stroke:rgb(0%,0%,0%);stroke-opacity:1;stroke-miterlimit:4;" d="M 46.098933 120.700104 C 46.099687 119.926581 45.696781 119.299333 45.199947 119.301061 C 44.703078 119.300186 44.299708 119.926973 44.300238 120.700478 C 44.300749 121.472682 44.702372 122.099948 45.200507 122.099503 C 45.697377 122.100378 46.099463 121.47361 46.098933 120.700104 Z M 46.098933 120.700104 " transform="matrix(0.0418866,-3.04256,2.999708,0.0424849,-228.327979,499.63866)"/>
<path style="fill-rule:nonzero;fill:rgb(99.607843%,74.901961%,6.27451%);fill-opacity:1;stroke-width:0.4;stroke-linecap:round;stroke-linejoin:round;stroke:rgb(0%,0%,0%);stroke-opacity:1;stroke-miterlimit:4;" d="M 42.49935 120.700155 C 42.500103 119.926632 42.095931 119.300704 41.600345 119.299811 C 41.103476 119.298935 40.700124 119.927024 40.69937 120.700548 C 40.6999 121.474053 41.102788 122.099999 41.599658 122.100874 C 42.097775 122.099128 42.499861 121.472359 42.49935 120.700155 Z M 42.49935 120.700155 " transform="matrix(0.0418866,-3.04256,2.999708,0.0424849,-238.798452,488.686707)"/>
<path style="fill-rule:nonzero;fill:rgb(99.607843%,74.901961%,6.27451%);fill-opacity:1;stroke-width:0.4;stroke-linecap:round;stroke-linejoin:round;stroke:rgb(0%,0%,0%);stroke-opacity:1;stroke-miterlimit:4;" d="M 44.399733 120.600053 C 44.399733 121.152063 43.951817 121.60009 43.399734 121.60009 C 42.84765 121.60009 42.399734 121.152063 42.399734 120.600053 C 42.399734 120.048043 42.84765 119.600017 43.399734 119.600017 C 43.951817 119.600017 44.399733 120.048043 44.399733 120.600053 Z M 44.399733 120.600053 " transform="matrix(3,0,0,3.042857,0,0)"/>
<path style=" stroke:none;fill-rule:nonzero;fill:rgb(81.568627%,60.784314%,2.745098%);fill-opacity:1;" d="M 130.199219 369.097656 C 130.671875 369.097656 131.117188 368.875 131.398438 368.492188 C 130.359375 368.339844 129.589844 367.425781 129.601562 366.359375 C 129.546875 365.710938 129.90625 365.097656 130.5 364.839844 L 130.199219 364.839844 C 129.042969 364.839844 128.097656 365.789062 128.097656 366.96875 C 128.097656 368.144531 129.042969 369.097656 130.199219 369.097656 Z M 130.199219 369.097656 "/>
<path style="fill-rule:nonzero;fill:rgb(99.607843%,74.901961%,6.27451%);fill-opacity:1;stroke-width:0.4;stroke-linecap:round;stroke-linejoin:round;stroke:rgb(0%,0%,0%);stroke-opacity:1;stroke-miterlimit:4;" d="M 45.100254 109.699782 C 45.100254 110.584282 44.382806 111.299328 43.499994 111.299328 C 42.617182 111.299328 41.899734 110.584282 41.899734 109.699782 C 41.899734 108.816567 42.617182 108.100237 43.499994 108.100237 C 44.382806 108.100237 45.100254 108.816567 45.100254 109.699782 Z M 45.100254 109.699782 " transform="matrix(3,0,0,3.042857,0,0)"/>
<path style=" stroke:none;fill-rule:nonzero;fill:rgb(0%,0%,0%);fill-opacity:1;" d="M 133.5 333.800781 C 133.5 335.484375 132.15625 336.84375 130.5 336.84375 C 128.84375 336.84375 127.5 335.484375 127.5 333.800781 C 127.5 332.117188 128.84375 330.757812 130.5 330.757812 C 132.15625 330.757812 133.5 332.117188 133.5 333.800781 Z M 133.5 333.800781 "/>
<path style="fill-rule:nonzero;fill:rgb(99.607843%,74.901961%,6.27451%);fill-opacity:1;stroke-width:0.4;stroke-linecap:round;stroke-linejoin:round;stroke:rgb(0%,0%,0%);stroke-opacity:1;stroke-miterlimit:4;" d="M 47.899733 106.899937 C 47.899733 107.783153 47.183587 108.499482 46.300775 108.499482 C 45.41666 108.499482 44.699213 107.783153 44.699213 106.899937 C 44.699213 106.015437 45.41666 105.300392 46.300775 105.300392 C 47.183587 105.300392 47.899733 106.015437 47.899733 106.899937 Z M 47.899733 106.899937 " transform="matrix(3,0,0,3.042857,0,0)"/>
<path style=" stroke:none;fill-rule:nonzero;fill:rgb(0%,0%,0%);fill-opacity:1;" d="M 141.902344 325.28125 C 141.902344 326.960938 140.554688 328.324219 138.902344 328.324219 C 137.242188 328.324219 135.902344 326.960938 135.902344 325.28125 C 135.902344 323.601562 137.242188 322.238281 138.902344 322.238281 C 140.554688 322.238281 141.902344 323.601562 141.902344 325.28125 Z M 141.902344 325.28125 "/>
<path style="fill-rule:nonzero;fill:rgb(99.607843%,74.901961%,6.27451%);fill-opacity:1;stroke-width:0.4;stroke-linecap:round;stroke-linejoin:round;stroke:rgb(0%,0%,0%);stroke-opacity:1;stroke-miterlimit:4;" d="M 42.200515 106.899937 C 42.200515 107.783153 41.484369 108.499482 40.600255 108.499482 C 39.71614 108.499482 38.999995 107.783153 38.999995 106.899937 C 38.999995 106.015437 39.71614 105.300392 40.600255 105.300392 C 41.484369 105.300392 42.200515 106.015437 42.200515 106.899937 Z M 42.200515 106.899937 " transform="matrix(3,0,0,3.042857,0,0)"/>
<path style=" stroke:none;fill-rule:nonzero;fill:rgb(0%,0%,0%);fill-opacity:1;" d="M 124.800781 325.28125 C 124.800781 326.960938 123.457031 328.324219 121.800781 328.324219 C 120.144531 328.324219 118.800781 326.960938 118.800781 325.28125 C 118.800781 323.601562 120.144531 322.238281 121.800781 322.238281 C 123.457031 322.238281 124.800781 323.601562 124.800781 325.28125 Z M 124.800781 325.28125 "/>
<path style="fill-rule:nonzero;fill:rgb(99.607843%,74.901961%,6.27451%);fill-opacity:1;stroke-width:0.4;stroke-linecap:round;stroke-linejoin:round;stroke:rgb(0%,0%,0%);stroke-opacity:1;stroke-miterlimit:4;" d="M 46.200514 106.899937 C 46.200514 108.391647 44.990879 109.600934 43.499994 109.600934 C 42.009109 109.600934 40.799473 108.391647 40.799473 106.899937 C 40.799473 105.40951 42.009109 104.200223 43.499994 104.200223 C 44.990879 104.200223 46.200514 105.40951 46.200514 106.899937 Z M 46.200514 106.899937 " transform="matrix(3,0,0,3.042857,0,0)"/>
<path style=" stroke:none;fill-rule:nonzero;fill:rgb(0%,39.607843%,71.764706%);fill-opacity:1;" d="M 72.597656 244.035156 L 63.296875 233.691406 L 54.296875 244.035156 L 54.296875 326.5 L 72.597656 326.5 Z M 72.597656 244.035156 "/>
<path style=" stroke:none;fill-rule:nonzero;fill:rgb(0%,30.196078%,63.137255%);fill-opacity:1;" d="M 72.597656 244.035156 L 63.296875 233.691406 L 63.296875 326.5 L 72.597656 326.5 Z M 72.597656 244.035156 "/>
<path style="fill:none;stroke-width:0.4;stroke-linecap:round;stroke-linejoin:round;stroke:rgb(0%,0%,0%);stroke-opacity:1;stroke-miterlimit:4;" d="M 24.199215 80.199344 L 21.098955 76.799989 L 18.098956 80.199344 L 18.098956 107.300465 L 24.199215 107.300465 Z M 24.199215 80.199344 " transform="matrix(3,0,0,3.042857,0,0)"/>
<path style="fill-rule:nonzero;fill:rgb(0%,39.607843%,71.764706%);fill-opacity:1;stroke-width:0.4;stroke-linecap:round;stroke-linejoin:round;stroke:rgb(0%,0%,0%);stroke-opacity:1;stroke-miterlimit:4;" d="M 21.098955 76.799989 L 21.199216 107.199049 " transform="matrix(3,0,0,3.042857,0,0)"/>
<path style="fill-rule:nonzero;fill:rgb(99.607843%,74.901961%,6.27451%);fill-opacity:1;stroke-width:0.4;stroke-linecap:round;stroke-linejoin:round;stroke:rgb(0%,0%,0%);stroke-opacity:1;stroke-miterlimit:4;" d="M 21.110674 106.950003 L 18.32031 104.089821 L 21.160153 101.329771 L 23.949215 104.189953 Z M 21.110674 106.950003 " transform="matrix(3,0,0,3.042857,0,0)"/>
<path style=" stroke:none;fill-rule:nonzero;fill:rgb(0%,0%,0%);fill-opacity:1;" d="M 63.296875 328.597656 L 54.929688 319.863281 L 63.449219 311.46875 L 71.820312 320.199219 Z M 63.296875 328.597656 "/>
<path style="fill-rule:nonzero;fill:rgb(99.607843%,74.901961%,6.27451%);fill-opacity:1;stroke-width:0.4;stroke-linecap:round;stroke-linejoin:round;stroke:rgb(0%,0%,0%);stroke-opacity:1;stroke-miterlimit:4;" d="M 18.200518 112.500912 C 18.300779 107.699709 19.600258 104.599467 21.199216 104.699599 C 22.799476 104.799731 23.999997 107.799841 23.999997 112.59976 C 23.835934 115.755203 22.798174 118.802812 20.999997 121.399826 C 19.268226 118.746327 18.300779 115.667909 18.200518 112.500912 Z M 18.200518 112.500912 " transform="matrix(3,0,0,3.042857,0,0)"/>
<path style="fill:none;stroke-width:0.4;stroke-linecap:round;stroke-linejoin:round;stroke:rgb(0%,0%,0%);stroke-opacity:1;stroke-miterlimit:4;" d="M 23.899736 110.299291 C 23.299476 111.400743 22.499997 112.000252 20.700518 113.599797 C 19.839841 114.298154 19.153643 115.189072 18.700518 116.200662 M 19.499997 118.499848 C 19.927081 117.697508 20.503903 116.98503 21.199216 116.400927 C 22.160153 115.635815 23.062497 114.798814 23.899736 113.900193 M 23.499997 107.300465 C 22.597653 108.609884 21.48307 109.760118 20.200518 110.699819 C 19.386716 111.340407 18.736977 112.162004 18.300779 113.100421 " transform="matrix(3,0,0,3.042857,0,0)"/>
<path style="fill:none;stroke-width:0.4;stroke-linecap:round;stroke-linejoin:round;stroke:rgb(0%,0%,0%);stroke-opacity:1;stroke-miterlimit:4;" d="M 18.700518 116.200662 C 19.153643 115.189072 19.839841 114.298154 20.700518 113.599797 C 22.499997 112.000252 23.299476 111.400743 23.899736 110.299291 M 22.700518 105.100127 C 21.86458 106.096313 20.92708 107.001352 19.899737 107.799841 L 18.499997 109.299254 M 18.300779 113.100421 C 18.736977 112.162004 19.386716 111.340407 20.200518 110.699819 C 21.48307 109.760118 22.597653 108.609884 23.499997 107.300465 " transform="matrix(3,0,0,3.042857,0,0)"/>
<path style="fill-rule:nonzero;fill:rgb(99.607843%,74.901961%,6.27451%);fill-opacity:1;stroke-width:0.4;stroke-linecap:round;stroke-linejoin:round;stroke:rgb(0%,0%,0%);stroke-opacity:1;stroke-miterlimit:4;" d="M 19.899737 106.799805 C 19.899737 108.622721 18.421872 110.100311 16.600258 110.100311 C 14.777342 110.100311 13.300779 108.622721 13.300779 106.799805 C 13.300779 104.976888 14.777342 103.499299 16.600258 103.499299 C 18.421872 103.499299 19.899737 104.976888 19.899737 106.799805 Z M 19.899737 106.799805 " transform="matrix(3,0,0,3.042857,0,0)"/>
<path style="fill-rule:nonzero;fill:rgb(99.607843%,74.901961%,6.27451%);fill-opacity:1;stroke-width:0.4;stroke-linecap:round;stroke-linejoin:round;stroke:rgb(0%,0%,0%);stroke-opacity:1;stroke-miterlimit:4;" d="M 18.899737 106.799805 C 18.899737 108.070711 17.869789 109.100274 16.600258 109.100274 C 15.329425 109.100274 14.300779 108.070711 14.300779 106.799805 C 14.300779 105.530182 15.329425 104.499335 16.600258 104.499335 C 17.869789 104.499335 18.899737 105.530182 18.899737 106.799805 Z M 18.899737 106.799805 " transform="matrix(3,0,0,3.042857,0,0)"/>
<path style=" stroke:none;fill-rule:nonzero;fill:rgb(81.568627%,60.784314%,2.745098%);fill-opacity:1;" d="M 53.699219 324.976562 C 53.699219 327.164062 51.953125 328.933594 49.800781 328.933594 C 47.648438 328.933594 45.902344 327.164062 45.902344 324.976562 C 45.902344 322.792969 47.648438 321.023438 49.800781 321.023438 C 51.953125 321.023438 53.699219 322.792969 53.699219 324.976562 Z M 53.699219 324.976562 "/>
<path style="fill-rule:nonzero;fill:rgb(99.607843%,74.901961%,6.27451%);fill-opacity:1;stroke-width:0.4;stroke-linecap:round;stroke-linejoin:round;stroke:rgb(0%,0%,0%);stroke-opacity:1;stroke-miterlimit:4;" d="M 28.999996 107.000069 C 28.999996 108.821702 27.522132 110.299291 25.700517 110.299291 C 23.877601 110.299291 22.401039 108.821702 22.401039 107.000069 C 22.401039 105.177152 23.877601 103.699563 25.700517 103.699563 C 27.522132 103.699563 28.999996 105.177152 28.999996 107.000069 Z M 28.999996 107.000069 " transform="matrix(3,0,0,3.042857,0,0)"/>
<path style="fill-rule:nonzero;fill:rgb(99.607843%,74.901961%,6.27451%);fill-opacity:1;stroke-width:0.4;stroke-linecap:round;stroke-linejoin:round;stroke:rgb(0%,0%,0%);stroke-opacity:1;stroke-miterlimit:4;" d="M 27.999996 107.000069 C 27.999996 108.270975 26.970048 109.299254 25.700517 109.299254 C 24.429684 109.299254 23.401038 108.270975 23.401038 107.000069 C 23.401038 105.729162 24.429684 104.699599 25.700517 104.699599 C 26.970048 104.699599 27.999996 105.729162 27.999996 107.000069 Z M 27.999996 107.000069 " transform="matrix(3,0,0,3.042857,0,0)"/>
<path style=" stroke:none;fill-rule:nonzero;fill:rgb(81.568627%,60.784314%,2.745098%);fill-opacity:1;" d="M 81 325.585938 C 81 327.769531 79.253906 329.542969 77.101562 329.542969 C 74.945312 329.542969 73.203125 327.769531 73.203125 325.585938 C 73.203125 323.402344 74.945312 321.632812 77.101562 321.632812 C 79.253906 321.632812 81 323.402344 81 325.585938 Z M 81 325.585938 "/>
<path style="fill-rule:nonzero;fill:rgb(99.607843%,74.901961%,6.27451%);fill-opacity:1;stroke-width:0.4;stroke-linecap:round;stroke-linejoin:round;stroke:rgb(0%,0%,0%);stroke-opacity:1;stroke-miterlimit:4;" d="M 22.400283 122.399915 C 22.399756 121.902478 21.77274 121.499735 20.999855 121.50011 C 20.226953 121.499182 19.599637 121.902512 19.600164 122.399949 C 19.600691 122.897386 20.227707 123.300129 20.999308 123.299772 C 21.773494 123.300681 22.399526 122.89737 22.400283 122.399915 Z M 22.400283 122.399915 " transform="matrix(0.0418866,-3.04256,2.999708,0.0424849,-304.77801,431.473591)"/>
<path style="fill-rule:nonzero;fill:rgb(99.607843%,74.901961%,6.27451%);fill-opacity:1;stroke-width:0.4;stroke-linecap:round;stroke-linejoin:round;stroke:rgb(0%,0%,0%);stroke-opacity:1;stroke-miterlimit:4;" d="M 23.798938 120.700625 C 23.799692 119.927102 23.396785 119.299853 22.899934 119.30028 C 22.403064 119.299405 21.999694 119.926192 22.000224 120.699697 C 22.000754 121.473203 22.402377 122.100469 22.900512 122.100024 C 23.397363 122.099597 23.79945 121.472829 23.798938 120.700625 Z M 23.798938 120.700625 " transform="matrix(0.0418866,-3.04256,2.999708,0.0424849,-294.293908,431.78956)"/>
<path style="fill-rule:nonzero;fill:rgb(99.607843%,74.901961%,6.27451%);fill-opacity:1;stroke-width:0.4;stroke-linecap:round;stroke-linejoin:round;stroke:rgb(0%,0%,0%);stroke-opacity:1;stroke-miterlimit:4;" d="M 20.099657 120.700131 C 20.099127 119.926626 19.697504 119.29936 19.199387 119.301106 C 18.702517 119.300231 18.300431 119.927 18.300943 120.699203 C 18.300189 121.472727 18.703096 122.099975 19.199947 122.099548 C 19.696817 122.100423 20.098903 121.473655 20.099657 120.700131 Z M 20.099657 120.700131 " transform="matrix(0.0418866,-3.04256,2.999708,0.0424849,-305.121852,420.835076)"/>
<path style="fill-rule:nonzero;fill:rgb(99.607843%,74.901961%,6.27451%);fill-opacity:1;stroke-width:0.4;stroke-linecap:round;stroke-linejoin:round;stroke:rgb(0%,0%,0%);stroke-opacity:1;stroke-miterlimit:4;" d="M 22.098955 120.600053 C 22.098955 121.152063 21.652341 121.60009 21.098955 121.60009 C 20.548174 121.60009 20.098956 121.152063 20.098956 120.600053 C 20.098956 120.048043 20.548174 119.600017 21.098955 119.600017 C 21.652341 119.600017 22.098955 120.048043 22.098955 120.600053 Z M 22.098955 120.600053 " transform="matrix(3,0,0,3.042857,0,0)"/>
<path style=" stroke:none;fill-rule:nonzero;fill:rgb(81.568627%,60.784314%,2.745098%);fill-opacity:1;" d="M 63.296875 369.097656 L 64.5 368.492188 C 63.296875 368.492188 62.699219 367.574219 62.699219 366.359375 C 62.648438 365.710938 63.011719 365.097656 63.597656 364.839844 L 63.296875 364.839844 C 62.140625 364.839844 61.199219 365.789062 61.199219 366.96875 C 61.332031 368.085938 62.199219 368.964844 63.296875 369.097656 Z M 63.296875 369.097656 "/>
<path style="fill-rule:nonzero;fill:rgb(99.607843%,74.901961%,6.27451%);fill-opacity:1;stroke-width:0.4;stroke-linecap:round;stroke-linejoin:round;stroke:rgb(0%,0%,0%);stroke-opacity:1;stroke-miterlimit:4;" d="M 22.799476 109.699782 C 22.799476 110.584282 22.08333 111.299328 21.199216 111.299328 C 20.316403 111.299328 19.600258 110.584282 19.600258 109.699782 C 19.600258 108.816567 20.316403 108.100237 21.199216 108.100237 C 22.08333 108.100237 22.799476 108.816567 22.799476 109.699782 Z M 22.799476 109.699782 " transform="matrix(3,0,0,3.042857,0,0)"/>
<path style=" stroke:none;fill-rule:nonzero;fill:rgb(0%,0%,0%);fill-opacity:1;" d="M 66.597656 333.800781 C 66.597656 335.484375 65.257812 336.84375 63.597656 336.84375 C 61.941406 336.84375 60.601562 335.484375 60.601562 333.800781 C 60.601562 332.117188 61.941406 330.757812 63.597656 330.757812 C 65.257812 330.757812 66.597656 332.117188 66.597656 333.800781 Z M 66.597656 333.800781 "/>
<path style="fill-rule:nonzero;fill:rgb(99.607843%,74.901961%,6.27451%);fill-opacity:1;stroke-width:0.4;stroke-linecap:round;stroke-linejoin:round;stroke:rgb(0%,0%,0%);stroke-opacity:1;stroke-miterlimit:4;" d="M 25.499996 106.899937 C 25.499996 107.783153 24.783851 108.499482 23.899736 108.499482 C 23.016924 108.499482 22.300778 107.783153 22.300778 106.899937 C 22.300778 106.015437 23.016924 105.300392 23.899736 105.300392 C 24.783851 105.300392 25.499996 106.015437 25.499996 106.899937 Z M 25.499996 106.899937 " transform="matrix(3,0,0,3.042857,0,0)"/>
<path style=" stroke:none;fill-rule:nonzero;fill:rgb(0%,0%,0%);fill-opacity:1;" d="M 74.699219 325.28125 C 74.699219 326.960938 73.355469 328.324219 71.699219 328.324219 C 70.042969 328.324219 68.699219 326.960938 68.699219 325.28125 C 68.699219 323.601562 70.042969 322.238281 71.699219 322.238281 C 73.355469 322.238281 74.699219 323.601562 74.699219 325.28125 Z M 74.699219 325.28125 "/>
<path style="fill-rule:nonzero;fill:rgb(99.607843%,74.901961%,6.27451%);fill-opacity:1;stroke-width:0.4;stroke-linecap:round;stroke-linejoin:round;stroke:rgb(0%,0%,0%);stroke-opacity:1;stroke-miterlimit:4;" d="M 19.799476 106.899937 C 19.799476 107.783153 19.083331 108.499482 18.200518 108.499482 C 17.316404 108.499482 16.600258 107.783153 16.600258 106.899937 C 16.600258 106.015437 17.316404 105.300392 18.200518 105.300392 C 19.083331 105.300392 19.799476 106.015437 19.799476 106.899937 Z M 19.799476 106.899937 " transform="matrix(3,0,0,3.042857,0,0)"/>
<path style=" stroke:none;fill-rule:nonzero;fill:rgb(0%,0%,0%);fill-opacity:1;" d="M 57.601562 325.28125 C 57.601562 326.960938 56.257812 328.324219 54.601562 328.324219 C 52.941406 328.324219 51.601562 326.960938 51.601562 325.28125 C 51.601562 323.601562 52.941406 322.238281 54.601562 322.238281 C 56.257812 322.238281 57.601562 323.601562 57.601562 325.28125 Z M 57.601562 325.28125 "/>
<path style="fill-rule:nonzero;fill:rgb(99.607843%,74.901961%,6.27451%);fill-opacity:1;stroke-width:0.4;stroke-linecap:round;stroke-linejoin:round;stroke:rgb(0%,0%,0%);stroke-opacity:1;stroke-miterlimit:4;" d="M 23.899736 106.899937 C 23.899736 108.391647 22.691403 109.600934 21.199216 109.600934 C 19.708331 109.600934 18.499997 108.391647 18.499997 106.899937 C 18.499997 105.40951 19.708331 104.200223 21.199216 104.200223 C 22.691403 104.200223 23.899736 105.40951 23.899736 106.899937 Z M 23.899736 106.899937 " transform="matrix(3,0,0,3.042857,0,0)"/>
</g>
</svg>
