<?xml version="1.0" encoding="UTF-8"?>
<svg xmlns="http://www.w3.org/2000/svg" xmlns:xlink="http://www.w3.org/1999/xlink" width="261px" height="420px" viewBox="0 0 261 426" version="1.1">
<g id="surface1">
<path style=" stroke:none;fill-rule:nonzero;fill:rgb(100%,100%,100%);fill-opacity:1;" d="M 18 0 L 243 0 C 252.941406 0 261 8.175781 261 18.257812 L 261 407.742188 C 261 417.824219 252.941406 426 243 426 L 18 426 C 8.058594 426 0 417.824219 0 407.742188 L 0 18.257812 C 0 8.175781 8.058594 0 18 0 Z M 18 0 "/>
<path style=" stroke:none;fill-rule:nonzero;fill:rgb(0%,39.607843%,71.764706%);fill-opacity:1;" d="M 81 366.359375 L 72 376.707031 L 62.699219 366.359375 L 62.699219 284.203125 L 81 284.203125 Z M 81 366.359375 "/>
<path style=" stroke:none;fill-rule:nonzero;fill:rgb(0%,30.196078%,63.137255%);fill-opacity:1;" d="M 81 366.359375 L 72 376.707031 L 71.699219 284.203125 L 81 284.203125 Z M 81 366.359375 "/>
<path style="fill:none;stroke-width:0.4;stroke-linecap:round;stroke-linejoin:round;stroke:rgb(0%,0%,0%);stroke-opacity:1;stroke-miterlimit:4;" d="M 26.999996 120.399789 L 23.999997 123.800427 L 20.899737 120.399789 L 20.899737 93.400084 L 26.999996 93.400084 Z M 26.999996 120.399789 " transform="matrix(3,0,0,3.042857,0,0)"/>
<path style="fill:none;stroke-width:0.4;stroke-linecap:round;stroke-linejoin:round;stroke:rgb(0%,0%,0%);stroke-opacity:1;stroke-miterlimit:4;" d="M 23.999997 123.800427 L 23.999997 93.500216 " transform="matrix(3,0,0,3.042857,0,0)"/>
<path style="fill-rule:nonzero;fill:rgb(99.607843%,74.901961%,6.27451%);fill-opacity:1;stroke-width:0.4;stroke-linecap:round;stroke-linejoin:round;stroke:rgb(0%,0%,0%);stroke-opacity:1;stroke-miterlimit:4;" d="M 23.98958 93.749262 L 26.779944 96.620998 L 23.940101 99.379764 L 21.149737 96.510596 Z M 23.98958 93.749262 " transform="matrix(3,0,0,3.042857,0,0)"/>
<path style=" stroke:none;fill-rule:nonzero;fill:rgb(0%,0%,0%);fill-opacity:1;" d="M 72 281.953125 L 80.402344 290.652344 L 71.878906 299.082031 L 63.480469 290.351562 Z M 72 281.953125 "/>
<path style="fill-rule:nonzero;fill:rgb(99.607843%,74.901961%,6.27451%);fill-opacity:1;stroke-width:0.4;stroke-linecap:round;stroke-linejoin:round;stroke:rgb(0%,0%,0%);stroke-opacity:1;stroke-miterlimit:4;" d="M 26.800778 88.099505 C 26.800778 92.900707 25.401038 96.000949 23.899736 95.899534 C 22.401039 95.800685 20.999997 92.900707 21.098955 88.000656 C 21.263018 84.845213 22.30208 81.797605 24.100257 79.199307 C 25.824215 81.851522 26.761715 84.937643 26.800778 88.099505 Z M 26.800778 88.099505 " transform="matrix(3,0,0,3.042857,0,0)"/>
<path style="fill:none;stroke-width:0.4;stroke-linecap:round;stroke-linejoin:round;stroke:rgb(0%,0%,0%);stroke-opacity:1;stroke-miterlimit:4;" d="M 21.199216 90.299842 C 21.799476 89.200957 22.499997 88.600165 24.299476 87.099468 C 25.182288 86.380571 25.869788 85.452424 26.299475 84.399754 M 25.600257 82.099285 C 25.131507 82.902909 24.522132 83.614103 23.799476 84.19949 C 22.86458 84.959467 21.996091 85.795184 21.199216 86.700224 M 21.600257 93.299952 C 22.528643 92.012357 23.640622 90.865973 24.899736 89.899314 C 25.682288 89.229199 26.328121 88.415306 26.800778 87.499996 " transform="matrix(3,0,0,3.042857,0,0)"/>
<path style="fill:none;stroke-width:0.4;stroke-linecap:round;stroke-linejoin:round;stroke:rgb(0%,0%,0%);stroke-opacity:1;stroke-miterlimit:4;" d="M 26.299475 84.399754 C 25.869788 85.452424 25.182288 86.380571 24.299476 87.099468 C 22.499997 88.600165 21.799476 89.200957 21.199216 90.299842 M 22.401039 95.500289 C 23.20833 94.478429 24.149736 93.569538 25.199215 92.799292 L 26.499996 91.301162 M 26.800778 87.499996 C 26.328121 88.415306 25.682288 89.229199 24.899736 89.899314 C 23.640622 90.865973 22.528643 92.012357 21.600257 93.299952 " transform="matrix(3,0,0,3.042857,0,0)"/>
<path style="fill-rule:nonzero;fill:rgb(99.607843%,74.901961%,6.27451%);fill-opacity:1;stroke-width:0.4;stroke-linecap:round;stroke-linejoin:round;stroke:rgb(0%,0%,0%);stroke-opacity:1;stroke-miterlimit:4;" d="M 31.899735 93.799328 C 31.899735 95.622245 30.423173 97.099834 28.600256 97.099834 C 26.77734 97.099834 25.299476 95.622245 25.299476 93.799328 C 25.299476 91.976412 26.77734 90.498822 28.600256 90.498822 C 30.423173 90.498822 31.899735 91.976412 31.899735 93.799328 Z M 31.899735 93.799328 " transform="matrix(3,0,0,3.042857,0,0)"/>
<path style="fill-rule:nonzero;fill:rgb(99.607843%,74.901961%,6.27451%);fill-opacity:1;stroke-width:0.4;stroke-linecap:round;stroke-linejoin:round;stroke:rgb(0%,0%,0%);stroke-opacity:1;stroke-miterlimit:4;" d="M 30.899735 93.799328 C 30.899735 95.070235 29.869787 96.099798 28.600256 96.099798 C 27.329423 96.099798 26.299475 95.070235 26.299475 93.799328 C 26.299475 92.529705 27.329423 91.500143 28.600256 91.500143 C 29.869787 91.500143 30.899735 92.529705 30.899735 93.799328 Z M 30.899735 93.799328 " transform="matrix(3,0,0,3.042857,0,0)"/>
<path style=" stroke:none;fill-rule:nonzero;fill:rgb(81.568627%,60.784314%,2.745098%);fill-opacity:1;" d="M 89.699219 285.417969 C 89.699219 287.605469 87.953125 289.375 85.800781 289.375 C 83.644531 289.375 81.898438 287.605469 81.898438 285.417969 C 81.898438 283.234375 83.644531 281.464844 85.800781 281.464844 C 87.953125 281.464844 89.699219 283.234375 89.699219 285.417969 Z M 89.699219 285.417969 "/>
<path style="fill-rule:nonzero;fill:rgb(99.607843%,74.901961%,6.27451%);fill-opacity:1;stroke-width:0.4;stroke-linecap:round;stroke-linejoin:round;stroke:rgb(0%,0%,0%);stroke-opacity:1;stroke-miterlimit:4;" d="M 22.700518 93.70048 C 22.700518 95.522113 21.222653 96.999702 19.399737 96.999702 C 17.57682 96.999702 16.100258 95.522113 16.100258 93.70048 C 16.100258 91.877563 17.57682 90.399974 19.399737 90.399974 C 21.222653 90.399974 22.700518 91.877563 22.700518 93.70048 Z M 22.700518 93.70048 " transform="matrix(3,0,0,3.042857,0,0)"/>
<path style="fill-rule:nonzero;fill:rgb(99.607843%,74.901961%,6.27451%);fill-opacity:1;stroke-width:0.4;stroke-linecap:round;stroke-linejoin:round;stroke:rgb(0%,0%,0%);stroke-opacity:1;stroke-miterlimit:4;" d="M 21.700518 93.70048 C 21.700518 94.970103 20.67057 96.000949 19.399737 96.000949 C 18.130206 96.000949 17.100258 94.970103 17.100258 93.70048 C 17.100258 92.430857 18.130206 91.400011 19.399737 91.400011 C 20.67057 91.400011 21.700518 92.430857 21.700518 93.70048 Z M 21.700518 93.70048 " transform="matrix(3,0,0,3.042857,0,0)"/>
<path style=" stroke:none;fill-rule:nonzero;fill:rgb(81.568627%,60.784314%,2.745098%);fill-opacity:1;" d="M 62.101562 285.117188 C 62.101562 287.300781 60.351562 289.074219 58.199219 289.074219 C 56.046875 289.074219 54.296875 287.300781 54.296875 285.117188 C 54.296875 282.929688 56.046875 281.160156 58.199219 281.160156 C 60.351562 281.160156 62.101562 282.929688 62.101562 285.117188 Z M 62.101562 285.117188 "/>
<path style="fill-rule:nonzero;fill:rgb(99.607843%,74.901961%,6.27451%);fill-opacity:1;stroke-width:0.4;stroke-linecap:round;stroke-linejoin:round;stroke:rgb(0%,0%,0%);stroke-opacity:1;stroke-miterlimit:4;" d="M 25.399852 78.199466 C 25.400627 77.703313 24.773593 77.299268 23.999425 77.29966 C 23.226541 77.300035 22.599225 77.703364 22.601017 78.199481 C 22.60026 78.696936 23.227276 79.099679 23.998895 79.100624 C 24.773063 79.100232 25.399095 78.69692 25.399852 78.199466 Z M 25.399852 78.199466 " transform="matrix(0.0418866,-3.04256,2.999708,0.0424849,-163.494914,307.923126)"/>
<path style="fill-rule:nonzero;fill:rgb(99.607843%,74.901961%,6.27451%);fill-opacity:1;stroke-width:0.4;stroke-linecap:round;stroke-linejoin:round;stroke:rgb(0%,0%,0%);stroke-opacity:1;stroke-miterlimit:4;" d="M 23.099492 79.900236 C 23.100246 79.126712 22.696056 78.499482 22.200488 78.499891 C 21.703636 78.500318 21.298983 79.127122 21.299494 79.899326 C 21.300024 80.672831 21.702931 81.300079 22.199782 81.299653 C 22.696634 81.299226 23.100022 80.673741 23.099492 79.900236 Z M 23.099492 79.900236 " transform="matrix(0.0418866,-3.04256,2.999708,0.0424849,-173.976935,307.30501)"/>
<path style="fill-rule:nonzero;fill:rgb(99.607843%,74.901961%,6.27451%);fill-opacity:1;stroke-width:0.4;stroke-linecap:round;stroke-linejoin:round;stroke:rgb(0%,0%,0%);stroke-opacity:1;stroke-miterlimit:4;" d="M 26.699781 79.899991 C 26.699384 79.126516 26.297413 78.500482 25.799293 78.50049 C 25.302443 78.499183 24.900766 79.127121 24.899866 79.899308 C 24.900263 80.672784 25.303531 81.300106 25.800368 81.300111 C 26.29592 81.30013 26.700165 80.672165 26.699781 79.899991 Z M 26.699781 79.899991 " transform="matrix(0.0314153,-3.04269,2.999836,0.0318641,-163.451416,318.29087)"/>
<path style="fill-rule:nonzero;fill:rgb(99.607843%,74.901961%,6.27451%);fill-opacity:1;stroke-width:0.4;stroke-linecap:round;stroke-linejoin:round;stroke:rgb(0%,0%,0%);stroke-opacity:1;stroke-miterlimit:4;" d="M 24.999997 79.99908 C 24.999997 80.552373 24.553382 81.0004 23.999997 81.0004 C 23.447913 81.0004 22.999997 80.552373 22.999997 79.99908 C 22.999997 79.448353 23.447913 78.999043 23.999997 78.999043 C 24.553382 78.999043 24.999997 79.448353 24.999997 79.99908 Z M 24.999997 79.99908 " transform="matrix(3,0,0,3.042857,0,0)"/>
<path style=" stroke:none;fill-rule:nonzero;fill:rgb(81.568627%,60.784314%,2.745098%);fill-opacity:1;" d="M 72 241.601562 L 70.800781 241.601562 C 71.84375 241.757812 72.609375 242.664062 72.597656 243.734375 C 72.652344 244.382812 72.292969 244.996094 71.699219 245.253906 L 72 245.253906 C 72.898438 245.253906 74.101562 244.339844 74.101562 243.425781 C 73.949219 242.371094 73.050781 241.59375 72 241.601562 Z M 72 241.601562 "/>
<path style="fill-rule:nonzero;fill:rgb(99.607843%,74.901961%,6.27451%);fill-opacity:1;stroke-width:0.4;stroke-linecap:round;stroke-linejoin:round;stroke:rgb(0%,0%,0%);stroke-opacity:1;stroke-miterlimit:4;" d="M 25.499996 90.89935 C 25.499996 91.78385 24.783851 92.500179 23.899736 92.500179 C 23.016924 92.500179 22.300778 91.78385 22.300778 90.89935 C 22.300778 90.016135 23.016924 89.299805 23.899736 89.299805 C 24.783851 89.299805 25.499996 90.016135 25.499996 90.89935 Z M 25.499996 90.89935 " transform="matrix(3,0,0,3.042857,0,0)"/>
<path style=" stroke:none;fill-rule:nonzero;fill:rgb(0%,0%,0%);fill-opacity:1;" d="M 74.699219 276.59375 C 74.699219 278.277344 73.355469 279.640625 71.699219 279.640625 C 70.042969 279.640625 68.699219 278.277344 68.699219 276.59375 C 68.699219 274.917969 70.042969 273.550781 71.699219 273.550781 C 73.355469 273.550781 74.699219 274.917969 74.699219 276.59375 Z M 74.699219 276.59375 "/>
<path style="fill-rule:nonzero;fill:rgb(99.607843%,74.901961%,6.27451%);fill-opacity:1;stroke-width:0.4;stroke-linecap:round;stroke-linejoin:round;stroke:rgb(0%,0%,0%);stroke-opacity:1;stroke-miterlimit:4;" d="M 22.799476 93.70048 C 22.799476 94.583696 22.08333 95.300025 21.199216 95.300025 C 20.316403 95.300025 19.600258 94.583696 19.600258 93.70048 C 19.600258 92.81598 20.316403 92.100935 21.199216 92.100935 C 22.08333 92.100935 22.799476 92.81598 22.799476 93.70048 Z M 22.799476 93.70048 " transform="matrix(3,0,0,3.042857,0,0)"/>
<path style=" stroke:none;fill-rule:nonzero;fill:rgb(0%,0%,0%);fill-opacity:1;" d="M 66.597656 285.117188 C 66.597656 286.796875 65.257812 288.160156 63.597656 288.160156 C 61.941406 288.160156 60.601562 286.796875 60.601562 285.117188 C 60.601562 283.433594 61.941406 282.074219 63.597656 282.074219 C 65.257812 282.074219 66.597656 283.433594 66.597656 285.117188 Z M 66.597656 285.117188 "/>
<path style="fill-rule:nonzero;fill:rgb(99.607843%,74.901961%,6.27451%);fill-opacity:1;stroke-width:0.4;stroke-linecap:round;stroke-linejoin:round;stroke:rgb(0%,0%,0%);stroke-opacity:1;stroke-miterlimit:4;" d="M 28.499996 93.70048 C 28.499996 94.583696 27.782548 95.300025 26.899736 95.300025 C 26.016923 95.300025 25.299476 94.583696 25.299476 93.70048 C 25.299476 92.81598 26.016923 92.100935 26.899736 92.100935 C 27.782548 92.100935 28.499996 92.81598 28.499996 93.70048 Z M 28.499996 93.70048 " transform="matrix(3,0,0,3.042857,0,0)"/>
<path style=" stroke:none;fill-rule:nonzero;fill:rgb(0%,0%,0%);fill-opacity:1;" d="M 83.699219 285.117188 C 83.699219 286.796875 82.355469 288.160156 80.699219 288.160156 C 79.042969 288.160156 77.699219 286.796875 77.699219 285.117188 C 77.699219 283.433594 79.042969 282.074219 80.699219 282.074219 C 82.355469 282.074219 83.699219 283.433594 83.699219 285.117188 Z M 83.699219 285.117188 "/>
<path style="fill-rule:nonzero;fill:rgb(99.607843%,74.901961%,6.27451%);fill-opacity:1;stroke-width:0.4;stroke-linecap:round;stroke-linejoin:round;stroke:rgb(0%,0%,0%);stroke-opacity:1;stroke-miterlimit:4;" d="M 26.600257 93.70048 C 26.600257 95.190907 25.390621 96.400194 23.899736 96.400194 C 22.408851 96.400194 21.199216 95.190907 21.199216 93.70048 C 21.199216 92.208769 22.408851 90.999483 23.899736 90.999483 C 25.390621 90.999483 26.600257 92.208769 26.600257 93.70048 Z M 26.600257 93.70048 " transform="matrix(3,0,0,3.042857,0,0)"/>
<path style=" stroke:none;fill-rule:nonzero;fill:rgb(0%,39.607843%,71.764706%);fill-opacity:1;" d="M 139.5 366.359375 L 130.5 376.707031 L 121.199219 366.359375 L 121.199219 284.203125 L 139.5 284.203125 Z M 139.5 366.359375 "/>
<path style=" stroke:none;fill-rule:nonzero;fill:rgb(0%,30.196078%,63.137255%);fill-opacity:1;" d="M 139.5 366.359375 L 130.5 376.707031 L 130.199219 284.203125 L 139.5 284.203125 Z M 139.5 366.359375 "/>
<path style="fill:none;stroke-width:0.4;stroke-linecap:round;stroke-linejoin:round;stroke:rgb(0%,0%,0%);stroke-opacity:1;stroke-miterlimit:4;" d="M 46.499994 120.399789 L 43.499994 123.800427 L 40.399734 120.399789 L 40.399734 93.400084 L 46.499994 93.400084 Z M 46.499994 120.399789 " transform="matrix(3,0,0,3.042857,0,0)"/>
<path style="fill:none;stroke-width:0.4;stroke-linecap:round;stroke-linejoin:round;stroke:rgb(0%,0%,0%);stroke-opacity:1;stroke-miterlimit:4;" d="M 43.499994 123.800427 L 43.499994 93.500216 " transform="matrix(3,0,0,3.042857,0,0)"/>
<path style="fill-rule:nonzero;fill:rgb(99.607843%,74.901961%,6.27451%);fill-opacity:1;stroke-width:0.4;stroke-linecap:round;stroke-linejoin:round;stroke:rgb(0%,0%,0%);stroke-opacity:1;stroke-miterlimit:4;" d="M 43.480463 93.730006 L 46.279941 96.600458 L 43.430984 99.359224 L 40.649734 96.490056 Z M 43.480463 93.730006 " transform="matrix(3,0,0,3.042857,0,0)"/>
<path style=" stroke:none;fill-rule:nonzero;fill:rgb(0%,0%,0%);fill-opacity:1;" d="M 130.5 281.890625 L 138.867188 290.59375 L 130.351562 299.019531 L 121.976562 290.289062 Z M 130.5 281.890625 "/>
<path style="fill-rule:nonzero;fill:rgb(99.607843%,74.901961%,6.27451%);fill-opacity:1;stroke-width:0.4;stroke-linecap:round;stroke-linejoin:round;stroke:rgb(0%,0%,0%);stroke-opacity:1;stroke-miterlimit:4;" d="M 46.300775 88.099505 C 46.300775 92.900707 44.899733 96.000949 43.399734 95.899534 C 41.899734 95.800685 40.499994 92.900707 40.600255 88.000656 C 40.763015 84.845213 41.802077 81.797605 43.600254 79.199307 C 45.324212 81.851522 46.261712 84.937643 46.300775 88.099505 Z M 46.300775 88.099505 " transform="matrix(3,0,0,3.042857,0,0)"/>
<path style="fill:none;stroke-width:0.4;stroke-linecap:round;stroke-linejoin:round;stroke:rgb(0%,0%,0%);stroke-opacity:1;stroke-miterlimit:4;" d="M 40.699213 90.299842 C 41.300775 89.200957 41.999994 88.600165 43.799473 87.099468 C 44.680983 86.380571 45.369785 85.452424 45.799473 84.399754 M 45.100254 82.099285 C 44.631504 82.902909 44.020827 83.614103 43.300775 84.19949 C 42.364577 84.959467 41.494786 85.795184 40.699213 86.700224 M 41.100255 93.299952 C 42.02864 92.012357 43.140619 90.865973 44.399733 89.899314 C 45.182285 89.229199 45.826817 88.415306 46.300775 87.499996 " transform="matrix(3,0,0,3.042857,0,0)"/>
<path style="fill:none;stroke-width:0.4;stroke-linecap:round;stroke-linejoin:round;stroke:rgb(0%,0%,0%);stroke-opacity:1;stroke-miterlimit:4;" d="M 45.799473 84.399754 C 45.369785 85.452424 44.680983 86.380571 43.799473 87.099468 C 41.999994 88.600165 41.300775 89.200957 40.699213 90.299842 M 41.899734 95.500289 C 42.708327 94.478429 43.649733 93.569538 44.699213 92.799292 L 45.999994 91.301162 M 46.300775 87.499996 C 45.826817 88.415306 45.182285 89.229199 44.399733 89.899314 C 43.140619 90.865973 42.02864 92.012357 41.100255 93.299952 " transform="matrix(3,0,0,3.042857,0,0)"/>
<path style="fill-rule:nonzero;fill:rgb(99.607843%,74.901961%,6.27451%);fill-opacity:1;stroke-width:0.4;stroke-linecap:round;stroke-linejoin:round;stroke:rgb(0%,0%,0%);stroke-opacity:1;stroke-miterlimit:4;" d="M 51.401034 93.799328 C 51.401034 95.622245 49.92317 97.099834 48.098952 97.099834 C 46.277337 97.099834 44.799473 95.622245 44.799473 93.799328 C 44.799473 91.976412 46.277337 90.498822 48.098952 90.498822 C 49.92317 90.498822 51.401034 91.976412 51.401034 93.799328 Z M 51.401034 93.799328 " transform="matrix(3,0,0,3.042857,0,0)"/>
<path style="fill-rule:nonzero;fill:rgb(99.607843%,74.901961%,6.27451%);fill-opacity:1;stroke-width:0.4;stroke-linecap:round;stroke-linejoin:round;stroke:rgb(0%,0%,0%);stroke-opacity:1;stroke-miterlimit:4;" d="M 50.401035 93.799328 C 50.401035 95.070235 49.369785 96.099798 48.098952 96.099798 C 46.830723 96.099798 45.799473 95.070235 45.799473 93.799328 C 45.799473 92.529705 46.830723 91.500143 48.098952 91.500143 C 49.369785 91.500143 50.401035 92.529705 50.401035 93.799328 Z M 50.401035 93.799328 " transform="matrix(3,0,0,3.042857,0,0)"/>
<path style=" stroke:none;fill-rule:nonzero;fill:rgb(81.568627%,60.784314%,2.745098%);fill-opacity:1;" d="M 148.199219 285.417969 C 148.199219 287.605469 146.453125 289.375 144.296875 289.375 C 142.144531 289.375 140.398438 287.605469 140.398438 285.417969 C 140.398438 283.234375 142.144531 281.464844 144.296875 281.464844 C 146.453125 281.464844 148.199219 283.234375 148.199219 285.417969 Z M 148.199219 285.417969 "/>
<path style="fill-rule:nonzero;fill:rgb(99.607843%,74.901961%,6.27451%);fill-opacity:1;stroke-width:0.4;stroke-linecap:round;stroke-linejoin:round;stroke:rgb(0%,0%,0%);stroke-opacity:1;stroke-miterlimit:4;" d="M 42.200515 93.70048 C 42.200515 95.522113 40.722651 96.999702 38.901036 96.999702 C 37.076818 96.999702 35.598953 95.522113 35.598953 93.70048 C 35.598953 91.877563 37.076818 90.399974 38.901036 90.399974 C 40.722651 90.399974 42.200515 91.877563 42.200515 93.70048 Z M 42.200515 93.70048 " transform="matrix(3,0,0,3.042857,0,0)"/>
<path style="fill-rule:nonzero;fill:rgb(99.607843%,74.901961%,6.27451%);fill-opacity:1;stroke-width:0.4;stroke-linecap:round;stroke-linejoin:round;stroke:rgb(0%,0%,0%);stroke-opacity:1;stroke-miterlimit:4;" d="M 41.200515 93.70048 C 41.200515 94.970103 40.169265 96.000949 38.901036 96.000949 C 37.630203 96.000949 36.598953 94.970103 36.598953 93.70048 C 36.598953 92.430857 37.630203 91.400011 38.901036 91.400011 C 40.169265 91.400011 41.200515 92.430857 41.200515 93.70048 Z M 41.200515 93.70048 " transform="matrix(3,0,0,3.042857,0,0)"/>
<path style=" stroke:none;fill-rule:nonzero;fill:rgb(81.568627%,60.784314%,2.745098%);fill-opacity:1;" d="M 120.601562 285.117188 C 120.601562 287.300781 118.855469 289.074219 116.703125 289.074219 C 114.546875 289.074219 112.800781 287.300781 112.800781 285.117188 C 112.800781 282.929688 114.546875 281.160156 116.703125 281.160156 C 118.855469 281.160156 120.601562 282.929688 120.601562 285.117188 Z M 120.601562 285.117188 "/>
<path style="fill-rule:nonzero;fill:rgb(99.607843%,74.901961%,6.27451%);fill-opacity:1;stroke-width:0.4;stroke-linecap:round;stroke-linejoin:round;stroke:rgb(0%,0%,0%);stroke-opacity:1;stroke-miterlimit:4;" d="M 44.899305 78.199384 C 44.900062 77.701929 44.273045 77.299186 43.500179 77.300862 C 42.727277 77.299935 42.099943 77.701962 42.10047 78.199399 C 42.099713 78.696854 42.726729 79.099597 43.499613 79.099222 C 44.273799 79.100132 44.899849 78.698123 44.899305 78.199384 Z M 44.899305 78.199384 " transform="matrix(0.0418866,-3.04256,2.999708,0.0424849,-105.901277,367.282638)"/>
<path style="fill-rule:nonzero;fill:rgb(99.607843%,74.901961%,6.27451%);fill-opacity:1;stroke-width:0.4;stroke-linecap:round;stroke-linejoin:round;stroke:rgb(0%,0%,0%);stroke-opacity:1;stroke-miterlimit:4;" d="M 42.600229 79.900136 C 42.599699 79.12663 42.196792 78.499382 41.699959 78.501111 C 41.203089 78.500236 40.799719 79.127022 40.800249 79.900528 C 40.799477 80.672749 41.202384 81.299997 41.699235 81.299571 C 42.197389 81.300428 42.599475 80.673659 42.600229 79.900136 Z M 42.600229 79.900136 " transform="matrix(0.0418866,-3.04256,2.999708,0.0424849,-116.383298,366.664523)"/>
<path style="fill-rule:nonzero;fill:rgb(99.607843%,74.901961%,6.27451%);fill-opacity:1;stroke-width:0.4;stroke-linecap:round;stroke-linejoin:round;stroke:rgb(0%,0%,0%);stroke-opacity:1;stroke-miterlimit:4;" d="M 46.200501 79.899736 C 46.199989 79.127533 45.797064 78.498982 45.300231 78.500711 C 44.802078 78.499854 44.399991 79.126623 44.400521 79.900128 C 44.399749 80.67235 44.802656 81.299598 45.299507 81.299171 C 45.797661 81.300028 46.199747 80.67326 46.200501 79.899736 Z M 46.200501 79.899736 " transform="matrix(0.0418866,-3.04256,2.999708,0.0424849,-105.614933,377.618584)"/>
<path style="fill-rule:nonzero;fill:rgb(99.607843%,74.901961%,6.27451%);fill-opacity:1;stroke-width:0.4;stroke-linecap:round;stroke-linejoin:round;stroke:rgb(0%,0%,0%);stroke-opacity:1;stroke-miterlimit:4;" d="M 44.499994 79.99908 C 44.499994 80.552373 44.052077 81.0004 43.499994 81.0004 C 42.947911 81.0004 42.499994 80.552373 42.499994 79.99908 C 42.499994 79.448353 42.947911 78.999043 43.499994 78.999043 C 44.052077 78.999043 44.499994 79.448353 44.499994 79.99908 Z M 44.499994 79.99908 " transform="matrix(3,0,0,3.042857,0,0)"/>
<path style=" stroke:none;fill-rule:nonzero;fill:rgb(81.568627%,60.784314%,2.745098%);fill-opacity:1;" d="M 130.5 241.601562 L 129.300781 241.601562 C 130.34375 241.757812 131.109375 242.664062 131.097656 243.734375 C 131.152344 244.382812 130.792969 244.996094 130.199219 245.253906 L 130.5 245.253906 C 131.398438 245.253906 132.601562 244.339844 132.601562 243.425781 C 132.453125 242.371094 131.550781 241.59375 130.5 241.601562 Z M 130.5 241.601562 "/>
<path style="fill-rule:nonzero;fill:rgb(99.607843%,74.901961%,6.27451%);fill-opacity:1;stroke-width:0.4;stroke-linecap:round;stroke-linejoin:round;stroke:rgb(0%,0%,0%);stroke-opacity:1;stroke-miterlimit:4;" d="M 44.999994 90.89935 C 44.999994 91.78385 44.283848 92.500179 43.399734 92.500179 C 42.515619 92.500179 41.799473 91.78385 41.799473 90.89935 C 41.799473 90.016135 42.515619 89.299805 43.399734 89.299805 C 44.283848 89.299805 44.999994 90.016135 44.999994 90.89935 Z M 44.999994 90.89935 " transform="matrix(3,0,0,3.042857,0,0)"/>
<path style=" stroke:none;fill-rule:nonzero;fill:rgb(0%,0%,0%);fill-opacity:1;" d="M 133.199219 276.59375 C 133.199219 278.277344 131.855469 279.640625 130.199219 279.640625 C 128.542969 279.640625 127.199219 278.277344 127.199219 276.59375 C 127.199219 274.917969 128.542969 273.550781 130.199219 273.550781 C 131.855469 273.550781 133.199219 274.917969 133.199219 276.59375 Z M 133.199219 276.59375 "/>
<path style="fill-rule:nonzero;fill:rgb(99.607843%,74.901961%,6.27451%);fill-opacity:1;stroke-width:0.4;stroke-linecap:round;stroke-linejoin:round;stroke:rgb(0%,0%,0%);stroke-opacity:1;stroke-miterlimit:4;" d="M 42.300775 93.70048 C 42.300775 94.583696 41.583328 95.300025 40.699213 95.300025 C 39.816401 95.300025 39.100255 94.583696 39.100255 93.70048 C 39.100255 92.81598 39.816401 92.100935 40.699213 92.100935 C 41.583328 92.100935 42.300775 92.81598 42.300775 93.70048 Z M 42.300775 93.70048 " transform="matrix(3,0,0,3.042857,0,0)"/>
<path style=" stroke:none;fill-rule:nonzero;fill:rgb(0%,0%,0%);fill-opacity:1;" d="M 125.097656 285.117188 C 125.097656 286.796875 123.757812 288.160156 122.097656 288.160156 C 120.445312 288.160156 119.097656 286.796875 119.097656 285.117188 C 119.097656 283.433594 120.445312 282.074219 122.097656 282.074219 C 123.757812 282.074219 125.097656 283.433594 125.097656 285.117188 Z M 125.097656 285.117188 "/>
<path style="fill-rule:nonzero;fill:rgb(99.607843%,74.901961%,6.27451%);fill-opacity:1;stroke-width:0.4;stroke-linecap:round;stroke-linejoin:round;stroke:rgb(0%,0%,0%);stroke-opacity:1;stroke-miterlimit:4;" d="M 47.999993 93.70048 C 47.999993 94.583696 47.283848 95.300025 46.399733 95.300025 C 45.515619 95.300025 44.799473 94.583696 44.799473 93.70048 C 44.799473 92.81598 45.515619 92.100935 46.399733 92.100935 C 47.283848 92.100935 47.999993 92.81598 47.999993 93.70048 Z M 47.999993 93.70048 " transform="matrix(3,0,0,3.042857,0,0)"/>
<path style=" stroke:none;fill-rule:nonzero;fill:rgb(0%,0%,0%);fill-opacity:1;" d="M 142.199219 285.117188 C 142.199219 286.796875 140.855469 288.160156 139.199219 288.160156 C 137.542969 288.160156 136.199219 286.796875 136.199219 285.117188 C 136.199219 283.433594 137.542969 282.074219 139.199219 282.074219 C 140.855469 282.074219 142.199219 283.433594 142.199219 285.117188 Z M 142.199219 285.117188 "/>
<path style="fill-rule:nonzero;fill:rgb(99.607843%,74.901961%,6.27451%);fill-opacity:1;stroke-width:0.4;stroke-linecap:round;stroke-linejoin:round;stroke:rgb(0%,0%,0%);stroke-opacity:1;stroke-miterlimit:4;" d="M 46.100254 93.70048 C 46.100254 95.190907 44.890619 96.400194 43.399734 96.400194 C 41.908848 96.400194 40.699213 95.190907 40.699213 93.70048 C 40.699213 92.208769 41.908848 90.999483 43.399734 90.999483 C 44.890619 90.999483 46.100254 92.208769 46.100254 93.70048 Z M 46.100254 93.70048 " transform="matrix(3,0,0,3.042857,0,0)"/>
<path style=" stroke:none;fill-rule:nonzero;fill:rgb(0%,39.607843%,71.764706%);fill-opacity:1;" d="M 81.300781 59.640625 L 72 49.292969 L 63 59.640625 L 63 141.796875 L 81.300781 141.796875 Z M 81.300781 59.640625 "/>
<path style=" stroke:none;fill-rule:nonzero;fill:rgb(0%,30.196078%,63.137255%);fill-opacity:1;" d="M 81.300781 59.640625 L 72 49.292969 L 72 141.796875 L 81.300781 141.796875 Z M 81.300781 59.640625 "/>
<path style="fill:none;stroke-width:0.4;stroke-linecap:round;stroke-linejoin:round;stroke:rgb(0%,0%,0%);stroke-opacity:1;stroke-miterlimit:4;" d="M 27.100257 19.600205 L 23.999997 16.199566 L 20.999997 19.600205 L 20.999997 46.59991 L 27.100257 46.59991 Z M 27.100257 19.600205 " transform="matrix(3,0,0,3.042857,0,0)"/>
<path style="fill:none;stroke-width:0.4;stroke-linecap:round;stroke-linejoin:round;stroke:rgb(0%,0%,0%);stroke-opacity:1;stroke-miterlimit:4;" d="M 23.999997 16.199566 L 23.999997 46.499778 " transform="matrix(3,0,0,3.042857,0,0)"/>
<path style="fill-rule:nonzero;fill:rgb(99.607843%,74.901961%,6.27451%);fill-opacity:1;stroke-width:0.4;stroke-linecap:round;stroke-linejoin:round;stroke:rgb(0%,0%,0%);stroke-opacity:1;stroke-miterlimit:4;" d="M 24.040361 46.219922 L 21.260414 43.35974 L 24.08984 40.59969 L 26.890621 43.459872 Z M 24.040361 46.219922 " transform="matrix(3,0,0,3.042857,0,0)"/>
<path style=" stroke:none;fill-rule:nonzero;fill:rgb(0%,0%,0%);fill-opacity:1;" d="M 72.089844 144.109375 L 63.71875 135.375 L 72.242188 126.980469 L 80.640625 135.710938 Z M 72.089844 144.109375 "/>
<path style="fill-rule:nonzero;fill:rgb(99.607843%,74.901961%,6.27451%);fill-opacity:1;stroke-width:0.4;stroke-linecap:round;stroke-linejoin:round;stroke:rgb(0%,0%,0%);stroke-opacity:1;stroke-miterlimit:4;" d="M 21.098955 51.900489 C 21.199216 47.099286 22.499997 43.999044 24.100257 44.10046 C 25.700517 44.199309 26.899736 47.099286 26.800778 51.999338 C 26.699215 55.152213 25.692705 58.20624 23.899736 60.800687 C 22.118486 58.169012 21.14583 55.076472 21.098955 51.900489 Z M 21.098955 51.900489 " transform="matrix(3,0,0,3.042857,0,0)"/>
<path style="fill:none;stroke-width:0.4;stroke-linecap:round;stroke-linejoin:round;stroke:rgb(0%,0%,0%);stroke-opacity:1;stroke-miterlimit:4;" d="M 26.800778 49.700152 C 25.920569 50.938965 24.838538 52.021161 23.600257 52.900526 C 22.749997 53.647665 22.067705 54.569393 21.600257 55.60024 M 22.401039 57.900709 C 22.82682 57.098369 23.403643 56.384607 24.100257 55.800504 C 25.401038 54.600203 26.199215 54.000695 26.800778 53.29977 M 26.299475 46.700042 C 25.700517 47.800211 24.899736 48.399719 23.100257 50.10068 C 22.287757 50.741268 21.636716 51.561581 21.199216 52.499998 " transform="matrix(3,0,0,3.042857,0,0)"/>
<path style="fill:none;stroke-width:0.4;stroke-linecap:round;stroke-linejoin:round;stroke:rgb(0%,0%,0%);stroke-opacity:1;stroke-miterlimit:4;" d="M 21.600257 55.60024 C 22.067705 54.569393 22.749997 53.647665 23.600257 52.900526 C 24.838538 52.021161 25.920569 50.938965 26.800778 49.700152 M 25.600257 44.499705 C 24.723955 45.490755 23.751299 46.395795 22.700518 47.200702 L 21.401039 48.698831 M 21.199216 52.499998 C 21.636716 51.561581 22.287757 50.741268 23.100257 50.10068 C 24.899736 48.399719 25.700517 47.800211 26.299475 46.700042 " transform="matrix(3,0,0,3.042857,0,0)"/>
<path style="fill-rule:nonzero;fill:rgb(99.607843%,74.901961%,6.27451%);fill-opacity:1;stroke-width:0.4;stroke-linecap:round;stroke-linejoin:round;stroke:rgb(0%,0%,0%);stroke-opacity:1;stroke-miterlimit:4;" d="M 22.700518 46.200666 C 22.700518 48.023582 21.222653 49.501172 19.399737 49.501172 C 17.57682 49.501172 16.100258 48.023582 16.100258 46.200666 C 16.100258 44.377749 17.57682 42.90016 19.399737 42.90016 C 21.222653 42.90016 22.700518 44.377749 22.700518 46.200666 Z M 22.700518 46.200666 " transform="matrix(3,0,0,3.042857,0,0)"/>
<path style="fill-rule:nonzero;fill:rgb(99.607843%,74.901961%,6.27451%);fill-opacity:1;stroke-width:0.4;stroke-linecap:round;stroke-linejoin:round;stroke:rgb(0%,0%,0%);stroke-opacity:1;stroke-miterlimit:4;" d="M 21.700518 46.200666 C 21.700518 47.470288 20.67057 48.499851 19.399737 48.499851 C 18.130206 48.499851 17.100258 47.470288 17.100258 46.200666 C 17.100258 44.929759 18.130206 43.900196 19.399737 43.900196 C 20.67057 43.900196 21.700518 44.929759 21.700518 46.200666 Z M 21.700518 46.200666 " transform="matrix(3,0,0,3.042857,0,0)"/>
<path style=" stroke:none;fill-rule:nonzero;fill:rgb(81.568627%,60.784314%,2.745098%);fill-opacity:1;" d="M 62.101562 140.582031 C 62.101562 142.765625 60.351562 144.535156 58.199219 144.535156 C 56.046875 144.535156 54.296875 142.765625 54.296875 140.582031 C 54.296875 138.394531 56.046875 136.625 58.199219 136.625 C 60.351562 136.625 62.101562 138.394531 62.101562 140.582031 Z M 62.101562 140.582031 "/>
<path style="fill-rule:nonzero;fill:rgb(99.607843%,74.901961%,6.27451%);fill-opacity:1;stroke-width:0.4;stroke-linecap:round;stroke-linejoin:round;stroke:rgb(0%,0%,0%);stroke-opacity:1;stroke-miterlimit:4;" d="M 31.899735 46.299514 C 31.899735 48.12243 30.423173 49.60002 28.600256 49.60002 C 26.77734 49.60002 25.299476 48.12243 25.299476 46.299514 C 25.299476 44.477881 26.77734 43.000292 28.600256 43.000292 C 30.423173 43.000292 31.899735 44.477881 31.899735 46.299514 Z M 31.899735 46.299514 " transform="matrix(3,0,0,3.042857,0,0)"/>
<path style="fill-rule:nonzero;fill:rgb(99.607843%,74.901961%,6.27451%);fill-opacity:1;stroke-width:0.4;stroke-linecap:round;stroke-linejoin:round;stroke:rgb(0%,0%,0%);stroke-opacity:1;stroke-miterlimit:4;" d="M 30.899735 46.299514 C 30.899735 47.569137 29.869787 48.599983 28.600256 48.599983 C 27.329423 48.599983 26.299475 47.569137 26.299475 46.299514 C 26.299475 45.029891 27.329423 43.999044 28.600256 43.999044 C 29.869787 43.999044 30.899735 45.029891 30.899735 46.299514 Z M 30.899735 46.299514 " transform="matrix(3,0,0,3.042857,0,0)"/>
<path style=" stroke:none;fill-rule:nonzero;fill:rgb(81.568627%,60.784314%,2.745098%);fill-opacity:1;" d="M 89.699219 140.882812 C 89.699219 143.070312 87.953125 144.839844 85.800781 144.839844 C 83.644531 144.839844 81.898438 143.070312 81.898438 140.882812 C 81.898438 138.699219 83.644531 136.925781 85.800781 136.925781 C 87.953125 136.925781 89.699219 138.699219 89.699219 140.882812 Z M 89.699219 140.882812 "/>
<path style="fill-rule:nonzero;fill:rgb(99.607843%,74.901961%,6.27451%);fill-opacity:1;stroke-width:0.4;stroke-linecap:round;stroke-linejoin:round;stroke:rgb(0%,0%,0%);stroke-opacity:1;stroke-miterlimit:4;" d="M 25.299918 61.799675 C 25.29941 61.30354 24.672393 60.900796 23.900774 60.899851 C 23.126607 60.900244 22.500575 61.303555 22.499818 61.80101 C 22.500326 62.297145 23.127343 62.699888 23.900227 62.699513 C 24.673111 62.699139 25.300445 62.297112 25.299918 61.799675 Z M 25.299918 61.799675 " transform="matrix(0.0418866,-3.04256,2.999708,0.0424849,-114.593025,258.050189)"/>
<path style="fill-rule:nonzero;fill:rgb(99.607843%,74.901961%,6.27451%);fill-opacity:1;stroke-width:0.4;stroke-linecap:round;stroke-linejoin:round;stroke:rgb(0%,0%,0%);stroke-opacity:1;stroke-miterlimit:4;" d="M 26.600157 60.099848 C 26.60091 59.326324 26.196738 58.700396 25.701152 58.699503 C 25.203017 58.699948 24.799647 59.326734 24.800177 60.10024 C 24.800707 60.873745 25.202312 61.499709 25.700465 61.500567 C 26.196033 61.500158 26.600687 60.873353 26.600157 60.099848 Z M 26.600157 60.099848 " transform="matrix(0.0418866,-3.04256,2.999708,0.0424849,-104.111004,258.668304)"/>
<path style="fill-rule:nonzero;fill:rgb(99.607843%,74.901961%,6.27451%);fill-opacity:1;stroke-width:0.4;stroke-linecap:round;stroke-linejoin:round;stroke:rgb(0%,0%,0%);stroke-opacity:1;stroke-miterlimit:4;" d="M 23.000854 60.100641 C 23.000324 59.327135 22.597418 58.699887 22.100548 58.699012 C 21.602431 58.700759 21.200345 59.327527 21.199573 60.099749 C 21.200103 60.873254 21.601708 61.499219 22.099861 61.500076 C 22.596731 61.500951 23.000101 60.874164 23.000854 60.100641 Z M 23.000854 60.100641 " transform="matrix(0.0418866,-3.04256,2.999708,0.0424849,-114.611058,247.685926)"/>
<path style="fill-rule:nonzero;fill:rgb(99.607843%,74.901961%,6.27451%);fill-opacity:1;stroke-width:0.4;stroke-linecap:round;stroke-linejoin:round;stroke:rgb(0%,0%,0%);stroke-opacity:1;stroke-miterlimit:4;" d="M 24.999997 60.000914 C 24.999997 60.551641 24.553382 61.000951 23.999997 61.000951 C 23.447913 61.000951 22.999997 60.551641 22.999997 60.000914 C 22.999997 59.447621 23.447913 58.999594 23.999997 58.999594 C 24.553382 58.999594 24.999997 59.447621 24.999997 60.000914 Z M 24.999997 60.000914 " transform="matrix(3,0,0,3.042857,0,0)"/>
<path style=" stroke:none;fill-rule:nonzero;fill:rgb(81.568627%,60.784314%,2.745098%);fill-opacity:1;" d="M 71.699219 184.398438 L 73.203125 184.398438 C 72 184.398438 71.398438 183.484375 71.398438 182.265625 C 71.421875 181.703125 71.632812 181.167969 72 180.746094 C 71.171875 181.003906 70.585938 181.742188 70.519531 182.621094 C 70.453125 183.496094 70.921875 184.320312 71.699219 184.699219 Z M 71.699219 184.398438 "/>
<path style="fill-rule:nonzero;fill:rgb(99.607843%,74.901961%,6.27451%);fill-opacity:1;stroke-width:0.4;stroke-linecap:round;stroke-linejoin:round;stroke:rgb(0%,0%,0%);stroke-opacity:1;stroke-miterlimit:4;" d="M 25.700517 49.100643 C 25.700517 49.983859 24.984372 50.700189 24.100257 50.700189 C 23.216143 50.700189 22.499997 49.983859 22.499997 49.100643 C 22.499997 48.216144 23.216143 47.499815 24.100257 47.499815 C 24.984372 47.499815 25.700517 48.216144 25.700517 49.100643 Z M 25.700517 49.100643 " transform="matrix(3,0,0,3.042857,0,0)"/>
<path style=" stroke:none;fill-rule:nonzero;fill:rgb(0%,0%,0%);fill-opacity:1;" d="M 75.300781 149.40625 C 75.300781 151.082031 73.957031 152.449219 72.300781 152.449219 C 70.644531 152.449219 69.300781 151.082031 69.300781 149.40625 C 69.300781 147.722656 70.644531 146.359375 72.300781 146.359375 C 73.957031 146.359375 75.300781 147.722656 75.300781 149.40625 Z M 75.300781 149.40625 "/>
<path style="fill-rule:nonzero;fill:rgb(99.607843%,74.901961%,6.27451%);fill-opacity:1;stroke-width:0.4;stroke-linecap:round;stroke-linejoin:round;stroke:rgb(0%,0%,0%);stroke-opacity:1;stroke-miterlimit:4;" d="M 28.399736 46.299514 C 28.399736 47.184013 27.68359 47.899059 26.800778 47.899059 C 25.915361 47.899059 25.199215 47.184013 25.199215 46.299514 C 25.199215 45.416298 25.915361 44.699969 26.800778 44.699969 C 27.68359 44.699969 28.399736 45.416298 28.399736 46.299514 Z M 28.399736 46.299514 " transform="matrix(3,0,0,3.042857,0,0)"/>
<path style=" stroke:none;fill-rule:nonzero;fill:rgb(0%,0%,0%);fill-opacity:1;" d="M 83.402344 140.882812 C 83.402344 142.566406 82.054688 143.925781 80.402344 143.925781 C 78.742188 143.925781 77.398438 142.566406 77.398438 140.882812 C 77.398438 139.203125 78.742188 137.839844 80.402344 137.839844 C 82.054688 137.839844 83.402344 139.203125 83.402344 140.882812 Z M 83.402344 140.882812 "/>
<path style="fill-rule:nonzero;fill:rgb(99.607843%,74.901961%,6.27451%);fill-opacity:1;stroke-width:0.4;stroke-linecap:round;stroke-linejoin:round;stroke:rgb(0%,0%,0%);stroke-opacity:1;stroke-miterlimit:4;" d="M 22.700518 46.299514 C 22.700518 47.184013 21.984372 47.899059 21.098955 47.899059 C 20.216143 47.899059 19.499997 47.184013 19.499997 46.299514 C 19.499997 45.416298 20.216143 44.699969 21.098955 44.699969 C 21.984372 44.699969 22.700518 45.416298 22.700518 46.299514 Z M 22.700518 46.299514 " transform="matrix(3,0,0,3.042857,0,0)"/>
<path style=" stroke:none;fill-rule:nonzero;fill:rgb(0%,0%,0%);fill-opacity:1;" d="M 66.296875 140.882812 C 66.296875 142.566406 64.957031 143.925781 63.296875 143.925781 C 61.644531 143.925781 60.296875 142.566406 60.296875 140.882812 C 60.296875 139.203125 61.644531 137.839844 63.296875 137.839844 C 64.957031 137.839844 66.296875 139.203125 66.296875 140.882812 Z M 66.296875 140.882812 "/>
<path style="fill-rule:nonzero;fill:rgb(99.607843%,74.901961%,6.27451%);fill-opacity:1;stroke-width:0.4;stroke-linecap:round;stroke-linejoin:round;stroke:rgb(0%,0%,0%);stroke-opacity:1;stroke-miterlimit:4;" d="M 26.800778 46.299514 C 26.800778 47.791224 25.591142 49.000511 24.100257 49.000511 C 22.609372 49.000511 21.401039 47.791224 21.401039 46.299514 C 21.401039 44.809087 22.609372 43.5998 24.100257 43.5998 C 25.591142 43.5998 26.800778 44.809087 26.800778 46.299514 Z M 26.800778 46.299514 " transform="matrix(3,0,0,3.042857,0,0)"/>
<path style=" stroke:none;fill-rule:nonzero;fill:rgb(0%,39.607843%,71.764706%);fill-opacity:1;" d="M 139.800781 59.640625 L 130.5 49.292969 L 121.5 59.640625 L 121.5 141.796875 L 139.800781 141.796875 Z M 139.800781 59.640625 "/>
<path style=" stroke:none;fill-rule:nonzero;fill:rgb(0%,30.196078%,63.137255%);fill-opacity:1;" d="M 139.800781 59.640625 L 130.5 49.292969 L 130.5 141.796875 L 139.800781 141.796875 Z M 139.800781 59.640625 "/>
<path style="fill:none;stroke-width:0.4;stroke-linecap:round;stroke-linejoin:round;stroke:rgb(0%,0%,0%);stroke-opacity:1;stroke-miterlimit:4;" d="M 46.600254 19.600205 L 43.499994 16.199566 L 40.499994 19.600205 L 40.499994 46.59991 L 46.600254 46.59991 Z M 46.600254 19.600205 " transform="matrix(3,0,0,3.042857,0,0)"/>
<path style="fill:none;stroke-width:0.4;stroke-linecap:round;stroke-linejoin:round;stroke:rgb(0%,0%,0%);stroke-opacity:1;stroke-miterlimit:4;" d="M 43.499994 16.199566 L 43.499994 46.499778 " transform="matrix(3,0,0,3.042857,0,0)"/>
<path style="fill-rule:nonzero;fill:rgb(99.607843%,74.901961%,6.27451%);fill-opacity:1;stroke-width:0.4;stroke-linecap:round;stroke-linejoin:round;stroke:rgb(0%,0%,0%);stroke-opacity:1;stroke-miterlimit:4;" d="M 43.549473 46.239178 L 40.760411 43.378996 L 43.600254 40.62023 L 46.390619 43.480412 Z M 43.549473 46.239178 " transform="matrix(3,0,0,3.042857,0,0)"/>
<path style=" stroke:none;fill-rule:nonzero;fill:rgb(0%,0%,0%);fill-opacity:1;" d="M 130.621094 143.863281 L 122.25 135.132812 L 130.769531 126.734375 L 139.136719 135.46875 Z M 130.621094 143.863281 "/>
<path style="fill-rule:nonzero;fill:rgb(99.607843%,74.901961%,6.27451%);fill-opacity:1;stroke-width:0.4;stroke-linecap:round;stroke-linejoin:round;stroke:rgb(0%,0%,0%);stroke-opacity:1;stroke-miterlimit:4;" d="M 40.600255 51.900489 C 40.699213 47.099286 41.999994 43.999044 43.600254 44.10046 C 45.200515 44.199309 46.399733 47.099286 46.300775 51.999338 C 46.199212 55.152213 45.1914 58.20624 43.399734 60.800687 C 41.619786 58.169012 40.645828 55.076472 40.600255 51.900489 Z M 40.600255 51.900489 " transform="matrix(3,0,0,3.042857,0,0)"/>
<path style="fill:none;stroke-width:0.4;stroke-linecap:round;stroke-linejoin:round;stroke:rgb(0%,0%,0%);stroke-opacity:1;stroke-miterlimit:4;" d="M 46.300775 49.700152 C 45.420567 50.938965 44.339838 52.021161 43.100254 52.900526 C 42.249994 53.647665 41.567703 54.569393 41.100255 55.60024 M 41.899734 57.900709 C 42.326817 57.098369 42.904942 56.384607 43.600254 55.800504 C 44.899733 54.600203 45.699212 54.000695 46.300775 53.29977 M 45.799473 46.700042 C 45.200515 47.800211 44.399733 48.399719 42.600254 50.10068 C 41.787755 50.741268 41.136713 51.561581 40.699213 52.499998 " transform="matrix(3,0,0,3.042857,0,0)"/>
<path style="fill:none;stroke-width:0.4;stroke-linecap:round;stroke-linejoin:round;stroke:rgb(0%,0%,0%);stroke-opacity:1;stroke-miterlimit:4;" d="M 41.100255 55.60024 C 41.567703 54.569393 42.249994 53.647665 43.100254 52.900526 C 44.339838 52.021161 45.420567 50.938965 46.300775 49.700152 M 45.100254 44.499705 C 44.22265 45.490755 43.251296 46.395795 42.200515 47.200702 L 40.899734 48.698831 M 40.699213 52.499998 C 41.136713 51.561581 41.787755 50.741268 42.600254 50.10068 C 44.399733 48.399719 45.200515 47.800211 45.799473 46.700042 " transform="matrix(3,0,0,3.042857,0,0)"/>
<path style="fill-rule:nonzero;fill:rgb(99.607843%,74.901961%,6.27451%);fill-opacity:1;stroke-width:0.4;stroke-linecap:round;stroke-linejoin:round;stroke:rgb(0%,0%,0%);stroke-opacity:1;stroke-miterlimit:4;" d="M 42.200515 46.200666 C 42.200515 48.023582 40.722651 49.501172 38.901036 49.501172 C 37.076818 49.501172 35.598953 48.023582 35.598953 46.200666 C 35.598953 44.377749 37.076818 42.90016 38.901036 42.90016 C 40.722651 42.90016 42.200515 44.377749 42.200515 46.200666 Z M 42.200515 46.200666 " transform="matrix(3,0,0,3.042857,0,0)"/>
<path style="fill-rule:nonzero;fill:rgb(99.607843%,74.901961%,6.27451%);fill-opacity:1;stroke-width:0.4;stroke-linecap:round;stroke-linejoin:round;stroke:rgb(0%,0%,0%);stroke-opacity:1;stroke-miterlimit:4;" d="M 41.200515 46.200666 C 41.200515 47.470288 40.169265 48.499851 38.901036 48.499851 C 37.630203 48.499851 36.598953 47.470288 36.598953 46.200666 C 36.598953 44.929759 37.630203 43.900196 38.901036 43.900196 C 40.169265 43.900196 41.200515 44.929759 41.200515 46.200666 Z M 41.200515 46.200666 " transform="matrix(3,0,0,3.042857,0,0)"/>
<path style=" stroke:none;fill-rule:nonzero;fill:rgb(81.568627%,60.784314%,2.745098%);fill-opacity:1;" d="M 120.601562 140.582031 C 120.601562 142.765625 118.855469 144.535156 116.703125 144.535156 C 114.546875 144.535156 112.800781 142.765625 112.800781 140.582031 C 112.800781 138.394531 114.546875 136.625 116.703125 136.625 C 118.855469 136.625 120.601562 138.394531 120.601562 140.582031 Z M 120.601562 140.582031 "/>
<path style="fill-rule:nonzero;fill:rgb(99.607843%,74.901961%,6.27451%);fill-opacity:1;stroke-width:0.4;stroke-linecap:round;stroke-linejoin:round;stroke:rgb(0%,0%,0%);stroke-opacity:1;stroke-miterlimit:4;" d="M 51.401034 46.299514 C 51.401034 48.12243 49.92317 49.60002 48.098952 49.60002 C 46.277337 49.60002 44.799473 48.12243 44.799473 46.299514 C 44.799473 44.477881 46.277337 43.000292 48.098952 43.000292 C 49.92317 43.000292 51.401034 44.477881 51.401034 46.299514 Z M 51.401034 46.299514 " transform="matrix(3,0,0,3.042857,0,0)"/>
<path style="fill-rule:nonzero;fill:rgb(99.607843%,74.901961%,6.27451%);fill-opacity:1;stroke-width:0.4;stroke-linecap:round;stroke-linejoin:round;stroke:rgb(0%,0%,0%);stroke-opacity:1;stroke-miterlimit:4;" d="M 50.401035 46.299514 C 50.401035 47.569137 49.369785 48.599983 48.098952 48.599983 C 46.830723 48.599983 45.799473 47.569137 45.799473 46.299514 C 45.799473 45.029891 46.830723 43.999044 48.098952 43.999044 C 49.369785 43.999044 50.401035 45.029891 50.401035 46.299514 Z M 50.401035 46.299514 " transform="matrix(3,0,0,3.042857,0,0)"/>
<path style=" stroke:none;fill-rule:nonzero;fill:rgb(81.568627%,60.784314%,2.745098%);fill-opacity:1;" d="M 148.199219 140.882812 C 148.199219 143.070312 146.453125 144.839844 144.296875 144.839844 C 142.144531 144.839844 140.398438 143.070312 140.398438 140.882812 C 140.398438 138.699219 142.144531 136.925781 144.296875 136.925781 C 146.453125 136.925781 148.199219 138.699219 148.199219 140.882812 Z M 148.199219 140.882812 "/>
<path style="fill-rule:nonzero;fill:rgb(99.607843%,74.901961%,6.27451%);fill-opacity:1;stroke-width:0.4;stroke-linecap:round;stroke-linejoin:round;stroke:rgb(0%,0%,0%);stroke-opacity:1;stroke-miterlimit:4;" d="M 44.799472 61.800416 C 44.800229 61.302961 44.173213 60.900218 43.399045 60.90061 C 42.627426 60.899665 41.998827 61.303012 42.000637 61.800431 C 41.99988 62.297886 42.626897 62.700629 43.399763 62.698953 C 44.172665 62.69988 44.799999 62.297853 44.799472 61.800416 Z M 44.799472 61.800416 " transform="matrix(0.0418866,-3.04256,2.999708,0.0424849,-56.701081,317.351381)"/>
<path style="fill-rule:nonzero;fill:rgb(99.607843%,74.901961%,6.27451%);fill-opacity:1;stroke-width:0.4;stroke-linecap:round;stroke-linejoin:round;stroke:rgb(0%,0%,0%);stroke-opacity:1;stroke-miterlimit:4;" d="M 46.09942 60.100047 C 46.100192 59.327826 45.697267 58.699276 45.19915 58.701022 C 44.703564 58.700129 44.300194 59.326916 44.300724 60.100421 C 44.299952 60.872643 44.702858 61.499891 45.200994 61.499446 C 45.69658 61.500339 46.09995 60.873553 46.09942 60.100047 Z M 46.09942 60.100047 " transform="matrix(0.0418866,-3.04256,2.999708,0.0424849,-46.486953,317.937383)"/>
<path style="fill-rule:nonzero;fill:rgb(99.607843%,74.901961%,6.27451%);fill-opacity:1;stroke-width:0.4;stroke-linecap:round;stroke-linejoin:round;stroke:rgb(0%,0%,0%);stroke-opacity:1;stroke-miterlimit:4;" d="M 42.500704 60.099669 C 42.500192 59.327465 42.097286 58.700217 41.600434 58.700644 C 41.102281 58.699787 40.700195 59.326555 40.699441 60.100079 C 40.699971 60.873584 41.102878 61.500832 41.599711 61.499104 C 42.096581 61.499979 42.499951 60.873192 42.500704 60.099669 Z M 42.500704 60.099669 " transform="matrix(0.0418866,-3.04256,2.999708,0.0424849,-56.987424,307.015435)"/>
<path style="fill-rule:nonzero;fill:rgb(99.607843%,74.901961%,6.27451%);fill-opacity:1;stroke-width:0.4;stroke-linecap:round;stroke-linejoin:round;stroke:rgb(0%,0%,0%);stroke-opacity:1;stroke-miterlimit:4;" d="M 44.499994 60.000914 C 44.499994 60.551641 44.052077 61.000951 43.499994 61.000951 C 42.947911 61.000951 42.499994 60.551641 42.499994 60.000914 C 42.499994 59.447621 42.947911 58.999594 43.499994 58.999594 C 44.052077 58.999594 44.499994 59.447621 44.499994 60.000914 Z M 44.499994 60.000914 " transform="matrix(3,0,0,3.042857,0,0)"/>
<path style=" stroke:none;fill-rule:nonzero;fill:rgb(81.568627%,60.784314%,2.745098%);fill-opacity:1;" d="M 130.199219 184.398438 L 131.699219 184.398438 C 130.5 184.398438 129.902344 183.484375 129.902344 182.265625 C 129.917969 181.703125 130.132812 181.167969 130.5 180.746094 C 129.652344 180.332031 128.640625 180.539062 128.015625 181.25 C 127.390625 181.964844 127.3125 183.015625 127.820312 183.816406 C 128.328125 184.617188 129.300781 184.980469 130.199219 184.699219 Z M 130.199219 184.398438 "/>
<path style="fill-rule:nonzero;fill:rgb(99.607843%,74.901961%,6.27451%);fill-opacity:1;stroke-width:0.4;stroke-linecap:round;stroke-linejoin:round;stroke:rgb(0%,0%,0%);stroke-opacity:1;stroke-miterlimit:4;" d="M 45.200515 49.100643 C 45.200515 49.983859 44.484369 50.700189 43.600254 50.700189 C 42.71614 50.700189 41.999994 49.983859 41.999994 49.100643 C 41.999994 48.216144 42.71614 47.499815 43.600254 47.499815 C 44.484369 47.499815 45.200515 48.216144 45.200515 49.100643 Z M 45.200515 49.100643 " transform="matrix(3,0,0,3.042857,0,0)"/>
<path style=" stroke:none;fill-rule:nonzero;fill:rgb(0%,0%,0%);fill-opacity:1;" d="M 133.800781 149.40625 C 133.800781 151.082031 132.457031 152.449219 130.800781 152.449219 C 129.144531 152.449219 127.800781 151.082031 127.800781 149.40625 C 127.800781 147.722656 129.144531 146.359375 130.800781 146.359375 C 132.457031 146.359375 133.800781 147.722656 133.800781 149.40625 Z M 133.800781 149.40625 "/>
<path style="fill-rule:nonzero;fill:rgb(99.607843%,74.901961%,6.27451%);fill-opacity:1;stroke-width:0.4;stroke-linecap:round;stroke-linejoin:round;stroke:rgb(0%,0%,0%);stroke-opacity:1;stroke-miterlimit:4;" d="M 47.899733 46.299514 C 47.899733 47.184013 47.183587 47.899059 46.300775 47.899059 C 45.41666 47.899059 44.699213 47.184013 44.699213 46.299514 C 44.699213 45.416298 45.41666 44.699969 46.300775 44.699969 C 47.183587 44.699969 47.899733 45.416298 47.899733 46.299514 Z M 47.899733 46.299514 " transform="matrix(3,0,0,3.042857,0,0)"/>
<path style=" stroke:none;fill-rule:nonzero;fill:rgb(0%,0%,0%);fill-opacity:1;" d="M 141.902344 140.882812 C 141.902344 142.566406 140.554688 143.925781 138.902344 143.925781 C 137.242188 143.925781 135.902344 142.566406 135.902344 140.882812 C 135.902344 139.203125 137.242188 137.839844 138.902344 137.839844 C 140.554688 137.839844 141.902344 139.203125 141.902344 140.882812 Z M 141.902344 140.882812 "/>
<path style="fill-rule:nonzero;fill:rgb(99.607843%,74.901961%,6.27451%);fill-opacity:1;stroke-width:0.4;stroke-linecap:round;stroke-linejoin:round;stroke:rgb(0%,0%,0%);stroke-opacity:1;stroke-miterlimit:4;" d="M 42.200515 46.299514 C 42.200515 47.184013 41.484369 47.899059 40.600255 47.899059 C 39.71614 47.899059 38.999995 47.184013 38.999995 46.299514 C 38.999995 45.416298 39.71614 44.699969 40.600255 44.699969 C 41.484369 44.699969 42.200515 45.416298 42.200515 46.299514 Z M 42.200515 46.299514 " transform="matrix(3,0,0,3.042857,0,0)"/>
<path style=" stroke:none;fill-rule:nonzero;fill:rgb(0%,0%,0%);fill-opacity:1;" d="M 124.800781 140.882812 C 124.800781 142.566406 123.457031 143.925781 121.800781 143.925781 C 120.144531 143.925781 118.800781 142.566406 118.800781 140.882812 C 118.800781 139.203125 120.144531 137.839844 121.800781 137.839844 C 123.457031 137.839844 124.800781 139.203125 124.800781 140.882812 Z M 124.800781 140.882812 "/>
<path style="fill-rule:nonzero;fill:rgb(99.607843%,74.901961%,6.27451%);fill-opacity:1;stroke-width:0.4;stroke-linecap:round;stroke-linejoin:round;stroke:rgb(0%,0%,0%);stroke-opacity:1;stroke-miterlimit:4;" d="M 46.300775 46.299514 C 46.300775 47.791224 45.09114 49.000511 43.600254 49.000511 C 42.109369 49.000511 40.899734 47.791224 40.899734 46.299514 C 40.899734 44.809087 42.109369 43.5998 43.600254 43.5998 C 45.09114 43.5998 46.300775 44.809087 46.300775 46.299514 Z M 46.300775 46.299514 " transform="matrix(3,0,0,3.042857,0,0)"/>
<path style=" stroke:none;fill-rule:nonzero;fill:rgb(0%,39.607843%,71.764706%);fill-opacity:1;" d="M 198 366.359375 L 189 376.707031 L 179.699219 366.359375 L 179.699219 284.203125 L 198 284.203125 Z M 198 366.359375 "/>
<path style=" stroke:none;fill-rule:nonzero;fill:rgb(0%,30.196078%,63.137255%);fill-opacity:1;" d="M 198 366.359375 L 189 376.707031 L 188.699219 284.203125 L 198 284.203125 Z M 198 366.359375 "/>
<path style="fill:none;stroke-width:0.4;stroke-linecap:round;stroke-linejoin:round;stroke:rgb(0%,0%,0%);stroke-opacity:1;stroke-miterlimit:4;" d="M 65.999991 120.399789 L 62.999991 123.800427 L 59.899731 120.399789 L 59.899731 93.400084 L 65.999991 93.400084 Z M 65.999991 120.399789 " transform="matrix(3,0,0,3.042857,0,0)"/>
<path style="fill:none;stroke-width:0.4;stroke-linecap:round;stroke-linejoin:round;stroke:rgb(0%,0%,0%);stroke-opacity:1;stroke-miterlimit:4;" d="M 62.999991 123.800427 L 62.999991 93.500216 " transform="matrix(3,0,0,3.042857,0,0)"/>
<path style="fill-rule:nonzero;fill:rgb(99.607843%,74.901961%,6.27451%);fill-opacity:1;stroke-width:0.4;stroke-linecap:round;stroke-linejoin:round;stroke:rgb(0%,0%,0%);stroke-opacity:1;stroke-miterlimit:4;" d="M 62.979158 93.709466 L 65.769522 96.579918 L 62.929679 99.339968 L 60.140617 96.469516 Z M 62.979158 93.709466 " transform="matrix(3,0,0,3.042857,0,0)"/>
<path style=" stroke:none;fill-rule:nonzero;fill:rgb(0%,0%,0%);fill-opacity:1;" d="M 189 282.136719 L 197.339844 290.835938 L 188.851562 299.234375 L 180.449219 290.53125 Z M 189 282.136719 "/>
<path style="fill-rule:nonzero;fill:rgb(99.607843%,74.901961%,6.27451%);fill-opacity:1;stroke-width:0.4;stroke-linecap:round;stroke-linejoin:round;stroke:rgb(0%,0%,0%);stroke-opacity:1;stroke-miterlimit:4;" d="M 65.800772 88.099505 C 65.800772 92.900707 64.399731 96.000949 62.899731 95.899534 C 61.399731 95.800685 59.999992 92.900707 60.100252 88.000656 C 60.263012 84.845213 61.302075 81.797605 63.100252 79.199307 C 64.825512 81.851522 65.760407 84.937643 65.800772 88.099505 Z M 65.800772 88.099505 " transform="matrix(3,0,0,3.042857,0,0)"/>
<path style="fill:none;stroke-width:0.4;stroke-linecap:round;stroke-linejoin:round;stroke:rgb(0%,0%,0%);stroke-opacity:1;stroke-miterlimit:4;" d="M 60.19921 90.299842 C 60.800773 89.200957 61.499991 88.600165 63.29947 87.099468 C 64.182283 86.380571 64.869783 85.452424 65.29947 84.399754 M 64.598949 82.099285 C 64.131501 82.902909 63.522127 83.614103 62.800772 84.19949 C 61.864575 84.959467 60.994783 85.795184 60.19921 86.700224 M 60.600252 93.299952 C 61.528637 92.012357 62.640616 90.865973 63.899731 89.899314 C 64.682283 89.229199 65.326814 88.415306 65.800772 87.499996 " transform="matrix(3,0,0,3.042857,0,0)"/>
<path style="fill:none;stroke-width:0.4;stroke-linecap:round;stroke-linejoin:round;stroke:rgb(0%,0%,0%);stroke-opacity:1;stroke-miterlimit:4;" d="M 65.29947 84.399754 C 64.869783 85.452424 64.182283 86.380571 63.29947 87.099468 C 61.499991 88.600165 60.800773 89.200957 60.19921 90.299842 M 61.399731 95.500289 C 62.207023 94.478429 63.149731 93.569538 64.200512 92.799292 L 65.499991 91.301162 M 65.800772 87.499996 C 65.326814 88.415306 64.682283 89.229199 63.899731 89.899314 C 62.640616 90.865973 61.528637 92.012357 60.600252 93.299952 " transform="matrix(3,0,0,3.042857,0,0)"/>
<path style="fill-rule:nonzero;fill:rgb(99.607843%,74.901961%,6.27451%);fill-opacity:1;stroke-width:0.4;stroke-linecap:round;stroke-linejoin:round;stroke:rgb(0%,0%,0%);stroke-opacity:1;stroke-miterlimit:4;" d="M 70.89973 93.799328 C 70.89973 95.622245 69.423167 97.099834 67.600251 97.099834 C 65.777335 97.099834 64.29947 95.622245 64.29947 93.799328 C 64.29947 91.976412 65.777335 90.498822 67.600251 90.498822 C 69.423167 90.498822 70.89973 91.976412 70.89973 93.799328 Z M 70.89973 93.799328 " transform="matrix(3,0,0,3.042857,0,0)"/>
<path style="fill-rule:nonzero;fill:rgb(99.607843%,74.901961%,6.27451%);fill-opacity:1;stroke-width:0.4;stroke-linecap:round;stroke-linejoin:round;stroke:rgb(0%,0%,0%);stroke-opacity:1;stroke-miterlimit:4;" d="M 69.89973 93.799328 C 69.89973 95.070235 68.869782 96.099798 67.600251 96.099798 C 66.329418 96.099798 65.29947 95.070235 65.29947 93.799328 C 65.29947 92.529705 66.329418 91.500143 67.600251 91.500143 C 68.869782 91.500143 69.89973 92.529705 69.89973 93.799328 Z M 69.89973 93.799328 " transform="matrix(3,0,0,3.042857,0,0)"/>
<path style=" stroke:none;fill-rule:nonzero;fill:rgb(81.568627%,60.784314%,2.745098%);fill-opacity:1;" d="M 206.703125 285.417969 C 206.703125 287.605469 204.953125 289.375 202.800781 289.375 C 200.648438 289.375 198.898438 287.605469 198.898438 285.417969 C 198.898438 283.234375 200.648438 281.464844 202.800781 281.464844 C 204.953125 281.464844 206.703125 283.234375 206.703125 285.417969 Z M 206.703125 285.417969 "/>
<path style="fill-rule:nonzero;fill:rgb(99.607843%,74.901961%,6.27451%);fill-opacity:1;stroke-width:0.4;stroke-linecap:round;stroke-linejoin:round;stroke:rgb(0%,0%,0%);stroke-opacity:1;stroke-miterlimit:4;" d="M 61.700512 93.70048 C 61.700512 95.522113 60.222648 96.999702 58.399731 96.999702 C 56.576815 96.999702 55.100253 95.522113 55.100253 93.70048 C 55.100253 91.877563 56.576815 90.399974 58.399731 90.399974 C 60.222648 90.399974 61.700512 91.877563 61.700512 93.70048 Z M 61.700512 93.70048 " transform="matrix(3,0,0,3.042857,0,0)"/>
<path style="fill-rule:nonzero;fill:rgb(99.607843%,74.901961%,6.27451%);fill-opacity:1;stroke-width:0.4;stroke-linecap:round;stroke-linejoin:round;stroke:rgb(0%,0%,0%);stroke-opacity:1;stroke-miterlimit:4;" d="M 60.700512 93.70048 C 60.700512 94.970103 59.670565 96.000949 58.399731 96.000949 C 57.1302 96.000949 56.100253 94.970103 56.100253 93.70048 C 56.100253 92.430857 57.1302 91.400011 58.399731 91.400011 C 59.670565 91.400011 60.700512 92.430857 60.700512 93.70048 Z M 60.700512 93.70048 " transform="matrix(3,0,0,3.042857,0,0)"/>
<path style=" stroke:none;fill-rule:nonzero;fill:rgb(81.568627%,60.784314%,2.745098%);fill-opacity:1;" d="M 179.101562 285.117188 C 179.101562 287.300781 177.355469 289.074219 175.199219 289.074219 C 173.046875 289.074219 171.300781 287.300781 171.300781 285.117188 C 171.300781 282.929688 173.046875 281.160156 175.199219 281.160156 C 177.355469 281.160156 179.101562 282.929688 179.101562 285.117188 Z M 179.101562 285.117188 "/>
<path style="fill-rule:nonzero;fill:rgb(99.607843%,74.901961%,6.27451%);fill-opacity:1;stroke-width:0.4;stroke-linecap:round;stroke-linejoin:round;stroke:rgb(0%,0%,0%);stroke-opacity:1;stroke-miterlimit:4;" d="M 64.398996 78.199768 C 64.399753 77.702314 63.772736 77.29957 63.001136 77.299927 C 62.226968 77.30032 61.600918 77.702329 61.600161 78.199784 C 61.599386 78.695937 62.22642 79.099982 63.000588 79.099589 C 63.773491 79.100517 64.400806 78.697187 64.398996 78.199768 Z M 64.398996 78.199768 " transform="matrix(0.0418866,-3.04256,2.999708,0.0424849,-48.305144,426.279575)"/>
<path style="fill-rule:nonzero;fill:rgb(99.607843%,74.901961%,6.27451%);fill-opacity:1;stroke-width:0.4;stroke-linecap:round;stroke-linejoin:round;stroke:rgb(0%,0%,0%);stroke-opacity:1;stroke-miterlimit:4;" d="M 62.099944 79.899494 C 62.099433 79.12729 61.69781 78.500024 61.199675 78.500469 C 60.702805 78.499593 60.300719 79.126362 60.299965 79.899886 C 60.300477 80.672089 60.702118 81.300657 61.200253 81.300213 C 61.697104 81.299786 62.099191 80.673017 62.099944 79.899494 Z M 62.099944 79.899494 " transform="matrix(0.0418866,-3.04256,2.999708,0.0424849,-58.819242,425.993609)"/>
<path style="fill-rule:nonzero;fill:rgb(99.607843%,74.901961%,6.27451%);fill-opacity:1;stroke-width:0.4;stroke-linecap:round;stroke-linejoin:round;stroke:rgb(0%,0%,0%);stroke-opacity:1;stroke-miterlimit:4;" d="M 65.700369 79.900066 C 65.699839 79.12656 65.29695 78.500614 64.800081 78.499739 C 64.301946 78.500184 63.899841 79.125651 63.900389 79.900458 C 63.899636 80.673981 64.302524 81.299928 64.799394 81.300803 C 65.297511 81.299056 65.699597 80.672287 65.700369 79.900066 Z M 65.700369 79.900066 " transform="matrix(0.0418866,-3.04256,2.999708,0.0424849,-47.991299,436.948093)"/>
<path style="fill-rule:nonzero;fill:rgb(99.607843%,74.901961%,6.27451%);fill-opacity:1;stroke-width:0.4;stroke-linecap:round;stroke-linejoin:round;stroke:rgb(0%,0%,0%);stroke-opacity:1;stroke-miterlimit:4;" d="M 63.999991 79.99908 C 63.999991 80.552373 63.552074 81.0004 62.999991 81.0004 C 62.446606 81.0004 61.999991 80.552373 61.999991 79.99908 C 61.999991 79.448353 62.446606 78.999043 62.999991 78.999043 C 63.552074 78.999043 63.999991 79.448353 63.999991 79.99908 Z M 63.999991 79.99908 " transform="matrix(3,0,0,3.042857,0,0)"/>
<path style=" stroke:none;fill-rule:nonzero;fill:rgb(81.568627%,60.784314%,2.745098%);fill-opacity:1;" d="M 189 241.601562 L 187.796875 241.601562 C 188.839844 241.757812 189.609375 242.664062 189.601562 243.734375 C 189.652344 244.382812 189.289062 244.996094 188.699219 245.253906 L 189 245.253906 C 189.898438 245.253906 191.101562 244.339844 191.101562 243.425781 C 190.949219 242.371094 190.054688 241.59375 189 241.601562 Z M 189 241.601562 "/>
<path style="fill-rule:nonzero;fill:rgb(99.607843%,74.901961%,6.27451%);fill-opacity:1;stroke-width:0.4;stroke-linecap:round;stroke-linejoin:round;stroke:rgb(0%,0%,0%);stroke-opacity:1;stroke-miterlimit:4;" d="M 64.499991 90.89935 C 64.499991 91.78385 63.783845 92.500179 62.899731 92.500179 C 62.015616 92.500179 61.299471 91.78385 61.299471 90.89935 C 61.299471 90.016135 62.015616 89.299805 62.899731 89.299805 C 63.783845 89.299805 64.499991 90.016135 64.499991 90.89935 Z M 64.499991 90.89935 " transform="matrix(3,0,0,3.042857,0,0)"/>
<path style=" stroke:none;fill-rule:nonzero;fill:rgb(0%,0%,0%);fill-opacity:1;" d="M 191.699219 276.59375 C 191.699219 278.277344 190.355469 279.640625 188.699219 279.640625 C 187.042969 279.640625 185.699219 278.277344 185.699219 276.59375 C 185.699219 274.917969 187.042969 273.550781 188.699219 273.550781 C 190.355469 273.550781 191.699219 274.917969 191.699219 276.59375 Z M 191.699219 276.59375 "/>
<path style="fill-rule:nonzero;fill:rgb(99.607843%,74.901961%,6.27451%);fill-opacity:1;stroke-width:0.4;stroke-linecap:round;stroke-linejoin:round;stroke:rgb(0%,0%,0%);stroke-opacity:1;stroke-miterlimit:4;" d="M 61.800773 93.70048 C 61.800773 94.583696 61.084627 95.300025 60.19921 95.300025 C 59.316398 95.300025 58.600252 94.583696 58.600252 93.70048 C 58.600252 92.81598 59.316398 92.100935 60.19921 92.100935 C 61.084627 92.100935 61.800773 92.81598 61.800773 93.70048 Z M 61.800773 93.70048 " transform="matrix(3,0,0,3.042857,0,0)"/>
<path style=" stroke:none;fill-rule:nonzero;fill:rgb(0%,0%,0%);fill-opacity:1;" d="M 183.601562 285.117188 C 183.601562 286.796875 182.257812 288.160156 180.597656 288.160156 C 178.945312 288.160156 177.597656 286.796875 177.597656 285.117188 C 177.597656 283.433594 178.945312 282.074219 180.597656 282.074219 C 182.257812 282.074219 183.601562 283.433594 183.601562 285.117188 Z M 183.601562 285.117188 "/>
<path style="fill-rule:nonzero;fill:rgb(99.607843%,74.901961%,6.27451%);fill-opacity:1;stroke-width:0.4;stroke-linecap:round;stroke-linejoin:round;stroke:rgb(0%,0%,0%);stroke-opacity:1;stroke-miterlimit:4;" d="M 67.499991 93.70048 C 67.499991 94.583696 66.783845 95.300025 65.901032 95.300025 C 65.015616 95.300025 64.29947 94.583696 64.29947 93.70048 C 64.29947 92.81598 65.015616 92.100935 65.901032 92.100935 C 66.783845 92.100935 67.499991 92.81598 67.499991 93.70048 Z M 67.499991 93.70048 " transform="matrix(3,0,0,3.042857,0,0)"/>
<path style=" stroke:none;fill-rule:nonzero;fill:rgb(0%,0%,0%);fill-opacity:1;" d="M 200.703125 285.117188 C 200.703125 286.796875 199.355469 288.160156 197.703125 288.160156 C 196.042969 288.160156 194.703125 286.796875 194.703125 285.117188 C 194.703125 283.433594 196.042969 282.074219 197.703125 282.074219 C 199.355469 282.074219 200.703125 283.433594 200.703125 285.117188 Z M 200.703125 285.117188 "/>
<path style="fill-rule:nonzero;fill:rgb(99.607843%,74.901961%,6.27451%);fill-opacity:1;stroke-width:0.4;stroke-linecap:round;stroke-linejoin:round;stroke:rgb(0%,0%,0%);stroke-opacity:1;stroke-miterlimit:4;" d="M 65.598949 93.70048 C 65.598949 95.190907 64.390616 96.400194 62.899731 96.400194 C 61.408846 96.400194 60.19921 95.190907 60.19921 93.70048 C 60.19921 92.208769 61.408846 90.999483 62.899731 90.999483 C 64.390616 90.999483 65.598949 92.208769 65.598949 93.70048 Z M 65.598949 93.70048 " transform="matrix(3,0,0,3.042857,0,0)"/>
<path style=" stroke:none;fill-rule:nonzero;fill:rgb(0%,39.607843%,71.764706%);fill-opacity:1;" d="M 198.300781 59.640625 L 189 49.292969 L 180 59.640625 L 180 141.796875 L 198.300781 141.796875 Z M 198.300781 59.640625 "/>
<path style=" stroke:none;fill-rule:nonzero;fill:rgb(0%,30.196078%,63.137255%);fill-opacity:1;" d="M 198.300781 59.640625 L 189 49.292969 L 189 141.796875 L 198.300781 141.796875 Z M 198.300781 59.640625 "/>
<path style="fill:none;stroke-width:0.4;stroke-linecap:round;stroke-linejoin:round;stroke:rgb(0%,0%,0%);stroke-opacity:1;stroke-miterlimit:4;" d="M 66.100251 19.600205 L 62.999991 16.199566 L 59.999992 19.600205 L 59.999992 46.59991 L 66.100251 46.59991 Z M 66.100251 19.600205 " transform="matrix(3,0,0,3.042857,0,0)"/>
<path style="fill:none;stroke-width:0.4;stroke-linecap:round;stroke-linejoin:round;stroke:rgb(0%,0%,0%);stroke-opacity:1;stroke-miterlimit:4;" d="M 62.999991 16.199566 L 62.999991 46.499778 " transform="matrix(3,0,0,3.042857,0,0)"/>
<path style="fill-rule:nonzero;fill:rgb(99.607843%,74.901961%,6.27451%);fill-opacity:1;stroke-width:0.4;stroke-linecap:round;stroke-linejoin:round;stroke:rgb(0%,0%,0%);stroke-opacity:1;stroke-miterlimit:4;" d="M 63.059887 46.259718 L 60.259106 43.399536 L 63.109366 40.64077 L 65.889314 43.500952 Z M 63.059887 46.259718 " transform="matrix(3,0,0,3.042857,0,0)"/>
<path style=" stroke:none;fill-rule:nonzero;fill:rgb(0%,0%,0%);fill-opacity:1;" d="M 189.121094 143.925781 L 180.75 135.195312 L 189.269531 126.796875 L 197.667969 135.53125 Z M 189.121094 143.925781 "/>
<path style="fill-rule:nonzero;fill:rgb(99.607843%,74.901961%,6.27451%);fill-opacity:1;stroke-width:0.4;stroke-linecap:round;stroke-linejoin:round;stroke:rgb(0%,0%,0%);stroke-opacity:1;stroke-miterlimit:4;" d="M 60.100252 51.900489 C 60.19921 47.099286 61.499991 43.999044 63.100252 44.10046 C 64.69921 44.199309 65.901032 47.099286 65.800772 51.999338 C 65.69921 55.152213 64.692699 58.20624 62.899731 60.800687 C 61.119783 58.169012 60.145825 55.076472 60.100252 51.900489 Z M 60.100252 51.900489 " transform="matrix(3,0,0,3.042857,0,0)"/>
<path style="fill:none;stroke-width:0.4;stroke-linecap:round;stroke-linejoin:round;stroke:rgb(0%,0%,0%);stroke-opacity:1;stroke-miterlimit:4;" d="M 65.800772 49.700152 C 64.920564 50.938965 63.839835 52.021161 62.59895 52.900526 C 61.748689 53.647665 61.0677 54.569393 60.600252 55.60024 M 61.399731 57.900709 C 61.826814 57.098369 62.404939 56.384607 63.100252 55.800504 C 64.399731 54.600203 65.200512 54.000695 65.800772 53.29977 M 65.29947 46.700042 C 64.69921 47.800211 63.899731 48.399719 62.100252 50.10068 C 61.287752 50.741268 60.635408 51.561581 60.19921 52.499998 " transform="matrix(3,0,0,3.042857,0,0)"/>
<path style="fill:none;stroke-width:0.4;stroke-linecap:round;stroke-linejoin:round;stroke:rgb(0%,0%,0%);stroke-opacity:1;stroke-miterlimit:4;" d="M 60.600252 55.60024 C 61.0677 54.569393 61.748689 53.647665 62.59895 52.900526 C 63.839835 52.021161 64.920564 50.938965 65.800772 49.700152 M 64.598949 44.499705 C 63.722647 45.490755 62.751293 46.395795 61.700512 47.200702 L 60.399731 48.698831 M 60.19921 52.499998 C 60.635408 51.561581 61.287752 50.741268 62.100252 50.10068 C 63.899731 48.399719 64.69921 47.800211 65.29947 46.700042 " transform="matrix(3,0,0,3.042857,0,0)"/>
<path style="fill-rule:nonzero;fill:rgb(99.607843%,74.901961%,6.27451%);fill-opacity:1;stroke-width:0.4;stroke-linecap:round;stroke-linejoin:round;stroke:rgb(0%,0%,0%);stroke-opacity:1;stroke-miterlimit:4;" d="M 61.700512 46.200666 C 61.700512 48.023582 60.222648 49.501172 58.399731 49.501172 C 56.576815 49.501172 55.100253 48.023582 55.100253 46.200666 C 55.100253 44.377749 56.576815 42.90016 58.399731 42.90016 C 60.222648 42.90016 61.700512 44.377749 61.700512 46.200666 Z M 61.700512 46.200666 " transform="matrix(3,0,0,3.042857,0,0)"/>
<path style="fill-rule:nonzero;fill:rgb(99.607843%,74.901961%,6.27451%);fill-opacity:1;stroke-width:0.4;stroke-linecap:round;stroke-linejoin:round;stroke:rgb(0%,0%,0%);stroke-opacity:1;stroke-miterlimit:4;" d="M 60.700512 46.200666 C 60.700512 47.470288 59.670565 48.499851 58.399731 48.499851 C 57.1302 48.499851 56.100253 47.470288 56.100253 46.200666 C 56.100253 44.929759 57.1302 43.900196 58.399731 43.900196 C 59.670565 43.900196 60.700512 44.929759 60.700512 46.200666 Z M 60.700512 46.200666 " transform="matrix(3,0,0,3.042857,0,0)"/>
<path style=" stroke:none;fill-rule:nonzero;fill:rgb(81.568627%,60.784314%,2.745098%);fill-opacity:1;" d="M 179.101562 140.582031 C 179.101562 142.765625 177.355469 144.535156 175.199219 144.535156 C 173.046875 144.535156 171.300781 142.765625 171.300781 140.582031 C 171.300781 138.394531 173.046875 136.625 175.199219 136.625 C 177.355469 136.625 179.101562 138.394531 179.101562 140.582031 Z M 179.101562 140.582031 "/>
<path style="fill-rule:nonzero;fill:rgb(99.607843%,74.901961%,6.27451%);fill-opacity:1;stroke-width:0.4;stroke-linecap:round;stroke-linejoin:round;stroke:rgb(0%,0%,0%);stroke-opacity:1;stroke-miterlimit:4;" d="M 70.89973 46.299514 C 70.89973 48.12243 69.423167 49.60002 67.600251 49.60002 C 65.777335 49.60002 64.29947 48.12243 64.29947 46.299514 C 64.29947 44.477881 65.777335 43.000292 67.600251 43.000292 C 69.423167 43.000292 70.89973 44.477881 70.89973 46.299514 Z M 70.89973 46.299514 " transform="matrix(3,0,0,3.042857,0,0)"/>
<path style="fill-rule:nonzero;fill:rgb(99.607843%,74.901961%,6.27451%);fill-opacity:1;stroke-width:0.4;stroke-linecap:round;stroke-linejoin:round;stroke:rgb(0%,0%,0%);stroke-opacity:1;stroke-miterlimit:4;" d="M 69.89973 46.299514 C 69.89973 47.569137 68.869782 48.599983 67.600251 48.599983 C 66.329418 48.599983 65.29947 47.569137 65.29947 46.299514 C 65.29947 45.029891 66.329418 43.999044 67.600251 43.999044 C 68.869782 43.999044 69.89973 45.029891 69.89973 46.299514 Z M 69.89973 46.299514 " transform="matrix(3,0,0,3.042857,0,0)"/>
<path style=" stroke:none;fill-rule:nonzero;fill:rgb(81.568627%,60.784314%,2.745098%);fill-opacity:1;" d="M 206.703125 140.882812 C 206.703125 143.070312 204.953125 144.839844 202.800781 144.839844 C 200.648438 144.839844 198.898438 143.070312 198.898438 140.882812 C 198.898438 138.699219 200.648438 136.925781 202.800781 136.925781 C 204.953125 136.925781 206.703125 138.699219 206.703125 140.882812 Z M 206.703125 140.882812 "/>
<path style="fill-rule:nonzero;fill:rgb(99.607843%,74.901961%,6.27451%);fill-opacity:1;stroke-width:0.4;stroke-linecap:round;stroke-linejoin:round;stroke:rgb(0%,0%,0%);stroke-opacity:1;stroke-miterlimit:4;" d="M 64.300209 61.800316 C 64.299682 61.302879 63.672666 60.900136 62.899763 60.899209 C 62.126879 60.899583 61.499563 61.302912 61.50009 61.800349 C 61.500598 62.296484 62.127633 62.700529 62.899234 62.700173 C 63.67342 62.701082 64.299434 62.296469 64.300209 61.800316 Z M 64.300209 61.800316 " transform="matrix(0.0418866,-3.04256,2.999708,0.0424849,0.892556,376.710894)"/>
<path style="fill-rule:nonzero;fill:rgb(99.607843%,74.901961%,6.27451%);fill-opacity:1;stroke-width:0.4;stroke-linecap:round;stroke-linejoin:round;stroke:rgb(0%,0%,0%);stroke-opacity:1;stroke-miterlimit:4;" d="M 65.600845 60.099599 C 65.600315 59.326094 65.197426 58.700147 64.700575 58.700574 C 64.202422 58.699717 63.800335 59.326486 63.799582 60.100009 C 63.800111 60.873515 64.201716 61.499479 64.699869 61.500336 C 65.196721 61.499909 65.600091 60.873122 65.600845 60.099599 Z M 65.600845 60.099599 " transform="matrix(0.0418866,-3.04256,2.999708,0.0424849,11.404575,377.299005)"/>
<path style="fill-rule:nonzero;fill:rgb(99.607843%,74.901961%,6.27451%);fill-opacity:1;stroke-width:0.4;stroke-linecap:round;stroke-linejoin:round;stroke:rgb(0%,0%,0%);stroke-opacity:1;stroke-miterlimit:4;" d="M 62.000175 60.100889 C 62.000911 59.326063 61.596739 58.700135 61.101153 58.699242 C 60.603036 58.700989 60.199648 59.326473 60.200178 60.099979 C 60.200708 60.873484 60.602312 61.499448 61.100466 61.500306 C 61.596033 61.499897 62.000687 60.873092 62.000175 60.100889 Z M 62.000175 60.100889 " transform="matrix(0.0418866,-3.04256,2.999708,0.0424849,0.606213,366.374947)"/>
<path style="fill-rule:nonzero;fill:rgb(99.607843%,74.901961%,6.27451%);fill-opacity:1;stroke-width:0.4;stroke-linecap:round;stroke-linejoin:round;stroke:rgb(0%,0%,0%);stroke-opacity:1;stroke-miterlimit:4;" d="M 63.999991 60.000914 C 63.999991 60.551641 63.552074 61.000951 62.999991 61.000951 C 62.446606 61.000951 61.999991 60.551641 61.999991 60.000914 C 61.999991 59.447621 62.446606 58.999594 62.999991 58.999594 C 63.552074 58.999594 63.999991 59.447621 63.999991 60.000914 Z M 63.999991 60.000914 " transform="matrix(3,0,0,3.042857,0,0)"/>
<path style=" stroke:none;fill-rule:nonzero;fill:rgb(81.568627%,60.784314%,2.745098%);fill-opacity:1;" d="M 188.699219 184.398438 L 190.199219 184.398438 C 189 184.398438 188.402344 183.484375 188.402344 182.265625 C 188.417969 181.703125 188.632812 181.167969 189 180.746094 C 188.152344 180.332031 187.136719 180.539062 186.515625 181.25 C 185.890625 181.964844 185.8125 183.015625 186.320312 183.816406 C 186.828125 184.617188 187.800781 184.980469 188.699219 184.699219 Z M 188.699219 184.398438 "/>
<path style="fill-rule:nonzero;fill:rgb(99.607843%,74.901961%,6.27451%);fill-opacity:1;stroke-width:0.4;stroke-linecap:round;stroke-linejoin:round;stroke:rgb(0%,0%,0%);stroke-opacity:1;stroke-miterlimit:4;" d="M 64.69921 49.100643 C 64.69921 49.983859 63.983064 50.700189 63.100252 50.700189 C 62.216137 50.700189 61.499991 49.983859 61.499991 49.100643 C 61.499991 48.216144 62.216137 47.499815 63.100252 47.499815 C 63.983064 47.499815 64.69921 48.216144 64.69921 49.100643 Z M 64.69921 49.100643 " transform="matrix(3,0,0,3.042857,0,0)"/>
<path style=" stroke:none;fill-rule:nonzero;fill:rgb(0%,0%,0%);fill-opacity:1;" d="M 192.300781 149.40625 C 192.300781 151.082031 190.957031 152.449219 189.300781 152.449219 C 187.644531 152.449219 186.300781 151.082031 186.300781 149.40625 C 186.300781 147.722656 187.644531 146.359375 189.300781 146.359375 C 190.957031 146.359375 192.300781 147.722656 192.300781 149.40625 Z M 192.300781 149.40625 "/>
<path style="fill-rule:nonzero;fill:rgb(99.607843%,74.901961%,6.27451%);fill-opacity:1;stroke-width:0.4;stroke-linecap:round;stroke-linejoin:round;stroke:rgb(0%,0%,0%);stroke-opacity:1;stroke-miterlimit:4;" d="M 67.39973 46.299514 C 67.39973 47.184013 66.683584 47.899059 65.800772 47.899059 C 64.916658 47.899059 64.200512 47.184013 64.200512 46.299514 C 64.200512 45.416298 64.916658 44.699969 65.800772 44.699969 C 66.683584 44.699969 67.39973 45.416298 67.39973 46.299514 Z M 67.39973 46.299514 " transform="matrix(3,0,0,3.042857,0,0)"/>
<path style=" stroke:none;fill-rule:nonzero;fill:rgb(0%,0%,0%);fill-opacity:1;" d="M 200.398438 140.882812 C 200.398438 142.566406 199.058594 143.925781 197.402344 143.925781 C 195.742188 143.925781 194.402344 142.566406 194.402344 140.882812 C 194.402344 139.203125 195.742188 137.839844 197.402344 137.839844 C 199.058594 137.839844 200.398438 139.203125 200.398438 140.882812 Z M 200.398438 140.882812 "/>
<path style="fill-rule:nonzero;fill:rgb(99.607843%,74.901961%,6.27451%);fill-opacity:1;stroke-width:0.4;stroke-linecap:round;stroke-linejoin:round;stroke:rgb(0%,0%,0%);stroke-opacity:1;stroke-miterlimit:4;" d="M 61.700512 46.299514 C 61.700512 47.184013 60.983064 47.899059 60.100252 47.899059 C 59.21744 47.899059 58.499992 47.184013 58.499992 46.299514 C 58.499992 45.416298 59.21744 44.699969 60.100252 44.699969 C 60.983064 44.699969 61.700512 45.416298 61.700512 46.299514 Z M 61.700512 46.299514 " transform="matrix(3,0,0,3.042857,0,0)"/>
<path style=" stroke:none;fill-rule:nonzero;fill:rgb(0%,0%,0%);fill-opacity:1;" d="M 183.300781 140.882812 C 183.300781 142.566406 181.957031 143.925781 180.300781 143.925781 C 178.644531 143.925781 177.300781 142.566406 177.300781 140.882812 C 177.300781 139.203125 178.644531 137.839844 180.300781 137.839844 C 181.957031 137.839844 183.300781 139.203125 183.300781 140.882812 Z M 183.300781 140.882812 "/>
<path style="fill-rule:nonzero;fill:rgb(99.607843%,74.901961%,6.27451%);fill-opacity:1;stroke-width:0.4;stroke-linecap:round;stroke-linejoin:round;stroke:rgb(0%,0%,0%);stroke-opacity:1;stroke-miterlimit:4;" d="M 65.800772 46.299514 C 65.800772 47.791224 64.591137 49.000511 63.100252 49.000511 C 61.609366 49.000511 60.399731 47.791224 60.399731 46.299514 C 60.399731 44.809087 61.609366 43.5998 63.100252 43.5998 C 64.591137 43.5998 65.800772 44.809087 65.800772 46.299514 Z M 65.800772 46.299514 " transform="matrix(3,0,0,3.042857,0,0)"/>
<path style=" stroke:none;fill-rule:nonzero;fill:rgb(0%,39.607843%,71.764706%);fill-opacity:1;" d="M 193.199219 222.433594 L 203.398438 213.304688 L 193.199219 203.875 L 112.199219 204.175781 L 112.199219 222.433594 Z M 193.199219 222.433594 "/>
<path style=" stroke:none;fill-rule:nonzero;fill:rgb(0%,30.196078%,63.137255%);fill-opacity:1;" d="M 193.199219 222.433594 L 203.398438 213.304688 L 112.199219 213.304688 L 112.199219 222.433594 Z M 193.199219 222.433594 "/>
<path style="fill:none;stroke-width:0.4;stroke-linecap:round;stroke-linejoin:round;stroke:rgb(0%,0%,0%);stroke-opacity:1;stroke-miterlimit:4;" d="M 64.399731 73.100239 L 67.79947 70.100129 L 64.399731 67.001171 L 37.399734 67.100019 L 37.399734 73.100239 Z M 64.399731 73.100239 " transform="matrix(3,0,0,3.042857,0,0)"/>
<path style="fill:none;stroke-width:0.4;stroke-linecap:round;stroke-linejoin:round;stroke:rgb(0%,0%,0%);stroke-opacity:1;stroke-miterlimit:4;" d="M 67.79947 70.100129 L 37.499995 70.100129 " transform="matrix(3,0,0,3.042857,0,0)"/>
<path style="fill-rule:nonzero;fill:rgb(99.607843%,74.901961%,6.27451%);fill-opacity:1;stroke-width:0.4;stroke-linecap:round;stroke-linejoin:round;stroke:rgb(0%,0%,0%);stroke-opacity:1;stroke-miterlimit:4;" d="M 37.749995 70.008983 L 40.621088 67.220691 L 43.3789 70.060333 L 40.509109 72.849909 Z M 37.749995 70.008983 " transform="matrix(3,0,0,3.042857,0,0)"/>
<path style=" stroke:none;fill-rule:nonzero;fill:rgb(0%,0%,0%);fill-opacity:1;" d="M 109.980469 213.246094 L 118.589844 204.722656 L 126.871094 213.394531 L 118.257812 221.886719 Z M 109.980469 213.246094 "/>
<path style="fill-rule:nonzero;fill:rgb(99.607843%,74.901961%,6.27451%);fill-opacity:1;stroke-width:0.4;stroke-linecap:round;stroke-linejoin:round;stroke:rgb(0%,0%,0%);stroke-opacity:1;stroke-miterlimit:4;" d="M 32.100256 67.200151 C 36.999995 67.200151 39.999994 68.4993 39.999994 70.100129 C 39.999994 71.700958 36.901037 72.998823 31.999996 72.899975 C 28.8776 72.724102 25.867184 71.685553 23.299476 69.899865 C 25.920569 68.18735 28.97135 67.252785 32.100256 67.200151 Z M 32.100256 67.200151 " transform="matrix(3,0,0,3.042857,0,0)"/>
<path style="fill:none;stroke-width:0.4;stroke-linecap:round;stroke-linejoin:round;stroke:rgb(0%,0%,0%);stroke-opacity:1;stroke-miterlimit:4;" d="M 34.399735 72.799843 C 33.299475 72.199051 32.700516 71.399278 31.100256 69.699601 C 30.421871 68.776589 29.480465 68.079516 28.399736 67.699528 M 26.199215 68.400452 C 26.970048 68.833074 27.648434 69.410758 28.199215 70.100129 C 28.992183 71.068072 29.861975 71.971828 30.800777 72.799843 M 37.399734 72.399315 C 36.200516 71.700958 35.598953 71.000034 33.999995 69.100092 C 33.298172 68.31059 32.449214 67.663583 31.499996 67.200151 " transform="matrix(3,0,0,3.042857,0,0)"/>
<path style="fill:none;stroke-width:0.4;stroke-linecap:round;stroke-linejoin:round;stroke:rgb(0%,0%,0%);stroke-opacity:1;stroke-miterlimit:4;" d="M 28.399736 67.699528 C 29.480465 68.079516 30.421871 68.776589 31.100256 69.699601 C 32.700516 71.399278 33.299475 72.199051 34.399735 72.799843 M 39.600255 71.599542 C 38.565099 70.774095 37.626297 69.834394 36.800776 68.799696 L 35.399735 67.400415 M 31.499996 67.200151 C 32.449214 67.663583 33.298172 68.31059 33.999995 69.100092 C 35.598953 71.000034 36.200516 71.700958 37.399734 72.399315 " transform="matrix(3,0,0,3.042857,0,0)"/>
<path style="fill-rule:nonzero;fill:rgb(99.607843%,74.901961%,6.27451%);fill-opacity:1;stroke-width:0.4;stroke-linecap:round;stroke-linejoin:round;stroke:rgb(0%,0%,0%);stroke-opacity:1;stroke-miterlimit:4;" d="M 41.200515 65.500474 C 41.200515 67.322107 39.722651 68.799696 37.901036 68.799696 C 36.076818 68.799696 34.598953 67.322107 34.598953 65.500474 C 34.598953 63.677557 36.076818 62.199968 37.901036 62.199968 C 39.722651 62.199968 41.200515 63.677557 41.200515 65.500474 Z M 41.200515 65.500474 " transform="matrix(3,0,0,3.042857,0,0)"/>
<path style="fill-rule:nonzero;fill:rgb(99.607843%,74.901961%,6.27451%);fill-opacity:1;stroke-width:0.4;stroke-linecap:round;stroke-linejoin:round;stroke:rgb(0%,0%,0%);stroke-opacity:1;stroke-miterlimit:4;" d="M 40.200515 65.500474 C 40.200515 66.770097 39.169265 67.800943 37.901036 67.800943 C 36.630203 67.800943 35.598953 66.770097 35.598953 65.500474 C 35.598953 64.230851 36.630203 63.200005 37.901036 63.200005 C 39.169265 63.200005 40.200515 64.230851 40.200515 65.500474 Z M 40.200515 65.500474 " transform="matrix(3,0,0,3.042857,0,0)"/>
<path style=" stroke:none;fill-rule:nonzero;fill:rgb(81.568627%,60.784314%,2.745098%);fill-opacity:1;" d="M 117.601562 199.308594 C 117.601562 201.492188 115.855469 203.265625 113.703125 203.265625 C 111.546875 203.265625 109.796875 201.492188 109.796875 199.308594 C 109.796875 197.121094 111.546875 195.351562 113.703125 195.351562 C 115.855469 195.351562 117.601562 197.121094 117.601562 199.308594 Z M 117.601562 199.308594 "/>
<path style="fill-rule:nonzero;fill:rgb(99.607843%,74.901961%,6.27451%);fill-opacity:1;stroke-width:0.4;stroke-linecap:round;stroke-linejoin:round;stroke:rgb(0%,0%,0%);stroke-opacity:1;stroke-miterlimit:4;" d="M 40.999994 74.699784 C 40.999994 76.522701 39.523432 78.00029 37.699213 78.00029 C 35.877599 78.00029 34.399735 76.522701 34.399735 74.699784 C 34.399735 72.876867 35.877599 71.399278 37.699213 71.399278 C 39.523432 71.399278 40.999994 72.876867 40.999994 74.699784 Z M 40.999994 74.699784 " transform="matrix(3,0,0,3.042857,0,0)"/>
<path style="fill-rule:nonzero;fill:rgb(99.607843%,74.901961%,6.27451%);fill-opacity:1;stroke-width:0.4;stroke-linecap:round;stroke-linejoin:round;stroke:rgb(0%,0%,0%);stroke-opacity:1;stroke-miterlimit:4;" d="M 39.999994 74.699784 C 39.999994 75.970691 38.970047 77.000253 37.699213 77.000253 C 36.429682 77.000253 35.399735 75.970691 35.399735 74.699784 C 35.399735 73.430161 36.429682 72.399315 37.699213 72.399315 C 38.970047 72.399315 39.999994 73.430161 39.999994 74.699784 Z M 39.999994 74.699784 " transform="matrix(3,0,0,3.042857,0,0)"/>
<path style=" stroke:none;fill-rule:nonzero;fill:rgb(81.568627%,60.784314%,2.745098%);fill-opacity:1;" d="M 117 227.300781 C 117 229.488281 115.253906 231.257812 113.097656 231.257812 C 110.945312 231.257812 109.199219 229.488281 109.199219 227.300781 C 109.199219 225.117188 110.945312 223.34375 113.097656 223.34375 C 115.253906 223.34375 117 225.117188 117 227.300781 Z M 117 227.300781 "/>
<path style="fill-rule:nonzero;fill:rgb(99.607843%,74.901961%,6.27451%);fill-opacity:1;stroke-width:0.4;stroke-linecap:round;stroke-linejoin:round;stroke:rgb(0%,0%,0%);stroke-opacity:1;stroke-miterlimit:4;" d="M 23.200409 70.000345 C 23.199879 69.226839 22.796973 68.599591 22.300121 68.600018 C 21.80327 68.600445 21.3999 69.227231 21.400411 69.999435 C 21.399658 70.772958 21.803848 71.400188 22.300699 71.399762 C 22.796285 71.400655 23.200939 70.77385 23.200409 70.000345 Z M 23.200409 70.000345 " transform="matrix(0.0418866,-3.04256,2.999708,0.0424849,-143.983602,277.845152)"/>
<path style="fill-rule:nonzero;fill:rgb(99.607843%,74.901961%,6.27451%);fill-opacity:1;stroke-width:0.4;stroke-linecap:round;stroke-linejoin:round;stroke:rgb(0%,0%,0%);stroke-opacity:1;stroke-miterlimit:4;" d="M 25.399481 71.800218 C 25.400257 71.304065 24.773222 70.90002 24.000338 70.900395 C 23.226152 70.899485 22.60012 71.302797 22.599363 71.800252 C 22.599889 72.297689 23.226906 72.700432 23.99979 72.700057 C 24.773958 72.699665 25.400008 72.297655 25.399481 71.800218 Z M 25.399481 71.800218 " transform="matrix(0.0418866,-3.04256,2.999708,0.0424849,-144.295121,288.479026)"/>
<path style="fill-rule:nonzero;fill:rgb(99.607843%,74.901961%,6.27451%);fill-opacity:1;stroke-width:0.4;stroke-linecap:round;stroke-linejoin:round;stroke:rgb(0%,0%,0%);stroke-opacity:1;stroke-miterlimit:4;" d="M 25.399589 68.200357 C 25.400346 67.702902 24.773329 67.300159 23.999143 67.29925 C 23.227543 67.299607 22.600227 67.702936 22.600754 68.200373 C 22.599979 68.696526 23.227013 69.100571 23.999897 69.100196 C 24.772782 69.099822 25.400097 68.696492 25.399589 68.200357 Z M 25.399589 68.200357 " transform="matrix(0.0418866,-3.04256,2.999708,0.0424849,-133.465345,277.526823)"/>
<path style="fill-rule:nonzero;fill:rgb(99.607843%,74.901961%,6.27451%);fill-opacity:1;stroke-width:0.4;stroke-linecap:round;stroke-linejoin:round;stroke:rgb(0%,0%,0%);stroke-opacity:1;stroke-miterlimit:4;" d="M 25.100257 69.999997 C 25.100257 70.553291 24.65234 71.000034 24.100257 71.000034 C 23.548174 71.000034 23.100257 70.553291 23.100257 69.999997 C 23.100257 69.446703 23.548174 68.99996 24.100257 68.99996 C 24.65234 68.99996 25.100257 69.446703 25.100257 69.999997 Z M 25.100257 69.999997 " transform="matrix(3,0,0,3.042857,0,0)"/>
<path style=" stroke:none;fill-rule:nonzero;fill:rgb(81.568627%,60.784314%,2.745098%);fill-opacity:1;" d="M 70.203125 213 C 70.203125 213.304688 70.5 213.914062 70.5 214.21875 C 70.816406 213.261719 71.621094 212.5625 72.597656 212.390625 C 73.324219 212.296875 74.039062 212.65625 74.398438 213.304688 C 74.398438 212.128906 73.460938 211.175781 72.300781 211.175781 C 71.140625 211.175781 70.203125 212.128906 70.203125 213.304688 Z M 70.203125 213 "/>
<path style="fill-rule:nonzero;fill:rgb(99.607843%,74.901961%,6.27451%);fill-opacity:1;stroke-width:0.4;stroke-linecap:round;stroke-linejoin:round;stroke:rgb(0%,0%,0%);stroke-opacity:1;stroke-miterlimit:4;" d="M 36.598953 70.100129 C 36.598953 70.983345 35.882807 71.700958 34.999995 71.700958 C 34.115881 71.700958 33.399735 70.983345 33.399735 70.100129 C 33.399735 69.216913 34.115881 68.4993 34.999995 68.4993 C 35.882807 68.4993 36.598953 69.216913 36.598953 70.100129 Z M 36.598953 70.100129 " transform="matrix(3,0,0,3.042857,0,0)"/>
<path style=" stroke:none;fill-rule:nonzero;fill:rgb(0%,0%,0%);fill-opacity:1;" d="M 108 213.304688 C 108 214.984375 106.65625 216.347656 105 216.347656 C 103.339844 216.347656 102 214.984375 102 213.304688 C 102 211.625 103.339844 210.261719 105 210.261719 C 106.65625 210.261719 108 211.625 108 213.304688 Z M 108 213.304688 "/>
<path style="fill-rule:nonzero;fill:rgb(99.607843%,74.901961%,6.27451%);fill-opacity:1;stroke-width:0.4;stroke-linecap:round;stroke-linejoin:round;stroke:rgb(0%,0%,0%);stroke-opacity:1;stroke-miterlimit:4;" d="M 39.299474 72.799843 C 39.299474 73.684342 38.583328 74.400672 37.699213 74.400672 C 36.816401 74.400672 36.100255 73.684342 36.100255 72.799843 C 36.100255 71.916627 36.816401 71.200298 37.699213 71.200298 C 38.583328 71.200298 39.299474 71.916627 39.299474 72.799843 Z M 39.299474 72.799843 " transform="matrix(3,0,0,3.042857,0,0)"/>
<path style=" stroke:none;fill-rule:nonzero;fill:rgb(0%,0%,0%);fill-opacity:1;" d="M 116.097656 221.519531 C 116.097656 223.199219 114.757812 224.566406 113.097656 224.566406 C 111.441406 224.566406 110.097656 223.199219 110.097656 221.519531 C 110.097656 219.839844 111.441406 218.476562 113.097656 218.476562 C 114.757812 218.476562 116.097656 219.839844 116.097656 221.519531 Z M 116.097656 221.519531 "/>
<path style="fill-rule:nonzero;fill:rgb(99.607843%,74.901961%,6.27451%);fill-opacity:1;stroke-width:0.4;stroke-linecap:round;stroke-linejoin:round;stroke:rgb(0%,0%,0%);stroke-opacity:1;stroke-miterlimit:4;" d="M 39.299474 67.200151 C 39.299474 68.083367 38.583328 68.799696 37.699213 68.799696 C 36.816401 68.799696 36.100255 68.083367 36.100255 67.200151 C 36.100255 66.315651 36.816401 65.599322 37.699213 65.599322 C 38.583328 65.599322 39.299474 66.315651 39.299474 67.200151 Z M 39.299474 67.200151 " transform="matrix(3,0,0,3.042857,0,0)"/>
<path style=" stroke:none;fill-rule:nonzero;fill:rgb(0%,0%,0%);fill-opacity:1;" d="M 116.097656 204.480469 C 116.097656 206.160156 114.757812 207.523438 113.097656 207.523438 C 111.441406 207.523438 110.097656 206.160156 110.097656 204.480469 C 110.097656 202.800781 111.441406 201.433594 113.097656 201.433594 C 114.757812 201.433594 116.097656 202.800781 116.097656 204.480469 Z M 116.097656 204.480469 "/>
<path style="fill-rule:nonzero;fill:rgb(99.607843%,74.901961%,6.27451%);fill-opacity:1;stroke-width:0.4;stroke-linecap:round;stroke-linejoin:round;stroke:rgb(0%,0%,0%);stroke-opacity:1;stroke-miterlimit:4;" d="M 40.399734 70.100129 C 40.399734 71.59184 39.191401 72.799843 37.699213 72.799843 C 36.208328 72.799843 34.999995 71.59184 34.999995 70.100129 C 34.999995 68.608418 36.208328 67.400415 37.699213 67.400415 C 39.191401 67.400415 40.399734 68.608418 40.399734 70.100129 Z M 40.399734 70.100129 " transform="matrix(3,0,0,3.042857,0,0)"/>
</g>
</svg>
