<svg xmlns="http://www.w3.org/2000/svg" viewBox="0 0 78 140">
  <rect width="78" height="140" rx="6" ry="6" fill="#fff"/>
  <path d="M33.4 86.6a6.2 6.2 0 0 0-1.9 2.7c-.4 1.5 15 .7 15 .7s-.1-2.7-1.9-4-11.2.6-11.2.6z" fill="#980805" stroke="#000" stroke-linecap="round" stroke-linejoin="round" stroke-width=".4"/>
  <circle cx="23.1" cy="126.5" r="3" fill="red" stroke="#000" stroke-linecap="round" stroke-linejoin="round" stroke-width=".4"/>
  <path d="M23.6 124.8a1.7 1.7 0 0 1 .1.7 1.9 1.9 0 0 1-1.8 1.9h-.5a1.9 1.9 0 0 0 1.7 1.1 1.9 1.9 0 0 0 1.8-1.9 1.8 1.8 0 0 0-1.3-1.8z" fill="#980805"/>
  <circle cx="15.2" cy="122.8" r="3" fill="red" stroke="#000" stroke-linecap="round" stroke-linejoin="round" stroke-width=".4"/>
  <path d="M15.7 121a1.8 1.8 0 0 1-1.7 2.6h-.5a1.9 1.9 0 0 0 1.7 1 1.8 1.8 0 0 0 1.8-1.8 1.7 1.7 0 0 0-1.3-1.8z" fill="#980805"/>
  <circle cx="54.8" cy="126.5" r="3" fill="red" stroke="#000" stroke-linecap="round" stroke-linejoin="round" stroke-width=".4"/>
  <path d="M54.3 124.8a1.9 1.9 0 0 0-.2.7 1.9 1.9 0 0 0 1.9 1.9h.4a1.9 1.9 0 0 1-1.6 1.1 1.9 1.9 0 0 1-1.9-1.9 1.8 1.8 0 0 1 1.4-1.8z" fill="#980805"/>
  <circle cx="62.6" cy="122.8" r="3" fill="red" stroke="#000" stroke-linecap="round" stroke-linejoin="round" stroke-width=".4"/>
  <path d="M62.2 121a1.1 1.1 0 0 0-.2.8 1.8 1.8 0 0 0 1.8 1.8h.5a1.8 1.8 0 0 1-1.7 1 1.8 1.8 0 0 1-1.8-1.8 1.8 1.8 0 0 1 1.4-1.8z" fill="#980805"/>
  <path fill="#d09b07" stroke="#000" stroke-linecap="round" stroke-linejoin="round" stroke-width=".4" d="M23.4 122.3l-9.8-3.2v-6h9.8v9.2zm31.5-.5l10.2-3.2v-6H54.9v9.2z"/>
  <path fill="#d09b07" stroke="#000" stroke-linecap="round" stroke-linejoin="round" stroke-width=".4" d="M23 116.9h32.1v6.08H23zm41.7-61.5c0 15.7-11.4 28.4-25.6 28.4S13.5 71.1 13.5 55.4"/>
  <path d="M38.3 59.8c-15.3 0-26.1-5.8-26.7-6.2a3 3 0 0 1-1.2-4.1 2.7 2.7 0 0 1 3.8-.9c.3.2 22.8 11.4 49.3-.2 1.5-.7 3.6-.3 4.2 1.2a3 3 0 0 1-1.5 4 72.6 72.6 0 0 1-27.9 6.2z" fill="#0d3a12" stroke="#000" stroke-linecap="round" stroke-linejoin="round" stroke-width=".4"/>
  <path d="M62.3 51.8a4 4 0 0 0 2.8 0 3.7 3.7 0 0 0 1.7-2.3 3.7 3.7 0 0 0-2.9 0 3.8 3.8 0 0 0-1.6 2.3zm0 0l2.5-1.3" fill="#325723" stroke="#000" stroke-linecap="round" stroke-linejoin="round" stroke-width=".3"/>
  <path d="M59 52.9a4 4 0 0 0 2.8.5 3.9 3.9 0 0 0 2-2.1 3.7 3.7 0 0 0-2.8-.4 3.9 3.9 0 0 0-2 2zm0 0l2.7-.9" fill="#325723" stroke="#000" stroke-linecap="round" stroke-linejoin="round" stroke-width=".3"/>
  <path d="M55.8 53.7a3.9 3.9 0 0 0 2.7.7 3.5 3.5 0 0 0 2.1-1.9 3.9 3.9 0 0 0-2.7-.7 3.8 3.8 0 0 0-2.1 1.9zm0 0l2.7-.6" fill="#325723" stroke="#000" stroke-linecap="round" stroke-linejoin="round" stroke-width=".3"/>
  <path d="M52.2 54.5a4.1 4.1 0 0 0 2.8.7 3.9 3.9 0 0 0 2.1-1.9 3.9 3.9 0 0 0-2.7-.7 4.2 4.2 0 0 0-2.2 1.9zm0 0l2.7-.6" fill="#325723" stroke="#000" stroke-linecap="round" stroke-linejoin="round" stroke-width=".3"/>
  <path d="M49.2 54.7a4.3 4.3 0 0 0 2.6 1 4.2 4.2 0 0 0 2.4-1.6 3.8 3.8 0 0 0-2.7-1 3.8 3.8 0 0 0-2.3 1.6zm0 0l2.7-.4" fill="#325723" stroke="#000" stroke-linecap="round" stroke-linejoin="round" stroke-width=".3"/>
  <path d="M46 54.9a3.9 3.9 0 0 0 2.6 1.1 4.2 4.2 0 0 0 2.4-1.6 3.7 3.7 0 0 0-2.6-1 3.8 3.8 0 0 0-2.4 1.5zm0 0l2.7-.2" fill="#325723" stroke="#000" stroke-linecap="round" stroke-linejoin="round" stroke-width=".3"/>
  <path d="M42.5 55.2a4.2 4.2 0 0 0 2.6 1.1 3.8 3.8 0 0 0 2.4-1.5 3.4 3.4 0 0 0-2.6-1.1 3.8 3.8 0 0 0-2.4 1.5zm0 0l2.8-.2" fill="#325723" stroke="#000" stroke-linecap="round" stroke-linejoin="round" stroke-width=".3"/>
  <path d="M39.2 55.4a3.9 3.9 0 0 0 2.6 1.1 3.8 3.8 0 0 0 2.4-1.4 3.8 3.8 0 0 0-2.6-1.2 3.8 3.8 0 0 0-2.4 1.5zm0 0l2.8-.2m-26.1-3.4a4 4 0 0 1-2.8 0 3.7 3.7 0 0 1-1.7-2.3 3.7 3.7 0 0 1 2.9 0 3.8 3.8 0 0 1 1.6 2.3zm0 0l-2.5-1.3" fill="#325723" stroke="#000" stroke-linecap="round" stroke-linejoin="round" stroke-width=".3"/>
  <path d="M19.2 52.9a4 4 0 0 1-2.8.5 4.3 4.3 0 0 1-2-2.1 3.7 3.7 0 0 1 2.8-.4 3.9 3.9 0 0 1 2 2zm0 0l-2.6-.9" fill="#325723" stroke="#000" stroke-linecap="round" stroke-linejoin="round" stroke-width=".3"/>
  <path d="M22.4 53.7a3.9 3.9 0 0 1-2.7.7 3.5 3.5 0 0 1-2.1-1.9 3.9 3.9 0 0 1 2.7-.7 3.8 3.8 0 0 1 2.1 1.9zm0 0l-2.6-.6" fill="#325723" stroke="#000" stroke-linecap="round" stroke-linejoin="round" stroke-width=".3"/>
  <path d="M26 54.5a4.1 4.1 0 0 1-2.8.7 3.9 3.9 0 0 1-2.1-1.9 4.1 4.1 0 0 1 2.8-.7 4.3 4.3 0 0 1 2.1 1.9zm0 0l-2.7-.6" fill="#325723" stroke="#000" stroke-linecap="round" stroke-linejoin="round" stroke-width=".3"/>
  <path d="M29 54.7a4 4 0 0 1-2.6 1 4.2 4.2 0 0 1-2.4-1.6 3.8 3.8 0 0 1 2.7-1 3.4 3.4 0 0 1 2.3 1.6zm0 0l-2.7-.4" fill="#325723" stroke="#000" stroke-linecap="round" stroke-linejoin="round" stroke-width=".3"/>
  <path d="M32.2 54.9a3.9 3.9 0 0 1-2.6 1.1 4.2 4.2 0 0 1-2.4-1.6 3.8 3.8 0 0 1 2.7-1 3.8 3.8 0 0 1 2.3 1.5zm0 0l-2.7-.2" fill="#325723" stroke="#000" stroke-linecap="round" stroke-linejoin="round" stroke-width=".3"/>
  <path d="M35.7 55.2a3.9 3.9 0 0 1-2.6 1.1 3.8 3.8 0 0 1-2.4-1.5 3.4 3.4 0 0 1 2.6-1.1 3.8 3.8 0 0 1 2.4 1.5zm0 0l-2.8-.2" fill="#325723" stroke="#000" stroke-linecap="round" stroke-linejoin="round" stroke-width=".3"/>
  <path d="M39 55.4a3.9 3.9 0 0 1-2.6 1.1 4.2 4.2 0 0 1-2.4-1.4 3.8 3.8 0 0 1 2.6-1.2 3.8 3.8 0 0 1 2.4 1.5zm0 0l-2.7-.2m25.5-1.1a3.5 3.5 0 0 0 2.8 0 3.7 3.7 0 0 0 1.7-2.3 4.3 4.3 0 0 0-2.9 0 3.8 3.8 0 0 0-1.6 2.3zm0 0l2.5-1.3" fill="#325723" stroke="#000" stroke-linecap="round" stroke-linejoin="round" stroke-width=".3"/>
  <path d="M58.5 55.3a4.2 4.2 0 0 0 2.8.4 3.6 3.6 0 0 0 2-2.1 4.2 4.2 0 0 0-2.8-.4 4.3 4.3 0 0 0-2 2.1zm0 0l2.7-.9" fill="#325723" stroke="#000" stroke-linecap="round" stroke-linejoin="round" stroke-width=".3"/>
  <path d="M55.3 56.1a3.6 3.6 0 0 0 2.7.6 3.5 3.5 0 0 0 2.1-1.8 3.4 3.4 0 0 0-2.7-.7 3.5 3.5 0 0 0-2.1 1.9zm0 0l2.7-.7" fill="#325723" stroke="#000" stroke-linecap="round" stroke-linejoin="round" stroke-width=".3"/>
  <path d="M51.7 56.9a3.7 3.7 0 0 0 2.8.6 3.9 3.9 0 0 0 2.1-1.9 3.6 3.6 0 0 0-2.7-.6 3.8 3.8 0 0 0-2.2 1.9zm0 0l2.7-.7" fill="#325723" stroke="#000" stroke-linecap="round" stroke-linejoin="round" stroke-width=".3"/>
  <path d="M48.7 57a3.7 3.7 0 0 0 2.6 1 3.8 3.8 0 0 0 2.4-1.6 3.8 3.8 0 0 0-2.7-1 4.2 4.2 0 0 0-2.3 1.6zm0 0l2.7-.3" fill="#325723" stroke="#000" stroke-linecap="round" stroke-linejoin="round" stroke-width=".3"/>
  <path d="M45.5 57.3a3.5 3.5 0 0 0 2.6 1 3.8 3.8 0 0 0 2.4-1.5 4.2 4.2 0 0 0-2.6-1.1 3.8 3.8 0 0 0-2.4 1.6zm0 0l2.7-.3" fill="#325723" stroke="#000" stroke-linecap="round" stroke-linejoin="round" stroke-width=".3"/>
  <path d="M42 57.5a4.2 4.2 0 0 0 2.6 1.1 3.8 3.8 0 0 0 2.4-1.5 3.9 3.9 0 0 0-2.6-1.1 3.8 3.8 0 0 0-2.4 1.5zm0 0l2.8-.2" fill="#325723" stroke="#000" stroke-linecap="round" stroke-linejoin="round" stroke-width=".3"/>
  <path d="M38.7 57.7a4.3 4.3 0 0 0 2.6 1.2 3.8 3.8 0 0 0 2.4-1.5 3.8 3.8 0 0 0-2.6-1.2 3.8 3.8 0 0 0-2.4 1.5zm0 0l2.8-.2m-24.3-3.3a4.3 4.3 0 0 1-2.9 0 3.8 3.8 0 0 1-1.6-2.3 3.5 3.5 0 0 1 2.8 0 3.7 3.7 0 0 1 1.7 2.3zm0 0l-2.5-1.3" fill="#325723" stroke="#000" stroke-linecap="round" stroke-linejoin="round" stroke-width=".3"/>
  <path d="M20.4 55.4a4.2 4.2 0 0 1-2.8.4 3.9 3.9 0 0 1-1.9-2.1 3.7 3.7 0 0 1 2.8-.4 3.6 3.6 0 0 1 1.9 2.1zm0 0l-2.6-.9" fill="#325723" stroke="#000" stroke-linecap="round" stroke-linejoin="round" stroke-width=".3"/>
  <path d="M23.7 56.1a4.1 4.1 0 0 1-2.8.7 3.9 3.9 0 0 1-2.1-1.9 3.7 3.7 0 0 1 2.8-.6 3.8 3.8 0 0 1 2.1 1.8zm0 0l-2.7-.6" fill="#325723" stroke="#000" stroke-linecap="round" stroke-linejoin="round" stroke-width=".3"/>
  <path d="M27.2 56.9a3.9 3.9 0 0 1-2.7.7 3.5 3.5 0 0 1-2.1-1.9 3.6 3.6 0 0 1 2.7-.6 3.5 3.5 0 0 1 2.1 1.8zm0 0l-2.6-.6" fill="#325723" stroke="#000" stroke-linecap="round" stroke-linejoin="round" stroke-width=".3"/>
  <path d="M30.3 57.1a3.8 3.8 0 0 1-2.7 1 3.8 3.8 0 0 1-2.3-1.6 3.7 3.7 0 0 1 2.6-1 4.2 4.2 0 0 1 2.4 1.6zm0 0l-2.8-.3" fill="#325723" stroke="#000" stroke-linecap="round" stroke-linejoin="round" stroke-width=".3"/>
  <path d="M33.5 57.3a4.2 4.2 0 0 1-2.6 1.1 3.8 3.8 0 0 1-2.4-1.6 4 4 0 0 1 2.6-1 3.8 3.8 0 0 1 2.4 1.5zm0 0l-2.8-.2" fill="#325723" stroke="#000" stroke-linecap="round" stroke-linejoin="round" stroke-width=".3"/>
  <path d="M36.9 57.6a3.9 3.9 0 0 1-2.6 1.1 3.8 3.8 0 0 1-2.4-1.5 4.2 4.2 0 0 1 2.7-1.1 3.8 3.8 0 0 1 2.3 1.5zm0 0l-2.7-.2" fill="#325723" stroke="#000" stroke-linecap="round" stroke-linejoin="round" stroke-width=".3"/>
  <path d="M40.3 57.8a3.9 3.9 0 0 1-2.6 1.1 3.4 3.4 0 0 1-2.4-1.4 3.8 3.8 0 0 1 2.6-1.2 4.1 4.1 0 0 1 2.4 1.5zm0 0l-2.8-.2" fill="#325723" stroke="#000" stroke-linecap="round" stroke-linejoin="round" stroke-width=".3"/>
  <path d="M42.8 60.1a1.3 1.3 0 0 1-.9-.2l-7.7-6.4a.7.7 0 0 1 0-1.2 1.2 1.2 0 0 1 1.4 0l7.7 6.4a.7.7 0 0 1 0 1.2z" fill="#febf10" stroke="#000" stroke-linecap="round" stroke-linejoin="round" stroke-width=".4"/>
  <path d="M35.2 60.4l-.6-.2a.7.7 0 0 1 0-1.2l7-5.8a1.2 1.2 0 0 1 1.4 0 .7.7 0 0 1 0 1.2l-7 5.8a.8.8 0 0 1-.8.2z" fill="#febf10" stroke="#000" stroke-linecap="round" stroke-linejoin="round" stroke-width=".4"/>
  <path d="M62.6 66.6h-.3c-1.1 0-2.3-1.7-2.3-4.2s1.3-3.1 2.3-3.9a9.6 9.6 0 0 1 1.9 2.5l.2-1.6a11.6 11.6 0 0 0-2.1-2.1s-2.8 2-3.3 4.5a10.6 10.6 0 0 0-3-2.7s-3.8 2.2-3.9 5c-1.1-2.1-4-3.6-4-3.6s-3.6 1.9-4.3 4.4c-1-2.3-4.4-4-4.4-4s-3.7 1.9-4.6 4.3c-.5-2.6-4.3-4.6-4.3-4.6s-2.9 1.5-4 3.6c-.2-2.7-3.9-4.9-3.9-4.9a11.9 11.9 0 0 0-3.1 2.7c-.4-2.5-3.2-4.4-3.2-4.4a8.3 8.3 0 0 0-2.4 2.6l.3 1.6a7.9 7.9 0 0 1 2.1-3c1 .9 2.3 2.4 2.3 4s-1.2 4.1-2.3 4.1l-.7-.2.5 1.2h.2a3 3 0 0 0 2.5-1.8c.5 2.1 2 3.6 3.8 3.6a3.4 3.4 0 0 0 3.4-2.6 4.4 4.4 0 0 0 4.5 3.8 4.5 4.5 0 0 0 4.2-3.8 4.8 4.8 0 0 0 4.7 4.2c2.2 0 4-2.2 4.5-4.5.6 2.1 2.3 4.1 4.2 4.1a4.4 4.4 0 0 0 4.4-4 3.5 3.5 0 0 0 3.5 2.6c1.8 0 3.3-1.5 3.8-3.6.6 1.1 1.2 1.8 2.2 1.8zm-40 2.1c-1.6 0-3-1.9-3-4.2s1.8-3.2 3-4c1.1.8 2.9 2.4 2.9 4s-1.3 4.2-2.9 4.2zm7.9 1.2c-1.9 0-3.4-1.8-3.4-4.1s2.1-3.3 3.4-4.1c1.2.8 3.4 2.4 3.4 4.1s-1.6 4.1-3.4 4.1zm8.9.4a4 4 0 0 1-3.8-4.2c0-1.6 2.4-3.3 3.8-4s3.7 2.4 3.7 4a4 4 0 0 1-3.7 4.2zm8.7-.4c-1.9 0-3.4-1.9-3.4-4.2s2.2-3.3 3.4-4 3.4 2.4 3.4 4-1.5 4.2-3.4 4.2zm7.9-1.4c-1.6 0-3-1.9-3-4.2s1.9-3.2 3-4c1.1.8 3 2.4 3 4s-1.4 4.2-3 4.2z" fill="#febf10" stroke="#000" stroke-linecap="round" stroke-linejoin="round" stroke-width=".4"/>
  <path d="M40.5 65.3a1.3 1.3 0 0 0 .1-.6 1.3 1.3 0 1 0-2.6 0 1.3 1.3 0 0 0 .1.6H38a1.3 1.3 0 0 0-1.4 1.3A1.4 1.4 0 0 0 38 68a1.5 1.5 0 0 0 1.3-1.1 1.3 1.3 0 0 0 1.2 1.1 1.4 1.4 0 0 0 1.4-1.4 1.3 1.3 0 0 0-1.4-1.3zm-17-1.7h-.1l.3-.5a1.1 1.1 0 0 0-.9-1.3 1.1 1.1 0 0 0-1.2.9 1.3 1.3 0 0 0 .1.6h-.1a1.1 1.1 0 1 0-.4 2.2 1.2 1.2 0 0 0 1.1-.7 1 1 0 0 0 .8 1 1 1 0 0 0 1.2-.9 1.1 1.1 0 0 0-.8-1.3zm8.1 1.3h-.1a1.4 1.4 0 0 0 .2-.6 1.3 1.3 0 0 0-1.1-1.5 1.4 1.4 0 0 0-1.4 1.3 1.3 1.3 0 0 0 .1.6h-.1a1.3 1.3 0 0 0-1.4 1.2 1.4 1.4 0 0 0 1.2 1.5 1.4 1.4 0 0 0 1.3-1 1.4 1.4 0 0 0 1.1 1.2 1.3 1.3 0 0 0 1.3-1.3 1.2 1.2 0 0 0-1.1-1.4z" fill="red" stroke="#000" stroke-linecap="round" stroke-linejoin="round" stroke-width=".4"/>
  <path d="M39.3 61.2A70.6 70.6 0 0 1 12.6 56a1.1 1.1 0 0 1-.5-1.4 1 1 0 0 1 1.4-.4c.2.1 24.2 11.4 50.8-.1a1.2 1.2 0 0 1 1.4.6 1 1 0 0 1-.6 1.3 65.9 65.9 0 0 1-25.8 5.2z" fill="#0065b7" stroke="#000" stroke-linecap="round" stroke-linejoin="round" stroke-width=".4"/>
  <path d="M17 61.6h-.1a.5.5 0 0 0 .2-.4c0-.5-.3-1-.7-1s-.8.3-.9.9a.6.6 0 0 0 .1.4h-.1a1.1 1.1 0 0 0-.9.9c0 .5.3 1 .7 1s.7-.2.8-.6a1.1 1.1 0 0 0 .7.8c.5 0 .8-.4.9-.9a1 1 0 0 0-.7-1.1zm37.2 3.3a1.1 1.1 0 0 0 1.3.9 1.1 1.1 0 0 0 .8-1 1.2 1.2 0 0 0 1.1.7 1.1 1.1 0 0 0 .8-1.3 1 1 0 0 0-1.2-.9h-.1a1.3 1.3 0 0 0 .1-.6 1.1 1.1 0 0 0-1.3-.9 1.1 1.1 0 0 0-.8 1.3c0 .2.1.3.2.5a1.1 1.1 0 0 0-.9 1.3zm-8.4 1.4a1.5 1.5 0 0 0 1.4 1.3 1.4 1.4 0 0 0 1.1-1.2 1.4 1.4 0 0 0 1.3 1 1.4 1.4 0 0 0 1.2-1.5 1.3 1.3 0 0 0-1.4-1.2h-.2a1.2 1.2 0 0 0-1.2-1.9 1.3 1.3 0 0 0-1.1 1.5 1.4 1.4 0 0 0 .2.6H47a1.3 1.3 0 0 0-1.2 1.4zm15.1-3.6a.9.9 0 0 0 .9.9.9.9 0 0 0 .6-.8c.2.4.5.7.8.6a.8.8 0 0 0 .7-1 .9.9 0 0 0-.8-.9H63c0-.1.1-.3.1-.4s-.5-1-.9-.9-.7.5-.7 1a.5.5 0 0 0 .2.4h-.1a1 1 0 0 0-.7 1.1z" fill="red" stroke="#000" stroke-linecap="round" stroke-linejoin="round" stroke-width=".4"/>
  <circle cx="35" cy="62.3" r=".6" fill="#febf10" stroke="#000" stroke-linecap="round" stroke-linejoin="round" stroke-width=".4"/>
  <circle cx="43.7" cy="62.3" r=".6" fill="#febf10" stroke="#000" stroke-linecap="round" stroke-linejoin="round" stroke-width=".4"/>
  <circle cx="51.9" cy="61.3" r=".6" fill="#febf10" stroke="#000" stroke-linecap="round" stroke-linejoin="round" stroke-width=".4"/>
  <circle cx="58.9" cy="59.4" r=".6" fill="#febf10" stroke="#000" stroke-linecap="round" stroke-linejoin="round" stroke-width=".4"/>
  <circle cx="26.5" cy="61.3" r=".6" fill="#febf10" stroke="#000" stroke-linecap="round" stroke-linejoin="round" stroke-width=".4"/>
  <circle cx="19.7" cy="59.6" r=".6" fill="#febf10" stroke="#000" stroke-linecap="round" stroke-linejoin="round" stroke-width=".4"/>
  <ellipse cx="14.2" cy="57.9" rx=".5" ry=".6" fill="#febf10" stroke="#000" stroke-linecap="round" stroke-linejoin="round" stroke-width=".4"/>
  <ellipse cx="64.2" cy="57.6" rx=".5" ry=".6" fill="#febf10" stroke="#000" stroke-linecap="round" stroke-linejoin="round" stroke-width=".4"/>
  <path d="M19.8 67c-2.6 0-1.3 17.3 19.4 16.5h.1C59.9 84.3 61.2 67 58.7 67h-.3a2.4 2.4 0 0 0-1.1 1.8c-.2-.7-.6-1.1-1.1-.9s-1.1 1.2-1.4 2.5c-.1-1.2-.7-1.9-1.6-1.6s-1.3 1.3-1.6 2.7c-.1-1.3-.8-2.2-2-2.2s-2.1.9-2.5 2.3c-.3-1.3-1-2.1-2.1-2.1s-2.5 1.2-2.9 2.9c-.4-1.7-1.3-2.9-2.8-2.9s-2.5 1.3-2.9 3.1c-.5-1.9-1.2-3.1-2.9-3.1s-1.9.8-2.2 2.1c-.4-1.4-1-2.3-2.5-2.3s-1.8.9-1.9 2.2c-.4-1.4-.6-2.4-1.6-2.7s-1.6.4-1.7 1.6c-.3-1.3-.5-2.2-1.3-2.5s-1 .2-1.2.9A2.4 2.4 0 0 0 20 67z" fill="none" stroke="#000" stroke-linecap="round" stroke-linejoin="round" stroke-width=".4"/>
  <path d="M14.4 63c3 12 10 20.8 24.7 20.8s21.8-8.9 24.8-21c0 0-23.4 12-49.5.2z" fill="#febf10"/>
  <path d="M32.2 68.1A80.2 80.2 0 0 1 14.4 63c3 12 10 20.8 24.7 20.8a31.5 31.5 0 0 0 7.1-.8c-8.5-1.9-14.2-6.9-14-14.9z" fill="#d09b07"/>
  <path d="M14.4 63c3 12 10 20.8 24.7 20.8s21.8-8.9 24.8-21c0 0-23.4 12-49.5.2z" fill="none" stroke="#000" stroke-linecap="round" stroke-linejoin="round" stroke-width=".4"/>
  <path d="M20 67c-2.9-1.1-2.1 17.4 19.3 16.5C16.9 81.2 23.3 68.3 20 67z" fill="#325723" stroke="#000" stroke-linecap="round" stroke-linejoin="round" stroke-width=".4"/>
  <path d="M22.3 67.9c-3.2-1.1-2 15.7 17 15.6-19.4-2.1-13.7-14.5-17-15.6z" fill="#325723" stroke="#000" stroke-linecap="round" stroke-linejoin="round" stroke-width=".4"/>
  <path d="M25.3 68.8c-4-1.2-1.8 14.8 14 14.7-15.3-4.4-10.7-13.7-14-14.7z" fill="#325723" stroke="#000" stroke-linecap="round" stroke-linejoin="round" stroke-width=".4"/>
  <path d="M28.8 69.3c-4.2 0-2 11.8 10.5 14.2-9.8-4.9-5.8-14.2-10.5-14.2z" fill="#325723" stroke="#000" stroke-linecap="round" stroke-linejoin="round" stroke-width=".4"/>
  <path d="M33.5 69.5c-4.2 0-2.6 11.2 5.8 14-3.4-4.8-1.3-14-5.8-14z" fill="#325723" stroke="#000" stroke-linecap="round" stroke-linejoin="round" stroke-width=".4"/>
  <path d="M58.4 67c2.9-1.1 2.2 17.4-19.2 16.5C61.5 81.2 55.1 68.3 58.4 67z" fill="#325723" stroke="#000" stroke-linecap="round" stroke-linejoin="round" stroke-width=".4"/>
  <path d="M56.2 67.9c3.2-1.1 1.9 15.7-17 15.6 19.3-2.1 13.6-14.5 17-15.6z" fill="#325723" stroke="#000" stroke-linecap="round" stroke-linejoin="round" stroke-width=".4"/>
  <path d="M53.2 68.8c3.9-1.2 1.7 14.8-14 14.7 15.3-4.4 10.6-13.7 14-14.7z" fill="#325723" stroke="#000" stroke-linecap="round" stroke-linejoin="round" stroke-width=".4"/>
  <path d="M49.6 69.3c4.2 0 2 11.8-10.4 14.2 9.7-4.9 5.7-14.2 10.4-14.2z" fill="#325723" stroke="#000" stroke-linecap="round" stroke-linejoin="round" stroke-width=".4"/>
  <path d="M45 69.5c4.2 0 2.5 11.2-5.8 14 3.3-4.8 1.2-14 5.8-14z" fill="#325723" stroke="#000" stroke-linecap="round" stroke-linejoin="round" stroke-width=".4"/>
  <path d="M39.3 69.5c-4.3 0-3.9 9.2 0 14 3.8-4.8 4.2-14 0-14z" fill="#325723" stroke="#000" stroke-linecap="round" stroke-linejoin="round" stroke-width=".4"/>
  <path d="M49.6 69.3c-1.4 0-2.1.9-2.5 2.3-.3-1.3-1-2.1-2.1-2.1s-2.5 1.2-2.9 3c-.4-1.8-1.3-3-2.8-3s-2.5 1.3-2.9 3.1c-.5-1.8-1.2-3.1-2.9-3.1s-1.9.8-2.2 2.1c-.4-1.4-1-2.3-2.5-2.3-4.2 0-2 11.7 10.4 14.2h.1C51.6 81 53.8 69.3 49.6 69.3zM45 70.5c.6 0 1 .5 1.1 1.4s-1 7-4.8 9.5a25 25 0 0 0 1.1-5.3c.6-3.8 1-5.6 2.6-5.6zm-7.2 1.1a1.5 1.5 0 0 1 1.5-1.1c.4 0 1 .1 1.4 1.1s.6 6.8-1.4 10.2c-2.1-3.4-2.6-8.1-1.5-10.2zm-5.5.3c.2-.9.5-1.4 1.2-1.4s2 1.8 2.5 5.6a33.3 33.3 0 0 0 1.1 5.3c-3.8-2.5-5.2-7.1-4.8-9.5zm-4.4-.4c0-.8.4-1.2.9-1.2s1.4.6 2.1 3.3a17.1 17.1 0 0 0 2.9 6.9c-4.4-2.7-6.1-6.8-5.9-9zm16.7 9a19 19 0 0 0 3-6.9c.6-2.7.9-3.3 2-3.3s.9.4 1 1.2-1.5 6.3-6 9z" fill="#0065b7" stroke="#000" stroke-miterlimit="10" stroke-width=".4"/>
  <path d="M39.3 72.1c-2.7 0-2.4 7.4 0 11.2 2.3-3.8 2.6-11.2 0-11.2z" fill="#0d3a12" stroke="#000" stroke-linecap="round" stroke-linejoin="round" stroke-width=".4"/>
  <path d="M39 83.4a3 3 0 0 0-2.9 2.3c-.2 1 .3 2.2 1.2 2.1s.5-.1.6.3a1.6 1.6 0 0 0 2.9-.4c.9.5 1.8-.6 1.7-1.7a2.9 2.9 0 0 0-2.4-2.6zm-2.6.4a4 4 0 0 0-3.9 2.5c-.2.7-.3 1.8.5 1.9s.9-.9 1.2-.4 1.6.6 1.6-.3.1-2.5 1-3.2a.3.3 0 0 0-.4-.5zm5.4.1c-.1.5.5.8.6 1.3s.1 1.8.4 2.7 1.1.2 1.6-.2.7.7 1.3.5.6-1.4.3-2.1a3.8 3.8 0 0 0-4.1-2.2z" fill="red" stroke="#000" stroke-linecap="round" stroke-linejoin="round" stroke-width=".4"/>
  <path fill="red" d="M35.5 91.1l-8.3 8.7-4 15.6h31.6l-1.7-10-7.6-13.1-6-1.7-4 .5z"/>
  <path d="M53.5 114.6l-1.9-8.8-6.2-12.4-6.8-2.6-6.5 2.7-7.7 21.1s3 0 4.3-2.3v.3l.4.9c1.3-.4 1.4-1.9 1.3-2.9a1.5 1.5 0 0 1 .5-1.5c-.2 2.3 1.6 2.5 1.6 2.5l.4-3.6a3.2 3.2 0 0 0 .6 1.1 6.9 6.9 0 0 0-.3-3.9 3.6 3.6 0 0 1-.3-2.4l.4-.5c.3 3.1 2.4 3.4 2.4 3.4 1.5-1.1.5-3.6.1-4.4a3.2 3.2 0 0 0 .8.7c.4-1.4.1-1.8-.2-3a2.3 2.3 0 0 1 1-3.2 2.9 2.9 0 0 0 .1 2.6h.5a2.3 2.3 0 0 0 .5 1.5c0 .2.7 8.1-4.2 11.7a3.6 3.6 0 0 0 3.5-2s-.5 3.2 1.4 4.9c1.6-1.4 1.2-4.9 1.2-4.9a3.6 3.6 0 0 0 3.5 2c-4.9-3.7-4.1-11.8-4.1-11.8h-.1a3.3 3.3 0 0 0 .4-1.3c.5.1.9-.6.8-2.3 2.1 1.1 0 3.8.5 6a3.2 3.2 0 0 0 .8-.7c-.4.8-1.4 3.3.1 4.4s2-.3 2.4-3.2a2.5 2.5 0 0 1 .4.7 3.1 3.1 0 0 1-.3 2 8.1 8.1 0 0 0-.3 3.9 2.1 2.1 0 0 0 .6-1.1s-.4 3 .5 3.6 1.7-.2 1.5-2.5a1.5 1.5 0 0 1 .5 1.5c-.1 1 0 2.5 1.3 2.9l.4-.9a5.4 5.4 0 0 0 4.2 1.8z" fill="#febf10"/>
  <path d="M39.2 114.3c-1.9-1.7-1.4-4.9-1.4-4.9a3.6 3.6 0 0 1-3.5 2c5-3.7 4.2-11.8 4.2-11.8h.6M32 91.9l-11.2 19.7s3.6 0 5.1-2.7v.4l.3 1c1.6-.5 1.8-2.2 1.6-3.4a1.6 1.6 0 0 1 .6-1.7c-.2 2.6 1.8 2.8 1.8 2.8l.6-4.2a2.4 2.4 0 0 0 .7 1.3 8.9 8.9 0 0 0-.4-4.6 4.1 4.1 0 0 1-.3-2.8l.4-.6c.4 3.6 2.9 4 2.9 4 1.7-1.4.6-4.2.1-5.2a3.4 3.4 0 0 0 .9.9c.5-1.7.1-2.3-.3-3.6M46 91.9l11.2 19.7s-3.6 0-5.1-2.7v.4l-.4 1c-1.5-.5-1.7-2.2-1.5-3.4a1.6 1.6 0 0 0-.6-1.7c.2 2.6-1.8 2.8-1.8 2.8l-.6-4.2a2.4 2.4 0 0 1-.7 1.3 8.9 8.9 0 0 1 .4-4.6 4.1 4.1 0 0 0 .3-2.8l-.4-.6c-.4 3.6-2.9 4-2.9 4-1.7-1.4-.6-4.2-.1-5.2a5.1 5.1 0 0 1-1 .9c-.4-1.7 0-2.3.4-3.6" fill="#d09b07"/>
  <path d="M35.5 90.6l1.2.8c-2.6 1.4-6.6 4.8-7.8 12.2s-3.7 9.1-5.1 10.2l-6.6-2.7c2.5-1.7 6.4-4.9 7.8-9a19.7 19.7 0 0 1 10.5-11.5" fill="#004da1"/>
  <path d="M35.5 90.6l1.2.8c-2.6 1.4-6.6 4.8-7.8 12.2s-3.7 9.1-5.1 10.2l-6.6-2.7c2.5-1.7 6.4-4.9 7.8-9a19.7 19.7 0 0 1 10.5-11.5m0-1.2c-.3.2-8.6 3.4-11.6 12.3-1.9 5.7-9 9.5-9 9.6l9 3.8c.2-.2 4.7-2.7 6-11.3 1.7-10.3 9.2-12.3 9.2-12.3l-3.6-2.1z" fill="#0065b7" stroke="#000" stroke-linecap="round" stroke-linejoin="round" stroke-width=".4"/>
  <circle cx="26.1" cy="104.9" r=".6" fill="red" stroke="#000" stroke-linecap="round" stroke-linejoin="round" stroke-width=".4"/>
  <ellipse cx="26.9" cy="102.6" rx="1.8" ry="1.2" transform="rotate(-69.6 26.81 102.3)" fill="red" stroke="#000" stroke-linecap="round" stroke-linejoin="round" stroke-width=".4"/>
  <ellipse cx="28.2" cy="99.5" rx="1.6" ry="1" transform="rotate(-69.5 28.28 99.58)" fill="red" stroke="#000" stroke-linecap="round" stroke-linejoin="round" stroke-width=".4"/>
  <ellipse cx="29.6" cy="96.9" rx="1.2" ry=".7" transform="rotate(-59.4 29.63 96.95)" fill="red" stroke="#000" stroke-linecap="round" stroke-linejoin="round" stroke-width=".4"/>
  <circle cx="30.9" cy="95.1" r=".8" fill="red" stroke="#000" stroke-linecap="round" stroke-linejoin="round" stroke-width=".4"/>
  <circle cx="32.1" cy="93.9" r=".7" fill="red" stroke="#000" stroke-linecap="round" stroke-linejoin="round" stroke-width=".4"/>
  <circle cx="33.2" cy="92.9" r=".5" fill="red" stroke="#000" stroke-linecap="round" stroke-linejoin="round" stroke-width=".4"/>
  <circle cx="25.7" cy="106" r=".7" fill="red" stroke="#000" stroke-linecap="round" stroke-linejoin="round" stroke-width=".4"/>
  <path d="M25.3 106.4a1.5 1.5 0 0 0-1.9.5c-1 1.1-2.4 3.1-3.4 3.1s.2.6 1.7.1a4.9 4.9 0 0 0-.3 2 2.8 2.8 0 0 0 2.2-1.1 2.9 2.9 0 0 0 .6 1.7 8.4 8.4 0 0 1 .7-2.4c.7-.9 1.9-2.9.4-3.9z" fill="red" stroke="#000" stroke-linecap="round" stroke-linejoin="round" stroke-width=".4"/>
  <path d="M43 90.6a20 20 0 0 1 10.5 11.5c1.4 4.1 5.3 7.3 7.8 9l-6.6 2.7c-1.4-1.1-4.1-3.9-5.1-10.2s-5.2-10.8-7.8-12.2l1.2-.8" fill="#004da1"/>
  <path d="M43 90.6a20 20 0 0 1 10.5 11.5c1.4 4.1 5.3 7.3 7.8 9l-6.6 2.7c-1.4-1.1-4.1-3.9-5.1-10.2s-5.2-10.8-7.8-12.2l1.2-.8m0-1.2l-3.6 2.1s7.5 2 9.1 12.3c1.4 8.6 5.9 11.1 6.1 11.3l9-3.8c0-.1-7.1-3.9-9.1-9.6-3-8.9-11.2-12.1-11.5-12.3z" fill="#0065b7" stroke="#000" stroke-linecap="round" stroke-linejoin="round" stroke-width=".4"/>
  <circle cx="52.4" cy="104.9" r=".6" fill="red" stroke="#000" stroke-linecap="round" stroke-linejoin="round" stroke-width=".4"/>
  <ellipse cx="51.5" cy="102.6" rx="1.2" ry="1.8" transform="rotate(-20.5 51.44 102.39)" fill="red" stroke="#000" stroke-linecap="round" stroke-linejoin="round" stroke-width=".4"/>
  <ellipse cx="50.3" cy="99.5" rx="1" ry="1.6" transform="rotate(-20.5 50.28 99.33)" fill="red" stroke="#000" stroke-linecap="round" stroke-linejoin="round" stroke-width=".4"/>
  <ellipse cx="48.9" cy="96.9" rx=".7" ry="1.2" transform="rotate(-30.6 48.93 96.88)" fill="red" stroke="#000" stroke-linecap="round" stroke-linejoin="round" stroke-width=".4"/>
  <circle cx="47.6" cy="95.1" r=".8" fill="red" stroke="#000" stroke-linecap="round" stroke-linejoin="round" stroke-width=".4"/>
  <circle cx="46.4" cy="93.9" r=".7" fill="red" stroke="#000" stroke-linecap="round" stroke-linejoin="round" stroke-width=".4"/>
  <circle cx="45.3" cy="92.9" r=".5" fill="red" stroke="#000" stroke-linecap="round" stroke-linejoin="round" stroke-width=".4"/>
  <circle cx="52.8" cy="106" r=".7" fill="red" stroke="#000" stroke-linecap="round" stroke-linejoin="round" stroke-width=".4"/>
  <path d="M53.2 106.4a1.5 1.5 0 0 1 1.9.5c1 1.1 2.4 3.1 3.4 3.1s-.2.6-1.7.1a5.9 5.9 0 0 1 .2 2 2.7 2.7 0 0 1-2.1-1.1 2.9 2.9 0 0 1-.6 1.7 6.8 6.8 0 0 0-.8-2.4c-.6-.9-1.8-2.9-.3-3.9z" fill="red" stroke="#000" stroke-linecap="round" stroke-linejoin="round" stroke-width=".4"/>
  <path d="M24.6 114.6s4 0 4.6-3.7m-.6 1.7l.4.9c1.3-.4 1.4-1.9 1.3-2.9a1.5 1.5 0 0 1 .5-1.5c-.2 2.3 1.6 2.5 1.6 2.5l.4-3.6a3.2 3.2 0 0 0 .6 1.1 6.9 6.9 0 0 0-.3-3.9 3.5 3.5 0 0 1 0-3.1c.3 3.3 2.5 3.6 2.5 3.6 1.8-1.4 0-4.7 0-4.7l.9 1c.4-1.6 0-2-.4-3.7a2 2 0 0 1 1.2-2.4 2.4 2.4 0 0 0 .1 2.5.6.6 0 0 0 .4-.2c.4-.3.8-.9.6-2.3m15.1 18.7s-4.2 0-4.8-3.7" fill="none" stroke="#000" stroke-linecap="round" stroke-linejoin="round" stroke-width=".4"/>
  <path d="M49.3 112.6l-.4.9c-1.3-.4-1.4-1.9-1.3-2.9a1.5 1.5 0 0 0-.5-1.5c.2 2.3-1.5 2.5-1.5 2.5l-.5-3.6a2.1 2.1 0 0 1-.6 1.1 8.1 8.1 0 0 1 .3-3.9 3.5 3.5 0 0 0 0-3.1c-.2 3.3-2.5 3.6-2.5 3.6-1.8-1.4 0-4.7 0-4.7l-.9 1c-.4-1.6 0-2 .4-3.7a2 2 0 0 0-1.2-2.4 2.5 2.5 0 0 1 0 2.5l-.5-.2a2.4 2.4 0 0 1-.6-2.3" fill="none" stroke="#000" stroke-linecap="round" stroke-linejoin="round" stroke-width=".4"/>
  <path d="M38 98.1a2.6 2.6 0 0 0 1.1 2.2 2.5 2.5 0 0 0 1-2.1" fill="#febf10" stroke="#000" stroke-linecap="round" stroke-linejoin="round" stroke-width=".4"/>
  <path d="M39.8 99.6s-.8 8.1 4.1 11.8a3.6 3.6 0 0 1-3.5-2s.4 3.5-1.2 4.9c-1.9-1.7-1.4-4.9-1.4-4.9a3.6 3.6 0 0 1-3.5 2c5-3.7 4.2-11.8 4.2-11.8" fill="none" stroke="#000" stroke-linecap="round" stroke-linejoin="round" stroke-width=".4"/>
  <path d="M55.1 117.1H22.8l.2-2.1h31.1c1.3.2 1 2.1 1 2.1z" fill="#febf10" stroke="#000" stroke-linecap="round" stroke-linejoin="round" stroke-width=".4"/>
  <path d="M22.9 117.1l-10.2-4.4s.6-2.1 2.2-1.5 8.5 3.8 8.5 3.8l-.5 2.1zm32.1 0l10.1-4.5s-.4-1.9-2-1.3l-8.8 3.7a4.1 4.1 0 0 1 .7 2.1z" fill="#febf10" stroke="#000" stroke-linecap="round" stroke-linejoin="round" stroke-width=".4"/>
  <circle cx="39.2" cy="90.2" r="1.4" fill="#325723" stroke="#000" stroke-linecap="round" stroke-linejoin="round" stroke-width=".4"/>
  <ellipse cx="36.4" cy="90.2" rx="1.4" ry="1.4" fill="#325723" stroke="#000" stroke-linecap="round" stroke-linejoin="round" stroke-width=".4"/>
  <ellipse cx="33.8" cy="90.2" rx="1.2" ry="1.4" fill="#325723" stroke="#000" stroke-linecap="round" stroke-linejoin="round" stroke-width=".4"/>
  <ellipse cx="31.5" cy="90.2" rx="1.1" ry="1.4" fill="#325723" stroke="#000" stroke-linecap="round" stroke-linejoin="round" stroke-width=".4"/>
  <ellipse cx="42" cy="90.2" rx="1.4" ry="1.4" fill="#325723" stroke="#000" stroke-linecap="round" stroke-linejoin="round" stroke-width=".4"/>
  <ellipse cx="44.6" cy="90.2" rx="1.2" ry="1.4" fill="#325723" stroke="#000" stroke-linecap="round" stroke-linejoin="round" stroke-width=".4"/>
  <ellipse cx="46.9" cy="90.2" rx="1.1" ry="1.4" fill="#325723" stroke="#000" stroke-linecap="round" stroke-linejoin="round" stroke-width=".4"/>
  <path d="M36.4 118.4a4.8 4.8 0 0 1 1.9 3.4 1.2 1.2 0 0 1-.3.9 2.6 2.6 0 0 1-1.5.5c-1.9 0-1.9-1-1.9-1.3a5.1 5.1 0 0 1 1.8-3.5m0-.7s-2.4 1.7-2.4 4.2 1.7 1.9 2.5 1.9a2.1 2.1 0 0 0 2.4-2 5.6 5.6 0 0 0-2.5-4.1zm-5.6.7a4.4 4.4 0 0 1 1.8 3.4c0 .4 0 .7-.2.9a2.9 2.9 0 0 1-1.5.5c-1.9 0-1.9-1-1.9-1.3a5.1 5.1 0 0 1 1.8-3.5m-.1-.7a5.9 5.9 0 0 0-2.3 4.2c0 1.7 1.7 1.9 2.5 1.9s2.4-.3 2.3-2a5.4 5.4 0 0 0-2.5-4.1zm-5.1.8a4.6 4.6 0 0 1 1.5 3.3c0 .4 0 .7-.2.9a2.1 2.1 0 0 1-1.3.5c-1.5 0-1.5-1-1.5-1.3a4.9 4.9 0 0 1 1.5-3.4m-.1-.8a6.1 6.1 0 0 0-2 4.2 1.8 1.8 0 0 0 2.1 1.9 1.9 1.9 0 0 0 2.1-2 5.4 5.4 0 0 0-2.2-4.1zm16.4.7a5.1 5.1 0 0 1 1.8 3.5c0 .3 0 1.3-1.8 1.3a2.9 2.9 0 0 1-1.6-.5 2 2 0 0 1-.2-.9 4.8 4.8 0 0 1 1.8-3.4m.1-.7a5.4 5.4 0 0 0-2.5 4.1c-.1 1.7 1.6 2 2.4 2s2.4-.2 2.4-1.9a5.9 5.9 0 0 0-2.3-4.2zm5.4.8a5.2 5.2 0 0 1 1.6 3.4c0 .3 0 1.3-1.7 1.3a2.1 2.1 0 0 1-1.3-.5 1.2 1.2 0 0 1-.3-.9 4.7 4.7 0 0 1 1.7-3.3m0-.8a5.4 5.4 0 0 0-2.3 4.1c-.1 1.7 1.5 2 2.2 2s2.3-.2 2.3-1.9a5.9 5.9 0 0 0-2.2-4.2zm4.8.8a5.4 5.4 0 0 1 1.3 3.4c0 .3 0 1.3-1.4 1.3a1.9 1.9 0 0 1-1-.4 1.3 1.3 0 0 1-.3-1 4.6 4.6 0 0 1 1.4-3.3m0-.8a5.6 5.6 0 0 0-2 4.1 2 2 0 1 0 3.9.1 6.2 6.2 0 0 0-1.9-4.2zm-30.7.6a8.2 8.2 0 0 1 .5 2.8c0 .8-.2 1.1-.3 1.2h-.2c-.5 0-.5-.9-.5-1.3a7.4 7.4 0 0 1 .5-2.8m-.1-1.4a9 9 0 0 0-1 4.2c0 1.7.7 1.9 1.1 1.9s1.1-.2 1.1-1.9a7.6 7.6 0 0 0-1.2-4.2zm-2.2.5a9.4 9.4 0 0 1 .5 2.8c0 .9-.2 1.2-.3 1.3h-.2c-.5 0-.5-.9-.5-1.3a7.6 7.6 0 0 1 .5-2.9m0-1.3a8.4 8.4 0 0 0-1.1 4.2c0 1.7.7 1.9 1.1 1.9s1.2-.3 1.1-2a7 7 0 0 0-1.1-4.1zm-2.2.5a9.1 9.1 0 0 1 .4 2.7c0 .8-.2 1.1-.3 1.2a.1.1 0 0 1-.1.1c-.3 0-.4-.7-.4-1.3a9.6 9.6 0 0 1 .4-2.7m0-1.5a9 9 0 0 0-1 4.2c0 1.7.7 1.9 1 1.9s1-.2 1-1.9a7.6 7.6 0 0 0-1-4.2z" fill="#febf10" stroke="#000" stroke-linecap="round" stroke-linejoin="round" stroke-width=".4"/>
  <path d="M15 115.7a13 13 0 0 1 .4 2.6c0 .9-.2 1.2-.3 1.2H15c-.3 0-.4-.5-.4-1.3a8.9 8.9 0 0 1 .4-2.6m-.1-1.6a9.7 9.7 0 0 0-.9 4.2c0 1.7.7 1.9 1 1.9s1-.3 1-2a8 8 0 0 0-1.1-4.1zm40.2 10.1H22.3v-2.2s33.3-.1 34.2.1-1.4 2.1-1.4 2.1z" fill="#febf10" stroke="#000" stroke-linecap="round" stroke-linejoin="round" stroke-width=".4"/>
  <path d="M22.4 124.2l-9.9-4.5s0-2.3 1.6-1.7l8.8 3.8c-.6.6-.5 2.4-.5 2.4z" fill="#febf10" stroke="#000" stroke-linecap="round" stroke-linejoin="round" stroke-width=".4"/>
  <circle cx="33.8" cy="118.3" r=".6" fill="#febf10" stroke="#000" stroke-linecap="round" stroke-linejoin="round" stroke-width=".4"/>
  <circle cx="28" cy="118.3" r=".6" fill="#febf10" stroke="#000" stroke-linecap="round" stroke-linejoin="round" stroke-width=".4"/>
  <path d="M56.9 118a8.8 8.8 0 0 1 .5 2.8c0 .4-.1 1.3-.6 1.3h-.2c-.1-.1-.3-.4-.3-1.3a7.7 7.7 0 0 1 .6-2.7m0-1.4a7.4 7.4 0 0 0-1.2 4.1c0 1.7.8 2 1.1 2s1.2-.2 1.2-1.9a8.4 8.4 0 0 0-1.1-4.2z" fill="#febf10" stroke="#000" stroke-linecap="round" stroke-linejoin="round" stroke-width=".4"/>
  <path d="M59.1 117a7.4 7.4 0 0 1 .6 2.9c0 .3-.1 1.2-.6 1.2h-.2c-.1-.1-.3-.4-.3-1.2a13 13 0 0 1 .5-2.8m.1-1.3a7 7 0 0 0-1.2 4.1c0 1.7.8 1.9 1.1 1.9s1.2-.2 1.2-1.8a8.4 8.4 0 0 0-1.1-4.2z" fill="#febf10" stroke="#000" stroke-linecap="round" stroke-linejoin="round" stroke-width=".4"/>
  <path d="M61.3 116.1a6.8 6.8 0 0 1 .5 2.7c0 .6-.2 1.3-.5 1.3h-.1c-.1-.1-.3-.4-.3-1.3a8.3 8.3 0 0 1 .4-2.6m.1-1.5a8 8 0 0 0-1.1 4.1c0 1.7.7 2 1 2s1.1-.2 1.1-1.9a9 9 0 0 0-1-4.2z" fill="#febf10" stroke="#000" stroke-linecap="round" stroke-linejoin="round" stroke-width=".4"/>
  <path d="M63.4 115.3a9.6 9.6 0 0 1 .4 2.7c0 .7-.2 1.3-.4 1.3h-.2a3.8 3.8 0 0 1-.2-1.3 8.9 8.9 0 0 1 .4-2.6m0-1.5a7.4 7.4 0 0 0-1 4.1c-.1 1.7.6 2 1 2s1-.2 1-1.9a9 9 0 0 0-1-4.2z" fill="#febf10" stroke="#000" stroke-linecap="round" stroke-linejoin="round" stroke-width=".4"/>
  <circle cx="39.2" cy="118.3" r=".6" fill="#febf10" stroke="#000" stroke-linecap="round" stroke-linejoin="round" stroke-width=".4"/>
  <circle cx="44.6" cy="118.3" r=".6" fill="#febf10" stroke="#000" stroke-linecap="round" stroke-linejoin="round" stroke-width=".4"/>
  <circle cx="49.8" cy="118.3" r=".6" fill="#febf10" stroke="#000" stroke-linecap="round" stroke-linejoin="round" stroke-width=".4"/>
  <path d="M55.1 124.1l10.6-5.1s.2-2.3-1.1-1.8-9.7 4.7-9.7 4.7l.2 2.2z" fill="#febf10" stroke="#000" stroke-linecap="round" stroke-linejoin="round" stroke-width=".4"/>
  <ellipse cx="39.2" cy="20.1" rx="1.6" ry="1.4" fill="#325723"/>
  <path d="M36 15a2.9 2.9 0 0 0-3 2.7s1.6-.8 2.4.5 2.3 2.4 3.6 1 2.4 1.6 3.9.3l1.4-1.3s1-1.1 2.1-.6a3.3 3.3 0 0 0-3.5-2.7z" fill="#febf10" stroke="#000" stroke-linecap="round" stroke-linejoin="round" stroke-width=".4"/>
  <path d="M64.3 48c0 3-11.4 5.7-25.3 5.7S13.8 51 13.8 48s11.3-5.4 25.2-5.4 25.3 2.5 25.3 5.4z" fill="#0065b7" stroke="#000" stroke-linecap="round" stroke-linejoin="round" stroke-width=".4"/>
  <path d="M37.5 52.2H34c.4-.4 1.4-1.5 2-4.4.8 3.1 2.5 3.5 3.3 3.5s2.6-.7 3.2-3.5a8.2 8.2 0 0 0 1.8 4.2l-5.3.3zm-4.2-.1c-10.7-.7-15.9-3.8-17.3-4.8a9.9 9.9 0 0 0 3.3-.9h.1a3.6 3.6 0 0 0 1.9.5 4.9 4.9 0 0 0 2-.5c-1.2 2.5-.6 3.7-.6 3.7a.2.2 0 0 0 .2.2c.3 0 1.6-.1 3.3-1.8a2.4 2.4 0 0 0 .9 1.6 2.8 2.8 0 0 0 3.9-.4l1-1.4a6.2 6.2 0 0 0 1.3 3.8zm12-.3a6.1 6.1 0 0 0 1.1-3.5 7.6 7.6 0 0 0 1.1 1.4 2.5 2.5 0 0 0 2.1 1 2.7 2.7 0 0 0 1.7-.6 2.5 2.5 0 0 0 1-1.6 5.5 5.5 0 0 0 2.8 1.7 52.6 52.6 0 0 1-9.8 1.6zM55.8 50c.1-.3.4-1.4-.6-3.5a3.4 3.4 0 0 0 1.9.5 3.2 3.2 0 0 0 1.7-.4h.1a9.1 9.1 0 0 0 3.3 1 31.1 31.1 0 0 1-6.4 2.4z" fill="#333"/>
  <path d="M19.3 46.7a4.4 4.4 0 0 0 2 .5 4 4 0 0 0 1.5-.3 4.1 4.1 0 0 0-.4 3.1 20.7 20.7 0 0 1-5.7-2.6 7.7 7.7 0 0 0 2.6-.7m39.6.2a10.2 10.2 0 0 0 2.5.8 33.7 33.7 0 0 1-5.3 2 5 5 0 0 0-.4-2.7 3.5 3.5 0 0 0 1.4.3 6 6 0 0 0 1.8-.4M36 48.7c.9 2.4 2.6 2.7 3.3 2.7s2.4-.5 3.1-2.7a7.6 7.6 0 0 0 1.4 3l-4.8.2h-4.4a8.9 8.9 0 0 0 1.4-3.2m10.6.3l.7.9a2.8 2.8 0 0 0 2.3 1.1 3.2 3.2 0 0 0 1.9-.7 3 3 0 0 0 .9-1.3 6.9 6.9 0 0 0 1.8 1.2 68.3 68.3 0 0 1-8.4 1.3 7.3 7.3 0 0 0 .8-2.5m-14.8 0a6.3 6.3 0 0 0 1 2.8 55.2 55.2 0 0 1-9-1.4A7.6 7.6 0 0 0 26 49a3 3 0 0 0 .9 1.3 3.4 3.4 0 0 0 1.9.7 3.2 3.2 0 0 0 2.4-1.1l.6-.9M24 45.5a4.2 4.2 0 0 1-2.7 1.2 4.2 4.2 0 0 1-2-.6 10.1 10.1 0 0 1-3.9 1s5.7 5.3 22.1 5.3H39c17.6-.3 24-5 24-5h-.1a9.3 9.3 0 0 1-4-1.1 4.4 4.4 0 0 1-1.8.5 4.3 4.3 0 0 1-2.6-1.1c1.7 3 1 4.3 1 4.3-.2 0-1.6-.1-3.4-2a2.5 2.5 0 0 1-4.4 1.6 13.7 13.7 0 0 1-1.5-2.1c-.1 3.6-1.4 4.5-1.4 4.5s-1.7-.9-2.4-5.9c-.3 3.5-1.5 4.8-3.1 4.8s-2.9-1.3-3.3-4.6c-.7 4.8-2.3 5.7-2.3 5.7s-1.4-.9-1.5-4.5c-.4.7-.9 1.4-1.4 2.1a2.5 2.5 0 0 1-2 .9 2.2 2.2 0 0 1-1.5-.6 2.5 2.5 0 0 1-.9-1.9c-1.9 1.9-3.3 2-3.5 2s-.7-1.4 1.1-4.5zm-4.2.4zm-.2.1zm-.4.1zM63 47.4z" fill="#f2f2f2"/>
  <path d="M51 33.8c-.3-6.9-5.5-12.4-11.8-12.4s-11.3 5.4-11.7 12.2l3.9 3.3 10.5.5z" fill="#0065b7"/>
  <path d="M33.8 36.3c.4-6.6 4.3-12 9.7-14a10.4 10.4 0 0 0-4.3-.9c-6.2 0-11.3 5.4-11.7 12.2l3.9 3.3 3.3.2z" fill="#004da1"/>
  <path d="M45.6 23.5a15.6 15.6 0 0 1 3.5 3.9c1.1 2 1 2.5.8 2.7s-.7.7-1.4-1.2a13.7 13.7 0 0 0-2.9-5.4m-4.3-3.4v.5c1.3 1.1 5.8 5.9 6.6 8.3s1.3 2 1.8 2h.3c.4-.2.8-.5-1-3.6s-7.7-7.1-7.7-7.1z" fill="#febf10" stroke="#000" stroke-linecap="round" stroke-linejoin="round" stroke-width=".3"/>
  <path d="M43.2 22.7a17.6 17.6 0 0 1 3.8 5.7c.3.7.5 1.5.1 2s-1.8.4-2.1-1a15.4 15.4 0 0 0-2.4-6.9l.6.2m.3-.7h-2.6a14.5 14.5 0 0 1 3.3 7.3c.1 2.1 1.4 2.3 1.5 2.3s3.2-.1 2-3.5a18.5 18.5 0 0 0-4.2-6.1z" fill="#febf10" stroke="#000" stroke-linecap="round" stroke-linejoin="round" stroke-width=".3"/>
  <path d="M41.1 21.5a73.8 73.8 0 0 1 2.4 7.2c.3 1 .3 1.6 0 2a1 1 0 0 1-1.3.2 1.7 1.7 0 0 1-.2-1.3 13.6 13.6 0 0 0-1.8-7.9l.9-.2m.4-.8l-2.9.5c1.3 1.2 2.9 5.8 2.4 8.4s1.2 2.3 1.4 2.3h.2c.6 0 2.4-.2 1.6-3.4a45.8 45.8 0 0 0-2.9-7.6zm-8.7 2.8c-1.6 1.6-2.4 4.1-2.9 5.4s-1.3 1.2-1.4 1.2-.2-.7.8-2.7a17.9 17.9 0 0 1 3.5-3.9m4.4-3.4s-5.9 3.7-7.8 7.1-1.3 3.4-1 3.6h.5c.5 0 1.2-.3 1.8-2s5.3-7.2 6.5-8.3V20z" fill="#febf10" stroke="#000" stroke-linecap="round" stroke-linejoin="round" stroke-width=".3"/>
  <path d="M35.3 22.7l.6-.2a16.9 16.9 0 0 0-2.5 6.9c-.2 1.4-1.7 1.5-2 1s-.2-1.3 0-2a17.5 17.5 0 0 1 3.9-5.7M35 22a17.1 17.1 0 0 0-4.2 6.2c-1.2 3.4 1.4 3.6 2 3.5s1.3-.2 1.5-2.3a14.5 14.5 0 0 1 3.3-7.3z" fill="#febf10" stroke="#000" stroke-linecap="round" stroke-linejoin="round" stroke-width=".3"/>
  <path d="M37.4 21.5l.8.2a13.6 13.6 0 0 0-1.8 7.9c.1.6.1 1-.2 1.3a.9.9 0 0 1-1.2-.2c-.3-.4-.3-1-.1-2a68.7 68.7 0 0 1 2.5-7.2m-.2-.6a45.8 45.8 0 0 0-2.9 7.6c-.9 3.2 1 3.4 1.6 3.4h.2c.2 0 1.7 0 1.3-2.3s1.1-7.2 2.4-8.4l-2.8-.5z" fill="#febf10" stroke="#000" stroke-linecap="round" stroke-linejoin="round" stroke-width=".3"/>
  <path d="M27.5 33.6c.4-6.8 5.5-12.2 11.7-12.2S50.7 26.9 51 33.8" fill="none" stroke="#000" stroke-linecap="round" stroke-linejoin="round" stroke-width=".4"/>
  <path d="M39.1 21.8a10 10 0 0 0-2.2 5.7c0 3.1 1.1 4.3 2.3 4.3s2.1-1.2 2.1-4.3a10 10 0 0 0-2.2-5.7zm.2 9.3c-1 0-1.5-1.4-1.5-3.6a8.3 8.3 0 0 1 1.3-4.2 7.5 7.5 0 0 1 1.4 4.2c0 1.7-.3 3.6-1.2 3.6z" fill="#febf10" stroke="#000" stroke-linecap="round" stroke-linejoin="round" stroke-width=".3"/>
  <path d="M38.4 19.9s-1.1-1-3 .1a16 16 0 0 1-2.4 1.2s.4-1.4-1.3-1.1-.5 3.4 2 2.5a6.7 6.7 0 0 1 2.1.2l1-1.9s-.8 2 .6 2.1.3 1.1 1.2 1.1 1.7-1.6-.2-4.2z" fill="#325723" stroke="#000" stroke-linecap="round" stroke-linejoin="round" stroke-width=".4"/>
  <path d="M40.1 19.9s1.1-1 3 .1l2.4 1.3s-.4-1.5 1.3-1.2.5 3.4-2 2.5a8.8 8.8 0 0 0-2.1.1l-1-1.8s.8 2-.6 2.1-.3 1.1-1.2 1.1-1.7-1.6.2-4.2z" fill="#325723" stroke="#000" stroke-linecap="round" stroke-linejoin="round" stroke-width=".4"/>
  <path d="M28.7 38.2l1.3.5c0 .1 0 .2-.1.2-2.3 7.1-4.9 9.2-6.1 9.9.1-1 .7-2.7 2.8-5.2a7.4 7.4 0 0 0 1.6-3.6c.1-.5.3-1.1.5-1.8m6.2.5l1.3.4c-.1.7-.3 1.2-.4 1.7a13.4 13.4 0 0 0-.7 3.6 13.7 13.7 0 0 1-1.4 6c-.6-1.3-1.1-4.6 1.1-11.5v-.2" fill="#0065b7"/>
  <path d="M29 38.1l.8.3c-1.6 6.4-4.7 9.7-6 10.4a14.9 14.9 0 0 1 2.7-5.1 21.3 21.3 0 0 0 2.4-5.5m-.7-1.2c-1.3 2.6-.7 3.9-2.4 5.9-4 5-2.9 7.1-2.9 7.1.3 0 4.5-.2 8-10.8l.3-1.1-3-1.1zm6.7 1.7l1.3.4c-.1.7-.3 1.2-.4 1.7a13.4 13.4 0 0 0-.7 3.6 13.7 13.7 0 0 1-1.4 6c-.6-1.3-1.1-4.6 1.1-11.5v-.2m-.6-1.2c-.1.3-.3.7-.4 1.1-3.6 11.1-.3 13.5-.3 13.5s2.1-1.2 2.5-7.6c.2-2.8.8-3.2 1.3-6.1l-3.1-.9z" fill="#f2f2f2" stroke="#000" stroke-linecap="round" stroke-linejoin="round" stroke-width=".4"/>
  <path d="M32.7 38.1h.2a1.2 1.2 0 0 1 1 1.4c-.1 0-.9 5.2-4.2 9.3a1.3 1.3 0 0 1-.9.4 1 1 0 0 1-.8-.3 1.1 1.1 0 0 1-.1-1.7 18.6 18.6 0 0 0 3.6-8.1 1.3 1.3 0 0 1 1.2-1" fill="#f7931e"/>
  <path d="M32.7 38.1h.2a1.2 1.2 0 0 1 1 1.4c-.1 0-.9 5.2-4.2 9.3a1.3 1.3 0 0 1-.9.4 1 1 0 0 1-.8-.3 1.1 1.1 0 0 1-.1-1.7 18.6 18.6 0 0 0 3.6-8.1 1.3 1.3 0 0 1 1.2-1m0-1.3a2.6 2.6 0 0 0-2.5 2.1 17.6 17.6 0 0 1-3.3 7.5 2.4 2.4 0 0 0 .3 3.5 2.4 2.4 0 0 0 3.5-.3 22.6 22.6 0 0 0 4.4-9.9 2.5 2.5 0 0 0-2-2.9z" fill="#febf10" stroke="#000" stroke-linecap="round" stroke-linejoin="round" stroke-width=".4"/>
  <circle cx="29.4" cy="47.2" r="1.2" fill="#f7931e" stroke="#000" stroke-linecap="round" stroke-linejoin="round" stroke-width=".3"/>
  <path d="M29.4 46.6h.1a.6.6 0 0 1 0 1.2" fill="#f7931e" stroke="#000" stroke-linecap="round" stroke-linejoin="round" stroke-width=".3"/>
  <circle cx="30.8" cy="45" r="1.2" fill="#f7931e" stroke="#000" stroke-linecap="round" stroke-linejoin="round" stroke-width=".3"/>
  <path d="M30.8 44.5a.6.6 0 0 1 .6.5.6.6 0 0 1-.6.6" fill="#f7931e" stroke="#000" stroke-linecap="round" stroke-linejoin="round" stroke-width=".3"/>
  <circle cx="31.7" cy="42.8" r="1.1" fill="#f7931e" stroke="#000" stroke-linecap="round" stroke-linejoin="round" stroke-width=".3"/>
  <path d="M31.7 42.3a.5.5 0 1 1 0 1" fill="#f7931e" stroke="#000" stroke-linecap="round" stroke-linejoin="round" stroke-width=".3"/>
  <circle cx="32.3" cy="40.7" r="1" fill="#f7931e" stroke="#000" stroke-linecap="round" stroke-linejoin="round" stroke-width=".3"/>
  <path d="M32.3 40.3h.1a.4.4 0 0 1 0 .8" fill="#f7931e" stroke="#000" stroke-linecap="round" stroke-linejoin="round" stroke-width=".3"/>
  <path d="M39.5 45.6a4.6 4.6 0 0 0 .6-2.8c0-1.7-.4-3-1-3s-.9 1.3-.9 3a4.6 4.6 0 0 0 .6 2.8 2 2 0 0 0-.6 1.6c0 1 .4 1.7.9 1.7s1-.7 1-1.7a2 2 0 0 0-.6-1.6z" fill="red" stroke="#000" stroke-linecap="round" stroke-linejoin="round" stroke-width=".3"/>
  <path d="M49.6 38.2a8.3 8.3 0 0 1 .5 1.8 7.7 7.7 0 0 0 1.7 3.6 11.3 11.3 0 0 1 2.8 5.2c-1.3-.7-3.9-2.8-6.2-9.9a.3.3 0 0 0-.1-.2l1.3-.5m-6.1.5v.2c2.3 6.9 1.7 10.2 1.1 11.5-.5-.9-1.1-2.6-1.4-6a14 14 0 0 0-.6-3.6c-.2-.5-.3-1-.5-1.7l1.4-.4" fill="#0065b7"/>
  <path d="M49.5 38.2a18.2 18.2 0 0 0 2.4 5.5 19.6 19.6 0 0 1 2.7 5.1c-1.3-.7-4.5-4-6.1-10.4l.9-.3m.8-1.1l-3 1.1a5.2 5.2 0 0 0 .2 1.1C51 49.8 55.1 50 55.5 50s1.1-2.1-3-7.1c-1.7-2-1-3.3-2.3-5.9zm-6.7 1.7v.2c2.3 6.9 1.7 10.2 1.1 11.5-.5-.9-1.1-2.6-1.4-6a14 14 0 0 0-.6-3.6c-.2-.5-.3-1-.5-1.7l1.4-.4m.5-1.2l-3 .9c.5 2.9 1 3.3 1.2 6.1.5 6.4 2.5 7.6 2.5 7.6s3.4-2.4-.2-13.5a11.7 11.7 0 0 0-.5-1.1z" fill="#f2f2f2" stroke="#000" stroke-linecap="round" stroke-linejoin="round" stroke-width=".4"/>
  <path d="M45.7 38.1a1.3 1.3 0 0 1 1.2 1 17.4 17.4 0 0 0 3.6 8.1 1.2 1.2 0 0 1-.2 1.7 1 1 0 0 1-.8.3 1.5 1.5 0 0 1-.9-.4 22 22 0 0 1-4.1-9.3 1.2 1.2 0 0 1 1-1.4h.2" fill="#f7931e"/>
  <path d="M45.7 38.1a1.3 1.3 0 0 1 1.2 1 17.4 17.4 0 0 0 3.6 8.1 1.2 1.2 0 0 1-.2 1.7 1 1 0 0 1-.8.3 1.5 1.5 0 0 1-.9-.4 22 22 0 0 1-4.1-9.3 1.2 1.2 0 0 1 1-1.4h.2m0-1.3h-.4a2.6 2.6 0 0 0-2.1 2.9 22.6 22.6 0 0 0 4.4 9.9 2.5 2.5 0 0 0 1.9.9 2.3 2.3 0 0 0 1.6-.6 2.4 2.4 0 0 0 .4-3.5 18.4 18.4 0 0 1-3.4-7.5 2.5 2.5 0 0 0-2.4-2.1z" fill="#febf10" stroke="#000" stroke-linecap="round" stroke-linejoin="round" stroke-width=".4"/>
  <circle cx="47.6" cy="45" r="1.2" fill="#f7931e" stroke="#000" stroke-linecap="round" stroke-linejoin="round" stroke-width=".3"/>
  <circle cx="46.7" cy="42.8" r="1.1" fill="#f7931e" stroke="#000" stroke-linecap="round" stroke-linejoin="round" stroke-width=".3"/>
  <path d="M46.7 42.3h-.1a.5.5 0 0 0 0 1" fill="#f7931e" stroke="#000" stroke-linecap="round" stroke-linejoin="round" stroke-width=".3"/>
  <circle cx="46" cy="40.7" r="1" fill="#f7931e" stroke="#000" stroke-linecap="round" stroke-linejoin="round" stroke-width=".3"/>
  <path d="M46 40.3a.4.4 0 1 0 0 .8" fill="#f7931e" stroke="#000" stroke-linecap="round" stroke-linejoin="round" stroke-width=".3"/>
  <path d="M39.1 35.6a15.1 15.1 0 0 0-3.3 8.7c0 4.8 1.7 6.6 3.5 6.6s3.2-1.8 3.2-6.6-3.4-8.7-3.4-8.7zm.3 14.2c-1.4 0-2.4-2.1-2.4-5.4a12.2 12.2 0 0 1 2.2-6.5 13.2 13.2 0 0 1 2.1 6.5c0 2.6-.5 5.4-1.9 5.4zm0 0c-1.4 0-2.4-2.1-2.4-5.4a12.2 12.2 0 0 1 2.2-6.5 13.2 13.2 0 0 1 2.1 6.5c0 2.6-.5 5.4-1.9 5.4z" fill="#febf10" stroke="#000" stroke-linecap="round" stroke-linejoin="round" stroke-width=".4"/>
  <path d="M38.8 45.6a5.8 5.8 0 0 1-.5-2.8c0-1.7.4-3.1.9-3.1s1 1.4 1 3.1a5.5 5.5 0 0 1-.6 2.8 2.4 2.4 0 0 1 .6 1.6c0 1-.5 1.7-1 1.7s-.9-.7-.9-1.7a2.3 2.3 0 0 1 .5-1.6z" fill="red" stroke="#000" stroke-linecap="round" stroke-linejoin="round" stroke-width=".4"/>
  <path d="M27.1 37.2s-3.1 9.1-11.8 9.9c0 0 6.1 5.7 23.6 5.3s24-5 24-5-7.7.3-10.7-10" fill="none" stroke="#000" stroke-linecap="round" stroke-linejoin="round" stroke-width=".4"/>
  <circle cx="48.9" cy="47.2" r="1.2" fill="#f7931e" stroke="#000" stroke-linecap="round" stroke-linejoin="round" stroke-width=".3"/>
  <path d="M48.9 46.6a.6.6 0 1 0 0 1.2m-1.4-3.3a.6.6 0 0 0-.6.5.6.6 0 0 0 .6.6" fill="#f7931e" stroke="#000" stroke-linecap="round" stroke-linejoin="round" stroke-width=".3"/>
  <path d="M19.2 46.2a15.3 15.3 0 0 0 7.7-9.2l1.6.5c-4.4 12.6-9 8.6-9.3 8.7zm39.7.2s-4.9-2.1-6.8-9.5l-2.2.6c4.3 12.6 8.7 8.9 9 8.9z" fill="#febf10" stroke="#000" stroke-linecap="round" stroke-linejoin="round" stroke-width=".4"/>
  <path d="M38 37.1c-8.4 0-11.1-3-11.3-3.1a.5.5 0 0 1 .1-.8.5.5 0 0 1 .8 0c.1 0 2.9 2.9 11.4 2.6S51.1 33 51.1 33a.6.6 0 0 1 .9.1.5.5 0 0 1-.1.8c-.1.1-3.6 2.9-12.8 3.1z" fill="#e6e6e6" stroke="#000" stroke-linecap="round" stroke-linejoin="round" stroke-width=".4"/>
  <path d="M38.1 39.8c-8.4 0-11.7-2.8-11.8-3a.5.5 0 0 1-.1-.8.6.6 0 0 1 .9 0s3.3 2.9 12 2.6 13.2-2.7 13.2-2.8a1 1 0 0 1 .9.2 1 1 0 0 1-.2.9c-.2.1-4.7 2.7-13.8 2.9z" fill="#e6e6e6" stroke="#000" stroke-linecap="round" stroke-linejoin="round" stroke-width=".4"/>
  <path d="M38.4 38.9c-8 0-12.3-3-12.5-3.1a1.1 1.1 0 0 1-.2-1.4 1 1 0 0 1 1.4-.3c.1.1 4.3 2.9 12.1 2.8s10.1-1.6 12.1-2.8l.4-.2a1.2 1.2 0 0 1 1.4.4 1.1 1.1 0 0 1-.4 1.4l-.4.2c-2.3 1.2-5.1 2.8-13.1 3z" fill="red" stroke="#000" stroke-linecap="round" stroke-linejoin="round" stroke-width=".4"/>
  <ellipse cx="39.6" cy="14.5" rx="3.1" ry="4" fill="red"/>
  <path d="M41.7 11.9a4.6 4.6 0 0 1 1 2.6c0 2.3-1.4 4.1-3.1 4.1l-.8-.2a2.8 2.8 0 0 0 2.4 1.4c1.7 0 3.1-1.8 3.1-4a4.5 4.5 0 0 0-2.6-3.9z" fill="none"/>
  <path d="M42.7 14.5a4.6 4.6 0 0 0-1-2.6h-.5c-1.2 0-3.1 1.8-3.1 4a5.3 5.3 0 0 0 .7 2.6l.8.2c1.7-.1 3.1-1.9 3.1-4.2z" fill="#980805"/>
  <ellipse cx="39.6" cy="14.5" rx="3.1" ry="4" fill="none" stroke="#000" stroke-linecap="round" stroke-linejoin="round" stroke-width=".4"/>
  <path d="M38.1 11.4a8.3 8.3 0 0 1 4.2 5m-5.1-4a23.1 23.1 0 0 1 4.3 5.2" fill="none" stroke="#000" stroke-linecap="round" stroke-linejoin="round" stroke-width=".4"/>
  <path d="M36.6 13.7s2.8 2.7 3.5 4.8" fill="none" stroke="#000" stroke-linecap="round" stroke-linejoin="round" stroke-width=".3"/>
  <path d="M40.4 10.8s-2.1 1.1-3.7 4.7m4.7-3.6a23.8 23.8 0 0 0-4.2 5.2m5-4.1s-3 3.1-3.7 5.2" fill="none" stroke="#000" stroke-linecap="round" stroke-linejoin="round" stroke-width=".4"/>
  <path d="M44.5 16.5c-1.9-.9-2 1.3-2 1.3a1.7 1.7 0 0 0-3 .1c-1-2-3-.6-3-.6-1.6-2-3.4.3-3.4.3l1.6-.4 2.3 1.6 4.3.2 2.1-.8z" fill="#febf10"/>
  <path d="M33.1 17.6s1.8-2.3 3.4-.3c0 0 2-1.4 3 .6a1.7 1.7 0 0 1 3-.1s.1-2.2 2-1.3" fill="none" stroke="#000" stroke-linecap="round" stroke-linejoin="round" stroke-width=".4"/>
  <path fill="none" stroke="#000" stroke-linecap="round" stroke-linejoin="round" stroke-width=".4" d="M8 7.9h62v124.31H8z"/>
</svg>
