<svg xmlns="http://www.w3.org/2000/svg" viewBox="0 0 78 140">
  <rect width="78" height="140" rx="6" ry="6" fill="#fff"/>
  <path d="M34.8 44.8v2.3c-1.5 5.2-6.5 6.9-9 7.2-1 .2-.4 2.5 1.6 3.3v1.9h22.2v-1.7c2.8-.3 3.8-3.3 2.6-3.5s-7.5-2-9-7.2v-2.3h-2.5v2.3c.6 1.9.1 2.8-.4-1h-2.6c-.5 3.8-1 2.9-.4 1v-2.3z" fill="#325723"/>
  <path d="M31.1 57.4a34.9 34.9 0 0 0 5 .4m-3.6-1.4l2.4.2m12.1.8a34.9 34.9 0 0 1-5 .4m3.3-1.4a8.6 8.6 0 0 1-2.2.2m-9.5-1.4h1.1m9.7.1h-1.1" fill="none" stroke="#000" stroke-linecap="round" stroke-linejoin="round" stroke-width=".4"/>
  <path d="M34.8 44.8v2.3c-1.5 5.2-6.5 6.9-9 7.2s.2 4.5 4.5 3.3 6.1-7.7 7-10.5v-2.3zm5.9 0v2.3c.9 2.8 2.7 9.3 7 10.5s5.9-3.1 4.5-3.3-7.5-2-9-7.2v-2.3z" fill="#3c6d3d" stroke="#000" stroke-linecap="round" stroke-linejoin="round" stroke-width=".4"/>
  <path d="M34.8 44.8v2.3c-1.5 5.2-6.5 6.9-9 7.2s.2 4.5 4.5 3.3 6.1-7.7 7-10.5v-2.3zm5.9 0v2.3c.9 2.8 2.7 9.3 7 10.5s5.9-3.1 4.5-3.3-7.5-2-9-7.2v-2.3z" fill="#325723" stroke="#000" stroke-linecap="round" stroke-linejoin="round" stroke-width=".4"/>
  <path d="M37.6 45c-.7 4.8-3.6 7.6-3.1 11.2.2 1.3 1.9 2.2 4.5 2.2s4.3-.9 4.5-2.2c.5-3.6-2.4-6.4-3.1-11.2h-2.8z" fill="#325723" stroke="#000" stroke-linecap="round" stroke-linejoin="round" stroke-width=".4"/>
  <path d="M38.3 46.7c-.3 3.5-1.7 5.6-1.5 8.2.1 1 1 1.6 2.2 1.6s2.1-.6 2.2-1.6c.3-2.6-1.1-4.7-1.5-8.2h-1.4z" fill="#0d3a12" stroke="#000" stroke-linecap="round" stroke-linejoin="round" stroke-width=".4"/>
  <path d="M38.6 41.6a3.1 3.1 0 0 0-3.2 2.2c-.3 1 .3 2.2 1.3 2.1s.6-.1.7.3 2.9.9 3.4-.4c1 .5 2.1-.6 1.9-1.7a3.2 3.2 0 0 0-2.8-2.5zm-3 .4c-1.7 0-3.7.7-4.4 2.4s-.4 1.8.5 1.9 1-.9 1.5-.4 1.7.6 1.8-.3a3.9 3.9 0 0 1 1.1-3.2c.2-.3-.2-.5-.5-.4zm6.3.1c-.1.5.5.8.7 1.3s.1 1.8.5 2.6 1.3.2 1.8-.2.9.7 1.5.5.7-1.4.4-2a4.6 4.6 0 0 0-4.8-2.2z" fill="#febf10" stroke="#000" stroke-linecap="round" stroke-linejoin="round" stroke-width=".4"/>
  <path d="M26.1 25.1c-3 .5-6.5 3-6.5 6.7s2.3 7.2 6.4 9.1 8.6 2.3 13.1 2.3 9.2-.5 13-2.3 6.4-4.6 6.4-9.1-3.4-6.2-6.5-6.7H26.1z" fill="#325723"/>
  <path d="M31.1 25.3s-4.7 13.2 10.1 18c0 .1-13.9.4-18.3-4.4s-3.6-8.7-1.4-11.2 6.4-3 9.6-2.4z" fill="#0d3a12"/>
  <path d="M26.1 25.1c-3 .5-6.5 3-6.5 6.7s3 7.4 7.1 9.3 7.9 2.1 12.4 2.1a29.3 29.3 0 0 0 12.6-2.5c4.1-1.9 6.8-4.4 6.8-8.9s-3.4-6.2-6.5-6.7H26.1z" fill="none" stroke="#000" stroke-linecap="round" stroke-linejoin="round" stroke-width=".4"/>
  <path d="M20.9 18.6l36.2-.3-2.5 7.6-15.5 2.2-15.6-2.3z" fill="#d09b07" stroke="#000" stroke-linecap="round" stroke-linejoin="round" stroke-width=".4"/>
  <path d="M26.8 24.2a4.2 4.2 0 0 1-2.8.2 4.1 4.1 0 0 1-1.7-2.2 4.2 4.2 0 0 1 2.8-.2 4.1 4.1 0 0 1 1.7 2.2z" fill="#febf10" stroke="#000" stroke-linecap="round" stroke-linejoin="round" stroke-width=".3"/>
  <path fill="none" stroke="#000" stroke-linecap="round" stroke-linejoin="round" stroke-width=".3" d="M26.8 24.2l-2.5-1.1"/>
  <path d="M29.8 24.5a3.9 3.9 0 0 1-2.7.7 3.8 3.8 0 0 1-2.1-1.8 3.7 3.7 0 0 1 2.7-.7 3.8 3.8 0 0 1 2.1 1.8z" fill="#febf10" stroke="#000" stroke-linecap="round" stroke-linejoin="round" stroke-width=".3"/>
  <path fill="none" stroke="#000" stroke-linecap="round" stroke-linejoin="round" stroke-width=".3" d="M29.8 24.5l-2.7-.6"/>
  <path d="M32.6 25a3.9 3.9 0 0 1-2.7.7 3.5 3.5 0 0 1-2.1-1.7 3.5 3.5 0 0 1 2.6-.8 3.8 3.8 0 0 1 2.2 1.8z" fill="#febf10" stroke="#000" stroke-linecap="round" stroke-linejoin="round" stroke-width=".3"/>
  <path fill="none" stroke="#000" stroke-linecap="round" stroke-linejoin="round" stroke-width=".3" d="M32.6 25l-2.7-.6"/>
  <path d="M51.4 24.2a3.5 3.5 0 0 0 2.7.1 3.6 3.6 0 0 0 1.7-2.2A3.7 3.7 0 0 0 53 22a3.7 3.7 0 0 0-1.6 2.2z" fill="#febf10" stroke="#000" stroke-linecap="round" stroke-linejoin="round" stroke-width=".3"/>
  <path fill="none" stroke="#000" stroke-linecap="round" stroke-linejoin="round" stroke-width=".3" d="M51.4 24.2l2.4-1.2"/>
  <path d="M48.4 24.5a3.6 3.6 0 0 0 2.6.7 3.5 3.5 0 0 0 2.1-1.8 3.6 3.6 0 0 0-2.6-.7 3.5 3.5 0 0 0-2.1 1.8z" fill="#febf10" stroke="#000" stroke-linecap="round" stroke-linejoin="round" stroke-width=".3"/>
  <path fill="none" stroke="#000" stroke-linecap="round" stroke-linejoin="round" stroke-width=".3" d="M48.4 24.5l2.6-.6"/>
  <path d="M35.7 25.4a4 4 0 0 1-2.6.8 3.8 3.8 0 0 1-2.2-1.7 3.6 3.6 0 0 1 2.7-.8 3.5 3.5 0 0 1 2.1 1.7z" fill="#febf10" stroke="#000" stroke-linecap="round" stroke-linejoin="round" stroke-width=".3"/>
  <path fill="none" stroke="#000" stroke-linecap="round" stroke-linejoin="round" stroke-width=".3" d="M35.7 25.4l-2.6-.5"/>
  <path d="M38.8 25.4a3.8 3.8 0 0 1-2.5 1.1 3.8 3.8 0 0 1-2.4-1.4 4.3 4.3 0 0 1 2.6-1.2 3.8 3.8 0 0 1 2.3 1.5z" fill="#febf10" stroke="#000" stroke-linecap="round" stroke-linejoin="round" stroke-width=".3"/>
  <path fill="none" stroke="#000" stroke-linecap="round" stroke-linejoin="round" stroke-width=".3" d="M38.8 25.4l-2.7-.2"/>
  <path d="M45.3 25.1a3.6 3.6 0 0 0 2.6.7 3.8 3.8 0 0 0 2.2-1.8 3.9 3.9 0 0 0-2.7-.7 3.8 3.8 0 0 0-2.1 1.8z" fill="#febf10" stroke="#000" stroke-linecap="round" stroke-linejoin="round" stroke-width=".3"/>
  <path fill="none" stroke="#000" stroke-linecap="round" stroke-linejoin="round" stroke-width=".3" d="M45.3 25.1l2.6-.6"/>
  <path d="M42 25.3a3.9 3.9 0 0 0 2.7.9 4.3 4.3 0 0 0 2.2-1.7 4.2 4.2 0 0 0-2.7-.9 4.3 4.3 0 0 0-2.2 1.7z" fill="#febf10" stroke="#000" stroke-linecap="round" stroke-linejoin="round" stroke-width=".3"/>
  <path fill="none" stroke="#000" stroke-linecap="round" stroke-linejoin="round" stroke-width=".3" d="M42 25.3l2.7-.5"/>
  <path d="M38.9 25.3a3.9 3.9 0 0 0 2.6 1.1 3.4 3.4 0 0 0 2.3-1.4 3.5 3.5 0 0 0-2.5-1.1 4.2 4.2 0 0 0-2.4 1.4z" fill="#febf10" stroke="#000" stroke-linecap="round" stroke-linejoin="round" stroke-width=".3"/>
  <path fill="none" stroke="#000" stroke-linecap="round" stroke-linejoin="round" stroke-width=".3" d="M38.9 25.3l2.7-.2"/>
  <path d="M41.3 27.5h-.5l-4.9-4a.5.5 0 0 1 0-.7.7.7 0 0 1 .9 0l4.8 3.9a.5.5 0 0 1 0 .8z" fill="#0065b7" stroke="#000" stroke-linecap="round" stroke-linejoin="round" stroke-width=".4"/>
  <path d="M36.6 27.7h-.4a.5.5 0 0 1 0-.7l4.4-3.7a.7.7 0 0 1 .9 0 .6.6 0 0 1 0 .8l-4.4 3.6c-.2 0-.3.1-.5 0z" fill="#0065b7" stroke="#000" stroke-linecap="round" stroke-linejoin="round" stroke-width=".4"/>
  <path d="M57.1 18.3c0 3-8.1 5.5-18.1 5.5s-18.1-2.5-18.1-5.5c0-3.1 8.1-5.6 18.1-5.6s18.1 2.5 18.1 5.6z" fill="red"/>
  <path d="M25.9 17s13.9 5.3 25.9-.1c.1.1 1-.4 1.4.8s-2.6 3.4-10.9 3.4-13.7-.4-15.5-1.2-3.4-1.6-.9-2.9z" fill="#980805"/>
  <path d="M57.1 18.3c0 3-8.1 5.5-18.1 5.5s-18.1-2.5-18.1-5.5c0-3.1 8.1-5.6 18.1-5.6s18.1 2.5 18.1 5.6z" fill="none" stroke="#000" stroke-linecap="round" stroke-linejoin="round" stroke-width=".4"/>
  <path d="M52.1 17c.7.4 1.1.8 1.1 1.2 0 1.6-6.4 3-14.2 3s-14.2-1.4-14.2-3c0-.4.4-.8 1.1-1.2m-5.3 13.7c-2.5.1-1.2 13.1 18.4 12.5h.1c19.7.6 20.9-12.4 18.5-12.5h-.3c-.5.1-.8.6-1 1.3a1 1 0 0 0-1.1-.7c-.8.2-1 .9-1.2 1.9a1.4 1.4 0 0 0-1.7-1.2c-.9.2-1.2 1-1.5 2.1a1.7 1.7 0 0 0-1.8-1.6 2.2 2.2 0 0 0-2.4 1.7 2.1 2.1 0 0 0-2.1-1.6 2.7 2.7 0 0 0-2.7 2.3 2.7 2.7 0 0 0-5.4.1c-.5-1.4-1.2-2.4-2.8-2.4a1.9 1.9 0 0 0-2 1.6 2.4 2.4 0 0 0-2.5-1.7 1.7 1.7 0 0 0-1.8 1.7c-.3-1.1-.6-1.9-1.5-2.1a1.2 1.2 0 0 0-1.6 1.2c-.2-1-.5-1.7-1.3-1.9a1 1 0 0 0-1.1.7c-.2-.7-.4-1.2-1-1.3z" fill="none" stroke="#000" stroke-linecap="round" stroke-linejoin="round" stroke-width=".4"/>
  <path d="M20.8 30.8c-2.8-.9-2.1 13.1 18.3 12.4-21.3-1.8-15.2-11.5-18.3-12.4z" fill="red" stroke="#000" stroke-linecap="round" stroke-linejoin="round" stroke-width=".4"/>
  <path d="M22.9 31.4c-3-.8-1.8 11.9 16.2 11.8-18.4-1.6-13-10.9-16.2-11.8z" fill="red" stroke="#000" stroke-linecap="round" stroke-linejoin="round" stroke-width=".4"/>
  <path d="M25.8 32.1c-3.8-.9-1.7 11.2 13.3 11.1C24.5 39.9 29 32.8 25.8 32.1z" fill="red" stroke="#000" stroke-linecap="round" stroke-linejoin="round" stroke-width=".4"/>
  <path d="M29.1 32.5c-4 0-1.8 8.9 10 10.7-9.2-3.7-5.5-10.7-10-10.7z" fill="red" stroke="#000" stroke-linecap="round" stroke-linejoin="round" stroke-width=".4"/>
  <path d="M33.6 32.6c-4 0-2.4 8.5 5.5 10.6-3.2-3.6-1.2-10.6-5.5-10.6z" fill="red" stroke="#000" stroke-linecap="round" stroke-linejoin="round" stroke-width=".4"/>
  <path d="M57.3 30.8c2.8-.9 2.1 13.1-18.3 12.4 21.3-1.8 15.2-11.5 18.3-12.4z" fill="red" stroke="#000" stroke-linecap="round" stroke-linejoin="round" stroke-width=".4"/>
  <path d="M55.2 31.4c3-.8 1.8 11.9-16.2 11.8 18.4-1.6 13.1-10.9 16.2-11.8z" fill="red" stroke="#000" stroke-linecap="round" stroke-linejoin="round" stroke-width=".4"/>
  <path d="M52.3 32.1c3.8-.9 1.7 11.2-13.3 11.1 14.6-3.3 10.2-10.4 13.3-11.1z" fill="red" stroke="#000" stroke-linecap="round" stroke-linejoin="round" stroke-width=".4"/>
  <path d="M49 32.5c4 0 1.9 8.9-10 10.7 9.3-3.7 5.5-10.7 10-10.7z" fill="red" stroke="#000" stroke-linecap="round" stroke-linejoin="round" stroke-width=".4"/>
  <path d="M44.5 32.6c4 0 2.5 8.5-5.5 10.6 3.2-3.6 1.2-10.6 5.5-10.6z" fill="red" stroke="#000" stroke-linecap="round" stroke-linejoin="round" stroke-width=".4"/>
  <path d="M39.1 32.6c-4 0-3.6 7 0 10.6 3.6-3.6 4-10.6 0-10.6z" fill="red" stroke="#000" stroke-linecap="round" stroke-linejoin="round" stroke-width=".4"/>
  <path d="M40.1 66.3a97.7 97.7 0 0 1-17.8-1.5 3 3 0 1 1 1.4-5.8c3 .7 18.9 2.6 30.5 0a3 3 0 0 1 3.6 2.3 3 3 0 0 1-2.2 3.6 72.7 72.7 0 0 1-15.5 1.4z" fill="#0065b7"/>
  <path d="M57.8 60.9c.1.2 0 .2 0 .4a3 3 0 0 1-2.2 3.6 72.7 72.7 0 0 1-15.5 1.4 97.7 97.7 0 0 1-17.8-1.5 3 3 0 0 1-2.2-3.6c.1-.2 0-.1.1-.3l5.5.9 8 .7 5.7.2h5.1l6.8-.5z" fill="#325723"/>
  <path d="M40.1 66.3a97.7 97.7 0 0 1-17.8-1.5 3 3 0 1 1 1.4-5.8c3 .7 18.9 2.6 30.5 0a3 3 0 0 1 3.6 2.3 3 3 0 0 1-2.2 3.6 72.7 72.7 0 0 1-15.5 1.4z" fill="none" stroke="#000" stroke-linecap="round" stroke-linejoin="round" stroke-width=".4"/>
  <path d="M39.1 34.6c-2.5 0-2.2 5.6 0 8.4 2.3-2.8 2.5-8.4 0-8.4z" fill="#980805" stroke="#000" stroke-linecap="round" stroke-linejoin="round" stroke-width=".4"/>
  <path d="M23.1 24.5a1 1 0 0 0-1 .7.8.8 0 0 0 .7 1c3.9 1.4 10.4 2.2 16 2.2h.6c5.6 0 12-.8 16-2.2a.9.9 0 0 0 .7-1 1.1 1.1 0 0 0-1.1-.7h-.4c-3.5 1.2-10.1 2-15.5 2s-12.1-.8-15.5-2zm.7 32.8a.9.9 0 0 0-1 .8.9.9 0 0 0 .8 1 98.7 98.7 0 0 0 15.5 1.2 100.7 100.7 0 0 0 15.5-1.2 1 1 0 0 0 .8-1 1.1 1.1 0 0 0-1-.8h-.2a94.3 94.3 0 0 1-15.1 1.2 96.6 96.6 0 0 1-15.2-1.2z" fill="#febf10" stroke="#000" stroke-linecap="round" stroke-linejoin="round" stroke-width=".4"/>
  <circle cx="17.3" cy="28.1" r="3" fill="#febf10" stroke="#000" stroke-linecap="round" stroke-linejoin="round" stroke-width=".4"/>
  <path d="M17.2 29.2a1.1 1.1 0 0 1 0-2.2" fill="none" stroke="#000" stroke-linecap="round" stroke-linejoin="round" stroke-width=".4"/>
  <circle cx="60.7" cy="28.1" r="3" fill="#febf10" stroke="#000" stroke-linecap="round" stroke-linejoin="round" stroke-width=".4"/>
  <path d="M60.5 29.2a1.1 1.1 0 0 1 0-2.2" fill="none" stroke="#000" stroke-linecap="round" stroke-linejoin="round" stroke-width=".4"/>
  <path d="M40.5 65.6A116.9 116.9 0 0 1 21 64.1a.5.5 0 0 1-.4-.6.6.6 0 0 1 .6-.4c3.7.8 21.8 2.9 35.3.2.3-.1.6.1.6.3a.4.4 0 0 1-.4.6 78.8 78.8 0 0 1-16.2 1.4z" fill="#febf10"/>
  <circle cx="21.7" cy="63.1" r="1.1" fill="#febf10" stroke="#000" stroke-linecap="round" stroke-linejoin="round" stroke-width=".3"/>
  <circle cx="21.7" cy="63.1" r=".4"/>
  <path d="M40.6 66.8A119.6 119.6 0 0 1 21 65.3a.7.7 0 0 1-.4-.6c.1-.3.4-.5.6-.4 3.7.8 21.9 2.8 35.5.1a.5.5 0 0 1 .6.4c.1.3-.1.5-.4.6a87.5 87.5 0 0 1-16.3 1.4z" fill="#febf10" stroke="#000" stroke-linecap="round" stroke-linejoin="round" stroke-width=".4"/>
  <circle cx="23.9" cy="63.5" r="1.1" fill="#febf10" stroke="#000" stroke-linecap="round" stroke-linejoin="round" stroke-width=".3"/>
  <circle cx="23.9" cy="63.5" r=".4"/>
  <circle cx="26.3" cy="63.7" r="1.1" fill="#febf10" stroke="#000" stroke-linecap="round" stroke-linejoin="round" stroke-width=".3"/>
  <circle cx="26.3" cy="63.7" r=".4"/>
  <circle cx="28.5" cy="63.9" r="1.1" fill="#febf10" stroke="#000" stroke-linecap="round" stroke-linejoin="round" stroke-width=".3"/>
  <circle cx="28.5" cy="63.9" r=".4"/>
  <circle cx="30.9" cy="64.2" r="1.1" fill="#febf10" stroke="#000" stroke-linecap="round" stroke-linejoin="round" stroke-width=".3"/>
  <circle cx="30.9" cy="64.2" r=".4"/>
  <circle cx="33.2" cy="64.3" r="1.1" fill="#febf10" stroke="#000" stroke-linecap="round" stroke-linejoin="round" stroke-width=".3"/>
  <circle cx="33.2" cy="64.3" r=".4"/>
  <circle cx="35.5" cy="64.4" r="1.1" fill="#febf10" stroke="#000" stroke-linecap="round" stroke-linejoin="round" stroke-width=".3"/>
  <circle cx="35.5" cy="64.4" r=".4"/>
  <circle cx="37.9" cy="64.4" r="1.1" fill="#febf10" stroke="#000" stroke-linecap="round" stroke-linejoin="round" stroke-width=".3"/>
  <circle cx="37.9" cy="64.4" r=".4"/>
  <circle cx="40.2" cy="64.5" r="1.1" fill="#febf10" stroke="#000" stroke-linecap="round" stroke-linejoin="round" stroke-width=".3"/>
  <circle cx="40.2" cy="64.5" r=".4"/>
  <circle cx="42.5" cy="64.4" r="1.1" fill="#febf10" stroke="#000" stroke-linecap="round" stroke-linejoin="round" stroke-width=".3"/>
  <circle cx="42.5" cy="64.4" r=".4"/>
  <circle cx="56.1" cy="63.3" r="1.1" fill="#febf10" stroke="#000" stroke-linecap="round" stroke-linejoin="round" stroke-width=".3"/>
  <circle cx="56.1" cy="63.3" r=".4"/>
  <circle cx="53.9" cy="63.6" r="1.1" fill="#febf10" stroke="#000" stroke-linecap="round" stroke-linejoin="round" stroke-width=".3"/>
  <circle cx="53.9" cy="63.6" r=".4"/>
  <circle cx="51.6" cy="63.9" r="1.1" fill="#febf10" stroke="#000" stroke-linecap="round" stroke-linejoin="round" stroke-width=".3"/>
  <circle cx="51.6" cy="63.9" r=".4"/>
  <circle cx="49.2" cy="64.2" r="1.1" fill="#febf10" stroke="#000" stroke-linecap="round" stroke-linejoin="round" stroke-width=".3"/>
  <circle cx="49.2" cy="64.2" r=".4"/>
  <circle cx="47" cy="64.3" r="1.1" fill="#febf10" stroke="#000" stroke-linecap="round" stroke-linejoin="round" stroke-width=".3"/>
  <circle cx="47" cy="64.3" r=".4"/>
  <circle cx="44.8" cy="64.4" r="1.1" fill="#febf10" stroke="#000" stroke-linecap="round" stroke-linejoin="round" stroke-width=".3"/>
  <circle cx="44.8" cy="64.4" r=".4"/>
  <path d="M57.4 61.1c-17.7 3.8-37-.1-37-.1" fill="none" stroke="#000" stroke-linecap="round" stroke-linejoin="round" stroke-width=".4"/>
  <path d="M34.8 105.3v2.3c-1.5 5.2-6.5 6.9-9 7.2-1 .2-.4 2.5 1.6 3.3v1.9h22.2v-1.7c2.8-.3 3.8-3.3 2.6-3.5s-7.5-2-9-7.2v-2.3h-2.5v2.3c.6 1.9.1 2.8-.4-1h-2.6c-.5 3.8-1 2.9-.4 1v-2.3z" fill="#325723"/>
  <path d="M31.1 117.9a34.9 34.9 0 0 0 5 .4m-3.6-1.4l2.4.2m12.1.8a34.9 34.9 0 0 1-5 .4m3.3-1.4a8.6 8.6 0 0 1-2.2.2m-9.5-1.4h1.1m9.7.1h-1.1" fill="none" stroke="#000" stroke-linecap="round" stroke-linejoin="round" stroke-width=".4"/>
  <path d="M34.8 105.3v2.3c-1.5 5.2-6.5 6.9-9 7.2s.2 4.5 4.5 3.3 6.1-7.7 7-10.5v-2.3zm5.9 0v2.3c.9 2.8 2.7 9.3 7 10.5s5.9-3.1 4.5-3.3-7.5-2-9-7.2v-2.3z" fill="#3c6d3d" stroke="#000" stroke-linecap="round" stroke-linejoin="round" stroke-width=".4"/>
  <path d="M34.8 105.3v2.3c-1.5 5.2-6.5 6.9-9 7.2s.2 4.5 4.5 3.3 6.1-7.7 7-10.5v-2.3zm5.9 0v2.3c.9 2.8 2.7 9.3 7 10.5s5.9-3.1 4.5-3.3-7.5-2-9-7.2v-2.3z" fill="#325723" stroke="#000" stroke-linecap="round" stroke-linejoin="round" stroke-width=".4"/>
  <path d="M37.6 105.5c-.7 4.8-3.6 7.6-3.1 11.2.2 1.3 1.9 2.2 4.5 2.2s4.3-.9 4.5-2.2c.5-3.6-2.4-6.4-3.1-11.2h-2.8z" fill="#325723" stroke="#000" stroke-linecap="round" stroke-linejoin="round" stroke-width=".4"/>
  <path d="M38.3 107.2c-.3 3.5-1.7 5.6-1.5 8.2.1 1 1 1.6 2.2 1.6s2.1-.6 2.2-1.6c.3-2.6-1.1-4.7-1.5-8.2h-1.4z" fill="#0d3a12" stroke="#000" stroke-linecap="round" stroke-linejoin="round" stroke-width=".4"/>
  <path d="M38.6 102.1a3.1 3.1 0 0 0-3.2 2.2c-.3 1 .3 2.2 1.3 2.1s.6-.1.7.3 2.9.9 3.4-.4c1 .5 2.1-.6 1.9-1.7a3.2 3.2 0 0 0-2.8-2.5zm-3 .4c-1.7 0-3.7.7-4.4 2.4s-.4 1.8.5 1.9 1-.9 1.5-.4 1.7.6 1.8-.3a3.9 3.9 0 0 1 1.1-3.2c.2-.3-.2-.5-.5-.4zm6.3.1c-.1.5.5.8.7 1.3s.1 1.8.5 2.6 1.3.2 1.8-.2.9.7 1.5.5.7-1.4.4-2a4.6 4.6 0 0 0-4.8-2.2z" fill="#febf10" stroke="#000" stroke-linecap="round" stroke-linejoin="round" stroke-width=".4"/>
  <path d="M26.1 85.6c-3 .5-6.5 3-6.5 6.7s2.3 7.2 6.4 9.1 8.6 2.3 13.1 2.3 9.2-.5 13-2.3 6.4-4.6 6.4-9.1-3.4-6.2-6.5-6.7H26.1z" fill="#325723"/>
  <path d="M31.1 85.8s-4.7 13.2 10.1 18c0 .1-13.9.4-18.3-4.4s-3.6-8.7-1.4-11.2 6.4-3 9.6-2.4z" fill="#0d3a12"/>
  <path d="M26.1 85.6c-3 .5-6.5 3-6.5 6.7s3 7.4 7.1 9.3 7.9 2.1 12.4 2.1a29.3 29.3 0 0 0 12.6-2.5c4.1-1.9 6.8-4.4 6.8-8.9s-3.4-6.2-6.5-6.7H26.1z" fill="none" stroke="#000" stroke-linecap="round" stroke-linejoin="round" stroke-width=".4"/>
  <path d="M20.9 79.1l36.2-.3-2.5 7.6-15.5 2.2-15.6-2.3z" fill="#d09b07" stroke="#000" stroke-linecap="round" stroke-linejoin="round" stroke-width=".4"/>
  <path d="M26.8 84.7a4.2 4.2 0 0 1-2.8.2 4.1 4.1 0 0 1-1.7-2.2 4.2 4.2 0 0 1 2.8-.2 4.1 4.1 0 0 1 1.7 2.2z" fill="#febf10" stroke="#000" stroke-linecap="round" stroke-linejoin="round" stroke-width=".3"/>
  <path fill="none" stroke="#000" stroke-linecap="round" stroke-linejoin="round" stroke-width=".3" d="M26.8 84.7l-2.5-1.1"/>
  <path d="M29.8 85a3.9 3.9 0 0 1-2.7.7 3.8 3.8 0 0 1-2.1-1.8 3.7 3.7 0 0 1 2.7-.7 3.8 3.8 0 0 1 2.1 1.8z" fill="#febf10" stroke="#000" stroke-linecap="round" stroke-linejoin="round" stroke-width=".3"/>
  <path fill="none" stroke="#000" stroke-linecap="round" stroke-linejoin="round" stroke-width=".3" d="M29.8 85l-2.7-.6"/>
  <path d="M32.6 85.5a3.9 3.9 0 0 1-2.7.7 3.5 3.5 0 0 1-2.1-1.7 3.5 3.5 0 0 1 2.6-.8 3.8 3.8 0 0 1 2.2 1.8z" fill="#febf10" stroke="#000" stroke-linecap="round" stroke-linejoin="round" stroke-width=".3"/>
  <path fill="none" stroke="#000" stroke-linecap="round" stroke-linejoin="round" stroke-width=".3" d="M32.6 85.5l-2.7-.6"/>
  <path d="M51.4 84.7a3.5 3.5 0 0 0 2.7.1 3.6 3.6 0 0 0 1.7-2.2 3.7 3.7 0 0 0-2.8-.1 3.7 3.7 0 0 0-1.6 2.2z" fill="#febf10" stroke="#000" stroke-linecap="round" stroke-linejoin="round" stroke-width=".3"/>
  <path fill="none" stroke="#000" stroke-linecap="round" stroke-linejoin="round" stroke-width=".3" d="M51.4 84.7l2.4-1.2"/>
  <path d="M48.4 85a3.6 3.6 0 0 0 2.6.7 3.5 3.5 0 0 0 2.1-1.8 3.6 3.6 0 0 0-2.6-.7 3.5 3.5 0 0 0-2.1 1.8z" fill="#febf10" stroke="#000" stroke-linecap="round" stroke-linejoin="round" stroke-width=".3"/>
  <path fill="none" stroke="#000" stroke-linecap="round" stroke-linejoin="round" stroke-width=".3" d="M48.4 85l2.6-.6"/>
  <path d="M35.7 85.9a4 4 0 0 1-2.6.8 3.8 3.8 0 0 1-2.2-1.7 3.6 3.6 0 0 1 2.7-.8 3.5 3.5 0 0 1 2.1 1.7z" fill="#febf10" stroke="#000" stroke-linecap="round" stroke-linejoin="round" stroke-width=".3"/>
  <path fill="none" stroke="#000" stroke-linecap="round" stroke-linejoin="round" stroke-width=".3" d="M35.7 85.9l-2.6-.5"/>
  <path d="M38.8 85.9a3.8 3.8 0 0 1-2.5 1.1 3.8 3.8 0 0 1-2.4-1.4 4.3 4.3 0 0 1 2.6-1.2 3.8 3.8 0 0 1 2.3 1.5z" fill="#febf10" stroke="#000" stroke-linecap="round" stroke-linejoin="round" stroke-width=".3"/>
  <path fill="none" stroke="#000" stroke-linecap="round" stroke-linejoin="round" stroke-width=".3" d="M38.8 85.9l-2.7-.2"/>
  <path d="M45.3 85.6a3.6 3.6 0 0 0 2.6.7 3.8 3.8 0 0 0 2.2-1.8 3.9 3.9 0 0 0-2.7-.7 3.8 3.8 0 0 0-2.1 1.8z" fill="#febf10" stroke="#000" stroke-linecap="round" stroke-linejoin="round" stroke-width=".3"/>
  <path fill="none" stroke="#000" stroke-linecap="round" stroke-linejoin="round" stroke-width=".3" d="M45.3 85.6l2.6-.6"/>
  <path d="M42 85.8a3.9 3.9 0 0 0 2.7.9 4.3 4.3 0 0 0 2.2-1.7 4.2 4.2 0 0 0-2.7-.9 4.3 4.3 0 0 0-2.2 1.7z" fill="#febf10" stroke="#000" stroke-linecap="round" stroke-linejoin="round" stroke-width=".3"/>
  <path fill="none" stroke="#000" stroke-linecap="round" stroke-linejoin="round" stroke-width=".3" d="M42 85.8l2.7-.5"/>
  <path d="M38.9 85.8a3.9 3.9 0 0 0 2.6 1.1 3.4 3.4 0 0 0 2.3-1.4 3.5 3.5 0 0 0-2.5-1.1 4.2 4.2 0 0 0-2.4 1.4z" fill="#febf10" stroke="#000" stroke-linecap="round" stroke-linejoin="round" stroke-width=".3"/>
  <path fill="none" stroke="#000" stroke-linecap="round" stroke-linejoin="round" stroke-width=".3" d="M38.9 85.8l2.7-.2"/>
  <path d="M41.3 88h-.5l-4.9-4a.5.5 0 0 1 0-.7.7.7 0 0 1 .9 0l4.8 3.9a.5.5 0 0 1 0 .8z" fill="#0065b7" stroke="#000" stroke-linecap="round" stroke-linejoin="round" stroke-width=".4"/>
  <path d="M36.6 88.2h-.4a.5.5 0 0 1 0-.7l4.4-3.7a.7.7 0 0 1 .9 0 .6.6 0 0 1 0 .8l-4.4 3.6c-.2 0-.3.1-.5 0z" fill="#0065b7" stroke="#000" stroke-linecap="round" stroke-linejoin="round" stroke-width=".4"/>
  <path d="M57.1 78.8c0 3-8.1 5.5-18.1 5.5s-18.1-2.5-18.1-5.5c0-3.1 8.1-5.6 18.1-5.6s18.1 2.5 18.1 5.6z" fill="red"/>
  <path d="M25.9 77.5s13.9 5.3 25.9-.1c.1.1 1-.4 1.4.8s-2.6 3.4-10.9 3.4-13.7-.4-15.5-1.2-3.4-1.6-.9-2.9z" fill="#980805"/>
  <path d="M57.1 78.8c0 3-8.1 5.5-18.1 5.5s-18.1-2.5-18.1-5.5c0-3.1 8.1-5.6 18.1-5.6s18.1 2.5 18.1 5.6z" fill="none" stroke="#000" stroke-linecap="round" stroke-linejoin="round" stroke-width=".4"/>
  <path d="M52.1 77.5c.7.4 1.1.8 1.1 1.2 0 1.6-6.4 3-14.2 3s-14.2-1.4-14.2-3c0-.4.4-.8 1.1-1.2m-5.3 13.7c-2.5.1-1.2 13.1 18.4 12.5h.1c19.7.6 20.9-12.4 18.5-12.5h-.3c-.5.1-.8.6-1 1.3a1 1 0 0 0-1.1-.7c-.8.2-1 .9-1.2 1.9a1.4 1.4 0 0 0-1.7-1.2c-.9.2-1.2 1-1.5 2.1A1.7 1.7 0 0 0 49 93a2.2 2.2 0 0 0-2.4 1.7 2.1 2.1 0 0 0-2.1-1.6 2.7 2.7 0 0 0-2.7 2.3 2.7 2.7 0 0 0-5.4.1c-.5-1.4-1.2-2.4-2.8-2.4a1.9 1.9 0 0 0-2 1.6 2.4 2.4 0 0 0-2.5-1.7 1.7 1.7 0 0 0-1.8 1.7c-.3-1.1-.6-1.9-1.5-2.1a1.2 1.2 0 0 0-1.6 1.2c-.2-1-.5-1.7-1.3-1.9a1 1 0 0 0-1.1.7c-.2-.7-.4-1.2-1-1.3z" fill="none" stroke="#000" stroke-linecap="round" stroke-linejoin="round" stroke-width=".4"/>
  <path d="M20.8 91.3c-2.8-.9-2.1 13.1 18.3 12.4-21.3-1.8-15.2-11.5-18.3-12.4z" fill="red" stroke="#000" stroke-linecap="round" stroke-linejoin="round" stroke-width=".4"/>
  <path d="M22.9 91.9c-3-.8-1.8 11.9 16.2 11.8-18.4-1.6-13-10.9-16.2-11.8z" fill="red" stroke="#000" stroke-linecap="round" stroke-linejoin="round" stroke-width=".4"/>
  <path d="M25.8 92.6c-3.8-.9-1.7 11.2 13.3 11.1-14.6-3.3-10.1-10.4-13.3-11.1z" fill="red" stroke="#000" stroke-linecap="round" stroke-linejoin="round" stroke-width=".4"/>
  <path d="M29.1 93c-4 0-1.8 8.9 10 10.7-9.2-3.7-5.5-10.7-10-10.7z" fill="red" stroke="#000" stroke-linecap="round" stroke-linejoin="round" stroke-width=".4"/>
  <path d="M33.6 93.1c-4 0-2.4 8.5 5.5 10.6-3.2-3.6-1.2-10.6-5.5-10.6z" fill="red" stroke="#000" stroke-linecap="round" stroke-linejoin="round" stroke-width=".4"/>
  <path d="M57.3 91.3c2.8-.9 2.1 13.1-18.3 12.4 21.3-1.8 15.2-11.5 18.3-12.4z" fill="red" stroke="#000" stroke-linecap="round" stroke-linejoin="round" stroke-width=".4"/>
  <path d="M55.2 91.9c3-.8 1.8 11.9-16.2 11.8 18.4-1.6 13.1-10.9 16.2-11.8z" fill="red" stroke="#000" stroke-linecap="round" stroke-linejoin="round" stroke-width=".4"/>
  <path d="M52.3 92.6c3.8-.9 1.7 11.2-13.3 11.1 14.6-3.3 10.2-10.4 13.3-11.1z" fill="red" stroke="#000" stroke-linecap="round" stroke-linejoin="round" stroke-width=".4"/>
  <path d="M49 93c4 0 1.9 8.9-10 10.7C48.3 100 44.5 93 49 93z" fill="red" stroke="#000" stroke-linecap="round" stroke-linejoin="round" stroke-width=".4"/>
  <path d="M44.5 93.1c4 0 2.5 8.5-5.5 10.6 3.2-3.6 1.2-10.6 5.5-10.6z" fill="red" stroke="#000" stroke-linecap="round" stroke-linejoin="round" stroke-width=".4"/>
  <path d="M39.1 93.1c-4 0-3.6 7 0 10.6 3.6-3.6 4-10.6 0-10.6z" fill="red" stroke="#000" stroke-linecap="round" stroke-linejoin="round" stroke-width=".4"/>
  <path d="M40.1 126.8a97.7 97.7 0 0 1-17.8-1.5 3 3 0 1 1 1.4-5.8c3 .7 18.9 2.6 30.5 0a3 3 0 0 1 3.6 2.3 3 3 0 0 1-2.2 3.6 72.7 72.7 0 0 1-15.5 1.4z" fill="#0065b7"/>
  <path d="M57.8 121.4c.1.2 0 .2 0 .4a3 3 0 0 1-2.2 3.6 72.7 72.7 0 0 1-15.5 1.4 97.7 97.7 0 0 1-17.8-1.5 3 3 0 0 1-2.2-3.6c.1-.2 0-.1.1-.3l5.5.9 8 .7 5.7.2h5.1l6.8-.5z" fill="#325723"/>
  <path d="M40.1 126.8a97.7 97.7 0 0 1-17.8-1.5 3 3 0 1 1 1.4-5.8c3 .7 18.9 2.6 30.5 0a3 3 0 0 1 3.6 2.3 3 3 0 0 1-2.2 3.6 72.7 72.7 0 0 1-15.5 1.4z" fill="none" stroke="#000" stroke-linecap="round" stroke-linejoin="round" stroke-width=".4"/>
  <path d="M39.1 95.1c-2.5 0-2.2 5.6 0 8.4 2.3-2.8 2.5-8.4 0-8.4z" fill="#980805" stroke="#000" stroke-linecap="round" stroke-linejoin="round" stroke-width=".4"/>
  <path d="M23.1 85a1 1 0 0 0-1 .7.8.8 0 0 0 .7 1c3.9 1.4 10.4 2.2 16 2.2h.6c5.6 0 12-.8 16-2.2a.9.9 0 0 0 .7-1A1.1 1.1 0 0 0 55 85h-.4c-3.5 1.2-10.1 2-15.5 2s-12.1-.8-15.5-2zm.7 32.8a.9.9 0 0 0-1 .8.9.9 0 0 0 .8 1 98.7 98.7 0 0 0 15.5 1.2 100.7 100.7 0 0 0 15.5-1.2 1 1 0 0 0 .8-1 1.1 1.1 0 0 0-1-.8h-.2a94.3 94.3 0 0 1-15.1 1.2 96.6 96.6 0 0 1-15.2-1.2z" fill="#febf10" stroke="#000" stroke-linecap="round" stroke-linejoin="round" stroke-width=".4"/>
  <circle cx="17.3" cy="88.6" r="3" fill="#febf10" stroke="#000" stroke-linecap="round" stroke-linejoin="round" stroke-width=".4"/>
  <path d="M17.2 89.7a1.1 1.1 0 0 1 0-2.2" fill="none" stroke="#000" stroke-linecap="round" stroke-linejoin="round" stroke-width=".4"/>
  <circle cx="60.7" cy="88.6" r="3" fill="#febf10" stroke="#000" stroke-linecap="round" stroke-linejoin="round" stroke-width=".4"/>
  <path d="M60.5 89.7a1.1 1.1 0 1 1 0-2.2" fill="none" stroke="#000" stroke-linecap="round" stroke-linejoin="round" stroke-width=".4"/>
  <path d="M40.5 126.1a116.9 116.9 0 0 1-19.5-1.5.5.5 0 0 1-.4-.6.6.6 0 0 1 .6-.4c3.7.8 21.8 2.9 35.3.2.3-.1.6.1.6.3a.4.4 0 0 1-.4.6 78.8 78.8 0 0 1-16.2 1.4z" fill="#febf10"/>
  <circle cx="21.7" cy="123.6" r="1.1" fill="#febf10" stroke="#000" stroke-linecap="round" stroke-linejoin="round" stroke-width=".3"/>
  <circle cx="21.7" cy="123.6" r=".4"/>
  <path d="M40.6 127.3a119.6 119.6 0 0 1-19.6-1.5.7.7 0 0 1-.4-.6c.1-.3.4-.5.6-.4 3.7.8 21.9 2.8 35.5.1a.5.5 0 0 1 .6.4c.1.3-.1.5-.4.6a87.5 87.5 0 0 1-16.3 1.4z" fill="#febf10" stroke="#000" stroke-linecap="round" stroke-linejoin="round" stroke-width=".4"/>
  <circle cx="23.9" cy="124" r="1.1" fill="#febf10" stroke="#000" stroke-linecap="round" stroke-linejoin="round" stroke-width=".3"/>
  <circle cx="23.9" cy="124" r=".4"/>
  <circle cx="26.3" cy="124.2" r="1.1" fill="#febf10" stroke="#000" stroke-linecap="round" stroke-linejoin="round" stroke-width=".3"/>
  <circle cx="26.3" cy="124.2" r=".4"/>
  <circle cx="28.5" cy="124.4" r="1.1" fill="#febf10" stroke="#000" stroke-linecap="round" stroke-linejoin="round" stroke-width=".3"/>
  <circle cx="28.5" cy="124.4" r=".4"/>
  <circle cx="30.9" cy="124.7" r="1.1" fill="#febf10" stroke="#000" stroke-linecap="round" stroke-linejoin="round" stroke-width=".3"/>
  <circle cx="30.9" cy="124.7" r=".4"/>
  <circle cx="33.2" cy="124.8" r="1.1" fill="#febf10" stroke="#000" stroke-linecap="round" stroke-linejoin="round" stroke-width=".3"/>
  <circle cx="33.2" cy="124.8" r=".4"/>
  <circle cx="35.5" cy="124.9" r="1.1" fill="#febf10" stroke="#000" stroke-linecap="round" stroke-linejoin="round" stroke-width=".3"/>
  <circle cx="35.5" cy="124.9" r=".4"/>
  <circle cx="37.9" cy="124.9" r="1.1" fill="#febf10" stroke="#000" stroke-linecap="round" stroke-linejoin="round" stroke-width=".3"/>
  <circle cx="37.9" cy="124.9" r=".4"/>
  <circle cx="40.2" cy="125" r="1.1" fill="#febf10" stroke="#000" stroke-linecap="round" stroke-linejoin="round" stroke-width=".3"/>
  <circle cx="40.2" cy="125" r=".4"/>
  <circle cx="42.5" cy="124.9" r="1.1" fill="#febf10" stroke="#000" stroke-linecap="round" stroke-linejoin="round" stroke-width=".3"/>
  <circle cx="42.5" cy="124.9" r=".4"/>
  <circle cx="56.1" cy="123.8" r="1.1" fill="#febf10" stroke="#000" stroke-linecap="round" stroke-linejoin="round" stroke-width=".3"/>
  <circle cx="56.1" cy="123.8" r=".4"/>
  <circle cx="53.9" cy="124.1" r="1.1" fill="#febf10" stroke="#000" stroke-linecap="round" stroke-linejoin="round" stroke-width=".3"/>
  <circle cx="53.9" cy="124.1" r=".4"/>
  <circle cx="51.6" cy="124.4" r="1.1" fill="#febf10" stroke="#000" stroke-linecap="round" stroke-linejoin="round" stroke-width=".3"/>
  <circle cx="51.6" cy="124.4" r=".4"/>
  <circle cx="49.2" cy="124.7" r="1.1" fill="#febf10" stroke="#000" stroke-linecap="round" stroke-linejoin="round" stroke-width=".3"/>
  <circle cx="49.2" cy="124.7" r=".4"/>
  <circle cx="47" cy="124.8" r="1.1" fill="#febf10" stroke="#000" stroke-linecap="round" stroke-linejoin="round" stroke-width=".3"/>
  <circle cx="47" cy="124.8" r=".4"/>
  <circle cx="44.8" cy="124.9" r="1.1" fill="#febf10" stroke="#000" stroke-linecap="round" stroke-linejoin="round" stroke-width=".3"/>
  <circle cx="44.8" cy="124.9" r=".4"/>
  <path d="M57.4 121.6c-17.7 3.8-37-.1-37-.1M8 7.9h62v124.31H8z" fill="none" stroke="#000" stroke-linecap="round" stroke-linejoin="round" stroke-width=".4"/>
</svg>
