<svg xmlns="http://www.w3.org/2000/svg" viewBox="0 0 78 140">
  <rect width="78" height="140" rx="6" ry="6" fill="#fff"/>
  <path d="M21.7 35v1.5a7.3 7.3 0 0 1-6.2 5.1c-.7.1-.3 1.7 1.1 2.2v1.4H32V44c2-.2 2.6-2.3 1.8-2.4a7.5 7.5 0 0 1-6.3-5.1V35h-1.7v1.5c.4 1.4.1 2-.3-.6h-1.8c-.3 2.6-.7 2-.3.6V35z" fill="#325723"/>
  <path d="M19.1 43.7a19 19 0 0 0 3.5.3m-2.4-1a4.3 4.3 0 0 0 1.6.1m8.4.6a17.5 17.5 0 0 1-3.5.3m2.3-1a2.6 2.6 0 0 1-1.5.1m-6.6-.9h.8m6.7.1h-.8" fill="none" stroke="#000" stroke-linecap="round" stroke-linejoin="round" stroke-width=".4"/>
  <path d="M21.7 35v1.5a7.3 7.3 0 0 1-6.2 5.1c-1 .1.1 3.1 3.1 2.3s4.3-5.4 4.8-7.4V35zm4.1 0v1.5c.6 2 1.9 6.6 4.9 7.4s4.1-2.2 3.1-2.3a7.5 7.5 0 0 1-6.3-5.1V35z" fill="#3c6d3d" stroke="#000" stroke-linecap="round" stroke-linejoin="round" stroke-width=".4"/>
  <path d="M21.7 35v1.5a7.3 7.3 0 0 1-6.2 5.1c-1 .1.1 3.1 3.1 2.3s4.3-5.4 4.8-7.4V35zm4.1 0v1.5c.6 2 1.9 6.6 4.9 7.4s4.1-2.2 3.1-2.3a7.5 7.5 0 0 1-6.3-5.1V35z" fill="#325723" stroke="#000" stroke-linecap="round" stroke-linejoin="round" stroke-width=".4"/>
  <path d="M23.6 35.1c-.4 3.3-2.4 5.3-2.1 7.8.2.9 1.3 1.5 3.1 1.5s3-.6 3.1-1.5c.4-2.5-1.6-4.5-2.1-7.8h-2z" fill="#325723" stroke="#000" stroke-linecap="round" stroke-linejoin="round" stroke-width=".4"/>
  <path d="M24.2 36.3c-.2 2.4-1.2 3.9-1.1 5.7a1.5 1.5 0 0 0 1.6 1.1 1.4 1.4 0 0 0 1.5-1.1c.2-1.8-.8-3.3-1-5.7h-1z" fill="#0d3a12" stroke="#000" stroke-linecap="round" stroke-linejoin="round" stroke-width=".4"/>
  <path d="M24.4 32.8a2.2 2.2 0 0 0-2.3 1.5c-.1.7.2 1.5 1 1.4s.4-.1.4.2a1.5 1.5 0 0 0 2.4-.2c.7.3 1.4-.4 1.3-1.2a2 2 0 0 0-1.9-1.7zm-2.1.2a3.3 3.3 0 0 0-3.1 1.7c-.2.5-.2 1.3.4 1.3s.7-.6 1-.3 1.2.5 1.3-.2a2.5 2.5 0 0 1 .7-2.2c.2-.2-.1-.3-.3-.3zm4.3.1c0 .3.4.5.6.9s0 1.2.3 1.8.9.1 1.2-.1.6.4 1.1.3.4-.9.2-1.4a3.3 3.3 0 0 0-3.3-1.5z" fill="red" stroke="#000" stroke-linecap="round" stroke-linejoin="round" stroke-width=".4"/>
  <path d="M15.7 21.3c-2.1.4-4.5 2.1-4.5 4.6s1.6 5.1 4.5 6.4a22.2 22.2 0 0 0 9 1.6 22.2 22.2 0 0 0 9-1.6c2.9-1.3 4.5-3.2 4.5-6.4s-2.4-4.2-4.5-4.6h-18z" fill="#febf10"/>
  <path d="M19.2 21.5s-3.3 9.1 6.9 12.4c0 .1-9.6.3-12.7-3s-2.4-6-.9-7.8 4.5-2.1 6.7-1.6z" fill="#d09b07"/>
  <path d="M15.7 21.3c-2.1.4-4.5 2.1-4.5 4.6s2 5.2 4.9 6.5a20.3 20.3 0 0 0 8.6 1.5 19.8 19.8 0 0 0 8.8-1.8c2.8-1.3 4.7-3 4.7-6.2s-2.4-4.2-4.5-4.6h-18z" fill="none" stroke="#000" stroke-linecap="round" stroke-linejoin="round" stroke-width=".4"/>
  <path d="M12.1 16.8l25.1-.2-1.7 5.3-10.8 1.5-10.8-1.6z" fill="#d09b07" stroke="#000" stroke-linecap="round" stroke-linejoin="round" stroke-width=".4"/>
  <path d="M16.1 20.7a2.5 2.5 0 0 1-1.9.1 2.6 2.6 0 0 1-1.1-1.5 2.5 2.5 0 0 1 1.9-.1 2.6 2.6 0 0 1 1.1 1.5z" fill="#febf10" stroke="#000" stroke-linecap="round" stroke-linejoin="round" stroke-width=".3"/>
  <path fill="none" stroke="#000" stroke-linecap="round" stroke-linejoin="round" stroke-width=".3" d="M16.1 20.7l-1.6-.8"/>
  <path d="M18.2 20.9a2.5 2.5 0 0 1-1.8.5 2.8 2.8 0 0 1-1.5-1.3 2.5 2.5 0 0 1 1.9-.4 2.4 2.4 0 0 1 1.4 1.2z" fill="#febf10" stroke="#000" stroke-linecap="round" stroke-linejoin="round" stroke-width=".3"/>
  <path fill="none" stroke="#000" stroke-linecap="round" stroke-linejoin="round" stroke-width=".3" d="M18.2 20.9l-1.8-.4"/>
  <path d="M20.2 21.2a3 3 0 0 1-1.9.6 2.5 2.5 0 0 1-1.4-1.3 2.5 2.5 0 0 1 1.8-.5 2.8 2.8 0 0 1 1.5 1.2z" fill="#febf10" stroke="#000" stroke-linecap="round" stroke-linejoin="round" stroke-width=".3"/>
  <path fill="none" stroke="#000" stroke-linecap="round" stroke-linejoin="round" stroke-width=".3" d="M20.2 21.2l-1.9-.4"/>
  <path d="M33.2 20.7a2.6 2.6 0 0 0 1.9.1 2.6 2.6 0 0 0 1.2-1.6 2.8 2.8 0 0 0-1.9 0 2.5 2.5 0 0 0-1.2 1.5z" fill="#febf10" stroke="#000" stroke-linecap="round" stroke-linejoin="round" stroke-width=".3"/>
  <path fill="none" stroke="#000" stroke-linecap="round" stroke-linejoin="round" stroke-width=".3" d="M33.2 20.7l1.7-.8"/>
  <path d="M31.1 20.9a2.8 2.8 0 0 0 1.9.5 2.8 2.8 0 0 0 1.4-1.3 2.5 2.5 0 0 0-1.8-.5 2.8 2.8 0 0 0-1.5 1.3z" fill="#febf10" stroke="#000" stroke-linecap="round" stroke-linejoin="round" stroke-width=".3"/>
  <path fill="none" stroke="#000" stroke-linecap="round" stroke-linejoin="round" stroke-width=".3" d="M31.1 20.9l1.9-.4"/>
  <path d="M22.4 21.5a2.9 2.9 0 0 1-1.8.6 2.8 2.8 0 0 1-1.6-1.2 3 3 0 0 1 1.9-.6 2.8 2.8 0 0 1 1.5 1.2z" fill="#febf10" stroke="#000" stroke-linecap="round" stroke-linejoin="round" stroke-width=".3"/>
  <path fill="none" stroke="#000" stroke-linecap="round" stroke-linejoin="round" stroke-width=".3" d="M22.4 21.5l-1.9-.3"/>
  <path d="M24.5 21.5a2.8 2.8 0 0 1-1.7.8 2.8 2.8 0 0 1-1.7-1 2.4 2.4 0 0 1 1.8-.8 2.8 2.8 0 0 1 1.6 1z" fill="#febf10" stroke="#000" stroke-linecap="round" stroke-linejoin="round" stroke-width=".3"/>
  <path fill="none" stroke="#000" stroke-linecap="round" stroke-linejoin="round" stroke-width=".3" d="M24.5 21.5l-1.9-.1"/>
  <path d="M29 21.3a2.5 2.5 0 0 0 1.8.5 2.4 2.4 0 0 0 1.5-1.2 2.5 2.5 0 0 0-1.8-.5 2.8 2.8 0 0 0-1.5 1.2z" fill="#febf10" stroke="#000" stroke-linecap="round" stroke-linejoin="round" stroke-width=".3"/>
  <path fill="none" stroke="#000" stroke-linecap="round" stroke-linejoin="round" stroke-width=".3" d="M29 21.3l1.8-.4"/>
  <path d="M26.7 21.5a2.6 2.6 0 0 0 1.9.5 2.4 2.4 0 0 0 1.5-1.1 2.4 2.4 0 0 0-1.8-.6 2.8 2.8 0 0 0-1.6 1.2z" fill="#febf10" stroke="#000" stroke-linecap="round" stroke-linejoin="round" stroke-width=".3"/>
  <path fill="none" stroke="#000" stroke-linecap="round" stroke-linejoin="round" stroke-width=".3" d="M26.7 21.5l1.9-.4"/>
  <path d="M24.6 21.5a2.5 2.5 0 0 0 1.8.7 2.4 2.4 0 0 0 1.6-1 2.5 2.5 0 0 0-1.8-.7 2.4 2.4 0 0 0-1.6 1z" fill="#febf10" stroke="#000" stroke-linecap="round" stroke-linejoin="round" stroke-width=".3"/>
  <path fill="none" stroke="#000" stroke-linecap="round" stroke-linejoin="round" stroke-width=".3" d="M24.6 21.5l1.9-.2"/>
  <path d="M26.2 23h-.3l-3.4-2.8a.4.4 0 0 1 0-.5.6.6 0 0 1 .6 0l3.4 2.8a.4.4 0 0 1 0 .5z" fill="#0065b7" stroke="#000" stroke-linecap="round" stroke-linejoin="round" stroke-width=".4"/>
  <path d="M22.9 23.1h-.2c-.2-.1-.2-.3 0-.5l3-2.5a.6.6 0 0 1 .6 0 .3.3 0 0 1 0 .5l-3 2.5c-.1 0-.2.1-.4 0z" fill="#0065b7" stroke="#000" stroke-linecap="round" stroke-linejoin="round" stroke-width=".4"/>
  <path d="M37.2 16.6c0 2.1-5.6 3.8-12.6 3.8s-12.5-1.7-12.5-3.8c0-2.2 5.6-3.9 12.5-3.9s12.6 1.7 12.6 3.9z" fill="red"/>
  <path d="M15.5 15.7s9.7 3.7 18-.1c.1.1.7-.2 1 .6s-1.8 2.3-7.6 2.4-9.5-.4-10.7-.9-2.4-1.1-.7-2z" fill="#980805"/>
  <path d="M37.2 16.6c0 2.1-5.6 3.8-12.6 3.8s-12.5-1.7-12.5-3.8c0-2.2 5.6-3.9 12.5-3.9s12.6 1.7 12.6 3.9z" fill="none" stroke="#000" stroke-linecap="round" stroke-linejoin="round" stroke-width=".4"/>
  <path d="M33.7 15.7c.5.2.8.5.8.8 0 1.2-4.4 2.1-9.9 2.1s-9.8-.9-9.8-2.1c0-.3.3-.5.7-.8m-3.7 9.5c-1.7 0-.8 9.1 12.9 8.7 13.7.4 14.5-8.7 12.8-8.7h-.1a1.3 1.3 0 0 0-.7.9.7.7 0 0 0-.8-.4c-.5.1-.7.6-.9 1.3a.9.9 0 0 0-1.1-.9c-.7.2-.8.8-1.1 1.5a1.2 1.2 0 0 0-1.2-1.2 1.7 1.7 0 0 0-1.7 1.2 1.5 1.5 0 0 0-1.4-1.1c-1.1 0-1.6.6-1.9 1.6a2 2 0 0 0-1.9-1.6c-1 0-1.6.7-1.9 1.7-.3-1-.8-1.7-1.9-1.7a1.4 1.4 0 0 0-1.4 1.1 1.7 1.7 0 0 0-1.7-1.2 1.2 1.2 0 0 0-1.3 1.2c-.2-.7-.4-1.3-1-1.5s-1 .3-1.1.9-.4-1.2-.9-1.3-.6.1-.8.4a1.3 1.3 0 0 0-.7-.9z" fill="none" stroke="#000" stroke-linecap="round" stroke-linejoin="round" stroke-width=".4"/>
  <path d="M12 25.2c-1.9-.6-1.4 9.1 12.7 8.7-14.8-1.3-10.5-8-12.7-8.7z" fill="#325723" stroke="#000" stroke-linecap="round" stroke-linejoin="round" stroke-width=".4"/>
  <path d="M13.5 25.7c-2.1-.6-1.3 8.2 11.2 8.2-12.7-1.1-9-7.6-11.2-8.2z" fill="#325723" stroke="#000" stroke-linecap="round" stroke-linejoin="round" stroke-width=".4"/>
  <path d="M15.5 26.1c-2.7-.6-1.2 7.8 9.2 7.8-10.1-2.3-7-7.2-9.2-7.8z" fill="#325723" stroke="#000" stroke-linecap="round" stroke-linejoin="round" stroke-width=".4"/>
  <path d="M17.8 26.4c-2.8 0-1.3 6.2 6.9 7.5-6.4-2.6-3.8-7.5-6.9-7.5z" fill="#325723" stroke="#000" stroke-linecap="round" stroke-linejoin="round" stroke-width=".4"/>
  <path d="M20.9 26.5c-2.8 0-1.7 5.9 3.8 7.4-2.2-2.6-.8-7.4-3.8-7.4zm16.5-1.3c1.9-.6 1.4 9.1-12.7 8.7 14.7-1.3 10.5-8 12.7-8.7z" fill="#325723" stroke="#000" stroke-linecap="round" stroke-linejoin="round" stroke-width=".4"/>
  <path d="M35.9 25.7c2.1-.6 1.3 8.2-11.2 8.2 12.7-1.1 9-7.6 11.2-8.2z" fill="#325723" stroke="#000" stroke-linecap="round" stroke-linejoin="round" stroke-width=".4"/>
  <path d="M33.9 26.1c2.6-.6 1.2 7.8-9.2 7.8 10.1-2.3 7-7.2 9.2-7.8z" fill="#325723" stroke="#000" stroke-linecap="round" stroke-linejoin="round" stroke-width=".4"/>
  <path d="M31.6 26.4c2.7 0 1.3 6.2-6.9 7.5 6.4-2.6 3.7-7.5 6.9-7.5z" fill="#325723" stroke="#000" stroke-linecap="round" stroke-linejoin="round" stroke-width=".4"/>
  <path d="M28.5 26.5c2.8 0 1.7 5.9-3.8 7.4 2.2-2.6.8-7.4 3.8-7.4z" fill="#325723" stroke="#000" stroke-linecap="round" stroke-linejoin="round" stroke-width=".4"/>
  <path d="M24.7 26.5c-2.8 0-2.5 4.9 0 7.4 2.5-2.5 2.8-7.4 0-7.4z" fill="#325723" stroke="#000" stroke-linecap="round" stroke-linejoin="round" stroke-width=".4"/>
  <path d="M25.4 49.9a72.1 72.1 0 0 1-12.3-1 2.2 2.2 0 0 1-1.6-2.5 2.1 2.1 0 0 1 2.5-1.6c2.1.5 13.1 1.9 21.2 0a2.2 2.2 0 0 1 2.5 1.6 2.2 2.2 0 0 1-1.6 2.5 47.4 47.4 0 0 1-10.7 1z" fill="#febf10"/>
  <path d="M37.7 46.2v.2a2.2 2.2 0 0 1-1.6 2.5 47.4 47.4 0 0 1-10.7 1 72.1 72.1 0 0 1-12.3-1 2.2 2.2 0 0 1-1.6-2.5c.1-.2 0-.1.1-.2l3.8.5 5.6.6h7.4l4.8-.3z" fill="#d09b07"/>
  <path d="M25.4 49.9a72.1 72.1 0 0 1-12.3-1 2.2 2.2 0 0 1-1.6-2.5 2.1 2.1 0 0 1 2.5-1.6c2.1.5 13.1 1.9 21.2 0a2.2 2.2 0 0 1 2.5 1.6 2.2 2.2 0 0 1-1.6 2.5 47.4 47.4 0 0 1-10.7 1z" fill="none" stroke="#000" stroke-linecap="round" stroke-linejoin="round" stroke-width=".4"/>
  <path d="M24.7 27.9c-1.7 0-1.5 3.9 0 5.8 1.6-1.9 1.7-5.8 0-5.8z" fill="#0d3a12" stroke="#000" stroke-linecap="round" stroke-linejoin="round" stroke-width=".4"/>
  <path d="M13.6 20.9a.8.8 0 0 0-.7.5c-.1.3.1.6.5.7a39.7 39.7 0 0 0 11.1 1.5h.4A39.7 39.7 0 0 0 36 22.1a.8.8 0 0 0 .5-.7.8.8 0 0 0-.8-.5h-.3a36.3 36.3 0 0 1-10.7 1.5 36.5 36.5 0 0 1-10.8-1.5z" fill="#febf10" stroke="#000" stroke-linecap="round" stroke-linejoin="round" stroke-width=".4"/>
  <path d="M14.1 43.7a.5.5 0 0 0-.7.5.7.7 0 0 0 .6.7 66.8 66.8 0 0 0 10.7.8 66.8 66.8 0 0 0 10.7-.8.7.7 0 0 0 .6-.7.5.5 0 0 0-.7-.5h-.1a77.6 77.6 0 0 1-10.5.8 77.6 77.6 0 0 1-10.5-.8z" fill="#d09b07" stroke="#000" stroke-linecap="round" stroke-linejoin="round" stroke-width=".4"/>
  <path d="M25.7 49.4a88.3 88.3 0 0 1-13.5-1 .5.5 0 0 1-.3-.4c0-.2.2-.4.4-.3 2.6.5 15.1 2 24.5.1a.3.3 0 0 1 .4.2.5.5 0 0 1-.3.5 59.1 59.1 0 0 1-11.2.9z" fill="#febf10"/>
  <circle cx="12.6" cy="47.7" r=".8" fill="#febf10" stroke="#000" stroke-linecap="round" stroke-linejoin="round" stroke-width=".3"/>
  <circle cx="12.6" cy="47.7" r=".2"/>
  <path d="M25.7 50.2a88.3 88.3 0 0 1-13.5-1c-.2-.1-.3-.2-.3-.4s.2-.3.4-.3c2.6.5 15.2 2 24.6.1.2-.1.4.1.4.3s0 .3-.2.4a61.2 61.2 0 0 1-11.4.9z" fill="#febf10" stroke="#000" stroke-linecap="round" stroke-linejoin="round" stroke-width=".4"/>
  <circle cx="14.2" cy="47.9" r=".8" fill="#febf10" stroke="#000" stroke-linecap="round" stroke-linejoin="round" stroke-width=".3"/>
  <circle cx="14.2" cy="47.9" r=".2"/>
  <circle cx="15.8" cy="48.1" r=".8" fill="#febf10" stroke="#000" stroke-linecap="round" stroke-linejoin="round" stroke-width=".3"/>
  <circle cx="15.8" cy="48.1" r=".2"/>
  <circle cx="17.4" cy="48.2" r=".8" fill="#febf10" stroke="#000" stroke-linecap="round" stroke-linejoin="round" stroke-width=".3"/>
  <circle cx="17.4" cy="48.2" r=".2"/>
  <circle cx="19" cy="48.4" r=".8" fill="#febf10" stroke="#000" stroke-linecap="round" stroke-linejoin="round" stroke-width=".3"/>
  <circle cx="19" cy="48.4" r=".2"/>
  <circle cx="20.6" cy="48.5" r=".8" fill="#febf10" stroke="#000" stroke-linecap="round" stroke-linejoin="round" stroke-width=".3"/>
  <circle cx="20.6" cy="48.5" r=".2"/>
  <circle cx="22.2" cy="48.6" r=".8" fill="#febf10" stroke="#000" stroke-linecap="round" stroke-linejoin="round" stroke-width=".3"/>
  <circle cx="22.2" cy="48.6" r=".2"/>
  <circle cx="23.9" cy="48.6" r=".8" fill="#febf10" stroke="#000" stroke-linecap="round" stroke-linejoin="round" stroke-width=".3"/>
  <circle cx="23.9" cy="48.6" r=".2"/>
  <circle cx="25.5" cy="48.6" r=".8" fill="#febf10" stroke="#000" stroke-linecap="round" stroke-linejoin="round" stroke-width=".3"/>
  <circle cx="25.5" cy="48.6" r=".2"/>
  <circle cx="27.1" cy="48.6" r=".8" fill="#febf10" stroke="#000" stroke-linecap="round" stroke-linejoin="round" stroke-width=".3"/>
  <circle cx="27.1" cy="48.6" r=".2"/>
  <circle cx="36.5" cy="47.8" r=".8" fill="#febf10" stroke="#000" stroke-linecap="round" stroke-linejoin="round" stroke-width=".3"/>
  <circle cx="36.5" cy="47.8" r=".2"/>
  <circle cx="35" cy="48" r=".8" fill="#febf10" stroke="#000" stroke-linecap="round" stroke-linejoin="round" stroke-width=".3"/>
  <circle cx="35" cy="48" r=".2"/>
  <circle cx="33.4" cy="48.2" r=".8" fill="#febf10" stroke="#000" stroke-linecap="round" stroke-linejoin="round" stroke-width=".3"/>
  <circle cx="33.4" cy="48.2" r=".2"/>
  <circle cx="31.7" cy="48.4" r=".8" fill="#febf10" stroke="#000" stroke-linecap="round" stroke-linejoin="round" stroke-width=".3"/>
  <circle cx="31.7" cy="48.4" r=".2"/>
  <circle cx="30.2" cy="48.5" r=".8" fill="#febf10" stroke="#000" stroke-linecap="round" stroke-linejoin="round" stroke-width=".3"/>
  <circle cx="30.2" cy="48.5" r=".2"/>
  <circle cx="28.7" cy="48.6" r=".8" fill="#febf10" stroke="#000" stroke-linecap="round" stroke-linejoin="round" stroke-width=".3"/>
  <circle cx="28.7" cy="48.6" r=".2"/>
  <path d="M37.4 46.3c-12.3 2.6-25.7-.1-25.7-.1" fill="none" stroke="#000" stroke-linecap="round" stroke-linejoin="round" stroke-width=".4"/>
  <path d="M21.7 112.2v1.6c-1 3.6-4.5 4.8-6.2 5s-.3 1.7 1.1 2.3v1.3H32v-1.2c2-.2 2.6-2.3 1.8-2.4a7.5 7.5 0 0 1-6.3-5v-1.6h-1.7v1.6c.4 1.3.1 1.9-.3-.7h-1.8c-.3 2.6-.7 2-.3.7v-1.6z" fill="#325723"/>
  <path d="M19.1 121l3.5.2m-2.4-1l1.6.2m8.4.6l-3.5.2m2.3-.9h-1.5m-6.6-.9h.8m6.7.1h-.8" fill="none" stroke="#000" stroke-linecap="round" stroke-linejoin="round" stroke-width=".4"/>
  <path d="M21.7 112.2v1.6c-1 3.6-4.5 4.8-6.2 5s.1 3.1 3.1 2.3 4.3-5.4 4.8-7.3v-1.6zm4.1 0v1.6c.6 1.9 1.9 6.5 4.9 7.3s4.1-2.2 3.1-2.3a7.5 7.5 0 0 1-6.3-5v-1.6z" fill="#3c6d3d" stroke="#000" stroke-linecap="round" stroke-linejoin="round" stroke-width=".4"/>
  <path d="M21.7 112.2v1.6c-1 3.6-4.5 4.8-6.2 5s.1 3.1 3.1 2.3 4.3-5.4 4.8-7.3v-1.6zm4.1 0v1.6c.6 1.9 1.9 6.5 4.9 7.3s4.1-2.2 3.1-2.3a7.5 7.5 0 0 1-6.3-5v-1.6z" fill="#325723" stroke="#000" stroke-linecap="round" stroke-linejoin="round" stroke-width=".4"/>
  <path d="M23.6 112.3c-.4 3.3-2.4 5.3-2.1 7.8.2.9 1.3 1.5 3.1 1.5s3-.6 3.1-1.5c.4-2.5-1.6-4.5-2.1-7.8h-2z" fill="#325723" stroke="#000" stroke-linecap="round" stroke-linejoin="round" stroke-width=".4"/>
  <path d="M24.2 113.5c-.2 2.4-1.2 3.9-1.1 5.7s.7 1.1 1.6 1.1a1.4 1.4 0 0 0 1.5-1.1c.2-1.8-.8-3.3-1-5.7h-1z" fill="#0d3a12" stroke="#000" stroke-linecap="round" stroke-linejoin="round" stroke-width=".4"/>
  <path d="M24.4 110a2.3 2.3 0 0 0-2.3 1.5c-.1.7.2 1.5 1 1.5s.4-.1.4.1a1.5 1.5 0 0 0 2.4-.2c.7.3 1.4-.4 1.3-1.2a2 2 0 0 0-1.9-1.7zm-2.1.3a3 3 0 0 0-3.1 1.6c-.2.5-.2 1.3.4 1.3s.7-.6 1-.3 1.2.5 1.3-.2 0-1.7.7-2.1-.1-.4-.3-.3zm4.3 0c0 .4.4.6.6.9s0 1.2.3 1.8.9.2 1.2-.1.6.5 1.1.3.4-.9.2-1.4a3.3 3.3 0 0 0-3.3-1.5z" fill="red" stroke="#000" stroke-linecap="round" stroke-linejoin="round" stroke-width=".4"/>
  <path d="M15.7 98.6c-2.1.3-4.5 2-4.5 4.5s1.6 5.1 4.5 6.4a22.2 22.2 0 0 0 9 1.6 22.2 22.2 0 0 0 9-1.6c2.9-1.3 4.5-3.2 4.5-6.4s-2.4-4.2-4.5-4.5h-18z" fill="#febf10"/>
  <path d="M19.2 98.7s-3.3 9.1 6.9 12.5c0 0-9.6.2-12.7-3.1s-2.4-6-.9-7.8 4.5-2.1 6.7-1.6z" fill="#d09b07"/>
  <path d="M15.7 98.6c-2.1.3-4.5 2-4.5 4.5s2 5.2 4.9 6.5a20.3 20.3 0 0 0 8.6 1.5 21.3 21.3 0 0 0 8.8-1.7c2.8-1.4 4.7-3.1 4.7-6.3s-2.4-4.2-4.5-4.5h-18z" fill="none" stroke="#000" stroke-linecap="round" stroke-linejoin="round" stroke-width=".4"/>
  <path d="M12.1 94l25.1-.2-1.7 5.3-10.8 1.5L13.9 99z" fill="#d09b07" stroke="#000" stroke-linecap="round" stroke-linejoin="round" stroke-width=".4"/>
  <path d="M16.1 97.9a2.5 2.5 0 0 1-1.9.1 2.6 2.6 0 0 1-1.1-1.5 2.5 2.5 0 0 1 1.9-.1 2.6 2.6 0 0 1 1.1 1.5z" fill="#febf10" stroke="#000" stroke-linecap="round" stroke-linejoin="round" stroke-width=".3"/>
  <path fill="none" stroke="#000" stroke-linecap="round" stroke-linejoin="round" stroke-width=".3" d="M16.1 97.9l-1.6-.8"/>
  <path d="M18.2 98.1a2.5 2.5 0 0 1-1.8.5 2.8 2.8 0 0 1-1.5-1.2 2.8 2.8 0 0 1 1.9-.5 2.4 2.4 0 0 1 1.4 1.2z" fill="#febf10" stroke="#000" stroke-linecap="round" stroke-linejoin="round" stroke-width=".3"/>
  <path fill="none" stroke="#000" stroke-linecap="round" stroke-linejoin="round" stroke-width=".3" d="M18.2 98.1l-1.8-.4"/>
  <path d="M20.2 98.4a2.5 2.5 0 0 1-1.9.6 2.5 2.5 0 0 1-1.4-1.3 2.5 2.5 0 0 1 1.8-.5 2.8 2.8 0 0 1 1.5 1.2z" fill="#febf10" stroke="#000" stroke-linecap="round" stroke-linejoin="round" stroke-width=".3"/>
  <path fill="none" stroke="#000" stroke-linecap="round" stroke-linejoin="round" stroke-width=".3" d="M20.2 98.4l-1.9-.3"/>
  <path d="M33.2 97.9a2.6 2.6 0 0 0 1.9.1 2.5 2.5 0 0 0 1.2-1.5 2.6 2.6 0 0 0-1.9-.1 2.5 2.5 0 0 0-1.2 1.5z" fill="#febf10" stroke="#000" stroke-linecap="round" stroke-linejoin="round" stroke-width=".3"/>
  <path fill="none" stroke="#000" stroke-linecap="round" stroke-linejoin="round" stroke-width=".3" d="M33.2 97.9l1.7-.8"/>
  <path d="M31.1 98.1a2.8 2.8 0 0 0 1.9.5 2.5 2.5 0 0 0 1.4-1.3 2.5 2.5 0 0 0-1.8-.5 3.3 3.3 0 0 0-1.5 1.3z" fill="#febf10" stroke="#000" stroke-linecap="round" stroke-linejoin="round" stroke-width=".3"/>
  <path fill="none" stroke="#000" stroke-linecap="round" stroke-linejoin="round" stroke-width=".3" d="M31.1 98.1l1.9-.4"/>
  <path d="M22.4 98.7a2.4 2.4 0 0 1-1.8.6 2.8 2.8 0 0 1-1.6-1.2 3 3 0 0 1 1.9-.6 2.8 2.8 0 0 1 1.5 1.2z" fill="#febf10" stroke="#000" stroke-linecap="round" stroke-linejoin="round" stroke-width=".3"/>
  <path fill="none" stroke="#000" stroke-linecap="round" stroke-linejoin="round" stroke-width=".3" d="M22.4 98.7l-1.9-.3"/>
  <path d="M24.5 98.7a2.8 2.8 0 0 1-1.7.8 2.8 2.8 0 0 1-1.7-1 2.9 2.9 0 0 1 1.8-.8 2.8 2.8 0 0 1 1.6 1z" fill="#febf10" stroke="#000" stroke-linecap="round" stroke-linejoin="round" stroke-width=".3"/>
  <path fill="none" stroke="#000" stroke-linecap="round" stroke-linejoin="round" stroke-width=".3" d="M24.5 98.7l-1.9-.1"/>
  <path d="M29 98.5a2.5 2.5 0 0 0 1.8.5 2.4 2.4 0 0 0 1.5-1.2 2.5 2.5 0 0 0-1.8-.5 2.8 2.8 0 0 0-1.5 1.2z" fill="#febf10" stroke="#000" stroke-linecap="round" stroke-linejoin="round" stroke-width=".3"/>
  <path fill="none" stroke="#000" stroke-linecap="round" stroke-linejoin="round" stroke-width=".3" d="M29 98.5l1.8-.4"/>
  <path d="M26.7 98.7a3 3 0 0 0 1.9.6 2.8 2.8 0 0 0 1.5-1.2 2.4 2.4 0 0 0-1.8-.6 2.8 2.8 0 0 0-1.6 1.2z" fill="#febf10" stroke="#000" stroke-linecap="round" stroke-linejoin="round" stroke-width=".3"/>
  <path fill="none" stroke="#000" stroke-linecap="round" stroke-linejoin="round" stroke-width=".3" d="M26.7 98.7l1.9-.3"/>
  <path d="M24.6 98.7a2.9 2.9 0 0 0 1.8.8 2.8 2.8 0 0 0 1.6-1 2.4 2.4 0 0 0-1.8-.8 2.4 2.4 0 0 0-1.6 1z" fill="#febf10" stroke="#000" stroke-linecap="round" stroke-linejoin="round" stroke-width=".3"/>
  <path fill="none" stroke="#000" stroke-linecap="round" stroke-linejoin="round" stroke-width=".3" d="M24.6 98.7l1.9-.1"/>
  <path d="M26.2 100.2h-.3l-3.4-2.7a.6.6 0 0 1 0-.6h.6l3.4 2.8a.5.5 0 0 1 0 .5z" fill="#0065b7" stroke="#000" stroke-linecap="round" stroke-linejoin="round" stroke-width=".4"/>
  <path d="M22.9 100.4c0-.1-.1-.1-.2-.1a.4.4 0 0 1 0-.6l3-2.5a.6.6 0 0 1 .6 0c.2.2.2.4 0 .5l-3 2.6z" fill="#0065b7" stroke="#000" stroke-linecap="round" stroke-linejoin="round" stroke-width=".4"/>
  <path d="M37.2 93.8c0 2.1-5.6 3.8-12.6 3.8s-12.5-1.7-12.5-3.8c0-2.1 5.6-3.9 12.5-3.9s12.6 1.8 12.6 3.9z" fill="red"/>
  <path d="M15.5 92.9s9.7 3.7 18-.1c.1.1.7-.2 1 .6s-1.8 2.3-7.6 2.4-9.5-.4-10.7-.9-2.4-1.1-.7-2z" fill="#980805"/>
  <path d="M37.2 93.8c0 2.1-5.6 3.8-12.6 3.8s-12.5-1.7-12.5-3.8c0-2.1 5.6-3.9 12.5-3.9s12.6 1.8 12.6 3.9z" fill="none" stroke="#000" stroke-linecap="round" stroke-linejoin="round" stroke-width=".4"/>
  <path d="M33.7 92.9c.5.3.8.5.8.8 0 1.2-4.4 2.1-9.9 2.1s-9.8-.9-9.8-2.1c0-.3.3-.5.7-.8m-3.7 9.5c-1.7.1-.8 9.1 12.9 8.7 13.7.4 14.5-8.6 12.8-8.7h-.1c-.4.1-.6.4-.7.9s-.5-.6-.8-.5-.7.6-.9 1.3-.5-1-1.1-.8-.8.7-1.1 1.4a1.2 1.2 0 0 0-1.2-1.2 1.7 1.7 0 0 0-1.7 1.2 1.5 1.5 0 0 0-1.4-1.1 1.9 1.9 0 0 0-1.9 1.6 2 2 0 0 0-1.9-1.6c-1 0-1.6.7-1.9 1.7-.3-1-.8-1.7-1.9-1.7a1.4 1.4 0 0 0-1.4 1.1 1.7 1.7 0 0 0-1.7-1.2 1.2 1.2 0 0 0-1.3 1.2c-.2-.7-.4-1.3-1-1.4s-1 .2-1.1.8-.4-1.1-.9-1.3-.6.1-.8.5-.3-.8-.7-.9z" fill="none" stroke="#000" stroke-linecap="round" stroke-linejoin="round" stroke-width=".4"/>
  <path d="M12 102.5c-1.9-.6-1.4 9.1 12.7 8.6-14.8-1.2-10.5-8-12.7-8.6z" fill="#325723" stroke="#000" stroke-linecap="round" stroke-linejoin="round" stroke-width=".4"/>
  <path d="M13.5 102.9c-2.1-.6-1.3 8.3 11.2 8.2-12.7-1.1-9-7.6-11.2-8.2z" fill="#325723" stroke="#000" stroke-linecap="round" stroke-linejoin="round" stroke-width=".4"/>
  <path d="M15.5 103.4c-2.7-.7-1.2 7.8 9.2 7.7-10.1-2.3-7-7.2-9.2-7.7z" fill="#325723" stroke="#000" stroke-linecap="round" stroke-linejoin="round" stroke-width=".4"/>
  <path d="M17.8 103.6c-2.8 0-1.3 6.2 6.9 7.5-6.4-2.6-3.8-7.5-6.9-7.5z" fill="#325723" stroke="#000" stroke-linecap="round" stroke-linejoin="round" stroke-width=".4"/>
  <path d="M20.9 103.7c-2.8 0-1.7 5.9 3.8 7.4-2.2-2.5-.8-7.4-3.8-7.4zm16.5-1.2c1.9-.6 1.4 9.1-12.7 8.6 14.7-1.2 10.5-8 12.7-8.6z" fill="#325723" stroke="#000" stroke-linecap="round" stroke-linejoin="round" stroke-width=".4"/>
  <path d="M35.9 102.9c2.1-.6 1.3 8.3-11.2 8.2 12.7-1.1 9-7.6 11.2-8.2z" fill="#325723" stroke="#000" stroke-linecap="round" stroke-linejoin="round" stroke-width=".4"/>
  <path d="M33.9 103.4c2.6-.7 1.2 7.8-9.2 7.7 10.1-2.3 7-7.2 9.2-7.7z" fill="#325723" stroke="#000" stroke-linecap="round" stroke-linejoin="round" stroke-width=".4"/>
  <path d="M31.6 103.6c2.7 0 1.3 6.2-6.9 7.5 6.4-2.6 3.7-7.5 6.9-7.5z" fill="#325723" stroke="#000" stroke-linecap="round" stroke-linejoin="round" stroke-width=".4"/>
  <path d="M28.5 103.7c2.8 0 1.7 5.9-3.8 7.4 2.2-2.5.8-7.4 3.8-7.4z" fill="#325723" stroke="#000" stroke-linecap="round" stroke-linejoin="round" stroke-width=".4"/>
  <path d="M24.7 103.7c-2.8 0-2.5 4.9 0 7.4 2.5-2.5 2.8-7.4 0-7.4z" fill="#325723" stroke="#000" stroke-linecap="round" stroke-linejoin="round" stroke-width=".4"/>
  <path d="M25.4 127.1a72.1 72.1 0 0 1-12.3-1 2.1 2.1 0 0 1 .9-4.1c2.1.5 13.1 1.9 21.2.1a2.1 2.1 0 0 1 2.5 1.5 2.1 2.1 0 0 1-1.6 2.5 47.4 47.4 0 0 1-10.7 1z" fill="#febf10"/>
  <path d="M37.7 123.4v.2a2.1 2.1 0 0 1-1.6 2.5 47.4 47.4 0 0 1-10.7 1 72.1 72.1 0 0 1-12.3-1 2.2 2.2 0 0 1-1.6-2.5v-.2l3.8.6 5.6.5h7.4l4.8-.3z" fill="#d09b07"/>
  <path d="M25.4 127.1a72.1 72.1 0 0 1-12.3-1 2.1 2.1 0 0 1 .9-4.1c2.1.5 13.1 1.9 21.2.1a2.1 2.1 0 0 1 2.5 1.5 2.1 2.1 0 0 1-1.6 2.5 47.4 47.4 0 0 1-10.7 1z" fill="none" stroke="#000" stroke-linecap="round" stroke-linejoin="round" stroke-width=".4"/>
  <path d="M24.7 105.1c-1.7 0-1.5 3.9 0 5.9 1.6-2 1.7-5.9 0-5.9z" fill="#0d3a12" stroke="#000" stroke-linecap="round" stroke-linejoin="round" stroke-width=".4"/>
  <path d="M13.6 98.1a.8.8 0 0 0-.7.5c-.1.3.1.6.5.7a39.7 39.7 0 0 0 11.1 1.5h.4A39.7 39.7 0 0 0 36 99.3a.8.8 0 0 0 .5-.7.8.8 0 0 0-.8-.5h-.3a40.3 40.3 0 0 1-10.7 1.4 40.5 40.5 0 0 1-10.8-1.4z" fill="#febf10" stroke="#000" stroke-linecap="round" stroke-linejoin="round" stroke-width=".4"/>
  <path d="M14.1 120.9c-.4 0-.7.2-.7.5s.2.7.6.7a79.4 79.4 0 0 0 10.7.9 79.4 79.4 0 0 0 10.7-.9c.4 0 .6-.3.6-.7s-.3-.5-.7-.5h-.1a64.1 64.1 0 0 1-10.5.8 64.1 64.1 0 0 1-10.5-.8z" fill="#d09b07" stroke="#000" stroke-linecap="round" stroke-linejoin="round" stroke-width=".4"/>
  <path d="M25.7 126.6a88.3 88.3 0 0 1-13.5-1c-.2-.1-.3-.2-.3-.4s.2-.3.4-.3c2.6.6 15.1 2 24.5.1.2 0 .4.1.4.3s-.1.3-.3.4a59.1 59.1 0 0 1-11.2.9z" fill="#febf10"/>
  <circle cx="12.6" cy="124.9" r=".8" fill="#febf10" stroke="#000" stroke-linecap="round" stroke-linejoin="round" stroke-width=".3"/>
  <circle cx="12.6" cy="124.9" r=".2"/>
  <path d="M25.7 127.4a88.3 88.3 0 0 1-13.5-1c-.2 0-.3-.2-.3-.4s.2-.3.4-.3c2.6.6 15.2 2 24.6.1.2 0 .4.1.4.3s0 .3-.2.4a61.2 61.2 0 0 1-11.4.9z" fill="#febf10" stroke="#000" stroke-linecap="round" stroke-linejoin="round" stroke-width=".4"/>
  <circle cx="14.2" cy="125.1" r=".8" fill="#febf10" stroke="#000" stroke-linecap="round" stroke-linejoin="round" stroke-width=".3"/>
  <circle cx="14.2" cy="125.1" r=".2"/>
  <circle cx="15.8" cy="125.3" r=".8" fill="#febf10" stroke="#000" stroke-linecap="round" stroke-linejoin="round" stroke-width=".3"/>
  <circle cx="15.8" cy="125.3" r=".2"/>
  <circle cx="17.4" cy="125.5" r=".8" fill="#febf10" stroke="#000" stroke-linecap="round" stroke-linejoin="round" stroke-width=".3"/>
  <circle cx="17.4" cy="125.5" r=".2"/>
  <circle cx="19" cy="125.6" r=".8" fill="#febf10" stroke="#000" stroke-linecap="round" stroke-linejoin="round" stroke-width=".3"/>
  <circle cx="19" cy="125.6" r=".2"/>
  <circle cx="20.6" cy="125.7" r=".8" fill="#febf10" stroke="#000" stroke-linecap="round" stroke-linejoin="round" stroke-width=".3"/>
  <circle cx="20.6" cy="125.7" r=".2"/>
  <circle cx="22.2" cy="125.8" r=".8" fill="#febf10" stroke="#000" stroke-linecap="round" stroke-linejoin="round" stroke-width=".3"/>
  <circle cx="22.2" cy="125.8" r=".2"/>
  <circle cx="23.9" cy="125.8" r=".8" fill="#febf10" stroke="#000" stroke-linecap="round" stroke-linejoin="round" stroke-width=".3"/>
  <circle cx="23.9" cy="125.8" r=".2"/>
  <circle cx="25.5" cy="125.9" r=".8" fill="#febf10" stroke="#000" stroke-linecap="round" stroke-linejoin="round" stroke-width=".3"/>
  <circle cx="25.5" cy="125.9" r=".2"/>
  <circle cx="27.1" cy="125.8" r=".8" fill="#febf10" stroke="#000" stroke-linecap="round" stroke-linejoin="round" stroke-width=".3"/>
  <circle cx="27.1" cy="125.8" r=".2"/>
  <circle cx="36.5" cy="125" r=".8" fill="#febf10" stroke="#000" stroke-linecap="round" stroke-linejoin="round" stroke-width=".3"/>
  <circle cx="36.5" cy="125" r=".2"/>
  <circle cx="35" cy="125.2" r=".8" fill="#febf10" stroke="#000" stroke-linecap="round" stroke-linejoin="round" stroke-width=".3"/>
  <circle cx="35" cy="125.2" r=".2"/>
  <circle cx="33.4" cy="125.4" r=".8" fill="#febf10" stroke="#000" stroke-linecap="round" stroke-linejoin="round" stroke-width=".3"/>
  <circle cx="33.4" cy="125.4" r=".2"/>
  <circle cx="31.7" cy="125.6" r=".8" fill="#febf10" stroke="#000" stroke-linecap="round" stroke-linejoin="round" stroke-width=".3"/>
  <circle cx="31.7" cy="125.6" r=".2"/>
  <circle cx="30.2" cy="125.7" r=".8" fill="#febf10" stroke="#000" stroke-linecap="round" stroke-linejoin="round" stroke-width=".3"/>
  <circle cx="30.2" cy="125.7" r=".2"/>
  <circle cx="28.7" cy="125.8" r=".8" fill="#febf10" stroke="#000" stroke-linecap="round" stroke-linejoin="round" stroke-width=".3"/>
  <circle cx="28.7" cy="125.8" r=".2"/>
  <path d="M37.4 123.5c-12.3 2.6-25.7-.1-25.7-.1" fill="none" stroke="#000" stroke-linecap="round" stroke-linejoin="round" stroke-width=".4"/>
  <path d="M50.8 73.5v1.6a7.5 7.5 0 0 1-6.3 5c-.7.1-.3 1.7 1.1 2.3v1.3H61v-1.2c2-.2 2.6-2.3 1.8-2.4s-5.2-1.4-6.2-5v-1.6h-1.7v1.6c.4 1.3 0 1.9-.3-.7h-1.8c-.4 2.6-.7 2-.3.7v-1.6z" fill="#325723"/>
  <path d="M48.2 82.3l3.4.2m-2.4-1l1.7.2m8.3.6l-3.4.2m2.3-.9h-1.6m-6.5-.9h.7m6.7.1h-.8" fill="none" stroke="#000" stroke-linecap="round" stroke-linejoin="round" stroke-width=".4"/>
  <path d="M50.8 73.5v1.6a7.5 7.5 0 0 1-6.3 5c-.9.1.2 3.1 3.1 2.3s4.3-5.4 4.9-7.3v-1.6zm4.1 0v1.6c.5 1.9 1.9 6.5 4.8 7.3s4.1-2.2 3.1-2.3-5.2-1.4-6.2-5v-1.6z" fill="#3c6d3d" stroke="#000" stroke-linecap="round" stroke-linejoin="round" stroke-width=".4"/>
  <path d="M50.8 73.5v1.6a7.5 7.5 0 0 1-6.3 5c-.9.1.2 3.1 3.1 2.3s4.3-5.4 4.9-7.3v-1.6zm4.1 0v1.6c.5 1.9 1.9 6.5 4.8 7.3s4.1-2.2 3.1-2.3-5.2-1.4-6.2-5v-1.6z" fill="#325723" stroke="#000" stroke-linecap="round" stroke-linejoin="round" stroke-width=".4"/>
  <path d="M52.7 73.6c-.5 3.3-2.5 5.3-2.1 7.8.1.9 1.3 1.5 3.1 1.5s2.9-.6 3.1-1.5c.4-2.5-1.7-4.5-2.1-7.8h-2z" fill="#325723" stroke="#000" stroke-linecap="round" stroke-linejoin="round" stroke-width=".4"/>
  <path d="M53.2 74.8c-.2 2.4-1.2 3.9-1 5.7s.6 1.1 1.5 1.1 1.5-.4 1.5-1.1-.8-3.3-1-5.7h-1z" fill="#0d3a12" stroke="#000" stroke-linecap="round" stroke-linejoin="round" stroke-width=".4"/>
  <path d="M53.4 71.3a2.2 2.2 0 0 0-2.2 1.5 1.1 1.1 0 0 0 .9 1.5c.3-.1.4-.1.5.2a1.4 1.4 0 0 0 2.3-.3c.7.3 1.4-.4 1.3-1.2a2 2 0 0 0-1.9-1.7zm-2.1.3a3.3 3.3 0 0 0-3.1 1.6c-.2.5-.2 1.3.4 1.3s.7-.6 1-.3 1.3.5 1.3-.2a2.7 2.7 0 0 1 .7-2.1c.2-.3-.1-.4-.3-.3zm4.4 0c-.1.4.4.6.5.9s.1 1.2.3 1.8.9.2 1.3-.1.6.5 1 .3.5-.9.3-1.4a3.4 3.4 0 0 0-3.4-1.5z" fill="red" stroke="#000" stroke-linecap="round" stroke-linejoin="round" stroke-width=".4"/>
  <path d="M44.7 59.9c-2.1.3-4.5 2-4.5 4.6s1.6 5 4.5 6.3a22.2 22.2 0 0 0 9 1.6 23 23 0 0 0 9.1-1.6c2.8-1.3 4.4-3.2 4.4-6.3s-2.4-4.3-4.5-4.6h-18z" fill="#febf10"/>
  <path d="M48.2 60s-3.3 9.1 7 12.5c0 0-9.6.3-12.7-3.1s-2.5-6-1-7.8 4.5-2.1 6.7-1.6z" fill="#d09b07"/>
  <path d="M44.7 59.9c-2.1.3-4.5 2-4.5 4.6s2.1 5.1 4.9 6.4 5.5 1.5 8.6 1.5a21.3 21.3 0 0 0 8.8-1.7c2.9-1.4 4.7-3.1 4.7-6.2s-2.4-4.3-4.5-4.6h-18z" fill="none" stroke="#000" stroke-linecap="round" stroke-linejoin="round" stroke-width=".4"/>
  <path d="M41.1 55.3l25.1-.2-1.7 5.3-10.8 1.5-10.8-1.6z" fill="#d09b07" stroke="#000" stroke-linecap="round" stroke-linejoin="round" stroke-width=".4"/>
  <path d="M45.2 59.2a2.6 2.6 0 0 1-1.9.1 2.5 2.5 0 0 1-1.2-1.5 2.6 2.6 0 0 1 1.9-.1 2.5 2.5 0 0 1 1.2 1.5z" fill="#febf10" stroke="#000" stroke-linecap="round" stroke-linejoin="round" stroke-width=".3"/>
  <path fill="none" stroke="#000" stroke-linecap="round" stroke-linejoin="round" stroke-width=".3" d="M45.2 59.2l-1.7-.8"/>
  <path d="M47.3 59.4a2.8 2.8 0 0 1-1.9.5 2.4 2.4 0 0 1-1.4-1.2 2.5 2.5 0 0 1 1.8-.5 2.8 2.8 0 0 1 1.5 1.2z" fill="#febf10" stroke="#000" stroke-linecap="round" stroke-linejoin="round" stroke-width=".3"/>
  <path fill="none" stroke="#000" stroke-linecap="round" stroke-linejoin="round" stroke-width=".3" d="M47.3 59.4l-1.9-.4"/>
  <path d="M49.2 59.8a2.5 2.5 0 0 1-1.8.5 2.8 2.8 0 0 1-1.5-1.2 2.4 2.4 0 0 1 1.8-.6 2.4 2.4 0 0 1 1.5 1.3z" fill="#febf10" stroke="#000" stroke-linecap="round" stroke-linejoin="round" stroke-width=".3"/>
  <path fill="none" stroke="#000" stroke-linecap="round" stroke-linejoin="round" stroke-width=".3" d="M49.2 59.8l-1.8-.4"/>
  <path d="M62.3 59.2a2.5 2.5 0 0 0 1.9.1 2.6 2.6 0 0 0 1.1-1.5 2.5 2.5 0 0 0-1.9-.1 2.6 2.6 0 0 0-1.1 1.5z" fill="#febf10" stroke="#000" stroke-linecap="round" stroke-linejoin="round" stroke-width=".3"/>
  <path fill="none" stroke="#000" stroke-linecap="round" stroke-linejoin="round" stroke-width=".3" d="M62.3 59.2l1.6-.8"/>
  <path d="M60.2 59.4a2.5 2.5 0 0 0 1.8.5 2.8 2.8 0 0 0 1.5-1.3 2.5 2.5 0 0 0-1.9-.4 2.4 2.4 0 0 0-1.4 1.2z" fill="#febf10" stroke="#000" stroke-linecap="round" stroke-linejoin="round" stroke-width=".3"/>
  <path fill="none" stroke="#000" stroke-linecap="round" stroke-linejoin="round" stroke-width=".3" d="M60.2 59.4L62 59"/>
  <path d="M51.4 60a2.4 2.4 0 0 1-1.8.6 2.8 2.8 0 0 1-1.5-1.2 2.5 2.5 0 0 1 1.8-.5 2.4 2.4 0 0 1 1.5 1.1z" fill="#febf10" stroke="#000" stroke-linecap="round" stroke-linejoin="round" stroke-width=".3"/>
  <path fill="none" stroke="#000" stroke-linecap="round" stroke-linejoin="round" stroke-width=".3" d="M51.4 60l-1.8-.3"/>
  <path d="M53.6 60a2.7 2.7 0 0 1-1.8.8 2.8 2.8 0 0 1-1.6-1 2.8 2.8 0 0 1 1.7-.8 3.2 3.2 0 0 1 1.7 1z" fill="#febf10" stroke="#000" stroke-linecap="round" stroke-linejoin="round" stroke-width=".3"/>
  <path fill="none" stroke="#000" stroke-linecap="round" stroke-linejoin="round" stroke-width=".3" d="M53.6 60l-1.9-.1"/>
  <path d="M58 59.8a2.8 2.8 0 0 0 1.9.5 2.8 2.8 0 0 0 1.5-1.2 2.8 2.8 0 0 0-1.9-.5 2.8 2.8 0 0 0-1.5 1.2z" fill="#febf10" stroke="#000" stroke-linecap="round" stroke-linejoin="round" stroke-width=".3"/>
  <path fill="none" stroke="#000" stroke-linecap="round" stroke-linejoin="round" stroke-width=".3" d="M58 59.8l1.9-.4"/>
  <path d="M55.8 60a2.9 2.9 0 0 0 1.8.6 2.8 2.8 0 0 0 1.5-1.2 2.9 2.9 0 0 0-1.8-.6 2.8 2.8 0 0 0-1.5 1.2z" fill="#febf10" stroke="#000" stroke-linecap="round" stroke-linejoin="round" stroke-width=".3"/>
  <path fill="none" stroke="#000" stroke-linecap="round" stroke-linejoin="round" stroke-width=".3" d="M55.8 60l1.8-.3"/>
  <path d="M53.6 60a3.3 3.3 0 0 0 1.8.8 2.8 2.8 0 0 0 1.6-1 2.4 2.4 0 0 0-1.7-.8 2.4 2.4 0 0 0-1.7 1z" fill="#febf10" stroke="#000" stroke-linecap="round" stroke-linejoin="round" stroke-width=".3"/>
  <path fill="none" stroke="#000" stroke-linecap="round" stroke-linejoin="round" stroke-width=".3" d="M53.6 60l1.9-.1"/>
  <path d="M55.3 61.5h-.4l-3.3-2.7c-.2-.2-.2-.4 0-.5s.4-.2.6 0l3.3 2.7a.3.3 0 0 1 0 .5z" fill="#0065b7" stroke="#000" stroke-linecap="round" stroke-linejoin="round" stroke-width=".4"/>
  <path d="M52 61.7h-.3a.4.4 0 0 1 0-.5l3.1-2.6a.6.6 0 0 1 .6 0 .4.4 0 0 1 0 .5l-3.1 2.6z" fill="#0065b7" stroke="#000" stroke-linecap="round" stroke-linejoin="round" stroke-width=".4"/>
  <path d="M66.2 55.1c0 2.1-5.6 3.8-12.5 3.8s-12.6-1.7-12.6-3.8c0-2.1 5.6-3.8 12.6-3.8s12.5 1.7 12.5 3.8z" fill="red"/>
  <path d="M44.6 54.2s9.6 3.7 18 0c0 0 .6-.3.9.5s-1.8 2.3-7.6 2.4-9.4-.3-10.7-.9-2.4-1.1-.6-2z" fill="#980805"/>
  <path d="M66.2 55.1c0 2.1-5.6 3.8-12.5 3.8s-12.6-1.7-12.6-3.8c0-2.1 5.6-3.8 12.6-3.8s12.5 1.7 12.5 3.8z" fill="none" stroke="#000" stroke-linecap="round" stroke-linejoin="round" stroke-width=".4"/>
  <path d="M62.7 54.2c.5.3.8.5.8.8 0 1.2-4.4 2.1-9.8 2.1s-9.9-.9-9.9-2.1c0-.2.3-.5.8-.8m-3.7 9.5c-1.7.1-.8 9.1 12.8 8.7 13.7.4 14.6-8.6 12.9-8.7h-.2c-.4.1-.6.4-.7.9s-.4-.6-.8-.5-.7.7-.9 1.3-.4-1-1.1-.8-.8.7-1 1.4a1.2 1.2 0 0 0-1.3-1.2 1.7 1.7 0 0 0-1.7 1.2 1.4 1.4 0 0 0-1.4-1 1.9 1.9 0 0 0-1.9 1.6 1.8 1.8 0 0 0-1.9-1.5 1.8 1.8 0 0 0-1.8 1.6 2 2 0 0 0-2-1.7 1.5 1.5 0 0 0-1.4 1.1 1.7 1.7 0 0 0-1.7-1.2 1.2 1.2 0 0 0-1.2 1.2c-.2-.7-.4-1.3-1.1-1.4s-1 .2-1.1.8-.3-1.1-.9-1.3-.6.1-.8.5-.3-.8-.6-.9z" fill="none" stroke="#000" stroke-linecap="round" stroke-linejoin="round" stroke-width=".4"/>
  <path d="M41.1 63.8c-2-.6-1.5 9.1 12.6 8.6-14.7-1.2-10.5-8-12.6-8.6z" fill="#325723" stroke="#000" stroke-linecap="round" stroke-linejoin="round" stroke-width=".4"/>
  <path d="M42.5 64.2c-2.1-.5-1.2 8.3 11.2 8.2-12.7-1.1-9-7.6-11.2-8.2z" fill="#325723" stroke="#000" stroke-linecap="round" stroke-linejoin="round" stroke-width=".4"/>
  <path d="M44.5 64.7c-2.6-.7-1.1 7.8 9.2 7.7-10.1-2.3-7-7.2-9.2-7.7z" fill="#325723" stroke="#000" stroke-linecap="round" stroke-linejoin="round" stroke-width=".4"/>
  <path d="M46.8 65c-2.7 0-1.3 6.1 6.9 7.4-6.4-2.5-3.7-7.4-6.9-7.4z" fill="#325723" stroke="#000" stroke-linecap="round" stroke-linejoin="round" stroke-width=".4"/>
  <path d="M49.9 65c-2.8 0-1.7 5.9 3.8 7.4-2.2-2.5-.8-7.4-3.8-7.4zm16.5-1.2c1.9-.6 1.4 9.1-12.7 8.6 14.8-1.2 10.5-8 12.7-8.6z" fill="#325723" stroke="#000" stroke-linecap="round" stroke-linejoin="round" stroke-width=".4"/>
  <path d="M64.9 64.2c2.1-.5 1.3 8.3-11.2 8.2 12.7-1.1 9-7.6 11.2-8.2z" fill="#325723" stroke="#000" stroke-linecap="round" stroke-linejoin="round" stroke-width=".4"/>
  <path d="M62.9 64.7c2.7-.7 1.2 7.8-9.2 7.7 10.1-2.3 7-7.2 9.2-7.7z" fill="#325723" stroke="#000" stroke-linecap="round" stroke-linejoin="round" stroke-width=".4"/>
  <path d="M60.6 65c2.8 0 1.3 6.1-6.9 7.4 6.4-2.5 3.8-7.4 6.9-7.4z" fill="#325723" stroke="#000" stroke-linecap="round" stroke-linejoin="round" stroke-width=".4"/>
  <path d="M57.5 65c2.8 0 1.7 5.9-3.8 7.4 2.2-2.5.8-7.4 3.8-7.4z" fill="#325723" stroke="#000" stroke-linecap="round" stroke-linejoin="round" stroke-width=".4"/>
  <path d="M53.7 65.1c-2.7 0-2.5 4.8 0 7.3 2.6-2.5 2.8-7.3 0-7.3z" fill="#325723" stroke="#000" stroke-linecap="round" stroke-linejoin="round" stroke-width=".4"/>
  <path d="M54.5 88.4a64.9 64.9 0 0 1-12.4-1 2.1 2.1 0 0 1-1.5-2.5 2.2 2.2 0 0 1 2.5-1.6c2.1.6 13.1 1.9 21.1.1a2.1 2.1 0 1 1 1 4 47.9 47.9 0 0 1-10.7 1z" fill="#febf10"/>
  <path d="M66.7 84.7c.1.1 0 .1 0 .2a2 2 0 0 1-1.5 2.5 47.9 47.9 0 0 1-10.7 1 64.9 64.9 0 0 1-12.4-1 2.1 2.1 0 0 1-1.5-2.5c0-.2 0-.1.1-.2l3.8.6 5.5.5h7.5l4.7-.3z" fill="#d09b07"/>
  <path d="M54.5 88.4a64.9 64.9 0 0 1-12.4-1 2.1 2.1 0 0 1-1.5-2.5 2.2 2.2 0 0 1 2.5-1.6c2.1.6 13.1 1.9 21.1.1a2.1 2.1 0 1 1 1 4 47.9 47.9 0 0 1-10.7 1z" fill="none" stroke="#000" stroke-linecap="round" stroke-linejoin="round" stroke-width=".4"/>
  <path d="M53.7 66.4c-1.7 0-1.5 3.9 0 5.9 1.6-2 1.8-5.9 0-5.9z" fill="#0d3a12" stroke="#000" stroke-linecap="round" stroke-linejoin="round" stroke-width=".4"/>
  <path d="M42.7 59.4a.8.8 0 0 0-.8.5.8.8 0 0 0 .5.7 36.3 36.3 0 0 0 11.1 1.5h.4A36.3 36.3 0 0 0 65 60.6c.4-.1.6-.4.5-.7a.8.8 0 0 0-.7-.5h-.3a40.5 40.5 0 0 1-10.8 1.4A40.3 40.3 0 0 1 43 59.5z" fill="#febf10" stroke="#000" stroke-linecap="round" stroke-linejoin="round" stroke-width=".4"/>
  <path d="M43.1 82.2c-.4 0-.7.2-.7.6a.6.6 0 0 0 .6.6 79.4 79.4 0 0 0 10.7.9 81 81 0 0 0 10.8-.9.5.5 0 0 0 .5-.6.6.6 0 0 0-.6-.6h-.2a64.1 64.1 0 0 1-10.5.8 65.1 65.1 0 0 1-10.5-.8z" fill="#d09b07" stroke="#000" stroke-linecap="round" stroke-linejoin="round" stroke-width=".4"/>
  <path d="M54.7 87.9a88.3 88.3 0 0 1-13.5-1c-.2 0-.3-.2-.3-.4a.5.5 0 0 1 .4-.3c2.6.6 15.2 2 24.5.1.2 0 .4.1.4.3s0 .3-.2.4a60.1 60.1 0 0 1-11.3.9z" fill="#febf10"/>
  <circle cx="41.6" cy="86.2" r=".8" fill="#febf10" stroke="#000" stroke-linecap="round" stroke-linejoin="round" stroke-width=".3"/>
  <circle cx="41.6" cy="86.2" r=".2"/>
  <path d="M54.8 88.7a78.1 78.1 0 0 1-13.6-1c-.2 0-.3-.2-.3-.4a.5.5 0 0 1 .4-.3c2.6.6 15.2 2 24.7.1a.5.5 0 0 1 .4.3c0 .2-.1.4-.3.4a60.8 60.8 0 0 1-11.3.9z" fill="#febf10" stroke="#000" stroke-linecap="round" stroke-linejoin="round" stroke-width=".4"/>
  <circle cx="43.2" cy="86.4" r=".8" fill="#febf10" stroke="#000" stroke-linecap="round" stroke-linejoin="round" stroke-width=".3"/>
  <circle cx="43.2" cy="86.4" r=".2"/>
  <circle cx="44.8" cy="86.6" r=".8" fill="#febf10" stroke="#000" stroke-linecap="round" stroke-linejoin="round" stroke-width=".3"/>
  <circle cx="44.8" cy="86.6" r=".2"/>
  <circle cx="46.4" cy="86.8" r=".8" fill="#febf10" stroke="#000" stroke-linecap="round" stroke-linejoin="round" stroke-width=".3"/>
  <circle cx="46.4" cy="86.8" r=".2"/>
  <circle cx="48" cy="86.9" r=".8" fill="#febf10" stroke="#000" stroke-linecap="round" stroke-linejoin="round" stroke-width=".3"/>
  <circle cx="48" cy="86.9" r=".2"/>
  <circle cx="49.6" cy="87" r=".8" fill="#febf10" stroke="#000" stroke-linecap="round" stroke-linejoin="round" stroke-width=".3"/>
  <circle cx="49.6" cy="87" r=".2"/>
  <circle cx="51.3" cy="87.1" r=".8" fill="#febf10" stroke="#000" stroke-linecap="round" stroke-linejoin="round" stroke-width=".3"/>
  <circle cx="51.3" cy="87.1" r=".2"/>
  <circle cx="52.9" cy="87.1" r=".8" fill="#febf10" stroke="#000" stroke-linecap="round" stroke-linejoin="round" stroke-width=".3"/>
  <circle cx="52.9" cy="87.1" r=".2"/>
  <circle cx="54.5" cy="87.2" r=".8" fill="#febf10" stroke="#000" stroke-linecap="round" stroke-linejoin="round" stroke-width=".3"/>
  <circle cx="54.5" cy="87.2" r=".2"/>
  <circle cx="56.1" cy="87.1" r=".8" fill="#febf10" stroke="#000" stroke-linecap="round" stroke-linejoin="round" stroke-width=".3"/>
  <circle cx="56.1" cy="87.1" r=".2"/>
  <circle cx="65.5" cy="86.3" r=".8" fill="#febf10" stroke="#000" stroke-linecap="round" stroke-linejoin="round" stroke-width=".3"/>
  <circle cx="65.5" cy="86.3" r=".2"/>
  <circle cx="64" cy="86.5" r=".8" fill="#febf10" stroke="#000" stroke-linecap="round" stroke-linejoin="round" stroke-width=".3"/>
  <circle cx="64" cy="86.5" r=".2"/>
  <circle cx="62.4" cy="86.8" r=".8" fill="#febf10" stroke="#000" stroke-linecap="round" stroke-linejoin="round" stroke-width=".3"/>
  <circle cx="62.4" cy="86.8" r=".2"/>
  <circle cx="60.8" cy="86.9" r=".8" fill="#febf10" stroke="#000" stroke-linecap="round" stroke-linejoin="round" stroke-width=".3"/>
  <circle cx="60.8" cy="86.9" r=".2"/>
  <circle cx="59.2" cy="87" r=".8" fill="#febf10" stroke="#000" stroke-linecap="round" stroke-linejoin="round" stroke-width=".3"/>
  <circle cx="59.2" cy="87" r=".2"/>
  <circle cx="57.7" cy="87.1" r=".8" fill="#febf10" stroke="#000" stroke-linecap="round" stroke-linejoin="round" stroke-width=".3"/>
  <circle cx="57.7" cy="87.1" r=".2"/>
  <path d="M66.5 84.8c-12.3 2.6-25.7-.1-25.7-.1M8 7.9h62v124.31H8z" fill="none" stroke="#000" stroke-linecap="round" stroke-linejoin="round" stroke-width=".4"/>
</svg>
