<svg xmlns="http://www.w3.org/2000/svg" viewBox="0 0 78 140">
  <rect width="78" height="140" rx="6" ry="6" fill="#fff"/>
  <path d="M20.4 35.4v1.3a6.4 6.4 0 0 1-5.3 4.3c-.6.1-.3 1.4.9 1.9V44h13v-1c1.7-.1 2.3-1.9 1.6-2s-4.5-1.2-5.3-4.3v-1.3h-1.5v1.3c.4 1.1.1 1.7-.2-.5H22c-.3 2.2-.5 1.6-.2.5v-1.3z" fill="#325723"/>
  <path d="M20.4 35.4v1.3a6.4 6.4 0 0 1-5.3 4.3c-.9.1.1 2.6 2.6 1.9s3.6-4.5 4.1-6.2v-1.3zm3.4 0v1.3c.5 1.7 1.6 5.5 4.1 6.2s3.5-1.8 2.7-1.9-4.5-1.2-5.3-4.3v-1.3z" fill="#3c6d3d" stroke="#000" stroke-linecap="round" stroke-linejoin="round" stroke-width=".24"/>
  <path d="M20.4 35.4v1.3a6.4 6.4 0 0 1-5.3 4.3c-.9.1.1 2.6 2.6 1.9s3.6-4.5 4.1-6.2v-1.3zm3.4 0v1.3c.5 1.7 1.6 5.5 4.1 6.2s3.5-1.8 2.7-1.9-4.5-1.2-5.3-4.3v-1.3z" fill="#325723" stroke="#000" stroke-linecap="round" stroke-linejoin="round" stroke-width=".41"/>
  <path d="M22 36.2c-.3 2.5-1.9 4-1.6 5.9s1 1.2 2.4 1.2 2.3-.5 2.4-1.2-1.3-3.4-1.6-5.9H22z" fill="none" stroke="#000" stroke-linecap="round" stroke-linejoin="round" stroke-width=".41"/>
  <path d="M22.4 36.7c-.1 1.9-.9 3-.8 4.5a1.1 1.1 0 0 0 1.2.9c.7 0 1.2-.4 1.2-.9s-.6-2.6-.8-4.5h-.8z" fill="#0d3a12" stroke="#000" stroke-linecap="round" stroke-linejoin="round" stroke-width=".41"/>
  <path d="M18.2 42.8l2.9.2m-2.1-.8h1.4" fill="none" stroke="#000" stroke-linecap="round" stroke-linejoin="round" stroke-width=".41"/>
  <path d="M14.8 43.8h16v3.3l-8 1-8-1z" fill="#d09b07" stroke="#000" stroke-linecap="round" stroke-linejoin="round" stroke-width=".41"/>
  <circle cx="16" cy="45.4" r=".9" fill="#febf10" stroke="#000" stroke-linecap="round" stroke-linejoin="round" stroke-width=".3"/>
  <circle cx="16" cy="45.4" r=".3"/>
  <circle cx="17.9" cy="45.6" r=".9" fill="#febf10" stroke="#000" stroke-linecap="round" stroke-linejoin="round" stroke-width=".3"/>
  <circle cx="17.9" cy="45.6" r=".3"/>
  <circle cx="19.9" cy="45.8" r=".9" fill="#febf10" stroke="#000" stroke-linecap="round" stroke-linejoin="round" stroke-width=".3"/>
  <circle cx="19.9" cy="45.8" r=".3"/>
  <circle cx="22" cy="45.9" r=".9" fill="#febf10" stroke="#000" stroke-linecap="round" stroke-linejoin="round" stroke-width=".3"/>
  <circle cx="22" cy="45.9" r=".3"/>
  <circle cx="23.9" cy="45.9" r=".9" fill="#febf10" stroke="#000" stroke-linecap="round" stroke-linejoin="round" stroke-width=".3"/>
  <circle cx="23.9" cy="45.9" r=".3"/>
  <circle cx="25.9" cy="45.8" r=".9" fill="#febf10" stroke="#000" stroke-linecap="round" stroke-linejoin="round" stroke-width=".3"/>
  <circle cx="25.9" cy="45.8" r=".3"/>
  <circle cx="27.9" cy="45.6" r=".9" fill="#febf10" stroke="#000" stroke-linecap="round" stroke-linejoin="round" stroke-width=".3"/>
  <circle cx="27.9" cy="45.6" r=".3"/>
  <circle cx="29.7" cy="45.3" r=".9" fill="#febf10" stroke="#000" stroke-linecap="round" stroke-linejoin="round" stroke-width=".3"/>
  <circle cx="29.7" cy="45.3" r=".3"/>
  <path d="M22.6 33.4a2.1 2.1 0 0 0-2.2 1.5 1.1 1.1 0 0 0 .9 1.4c.3-.1.4-.1.5.2a1.3 1.3 0 0 0 2.2-.3 1 1 0 0 0 1.3-1.1 2.2 2.2 0 0 0-1.9-1.7zm-2 .3a3.2 3.2 0 0 0-3 1.6c-.2.4-.2 1.2.4 1.2s.6-.6.9-.3 1.2.5 1.3-.1 0-1.6.7-2.1a.2.2 0 0 0-.3-.3zm4.1 0c0 .4.4.6.5.9s.1 1.2.3 1.7.9.2 1.2-.1.6.5 1 .3.5-.9.3-1.3a3.2 3.2 0 0 0-3.2-1.5z" fill="red" stroke="#000" stroke-linecap="round" stroke-linejoin="round" stroke-width=".41"/>
  <path d="M14.8 46.4a.8.8 0 0 0-.9.8 1 1 0 0 0 .8 1 47.9 47.9 0 0 0 8.1.7 47 47 0 0 0 8.1-.7.9.9 0 0 0 .8-1 .8.8 0 0 0-.9-.8h-.2a56.4 56.4 0 0 1-7.8.7 56.4 56.4 0 0 1-7.8-.7z" fill="#febf10" stroke="#000" stroke-linecap="round" stroke-linejoin="round" stroke-width=".41"/>
  <path d="M27.5 42.8l-2.9.2m1.9-.8h-1.3m-5.5-.7h.6m5.7.1h-.7" fill="none" stroke="#000" stroke-linecap="round" stroke-linejoin="round" stroke-width=".41"/>
  <path d="M15.7 23.5a4.3 4.3 0 0 0-3.6 4 5.9 5.9 0 0 0 3.5 5.6 15.7 15.7 0 0 0 7.2 1.4 15.7 15.7 0 0 0 7.2-1.4c2.3-1.2 3.6-2.8 3.6-5.6a4.4 4.4 0 0 0-3.6-4H15.7z" fill="#febf10"/>
  <path d="M18.4 23.6s-2.6 8 5.6 11c0 0-7.7.2-10.1-2.7s-2-5.3-.8-6.9 3.6-1.8 5.3-1.4z" fill="#d09b07"/>
  <path d="M15.7 23.5a4.3 4.3 0 0 0-3.6 4 5.9 5.9 0 0 0 3.5 5.6 15.7 15.7 0 0 0 7.2 1.4 15.7 15.7 0 0 0 7.2-1.4c2.3-1.2 3.6-2.8 3.6-5.6a4.4 4.4 0 0 0-3.6-4H15.7z" fill="none" stroke="#000" stroke-linecap="round" stroke-linejoin="round" stroke-width=".41"/>
  <path d="M14.1 19.6h17.4v3.8l-8.7 1.1-8.7-1.1z" fill="#d09b07" stroke="#000" stroke-linecap="round" stroke-linejoin="round" stroke-width=".41"/>
  <path d="M18.1 22.5a3 3 0 0 1-2.1.6 3.2 3.2 0 0 1-1.7-1.4 3.2 3.2 0 0 1 2.1-.6 2.8 2.8 0 0 1 1.7 1.4z" fill="#febf10" stroke="#000" stroke-linecap="round" stroke-linejoin="round" stroke-width=".3"/>
  <path fill="none" stroke="#000" stroke-linecap="round" stroke-linejoin="round" stroke-width=".3" d="M18.1 22.5L16 22"/>
  <path d="M20.3 22.9a3.3 3.3 0 0 1-2 .7 3.1 3.1 0 0 1-1.8-1.4 3.2 3.2 0 0 1 2.1-.6 2.5 2.5 0 0 1 1.7 1.3z" fill="#febf10" stroke="#000" stroke-linecap="round" stroke-linejoin="round" stroke-width=".3"/>
  <path fill="none" stroke="#000" stroke-linecap="round" stroke-linejoin="round" stroke-width=".3" d="M20.3 22.9l-2.1-.4"/>
  <path d="M22.8 22.9a3.6 3.6 0 0 1-2 .9 3.1 3.1 0 0 1-1.9-1.2 2.8 2.8 0 0 1 2-.8 2.7 2.7 0 0 1 1.9 1.1z" fill="#febf10" stroke="#000" stroke-linecap="round" stroke-linejoin="round" stroke-width=".3"/>
  <path fill="none" stroke="#000" stroke-linecap="round" stroke-linejoin="round" stroke-width=".3" d="M22.8 22.9l-2.2-.1"/>
  <path d="M27.5 22.4a2.7 2.7 0 0 0 2.1.6 2.8 2.8 0 0 0 1.7-1.4 2.6 2.6 0 0 0-2.1-.5 3.2 3.2 0 0 0-1.7 1.3z" fill="#febf10" stroke="#000" stroke-linecap="round" stroke-linejoin="round" stroke-width=".3"/>
  <path fill="none" stroke="#000" stroke-linecap="round" stroke-linejoin="round" stroke-width=".3" d="M27.5 22.4l2.1-.4"/>
  <path d="M25.3 22.9a3 3 0 0 0 2.1.6 3.2 3.2 0 0 0 1.7-1.3 2.8 2.8 0 0 0-2.1-.7 3.2 3.2 0 0 0-1.7 1.4z" fill="#febf10" stroke="#000" stroke-linecap="round" stroke-linejoin="round" stroke-width=".3"/>
  <path fill="none" stroke="#000" stroke-linecap="round" stroke-linejoin="round" stroke-width=".3" d="M25.3 22.9l2.1-.4"/>
  <path d="M22.9 22.8a2.8 2.8 0 0 0 2 .9 2.7 2.7 0 0 0 1.8-1.1 2.8 2.8 0 0 0-2-.9 3.1 3.1 0 0 0-1.8 1.1z" fill="#febf10" stroke="#000" stroke-linecap="round" stroke-linejoin="round" stroke-width=".3"/>
  <path fill="none" stroke="#000" stroke-linecap="round" stroke-linejoin="round" stroke-width=".3" d="M22.9 22.8l2.1-.1"/>
  <path d="M24.4 24.8H24l-3.3-3.4a.4.4 0 0 1 0-.6c.1-.2.4-.2.6 0l3.4 3.2a.9.9 0 0 1 0 .7z" fill="#0065b7" stroke="#000" stroke-linecap="round" stroke-linejoin="round" stroke-width=".35"/>
  <path d="M21.1 25l-.3-.2a.6.6 0 0 1 0-.6l3.1-3.1a.6.6 0 0 1 .6 0 .5.5 0 0 1 0 .7l-3 3z" fill="#0065b7" stroke="#000" stroke-linecap="round" stroke-linejoin="round" stroke-width=".35"/>
  <path d="M34.8 17.2c0 2.4-5.3 4.4-12 4.4s-12-2-12-4.4c0-2.5 5.4-4.4 12-4.5s12 2 12 4.5z" fill="red"/>
  <path d="M14.1 16.1s9.2 4.3 17.2 0c.1.1.7-.3.9.7s-1.7 2.6-7.2 2.7-9.1-.4-10.3-1-2.3-1.3-.6-2.4z" fill="#980805"/>
  <path d="M34.8 17.2c0 2.4-5.3 4.4-12 4.4s-12-2-12-4.4c0-2.5 5.4-4.4 12-4.5s12 2 12 4.5z" fill="none" stroke="#000" stroke-linecap="round" stroke-linejoin="round" stroke-width=".38"/>
  <path d="M31.5 16.2c.5.3.7.6.7.9 0 1.3-4.2 2.4-9.4 2.4s-9.4-1.1-9.4-2.4c0-.3.2-.6.7-.9" fill="none" stroke="#000" stroke-linecap="round" stroke-linejoin="round" stroke-width=".36"/>
  <path d="M12.6 26.9c-1.4 0-.7 8 10.2 7.6 10.9.4 11.6-7.6 10.2-7.6h-.1a1 1 0 0 0-.6.8c-.1-.3-.3-.5-.6-.4s-.6.6-.7 1.1-.4-.8-.9-.7-.6.6-.8 1.3-.4-1.1-1-1.1-1.1.5-1.4 1.1a1.1 1.1 0 0 0-1.1-1c-.8 0-1.2.6-1.5 1.4a1.6 1.6 0 0 0-1.5-1.4c-.8 0-1.3.6-1.5 1.5-.2-.9-.6-1.5-1.5-1.5a1.1 1.1 0 0 0-1.1 1c-.3-.6-.6-1.1-1.4-1.1s-.9.5-1 1.1-.3-1.2-.8-1.3-.8.2-.9.8-.3-1.1-.7-1.2-.5.1-.6.4-.2-.7-.6-.8z" fill="none" stroke="#000" stroke-linecap="round" stroke-linejoin="round" stroke-width=".41"/>
  <path d="M12.7 26.9c-1.5-.5-1.1 8 10.1 7.6-11.7-1.1-8.4-7-10.1-7.6z" fill="#325723" stroke="#000" stroke-linecap="round" stroke-linejoin="round" stroke-width=".41"/>
  <path d="M13.9 27.3c-1.7-.5-1 7.3 8.9 7.2-10.1-1-7.2-6.7-8.9-7.2z" fill="#325723" stroke="#000" stroke-linecap="round" stroke-linejoin="round" stroke-width=".41"/>
  <path d="M15.5 27.7c-2.1-.6-.9 6.9 7.3 6.8-8-2-5.6-6.3-7.3-6.8z" fill="#325723" stroke="#000" stroke-linecap="round" stroke-linejoin="round" stroke-width=".41"/>
  <path d="M17.3 27.9c-2.2 0-1 5.5 5.5 6.6-5.1-2.2-3-6.6-5.5-6.6z" fill="#325723" stroke="#000" stroke-linecap="round" stroke-linejoin="round" stroke-width=".41"/>
  <path d="M19.8 28c-2.2 0-1.4 5.2 3 6.5-1.7-2.2-.6-6.5-3-6.5z" fill="#325723" stroke="#000" stroke-linecap="round" stroke-linejoin="round" stroke-width=".41"/>
  <path d="M32.9 26.9c1.5-.5 1.1 8-10.1 7.6 11.7-1.1 8.4-7 10.1-7.6z" fill="#325723" stroke="#000" stroke-linecap="round" stroke-linejoin="round" stroke-width=".41"/>
  <path d="M31.7 27.3c1.7-.5 1 7.3-8.9 7.2 10.1-1 7.2-6.7 8.9-7.2z" fill="#325723" stroke="#000" stroke-linecap="round" stroke-linejoin="round" stroke-width=".41"/>
  <path d="M30.1 27.7c2.1-.6 1 6.9-7.3 6.8 8-2 5.6-6.3 7.3-6.8z" fill="#325723" stroke="#000" stroke-linecap="round" stroke-linejoin="round" stroke-width=".41"/>
  <path d="M28.3 27.9c2.2 0 1 5.5-5.5 6.6 5.1-2.2 3-6.6 5.5-6.6z" fill="#325723" stroke="#000" stroke-linecap="round" stroke-linejoin="round" stroke-width=".41"/>
  <path d="M25.8 28c2.2 0 1.4 5.2-3 6.5 1.7-2.2.6-6.5 3-6.5z" fill="#325723" stroke="#000" stroke-linecap="round" stroke-linejoin="round" stroke-width=".41"/>
  <path d="M22.8 28c-2.2 0-2 4.3 0 6.5 2-2.2 2.2-6.5 0-6.5z" fill="#325723" stroke="#000" stroke-linecap="round" stroke-linejoin="round" stroke-width=".41"/>
  <path d="M22.8 29.3c-1.3 0-1.2 3.3 0 5.1 1.3-1.8 1.4-5.1 0-5.1z" fill="#0d3a12" stroke="#000" stroke-linecap="round" stroke-linejoin="round" stroke-width=".41"/>
  <path d="M14 22.7a.6.6 0 0 0-.6.5.7.7 0 0 0 .4.7 26.2 26.2 0 0 0 8.8 1.4h.4a25.8 25.8 0 0 0 8.8-1.4.7.7 0 0 0 .4-.7.6.6 0 0 0-.6-.5c-.1 0-.2 0-.2.1a26.8 26.8 0 0 1-8.6 1.3 25.8 25.8 0 0 1-8.5-1.3zm.5 20.2a.5.5 0 0 0-.5.5.6.6 0 0 0 .5.6 49.5 49.5 0 0 0 8.3.7 51.8 51.8 0 0 0 8.4-.7.7.7 0 0 0 .4-.6.5.5 0 0 0-.5-.5H31a48.2 48.2 0 0 1-8.2.7 49.2 49.2 0 0 1-8.2-.7z" fill="#febf10" stroke="#000" stroke-linecap="round" stroke-linejoin="round" stroke-width=".41"/>
  <path d="M52.6 35.4v1.3a6.3 6.3 0 0 1-5.3 4.3c-.6.1-.3 1.4.9 1.9V44h13.1v-1c1.7-.1 2.2-1.9 1.5-2a6.4 6.4 0 0 1-5.3-4.3v-1.3h-1.4v1.3c.3 1.1 0 1.7-.3-.5h-1.5c-.3 2.2-.6 1.6-.3.5v-1.3z" fill="#325723"/>
  <path d="M52.6 35.4v1.3a6.3 6.3 0 0 1-5.3 4.3c-.8.1.1 2.6 2.6 1.9s3.7-4.5 4.1-6.2v-1.3zm3.5 0v1.3c.5 1.7 1.6 5.5 4.1 6.2s3.4-1.8 2.6-1.9a6.4 6.4 0 0 1-5.3-4.3v-1.3z" fill="#3c6d3d" stroke="#000" stroke-linecap="round" stroke-linejoin="round" stroke-width=".24"/>
  <path d="M52.6 35.4v1.3a6.3 6.3 0 0 1-5.3 4.3c-.8.1.1 2.6 2.6 1.9s3.7-4.5 4.1-6.2v-1.3zm3.5 0v1.3c.5 1.7 1.6 5.5 4.1 6.2s3.4-1.8 2.6-1.9a6.4 6.4 0 0 1-5.3-4.3v-1.3z" fill="#325723" stroke="#000" stroke-linecap="round" stroke-linejoin="round" stroke-width=".41"/>
  <path d="M54.3 36.2c-.3 2.5-1.9 4-1.6 5.9s1 1.2 2.4 1.2 2.2-.5 2.4-1.2-1.3-3.4-1.7-5.9h-1.5z" fill="none" stroke="#000" stroke-linecap="round" stroke-linejoin="round" stroke-width=".41"/>
  <path d="M54.7 36.7c-.2 1.9-1 3-.8 4.5s.5.9 1.2.9a1.1 1.1 0 0 0 1.2-.9c.1-1.5-.7-2.6-.8-4.5h-.8z" fill="#0d3a12" stroke="#000" stroke-linecap="round" stroke-linejoin="round" stroke-width=".41"/>
  <path d="M50.4 42.8l2.9.2m-2-.8h1.4" fill="none" stroke="#000" stroke-linecap="round" stroke-linejoin="round" stroke-width=".41"/>
  <path d="M47.1 43.8H63v3.3l-7.9 1-8-1z" fill="#d09b07" stroke="#000" stroke-linecap="round" stroke-linejoin="round" stroke-width=".41"/>
  <circle cx="48.2" cy="45.4" r=".9" fill="#febf10" stroke="#000" stroke-linecap="round" stroke-linejoin="round" stroke-width=".3"/>
  <circle cx="48.2" cy="45.4" r=".3"/>
  <circle cx="50.2" cy="45.6" r=".9" fill="#febf10" stroke="#000" stroke-linecap="round" stroke-linejoin="round" stroke-width=".3"/>
  <circle cx="50.2" cy="45.6" r=".3"/>
  <circle cx="52.2" cy="45.8" r=".9" fill="#febf10" stroke="#000" stroke-linecap="round" stroke-linejoin="round" stroke-width=".3"/>
  <circle cx="52.2" cy="45.8" r=".3"/>
  <circle cx="54.2" cy="45.9" r=".9" fill="#febf10" stroke="#000" stroke-linecap="round" stroke-linejoin="round" stroke-width=".3"/>
  <circle cx="54.2" cy="45.9" r=".3"/>
  <circle cx="56.2" cy="45.9" r=".9" fill="#febf10" stroke="#000" stroke-linecap="round" stroke-linejoin="round" stroke-width=".3"/>
  <circle cx="56.2" cy="45.9" r=".3"/>
  <circle cx="58.2" cy="45.8" r=".9" fill="#febf10" stroke="#000" stroke-linecap="round" stroke-linejoin="round" stroke-width=".3"/>
  <circle cx="58.2" cy="45.8" r=".3"/>
  <circle cx="60.2" cy="45.6" r=".9" fill="#febf10" stroke="#000" stroke-linecap="round" stroke-linejoin="round" stroke-width=".3"/>
  <circle cx="60.2" cy="45.6" r=".3"/>
  <circle cx="62" cy="45.3" r=".9" fill="#febf10" stroke="#000" stroke-linecap="round" stroke-linejoin="round" stroke-width=".3"/>
  <circle cx="62" cy="45.3" r=".3"/>
  <path d="M54.8 33.4a2 2 0 0 0-2.1 1.5 1 1 0 0 0 .9 1.4c.2-.1.3-.1.4.2a1.3 1.3 0 0 0 2.2-.3 1 1 0 0 0 1.3-1.1 2.2 2.2 0 0 0-1.8-1.7zm-2 .3a3.2 3.2 0 0 0-2.9 1.6c-.2.4-.3 1.2.3 1.2s.7-.6 1-.3 1.2.5 1.2-.1a2.6 2.6 0 0 1 .7-2.1c.2-.2-.1-.4-.3-.3zm4.2 0c-.1.4.3.6.5.9s0 1.2.3 1.7.8.2 1.2-.1.5.5 1 .3.4-.9.2-1.3a3.2 3.2 0 0 0-3.2-1.5z" fill="red" stroke="#000" stroke-linecap="round" stroke-linejoin="round" stroke-width=".41"/>
  <path d="M47.1 46.4a.8.8 0 0 0-.9.8.9.9 0 0 0 .7 1 48.2 48.2 0 0 0 8.2.7 47.9 47.9 0 0 0 8.1-.7 1 1 0 0 0 .8-1 .9.9 0 0 0-.9-.8h-.2a56.4 56.4 0 0 1-7.8.7 55 55 0 0 1-7.8-.7z" fill="#febf10" stroke="#000" stroke-linecap="round" stroke-linejoin="round" stroke-width=".41"/>
  <path d="M59.8 42.8l-3 .2m2-.8h-1.3m-5.6-.7h.7m5.6.1h-.6" fill="none" stroke="#000" stroke-linecap="round" stroke-linejoin="round" stroke-width=".41"/>
  <path d="M47.9 23.5a4.3 4.3 0 0 0-3.6 4c0 2.8 1.3 4.4 3.6 5.6a15.5 15.5 0 0 0 7.2 1.4 15.3 15.3 0 0 0 7.1-1.4c2.3-1.2 3.6-2.8 3.6-5.6a4.3 4.3 0 0 0-3.6-4H47.9z" fill="#febf10"/>
  <path d="M50.7 23.6s-2.6 8 5.5 11c0 0-7.6.2-10.1-2.7s-2-5.3-.7-6.9 3.5-1.8 5.3-1.4z" fill="#d09b07"/>
  <path d="M47.9 23.5a4.3 4.3 0 0 0-3.6 4c0 2.8 1.3 4.4 3.6 5.6a15.5 15.5 0 0 0 7.2 1.4 15.3 15.3 0 0 0 7.1-1.4c2.3-1.2 3.6-2.8 3.6-5.6a4.3 4.3 0 0 0-3.6-4H47.9z" fill="none" stroke="#000" stroke-linecap="round" stroke-linejoin="round" stroke-width=".41"/>
  <path d="M46.4 19.6h17.3v3.8l-8.6 1.1-8.7-1.1z" fill="#d09b07" stroke="#000" stroke-linecap="round" stroke-linejoin="round" stroke-width=".41"/>
  <path d="M50.4 22.5a3.2 3.2 0 0 1-2.1.6 2.8 2.8 0 0 1-1.7-1.4 3 3 0 0 1 2.1-.6 3.2 3.2 0 0 1 1.7 1.4z" fill="#febf10" stroke="#000" stroke-linecap="round" stroke-linejoin="round" stroke-width=".3"/>
  <path fill="none" stroke="#000" stroke-linecap="round" stroke-linejoin="round" stroke-width=".3" d="M50.4 22.5l-2.1-.5"/>
  <path d="M52.6 22.9a3.4 3.4 0 0 1-2.1.7 3.2 3.2 0 0 1-1.7-1.4 3 3 0 0 1 2.1-.6c1 .1 1.7 1.3 1.7 1.3z" fill="#febf10" stroke="#000" stroke-linecap="round" stroke-linejoin="round" stroke-width=".3"/>
  <path fill="none" stroke="#000" stroke-linecap="round" stroke-linejoin="round" stroke-width=".3" d="M52.6 22.9l-2.1-.4"/>
  <path d="M55 22.9a3.2 3.2 0 0 1-2 .9 3.1 3.1 0 0 1-1.8-1.2 2.8 2.8 0 0 1 2-.8 2.7 2.7 0 0 1 1.8 1.1z" fill="#febf10" stroke="#000" stroke-linecap="round" stroke-linejoin="round" stroke-width=".3"/>
  <path fill="none" stroke="#000" stroke-linecap="round" stroke-linejoin="round" stroke-width=".3" d="M55 22.9l-2.1-.1"/>
  <path d="M59.8 22.4a2.5 2.5 0 0 0 2.1.6 3.2 3.2 0 0 0 1.7-1.4 2.8 2.8 0 0 0-2.1-.5 2.8 2.8 0 0 0-1.7 1.3z" fill="#febf10" stroke="#000" stroke-linecap="round" stroke-linejoin="round" stroke-width=".3"/>
  <path fill="none" stroke="#000" stroke-linecap="round" stroke-linejoin="round" stroke-width=".3" d="M59.8 22.4l2.1-.4"/>
  <path d="M57.6 22.9a2.8 2.8 0 0 0 2 .6 3.1 3.1 0 0 0 1.8-1.3 3.1 3.1 0 0 0-2.1-.7 2.8 2.8 0 0 0-1.7 1.4z" fill="#febf10" stroke="#000" stroke-linecap="round" stroke-linejoin="round" stroke-width=".3"/>
  <path fill="none" stroke="#000" stroke-linecap="round" stroke-linejoin="round" stroke-width=".3" d="M57.6 22.9l2.1-.4"/>
  <path d="M55.1 22.8a3 3 0 0 0 2 .9 2.7 2.7 0 0 0 1.9-1.1 2.8 2.8 0 0 0-2-.9 3.2 3.2 0 0 0-1.9 1.1z" fill="#febf10" stroke="#000" stroke-linecap="round" stroke-linejoin="round" stroke-width=".3"/>
  <path fill="none" stroke="#000" stroke-linecap="round" stroke-linejoin="round" stroke-width=".3" d="M55.1 22.8l2.2-.1"/>
  <path d="M56.7 24.8h-.4l-3.4-3.4a.4.4 0 0 1 0-.6c.2-.2.5-.2.6 0l3.4 3.2a.5.5 0 0 1 0 .7z" fill="#0065b7" stroke="#000" stroke-linecap="round" stroke-linejoin="round" stroke-width=".35"/>
  <path d="M53.3 25l-.2-.2c-.2-.1-.2-.4 0-.6l3.1-3.1a.6.6 0 0 1 .6 0 .5.5 0 0 1 0 .7l-3.1 3a.5.5 0 0 1-.4.2z" fill="#0065b7" stroke="#000" stroke-linecap="round" stroke-linejoin="round" stroke-width=".35"/>
  <path d="M67.1 17.2c0 2.4-5.4 4.4-12 4.4S43 19.6 43 17.2c0-2.5 5.4-4.4 12.1-4.5s12 2 12 4.5z" fill="red"/>
  <path d="M46.3 16.1s9.3 4.3 17.3 0c0 .1.6-.3.9.7s-1.7 2.6-7.3 2.7-9-.4-10.2-1-2.3-1.3-.7-2.4z" fill="#980805"/>
  <path d="M67.1 17.2c0 2.4-5.4 4.4-12 4.4S43 19.6 43 17.2c0-2.5 5.4-4.4 12.1-4.5s12 2 12 4.5z" fill="none" stroke="#000" stroke-linecap="round" stroke-linejoin="round" stroke-width=".38"/>
  <path d="M63.8 16.2c.4.3.7.6.7.9 0 1.3-4.2 2.4-9.4 2.4s-9.5-1.1-9.5-2.4c0-.3.3-.6.7-.9" fill="none" stroke="#000" stroke-linecap="round" stroke-linejoin="round" stroke-width=".36"/>
  <path d="M44.8 26.9c-1.3 0-.6 8 10.2 7.6h.1c10.8.4 11.5-7.6 10.2-7.6h-.2c-.3.1-.4.4-.5.8s-.3-.5-.6-.4-.6.6-.7 1.1-.4-.8-.9-.7-.7.6-.8 1.3a1.2 1.2 0 0 0-1.1-1.1 1.4 1.4 0 0 0-1.3 1.1 1.1 1.1 0 0 0-1.1-1c-.9 0-1.3.6-1.5 1.4a1.6 1.6 0 0 0-1.5-1.4c-.8 0-1.3.6-1.5 1.5-.3-.9-.7-1.5-1.6-1.5s-.9.4-1.1 1-.5-1.1-1.3-1.1a1 1 0 0 0-1 1.1c-.2-.7-.3-1.2-.9-1.3s-.8.2-.9.8-.2-1.1-.6-1.2-.5.1-.7.4-.2-.7-.5-.8z" fill="none" stroke="#000" stroke-linecap="round" stroke-linejoin="round" stroke-width=".41"/>
  <path d="M45 26.9c-1.6-.5-1.2 8 10.1 7.6-11.8-1.1-8.4-7-10.1-7.6z" fill="#325723" stroke="#000" stroke-linecap="round" stroke-linejoin="round" stroke-width=".41"/>
  <path d="M46.2 27.3c-1.7-.5-1.1 7.3 8.9 7.2-10.2-1-7.2-6.7-8.9-7.2z" fill="#325723" stroke="#000" stroke-linecap="round" stroke-linejoin="round" stroke-width=".41"/>
  <path d="M47.7 27.7c-2.1-.6-.9 6.9 7.4 6.8-8.1-2-5.6-6.3-7.4-6.8z" fill="#325723" stroke="#000" stroke-linecap="round" stroke-linejoin="round" stroke-width=".41"/>
  <path d="M49.6 27.9c-2.2 0-1.1 5.5 5.5 6.6-5.1-2.2-3-6.6-5.5-6.6z" fill="#325723" stroke="#000" stroke-linecap="round" stroke-linejoin="round" stroke-width=".41"/>
  <path d="M52 28c-2.2 0-1.3 5.2 3.1 6.5-1.8-2.2-.7-6.5-3.1-6.5z" fill="#325723" stroke="#000" stroke-linecap="round" stroke-linejoin="round" stroke-width=".41"/>
  <path d="M65.1 26.9c1.6-.5 1.2 8-10.1 7.6 11.8-1.1 8.4-7 10.1-7.6z" fill="#325723" stroke="#000" stroke-linecap="round" stroke-linejoin="round" stroke-width=".41"/>
  <path d="M64 27.3c1.6-.5 1 7.3-9 7.2 10.2-1 7.2-6.7 9-7.2z" fill="#325723" stroke="#000" stroke-linecap="round" stroke-linejoin="round" stroke-width=".41"/>
  <path d="M62.4 27.7c2.1-.6.9 6.9-7.4 6.8 8.1-2 5.6-6.3 7.4-6.8z" fill="#325723" stroke="#000" stroke-linecap="round" stroke-linejoin="round" stroke-width=".41"/>
  <path d="M60.5 27.9c2.2 0 1.1 5.5-5.5 6.6 5.1-2.2 3.1-6.6 5.5-6.6z" fill="#325723" stroke="#000" stroke-linecap="round" stroke-linejoin="round" stroke-width=".41"/>
  <path d="M58.1 28c2.2 0 1.3 5.2-3.1 6.5 1.8-2.2.7-6.5 3.1-6.5z" fill="#325723" stroke="#000" stroke-linecap="round" stroke-linejoin="round" stroke-width=".41"/>
  <path d="M55.1 28c-2.2 0-2 4.3 0 6.5 2-2.2 2.2-6.5 0-6.5z" fill="#325723" stroke="#000" stroke-linecap="round" stroke-linejoin="round" stroke-width=".41"/>
  <path d="M55.1 29.3c-1.4 0-1.3 3.3 0 5.1 1.2-1.8 1.4-5.1 0-5.1z" fill="#0d3a12" stroke="#000" stroke-linecap="round" stroke-linejoin="round" stroke-width=".41"/>
  <path d="M46.3 22.7a.6.6 0 0 0-.6.5.6.6 0 0 0 .4.7 25.4 25.4 0 0 0 8.8 1.4h.3a26.4 26.4 0 0 0 8.9-1.4.6.6 0 0 0 .3-.7.6.6 0 0 0-.6-.5h-.2a26.2 26.2 0 0 1-8.5 1.3 26.4 26.4 0 0 1-8.6-1.3zm.5 20.2a.5.5 0 0 0-.5.5c-.1.3.1.5.4.6a50.8 50.8 0 0 0 8.4.7 49.5 49.5 0 0 0 8.3-.7.6.6 0 0 0-.1-1.1h-.1a47 47 0 0 1-8.1.7 48.2 48.2 0 0 1-8.2-.7z" fill="#febf10" stroke="#000" stroke-linecap="round" stroke-linejoin="round" stroke-width=".41"/>
  <path d="M20.4 113.8v1.3a6.6 6.6 0 0 1-5.3 4.3c-.6 0-.3 1.4.9 1.9v1.1h13v-1c1.7-.2 2.3-2 1.6-2s-4.5-1.3-5.3-4.3v-1.3h-1.5v1.3c.4 1.1.1 1.6-.2-.6H22c-.3 2.2-.5 1.7-.2.6v-1.3z" fill="#325723"/>
  <path d="M20.4 113.8v1.3a6.6 6.6 0 0 1-5.3 4.3c-.9.1.1 2.6 2.6 1.9s3.6-4.6 4.1-6.2v-1.3zm3.4 0v1.3c.5 1.6 1.6 5.5 4.1 6.2s3.5-1.8 2.7-1.9-4.5-1.3-5.3-4.3v-1.3z" fill="#3c6d3d" stroke="#000" stroke-linecap="round" stroke-linejoin="round" stroke-width=".24"/>
  <path d="M20.4 113.8v1.3a6.6 6.6 0 0 1-5.3 4.3c-.9.1.1 2.6 2.6 1.9s3.6-4.6 4.1-6.2v-1.3zm3.4 0v1.3c.5 1.6 1.6 5.5 4.1 6.2s3.5-1.8 2.7-1.9-4.5-1.3-5.3-4.3v-1.3z" fill="#325723" stroke="#000" stroke-linecap="round" stroke-linejoin="round" stroke-width=".41"/>
  <path d="M22 114.5c-.3 2.6-1.9 4.1-1.6 6s1 1.2 2.4 1.2 2.3-.5 2.4-1.2-1.3-3.4-1.6-6H22z" fill="none" stroke="#000" stroke-linecap="round" stroke-linejoin="round" stroke-width=".41"/>
  <path d="M22.4 115c-.1 2-.9 3.1-.8 4.5a1 1 0 0 0 1.2.9c.7 0 1.2-.3 1.2-.9s-.6-2.5-.8-4.5h-.8z" fill="#0d3a12" stroke="#000" stroke-linecap="round" stroke-linejoin="round" stroke-width=".41"/>
  <path d="M18.2 121.2l2.9.2m-2.1-.8h1.4" fill="none" stroke="#000" stroke-linecap="round" stroke-linejoin="round" stroke-width=".41"/>
  <path d="M14.8 122.1h16v3.4l-8 .9-8-.9z" fill="#d09b07" stroke="#000" stroke-linecap="round" stroke-linejoin="round" stroke-width=".41"/>
  <circle cx="29.7" cy="123.7" r=".9" fill="#febf10" stroke="#000" stroke-linecap="round" stroke-linejoin="round" stroke-width=".3"/>
  <circle cx="29.7" cy="123.7" r=".3"/>
  <path d="M22.6 111.8a2.1 2.1 0 0 0-2.2 1.5 1.1 1.1 0 0 0 .9 1.4c.3-.1.4-.1.5.1a1.3 1.3 0 0 0 2.2-.2 1 1 0 0 0 1.3-1.1 2.1 2.1 0 0 0-1.9-1.7zm-2 .3a3 3 0 0 0-3 1.6c-.2.4-.2 1.2.4 1.2s.6-.6.9-.3 1.2.4 1.3-.2 0-1.6.7-2-.1-.4-.3-.3zm4.1 0c0 .4.4.5.5.9s.1 1.2.3 1.7.9.1 1.2-.1.6.4 1 .3.5-.9.3-1.3a3.2 3.2 0 0 0-3.2-1.5z" fill="red" stroke="#000" stroke-linecap="round" stroke-linejoin="round" stroke-width=".41"/>
  <path d="M27.5 121.2l-2.9.2m1.9-.8h-1.3m-5.5-.7h.6m5.7 0h-.7" fill="none" stroke="#000" stroke-linecap="round" stroke-linejoin="round" stroke-width=".41"/>
  <path d="M15.7 101.8a4.4 4.4 0 0 0-3.6 4.1 6 6 0 0 0 3.5 5.6 15.7 15.7 0 0 0 7.2 1.4 15.7 15.7 0 0 0 7.2-1.4 5.9 5.9 0 0 0 3.6-5.6 4.5 4.5 0 0 0-3.6-4.1H15.7z" fill="#febf10"/>
  <path d="M18.4 101.9s-2.6 8.1 5.6 11c0 .1-7.7.3-10.1-2.6s-2-5.4-.8-6.9 3.6-1.8 5.3-1.5z" fill="#d09b07"/>
  <path d="M15.7 101.8a4.4 4.4 0 0 0-3.6 4.1 6 6 0 0 0 3.5 5.6 15.7 15.7 0 0 0 7.2 1.4 15.7 15.7 0 0 0 7.2-1.4 5.9 5.9 0 0 0 3.6-5.6 4.5 4.5 0 0 0-3.6-4.1H15.7z" fill="none" stroke="#000" stroke-linecap="round" stroke-linejoin="round" stroke-width=".41"/>
  <path d="M14.1 98h17.4v3.7l-8.7 1.1-8.7-1.1z" fill="#d09b07" stroke="#000" stroke-linecap="round" stroke-linejoin="round" stroke-width=".41"/>
  <path d="M18.1 100.9a3 3 0 0 1-2.1.6 3.7 3.7 0 0 1-1.7-1.4 2.7 2.7 0 0 1 2.1-.6 2.8 2.8 0 0 1 1.7 1.4z" fill="#febf10" stroke="#000" stroke-linecap="round" stroke-linejoin="round" stroke-width=".3"/>
  <path fill="none" stroke="#000" stroke-linecap="round" stroke-linejoin="round" stroke-width=".3" d="M18.1 100.9l-2.1-.5"/>
  <path d="M20.3 101.3a2.8 2.8 0 0 1-2 .6 3.1 3.1 0 0 1-1.8-1.3 3.1 3.1 0 0 1 2.1-.7 2.8 2.8 0 0 1 1.7 1.4z" fill="#febf10" stroke="#000" stroke-linecap="round" stroke-linejoin="round" stroke-width=".3"/>
  <path fill="none" stroke="#000" stroke-linecap="round" stroke-linejoin="round" stroke-width=".3" d="M20.3 101.3l-2.1-.4"/>
  <path d="M22.8 101.3a3.6 3.6 0 0 1-2 .9 3.1 3.1 0 0 1-1.9-1.2 3.2 3.2 0 0 1 2-.9 3.1 3.1 0 0 1 1.9 1.2z" fill="#febf10" stroke="#000" stroke-linecap="round" stroke-linejoin="round" stroke-width=".3"/>
  <path fill="none" stroke="#000" stroke-linecap="round" stroke-linejoin="round" stroke-width=".3" d="M22.8 101.3l-2.2-.2"/>
  <path d="M27.5 100.8a3.2 3.2 0 0 0 2.1.6 2.8 2.8 0 0 0 1.7-1.4 3 3 0 0 0-2.1-.6 3.2 3.2 0 0 0-1.7 1.4z" fill="#febf10" stroke="#000" stroke-linecap="round" stroke-linejoin="round" stroke-width=".3"/>
  <path fill="none" stroke="#000" stroke-linecap="round" stroke-linejoin="round" stroke-width=".3" d="M27.5 100.8l2.1-.4"/>
  <path d="M25.3 101.2a2.8 2.8 0 0 0 2.1.7 3.2 3.2 0 0 0 1.7-1.4 3 3 0 0 0-2.1-.6 3.2 3.2 0 0 0-1.7 1.3z" fill="#febf10" stroke="#000" stroke-linecap="round" stroke-linejoin="round" stroke-width=".3"/>
  <path fill="none" stroke="#000" stroke-linecap="round" stroke-linejoin="round" stroke-width=".3" d="M25.3 101.2l2.1-.4"/>
  <path d="M22.9 101.2a2.8 2.8 0 0 0 2 .9 3.1 3.1 0 0 0 1.8-1.1 2.8 2.8 0 0 0-2-.9 2.7 2.7 0 0 0-1.8 1.1z" fill="#febf10" stroke="#000" stroke-linecap="round" stroke-linejoin="round" stroke-width=".3"/>
  <path fill="none" stroke="#000" stroke-linecap="round" stroke-linejoin="round" stroke-width=".3" d="M22.9 101.2l2.1-.1"/>
  <path d="M24.4 103.2l-.4-.2-3.3-3.3c-.2-.2-.2-.5 0-.6s.4-.2.6 0l3.4 3.3a.6.6 0 0 1 0 .6z" fill="#0065b7" stroke="#000" stroke-linecap="round" stroke-linejoin="round" stroke-width=".35"/>
  <path d="M21.1 103.3h-.3a.6.6 0 0 1 0-.6l3.1-3.1c.2-.2.5-.2.6 0s.2.5 0 .6l-3 3.1c-.1 0-.3.1-.4 0z" fill="#0065b7" stroke="#000" stroke-linecap="round" stroke-linejoin="round" stroke-width=".35"/>
  <path d="M34.8 95.6c0 2.4-5.3 4.4-12 4.4s-12-2-12-4.4c0-2.5 5.4-4.5 12-4.5s12 2 12 4.4z" fill="red"/>
  <path d="M14.1 94.5s9.2 4.3 17.2 0c.1 0 .7-.3.9.6s-1.7 2.7-7.2 2.7-9.1-.3-10.3-1-2.3-1.2-.6-2.3z" fill="#980805"/>
  <path d="M34.8 95.6c0 2.4-5.3 4.4-12 4.4s-12-2-12-4.4c0-2.5 5.4-4.5 12-4.5s12 2 12 4.4z" fill="none" stroke="#000" stroke-linecap="round" stroke-linejoin="round" stroke-width=".38"/>
  <path d="M31.5 94.5a1.3 1.3 0 0 1 .7 1c0 1.3-4.2 2.4-9.4 2.4s-9.4-1.1-9.4-2.4a1 1 0 0 1 .7-.9" fill="none" stroke="#000" stroke-linecap="round" stroke-linejoin="round" stroke-width=".36"/>
  <path d="M12.6 105.3c-1.4 0-.7 8 10.2 7.6 10.9.4 11.6-7.6 10.2-7.6h-.1a1 1 0 0 0-.6.8c-.1-.3-.3-.5-.6-.4s-.6.5-.7 1.1-.4-.9-.9-.7-.6.6-.8 1.3-.4-1.1-1-1.1-1.1.4-1.4 1.1a1.1 1.1 0 0 0-1.1-1c-.8 0-1.2.6-1.5 1.4a1.6 1.6 0 0 0-1.5-1.4c-.8 0-1.3.6-1.5 1.5-.2-.9-.6-1.5-1.5-1.5a1.1 1.1 0 0 0-1.1 1c-.3-.7-.6-1.1-1.4-1.1s-.9.4-1 1.1-.3-1.2-.8-1.3-.8.2-.9.7-.3-1-.7-1.1-.5.1-.6.4-.2-.7-.6-.8z" fill="none" stroke="#000" stroke-linecap="round" stroke-linejoin="round" stroke-width=".41"/>
  <path d="M12.7 105.3c-1.5-.6-1.1 8 10.1 7.6-11.7-1.1-8.4-7-10.1-7.6z" fill="#325723" stroke="#000" stroke-linecap="round" stroke-linejoin="round" stroke-width=".41"/>
  <path d="M13.9 105.7c-1.7-.5-1 7.2 8.9 7.2-10.1-1-7.2-6.7-8.9-7.2z" fill="#325723" stroke="#000" stroke-linecap="round" stroke-linejoin="round" stroke-width=".41"/>
  <path d="M15.5 106.1c-2.1-.6-.9 6.8 7.3 6.8-8-2.1-5.6-6.4-7.3-6.8z" fill="#325723" stroke="#000" stroke-linecap="round" stroke-linejoin="round" stroke-width=".41"/>
  <path d="M17.3 106.3c-2.2 0-1 5.5 5.5 6.6-5.1-2.3-3-6.6-5.5-6.6z" fill="#325723" stroke="#000" stroke-linecap="round" stroke-linejoin="round" stroke-width=".41"/>
  <path d="M19.8 106.4c-2.2 0-1.4 5.2 3 6.5-1.7-2.3-.6-6.5-3-6.5zm13.1-1.1c1.5-.6 1.1 8-10.1 7.6 11.7-1.1 8.4-7 10.1-7.6z" fill="#325723" stroke="#000" stroke-linecap="round" stroke-linejoin="round" stroke-width=".41"/>
  <path d="M31.7 105.7c1.7-.5 1 7.2-8.9 7.2 10.1-1 7.2-6.7 8.9-7.2z" fill="#325723" stroke="#000" stroke-linecap="round" stroke-linejoin="round" stroke-width=".41"/>
  <path d="M30.1 106.1c2.1-.6 1 6.8-7.3 6.8 8-2.1 5.6-6.4 7.3-6.8z" fill="#325723" stroke="#000" stroke-linecap="round" stroke-linejoin="round" stroke-width=".41"/>
  <path d="M28.3 106.3c2.2 0 1 5.5-5.5 6.6 5.1-2.3 3-6.6 5.5-6.6z" fill="#325723" stroke="#000" stroke-linecap="round" stroke-linejoin="round" stroke-width=".41"/>
  <path d="M25.8 106.4c2.2 0 1.4 5.2-3 6.5 1.7-2.3.6-6.5 3-6.5z" fill="#325723" stroke="#000" stroke-linecap="round" stroke-linejoin="round" stroke-width=".41"/>
  <path d="M22.8 106.4c-2.2 0-2 4.3 0 6.5 2-2.2 2.2-6.5 0-6.5z" fill="#325723" stroke="#000" stroke-linecap="round" stroke-linejoin="round" stroke-width=".41"/>
  <path d="M22.8 107.6c-1.3 0-1.2 3.4 0 5.2 1.3-1.8 1.4-5.2 0-5.2z" fill="#0d3a12" stroke="#000" stroke-linecap="round" stroke-linejoin="round" stroke-width=".41"/>
  <path d="M14 101.1a.6.6 0 0 0-.6.5.7.7 0 0 0 .4.7 29 29 0 0 0 8.8 1.4h.4a28.5 28.5 0 0 0 8.8-1.4.7.7 0 0 0 .4-.7.6.6 0 0 0-.6-.5c-.1 0-.2 0-.2.1a29.9 29.9 0 0 1-8.6 1.3 28.7 28.7 0 0 1-8.5-1.3zm.5 20.2a.5.5 0 0 0-.5.5.5.5 0 0 0 .5.5 40.3 40.3 0 0 0 8.3.8 42 42 0 0 0 8.4-.8.5.5 0 0 0 .4-.5.5.5 0 0 0-.5-.5H31a48.2 48.2 0 0 1-8.2.7 49.2 49.2 0 0 1-8.2-.7z" fill="#febf10" stroke="#000" stroke-linecap="round" stroke-linejoin="round" stroke-width=".41"/>
  <path d="M52.6 113.8v1.3a6.5 6.5 0 0 1-5.3 4.3c-.6 0-.3 1.4.9 1.9v1.1h13.1v-1c1.7-.2 2.2-2 1.5-2a6.6 6.6 0 0 1-5.3-4.3v-1.3h-1.4v1.3c.3 1.1 0 1.6-.3-.6h-1.5c-.3 2.2-.6 1.7-.3.6v-1.3z" fill="#325723"/>
  <path d="M52.6 113.8v1.3a6.5 6.5 0 0 1-5.3 4.3c-.8.1.1 2.6 2.6 1.9s3.7-4.6 4.1-6.2v-1.3zm3.5 0v1.3c.5 1.6 1.6 5.5 4.1 6.2s3.4-1.8 2.6-1.9a6.6 6.6 0 0 1-5.3-4.3v-1.3z" fill="#3c6d3d" stroke="#000" stroke-linecap="round" stroke-linejoin="round" stroke-width=".24"/>
  <path d="M52.6 113.8v1.3a6.5 6.5 0 0 1-5.3 4.3c-.8.1.1 2.6 2.6 1.9s3.7-4.6 4.1-6.2v-1.3zm3.5 0v1.3c.5 1.6 1.6 5.5 4.1 6.2s3.4-1.8 2.6-1.9a6.6 6.6 0 0 1-5.3-4.3v-1.3z" fill="#325723" stroke="#000" stroke-linecap="round" stroke-linejoin="round" stroke-width=".41"/>
  <path d="M54.3 114.5c-.3 2.6-1.9 4.1-1.6 6s1 1.2 2.4 1.2 2.2-.5 2.4-1.2-1.3-3.4-1.7-6h-1.5z" fill="none" stroke="#000" stroke-linecap="round" stroke-linejoin="round" stroke-width=".41"/>
  <path d="M54.7 115c-.2 2-1 3.1-.8 4.5s.5.9 1.2.9a1 1 0 0 0 1.2-.9c.1-1.4-.7-2.5-.8-4.5h-.8z" fill="#0d3a12" stroke="#000" stroke-linecap="round" stroke-linejoin="round" stroke-width=".41"/>
  <path d="M50.4 121.2l2.9.2m-2-.8h1.4" fill="none" stroke="#000" stroke-linecap="round" stroke-linejoin="round" stroke-width=".41"/>
  <path d="M47.1 122.1H63v3.4l-7.9.9-8-.9z" fill="#d09b07" stroke="#000" stroke-linecap="round" stroke-linejoin="round" stroke-width=".41"/>
  <circle cx="62" cy="123.7" r=".9" fill="#febf10" stroke="#000" stroke-linecap="round" stroke-linejoin="round" stroke-width=".3"/>
  <circle cx="62" cy="123.7" r=".3"/>
  <path d="M54.8 111.8a2 2 0 0 0-2.1 1.5 1 1 0 0 0 .9 1.4c.2-.1.3-.1.4.1s1.9.7 2.2-.2a1 1 0 0 0 1.3-1.1 2.1 2.1 0 0 0-1.8-1.7zm-2 .3a3 3 0 0 0-2.9 1.6c-.2.4-.3 1.2.3 1.2s.7-.6 1-.3 1.2.4 1.2-.2a2.4 2.4 0 0 1 .7-2c.2-.3-.1-.4-.3-.3zm4.2 0c-.1.4.3.5.5.9s0 1.2.3 1.7.8.1 1.2-.1.5.4 1 .3.4-.9.2-1.3a3.2 3.2 0 0 0-3.2-1.5z" fill="red" stroke="#000" stroke-linecap="round" stroke-linejoin="round" stroke-width=".41"/>
  <path d="M59.8 121.2l-3 .2m2-.8h-1.3m-5.6-.7h.7m5.6 0h-.6" fill="none" stroke="#000" stroke-linecap="round" stroke-linejoin="round" stroke-width=".41"/>
  <path d="M47.9 101.8a4.4 4.4 0 0 0-3.6 4.1 5.9 5.9 0 0 0 3.6 5.6 15.5 15.5 0 0 0 7.2 1.4 15.3 15.3 0 0 0 7.1-1.4 5.9 5.9 0 0 0 3.6-5.6 4.4 4.4 0 0 0-3.6-4.1H47.9z" fill="#febf10"/>
  <path d="M50.7 101.9s-2.6 8.1 5.5 11c0 .1-7.6.3-10.1-2.6s-2-5.4-.7-6.9 3.5-1.8 5.3-1.5z" fill="#d09b07"/>
  <path d="M47.9 101.8a4.4 4.4 0 0 0-3.6 4.1 5.9 5.9 0 0 0 3.6 5.6 15.5 15.5 0 0 0 7.2 1.4 15.3 15.3 0 0 0 7.1-1.4 5.9 5.9 0 0 0 3.6-5.6 4.4 4.4 0 0 0-3.6-4.1H47.9z" fill="none" stroke="#000" stroke-linecap="round" stroke-linejoin="round" stroke-width=".41"/>
  <path d="M46.4 98h17.3v3.7l-8.6 1.1-8.7-1.1z" fill="#d09b07" stroke="#000" stroke-linecap="round" stroke-linejoin="round" stroke-width=".41"/>
  <path d="M50.4 100.9a3.2 3.2 0 0 1-2.1.6 3.1 3.1 0 0 1-1.7-1.4 2.5 2.5 0 0 1 2.1-.6 3.2 3.2 0 0 1 1.7 1.4z" fill="#febf10" stroke="#000" stroke-linecap="round" stroke-linejoin="round" stroke-width=".3"/>
  <path fill="none" stroke="#000" stroke-linecap="round" stroke-linejoin="round" stroke-width=".3" d="M50.4 100.9l-2.1-.5"/>
  <path d="M52.6 101.3a3 3 0 0 1-2.1.6 3.2 3.2 0 0 1-1.7-1.3 2.8 2.8 0 0 1 2.1-.7 3.2 3.2 0 0 1 1.7 1.4z" fill="#febf10" stroke="#000" stroke-linecap="round" stroke-linejoin="round" stroke-width=".3"/>
  <path fill="none" stroke="#000" stroke-linecap="round" stroke-linejoin="round" stroke-width=".3" d="M52.6 101.3l-2.1-.4"/>
  <path d="M55 101.3a3.2 3.2 0 0 1-2 .9 3.1 3.1 0 0 1-1.8-1.2 3.2 3.2 0 0 1 2-.9 3.1 3.1 0 0 1 1.8 1.2z" fill="#febf10" stroke="#000" stroke-linecap="round" stroke-linejoin="round" stroke-width=".3"/>
  <path fill="none" stroke="#000" stroke-linecap="round" stroke-linejoin="round" stroke-width=".3" d="M55 101.3l-2.1-.2"/>
  <path d="M59.8 100.8a3 3 0 0 0 2.1.6 3.2 3.2 0 0 0 1.7-1.4 3.2 3.2 0 0 0-2.1-.6 2.8 2.8 0 0 0-1.7 1.4z" fill="#febf10" stroke="#000" stroke-linecap="round" stroke-linejoin="round" stroke-width=".3"/>
  <path fill="none" stroke="#000" stroke-linecap="round" stroke-linejoin="round" stroke-width=".3" d="M59.8 100.8l2.1-.4"/>
  <path d="M57.6 101.2a2.7 2.7 0 0 0 2 .7 3.1 3.1 0 0 0 1.8-1.4 3.2 3.2 0 0 0-2.1-.6 2.8 2.8 0 0 0-1.7 1.3z" fill="#febf10" stroke="#000" stroke-linecap="round" stroke-linejoin="round" stroke-width=".3"/>
  <path fill="none" stroke="#000" stroke-linecap="round" stroke-linejoin="round" stroke-width=".3" d="M57.6 101.2l2.1-.4"/>
  <path d="M55.1 101.2a3 3 0 0 0 2 .9A3.2 3.2 0 0 0 59 101a2.4 2.4 0 0 0-3.9.2z" fill="#febf10" stroke="#000" stroke-linecap="round" stroke-linejoin="round" stroke-width=".3"/>
  <path fill="none" stroke="#000" stroke-linecap="round" stroke-linejoin="round" stroke-width=".3" d="M55.1 101.2l2.2-.1"/>
  <path d="M56.7 103.2a.5.5 0 0 1-.4-.2l-3.4-3.3c-.2-.2-.2-.5 0-.6s.5-.2.6 0l3.4 3.3c.2.2.2.5 0 .6z" fill="#0065b7" stroke="#000" stroke-linecap="round" stroke-linejoin="round" stroke-width=".35"/>
  <path d="M53.3 103.3h-.2a.4.4 0 0 1 0-.6l3.1-3.1c.1-.2.4-.2.6 0s.2.5 0 .6l-3.1 3.1c-.1 0-.2.1-.4 0z" fill="#0065b7" stroke="#000" stroke-linecap="round" stroke-linejoin="round" stroke-width=".35"/>
  <path d="M67.1 95.6c0 2.4-5.4 4.4-12 4.4S43 98 43 95.6c0-2.5 5.4-4.5 12.1-4.5s12 2 12 4.4z" fill="red"/>
  <path d="M46.3 94.5s9.3 4.3 17.3 0c0 0 .6-.3.9.6s-1.7 2.7-7.3 2.7-9-.3-10.2-1-2.3-1.2-.7-2.3z" fill="#980805"/>
  <path d="M67.1 95.6c0 2.4-5.4 4.4-12 4.4S43 98 43 95.6c0-2.5 5.4-4.5 12.1-4.5s12 2 12 4.4z" fill="none" stroke="#000" stroke-linecap="round" stroke-linejoin="round" stroke-width=".38"/>
  <path d="M63.8 94.5a1.5 1.5 0 0 1 .7 1c0 1.3-4.2 2.4-9.4 2.4s-9.5-1.1-9.5-2.4a1.2 1.2 0 0 1 .7-.9" fill="none" stroke="#000" stroke-linecap="round" stroke-linejoin="round" stroke-width=".36"/>
  <path d="M44.8 105.3c-1.3 0-.6 8 10.2 7.6h.1c10.8.4 11.5-7.6 10.2-7.6h-.2c-.3.1-.4.4-.5.8s-.3-.5-.6-.4-.6.5-.7 1.1-.4-.9-.9-.7-.7.6-.8 1.3-.5-1.1-1.1-1.1a1.3 1.3 0 0 0-1.3 1.1 1.1 1.1 0 0 0-1.1-1c-.9 0-1.3.6-1.5 1.4a1.6 1.6 0 0 0-1.5-1.4c-.8 0-1.3.6-1.5 1.5-.3-.9-.7-1.5-1.6-1.5s-.9.4-1.1 1-.5-1.1-1.3-1.1a1 1 0 0 0-1 1.1c-.2-.7-.3-1.2-.9-1.3s-.8.2-.9.7-.2-1-.6-1.1-.5.1-.7.4-.2-.7-.5-.8z" fill="none" stroke="#000" stroke-linecap="round" stroke-linejoin="round" stroke-width=".41"/>
  <path d="M45 105.3c-1.6-.6-1.2 8 10.1 7.6-11.8-1.1-8.4-7-10.1-7.6z" fill="#325723" stroke="#000" stroke-linecap="round" stroke-linejoin="round" stroke-width=".41"/>
  <path d="M46.2 105.7c-1.7-.5-1.1 7.2 8.9 7.2-10.2-1-7.2-6.7-8.9-7.2z" fill="#325723" stroke="#000" stroke-linecap="round" stroke-linejoin="round" stroke-width=".41"/>
  <path d="M47.7 106.1c-2.1-.6-.9 6.8 7.4 6.8-8.1-2.1-5.6-6.4-7.4-6.8z" fill="#325723" stroke="#000" stroke-linecap="round" stroke-linejoin="round" stroke-width=".41"/>
  <path d="M49.6 106.3c-2.2 0-1.1 5.5 5.5 6.6-5.1-2.3-3-6.6-5.5-6.6z" fill="#325723" stroke="#000" stroke-linecap="round" stroke-linejoin="round" stroke-width=".41"/>
  <path d="M52 106.4c-2.2 0-1.3 5.2 3.1 6.5-1.8-2.3-.7-6.5-3.1-6.5z" fill="#325723" stroke="#000" stroke-linecap="round" stroke-linejoin="round" stroke-width=".41"/>
  <path d="M65.1 105.3c1.6-.6 1.2 8-10.1 7.6 11.8-1.1 8.4-7 10.1-7.6z" fill="#325723" stroke="#000" stroke-linecap="round" stroke-linejoin="round" stroke-width=".41"/>
  <path d="M64 105.7c1.6-.5 1 7.2-9 7.2 10.2-1 7.2-6.7 9-7.2z" fill="#325723" stroke="#000" stroke-linecap="round" stroke-linejoin="round" stroke-width=".41"/>
  <path d="M62.4 106.1c2.1-.6.9 6.8-7.4 6.8 8.1-2.1 5.6-6.4 7.4-6.8z" fill="#325723" stroke="#000" stroke-linecap="round" stroke-linejoin="round" stroke-width=".41"/>
  <path d="M60.5 106.3c2.2 0 1.1 5.5-5.5 6.6 5.1-2.3 3.1-6.6 5.5-6.6z" fill="#325723" stroke="#000" stroke-linecap="round" stroke-linejoin="round" stroke-width=".41"/>
  <path d="M58.1 106.4c2.2 0 1.3 5.2-3.1 6.5 1.8-2.3.7-6.5 3.1-6.5z" fill="#325723" stroke="#000" stroke-linecap="round" stroke-linejoin="round" stroke-width=".41"/>
  <path d="M55.1 106.4c-2.2 0-2 4.3 0 6.5 2-2.2 2.2-6.5 0-6.5z" fill="#325723" stroke="#000" stroke-linecap="round" stroke-linejoin="round" stroke-width=".41"/>
  <path d="M55.1 107.6c-1.4 0-1.3 3.4 0 5.2 1.2-1.8 1.4-5.2 0-5.2z" fill="#0d3a12" stroke="#000" stroke-linecap="round" stroke-linejoin="round" stroke-width=".41"/>
  <path d="M46.3 101.1a.6.6 0 0 0-.6.5.6.6 0 0 0 .4.7 28 28 0 0 0 8.8 1.4h.3a29.1 29.1 0 0 0 8.9-1.4.6.6 0 0 0 .3-.7.6.6 0 0 0-.6-.5h-.2a28.8 28.8 0 0 1-17.1 0zm.5 20.2a.5.5 0 0 0-.5.5c-.1.3.1.5.4.5a41.3 41.3 0 0 0 8.4.8 40.3 40.3 0 0 0 8.3-.8.5.5 0 0 0 .5-.5.6.6 0 0 0-.6-.5h-.1a47 47 0 0 1-8.1.7 48.2 48.2 0 0 1-8.2-.7z" fill="#febf10" stroke="#000" stroke-linecap="round" stroke-linejoin="round" stroke-width=".41"/>
  <path d="M36.5 74.6v1.3a6 6 0 0 1-5.2 4.2c-.6.1-.3 1.5.9 1.9v1.2h13v-1c1.7-.2 2.2-2 1.5-2.1a6 6 0 0 1-5.2-4.2v-1.3H40v1.3c.3 1.1.1 1.6-.2-.6h-1.6c-.3 2.2-.5 1.7-.2.6v-1.3z" fill="#325723"/>
  <path d="M36.5 74.6v1.3a6 6 0 0 1-5.2 4.2c-.9.1.1 2.7 2.6 2s3.6-4.6 4.1-6.2v-1.3zm3.5 0v1.3c.5 1.6 1.6 5.5 4.1 6.2s3.5-1.9 2.6-2a6 6 0 0 1-5.2-4.2v-1.3z" fill="#3c6d3d" stroke="#000" stroke-linecap="round" stroke-linejoin="round" stroke-width=".24"/>
  <path d="M36.5 74.6v1.3a6 6 0 0 1-5.2 4.2c-.9.1.1 2.7 2.6 2s3.6-4.6 4.1-6.2v-1.3zm3.5 0v1.3c.5 1.6 1.6 5.5 4.1 6.2s3.5-1.9 2.6-2a6 6 0 0 1-5.2-4.2v-1.3z" fill="#325723" stroke="#000" stroke-linecap="round" stroke-linejoin="round" stroke-width=".41"/>
  <path d="M38.2 75.3c-.3 2.6-1.9 4.1-1.6 6s1 1.1 2.4 1.1 2.3-.4 2.4-1.1-1.3-3.4-1.6-6h-1.6z" fill="none" stroke="#000" stroke-linecap="round" stroke-linejoin="round" stroke-width=".41"/>
  <path d="M38.6 75.8c-.1 1.9-.9 3.1-.8 4.5a1 1 0 0 0 1.2.9c.7 0 1.2-.3 1.2-.9s-.6-2.6-.8-4.5h-.8z" fill="#0d3a12" stroke="#000" stroke-linecap="round" stroke-linejoin="round" stroke-width=".41"/>
  <path d="M34.3 82l3 .2m-2.1-.9a3.3 3.3 0 0 0 1.4.1" fill="none" stroke="#000" stroke-linecap="round" stroke-linejoin="round" stroke-width=".41"/>
  <path d="M31 82.9h16v3.3l-8 1-8-1z" fill="#d09b07" stroke="#000" stroke-linecap="round" stroke-linejoin="round" stroke-width=".41"/>
  <circle cx="32.1" cy="84.5" r=".9" fill="#febf10" stroke="#000" stroke-linecap="round" stroke-linejoin="round" stroke-width=".3"/>
  <circle cx="32.1" cy="84.5" r=".3"/>
  <circle cx="34.1" cy="84.8" r=".9" fill="#febf10" stroke="#000" stroke-linecap="round" stroke-linejoin="round" stroke-width=".3"/>
  <circle cx="34.1" cy="84.8" r=".3"/>
  <circle cx="36.1" cy="84.9" r=".9" fill="#febf10" stroke="#000" stroke-linecap="round" stroke-linejoin="round" stroke-width=".3"/>
  <circle cx="36.1" cy="84.9" r=".3"/>
  <circle cx="38.1" cy="85" r=".9" fill="#febf10" stroke="#000" stroke-linecap="round" stroke-linejoin="round" stroke-width=".3"/>
  <circle cx="38.1" cy="85" r=".3"/>
  <circle cx="40.1" cy="85" r=".9" fill="#febf10" stroke="#000" stroke-linecap="round" stroke-linejoin="round" stroke-width=".3"/>
  <circle cx="40.1" cy="85" r=".3"/>
  <circle cx="42.1" cy="84.9" r=".9" fill="#febf10" stroke="#000" stroke-linecap="round" stroke-linejoin="round" stroke-width=".3"/>
  <circle cx="42.1" cy="84.9" r=".3"/>
  <circle cx="44.1" cy="84.7" r=".9" fill="#febf10" stroke="#000" stroke-linecap="round" stroke-linejoin="round" stroke-width=".3"/>
  <circle cx="44.1" cy="84.7" r=".3"/>
  <circle cx="45.9" cy="84.5" r=".9" fill="#febf10" stroke="#000" stroke-linecap="round" stroke-linejoin="round" stroke-width=".3"/>
  <circle cx="45.9" cy="84.5" r=".3"/>
  <path d="M38.8 72.6a2.1 2.1 0 0 0-2.2 1.5c-.2.6.2 1.4.9 1.3s.4-.1.5.2a1.4 1.4 0 0 0 2.2-.2.9.9 0 0 0 1.2-1.2 1.8 1.8 0 0 0-1.8-1.6zm-2 .3a2.9 2.9 0 0 0-3 1.6c-.2.4-.2 1.1.4 1.2s.6-.6.9-.3 1.2.4 1.3-.2a2.4 2.4 0 0 1 .7-2.1c.1-.2-.1-.3-.3-.2zm4.1 0c0 .3.4.5.5.8s.1 1.2.3 1.8.9.1 1.2-.1.6.4 1 .3.5-.9.2-1.3a3 3 0 0 0-3.1-1.5z" fill="red" stroke="#000" stroke-linecap="round" stroke-linejoin="round" stroke-width=".41"/>
  <path d="M31 85.5a.9.9 0 0 0-.9.9 1 1 0 0 0 .8 1 47.2 47.2 0 0 0 16.2 0 1 1 0 0 0 .8-1 .9.9 0 0 0-.9-.9h-.2a43.8 43.8 0 0 1-15.6 0z" fill="#febf10" stroke="#000" stroke-linecap="round" stroke-linejoin="round" stroke-width=".41"/>
  <path d="M43.7 82l-2.9.2m1.9-.8h-1.3m-5.5-.8h.6m5.7.1h-.7" fill="none" stroke="#000" stroke-linecap="round" stroke-linejoin="round" stroke-width=".41"/>
  <path d="M31.8 62.6a4.3 4.3 0 0 0-3.5 4.1 5.8 5.8 0 0 0 3.5 5.6 17.1 17.1 0 0 0 7.2 1.4 17.1 17.1 0 0 0 7.2-1.4 6 6 0 0 0 3.5-5.6 4.3 4.3 0 0 0-3.5-4.1H31.8z" fill="#febf10"/>
  <path d="M34.6 62.7s-2.6 8 5.6 11c0 0-7.7.3-10.1-2.7s-2-5.3-.8-6.8 3.6-1.9 5.3-1.5z" fill="#d09b07"/>
  <path d="M31.8 62.6a4.3 4.3 0 0 0-3.5 4.1 5.8 5.8 0 0 0 3.5 5.6 17.1 17.1 0 0 0 7.2 1.4 17.1 17.1 0 0 0 7.2-1.4 6 6 0 0 0 3.5-5.6 4.3 4.3 0 0 0-3.5-4.1H31.8z" fill="none" stroke="#000" stroke-linecap="round" stroke-linejoin="round" stroke-width=".41"/>
  <path d="M30.3 58.8h17.4v3.7L39 63.6l-8.7-1.1z" fill="#d09b07" stroke="#000" stroke-linecap="round" stroke-linejoin="round" stroke-width=".41"/>
  <path d="M34.3 61.6a2.5 2.5 0 0 1-2.1.6 3.2 3.2 0 0 1-1.7-1.4 3.2 3.2 0 0 1 2.1-.6 3.1 3.1 0 0 1 1.7 1.4z" fill="#febf10" stroke="#000" stroke-linecap="round" stroke-linejoin="round" stroke-width=".3"/>
  <path fill="none" stroke="#000" stroke-linecap="round" stroke-linejoin="round" stroke-width=".3" d="M34.3 61.6l-2.1-.4"/>
  <path d="M36.5 62a2.8 2.8 0 0 1-2.1.7 3.2 3.2 0 0 1-1.7-1.3 2.8 2.8 0 0 1 2.1-.7 2.8 2.8 0 0 1 1.7 1.3z" fill="#febf10" stroke="#000" stroke-linecap="round" stroke-linejoin="round" stroke-width=".3"/>
  <path fill="none" stroke="#000" stroke-linecap="round" stroke-linejoin="round" stroke-width=".3" d="M36.5 62l-2.1-.3"/>
  <path d="M39 62a3 3 0 0 1-2 .9 2.7 2.7 0 0 1-1.9-1.1 2.8 2.8 0 0 1 2-.9A3.2 3.2 0 0 1 39 62z" fill="#febf10" stroke="#000" stroke-linecap="round" stroke-linejoin="round" stroke-width=".3"/>
  <path fill="none" stroke="#000" stroke-linecap="round" stroke-linejoin="round" stroke-width=".3" d="M39 62l-2.2-.1"/>
  <path d="M43.7 61.6a3.2 3.2 0 0 0 2.1.6 2.8 2.8 0 0 0 1.7-1.4 3.2 3.2 0 0 0-2.1-.6 2.8 2.8 0 0 0-1.7 1.4z" fill="#febf10" stroke="#000" stroke-linecap="round" stroke-linejoin="round" stroke-width=".3"/>
  <path fill="none" stroke="#000" stroke-linecap="round" stroke-linejoin="round" stroke-width=".3" d="M43.7 61.6l2.1-.4"/>
  <path d="M41.5 62a2.8 2.8 0 0 0 2.1.7 3.2 3.2 0 0 0 1.7-1.4 3 3 0 0 0-2.1-.6 3.2 3.2 0 0 0-1.7 1.3z" fill="#febf10" stroke="#000" stroke-linecap="round" stroke-linejoin="round" stroke-width=".3"/>
  <path fill="none" stroke="#000" stroke-linecap="round" stroke-linejoin="round" stroke-width=".3" d="M41.5 62l2.1-.4"/>
  <path d="M39.1 62a2.8 2.8 0 0 0 2 .9 3.1 3.1 0 0 0 1.8-1.1 2.8 2.8 0 0 0-2-.9 2.7 2.7 0 0 0-1.8 1.1z" fill="#febf10" stroke="#000" stroke-linecap="round" stroke-linejoin="round" stroke-width=".3"/>
  <path fill="none" stroke="#000" stroke-linecap="round" stroke-linejoin="round" stroke-width=".3" d="M39.1 62l2.1-.1"/>
  <path d="M40.6 63.9c-.1.1-.3 0-.4-.1l-3.4-3.3a.9.9 0 0 1 0-.7h.7l3.3 3.4a.4.4 0 0 1 0 .6c0 .1-.1.1-.2.1z" fill="#0065b7" stroke="#000" stroke-linecap="round" stroke-linejoin="round" stroke-width=".35"/>
  <path d="M37.3 64.1H37a.6.6 0 0 1 0-.6l3.1-3.1c.2-.2.5-.2.6 0s.2.5 0 .6l-3 3.1z" fill="#0065b7" stroke="#000" stroke-linecap="round" stroke-linejoin="round" stroke-width=".35"/>
  <path d="M51 56.3c0 2.5-5.4 4.5-12 4.5s-12-2-12-4.5c0-2.4 5.4-4.4 12-4.4s12 2 12 4.4z" fill="red"/>
  <path d="M30.3 55.3s9.2 4.3 17.2-.1c.1.1.6-.3.9.7s-1.7 2.7-7.2 2.7-9.1-.4-10.3-1-2.3-1.3-.6-2.3z" fill="#980805"/>
  <path d="M51 56.3c0 2.5-5.4 4.5-12 4.5s-12-2-12-4.5c0-2.4 5.4-4.4 12-4.4s12 2 12 4.4z" fill="none" stroke="#000" stroke-linecap="round" stroke-linejoin="round" stroke-width=".38"/>
  <path d="M47.7 55.3c.5.3.7.6.7 1 0 1.3-4.2 2.4-9.4 2.4s-9.4-1.1-9.4-2.4c0-.4.2-.7.7-1" fill="none" stroke="#000" stroke-linecap="round" stroke-linejoin="round" stroke-width=".36"/>
  <path d="M28.8 66c-1.4.1-.7 8 10.2 7.7 10.9.3 11.6-7.6 10.2-7.7h-.1a1 1 0 0 0-.6.8c-.1-.4-.3-.5-.6-.4s-.6.5-.7 1.1-.4-.9-.9-.7-.6.6-.8 1.2-.4-1-1-1a1.4 1.4 0 0 0-1.4 1 1.1 1.1 0 0 0-1.1-.9 1.5 1.5 0 0 0-1.5 1.3 1.5 1.5 0 0 0-1.5-1.2 1.6 1.6 0 0 0-1.5 1.4c-.2-.8-.6-1.4-1.5-1.4a1.1 1.1 0 0 0-1.1.9 1.4 1.4 0 0 0-1.4-1c-.6 0-.9.4-1 1s-.3-1.1-.8-1.2-.8.1-.9.7-.3-1-.7-1.1-.5 0-.6.4a1 1 0 0 0-.6-.8z" fill="none" stroke="#000" stroke-linecap="round" stroke-linejoin="round" stroke-width=".41"/>
  <path d="M28.9 66.1c-1.5-.6-1.1 8 10.1 7.6-11.7-1.1-8.4-7.1-10.1-7.6z" fill="#325723" stroke="#000" stroke-linecap="round" stroke-linejoin="round" stroke-width=".41"/>
  <path d="M30.1 66.5c-1.7-.5-1 7.2 8.9 7.2-10.1-1-7.2-6.7-8.9-7.2z" fill="#325723" stroke="#000" stroke-linecap="round" stroke-linejoin="round" stroke-width=".41"/>
  <path d="M31.7 66.9c-2.1-.6-.9 6.8 7.3 6.8-8-2.1-5.6-6.4-7.3-6.8z" fill="#325723" stroke="#000" stroke-linecap="round" stroke-linejoin="round" stroke-width=".41"/>
  <path d="M33.5 67.1c-2.2 0-1 5.4 5.5 6.6-5.1-2.3-3-6.6-5.5-6.6z" fill="#325723" stroke="#000" stroke-linecap="round" stroke-linejoin="round" stroke-width=".41"/>
  <path d="M36 67.2c-2.2 0-1.4 5.2 3 6.5-1.7-2.3-.6-6.5-3-6.5zm13.1-1.1c1.5-.6 1.1 8-10.1 7.6 11.7-1.1 8.4-7.1 10.1-7.6z" fill="#325723" stroke="#000" stroke-linecap="round" stroke-linejoin="round" stroke-width=".41"/>
  <path d="M47.9 66.5c1.7-.5 1 7.2-8.9 7.2 10.1-1 7.2-6.7 8.9-7.2z" fill="#325723" stroke="#000" stroke-linecap="round" stroke-linejoin="round" stroke-width=".41"/>
  <path d="M46.3 66.9c2.1-.6.9 6.8-7.3 6.8 8-2.1 5.6-6.4 7.3-6.8z" fill="#325723" stroke="#000" stroke-linecap="round" stroke-linejoin="round" stroke-width=".41"/>
  <path d="M44.5 67.1c2.2 0 1 5.4-5.5 6.6 5.1-2.3 3-6.6 5.5-6.6z" fill="#325723" stroke="#000" stroke-linecap="round" stroke-linejoin="round" stroke-width=".41"/>
  <path d="M42 67.2c2.2 0 1.4 5.2-3 6.5 1.7-2.3.6-6.5 3-6.5z" fill="#325723" stroke="#000" stroke-linecap="round" stroke-linejoin="round" stroke-width=".41"/>
  <path d="M39 67.2c-2.2 0-2 4.2 0 6.5 2-2.3 2.2-6.5 0-6.5z" fill="#325723" stroke="#000" stroke-linecap="round" stroke-linejoin="round" stroke-width=".41"/>
  <path d="M39 68.4c-1.4 0-1.2 3.4 0 5.1 1.3-1.7 1.4-5.1 0-5.1z" fill="#0d3a12" stroke="#000" stroke-linecap="round" stroke-linejoin="round" stroke-width=".41"/>
  <path d="M30.2 61.9a.6.6 0 0 0-.6.5.5.5 0 0 0 .4.6 25.7 25.7 0 0 0 8.8 1.5h.4A26.1 26.1 0 0 0 48 63a.5.5 0 0 0 .4-.6.6.6 0 0 0-.6-.5h-.2a27.1 27.1 0 0 1-17.2 0zm.5 20.2a.5.5 0 0 0-.5.5c0 .2.2.5.4.5a50.7 50.7 0 0 0 16.8 0c.2 0 .4-.3.4-.5a.5.5 0 0 0-.5-.5h-.1a48.4 48.4 0 0 1-16.4 0z" fill="#febf10" stroke="#000" stroke-linecap="round" stroke-linejoin="round" stroke-width=".41"/>
  <path fill="none" stroke="#000" stroke-linecap="round" stroke-linejoin="round" stroke-width=".4" d="M8 7.9h62v124.31H8z"/>
</svg>
