<svg xmlns="http://www.w3.org/2000/svg" viewBox="0 0 78 140">
  <rect width="78" height="140" rx="6" ry="6" fill="#fff"/>
  <path d="M18.7 31.5v1.1a5.4 5.4 0 0 1-4.4 3.6c-.5 0-.2 1.1.8 1.5v1h10.8v-.9c1.4-.1 1.9-1.6 1.3-1.6a5.4 5.4 0 0 1-4.4-3.6v-1.1h-1.2v1.1c.3.9 0 1.4-.2-.5h-1.3c-.2 1.9-.5 1.4-.2.5v-1.1z" fill="#325723"/>
  <path d="M18.7 31.5v1.1a5.4 5.4 0 0 1-4.4 3.6c-.6 0 .1 2.1 2.2 1.6s3-3.8 3.4-5.2v-1.1zm2.9 0v1.1c.4 1.4 1.3 4.6 3.4 5.2s2.9-1.6 2.2-1.6a5.4 5.4 0 0 1-4.4-3.6v-1.1z" fill="#3c6d3d" stroke="#000" stroke-linecap="round" stroke-linejoin="round" stroke-width=".24"/>
  <path d="M18.7 31.5v1.1a5.4 5.4 0 0 1-4.4 3.6c-.6 0 .1 2.1 2.2 1.6s3-3.8 3.4-5.2v-1.1zm2.9 0v1.1c.4 1.4 1.3 4.6 3.4 5.2s2.9-1.6 2.2-1.6a5.4 5.4 0 0 1-4.4-3.6v-1.1z" fill="#325723" stroke="#000" stroke-linecap="round" stroke-linejoin="round" stroke-width=".41"/>
  <path d="M20.1 32.1c-.3 2.2-1.6 3.4-1.3 5s.8 1 2 1 1.8-.4 1.9-1-1-2.8-1.3-5h-1.3z" fill="none" stroke="#000" stroke-linecap="round" stroke-linejoin="round" stroke-width=".41"/>
  <path d="M20.5 32.6c-.2 1.6-.8 2.5-.7 3.7s.4.7 1 .7a.9.9 0 0 0 1-.7c.1-1.2-.6-2.1-.7-3.7h-.6z" fill="#0d3a12" stroke="#000" stroke-linecap="round" stroke-linejoin="round" stroke-width=".41"/>
  <path d="M16.9 37.7h2.4m-1.7-.5h1.2" fill="none" stroke="#000" stroke-linecap="round" stroke-linejoin="round" stroke-width=".41"/>
  <path d="M14.2 38.5h13.2v2.7l-6.6.8-6.6-.8z" fill="#d09b07" stroke="#000" stroke-linecap="round" stroke-linejoin="round" stroke-width=".41"/>
  <circle cx="15.1" cy="39.8" r=".7" fill="#febf10" stroke="#000" stroke-linecap="round" stroke-linejoin="round" stroke-width=".3"/>
  <circle cx="15.1" cy="39.8" r=".2"/>
  <circle cx="16.7" cy="40" r=".7" fill="#febf10" stroke="#000" stroke-linecap="round" stroke-linejoin="round" stroke-width=".3"/>
  <circle cx="16.7" cy="40" r=".2"/>
  <circle cx="18.4" cy="40.1" r=".7" fill="#febf10" stroke="#000" stroke-linecap="round" stroke-linejoin="round" stroke-width=".3"/>
  <circle cx="18.4" cy="40.1" r=".2"/>
  <circle cx="20.1" cy="40.2" r=".7" fill="#febf10" stroke="#000" stroke-linecap="round" stroke-linejoin="round" stroke-width=".3"/>
  <circle cx="20.1" cy="40.2" r=".2"/>
  <circle cx="21.7" cy="40.2" r=".7" fill="#febf10" stroke="#000" stroke-linecap="round" stroke-linejoin="round" stroke-width=".3"/>
  <circle cx="21.7" cy="40.2" r=".2"/>
  <circle cx="23.3" cy="40.1" r=".7" fill="#febf10" stroke="#000" stroke-linecap="round" stroke-linejoin="round" stroke-width=".3"/>
  <circle cx="23.3" cy="40.1" r=".2"/>
  <circle cx="25" cy="40" r=".7" fill="#febf10" stroke="#000" stroke-linecap="round" stroke-linejoin="round" stroke-width=".3"/>
  <circle cx="25" cy="40" r=".2"/>
  <circle cx="26.5" cy="39.8" r=".7" fill="#febf10" stroke="#000" stroke-linecap="round" stroke-linejoin="round" stroke-width=".3"/>
  <circle cx="26.5" cy="39.8" r=".2"/>
  <path d="M20.6 29.9a1.7 1.7 0 0 0-1.8 1.2.9.9 0 0 0 .7 1.2c.2-.1.3-.1.4.1a1.1 1.1 0 0 0 1.8-.2.8.8 0 0 0 1.1-.9 1.7 1.7 0 0 0-1.6-1.4zm-1.7.2a2.5 2.5 0 0 0-2.4 1.3c-.2.4-.2 1 .3 1.1s.5-.5.7-.3 1 .4 1.1-.1 0-1.4.5-1.8 0-.2-.2-.2zm3.4.1c0 .2.3.4.5.6s0 1 .2 1.5.7.1 1-.1.5.4.8.3.4-.8.2-1.1a2.5 2.5 0 0 0-2.6-1.3z" fill="red" stroke="#000" stroke-linecap="round" stroke-linejoin="round" stroke-width=".41"/>
  <path d="M14.1 40.6a.7.7 0 0 0-.7.7.6.6 0 0 0 .6.8 34.4 34.4 0 0 0 6.8.6 33.3 33.3 0 0 0 6.7-.6.6.6 0 0 0 .6-.8.7.7 0 0 0-.7-.7h-.2a38.7 38.7 0 0 1-6.4.6 39 39 0 0 1-6.5-.6z" fill="#febf10" stroke="#000" stroke-linecap="round" stroke-linejoin="round" stroke-width=".41"/>
  <path d="M24.7 37.7h-2.5m1.6-.5h-1m-4.7-.6h.6m4.7 0a.6.6 0 0 1-.6 0" fill="none" stroke="#000" stroke-linecap="round" stroke-linejoin="round" stroke-width=".41"/>
  <path d="M14.8 21.6a3.6 3.6 0 0 0-2.9 3.4 4.6 4.6 0 0 0 2.9 4.6 13.2 13.2 0 0 0 6 1.2 13 13 0 0 0 5.9-1.2 4.7 4.7 0 0 0 3-4.6 3.6 3.6 0 0 0-3-3.4H14.8z" fill="#febf10"/>
  <path d="M17.1 21.7s-2.1 6.7 4.6 9.1c0 .1-6.3.2-8.4-2.2s-1.6-4.4-.6-5.7 3-1.5 4.4-1.2z" fill="#d09b07"/>
  <path d="M14.8 21.6a3.6 3.6 0 0 0-2.9 3.4 4.6 4.6 0 0 0 2.9 4.6 13.2 13.2 0 0 0 6 1.2 13 13 0 0 0 5.9-1.2 4.7 4.7 0 0 0 3-4.6 3.6 3.6 0 0 0-3-3.4H14.8z" fill="none" stroke="#000" stroke-linecap="round" stroke-linejoin="round" stroke-width=".41"/>
  <path d="M13.6 18.4h14.3v3.2l-7.1.9-7.2-.9z" fill="#d09b07" stroke="#000" stroke-linecap="round" stroke-linejoin="round" stroke-width=".41"/>
  <path d="M16.9 20.8a2.5 2.5 0 0 1-1.8.5 2.9 2.9 0 0 1-1.4-1.1 2.5 2.5 0 0 1 1.8-.5 2.9 2.9 0 0 1 1.4 1.1z" fill="#febf10" stroke="#000" stroke-linecap="round" stroke-linejoin="round" stroke-width=".3"/>
  <path fill="none" stroke="#000" stroke-linecap="round" stroke-linejoin="round" stroke-width=".3" d="M16.9 20.8l-1.8-.3"/>
  <path d="M18.7 21.2a2.2 2.2 0 0 1-1.7.5 2.8 2.8 0 0 1-1.5-1.1 2.9 2.9 0 0 1 1.8-.6 2.9 2.9 0 0 1 1.4 1.2z" fill="#febf10" stroke="#000" stroke-linecap="round" stroke-linejoin="round" stroke-width=".3"/>
  <path fill="none" stroke="#000" stroke-linecap="round" stroke-linejoin="round" stroke-width=".3" d="M18.7 21.2l-1.7-.4"/>
  <path d="M20.7 21.1a2.4 2.4 0 0 1-1.6.8 2.9 2.9 0 0 1-1.6-.9 2.8 2.8 0 0 1 1.7-.8 2.5 2.5 0 0 1 1.5.9z" fill="#febf10" stroke="#000" stroke-linecap="round" stroke-linejoin="round" stroke-width=".3"/>
  <path fill="none" stroke="#000" stroke-linecap="round" stroke-linejoin="round" stroke-width=".3" d="M20.7 21.1L19 21"/>
  <path d="M24.7 20.8a2.2 2.2 0 0 0 1.7.5 2.4 2.4 0 0 0 1.4-1.2 2.4 2.4 0 0 0-1.7-.5 2.4 2.4 0 0 0-1.4 1.2z" fill="#febf10" stroke="#000" stroke-linecap="round" stroke-linejoin="round" stroke-width=".3"/>
  <path fill="none" stroke="#000" stroke-linecap="round" stroke-linejoin="round" stroke-width=".3" d="M24.7 20.8l1.7-.4"/>
  <path d="M22.8 21.1a2.9 2.9 0 0 0 1.8.6 2.9 2.9 0 0 0 1.4-1.1 2.8 2.8 0 0 0-1.7-.6 2.8 2.8 0 0 0-1.5 1.1z" fill="#febf10" stroke="#000" stroke-linecap="round" stroke-linejoin="round" stroke-width=".3"/>
  <path fill="none" stroke="#000" stroke-linecap="round" stroke-linejoin="round" stroke-width=".3" d="M22.8 21.1l1.8-.3"/>
  <path d="M20.8 21.1a2.8 2.8 0 0 0 1.7.8 2.8 2.8 0 0 0 1.5-1 2.3 2.3 0 0 0-1.6-.7 2.4 2.4 0 0 0-1.6.9z" fill="#febf10" stroke="#000" stroke-linecap="round" stroke-linejoin="round" stroke-width=".3"/>
  <path fill="none" stroke="#000" stroke-linecap="round" stroke-linejoin="round" stroke-width=".3" d="M20.8 21.1l1.8-.1"/>
  <path d="M22.1 22.7h-.3L19 19.8c-.2-.1-.2-.3 0-.5a.4.4 0 0 1 .5 0l2.8 2.8a.5.5 0 0 1 0 .5z" fill="#0065b7" stroke="#000" stroke-linecap="round" stroke-linejoin="round" stroke-width=".35"/>
  <path d="M19.3 22.9h-.2a.4.4 0 0 1 0-.5l2.6-2.6h.5a.4.4 0 0 1 0 .5l-2.6 2.6z" fill="#0065b7" stroke="#000" stroke-linecap="round" stroke-linejoin="round" stroke-width=".35"/>
  <path d="M30.7 16.4c0 2-4.4 3.7-9.9 3.7s-10-1.7-10-3.7 4.5-3.6 10-3.7 9.9 1.7 9.9 3.7z" fill="red"/>
  <path d="M13.5 15.6s7.7 3.5 14.3-.1c0 .1.5-.2.7.6s-1.4 2.2-5.9 2.2-7.6-.3-8.6-.8-1.8-1.1-.5-1.9z" fill="#980805"/>
  <path d="M30.7 16.4c0 2-4.4 3.7-9.9 3.7s-10-1.7-10-3.7 4.5-3.6 10-3.7 9.9 1.7 9.9 3.7z" fill="none" stroke="#000" stroke-linecap="round" stroke-linejoin="round" stroke-width=".38"/>
  <path d="M28 15.6a.9.9 0 0 1 .6.8c0 1.1-3.5 2-7.8 2s-7.9-.9-7.9-2a.9.9 0 0 1 .6-.8" fill="none" stroke="#000" stroke-linecap="round" stroke-linejoin="round" stroke-width=".36"/>
  <path d="M12.3 24.5c-1.1 0-.6 6.6 8.4 6.3h.1c9 .3 9.6-6.3 8.4-6.3h-.1a.5.5 0 0 0-.4.6.5.5 0 0 0-.6-.3c-.3.1-.4.5-.5 1s-.4-.8-.8-.7-.5.6-.7 1.1a.8.8 0 0 0-.8-.9 1.2 1.2 0 0 0-1.1.9.9.9 0 0 0-.9-.8c-.8 0-1.1.5-1.3 1.1s-.6-1.1-1.2-1.1-1.1.5-1.3 1.2-.5-1.2-1.2-1.2a1 1 0 0 0-1 .8c-.2-.5-.4-.9-1.1-.9a.8.8 0 0 0-.8.9c-.2-.5-.3-.9-.7-1.1s-.7.2-.8.7-.2-.9-.5-1-.4.1-.5.3-.2-.5-.5-.6z" fill="none" stroke="#000" stroke-linecap="round" stroke-linejoin="round" stroke-width=".41"/>
  <path d="M12.4 24.5c-1.3-.5-.9 6.6 8.4 6.3-9.8-.9-7-5.8-8.4-6.3z" fill="#325723" stroke="#000" stroke-linecap="round" stroke-linejoin="round" stroke-width=".41"/>
  <path d="M13.4 24.8c-1.4-.4-.9 6 7.4 6-8.4-.8-6-5.6-7.4-6z" fill="#325723" stroke="#000" stroke-linecap="round" stroke-linejoin="round" stroke-width=".41"/>
  <path d="M14.7 25.1c-1.8-.4-.8 5.7 6.1 5.7-6.7-1.7-4.7-5.3-6.1-5.7z" fill="#325723" stroke="#000" stroke-linecap="round" stroke-linejoin="round" stroke-width=".41"/>
  <path d="M16.2 25.3c-1.8 0-.8 4.5 4.6 5.5-4.3-1.9-2.5-5.5-4.6-5.5z" fill="#325723" stroke="#000" stroke-linecap="round" stroke-linejoin="round" stroke-width=".41"/>
  <path d="M18.3 25.4c-1.9 0-1.2 4.3 2.5 5.4-1.5-1.9-.6-5.4-2.5-5.4z" fill="#325723" stroke="#000" stroke-linecap="round" stroke-linejoin="round" stroke-width=".41"/>
  <path d="M29.1 24.5c1.3-.5 1 6.6-8.4 6.3 9.8-.9 7-5.8 8.4-6.3z" fill="#325723" stroke="#000" stroke-linecap="round" stroke-linejoin="round" stroke-width=".41"/>
  <path d="M28.1 24.8c1.4-.4.9 6-7.4 6 8.4-.8 6-5.6 7.4-6z" fill="#325723" stroke="#000" stroke-linecap="round" stroke-linejoin="round" stroke-width=".41"/>
  <path d="M26.8 25.1c1.8-.4.8 5.7-6.1 5.7 6.7-1.7 4.7-5.3 6.1-5.7z" fill="#325723" stroke="#000" stroke-linecap="round" stroke-linejoin="round" stroke-width=".41"/>
  <path d="M25.3 25.3c1.8 0 .9 4.5-4.6 5.5 4.3-1.9 2.5-5.5 4.6-5.5z" fill="#325723" stroke="#000" stroke-linecap="round" stroke-linejoin="round" stroke-width=".41"/>
  <path d="M23.3 25.4c1.8 0 1.1 4.3-2.6 5.4 1.5-1.9.6-5.4 2.6-5.4z" fill="#325723" stroke="#000" stroke-linecap="round" stroke-linejoin="round" stroke-width=".41"/>
  <path d="M20.8 25.4c-1.9 0-1.7 3.5 0 5.4 1.6-1.9 1.8-5.4 0-5.4z" fill="#325723" stroke="#000" stroke-linecap="round" stroke-linejoin="round" stroke-width=".41"/>
  <path d="M20.8 26.4c-1.2 0-1.1 2.8 0 4.3 1-1.5 1.1-4.3 0-4.3z" fill="#0d3a12" stroke="#000" stroke-linecap="round" stroke-linejoin="round" stroke-width=".41"/>
  <path d="M13.5 21a.5.5 0 0 0-.5.4.5.5 0 0 0 .3.6 22.8 22.8 0 0 0 7.3 1.2h.3a22.3 22.3 0 0 0 7.3-1.2.5.5 0 0 0 .3-.6.5.5 0 0 0-.5-.4h-.2a22.8 22.8 0 0 1-7 1.1 23.5 23.5 0 0 1-7.1-1.1zm.4 16.8a.4.4 0 0 0-.4.4c-.1.2.1.4.3.4a36.5 36.5 0 0 0 7 .6 36.2 36.2 0 0 0 6.9-.6.4.4 0 0 0 .4-.4.5.5 0 0 0-.5-.4h-.1a59.5 59.5 0 0 1-6.7.6 59.3 59.3 0 0 1-6.8-.6z" fill="#febf10" stroke="#000" stroke-linecap="round" stroke-linejoin="round" stroke-width=".41"/>
  <path d="M55.1 31.5v1.1a5.4 5.4 0 0 1-4.4 3.6c-.5 0-.2 1.1.8 1.5v1h10.8v-.9c1.4-.1 1.8-1.6 1.2-1.6a5.3 5.3 0 0 1-4.3-3.6v-1.1H58v1.1c.2.9 0 1.4-.2-.5h-1.3c-.3 1.9-.5 1.4-.2.5v-1.1z" fill="#325723"/>
  <path d="M55.1 31.5v1.1a5.4 5.4 0 0 1-4.4 3.6c-.7 0 .1 2.1 2.2 1.6s3-3.8 3.4-5.2v-1.1zm2.9 0v1.1c.4 1.4 1.3 4.6 3.4 5.2s2.8-1.6 2.1-1.6a5.3 5.3 0 0 1-4.3-3.6v-1.1z" fill="#3c6d3d" stroke="#000" stroke-linecap="round" stroke-linejoin="round" stroke-width=".24"/>
  <path d="M55.1 31.5v1.1a5.4 5.4 0 0 1-4.4 3.6c-.7 0 .1 2.1 2.2 1.6s3-3.8 3.4-5.2v-1.1zm2.9 0v1.1c.4 1.4 1.3 4.6 3.4 5.2s2.8-1.6 2.1-1.6a5.3 5.3 0 0 1-4.3-3.6v-1.1z" fill="#325723" stroke="#000" stroke-linecap="round" stroke-linejoin="round" stroke-width=".41"/>
  <path d="M56.5 32.1c-.3 2.2-1.6 3.4-1.4 5s.9 1 2 1 1.9-.4 2-1-1.1-2.8-1.3-5h-1.3z" fill="none" stroke="#000" stroke-linecap="round" stroke-linejoin="round" stroke-width=".41"/>
  <path d="M56.8 32.6c-.1 1.6-.8 2.5-.7 3.7a1 1 0 0 0 1 .7c.6 0 1-.3 1-.7s-.5-2.1-.6-3.7h-.7z" fill="#0d3a12" stroke="#000" stroke-linecap="round" stroke-linejoin="round" stroke-width=".41"/>
  <path d="M53.3 37.7h2.4m-1.7-.5h1.1" fill="none" stroke="#000" stroke-linecap="round" stroke-linejoin="round" stroke-width=".41"/>
  <path d="M50.5 38.5h13.2v2.7l-6.6.8-6.6-.8z" fill="#d09b07" stroke="#000" stroke-linecap="round" stroke-linejoin="round" stroke-width=".41"/>
  <circle cx="51.4" cy="39.8" r=".7" fill="#febf10" stroke="#000" stroke-linecap="round" stroke-linejoin="round" stroke-width=".3"/>
  <circle cx="51.4" cy="39.8" r=".2"/>
  <circle cx="53.1" cy="40" r=".7" fill="#febf10" stroke="#000" stroke-linecap="round" stroke-linejoin="round" stroke-width=".3"/>
  <circle cx="53.1" cy="40" r=".2"/>
  <circle cx="54.7" cy="40.1" r=".7" fill="#febf10" stroke="#000" stroke-linecap="round" stroke-linejoin="round" stroke-width=".3"/>
  <circle cx="54.7" cy="40.1" r=".2"/>
  <circle cx="56.4" cy="40.2" r=".7" fill="#febf10" stroke="#000" stroke-linecap="round" stroke-linejoin="round" stroke-width=".3"/>
  <circle cx="56.4" cy="40.2" r=".2"/>
  <circle cx="58" cy="40.2" r=".7" fill="#febf10" stroke="#000" stroke-linecap="round" stroke-linejoin="round" stroke-width=".3"/>
  <circle cx="58" cy="40.2" r=".2"/>
  <circle cx="59.7" cy="40.1" r=".7" fill="#febf10" stroke="#000" stroke-linecap="round" stroke-linejoin="round" stroke-width=".3"/>
  <circle cx="59.7" cy="40.1" r=".2"/>
  <circle cx="61.3" cy="40" r=".7" fill="#febf10" stroke="#000" stroke-linecap="round" stroke-linejoin="round" stroke-width=".3"/>
  <circle cx="61.3" cy="40" r=".2"/>
  <circle cx="62.9" cy="39.8" r=".7" fill="#febf10" stroke="#000" stroke-linecap="round" stroke-linejoin="round" stroke-width=".3"/>
  <circle cx="62.9" cy="39.8" r=".2"/>
  <path d="M56.9 29.9a1.8 1.8 0 0 0-1.8 1.2c-.1.5.2 1.2.8 1.2s.3-.1.4.1a1.1 1.1 0 0 0 1.8-.2c.6.3 1.1-.3 1-.9a1.5 1.5 0 0 0-1.5-1.4zm-1.6.2a2.7 2.7 0 0 0-2.5 1.3c-.1.4-.2 1 .3 1.1s.6-.5.8-.3 1 .4 1-.1a2.3 2.3 0 0 1 .6-1.8c.2-.1-.1-.2-.2-.2zm3.4.1c0 .2.3.4.4.6s.1 1 .3 1.5.7.1 1-.1.4.4.8.3.4-.8.2-1.1a2.6 2.6 0 0 0-2.6-1.3z" fill="red" stroke="#000" stroke-linecap="round" stroke-linejoin="round" stroke-width=".41"/>
  <path d="M50.5 40.6a.8.8 0 0 0-.8.7.8.8 0 0 0 .7.8 33.3 33.3 0 0 0 6.7.6 34.4 34.4 0 0 0 6.8-.6c.4 0 .6-.4.6-.8a.8.8 0 0 0-.8-.7h-.1a40 40 0 0 1-6.5.6 40 40 0 0 1-6.5-.6z" fill="#febf10" stroke="#000" stroke-linecap="round" stroke-linejoin="round" stroke-width=".41"/>
  <path d="M61 37.7h-2.4m1.6-.5h-1.1m-4.6-.6h.5m4.7 0a.5.5 0 0 1-.5 0" fill="none" stroke="#000" stroke-linecap="round" stroke-linejoin="round" stroke-width=".41"/>
  <path d="M51.2 21.6a3.6 3.6 0 0 0-3 3.4 4.7 4.7 0 0 0 3 4.6 13 13 0 0 0 5.9 1.2 13.2 13.2 0 0 0 6-1.2A4.6 4.6 0 0 0 66 25a3.7 3.7 0 0 0-2.9-3.4H51.2z" fill="#febf10"/>
  <path d="M53.5 21.7s-2.2 6.7 4.6 9.1c0 .1-6.4.2-8.4-2.2s-1.6-4.4-.6-5.7 2.9-1.5 4.4-1.2z" fill="#d09b07"/>
  <path d="M51.2 21.6a3.6 3.6 0 0 0-3 3.4 4.7 4.7 0 0 0 3 4.6 13 13 0 0 0 5.9 1.2 13.2 13.2 0 0 0 6-1.2A4.6 4.6 0 0 0 66 25a3.7 3.7 0 0 0-2.9-3.4H51.2z" fill="none" stroke="#000" stroke-linecap="round" stroke-linejoin="round" stroke-width=".41"/>
  <path d="M49.9 18.4h14.4v3.2l-7.2.9-7.2-.9z" fill="#d09b07" stroke="#000" stroke-linecap="round" stroke-linejoin="round" stroke-width=".41"/>
  <path d="M53.2 20.8a2.2 2.2 0 0 1-1.7.5 2.4 2.4 0 0 1-1.4-1.1 2.4 2.4 0 0 1 1.7-.5 2.4 2.4 0 0 1 1.4 1.1z" fill="#febf10" stroke="#000" stroke-linecap="round" stroke-linejoin="round" stroke-width=".3"/>
  <path fill="none" stroke="#000" stroke-linecap="round" stroke-linejoin="round" stroke-width=".3" d="M53.2 20.8l-1.7-.3"/>
  <path d="M55.1 21.2a2.5 2.5 0 0 1-1.8.5 2.9 2.9 0 0 1-1.4-1.1 2.8 2.8 0 0 1 1.7-.6 2.8 2.8 0 0 1 1.5 1.2z" fill="#febf10" stroke="#000" stroke-linecap="round" stroke-linejoin="round" stroke-width=".3"/>
  <path fill="none" stroke="#000" stroke-linecap="round" stroke-linejoin="round" stroke-width=".3" d="M55.1 21.2l-1.8-.4"/>
  <path d="M57.1 21.1a2.8 2.8 0 0 1-1.7.8 2.5 2.5 0 0 1-1.5-.9 2.8 2.8 0 0 1 1.6-.8 2.9 2.9 0 0 1 1.6.9z" fill="#febf10" stroke="#000" stroke-linecap="round" stroke-linejoin="round" stroke-width=".3"/>
  <path fill="none" stroke="#000" stroke-linecap="round" stroke-linejoin="round" stroke-width=".3" d="M57.1 21.1l-1.8-.1"/>
  <path d="M61 20.8a2.5 2.5 0 0 0 1.8.5 2.9 2.9 0 0 0 1.4-1.2 2.5 2.5 0 0 0-1.8-.5 2.4 2.4 0 0 0-1.4 1.2z" fill="#febf10" stroke="#000" stroke-linecap="round" stroke-linejoin="round" stroke-width=".3"/>
  <path fill="none" stroke="#000" stroke-linecap="round" stroke-linejoin="round" stroke-width=".3" d="M61 20.8l1.8-.4"/>
  <path d="M59.2 21.1a2.5 2.5 0 0 0 1.7.6 2.8 2.8 0 0 0 1.5-1.1 2.9 2.9 0 0 0-1.8-.6 2.4 2.4 0 0 0-1.4 1.1z" fill="#febf10" stroke="#000" stroke-linecap="round" stroke-linejoin="round" stroke-width=".3"/>
  <path fill="none" stroke="#000" stroke-linecap="round" stroke-linejoin="round" stroke-width=".3" d="M59.2 21.1l1.7-.3"/>
  <path d="M57.2 21.1a2.4 2.4 0 0 0 1.6.8 2.8 2.8 0 0 0 1.6-1 2.4 2.4 0 0 0-1.7-.7 2.1 2.1 0 0 0-1.5.9z" fill="#febf10" stroke="#000" stroke-linecap="round" stroke-linejoin="round" stroke-width=".3"/>
  <path fill="none" stroke="#000" stroke-linecap="round" stroke-linejoin="round" stroke-width=".3" d="M57.2 21.1l1.7-.1"/>
  <path d="M58.4 22.7h-.3l-2.8-2.8a.4.4 0 0 1 0-.5.6.6 0 0 1 .6 0l2.8 2.8a.5.5 0 0 1 0 .5z" fill="#0065b7" stroke="#000" stroke-linecap="round" stroke-linejoin="round" stroke-width=".35"/>
  <path d="M55.7 22.9h-.2c-.2-.2-.2-.4 0-.5l2.5-2.7h.5c.2.2.2.4 0 .5L56 22.8z" fill="#0065b7" stroke="#000" stroke-linecap="round" stroke-linejoin="round" stroke-width=".35"/>
  <path d="M67.1 16.4c0 2-4.5 3.7-10 3.7s-9.9-1.7-9.9-3.7 4.4-3.6 9.9-3.7 10 1.7 10 3.7z" fill="red"/>
  <path d="M49.9 15.6s7.7 3.5 14.3-.1c0 .1.5-.2.7.6s-1.4 2.2-6 2.2-7.5-.3-8.5-.8-1.9-1.1-.5-1.9z" fill="#980805"/>
  <path d="M67.1 16.4c0 2-4.5 3.7-10 3.7s-9.9-1.7-9.9-3.7 4.4-3.6 9.9-3.7 10 1.7 10 3.7z" fill="none" stroke="#000" stroke-linecap="round" stroke-linejoin="round" stroke-width=".38"/>
  <path d="M64.3 15.6a.9.9 0 0 1 .6.8c0 1.1-3.5 2-7.8 2s-7.8-.9-7.8-2a.9.9 0 0 1 .6-.8" fill="none" stroke="#000" stroke-linecap="round" stroke-linejoin="round" stroke-width=".36"/>
  <path d="M48.7 24.5c-1.2 0-.6 6.6 8.4 6.3 9 .3 9.6-6.3 8.5-6.3h-.1c-.3.1-.4.3-.5.6s-.3-.4-.5-.3-.5.5-.6 1-.3-.8-.7-.7a1.4 1.4 0 0 0-.7 1.1.8.8 0 0 0-.8-.9 1.2 1.2 0 0 0-1.2.9.9.9 0 0 0-.9-.8c-.7 0-1 .5-1.2 1.1a1.4 1.4 0 0 0-1.3-1.1c-.6 0-1 .5-1.2 1.2s-.5-1.2-1.3-1.2a.9.9 0 0 0-.9.8 1.2 1.2 0 0 0-1.1-.9c-.5 0-.8.4-.9.9s-.2-.9-.7-1.1-.6.2-.7.7-.2-.9-.6-1-.4.1-.5.3a.9.9 0 0 0-.4-.6z" fill="none" stroke="#000" stroke-linecap="round" stroke-linejoin="round" stroke-width=".41"/>
  <path d="M48.8 24.5c-1.3-.5-1 6.6 8.3 6.3-9.7-.9-6.9-5.8-8.3-6.3z" fill="#325723" stroke="#000" stroke-linecap="round" stroke-linejoin="round" stroke-width=".41"/>
  <path d="M49.7 24.8c-1.4-.4-.8 6 7.4 6-8.4-.8-5.9-5.6-7.4-6z" fill="#325723" stroke="#000" stroke-linecap="round" stroke-linejoin="round" stroke-width=".41"/>
  <path d="M51 25.1c-1.7-.4-.7 5.7 6.1 5.7-6.6-1.7-4.6-5.3-6.1-5.7z" fill="#325723" stroke="#000" stroke-linecap="round" stroke-linejoin="round" stroke-width=".41"/>
  <path d="M52.6 25.3c-1.8 0-.9 4.5 4.5 5.5-4.2-1.9-2.5-5.5-4.5-5.5z" fill="#325723" stroke="#000" stroke-linecap="round" stroke-linejoin="round" stroke-width=".41"/>
  <path d="M54.6 25.4c-1.8 0-1.1 4.3 2.5 5.4-1.4-1.9-.5-5.4-2.5-5.4zm10.9-.9c1.2-.5.9 6.6-8.4 6.3 9.7-.9 7-5.8 8.4-6.3z" fill="#325723" stroke="#000" stroke-linecap="round" stroke-linejoin="round" stroke-width=".41"/>
  <path d="M64.5 24.8c1.4-.4.8 6-7.4 6 8.4-.8 6-5.6 7.4-6z" fill="#325723" stroke="#000" stroke-linecap="round" stroke-linejoin="round" stroke-width=".41"/>
  <path d="M63.2 25.1c1.7-.4.8 5.7-6.1 5.7 6.7-1.7 4.6-5.3 6.1-5.7z" fill="#325723" stroke="#000" stroke-linecap="round" stroke-linejoin="round" stroke-width=".41"/>
  <path d="M61.7 25.3c1.8 0 .8 4.5-4.6 5.5 4.2-1.9 2.5-5.5 4.6-5.5z" fill="#325723" stroke="#000" stroke-linecap="round" stroke-linejoin="round" stroke-width=".41"/>
  <path d="M59.6 25.4c1.9 0 1.1 4.3-2.5 5.4 1.5-1.9.5-5.4 2.5-5.4z" fill="#325723" stroke="#000" stroke-linecap="round" stroke-linejoin="round" stroke-width=".41"/>
  <path d="M57.1 25.4c-1.8 0-1.6 3.5 0 5.4 1.7-1.9 1.9-5.4 0-5.4z" fill="#325723" stroke="#000" stroke-linecap="round" stroke-linejoin="round" stroke-width=".41"/>
  <path d="M57.1 26.4c-1.1 0-1 2.8 0 4.3 1.1-1.5 1.2-4.3 0-4.3z" fill="#0d3a12" stroke="#000" stroke-linecap="round" stroke-linejoin="round" stroke-width=".41"/>
  <path d="M49.8 21a.4.4 0 0 0-.4.4.4.4 0 0 0 .3.6 22.3 22.3 0 0 0 7.3 1.2h.3a22.8 22.8 0 0 0 7.3-1.2.6.6 0 0 0 .3-.6.7.7 0 0 0-.5-.4h-.2a23.5 23.5 0 0 1-7.1 1.1 23.5 23.5 0 0 1-7.1-1c0-.1-.1-.1-.2-.1zm.5 16.8c-.3 0-.5.1-.5.4a.4.4 0 0 0 .4.4 34.7 34.7 0 0 0 6.9.6 34.7 34.7 0 0 0 6.9-.6.4.4 0 0 0 0-.8h-.1a61.4 61.4 0 0 1-6.8.6 61.4 61.4 0 0 1-6.8-.6z" fill="#febf10" stroke="#000" stroke-linecap="round" stroke-linejoin="round" stroke-width=".41"/>
  <path d="M18.7 116.1v1.1a5.1 5.1 0 0 1-4.4 3.5c-.5.1-.2 1.2.8 1.6v1h10.8v-.9c1.4-.1 1.9-1.6 1.3-1.7a5.1 5.1 0 0 1-4.4-3.5v-1.1h-1.2v1.1c.3.9 0 1.4-.2-.5h-1.3c-.2 1.9-.5 1.4-.2.5v-1.1z" fill="#325723"/>
  <path d="M18.7 116.1v1.1a5.1 5.1 0 0 1-4.4 3.5c-.6.1.1 2.2 2.2 1.6s3-3.7 3.4-5.1v-1.1zm2.9 0v1.1c.4 1.4 1.3 4.5 3.4 5.1s2.9-1.5 2.2-1.6a5.1 5.1 0 0 1-4.4-3.5v-1.1z" fill="#3c6d3d" stroke="#000" stroke-linecap="round" stroke-linejoin="round" stroke-width=".24"/>
  <path d="M18.7 116.1v1.1a5.1 5.1 0 0 1-4.4 3.5c-.6.1.1 2.2 2.2 1.6s3-3.7 3.4-5.1v-1.1zm2.9 0v1.1c.4 1.4 1.3 4.5 3.4 5.1s2.9-1.5 2.2-1.6a5.1 5.1 0 0 1-4.4-3.5v-1.1z" fill="#325723" stroke="#000" stroke-linecap="round" stroke-linejoin="round" stroke-width=".41"/>
  <path d="M20.1 116.7c-.3 2.1-1.6 3.4-1.3 5s.8.9 2 .9 1.8-.3 1.9-.9-1-2.9-1.3-5h-1.3z" fill="none" stroke="#000" stroke-linecap="round" stroke-linejoin="round" stroke-width=".41"/>
  <path d="M20.5 117.1c-.2 1.6-.8 2.6-.7 3.8s.4.7 1 .7a.9.9 0 0 0 1-.7c.1-1.2-.6-2.2-.7-3.8h-.6z" fill="#0d3a12" stroke="#000" stroke-linecap="round" stroke-linejoin="round" stroke-width=".41"/>
  <path d="M16.9 122.2l2.4.2m-1.7-.7h1.2" fill="none" stroke="#000" stroke-linecap="round" stroke-linejoin="round" stroke-width=".41"/>
  <path d="M14.2 123h13.2v2.8l-6.6.8-6.6-.8z" fill="#d09b07" stroke="#000" stroke-linecap="round" stroke-linejoin="round" stroke-width=".41"/>
  <circle cx="15.1" cy="124.4" r=".7" fill="#febf10" stroke="#000" stroke-linecap="round" stroke-linejoin="round" stroke-width=".3"/>
  <circle cx="15.1" cy="124.4" r=".2"/>
  <circle cx="16.7" cy="124.6" r=".7" fill="#febf10" stroke="#000" stroke-linecap="round" stroke-linejoin="round" stroke-width=".3"/>
  <circle cx="16.7" cy="124.6" r=".2"/>
  <circle cx="18.4" cy="124.7" r=".7" fill="#febf10" stroke="#000" stroke-linecap="round" stroke-linejoin="round" stroke-width=".3"/>
  <circle cx="18.4" cy="124.7" r=".2"/>
  <circle cx="20.1" cy="124.8" r=".7" fill="#febf10" stroke="#000" stroke-linecap="round" stroke-linejoin="round" stroke-width=".3"/>
  <circle cx="20.1" cy="124.8" r=".2"/>
  <circle cx="21.7" cy="124.8" r=".7" fill="#febf10" stroke="#000" stroke-linecap="round" stroke-linejoin="round" stroke-width=".3"/>
  <circle cx="21.7" cy="124.8" r=".2"/>
  <circle cx="23.3" cy="124.7" r=".7" fill="#febf10" stroke="#000" stroke-linecap="round" stroke-linejoin="round" stroke-width=".3"/>
  <circle cx="23.3" cy="124.7" r=".2"/>
  <circle cx="25" cy="124.5" r=".7" fill="#febf10" stroke="#000" stroke-linecap="round" stroke-linejoin="round" stroke-width=".3"/>
  <circle cx="25" cy="124.5" r=".2"/>
  <circle cx="26.5" cy="124.3" r=".7" fill="#febf10" stroke="#000" stroke-linecap="round" stroke-linejoin="round" stroke-width=".3"/>
  <circle cx="26.5" cy="124.3" r=".2"/>
  <path d="M20.6 114.4a1.8 1.8 0 0 0-1.8 1.3c-.2.5.1 1.2.7 1.1s.3-.1.4.2a1.1 1.1 0 0 0 1.8-.2.9.9 0 0 0 1.1-1 1.7 1.7 0 0 0-1.6-1.3zm-1.7.3a2.5 2.5 0 0 0-2.4 1.3c-.2.4-.2 1 .3 1s.5-.5.7-.2 1 .3 1.1-.2a2.1 2.1 0 0 1 .5-1.7c.2-.2 0-.3-.2-.2zm3.4 0c0 .3.3.5.5.7s0 1 .2 1.5.7.1 1-.1.5.3.8.2.4-.7.2-1.1a2.6 2.6 0 0 0-2.6-1.2z" fill="red" stroke="#000" stroke-linecap="round" stroke-linejoin="round" stroke-width=".41"/>
  <path d="M14.1 125.2a.7.7 0 0 0-.7.7c-.1.4.2.7.6.8a34.4 34.4 0 0 0 6.8.6 33.3 33.3 0 0 0 6.7-.6c.4-.1.7-.4.6-.8a.7.7 0 0 0-.7-.7h-.2a53.8 53.8 0 0 1-6.4.6 53.6 53.6 0 0 1-6.5-.6z" fill="#febf10" stroke="#000" stroke-linecap="round" stroke-linejoin="round" stroke-width=".41"/>
  <path d="M24.7 122.2l-2.5.2m1.6-.7h-1m-4.7-.6h.6m4.7.1h-.6" fill="none" stroke="#000" stroke-linecap="round" stroke-linejoin="round" stroke-width=".41"/>
  <path d="M14.8 106.2a3.4 3.4 0 0 0-2.9 3.3 4.9 4.9 0 0 0 2.9 4.7 13.2 13.2 0 0 0 6 1.2 13 13 0 0 0 5.9-1.2 4.9 4.9 0 0 0 3-4.7 3.5 3.5 0 0 0-3-3.3H14.8z" fill="#febf10"/>
  <path d="M17.1 106.3s-2.1 6.6 4.6 9.1c0 0-6.3.2-8.4-2.2s-1.6-4.4-.6-5.7 3-1.5 4.4-1.2z" fill="#d09b07"/>
  <path d="M14.8 106.2a3.4 3.4 0 0 0-2.9 3.3 4.9 4.9 0 0 0 2.9 4.7 13.2 13.2 0 0 0 6 1.2 13 13 0 0 0 5.9-1.2 4.9 4.9 0 0 0 3-4.7 3.5 3.5 0 0 0-3-3.3H14.8z" fill="none" stroke="#000" stroke-linecap="round" stroke-linejoin="round" stroke-width=".41"/>
  <path d="M13.6 103h14.3v3.1l-7.1.9-7.2-.9z" fill="#d09b07" stroke="#000" stroke-linecap="round" stroke-linejoin="round" stroke-width=".41"/>
  <path d="M16.9 105.4a2.5 2.5 0 0 1-1.8.5 2.9 2.9 0 0 1-1.4-1.2 3.1 3.1 0 0 1 1.8-.5 2.9 2.9 0 0 1 1.4 1.2z" fill="#febf10" stroke="#000" stroke-linecap="round" stroke-linejoin="round" stroke-width=".3"/>
  <path fill="none" stroke="#000" stroke-linecap="round" stroke-linejoin="round" stroke-width=".3" d="M16.9 105.4l-1.8-.4"/>
  <path d="M18.7 105.7a2.5 2.5 0 0 1-1.7.6 2.8 2.8 0 0 1-1.5-1.1 2.9 2.9 0 0 1 1.8-.6 2.9 2.9 0 0 1 1.4 1.1z" fill="#febf10" stroke="#000" stroke-linecap="round" stroke-linejoin="round" stroke-width=".3"/>
  <path fill="none" stroke="#000" stroke-linecap="round" stroke-linejoin="round" stroke-width=".3" d="M18.7 105.7l-1.7-.3"/>
  <path d="M20.7 105.7a2.4 2.4 0 0 1-1.6.8 2.8 2.8 0 0 1-1.6-1 2.4 2.4 0 0 1 1.7-.7 2.1 2.1 0 0 1 1.5.9z" fill="#febf10" stroke="#000" stroke-linecap="round" stroke-linejoin="round" stroke-width=".3"/>
  <path fill="none" stroke="#000" stroke-linecap="round" stroke-linejoin="round" stroke-width=".3" d="M20.7 105.7l-1.7-.1"/>
  <path d="M24.7 105.4a2.3 2.3 0 0 0 1.7.4 2.1 2.1 0 0 0 1.4-1.1 2.4 2.4 0 0 0-1.7-.5 2.4 2.4 0 0 0-1.4 1.2z" fill="#febf10" stroke="#000" stroke-linecap="round" stroke-linejoin="round" stroke-width=".3"/>
  <path fill="none" stroke="#000" stroke-linecap="round" stroke-linejoin="round" stroke-width=".3" d="M24.7 105.4l1.7-.4"/>
  <path d="M22.8 105.7a2.5 2.5 0 0 0 1.8.5c.8-.1 1.4-1.1 1.4-1.1a2.4 2.4 0 0 0-1.7-.5 2.4 2.4 0 0 0-1.5 1.1z" fill="#febf10" stroke="#000" stroke-linecap="round" stroke-linejoin="round" stroke-width=".3"/>
  <path fill="none" stroke="#000" stroke-linecap="round" stroke-linejoin="round" stroke-width=".3" d="M22.8 105.7l1.8-.3"/>
  <path d="M20.8 105.7a2.4 2.4 0 0 0 1.7.7 2.4 2.4 0 0 0 1.5-.9 2.8 2.8 0 0 0-1.6-.8 2.8 2.8 0 0 0-1.6 1z" fill="#febf10" stroke="#000" stroke-linecap="round" stroke-linejoin="round" stroke-width=".3"/>
  <path fill="none" stroke="#000" stroke-linecap="round" stroke-linejoin="round" stroke-width=".3" d="M20.8 105.7l1.8-.1"/>
  <path d="M22.1 107.3h-.3l-2.8-2.9a.3.3 0 0 1 0-.5.4.4 0 0 1 .5 0l2.8 2.8a.4.4 0 0 1 0 .5z" fill="#0065b7" stroke="#000" stroke-linecap="round" stroke-linejoin="round" stroke-width=".35"/>
  <path d="M19.3 107.4h-.2a.4.4 0 0 1 0-.5l2.6-2.5c.1-.2.3-.2.5 0a.5.5 0 0 1 0 .5l-2.6 2.5a.2.2 0 0 1-.3 0z" fill="#0065b7" stroke="#000" stroke-linecap="round" stroke-linejoin="round" stroke-width=".35"/>
  <path d="M30.7 101c0 2-4.4 3.7-9.9 3.7s-10-1.7-10-3.7 4.5-3.7 10-3.7 9.9 1.7 9.9 3.7z" fill="red"/>
  <path d="M13.5 100.1s7.7 3.6 14.3 0c0 .1.5-.3.7.5s-1.4 2.3-5.9 2.3-7.6-.3-8.6-.9-1.8-1-.5-1.9z" fill="#980805"/>
  <path d="M30.7 101c0 2-4.4 3.7-9.9 3.7s-10-1.7-10-3.7 4.5-3.7 10-3.7 9.9 1.7 9.9 3.7z" fill="none" stroke="#000" stroke-linecap="round" stroke-linejoin="round" stroke-width=".38"/>
  <path d="M28 100.2a1 1 0 0 1 .6.7c0 1.1-3.5 2-7.8 2s-7.9-.9-7.9-2a1 1 0 0 1 .6-.7" fill="none" stroke="#000" stroke-linecap="round" stroke-linejoin="round" stroke-width=".36"/>
  <path d="M12.3 109c-1.1 0-.6 6.7 8.4 6.4h.1c9 .3 9.6-6.4 8.4-6.4h-.1a.7.7 0 0 0-.4.7.4.4 0 0 0-.6-.3c-.3.1-.4.4-.5.9s-.4-.7-.8-.6-.5.5-.7 1.1a.8.8 0 0 0-.8-.9 1.2 1.2 0 0 0-1.1.9.9.9 0 0 0-.9-.8c-.8 0-1.1.4-1.3 1.1s-.6-1.1-1.2-1.1-1.1.5-1.3 1.2-.5-1.2-1.2-1.2a1 1 0 0 0-1 .8c-.2-.5-.4-.9-1.1-.9a.8.8 0 0 0-.8.9c-.2-.6-.3-1-.7-1.1s-.7.2-.8.6-.2-.8-.5-.9-.4 0-.5.3-.2-.6-.5-.7z" fill="none" stroke="#000" stroke-linecap="round" stroke-linejoin="round" stroke-width=".41"/>
  <path d="M12.4 109c-1.3-.4-.9 6.7 8.4 6.4-9.8-1-7-5.9-8.4-6.4z" fill="#325723" stroke="#000" stroke-linecap="round" stroke-linejoin="round" stroke-width=".41"/>
  <path d="M13.4 109.4c-1.4-.4-.9 6 7.4 6-8.4-.9-6-5.6-7.4-6z" fill="#325723" stroke="#000" stroke-linecap="round" stroke-linejoin="round" stroke-width=".41"/>
  <path d="M14.7 109.7c-1.8-.5-.8 5.7 6.1 5.7-6.7-1.7-4.7-5.3-6.1-5.7z" fill="#325723" stroke="#000" stroke-linecap="round" stroke-linejoin="round" stroke-width=".41"/>
  <path d="M16.2 109.9c-1.8 0-.8 4.5 4.6 5.5-4.3-1.9-2.5-5.5-4.6-5.5z" fill="#325723" stroke="#000" stroke-linecap="round" stroke-linejoin="round" stroke-width=".41"/>
  <path d="M18.3 110c-1.9 0-1.2 4.3 2.5 5.4-1.5-1.9-.6-5.4-2.5-5.4z" fill="#325723" stroke="#000" stroke-linecap="round" stroke-linejoin="round" stroke-width=".41"/>
  <path d="M29.1 109c1.3-.4 1 6.7-8.4 6.4 9.8-1 7-5.9 8.4-6.4z" fill="#325723" stroke="#000" stroke-linecap="round" stroke-linejoin="round" stroke-width=".41"/>
  <path d="M28.1 109.4c1.4-.4.9 6-7.4 6 8.4-.9 6-5.6 7.4-6z" fill="#325723" stroke="#000" stroke-linecap="round" stroke-linejoin="round" stroke-width=".41"/>
  <path d="M26.8 109.7c1.8-.5.8 5.7-6.1 5.7 6.7-1.7 4.7-5.3 6.1-5.7z" fill="#325723" stroke="#000" stroke-linecap="round" stroke-linejoin="round" stroke-width=".41"/>
  <path d="M25.3 109.9c1.8 0 .9 4.5-4.6 5.5 4.3-1.9 2.5-5.5 4.6-5.5z" fill="#325723" stroke="#000" stroke-linecap="round" stroke-linejoin="round" stroke-width=".41"/>
  <path d="M23.3 110c1.8 0 1.1 4.3-2.6 5.4 1.5-1.9.6-5.4 2.6-5.4z" fill="#325723" stroke="#000" stroke-linecap="round" stroke-linejoin="round" stroke-width=".41"/>
  <path d="M20.8 110c-1.9 0-1.7 3.5 0 5.4 1.6-1.9 1.8-5.4 0-5.4z" fill="#325723" stroke="#000" stroke-linecap="round" stroke-linejoin="round" stroke-width=".41"/>
  <path d="M20.8 111c-1.2 0-1.1 2.8 0 4.2 1-1.4 1.1-4.2 0-4.2z" fill="#0d3a12" stroke="#000" stroke-linecap="round" stroke-linejoin="round" stroke-width=".41"/>
  <path d="M13.5 105.6a.5.5 0 0 0-.5.4.4.4 0 0 0 .3.5 20.3 20.3 0 0 0 7.3 1.2h.3a19.9 19.9 0 0 0 7.3-1.2.4.4 0 0 0 .3-.5.5.5 0 0 0-.5-.4h-.2a22.6 22.6 0 0 1-7 1.2 23.3 23.3 0 0 1-7.1-1.2zm.4 16.7a.4.4 0 0 0-.4.4.3.3 0 0 0 .3.5 46.9 46.9 0 0 0 7 .6 46.7 46.7 0 0 0 6.9-.6.5.5 0 0 0 .4-.5.7.7 0 0 0-.5-.4h-.1a33.3 33.3 0 0 1-6.7.6 33.7 33.7 0 0 1-6.8-.6z" fill="#febf10" stroke="#000" stroke-linecap="round" stroke-linejoin="round" stroke-width=".41"/>
  <path d="M55.1 116.1v1.1a5.1 5.1 0 0 1-4.4 3.5c-.5.1-.2 1.2.8 1.6v1h10.8v-.9c1.4-.1 1.8-1.6 1.2-1.7a5 5 0 0 1-4.3-3.5v-1.1H58v1.1c.2.9 0 1.4-.2-.5h-1.3c-.3 1.9-.5 1.4-.2.5v-1.1z" fill="#325723"/>
  <path d="M55.1 116.1v1.1a5.1 5.1 0 0 1-4.4 3.5c-.7.1.1 2.2 2.2 1.6s3-3.7 3.4-5.1v-1.1zm2.9 0v1.1c.4 1.4 1.3 4.5 3.4 5.1s2.8-1.5 2.1-1.6a5 5 0 0 1-4.3-3.5v-1.1z" fill="#3c6d3d" stroke="#000" stroke-linecap="round" stroke-linejoin="round" stroke-width=".24"/>
  <path d="M55.1 116.1v1.1a5.1 5.1 0 0 1-4.4 3.5c-.7.1.1 2.2 2.2 1.6s3-3.7 3.4-5.1v-1.1zm2.9 0v1.1c.4 1.4 1.3 4.5 3.4 5.1s2.8-1.5 2.1-1.6a5 5 0 0 1-4.3-3.5v-1.1z" fill="#325723" stroke="#000" stroke-linecap="round" stroke-linejoin="round" stroke-width=".41"/>
  <path d="M56.5 116.7c-.3 2.1-1.6 3.4-1.4 5s.9.9 2 .9 1.9-.3 2-.9-1.1-2.9-1.3-5h-1.3z" fill="none" stroke="#000" stroke-linecap="round" stroke-linejoin="round" stroke-width=".41"/>
  <path d="M56.8 117.1c-.1 1.6-.8 2.6-.7 3.8a1 1 0 0 0 1 .7c.6 0 1-.3 1-.7s-.5-2.2-.6-3.8h-.7z" fill="#0d3a12" stroke="#000" stroke-linecap="round" stroke-linejoin="round" stroke-width=".41"/>
  <path d="M53.3 122.2l2.4.2m-1.7-.7h1.1" fill="none" stroke="#000" stroke-linecap="round" stroke-linejoin="round" stroke-width=".41"/>
  <path d="M50.5 123h13.2v2.8l-6.6.8-6.6-.8z" fill="#d09b07" stroke="#000" stroke-linecap="round" stroke-linejoin="round" stroke-width=".41"/>
  <circle cx="51.4" cy="124.4" r=".7" fill="#febf10" stroke="#000" stroke-linecap="round" stroke-linejoin="round" stroke-width=".3"/>
  <circle cx="51.4" cy="124.4" r=".2"/>
  <circle cx="53.1" cy="124.6" r=".7" fill="#febf10" stroke="#000" stroke-linecap="round" stroke-linejoin="round" stroke-width=".3"/>
  <circle cx="53.1" cy="124.6" r=".2"/>
  <circle cx="54.7" cy="124.7" r=".7" fill="#febf10" stroke="#000" stroke-linecap="round" stroke-linejoin="round" stroke-width=".3"/>
  <circle cx="54.7" cy="124.7" r=".2"/>
  <circle cx="56.4" cy="124.8" r=".7" fill="#febf10" stroke="#000" stroke-linecap="round" stroke-linejoin="round" stroke-width=".3"/>
  <circle cx="56.4" cy="124.8" r=".2"/>
  <circle cx="58" cy="124.8" r=".7" fill="#febf10" stroke="#000" stroke-linecap="round" stroke-linejoin="round" stroke-width=".3"/>
  <circle cx="58" cy="124.8" r=".2"/>
  <circle cx="59.7" cy="124.7" r=".7" fill="#febf10" stroke="#000" stroke-linecap="round" stroke-linejoin="round" stroke-width=".3"/>
  <circle cx="59.7" cy="124.7" r=".2"/>
  <circle cx="61.3" cy="124.5" r=".7" fill="#febf10" stroke="#000" stroke-linecap="round" stroke-linejoin="round" stroke-width=".3"/>
  <circle cx="61.3" cy="124.5" r=".2"/>
  <circle cx="62.9" cy="124.3" r=".7" fill="#febf10" stroke="#000" stroke-linecap="round" stroke-linejoin="round" stroke-width=".3"/>
  <circle cx="62.9" cy="124.3" r=".2"/>
  <path d="M56.9 114.4a1.9 1.9 0 0 0-1.8 1.3c-.1.5.2 1.2.8 1.1s.3-.1.4.2a1.1 1.1 0 0 0 1.8-.2.8.8 0 0 0 1-1 1.5 1.5 0 0 0-1.5-1.3zm-1.6.3a2.7 2.7 0 0 0-2.5 1.3c-.1.4-.2 1 .3 1s.6-.5.8-.2 1 .3 1-.2a2.1 2.1 0 0 1 .6-1.7c.2-.2-.1-.3-.2-.2zm3.4 0c0 .3.3.5.4.7s.1 1 .3 1.5.7.1 1-.1.4.3.8.2.4-.7.2-1.1a2.7 2.7 0 0 0-2.6-1.2z" fill="red" stroke="#000" stroke-linecap="round" stroke-linejoin="round" stroke-width=".41"/>
  <path d="M50.5 125.2a.8.8 0 1 0-.1 1.5 33.3 33.3 0 0 0 6.7.6 34.4 34.4 0 0 0 6.8-.6.8.8 0 0 0 .6-.8.8.8 0 0 0-.8-.7h-.1a55.7 55.7 0 0 1-6.5.6 55.7 55.7 0 0 1-6.5-.6z" fill="#febf10" stroke="#000" stroke-linecap="round" stroke-linejoin="round" stroke-width=".41"/>
  <path d="M61 122.2l-2.4.2m1.6-.7h-1.1m-4.6-.6h.5m4.7.1h-.5" fill="none" stroke="#000" stroke-linecap="round" stroke-linejoin="round" stroke-width=".41"/>
  <path d="M51.2 106.2a3.5 3.5 0 0 0-3 3.3 4.9 4.9 0 0 0 3 4.7 13 13 0 0 0 5.9 1.2 13.2 13.2 0 0 0 6-1.2 4.9 4.9 0 0 0 2.9-4.7 3.5 3.5 0 0 0-2.9-3.3H51.2z" fill="#febf10"/>
  <path d="M53.5 106.3s-2.2 6.6 4.6 9.1c0 0-6.4.2-8.4-2.2s-1.6-4.4-.6-5.7 2.9-1.5 4.4-1.2z" fill="#d09b07"/>
  <path d="M51.2 106.2a3.5 3.5 0 0 0-3 3.3 4.9 4.9 0 0 0 3 4.7 13 13 0 0 0 5.9 1.2 13.2 13.2 0 0 0 6-1.2 4.9 4.9 0 0 0 2.9-4.7 3.5 3.5 0 0 0-2.9-3.3H51.2z" fill="none" stroke="#000" stroke-linecap="round" stroke-linejoin="round" stroke-width=".41"/>
  <path d="M49.9 103h14.4v3.1l-7.2.9-7.2-.9z" fill="#d09b07" stroke="#000" stroke-linecap="round" stroke-linejoin="round" stroke-width=".41"/>
  <path d="M53.2 105.4a2.2 2.2 0 0 1-1.7.5 2.4 2.4 0 0 1-1.4-1.2 3 3 0 0 1 1.7-.5 2.4 2.4 0 0 1 1.4 1.2z" fill="#febf10" stroke="#000" stroke-linecap="round" stroke-linejoin="round" stroke-width=".3"/>
  <path fill="none" stroke="#000" stroke-linecap="round" stroke-linejoin="round" stroke-width=".3" d="M53.2 105.4l-1.7-.4"/>
  <path d="M55.1 105.7a2.9 2.9 0 0 1-1.8.6 2.9 2.9 0 0 1-1.4-1.1 2.8 2.8 0 0 1 1.7-.6 2.8 2.8 0 0 1 1.5 1.1z" fill="#febf10" stroke="#000" stroke-linecap="round" stroke-linejoin="round" stroke-width=".3"/>
  <path fill="none" stroke="#000" stroke-linecap="round" stroke-linejoin="round" stroke-width=".3" d="M55.1 105.7l-1.8-.3"/>
  <path d="M57.1 105.7a2.8 2.8 0 0 1-1.7.8 2.4 2.4 0 0 1-1.5-1 2.3 2.3 0 0 1 1.6-.7 2.4 2.4 0 0 1 1.6.9z" fill="#febf10" stroke="#000" stroke-linecap="round" stroke-linejoin="round" stroke-width=".3"/>
  <path fill="none" stroke="#000" stroke-linecap="round" stroke-linejoin="round" stroke-width=".3" d="M57.1 105.7l-1.8-.1"/>
  <path d="M61 105.4a2.7 2.7 0 0 0 1.8.4c.8-.1 1.4-1.1 1.4-1.1a2.5 2.5 0 0 0-1.8-.5 2.4 2.4 0 0 0-1.4 1.2z" fill="#febf10" stroke="#000" stroke-linecap="round" stroke-linejoin="round" stroke-width=".3"/>
  <path fill="none" stroke="#000" stroke-linecap="round" stroke-linejoin="round" stroke-width=".3" d="M61 105.4l1.8-.4"/>
  <path d="M59.2 105.7a2.2 2.2 0 0 0 1.7.5 2.4 2.4 0 0 0 1.5-1.1 2.5 2.5 0 0 0-1.8-.5 2.1 2.1 0 0 0-1.4 1.1z" fill="#febf10" stroke="#000" stroke-linecap="round" stroke-linejoin="round" stroke-width=".3"/>
  <path fill="none" stroke="#000" stroke-linecap="round" stroke-linejoin="round" stroke-width=".3" d="M59.2 105.7l1.7-.3"/>
  <path d="M57.2 105.7a2.1 2.1 0 0 0 1.6.7 2.4 2.4 0 0 0 1.6-.9 2.8 2.8 0 0 0-1.7-.8 2.4 2.4 0 0 0-1.5 1z" fill="#febf10" stroke="#000" stroke-linecap="round" stroke-linejoin="round" stroke-width=".3"/>
  <path fill="none" stroke="#000" stroke-linecap="round" stroke-linejoin="round" stroke-width=".3" d="M57.2 105.7l1.7-.1"/>
  <path d="M58.4 107.3h-.3l-2.8-2.8a.5.5 0 0 1 0-.5.6.6 0 0 1 .6 0l2.8 2.8a.4.4 0 0 1 0 .5z" fill="#0065b7" stroke="#000" stroke-linecap="round" stroke-linejoin="round" stroke-width=".35"/>
  <path d="M55.7 107.4c-.1 0-.2 0-.2-.1s-.2-.3 0-.5l2.5-2.5c.2-.2.4-.2.5 0a.3.3 0 0 1 0 .5l-2.5 2.5c-.1.1-.2.2-.3.1z" fill="#0065b7" stroke="#000" stroke-linecap="round" stroke-linejoin="round" stroke-width=".35"/>
  <path d="M67.1 101c0 2-4.5 3.7-10 3.7s-9.9-1.7-9.9-3.7 4.4-3.7 9.9-3.7 10 1.7 10 3.7z" fill="red"/>
  <path d="M49.9 100.1s7.7 3.6 14.3 0c0 .1.5-.3.7.5s-1.4 2.3-6 2.3-7.5-.3-8.5-.9-1.9-1-.5-1.9z" fill="#980805"/>
  <path d="M67.1 101c0 2-4.5 3.7-10 3.7s-9.9-1.7-9.9-3.7 4.4-3.7 9.9-3.7 10 1.7 10 3.7z" fill="none" stroke="#000" stroke-linecap="round" stroke-linejoin="round" stroke-width=".38"/>
  <path d="M64.3 100.2a1 1 0 0 1 .6.7c0 1.1-3.5 2-7.8 2s-7.8-.9-7.8-2a1 1 0 0 1 .6-.7" fill="none" stroke="#000" stroke-linecap="round" stroke-linejoin="round" stroke-width=".36"/>
  <path d="M48.7 109c-1.2 0-.6 6.7 8.4 6.4 9 .3 9.6-6.4 8.5-6.4h-.1c-.3.1-.4.4-.5.7s-.3-.4-.5-.3-.5.4-.6.9a.6.6 0 0 0-.7-.6c-.4.1-.6.5-.7 1.1a.8.8 0 0 0-.8-.9 1.2 1.2 0 0 0-1.2.9.9.9 0 0 0-.9-.8c-.7 0-1 .4-1.2 1.1a1.3 1.3 0 0 0-1.3-1.1c-.6 0-1 .5-1.2 1.2s-.5-1.2-1.3-1.2a.9.9 0 0 0-.9.8 1.2 1.2 0 0 0-1.1-.9c-.5 0-.8.4-.9.9s-.2-1-.7-1.1-.6.2-.7.6-.2-.8-.6-.9-.4 0-.5.3-.2-.6-.4-.7z" fill="none" stroke="#000" stroke-linecap="round" stroke-linejoin="round" stroke-width=".41"/>
  <path d="M48.8 109c-1.3-.4-1 6.7 8.3 6.4-9.7-1-6.9-5.9-8.3-6.4z" fill="#325723" stroke="#000" stroke-linecap="round" stroke-linejoin="round" stroke-width=".41"/>
  <path d="M49.7 109.4c-1.4-.4-.8 6 7.4 6-8.4-.9-5.9-5.6-7.4-6z" fill="#325723" stroke="#000" stroke-linecap="round" stroke-linejoin="round" stroke-width=".41"/>
  <path d="M51 109.7c-1.7-.5-.7 5.7 6.1 5.7-6.6-1.7-4.6-5.3-6.1-5.7z" fill="#325723" stroke="#000" stroke-linecap="round" stroke-linejoin="round" stroke-width=".41"/>
  <path d="M52.6 109.9c-1.8 0-.9 4.5 4.5 5.5-4.2-1.9-2.5-5.5-4.5-5.5z" fill="#325723" stroke="#000" stroke-linecap="round" stroke-linejoin="round" stroke-width=".41"/>
  <path d="M54.6 110c-1.8 0-1.1 4.3 2.5 5.4-1.4-1.9-.5-5.4-2.5-5.4zm10.9-1c1.2-.4.9 6.7-8.4 6.4 9.7-1 7-5.9 8.4-6.4z" fill="#325723" stroke="#000" stroke-linecap="round" stroke-linejoin="round" stroke-width=".41"/>
  <path d="M64.5 109.4c1.4-.4.8 6-7.4 6 8.4-.9 6-5.6 7.4-6z" fill="#325723" stroke="#000" stroke-linecap="round" stroke-linejoin="round" stroke-width=".41"/>
  <path d="M63.2 109.7c1.7-.5.8 5.7-6.1 5.7 6.7-1.7 4.6-5.3 6.1-5.7z" fill="#325723" stroke="#000" stroke-linecap="round" stroke-linejoin="round" stroke-width=".41"/>
  <path d="M61.7 109.9c1.8 0 .8 4.5-4.6 5.5 4.2-1.9 2.5-5.5 4.6-5.5z" fill="#325723" stroke="#000" stroke-linecap="round" stroke-linejoin="round" stroke-width=".41"/>
  <path d="M59.6 110c1.9 0 1.1 4.3-2.5 5.4 1.5-1.9.5-5.4 2.5-5.4z" fill="#325723" stroke="#000" stroke-linecap="round" stroke-linejoin="round" stroke-width=".41"/>
  <path d="M57.1 110c-1.8 0-1.6 3.5 0 5.4 1.7-1.9 1.9-5.4 0-5.4z" fill="#325723" stroke="#000" stroke-linecap="round" stroke-linejoin="round" stroke-width=".41"/>
  <path d="M57.1 111c-1.1 0-1 2.8 0 4.2 1.1-1.4 1.2-4.2 0-4.2z" fill="#0d3a12" stroke="#000" stroke-linecap="round" stroke-linejoin="round" stroke-width=".41"/>
  <path d="M49.8 105.6a.4.4 0 0 0-.4.4.3.3 0 0 0 .3.5 19.9 19.9 0 0 0 7.3 1.2h.3a20.3 20.3 0 0 0 7.3-1.2c.2 0 .3-.3.3-.5a.7.7 0 0 0-.5-.4h-.2a21.6 21.6 0 0 1-14.2 0zm.5 16.7a.5.5 0 1 0-.1.9 44.3 44.3 0 0 0 6.9.6 44.3 44.3 0 0 0 6.9-.6c.3 0 .4-.2.4-.5a.4.4 0 0 0-.4-.4h-.1a34.4 34.4 0 0 1-6.8.6 34.4 34.4 0 0 1-6.8-.6z" fill="#febf10" stroke="#000" stroke-linecap="round" stroke-linejoin="round" stroke-width=".41"/>
  <path d="M18.7 73.8v1.1a5.1 5.1 0 0 1-4.4 3.5c-.5.1-.2 1.2.8 1.6v.9h10.8v-.8c1.4-.1 1.9-1.6 1.3-1.7a5.1 5.1 0 0 1-4.4-3.5v-1.1h-1.2v1.1c.3.9 0 1.3-.2-.5h-1.3c-.2 1.8-.5 1.4-.2.5v-1.1z" fill="#325723"/>
  <path d="M18.7 73.8v1.1a5.1 5.1 0 0 1-4.4 3.5c-.6.1.1 2.2 2.2 1.6s3-3.8 3.4-5.1v-1.1zm2.9 0v1.1c.4 1.3 1.3 4.5 3.4 5.1s2.9-1.5 2.2-1.6a5.1 5.1 0 0 1-4.4-3.5v-1.1z" fill="#3c6d3d" stroke="#000" stroke-linecap="round" stroke-linejoin="round" stroke-width=".24"/>
  <path d="M18.7 73.8v1.1a5.1 5.1 0 0 1-4.4 3.5c-.6.1.1 2.2 2.2 1.6s3-3.8 3.4-5.1v-1.1zm2.9 0v1.1c.4 1.3 1.3 4.5 3.4 5.1s2.9-1.5 2.2-1.6a5.1 5.1 0 0 1-4.4-3.5v-1.1z" fill="#325723" stroke="#000" stroke-linecap="round" stroke-linejoin="round" stroke-width=".41"/>
  <path d="M20.1 74.4c-.3 2.1-1.6 3.4-1.3 5s.8.9 2 .9 1.8-.4 1.9-.9-1-2.9-1.3-5h-1.3z" fill="none" stroke="#000" stroke-linecap="round" stroke-linejoin="round" stroke-width=".41"/>
  <path d="M20.5 74.8c-.2 1.6-.8 2.6-.7 3.8s.4.7 1 .7a.9.9 0 0 0 1-.7c.1-1.2-.6-2.2-.7-3.8h-.6z" fill="#0d3a12" stroke="#000" stroke-linecap="round" stroke-linejoin="round" stroke-width=".41"/>
  <path d="M16.9 79.9l2.4.2m-1.7-.7h1.2" fill="none" stroke="#000" stroke-linecap="round" stroke-linejoin="round" stroke-width=".41"/>
  <path d="M14.2 80.7h13.2v2.8l-6.6.8-6.6-.8z" fill="#d09b07" stroke="#000" stroke-linecap="round" stroke-linejoin="round" stroke-width=".41"/>
  <circle cx="15.1" cy="82.1" r=".7" fill="#febf10" stroke="#000" stroke-linecap="round" stroke-linejoin="round" stroke-width=".3"/>
  <circle cx="15.1" cy="82.1" r=".2"/>
  <circle cx="16.7" cy="82.3" r=".7" fill="#febf10" stroke="#000" stroke-linecap="round" stroke-linejoin="round" stroke-width=".3"/>
  <circle cx="16.7" cy="82.3" r=".2"/>
  <circle cx="18.4" cy="82.4" r=".7" fill="#febf10" stroke="#000" stroke-linecap="round" stroke-linejoin="round" stroke-width=".3"/>
  <circle cx="18.4" cy="82.4" r=".2"/>
  <circle cx="20.1" cy="82.5" r=".7" fill="#febf10" stroke="#000" stroke-linecap="round" stroke-linejoin="round" stroke-width=".3"/>
  <circle cx="20.1" cy="82.5" r=".2"/>
  <circle cx="21.7" cy="82.4" r=".7" fill="#febf10" stroke="#000" stroke-linecap="round" stroke-linejoin="round" stroke-width=".3"/>
  <circle cx="21.7" cy="82.4" r=".2"/>
  <circle cx="23.3" cy="82.4" r=".7" fill="#febf10" stroke="#000" stroke-linecap="round" stroke-linejoin="round" stroke-width=".3"/>
  <circle cx="23.3" cy="82.4" r=".2"/>
  <circle cx="25" cy="82.2" r=".7" fill="#febf10" stroke="#000" stroke-linecap="round" stroke-linejoin="round" stroke-width=".3"/>
  <circle cx="25" cy="82.2" r=".2"/>
  <circle cx="26.5" cy="82" r=".7" fill="#febf10" stroke="#000" stroke-linecap="round" stroke-linejoin="round" stroke-width=".3"/>
  <circle cx="26.5" cy="82" r=".2"/>
  <path d="M20.6 72.1a1.7 1.7 0 0 0-1.8 1.3.8.8 0 0 0 .7 1.1c.2-.1.3-.1.4.2s1.6.5 1.8-.3a.8.8 0 0 0 1.1-.9 1.6 1.6 0 0 0-1.6-1.3zm-1.7.3a2.3 2.3 0 0 0-2.4 1.3c-.2.4-.2 1 .3 1s.5-.5.7-.2 1 .3 1.1-.2a2.1 2.1 0 0 1 .5-1.7c.2-.2 0-.3-.2-.2zm3.4 0c0 .3.3.4.5.7s0 1 .2 1.4.7.2 1 0 .5.3.8.2.4-.7.2-1.1a2.4 2.4 0 0 0-2.6-1.2z" fill="red" stroke="#000" stroke-linecap="round" stroke-linejoin="round" stroke-width=".41"/>
  <path d="M14.1 82.9a.7.7 0 0 0-.7.7c-.1.4.2.7.6.8a44.1 44.1 0 0 0 6.8.6 42.7 42.7 0 0 0 6.7-.6c.4-.1.7-.4.6-.8a.7.7 0 0 0-.7-.7h-.2a53.8 53.8 0 0 1-6.4.6 53.6 53.6 0 0 1-6.5-.6z" fill="#febf10" stroke="#000" stroke-linecap="round" stroke-linejoin="round" stroke-width=".41"/>
  <path d="M24.7 79.9l-2.5.2m1.6-.7h-1m-4.7-.6h.6m4.7.1h-.6" fill="none" stroke="#000" stroke-linecap="round" stroke-linejoin="round" stroke-width=".41"/>
  <path d="M14.8 63.9a3.4 3.4 0 0 0-2.9 3.3 4.9 4.9 0 0 0 2.9 4.7 13.1 13.1 0 0 0 6 1.1 12.9 12.9 0 0 0 5.9-1.1 4.9 4.9 0 0 0 3-4.7 3.5 3.5 0 0 0-3-3.3H14.8z" fill="#febf10"/>
  <path d="M17.1 64s-2.1 6.6 4.6 9.1c0 0-6.3.2-8.4-2.2s-1.6-4.4-.6-5.7 3-1.5 4.4-1.2z" fill="#d09b07"/>
  <path d="M14.8 63.9a3.4 3.4 0 0 0-2.9 3.3 4.9 4.9 0 0 0 2.9 4.7 13.1 13.1 0 0 0 6 1.1 12.9 12.9 0 0 0 5.9-1.1 4.9 4.9 0 0 0 3-4.7 3.5 3.5 0 0 0-3-3.3H14.8z" fill="none" stroke="#000" stroke-linecap="round" stroke-linejoin="round" stroke-width=".41"/>
  <path d="M13.6 60.7h14.3v3.1l-7.1.9-7.2-.9z" fill="#d09b07" stroke="#000" stroke-linecap="round" stroke-linejoin="round" stroke-width=".41"/>
  <path d="M16.9 63.1a3.1 3.1 0 0 1-1.8.5 2.9 2.9 0 0 1-1.4-1.2 2.5 2.5 0 0 1 1.8-.5 2.9 2.9 0 0 1 1.4 1.2z" fill="#febf10" stroke="#000" stroke-linecap="round" stroke-linejoin="round" stroke-width=".3"/>
  <path fill="none" stroke="#000" stroke-linecap="round" stroke-linejoin="round" stroke-width=".3" d="M16.9 63.1l-1.8-.4"/>
  <path d="M18.7 63.4a2.5 2.5 0 0 1-1.7.6 2.8 2.8 0 0 1-1.5-1.2 2.5 2.5 0 0 1 1.8-.5 2.9 2.9 0 0 1 1.4 1.1z" fill="#febf10" stroke="#000" stroke-linecap="round" stroke-linejoin="round" stroke-width=".3"/>
  <path fill="none" stroke="#000" stroke-linecap="round" stroke-linejoin="round" stroke-width=".3" d="M18.7 63.4l-1.7-.3"/>
  <path d="M20.7 63.4a2.1 2.1 0 0 1-1.6.7 2.4 2.4 0 0 1-1.6-.9 2.4 2.4 0 0 1 1.7-.7 2.1 2.1 0 0 1 1.5.9z" fill="#febf10" stroke="#000" stroke-linecap="round" stroke-linejoin="round" stroke-width=".3"/>
  <path fill="none" stroke="#000" stroke-linecap="round" stroke-linejoin="round" stroke-width=".3" d="M20.7 63.4l-1.7-.1"/>
  <path d="M24.7 63a2.2 2.2 0 0 0 1.7.5 2.4 2.4 0 0 0 1.4-1.1 2.4 2.4 0 0 0-1.7-.5 2.4 2.4 0 0 0-1.4 1.1z" fill="#febf10" stroke="#000" stroke-linecap="round" stroke-linejoin="round" stroke-width=".3"/>
  <path fill="none" stroke="#000" stroke-linecap="round" stroke-linejoin="round" stroke-width=".3" d="M24.7 63l1.7-.3"/>
  <path d="M22.8 63.4a2.5 2.5 0 0 0 1.8.5c.8-.1 1.4-1.1 1.4-1.1a2.4 2.4 0 0 0-1.7-.5 2.4 2.4 0 0 0-1.5 1.1z" fill="#febf10" stroke="#000" stroke-linecap="round" stroke-linejoin="round" stroke-width=".3"/>
  <path fill="none" stroke="#000" stroke-linecap="round" stroke-linejoin="round" stroke-width=".3" d="M22.8 63.4l1.8-.3"/>
  <path d="M20.8 63.4a2.4 2.4 0 0 0 1.7.7 2.9 2.9 0 0 0 1.5-.9 2.8 2.8 0 0 0-1.6-.8 2.8 2.8 0 0 0-1.6 1z" fill="#febf10" stroke="#000" stroke-linecap="round" stroke-linejoin="round" stroke-width=".3"/>
  <path fill="none" stroke="#000" stroke-linecap="round" stroke-linejoin="round" stroke-width=".3" d="M20.8 63.4l1.8-.1"/>
  <path d="M22.1 65h-.3L19 62.1c-.2-.2-.2-.4 0-.5s.3-.2.5 0l2.8 2.8a.4.4 0 0 1 0 .5z" fill="#0065b7" stroke="#000" stroke-linecap="round" stroke-linejoin="round" stroke-width=".35"/>
  <path d="M19.3 65.1h-.2a.5.5 0 0 1 0-.5l2.6-2.6c.1-.2.3-.2.5 0a.4.4 0 0 1 0 .5L19.6 65z" fill="#0065b7" stroke="#000" stroke-linecap="round" stroke-linejoin="round" stroke-width=".35"/>
  <path d="M30.7 58.7c0 2-4.4 3.6-9.9 3.6s-10-1.6-10-3.6c0-2.1 4.5-3.7 10-3.7s9.9 1.6 9.9 3.7z" fill="red"/>
  <path d="M13.5 57.8s7.7 3.6 14.3 0c0 0 .5-.3.7.5s-1.4 2.2-5.9 2.3-7.6-.3-8.6-.9-1.8-1-.5-1.9z" fill="#980805"/>
  <path d="M30.7 58.7c0 2-4.4 3.6-9.9 3.6s-10-1.6-10-3.6c0-2.1 4.5-3.7 10-3.7s9.9 1.6 9.9 3.7z" fill="none" stroke="#000" stroke-linecap="round" stroke-linejoin="round" stroke-width=".38"/>
  <path d="M28 57.8c.4.3.6.5.6.8 0 1.1-3.5 2-7.8 2s-7.9-.9-7.9-2c0-.3.2-.5.6-.7" fill="none" stroke="#000" stroke-linecap="round" stroke-linejoin="round" stroke-width=".36"/>
  <path d="M12.3 66.7c-1.1 0-.6 6.6 8.4 6.3h.1c9 .3 9.6-6.3 8.4-6.3h-.1a.7.7 0 0 0-.4.7.4.4 0 0 0-.6-.3c-.3.1-.4.4-.5.9s-.4-.7-.8-.6-.5.5-.7 1.1-.3-.9-.8-.9-.9.3-1.1.9a.9.9 0 0 0-.9-.8c-.8 0-1.1.4-1.3 1.1s-.6-1.1-1.2-1.1-1.1.5-1.3 1.2-.5-1.2-1.2-1.2a1 1 0 0 0-1 .8c-.2-.6-.4-.9-1.1-.9s-.8.3-.8.9-.3-1-.7-1.1-.7.1-.8.6-.2-.8-.5-.9-.4 0-.5.3-.2-.6-.5-.7z" fill="none" stroke="#000" stroke-linecap="round" stroke-linejoin="round" stroke-width=".41"/>
  <path d="M12.4 66.7c-1.3-.4-.9 6.7 8.4 6.3-9.8-.9-7-5.8-8.4-6.3z" fill="#325723" stroke="#000" stroke-linecap="round" stroke-linejoin="round" stroke-width=".41"/>
  <path d="M13.4 67.1c-1.4-.4-.9 6 7.4 5.9-8.4-.8-6-5.5-7.4-5.9z" fill="#325723" stroke="#000" stroke-linecap="round" stroke-linejoin="round" stroke-width=".41"/>
  <path d="M14.7 67.4c-1.8-.5-.8 5.7 6.1 5.6-6.7-1.7-4.7-5.2-6.1-5.6z" fill="#325723" stroke="#000" stroke-linecap="round" stroke-linejoin="round" stroke-width=".41"/>
  <path d="M16.2 67.6c-1.8 0-.8 4.5 4.6 5.4-4.3-1.8-2.5-5.4-4.6-5.4z" fill="#325723" stroke="#000" stroke-linecap="round" stroke-linejoin="round" stroke-width=".41"/>
  <path d="M18.3 67.7c-1.9 0-1.2 4.3 2.5 5.3-1.5-1.8-.6-5.3-2.5-5.3z" fill="#325723" stroke="#000" stroke-linecap="round" stroke-linejoin="round" stroke-width=".41"/>
  <path d="M29.1 66.7c1.3-.4 1 6.7-8.4 6.3 9.8-.9 7-5.8 8.4-6.3z" fill="#325723" stroke="#000" stroke-linecap="round" stroke-linejoin="round" stroke-width=".41"/>
  <path d="M28.1 67.1c1.4-.4.9 6-7.4 5.9 8.4-.8 6-5.5 7.4-5.9z" fill="#325723" stroke="#000" stroke-linecap="round" stroke-linejoin="round" stroke-width=".41"/>
  <path d="M26.8 67.4c1.8-.5.8 5.7-6.1 5.6 6.7-1.7 4.7-5.2 6.1-5.6z" fill="#325723" stroke="#000" stroke-linecap="round" stroke-linejoin="round" stroke-width=".41"/>
  <path d="M25.3 67.6c1.8 0 .9 4.5-4.6 5.4 4.3-1.8 2.5-5.4 4.6-5.4z" fill="#325723" stroke="#000" stroke-linecap="round" stroke-linejoin="round" stroke-width=".41"/>
  <path d="M23.3 67.7c1.8 0 1.1 4.3-2.6 5.3 1.5-1.8.6-5.3 2.6-5.3z" fill="#325723" stroke="#000" stroke-linecap="round" stroke-linejoin="round" stroke-width=".41"/>
  <path d="M20.8 67.7c-1.9 0-1.7 3.5 0 5.3 1.6-1.8 1.8-5.3 0-5.3z" fill="#325723" stroke="#000" stroke-linecap="round" stroke-linejoin="round" stroke-width=".41"/>
  <path d="M20.8 68.7c-1.2 0-1.1 2.8 0 4.2 1-1.4 1.1-4.2 0-4.2z" fill="#0d3a12" stroke="#000" stroke-linecap="round" stroke-linejoin="round" stroke-width=".41"/>
  <path d="M13.5 63.3c-.3 0-.5.1-.5.4s.1.4.3.5a20.3 20.3 0 0 0 7.3 1.2h.3a19.9 19.9 0 0 0 7.3-1.2c.2-.1.4-.3.3-.5s-.2-.4-.5-.4h-.2a20.2 20.2 0 0 1-7 1.1 20.8 20.8 0 0 1-7.1-1.1zm.4 16.7a.4.4 0 0 0-.4.4c-.1.2.1.4.3.5a46.9 46.9 0 0 0 7 .6 46.7 46.7 0 0 0 6.9-.6.5.5 0 0 0-.1-.9h-.1a33.3 33.3 0 0 1-6.7.6A33.7 33.7 0 0 1 14 80z" fill="#febf10" stroke="#000" stroke-linecap="round" stroke-linejoin="round" stroke-width=".41"/>
  <path d="M55.1 73.8v1.1a5.1 5.1 0 0 1-4.4 3.5c-.5.1-.2 1.2.8 1.6v.9h10.8v-.8c1.4-.1 1.8-1.6 1.2-1.7a5 5 0 0 1-4.3-3.5v-1.1H58v1.1c.2.9 0 1.3-.2-.5h-1.3c-.3 1.8-.5 1.4-.2.5v-1.1z" fill="#325723"/>
  <path d="M55.1 73.8v1.1a5.1 5.1 0 0 1-4.4 3.5c-.7.1.1 2.2 2.2 1.6s3-3.8 3.4-5.1v-1.1zm2.9 0v1.1c.4 1.3 1.3 4.5 3.4 5.1s2.8-1.5 2.1-1.6a5 5 0 0 1-4.3-3.5v-1.1z" fill="#3c6d3d" stroke="#000" stroke-linecap="round" stroke-linejoin="round" stroke-width=".24"/>
  <path d="M55.1 73.8v1.1a5.1 5.1 0 0 1-4.4 3.5c-.7.1.1 2.2 2.2 1.6s3-3.8 3.4-5.1v-1.1zm2.9 0v1.1c.4 1.3 1.3 4.5 3.4 5.1s2.8-1.5 2.1-1.6a5 5 0 0 1-4.3-3.5v-1.1z" fill="#325723" stroke="#000" stroke-linecap="round" stroke-linejoin="round" stroke-width=".41"/>
  <path d="M56.5 74.4c-.3 2.1-1.6 3.4-1.4 5s.9.9 2 .9 1.9-.4 2-.9-1.1-2.9-1.3-5h-1.3z" fill="none" stroke="#000" stroke-linecap="round" stroke-linejoin="round" stroke-width=".41"/>
  <path d="M56.8 74.8c-.1 1.6-.8 2.6-.7 3.8a1 1 0 0 0 1 .7c.6 0 1-.3 1-.7s-.5-2.2-.6-3.8h-.7z" fill="#0d3a12" stroke="#000" stroke-linecap="round" stroke-linejoin="round" stroke-width=".41"/>
  <path d="M53.3 79.9l2.4.2m-1.7-.7h1.1" fill="none" stroke="#000" stroke-linecap="round" stroke-linejoin="round" stroke-width=".41"/>
  <path d="M50.5 80.7h13.2v2.8l-6.6.8-6.6-.8z" fill="#d09b07" stroke="#000" stroke-linecap="round" stroke-linejoin="round" stroke-width=".41"/>
  <circle cx="51.4" cy="82.1" r=".7" fill="#febf10" stroke="#000" stroke-linecap="round" stroke-linejoin="round" stroke-width=".3"/>
  <circle cx="51.4" cy="82.1" r=".2"/>
  <circle cx="53.1" cy="82.3" r=".7" fill="#febf10" stroke="#000" stroke-linecap="round" stroke-linejoin="round" stroke-width=".3"/>
  <circle cx="53.1" cy="82.3" r=".2"/>
  <circle cx="54.7" cy="82.4" r=".7" fill="#febf10" stroke="#000" stroke-linecap="round" stroke-linejoin="round" stroke-width=".3"/>
  <circle cx="54.7" cy="82.4" r=".2"/>
  <circle cx="56.4" cy="82.5" r=".7" fill="#febf10" stroke="#000" stroke-linecap="round" stroke-linejoin="round" stroke-width=".3"/>
  <circle cx="56.4" cy="82.5" r=".2"/>
  <circle cx="58" cy="82.4" r=".7" fill="#febf10" stroke="#000" stroke-linecap="round" stroke-linejoin="round" stroke-width=".3"/>
  <circle cx="58" cy="82.4" r=".2"/>
  <circle cx="59.7" cy="82.4" r=".7" fill="#febf10" stroke="#000" stroke-linecap="round" stroke-linejoin="round" stroke-width=".3"/>
  <circle cx="59.7" cy="82.4" r=".2"/>
  <circle cx="61.3" cy="82.2" r=".7" fill="#febf10" stroke="#000" stroke-linecap="round" stroke-linejoin="round" stroke-width=".3"/>
  <circle cx="61.3" cy="82.2" r=".2"/>
  <circle cx="62.9" cy="82" r=".7" fill="#febf10" stroke="#000" stroke-linecap="round" stroke-linejoin="round" stroke-width=".3"/>
  <circle cx="62.9" cy="82" r=".2"/>
  <path d="M56.9 72.1a1.8 1.8 0 0 0-1.8 1.3.9.9 0 0 0 .8 1.1c.2-.1.3-.1.4.2a1.1 1.1 0 0 0 1.8-.3c.6.3 1.1-.3 1-.9a1.4 1.4 0 0 0-1.5-1.3zm-1.6.3a2.5 2.5 0 0 0-2.5 1.3c-.1.4-.2 1 .3 1s.6-.5.8-.2 1 .3 1-.2a2.1 2.1 0 0 1 .6-1.7c.2-.2-.1-.3-.2-.2zm3.4 0c0 .3.3.4.4.7s.1 1 .3 1.4.7.2 1 0 .4.3.8.2.4-.7.2-1.1a2.6 2.6 0 0 0-2.6-1.2z" fill="red" stroke="#000" stroke-linecap="round" stroke-linejoin="round" stroke-width=".41"/>
  <path d="M50.5 82.9a.8.8 0 1 0-.1 1.5 42.7 42.7 0 0 0 6.7.6 44.1 44.1 0 0 0 6.8-.6.8.8 0 0 0 .6-.8.8.8 0 0 0-.8-.7h-.1a55.7 55.7 0 0 1-6.5.6 55.7 55.7 0 0 1-6.5-.6z" fill="#febf10" stroke="#000" stroke-linecap="round" stroke-linejoin="round" stroke-width=".41"/>
  <path d="M61 79.9l-2.4.2m1.6-.7h-1.1m-4.6-.6h.5m4.7.1h-.5" fill="none" stroke="#000" stroke-linecap="round" stroke-linejoin="round" stroke-width=".41"/>
  <path d="M51.2 63.9a3.5 3.5 0 0 0-3 3.3 4.9 4.9 0 0 0 3 4.7 12.9 12.9 0 0 0 5.9 1.1 13.1 13.1 0 0 0 6-1.1 4.9 4.9 0 0 0 2.9-4.7 3.5 3.5 0 0 0-2.9-3.3H51.2z" fill="#febf10"/>
  <path d="M53.5 64s-2.2 6.6 4.6 9.1c0 0-6.4.2-8.4-2.2s-1.6-4.4-.6-5.7 2.9-1.5 4.4-1.2z" fill="#d09b07"/>
  <path d="M51.2 63.9a3.5 3.5 0 0 0-3 3.3 4.9 4.9 0 0 0 3 4.7 12.9 12.9 0 0 0 5.9 1.1 13.1 13.1 0 0 0 6-1.1 4.9 4.9 0 0 0 2.9-4.7 3.5 3.5 0 0 0-2.9-3.3H51.2z" fill="none" stroke="#000" stroke-linecap="round" stroke-linejoin="round" stroke-width=".41"/>
  <path d="M49.9 60.7h14.4v3.1l-7.2.9-7.2-.9z" fill="#d09b07" stroke="#000" stroke-linecap="round" stroke-linejoin="round" stroke-width=".41"/>
  <path d="M53.2 63.1a2.7 2.7 0 0 1-1.7.5 2.4 2.4 0 0 1-1.4-1.2 2.4 2.4 0 0 1 1.7-.5 2.4 2.4 0 0 1 1.4 1.2z" fill="#febf10" stroke="#000" stroke-linecap="round" stroke-linejoin="round" stroke-width=".3"/>
  <path fill="none" stroke="#000" stroke-linecap="round" stroke-linejoin="round" stroke-width=".3" d="M53.2 63.1l-1.7-.4"/>
  <path d="M55.1 63.4a2.9 2.9 0 0 1-1.8.6 2.9 2.9 0 0 1-1.4-1.2 2.4 2.4 0 0 1 1.7-.5 2.8 2.8 0 0 1 1.5 1.1z" fill="#febf10" stroke="#000" stroke-linecap="round" stroke-linejoin="round" stroke-width=".3"/>
  <path fill="none" stroke="#000" stroke-linecap="round" stroke-linejoin="round" stroke-width=".3" d="M55.1 63.4l-1.8-.3"/>
  <path d="M57.1 63.4a2.4 2.4 0 0 1-1.7.7 2.1 2.1 0 0 1-1.5-.9 2.3 2.3 0 0 1 1.6-.7 2.4 2.4 0 0 1 1.6.9z" fill="#febf10" stroke="#000" stroke-linecap="round" stroke-linejoin="round" stroke-width=".3"/>
  <path fill="none" stroke="#000" stroke-linecap="round" stroke-linejoin="round" stroke-width=".3" d="M57.1 63.4l-1.8-.1"/>
  <path d="M61 63a2.5 2.5 0 0 0 1.8.5 2.9 2.9 0 0 0 1.4-1.1 2.5 2.5 0 0 0-1.8-.5A2.4 2.4 0 0 0 61 63z" fill="#febf10" stroke="#000" stroke-linecap="round" stroke-linejoin="round" stroke-width=".3"/>
  <path fill="none" stroke="#000" stroke-linecap="round" stroke-linejoin="round" stroke-width=".3" d="M61 63l1.8-.3"/>
  <path d="M59.2 63.4a2.2 2.2 0 0 0 1.7.5 2.4 2.4 0 0 0 1.5-1.1 2.5 2.5 0 0 0-1.8-.5 2.1 2.1 0 0 0-1.4 1.1z" fill="#febf10" stroke="#000" stroke-linecap="round" stroke-linejoin="round" stroke-width=".3"/>
  <path fill="none" stroke="#000" stroke-linecap="round" stroke-linejoin="round" stroke-width=".3" d="M59.2 63.4l1.7-.3"/>
  <path d="M57.2 63.4a2.1 2.1 0 0 0 1.6.7 2.9 2.9 0 0 0 1.6-.9 2.8 2.8 0 0 0-1.7-.8 2.4 2.4 0 0 0-1.5 1z" fill="#febf10" stroke="#000" stroke-linecap="round" stroke-linejoin="round" stroke-width=".3"/>
  <path fill="none" stroke="#000" stroke-linecap="round" stroke-linejoin="round" stroke-width=".3" d="M57.2 63.4l1.7-.1"/>
  <path d="M58.4 65h-.3l-2.8-2.8a.4.4 0 0 1 0-.5.4.4 0 0 1 .6 0l2.8 2.8a.4.4 0 0 1 0 .5z" fill="#0065b7" stroke="#000" stroke-linecap="round" stroke-linejoin="round" stroke-width=".35"/>
  <path d="M55.7 65.1h-.2a.3.3 0 0 1 0-.5L58 62c.2-.2.4-.2.5 0s.2.3 0 .5L56 65z" fill="#0065b7" stroke="#000" stroke-linecap="round" stroke-linejoin="round" stroke-width=".35"/>
  <path d="M67.1 58.7c0 2-4.5 3.6-10 3.6s-9.9-1.6-9.9-3.6c0-2.1 4.4-3.7 9.9-3.7s10 1.6 10 3.7z" fill="red"/>
  <path d="M49.9 57.8s7.7 3.6 14.3 0c0 0 .5-.3.7.5s-1.4 2.2-6 2.3-7.5-.3-8.5-.9-1.9-1-.5-1.9z" fill="#980805"/>
  <path d="M67.1 58.7c0 2-4.5 3.6-10 3.6s-9.9-1.6-9.9-3.6c0-2.1 4.4-3.7 9.9-3.7s10 1.6 10 3.7z" fill="none" stroke="#000" stroke-linecap="round" stroke-linejoin="round" stroke-width=".38"/>
  <path d="M64.3 57.8c.4.3.6.5.6.8 0 1.1-3.5 2-7.8 2s-7.8-.9-7.8-2c0-.3.2-.5.6-.7" fill="none" stroke="#000" stroke-linecap="round" stroke-linejoin="round" stroke-width=".36"/>
  <path d="M48.7 66.7c-1.2 0-.6 6.6 8.4 6.3 9 .3 9.6-6.3 8.5-6.3h-.1c-.3.1-.4.4-.5.7s-.3-.4-.5-.3-.5.4-.6.9-.3-.7-.7-.6-.6.5-.7 1.1-.3-.9-.8-.9a1.1 1.1 0 0 0-1.2.9.9.9 0 0 0-.9-.8c-.7 0-1 .4-1.2 1.1a1.3 1.3 0 0 0-1.3-1.1c-.6 0-1 .5-1.2 1.2s-.5-1.2-1.3-1.2a.9.9 0 0 0-.9.8c-.2-.6-.5-.9-1.1-.9s-.8.3-.9.9-.2-1-.7-1.1-.6.1-.7.6-.2-.8-.6-.9-.4 0-.5.3-.2-.6-.4-.7z" fill="none" stroke="#000" stroke-linecap="round" stroke-linejoin="round" stroke-width=".41"/>
  <path d="M48.8 66.7c-1.3-.4-1 6.7 8.3 6.3-9.7-.9-6.9-5.8-8.3-6.3z" fill="#325723" stroke="#000" stroke-linecap="round" stroke-linejoin="round" stroke-width=".41"/>
  <path d="M49.7 67.1c-1.4-.4-.8 6 7.4 5.9-8.4-.8-5.9-5.5-7.4-5.9z" fill="#325723" stroke="#000" stroke-linecap="round" stroke-linejoin="round" stroke-width=".41"/>
  <path d="M51 67.4c-1.7-.5-.7 5.7 6.1 5.6-6.6-1.7-4.6-5.2-6.1-5.6z" fill="#325723" stroke="#000" stroke-linecap="round" stroke-linejoin="round" stroke-width=".41"/>
  <path d="M52.6 67.6c-1.8 0-.9 4.5 4.5 5.4-4.2-1.8-2.5-5.4-4.5-5.4z" fill="#325723" stroke="#000" stroke-linecap="round" stroke-linejoin="round" stroke-width=".41"/>
  <path d="M54.6 67.7c-1.8 0-1.1 4.3 2.5 5.3-1.4-1.8-.5-5.3-2.5-5.3zm10.9-1c1.2-.4.9 6.7-8.4 6.3 9.7-.9 7-5.8 8.4-6.3z" fill="#325723" stroke="#000" stroke-linecap="round" stroke-linejoin="round" stroke-width=".41"/>
  <path d="M64.5 67.1c1.4-.4.8 6-7.4 5.9 8.4-.8 6-5.5 7.4-5.9z" fill="#325723" stroke="#000" stroke-linecap="round" stroke-linejoin="round" stroke-width=".41"/>
  <path d="M63.2 67.4c1.7-.5.8 5.7-6.1 5.6 6.7-1.7 4.6-5.2 6.1-5.6z" fill="#325723" stroke="#000" stroke-linecap="round" stroke-linejoin="round" stroke-width=".41"/>
  <path d="M61.7 67.6c1.8 0 .8 4.5-4.6 5.4 4.2-1.8 2.5-5.4 4.6-5.4z" fill="#325723" stroke="#000" stroke-linecap="round" stroke-linejoin="round" stroke-width=".41"/>
  <path d="M59.6 67.7c1.9 0 1.1 4.3-2.5 5.3 1.5-1.8.5-5.3 2.5-5.3z" fill="#325723" stroke="#000" stroke-linecap="round" stroke-linejoin="round" stroke-width=".41"/>
  <path d="M57.1 67.7c-1.8 0-1.6 3.5 0 5.3 1.7-1.8 1.9-5.3 0-5.3z" fill="#325723" stroke="#000" stroke-linecap="round" stroke-linejoin="round" stroke-width=".41"/>
  <path d="M57.1 68.7c-1.1 0-1 2.8 0 4.2 1.1-1.4 1.2-4.2 0-4.2z" fill="#0d3a12" stroke="#000" stroke-linecap="round" stroke-linejoin="round" stroke-width=".41"/>
  <path d="M49.8 63.3a.4.4 0 0 0-.4.4c-.1.2 0 .4.3.5a19.9 19.9 0 0 0 7.3 1.2h.3a20.3 20.3 0 0 0 7.3-1.2.5.5 0 0 0 .3-.5.5.5 0 0 0-.5-.4h-.2a20.8 20.8 0 0 1-7.1 1.1 20.8 20.8 0 0 1-7.1-1.1zm.5 16.7a.5.5 0 0 0-.5.4.7.7 0 0 0 .4.5 44.3 44.3 0 0 0 6.9.6 44.3 44.3 0 0 0 6.9-.6.5.5 0 0 0 .4-.5.4.4 0 0 0-.4-.4h-.1a34.4 34.4 0 0 1-6.8.6 34.4 34.4 0 0 1-6.8-.6z" fill="#febf10" stroke="#000" stroke-linecap="round" stroke-linejoin="round" stroke-width=".41"/>
  <path fill="none" stroke="#000" stroke-linecap="round" stroke-linejoin="round" stroke-width=".4" d="M8 7.9h62v124.31H8z"/>
</svg>
