<svg xmlns="http://www.w3.org/2000/svg" viewBox="0 0 78 140">
  <rect width="78" height="140" rx="6" ry="6" fill="#fff"/>
  <path d="M45.2 32.2a.6.6 0 0 0 .3-.8 9 9 0 0 1-.1-4.3 7.4 7.4 0 0 0 .1-3 6.1 6.1 0 0 0-2.1-3.8.7.7 0 0 0-1.1.2.8.8 0 0 0 .2 1 5.4 5.4 0 0 1 1.5 2.9 5.3 5.3 0 0 1-.1 2.5 10.5 10.5 0 0 0 .2 4.9.7.7 0 0 0 .9.5z" fill="#856353" stroke="#000" stroke-linecap="round" stroke-linejoin="round" stroke-width=".4"/>
  <path d="M41.9 32.3a.7.7 0 0 0 .5-.8 8.3 8.3 0 0 1 .9-4.1 7 7 0 0 0 .8-3 6.3 6.3 0 0 0-1.2-4.2.8.8 0 0 0-1-.1.7.7 0 0 0-.1 1.1 5.6 5.6 0 0 1 .1 5.6 10.8 10.8 0 0 0-1 4.8.8.8 0 0 0 .8.7z" fill="#856353" stroke="#000" stroke-linecap="round" stroke-linejoin="round" stroke-width=".4"/>
  <path d="M28.3 11.3s-7-3.3-11.9 2.3-.8 10.8.7 11.5 3.2.1 3.9-3.6 4.5-10 7.3-10.2z" fill="#febf10"/>
  <path d="M24.2 13.6a8.4 8.4 0 0 0-6.1 6.3c-1.4 5.5 1 5.3 1 5.3l.9-.8.9-2 2.9-7.6z" fill="#d09b07"/>
  <path d="M28.3 11.3s-7-3.3-11.9 2.3-.8 10.8.7 11.5 3.2.1 3.9-3.6 4.5-10 7.3-10.2z" fill="none" stroke="#000" stroke-linecap="round" stroke-linejoin="round" stroke-width=".4"/>
  <path d="M30.3 33.2l-1.8.6h-.2a11.5 11.5 0 0 0-6.3 5.7h-.1c-1.5 2.8-2.7 6.9-2.6 13l.4 9a4.8 4.8 0 0 1 1.6.4 5.8 5.8 0 0 0 3.7.2 2.5 2.5 0 0 0 1.2-.4 16.3 16.3 0 0 1-2.1 5.3 26.5 26.5 0 0 0-1 2.8l28.8.3c0-5.7-4.6-12.8-4.6-12.8l-.3-.9 3.7-8.9a7.1 7.1 0 0 0 2.1 1.3s.8 2.7 4.8 4.2l-.4.5a5.2 5.2 0 0 0-.4 2.3l8.2 3c5-8.8-5.1-16-5.1-16s-.3-1-4.5-4.8-9.4-4.2-11.9-4.8l-1.1-.5" fill="red"/>
  <path d="M20.4 56.7s3.9 3.4 7.3-.7-1.5 6-1.5 6l-2.8.6-2.9-.9-.9-.9zm17.1.9s.2 9.9-2.3 12.2l1.6.2h15l-.9-5.6-3.9-7.9zm12.8-22.5l4.2 2.4 4.8 4.4.6 1.2 3.6 3.1 2.6 5.2.3 3.4-.9 3.2S62 45.6 50 43.3s.3-8.2.3-8.2z" fill="#980805"/>
  <path d="M34.3 29.6l6.4.6a4.2 4.2 0 0 0 1.7 2.5l-2.3 2.9-3.8.5-4.4-2.5-.3-.7a3.4 3.4 0 0 0 2.7-3.3z" fill="#f3bc84"/>
  <path d="M37.7 31.5a6.7 6.7 0 0 1-.7 3.9l1.5-.3 1.8-1 1.5-1.7-.7-.9h-.6l-1.1.4-.9-.2z" fill="#c69c6d"/>
  <path d="M27 56.1a24.3 24.3 0 0 0-5.1-16.6l2.4-3.3 8.2 17.1v4.1zm10.7 1.3l.6-4.4s2.8-5.1 1.7-9.6l11.5-8 3 1.8s-5.1 7.3-5.7 8.6a16.2 16.2 0 0 0 1.9 1.8l-3.9 9.5z" fill="#325723"/>
  <path fill="#0d3a12" d="M50.6 47.6l-3.4 8.8-4.5 1 .1-1.3 1.2-3.7 1.3-7.1.4-3.4 6.8-5.8 1.8 1.3-4.2 6.1-1.4 2.2 1.1 1.2.8.7z"/>
  <path fill="#febf10" d="M16.1 46.7l-.5-5 2-.3.5 4.9"/>
  <path fill="#d09b07" d="M16.9 46.3l-.5-5 1.2.1.5 4.9"/>
  <path fill="none" stroke="#000" stroke-linecap="round" stroke-linejoin="round" stroke-width=".4" d="M16.1 46.7l-.5-5 2-.3.5 4.9"/>
  <path d="M18 57.8l-2.1 2.4s-2.2-2.7-2-5 4.3-4 6.6-1.7 2 4.8 1.6 5.2a5.8 5.8 0 0 0-1.1 1.5 5.6 5.6 0 0 1-1.1 1.3zM51.3 70c.4-2.5 3-7.1 4.4-8.2l1.6.8a14.3 14.3 0 0 1-3 7.5zm2.3-5.4a10.6 10.6 0 0 1 3.5-.9m-2.5-.7a5.1 5.1 0 0 1 2.7-.3m-4.7 3.8a10.9 10.9 0 0 1 4.2-1.3m-4.9 3.1a16.4 16.4 0 0 1 4.3-1.5m-4 2.9a20.8 20.8 0 0 1 3.2-1.2" fill="#febf10" stroke="#000" stroke-linecap="round" stroke-linejoin="round" stroke-width=".4"/>
  <path d="M57.7 62.9c.1-.3-.3-.7-1-1.1s-1.3-.4-1.5-.1c-.1.3.3.8 1 1.1s1.4.4 1.5.1z" fill="#febf10" stroke="#000" stroke-linecap="round" stroke-linejoin="round" stroke-width=".4"/>
  <path fill="#0065b7" d="M30.6 33.3l1.2 1.9-2.3 2.2-1.3-3.6 2.4-.5z"/>
  <path d="M38.3 53s2.8-5.1 1.7-9.6a16.8 16.8 0 0 0-4.9-7.6l-4.2 5.1 1.8 9.6-.3 6.9h5.3z" fill="none" stroke="#000" stroke-linecap="round" stroke-linejoin="round" stroke-width=".4"/>
  <path fill="#febf10" d="M28.4 37.3l.8.8 1.5-1.5 2-2.1 1.8.3v1.1l-.5 1.3-3.4 3.4-1.3.7-2.4-1.9"/>
  <path d="M28.7 38.5h.1a.4.4 0 0 0 .5-.1l3.5-3.2-.7-.7-3.1 2.9" fill="#f2f2f2"/>
  <path d="M28.7 38.5h.1a.4.4 0 0 0 .5-.1l3.5-3.2m-4.7 2.4a.1.1 0 0 0 .1.1h.6l3.4-3.2" fill="none" stroke="#000" stroke-linecap="round" stroke-linejoin="round" stroke-width=".4"/>
  <path d="M26.9 39.8v.7a.7.7 0 0 0 .4.5l.7.2.4.9.3.2a.1.1 0 0 0 .1.1l.5-.2.4-.7h.8c.2-.1.4-.2.4-.4l.2-.7h.5c.2-.1.4-.2.4-.4l.3-.7.8-.2c.3 0 .4-.2.4-.5v-.7l.8-.4c.1 0 .2-.1.2-.3l.4-1.3-.9-.3-.4 1.1-.8.4a.9.9 0 0 0-.3.5v.6l-.7.2-.4.4-.2.6h-.6a.4.4 0 0 0-.4.4l-.2.6h-.6l-.3.3H29v-.4l-.3-.2-.6-.2v-.7c0-.2-.2-.3-.3-.4" fill="#f2f2f2"/>
  <path d="M26.9 39.8v.7a.7.7 0 0 0 .4.5l.7.2.4.9.3.2a.1.1 0 0 0 .1.1l.5-.2.4-.7h.8c.2-.1.4-.2.4-.4l.2-.7h.5c.2-.1.4-.2.4-.4l.3-.7.8-.2c.3 0 .4-.2.4-.5v-.7l.8-.4c.1 0 .2-.1.2-.3l.4-1.3-1-.2-.3 1-.8.4a.9.9 0 0 0-.3.5v.6l-.7.2-.4.4-.2.6h-.6a.4.4 0 0 0-.4.4l-.2.6h-.6l-.3.3H29v-.4l-.3-.2-.6-.2v-.7c0-.2-.2-.3-.3-.4" fill="none" stroke="#000" stroke-linecap="round" stroke-linejoin="round" stroke-width=".4"/>
  <circle cx="32.9" cy="36.2" r=".2"/>
  <circle cx="31.7" cy="37.5" r=".2"/>
  <circle cx="30.7" cy="38.5" r=".2"/>
  <path fill="#0065b7" d="M43.8 33.2l3.6.8 2.9.9-4.9 4.1-5.2 3-1.4-3-.8-1.7 5.8-4.1z"/>
  <path fill="#004da1" d="M44.3 33.4l2.7.6 3 .9-4.1 3.4-2 1.5-2.4-3.8 2.8-2.6z"/>
  <path d="M48.7 59.9c-.4 1.2-2.1.5-2.1.5L39 61.6h-3.2a3.3 3.3 0 0 1-3.1-.2 2.5 2.5 0 0 1-3.1-.4 2.3 2.3 0 0 1-3-.6l.4-3.8 10.8 1.5 9.3-1.2z" fill="#0065b7"/>
  <path d="M48.8 45.9s2.5 2.6 4 3 .8 2.7 4.8 4.2m-37.9-6.2a33.2 33.2 0 0 0-.4 5.7l-1 8.6a23.3 23.3 0 0 1 3 .8 5.8 5.8 0 0 0 3.7.2c1.1-.3 1.2-.2 1.2-.2m-4.9-7.8s1.4-.9 3.2 1.7m2.5-1s-2.6-2.7-4.3-.7" fill="none" stroke="#000" stroke-linecap="round" stroke-linejoin="round" stroke-width=".4"/>
  <path d="M22 39.7s6.2 6.7 4.9 18.4c-.8 6.3-2.3 7.8-2.8 9a26.5 26.5 0 0 0-1 2.8m27.6-22.3L47 56.5" fill="none" stroke="#000" stroke-linecap="round" stroke-linejoin="round" stroke-width=".4"/>
  <path fill="#febf10" d="M36.1 38v1.5l1.8 4.3 1 1.2 2.9-.9 4-2.2 3-2.4 3.1-2.8 1-.4-2.6-1.2-3 1.9-2.3 2.1-1.8 1.6-2 .8-1 .5-.9-1.9-1-2.8-1.8-.3-.4 1z"/>
  <path d="M44.4 33.5c-.7 1.1-3.1 4.4-7.4 4.4h-.5c-4.2-.2-6.1-4.3-6.2-4.5l2.1-.9s1.6 2.8 4.1 2.9 4.8-2.3 5.3-3.1l1.2.8z" fill="#febf10"/>
  <path d="M32.4 32.5s1.6 2.8 4.1 2.9 4.8-2.3 5.3-3.1m12.5 5.1S49 45 48.4 46.3a3.5 3.5 0 0 0-.5 1.8 7.6 7.6 0 0 0 2.4-.7M45.9 42s-1.8 12.4-3.5 15.2M28.3 47s.2 7.7.8 9.6m.9-6.8s.3 6 .9 7.3m.4-5l.5 5.4M43 44c.1.2-2.1 11.3-2.1 11.3m.9-11l-1.7 10.1" fill="none" stroke="#000" stroke-linecap="round" stroke-linejoin="round" stroke-width=".4"/>
  <path d="M51 35.4a14.4 14.4 0 0 0-4.3 3.1 21.2 21.2 0 0 1-6.2 4.1h-.2c-.2 0-.3-.1-.4-.3l-2-4.2.9-.4 1.8 3.8a22.6 22.6 0 0 0 5.4-3.7 13 13 0 0 1 3.7-2.9z" fill="#f2f2f2"/>
  <path d="M38.8 37.8l1.8 3.7a22.6 22.6 0 0 0 5.4-3.7 13 13 0 0 1 3.7-2.9" fill="none" stroke="#000" stroke-linecap="round" stroke-linejoin="round" stroke-width=".4"/>
  <path d="M51 35.4a14.4 14.4 0 0 0-4.3 3.1 21.2 21.2 0 0 1-6.2 4.1h-.2c-.2 0-.3-.1-.4-.3l-2-4.2" fill="none" stroke="#000" stroke-linecap="round" stroke-linejoin="round" stroke-width=".4"/>
  <path d="M53.3 36.6l-1.3.6-.2.6a.4.4 0 0 1-.4.4l-1 .3-.3.9a.5.5 0 0 1-.5.3h-.7l-.2.9-.4.4h-.9v.6a.5.5 0 0 1-.4.5h-1.2l-.5.9c-.1.2-.2.3-.4.3h-1.2l-.8.8c0 .1-.2.2-.3.2h-1l-.3.6a.5.5 0 0 1-.5.3h-.7l-.8.7h-.5c-.2-.1-.3-.2-.3-.4l-.2-.7-.7-.4a.5.5 0 0 1-.3-.5l.2-.6-.5-.3a.5.5 0 0 1-.3-.5V42l-.8-.5a.7.7 0 0 1-.1-.6l.2-.7-.5-.6c-.1-.1-.2-.3-.1-.4v-1.4h1V39l.6.6a1.1 1.1 0 0 1 .1.5l-.3.7.7.4a.8.8 0 0 1 .2.5v.7l.6.2c.1.2.3.4.2.6v.6l.5.3a.3.3 0 0 1 .3.3v.2l.4-.3h1l.3-.6a.5.5 0 0 1 .4-.3h1.1l.8-.8.3-.2h1.1l.5-.8.4-.3h.9v-.6a.7.7 0 0 1 .4-.5l1-.2.2-.9a.5.5 0 0 1 .5-.3h.7l.4-.9a.3.3 0 0 1 .3-.3l1-.3v-.6a.8.8 0 0 1 .4-.4l.9-.2" fill="#f2f2f2"/>
  <path d="M53.3 36.6l-1.3.6-.2.6a.4.4 0 0 1-.4.4l-1 .3-.3.9a.5.5 0 0 1-.5.3h-.7l-.2.9-.4.4h-.9v.6a.5.5 0 0 1-.4.5h-1.2l-.5.9c-.1.2-.2.3-.4.3h-1.2l-.8.8c0 .1-.2.2-.3.2h-1l-.3.6a.5.5 0 0 1-.5.3h-.7l-.8.7h-.5c-.2-.1-.3-.2-.3-.4l-.2-.7-.7-.4a.5.5 0 0 1-.3-.5l.2-.6-.5-.3a.5.5 0 0 1-.3-.5V42l-.8-.5a.7.7 0 0 1-.1-.6l.2-.7-.5-.6c-.1-.1-.2-.3-.1-.4v-1.4l1 .2v1.1l.6.6a1.1 1.1 0 0 1 .1.5l-.3.7.7.4a.8.8 0 0 1 .2.5v.7l.6.2c.1.2.3.4.2.6v.6l.5.3a.3.3 0 0 1 .3.3v.2l.4-.3h1l.3-.6a.5.5 0 0 1 .4-.3h1.1l.8-.8.3-.2h1.1l.5-.8.4-.3h.9v-.6a.7.7 0 0 1 .4-.5l1-.2.2-.9a.5.5 0 0 1 .5-.3h.7l.4-.9a.3.3 0 0 1 .3-.3l1-.3v-.6a.8.8 0 0 1 .4-.4l.9-.2M26.6 60.4a2.3 2.3 0 0 0 3 .6 2.5 2.5 0 0 0 3.1.4 3.3 3.3 0 0 0 3.1.2s2 1 3.2 0 6.5 0 7.6-1.2 1.7.7 2.1-.5" fill="none" stroke="#000" stroke-linecap="round" stroke-linejoin="round" stroke-width=".4"/>
  <path d="M26.8 59.4a2.5 2.5 0 0 0 2.8.4 2.5 2.5 0 0 0 3.1.3 3.3 3.3 0 0 0 3.1.2s2 1 3.2.1 6.5-.1 7.6-1.2a2.3 2.3 0 0 0 1.7 0" fill="none" stroke="#000" stroke-linecap="round" stroke-linejoin="round" stroke-width=".4"/>
  <path d="M26.9 58.3a2.2 2.2 0 0 0 2.7.3 2.5 2.5 0 0 0 3.1.4 3.3 3.3 0 0 0 3.1.2s2 1 3.2 0 6.5 0 7.6-1.1a2.8 2.8 0 0 0 1.2.1" fill="none" stroke="#000" stroke-linecap="round" stroke-linejoin="round" stroke-width=".4"/>
  <path d="M37.9 58.6c-6.6 0-10.8-1.8-11.1-2a.5.5 0 0 1-.2-.6.4.4 0 0 1 .6-.3c.1.1 8.3 3.7 19.8.8.3-.1.6 0 .6.3s-.1.6-.3.6a37.2 37.2 0 0 1-9.4 1.2z" fill="#325723" stroke="#000" stroke-linecap="round" stroke-linejoin="round" stroke-width=".4"/>
  <path d="M48.2 69.8C30.9 57.7 24.1 37.9 23.8 36.9a6.1 6.1 0 0 1 4.9-3c.1.2 7 19.3 22.2 30.5l.5 2.3.4 3.3z" fill="#febf10"/>
  <path fill="#325723" stroke="#000" stroke-linecap="round" stroke-linejoin="round" stroke-width=".4" d="M25.9 38.6l2.5 2.1-.3-3.4-.7 1.5-1.5-.2z"/>
  <path d="M26.1 40h1.8l1.2-2v2.6s1.4.3.5 1.3.5 1.1 1.5 1.2.1 2 .1 2l-1.2-.6-.2 1.4a2.1 2.1 0 0 1-1.1-2c.1-1.4-.4-1.4-.4-1.4s-1.4-.1-.7-1zm7.7 6.3l-3.5 2.3 4.5 6.5 3.1-2.8-4.1-6z" fill="#325723" stroke="#000" stroke-linecap="round" stroke-linejoin="round" stroke-width=".4"/>
  <path d="M34.6 51.5c-.4-.2 1.2 5.9 3.3 5.3s1.4-3.4-3.3-5.3z" fill="red" stroke="#000" stroke-linecap="round" stroke-linejoin="round" stroke-width=".4"/>
  <path d="M42.6 61.3c.4.1-1.2-5.1-3-4.4s-1.1 3 3 4.4z" fill="#febf10" stroke="#000" stroke-linecap="round" stroke-linejoin="round" stroke-width=".4"/>
  <circle cx="38.9" cy="57" r=".5" fill="#febf10" stroke="#000" stroke-linecap="round" stroke-linejoin="round" stroke-width=".4"/>
  <circle cx="39.7" cy="56.2" r=".5" fill="#febf10" stroke="#000" stroke-linecap="round" stroke-linejoin="round" stroke-width=".4"/>
  <circle cx="38" cy="57.6" r=".5" fill="#febf10" stroke="#000" stroke-linecap="round" stroke-linejoin="round" stroke-width=".4"/>
  <circle cx="43.3" cy="62" r=".8" fill="#0065b7" stroke="#000" stroke-linecap="round" stroke-linejoin="round" stroke-width=".4"/>
  <circle cx="31.3" cy="46.3" r=".5" fill="#febf10" stroke="#000" stroke-linecap="round" stroke-linejoin="round" stroke-width=".4"/>
  <circle cx="26.7" cy="37" r=".5" fill="#325723" stroke="#000" stroke-linecap="round" stroke-linejoin="round" stroke-width=".4"/>
  <circle cx="26.2" cy="35.9" r=".5" fill="#325723" stroke="#000" stroke-linecap="round" stroke-linejoin="round" stroke-width=".4"/>
  <path d="M48.4 69.9c-17.3-12.1-24.3-32-24.6-33m26 33C30.5 55.6 24.7 37.2 24.4 36.2m4.3-2.3c.1.2 6.8 19.2 22 30.3m-23-30.1c.1.2 7.6 20.5 23.4 31.7m-6.7-32.3c-.7 1.1-3.1 4.4-7.4 4.4h-.5c-4.2-.2-6.1-4.3-6.2-4.5" fill="none" stroke="#000" stroke-linecap="round" stroke-linejoin="round" stroke-width=".4"/>
  <circle cx="37.4" cy="38.9" r=".2"/>
  <circle cx="38" cy="40.5" r=".2"/>
  <circle cx="38.6" cy="41.9" r=".2"/>
  <circle cx="39.5" cy="43.4" r=".2"/>
  <circle cx="41.8" cy="42.7" r=".2"/>
  <circle cx="44" cy="41.6" r=".2"/>
  <circle cx="45.4" cy="40.7" r=".2"/>
  <circle cx="46.9" cy="39.4" r=".2"/>
  <circle cx="48.4" cy="38" r=".2"/>
  <circle cx="50" cy="36.8" r=".2"/>
  <path d="M19 52.7a5.1 5.1 0 0 1 .6 1.7c.4 1.3-.5 2.4-1.6 2.1s-2.5-2.1-3.2-3.1-.3-3-.5-3.8a1.1 1.1 0 0 1 0-1.1c0-.1 2.5-3.2 4.4-2.2s1.2 2.7 1.2 2.7l-.2.5.4.9-.4 1.1-.3.8z" fill="#f3bc84"/>
  <path d="M19.9 48.7s.8-1.3-1.2-2.4-4.4 2.1-4.4 2.2a1.1 1.1 0 0 0 0 1.1c.2.8-.2 2.9.5 3.8s2.1 2.7 3.2 3.1 2-.8 1.6-2.1a10.4 10.4 0 0 0-.4-1.5M16 48.2s4.3-1.7 3.9 1.2" fill="none" stroke="#000" stroke-linecap="round" stroke-linejoin="round" stroke-width=".4"/>
  <path d="M16.5 49.6a7.9 7.9 0 0 1 2-.5 1.3 1.3 0 0 1 1.6.9 1.9 1.9 0 0 1-.4 1.3" fill="none" stroke="#000" stroke-linecap="round" stroke-linejoin="round" stroke-width=".4"/>
  <ellipse cx="55.7" cy="60.6" rx=".8" ry="1.3" fill="#325723"/>
  <path d="M55.7 57.9a5.1 5.1 0 0 1-.4-1.8s7.2-3.6 9.9 3.9c0 0-.2 1-2.4 1.8s-7.1-3.9-7.1-3.9z" fill="#febf10" stroke="#000" stroke-linecap="round" stroke-linejoin="round" stroke-width=".4"/>
  <path d="M59.8 64.1c4.2-.3 2.5-3.8 2.5-3.8a1.4 1.4 0 0 0-1.4-1.1c-.6-1.7-1.9-1-1.9-1a2 2 0 0 0-2.8 0s-1.2-.8-1.9 1.1-1 3 .4 3.7l.6-1-.2-1.7.2-.5h.7v1.3l-.5.4v.9l.7.4.3.5h.8v1l.6.3 1.2-.4z" fill="#f3bc84"/>
  <path d="M59.8 64.1c4.2-.3 2.5-3.8 2.5-3.8a1.4 1.4 0 0 0-1.4-1.1c-.6-1.7-1.9-1-1.9-1a2 2 0 0 0-2.8 0s-1.2-.8-1.9 1.1-1 3 .4 3.7" fill="none" stroke="#000" stroke-linecap="round" stroke-linejoin="round" stroke-width=".4"/>
  <path d="M61.5 61.1s-.7 2.7-2.3 3.2-2.1.2-1.8-.8" fill="none" stroke="#000" stroke-linecap="round" stroke-linejoin="round" stroke-width=".4"/>
  <path d="M60 60.3a5.7 5.7 0 0 1-1.3 2.5 2.2 2.2 0 0 1-2.2.5c-.5-.3-.1-.9.6-1.3l.7-.3.7-2.4m-1.7-.5a1.7 1.7 0 0 0-.6 2.2 1.3 1.3 0 0 0-.9 1.6h.9m-.4-2.8h-.5a2.9 2.9 0 0 0-.1 1.8" fill="none" stroke="#000" stroke-linecap="round" stroke-linejoin="round" stroke-width=".4"/>
  <path fill="#febf10" d="M18.6 51.9l2 18h-2l-1.8-16.8"/>
  <path fill="#d09b07" d="M18.6 51.6l2 18.3h-1l-1.9-17.6"/>
  <path fill="none" stroke="#000" stroke-linecap="round" stroke-linejoin="round" stroke-width=".4" d="M18.6 69.9l-1.8-16.8m1.8-1.2l2 18m-2.9-17.7l1.9 17.7m-3-27.5l.4 3.7m-.5 5.2a3.2 3.2 0 0 1 2.2-.7c1.1.3 1.2.9.9 1.6a2.4 2.4 0 0 1-.8.9m-2.2.4c0-.5 2.2-2.8 2.2-1"/>
  <path d="M14.6 24.4s.1 4-1.7 5.9a3.8 3.8 0 0 1 1.6 2.2 2.7 2.7 0 0 0-2.9 2.6 2.3 2.3 0 0 0 1.6 2.4s-.2-2 1-1.8.6 1 .5 1.4-.5 2.4 1.4 2.2" fill="#0065b7" stroke="#000" stroke-linecap="round" stroke-linejoin="round" stroke-width=".4"/>
  <path d="M16.2 39.3c1.9-.2 1.2-2 1-2.4s-.9-1.1.2-1.5 1.4 1.5 1.4 1.5a2.4 2.4 0 0 0 1.1-2.7c-.7-2.5-3.4-1.9-3.4-1.9a3.5 3.5 0 0 1 1.1-2.5c-2.2-1.5-2.9-5.4-2.9-5.4z" fill="#004da1" stroke="#000" stroke-linecap="round" stroke-linejoin="round" stroke-width=".4"/>
  <circle cx="16.4" cy="40.7" r="1.6" fill="red" stroke="#000" stroke-linecap="round" stroke-linejoin="round" stroke-width=".4"/>
  <path d="M47.3 41.8s-.8 5.6.6 6.3m3.9 21.7c0-5.7-4.5-12.4-4.5-12.4m9.5-1.9c.1-1.1.5-4.1 4.4-3.6" fill="none" stroke="#000" stroke-linecap="round" stroke-linejoin="round" stroke-width=".4"/>
  <path d="M40.7 30.2a3.9 3.9 0 0 0 2.8 3c2.5.6 7.7 1.1 11.9 4.9s4.5 4.8 4.5 4.8 10.1 7.2 5.1 16" fill="none" stroke="#000" stroke-linecap="round" stroke-linejoin="round" stroke-width=".4"/>
  <path d="M43.2 32.4a.5.5 0 0 0 .5-.7 10.5 10.5 0 0 1 .9-4.2 6.2 6.2 0 0 0 .8-2.9c.1-2.8-1.1-4.2-1.2-4.2a.7.7 0 0 0-1-.1.8.8 0 0 0-.1 1.1 5.2 5.2 0 0 1 .8 3.1 5.5 5.5 0 0 1-.7 2.5 9.4 9.4 0 0 0-.9 4.8.7.7 0 0 0 .7.7c.1 0 .2 0 .2-.1z" fill="#856353" stroke="#000" stroke-linecap="round" stroke-linejoin="round" stroke-width=".4"/>
  <path d="M43.8 21.6a22.8 22.8 0 0 0-.6 4.3 7.1 7.1 0 0 1-1.8 4.9c-1.6 1.9-3.8.8-7-1.1s-1.1-9.1-.2-9.7a9.9 9.9 0 0 1 9.6 1.6z" fill="#f3bc84"/>
  <path d="M42.6 21a23.7 23.7 0 0 0-.9 4.9c0 1.8-1.7 5-4.2 5.4 0 0 2.1 1 3.2.1a6 6 0 0 0 2.4-4c.1-1.7.6-5.4.6-5.4v-.5z" fill="#c69c6d"/>
  <path d="M43.8 21.6a22.8 22.8 0 0 0-.6 4.3 7.1 7.1 0 0 1-1.8 4.9c-1.6 1.9-3.8.8-7-1.1s-1.1-9.1-.2-9.7a9.9 9.9 0 0 1 9.6 1.6z" fill="none" stroke="#000" stroke-linecap="round" stroke-linejoin="round" stroke-width=".4"/>
  <path d="M35.3 22a2.3 2.3 0 0 1 3.6.3m4.1-1s-2.3-.2-2.8 1.6a4.7 4.7 0 0 0 .7 3.2c.1.4-.5 1.2-.5 1.2m-1.4-1s-.4.6-.1.8a1.8 1.8 0 0 0 1-.1h.2m-.2.4V27m.7.1l.2.3" fill="none" stroke="#000" stroke-linecap="round" stroke-linejoin="round" stroke-width=".3"/>
  <path d="M40.1 28.3a.2.2 0 0 0-.3.1.7.7 0 0 0-.4-.2 6.2 6.2 0 0 0-1.2.8s1.7 1.6 2.9-.1h.1a5.4 5.4 0 0 0-1.1-.6z" fill="red"/>
  <path d="M37.8 28.8a13.8 13.8 0 0 0 3.6 0m-3.2.2s1.7 1.6 2.9-.1" fill="none" stroke="#000" stroke-linecap="round" stroke-linejoin="round" stroke-width=".3"/>
  <path d="M41.1 28.7l-1-.4a.2.2 0 0 0-.3.1.7.7 0 0 0-.4-.2 5.4 5.4 0 0 0-1.1.6" fill="none" stroke="#000" stroke-linecap="round" stroke-linejoin="round" stroke-width=".3"/>
  <path d="M28 31.7a.8.8 0 0 1-.3-.9 8.7 8.7 0 0 0 .6-4.2 6.7 6.7 0 0 1 .2-3.1 7 7 0 0 1 2.5-3.6.8.8 0 0 1 1 .3.7.7 0 0 1-.3 1A5.5 5.5 0 0 0 30 24a5.2 5.2 0 0 0-.2 2.5 9.1 9.1 0 0 1-.7 4.8.8.8 0 0 1-1 .5.1.1 0 0 0-.1-.1z" fill="#856353" stroke="#000" stroke-linecap="round" stroke-linejoin="round" stroke-width=".4"/>
  <path d="M29.9 32.1a.7.7 0 0 1-.4-.8 8.4 8.4 0 0 0-.5-4.2 7.5 7.5 0 0 1-.5-3.1 6.5 6.5 0 0 1 1.6-4 .7.7 0 1 1 1 1.1 5.1 5.1 0 0 0-1.1 3 6.6 6.6 0 0 0 .5 2.5 10.1 10.1 0 0 1 .4 4.9.6.6 0 0 1-.8.6z" fill="#856353" stroke="#000" stroke-linecap="round" stroke-linejoin="round" stroke-width=".4"/>
  <path d="M31.2 32a.6.6 0 0 1-.4-.8 8.6 8.6 0 0 0-.5-4.2 9.1 9.1 0 0 1-.4-3 7.1 7.1 0 0 1 1.5-4.1.8.8 0 0 1 1.1.1.7.7 0 0 1 0 1 4.6 4.6 0 0 0-1.1 3.1 5.5 5.5 0 0 0 .4 2.5 10.8 10.8 0 0 1 .5 4.8 1 1 0 0 1-.9.7z" fill="#856353" stroke="#000" stroke-linecap="round" stroke-linejoin="round" stroke-width=".4"/>
  <path d="M32.5 31.6a.7.7 0 0 1-.4-.8 8.4 8.4 0 0 0-.5-4.2 9.6 9.6 0 0 1-.5-3.1 7 7 0 0 1 1.6-4 .7.7 0 1 1 1 1.1 5.1 5.1 0 0 0-1.1 3 6.6 6.6 0 0 0 .5 2.5 10.1 10.1 0 0 1 .4 4.9.6.6 0 0 1-.8.6z" fill="#856353" stroke="#000" stroke-linecap="round" stroke-linejoin="round" stroke-width=".4"/>
  <path d="M33.7 31.4a.8.8 0 0 1-.5-.7 9.1 9.1 0 0 0-.4-4.3 7 7 0 0 1-.5-3 6.1 6.1 0 0 1 1.6-4.1c.3-.2 1.5-.7 1.8-.4s-.3.9-.8 1.5a6.2 6.2 0 0 0-1.1 3.1 5.5 5.5 0 0 0 .4 2.5 9.9 9.9 0 0 1 .5 4.9.7.7 0 0 1-.9.6.1.1 0 0 1-.1-.1z" fill="#856353" stroke="#000" stroke-linecap="round" stroke-linejoin="round" stroke-width=".4"/>
  <path d="M35.8 23.2a2.7 2.7 0 0 0 1.7.7c.8-.1 1-.5 1-.5a2 2 0 0 0-1.5-.6 2.1 2.1 0 0 0-1.2.4z" fill="#fff"/>
  <path d="M36 23a3.1 3.1 0 0 1 1.2-.1 3.6 3.6 0 0 1 1.4.5 2.4 2.4 0 0 1-1.4.5 2.5 2.5 0 0 1-1.4-.8m2.8.3a1.7 1.7 0 0 0-2.8-.3" fill="none" stroke="#000" stroke-linecap="round" stroke-linejoin="round" stroke-width=".3"/>
  <ellipse cx="37.4" cy="23.4" rx=".5" ry=".7" transform="rotate(-85.2 37.31 23.37)"/>
  <circle cx="37.6" cy="23.2" r=".2" fill="#fff"/>
  <path d="M40.3 23.6a2.9 2.9 0 0 0 1.8.4 1.4 1.4 0 0 0 .9-.6 1.7 1.7 0 0 0-1.5-.4c-1 .2-1.2.6-1.2.6z" fill="#fff"/>
  <path d="M40.5 23.4a3 3 0 0 1 1.1-.3 3.3 3.3 0 0 1 1.3.3 1.8 1.8 0 0 1-1.2.6 2.1 2.1 0 0 1-1.4-.5m2.6-.1a1.5 1.5 0 0 0-2.6.1" fill="none" stroke="#000" stroke-linecap="round" stroke-linejoin="round" stroke-width=".3"/>
  <ellipse cx="41.8" cy="23.5" rx=".6" ry=".5" transform="rotate(-2.4 42.52 22.38)"/>
  <ellipse cx="42" cy="23.4" rx=".2" ry=".2" transform="rotate(-2.4 42.52 22.38)" fill="#fff"/>
  <path d="M29.1 21.8s-2-3-.2-5.5S40 13 42.3 13.9s4.5 3.3 4.6 5.3a5.6 5.6 0 0 1-1.6 3.7s-4.2-5.9-16.2-1.1z" fill="red"/>
  <path d="M38.5 13.7s3.6 2.7 2.3 6.4l2 .9 2.5 1.7 1-1.4.6-2.2-1-2.5-2.6-2.2-2.5-.8z" fill="#980805"/>
  <path d="M29.1 21.8s-2-3-.2-5.5S40 13 42.3 13.9s4.5 3.3 4.6 5.3a5.6 5.6 0 0 1-1.6 3.7s-4.2-5.9-16.2-1.1z" fill="none" stroke="#000" stroke-linecap="round" stroke-linejoin="round" stroke-width=".4"/>
  <path d="M35.6 12s-5.9-3.1-10.7 1.1-5.1 9.3-3.2 11.1 5.5-.8 6.1-3 1.8-6.3 6.2-7.3" fill="#0065b7"/>
  <path d="M33.8 13.1s-5.3.2-7.5 3.5-1.9 8.1-1.9 8.1l2-1.3 1.2-1.5 1.3-4 2.1-2.7 2.6-1.3z" fill="#004da1"/>
  <path d="M35.6 12s-5.9-3.1-10.7 1.1-5.1 9.3-3.2 11.1 5.5-.8 6.1-3 1.8-6.3 6.2-7.3" fill="none" stroke="#000" stroke-linecap="round" stroke-linejoin="round" stroke-width=".4"/>
  <path d="M33.7 14.1a3.3 3.3 0 0 1 .8-1.7 10.7 10.7 0 0 1 6.1-1 3.5 3.5 0 0 1 3.5 3.5 6.5 6.5 0 0 0-4-1.4 30.9 30.9 0 0 0-6.4.6z" fill="#febf10"/>
  <path fill="#d09b07" d="M39.7 11.5l.3 1.9 2.4.5 1.7.9v-1.2l-1.3-1.5-1.5-.5-.9-.3-.7.2z"/>
  <path d="M33.7 14.1a3.3 3.3 0 0 1 .8-1.7 10.7 10.7 0 0 1 6.1-1 3.5 3.5 0 0 1 3.5 3.5 6.5 6.5 0 0 0-4-1.4 30.9 30.9 0 0 0-6.4.6zm-.2 17.3a1.4 1.4 0 0 1-1.1 1.1l-3.9 1.3s-7.1 1.3-8.8 13.1M34 12.7s-6.3-.6-9.4 5.1m1-5.4a8.1 8.1 0 0 0-8.3 6.2" fill="none" stroke="#000" stroke-linecap="round" stroke-linejoin="round" stroke-width=".4"/>
  <path d="M60.5 26v.8a4 4 0 0 0 3.4 2.7c.4.1.1.9-.6 1.2v.8H55v-.7c-1-.1-1.4-1.2-.9-1.3a3.8 3.8 0 0 0 3.3-2.7V26h.9v.8c-.2.7 0 1.1.2-.3h1c.1 1.4.3 1 .1.3V26z" fill="#325723"/>
  <path d="M59.6 26v.8c.3 1.1 1 3.5 2.6 4s2.2-1.2 1.7-1.3a4 4 0 0 1-3.4-2.7V26zm-2.2 0v.8a3.8 3.8 0 0 1-3.3 2.7c-.6.1 0 1.7 1.6 1.3s2.3-2.9 2.6-4V26z" fill="#3c6d3d" stroke="#000" stroke-linecap="round" stroke-linejoin="round" stroke-width=".24"/>
  <path d="M59.6 26v.8c.3 1.1 1 3.5 2.6 4s2.2-1.2 1.7-1.3a4 4 0 0 1-3.4-2.7V26zm-2.2 0v.8a3.8 3.8 0 0 1-3.3 2.7c-.6.1 0 1.7 1.6 1.3s2.3-2.9 2.6-4V26z" fill="#325723" stroke="#000" stroke-linecap="round" stroke-linejoin="round" stroke-width=".41"/>
  <path d="M59.5 26.5c.2 1.6 1.2 2.5 1 3.7s-.7.8-1.5.8-1.5-.3-1.6-.8.9-2.1 1.1-3.7h1z" fill="none" stroke="#000" stroke-linecap="round" stroke-linejoin="round" stroke-width=".41"/>
  <path d="M59.2 26.8c.1 1.2.6 1.9.5 2.8s-.3.6-.7.6-.8-.2-.8-.6.4-1.6.5-2.8h.5z" fill="#0d3a12" stroke="#000" stroke-linecap="round" stroke-linejoin="round" stroke-width=".41"/>
  <path d="M61.9 30.7h-1.8m1.3-.4h-.9" fill="none" stroke="#000" stroke-linecap="round" stroke-linejoin="round" stroke-width=".41"/>
  <path d="M64 31.3H53.9v2.1l5.1.6 5-.6z" fill="#d09b07" stroke="#000" stroke-linecap="round" stroke-linejoin="round" stroke-width=".41"/>
  <circle cx="63.3" cy="32.3" r=".6" fill="#febf10" stroke="#000" stroke-linecap="round" stroke-linejoin="round" stroke-width=".3"/>
  <circle cx="63.3" cy="32.3" r=".2"/>
  <circle cx="62.1" cy="32.5" r=".6" fill="#febf10" stroke="#000" stroke-linecap="round" stroke-linejoin="round" stroke-width=".3"/>
  <circle cx="62.1" cy="32.5" r=".2"/>
  <circle cx="60.8" cy="32.6" r=".6" fill="#febf10" stroke="#000" stroke-linecap="round" stroke-linejoin="round" stroke-width=".3"/>
  <circle cx="60.8" cy="32.6" r=".2"/>
  <circle cx="59.5" cy="32.6" r=".6" fill="#febf10" stroke="#000" stroke-linecap="round" stroke-linejoin="round" stroke-width=".3"/>
  <circle cx="59.5" cy="32.6" r=".2"/>
  <circle cx="58.3" cy="32.6" r=".6" fill="#febf10" stroke="#000" stroke-linecap="round" stroke-linejoin="round" stroke-width=".3"/>
  <circle cx="58.3" cy="32.6" r=".2"/>
  <circle cx="57" cy="32.6" r=".6" fill="#febf10" stroke="#000" stroke-linecap="round" stroke-linejoin="round" stroke-width=".3"/>
  <circle cx="57" cy="32.6" r=".2"/>
  <circle cx="55.7" cy="32.4" r=".6" fill="#febf10" stroke="#000" stroke-linecap="round" stroke-linejoin="round" stroke-width=".3"/>
  <circle cx="55.7" cy="32.4" r=".2"/>
  <circle cx="54.6" cy="32.3" r=".6" fill="#febf10" stroke="#000" stroke-linecap="round" stroke-linejoin="round" stroke-width=".3"/>
  <circle cx="54.6" cy="32.3" r=".2"/>
  <path d="M58.6 24.7a1.4 1.4 0 0 0-1.2 1.1c-.1.4.4.9.8.7a.9.9 0 0 0 1.4.2c.1-.2.2-.2.3-.2s.7-.4.6-.8a1.4 1.4 0 0 0-1.4-1zm1.6.4c.4.3.4.8.4 1.3a.4.4 0 0 0 .8.1c.2-.2.4.2.6.2s.4-.5.3-.8a2.2 2.2 0 0 0-1.9-1c-.1 0-.3 0-.2.2zm-2.5-.2a1.9 1.9 0 0 0-2 1c-.1.2-.2.7.1.8s.5-.3.7-.2a.5.5 0 0 0 .7.1c.2-.4.1-.8.2-1.1s.4-.4.3-.6z" fill="red" stroke="#000" stroke-linecap="round" stroke-linejoin="round" stroke-width=".41"/>
  <path d="M64 32.9a.6.6 0 0 1 .6.6.6.6 0 0 1-.5.6 35.2 35.2 0 0 1-5.1.5 36.7 36.7 0 0 1-5.2-.5.6.6 0 0 1-.5-.6.6.6 0 0 1 .6-.6h.1a24.1 24.1 0 0 0 5 .5 23.8 23.8 0 0 0 4.9-.5z" fill="#febf10" stroke="#000" stroke-linecap="round" stroke-linejoin="round" stroke-width=".41"/>
  <path d="M56 30.7h1.8m-1.2-.4h.8m3.6-.5h-.5m-3.5.1h.4" fill="none" stroke="#000" stroke-linecap="round" stroke-linejoin="round" stroke-width=".41"/>
  <path d="M63.5 18.4a2.8 2.8 0 0 1 2.3 2.6 3.6 3.6 0 0 1-2.3 3.5 9.8 9.8 0 0 1-4.5.9 10 10 0 0 1-4.6-.9 3.6 3.6 0 0 1-2.2-3.5 2.8 2.8 0 0 1 2.2-2.6h9.1z" fill="#febf10"/>
  <path d="M61.7 18.5s1.7 5.1-3.5 6.9c0 .1 4.9.2 6.4-1.6s1.3-3.4.5-4.4a3.3 3.3 0 0 0-3.4-.9z" fill="#d09b07"/>
  <path d="M63.5 18.4a2.8 2.8 0 0 1 2.3 2.6 3.6 3.6 0 0 1-2.3 3.5 9.8 9.8 0 0 1-4.5.9 10 10 0 0 1-4.6-.9 3.6 3.6 0 0 1-2.2-3.5 2.8 2.8 0 0 1 2.2-2.6h9.1z" fill="none" stroke="#000" stroke-linecap="round" stroke-linejoin="round" stroke-width=".41"/>
  <path d="M64.5 16h-11v2.4l5.5.7 5.5-.7z" fill="#d09b07" stroke="#000" stroke-linecap="round" stroke-linejoin="round" stroke-width=".41"/>
  <path d="M61.9 17.8a2.2 2.2 0 0 0 1.4.4 2.2 2.2 0 0 0 1-.9 1.9 1.9 0 0 0-1.3-.4 2.1 2.1 0 0 0-1.1.9z" fill="#febf10" stroke="#000" stroke-linecap="round" stroke-linejoin="round" stroke-width=".3"/>
  <path fill="none" stroke="#000" stroke-linecap="round" stroke-linejoin="round" stroke-width=".3" d="M61.9 17.8l1.4-.3"/>
  <path d="M60.5 18.1a2.2 2.2 0 0 0 1.4.4c.6-.1 1-.9 1-.9a1.9 1.9 0 0 0-1.3-.4c-.6.1-1.1.9-1.1.9z" fill="#febf10" stroke="#000" stroke-linecap="round" stroke-linejoin="round" stroke-width=".3"/>
  <path fill="none" stroke="#000" stroke-linecap="round" stroke-linejoin="round" stroke-width=".3" d="M60.5 18.1l1.4-.3"/>
  <path d="M59 18a1.7 1.7 0 0 0 1.3.6c.6 0 1.1-.7 1.1-.7a1.8 1.8 0 0 0-1.2-.6 2.2 2.2 0 0 0-1.2.7z" fill="#febf10" stroke="#000" stroke-linecap="round" stroke-linejoin="round" stroke-width=".3"/>
  <path fill="none" stroke="#000" stroke-linecap="round" stroke-linejoin="round" stroke-width=".3" d="M59 18h1.3"/>
  <path d="M56 17.8a1.9 1.9 0 0 1-1.4.3 1.7 1.7 0 0 1-1-.8 1.5 1.5 0 0 1 1.3-.4 1.7 1.7 0 0 1 1.1.9z" fill="#febf10" stroke="#000" stroke-linecap="round" stroke-linejoin="round" stroke-width=".3"/>
  <path fill="none" stroke="#000" stroke-linecap="round" stroke-linejoin="round" stroke-width=".3" d="M56 17.8l-1.3-.3"/>
  <path d="M57.4 18s-.7.6-1.3.4a1.7 1.7 0 0 1-1.1-.8 1.9 1.9 0 0 1 1.3-.4 1.7 1.7 0 0 1 1.1.8z" fill="#febf10" stroke="#000" stroke-linecap="round" stroke-linejoin="round" stroke-width=".3"/>
  <path fill="none" stroke="#000" stroke-linecap="round" stroke-linejoin="round" stroke-width=".3" d="M57.4 18l-1.4-.2"/>
  <path d="M58.9 18a2.1 2.1 0 0 1-1.2.6 2.2 2.2 0 0 1-1.2-.7 2.1 2.1 0 0 1 1.2-.6 1.7 1.7 0 0 1 1.2.7z" fill="#febf10" stroke="#000" stroke-linecap="round" stroke-linejoin="round" stroke-width=".3"/>
  <path fill="none" stroke="#000" stroke-linecap="round" stroke-linejoin="round" stroke-width=".3" d="M58.9 18l-1.3-.1"/>
  <path d="M58 19.3h.2l2.1-2.3a.2.2 0 0 0 0-.3.2.2 0 0 0-.4 0l-2.1 2.1a.3.3 0 0 0 0 .4z" fill="#0065b7" stroke="#000" stroke-linecap="round" stroke-linejoin="round" stroke-width=".35"/>
  <path d="M60.1 19.4h.1a.3.3 0 0 0 0-.4l-1.9-2h-.4c-.1.2-.1.3 0 .4l1.9 2z" fill="#0065b7" stroke="#000" stroke-linecap="round" stroke-linejoin="round" stroke-width=".35"/>
  <path d="M51.3 14.4c0 1.6 3.5 2.8 7.7 2.8s7.6-1.2 7.6-2.8c0-1.5-3.4-2.8-7.6-2.8s-7.7 1.3-7.7 2.8z" fill="red"/>
  <path d="M64.5 13.8s-5.9 2.7-10.9-.1c-.1.1-.4-.1-.6.5s1.1 1.7 4.6 1.7 5.7-.3 6.5-.7 1.4-.8.4-1.4z" fill="#980805"/>
  <path d="M51.3 14.4c0 1.6 3.5 2.8 7.7 2.8s7.6-1.2 7.6-2.8c0-1.5-3.4-2.8-7.6-2.8s-7.7 1.3-7.7 2.8z" fill="none" stroke="#000" stroke-linecap="round" stroke-linejoin="round" stroke-width=".38"/>
  <path d="M53.5 13.8c-.3.2-.5.4-.5.6 0 .8 2.7 1.5 6 1.5s5.9-.7 5.9-1.5a.7.7 0 0 0-.4-.6" fill="none" stroke="#000" stroke-linecap="round" stroke-linejoin="round" stroke-width=".36"/>
  <path d="M65.4 20.6c.9 0 .5 5.1-6.4 4.8h-.1c-6.8.3-7.3-4.8-6.4-4.8h.1a.5.5 0 0 1 .3.5c.1-.2.2-.3.4-.2s.4.3.5.7.2-.6.5-.5.4.4.6.8a.5.5 0 0 1 .6-.6.7.7 0 0 1 .8.6.7.7 0 0 1 .7-.6 1 1 0 0 1 1 .9c.1-.5.4-.9.9-.9a1 1 0 0 1 1 .9c.2-.5.4-.9 1-.9a.7.7 0 0 1 .7.6.7.7 0 0 1 .8-.6.7.7 0 0 1 .7.6c.1-.4.2-.7.5-.8s.5.1.6.5.1-.7.4-.7.3 0 .4.2a1.1 1.1 0 0 1 .3-.5z" fill="none" stroke="#000" stroke-linecap="round" stroke-linejoin="round" stroke-width=".41"/>
  <path d="M65.4 20.6c.9-.3.7 5.1-6.5 4.8 7.5-.7 5.4-4.4 6.5-4.8z" fill="#325723" stroke="#000" stroke-linecap="round" stroke-linejoin="round" stroke-width=".41"/>
  <path d="M64.6 20.9c1.1-.4.7 4.6-5.7 4.5 6.5-.6 4.6-4.2 5.7-4.5z" fill="#325723" stroke="#000" stroke-linecap="round" stroke-linejoin="round" stroke-width=".41"/>
  <path d="M63.6 21.1c1.3-.4.6 4.4-4.7 4.3 5.1-1.3 3.6-4 4.7-4.3z" fill="#325723" stroke="#000" stroke-linecap="round" stroke-linejoin="round" stroke-width=".41"/>
  <path d="M62.4 21.3c1.4 0 .7 3.4-3.5 4.1 3.3-1.4 2-4.1 3.5-4.1z" fill="#325723" stroke="#000" stroke-linecap="round" stroke-linejoin="round" stroke-width=".41"/>
  <path d="M60.9 21.3c1.4 0 .8 3.3-2 4.1 1.2-1.4.5-4.1 2-4.1z" fill="#325723" stroke="#000" stroke-linecap="round" stroke-linejoin="round" stroke-width=".41"/>
  <path d="M52.6 20.6c-1-.3-.7 5.1 6.4 4.8-7.5-.7-5.3-4.4-6.4-4.8z" fill="#325723" stroke="#000" stroke-linecap="round" stroke-linejoin="round" stroke-width=".41"/>
  <path d="M53.3 20.9c-1-.4-.6 4.6 5.7 4.5-6.5-.6-4.6-4.2-5.7-4.5z" fill="#325723" stroke="#000" stroke-linecap="round" stroke-linejoin="round" stroke-width=".41"/>
  <path d="M54.3 21.1c-1.3-.4-.6 4.4 4.7 4.3-5.1-1.3-3.6-4-4.7-4.3z" fill="#325723" stroke="#000" stroke-linecap="round" stroke-linejoin="round" stroke-width=".41"/>
  <path d="M55.5 21.3c-1.4 0-.7 3.4 3.5 4.1-3.3-1.4-1.9-4.1-3.5-4.1z" fill="#325723" stroke="#000" stroke-linecap="round" stroke-linejoin="round" stroke-width=".41"/>
  <path d="M57 21.3c-1.4 0-.8 3.3 2 4.1-1.1-1.4-.4-4.1-2-4.1z" fill="#325723" stroke="#000" stroke-linecap="round" stroke-linejoin="round" stroke-width=".41"/>
  <path d="M58.9 21.3c1.5 0 1.3 2.7 0 4.1-1.2-1.4-1.4-4.1 0-4.1z" fill="#325723" stroke="#000" stroke-linecap="round" stroke-linejoin="round" stroke-width=".41"/>
  <path d="M58.9 22.1c.9 0 .8 2.1 0 3.2-.7-1.1-.8-3.2 0-3.2z" fill="#0d3a12" stroke="#000" stroke-linecap="round" stroke-linejoin="round" stroke-width=".41"/>
  <path d="M64.5 18c.2 0 .4.1.4.3l-.2.4a18.8 18.8 0 0 1-5.6.9h-.2a17.7 17.7 0 0 1-5.6-.9.5.5 0 0 1-.3-.4c.1-.2.2-.3.4-.3h.1a17.7 17.7 0 0 0 5.5.8 16.6 16.6 0 0 0 5.4-.8zm-.3 12.8a.3.3 0 0 1 .3.3c.1.1-.1.3-.2.3a28.1 28.1 0 0 1-5.3.5 26.5 26.5 0 0 1-5.3-.5.3.3 0 0 1-.3-.3.3.3 0 0 1 .3-.3h.1a36.7 36.7 0 0 0 5.2.4 36.4 36.4 0 0 0 5.1-.4z" fill="#febf10" stroke="#000" stroke-linecap="round" stroke-linejoin="round" stroke-width=".41"/>
  <path d="M48 106.7l1.8-.5h.2c.9-.2 4-1.4 6.3-5.7 1.6-2.8 2.7-7 2.7-13.1l-.4-9A3.3 3.3 0 0 1 57 78a5.9 5.9 0 0 0-3.7-.3l-1.3.4a17 17 0 0 1 2.2-5.2 18.8 18.8 0 0 0 .9-2.8l-28.7-.3c0 5.6 4.6 12.8 4.6 12.8l.3.9-3.7 8.8a5.5 5.5 0 0 0-2.1-1.3s-.8-2.7-4.8-4.3l.4-.5a4.8 4.8 0 0 0 .4-2.2l-8.2-3c-5 8.9 5.1 16.1 5.1 16.1s.3.9 4.5 4.7 9.4 4.3 11.9 5l1.1.4" fill="red"/>
  <path d="M33.1 107.8a.7.7 0 0 0-.3.8 9 9 0 0 1 .1 4.3 7.9 7.9 0 0 0-.1 3.1 7.1 7.1 0 0 0 2.1 3.8.8.8 0 0 0 .9-1.3 4.1 4.1 0 0 1-1.5-2.8 5.7 5.7 0 0 1 .1-2.6 10.5 10.5 0 0 0-.2-4.9.7.7 0 0 0-.9-.5z" fill="#856353" stroke="#000" stroke-linecap="round" stroke-linejoin="round" stroke-width=".4"/>
  <path d="M36.4 107.8a.9.9 0 0 0-.6.7 9.2 9.2 0 0 1-.8 4.2 6.3 6.3 0 0 0-.8 3c-.1 2.7 1.1 4.1 1.2 4.1a.7.7 0 0 0 1 .1.8.8 0 0 0 .1-1.1 5.2 5.2 0 0 1-.8-3.1 4.8 4.8 0 0 1 .7-2.4 10.1 10.1 0 0 0 .9-4.9.7.7 0 0 0-.7-.7z" fill="#856353" stroke="#000" stroke-linecap="round" stroke-linejoin="round" stroke-width=".4"/>
  <path d="M50 128.7s7 3.3 11.9-2.3.8-10.8-.7-11.4-3.2-.2-3.9 3.5-4.5 10-7.3 10.2z" fill="#febf10"/>
  <path d="M54.1 126.4a8.2 8.2 0 0 0 6-6.3c1.5-5.5-.9-5.3-.9-5.3l-.9.8-.9 2-2.9 7.7z" fill="#d09b07"/>
  <path d="M50 128.7s7 3.3 11.9-2.3.8-10.8-.7-11.4-3.2-.2-3.9 3.5-4.5 10-7.3 10.2z" fill="none" stroke="#000" stroke-linecap="round" stroke-linejoin="round" stroke-width=".4"/>
  <path d="M57.9 83.3s-3.9-3.4-7.3.7 1.5-6 1.5-6l2.8-.6 2.9 1 .9.8zm-17.1-.9s-.2-9.9 2.3-12.2l-1.6-.2h-15l.9 5.7 3.9 7.9zM28 104.9l-4.2-2.4-4.8-4.4-.6-1.2-3.6-3.1-2.6-5.2-.3-3.3.9-3.3s3.5 12.4 15.5 14.7-.3 8.2-.3 8.2z" fill="#980805"/>
  <path d="M44 110.4l-6.4-.6a4.2 4.2 0 0 0-1.7-2.5l2.2-2.8 3.9-.6 4.4 2.5.3.7a3.4 3.4 0 0 0-2.7 3.3z" fill="#f3bc84"/>
  <path d="M40.6 108.5a6.7 6.7 0 0 1 .7-3.9l-1.5.3L38 106l-1.5 1.6.6.9h.7l1.1-.4.9.2z" fill="#c69c6d"/>
  <path d="M51.2 83.9a24.7 24.7 0 0 0 5.2 16.6l-2.4 3.3-8.2-17.1v-4.1zm-10.6-1.3L40 87s-2.9 5.1-1.7 9.6l-11.5 8-3-1.8s5.1-7.3 5.7-8.6a16.2 16.2 0 0 0-1.9-1.8l3.9-9.5z" fill="#325723"/>
  <path fill="#0d3a12" d="M27.6 92.4l3.5-8.8 4.5-1-.1 1.3-1.2 3.7-1.3 7.1-.4 3.4-6.8 5.9-1.8-1.4 4.2-6.1 1.4-2.2-1.1-1.2-.9-.7z"/>
  <path fill="#febf10" d="M62.2 93.4l.5 5-2 .2-.5-4.9"/>
  <path fill="#d09b07" d="M61.4 93.7l.5 5-1.2-.1-.5-4.9"/>
  <path fill="none" stroke="#000" stroke-linecap="round" stroke-linejoin="round" stroke-width=".4" d="M62.2 93.4l.5 5-2 .2-.5-4.9"/>
  <path d="M60.3 82.2l2.1-2.3s2.2 2.6 2 5-4.3 3.9-6.7 1.6-1.9-4.8-1.5-5.2a5.8 5.8 0 0 0 1.1-1.5 4.4 4.4 0 0 1 1.1-1.2zM26.9 70.1c-.4 2.5-2.9 7-4.3 8.1l-1.6-.8a14 14 0 0 1 3-7.4zm-2.2 5.3a8.7 8.7 0 0 1-3.6.9m2.6.7a5.1 5.1 0 0 1-2.7.3m4.7-3.8a10.9 10.9 0 0 1-4.2 1.3m4.9-3.1a16.4 16.4 0 0 1-4.3 1.5m4-2.9a13.9 13.9 0 0 1-3.2 1.2" fill="#febf10" stroke="#000" stroke-linecap="round" stroke-linejoin="round" stroke-width=".4"/>
  <path d="M20.6 77.1c-.1.3.3.8 1 1.1s1.3.4 1.5.1c.1-.3-.4-.7-1-1.1s-1.4-.4-1.5-.1z" fill="#febf10" stroke="#000" stroke-linecap="round" stroke-linejoin="round" stroke-width=".4"/>
  <path fill="#0065b7" d="M47.7 106.7l-1.2-1.8 2.3-2.3 1.3 3.6-2.4.5z"/>
  <path d="M40 87s-2.9 5.1-1.7 9.6a17.5 17.5 0 0 0 4.9 7.7l4.2-5.2-1.8-9.6.3-6.9h-5.3z" fill="none" stroke="#000" stroke-linecap="round" stroke-linejoin="round" stroke-width=".4"/>
  <path fill="#febf10" d="M49.9 102.8l-.8-.9-1.5 1.5-2 2.2-1.8-.4v-1.1l.5-1.3 3.4-3.3 1.3-.8 2.4 1.9"/>
  <path d="M49.6 101.6v-.2H49l-3.4 3.2.7.8 3.1-2.9" fill="#f2f2f2"/>
  <path d="M49.6 101.6v-.2H49l-3.4 3.2m4.6-2.2a.1.1 0 0 0-.1-.1.5.5 0 0 0-.6.1l-3.4 3.2" fill="none" stroke="#000" stroke-linecap="round" stroke-linejoin="round" stroke-width=".4"/>
  <path d="M51.4 100.2v-.7c-.1-.2-.2-.4-.4-.4l-.7-.3-.4-.9-.3-.2h-.1l-.5.2-.5.7h-.7a.5.5 0 0 0-.5.4v.6h-.5a.5.5 0 0 0-.5.3l-.2.7-.8.2c-.3.1-.4.2-.4.5v.7l-.8.4c-.1 0-.2.1-.2.3l-.4 1.3.9.3.4-1.1.8-.4a.5.5 0 0 0 .2-.4v-.7l.7-.2.4-.3.2-.7h.6a.4.4 0 0 0 .4-.4l.2-.6h.6l.3-.2v-.2l.2.4.3.2.6.2v.7c0 .2.2.3.3.4" fill="#f2f2f2"/>
  <path d="M51.4 100.2v-.7c-.1-.2-.2-.4-.4-.4l-.7-.3-.4-.9-.3-.2h-.1l-.5.2-.5.7h-.7a.5.5 0 0 0-.5.4v.6h-.5a.5.5 0 0 0-.5.3l-.2.7-.8.2c-.3.1-.4.2-.4.5v.7l-.8.4c-.1 0-.2.1-.2.3l-.4 1.3 1 .2.3-1 .8-.4a.5.5 0 0 0 .2-.4v-.7l.7-.2.4-.3.2-.7h.6a.4.4 0 0 0 .4-.4l.2-.6h.6l.3-.2v-.2l.2.4.3.2.6.2v.7c0 .2.2.3.3.4" fill="none" stroke="#000" stroke-linecap="round" stroke-linejoin="round" stroke-width=".4"/>
  <circle cx="45.4" cy="103.8" r=".2"/>
  <circle cx="46.6" cy="102.5" r=".2"/>
  <circle cx="47.6" cy="101.5" r=".2"/>
  <path fill="#0065b7" d="M34.5 106.8l-3.6-.8-2.9-.9 4.9-4.1 5.2-3 1.4 3 .8 1.7-5.8 4.1z"/>
  <path fill="#004da1" d="M34 106.6l-2.7-.6-3-.9 4.1-3.3 2-1.6 2.4 3.8-2.8 2.6z"/>
  <path d="M29.6 80.1c.4-1.2 2-.5 2-.5l7.7-1.2 3.2.1a3.1 3.1 0 0 1 3.1.1 2.3 2.3 0 0 1 3 .4 2.5 2.5 0 0 1 3.1.6l-.4 3.9-10.8-1.6-9.4 1.2z" fill="#0065b7"/>
  <path d="M29.5 94.1s-2.5-2.6-4-3c0 0-.8-2.6-4.8-4.2m37.9 6.2a33.2 33.2 0 0 0 .4-5.7l1-8.6a13.3 13.3 0 0 1-3-.8 6.6 6.6 0 0 0-3.7-.2l-1.2.2m4.9 7.8s-1.4.9-3.2-1.7m-2.5 1s2.6 2.7 4.3.7" fill="none" stroke="#000" stroke-linecap="round" stroke-linejoin="round" stroke-width=".4"/>
  <path d="M56.3 100.3s-6.2-6.7-4.9-18.3c.7-6.4 2.3-7.9 2.8-9a22.7 22.7 0 0 0 .9-2.9M27.6 92.4l3.7-8.9" fill="none" stroke="#000" stroke-linecap="round" stroke-linejoin="round" stroke-width=".4"/>
  <path fill="#febf10" d="M42.2 102v-1.4l-1.8-4.4-1-1.2-2.9.9-4 2.2-3 2.4-3.1 2.9-1 .4 2.6 1.1 3-1.9 2.3-2.1 1.8-1.5 2-.9 1-.5.9 1.9 1 2.8 1.8.3.4-1z"/>
  <path d="M33.9 106.5c.7-1.1 3.1-4.4 7.4-4.4h.5c4.1.2 6.1 4.3 6.2 4.5l-2.1.9s-1.6-2.8-4.1-2.9-4.8 2.3-5.3 3.1l-1.2-.8z" fill="#febf10"/>
  <path d="M45.9 107.5s-1.6-2.8-4.1-2.9-4.8 2.3-5.3 3.1M24 102.6s5.3-7.6 5.9-8.9a3.5 3.5 0 0 0 .5-1.8 7.6 7.6 0 0 0-2.4.7m4.4 5.4s1.8-12.4 3.5-15.2M50 93s-.2-7.7-.9-9.5m-.8 6.7s-.3-5.9-.9-7.2m-.4 4.9l-.5-5.4M35.3 96c-.2-.2 2.1-11.3 2.1-11.3m-.9 11l1.7-10.1" fill="none" stroke="#000" stroke-linecap="round" stroke-linejoin="round" stroke-width=".4"/>
  <path d="M27.3 104.6a14.9 14.9 0 0 0 4.2-3.1 25.3 25.3 0 0 1 6.3-4.1h.2a.5.5 0 0 1 .4.3l2 4.2-.9.5-1.8-3.8a23.7 23.7 0 0 0-5.5 3.6c-2.4 2.5-3.5 2.9-3.6 2.9z" fill="#f2f2f2"/>
  <path d="M39.5 102.2l-1.8-3.6a23.7 23.7 0 0 0-5.5 3.6c-2.4 2.5-3.5 2.9-3.6 2.9" fill="none" stroke="#000" stroke-linecap="round" stroke-linejoin="round" stroke-width=".4"/>
  <path d="M27.3 104.6a14.9 14.9 0 0 0 4.2-3.1 25.3 25.3 0 0 1 6.3-4.1h.2a.5.5 0 0 1 .4.3l2 4.2" fill="none" stroke="#000" stroke-linecap="round" stroke-linejoin="round" stroke-width=".4"/>
  <path d="M25 103.4l1.3-.6.2-.6a.4.4 0 0 1 .3-.4l1.1-.3.3-.9a.5.5 0 0 1 .4-.3h.8l.2-.9c0-.2.2-.3.4-.3l.9-.2v-.6a.5.5 0 0 1 .4-.5h1.1l.5-.9c.1-.2.2-.3.4-.2h1.2l.7-.8.4-.2h1l.3-.6a.5.5 0 0 1 .5-.3h.7l.9-.8h.5c.1.1.3.2.3.4l.2.8.7.3a.4.4 0 0 1 .2.5v.7l.5.2a.5.5 0 0 1 .3.5v.6l.8.6a.4.4 0 0 1 .1.5l-.2.7.5.6a.6.6 0 0 1 .1.4v1.4h-1V101l-.6-.6a.4.4 0 0 1-.1-.5l.3-.7-.7-.4a.8.8 0 0 1-.2-.5v-.6l-.6-.3a.4.4 0 0 1-.2-.6v-.6l-.5-.3a.3.3 0 0 1-.3-.3v-.2l-.3.3h-1l-.3.6-.4.2h-1.2l-.8.9h-1.4l-.5.8c-.1.2-.2.3-.4.3h-.9v.5a.5.5 0 0 1-.4.5l-1 .2-.2.9a.5.5 0 0 1-.5.3h-.7l-.4.9a.3.3 0 0 1-.3.3l-1 .3v.6l-.4.4-.9.3" fill="#f2f2f2"/>
  <path d="M25 103.4l1.3-.6.2-.6a.4.4 0 0 1 .3-.4l1.1-.3.3-.9a.5.5 0 0 1 .4-.3h.8l.2-.9c0-.2.2-.3.4-.3l.9-.2v-.6a.5.5 0 0 1 .4-.5h1.1l.5-.9c.1-.2.2-.3.4-.2h1.2l.7-.8.4-.2h1l.3-.6a.5.5 0 0 1 .5-.3h.7l.9-.8h.5c.1.1.3.2.3.4l.2.8.7.3a.4.4 0 0 1 .2.5v.7l.5.2a.5.5 0 0 1 .3.5v.6l.8.6a.4.4 0 0 1 .1.5l-.2.7.5.6a.6.6 0 0 1 .1.4v1.4l-1-.2v-1.1l-.6-.6a.4.4 0 0 1-.1-.5l.3-.7-.7-.4a.8.8 0 0 1-.2-.5v-.6l-.6-.3a.4.4 0 0 1-.2-.6v-.6l-.5-.3a.3.3 0 0 1-.3-.3v-.2l-.3.3h-1l-.3.6-.4.2h-1.2l-.8.9h-1.4l-.5.8c-.1.2-.2.3-.4.3h-.9v.5a.5.5 0 0 1-.4.5l-1 .2-.2.9a.5.5 0 0 1-.5.3h-.7l-.4.9a.3.3 0 0 1-.3.3l-1 .3v.6l-.4.4-.9.3m25.6-24a2.5 2.5 0 0 0-3.1-.6 2.3 2.3 0 0 0-3-.4 3.1 3.1 0 0 0-3.1-.1s-2-1-3.2-.1-6.5.1-7.7 1.2-1.6-.7-2 .5" fill="none" stroke="#000" stroke-linecap="round" stroke-linejoin="round" stroke-width=".4"/>
  <path d="M51.5 80.7a2.3 2.3 0 0 0-2.9-.4 2.3 2.3 0 0 0-3-.4 3.3 3.3 0 0 0-3.1-.2s-2-1-3.2-.1-6.5.1-7.7 1.2a2.1 2.1 0 0 0-1.6 0" fill="none" stroke="#000" stroke-linecap="round" stroke-linejoin="round" stroke-width=".4"/>
  <path d="M51.4 81.7a2.5 2.5 0 0 0-2.8-.3 2.3 2.3 0 0 0-3-.4 3.3 3.3 0 0 0-3.1-.2s-2-1-3.2 0-6.5 0-7.7 1.2a1.8 1.8 0 0 0-1.1-.2" fill="none" stroke="#000" stroke-linecap="round" stroke-linejoin="round" stroke-width=".4"/>
  <path d="M40.4 81.4a29.3 29.3 0 0 1 11.1 2 .5.5 0 0 1 .2.6.4.4 0 0 1-.6.3c-.1 0-8.3-3.6-19.8-.7-.3 0-.6-.1-.6-.4a.5.5 0 0 1 .3-.6 37.2 37.2 0 0 1 9.4-1.2z" fill="#325723" stroke="#000" stroke-linecap="round" stroke-linejoin="round" stroke-width=".4"/>
  <path d="M30.1 70.2c17.3 12.2 24.1 32 24.4 32.9a6.1 6.1 0 0 1-4.9 3c-.1-.2-7-19.3-22.2-30.4l-.5-2.4-.4-3.3z" fill="#febf10"/>
  <path fill="#325723" stroke="#000" stroke-linecap="round" stroke-linejoin="round" stroke-width=".4" d="M52.4 101.4l-2.6-2.1.4 3.4.7-1.5 1.5.2z"/>
  <path d="M52.1 100h-1.7l-1.2 2v-2.6s-1.5-.3-.5-1.3-.5-1-1.5-1.1-.2-2-.2-2l1.3.5v-1.4a2.1 2.1 0 0 1 1.2 2c-.1 1.4.4 1.4.4 1.4s1.4.1.6 1zm-7.6-6.3l3.5-2.3-4.5-6.4-3.1 2.7 4.1 6z" fill="#325723" stroke="#000" stroke-linecap="round" stroke-linejoin="round" stroke-width=".4"/>
  <path d="M43.7 88.5c.4.2-1.2-5.9-3.3-5.2s-1.4 3.3 3.3 5.2z" fill="red" stroke="#000" stroke-linecap="round" stroke-linejoin="round" stroke-width=".4"/>
  <path d="M35.6 78.7c-.3-.1 1.3 5.1 3.1 4.5s1.1-3-3.1-4.5z" fill="#febf10" stroke="#000" stroke-linecap="round" stroke-linejoin="round" stroke-width=".4"/>
  <circle cx="39.4" cy="83" r=".5" fill="#febf10" stroke="#000" stroke-linecap="round" stroke-linejoin="round" stroke-width=".4"/>
  <circle cx="38.6" cy="83.9" r=".5" fill="#febf10" stroke="#000" stroke-linecap="round" stroke-linejoin="round" stroke-width=".4"/>
  <circle cx="40.3" cy="82.4" r=".5" fill="#febf10" stroke="#000" stroke-linecap="round" stroke-linejoin="round" stroke-width=".4"/>
  <circle cx="35" cy="78.1" r=".7" fill="#0065b7" stroke="#000" stroke-linecap="round" stroke-linejoin="round" stroke-width=".4"/>
  <circle cx="47" cy="93.7" r=".5" fill="#febf10" stroke="#000" stroke-linecap="round" stroke-linejoin="round" stroke-width=".4"/>
  <circle cx="51.6" cy="103" r=".5" fill="#325723" stroke="#000" stroke-linecap="round" stroke-linejoin="round" stroke-width=".4"/>
  <circle cx="52.1" cy="104.1" r=".5" fill="#325723" stroke="#000" stroke-linecap="round" stroke-linejoin="round" stroke-width=".4"/>
  <path d="M29.9 70.1c17.3 12.1 24.3 32.1 24.6 33m-26-33c19.3 14.3 25.1 32.8 25.4 33.7m-4.3 2.3c-.1-.2-6.8-19.2-22-30.3m23 30.2c-.1-.2-7.6-20.6-23.4-31.8m6.7 32.3c.7-1.1 3.1-4.4 7.4-4.4h.5c4.1.2 6.1 4.3 6.2 4.5" fill="none" stroke="#000" stroke-linecap="round" stroke-linejoin="round" stroke-width=".4"/>
  <circle cx="40.9" cy="101.1" r=".2"/>
  <circle cx="40.2" cy="99.5" r=".2"/>
  <circle cx="39.7" cy="98.1" r=".2"/>
  <circle cx="38.7" cy="96.6" r=".2"/>
  <circle cx="36.5" cy="97.3" r=".2"/>
  <circle cx="34.2" cy="98.4" r=".2"/>
  <circle cx="32.9" cy="99.4" r=".2"/>
  <circle cx="31.4" cy="100.6" r=".2"/>
  <circle cx="29.9" cy="102" r=".2"/>
  <circle cx="28.3" cy="103.2" r=".2"/>
  <path d="M59.2 87.3a9.1 9.1 0 0 1-.5-1.7c-.4-1.2.5-2.4 1.6-2s2.4 2 3.2 3 .3 3 .5 3.8a1.1 1.1 0 0 1 0 1.1c0 .1-2.5 3.2-4.4 2.2S58.4 91 58.4 91l.2-.5-.4-.9.4-1.1.3-.8z" fill="#f3bc84"/>
  <path d="M58.4 91.3s-.8 1.3 1.2 2.4 4.4-2.1 4.4-2.2a1.1 1.1 0 0 0 0-1.1c-.2-.8.2-2.8-.5-3.8s-2.1-2.7-3.2-3-2 .8-1.6 2a10.4 10.4 0 0 0 .4 1.5m3.2 4.7s-4.3 1.8-3.9-1.2" fill="none" stroke="#000" stroke-linecap="round" stroke-linejoin="round" stroke-width=".4"/>
  <path d="M61.8 90.4a7.8 7.8 0 0 1-2.1.5 1.3 1.3 0 0 1-1.5-.9 1.9 1.9 0 0 1 .4-1.3" fill="none" stroke="#000" stroke-linecap="round" stroke-linejoin="round" stroke-width=".4"/>
  <ellipse cx="22.6" cy="79.4" rx=".8" ry="1.3" fill="#325723"/>
  <path d="M22.6 82.1a5.1 5.1 0 0 1 .4 1.8s-7.2 3.6-9.9-3.8c0 0 .1-1 2.4-1.9s7.1 3.9 7.1 3.9z" fill="#febf10" stroke="#000" stroke-linecap="round" stroke-linejoin="round" stroke-width=".4"/>
  <path d="M18.5 75.9c-4.2.3-2.5 3.8-2.5 3.8a1.6 1.6 0 0 0 1.4 1.2 1.4 1.4 0 0 0 1.9 1 2.1 2.1 0 0 0 2.8 0s1.1.7 1.9-1.1 1-3-.4-3.7l-.6.9.2 1.7-.2.6h-.7V79l.5-.5v-.9l-.7-.4-.3-.4H21v-1l-.6-.3-1.2.4z" fill="#f3bc84"/>
  <path d="M18.5 75.9c-4.2.3-2.5 3.8-2.5 3.8a1.6 1.6 0 0 0 1.4 1.2 1.4 1.4 0 0 0 1.9 1 2.1 2.1 0 0 0 2.8 0s1.1.7 1.9-1.1 1-3-.4-3.7" fill="none" stroke="#000" stroke-linecap="round" stroke-linejoin="round" stroke-width=".4"/>
  <path d="M16.8 78.9s.7-2.7 2.3-3.1 2.1-.3 1.8.7" fill="none" stroke="#000" stroke-linecap="round" stroke-linejoin="round" stroke-width=".4"/>
  <path d="M18.3 79.8a5.7 5.7 0 0 1 1.3-2.5 1.8 1.8 0 0 1 2.2-.5c.4.2.1.8-.6 1.2l-.7.4-.8 2.3m1.8.5a1.6 1.6 0 0 0 .6-2.2 1.3 1.3 0 0 0 .9-1.6h-.9m.4 2.9h.5a3.3 3.3 0 0 0 .1-1.9" fill="none" stroke="#000" stroke-linecap="round" stroke-linejoin="round" stroke-width=".4"/>
  <path fill="#febf10" d="M59.7 88.1l-2-18h2L61.5 87"/>
  <path fill="#d09b07" d="M59.6 88.5l-1.9-18.4h.9l2 17.6"/>
  <path fill="none" stroke="#000" stroke-linecap="round" stroke-linejoin="round" stroke-width=".4" d="M59.7 70.1l1.8 16.8m-1.8 1.2l-2-18m2.9 17.7l-1.9-17.7m2.9 27.5l-.3-3.7m.4-5.2a2.8 2.8 0 0 1-2.1.7c-1.1-.3-1.2-.9-.9-1.6s.8-.9.8-.9m2.2-.3c0 .4-2.2 2.7-2.2 1"/>
  <path d="M63.7 115.6s-.1-4 1.7-5.9a3.8 3.8 0 0 1-1.6-2.2s2.8.1 2.9-2.5a2.4 2.4 0 0 0-1.6-2.5s.2 2-1 1.8-.6-1-.5-1.4.5-2.4-1.4-2.2" fill="#0065b7" stroke="#000" stroke-linecap="round" stroke-linejoin="round" stroke-width=".4"/>
  <path d="M62 100.7c-1.8.2-1.1 2-.9 2.4s.9 1.1-.2 1.6-1.4-1.6-1.4-1.6a2.4 2.4 0 0 0-1.1 2.7c.7 2.5 3.4 1.9 3.4 1.9a3.5 3.5 0 0 1-1.1 2.5c2.2 1.5 2.9 5.4 2.9 5.4z" fill="#004da1" stroke="#000" stroke-linecap="round" stroke-linejoin="round" stroke-width=".4"/>
  <circle cx="61.9" cy="99.3" r="1.6" fill="red" stroke="#000" stroke-linecap="round" stroke-linejoin="round" stroke-width=".4"/>
  <path d="M31 98.2s.7-5.6-.6-6.3m-3.9-21.6c0 5.6 4.5 12.3 4.5 12.3m-9.5 1.9c-.1 1.1-.5 4.1-4.4 3.6" fill="none" stroke="#000" stroke-linecap="round" stroke-linejoin="round" stroke-width=".4"/>
  <path d="M37.6 109.8a4 4 0 0 0-2.8-3c-2.5-.6-7.7-1.1-11.9-4.9s-4.5-4.8-4.5-4.8-10.1-7.1-5.1-16" fill="none" stroke="#000" stroke-linecap="round" stroke-linejoin="round" stroke-width=".4"/>
  <path d="M35.1 107.6a.9.9 0 0 0-.6.7 9.2 9.2 0 0 1-.8 4.2 6.3 6.3 0 0 0-.8 3c-.1 2.7 1.1 4.1 1.2 4.1a.7.7 0 0 0 1 .1.8.8 0 0 0 .1-1.1 5.2 5.2 0 0 1-.8-3.1 5.1 5.1 0 0 1 .7-2.4 10 10 0 0 0 .9-4.8.7.7 0 0 0-.7-.8z" fill="#856353" stroke="#000" stroke-linecap="round" stroke-linejoin="round" stroke-width=".4"/>
  <path d="M34.5 118.4a21.4 21.4 0 0 0 .6-4.2 7.3 7.3 0 0 1 1.8-5c1.5-1.8 3.8-.8 7 1.1s1.1 9.1.1 9.7-5.9 1.5-9.5-1.6z" fill="#f3bc84"/>
  <path d="M35.7 119.1a23.7 23.7 0 0 0 .9-5c0-1.8 1.7-5 4.2-5.4-.1 0-2.1-1-3.2-.1a6 6 0 0 0-2.4 4c-.1 1.7-.6 5.4-.6 5.4v.5z" fill="#c69c6d"/>
  <path d="M34.5 118.4a21.4 21.4 0 0 0 .6-4.2 7.3 7.3 0 0 1 1.8-5c1.5-1.8 3.8-.8 7 1.1s1.1 9.1.1 9.7-5.9 1.5-9.5-1.6z" fill="none" stroke="#000" stroke-linecap="round" stroke-linejoin="round" stroke-width=".4"/>
  <path d="M43 118c-.3.6-2.1 1.5-3.6-.3m-4.1 1s2.3.2 2.7-1.6a4.3 4.3 0 0 0-.6-3.2c-.1-.3.5-1.1.5-1.1m1.4 1s.4-.7.1-.9a1.8 1.8 0 0 0-1 .1h-.2m.2-.4v.4m-.7 0l-.2-.3" fill="none" stroke="#000" stroke-linecap="round" stroke-linejoin="round" stroke-width=".3"/>
  <path d="M38.2 111.7c.1.1.3-.1.3-.1l.4.2a6.3 6.3 0 0 0 1.2-.7H40s-1.6-1.6-2.8.1h-.1a5.4 5.4 0 0 0 1.1.5z" fill="red"/>
  <path d="M40.5 111.3a12.7 12.7 0 0 0-3.6-.1m3.1-.2s-1.6-1.6-2.8.1" fill="none" stroke="#000" stroke-linecap="round" stroke-linejoin="round" stroke-width=".3"/>
  <path d="M37.2 111.3l1 .4c.1.1.3-.1.3-.1l.4.2a5.4 5.4 0 0 0 1.1-.6" fill="none" stroke="#000" stroke-linecap="round" stroke-linejoin="round" stroke-width=".3"/>
  <path d="M50.3 108.4a.7.7 0 0 1 .3.8 9 9 0 0 0-.6 4.3 7.9 7.9 0 0 1-.2 3 6.5 6.5 0 0 1-2.5 3.6.8.8 0 0 1-1-.3.7.7 0 0 1 .3-1 5.5 5.5 0 0 0 1.7-2.7 5.4 5.4 0 0 0 .2-2.5 9.4 9.4 0 0 1 .7-4.9.6.6 0 0 1 .9-.4c.1 0 .2 0 .2.1z" fill="#856353" stroke="#000" stroke-linecap="round" stroke-linejoin="round" stroke-width=".4"/>
  <path d="M48.4 107.9a.7.7 0 0 1 .4.8 8.9 8.9 0 0 0 .5 4.3 7.7 7.7 0 0 1-1.1 7.1.9.9 0 0 1-1.1-.1.8.8 0 0 1 0-1.1c.1 0 1-.9 1.2-3a7 7 0 0 0-.5-2.5 10.1 10.1 0 0 1-.4-4.9.6.6 0 0 1 .8-.6z" fill="#856353" stroke="#000" stroke-linecap="round" stroke-linejoin="round" stroke-width=".4"/>
  <path d="M47.1 108a.6.6 0 0 1 .4.8 8.4 8.4 0 0 0 .5 4.2 9.7 9.7 0 0 1 .4 3.1c-.2 2.7-1.5 4-1.6 4a.7.7 0 0 1-1 0 .8.8 0 0 1 0-1.1c.1 0 1-.9 1.1-3a5.1 5.1 0 0 0-.4-2.5 9.9 9.9 0 0 1-.5-4.9 1 1 0 0 1 .9-.7z" fill="#856353" stroke="#000" stroke-linecap="round" stroke-linejoin="round" stroke-width=".4"/>
  <path d="M45.8 108.4a.7.7 0 0 1 .4.8 9.1 9.1 0 0 0 .5 4.3 8.7 8.7 0 0 1 .4 3 6.2 6.2 0 0 1-1.5 4 .8.8 0 1 1-1.1-1.1c.1 0 1-.9 1.1-3a5.3 5.3 0 0 0-.4-2.5 11.3 11.3 0 0 1-.5-4.9.8.8 0 0 1 .9-.6z" fill="#856353" stroke="#000" stroke-linecap="round" stroke-linejoin="round" stroke-width=".4"/>
  <path d="M44.6 108.6a.8.8 0 0 1 .5.8 8.8 8.8 0 0 0 .4 4.2 7 7 0 0 1 .5 3 6.1 6.1 0 0 1-1.6 4.1c-.3.3-1.6.7-1.8.4s.3-.9.8-1.5a6.2 6.2 0 0 0 1.1-3.1 7.3 7.3 0 0 0-.4-2.5 9.5 9.5 0 0 1-.5-4.8.8.8 0 0 1 .8-.7z" fill="#856353" stroke="#000" stroke-linecap="round" stroke-linejoin="round" stroke-width=".4"/>
  <path d="M42.5 116.8a3.4 3.4 0 0 0-1.7-.7c-.8.1-1 .5-1 .5a1.7 1.7 0 0 0 1.5.6 1.5 1.5 0 0 0 1.2-.4z" fill="#fff"/>
  <path d="M42.3 117l-1.3.2a3 3 0 0 1-1.3-.6 2 2 0 0 1 1.4-.4 2.1 2.1 0 0 1 1.4.7m-2.8-.3a1.7 1.7 0 0 0 2.8.3" fill="none" stroke="#000" stroke-linecap="round" stroke-linejoin="round" stroke-width=".3"/>
  <ellipse cx="40.9" cy="116.7" rx=".5" ry=".7" transform="rotate(-85.2 40.86 116.65)"/>
  <circle cx="40.7" cy="116.8" r=".2" fill="#fff"/>
  <path d="M38 116.5a2.7 2.7 0 0 0-1.8-.5 1.4 1.4 0 0 0-.9.6 1.7 1.7 0 0 0 1.5.4c1-.2 1.2-.5 1.2-.5z" fill="#fff"/>
  <path d="M37.8 116.7l-1.1.2a3.3 3.3 0 0 1-1.3-.3 1.8 1.8 0 0 1 1.2-.6 2.1 2.1 0 0 1 1.4.5m-2.7.1a1.6 1.6 0 0 0 2.7-.1" fill="none" stroke="#000" stroke-linecap="round" stroke-linejoin="round" stroke-width=".3"/>
  <ellipse cx="36.5" cy="116.5" rx=".6" ry=".5" transform="rotate(-2.4 35.8 115.37)"/>
  <ellipse cx="36.3" cy="116.7" rx=".2" ry=".2" transform="rotate(-2.4 35.74 117.76)" fill="#fff"/>
  <path d="M49.1 118.3s2.1 2.9.3 5.4-11.1 3.3-13.4 2.4-4.5-3.3-4.6-5.3a5.6 5.6 0 0 1 1.6-3.7s4.2 5.9 16.1 1.2z" fill="red"/>
  <path d="M39.8 126.3s-3.7-2.7-2.3-6.4l-2-.9-2.5-1.7-1 1.4-.6 2.2 1 2.6 2.6 2.1 2.5.8z" fill="#980805"/>
  <path d="M49.1 118.3s2.1 2.9.3 5.4-11.1 3.3-13.4 2.4-4.5-3.3-4.6-5.3a5.6 5.6 0 0 1 1.6-3.7s4.2 5.9 16.1 1.2z" fill="none" stroke="#000" stroke-linecap="round" stroke-linejoin="round" stroke-width=".4"/>
  <path d="M42.6 128s6 3.1 10.8-1 5.1-9.4 3.2-11.2-5.5.8-6.1 3-1.8 6.3-6.2 7.3" fill="#0065b7"/>
  <path d="M44.5 126.9s5.3-.2 7.5-3.5 1.9-8 1.9-8l-2 1.2-1.2 1.5-1.3 4-2.1 2.7-2.6 1.3z" fill="#004da1"/>
  <path d="M42.6 128s6 3.1 10.8-1 5.1-9.4 3.2-11.2-5.5.8-6.1 3-1.8 6.3-6.2 7.3" fill="none" stroke="#000" stroke-linecap="round" stroke-linejoin="round" stroke-width=".4"/>
  <path d="M44.6 126a3.4 3.4 0 0 1-.8 1.6c-.5.4-2.6 1.3-6.1 1a3.6 3.6 0 0 1-3.6-3.5 6.3 6.3 0 0 0 4.1 1.4 35.1 35.1 0 0 0 6.4-.5z" fill="#febf10"/>
  <path fill="#d09b07" d="M38.6 128.5l-.3-1.9-2.4-.5-1.8-.9.1 1.3 1.3 1.5 1.5.5.9.2.7-.2z"/>
  <path d="M44.6 126a3.4 3.4 0 0 1-.8 1.6c-.5.4-2.6 1.3-6.1 1a3.6 3.6 0 0 1-3.6-3.5 6.3 6.3 0 0 0 4.1 1.4 35.1 35.1 0 0 0 6.4-.5zm.2-17.4a1.4 1.4 0 0 1 1.1-1.1l3.9-1.2s7.1-1.4 8.8-13.2m-14.3 34.2s6.3.7 9.3-5.1m-1 5.4a8.2 8.2 0 0 0 8.4-6.1" fill="none" stroke="#000" stroke-linecap="round" stroke-linejoin="round" stroke-width=".4"/>
  <path d="M17.8 114v-.8a4.2 4.2 0 0 0-3.4-2.7c-.4 0-.2-.9.6-1.2v-.7h8.3v.6c1 .1 1.4 1.2.9 1.3a3.9 3.9 0 0 0-3.3 2.7v.8H20v-.8c.2-.7 0-1-.2.4h-1c-.1-1.4-.3-1.1-.1-.4v.8z" fill="#325723"/>
  <path d="M18.7 114v-.8c-.3-1-1-3.5-2.6-3.9s-2.2 1.1-1.7 1.2a4.2 4.2 0 0 1 3.4 2.7v.8zm2.2 0v-.8a3.9 3.9 0 0 1 3.3-2.7c.6-.1 0-1.7-1.6-1.2s-2.3 2.9-2.6 3.9v.8z" fill="#3c6d3d" stroke="#000" stroke-linecap="round" stroke-linejoin="round" stroke-width=".24"/>
  <path d="M18.7 114v-.8c-.3-1-1-3.5-2.6-3.9s-2.2 1.1-1.7 1.2a4.2 4.2 0 0 1 3.4 2.7v.8zm2.2 0v-.8a3.9 3.9 0 0 1 3.3-2.7c.6-.1 0-1.7-1.6-1.2s-2.3 2.9-2.6 3.9v.8z" fill="#325723" stroke="#000" stroke-linecap="round" stroke-linejoin="round" stroke-width=".41"/>
  <path d="M18.8 113.6c-.2-1.7-1.2-2.6-1-3.8s.7-.8 1.5-.8 1.5.3 1.5.8-.8 2.1-1 3.8h-1z" fill="none" stroke="#000" stroke-linecap="round" stroke-linejoin="round" stroke-width=".41"/>
  <path d="M19.1 113.2c-.1-1.2-.6-1.9-.5-2.8s.3-.6.7-.6.8.2.8.6-.4 1.6-.5 2.8h-.5z" fill="#0d3a12" stroke="#000" stroke-linecap="round" stroke-linejoin="round" stroke-width=".41"/>
  <path d="M16.4 109.3h1.8m-1.3.4h.9" fill="none" stroke="#000" stroke-linecap="round" stroke-linejoin="round" stroke-width=".41"/>
  <path d="M14.3 108.7h10.1v-2.1l-5.1-.6-5 .6z" fill="#d09b07" stroke="#000" stroke-linecap="round" stroke-linejoin="round" stroke-width=".41"/>
  <circle cx="15" cy="107.7" r=".6" fill="#febf10" stroke="#000" stroke-linecap="round" stroke-linejoin="round" stroke-width=".3"/>
  <circle cx="15" cy="107.7" r=".2"/>
  <circle cx="16.2" cy="107.6" r=".6" fill="#febf10" stroke="#000" stroke-linecap="round" stroke-linejoin="round" stroke-width=".3"/>
  <circle cx="16.2" cy="107.6" r=".2"/>
  <circle cx="17.5" cy="107.5" r=".6" fill="#febf10" stroke="#000" stroke-linecap="round" stroke-linejoin="round" stroke-width=".3"/>
  <circle cx="17.5" cy="107.5" r=".2"/>
  <circle cx="18.8" cy="107.4" r=".6" fill="#febf10" stroke="#000" stroke-linecap="round" stroke-linejoin="round" stroke-width=".3"/>
  <circle cx="18.8" cy="107.4" r=".2"/>
  <circle cx="20" cy="107.4" r=".6" fill="#febf10" stroke="#000" stroke-linecap="round" stroke-linejoin="round" stroke-width=".3"/>
  <circle cx="20" cy="107.4" r=".2"/>
  <circle cx="21.3" cy="107.5" r=".6" fill="#febf10" stroke="#000" stroke-linecap="round" stroke-linejoin="round" stroke-width=".3"/>
  <circle cx="21.3" cy="107.5" r=".2"/>
  <circle cx="22.6" cy="107.6" r=".6" fill="#febf10" stroke="#000" stroke-linecap="round" stroke-linejoin="round" stroke-width=".3"/>
  <circle cx="22.6" cy="107.6" r=".2"/>
  <circle cx="23.7" cy="107.7" r=".6" fill="#febf10" stroke="#000" stroke-linecap="round" stroke-linejoin="round" stroke-width=".3"/>
  <circle cx="23.7" cy="107.7" r=".2"/>
  <path d="M19.7 115.3a1.4 1.4 0 0 0 1.2-1.1c.1-.4-.4-.9-.8-.7a.8.8 0 0 0-1.4-.1h-.3c-.5 0-.7.4-.6.9a1.4 1.4 0 0 0 1.4.9zm-1.6-.4c-.4-.3-.4-.8-.4-1.3s-.6-.3-.8-.1-.4-.2-.6-.2-.4.5-.3.8a2.2 2.2 0 0 0 1.9 1c.1.1.3 0 .2-.2zm2.5.2a2 2 0 0 0 2-.9c.1-.3.2-.8-.2-.9s-.4.4-.6.2-.5-.3-.7 0-.1.7-.2 1.1-.4.3-.4.5z" fill="red" stroke="#000" stroke-linecap="round" stroke-linejoin="round" stroke-width=".41"/>
  <path d="M14.3 107.1a.6.6 0 0 1-.6-.6.6.6 0 0 1 .5-.6 36.4 36.4 0 0 1 5.1-.4 39.3 39.3 0 0 1 5.2.4.6.6 0 0 1 .5.6.6.6 0 0 1-.6.6h-.1a33.7 33.7 0 0 0-5-.5 33.7 33.7 0 0 0-4.9.5z" fill="#febf10" stroke="#000" stroke-linecap="round" stroke-linejoin="round" stroke-width=".41"/>
  <path d="M22.3 109.3h-1.8m1.2.4h-.8m-3.6.5h.4m3.6-.1h-.4" fill="none" stroke="#000" stroke-linecap="round" stroke-linejoin="round" stroke-width=".41"/>
  <path d="M14.8 121.6a2.7 2.7 0 0 1-2.3-2.6 3.6 3.6 0 0 1 2.3-3.5 9.8 9.8 0 0 1 4.5-.9 10 10 0 0 1 4.6.9 3.6 3.6 0 0 1 2.2 3.5 2.7 2.7 0 0 1-2.2 2.6h-9.1z" fill="#febf10"/>
  <path d="M16.6 121.5a5.4 5.4 0 0 1 3.5-6.9c0-.1-4.9-.2-6.4 1.7s-1.3 3.3-.5 4.3a3.3 3.3 0 0 0 3.4.9z" fill="#d09b07"/>
  <path d="M14.8 121.6a2.7 2.7 0 0 1-2.3-2.6 3.6 3.6 0 0 1 2.3-3.5 9.8 9.8 0 0 1 4.5-.9 10 10 0 0 1 4.6.9 3.6 3.6 0 0 1 2.2 3.5 2.7 2.7 0 0 1-2.2 2.6h-9.1z" fill="none" stroke="#000" stroke-linecap="round" stroke-linejoin="round" stroke-width=".41"/>
  <path d="M13.8 124.1h11v-2.4l-5.5-.7-5.5.7z" fill="#d09b07" stroke="#000" stroke-linecap="round" stroke-linejoin="round" stroke-width=".41"/>
  <path d="M16.4 122.2a2.2 2.2 0 0 0-1.4-.4 2.2 2.2 0 0 0-1 .9 1.9 1.9 0 0 0 1.3.4 1.7 1.7 0 0 0 1.1-.9z" fill="#febf10" stroke="#000" stroke-linecap="round" stroke-linejoin="round" stroke-width=".3"/>
  <path fill="none" stroke="#000" stroke-linecap="round" stroke-linejoin="round" stroke-width=".3" d="M16.4 122.2l-1.4.3"/>
  <path d="M17.8 122a2.1 2.1 0 0 0-1.4-.5 2.8 2.8 0 0 0-1.1.9 2.2 2.2 0 0 0 1.4.4 2.1 2.1 0 0 0 1.1-.8z" fill="#febf10" stroke="#000" stroke-linecap="round" stroke-linejoin="round" stroke-width=".3"/>
  <path fill="none" stroke="#000" stroke-linecap="round" stroke-linejoin="round" stroke-width=".3" d="M17.8 122l-1.4.2"/>
  <path d="M19.3 122a2.1 2.1 0 0 0-1.3-.6c-.6 0-1.1.7-1.1.7a1.8 1.8 0 0 0 1.2.6 2.2 2.2 0 0 0 1.2-.7z" fill="#febf10" stroke="#000" stroke-linecap="round" stroke-linejoin="round" stroke-width=".3"/>
  <path fill="none" stroke="#000" stroke-linecap="round" stroke-linejoin="round" stroke-width=".3" d="M19.3 122l-1.3.1"/>
  <path d="M22.3 122.2a1.7 1.7 0 0 1 1.3-.3 1.7 1.7 0 0 1 1.1.9 1.7 1.7 0 0 1-1.3.3 1.7 1.7 0 0 1-1.1-.9z" fill="#febf10" stroke="#000" stroke-linecap="round" stroke-linejoin="round" stroke-width=".3"/>
  <path fill="none" stroke="#000" stroke-linecap="round" stroke-linejoin="round" stroke-width=".3" d="M22.3 122.2l1.3.3"/>
  <path d="M20.9 122a2.1 2.1 0 0 1 1.3-.4 1.7 1.7 0 0 1 1.1.8 1.5 1.5 0 0 1-1.3.4 1.7 1.7 0 0 1-1.1-.8z" fill="#febf10" stroke="#000" stroke-linecap="round" stroke-linejoin="round" stroke-width=".3"/>
  <path fill="none" stroke="#000" stroke-linecap="round" stroke-linejoin="round" stroke-width=".3" d="M20.9 122l1.3.2"/>
  <path d="M19.4 122a2.1 2.1 0 0 1 1.2-.6 2.1 2.1 0 0 1 1.2.8 1.7 1.7 0 0 1-1.2.5 1.7 1.7 0 0 1-1.2-.7z" fill="#febf10" stroke="#000" stroke-linecap="round" stroke-linejoin="round" stroke-width=".3"/>
  <path fill="none" stroke="#000" stroke-linecap="round" stroke-linejoin="round" stroke-width=".3" d="M19.4 122l1.3.1"/>
  <path d="M20.3 120.8h-.2L18 123a.3.3 0 0 0 0 .4h.4l2.1-2.2c.1-.1.1-.2 0-.4z" fill="#0065b7" stroke="#000" stroke-linecap="round" stroke-linejoin="round" stroke-width=".35"/>
  <path d="M18.2 120.7h-.1a.3.3 0 0 0 0 .4l1.9 2a.3.3 0 1 0 .4-.4l-1.9-2c-.1 0-.2-.1-.3 0z" fill="#0065b7" stroke="#000" stroke-linecap="round" stroke-linejoin="round" stroke-width=".35"/>
  <path d="M26.9 125.6c0-1.6-3.4-2.8-7.6-2.8s-7.6 1.2-7.6 2.8c0 1.5 3.4 2.8 7.6 2.8s7.6-1.3 7.6-2.8z" fill="red"/>
  <path d="M13.8 126.3s5.9-2.8 10.9 0c.1-.1.4.2.6-.4s-1.1-1.7-4.6-1.8-5.8.3-6.5.7-1.4.8-.4 1.5z" fill="#980805"/>
  <path d="M26.9 125.6c0-1.6-3.4-2.8-7.6-2.8s-7.6 1.2-7.6 2.8c0 1.5 3.4 2.8 7.6 2.8s7.6-1.3 7.6-2.8z" fill="none" stroke="#000" stroke-linecap="round" stroke-linejoin="round" stroke-width=".38"/>
  <path d="M24.8 126.2c.3-.2.5-.4.5-.6 0-.8-2.7-1.5-6-1.5s-5.9.7-6 1.5c0 .2.2.4.5.6" fill="none" stroke="#000" stroke-linecap="round" stroke-linejoin="round" stroke-width=".36"/>
  <path d="M12.9 119.4c-.9 0-.5-5 6.4-4.8 6.9-.2 7.4 4.8 6.5 4.8h-.1c-.2 0-.3-.2-.3-.5s-.2.3-.4.3-.4-.4-.5-.8-.2.6-.5.5-.5-.4-.6-.8-.2.7-.6.7-.7-.3-.9-.7-.3.6-.7.6-.8-.3-.9-.9a1 1 0 0 1-1 .9c-.5 0-.8-.4-.9-.9s-.4.9-1 .9a.7.7 0 0 1-.7-.6.8.8 0 0 1-.8.7.7.7 0 0 1-.7-.7c-.1.4-.2.7-.5.8s-.5-.1-.6-.5-.1.7-.4.8-.3-.1-.4-.3-.2.5-.4.5z" fill="none" stroke="#000" stroke-linecap="round" stroke-linejoin="round" stroke-width=".41"/>
  <path d="M12.9 119.4c-.9.4-.7-5.1 6.4-4.8-7.4.7-5.3 4.5-6.4 4.8z" fill="#325723" stroke="#000" stroke-linecap="round" stroke-linejoin="round" stroke-width=".41"/>
  <path d="M13.7 119.2c-1.1.3-.7-4.6 5.6-4.6-6.4.6-4.5 4.2-5.6 4.6z" fill="#325723" stroke="#000" stroke-linecap="round" stroke-linejoin="round" stroke-width=".41"/>
  <path d="M14.7 118.9c-1.3.4-.6-4.3 4.6-4.3-5.1 1.3-3.5 4-4.6 4.3z" fill="#325723" stroke="#000" stroke-linecap="round" stroke-linejoin="round" stroke-width=".41"/>
  <path d="M15.9 118.8c-1.4 0-.7-3.5 3.4-4.2-3.2 1.4-1.9 4.2-3.4 4.2z" fill="#325723" stroke="#000" stroke-linecap="round" stroke-linejoin="round" stroke-width=".41"/>
  <path d="M17.4 118.7c-1.4 0-.8-3.3 1.9-4.1-1.1 1.4-.4 4.1-1.9 4.1zm8.3.7c1 .4.7-5.1-6.4-4.8 7.5.7 5.3 4.5 6.4 4.8z" fill="#325723" stroke="#000" stroke-linecap="round" stroke-linejoin="round" stroke-width=".41"/>
  <path d="M25 119.2c1 .3.6-4.6-5.7-4.6 6.4.6 4.6 4.2 5.7 4.6z" fill="#325723" stroke="#000" stroke-linecap="round" stroke-linejoin="round" stroke-width=".41"/>
  <path d="M24 118.9c1.3.4.6-4.3-4.7-4.3 5.1 1.3 3.6 4 4.7 4.3z" fill="#325723" stroke="#000" stroke-linecap="round" stroke-linejoin="round" stroke-width=".41"/>
  <path d="M22.8 118.8c1.4 0 .7-3.5-3.5-4.2 3.3 1.4 1.9 4.2 3.5 4.2z" fill="#325723" stroke="#000" stroke-linecap="round" stroke-linejoin="round" stroke-width=".41"/>
  <path d="M21.2 118.7c1.4 0 .9-3.3-1.9-4.1 1.1 1.4.4 4.1 1.9 4.1z" fill="#325723" stroke="#000" stroke-linecap="round" stroke-linejoin="round" stroke-width=".41"/>
  <path d="M19.3 118.7c-1.4 0-1.2-2.7 0-4.1 1.3 1.4 1.4 4.1 0 4.1z" fill="#325723" stroke="#000" stroke-linecap="round" stroke-linejoin="round" stroke-width=".41"/>
  <path d="M19.3 117.9c-.8 0-.7-2.1 0-3.2.8 1.1.9 3.2 0 3.2z" fill="#0d3a12" stroke="#000" stroke-linecap="round" stroke-linejoin="round" stroke-width=".41"/>
  <path d="M13.8 122.1a.4.4 0 0 1-.4-.3.8.8 0 0 1 .2-.5 18.8 18.8 0 0 1 5.6-.9h.2a17.7 17.7 0 0 1 5.6.9.5.5 0 0 1 .3.5c-.1.1-.2.3-.4.3h-.2a16.6 16.6 0 0 0-5.4-.8 16.6 16.6 0 0 0-5.4.8zm.3-12.8c-.2 0-.3-.2-.4-.3a.4.4 0 0 1 .3-.4 39.8 39.8 0 0 1 5.3-.5 38.3 38.3 0 0 1 5.3.5c.2 0 .3.2.3.4l-.3.3h-.1a25.4 25.4 0 0 0-5.2-.5 27 27 0 0 0-5.2.5z" fill="#febf10" stroke="#000" stroke-linecap="round" stroke-linejoin="round" stroke-width=".41"/>
  <path fill="none" stroke="#000" stroke-linecap="round" stroke-linejoin="round" stroke-width=".4" d="M8 7.9h62v124.31H8zM8.1 70H70"/>
</svg>
