<svg xmlns="http://www.w3.org/2000/svg" viewBox="0 0 78 140">
  <rect width="78" height="140" rx="6" ry="6" fill="#fff"/>
  <path d="M34 33.8a.7.7 0 0 0 .3-.8 8.1 8.1 0 0 1-.4-3.9 9.9 9.9 0 0 0-.2-2.9 5.7 5.7 0 0 0-2.3-3.3.6.6 0 0 0-.9.3.7.7 0 0 0 .2.9 3.9 3.9 0 0 1 1.6 2.5 6.7 6.7 0 0 1 .2 2.4 9.7 9.7 0 0 0 .5 4.5.8.8 0 0 0 .9.4z" fill="#856353" stroke="#000" stroke-linecap="round" stroke-linejoin="round" stroke-width=".4"/>
  <path d="M31 34.1a.8.8 0 0 0 .5-.7 7.4 7.4 0 0 1 .4-3.9 6.5 6.5 0 0 0 .5-2.9c-.1-2.5-1.3-3.7-1.4-3.7a.6.6 0 0 0-.9 0 .7.7 0 0 0 0 1 4.8 4.8 0 0 1 .9 2.8 4.5 4.5 0 0 1-.4 2.3 8.4 8.4 0 0 0-.5 4.5.6.6 0 0 0 .8.6z" fill="#856353" stroke="#000" stroke-linecap="round" stroke-linejoin="round" stroke-width=".4"/>
  <path d="M32.2 34.2a.9.9 0 0 0 .5-.8 7.4 7.4 0 0 1 .5-3.9 10.8 10.8 0 0 0 .5-2.8 6.7 6.7 0 0 0-1.4-3.8.8.8 0 0 0-1 .1.6.6 0 0 0 0 .9 5.9 5.9 0 0 1 1 2.9 5.9 5.9 0 0 1-.5 2.3 9.6 9.6 0 0 0-.5 4.5.6.6 0 0 0 .8.6z" fill="#856353" stroke="#000" stroke-linecap="round" stroke-linejoin="round" stroke-width=".4"/>
  <path d="M19.1 13.9c-.5-4.7 4.3-4.2 4.3-4.2s-1.8 2.2-.1 2.6 2.7 1 2.8 2.3l-1.5 2.3z" fill="red"/>
  <path d="M26.1 14.6c-.1-1.3-1-1.9-2.8-2.3s.1-2.6.1-2.6-4.8-.5-4.3 4.2" fill="none" stroke="#000" stroke-linecap="round" stroke-linejoin="round" stroke-width=".4"/>
  <path d="M13.4 70a10.9 10.9 0 0 1-2.9-3.7c-.6-2 1.8-4.1 1.8-4.1l7.2-2.7 15.1-.4.6 1.6V70" fill="#325723"/>
  <path d="M27.6 60.9a20.1 20.1 0 0 1 1.9 5.8 17.7 17.7 0 0 1 .2 3.4h2.6l.5-4.2 2.3-5.6-.5-.7-3 .7-3.1.5z" fill="#0d3a12"/>
  <path d="M13.4 70a10.9 10.9 0 0 1-2.9-3.7c-.6-2 1.8-4.1 1.8-4.1l7.2-2.7 15.1-.4.6 1.6V70" fill="none" stroke="#000" stroke-linecap="round" stroke-linejoin="round" stroke-width=".4"/>
  <path d="M23.7 61a38.9 38.9 0 0 1-6.4-.5l.4-2a40.5 40.5 0 0 0 17-.7v1.7a40.5 40.5 0 0 1-11 1.5z" fill="#febf10"/>
  <path d="M35.3 39l-21-.8s-4.6 3.4-5.2 12.6 3.7 13 3.7 13l5.5-3.4a20 20 0 0 1-.8-1.9h.9l5.1.6 7.2-.5 3.8-.9 1.5-.6 3-14c-.5-2.2-3.7-4.1-3.7-4.1zm-16.6 4.5a11.1 11.1 0 0 1 .2-1.3z" fill="#0065b7"/>
  <path d="M17.7 58.5a40.5 40.5 0 0 0 17-.7v1.7a40.5 40.5 0 0 1-11 1.5l-4.4-.2" fill="none" stroke="#000" stroke-linecap="round" stroke-linejoin="round" stroke-width=".4"/>
  <path d="M26.9 64.3a1.6 1.6 0 0 1-1.3-.6 5.2 5.2 0 0 1-.9-3.6c.2-1.8 4-6.6 4.4-7.1a.9.9 0 0 1 .6-.3c.8 0 .9 1.2 1 2.4s-.6 7.9-2.9 9zM29.6 54c-1.5 2-3.8 5.2-3.9 6.2a4.3 4.3 0 0 0 .6 2.8.9.9 0 0 0 .6.3h.5c1.4-.7 2.4-5.4 2.3-8 0-.7-.1-1-.1-1.3zm25 3.2a.6.6 0 0 1-.6-.5.6.6 0 0 1 .4-.7c1.7-.4 4.7-1.4 5.3-2.2a.8.8 0 0 1 .9-.1.7.7 0 0 1 .1.9c-1.2 1.4-5.5 2.4-6 2.5a.1.1 0 0 1-.1.1z" fill="#febf10" stroke="#000" stroke-linecap="round" stroke-linejoin="round" stroke-width=".4"/>
  <path d="M55 37.1s1.9-.2 1.9 3.3l-.8 1-2-1.1z" fill="#856353" stroke="#000" stroke-linecap="round" stroke-linejoin="round" stroke-width=".4"/>
  <path d="M53.8 36.7s2.2 0 2.1 3.3l-.7 1.1-2.7-1.5z" fill="#856353" stroke="#000" stroke-linecap="round" stroke-linejoin="round" stroke-width=".4"/>
  <path d="M50 36.4s4.2-2.4 4.7 3l-1.3 1-3.8-2.5zm8 4.8a2 2 0 0 0 2.2-.6s.2 1.2-1.6 1.9" fill="#856353" stroke="#000" stroke-linecap="round" stroke-linejoin="round" stroke-width=".4"/>
  <path d="M49.9 37.2s-.4-4.6-6.7-5.8c0 0 1.1 4.4 2.5 6.2s4.2-.4 4.2-.4z" fill="#a77e6a" stroke="#000" stroke-linecap="round" stroke-linejoin="round" stroke-width=".4"/>
  <path d="M64.8 57.6a.5.5 0 0 0-.8.2.5.5 0 0 0 .2.8 2.8 2.8 0 0 1 .8.8 1.2 1.2 0 0 0-.7-.2.7.7 0 0 0-.6.7.6.6 0 0 0 .6.5c.1 0 .2.2.2.5l-.7.5c-.6.4-1.1.7-1.3 1.3a.6.6 0 0 0 .4.7c0 .1.1.1.2.1s.5-.2.5-.4.5-.4.8-.7a3.6 3.6 0 0 0 1.8-1.7c.7-1.4-.6-2.7-1.4-3.1z" fill="#febf10" stroke="#000" stroke-linecap="round" stroke-linejoin="round" stroke-width=".4"/>
  <path d="M67.1 55.7c1.6-.5 1.4-3.9 1.4-3.9a2.3 2.3 0 0 0-1.4-3.1l-4-3.1a54.5 54.5 0 0 0-4.5-3.1s0-1.3-2.9-2.5a52.5 52.5 0 0 1-5.2-2.8c-.8-.3-8.2-1.1-10 2.7s-1.7 2.8-3 10.9a63.1 63.1 0 0 1-4.7 15 24.8 24.8 0 0 0-.5 4.4l27.2-.2c.3-1.6-.9-5.9-1.8-7.8s-5-9.2-5-9.2a5.6 5.6 0 0 0 1.9.4 24.4 24.4 0 0 1 5.7 1.6 8.5 8.5 0 0 1 1.7 1.9c0 .2.2 1.5 1.3 1.7a1.5 1.5 0 0 0 1.5-.8.2.2 0 0 1 .2-.2h.3c.9 0 1.9-.3 1.9-1.8z" fill="#a77e6a"/>
  <path d="M49.5 51.4s4.5 3.2 4.3 18.5h5.7a25.3 25.3 0 0 0-3.5-11l-3.4-5.8zm-.7-5.3s6.8 6.3 11 6.6l.2 1.4h-2.4l-1.8-.6-2.8-.4-3.7-2.7-1.2-4.3z" fill="#856353"/>
  <path d="M32.3 70.2a24.8 24.8 0 0 1 .5-4.4 63.1 63.1 0 0 0 4.7-15c1.3-8.1 1.3-7 3-10.9.7-1.5 2.3-2.3 4.1-2.7v.5s-3.6 2.3-3 5.8 2.1 4.1 3 7.5 1.3 5.3 3.7 6.2 4.2 3.4 4 5.3 0 2-.5 3.1.3 4.5.3 4.5z" fill="#856353"/>
  <path d="M36.8 58.3l2.4 1.5" fill="red"/>
  <path d="M44.5 37.7s-3.6 2.3-3 5.8 2.1 4.1 3 7.5 1.3 5.3 3.7 6.2 4.2 3.4 4 5.3.4 2.9-.1 3.9S52 70 52 70" fill="none" stroke="#000" stroke-linecap="round" stroke-linejoin="round" stroke-width=".4"/>
  <path d="M39.6 41.9a3.4 3.4 0 0 0 .1 2.2c.6 3.4 2 4.1 2.9 7.4s1.3 5.4 3.7 6.2 4.2 3.5 4.1 5.3" fill="none" stroke="#000" stroke-linecap="round" stroke-linejoin="round" stroke-width=".4"/>
  <path d="M38.3 46c.7 2.5 1.9 3.4 2.7 6.3s1.3 5.4 3.7 6.2a7.2 7.2 0 0 1 3.7 3.6" fill="none" stroke="#000" stroke-linecap="round" stroke-linejoin="round" stroke-width=".4"/>
  <path d="M37.8 49.2a11.4 11.4 0 0 1 1.6 3.8c.9 3.3 1.3 5.3 3.7 6.2a7.7 7.7 0 0 1 3.3 2.6" fill="none" stroke="#000" stroke-linecap="round" stroke-linejoin="round" stroke-width=".4"/>
  <path d="M37.3 52.3l.3 1.1c.9 3.3 1.3 5.3 3.7 6.2a6.8 6.8 0 0 1 2.6 1.8" fill="none" stroke="#000" stroke-linecap="round" stroke-linejoin="round" stroke-width=".4"/>
  <path d="M32 27.9a4.2 4.2 0 0 1-.3-2.9 4 4 0 0 0 .1-2.2 3.5 3.5 0 0 0-3.5-2.3c-2.7 0-6.2 2.2-6.5 5.3a57.2 57.2 0 0 0 .6 8.7l4.7 2 1.1-1.9.2-1.3a2.5 2.5 0 0 0 1.7-.2c1.9-.9 2-4.7 1.9-5.2z" fill="#f3bc84"/>
  <path d="M26.2 32.6s-.7 2.8-.9 3.2 2.1.6 2.1.6l.7-1.7.2-1.4zM30 21.9s.8 4.1.5 5.5-1.1 4.7-.7 5.8a2.8 2.8 0 0 0 1.8-2.2 9.3 9.3 0 0 0 .2-3.6l-.3-1.5.4-1.7-.2-1.2-1.2-1z" fill="#c69c6d"/>
  <path d="M21 33.3l-3 1.9a31.2 31.2 0 0 0-3.7 3l1.5 2 1.7.8.8 1.2 1.7.4 1.4.8h1.7l1.3 1 2-.5 1.4.6s.5-5.8-.7-8.1c0 0-4.5-1.2-6.1-3.1z" fill="#f2f2f2" stroke="#000" stroke-linecap="round" stroke-linejoin="round" stroke-width=".4"/>
  <path d="M28.3 34.1a6 6 0 0 1-1.2 2.3 61.9 61.9 0 0 1 3.3 7h1.1l.9-1s1.3-.2 1.3-.4.1-.9.1-.9l1-.5.2-1 .8-1.5s-5.6-3.6-7.5-4z" fill="#f2f2f2" stroke="#000" stroke-linecap="round" stroke-linejoin="round" stroke-width=".4"/>
  <path d="M16.1 36.7a12.6 12.6 0 0 0 11.8 4.9m5.9-4.7s-.6 3.7-4 4.7m-3-5.2l-.4 5.3m.7-5.3l4 4.5m-15.8-2.6l.8-.1-.1 1m1 .5l.8-.2v1m.9.6l.8-.3.1 1m1.3.5l.7-.5.4.9" fill="none" stroke="#000" stroke-linecap="round" stroke-linejoin="round" stroke-width=".4"/>
  <path d="M18.4 44.5a23.6 23.6 0 0 1-2.3 5.1c-1.6 2.5-1.5 8.3.2 10.9l2-.4-1.3-3.5v-1.8l1.7-2.6.5-2.7-.4-2.6-.2-2.7z" fill="#004da1"/>
  <path fill="none" stroke="#000" stroke-linecap="round" stroke-linejoin="round" stroke-width=".4" d="M23.5 43l.6-.6.5.8m1.2.1l.5-.7.7.8m3.9-.9l.2-.6.7.3m.4-.6l.1-.7.8.2m.3-.8l-.1-.7.8.1m.1-.5l-.1-.7h.8m-20.6-.3s-4.6 3.4-5.2 12.6 3.7 13 3.7 13l5.5-3.4s-2-3.6-1-5.6 2.5-3.6 1.8-7.1a14.8 14.8 0 0 1-.3-5.4M17.2 55s-2.1.2-2.6 1.8m4.7-6a6.2 6.2 0 0 0 3.7 3m-4.9-.2a8.7 8.7 0 0 0 2.7.7m6.5-17.4s4.6 12.7 2.8 21.3M35.3 39s3.2 1.9 3.7 4.2m-2.4-1.4a2.6 2.6 0 0 1-.5 2.3l.5 8.5"/>
  <path d="M31.8 51.4c-2 .8-2.7.8-2 1.7v.2a1 1 0 0 0-.5.8l.5-.4v.2c-.5.2-.9.4-.9.8s.4.5.9.5h-.4a1.3 1.3 0 0 0 .4 1.1s-.8 1 1.2 1l5 .2.8-3.7s-3-3.3-5-2.4z" fill="#f3bc84"/>
  <path d="M36.8 53.9s-3-3.4-5-2.5-2.7.8-2 1.7" fill="none" stroke="#000" stroke-linecap="round" stroke-linejoin="round" stroke-width=".4"/>
  <path d="M29.3 54.1c.2-1.2 2.6-1.5 2.6-1.5a9.3 9.3 0 0 1 3.1 0" fill="none" stroke="#000" stroke-linecap="round" stroke-linejoin="round" stroke-width=".4"/>
  <path d="M31.1 53.8s-2.2 0-2.2.9 2.4.2 2.7.2m-2.2.3s-.3 1.5 1.7 1.3" fill="none" stroke="#000" stroke-linecap="round" stroke-linejoin="round" stroke-width=".4"/>
  <path d="M29.8 56.4s-.8 1 1.2 1l5.5.3" fill="none" stroke="#000" stroke-linecap="round" stroke-linejoin="round" stroke-width=".4"/>
  <path d="M48.4 36.8s-1.4-3.4-6.3-4c0 0-.2 2 2 4.4" fill="#a77e6a" stroke="#000" stroke-linecap="round" stroke-linejoin="round" stroke-width=".4"/>
  <path d="M48.7 66.4a13.3 13.3 0 0 1-.4 3.4m2.1-3.7a13.9 13.9 0 0 1-.3 3.7M46.2 65a17.5 17.5 0 0 1-.2 4.9M44.1 65a15.3 15.3 0 0 1-.3 4.9M42 63.8a26.9 26.9 0 0 1-.2 6.1M39.9 65a15.3 15.3 0 0 1-.3 4.9m-2.1-6.2s.4 4.3-.1 6.2m-2.6-8.5s1.1 5.7.4 8.5" fill="none" stroke="#000" stroke-linecap="round" stroke-linejoin="round" stroke-width=".4"/>
  <path d="M45.9 36.9s-1.8-2.8-2.7-3.3-.2 1.2 1.4 3.6" fill="#856353" stroke="#000" stroke-linecap="round" stroke-linejoin="round" stroke-width=".4"/>
  <path d="M32.3 70a23.2 23.2 0 0 1 .5-4.2 63.1 63.1 0 0 0 4.7-15c1.3-8.1 1.3-7 3-10.9s9.2-3 10-2.7a52.5 52.5 0 0 0 5.2 2.8c2.9 1.2 2.9 2.5 2.9 2.5a54.5 54.5 0 0 1 4.5 3.1l4 3.1a2.3 2.3 0 0 1 1.4 3.1s.2 3.7-1.5 3.9a1.8 1.8 0 0 1-1.2-.3c-3-1.5-3-2-4-1.6" fill="none" stroke="#000" stroke-linecap="round" stroke-linejoin="round" stroke-width=".4"/>
  <path d="M61.4 55s2.5 2.5 3.6 2.6 2.2-.2 2.2-1.8m-17-14s2.8-1.8 4.3.8" fill="none" stroke="#000" stroke-linecap="round" stroke-linejoin="round" stroke-width=".4"/>
  <path d="M65 57.6s-.7 1.2-1.7 1-1.3-1.5-1.3-1.7a8.5 8.5 0 0 0-1.7-1.9 24.4 24.4 0 0 0-5.7-1.6 5.6 5.6 0 0 1-1.9-.4s4.1 7.3 5 9.2 2.1 6.2 1.8 7.8" fill="none" stroke="#000" stroke-linecap="round" stroke-linejoin="round" stroke-width=".4"/>
  <path d="M40.2 60.3l2.2 1-1.2 1.3-1.2 1a2.4 2.4 0 0 1 0-1.2l.2-2.1m2.9 1.3l2.8 1a8.3 8.3 0 0 1-2.4 2.6A7.6 7.6 0 0 1 43 62zm18.2.7a1.6 1.6 0 0 1 .9.5h.1c.1.1.1.2.1.4a5.7 5.7 0 0 1-.4 2.2 1.8 1.8 0 0 1-.5-.7l-1-2.3.8-.3m-2.2 4.4a20.7 20.7 0 0 1-1.5-3.3l2.2-.5s-.2 3-.7 3.8zm-12-3.6l2.6.5a6.6 6.6 0 0 1-1.8 2.9 7.7 7.7 0 0 1-.8-3.4m10 .4s-.9 3.1-1.5 3.7-1.4-3.4-1.4-3.4l2.9-.3m-6.3.2h2.7s-.6 2.8-1.4 3.5a9.7 9.7 0 0 1-1.3-3.6m-14-5.1l2.4 1.5a25.2 25.2 0 0 1-1.8 2.7 11.8 11.8 0 0 1-.6-4.2" fill="red"/>
  <path d="M36.8 58.3l2.4 1.5a25.2 25.2 0 0 1-1.8 2.7 11.8 11.8 0 0 1-.6-4.2m3.4 2l2.2 1-1.2 1.3-1.2 1a2.4 2.4 0 0 1 0-1.2l.2-2.1m2.9 1.3l2.8 1a8.3 8.3 0 0 1-2.4 2.6A7.6 7.6 0 0 1 43 62zm18.2.7a1.6 1.6 0 0 1 .9.5h.1c.1.1.1.2.1.4a5.7 5.7 0 0 1-.4 2.2 1.8 1.8 0 0 1-.5-.7l-1-2.3.8-.3m-2.2 4.2a20.7 20.7 0 0 1-1.5-3.3l2.2-.5s-.2 3.2-.7 4zm-12-3.6l2.6.5a6.6 6.6 0 0 1-1.8 2.9 7.7 7.7 0 0 1-.8-3.4m10 .4s-.9 3.1-1.5 3.7-1.4-3.4-1.4-3.4l2.9-.3m-6.3.2h2.7s-.6 2.8-1.4 3.5a9.7 9.7 0 0 1-1.3-3.6M32 52.7c.1 1.1 1.8 3.4 3.1 4.4a2.7 2.7 0 0 1 .8 2.1c-.3 1.7 1 4.6 1 4.6a4.1 4.1 0 0 0 2.1-1.5 5.1 5.1 0 0 0 .5 2.8 7.9 7.9 0 0 0 2.4-1.8 8.8 8.8 0 0 0 1.1 3.3 8.1 8.1 0 0 0 3.2-2.5 7.7 7.7 0 0 0 1.5 3.7 8.3 8.3 0 0 0 2.4-2.7 7.3 7.3 0 0 0 1.8 3.4 4.1 4.1 0 0 0 1.9-2.4 5.9 5.9 0 0 0 1.9 2.4 10.7 10.7 0 0 0 1.7-2.8 8.3 8.3 0 0 0 1.9 2.4 6.9 6.9 0 0 0 1.3-2.7 5.7 5.7 0 0 0 1.7 1.8 7.8 7.8 0 0 0 1.1-3.9 1.9 1.9 0 0 0-.2-.8q-.2-.3-.3-.3a2.8 2.8 0 0 0-1.8-.9 26.2 26.2 0 0 1-8 1.3c-12.9 0-21.1-9.9-21.1-9.9z" fill="#0065b7" stroke="#000" stroke-linecap="round" stroke-linejoin="round" stroke-width=".4"/>
  <path d="M50 56.1a43.3 43.3 0 0 1-5.9-.5 77.4 77.4 0 0 1-9.2-3.1s7.5 2 9.9 2.3 9.1 1.2 14.9-1.7c.3-.2.6 0 .8.3a.7.7 0 0 1-.3.8c-3 1.5-6.9 1.9-10.2 1.9z" fill="#febf10" stroke="#000" stroke-linecap="round" stroke-linejoin="round" stroke-width=".4"/>
  <path d="M63.6 59.6a6.6 6.6 0 0 0-2.1-1.8 6.4 6.4 0 0 1-2-1.6 1.2 1.2 0 0 1 .1-1.3.5.5 0 0 0 .5.3h.1a.5.5 0 0 0 .5-.6v-4.7a1 1 0 0 0-.5-.6h-.4c-4.8-.9-10.7-6-12.3-7.4a5.9 5.9 0 0 0-.4-.8c.8-1.4 3.1-2.7 4-3.1s.5-.5.3-.8a.6.6 0 0 0-.8-.3 11.5 11.5 0 0 0-4.1 3 33 33 0 0 0-1.8-3 .6.6 0 0 0-.9-.1.6.6 0 0 0-.1.8 24.7 24.7 0 0 1 2.1 3.6c0 .2.1.3.3.4v.2a.5.5 0 0 0 .2.6c0 .1.1.1.2.2a14 14 0 0 1 .9 2.9c1 4.5 2 6.7 5.2 8.1h.2a.6.6 0 0 0 .6-.4.6.6 0 0 0-.4-.8c-2.4-1-3.4-2.6-4.4-7.2l-.3-1c2.6 2.1 7.2 5.5 11.2 6.2v3.1c-.1 0-.2 0-.2.1a2.5 2.5 0 0 0-.8 3.3 8 8 0 0 0 2.4 2 8.2 8.2 0 0 1 1.6 1.2 1.3 1.3 0 0 1-.1.6 3.3 3.3 0 0 0-1.4-.5.5.5 0 0 0-.7.5.6.6 0 0 0 .5.6l.9.4a.5.5 0 0 0 0 .7l.4.2h.4c.2-.3 1.7-1.6 1.1-3z" fill="#febf10" stroke="#000" stroke-linecap="round" stroke-linejoin="round" stroke-width=".4"/>
  <path d="M65.3 53.6s1.1-.1.5-.7a.9.9 0 0 1 .5-1.4c.4 0 1 .4.8 1.4s-1.8.7-1.8.7z" fill="#856353" stroke="#000" stroke-linecap="round" stroke-linejoin="round" stroke-width=".4"/>
  <path d="M50.5 42.8a3.2 3.2 0 0 1 3.3.3" fill="none" stroke="#000" stroke-linecap="round" stroke-linejoin="round" stroke-width=".3"/>
  <path d="M51.1 43.3a6.3 6.3 0 0 0 2.4.8 1.8 1.8 0 0 0 1.2-.3 2.6 2.6 0 0 0-1.8-.9 2.8 2.8 0 0 0-1.8.4z" fill="#fff"/>
  <path d="M51.1 43.3a4.1 4.1 0 0 1 2.3-.3 3.4 3.4 0 0 1 1.4.8 2.2 2.2 0 0 1-1.6.3 14.7 14.7 0 0 1-2.5-.8" fill="none" stroke="#000" stroke-linecap="round" stroke-linejoin="round" stroke-width=".3"/>
  <ellipse cx="53.3" cy="43.6" rx=".6" ry=".7" transform="rotate(-80.7 53.29 43.55)"/>
  <circle cx="53.5" cy="43.4" r=".2" fill="#fff"/>
  <circle cx="46.4" cy="41.3" r="1.8" fill="#febf10" stroke="#000" stroke-linecap="round" stroke-linejoin="round" stroke-width=".4"/>
  <path fill="red" d="M46.4 40.2l.3.6.7.1-.5.5.1.7-.6-.3-.6.3.1-.7-.5-.5.7-.1.3-.6z"/>
  <circle cx="59.6" cy="50" r="1.3" fill="#febf10" stroke="#000" stroke-linecap="round" stroke-linejoin="round" stroke-width=".4"/>
  <circle cx="59.6" cy="50" r=".6" fill="red" stroke="#000" stroke-linecap="round" stroke-linejoin="round" stroke-width=".4"/>
  <path fill="none" stroke="#000" stroke-linecap="round" stroke-linejoin="round" stroke-width=".4" d="M48.69 44.6l.72-.97 1.52 1.15-.72.96zm4.41.6a3.4 3.4 0 0 0 2.7 1.3"/>
  <path fill="#febf10" stroke="#000" stroke-linecap="round" stroke-linejoin="round" stroke-width=".4" d="M31.25 60.7l1.27 1.14-1.66 1.86-1.27-1.13z"/>
  <path d="M24.2 15.9l.6-.6s-4.8-3.5-9.1.4.2 6.9.2 6.9l10.5-2.8 5.2-4.5a5.3 5.3 0 0 0-7.4.6z" fill="#febf10"/>
  <path d="M21.3 14s-4.8 2.1-1.4 6.2l-4.3 2.6s-2.9-3.2-.9-6.2 6.6-2.6 6.6-2.6z" fill="#d09b07"/>
  <path d="M28.5 16.8s5.2-3.7 10 0 2.4 8.9-.2 9.4-4.3-1.5-5-5.3-3.3-3.1-3.3-3.1" fill="#0065b7"/>
  <path d="M29 17.8s2.6-1.7 4.6.3 2.7 8 5.9 7.2a3 3 0 0 1-3.9.4s-1.8-1.8-1.8-2.8a18.5 18.5 0 0 0-.8-3.5s-1.9-2.5-4-1.6z" fill="#004da1"/>
  <path fill="#febf10" stroke="#000" stroke-linecap="round" stroke-linejoin="round" stroke-width=".4" d="M29.98 62.78l.67.6-3.62 4.05-.67-.6z"/>
  <path d="M28.5 16.8s5.2-3.7 10 0 2.4 8.9-.2 9.4-4.3-1.5-5-5.3-3.3-3.1-3.3-3.1" fill="none" stroke="#000" stroke-linecap="round" stroke-linejoin="round" stroke-width=".4"/>
  <path d="M18.4 70a5.6 5.6 0 0 1-1.4-.7c-.5-.4-4.9-5.1-4.9-5.1 3-5.1 7-3.8 7-3.8s1.8 3 1.9 4.9c0 0 .9-.4 1 1.7a5 5 0 0 1 4.6-.6c1.1.8 1.5 3.6 1.5 3.6" fill="#c69c6d"/>
  <path d="M19.1 60.4l1.3 2.7.6 2.2.6.2.4 1.6 2-1 2.2.2 1 .7.8 2.5v.6h-5.7a5.2 5.2 0 0 0-1.3-2.3c-.9-.6-4.4-5.8-5-7.1a8.1 8.1 0 0 1 3.1-.3z" fill="#a67c52"/>
  <path d="M18.4 70a5.6 5.6 0 0 1-1.4-.7c-.5-.4-4.9-5.1-4.9-5.1 3-5.1 7-3.8 7-3.8s1.8 3 1.9 4.9c0 0 .9-.4 1 1.7a5 5 0 0 1 4.6-.6c1.1.8 1.5 3.6 1.5 3.6m-2.7-1.8a5.3 5.3 0 0 1 2.1 1.8m-7.7-4.2l1.2-.5" fill="none" stroke="#000" stroke-linecap="round" stroke-linejoin="round" stroke-width=".4"/>
  <circle cx="27.1" cy="36.5" r=".8" fill="red" stroke="#000" stroke-linecap="round" stroke-linejoin="round" stroke-width=".4"/>
  <path d="M31.6 15.3a5.3 5.3 0 0 0-7.4.6m.6-.6s-4.8-3.5-9.1.4.2 6.9.2 6.9" fill="none" stroke="#000" stroke-linecap="round" stroke-linejoin="round" stroke-width=".4"/>
  <path d="M24.7 24.9a2.3 2.3 0 0 1 3.4 0m3.6-1.1s-2.3-.2-2.5 1.6a3.7 3.7 0 0 0 .8 2.7c.1.3-.4 1-.4 1m-1.2-.7s-.4.5-.1.7a1.1 1.1 0 0 0 .9-.2h.1m-.1.4v-.4m.6.1l.2.2" fill="none" stroke="#000" stroke-linecap="round" stroke-linejoin="round" stroke-width=".3"/>
  <path d="M29.6 29.9a.2.2 0 0 0-.3.1l-.3-.2c-.2 0-1.1.8-1.1.8l2.5-.2-2.5.2s1.7 1.5 2.7-.2a4.6 4.6 0 0 0-1-.5z" fill="red"/>
  <path d="M27.5 30.5a10.9 10.9 0 0 0 3.3-.3m-2.9.4s1.7 1.5 2.7-.2" fill="none" stroke="#000" stroke-linecap="round" stroke-linejoin="round" stroke-width=".3"/>
  <path d="M30.5 30.2l-.9-.3a.2.2 0 0 0-.3.1l-.3-.2a5.2 5.2 0 0 0-1.1.7" fill="none" stroke="#000" stroke-linecap="round" stroke-linejoin="round" stroke-width=".3"/>
  <path d="M18.4 34.5a.6.6 0 0 1-.3-.8 8.9 8.9 0 0 0 .2-3.9 5.7 5.7 0 0 1 0-2.9c.5-2.5 1.9-3.4 2-3.4a.6.6 0 0 1 .9.1.7.7 0 0 1-.1 1c-.1 0-1 .7-1.5 2.6a6.5 6.5 0 0 0 0 2.4 8.8 8.8 0 0 1-.2 4.5.7.7 0 0 1-.9.5z" fill="#856353" stroke="#000" stroke-linecap="round" stroke-linejoin="round" stroke-width=".4"/>
  <path d="M20.2 34.7a.7.7 0 0 1-.5-.7 7.8 7.8 0 0 0-.7-3.8 7.7 7.7 0 0 1-.7-2.8 5.6 5.6 0 0 1 1.2-3.9.9.9 0 0 1 1 0 .8.8 0 0 1 0 1 4.5 4.5 0 0 0-.8 2.9 6 6 0 0 0 .6 2.3 9.5 9.5 0 0 1 .8 4.4.7.7 0 0 1-.7.7z" fill="#856353" stroke="#000" stroke-linecap="round" stroke-linejoin="round" stroke-width=".4"/>
  <path d="M21.4 34.6a.8.8 0 0 1-.5-.7 8.2 8.2 0 0 0-.7-3.9 7.2 7.2 0 0 1-.7-2.8c0-2.5 1.1-3.8 1.2-3.8a.7.7 0 0 1 1 0 .6.6 0 0 1 0 .9 5.3 5.3 0 0 0-.8 2.9 5.6 5.6 0 0 0 .6 2.3 10 10 0 0 1 .8 4.5c0 .4-.3.6-.7.6z" fill="#856353" stroke="#000" stroke-linecap="round" stroke-linejoin="round" stroke-width=".4"/>
  <path d="M22.6 34.1a.8.8 0 0 1-.5-.7 8.2 8.2 0 0 0-.7-3.9 5.7 5.7 0 0 1-.7-2.7 6.7 6.7 0 0 1 1.1-3.9.7.7 0 0 1 1 0 .6.6 0 0 1 .1.9 4.4 4.4 0 0 0-.8 2.9 5.6 5.6 0 0 0 .5 2.3 8.7 8.7 0 0 1 .9 4.5.6.6 0 0 1-.8.6z" fill="#856353" stroke="#000" stroke-linecap="round" stroke-linejoin="round" stroke-width=".4"/>
  <path d="M23.6 33.9a.8.8 0 0 1-.5-.7 8 8 0 0 0-.7-3.9 7.2 7.2 0 0 1-.7-2.8 5.8 5.8 0 0 1 1.2-3.8c.3-.3 1.4-.8 1.7-.5s-.3.8-.7 1.4a5.3 5.3 0 0 0-.8 2.9 6 6 0 0 0 .6 2.3 10 10 0 0 1 .8 4.5.7.7 0 0 1-.7.6z" fill="#856353" stroke="#000" stroke-linecap="round" stroke-linejoin="round" stroke-width=".4"/>
  <path d="M25.3 26a2.9 2.9 0 0 0 1.6.5 1.6 1.6 0 0 0 .9-.5 1.6 1.6 0 0 0-1.4-.5c-.9.1-1.1.5-1.1.5z" fill="#fff"/>
  <path d="M25.5 25.8a2 2 0 0 1 1.1-.2 2.6 2.6 0 0 1 1.3.4 2.3 2.3 0 0 1-1.3.5 2.1 2.1 0 0 1-1.3-.6m2.6 0a1.6 1.6 0 0 0-2.6 0" fill="none" stroke="#000" stroke-linecap="round" stroke-linejoin="round" stroke-width=".3"/>
  <ellipse cx="26.7" cy="26" rx=".5" ry=".6" transform="rotate(-89.9 26.75 26)"/>
  <circle cx="26.9" cy="25.8" r=".2" fill="#fff"/>
  <path d="M29.2 26.1a2.1 2.1 0 0 0 1.6.2 1.4 1.4 0 0 0 .9-.6 1.6 1.6 0 0 0-1.5-.2 1.5 1.5 0 0 0-1 .6z" fill="#fff"/>
  <path d="M29.4 25.9l1-.4a3.1 3.1 0 0 1 1.2.3 2.4 2.4 0 0 1-1.1.6 1.9 1.9 0 0 1-1.3-.4m2.4-.3a1.4 1.4 0 0 0-2.4.3" fill="none" stroke="#000" stroke-linecap="round" stroke-linejoin="round" stroke-width=".3"/>
  <ellipse cx="30.5" cy="25.9" rx=".6" ry=".5" transform="rotate(-7.1 30.74 26.18)"/>
  <ellipse cx="30.7" cy="25.7" rx=".2" ry=".2" transform="rotate(-7.1 30.79 25.37)" fill="#fff"/>
  <path d="M31.7 23a3 3 0 0 1 0 2.1 4.3 4.3 0 0 0 .3 2.7c.2.5 0 4.4-1.9 5.3s-4.7-1.2-4.7-1.2" fill="none" stroke="#000" stroke-linecap="round" stroke-linejoin="round" stroke-width=".4"/>
  <path d="M29.5 29.1a.9.9 0 0 0-1.2 0c-.7.5-.6 1.1-1.5.9s.7 1 2.3.1l.4-.2a1.9 1.9 0 0 0 1.8.1 1.2 1.2 0 0 1-.8-.5c-.2-.4-.5-.8-1-.4z" fill="#856353" stroke="#000" stroke-linecap="round" stroke-linejoin="round" stroke-width=".3"/>
  <path d="M31.7 23.1s-1.9-3.2-6.2-1-6.6 4-8.1 4-4.1-1.7-1.5-3.5 7.7-4 9.6-5.3 3.4-.5 4.5.5 3 1.5 3.4 2.4-.2 2.2-1.7 2.9z" fill="red"/>
  <path d="M15.1 23.4s3.5.7 6-.6 6.7-2.5 7.9-1.5a11.6 11.6 0 0 0-5.1 1.5l-4.8 2.8a5 5 0 0 1-1.9.5c-.6-.1-2.9-.6-2.1-2.7z" fill="#980805"/>
  <path d="M31.7 23.1s-1.9-3.2-6.2-1-6.6 4-8.1 4-4.1-1.7-1.5-3.5 7.7-4 9.6-5.3 3.4-.5 4.5.5 3 1.5 3.4 2.4-.2 2.2-1.7 2.9z" fill="none" stroke="#000" stroke-linecap="round" stroke-linejoin="round" stroke-width=".4"/>
  <path fill="#f2f2f2" stroke="#000" stroke-linecap="round" stroke-linejoin="round" stroke-width=".4" d="M28.4 33.3l-.1.8"/>
  <path d="M29.3 17.2a5.8 5.8 0 0 1 7.5 1.6m-14.1-8.2s-2.7.7-.8 3.3" fill="none" stroke="#000" stroke-linecap="round" stroke-linejoin="round" stroke-width=".4"/>
  <path d="M60.5 26v.8a4 4 0 0 0 3.4 2.7c.4.1.1.9-.6 1.2v.8H55v-.7c-1-.1-1.4-1.2-.9-1.3a3.8 3.8 0 0 0 3.3-2.7V26h.9v.8c-.2.7 0 1.1.2-.3h1c.1 1.4.3 1 .1.3V26z" fill="#325723"/>
  <path d="M59.6 26v.8c.3 1.1 1 3.5 2.6 4s2.2-1.2 1.7-1.3a4 4 0 0 1-3.4-2.7V26zm-2.2 0v.8a3.8 3.8 0 0 1-3.3 2.7c-.6.1 0 1.7 1.6 1.3s2.3-2.9 2.6-4V26z" fill="#3c6d3d" stroke="#000" stroke-linecap="round" stroke-linejoin="round" stroke-width=".24"/>
  <path d="M59.6 26v.8c.3 1.1 1 3.5 2.6 4s2.2-1.2 1.7-1.3a4 4 0 0 1-3.4-2.7V26zm-2.2 0v.8a3.8 3.8 0 0 1-3.3 2.7c-.6.1 0 1.7 1.6 1.3s2.3-2.9 2.6-4V26z" fill="#325723" stroke="#000" stroke-linecap="round" stroke-linejoin="round" stroke-width=".41"/>
  <path d="M59.5 26.5c.2 1.6 1.2 2.5 1 3.7s-.7.8-1.5.8-1.5-.3-1.6-.8.9-2.1 1.1-3.7h1z" fill="none" stroke="#000" stroke-linecap="round" stroke-linejoin="round" stroke-width=".41"/>
  <path d="M59.2 26.8c.1 1.2.6 1.9.5 2.8s-.3.6-.7.6-.8-.2-.8-.6.4-1.6.5-2.8h.5z" fill="#0d3a12" stroke="#000" stroke-linecap="round" stroke-linejoin="round" stroke-width=".41"/>
  <path d="M61.9 30.7h-1.8m1.3-.4h-.9" fill="none" stroke="#000" stroke-linecap="round" stroke-linejoin="round" stroke-width=".41"/>
  <path d="M64 31.3H53.9v2.1l5.1.6 5-.6z" fill="#d09b07" stroke="#000" stroke-linecap="round" stroke-linejoin="round" stroke-width=".41"/>
  <circle cx="63.3" cy="32.3" r=".6" fill="#febf10" stroke="#000" stroke-linecap="round" stroke-linejoin="round" stroke-width=".3"/>
  <circle cx="63.3" cy="32.3" r=".2"/>
  <circle cx="62.1" cy="32.5" r=".6" fill="#febf10" stroke="#000" stroke-linecap="round" stroke-linejoin="round" stroke-width=".3"/>
  <circle cx="62.1" cy="32.5" r=".2"/>
  <circle cx="60.8" cy="32.6" r=".6" fill="#febf10" stroke="#000" stroke-linecap="round" stroke-linejoin="round" stroke-width=".3"/>
  <circle cx="60.8" cy="32.6" r=".2"/>
  <circle cx="59.5" cy="32.6" r=".6" fill="#febf10" stroke="#000" stroke-linecap="round" stroke-linejoin="round" stroke-width=".3"/>
  <circle cx="59.5" cy="32.6" r=".2"/>
  <circle cx="58.3" cy="32.6" r=".6" fill="#febf10" stroke="#000" stroke-linecap="round" stroke-linejoin="round" stroke-width=".3"/>
  <circle cx="58.3" cy="32.6" r=".2"/>
  <circle cx="57" cy="32.6" r=".6" fill="#febf10" stroke="#000" stroke-linecap="round" stroke-linejoin="round" stroke-width=".3"/>
  <circle cx="57" cy="32.6" r=".2"/>
  <circle cx="55.7" cy="32.4" r=".6" fill="#febf10" stroke="#000" stroke-linecap="round" stroke-linejoin="round" stroke-width=".3"/>
  <circle cx="55.7" cy="32.4" r=".2"/>
  <circle cx="54.6" cy="32.3" r=".6" fill="#febf10" stroke="#000" stroke-linecap="round" stroke-linejoin="round" stroke-width=".3"/>
  <circle cx="54.6" cy="32.3" r=".2"/>
  <path d="M58.6 24.7a1.4 1.4 0 0 0-1.2 1.1c-.1.4.4.9.8.7a.9.9 0 0 0 1.4.2c.1-.2.2-.2.3-.2s.7-.4.6-.8a1.4 1.4 0 0 0-1.4-1zm1.6.4c.4.3.4.8.4 1.3a.4.4 0 0 0 .8.1c.2-.2.4.2.6.2s.4-.5.3-.8a2.2 2.2 0 0 0-1.9-1c-.1 0-.3 0-.2.2zm-2.5-.2a1.9 1.9 0 0 0-2 1c-.1.2-.2.7.1.8s.5-.3.7-.2a.5.5 0 0 0 .7.1c.2-.4.1-.8.2-1.1s.4-.4.3-.6z" fill="red" stroke="#000" stroke-linecap="round" stroke-linejoin="round" stroke-width=".41"/>
  <path d="M64 32.9a.6.6 0 0 1 .6.6.6.6 0 0 1-.5.6 35.2 35.2 0 0 1-5.1.5 36.7 36.7 0 0 1-5.2-.5.6.6 0 0 1-.5-.6.6.6 0 0 1 .6-.6h.1a24.1 24.1 0 0 0 5 .5 23.8 23.8 0 0 0 4.9-.5z" fill="#febf10" stroke="#000" stroke-linecap="round" stroke-linejoin="round" stroke-width=".41"/>
  <path d="M56 30.7h1.8m-1.2-.4h.8m3.6-.5h-.5m-3.5.1h.4" fill="none" stroke="#000" stroke-linecap="round" stroke-linejoin="round" stroke-width=".41"/>
  <path d="M63.5 18.4a2.8 2.8 0 0 1 2.3 2.6 3.6 3.6 0 0 1-2.3 3.5 9.8 9.8 0 0 1-4.5.9 10 10 0 0 1-4.6-.9 3.6 3.6 0 0 1-2.2-3.5 2.8 2.8 0 0 1 2.2-2.6h9.1z" fill="#febf10"/>
  <path d="M61.7 18.5s1.7 5.1-3.5 6.9c0 .1 4.9.2 6.4-1.6s1.3-3.4.5-4.4a3.3 3.3 0 0 0-3.4-.9z" fill="#d09b07"/>
  <path d="M63.5 18.4a2.8 2.8 0 0 1 2.3 2.6 3.6 3.6 0 0 1-2.3 3.5 9.8 9.8 0 0 1-4.5.9 10 10 0 0 1-4.6-.9 3.6 3.6 0 0 1-2.2-3.5 2.8 2.8 0 0 1 2.2-2.6h9.1z" fill="none" stroke="#000" stroke-linecap="round" stroke-linejoin="round" stroke-width=".41"/>
  <path d="M64.5 16h-11v2.4l5.5.7 5.5-.7z" fill="#d09b07" stroke="#000" stroke-linecap="round" stroke-linejoin="round" stroke-width=".41"/>
  <path d="M61.9 17.8a2.2 2.2 0 0 0 1.4.4 2.2 2.2 0 0 0 1-.9 1.9 1.9 0 0 0-1.3-.4 2.1 2.1 0 0 0-1.1.9z" fill="#febf10" stroke="#000" stroke-linecap="round" stroke-linejoin="round" stroke-width=".3"/>
  <path fill="none" stroke="#000" stroke-linecap="round" stroke-linejoin="round" stroke-width=".3" d="M61.9 17.8l1.4-.3"/>
  <path d="M60.5 18.1a2.2 2.2 0 0 0 1.4.4c.6-.1 1-.9 1-.9a1.9 1.9 0 0 0-1.3-.4c-.6.1-1.1.9-1.1.9z" fill="#febf10" stroke="#000" stroke-linecap="round" stroke-linejoin="round" stroke-width=".3"/>
  <path fill="none" stroke="#000" stroke-linecap="round" stroke-linejoin="round" stroke-width=".3" d="M60.5 18.1l1.4-.3"/>
  <path d="M59 18a1.7 1.7 0 0 0 1.3.6c.6 0 1.1-.7 1.1-.7a1.8 1.8 0 0 0-1.2-.6 2.2 2.2 0 0 0-1.2.7z" fill="#febf10" stroke="#000" stroke-linecap="round" stroke-linejoin="round" stroke-width=".3"/>
  <path fill="none" stroke="#000" stroke-linecap="round" stroke-linejoin="round" stroke-width=".3" d="M59 18h1.3"/>
  <path d="M56 17.8a1.9 1.9 0 0 1-1.4.3 1.7 1.7 0 0 1-1-.8 1.5 1.5 0 0 1 1.3-.4 1.7 1.7 0 0 1 1.1.9z" fill="#febf10" stroke="#000" stroke-linecap="round" stroke-linejoin="round" stroke-width=".3"/>
  <path fill="none" stroke="#000" stroke-linecap="round" stroke-linejoin="round" stroke-width=".3" d="M56 17.8l-1.3-.3"/>
  <path d="M57.4 18s-.7.6-1.3.4a1.7 1.7 0 0 1-1.1-.8 1.9 1.9 0 0 1 1.3-.4 1.7 1.7 0 0 1 1.1.8z" fill="#febf10" stroke="#000" stroke-linecap="round" stroke-linejoin="round" stroke-width=".3"/>
  <path fill="none" stroke="#000" stroke-linecap="round" stroke-linejoin="round" stroke-width=".3" d="M57.4 18l-1.4-.2"/>
  <path d="M58.9 18a2.1 2.1 0 0 1-1.2.6 2.2 2.2 0 0 1-1.2-.7 2.1 2.1 0 0 1 1.2-.6 1.7 1.7 0 0 1 1.2.7z" fill="#febf10" stroke="#000" stroke-linecap="round" stroke-linejoin="round" stroke-width=".3"/>
  <path fill="none" stroke="#000" stroke-linecap="round" stroke-linejoin="round" stroke-width=".3" d="M58.9 18l-1.3-.1"/>
  <path d="M58 19.3h.2l2.1-2.3a.2.2 0 0 0 0-.3.2.2 0 0 0-.4 0l-2.1 2.1a.3.3 0 0 0 0 .4z" fill="#0065b7" stroke="#000" stroke-linecap="round" stroke-linejoin="round" stroke-width=".35"/>
  <path d="M60.1 19.4h.1a.3.3 0 0 0 0-.4l-1.9-2h-.4c-.1.2-.1.3 0 .4l1.9 2z" fill="#0065b7" stroke="#000" stroke-linecap="round" stroke-linejoin="round" stroke-width=".35"/>
  <path d="M51.3 14.4c0 1.6 3.5 2.8 7.7 2.8s7.6-1.2 7.6-2.8c0-1.5-3.4-2.8-7.6-2.8s-7.7 1.3-7.7 2.8z" fill="red"/>
  <path d="M64.5 13.8s-5.9 2.7-10.9-.1c-.1.1-.4-.1-.6.5s1.1 1.7 4.6 1.7 5.7-.3 6.5-.7 1.4-.8.4-1.4z" fill="#980805"/>
  <path d="M51.3 14.4c0 1.6 3.5 2.8 7.7 2.8s7.6-1.2 7.6-2.8c0-1.5-3.4-2.8-7.6-2.8s-7.7 1.3-7.7 2.8z" fill="none" stroke="#000" stroke-linecap="round" stroke-linejoin="round" stroke-width=".38"/>
  <path d="M53.5 13.8c-.3.2-.5.4-.5.6 0 .8 2.7 1.5 6 1.5s5.9-.7 5.9-1.5a.7.7 0 0 0-.4-.6" fill="none" stroke="#000" stroke-linecap="round" stroke-linejoin="round" stroke-width=".36"/>
  <path d="M65.4 20.6c.9 0 .5 5.1-6.4 4.8h-.1c-6.8.3-7.3-4.8-6.4-4.8h.1a.5.5 0 0 1 .3.5c.1-.2.2-.3.4-.2s.4.3.5.7.2-.6.5-.5.4.4.6.8a.5.5 0 0 1 .6-.6.7.7 0 0 1 .8.6.7.7 0 0 1 .7-.6 1 1 0 0 1 1 .9c.1-.5.4-.9.9-.9a1 1 0 0 1 1 .9c.2-.5.4-.9 1-.9a.7.7 0 0 1 .7.6.7.7 0 0 1 .8-.6.7.7 0 0 1 .7.6c.1-.4.2-.7.5-.8s.5.1.6.5.1-.7.4-.7.3 0 .4.2a1.1 1.1 0 0 1 .3-.5z" fill="none" stroke="#000" stroke-linecap="round" stroke-linejoin="round" stroke-width=".41"/>
  <path d="M65.4 20.6c.9-.3.7 5.1-6.5 4.8 7.5-.7 5.4-4.4 6.5-4.8z" fill="#325723" stroke="#000" stroke-linecap="round" stroke-linejoin="round" stroke-width=".41"/>
  <path d="M64.6 20.9c1.1-.4.7 4.6-5.7 4.5 6.5-.6 4.6-4.2 5.7-4.5z" fill="#325723" stroke="#000" stroke-linecap="round" stroke-linejoin="round" stroke-width=".41"/>
  <path d="M63.6 21.1c1.3-.4.6 4.4-4.7 4.3 5.1-1.3 3.6-4 4.7-4.3z" fill="#325723" stroke="#000" stroke-linecap="round" stroke-linejoin="round" stroke-width=".41"/>
  <path d="M62.4 21.3c1.4 0 .7 3.4-3.5 4.1 3.3-1.4 2-4.1 3.5-4.1z" fill="#325723" stroke="#000" stroke-linecap="round" stroke-linejoin="round" stroke-width=".41"/>
  <path d="M60.9 21.3c1.4 0 .8 3.3-2 4.1 1.2-1.4.5-4.1 2-4.1z" fill="#325723" stroke="#000" stroke-linecap="round" stroke-linejoin="round" stroke-width=".41"/>
  <path d="M52.6 20.6c-1-.3-.7 5.1 6.4 4.8-7.5-.7-5.3-4.4-6.4-4.8z" fill="#325723" stroke="#000" stroke-linecap="round" stroke-linejoin="round" stroke-width=".41"/>
  <path d="M53.3 20.9c-1-.4-.6 4.6 5.7 4.5-6.5-.6-4.6-4.2-5.7-4.5z" fill="#325723" stroke="#000" stroke-linecap="round" stroke-linejoin="round" stroke-width=".41"/>
  <path d="M54.3 21.1c-1.3-.4-.6 4.4 4.7 4.3-5.1-1.3-3.6-4-4.7-4.3z" fill="#325723" stroke="#000" stroke-linecap="round" stroke-linejoin="round" stroke-width=".41"/>
  <path d="M55.5 21.3c-1.4 0-.7 3.4 3.5 4.1-3.3-1.4-1.9-4.1-3.5-4.1z" fill="#325723" stroke="#000" stroke-linecap="round" stroke-linejoin="round" stroke-width=".41"/>
  <path d="M57 21.3c-1.4 0-.8 3.3 2 4.1-1.1-1.4-.4-4.1-2-4.1z" fill="#325723" stroke="#000" stroke-linecap="round" stroke-linejoin="round" stroke-width=".41"/>
  <path d="M58.9 21.3c1.5 0 1.3 2.7 0 4.1-1.2-1.4-1.4-4.1 0-4.1z" fill="#325723" stroke="#000" stroke-linecap="round" stroke-linejoin="round" stroke-width=".41"/>
  <path d="M58.9 22.1c.9 0 .8 2.1 0 3.2-.7-1.1-.8-3.2 0-3.2z" fill="#0d3a12" stroke="#000" stroke-linecap="round" stroke-linejoin="round" stroke-width=".41"/>
  <path d="M64.5 18c.2 0 .4.1.4.3l-.2.4a18.8 18.8 0 0 1-5.6.9h-.2a17.7 17.7 0 0 1-5.6-.9.5.5 0 0 1-.3-.4c.1-.2.2-.3.4-.3h.1a17.7 17.7 0 0 0 5.5.8 16.6 16.6 0 0 0 5.4-.8zm-.3 12.8a.3.3 0 0 1 .3.3c.1.1-.1.3-.2.3a28.1 28.1 0 0 1-5.3.5 26.5 26.5 0 0 1-5.3-.5.3.3 0 0 1-.3-.3.3.3 0 0 1 .3-.3h.1a36.7 36.7 0 0 0 5.2.4 36.4 36.4 0 0 0 5.1-.4z" fill="#febf10" stroke="#000" stroke-linecap="round" stroke-linejoin="round" stroke-width=".41"/>
  <path d="M44.1 106.3a.8.8 0 0 0-.2.8 8.1 8.1 0 0 1 .4 3.9 7.4 7.4 0 0 0 .2 2.9 5.8 5.8 0 0 0 2.2 3.3.7.7 0 1 0 .7-1.2 5.1 5.1 0 0 1-1.6-2.5 6.6 6.6 0 0 1-.1-2.4 9.7 9.7 0 0 0-.5-4.5.9.9 0 0 0-.9-.4z" fill="#856353" stroke="#000" stroke-linecap="round" stroke-linejoin="round" stroke-width=".4"/>
  <path d="M47.1 106a.7.7 0 0 0-.4.7 7.8 7.8 0 0 1-.5 4 7.4 7.4 0 0 0-.5 2.8 6.1 6.1 0 0 0 1.4 3.7.7.7 0 0 0 1-1 3.9 3.9 0 0 1-1-2.8 8.5 8.5 0 0 1 .4-2.3 9.4 9.4 0 0 0 .6-4.5c-.1-.4-.4-.7-.8-.6z" fill="#856353" stroke="#000" stroke-linecap="round" stroke-linejoin="round" stroke-width=".4"/>
  <path d="M45.9 105.9a.7.7 0 0 0-.4.8 8.6 8.6 0 0 1-.5 3.9 6.1 6.1 0 0 0-.5 2.8 6.7 6.7 0 0 0 1.4 3.8.8.8 0 0 0 1-.1c.3-.2.2-.7 0-.9a4.3 4.3 0 0 1-1-2.9 6.2 6.2 0 0 1 .4-2.3 9.4 9.4 0 0 0 .6-4.5.8.8 0 0 0-.8-.6z" fill="#856353" stroke="#000" stroke-linecap="round" stroke-linejoin="round" stroke-width=".4"/>
  <path d="M59 126.2c.6 4.7-4.2 4.2-4.2 4.2s1.8-2.2 0-2.6-2.7-1-2.8-2.3l1.6-2.3z" fill="red"/>
  <path d="M52 125.5c.1 1.3 1.1 1.9 2.8 2.3s0 2.6 0 2.6 4.8.5 4.2-4.2" fill="none" stroke="#000" stroke-linecap="round" stroke-linejoin="round" stroke-width=".4"/>
  <path d="M64.7 70.1a9.8 9.8 0 0 1 2.9 3.7c.6 2-1.7 4.1-1.7 4.1l-7.2 2.7-15.2.4-.5-1.6v-9.3" fill="#325723"/>
  <path d="M50.6 79.2a22.4 22.4 0 0 1-2-5.8 11.3 11.3 0 0 1-.1-3.4h-2.6l-.5 4.2-2.3 5.6.5.7 2.9-.7 3.2-.5z" fill="#0d3a12"/>
  <path d="M64.7 70.1a9.8 9.8 0 0 1 2.9 3.7c.6 2-1.7 4.1-1.7 4.1l-7.2 2.7-15.2.4-.5-1.6v-9.3" fill="none" stroke="#000" stroke-linecap="round" stroke-linejoin="round" stroke-width=".4"/>
  <path d="M54.5 79.1a40.5 40.5 0 0 1 6.4.5l-.4 2a39.7 39.7 0 0 0-17 .8v-1.8a40.5 40.5 0 0 1 11-1.5z" fill="#febf10"/>
  <path d="M42.8 101.1l21 .8s4.7-3.4 5.2-12.5-3.6-13-3.6-13l-5.6 3.3a11.2 11.2 0 0 1 .9 1.9h-.9l-5.2-.6-7.1.5-3.8 1-1.6.5-3 14c.5 2.2 3.7 4.1 3.7 4.1zm16.6-4.5a6 6 0 0 1-.1 1.3z" fill="#0065b7"/>
  <path d="M60.5 81.6a39.7 39.7 0 0 0-17 .8v-1.8a40.5 40.5 0 0 1 11.1-1.5l4.4.2" fill="none" stroke="#000" stroke-linecap="round" stroke-linejoin="round" stroke-width=".4"/>
  <path d="M51.3 75.8a1.8 1.8 0 0 1 1.3.6 4.6 4.6 0 0 1 .8 3.6c-.2 1.8-4 6.6-4.4 7.1a.6.6 0 0 1-.5.3c-.8 0-1-1.2-1-2.4s.6-7.9 2.9-9zm-2.7 10.3c1.5-2 3.7-5.2 3.9-6.2a3.8 3.8 0 0 0-.7-2.8.5.5 0 0 0-.5-.3h-.5c-1.5.7-2.5 5.4-2.3 8.1a3.4 3.4 0 0 0 .1 1.2zm-25-3.2a.7.7 0 0 1 .6.5c0 .3-.2.7-.5.7s-4.6 1.4-5.3 2.2a.5.5 0 0 1-.8.1.6.6 0 0 1-.1-.9c1.1-1.4 5.5-2.4 5.9-2.5z" fill="#febf10" stroke="#000" stroke-linecap="round" stroke-linejoin="round" stroke-width=".4"/>
  <path d="M23.1 103s-1.9.2-1.9-3.3l.9-1 2 1.1z" fill="#856353" stroke="#000" stroke-linecap="round" stroke-linejoin="round" stroke-width=".4"/>
  <path d="M24.4 103.4s-2.2 0-2.1-3.3L23 99l2.6 1.5z" fill="#856353" stroke="#000" stroke-linecap="round" stroke-linejoin="round" stroke-width=".4"/>
  <path d="M28.2 103.7s-4.2 2.4-4.7-3l1.3-1 3.7 2.5zm-8-4.8a2 2 0 0 0-2.2.6s-.3-1.2 1.6-1.9" fill="#856353" stroke="#000" stroke-linecap="round" stroke-linejoin="round" stroke-width=".4"/>
  <path d="M28.3 102.9s.3 4.6 6.7 5.8a28.3 28.3 0 0 0-2.5-6.2c-1.4-1.9-4.2.4-4.2.4z" fill="#a77e6a" stroke="#000" stroke-linecap="round" stroke-linejoin="round" stroke-width=".4"/>
  <path d="M13.3 82.5a.7.7 0 0 0 .9-.2.6.6 0 0 0-.3-.8l-.8-.8.8.2a.5.5 0 0 0 .5-.7.6.6 0 0 0-.6-.5c-.1 0-.2-.2-.2-.5l.8-.5c.5-.4 1-.7 1.2-1.3a.5.5 0 0 0-.3-.7h-.2a.7.7 0 0 0-.6.4 3 3 0 0 1-.8.7 3.5 3.5 0 0 0-1.7 1.6c-.7 1.4.6 2.7 1.3 3.1z" fill="#febf10" stroke="#000" stroke-linecap="round" stroke-linejoin="round" stroke-width=".4"/>
  <path d="M11 84.4c-1.5.5-1.4 3.9-1.4 3.9a2.4 2.4 0 0 0 1.4 3.1 46.4 46.4 0 0 1 4 3.1c.8.7 4.6 3.1 4.6 3.1s-.1 1.3 2.9 2.5a46.6 46.6 0 0 1 5.1 2.8c.9.3 8.3 1.1 10-2.7s1.8-2.8 3.1-10.9a65.1 65.1 0 0 1 4.6-15 19.5 19.5 0 0 0 .6-4.4l-27.3.2c-.2 1.6 1 5.9 1.9 7.8s5 9.2 5 9.2a6.7 6.7 0 0 0-1.9-.4 25.3 25.3 0 0 1-5.8-1.6 10.6 10.6 0 0 1-1.6-1.9c-.1-.2-.2-1.5-1.3-1.7a1.7 1.7 0 0 0-1.6.8s.1.2-.1.2h-.3c-1 0-1.9.3-1.9 1.9z" fill="#a77e6a"/>
  <path d="M28.7 88.7s-4.6-3.2-4.3-18.5h-5.8a25.3 25.3 0 0 0 3.5 10.9c1.7 2.7 3.5 5.8 3.5 5.8zm.7 5.3s-6.9-6.3-11.1-6.6l-.2-1.4h2.5l1.7.6 2.9.4 3.7 2.7L30 94z" fill="#856353"/>
  <path d="M45.9 69.9a19.5 19.5 0 0 1-.6 4.4 65.1 65.1 0 0 0-4.6 15c-1.3 8.1-1.3 7.1-3.1 10.9a5.5 5.5 0 0 1-4 2.7v-.5s3.6-2.3 2.9-5.8-2.1-4.1-2.9-7.5-1.3-5.3-3.7-6.2-4.3-3.4-4.1-5.3 0-2 .5-3.1S26 70 26 70z" fill="#856353"/>
  <path d="M41.3 81.8l-2.4-1.5" fill="red"/>
  <path d="M33.7 102.4s3.6-2.3 2.9-5.8-2.1-4.1-2.9-7.5-1.3-5.3-3.7-6.2-4.3-3.4-4.1-5.3-.4-2.9.1-3.9a9.4 9.4 0 0 0 .2-3.6" fill="none" stroke="#000" stroke-linecap="round" stroke-linejoin="round" stroke-width=".4"/>
  <path d="M38.6 98.2a4.2 4.2 0 0 0-.1-2.2c-.7-3.4-2.1-4.1-3-7.4s-1.3-5.3-3.6-6.2-4.3-3.5-4.1-5.3" fill="none" stroke="#000" stroke-linecap="round" stroke-linejoin="round" stroke-width=".4"/>
  <path d="M39.9 94.1c-.8-2.5-2-3.4-2.7-6.3s-1.3-5.4-3.7-6.2a7.9 7.9 0 0 1-3.8-3.6" fill="none" stroke="#000" stroke-linecap="round" stroke-linejoin="round" stroke-width=".4"/>
  <path d="M40.3 90.9a18 18 0 0 1-1.6-3.8c-.9-3.3-1.3-5.3-3.6-6.2a6.7 6.7 0 0 1-3.3-2.6" fill="none" stroke="#000" stroke-linecap="round" stroke-linejoin="round" stroke-width=".4"/>
  <path d="M40.9 87.8c-.1-.3-.3-.7-.4-1.1-.8-3.3-1.3-5.3-3.6-6.2a6.8 6.8 0 0 1-2.6-1.8" fill="none" stroke="#000" stroke-linecap="round" stroke-linejoin="round" stroke-width=".4"/>
  <path d="M46.2 112.2a5.8 5.8 0 0 1 .3 2.9 4.4 4.4 0 0 0-.1 2.3 3.5 3.5 0 0 0 3.4 2.2c2.8 0 6.3-2.2 6.5-5.3a49.4 49.4 0 0 0-.5-8.7l-4.8-2-1 1.9-.2 1.3a2.8 2.8 0 0 0-1.8.2c-1.8.9-1.9 4.7-1.8 5.2z" fill="#f3bc84"/>
  <path d="M52 107.5a28.6 28.6 0 0 1 .8-3.1c.2-.4-2-.7-2-.7l-.8 1.7-.2 1.4zm-3.9 10.7s-.8-4.1-.5-5.5 1.2-4.7.7-5.8-1.2.3-1.7 2.2a10.8 10.8 0 0 0-.3 3.6l.4 1.5-.4 1.7.2 1.2 1.1 1z" fill="#c69c6d"/>
  <path d="M57.1 106.8a22.6 22.6 0 0 0 3-1.9 31.2 31.2 0 0 0 3.7-3l-1.4-2-1.7-.8-.8-1.2-1.7-.4-1.4-.8h-1.7l-1.3-1-2 .5-1.5-.6s-.5 5.8.8 8.1c0 0 4.4 1.2 6 3.1z" fill="#f2f2f2" stroke="#000" stroke-linecap="round" stroke-linejoin="round" stroke-width=".4"/>
  <path d="M49.9 106a6 6 0 0 1 1.2-2.3s-2.8-5-3.3-7h-1.1l-.9 1s-1.3.2-1.3.4-.1.9-.1.9l-1.1.5-.2 1-.8 1.5s5.7 3.6 7.6 4z" fill="#f2f2f2" stroke="#000" stroke-linecap="round" stroke-linejoin="round" stroke-width=".4"/>
  <path d="M62.1 103.4a12.6 12.6 0 0 0-11.8-4.9m-5.9 4.7s.6-3.7 3.9-4.7m3 5.2l.5-5.3m-.7 5.3L47 99.2m15.9 2.6l-.8.1.1-1m-1-.5l-.8.2v-1m-.9-.6l-.8.3-.2-1m-1.2-.4l-.7.4-.4-.9" fill="none" stroke="#000" stroke-linecap="round" stroke-linejoin="round" stroke-width=".4"/>
  <path d="M59.8 95.6a19 19 0 0 1 2.3-5.1c1.5-2.5 1.5-8.3-.2-10.9l-2 .4 1.2 3.5v1.9l-1.6 2.5-.5 2.7.4 2.6.2 2.7z" fill="#004da1"/>
  <path fill="none" stroke="#000" stroke-linecap="round" stroke-linejoin="round" stroke-width=".4" d="M54.6 97.1l-.5.6-.6-.8m-1.2-.1l-.5.7-.6-.7m-3.9.8l-.2.6-.7-.3m-.5.6v.7l-.8-.2m-.3.8v.7l-.7-.1m-.2.5l.2.7h-.8m20.5.3s4.7-3.4 5.2-12.5-3.6-13-3.6-13l-5.6 3.3s2.1 3.7 1.1 5.6-2.5 3.6-1.8 7.1a13.2 13.2 0 0 1 .2 5.4M61 85.1s2.1-.2 2.6-1.8m-4.7 6.1a6.2 6.2 0 0 0-3.8-3m5 .1a8.7 8.7 0 0 0-2.8-.7m-6.5 17.4S46.3 90.5 48 81.9m-5.2 19.2s-3.2-1.9-3.7-4.2m2.5 1.4a2.6 2.6 0 0 1 .5-2.3l-.6-8.5"/>
  <path d="M46.4 88.7c2-.8 2.6-.8 2-1.7v-.2a2.2 2.2 0 0 0 .5-.8l-.5.4v-.2c.4-.2.9-.4.9-.8s-.4-.4-.9-.4h.4a1.2 1.2 0 0 0-.5-1.1s.8-1-1.2-1l-4.9-.2-.8 3.7s3 3.2 5 2.3z" fill="#f3bc84"/>
  <path d="M41.4 86.2s3 3.4 5 2.5 2.6-.8 2-1.7" fill="none" stroke="#000" stroke-linecap="round" stroke-linejoin="round" stroke-width=".4"/>
  <path d="M48.9 86c-.3 1.2-2.6 1.5-2.6 1.5a9.3 9.3 0 0 1-3.1 0" fill="none" stroke="#000" stroke-linecap="round" stroke-linejoin="round" stroke-width=".4"/>
  <path d="M47.1 86.4s2.2-.1 2.2-1-2.5-.2-2.7-.2m2.2-.3s.2-1.5-1.8-1.3" fill="none" stroke="#000" stroke-linecap="round" stroke-linejoin="round" stroke-width=".4"/>
  <path d="M48.3 83.7s.8-1-1.2-1l-5.4-.3" fill="none" stroke="#000" stroke-linecap="round" stroke-linejoin="round" stroke-width=".4"/>
  <path d="M29.7 103.3a8 8 0 0 0 6.3 4.1s.3-2-1.9-4.5" fill="#a77e6a" stroke="#000" stroke-linecap="round" stroke-linejoin="round" stroke-width=".4"/>
  <path d="M29.5 73.7a18.1 18.1 0 0 1 .3-3.4M27.7 74a20.2 20.2 0 0 1 .3-3.7m4 4.8a17.5 17.5 0 0 1 .2-4.9m1.9 4.9a17.5 17.5 0 0 1 .2-4.9m1.8 6.1a29 29 0 0 1 .3-6.1m1.9 4.9a17.5 17.5 0 0 1 .2-4.9m2.1 6.2s-.4-4.3.2-6.2m2.6 8.5s-1.2-5.7-.4-8.5" fill="none" stroke="#000" stroke-linecap="round" stroke-linejoin="round" stroke-width=".4"/>
  <path d="M32.2 103.2s1.8 2.8 2.8 3.3.1-1.1-1.4-3.6" fill="#856353" stroke="#000" stroke-linecap="round" stroke-linejoin="round" stroke-width=".4"/>
  <path d="M45.9 70.1a18.2 18.2 0 0 1-.6 4.2 65.1 65.1 0 0 0-4.6 15c-1.3 8.1-1.3 7.1-3.1 10.9s-9.1 3-10 2.7a46.6 46.6 0 0 0-5.1-2.8c-3-1.2-2.9-2.5-2.9-2.5s-3.8-2.4-4.6-3.1a46.4 46.4 0 0 0-4-3.1 2.4 2.4 0 0 1-1.4-3.1s-.1-3.6 1.6-3.9a2.1 2.1 0 0 1 1.2.3c3 1.5 3 2 4 1.6" fill="none" stroke="#000" stroke-linecap="round" stroke-linejoin="round" stroke-width=".4"/>
  <path d="M16.8 85.1s-2.5-2.5-3.6-2.6-2.2.2-2.2 1.9m17 14s-2.8 1.7-4.4-.9" fill="none" stroke="#000" stroke-linecap="round" stroke-linejoin="round" stroke-width=".4"/>
  <path d="M13.2 82.5a1.9 1.9 0 0 1 1.7-1c1.1.2 1.2 1.5 1.3 1.7a10.6 10.6 0 0 0 1.6 1.9 25.3 25.3 0 0 0 5.8 1.6 6.7 6.7 0 0 1 1.9.4s-4.2-7.3-5-9.2-2.1-6.2-1.9-7.8" fill="none" stroke="#000" stroke-linecap="round" stroke-linejoin="round" stroke-width=".4"/>
  <path d="M37.9 79.8a13.6 13.6 0 0 0-2.1-1l1.2-1.3a10 10 0 0 1 1.1-1 2.3 2.3 0 0 1 .1 1.2l-.3 2.1M35 78.5l-2.7-1a8.3 8.3 0 0 1 2.4-2.6 8.8 8.8 0 0 1 .4 3.2zm-18.2-.7a2.8 2.8 0 0 1-.9-.5c-.1-.1-.1-.2-.1-.4a4.3 4.3 0 0 1 .4-2.2 1.6 1.6 0 0 1 .4.7l1.1 2.3-.9.3m2.2-4.4a20.7 20.7 0 0 1 1.5 3.3l-2.2.5s.2-3 .7-3.8zm12 3.6l-2.6-.5a7.2 7.2 0 0 1 1.9-2.9 8.7 8.7 0 0 1 .7 3.4m-9.9-.4s.9-3.1 1.5-3.7 1.4 3.4 1.4 3.4l-2.9.3m6.2-.2h-2.7s.7-2.8 1.5-3.5a8.9 8.9 0 0 1 1.2 3.6m14 5.1l-2.4-1.5 1.8-2.7a11.8 11.8 0 0 1 .6 4.2" fill="red"/>
  <path d="M41.3 81.8l-2.4-1.5 1.8-2.7a11.8 11.8 0 0 1 .6 4.2m-3.4-2a13.6 13.6 0 0 0-2.1-1l1.2-1.3a10 10 0 0 1 1.1-1 2.3 2.3 0 0 1 .1 1.2l-.3 2.1M35 78.5l-2.7-1a8.3 8.3 0 0 1 2.4-2.6 8.8 8.8 0 0 1 .4 3.2zm-18.2-.7a2.8 2.8 0 0 1-.9-.5c-.1-.1-.1-.2-.1-.4a4.3 4.3 0 0 1 .4-2.2 1.6 1.6 0 0 1 .4.7l1.1 2.3-.9.3m2.2-4.4a20.7 20.7 0 0 1 1.5 3.3l-2.2.5s.2-3 .7-3.8zm12 3.6l-2.6-.5a7.2 7.2 0 0 1 1.9-2.9 8.7 8.7 0 0 1 .7 3.4m-9.9-.4s.9-3.1 1.5-3.7 1.4 3.4 1.4 3.4l-2.9.3m6.2-.2h-2.7s.7-2.8 1.5-3.5a8.9 8.9 0 0 1 1.2 3.6m18.9 10.7a11.1 11.1 0 0 0-3.1-4.4 2.4 2.4 0 0 1-.8-2.1c.3-1.7-1-4.6-1-4.6a3.8 3.8 0 0 0-2.1 1.5 5.1 5.1 0 0 0-.5-2.8 9 9 0 0 0-2.5 1.8 8.8 8.8 0 0 0-1.1-3.3A8.1 8.1 0 0 0 32 76a7.7 7.7 0 0 0-1.5-3.7 8.3 8.3 0 0 0-2.4 2.7 7.2 7.2 0 0 0-1.9-3.4 4.7 4.7 0 0 0-1.8 2.4 5.9 5.9 0 0 0-1.9-2.4 8.4 8.4 0 0 0-1.7 2.8 10.6 10.6 0 0 0-1.9-2.4 6.9 6.9 0 0 0-1.3 2.7 7.2 7.2 0 0 0-1.7-1.8 7.8 7.8 0 0 0-1.1 3.9 1.9 1.9 0 0 0 .2.8c.1.2.1.3.2.3a3 3 0 0 0 1.8.9 26.2 26.2 0 0 1 8-1.3c12.9 0 21.2 9.9 21.2 9.9z" fill="#0065b7" stroke="#000" stroke-linecap="round" stroke-linejoin="round" stroke-width=".4"/>
  <path d="M28.2 84a45.4 45.4 0 0 1 5.9.5 77.4 77.4 0 0 1 9.2 3.1s-7.5-2-9.9-2.2-9.2-1.3-14.9 1.6a.6.6 0 0 1-.6-1.1A24.5 24.5 0 0 1 28.2 84z" fill="#febf10" stroke="#000" stroke-linecap="round" stroke-linejoin="round" stroke-width=".4"/>
  <path d="M14.6 80.5a6 6 0 0 0 2 1.8 5.6 5.6 0 0 1 2 1.6c.4.5.2.9-.1 1.3a.5.5 0 0 0-.5-.3.6.6 0 0 0-.6.6l.2 4.7a.6.6 0 0 0 .5.6h.4c4.7.9 10.7 6 12.3 7.4l.3.8c-.8 1.4-3.1 2.7-4 3.1a.7.7 0 0 0-.3.8c.2.3.5.5.8.3a10 10 0 0 0 4.1-3 23.6 23.6 0 0 0 1.9 3 .5.5 0 0 0 .8.1.5.5 0 0 0 .2-.8 20.5 20.5 0 0 1-2.2-3.6.5.5 0 0 0-.2-.4v-.2c.1-.2.1-.5-.1-.6s-.1-.1-.2-.2a24.7 24.7 0 0 1-1-2.9c-1-4.4-1.9-6.7-5.1-8h-.2a.5.5 0 0 0-.6.4.7.7 0 0 0 .3.8c2.5 1 3.4 2.6 4.5 7.2l.3 1c-2.6-2.1-7.2-5.5-11.2-6.2v-3.2h.2a2.4 2.4 0 0 0 .7-3.3 7.6 7.6 0 0 0-2.3-2c-.7-.4-1.5-.9-1.6-1.2a.7.7 0 0 1 .1-.6 2.9 2.9 0 0 0 1.4.5c.3.1.6-.1.7-.5a.6.6 0 0 0-.6-.6l-.8-.4c.1-.2.2-.5 0-.7l-.5-.2h-.4c-.3.2-1.8 1.5-1.2 2.9z" fill="#febf10" stroke="#000" stroke-linecap="round" stroke-linejoin="round" stroke-width=".4"/>
  <path d="M12.8 86.5s-1 .1-.5.7a.8.8 0 0 1-.4 1.4c-.5 0-1-.4-.9-1.4s1.8-.7 1.8-.7z" fill="#856353" stroke="#000" stroke-linecap="round" stroke-linejoin="round" stroke-width=".4"/>
  <path d="M27.7 97.3a3.2 3.2 0 0 1-3.4-.3" fill="none" stroke="#000" stroke-linecap="round" stroke-linejoin="round" stroke-width=".3"/>
  <path d="M27.1 96.8a6.3 6.3 0 0 0-2.4-.8c-1 0-1.3.3-1.3.3a3 3 0 0 0 1.8.9 3 3 0 0 0 1.9-.4z" fill="#fff"/>
  <path d="M27.1 96.8a4.3 4.3 0 0 1-2.4.3 2.7 2.7 0 0 1-1.3-.8 2 2 0 0 1 1.5-.3 16.8 16.8 0 0 1 2.6.8" fill="none" stroke="#000" stroke-linecap="round" stroke-linejoin="round" stroke-width=".3"/>
  <ellipse cx="24.9" cy="96.5" rx=".6" ry=".7" transform="rotate(-80.7 24.9 96.54)"/>
  <circle cx="24.6" cy="96.7" r=".2" fill="#fff"/>
  <circle cx="31.8" cy="98.8" r="1.8" fill="#febf10" stroke="#000" stroke-linecap="round" stroke-linejoin="round" stroke-width=".4"/>
  <path fill="red" d="M31.8 99.9l-.3-.6-.7-.1.5-.5-.2-.7.7.4.6-.4-.1.7.5.5-.7.1-.3.6z"/>
  <circle cx="18.5" cy="90.1" r="1.3" fill="#febf10" stroke="#000" stroke-linecap="round" stroke-linejoin="round" stroke-width=".4"/>
  <circle cx="18.5" cy="90.1" r=".6" fill="red" stroke="#000" stroke-linecap="round" stroke-linejoin="round" stroke-width=".4"/>
  <path fill="none" stroke="#000" stroke-linecap="round" stroke-linejoin="round" stroke-width=".4" d="M29.44 95.5l-.72.95-1.53-1.15.72-.96zm-4.34-.6a3.5 3.5 0 0 0-2.8-1.3"/>
  <path fill="#febf10" stroke="#000" stroke-linecap="round" stroke-linejoin="round" stroke-width=".4" d="M46.98 79.43l-1.27-1.13 1.67-1.87 1.27 1.13z"/>
  <path d="M54 124.2l-.6.6s4.8 3.6 9.1-.4-.2-6.9-.2-6.9l-10.6 2.8-5.1 4.5a5.3 5.3 0 0 0 7.4-.6z" fill="#febf10"/>
  <path d="M56.9 126.1s4.7-2.1 1.4-6.2l4.3-2.5s2.9 3.1.9 6.1-6.6 2.6-6.6 2.6z" fill="#d09b07"/>
  <path d="M49.6 123.3s-5.1 3.7-9.9 0-2.4-8.9.2-9.4 4.3 1.5 4.9 5.3 3.4 3.1 3.4 3.1" fill="#0065b7"/>
  <path d="M49.2 122.3s-2.6 1.7-4.6-.3-2.8-8-5.9-7.2a2.9 2.9 0 0 1 3.8-.4s1.8 1.8 1.8 2.8a18.5 18.5 0 0 0 .8 3.5s1.9 2.5 4.1 1.6z" fill="#004da1"/>
  <path fill="#febf10" stroke="#000" stroke-linecap="round" stroke-linejoin="round" stroke-width=".4" d="M48.17 77.32l-.67-.6 3.62-4.05.67.6z"/>
  <path d="M49.6 123.3s-5.1 3.7-9.9 0-2.4-8.9.2-9.4 4.3 1.5 4.9 5.3 3.4 3.1 3.4 3.1" fill="none" stroke="#000" stroke-linecap="round" stroke-linejoin="round" stroke-width=".4"/>
  <path d="M59.8 70.1a5.7 5.7 0 0 1 1.3.7c.5.4 5 5.1 5 5.1-3 5.1-7.1 3.8-7.1 3.8s-1.7-3-1.8-4.9c0 0-.9.4-1-1.7a5.1 5.1 0 0 1-4.7.6c-1-.8-1.4-3.6-1.4-3.6" fill="#c69c6d"/>
  <path d="M59.1 79.7L57.7 77l-.5-2.2-.7-.2-.3-1.6-2 1-2.2-.2-1.1-.7-.7-2.5V70H56a5.2 5.2 0 0 0 1.3 2.1 44.2 44.2 0 0 1 4.9 7.1 7.5 7.5 0 0 1-3.1.5z" fill="#a67c52"/>
  <path d="M59.8 70.1a5.7 5.7 0 0 1 1.3.7c.5.4 5 5.1 5 5.1-3 5.1-7.1 3.8-7.1 3.8s-1.7-3-1.8-4.9c0 0-.9.4-1-1.7a5.1 5.1 0 0 1-4.7.6c-1-.8-1.4-3.6-1.4-3.6m2.7 1.8a6 6 0 0 1-2.2-1.8m7.8 4.3l-1.2.4" fill="none" stroke="#000" stroke-linecap="round" stroke-linejoin="round" stroke-width=".4"/>
  <circle cx="51" cy="103.6" r=".8" fill="red" stroke="#000" stroke-linecap="round" stroke-linejoin="round" stroke-width=".4"/>
  <path d="M46.6 124.8a5.3 5.3 0 0 0 7.4-.6m-.6.6s4.8 3.6 9.1-.4-.2-6.9-.2-6.9" fill="none" stroke="#000" stroke-linecap="round" stroke-linejoin="round" stroke-width=".4"/>
  <path d="M53.4 115.2a2.1 2.1 0 0 1-3.3 0m-3.6 1.1s2.2.2 2.5-1.6a5 5 0 0 0-.8-2.7c-.1-.3.3-1 .3-1m1.3.7s.3-.5 0-.7-.6.1-.8.2h-.2m.2-.4v.4m-.6-.1l-.3-.2" fill="none" stroke="#000" stroke-linecap="round" stroke-linejoin="round" stroke-width=".3"/>
  <path d="M48.5 110.2c.2.1.4-.1.4-.1a.4.4 0 0 0 .3.2c.2 0 1.1-.8 1.1-.8l-2.5.2 2.4-.2s-1.6-1.5-2.6.2h-.1z" fill="red"/>
  <path d="M50.6 109.6a11.1 11.1 0 0 0-3.3.3m2.9-.4s-1.6-1.5-2.6.2" fill="none" stroke="#000" stroke-linecap="round" stroke-linejoin="round" stroke-width=".3"/>
  <path d="M47.6 109.9l.9.3c.2.1.4-.1.4-.1a.4.4 0 0 0 .3.2c.2 0 1-.7 1-.7" fill="none" stroke="#000" stroke-linecap="round" stroke-linejoin="round" stroke-width=".3"/>
  <path d="M59.8 105.6a.8.8 0 0 1 .3.8 7.6 7.6 0 0 0-.2 3.9 7.1 7.1 0 0 1 0 2.9 6.7 6.7 0 0 1-2 3.5.8.8 0 0 1-1-.2.8.8 0 0 1 .2-1c.1 0 1-.7 1.4-2.6a6.5 6.5 0 0 0 0-2.4 8 8 0 0 1 .3-4.5.6.6 0 0 1 .8-.5z" fill="#856353" stroke="#000" stroke-linecap="round" stroke-linejoin="round" stroke-width=".4"/>
  <path d="M58 105.4a.5.5 0 0 1 .4.7 7.7 7.7 0 0 0 .8 3.8 7.7 7.7 0 0 1 .6 2.8 6.7 6.7 0 0 1-1.1 3.9.8.8 0 0 1-1 0 .7.7 0 0 1 0-1 4.2 4.2 0 0 0 .7-2.9 5.4 5.4 0 0 0-.5-2.2 8.1 8.1 0 0 1-.8-4.5.7.7 0 0 1 .7-.7z" fill="#856353" stroke="#000" stroke-linecap="round" stroke-linejoin="round" stroke-width=".4"/>
  <path d="M56.8 105.5a.8.8 0 0 1 .4.7 8.1 8.1 0 0 0 .8 3.9 7.3 7.3 0 0 1 .6 2.8 6.1 6.1 0 0 1-1.1 3.8.7.7 0 0 1-1 0 .6.6 0 0 1-.1-.9 4.4 4.4 0 0 0 .8-2.9 5.9 5.9 0 0 0-.5-2.3 8.7 8.7 0 0 1-.9-4.5.8.8 0 0 1 .8-.6z" fill="#856353" stroke="#000" stroke-linecap="round" stroke-linejoin="round" stroke-width=".4"/>
  <path d="M55.6 106a.8.8 0 0 1 .5.7 8.2 8.2 0 0 0 .7 3.9 7.2 7.2 0 0 1 .7 2.8 5.5 5.5 0 0 1-1.2 3.8.7.7 0 0 1-1 0c-.2-.2-.3-.7 0-.9a5.3 5.3 0 0 0 .8-2.9 5.6 5.6 0 0 0-.6-2.3 10 10 0 0 1-.8-4.5.6.6 0 0 1 .7-.6z" fill="#856353" stroke="#000" stroke-linecap="round" stroke-linejoin="round" stroke-width=".4"/>
  <path d="M54.5 106.2a.8.8 0 0 1 .5.7 8 8 0 0 0 .7 3.9 5.8 5.8 0 0 1 .7 2.8 6.1 6.1 0 0 1-1.1 3.8c-.3.3-1.4.8-1.7.6s.2-.9.6-1.5a4.4 4.4 0 0 0 .8-2.9 5.9 5.9 0 0 0-.5-2.3 8.7 8.7 0 0 1-.9-4.5.9.9 0 0 1 .8-.6z" fill="#856353" stroke="#000" stroke-linecap="round" stroke-linejoin="round" stroke-width=".4"/>
  <path d="M52.8 114.1a2.5 2.5 0 0 0-1.5-.5 1.7 1.7 0 0 0-1 .5 2 2 0 0 0 1.5.5c.8-.1 1-.5 1-.5z" fill="#fff"/>
  <path d="M52.7 114.3a2 2 0 0 1-1.1.2 2.6 2.6 0 0 1-1.3-.4 1.9 1.9 0 0 1 1.2-.5 2.1 2.1 0 0 1 1.3.6m-2.5 0a1.6 1.6 0 0 0 2.6 0" fill="none" stroke="#000" stroke-linecap="round" stroke-linejoin="round" stroke-width=".3"/>
  <ellipse cx="51.4" cy="114.1" rx=".5" ry=".6" transform="rotate(-89.9 51.34 114.05)"/>
  <circle cx="51.2" cy="114.3" r=".2" fill="#fff"/>
  <path d="M48.9 114a2.1 2.1 0 0 0-1.6-.2c-.7.2-.8.6-.8.6a1.5 1.5 0 0 0 1.4.2c.9-.2 1-.6 1-.6z" fill="#fff"/>
  <path d="M48.8 114.3l-1 .3a3.1 3.1 0 0 1-1.2-.3 1.8 1.8 0 0 1 1.1-.6 1.7 1.7 0 0 1 1.2.4m-2.3.3a1.3 1.3 0 0 0 2.3-.3" fill="none" stroke="#000" stroke-linecap="round" stroke-linejoin="round" stroke-width=".3"/>
  <ellipse cx="47.6" cy="114.2" rx=".6" ry=".5" transform="rotate(-7.1 47.9 114.62)"/>
  <ellipse cx="47.5" cy="114.4" rx=".2" ry=".2" transform="rotate(-7.1 47.1 114.57)" fill="#fff"/>
  <path d="M46.5 117.1a3 3 0 0 1 0-2.1 4.9 4.9 0 0 0-.4-2.7c-.1-.5.1-4.4 1.9-5.3s4.8 1.2 4.8 1.2" fill="none" stroke="#000" stroke-linecap="round" stroke-linejoin="round" stroke-width=".4"/>
  <path d="M48.7 111a.9.9 0 0 0 1.2 0c.6-.5.6-1.1 1.5-.9s-.8-1-2.3-.1l-.4.2a2.1 2.1 0 0 0-1.9-.1s.7.1.9.5.5.8 1 .4z" fill="#856353" stroke="#000" stroke-linecap="round" stroke-linejoin="round" stroke-width=".3"/>
  <path d="M46.5 117s1.9 3.2 6.2 1 6.6-4 8.1-4 4.1 1.7 1.5 3.5-7.7 4-9.6 5.3a3.2 3.2 0 0 1-4.5-.5c-1.1-1.1-3.1-1.5-3.4-2.4s.2-2.2 1.7-2.9z" fill="red"/>
  <path d="M63.1 116.7a10.4 10.4 0 0 0-6.1.7c-2.5 1.3-6.6 2.4-7.9 1.4a12.6 12.6 0 0 0 5.2-1.4l4.7-2.9a5.1 5.1 0 0 1 2-.5c.6.1 2.8.6 2.1 2.7z" fill="#980805"/>
  <path d="M46.5 117s1.9 3.2 6.2 1 6.6-4 8.1-4 4.1 1.7 1.5 3.5-7.7 4-9.6 5.3a3.2 3.2 0 0 1-4.5-.5c-1.1-1.1-3.1-1.5-3.4-2.4s.2-2.2 1.7-2.9z" fill="none" stroke="#000" stroke-linecap="round" stroke-linejoin="round" stroke-width=".4"/>
  <path fill="#f2f2f2" stroke="#000" stroke-linecap="round" stroke-linejoin="round" stroke-width=".4" d="M49.8 106.8l.1-.8"/>
  <path d="M48.8 122.9a5.8 5.8 0 0 1-7.5-1.6m14.2 8.2s2.7-.7.7-3.3" fill="none" stroke="#000" stroke-linecap="round" stroke-linejoin="round" stroke-width=".4"/>
  <path d="M17.6 114.1v-.8a3.8 3.8 0 0 0-3.3-2.7c-.4-.1-.2-.9.6-1.2v-.8h8.2v.7c1.1.1 1.4 1.2 1 1.3a3.8 3.8 0 0 0-3.3 2.7v.8h-1v-.8c.2-.7.1-1.1-.1.3h-1c-.2-1.4-.4-1-.2-.3v.8z" fill="#325723"/>
  <path d="M18.5 114.1v-.8c-.3-1.1-1-3.5-2.6-3.9s-2.1 1.1-1.6 1.2a3.8 3.8 0 0 1 3.3 2.7v.8zm2.3 0v-.8a3.8 3.8 0 0 1 3.3-2.7c.5-.1-.1-1.7-1.6-1.2s-2.4 2.8-2.7 3.9v.8z" fill="#3c6d3d" stroke="#000" stroke-linecap="round" stroke-linejoin="round" stroke-width=".24"/>
  <path d="M18.5 114.1v-.8c-.3-1.1-1-3.5-2.6-3.9s-2.1 1.1-1.6 1.2a3.8 3.8 0 0 1 3.3 2.7v.8zm2.3 0v-.8a3.8 3.8 0 0 1 3.3-2.7c.5-.1-.1-1.7-1.6-1.2s-2.4 2.8-2.7 3.9v.8z" fill="#325723" stroke="#000" stroke-linecap="round" stroke-linejoin="round" stroke-width=".41"/>
  <path d="M18.7 113.6c-.2-1.6-1.2-2.5-1-3.7s.6-.8 1.5-.8 1.4.3 1.5.8-.8 2.1-1 3.7h-1z" fill="none" stroke="#000" stroke-linecap="round" stroke-linejoin="round" stroke-width=".41"/>
  <path d="M19 113.3c-.1-1.2-.6-1.9-.6-2.8a.8.8 0 0 1 1.6 0c.1.9-.4 1.6-.5 2.8H19z" fill="#0d3a12" stroke="#000" stroke-linecap="round" stroke-linejoin="round" stroke-width=".41"/>
  <path d="M16.2 109.4h1.9m-1.3.4h.9" fill="none" stroke="#000" stroke-linecap="round" stroke-linejoin="round" stroke-width=".41"/>
  <path d="M14.1 108.8h10.1v-2.1l-5-.6-5.1.6z" fill="#d09b07" stroke="#000" stroke-linecap="round" stroke-linejoin="round" stroke-width=".41"/>
  <circle cx="14.9" cy="107.8" r=".6" fill="#febf10" stroke="#000" stroke-linecap="round" stroke-linejoin="round" stroke-width=".3"/>
  <circle cx="14.9" cy="107.8" r=".2"/>
  <circle cx="16.1" cy="107.6" r=".6" fill="#febf10" stroke="#000" stroke-linecap="round" stroke-linejoin="round" stroke-width=".3"/>
  <circle cx="16.1" cy="107.6" r=".2"/>
  <circle cx="17.4" cy="107.5" r=".6" fill="#febf10" stroke="#000" stroke-linecap="round" stroke-linejoin="round" stroke-width=".3"/>
  <circle cx="17.4" cy="107.5" r=".2"/>
  <circle cx="18.7" cy="107.5" r=".6" fill="#febf10" stroke="#000" stroke-linecap="round" stroke-linejoin="round" stroke-width=".3"/>
  <circle cx="18.7" cy="107.5" r=".2"/>
  <circle cx="19.9" cy="107.5" r=".6" fill="#febf10" stroke="#000" stroke-linecap="round" stroke-linejoin="round" stroke-width=".3"/>
  <circle cx="19.9" cy="107.5" r=".2"/>
  <circle cx="21.2" cy="107.5" r=".6" fill="#febf10" stroke="#000" stroke-linecap="round" stroke-linejoin="round" stroke-width=".3"/>
  <circle cx="21.2" cy="107.5" r=".2"/>
  <circle cx="22.4" cy="107.7" r=".6" fill="#febf10" stroke="#000" stroke-linecap="round" stroke-linejoin="round" stroke-width=".3"/>
  <circle cx="22.4" cy="107.7" r=".2"/>
  <circle cx="23.6" cy="107.8" r=".6" fill="#febf10" stroke="#000" stroke-linecap="round" stroke-linejoin="round" stroke-width=".3"/>
  <circle cx="23.6" cy="107.8" r=".2"/>
  <path d="M19.6 115.4a1.4 1.4 0 0 0 1.1-1.1.6.6 0 0 0-.8-.7.9.9 0 0 0-1.4-.2c0 .2-.1.2-.3.2s-.6.4-.5.8a1.3 1.3 0 0 0 1.3 1zM18 115a1.5 1.5 0 0 1-.5-1.3c0-.4-.5-.4-.8-.1s-.3-.2-.6-.2-.3.5-.2.8a2 2 0 0 0 1.9 1c.1 0 .3 0 .2-.2zm2.4.2a2.1 2.1 0 0 0 2.1-.9c.1-.3.2-.8-.2-.9s-.4.4-.6.2a.6.6 0 0 0-.8-.1c-.1.4 0 .8-.2 1.1s-.3.4-.3.6z" fill="red" stroke="#000" stroke-linecap="round" stroke-linejoin="round" stroke-width=".41"/>
  <path d="M14.1 107.2c-.3 0-.5-.3-.6-.6a.6.6 0 0 1 .5-.6 38.3 38.3 0 0 1 5.2-.5 38.3 38.3 0 0 1 5.2.5.4.4 0 0 1 .4.6.6.6 0 0 1-.5.6h-.2a23.1 23.1 0 0 0-4.9-.5 24.9 24.9 0 0 0-5 .5z" fill="#febf10" stroke="#000" stroke-linecap="round" stroke-linejoin="round" stroke-width=".41"/>
  <path d="M22.2 109.4h-1.9m1.2.4h-.8m-3.5.5h.4m3.6-.1h-.4" fill="none" stroke="#000" stroke-linecap="round" stroke-linejoin="round" stroke-width=".41"/>
  <path d="M14.7 121.7a2.8 2.8 0 0 1-2.3-2.6 3.6 3.6 0 0 1 2.2-3.5 10.2 10.2 0 0 1 4.6-.9 9.6 9.6 0 0 1 4.5.9 3.6 3.6 0 0 1 2.3 3.5 2.8 2.8 0 0 1-2.3 2.6h-9z" fill="#febf10"/>
  <path d="M16.4 121.6s-1.6-5.1 3.5-6.9c0-.1-4.8-.2-6.4 1.6s-1.2 3.4-.5 4.4a3.3 3.3 0 0 0 3.4.9z" fill="#d09b07"/>
  <path d="M14.7 121.7a2.8 2.8 0 0 1-2.3-2.6 3.6 3.6 0 0 1 2.2-3.5 10.2 10.2 0 0 1 4.6-.9 9.6 9.6 0 0 1 4.5.9 3.6 3.6 0 0 1 2.3 3.5 2.8 2.8 0 0 1-2.3 2.6h-9z" fill="none" stroke="#000" stroke-linecap="round" stroke-linejoin="round" stroke-width=".41"/>
  <path d="M13.7 124.1h11v-2.4l-5.5-.7-5.5.7z" fill="#d09b07" stroke="#000" stroke-linecap="round" stroke-linejoin="round" stroke-width=".41"/>
  <path d="M16.2 122.3a1.9 1.9 0 0 0-1.3-.4 2.1 2.1 0 0 0-1.1.9 2.2 2.2 0 0 0 1.4.4 2.2 2.2 0 0 0 1-.9z" fill="#febf10" stroke="#000" stroke-linecap="round" stroke-linejoin="round" stroke-width=".3"/>
  <path fill="none" stroke="#000" stroke-linecap="round" stroke-linejoin="round" stroke-width=".3" d="M16.2 122.3l-1.3.3"/>
  <path d="M17.6 122a1.9 1.9 0 0 0-1.3-.4 2.1 2.1 0 0 0-1.1.9 2.1 2.1 0 0 0 1.3.4 1.7 1.7 0 0 0 1.1-.9z" fill="#febf10" stroke="#000" stroke-linecap="round" stroke-linejoin="round" stroke-width=".3"/>
  <path fill="none" stroke="#000" stroke-linecap="round" stroke-linejoin="round" stroke-width=".3" d="M17.6 122l-1.3.3"/>
  <path d="M19.2 122.1a1.7 1.7 0 0 0-1.3-.6 1.7 1.7 0 0 0-1.2.7 2.1 2.1 0 0 0 1.3.6 2.2 2.2 0 0 0 1.2-.7z" fill="#febf10" stroke="#000" stroke-linecap="round" stroke-linejoin="round" stroke-width=".3"/>
  <path fill="none" stroke="#000" stroke-linecap="round" stroke-linejoin="round" stroke-width=".3" d="M19.2 122.1h-1.4"/>
  <path d="M22.2 122.3a1.6 1.6 0 0 1 1.3-.3 1.7 1.7 0 0 1 1.1.8 1.7 1.7 0 0 1-1.4.4c-.6-.1-1-.9-1-.9z" fill="#febf10" stroke="#000" stroke-linecap="round" stroke-linejoin="round" stroke-width=".3"/>
  <path fill="none" stroke="#000" stroke-linecap="round" stroke-linejoin="round" stroke-width=".3" d="M22.2 122.3l1.3.3"/>
  <path d="M20.8 122.1a1.5 1.5 0 0 1 1.3-.4 1.7 1.7 0 0 1 1.1.8 2.1 2.1 0 0 1-1.3.4 1.7 1.7 0 0 1-1.1-.8z" fill="#febf10" stroke="#000" stroke-linecap="round" stroke-linejoin="round" stroke-width=".3"/>
  <path fill="none" stroke="#000" stroke-linecap="round" stroke-linejoin="round" stroke-width=".3" d="M20.8 122.1l1.3.2"/>
  <path d="M19.2 122.1a2.1 2.1 0 0 1 1.3-.6 2.2 2.2 0 0 1 1.2.7 2.1 2.1 0 0 1-1.3.6 1.7 1.7 0 0 1-1.2-.7z" fill="#febf10" stroke="#000" stroke-linecap="round" stroke-linejoin="round" stroke-width=".3"/>
  <path fill="none" stroke="#000" stroke-linecap="round" stroke-linejoin="round" stroke-width=".3" d="M19.2 122.1l1.4.1"/>
  <path d="M20.2 120.8H20l-2.2 2.2a.2.2 0 0 0 0 .3.2.2 0 0 0 .4.1l2.2-2.2a.3.3 0 0 0 0-.4z" fill="#0065b7" stroke="#000" stroke-linecap="round" stroke-linejoin="round" stroke-width=".35"/>
  <path d="M18.1 120.7h-.2a.3.3 0 0 0 0 .4l2 2h.4c.1-.2.1-.3 0-.4l-2-2z" fill="#0065b7" stroke="#000" stroke-linecap="round" stroke-linejoin="round" stroke-width=".35"/>
  <path d="M26.8 125.7c0-1.6-3.4-2.8-7.6-2.8s-7.6 1.2-7.6 2.8c0 1.5 3.4 2.8 7.6 2.8s7.6-1.3 7.6-2.8z" fill="red"/>
  <path d="M13.7 126.3s5.8-2.7 10.9.1c0-.1.4.2.6-.5s-1.1-1.7-4.6-1.7-5.8.3-6.5.7-1.5.8-.4 1.4z" fill="#980805"/>
  <path d="M26.8 125.7c0-1.6-3.4-2.8-7.6-2.8s-7.6 1.2-7.6 2.8c0 1.5 3.4 2.8 7.6 2.8s7.6-1.3 7.6-2.8z" fill="none" stroke="#000" stroke-linecap="round" stroke-linejoin="round" stroke-width=".38"/>
  <path d="M24.7 126.3c.3-.2.5-.4.5-.6 0-.8-2.7-1.5-6-1.5s-6 .7-6 1.5c0 .2.2.4.5.6" fill="none" stroke="#000" stroke-linecap="round" stroke-linejoin="round" stroke-width=".36"/>
  <path d="M12.7 119.5c-.8 0-.4-5 6.5-4.8 6.9-.2 7.3 4.8 6.5 4.8h-.1a.7.7 0 0 1-.4-.5c0 .2-.2.3-.4.3s-.3-.4-.4-.8-.2.6-.6.5-.4-.4-.5-.8-.2.7-.6.7-.7-.3-.9-.7a.7.7 0 0 1-.7.6c-.5 0-.8-.4-1-.9s-.4.9-.9.9-.8-.4-.9-.9-.5.9-1 .9a.7.7 0 0 1-.7-.6c-.2.4-.4.7-.9.7s-.6-.3-.6-.7-.2.7-.5.8-.6-.1-.6-.5-.2.7-.4.8-.4-.1-.4-.3a.7.7 0 0 1-.4.5z" fill="none" stroke="#000" stroke-linecap="round" stroke-linejoin="round" stroke-width=".41"/>
  <path d="M12.8 119.5c-1 .3-.7-5.1 6.4-4.8-7.4.7-5.3 4.4-6.4 4.8z" fill="#325723" stroke="#000" stroke-linecap="round" stroke-linejoin="round" stroke-width=".41"/>
  <path d="M13.6 119.3c-1.1.3-.7-4.6 5.6-4.6-6.4.6-4.5 4.2-5.6 4.6z" fill="#325723" stroke="#000" stroke-linecap="round" stroke-linejoin="round" stroke-width=".41"/>
  <path d="M14.6 119c-1.4.4-.6-4.3 4.6-4.3-5.1 1.3-3.5 4-4.6 4.3z" fill="#325723" stroke="#000" stroke-linecap="round" stroke-linejoin="round" stroke-width=".41"/>
  <path d="M15.7 118.9c-1.4 0-.6-3.5 3.5-4.2-3.2 1.4-1.9 4.2-3.5 4.2z" fill="#325723" stroke="#000" stroke-linecap="round" stroke-linejoin="round" stroke-width=".41"/>
  <path d="M17.3 118.8c-1.4 0-.9-3.3 1.9-4.1-1.1 1.4-.4 4.1-1.9 4.1zm8.3.7c1 .3.7-5.1-6.4-4.8 7.4.7 5.3 4.4 6.4 4.8z" fill="#325723" stroke="#000" stroke-linecap="round" stroke-linejoin="round" stroke-width=".41"/>
  <path d="M24.8 119.3c1.1.3.7-4.6-5.6-4.6 6.4.6 4.5 4.2 5.6 4.6z" fill="#325723" stroke="#000" stroke-linecap="round" stroke-linejoin="round" stroke-width=".41"/>
  <path d="M23.8 119c1.4.4.6-4.3-4.6-4.3 5.1 1.3 3.5 4 4.6 4.3z" fill="#325723" stroke="#000" stroke-linecap="round" stroke-linejoin="round" stroke-width=".41"/>
  <path d="M22.7 118.9c1.4 0 .6-3.5-3.5-4.2 3.2 1.4 1.9 4.2 3.5 4.2z" fill="#325723" stroke="#000" stroke-linecap="round" stroke-linejoin="round" stroke-width=".41"/>
  <path d="M21.1 118.8c1.4 0 .9-3.3-1.9-4.1 1.1 1.4.4 4.1 1.9 4.1z" fill="#325723" stroke="#000" stroke-linecap="round" stroke-linejoin="round" stroke-width=".41"/>
  <path d="M19.2 118.8c-1.4 0-1.3-2.7 0-4.1 1.3 1.4 1.4 4.1 0 4.1z" fill="#325723" stroke="#000" stroke-linecap="round" stroke-linejoin="round" stroke-width=".41"/>
  <path d="M19.2 118c-.9 0-.8-2.1 0-3.2.8 1.1.9 3.2 0 3.2z" fill="#0d3a12" stroke="#000" stroke-linecap="round" stroke-linejoin="round" stroke-width=".41"/>
  <path d="M13.6 122.2c-.2 0-.3-.2-.3-.4s0-.3.2-.4a18.2 18.2 0 0 1 5.6-.9h.2a18.2 18.2 0 0 1 5.6.9c.2.1.3.3.2.4a.4.4 0 0 1-.3.4h-.2a16.6 16.6 0 0 0-5.4-.8 16.6 16.6 0 0 0-5.4.8zm.3-12.8a.4.4 0 0 1-.3-.4.3.3 0 0 1 .3-.3 27.3 27.3 0 0 1 5.3-.5 27.3 27.3 0 0 1 5.3.5.3.3 0 0 1 .3.3.4.4 0 0 1-.4.4 39.3 39.3 0 0 0-5.2-.4 39.3 39.3 0 0 0-5.2.4.1.1 0 0 1-.1 0z" fill="#febf10" stroke="#000" stroke-linecap="round" stroke-linejoin="round" stroke-width=".41"/>
  <path fill="none" stroke="#000" stroke-linecap="round" stroke-linejoin="round" stroke-width=".4" d="M8 7.9h62v124.31H8zM8.1 70H70"/>
</svg>
