<svg xmlns="http://www.w3.org/2000/svg" viewBox="0 0 78 140">
  <rect width="78" height="140" rx="6" ry="6" fill="#fff"/>
  <path d="M64.1 130.7s-1.4-2.6-2.8-3.4a2.6 2.6 0 0 0 .4-2.2l.5-.2a2.9 2.9 0 0 0 1.8 1.4c-.6 1.5.1 4.4.1 4.4" fill="#0065b7"/>
  <path d="M63.4 128.7a10.5 10.5 0 0 0-1.6-2.5 2.6 2.6 0 0 0 0-1.4h.2a2.4 2.4 0 0 0 1 1.1 8.5 8.5 0 0 0 .4 2.9" fill="#004da1"/>
  <path d="M64.1 130.7s-.7-2.9-.1-4.4a2.9 2.9 0 0 1-1.8-1.4" fill="none" stroke="#000" stroke-linecap="round" stroke-linejoin="round" stroke-width=".4"/>
  <path d="M61.7 125.1a2.6 2.6 0 0 1-.4 2.2c1.4.8 2.8 3.4 2.8 3.4" fill="none" stroke="#000" stroke-linecap="round" stroke-linejoin="round" stroke-width=".4"/>
  <path d="M64.2 130.7s-1.5-2.6-2.9-3.3a3 3 0 0 0 .3-2.2m.6-.2a2.9 2.9 0 0 0 1.7 1.3c-.5 1.5.3 4.4.3 4.4" fill="none" stroke="#000" stroke-linecap="round" stroke-linejoin="round" stroke-width=".4"/>
  <path d="M48.3 112.6a20.1 20.1 0 0 1 2.4-1.8c.9-.5.8-4.3.8-4.3l-3.7-2.9-5.3.6-1.8 2.6 1.7.7-.5 1.6 4 2.8z" fill="#f3bc84"/>
  <path d="M44.6 109.8a12.6 12.6 0 0 0 1.7-5.3H45l-2 .5-1.9 1.4v.6l1.6.6-.7 1.4 1.5.3z" fill="#c69c6d"/>
  <path d="M48.3 112.6a20.1 20.1 0 0 1 2.4-1.8c.9-.5.8-4.3.8-4.3l-3.7-2.9-5.3.6-1.8 2.6 1.7.7" fill="none" stroke="#000" stroke-linecap="round" stroke-linejoin="round" stroke-width=".4"/>
  <path fill="#004da1" d="M52 106.4l-5.1-2.9-3.1.2-3.7 2-4.6-14.9.5-7.5 3.5-.5h4.8l1.7.7 7.6 21.1-1.6 1.8z"/>
  <path fill="#325723" d="M48 79.7l-12.7-.4-2.5-9.4h15.3l-.1 9.8z"/>
  <path fill="#0d3a12" d="M40.9 76.5l-4.7.5-3.3-6.9h7.7l.3 6.4z"/>
  <path d="M42.4 83.1c.9 15.1 4.1 20.7 3.8 20l-1.5.3c-.2-.2-2.2-3.7-3.8-20.2z" fill="#325723" stroke="#000" stroke-linecap="round" stroke-linejoin="round" stroke-width=".4"/>
  <path d="M30.7 92.8a8.9 8.9 0 0 1 1.5 2.9 34 34 0 0 0 2.2 5l1.5-.4L33 69.9h-1.7l-1.6 11.5z" fill="red"/>
  <path d="M52 99.9a1.9 1.9 0 0 1-1.2 2.5 1.9 1.9 0 0 1-2.5-1.1 2 2 0 0 1 .3-2 4.9 4.9 0 0 0-2.5 2.9 3.8 3.8 0 0 1 2.5-4.8l1.5-.3 1.1 1.8a2 2 0 0 1 .8 1z" fill="#325723" stroke="#000" stroke-linecap="round" stroke-linejoin="round" stroke-width=".4"/>
  <path d="M50.3 94.9a1.9 1.9 0 0 1-1.1 2.5 2 2 0 0 1-2.6-1.1 2 2 0 0 1 .4-2 4.8 4.8 0 0 0-2.6 2.9 3.8 3.8 0 0 1 2.5-4.8l1.5-.3 1.1 1.8a2 2 0 0 1 .8 1z" fill="#325723" stroke="#000" stroke-linecap="round" stroke-linejoin="round" stroke-width=".4"/>
  <path d="M49.2 89.7a1.9 1.9 0 0 1-3.6 1.4 2 2 0 0 1 .3-2 4.6 4.6 0 0 0-2.6 2.9 3.8 3.8 0 0 1 2.5-4.8l1.5-.3 1.2 1.8a1.5 1.5 0 0 1 .7 1zm-1.7-4.6a1.6 1.6 0 0 1-2.9 1.1 1.4 1.4 0 0 1 .3-1.5 3.8 3.8 0 0 0-2.1 2.3 2.9 2.9 0 0 1 2-3.8l1.8-.4.6 1.5c.2.2.2.5.3.8zm-9.9 17a2 2 0 0 0 2 2 1.9 1.9 0 0 0 1.9-2 1.8 1.8 0 0 0-1-1.7 4.9 4.9 0 0 1 3.5 1.8 3.8 3.8 0 0 0-4.1-3.6l-1.5.2-.4 2.1a2.1 2.1 0 0 0-.4 1.2zm-1.5-5.4a1.9 1.9 0 0 0 2 1.9A1.9 1.9 0 0 0 39 95a4.9 4.9 0 0 1 3.5 1.8 3.8 3.8 0 0 0-4.1-3.6l-1.5.2-.4 2.1a2.1 2.1 0 0 0-.4 1.2zm-.7-5.6a2 2 0 0 0 4 0 2.1 2.1 0 0 0-1-1.7 4.6 4.6 0 0 1 3.4 1.8 3.8 3.8 0 0 0-4-3.6l-1.5.2-.5 2.2a2.1 2.1 0 0 0-.4 1.1z" fill="#325723" stroke="#000" stroke-linecap="round" stroke-linejoin="round" stroke-width=".4"/>
  <path d="M36.1 86.1a1.5 1.5 0 0 0 1.6 1.5 1.5 1.5 0 0 0 1.5-1.5 1.6 1.6 0 0 0-.8-1.4 3.9 3.9 0 0 1 2.7 1.5 2.9 2.9 0 0 0-3.1-2.9l-1.8.3v1.6c-.3.3-.1.6-.1.9z" fill="#325723" stroke="#000" stroke-linecap="round" stroke-linejoin="round" stroke-width=".4"/>
  <path d="M47.6 83.8l.8-6.4a32.9 32.9 0 0 0-7.2-.9 26.2 26.2 0 0 0-6.8.9l1.2 6.3a32.6 32.6 0 0 1 6.1-.6 24.9 24.9 0 0 1 5.9.7zm-12-.1z" fill="#e6e6e6" stroke="#000" stroke-linecap="round" stroke-linejoin="round" stroke-width=".4"/>
  <path d="M46.7 82.5a26 26 0 0 0-5-.4 31.7 31.7 0 0 0-5.3.4l-.8-4.4a27.5 27.5 0 0 1 5.6-.6 30.8 30.8 0 0 1 6.1.7l-.6 4.3" fill="red"/>
  <path fill="#980805" d="M39 82.1v-4.6l-3.1.5.4 4.5 2.7-.4z"/>
  <path d="M46.7 82.5a26 26 0 0 0-5-.4 31.7 31.7 0 0 0-5.3.4l-.8-4.4a27.5 27.5 0 0 1 5.6-.6 30.8 30.8 0 0 1 6.1.7l-.6 4.3" fill="none" stroke="#000" stroke-linecap="round" stroke-linejoin="round" stroke-width=".4"/>
  <path d="M24.2 89.6a12.9 12.9 0 0 0-1.2-2.3 1 1 0 0 1 .8.2 14.1 14.1 0 0 1-1.3-2.4l.6.2-.7-2a5.7 5.7 0 0 1-.3-2.3l.6.4a14.2 14.2 0 0 1-1-2.1l.7.2a5.6 5.6 0 0 1-1.2-1.9l.7.2a7 7 0 0 1-.4-3.9l.4.6a16.3 16.3 0 0 0-.4-1.8l.7.2a4.1 4.1 0 0 1-.8-2.7h5l1 17.1s-1.7-.1-3.2 2.3z" fill="#b3b3b3"/>
  <path d="M24.1 90.3s0-1.5 2.5-3.1.7 5.7.7 5.7h-1.8z" fill="red" stroke="#000" stroke-linecap="round" stroke-linejoin="round" stroke-width=".4"/>
  <path d="M70.1 93.3a18.1 18.1 0 0 1-2.1 2.3c-2.7 7.1-6.2 9.4-9.7 11.2s-6.8 3.6-6.8 3.6l2.3-6.5-6.1-24 1-9.9h21.5z" fill="red"/>
  <path d="M60.9 99.6s-2.2-5.1 1.4-12.1a5.4 5.4 0 0 1-2.7-1.4c-.9-1.2-3.5-1.5-3.5-1.5l-1.1.6v1.4s5.3 12.8 5.9 13z" fill="#980805"/>
  <path d="M60.1 86.4s6.3-8.6 7.2-16.5h-8.5l-3.2 15.5z" fill="#980805"/>
  <path d="M51.5 110.4s3.2-1.9 6.8-3.6 7-4.1 9.7-11.2a18.1 18.1 0 0 0 2.1-2.3" fill="none" stroke="#000" stroke-linecap="round" stroke-linejoin="round" stroke-width=".4"/>
  <path d="M51 80.6l-.2-2.5.6.5a11 11 0 0 0-.4-2.5s.5 0 .6.2a16.1 16.1 0 0 0-.4-3.4s.6-.1.7.2a23.2 23.2 0 0 1-.4-2.8" fill="none" stroke="#ed1e79" stroke-linecap="round" stroke-linejoin="round" stroke-width=".4"/>
  <path d="M24.2 89.6a12.9 12.9 0 0 0-1.2-2.3 1 1 0 0 1 .8.2 14.1 14.1 0 0 1-1.3-2.4l.6.2-.7-2a5.7 5.7 0 0 1-.3-2.3l.6.4a14.2 14.2 0 0 1-1-2.1l.7.2a5.6 5.6 0 0 1-1.2-1.9l.7.2a7 7 0 0 1-.4-3.9l.4.6a16.3 16.3 0 0 0-.4-1.8l.7.2a4.1 4.1 0 0 1-.8-2.7" fill="none" stroke="#000" stroke-linecap="round" stroke-linejoin="round" stroke-width=".4"/>
  <path d="M24.6 96.8l3.4-1.5c.1-.1-.6-4.7-3.9-5l-2.9 2.5s3.1.2 3.4 4z" fill="#febf10" stroke="#000" stroke-linecap="round" stroke-linejoin="round" stroke-width=".4"/>
  <path d="M24.6 97s-1.6 4.6-3.9 5.7a7.5 7.5 0 0 1-4.9.3l.4-5.8 1.8-.7s2.2-3.3 3.2-3.7 3.3 1.5 3.4 4.2z" fill="#f3bc84" stroke="#000" stroke-linecap="round" stroke-linejoin="round" stroke-width=".4"/>
  <path d="M45.7 102.9h.7a7.4 7.4 0 0 1 6.1 3.8l-1.1.9a6.7 6.7 0 0 0-5.1-3.2c-3.7-.3-4.9 1.7-5.2 2.2l-1.4-.6c.4-.8 1.8-3.1 6-3.1z" fill="#e6e6e6" stroke="#000" stroke-linecap="round" stroke-linejoin="round" stroke-width=".4"/>
  <path d="M62.2 87.4a4.4 4.4 0 0 1-2.7-1.4 4.6 4.6 0 0 0-3.4-1.2" fill="none" stroke="#000" stroke-linecap="round" stroke-linejoin="round" stroke-width=".4"/>
  <path d="M50.5 111l10.9-5.8c.2-1.1-.1-6.9-4.3-14.4S54.4 76 55.2 70h-7.8c-1.1 8.4-2.6 19.1 1.3 26 2 3.5 3.8 12.5 1.8 15z" fill="#325723" stroke="#000" stroke-linecap="round" stroke-linejoin="round" stroke-width=".4"/>
  <path d="M52.3 108.9c.5-4.1-1.1-10.6-2.7-13.4-3.6-6.4-2.4-16.4-1.3-24.4h5.6a7.8 7.8 0 0 1-.2 1.4c-.8 5.3-1.7 11.3 2.5 18.8s4.3 11.6 4.3 13.3l-8.2 4.3" fill="#0065b7"/>
  <path d="M52.3 108.9c.5-4.1-1.1-10.6-2.7-13.4-3.6-6.4-2.4-16.4-1.3-24.4h5.6a7.8 7.8 0 0 1-.2 1.4c-.8 5.3-1.7 11.3 2.5 18.8s4.3 11.6 4.3 13.3l-8.2 4.3" fill="none" stroke="#000" stroke-linecap="round" stroke-linejoin="round" stroke-width=".4"/>
  <path d="M41.4 107.1c-1.2-2.2-4-8.7-5.4-30.3l-3.1-6.6c-1.3 24.4 1.9 31.6 2.6 33.1s5.9 3.8 5.9 3.8z" fill="#325723" stroke="#000" stroke-linecap="round" stroke-linejoin="round" stroke-width=".4"/>
  <path d="M51 89.1s-.7 2.7 1.3 4 3.2 1.8 3.6 2.7-1.7-1.7-2.5-1.8-2.5-.2-2.5 1.6.9 2.5 1.9 2.3 1.2-1.6.4-2.2h-.5c.4-.2 1-.1 1.8.5 2.4 1.7.9 5.2.9 5.2-.9-2-2-1.7-2-1.7 1.5 1.4.9 4.5.9 4.5l.5 1.2s1.3-2.9 4.3-.6c0 0-.1-2.9-3.5-1.1a2.6 2.6 0 0 1 4.1-.8s0-1.3-.9-1.7a2.2 2.2 0 0 0 0-1.8s-.8 2.5-2.2 2.5 1.7-4.2 1-6.4a6.4 6.4 0 0 0-3.6-3.7h.1s-.7-.5-.7-2.2-.1-3.3-1.5-4.7l-.3.6c.4.3.7 1.3.7 2.8s.2 2.4.2 2.6a3.7 3.7 0 0 1-1.5-1.8z" fill="#febf10"/>
  <path d="M54.8 105.3s1.3-2.9 4.3-.6c0 0-.1-2.9-3.5-1.1a2.6 2.6 0 0 1 4.1-.8s0-1.3-.9-1.7a2.1 2.1 0 0 0-.1-1.8s-.7 2.5-2.1 2.5 1.6-4.2 1-6.4-2.6-3.1-4.4-4.1a3.7 3.7 0 0 1-2.2-2.2s-.8 2.7 1.2 4 3.3 1.8 3.7 2.7" fill="none" stroke="#000" stroke-linecap="round" stroke-linejoin="round" stroke-width=".4"/>
  <path d="M54.3 104.1s.6-3.1-.9-4.5c0 0 1.1-.3 2 1.7 0 0 1.5-3.5-.9-5.2s-2.6.8-2 1" fill="none" stroke="#000" stroke-linecap="round" stroke-linejoin="round" stroke-width=".4"/>
  <path d="M53.7 94.1s-2.8-.3-2.8 1.5.8 2.5 1.8 2.3 1.2-1.7.4-2.3m1-3.8s-.7-.5-.7-2.2a6.3 6.3 0 0 0-1.5-4.7m.6 6s-.1-1.1-.2-2.6-.3-2.5-.7-2.8" fill="none" stroke="#000" stroke-linecap="round" stroke-linejoin="round" stroke-width=".4"/>
  <path d="M48.2 75.9a2.3 2.3 0 0 0-.6 2c0 .3 1 2 2.1.9s-.9-2.1-.9-2.1l3.2 2.1-.4-2.2a.9.9 0 0 0-.6-.4v-.3l.4.5.7-.5v-1.1s-2.7-1.8-3.2-3.5a8.2 8.2 0 0 0 .1 1 4.1 4.1 0 0 0 .4 3.5z" fill="#febf10"/>
  <path d="M52 78.8s-1.8-3-3.2-2.1 1.9.9.9 2.1-2.1-.6-2.1-.9a2.3 2.3 0 0 1 .6-2c.5-.5 2.8-.1 3.4.7m.5-1.8s-2.7-1.8-3.2-3.5c0 0-.3 1.9 2.6 5.1" fill="none" stroke="#000" stroke-linecap="round" stroke-linejoin="round" stroke-width=".4"/>
  <path d="M16.3 98v-.8a3.8 3.8 0 0 0-3.3-2.7c-.4-.1-.1-.9.6-1.2v-.7h8.2v.6c1 .1 1.4 1.2.9 1.3a3.9 3.9 0 0 0-3.3 2.7v.8h-.9v-.8c.2-.7 0-1.1-.1.3h-1c-.2-1.4-.4-1-.2-.3v.8z" fill="#325723"/>
  <path d="M17.2 98v-.8c-.3-1.1-1-3.5-2.5-3.9s-2.2 1.1-1.7 1.2a3.8 3.8 0 0 1 3.3 2.7v.8zm2.2 0v-.8a3.9 3.9 0 0 1 3.3-2.7c.5-.1 0-1.7-1.6-1.2s-2.3 2.8-2.6 3.9v.8z" fill="#3c6d3d" stroke="#000" stroke-linecap="round" stroke-linejoin="round" stroke-width=".24"/>
  <path d="M17.2 98v-.8c-.3-1.1-1-3.5-2.5-3.9s-2.2 1.1-1.7 1.2a3.8 3.8 0 0 1 3.3 2.7v.8zm2.2 0v-.8a3.9 3.9 0 0 1 3.3-2.7c.5-.1 0-1.7-1.6-1.2s-2.3 2.8-2.6 3.9v.8z" fill="#febf10" stroke="#000" stroke-linecap="round" stroke-linejoin="round" stroke-width=".41"/>
  <path d="M17.4 97.5c-.2-1.6-1.2-2.5-1-3.7s.6-.8 1.5-.8 1.4.3 1.5.8-.8 2.1-1 3.7h-1z" fill="#febf10" stroke="#000" stroke-linecap="round" stroke-linejoin="round" stroke-width=".41"/>
  <path d="M17.6 97.2c-.1-1.2-.6-1.9-.5-2.8a.8.8 0 0 1 .8-.6c.4 0 .7.2.7.6s-.4 1.6-.5 2.8h-.5z" fill="#d09b07" stroke="#000" stroke-linecap="round" stroke-linejoin="round" stroke-width=".41"/>
  <path d="M15 93.3h1.8" fill="none" stroke="#000" stroke-linecap="round" stroke-linejoin="round" stroke-width=".41"/>
  <path d="M12.9 92.7h10v-2l-5-.6-5 .6z" fill="#d09b07" stroke="#000" stroke-linecap="round" stroke-linejoin="round" stroke-width=".41"/>
  <circle cx="13.6" cy="91.7" r=".6" fill="#febf10" stroke="#000" stroke-linecap="round" stroke-linejoin="round" stroke-width=".3"/>
  <circle cx="13.6" cy="91.7" r=".2"/>
  <circle cx="14.8" cy="91.6" r=".6" fill="#febf10" stroke="#000" stroke-linecap="round" stroke-linejoin="round" stroke-width=".3"/>
  <circle cx="14.8" cy="91.6" r=".2"/>
  <circle cx="16.1" cy="91.5" r=".6" fill="#febf10" stroke="#000" stroke-linecap="round" stroke-linejoin="round" stroke-width=".3"/>
  <circle cx="16.1" cy="91.5" r=".2"/>
  <circle cx="17.3" cy="91.4" r=".6" fill="#febf10" stroke="#000" stroke-linecap="round" stroke-linejoin="round" stroke-width=".3"/>
  <circle cx="17.3" cy="91.4" r=".2"/>
  <circle cx="18.6" cy="91.4" r=".6" fill="#febf10" stroke="#000" stroke-linecap="round" stroke-linejoin="round" stroke-width=".3"/>
  <circle cx="18.6" cy="91.4" r=".2"/>
  <circle cx="19.8" cy="91.5" r=".6" fill="#febf10" stroke="#000" stroke-linecap="round" stroke-linejoin="round" stroke-width=".3"/>
  <circle cx="19.8" cy="91.5" r=".2"/>
  <circle cx="21.1" cy="91.6" r=".6" fill="#febf10" stroke="#000" stroke-linecap="round" stroke-linejoin="round" stroke-width=".3"/>
  <circle cx="21.1" cy="91.6" r=".2"/>
  <circle cx="22.2" cy="91.8" r=".6" fill="#febf10" stroke="#000" stroke-linecap="round" stroke-linejoin="round" stroke-width=".3"/>
  <circle cx="22.2" cy="91.8" r=".2"/>
  <path d="M12.9 91.1a.6.6 0 1 1-.1-1.1 25.1 25.1 0 0 1 5.1-.5 25.9 25.9 0 0 1 5.1.5.6.6 0 0 1 .5.6.6.6 0 0 1-.6.5h-.1a34.7 34.7 0 0 0-4.9-.4 33.4 33.4 0 0 0-4.9.4z" fill="#febf10" stroke="#000" stroke-linecap="round" stroke-linejoin="round" stroke-width=".41"/>
  <path d="M20.8 93.3H19" fill="none" stroke="#000" stroke-linecap="round" stroke-linejoin="round" stroke-width=".41"/>
  <path d="M12.7 93.3a.3.3 0 0 1-.3-.3.3.3 0 0 1 .2-.4 39.6 39.6 0 0 1 5.3-.4 39.3 39.3 0 0 1 5.2.4c.2 0 .3.2.3.4l-.3.3H23a25.1 25.1 0 0 0-5.1-.5 25.1 25.1 0 0 0-5.1.5z" fill="#febf10" stroke="#000" stroke-linecap="round" stroke-linejoin="round" stroke-width=".41"/>
  <path d="M49.4 75.7a4.1 4.1 0 0 1-.4-3.5m-14.5 28.6a34 34 0 0 1-2.3-5.1 8.9 8.9 0 0 0-1.5-2.9" fill="none" stroke="#000" stroke-linecap="round" stroke-linejoin="round" stroke-width=".4"/>
  <path fill="red" stroke="#000" stroke-linecap="round" stroke-linejoin="round" stroke-width=".4" d="M41 70l19.6 50.3-1.1.4L39.8 70H41z"/>
  <path d="M15.2 98s-.2-.4.4-1.1a3.6 3.6 0 0 1 2.6-.5c.5.1 1.3.5.5 1.1" fill="#f3bc84" stroke="#000" stroke-linecap="round" stroke-linejoin="round" stroke-width=".4"/>
  <path d="M15.2 99.4a.7.7 0 0 1-.4-1c.4-.7 3.1-1.2 3.6-1a8.5 8.5 0 0 1 1.4.9" fill="#f3bc84" stroke="#000" stroke-linecap="round" stroke-linejoin="round" stroke-width=".4"/>
  <path d="M15.3 101a.9.9 0 0 1-.4-1.1 2.4 2.4 0 0 1 2.3-1.1 7.7 7.7 0 0 1 1.9.8" fill="#f3bc84" stroke="#000" stroke-linecap="round" stroke-linejoin="round" stroke-width=".4"/>
  <path d="M16.2 102.3s-1 .2-1.2 0a1 1 0 0 1 .5-1.4 3.8 3.8 0 0 1 3.2-.4" fill="#f3bc84" stroke="#000" stroke-linecap="round" stroke-linejoin="round" stroke-width=".4"/>
  <path d="M21 97.3a8.3 8.3 0 0 0-2 3 1.7 1.7 0 0 1-1.1.9c-.7.1-1.7.4-1.7 1.1s3.5.3 4.7-.5" fill="none" stroke="#000" stroke-linecap="round" stroke-linejoin="round" stroke-width=".4"/>
  <path d="M25 71.6l.4 1.7a19.1 19.1 0 0 1 .4 2l-.6-.3a13.6 13.6 0 0 0 .3 1.6 3 3 0 0 0 .2 1 25.7 25.7 0 0 0-.1 4.7c.2 2.2 1 2.5 1 2.5l-.6-.2a11.6 11.6 0 0 0 .9 3c.6 1.1 0 5.7 0 6.4a8.3 8.3 0 0 1-.8 2.3s4-1.1 4.8-4.2a32 32 0 0 1 1.1-4.3l-.7.4a21.8 21.8 0 0 0 .6-5.4l-.6.6a26.3 26.3 0 0 0 .1-5.5 3.4 3.4 0 0 0-.4 1s.2-4.2.3-5.2.3-3.6.3-3.6h-6.2a3.2 3.2 0 0 0 .4 2z" fill="#e6e6e6"/>
  <path d="M26.3 78.4a2.6 2.6 0 0 1-.8-1.8 13.6 13.6 0 0 1-.3-1.6l.6.3a19.1 19.1 0 0 0-.4-2l-.4-1.7.7.5a3.5 3.5 0 0 1-.3-2" fill="none" stroke="#000" stroke-linecap="round" stroke-linejoin="round" stroke-width=".4"/>
  <path d="M31.6 70.1s-.2 2.6-.3 3.6-.3 5.2-.3 5.2a3.4 3.4 0 0 1 .4-1 23.4 23.4 0 0 1-.2 5.5l.7-.6a21.8 21.8 0 0 1-.6 5.4l.7-.4a32 32 0 0 0-1.1 4.2c-.8 3.1-4.8 4.2-4.8 4.2a8.3 8.3 0 0 0 .8-2.3c0-.7.6-5.3 0-6.4a11.6 11.6 0 0 1-.9-3l.6.2s-.8-.3-1-2.5a25.7 25.7 0 0 1 .1-4.7" fill="none" stroke="#000" stroke-linecap="round" stroke-linejoin="round" stroke-width=".4"/>
  <path d="M39.3 104.9a15.5 15.5 0 0 1-2.9-2c-2.2-5-3.1-15.1-2.7-28.6l1.3 2.8c.9 12.8 2.3 22.3 4.3 27.8" fill="#0065b7"/>
  <path d="M36.5 92.8a5.3 5.3 0 0 0-1.7 4.5c.4 3 3.5 4.6 3.5 4.6l-.3-1.6a4.5 4.5 0 0 1-2.1-2.9 5.2 5.2 0 0 1 .8-3.4zm-.8-7.7s-1.9 3.8-1.6 6.1 1.3 2.6 1.3 2.6l.6-.6a3.6 3.6 0 0 1-1.1-3.1 15.3 15.3 0 0 1 .9-3.3zm-2-5.9a3.5 3.5 0 0 1 1.4 3.2 4.7 4.7 0 0 1-1.2 3.2v-1.4a4.8 4.8 0 0 0 .4-2.1 3 3 0 0 0-.5-1.5z" fill="#febf10"/>
  <path d="M39.3 104.9a15.5 15.5 0 0 1-2.9-2c-2.2-5-3.1-15.1-2.7-28.6l1.3 2.8c.9 12.8 2.3 22.3 4.3 27.8" fill="none" stroke="#000" stroke-linecap="round" stroke-linejoin="round" stroke-width=".4"/>
  <path d="M43.3 83.8c0 .1.1.2.2.3v.2a1.4 1.4 0 0 0 .2 1.1c0 .1.1.2.1.3h-.1a2.1 2.1 0 0 0 .4 1.4H44a2.1 2.1 0 0 0 1.7 2.1c1.8.6 2.8.4 4.3-1.9a36 36 0 0 1 2.2-3s.1-2.5-1.6-3a13.5 13.5 0 0 0-2.9 1.8 3.3 3.3 0 0 1-2.7.5c-.7-.2-1.7-.9-1.9-.6s-.1.5.2.8z" fill="#f3bc84"/>
  <path d="M44 87.1a2.1 2.1 0 0 0 1.7 2.1c1.8.6 2.8.4 4.3-1.9a36 36 0 0 1 2.2-3s0-2.5-1.6-3a13.5 13.5 0 0 0-2.9 1.8 3.3 3.3 0 0 1-2.7.5c-.7-.2-1.7-.9-1.9-.6s-.1.5.1.8a5.3 5.3 0 0 0 3 1.6m.3 2.8s-2.9-.4-2.8-2.6m2.5 1.4s-3-.9-2.7-2.7" fill="none" stroke="#000" stroke-linecap="round" stroke-linejoin="round" stroke-width=".4"/>
  <path d="M56.1 71.7l.7-.3a7.7 7.7 0 0 1-1.1 3.1h.6c-.4.4.1 2.2.1 2.2l-.7 1.1a11.9 11.9 0 0 0-.5 2.5c0-.3.7-.3.7-.3l-.2 2.4.5-.7.2 2.5a2.7 2.7 0 0 1-3.1-1.1c-1.1-1.7-1.7-7-1.7-7l.5-.2s-.1-3.6 0-4.1l.5.4-.3-2.2h4z" fill="#b3b3b3"/>
  <path d="M52.3 70c.1.9.3 2.3.3 2.3l-.5-.4c-.1.5 0 4.1 0 4.1l-.5.2s.6 5.3 1.7 7a2.7 2.7 0 0 0 3.1 1.1l-.2-2.5-.5.7s.1-1.7.2-2.4-.7 0-.7.3a11.9 11.9 0 0 1 .5-2.5l.5-.8s-.3-2.1.1-2.5h-.6a7.7 7.7 0 0 0 1.1-3.1l-.7.3a3.8 3.8 0 0 0 .5-1.6" fill="none" stroke="#000" stroke-linecap="round" stroke-linejoin="round" stroke-width=".4"/>
  <path d="M52.1 84.6a11.9 11.9 0 0 0 3.5.3s.4-4.3-.4-6.6c0 0-3.4.9-4.6 3a3.5 3.5 0 0 1 1.5 3.3z" fill="#febf10" stroke="#000" stroke-linecap="round" stroke-linejoin="round" stroke-width=".4"/>
  <path d="M59.7 70.1l-.4.9h.5a20.3 20.3 0 0 1-.8 2.8l.6-.4c0 .6-.7 4.1-.7 4.1l.4.3s-1.5 5.1-2.8 6.6a2.7 2.7 0 0 1-3.3.5l.6-2.4.4.8a21.4 21.4 0 0 0 .3-2.4s.6.1.6.4a11.5 11.5 0 0 0-.1-2.5h.5a18.2 18.2 0 0 0-.5-3.5h.6A7.7 7.7 0 0 1 55 72l.6.5a4.7 4.7 0 0 1 0-2.3" fill="#e6e6e6"/>
  <path d="M59.7 70.1l-.4.9h.5a20.3 20.3 0 0 1-.8 2.8l.6-.4c0 .6-.7 4.1-.7 4.1l.4.3s-1.5 5.1-2.8 6.6a2.7 2.7 0 0 1-3.3.5l.6-2.4.4.8a21.4 21.4 0 0 0 .3-2.4s.6.1.6.4a11.5 11.5 0 0 0-.1-2.5h.5a18.2 18.2 0 0 0-.5-3.5h.6A7.7 7.7 0 0 1 55 72l.6.5a4.7 4.7 0 0 1 0-2.3" fill="none" stroke="#000" stroke-linecap="round" stroke-linejoin="round" stroke-width=".4"/>
  <path d="M37 107.1a.8.8 0 0 0-.6.8 9 9 0 0 1-.8 4.1 7 7 0 0 0-.8 3 5.8 5.8 0 0 0 1.2 4.2.7.7 0 0 0 1.1-1 5.2 5.2 0 0 1-.8-3.2 5.1 5.1 0 0 1 .7-2.4 11.3 11.3 0 0 0 .9-4.8.7.7 0 0 0-.8-.7z" fill="#856353" stroke="#000" stroke-linecap="round" stroke-linejoin="round" stroke-width=".4"/>
  <path d="M40.1 107.8c-.3.1-.6.3-.6.6a10.1 10.1 0 0 1-1.8 3.9 6.4 6.4 0 0 0-1.5 2.7 6.1 6.1 0 0 0 .2 4.3.7.7 0 1 0 1.3-.7 4.6 4.6 0 0 1 0-3.2 4.8 4.8 0 0 1 1.2-2.2 10 10 0 0 0 2-4.5.8.8 0 0 0-.6-.9z" fill="#856353" stroke="#000" stroke-linecap="round" stroke-linejoin="round" stroke-width=".4"/>
  <path d="M38.9 107.4a.7.7 0 0 0-.7.6 8.4 8.4 0 0 1-1.8 3.8 8.6 8.6 0 0 0-1.4 2.7c-.7 2.7.1 4.3.2 4.4a.8.8 0 0 0 1 .3.8.8 0 0 0 .3-1 5.3 5.3 0 0 1-.1-3.3 7.8 7.8 0 0 1 1.2-2.2 9.9 9.9 0 0 0 2.1-4.5.6.6 0 0 0-.6-.8c-.1 0-.1-.1-.2 0z" fill="#856353" stroke="#000" stroke-linecap="round" stroke-linejoin="round" stroke-width=".4"/>
  <path d="M35.3 118.6a28.5 28.5 0 0 0 2.2-4.8 6.5 6.5 0 0 1 2.8-4.4c1.9-1.5 3.9 0 6.6 2.6s-1 9.2-2.1 9.5-6.7.9-9.5-2.9z" fill="#f3bc84"/>
  <path d="M36.5 119.4a28.3 28.3 0 0 0 2.4-5.3c.4-1.8 2.8-4.5 5.3-4.3 0-.1-1.8-1.5-3.1-.8a5.9 5.9 0 0 0-3.3 3.3c-.4 1.6-1.7 5.1-1.7 5.1l-.6 1.2z" fill="#c69c6d"/>
  <path d="M35.5 118.6a31.7 31.7 0 0 0 2-4.8 6.5 6.5 0 0 1 2.8-4.4c1.9-1.5 3.9 0 6.6 2.6s-1 9.2-2.1 9.5-6.6.9-9.3-2.9z" fill="none" stroke="#000" stroke-linecap="round" stroke-linejoin="round" stroke-width=".4"/>
  <path d="M44.2 119.4a2.4 2.4 0 0 1-3.5-1.2m-4.2 0s2.3.8 3.1-.9a5.5 5.5 0 0 0 .2-3.3c-.1-.3.7-1 .7-1m1.1 1.3s.6-.5.3-.7-.7-.2-1-.2h-.2m.3-.4l-.1.4m-.6-.2l-.2-.4" fill="none" stroke="#000" stroke-linecap="round" stroke-linejoin="round" stroke-width=".3"/>
  <path d="M41 112.1c.1.1.3 0 .3 0l.3.3 1.4-.5-2.7-.6 2.7.6s-1.3-2-2.8-.6h-.1z" fill="red"/>
  <path d="M43.3 112.2a12.3 12.3 0 0 0-3.4-.9m3.1.6s-1.3-2-2.8-.6m-.1.2l.9.6c.1.1.3 0 .3 0l.3.3 1.3-.3" fill="none" stroke="#000" stroke-linecap="round" stroke-linejoin="round" stroke-width=".3"/>
  <path d="M53.6 111.6a.7.7 0 0 1 0 .9 9.5 9.5 0 0 0-1.5 4 8.8 8.8 0 0 1-.9 2.9c-1.5 2.4-3.2 2.9-3.3 2.9a.7.7 0 1 1-.4-1.4 4.5 4.5 0 0 0 2.4-2.2 5.5 5.5 0 0 0 .7-2.4 10 10 0 0 1 1.8-4.6.7.7 0 0 1 1-.2z" fill="#856353" stroke="#000" stroke-linecap="round" stroke-linejoin="round" stroke-width=".4"/>
  <path d="M51.8 110.8a.7.7 0 0 1 .2.9 8.3 8.3 0 0 0-.5 4.2 6.4 6.4 0 0 1-.3 3 6.1 6.1 0 0 1-2.4 3.6.7.7 0 0 1-1-.3.8.8 0 0 1 .2-1 4.2 4.2 0 0 0 1.8-2.7 5.4 5.4 0 0 0 .2-2.5 10.3 10.3 0 0 1 .6-4.9.7.7 0 0 1 1-.4z" fill="#856353" stroke="#000" stroke-linecap="round" stroke-linejoin="round" stroke-width=".4"/>
  <path d="M50.5 110.5a.7.7 0 0 1 .2.9 8.4 8.4 0 0 0-.5 4.2 8.4 8.4 0 0 1-.2 3.1 7.7 7.7 0 0 1-2.5 3.6.8.8 0 0 1-1-.3.9.9 0 0 1 .2-1.1 4.2 4.2 0 0 0 1.8-2.7 5.3 5.3 0 0 0 .2-2.5 9.9 9.9 0 0 1 .6-4.8.9.9 0 0 1 1-.5z" fill="#856353" stroke="#000" stroke-linecap="round" stroke-linejoin="round" stroke-width=".4"/>
  <path d="M49.1 110.6a.8.8 0 0 1 .3.9 10.2 10.2 0 0 0-.6 4.2 6.6 6.6 0 0 1-.2 3.1 6 6 0 0 1-2.5 3.6.8.8 0 0 1-1-.3.7.7 0 0 1 .3-1 5.2 5.2 0 0 0 1.8-2.7 5.7 5.7 0 0 0 .1-2.6 11.7 11.7 0 0 1 .7-4.8.7.7 0 0 1 1-.4z" fill="#856353" stroke="#000" stroke-linecap="round" stroke-linejoin="round" stroke-width=".4"/>
  <path d="M48 110.5a.7.7 0 0 1 .2.9 8.4 8.4 0 0 0-.5 4.2 6.8 6.8 0 0 1-.3 3.1 7.2 7.2 0 0 1-2.4 3.6c-.4.2-1.7.3-1.9-.1s.5-.8 1.1-1.3a4.2 4.2 0 0 0 1.8-2.7 5.3 5.3 0 0 0 .2-2.5 9.9 9.9 0 0 1 .6-4.8.9.9 0 0 1 1-.5z" fill="#856353" stroke="#000" stroke-linecap="round" stroke-linejoin="round" stroke-width=".4"/>
  <path d="M44 118a2.8 2.8 0 0 0-1.5-1 1.3 1.3 0 0 0-1.1.2 1.8 1.8 0 0 0 1.3.9c1 .2 1.3-.1 1.3-.1z" fill="#fff"/>
  <path d="M43.8 118.2a4.3 4.3 0 0 1-1.3-.2 2.8 2.8 0 0 1-1.2-.8 2 2 0 0 1 1.5-.1 2.5 2.5 0 0 1 1.2 1m-2.7-.9a1.7 1.7 0 0 0 2.7.9" fill="none" stroke="#000" stroke-linecap="round" stroke-linejoin="round" stroke-width=".3"/>
  <ellipse cx="42.5" cy="117.5" rx=".5" ry=".7" transform="rotate(-71.8 42.58 117.57)"/>
  <circle cx="42.2" cy="117.6" r=".2" fill="#fff"/>
  <path d="M39.7 116.7a2.7 2.7 0 0 0-1.6-.9 1.4 1.4 0 0 0-1.1.4 1.8 1.8 0 0 0 1.4.7c1 .1 1.3-.2 1.3-.2z" fill="#fff"/>
  <path d="M39.5 116.8a4.4 4.4 0 0 1-1.2 0 2.4 2.4 0 0 1-1.2-.6 1.9 1.9 0 0 1 1.4-.3 2.1 2.1 0 0 1 1.2.8m-2.6-.5a1.5 1.5 0 0 0 2.6.5" fill="none" stroke="#000" stroke-linecap="round" stroke-linejoin="round" stroke-width=".3"/>
  <ellipse cx="38.3" cy="116.3" rx=".5" ry=".6" transform="rotate(-79 38.24 116.54)"/>
  <ellipse cx="38" cy="116.5" rx=".2" ry=".2" transform="rotate(-79.1 38 116.52)" fill="#fff"/>
  <path d="M42 108.8a7 7 0 0 0 .9-2.5" fill="none" stroke="#000" stroke-linecap="round" stroke-linejoin="round" stroke-width=".4"/>
  <path d="M49.6 127.2s-7.9 1.1-16.7-4.7l1.4-1.7 8.1 2.7 6.1.4z" fill="#980805" stroke="#000" stroke-linecap="round" stroke-linejoin="round" stroke-width=".4"/>
  <path fill="#d09b07" stroke="#000" stroke-linecap="round" stroke-linejoin="round" stroke-width=".4" d="M45.5 125.7l3.3.1-.6 3-.5-.6-.6 1.8-.5-1.8-.5.6-.6-3.1zm-5.5-.9l3.3.7-1.3 2.8-.4-.7-.9 1.6-.2-1.8-.5.5v-3.1zm-6.2-3.1l3 1.7-2.1 2.3-.1-.8-1.4 1.3.4-1.8-.7.3.9-3z"/>
  <path d="M29.9 123.3c.3-.2.7.2.8.4a.5.5 0 0 0 .8.1c.5-.5 1.1-1.2 1.5-1s.3.4.3.4a.8.8 0 0 1 .7-.8.7.7 0 0 1 .8.7v.2h-.2a.7.7 0 1 0 .7.7c0-.2 0-.3-.1-.4a.9.9 0 0 1 .7-.3 1.5 1.5 0 0 1 1.5 1.5 1.7 1.7 0 0 1-.1.7l-.2-.2a.7.7 0 0 0-.9.4.6.6 0 0 0 .4.8h.1l-.3.3a.7.7 0 0 0 .4.9.7.7 0 0 0 .8-.4v-.4h.1a.6.6 0 0 0 .8-.3.6.6 0 0 0-.3-.8H38a2.1 2.1 0 0 1 1.7-.8 1.7 1.7 0 0 1 1.5.9.9.9 0 0 0-.6.7.8.8 0 0 0 .8.7.7.7 0 0 0 .7-.7.5.5 0 0 0-.3-.5 2 2 0 0 1 .8-.4 1.5 1.5 0 0 1 1.5 1.5v.5h-.3c-.3-.1-.6.2-.7.5a.7.7 0 0 0 .5.8.1.1 0 0 0 .1-.1c-.1.1-.1.3-.2.4a.7.7 0 0 0 .6.7c.3.1.6-.2.7-.5a.6.6 0 0 0-.1-.4h.1a.5.5 0 0 0 .7-.5.5.5 0 0 0-.5-.7c-.1-.1-.2 0-.3 0v-.3a1.4 1.4 0 0 1 1.5-1.3c.5 0 .7.1.8.4a.7.7 0 0 0-.4.7.7.7 0 0 0 1.4 0 .8.8 0 0 0-.5-.7.9.9 0 0 1 .9-.7.7.7 0 0 1 .7.7.5.5 0 0 1-.4.6v.8h.3c.3.1.3.3.5.6s.9 0 1.1-.2.9.8 1.1 1 1.5.4 1.5-.4-.7-.5-1-.5-.4-.1-.4-.1l-2.8-3.4-15.2-4.5-2.2 1.5s-.6-.4-.8.1a.9.9 0 0 1-1.1.4c-.3-.2-1.3-.4-1.3.4s1.2.6 1.5.3z" fill="#febf10" stroke="#000" stroke-linecap="round" stroke-linejoin="round" stroke-width=".4"/>
  <path d="M48.5 122.6l.3 2.2c-.4 0-8.5.9-15-4l1.3-1.7c5.8 4.3 13.3 3.5 13.4 3.5z" fill="#0065b7" stroke="#000" stroke-linecap="round" stroke-linejoin="round" stroke-width=".4"/>
  <path d="M49.2 124.2a.5.5 0 0 1 .2.4c.1.2-.1.5-.4.5a22.5 22.5 0 0 1-15.6-4.2.4.4 0 1 1 .5-.7 22.8 22.8 0 0 0 15 4c.1-.1.2 0 .3 0z" fill="#febf10" stroke="#000" stroke-linecap="round" stroke-linejoin="round" stroke-width=".4"/>
  <path d="M48.9 122.2c.1 0 .2.2.2.3s-.1.5-.4.6-6.3.9-13.9-3.7a.5.5 0 0 1-.2-.6.7.7 0 0 1 .7-.2c7.3 4.4 13.2 3.5 13.3 3.5zm15.5 2.7a.6.6 0 0 1-.6.6.8.8 0 0 1-.2-1.4 1.1 1.1 0 0 1 1.6 1 1.2 1.2 0 0 1-1.6 1.2 2.6 2.6 0 0 1-1.9-2.1 4.6 4.6 0 0 1-.1-2s1.1-.3 1.5 0a2.8 2.8 0 0 0 .2 3m-3.3 1.5a.6.6 0 0 0 .8 0 .7.7 0 0 0-.8-1.1 1 1 0 0 0-.4 1.8 1.2 1.2 0 0 0 2-.3 2.8 2.8 0 0 0-.1-2.8 4.8 4.8 0 0 0-1.4-1.5s-1 .5-1 1a2.7 2.7 0 0 1 1.9 2.4" fill="#febf10" stroke="#000" stroke-linecap="round" stroke-linejoin="round" stroke-width=".4"/>
  <circle cx="60.5" cy="121.8" r="1.4" fill="#febf10" stroke="#000" stroke-linecap="round" stroke-linejoin="round" stroke-width=".4"/>
  <circle cx="60.7" cy="122.3" r=".9" fill="#325723" stroke="#000" stroke-linecap="round" stroke-linejoin="round" stroke-width=".4"/>
  <path d="M12.9 112.2a3.3 3.3 0 0 1-2.5-3.4 5.1 5.1 0 0 1 2.5-4.8 9.5 9.5 0 0 1 5-1.2 9.7 9.7 0 0 1 5 1.2 5.1 5.1 0 0 1 2.5 4.8 3.5 3.5 0 0 1-2.5 3.4h-10z" fill="#febf10"/>
  <path d="M14.8 112.2s-1.8-6.9 3.9-9.5c0 0-5.3-.2-7 2.3s-1.4 4.6-.6 5.9a3.3 3.3 0 0 0 3.7 1.3z" fill="#d09b07"/>
  <path d="M12.9 112.2a3.3 3.3 0 0 1-2.5-3.4 5.1 5.1 0 0 1 2.5-4.8 9.5 9.5 0 0 1 5-1.2 9.7 9.7 0 0 1 5 1.2 5.1 5.1 0 0 1 2.5 4.8 3.5 3.5 0 0 1-2.5 3.4h-10z" fill="none" stroke="#000" stroke-linecap="round" stroke-linejoin="round" stroke-width=".41"/>
  <path d="M11.8 115.6h12.1v-3.3l-6-.9-6.1.9z" fill="#d09b07" stroke="#000" stroke-linecap="round" stroke-linejoin="round" stroke-width=".41"/>
  <path d="M14.6 113.1a1.8 1.8 0 0 0-1.5-.5c-.7.2-1.1 1.2-1.1 1.2a1.7 1.7 0 0 0 1.4.5c.8-.2 1.2-1.2 1.2-1.2z" fill="#febf10" stroke="#000" stroke-linecap="round" stroke-linejoin="round" stroke-width=".3"/>
  <path fill="none" stroke="#000" stroke-linecap="round" stroke-linejoin="round" stroke-width=".3" d="M14.6 113.1l-1.4.4"/>
  <path d="M16.2 112.7s-.8-.7-1.5-.5-1.2 1.1-1.2 1.1a2 2 0 0 0 1.4.6 2.5 2.5 0 0 0 1.3-1.2z" fill="#febf10" stroke="#000" stroke-linecap="round" stroke-linejoin="round" stroke-width=".3"/>
  <path fill="none" stroke="#000" stroke-linecap="round" stroke-linejoin="round" stroke-width=".3" d="M16.2 112.7l-1.5.4"/>
  <path d="M17.8 112.7s-.6-.8-1.3-.7-1.3 1-1.3 1 .6.8 1.3.7 1.3-1 1.3-1z" fill="#febf10" stroke="#000" stroke-linecap="round" stroke-linejoin="round" stroke-width=".3"/>
  <path fill="none" stroke="#000" stroke-linecap="round" stroke-linejoin="round" stroke-width=".3" d="M17.8 112.7l-1.4.2"/>
  <path d="M21.2 113.1a1.7 1.7 0 0 1 1.4-.5c.7.2 1.2 1.2 1.2 1.2a1.8 1.8 0 0 1-1.5.5c-.7-.2-1.1-1.2-1.1-1.2z" fill="#febf10" stroke="#000" stroke-linecap="round" stroke-linejoin="round" stroke-width=".3"/>
  <path fill="none" stroke="#000" stroke-linecap="round" stroke-linejoin="round" stroke-width=".3" d="M21.2 113.1l1.4.4"/>
  <path d="M19.6 112.8a1.7 1.7 0 0 1 1.5-.6c.7.2 1.2 1.2 1.2 1.2s-.8.7-1.5.5-1.2-1.1-1.2-1.1z" fill="#febf10" stroke="#000" stroke-linecap="round" stroke-linejoin="round" stroke-width=".3"/>
  <path fill="none" stroke="#000" stroke-linecap="round" stroke-linejoin="round" stroke-width=".3" d="M19.6 112.8l1.5.3"/>
  <path d="M17.9 112.8a2.4 2.4 0 0 1 1.4-.8 2.1 2.1 0 0 1 1.3 1 2 2 0 0 1-1.4.8c-.7-.1-1.3-1-1.3-1z" fill="#febf10" stroke="#000" stroke-linecap="round" stroke-linejoin="round" stroke-width=".3"/>
  <path fill="none" stroke="#000" stroke-linecap="round" stroke-linejoin="round" stroke-width=".3" d="M17.9 112.8l1.5.1"/>
  <path d="M19 111.1h-.3l-2.3 2.9a.5.5 0 0 0 0 .5.2.2 0 0 0 .4 0l2.4-2.8a.6.6 0 0 0 0-.6z" fill="#0065b7" stroke="#000" stroke-linecap="round" stroke-linejoin="round" stroke-width=".35"/>
  <path d="M16.7 111h-.2a.5.5 0 0 0 0 .5l2.1 2.6c.2.2.4.2.5 0a.4.4 0 0 0 0-.5l-2.2-2.6s-.1-.1-.2 0z" fill="#0065b7" stroke="#000" stroke-linecap="round" stroke-linejoin="round" stroke-width=".35"/>
  <path d="M25.4 117.1c0-1.7-3.3-3.1-7.5-3.1s-7.5 1.4-7.5 3.1c0 1.7 3.4 3.1 7.5 3.1s7.5-1.4 7.5-3.1z" fill="red"/>
  <path d="M12.5 117.8s5.7-3 10.7 0c.1 0 .4.2.6-.4s-1.1-1.9-4.5-1.9-5.7.3-6.4.7-1.5.9-.4 1.6z" fill="#980805"/>
  <path d="M25.4 117.1c0-1.7-3.3-3.1-7.5-3.1s-7.5 1.4-7.5 3.1c0 1.7 3.4 3.1 7.5 3.1s7.5-1.4 7.5-3.1z" fill="none" stroke="#000" stroke-linecap="round" stroke-linejoin="round" stroke-width=".38"/>
  <path d="M23.3 117.8c.3-.2.5-.4.5-.7 0-.9-2.6-1.6-5.9-1.6s-5.9.7-5.9 1.6c0 .3.2.5.5.7" fill="none" stroke="#000" stroke-linecap="round" stroke-linejoin="round" stroke-width=".36"/>
  <path d="M10.8 109.3c-1 0-.5-6.8 7.1-6.5 7.5-.3 8 6.5 7.1 6.5h-.1c-.2-.1-.3-.3-.4-.7s-.2.4-.4.4-.4-.5-.5-1-.3.7-.6.6-.5-.5-.6-1.1-.3.9-.7.9-.8-.3-.9-.9-.4.8-.8.8-.9-.4-1.1-1.1-.5 1.1-1 1.1-.9-.5-1-1.2-.5 1.2-1.1 1.2-.7-.3-.8-.8-.4.9-.9.9-.7-.3-.7-.9-.3 1-.6 1.1-.6-.1-.6-.6-.2.8-.5 1a.5.5 0 0 1-.5-.4c0 .4-.1.6-.3.7z" fill="none" stroke="#000" stroke-linecap="round" stroke-linejoin="round" stroke-width=".41"/>
  <path d="M10.9 109.3c-1.1.5-.8-6.9 7-6.5-8.2.9-5.8 6-7 6.5z" fill="#325723" stroke="#000" stroke-linecap="round" stroke-linejoin="round" stroke-width=".41"/>
  <path d="M11.7 109c-1.2.4-.7-6.3 6.2-6.2-7.1.8-5 5.7-6.2 6.2z" fill="#325723" stroke="#000" stroke-linecap="round" stroke-linejoin="round" stroke-width=".41"/>
  <path d="M12.8 108.6c-1.5.5-.7-5.9 5.1-5.8-5.6 1.7-3.9 5.4-5.1 5.8z" fill="#325723" stroke="#000" stroke-linecap="round" stroke-linejoin="round" stroke-width=".41"/>
  <path d="M14.1 108.4c-1.6 0-.8-4.7 3.8-5.6-3.6 1.9-2.1 5.6-3.8 5.6z" fill="#325723" stroke="#000" stroke-linecap="round" stroke-linejoin="round" stroke-width=".41"/>
  <path d="M15.8 108.3c-1.6 0-1-4.4 2.1-5.5-1.2 1.9-.5 5.5-2.1 5.5z" fill="#325723" stroke="#000" stroke-linecap="round" stroke-linejoin="round" stroke-width=".41"/>
  <path d="M24.9 109.3c1.1.5.8-6.9-7-6.5 8.1.9 5.8 6 7 6.5z" fill="#325723" stroke="#000" stroke-linecap="round" stroke-linejoin="round" stroke-width=".41"/>
  <path d="M24.1 109c1.1.4.7-6.3-6.2-6.2 7 .8 5 5.7 6.2 6.2z" fill="#325723" stroke="#000" stroke-linecap="round" stroke-linejoin="round" stroke-width=".41"/>
  <path d="M23 108.6c1.4.5.6-5.9-5.1-5.8 5.6 1.7 3.9 5.4 5.1 5.8z" fill="#325723" stroke="#000" stroke-linecap="round" stroke-linejoin="round" stroke-width=".41"/>
  <path d="M21.7 108.4c1.5 0 .7-4.7-3.8-5.6 3.5 1.9 2.1 5.6 3.8 5.6z" fill="#325723" stroke="#000" stroke-linecap="round" stroke-linejoin="round" stroke-width=".41"/>
  <path d="M20 108.3c1.5 0 .9-4.4-2.1-5.5 1.2 1.9.4 5.5 2.1 5.5z" fill="#325723" stroke="#000" stroke-linecap="round" stroke-linejoin="round" stroke-width=".41"/>
  <path d="M17.9 108.3c-1.5 0-1.4-3.6 0-5.5 1.4 1.9 1.5 5.5 0 5.5z" fill="#325723" stroke="#000" stroke-linecap="round" stroke-linejoin="round" stroke-width=".41"/>
  <path d="M17.9 107.3c-1 0-.9-2.9 0-4.4.9 1.5.9 4.4 0 4.4z" fill="#0d3a12" stroke="#000" stroke-linecap="round" stroke-linejoin="round" stroke-width=".41"/>
  <path d="M11.8 112.9a.7.7 0 0 1-.5-.4.6.6 0 0 1 .3-.6 16.2 16.2 0 0 1 6.2-1.3h.2a16.1 16.1 0 0 1 6.1 1.3.6.6 0 0 1 .3.6.4.4 0 0 1-.4.4h-.2a16.8 16.8 0 0 0-5.9-1.1 17.4 17.4 0 0 0-6 1.1.1.1 0 0 1-.1 0z" fill="#febf10" stroke="#000" stroke-linecap="round" stroke-linejoin="round" stroke-width=".41"/>
  <path d="M38.3 101.9s-3.1-1.6-3.5-4.6a5.3 5.3 0 0 1 1.7-4.5" fill="none" stroke="#000" stroke-linecap="round" stroke-linejoin="round" stroke-width=".4"/>
  <path d="M38 100.4a4.8 4.8 0 0 1-2.1-3 5.2 5.2 0 0 1 .8-3.4m-1.3-.2s-1-.3-1.3-2.6 1.6-6.1 1.6-6.1" fill="none" stroke="#000" stroke-linecap="round" stroke-linejoin="round" stroke-width=".4"/>
  <path d="M36 93.2a3.6 3.6 0 0 1-1.1-3.1 8.5 8.5 0 0 1 1-3m-2-1.5a4.7 4.7 0 0 0 1.2-3.2 3.5 3.5 0 0 0-1.4-3.2" fill="none" stroke="#000" stroke-linecap="round" stroke-linejoin="round" stroke-width=".4"/>
  <path d="M33.7 84.4a5.5 5.5 0 0 0 .5-2.3 3.2 3.2 0 0 0-.6-1.6" fill="none" stroke="#000" stroke-linecap="round" stroke-linejoin="round" stroke-width=".4"/>
  <path d="M14 9.3s1.4 2.6 2.8 3.4a2.8 2.8 0 0 0-.3 2.2l-.6.2a2.8 2.8 0 0 0-1.7-1.4c.5-1.5-.2-4.4-.2-4.4" fill="#0065b7"/>
  <path d="M14.8 11.3a10.5 10.5 0 0 0 1.6 2.5 2.6 2.6 0 0 0 0 1.4h-.3a2.7 2.7 0 0 0-.9-1.1 12.3 12.3 0 0 0-.4-2.9" fill="#004da1"/>
  <path d="M14 9.3s.7 2.9.2 4.4a2.8 2.8 0 0 1 1.7 1.4m.6-.2a2.8 2.8 0 0 1 .3-2.2c-1.4-.8-2.8-3.4-2.8-3.4" fill="none" stroke="#000" stroke-linecap="round" stroke-linejoin="round" stroke-width=".4"/>
  <path d="M14 9.3s1.5 2.6 2.8 3.3a2.7 2.7 0 0 0-.2 2.2" fill="none" stroke="#000" stroke-linecap="round" stroke-linejoin="round" stroke-width=".4"/>
  <path d="M16 15a2.9 2.9 0 0 0-1.7-1.3c.5-1.5-.3-4.4-.3-4.4" fill="none" stroke="#000" stroke-linecap="round" stroke-linejoin="round" stroke-width=".4"/>
  <path d="M29.8 27.4a11.2 11.2 0 0 1-2.3 1.8c-1 .6-.9 4.3-.9 4.3l3.8 2.9 5.3-.6 1.8-2.6-1.7-.7.5-1.6-4.1-2.8z" fill="#f3bc84"/>
  <path d="M33.5 30.2a13.2 13.2 0 0 0-1.6 5.3h1.3l1.9-.5 2-1.4V33l-1.5-.6.7-1.4-1.6-.3z" fill="#c69c6d"/>
  <path d="M29.8 27.4a11.2 11.2 0 0 1-2.3 1.8c-1 .6-.9 4.3-.9 4.3l3.8 2.9 5.3-.6 1.8-2.6-1.7-.7" fill="none" stroke="#000" stroke-linecap="round" stroke-linejoin="round" stroke-width=".4"/>
  <path fill="#004da1" d="M26.2 33.6l5.1 2.9 3-.2 3.7-2 4.7 15-.5 7.5-3.5.4-4.8.1-1.8-.8-7.6-21.1 1.7-1.8z"/>
  <path fill="#325723" d="M30.2 60.3l12.6.4 2.5 9.4H30.1l.1-9.8z"/>
  <path fill="#0d3a12" d="M37.3 63.5L42 63l3.3 6.9h-7.8l-.2-6.4z"/>
  <path d="M35.7 57c-.8-15.2-4-20.8-3.7-20l1.5-.4c.1.2 2.2 3.7 3.7 20.2z" fill="#325723" stroke="#000" stroke-linecap="round" stroke-linejoin="round" stroke-width=".4"/>
  <path d="M47.5 47.2a7.2 7.2 0 0 1-1.5-2.9 31.5 31.5 0 0 0-2.3-5l-1.4.5 2.8 30.3h1.7l1.7-11.4z" fill="red"/>
  <path d="M26.2 40.1a1.9 1.9 0 0 1 1.1-2.5 1.9 1.9 0 0 1 2.2 3.1 4.8 4.8 0 0 0 2.6-2.9 3.8 3.8 0 0 1-2.5 4.8l-1.5.3-1.1-1.8a1.6 1.6 0 0 1-.8-1z" fill="#325723" stroke="#000" stroke-linecap="round" stroke-linejoin="round" stroke-width=".4"/>
  <path d="M27.9 45.2a2 2 0 0 1 1.1-2.6 1.9 1.9 0 0 1 2.5 1.2 1.7 1.7 0 0 1-.3 1.9 4.6 4.6 0 0 0 2.6-2.9 3.8 3.8 0 0 1-2.5 4.8l-1.5.3-1.2-1.8a1.6 1.6 0 0 1-.7-.9z" fill="#325723" stroke="#000" stroke-linecap="round" stroke-linejoin="round" stroke-width=".4"/>
  <path d="M28.9 50.4a2 2 0 0 1 1.2-2.6 1.9 1.9 0 0 1 2.5 1.2 1.8 1.8 0 0 1-.3 1.9 4.6 4.6 0 0 0 2.5-2.9 3.7 3.7 0 0 1-2.5 4.8l-1.5.3-1.1-1.8a2.4 2.4 0 0 1-.8-.9zm1.8 4.5a1.6 1.6 0 0 1 2.9-1.1 1.4 1.4 0 0 1-.3 1.5 3.3 3.3 0 0 0 2-2.3 2.9 2.9 0 0 1-1.9 3.8l-1.8.4-.6-1.5c-.3-.2-.2-.5-.3-.8zm9.9-17a2 2 0 0 0-4 0 1.8 1.8 0 0 0 1 1.7 4.6 4.6 0 0 1-3.4-1.8 3.7 3.7 0 0 0 4 3.6l1.5-.2.5-2.1a2.1 2.1 0 0 0 .4-1.2zm1.5 5.4a2 2 0 0 0-4 0 2.1 2.1 0 0 0 1 1.8 4.9 4.9 0 0 1-3.4-1.9 3.7 3.7 0 0 0 4 3.6l1.5-.2.5-2.1a2.1 2.1 0 0 0 .4-1.2z" fill="#325723" stroke="#000" stroke-linecap="round" stroke-linejoin="round" stroke-width=".4"/>
  <path d="M42.7 48.9a2 2 0 1 0-3.9 0 1.9 1.9 0 0 0 1 1.7 4.6 4.6 0 0 1-3.4-1.8 3.8 3.8 0 0 0 4 3.6l1.5-.2.4-2.2a1.5 1.5 0 0 0 .4-1.1z" fill="#325723" stroke="#000" stroke-linecap="round" stroke-linejoin="round" stroke-width=".4"/>
  <path d="M42 53.9a1.5 1.5 0 0 0-1.5-1.5 1.6 1.6 0 0 0-1.6 1.5 1.8 1.8 0 0 0 .8 1.4 3.8 3.8 0 0 1-2.7-1.5 3 3 0 0 0 3.2 2.9l1.8-.3v-1.6c.2-.3 0-.5 0-.9z" fill="#325723" stroke="#000" stroke-linecap="round" stroke-linejoin="round" stroke-width=".4"/>
  <path d="M30.6 56.2l-.9 6.4a28.3 28.3 0 0 0 7.2.9 27.6 27.6 0 0 0 6.9-.9l-1.2-6.3a32.6 32.6 0 0 1-6.1.6 20.2 20.2 0 0 1-5.9-.7zm12 .1z" fill="#e6e6e6" stroke="#000" stroke-linecap="round" stroke-linejoin="round" stroke-width=".4"/>
  <path d="M31.4 57.5a27.8 27.8 0 0 0 5.1.4 31.7 31.7 0 0 0 5.3-.4l.8 4.4a29.7 29.7 0 0 1-5.7.6 25.4 25.4 0 0 1-6.1-.7l.6-4.3" fill="red"/>
  <path fill="#980805" d="M39.2 57.9v4.6l3.1-.5-.5-4.5-2.6.4z"/>
  <path d="M31.4 57.5a27.8 27.8 0 0 0 5.1.4 31.7 31.7 0 0 0 5.3-.4l.8 4.4a29.7 29.7 0 0 1-5.7.6 25.4 25.4 0 0 1-6.1-.7l.6-4.3" fill="none" stroke="#000" stroke-linecap="round" stroke-linejoin="round" stroke-width=".4"/>
  <path d="M54 50.4a20.3 20.3 0 0 0 1.1 2.3.8.8 0 0 1-.7-.2 12.6 12.6 0 0 1 1.3 2.5l-.6-.3a16.4 16.4 0 0 0 .7 2A5.1 5.1 0 0 1 56 59l-.6-.4a12.1 12.1 0 0 1 1.1 2.1l-.8-.2a5.2 5.2 0 0 1 1.3 2l-.8-.3a8 8 0 0 1 .5 3.9l-.5-.6a12.5 12.5 0 0 0 .4 1.8l-.6-.2a4.9 4.9 0 0 1 .8 2.9h-5l-1-17.1s1.6-.1 3.2-2.5z" fill="#b3b3b3"/>
  <path d="M54 49.8s0 1.5-2.4 3-.8-5.7-.8-5.7h1.9z" fill="red" stroke="#000" stroke-linecap="round" stroke-linejoin="round" stroke-width=".4"/>
  <path d="M8 46.7a30.2 30.2 0 0 1 2.1-2.3c2.8-7.1 6.2-9.4 9.8-11.2s6.8-3.6 6.8-3.6l-2.4 6.5 6.1 24-.9 9.9H8z" fill="red"/>
  <path d="M17.3 40.4s2.2 5.1-1.5 12.1a5 5 0 0 1 2.7 1.4c1 1.2 3.6 1.5 3.6 1.5l1.1-.6v-1.4s-5.4-12.8-5.9-13z" fill="#980805"/>
  <path d="M18.1 53.6s-6.3 8.6-7.3 16.5h8.5l3.2-15.5z" fill="#980805"/>
  <path d="M26.7 29.6s-3.2 1.9-6.8 3.6-7 4.1-9.8 11.2A30.2 30.2 0 0 0 8 46.7" fill="none" stroke="#000" stroke-linecap="round" stroke-linejoin="round" stroke-width=".4"/>
  <path d="M27.1 59.4l.3 2.5-.6-.5a17.5 17.5 0 0 0 .3 2.5 1 1 0 0 1-.6-.2s.1 2.9.5 3.4-.7.1-.7-.2a15.7 15.7 0 0 1 .3 2.9" fill="none" stroke="#ed1e79" stroke-linecap="round" stroke-linejoin="round" stroke-width=".4"/>
  <path d="M54 50.4a20.3 20.3 0 0 0 1.1 2.3.8.8 0 0 1-.7-.2 12.6 12.6 0 0 1 1.3 2.5l-.6-.3a16.4 16.4 0 0 0 .7 2A5.1 5.1 0 0 1 56 59l-.6-.4a12.1 12.1 0 0 1 1.1 2.1l-.8-.2a5.2 5.2 0 0 1 1.3 2l-.8-.3a8 8 0 0 1 .5 3.9l-.5-.6a12.5 12.5 0 0 0 .4 1.8l-.6-.2a3.9 3.9 0 0 1 .7 2.7" fill="none" stroke="#000" stroke-linecap="round" stroke-linejoin="round" stroke-width=".4"/>
  <path d="M53.5 43.2l-3.3 1.5c-.2.1.5 4.7 3.8 5.1l3-2.6s-3.1-.2-3.5-4z" fill="#febf10" stroke="#000" stroke-linecap="round" stroke-linejoin="round" stroke-width=".4"/>
  <path d="M53.5 43s1.6-4.5 4-5.7a7.2 7.2 0 0 1 4.8-.3l-.3 5.8-1.8.7S58 46.8 57 47.2s-3.4-1.5-3.5-4.2z" fill="#f3bc84" stroke="#000" stroke-linecap="round" stroke-linejoin="round" stroke-width=".4"/>
  <path d="M32.5 37.1h-.8a7.2 7.2 0 0 1-6-3.8l1.1-.9a6.2 6.2 0 0 0 5 3.2c3.8.3 5-1.6 5.3-2.2l1.3.6c-.3.8-1.8 3.1-5.9 3.1z" fill="#e6e6e6" stroke="#000" stroke-linecap="round" stroke-linejoin="round" stroke-width=".4"/>
  <path d="M16 52.6a4.1 4.1 0 0 1 2.6 1.4 5.1 5.1 0 0 0 3.5 1.3" fill="none" stroke="#000" stroke-linecap="round" stroke-linejoin="round" stroke-width=".4"/>
  <path d="M27.7 29l-10.9 5.8c-.2 1.2.1 6.9 4.3 14.4S23.8 64 23 70h7.8c1.1-8.4 2.6-19.1-1.4-26-2-3.5-3.7-12.5-1.7-15z" fill="#325723" stroke="#000" stroke-linecap="round" stroke-linejoin="round" stroke-width=".4"/>
  <path d="M25.9 31.1c-.6 4.1 1 10.6 2.6 13.4 3.7 6.4 2.4 16.4 1.4 24.4h-5.7a5.9 5.9 0 0 0 .2-1.4c.9-5.3 1.8-11.3-2.4-18.8s-4.3-11.5-4.3-13.2l8.2-4.4" fill="#0065b7"/>
  <path d="M25.9 31.1c-.6 4.1 1 10.6 2.6 13.4 3.7 6.4 2.4 16.4 1.4 24.4h-5.7a5.9 5.9 0 0 0 .2-1.4c.9-5.3 1.8-11.3-2.4-18.8s-4.3-11.5-4.3-13.2l8.2-4.4" fill="none" stroke="#000" stroke-linecap="round" stroke-linejoin="round" stroke-width=".4"/>
  <path d="M36.8 32.9c1.2 2.2 4 8.7 5.4 30.3l3 6.6c1.3-24.4-1.8-31.6-2.5-33s-5.9-3.9-5.9-3.9z" fill="#325723" stroke="#000" stroke-linecap="round" stroke-linejoin="round" stroke-width=".4"/>
  <path d="M27.2 50.9s.7-2.7-1.3-4-3.2-1.8-3.6-2.7 1.7 1.7 2.5 1.8 2.5.2 2.5-1.6-.9-2.5-1.9-2.3-1.2 1.6-.4 2.2l.4.2c-.3.1-.9 0-1.7-.6-2.4-1.7-.9-5.1-.9-5.1.9 2 2 1.6 2 1.6l-1-4.5-.5-1.2s-1.2 2.9-4.2.6c0 0 .1 2.9 3.5 1.1a2.6 2.6 0 0 1-4.1.8s0 1.3.9 1.7a2.5 2.5 0 0 0 0 1.9s.8-2.6 2.2-2.6-1.7 4.2-1 6.4 2 2.8 3.5 3.6a2.9 2.9 0 0 1 .7 2.2c0 1.7.1 3.4 1.5 4.7l.3-.6c-.4-.3-.7-1.3-.8-2.8s-.1-2.4-.1-2.6a3.7 3.7 0 0 1 1.5 1.8z" fill="#febf10"/>
  <path d="M23.3 34.7s-1.2 2.9-4.2.6c0 0 .1 2.9 3.5 1.1a2.6 2.6 0 0 1-4.1.8s0 1.3.9 1.7a2.5 2.5 0 0 0 0 1.9s.8-2.6 2.2-2.6-1.7 4.2-1 6.4 2.6 3.1 4.4 4.1a4.2 4.2 0 0 1 2.2 2.2s.7-2.7-1.3-4-3.2-1.8-3.7-2.7" fill="none" stroke="#000" stroke-linecap="round" stroke-linejoin="round" stroke-width=".4"/>
  <path d="M23.8 35.9s-.6 3.1.9 4.5-1 .4-2-1.6c0 0-1.5 3.4 1 5.1s2.5-.8 2-1" fill="none" stroke="#000" stroke-linecap="round" stroke-linejoin="round" stroke-width=".4"/>
  <path d="M24.4 45.9s2.8.3 2.8-1.5-.8-2.5-1.8-2.3-1.2 1.7-.3 2.3m-1 3.8s.6.5.6 2.2a6.2 6.2 0 0 0 1.5 4.7m-.5-6s0 1.1.1 2.6.4 2.5.8 2.8" fill="none" stroke="#000" stroke-linecap="round" stroke-linejoin="round" stroke-width=".4"/>
  <path d="M30 64.1a2.1 2.1 0 0 0 .6-1.9c0-.4-1-2.1-2.1-1s.8 2.1.8 2.1l-3.1-2.1.4 2.2a.9.9 0 0 0 .6.4h-.1v.3l-.5-.5-.6.5v1.1s2.7 1.8 3.2 3.6a4.5 4.5 0 0 0-.2-1.1h.1a4.1 4.1 0 0 0-.4-3.5h-.1c.7.1 1.2.1 1.4-.1z" fill="#febf10"/>
  <path d="M26.2 61.2s1.8 3 3.1 2.1-1.9-.9-.8-2.1 2.1.6 2.1 1a2.1 2.1 0 0 1-.6 1.9c-.6.5-2.9.1-3.4-.7m-.5 1.8s2.6 1.8 3.1 3.6c0 0 .4-2-2.6-5.2" fill="none" stroke="#000" stroke-linecap="round" stroke-linejoin="round" stroke-width=".4"/>
  <path d="M61.8 42v.8a3.9 3.9 0 0 0 3.3 2.7c.4.1.2.9-.5 1.2v.7h-8.2v-.6c-1-.1-1.4-1.2-1-1.3a3.9 3.9 0 0 0 3.4-2.7V42h.9v.8c-.2.7-.1 1.1.1-.3h1c.2 1.4.3 1 .1.3V42z" fill="#325723"/>
  <path d="M60.9 42v.8c.3 1.1 1 3.5 2.6 3.9s2.2-1.1 1.6-1.2a3.9 3.9 0 0 1-3.3-2.7V42zm-2.1 0v.8a3.9 3.9 0 0 1-3.4 2.7c-.5.1.1 1.7 1.7 1.2s2.3-2.8 2.6-3.9V42z" fill="#3c6d3d" stroke="#000" stroke-linecap="round" stroke-linejoin="round" stroke-width=".24"/>
  <path d="M60.9 42v.8c.3 1.1 1 3.5 2.6 3.9s2.2-1.1 1.6-1.2a3.9 3.9 0 0 1-3.3-2.7V42zm-2.1 0v.8a3.9 3.9 0 0 1-3.4 2.7c-.5.1.1 1.7 1.7 1.2s2.3-2.8 2.6-3.9V42z" fill="#febf10" stroke="#000" stroke-linecap="round" stroke-linejoin="round" stroke-width=".41"/>
  <path d="M60.8 42.5c.2 1.6 1.2 2.5 1 3.7s-.6.8-1.5.8-1.4-.3-1.5-.8.8-2.1 1-3.7h1z" fill="#febf10" stroke="#000" stroke-linecap="round" stroke-linejoin="round" stroke-width=".41"/>
  <path d="M60.5 42.8c.1 1.2.6 1.9.5 2.8s-.3.6-.7.6a.7.7 0 0 1-.8-.6c-.1-.9.4-1.6.5-2.8h.5z" fill="#d09b07" stroke="#000" stroke-linecap="round" stroke-linejoin="round" stroke-width=".41"/>
  <path d="M63.2 46.7h-1.8" fill="none" stroke="#000" stroke-linecap="round" stroke-linejoin="round" stroke-width=".41"/>
  <path d="M65.3 47.3h-10v2l5 .7 5-.7z" fill="#d09b07" stroke="#000" stroke-linecap="round" stroke-linejoin="round" stroke-width=".41"/>
  <circle cx="64.6" cy="48.3" r=".6" fill="#febf10" stroke="#000" stroke-linecap="round" stroke-linejoin="round" stroke-width=".3"/>
  <circle cx="64.6" cy="48.3" r=".2"/>
  <circle cx="63.4" cy="48.4" r=".6" fill="#febf10" stroke="#000" stroke-linecap="round" stroke-linejoin="round" stroke-width=".3"/>
  <circle cx="63.4" cy="48.4" r=".2"/>
  <circle cx="62.1" cy="48.5" r=".6" fill="#febf10" stroke="#000" stroke-linecap="round" stroke-linejoin="round" stroke-width=".3"/>
  <circle cx="62.1" cy="48.5" r=".2"/>
  <circle cx="60.8" cy="48.6" r=".6" fill="#febf10" stroke="#000" stroke-linecap="round" stroke-linejoin="round" stroke-width=".3"/>
  <circle cx="60.8" cy="48.6" r=".2"/>
  <circle cx="59.6" cy="48.6" r=".6" fill="#febf10" stroke="#000" stroke-linecap="round" stroke-linejoin="round" stroke-width=".3"/>
  <circle cx="59.6" cy="48.6" r=".2"/>
  <circle cx="58.4" cy="48.5" r=".6" fill="#febf10" stroke="#000" stroke-linecap="round" stroke-linejoin="round" stroke-width=".3"/>
  <circle cx="58.4" cy="48.5" r=".2"/>
  <circle cx="57.1" cy="48.4" r=".6" fill="#febf10" stroke="#000" stroke-linecap="round" stroke-linejoin="round" stroke-width=".3"/>
  <circle cx="57.1" cy="48.4" r=".2"/>
  <circle cx="56" cy="48.2" r=".6" fill="#febf10" stroke="#000" stroke-linecap="round" stroke-linejoin="round" stroke-width=".3"/>
  <circle cx="56" cy="48.2" r=".2"/>
  <path d="M65.3 48.9a.6.6 0 0 1 .6.5.8.8 0 0 1-.5.7 32.7 32.7 0 0 1-10.2 0 .8.8 0 0 1-.5-.7.6.6 0 0 1 .6-.5h.1a34.7 34.7 0 0 0 4.9.4 34.7 34.7 0 0 0 4.9-.4z" fill="#febf10" stroke="#000" stroke-linecap="round" stroke-linejoin="round" stroke-width=".41"/>
  <path d="M57.3 46.7h1.9" fill="none" stroke="#000" stroke-linecap="round" stroke-linejoin="round" stroke-width=".41"/>
  <path d="M65.5 46.7a.5.5 0 0 1 .3.3c0 .2-.1.4-.3.4a26.8 26.8 0 0 1-5.2.4 26.2 26.2 0 0 1-5.2-.4c-.2 0-.3-.2-.3-.4a.3.3 0 0 1 .3-.3h.1a26.3 26.3 0 0 0 10.2 0z" fill="#febf10" stroke="#000" stroke-linecap="round" stroke-linejoin="round" stroke-width=".41"/>
  <path d="M28.8 64.3a4.1 4.1 0 0 1 .4 3.5m14.4-28.6a31.7 31.7 0 0 1 2.4 5.1 7.2 7.2 0 0 0 1.5 2.9" fill="none" stroke="#000" stroke-linecap="round" stroke-linejoin="round" stroke-width=".4"/>
  <path fill="red" stroke="#000" stroke-linecap="round" stroke-linejoin="round" stroke-width=".4" d="M37.1 70L17.5 19.7l1.1-.4L38.4 70h-1.3z"/>
  <path d="M62.9 42s.3.5-.3 1.1a3.6 3.6 0 0 1-2.6.5c-.5-.1-1.4-.5-.5-1.1" fill="#f3bc84" stroke="#000" stroke-linecap="round" stroke-linejoin="round" stroke-width=".4"/>
  <path d="M63 40.6a.7.7 0 0 1 .3 1c-.3.7-3.1 1.2-3.6 1a8.5 8.5 0 0 1-1.4-.9" fill="#f3bc84" stroke="#000" stroke-linecap="round" stroke-linejoin="round" stroke-width=".4"/>
  <path d="M62.9 39s.7.5.4 1.1a2.5 2.5 0 0 1-2.3 1.1 9.8 9.8 0 0 1-1.9-.7" fill="#f3bc84" stroke="#000" stroke-linecap="round" stroke-linejoin="round" stroke-width=".4"/>
  <path d="M62 37.7s1-.2 1.1.1.5.8-.4 1.3a3.9 3.9 0 0 1-3.2.4" fill="#f3bc84" stroke="#000" stroke-linecap="round" stroke-linejoin="round" stroke-width=".4"/>
  <path d="M57.1 42.7a8.2 8.2 0 0 0 2.1-2.9s.4-.9 1.1-1 1.7-.3 1.7-1.1-3.5-.3-4.7.6" fill="none" stroke="#000" stroke-linecap="round" stroke-linejoin="round" stroke-width=".4"/>
  <path d="M53.2 68.4l-.4-1.7a11.4 11.4 0 0 1-.5-2l.7.3a13.6 13.6 0 0 0-.3-1.6 4.6 4.6 0 0 0-.3-.9h.1a21.3 21.3 0 0 0 0-4.7c-.2-2.2-.9-2.5-.9-2.5l.6.2a11.6 11.6 0 0 0-.9-3c-.7-1.1 0-5.7 0-6.4a8.3 8.3 0 0 1 .8-2.3S48 44.9 47.3 48a39.4 39.4 0 0 1-1.2 4.2l.8-.4a17.7 17.7 0 0 0-.6 5.4l.6-.6a26.7 26.7 0 0 0-.1 5.5l.4-1s-.2 4.2-.3 5.2l-.4 3.7h6.3a3.4 3.4 0 0 0-.4-2.1z" fill="#e6e6e6"/>
  <path d="M51.9 61.6a2.6 2.6 0 0 1 .8 1.8A13.6 13.6 0 0 1 53 65l-.7-.3a13.9 13.9 0 0 0 .4 2l.5 1.7-.8-.5a3 3 0 0 1 .3 2.1" fill="none" stroke="#000" stroke-linecap="round" stroke-linejoin="round" stroke-width=".4"/>
  <path d="M46.5 70s.2-2.7.4-3.7.3-5.2.3-5.2l-.4 1a26.7 26.7 0 0 1 .1-5.5l-.6.6a17.7 17.7 0 0 1 .6-5.4l-.8.4a39.4 39.4 0 0 0 1.2-4.2c.7-3.1 4.8-4.2 4.8-4.2a7.7 7.7 0 0 0-.9 2.3c0 .7-.6 5.3 0 6.4a9.7 9.7 0 0 1 1 3l-.6-.2s.7.3.9 2.5a31.9 31.9 0 0 1 0 4.7" fill="none" stroke="#000" stroke-linecap="round" stroke-linejoin="round" stroke-width=".4"/>
  <path d="M38.8 35.1a12.4 12.4 0 0 1 3 2.1c2.2 4.9 3.1 15 2.6 28.5l-1.2-2.8c-.9-12.8-2.4-22.3-4.4-27.8" fill="#0065b7"/>
  <path d="M41.6 47.2a5 5 0 0 0 1.7-4.5c-.3-3-3.4-4.6-3.4-4.6l.3 1.6a4.8 4.8 0 0 1 2.1 2.9 5.9 5.9 0 0 1-.8 3.4zm.9 7.7s1.8-3.8 1.5-6.1-1.3-2.6-1.3-2.6l-.5.6a3.7 3.7 0 0 1 1 3.1 10.6 10.6 0 0 1-.9 3.3zm2 5.9a3.7 3.7 0 0 1-1.5-3.2 4.5 4.5 0 0 1 1.3-3.2v1.4a4.8 4.8 0 0 0-.4 2.1 2.5 2.5 0 0 0 .4 1.5z" fill="#febf10"/>
  <path d="M38.8 35.1a12.4 12.4 0 0 1 3 2.1c2.2 4.9 3.1 15 2.6 28.5l-1.2-2.8c-.9-12.8-2.4-22.3-4.4-27.8" fill="none" stroke="#000" stroke-linecap="round" stroke-linejoin="round" stroke-width=".4"/>
  <path d="M34.9 56.2c0-.1-.1-.2-.2-.3v-.2h.1a1.2 1.2 0 0 0-.3-1.2v-.3h.1a2.5 2.5 0 0 0-.4-1.3h.1a2.2 2.2 0 0 0-1.7-2.2c-1.8-.6-2.8-.3-4.3 1.9l-2.2 3s-.1 2.5 1.5 3.1a25.5 25.5 0 0 0 3-1.8 3 3 0 0 1 2.7-.6c.6.2 1.7.9 1.9.6s0-.4-.3-.7z" fill="#f3bc84"/>
  <path d="M34.2 53a2.4 2.4 0 0 0-1.7-2.2c-1.8-.6-2.8-.3-4.3 1.9l-2.2 3s-.1 2.5 1.5 3.1a25.5 25.5 0 0 0 3-1.8 3 3 0 0 1 2.7-.6c.6.2 1.7.9 1.9.6s.1-.5-.2-.8a5.3 5.3 0 0 0-2.9-1.6m-.3-2.8s2.9.4 2.8 2.6M32 53s3 .9 2.7 2.8" fill="none" stroke="#000" stroke-linecap="round" stroke-linejoin="round" stroke-width=".4"/>
  <path d="M22 68.3l-.7.4a9 9 0 0 1 1.2-3.2h-.7c.4-.4 0-2.2 0-2.2l.7-1.1a11.9 11.9 0 0 0 .5-2.5c-.1.3-.7.3-.7.3l.2-2.4-.5.7-.2-2.5a2.7 2.7 0 0 1 3.1 1.1c1.1 1.8 1.7 7 1.7 7l-.5.2s0 3.6-.1 4.2l-.4-.5.3 2.3h-4.1z" fill="#b3b3b3"/>
  <path d="M25.9 70c-.1-.9-.3-2.3-.3-2.3l.4.5c.1-.6.1-4.2.1-4.2l.5-.2s-.6-5.2-1.7-7a2.7 2.7 0 0 0-3.1-1.1l.2 2.5.5-.7s-.1 1.7-.2 2.4.6 0 .7-.3a11.9 11.9 0 0 1-.5 2.5l-.5.8s.2 2.1-.2 2.5h.7a9 9 0 0 0-1.2 3.2l.7-.4a3.3 3.3 0 0 0-.4 1.7" fill="none" stroke="#000" stroke-linecap="round" stroke-linejoin="round" stroke-width=".4"/>
  <path d="M26 55.4a11 11 0 0 0-3.4-.3s-.5 4.3.4 6.6c0 0 3.3-.9 4.5-2.9a3.7 3.7 0 0 1-1.5-3.4z" fill="#febf10" stroke="#000" stroke-linecap="round" stroke-linejoin="round" stroke-width=".4"/>
  <path d="M18.5 69.9l.3-.9h-.5a20.3 20.3 0 0 1 .8-2.8l-.5.4c0-.6.7-4.1.7-4.1l-.5-.3s1.5-5.1 2.9-6.6a2.7 2.7 0 0 1 3.3-.5l-.7 2.4-.3-.8a21.4 21.4 0 0 0-.3 2.4s-.6-.1-.6-.4a20.2 20.2 0 0 0 0 2.5h-.5a19.7 19.7 0 0 0 .6 3.5h-.6a8.4 8.4 0 0 1 .5 3.3l-.6-.5a4 4 0 0 1 .1 2.3" fill="#e6e6e6"/>
  <path d="M18.5 69.9l.3-.9h-.5a20.3 20.3 0 0 1 .8-2.8l-.5.4c0-.6.7-4.1.7-4.1l-.5-.3s1.5-5.1 2.9-6.6a2.7 2.7 0 0 1 3.3-.5l-.7 2.4-.3-.8a21.4 21.4 0 0 0-.3 2.4s-.6-.1-.6-.4a20.2 20.2 0 0 0 0 2.5h-.5a19.7 19.7 0 0 0 .6 3.5h-.6a8.4 8.4 0 0 1 .5 3.3l-.6-.5a4 4 0 0 1 .1 2.3" fill="none" stroke="#000" stroke-linecap="round" stroke-linejoin="round" stroke-width=".4"/>
  <path d="M41.2 32.9c.3-.1.6-.4.5-.7a9 9 0 0 1 .9-4.2 8.8 8.8 0 0 0 .8-3 7.1 7.1 0 0 0-1.2-4.2.8.8 0 0 0-1.1 0 .7.7 0 0 0 0 1 6.2 6.2 0 0 1 .8 3.2 6.7 6.7 0 0 1-.7 2.4 11.1 11.1 0 0 0-1 4.8c.1.4.4.8.8.7z" fill="#856353" stroke="#000" stroke-linecap="round" stroke-linejoin="round" stroke-width=".4"/>
  <path d="M38 32.2a.7.7 0 0 0 .7-.6 8.9 8.9 0 0 1 1.8-3.9A7.6 7.6 0 0 0 42 25a6.1 6.1 0 0 0-.2-4.3.7.7 0 0 0-1-.3.7.7 0 0 0-.3 1 5.5 5.5 0 0 1 0 3.2 5.9 5.9 0 0 1-1.2 2.2 11.8 11.8 0 0 0-2.1 4.5.9.9 0 0 0 .6.9z" fill="#856353" stroke="#000" stroke-linecap="round" stroke-linejoin="round" stroke-width=".4"/>
  <path d="M39.3 32.7c.3-.1.6-.3.6-.6a8.3 8.3 0 0 1 1.8-3.9 7 7 0 0 0 1.5-2.7 6.6 6.6 0 0 0-.2-4.4.8.8 0 0 0-1-.2.7.7 0 0 0-.3 1 4.6 4.6 0 0 1 0 3.2 5.9 5.9 0 0 1-1.2 2.2 10 10 0 0 0-2 4.5.6.6 0 0 0 .6.8c0 .1.1.1.2.1z" fill="#856353" stroke="#000" stroke-linecap="round" stroke-linejoin="round" stroke-width=".4"/>
  <path d="M42.8 21.4a29.9 29.9 0 0 0-2.1 4.8 7.1 7.1 0 0 1-2.9 4.5c-1.9 1.4-3.8-.1-6.5-2.7s1-9.1 2.1-9.5 6.6-.9 9.4 2.9z" fill="#f3bc84"/>
  <path d="M41.7 20.6a28.3 28.3 0 0 0-2.4 5.3c-.5 1.8-2.8 4.5-5.3 4.3 0 .1 1.7 1.5 3.1.9a6.3 6.3 0 0 0 3.2-3.4c.5-1.6 1.8-5.1 1.8-5.1l.6-1.2z" fill="#c69c6d"/>
  <path d="M42.7 21.4a31.7 31.7 0 0 0-2 4.8 7.1 7.1 0 0 1-2.9 4.5c-1.9 1.4-3.8-.1-6.5-2.7s1-9.1 2.1-9.5 6.5-.9 9.3 2.9z" fill="none" stroke="#000" stroke-linecap="round" stroke-linejoin="round" stroke-width=".4"/>
  <path d="M33.9 20.6a2.4 2.4 0 0 1 3.5 1.2m4.2 0s-2.2-.8-3 .9a4.8 4.8 0 0 0-.2 3.3c.1.3-.7 1-.7 1m-1.1-1.3s-.6.5-.3.7.6.2.9.2h.3m-.4.4l.1-.4m.7.2l.2.4" fill="none" stroke="#000" stroke-linecap="round" stroke-linejoin="round" stroke-width=".3"/>
  <path d="M37.2 27.9h-.3a.7.7 0 0 0-.4-.2 5.7 5.7 0 0 0-1.4.4l2.7.6-2.6-.6s1.3 2 2.8.6h.1z" fill="red"/>
  <path d="M34.9 27.8a11.3 11.3 0 0 0 3.4.9m-3.1-.6s1.3 2 2.8.6" fill="none" stroke="#000" stroke-linecap="round" stroke-linejoin="round" stroke-width=".3"/>
  <path d="M38 28.5l-.8-.6h-.3a.7.7 0 0 0-.4-.2c-.1-.1-1.2.3-1.2.3" fill="none" stroke="#000" stroke-linecap="round" stroke-linejoin="round" stroke-width=".3"/>
  <path d="M24.6 28.4a.8.8 0 0 1 0-.9 9.5 9.5 0 0 0 1.5-4 6.9 6.9 0 0 1 .9-2.9 6.1 6.1 0 0 1 3.2-2.9.8.8 0 0 1 1 .5.7.7 0 0 1-.5.9 4.5 4.5 0 0 0-2.4 2.2 7.5 7.5 0 0 0-.8 2.4 9.7 9.7 0 0 1-1.7 4.6c-.2.4-.7.4-1.1.2z" fill="#856353" stroke="#000" stroke-linecap="round" stroke-linejoin="round" stroke-width=".4"/>
  <path d="M26.4 29.2a.7.7 0 0 1-.3-.8 9 9 0 0 0 .6-4.3 6.3 6.3 0 0 1 .2-3c.9-2.7 2.4-3.6 2.5-3.6a.7.7 0 0 1 .7 1.3 5.3 5.3 0 0 0-1.8 2.7 7.1 7.1 0 0 0-.1 2.5 9.4 9.4 0 0 1-.7 4.9.6.6 0 0 1-.9.4c-.1 0-.2 0-.2-.1z" fill="#856353" stroke="#000" stroke-linecap="round" stroke-linejoin="round" stroke-width=".4"/>
  <path d="M27.7 29.5a.8.8 0 0 1-.3-.9 8.5 8.5 0 0 0 .6-4.2 6.8 6.8 0 0 1 .2-3.1c.9-2.6 2.4-3.5 2.5-3.5a.8.8 0 0 1 1 .2.8.8 0 0 1-.3 1.1 5.3 5.3 0 0 0-1.8 2.7 7 7 0 0 0-.1 2.5 9 9 0 0 1-.7 4.8.8.8 0 0 1-.9.5z" fill="#856353" stroke="#000" stroke-linecap="round" stroke-linejoin="round" stroke-width=".4"/>
  <path d="M29 29.4a.8.8 0 0 1-.2-.9 8.4 8.4 0 0 0 .5-4.2 8.6 8.6 0 0 1 .3-3.1 7.2 7.2 0 0 1 2.4-3.6.9.9 0 0 1 1.1.3.8.8 0 0 1-.3 1 4.7 4.7 0 0 0-1.8 2.8 6.9 6.9 0 0 0-.2 2.5 9.9 9.9 0 0 1-.6 4.8.9.9 0 0 1-1 .5z" fill="#856353" stroke="#000" stroke-linecap="round" stroke-linejoin="round" stroke-width=".4"/>
  <path d="M30.2 29.5a.8.8 0 0 1-.3-.9 8.5 8.5 0 0 0 .6-4.2 6.8 6.8 0 0 1 .2-3.1c.9-2.6 2.4-3.5 2.5-3.5s1.7-.4 1.9 0-.5.8-1.2 1.3a5.3 5.3 0 0 0-1.8 2.7 7 7 0 0 0-.1 2.5 9 9 0 0 1-.7 4.8.8.8 0 0 1-.9.5z" fill="#856353" stroke="#000" stroke-linecap="round" stroke-linejoin="round" stroke-width=".4"/>
  <path d="M34.2 22a2.8 2.8 0 0 0 1.5 1 1.3 1.3 0 0 0 1.1-.2 1.8 1.8 0 0 0-1.3-.9c-1-.2-1.3.1-1.3.1z" fill="#fff"/>
  <path d="M34.4 21.8a3.9 3.9 0 0 1 1.2.2 2.7 2.7 0 0 1 1.3.8 2 2 0 0 1-1.5.1 2.1 2.1 0 0 1-1.2-1m2.7.9a1.7 1.7 0 0 0-2.7-.9" fill="none" stroke="#000" stroke-linecap="round" stroke-linejoin="round" stroke-width=".3"/>
  <ellipse cx="35.7" cy="22.5" rx=".5" ry=".7" transform="rotate(-71.8 35.65 22.44)"/>
  <circle cx="35.9" cy="22.4" r=".2" fill="#fff"/>
  <path d="M38.5 23.4a2.8 2.8 0 0 0 1.6.8c.8 0 1-.4 1-.4a1.6 1.6 0 0 0-1.4-.7c-.9-.1-1.2.3-1.2.3z" fill="#fff"/>
  <path d="M38.7 23.2h1.2a2.4 2.4 0 0 1 1.1.6 1.6 1.6 0 0 1-1.3.3 2.1 2.1 0 0 1-1.2-.8m2.6.5a1.6 1.6 0 0 0-2.6-.5" fill="none" stroke="#000" stroke-linecap="round" stroke-linejoin="round" stroke-width=".3"/>
  <ellipse cx="39.9" cy="23.7" rx=".5" ry=".6" transform="rotate(-79 39.96 23.73)"/>
  <ellipse cx="40.1" cy="23.5" rx=".2" ry=".2" transform="rotate(-79.1 40.12 23.56)" fill="#fff"/>
  <path d="M36.2 31.2a7.1 7.1 0 0 0-.9 2.6" fill="none" stroke="#000" stroke-linecap="round" stroke-linejoin="round" stroke-width=".4"/>
  <path d="M28.6 12.8s7.9-1.1 16.6 4.7l-1.3 1.7-8.1-2.7-6.2-.4z" fill="#980805" stroke="#000" stroke-linecap="round" stroke-linejoin="round" stroke-width=".4"/>
  <path fill="#d09b07" stroke="#000" stroke-linecap="round" stroke-linejoin="round" stroke-width=".4" d="M32.6 14.3l-3.2-.1.6-3 .5.6.6-1.8.5 1.8.4-.6.6 3.1zm5.6.9l-3.3-.7 1.3-2.8.3.7.9-1.6.2 1.8.6-.5v3.1zm6.2 3.1l-3-1.7 2.1-2.3.1.8 1.3-1.3-.3 1.8.6-.3-.8 3z"/>
  <path d="M48.3 16.7c-.3.2-.8-.2-.8-.4a.6.6 0 0 0-.9-.1c-.4.5-1.1 1.2-1.4 1s-.3-.4-.3-.4h-.1a.8.8 0 0 1-.7.8.7.7 0 0 1-.7-.7v-.2h.2a.8.8 0 0 0 .7-.8.7.7 0 0 0-.7-.7.8.8 0 0 0-.8.7.5.5 0 0 0 .2.4 1.1 1.1 0 0 1-.7.3 1.5 1.5 0 0 1-1.5-1.5 2 2 0 0 1 .1-.7l.2.2a.6.6 0 0 0 .8-.4.6.6 0 0 0-.3-.8h-.1l.3-.3a.7.7 0 0 0-.4-.8.6.6 0 0 0-.8.3.3.3 0 0 0 0 .4h-.1a.6.6 0 0 0-.8.3.7.7 0 0 0 .3.9h.2a2.1 2.1 0 0 1-1.8.8 1.7 1.7 0 0 1-1.4-.9.8.8 0 0 0 .5-.7.7.7 0 1 0-1.4 0 .9.9 0 0 0 .3.6l-.9.3a1.5 1.5 0 0 1-1.5-1.4v-.4h.2a.7.7 0 0 0 .8-.5c0-.4-.2-.7-.6-.7h-.1a.5.5 0 0 0 .2-.4.5.5 0 0 0-.5-.7.6.6 0 0 0-.7.5c-.1.2 0 .3 0 .4a.7.7 0 0 0-.8.5c0 .4.2.7.6.7h.3v.3A1.6 1.6 0 0 1 32 14c-.5-.1-.7-.2-.8-.5a.8.8 0 0 0 .4-.7.7.7 0 0 0-1.4 0 .7.7 0 0 0 .5.7 1 1 0 0 1-.9.7.7.7 0 0 1-.7-.7.6.6 0 0 1 .3-.6v-.7L29 12c-.2-.1-.2-.3-.5-.6s-.8.1-1 .2-1-.8-1.1-1-1.5-.4-1.6.4.8.5 1.1.5.4.1.4.1l2.7 3.3 15.3 4.5 2.3-1.4a.5.5 0 0 0 .8-.2.9.9 0 0 1 1.1-.4c.3.2 1.3.4 1.3-.4s-1.3-.6-1.5-.3z" fill="#febf10" stroke="#000" stroke-linecap="round" stroke-linejoin="round" stroke-width=".4"/>
  <path d="M29.7 17.4l-.3-2.2c.4 0 8.5-.8 14.9 4L43 21c-5.7-4.4-13.3-3.6-13.3-3.6z" fill="#0065b7" stroke="#000" stroke-linecap="round" stroke-linejoin="round" stroke-width=".4"/>
  <path d="M29 15.8c-.2-.1-.2-.2-.3-.4s.2-.5.4-.5a22.8 22.8 0 0 1 15.7 4.2c.2.1.2.4.1.6s-.4.3-.7.2a22.4 22.4 0 0 0-14.9-4.1z" fill="#febf10" stroke="#000" stroke-linecap="round" stroke-linejoin="round" stroke-width=".4"/>
  <path d="M29.3 17.8c-.1 0-.2-.2-.2-.3s.1-.5.4-.6 6.2-.9 13.9 3.7a.4.4 0 0 1 .1.6c-.1.3-.4.4-.6.2-7.4-4.4-13.2-3.5-13.3-3.5zm-15.5-2.7a.6.6 0 0 1 .6-.6c.6.1.7 1 .1 1.4a1 1 0 0 1-1.5-1 1.3 1.3 0 0 1 1.6-1.2 2.6 2.6 0 0 1 1.8 2.1 4.5 4.5 0 0 1 .1 2s-1.1.3-1.4 0a2.7 2.7 0 0 0-.3-3m3.3-1.5a.5.5 0 0 0-.8.1c-.4.4.2 1.2.8 1a1.1 1.1 0 0 0 .5-1.8 1.2 1.2 0 0 0-2 .3 2.8 2.8 0 0 0 .1 2.8 5.3 5.3 0 0 0 1.3 1.5s1-.5 1.1-1a2.6 2.6 0 0 1-1.9-2.3" fill="#febf10" stroke="#000" stroke-linecap="round" stroke-linejoin="round" stroke-width=".4"/>
  <circle cx="17.6" cy="18.3" r="1.4" fill="#febf10" stroke="#000" stroke-linecap="round" stroke-linejoin="round" stroke-width=".4"/>
  <circle cx="17.4" cy="17.8" r=".9" fill="#325723" stroke="#000" stroke-linecap="round" stroke-linejoin="round" stroke-width=".4"/>
  <path d="M65.3 27.8a3.5 3.5 0 0 1 2.5 3.4 5.1 5.1 0 0 1-2.5 4.8 8.6 8.6 0 0 1-5 1.2 8.6 8.6 0 0 1-5-1.2 5.1 5.1 0 0 1-2.5-4.8 3.3 3.3 0 0 1 2.5-3.4h10z" fill="#febf10"/>
  <path d="M63.3 27.9s1.9 6.8-3.8 9.4c0 0 5.3.2 7-2.3s1.4-4.6.5-5.9a3.1 3.1 0 0 0-3.7-1.2z" fill="#d09b07"/>
  <path d="M65.3 27.8a3.5 3.5 0 0 1 2.5 3.4 5.1 5.1 0 0 1-2.5 4.8 8.6 8.6 0 0 1-5 1.2 8.6 8.6 0 0 1-5-1.2 5.1 5.1 0 0 1-2.5-4.8 3.3 3.3 0 0 1 2.5-3.4h10z" fill="none" stroke="#000" stroke-linecap="round" stroke-linejoin="round" stroke-width=".41"/>
  <path d="M66.3 24.4h-12v3.3l6 .9 6-.9z" fill="#d09b07" stroke="#000" stroke-linecap="round" stroke-linejoin="round" stroke-width=".41"/>
  <path d="M63.6 26.9a1.7 1.7 0 0 0 1.4.5c.7-.2 1.2-1.2 1.2-1.2a1.8 1.8 0 0 0-1.5-.5c-.7.2-1.1 1.2-1.1 1.2z" fill="#febf10" stroke="#000" stroke-linecap="round" stroke-linejoin="round" stroke-width=".3"/>
  <path fill="none" stroke="#000" stroke-linecap="round" stroke-linejoin="round" stroke-width=".3" d="M63.6 26.9l1.4-.4"/>
  <path d="M62 27.3a1.8 1.8 0 0 0 1.5.5c.7-.1 1.2-1.1 1.2-1.1a2.1 2.1 0 0 0-1.5-.6c-.7.2-1.2 1.2-1.2 1.2z" fill="#febf10" stroke="#000" stroke-linecap="round" stroke-linejoin="round" stroke-width=".3"/>
  <path fill="none" stroke="#000" stroke-linecap="round" stroke-linejoin="round" stroke-width=".3" d="M62 27.3l1.5-.3"/>
  <path d="M60.3 27.3s.7.8 1.4.7 1.3-.9 1.3-.9-.6-.9-1.4-.8-1.3 1-1.3 1z" fill="#febf10" stroke="#000" stroke-linecap="round" stroke-linejoin="round" stroke-width=".3"/>
  <path fill="none" stroke="#000" stroke-linecap="round" stroke-linejoin="round" stroke-width=".3" d="M60.3 27.3l1.5-.1"/>
  <path d="M57 26.9a1.7 1.7 0 0 1-1.4.5c-.8-.2-1.2-1.2-1.2-1.2a1.7 1.7 0 0 1 1.4-.5c.8.2 1.2 1.2 1.2 1.2z" fill="#febf10" stroke="#000" stroke-linecap="round" stroke-linejoin="round" stroke-width=".3"/>
  <path fill="none" stroke="#000" stroke-linecap="round" stroke-linejoin="round" stroke-width=".3" d="M57 26.9l-1.4-.4"/>
  <path d="M58.6 27.2s-.8.8-1.5.6a2.5 2.5 0 0 1-1.2-1.1 1.7 1.7 0 0 1 1.5-.6 2.5 2.5 0 0 1 1.2 1.1z" fill="#febf10" stroke="#000" stroke-linecap="round" stroke-linejoin="round" stroke-width=".3"/>
  <path fill="none" stroke="#000" stroke-linecap="round" stroke-linejoin="round" stroke-width=".3" d="M58.6 27.2l-1.5-.3"/>
  <path d="M60.2 27.2s-.6.9-1.3.8a2.1 2.1 0 0 1-1.3-1s.6-.8 1.3-.7 1.3.9 1.3.9z" fill="#febf10" stroke="#000" stroke-linecap="round" stroke-linejoin="round" stroke-width=".3"/>
  <path fill="none" stroke="#000" stroke-linecap="round" stroke-linejoin="round" stroke-width=".3" d="M60.2 27.2l-1.4-.1"/>
  <path d="M59.2 28.9h.2l2.4-2.9a.5.5 0 0 0 0-.5.2.2 0 0 0-.4 0L59 28.3a.4.4 0 0 0 0 .5z" fill="#0065b7" stroke="#000" stroke-linecap="round" stroke-linejoin="round" stroke-width=".35"/>
  <path d="M61.5 29h.2a.4.4 0 0 0 0-.5l-2.2-2.6a.2.2 0 0 0-.4 0 .5.5 0 0 0 0 .5l2.1 2.6c.1 0 .2.1.3 0z" fill="#0065b7" stroke="#000" stroke-linecap="round" stroke-linejoin="round" stroke-width=".35"/>
  <path d="M52.7 22.9c0 1.7 3.4 3.1 7.5 3.1s7.5-1.4 7.6-3.1c0-1.7-3.4-3.1-7.5-3.1s-7.5 1.4-7.6 3.1z" fill="red"/>
  <path d="M65.7 22.2s-5.8 3-10.8 0c0 0-.4-.2-.5.4s1 1.9 4.5 1.9 5.7-.2 6.4-.7 1.4-.9.4-1.6z" fill="#980805"/>
  <path d="M52.7 22.9c0 1.7 3.4 3.1 7.5 3.1s7.5-1.4 7.6-3.1c0-1.7-3.4-3.1-7.5-3.1s-7.5 1.4-7.6 3.1z" fill="none" stroke="#000" stroke-linecap="round" stroke-linejoin="round" stroke-width=".38"/>
  <path d="M54.8 22.2a.8.8 0 0 0-.4.7c0 .9 2.6 1.7 5.8 1.7s5.9-.8 5.9-1.7a.9.9 0 0 0-.4-.7" fill="none" stroke="#000" stroke-linecap="round" stroke-linejoin="round" stroke-width=".36"/>
  <path d="M67.4 30.7c1 0 .5 6.9-7.1 6.5-7.6.4-8.1-6.5-7.1-6.5h.1c.2.1.3.4.4.7s.2-.4.4-.3.4.4.5.9.2-.7.6-.6.5.5.6 1.1a.8.8 0 0 1 .7-.9c.5 0 .7.4.9.9s.4-.8.8-.8.9.5 1.1 1.2.4-1.2 1-1.2.9.5 1 1.2.5-1.2 1.1-1.2.7.3.8.8.4-.9.9-.9a.8.8 0 0 1 .7.9c.1-.6.2-1 .6-1.1s.6.2.6.6.2-.8.5-.9.3 0 .4.3.2-.6.4-.7z" fill="none" stroke="#000" stroke-linecap="round" stroke-linejoin="round" stroke-width=".41"/>
  <path d="M67.3 30.7c1.1-.4.8 6.9-7 6.5 8.2-.9 5.8-6 7-6.5z" fill="#325723" stroke="#000" stroke-linecap="round" stroke-linejoin="round" stroke-width=".41"/>
  <path d="M66.5 31.1c1.2-.5.7 6.2-6.2 6.1 7-.8 5-5.7 6.2-6.1z" fill="#325723" stroke="#000" stroke-linecap="round" stroke-linejoin="round" stroke-width=".41"/>
  <path d="M65.4 31.4c1.5-.5.6 5.9-5.1 5.8 5.6-1.7 3.9-5.4 5.1-5.8z" fill="#325723" stroke="#000" stroke-linecap="round" stroke-linejoin="round" stroke-width=".41"/>
  <path d="M64.1 31.6c1.5 0 .7 4.7-3.8 5.6 3.5-1.9 2.1-5.6 3.8-5.6z" fill="#325723" stroke="#000" stroke-linecap="round" stroke-linejoin="round" stroke-width=".41"/>
  <path d="M62.4 31.7c1.5 0 .9 4.4-2.1 5.5 1.2-1.9.4-5.5 2.1-5.5zm-9.1-1c-1.1-.4-.8 6.9 7 6.5-8.2-.9-5.8-6-7-6.5z" fill="#325723" stroke="#000" stroke-linecap="round" stroke-linejoin="round" stroke-width=".41"/>
  <path d="M54.1 31.1c-1.2-.5-.7 6.2 6.2 6.1-7.1-.8-5-5.7-6.2-6.1z" fill="#325723" stroke="#000" stroke-linecap="round" stroke-linejoin="round" stroke-width=".41"/>
  <path d="M55.2 31.4c-1.5-.5-.6 5.9 5.1 5.8-5.6-1.7-3.9-5.4-5.1-5.8z" fill="#325723" stroke="#000" stroke-linecap="round" stroke-linejoin="round" stroke-width=".41"/>
  <path d="M56.5 31.6c-1.6 0-.7 4.7 3.8 5.6-3.5-1.9-2.1-5.6-3.8-5.6z" fill="#325723" stroke="#000" stroke-linecap="round" stroke-linejoin="round" stroke-width=".41"/>
  <path d="M58.2 31.7c-1.6 0-.9 4.4 2.1 5.5-1.2-1.9-.4-5.5-2.1-5.5z" fill="#325723" stroke="#000" stroke-linecap="round" stroke-linejoin="round" stroke-width=".41"/>
  <path d="M60.3 31.7c1.5 0 1.4 3.6 0 5.5-1.4-1.9-1.6-5.5 0-5.5z" fill="#325723" stroke="#000" stroke-linecap="round" stroke-linejoin="round" stroke-width=".41"/>
  <path d="M60.3 32.7c.9 0 .8 2.9 0 4.4-.9-1.5-1-4.4 0-4.4z" fill="#0d3a12" stroke="#000" stroke-linecap="round" stroke-linejoin="round" stroke-width=".41"/>
  <path d="M66.4 27.1a.4.4 0 0 1 .4.4.6.6 0 0 1-.2.6 16.7 16.7 0 0 1-6.2 1.3h-.2a16.2 16.2 0 0 1-6.2-1.3.4.4 0 0 1-.2-.6.4.4 0 0 1 .4-.4h.1a17.4 17.4 0 0 0 6 1.1 16.3 16.3 0 0 0 5.9-1.1z" fill="#febf10" stroke="#000" stroke-linecap="round" stroke-linejoin="round" stroke-width=".41"/>
  <path d="M39.9 38.1s3.1 1.6 3.4 4.6a5 5 0 0 1-1.7 4.5" fill="none" stroke="#000" stroke-linecap="round" stroke-linejoin="round" stroke-width=".4"/>
  <path d="M40.1 39.6a5.2 5.2 0 0 1 2.2 3 5.6 5.6 0 0 1-.9 3.4m1.3.2s1 .3 1.3 2.6-1.5 6.1-1.5 6.1" fill="none" stroke="#000" stroke-linecap="round" stroke-linejoin="round" stroke-width=".4"/>
  <path d="M42.2 46.8a3.7 3.7 0 0 1 1 3.1 8.4 8.4 0 0 1-.9 3.1m2 1.4a4.5 4.5 0 0 0-1.3 3.2 3.7 3.7 0 0 0 1.5 3.2" fill="none" stroke="#000" stroke-linecap="round" stroke-linejoin="round" stroke-width=".4"/>
  <path d="M44.5 55.6a5.5 5.5 0 0 0-.5 2.3 2.6 2.6 0 0 0 .5 1.6" fill="none" stroke="#000" stroke-linecap="round" stroke-linejoin="round" stroke-width=".4"/>
  <path fill="none" stroke="#000" stroke-linecap="round" stroke-linejoin="round" stroke-width=".4" d="M8 7.9h62v124.31H8zM8.1 70H70"/>
</svg>
