<?xml version="1.0" encoding="UTF-8"?>
<svg xmlns="http://www.w3.org/2000/svg" xmlns:xlink="http://www.w3.org/1999/xlink" width="261px" height="420px" viewBox="0 0 261 426" version="1.1">
<g id="surface1">
<path style=" stroke:none;fill-rule:nonzero;fill:rgb(100%,100%,100%);fill-opacity:1;" d="M 20.078125 0 L 240.921875 0 C 252.011719 0 261 8.058594 261 18 L 261 402 C 261 411.941406 252.011719 420 240.921875 420 L 20.078125 420 C 8.988281 420 0 411.941406 0 402 L 0 18 C 0 8.058594 8.988281 0 20.078125 0 Z M 20.078125 0 "/>
<path style="fill-rule:nonzero;fill:rgb(19.607843%,34.117647%,13.72549%);fill-opacity:1;stroke-width:0.4;stroke-linecap:round;stroke-linejoin:round;stroke:rgb(0%,0%,0%);stroke-opacity:1;stroke-miterlimit:4;" d="M 51.200341 79.5 C 52.400413 78.60026 53.200072 77 58.099587 76 C 65.799659 74.5 65.700431 68.89974 64.699982 66.10026 C 63.699533 63.299479 57.599946 61.89974 58.199982 63.5 C 58.483657 64.295573 58.429957 65.171875 58.051724 65.925781 C 57.674659 66.68099 57.005747 67.25 56.200251 67.5 C 48.899425 69.89974 44.400323 71.60026 43.99991 74.5 C 43.599497 77.39974 49.899874 80.39974 51.200341 79.5 Z M 51.200341 79.5 " transform="matrix(3.346154,0,0,3,0,0)"/>
<path style="fill:none;stroke-width:0.4;stroke-linecap:round;stroke-linejoin:round;stroke:rgb(0%,0%,0%);stroke-opacity:1;stroke-miterlimit:4;" d="M 63.699533 65.39974 C 64.573904 67.408854 64.573904 69.691406 63.699533 71.700521 C 62.799479 73.39974 60.900144 74.5 58.099587 75 C 55.165948 75.393229 52.452945 76.766927 50.399515 78.89974 M 44.899964 75.39974 C 45.300377 72.5 50.199892 70.60026 56.800287 68.39974 C 57.883621 68.013021 58.779005 67.226562 59.299659 66.200521 C 59.690733 65.463542 59.798132 64.609375 59.599677 63.799479 " transform="matrix(3.346154,0,0,3,0,0)"/>
<path style=" stroke:none;fill-rule:nonzero;fill:rgb(19.607843%,34.117647%,13.72549%);fill-opacity:1;" d="M 87.667969 238.5 C 83.652344 235.800781 80.976562 231 64.582031 228 C 38.816406 223.5 39.148438 206.699219 42.496094 198.300781 C 45.84375 189.898438 66.253906 185.699219 64.246094 190.5 C 63.300781 192.886719 63.476562 195.515625 64.742188 197.777344 C 66.003906 200.042969 68.242188 201.75 70.9375 202.5 C 95.367188 209.699219 110.421875 214.800781 111.761719 223.5 C 113.101562 232.199219 92.019531 241.199219 87.667969 238.5 Z M 87.667969 238.5 "/>
<path style="fill:none;stroke-width:0.4;stroke-linecap:round;stroke-linejoin:round;stroke:rgb(0%,0%,0%);stroke-opacity:1;stroke-miterlimit:4;" d="M 27.399695 79.299479 C 25.362608 76.972656 22.560884 75.447917 19.5 75 C 16.799838 74.5 14.900503 73.39974 13.900054 71.700521 C 12.899605 70 13.499641 66.299479 13.900054 65.39974 M 17.99991 63.799479 C 17.90185 64.611979 18.00458 65.436198 18.299928 66.200521 C 18.821749 67.226562 19.715966 68.013021 20.800467 68.39974 C 27.399695 70.60026 32.300377 72.799479 32.699623 75.700521 " transform="matrix(3.346154,0,0,3,0,0)"/>
<path style="fill:none;stroke-width:0.4;stroke-linecap:round;stroke-linejoin:round;stroke:rgb(0%,0%,0%);stroke-opacity:1;stroke-miterlimit:4;" d="M 18.299928 62.799479 C 16.699443 62.799479 13.400413 64.10026 12.699982 66.10026 C 11.999551 68.10026 11.600305 74.5 19.300377 76 C 24.199892 77 24.999551 78.60026 26.199623 79.5 L 26.900054 79.700521 C 29.00018 79.700521 33.700072 77.10026 33.400054 74.5 C 33.100036 71.89974 28.500539 69.89974 21.199713 67.5 C 20.394217 67.25 19.725305 66.68099 19.34824 65.925781 C 18.970007 65.171875 18.917475 64.295573 19.199982 63.5 C 19.300377 63 19.000359 62.799479 18.299928 62.799479 Z M 18.299928 62.799479 " transform="matrix(3.346154,0,0,3,0,0)"/>
<path style=" stroke:none;fill-rule:nonzero;fill:rgb(0%,39.607843%,71.764706%);fill-opacity:1;" d="M 189.058594 46.5 L 180.359375 34.199219 L 171.65625 46.5 L 168.3125 287.398438 L 192.402344 287.398438 Z M 189.058594 46.5 "/>
<path style=" stroke:none;fill-rule:nonzero;fill:rgb(0%,30.196078%,63.137255%);fill-opacity:1;" d="M 189.058594 46.5 L 180.359375 34.199219 L 180.359375 287.398438 L 192.402344 287.398438 Z M 189.058594 46.5 "/>
<path style="fill:none;stroke-width:0.4;stroke-linecap:round;stroke-linejoin:round;stroke:rgb(0%,0%,0%);stroke-opacity:1;stroke-miterlimit:4;" d="M 56.500269 15.5 L 53.900503 11.39974 L 51.299569 15.5 L 50.300287 95.799479 L 57.499551 95.799479 Z M 56.500269 15.5 " transform="matrix(3.346154,0,0,3,0,0)"/>
<path style="fill:none;stroke-width:0.4;stroke-linecap:round;stroke-linejoin:round;stroke:rgb(0%,0%,0%);stroke-opacity:1;stroke-miterlimit:4;" d="M 53.900503 11.39974 L 53.900503 95.700521 " transform="matrix(3.346154,0,0,3,0,0)"/>
<path style=" stroke:none;fill-rule:nonzero;fill:rgb(0%,0%,0%);fill-opacity:1;" d="M 180.359375 273.300781 C 184.707031 279 196.753906 283.5 196.753906 295.199219 C 196.753906 301.199219 193.742188 306 188.722656 306 C 183.703125 306 185.042969 307.5 180.359375 307.5 C 175.671875 307.5 175.671875 306 171.992188 306 C 168.3125 306 164.296875 301.199219 164.296875 295.199219 C 164.296875 283.5 176.34375 279 180.359375 273.300781 Z M 180.359375 273.300781 "/>
<path style="fill-rule:nonzero;fill:rgb(100%,0%,0%);fill-opacity:1;stroke-width:0.55;stroke-linecap:round;stroke-linejoin:round;stroke:rgb(0%,0%,0%);stroke-opacity:1;stroke-miterlimit:4;" d="M 52.100395 97.299479 C 52.100395 98.89974 52.900054 100.10026 53.900503 100.10026 C 54.899784 100.10026 55.699443 98.89974 55.699443 97.299479 C 55.699443 95.799479 54.899784 94.5 53.900503 94.5 C 52.900054 94.5 52.100395 95.799479 52.100395 97.299479 Z M 52.100395 97.299479 " transform="matrix(3.346154,0,0,3,0,0)"/>
<path style="fill:none;stroke-width:0.3;stroke-linecap:round;stroke-linejoin:round;stroke:rgb(0%,0%,0%);stroke-opacity:1;stroke-miterlimit:4;" d="M 54.100126 96.299479 C 53.399695 96.10026 53.50009 98.700521 53.999731 98.5 M 54.400144 95.89974 C 54.400144 95.60026 53.999731 95.39974 53.699713 95.5 C 53.151042 95.929688 52.851024 96.604167 52.900054 97.299479 C 52.900054 98.200521 53.200072 99.299479 53.900503 99.200521 " transform="matrix(3.346154,0,0,3,0,0)"/>
<path style=" stroke:none;fill-rule:nonzero;fill:rgb(99.607843%,74.901961%,6.27451%);fill-opacity:1;" d="M 180.359375 277.5 C 183.371094 280.199219 193.074219 285.601562 193.074219 295.199219 C 193.074219 299.699219 190.730469 303.898438 187.050781 303.898438 C 185.941406 303.898438 185.042969 303.09375 185.042969 302.101562 C 185.042969 301.199219 185.710938 300.601562 187.050781 300.601562 C 188.386719 300.601562 189.726562 297 189.726562 294.601562 C 189.726562 292.199219 183.035156 282.601562 180.359375 280.199219 C 178.015625 282.601562 171.324219 287.699219 171.324219 294.601562 C 171.324219 301.5 172.328125 300.601562 174 300.601562 C 174.925781 300.601562 175.671875 301.273438 175.671875 302.101562 C 175.6875 302.988281 174.976562 303.753906 174 303.898438 C 170.320312 303.898438 167.976562 299.699219 167.976562 295.199219 C 167.976562 285.601562 177.347656 280.199219 180.359375 277.5 Z M 180.359375 300 C 182.367188 300 183.703125 300.898438 183.703125 302.101562 C 183.621094 302.816406 183.21875 303.476562 182.589844 303.925781 C 181.960938 304.378906 181.15625 304.585938 180.359375 304.5 C 178.742188 304.527344 177.335938 303.519531 177.011719 302.101562 C 177.011719 300.898438 178.683594 300 180.359375 300 Z M 180.359375 300 "/>
<path style="fill-rule:nonzero;fill:rgb(99.607843%,74.901961%,6.27451%);fill-opacity:1;stroke-width:0.4;stroke-linecap:butt;stroke-linejoin:miter;stroke:rgb(0%,0%,0%);stroke-opacity:1;stroke-miterlimit:4;" d="M 58.099587 98.200521 C 58.07157 99.16276 58.442798 100.095052 59.123384 100.776042 C 59.805136 101.457031 60.73671 101.828125 61.699802 101.799479 C 63.687859 101.799479 65.300018 100.188802 65.300018 98.200521 C 65.328035 97.236979 64.957974 96.304688 64.276221 95.623698 C 63.595636 94.942708 62.662895 94.571615 61.699802 94.60026 C 60.73671 94.571615 59.805136 94.942708 59.123384 95.623698 C 58.442798 96.304688 58.07157 97.236979 58.099587 98.200521 Z M 42.49982 98.200521 C 42.796336 99.985677 44.340787 101.294271 46.150233 101.294271 C 47.95968 101.294271 49.502963 99.985677 49.799479 98.200521 C 49.829831 97.21875 49.445761 96.270833 48.741828 95.585938 C 48.039062 94.901042 47.079472 94.542969 46.100036 94.60026 C 44.111979 94.60026 42.49982 96.21224 42.49982 98.200521 Z M 42.49982 98.200521 " transform="matrix(3.346154,0,0,3,0,0)"/>
<path style="fill-rule:nonzero;fill:rgb(19.607843%,34.117647%,13.72549%);fill-opacity:1;stroke-width:0.42;stroke-linecap:butt;stroke-linejoin:miter;stroke:rgb(0%,0%,0%);stroke-opacity:1;stroke-miterlimit:4;" d="M 61.699802 95.700521 C 62.270654 95.697917 62.748114 96.13151 62.799479 96.700521 C 62.799479 97.307292 62.30801 97.799479 61.699802 97.799479 C 61.092762 97.799479 60.600126 97.307292 60.600126 96.700521 C 60.598958 96.416667 60.718032 96.145833 60.926994 95.954427 C 61.137123 95.764323 61.418463 95.671875 61.699802 95.700521 Z M 61.699802 98.60026 C 62.286997 98.647135 62.752784 99.113281 62.799479 99.700521 C 62.748114 100.268229 62.270654 100.701823 61.699802 100.700521 C 61.418463 100.727865 61.137123 100.635417 60.926994 100.445312 C 60.718032 100.253906 60.598958 99.983073 60.600126 99.700521 C 60.600126 99.092448 61.092762 98.60026 61.699802 98.60026 Z M 61.699802 98.60026 " transform="matrix(3.346154,0,0,3,0,0)"/>
<path style="fill-rule:nonzero;fill:rgb(19.607843%,34.117647%,13.72549%);fill-opacity:1;stroke-width:0.42;stroke-linecap:butt;stroke-linejoin:miter;stroke:rgb(0%,0%,0%);stroke-opacity:1;stroke-miterlimit:4;" d="M 64.200341 98.200521 C 64.202676 98.770833 63.768409 99.248698 63.199892 99.299479 C 62.592852 99.299479 62.100216 98.807292 62.100216 98.200521 C 62.100216 97.592448 62.592852 97.10026 63.199892 97.10026 C 63.768409 97.152344 64.202676 97.628906 64.200341 98.200521 Z M 61.300557 98.200521 C 61.252694 98.786458 60.786907 99.252604 60.199713 99.299479 C 59.592672 99.299479 59.100036 98.807292 59.100036 98.200521 C 59.100036 97.592448 59.592672 97.10026 60.199713 97.10026 C 60.80792 97.10026 61.300557 97.592448 61.300557 98.200521 Z M 61.300557 98.200521 " transform="matrix(3.346154,0,0,3,0,0)"/>
<path style="fill-rule:nonzero;fill:rgb(19.607843%,34.117647%,13.72549%);fill-opacity:1;stroke-width:0.3;stroke-linecap:butt;stroke-linejoin:miter;stroke:rgb(0%,0%,0%);stroke-opacity:1;stroke-miterlimit:4;" d="M 60.600126 98.200521 C 60.600126 98.807292 61.092762 99.299479 61.699802 99.299479 C 62.286997 99.252604 62.752784 98.786458 62.799479 98.200521 C 62.752784 97.613281 62.286997 97.147135 61.699802 97.10026 C 61.092762 97.10026 60.600126 97.592448 60.600126 98.200521 Z M 60.600126 98.200521 " transform="matrix(3.346154,0,0,3,0,0)"/>
<path style="fill-rule:nonzero;fill:rgb(19.607843%,34.117647%,13.72549%);fill-opacity:1;stroke-width:0.42;stroke-linecap:butt;stroke-linejoin:miter;stroke:rgb(0%,0%,0%);stroke-opacity:1;stroke-miterlimit:4;" d="M 46.100036 95.700521 C 46.382543 95.671875 46.662716 95.764323 46.872845 95.954427 C 47.082974 96.145833 47.20088 96.416667 47.199713 96.700521 C 47.202047 97.270833 46.76778 97.748698 46.200431 97.799479 C 45.592223 97.799479 45.099587 97.307292 45.099587 96.700521 C 45.099587 96.147135 45.547863 95.700521 46.100036 95.700521 Z M 46.100036 98.60026 C 46.707076 98.60026 47.199713 99.092448 47.199713 99.700521 C 47.153017 100.231771 46.731591 100.653646 46.200431 100.700521 C 45.917924 100.727865 45.636584 100.635417 45.427622 100.445312 C 45.217493 100.253906 45.09842 99.983073 45.099587 99.700521 C 45.097252 99.128906 45.531519 98.652344 46.100036 98.60026 Z M 46.100036 98.60026 " transform="matrix(3.346154,0,0,3,0,0)"/>
<path style="fill-rule:nonzero;fill:rgb(19.607843%,34.117647%,13.72549%);fill-opacity:1;stroke-width:0.42;stroke-linecap:butt;stroke-linejoin:miter;stroke:rgb(0%,0%,0%);stroke-opacity:1;stroke-miterlimit:4;" d="M 48.699802 98.200521 C 48.653107 98.786458 48.18732 99.252604 47.600126 99.299479 C 47.031609 99.248698 46.597342 98.770833 46.599677 98.200521 C 46.571659 97.917969 46.663883 97.636719 46.855334 97.427083 C 47.045618 97.217448 47.316451 97.098958 47.600126 97.10026 C 48.207166 97.10026 48.699802 97.592448 48.699802 98.200521 Z M 45.699623 98.200521 C 45.701958 98.770833 45.26769 99.248698 44.700341 99.299479 C 44.092134 99.299479 43.599497 98.807292 43.599497 98.200521 C 43.599497 97.592448 44.092134 97.10026 44.700341 97.10026 C 45.26769 97.152344 45.701958 97.628906 45.699623 98.200521 Z M 45.699623 98.200521 " transform="matrix(3.346154,0,0,3,0,0)"/>
<path style="fill-rule:nonzero;fill:rgb(19.607843%,34.117647%,13.72549%);fill-opacity:1;stroke-width:0.3;stroke-linecap:butt;stroke-linejoin:miter;stroke:rgb(0%,0%,0%);stroke-opacity:1;stroke-miterlimit:4;" d="M 45.099587 98.200521 C 45.099587 98.807292 45.592223 99.299479 46.200431 99.299479 C 46.747935 99.208333 47.161189 98.753906 47.199713 98.200521 C 47.199713 97.592448 46.707076 97.10026 46.100036 97.10026 C 45.531519 97.152344 45.097252 97.628906 45.099587 98.200521 Z M 45.099587 98.200521 " transform="matrix(3.346154,0,0,3,0,0)"/>
<path style=" stroke:none;fill-rule:nonzero;fill:rgb(99.607843%,74.901961%,6.27451%);fill-opacity:1;" d="M 192.402344 336.898438 C 192.402344 319.171875 187.011719 304.800781 180.359375 304.800781 C 173.703125 304.800781 168.3125 319.171875 168.3125 336.898438 C 168.3125 354.628906 173.703125 369 180.359375 369 C 187.011719 369 192.402344 354.628906 192.402344 336.898438 Z M 192.402344 336.898438 "/>
<path style=" stroke:none;fill-rule:nonzero;fill:rgb(81.568627%,60.784314%,2.745098%);fill-opacity:1;" d="M 180.359375 368.699219 C 187.050781 368.699219 192.738281 354.300781 192.738281 336.898438 C 192.738281 319.5 187.050781 304.800781 180.359375 304.800781 "/>
<path style="fill:none;stroke-width:0.4;stroke-linecap:round;stroke-linejoin:round;stroke:rgb(0%,0%,0%);stroke-opacity:1;stroke-miterlimit:4;" d="M 57.499551 112.299479 C 57.499551 106.390625 55.88856 101.60026 53.900503 101.60026 C 51.911279 101.60026 50.300287 106.390625 50.300287 112.299479 C 50.300287 118.209635 51.911279 123 53.900503 123 C 55.88856 123 57.499551 118.209635 57.499551 112.299479 Z M 57.499551 112.299479 " transform="matrix(3.346154,0,0,3,0,0)"/>
<path style="fill-rule:nonzero;fill:rgb(99.607843%,74.901961%,6.27451%);fill-opacity:1;stroke-width:0.3;stroke-linecap:round;stroke-linejoin:round;stroke:rgb(0%,0%,0%);stroke-opacity:1;stroke-miterlimit:4;" d="M 49.600822 118.000045 L 57.000151 117.999593 C 57.27611 118.000329 57.500461 118.21058 57.50023 118.469998 C 57.5 118.729417 57.27609 118.939679 57.000223 118.94069 L 49.599975 118.940219 C 49.324016 118.939484 49.099665 118.729233 49.099896 118.469814 C 49.100126 118.210396 49.324036 118.000134 49.600822 118.000045 Z M 49.600822 118.000045 " transform="matrix(-2.370214,-2.117615,2.361955,-2.12502,25.080347,719.990954)"/>
<path style="fill-rule:nonzero;fill:rgb(99.607843%,74.901961%,6.27451%);fill-opacity:1;stroke-width:0.3;stroke-linecap:round;stroke-linejoin:round;stroke:rgb(0%,0%,0%);stroke-opacity:1;stroke-miterlimit:4;" d="M 49.100278 115.099855 L 58.299633 115.099751 C 58.576419 115.099662 58.799942 115.310737 58.799712 115.570156 C 58.799481 115.829574 58.575572 116.039836 58.300532 116.040023 L 49.099431 116.040029 C 48.824391 116.040216 48.60004 115.829965 48.600271 115.570546 C 48.599582 115.310205 48.823492 115.099943 49.100278 115.099855 Z M 49.100278 115.099855 " transform="matrix(-2.370214,-2.117615,2.361955,-2.12502,34.458913,705.885221)"/>
<path style="fill-rule:nonzero;fill:rgb(100%,0%,0%);fill-opacity:1;stroke-width:0.3;stroke-linecap:round;stroke-linejoin:round;stroke:rgb(0%,0%,0%);stroke-opacity:1;stroke-miterlimit:4;" d="M 56.899515 119.799479 C 56.899515 120.13151 56.631017 120.39974 56.299479 120.39974 C 55.969109 120.39974 55.699443 120.13151 55.699443 119.799479 C 55.699443 119.46875 55.969109 119.200521 56.299479 119.200521 C 56.631017 119.200521 56.899515 119.46875 56.899515 119.799479 Z M 56.899515 119.799479 " transform="matrix(3.346154,0,0,3,0,0)"/>
<path style="fill-rule:nonzero;fill:rgb(100%,0%,0%);fill-opacity:1;stroke-width:0.3;stroke-linecap:round;stroke-linejoin:round;stroke:rgb(0%,0%,0%);stroke-opacity:1;stroke-miterlimit:4;" d="M 55.900233 118.89974 C 55.900233 119.231771 55.631735 119.5 55.300198 119.5 C 54.96866 119.5 54.700162 119.231771 54.700162 118.89974 C 54.700162 118.56901 54.96866 118.299479 55.300198 118.299479 C 55.631735 118.299479 55.900233 118.56901 55.900233 118.89974 Z M 55.900233 118.89974 " transform="matrix(3.346154,0,0,3,0,0)"/>
<path style="fill-rule:nonzero;fill:rgb(100%,0%,0%);fill-opacity:1;stroke-width:0.3;stroke-linecap:round;stroke-linejoin:round;stroke:rgb(0%,0%,0%);stroke-opacity:1;stroke-miterlimit:4;" d="M 55.00018 117.89974 C 55.00018 118.231771 54.731681 118.5 54.400144 118.5 C 54.068606 118.5 53.800108 118.231771 53.800108 117.89974 C 53.800108 117.56901 54.068606 117.299479 54.400144 117.299479 C 54.731681 117.299479 55.00018 117.56901 55.00018 117.89974 Z M 55.00018 117.89974 " transform="matrix(3.346154,0,0,3,0,0)"/>
<path style="fill-rule:nonzero;fill:rgb(100%,0%,0%);fill-opacity:1;stroke-width:0.3;stroke-linecap:round;stroke-linejoin:round;stroke:rgb(0%,0%,0%);stroke-opacity:1;stroke-miterlimit:4;" d="M 53.999731 117 C 53.999731 117.330729 53.731232 117.60026 53.399695 117.60026 C 53.068157 117.60026 52.799659 117.330729 52.799659 117 C 52.799659 116.669271 53.068157 116.39974 53.399695 116.39974 C 53.731232 116.39974 53.999731 116.669271 53.999731 117 Z M 53.999731 117 " transform="matrix(3.346154,0,0,3,0,0)"/>
<path style="fill-rule:nonzero;fill:rgb(100%,0%,0%);fill-opacity:1;stroke-width:0.3;stroke-linecap:round;stroke-linejoin:round;stroke:rgb(0%,0%,0%);stroke-opacity:1;stroke-miterlimit:4;" d="M 53.099677 116 C 53.099677 116.330729 52.831178 116.60026 52.499641 116.60026 C 52.168103 116.60026 51.899605 116.330729 51.899605 116 C 51.899605 115.669271 52.168103 115.39974 52.499641 115.39974 C 52.831178 115.39974 53.099677 115.669271 53.099677 116 Z M 53.099677 116 " transform="matrix(3.346154,0,0,3,0,0)"/>
<path style="fill-rule:nonzero;fill:rgb(100%,0%,0%);fill-opacity:1;stroke-width:0.3;stroke-linecap:round;stroke-linejoin:round;stroke:rgb(0%,0%,0%);stroke-opacity:1;stroke-miterlimit:4;" d="M 52.100395 115.10026 C 52.100395 115.43099 51.831897 115.700521 51.500359 115.700521 C 51.168822 115.700521 50.900323 115.43099 50.900323 115.10026 C 50.900323 114.768229 51.168822 114.5 51.500359 114.5 C 51.831897 114.5 52.100395 114.768229 52.100395 115.10026 Z M 52.100395 115.10026 " transform="matrix(3.346154,0,0,3,0,0)"/>
<path style="fill-rule:nonzero;fill:rgb(100%,0%,0%);fill-opacity:1;stroke-width:0.3;stroke-linecap:round;stroke-linejoin:round;stroke:rgb(0%,0%,0%);stroke-opacity:1;stroke-miterlimit:4;" d="M 51.200341 114.10026 C 51.200341 114.43099 50.931843 114.700521 50.600305 114.700521 C 50.268768 114.700521 50.000269 114.43099 50.000269 114.10026 C 50.000269 113.768229 50.268768 113.5 50.600305 113.5 C 50.931843 113.5 51.200341 113.768229 51.200341 114.10026 Z M 51.200341 114.10026 " transform="matrix(3.346154,0,0,3,0,0)"/>
<path style="fill-rule:nonzero;fill:rgb(99.607843%,74.901961%,6.27451%);fill-opacity:1;stroke-width:0.3;stroke-linecap:round;stroke-linejoin:round;stroke:rgb(0%,0%,0%);stroke-opacity:1;stroke-miterlimit:4;" d="M 50.300476 107.999661 L 58.699984 108.000669 C 58.97585 107.999658 59.200201 108.209909 59.19997 108.469328 C 59.200659 108.729668 58.976749 108.939931 58.699963 108.940019 L 50.299629 108.939835 C 50.024589 108.940022 49.800239 108.729771 49.800469 108.470352 C 49.799781 108.210012 50.02369 107.99975 50.300476 107.999661 Z M 50.300476 107.999661 " transform="matrix(2.370214,2.117615,-2.361955,2.12502,309.179929,-20.405134)"/>
<path style="fill-rule:nonzero;fill:rgb(99.607843%,74.901961%,6.27451%);fill-opacity:1;stroke-width:0.3;stroke-linecap:round;stroke-linejoin:round;stroke:rgb(0%,0%,0%);stroke-opacity:1;stroke-miterlimit:4;" d="M 49.399794 110.999414 L 58.600069 111.000232 C 58.876855 111.000144 59.099459 111.210296 59.100148 111.470637 C 59.099917 111.730056 58.876007 111.940318 58.600049 111.939582 L 49.399866 111.94051 C 49.123908 111.939775 48.899557 111.729524 48.899788 111.470105 C 48.900018 111.210687 49.123928 111.000425 49.399794 110.999414 Z M 49.399794 110.999414 " transform="matrix(2.370214,2.117615,-2.361955,2.12502,315.540644,-17.106746)"/>
<path style="fill-rule:nonzero;fill:rgb(100%,0%,0%);fill-opacity:1;stroke-width:0.3;stroke-linecap:round;stroke-linejoin:round;stroke:rgb(0%,0%,0%);stroke-opacity:1;stroke-miterlimit:4;" d="M 52 107.10026 C 52 107.43099 51.731501 107.700521 51.399964 107.700521 C 51.068427 107.700521 50.799928 107.43099 50.799928 107.10026 C 50.799928 106.768229 51.068427 106.5 51.399964 106.5 C 51.731501 106.5 52 106.768229 52 107.10026 Z M 52 107.10026 " transform="matrix(3.346154,0,0,3,0,0)"/>
<path style="fill-rule:nonzero;fill:rgb(100%,0%,0%);fill-opacity:1;stroke-width:0.3;stroke-linecap:round;stroke-linejoin:round;stroke:rgb(0%,0%,0%);stroke-opacity:1;stroke-miterlimit:4;" d="M 53.000449 108.10026 C 53.000449 108.43099 52.73195 108.700521 52.400413 108.700521 C 52.068876 108.700521 51.800377 108.43099 51.800377 108.10026 C 51.800377 107.768229 52.068876 107.5 52.400413 107.5 C 52.73195 107.5 53.000449 107.768229 53.000449 108.10026 Z M 53.000449 108.10026 " transform="matrix(3.346154,0,0,3,0,0)"/>
<path style="fill-rule:nonzero;fill:rgb(100%,0%,0%);fill-opacity:1;stroke-width:0.3;stroke-linecap:round;stroke-linejoin:round;stroke:rgb(0%,0%,0%);stroke-opacity:1;stroke-miterlimit:4;" d="M 53.999731 109 C 53.999731 109.330729 53.731232 109.60026 53.399695 109.60026 C 53.068157 109.60026 52.799659 109.330729 52.799659 109 C 52.799659 108.669271 53.068157 108.39974 53.399695 108.39974 C 53.731232 108.39974 53.999731 108.669271 53.999731 109 Z M 53.999731 109 " transform="matrix(3.346154,0,0,3,0,0)"/>
<path style="fill-rule:nonzero;fill:rgb(100%,0%,0%);fill-opacity:1;stroke-width:0.3;stroke-linecap:round;stroke-linejoin:round;stroke:rgb(0%,0%,0%);stroke-opacity:1;stroke-miterlimit:4;" d="M 54.899784 110 C 54.899784 110.330729 54.631286 110.60026 54.299749 110.60026 C 53.968211 110.60026 53.699713 110.330729 53.699713 110 C 53.699713 109.669271 53.968211 109.39974 54.299749 109.39974 C 54.631286 109.39974 54.899784 109.669271 54.899784 110 Z M 54.899784 110 " transform="matrix(3.346154,0,0,3,0,0)"/>
<path style="fill-rule:nonzero;fill:rgb(100%,0%,0%);fill-opacity:1;stroke-width:0.3;stroke-linecap:round;stroke-linejoin:round;stroke:rgb(0%,0%,0%);stroke-opacity:1;stroke-miterlimit:4;" d="M 55.900233 110.89974 C 55.900233 111.231771 55.631735 111.5 55.300198 111.5 C 54.96866 111.5 54.700162 111.231771 54.700162 110.89974 C 54.700162 110.56901 54.96866 110.299479 55.300198 110.299479 C 55.631735 110.299479 55.900233 110.56901 55.900233 110.89974 Z M 55.900233 110.89974 " transform="matrix(3.346154,0,0,3,0,0)"/>
<path style="fill-rule:nonzero;fill:rgb(100%,0%,0%);fill-opacity:1;stroke-width:0.3;stroke-linecap:round;stroke-linejoin:round;stroke:rgb(0%,0%,0%);stroke-opacity:1;stroke-miterlimit:4;" d="M 56.800287 111.89974 C 56.800287 112.231771 56.531789 112.5 56.200251 112.5 C 55.868714 112.5 55.600216 112.231771 55.600216 111.89974 C 55.600216 111.56901 55.868714 111.299479 56.200251 111.299479 C 56.531789 111.299479 56.800287 111.56901 56.800287 111.89974 Z M 56.800287 111.89974 " transform="matrix(3.346154,0,0,3,0,0)"/>
<path style="fill-rule:nonzero;fill:rgb(100%,0%,0%);fill-opacity:1;stroke-width:0.3;stroke-linecap:round;stroke-linejoin:round;stroke:rgb(0%,0%,0%);stroke-opacity:1;stroke-miterlimit:4;" d="M 57.799569 112.799479 C 57.799569 113.13151 57.53107 113.39974 57.199533 113.39974 C 56.869163 113.39974 56.599497 113.13151 56.599497 112.799479 C 56.599497 112.46875 56.869163 112.200521 57.199533 112.200521 C 57.53107 112.200521 57.799569 112.46875 57.799569 112.799479 Z M 57.799569 112.799479 " transform="matrix(3.346154,0,0,3,0,0)"/>
<path style="fill-rule:nonzero;fill:rgb(0%,39.607843%,71.764706%);fill-opacity:1;stroke-width:0.4;stroke-linecap:round;stroke-linejoin:round;stroke:rgb(0%,0%,0%);stroke-opacity:1;stroke-miterlimit:4;" d="M 55.49982 123.299479 C 55.49982 124.183594 54.784213 124.89974 53.900503 124.89974 C 53.016792 124.89974 52.300018 124.183594 52.300018 123.299479 C 52.300018 122.416667 53.016792 121.700521 53.900503 121.700521 C 54.784213 121.700521 55.49982 122.416667 55.49982 123.299479 Z M 55.49982 123.299479 " transform="matrix(3.346154,0,0,3,0,0)"/>
<path style="fill-rule:nonzero;fill:rgb(100%,0%,0%);fill-opacity:1;stroke-width:0.4;stroke-linecap:round;stroke-linejoin:round;stroke:rgb(0%,0%,0%);stroke-opacity:1;stroke-miterlimit:4;" d="M 52.400413 127 C 52.398078 127.846354 53.055316 128.546875 53.900503 128.60026 C 54.316092 128.601562 54.713003 128.429688 54.997845 128.126302 C 55.281519 127.822917 55.427443 127.415365 55.399425 127 C 55.399425 126.171875 54.728179 125.5 53.900503 125.5 C 53.071659 125.5 52.400413 126.171875 52.400413 127 Z M 52.400413 127 " transform="matrix(3.346154,0,0,3,0,0)"/>
<path style="fill-rule:nonzero;fill:rgb(100%,0%,0%);fill-opacity:1;stroke-width:0.4;stroke-linecap:round;stroke-linejoin:round;stroke:rgb(0%,0%,0%);stroke-opacity:1;stroke-miterlimit:4;" d="M 54.500539 125.200521 C 54.500539 126.10026 55.00018 126.799479 55.49982 126.700521 C 55.999461 126.60026 56.399874 126 56.399874 125.200521 C 56.399874 124.39974 55.900233 123.60026 55.399425 123.700521 C 54.899784 123.799479 54.500539 124.39974 54.500539 125.200521 Z M 51.399964 125.200521 C 51.399964 126.10026 51.899605 126.799479 52.400413 126.799479 C 52.900054 126.799479 53.300467 126.10026 53.300467 125.200521 C 53.300467 124.299479 52.900054 123.700521 52.400413 123.700521 C 51.899605 123.700521 51.399964 124.39974 51.399964 125.200521 Z M 51.399964 125.200521 " transform="matrix(3.346154,0,0,3,0,0)"/>
<path style="fill:none;stroke-width:0.4;stroke-linecap:round;stroke-linejoin:round;stroke:rgb(0%,0%,0%);stroke-opacity:1;stroke-miterlimit:4;" d="M 54.200521 127.89974 C 53.919181 127.958333 53.626167 127.893229 53.39736 127.721354 C 53.167385 127.548177 53.022629 127.286458 53.000449 127 M 52.300018 124.299479 C 51.899605 124.833333 51.899605 125.566406 52.300018 126.10026 " transform="matrix(3.346154,0,0,3,0,0)"/>
<path style="fill-rule:nonzero;fill:rgb(59.607843%,3.137255%,1.960784%);fill-opacity:1;stroke-width:0.4;stroke-linecap:round;stroke-linejoin:round;stroke:rgb(0%,0%,0%);stroke-opacity:1;stroke-miterlimit:4;" d="M 53.000449 125.5 C 53.000449 126.39974 53.399695 127.10026 53.900503 127.10026 C 54.400144 127.10026 54.899784 126.39974 54.899784 125.5 C 54.899784 124.60026 54.400144 124 53.900503 124 C 53.399695 124 53.000449 124.700521 53.000449 125.5 Z M 53.000449 125.5 " transform="matrix(3.346154,0,0,3,0,0)"/>
<path style="fill:none;stroke-width:0.4;stroke-linecap:round;stroke-linejoin:round;stroke:rgb(0%,0%,0%);stroke-opacity:1;stroke-miterlimit:4;" d="M 53.900503 124.60026 C 53.50009 125.132812 53.50009 125.867188 53.900503 126.39974 " transform="matrix(3.346154,0,0,3,0,0)"/>
<path style="fill-rule:nonzero;fill:rgb(99.607843%,74.901961%,6.27451%);fill-opacity:1;stroke-width:0.4;stroke-linecap:round;stroke-linejoin:round;stroke:rgb(0%,0%,0%);stroke-opacity:1;stroke-miterlimit:4;" d="M 53.999731 102.799479 C 55.27218 103.813802 56.877335 104.3125 58.5 104.200521 C 60.294271 104.203125 62.030172 104.839844 63.399515 106 C 63.399515 106 62.499461 102.39974 60.600126 101.89974 C 58.699623 101.39974 58.099587 102.39974 58.099587 102.39974 C 58.099587 102.39974 57.899964 101.299479 55.900233 101.299479 C 53.900503 101.299479 53.999731 102.799479 53.999731 102.799479 Z M 53.900503 102.799479 C 52.628053 103.813802 51.022899 104.3125 49.400233 104.200521 C 47.600126 104.175781 45.856052 104.816406 44.499551 106 C 44.499551 106 45.300377 102.39974 47.300108 101.89974 C 49.299838 101.39974 49.799479 102.39974 49.799479 102.39974 C 49.799479 102.39974 50.000269 101.299479 52 101.299479 C 53.999731 101.299479 53.900503 102.799479 53.900503 102.799479 Z M 53.900503 102.799479 " transform="matrix(3.346154,0,0,3,0,0)"/>
<path style=" stroke:none;fill-rule:nonzero;fill:rgb(0%,39.607843%,71.764706%);fill-opacity:1;" d="M 82.984375 373.5 L 74.285156 385.800781 L 65.585938 373.5 L 62.238281 132.601562 L 86.332031 132.601562 Z M 82.984375 373.5 "/>
<path style=" stroke:none;fill-rule:nonzero;fill:rgb(0%,30.196078%,63.137255%);fill-opacity:1;" d="M 82.984375 373.5 L 74.285156 385.800781 L 73.949219 132.601562 L 86.332031 132.601562 Z M 82.984375 373.5 "/>
<path style="fill:none;stroke-width:0.4;stroke-linecap:round;stroke-linejoin:round;stroke:rgb(0%,0%,0%);stroke-opacity:1;stroke-miterlimit:4;" d="M 24.799928 124.5 L 22.200162 128.60026 L 19.600395 124.5 L 18.599946 44.200521 L 25.800377 44.200521 Z M 24.799928 124.5 " transform="matrix(3.346154,0,0,3,0,0)"/>
<path style="fill:none;stroke-width:0.4;stroke-linecap:round;stroke-linejoin:round;stroke:rgb(0%,0%,0%);stroke-opacity:1;stroke-miterlimit:4;" d="M 22.200162 128.60026 L 22.200162 44.299479 " transform="matrix(3.346154,0,0,3,0,0)"/>
<path style=" stroke:none;fill-rule:nonzero;fill:rgb(0%,0%,0%);fill-opacity:1;" d="M 74.285156 146.699219 C 69.933594 141 57.886719 136.5 57.886719 124.800781 C 57.886719 118.800781 60.898438 114 65.917969 114 C 70.9375 114 69.601562 112.5 74.285156 112.5 C 78.96875 112.5 78.96875 114 82.648438 114 C 86.332031 114 90.347656 118.800781 90.347656 124.800781 C 90.347656 136.5 78.300781 141 74.285156 146.699219 Z M 74.285156 146.699219 "/>
<path style="fill-rule:nonzero;fill:rgb(100%,0%,0%);fill-opacity:1;stroke-width:0.55;stroke-linecap:round;stroke-linejoin:round;stroke:rgb(0%,0%,0%);stroke-opacity:1;stroke-miterlimit:4;" d="M 24.000269 42.700521 C 24.000269 41.10026 23.199443 39.89974 22.200162 39.89974 C 21.199713 39.89974 20.400054 41.10026 20.400054 42.700521 C 20.400054 44.200521 21.199713 45.5 22.200162 45.5 C 23.199443 45.5 24.000269 44.200521 24.000269 42.700521 Z M 24.000269 42.700521 " transform="matrix(3.346154,0,0,3,0,0)"/>
<path style="fill:none;stroke-width:0.3;stroke-linecap:round;stroke-linejoin:round;stroke:rgb(0%,0%,0%);stroke-opacity:1;stroke-miterlimit:4;" d="M 22.000539 43.700521 C 22.699802 43.89974 22.600575 41.299479 22.099767 41.5 M 21.700521 44.10026 C 21.700521 44.39974 22.099767 44.60026 22.399784 44.5 C 22.948455 44.070312 23.248473 43.395833 23.199443 42.700521 C 23.199443 41.799479 22.899425 40.700521 22.200162 40.799479 " transform="matrix(3.346154,0,0,3,0,0)"/>
<path style=" stroke:none;fill-rule:nonzero;fill:rgb(99.607843%,74.901961%,6.27451%);fill-opacity:1;" d="M 74.285156 142.5 C 71.273438 139.800781 61.570312 134.398438 61.570312 124.800781 C 61.570312 120.300781 63.910156 116.101562 67.59375 116.101562 C 68.699219 116.101562 69.601562 116.90625 69.601562 117.898438 C 69.601562 118.800781 68.929688 119.398438 67.59375 119.398438 C 66.253906 119.398438 64.914062 123 64.914062 125.398438 C 64.914062 132.300781 71.609375 137.398438 74.285156 139.800781 C 76.625 137.398438 83.320312 132.300781 83.320312 125.398438 C 83.320312 123 82.316406 119.398438 80.640625 119.398438 C 79.71875 119.398438 78.96875 118.726562 78.96875 117.898438 C 78.957031 117.011719 79.664062 116.246094 80.640625 116.101562 C 84.324219 116.101562 86.664062 120.300781 86.664062 124.800781 C 86.664062 134.398438 77.296875 139.800781 74.285156 142.5 Z M 74.285156 120 C 72.277344 120 70.9375 119.101562 70.9375 117.898438 C 71.023438 117.183594 71.421875 116.523438 72.050781 116.074219 C 72.679688 115.621094 73.484375 115.414062 74.285156 115.5 C 75.898438 115.472656 77.308594 116.480469 77.628906 117.898438 C 77.628906 119.101562 75.957031 120 74.285156 120 Z M 74.285156 120 "/>
<path style="fill-rule:nonzero;fill:rgb(99.607843%,74.901961%,6.27451%);fill-opacity:1;stroke-width:0.4;stroke-linecap:butt;stroke-linejoin:miter;stroke:rgb(0%,0%,0%);stroke-opacity:1;stroke-miterlimit:4;" d="M 17.99991 41.799479 C 18.027927 40.83724 17.657866 39.904948 16.976114 39.223958 C 16.295528 38.542969 15.362787 38.171875 14.399695 38.200521 C 12.411638 38.200521 10.799479 39.811198 10.799479 41.799479 C 10.772629 42.763021 11.14269 43.695312 11.823276 44.376302 C 12.505029 45.057292 13.436602 45.428385 14.399695 45.39974 C 15.362787 45.428385 16.295528 45.057292 16.976114 44.376302 C 17.657866 43.695312 18.027927 42.763021 17.99991 41.799479 Z M 33.599677 41.799479 C 33.303161 40.014323 31.759878 38.705729 29.950431 38.705729 C 28.140984 38.705729 26.596534 40.014323 26.300018 41.799479 C 26.270833 42.78125 26.653736 43.729167 27.357669 44.414062 C 28.061602 45.098958 29.020025 45.457031 29.999461 45.39974 C 31.988685 45.39974 33.599677 43.78776 33.599677 41.799479 Z M 33.599677 41.799479 " transform="matrix(3.346154,0,0,3,0,0)"/>
<path style="fill-rule:nonzero;fill:rgb(19.607843%,34.117647%,13.72549%);fill-opacity:1;stroke-width:0.42;stroke-linecap:butt;stroke-linejoin:miter;stroke:rgb(0%,0%,0%);stroke-opacity:1;stroke-miterlimit:4;" d="M 14.399695 44.299479 C 14.126527 44.332031 13.852191 44.238281 13.657238 44.042969 C 13.462284 43.847656 13.367726 43.574219 13.400413 43.299479 C 13.371228 43.018229 13.464619 42.736979 13.654903 42.527344 C 13.845187 42.317708 14.11602 42.199219 14.399695 42.200521 C 15.007902 42.200521 15.500539 42.692708 15.500539 43.299479 C 15.501706 43.583333 15.382633 43.854167 15.172504 44.045573 C 14.962374 44.235677 14.682202 44.328125 14.399695 44.299479 Z M 14.399695 41.39974 C 14.11602 41.401042 13.845187 41.282552 13.654903 41.072917 C 13.464619 40.863281 13.371228 40.582031 13.400413 40.299479 C 13.367726 40.026042 13.462284 39.752604 13.657238 39.557292 C 13.852191 39.361979 14.126527 39.266927 14.399695 39.299479 C 14.682202 39.272135 14.962374 39.364583 15.172504 39.554688 C 15.382633 39.746094 15.501706 40.016927 15.500539 40.299479 C 15.500539 40.907552 15.007902 41.39974 14.399695 41.39974 Z M 14.399695 41.39974 " transform="matrix(3.346154,0,0,3,0,0)"/>
<path style="fill-rule:nonzero;fill:rgb(19.607843%,34.117647%,13.72549%);fill-opacity:1;stroke-width:0.42;stroke-linecap:butt;stroke-linejoin:miter;stroke:rgb(0%,0%,0%);stroke-opacity:1;stroke-miterlimit:4;" d="M 11.900323 41.799479 C 11.897989 41.229167 12.332256 40.751302 12.899605 40.700521 C 13.507812 40.700521 14.000449 41.192708 14.000449 41.799479 C 14.000449 42.407552 13.507812 42.89974 12.899605 42.89974 C 12.332256 42.847656 11.897989 42.371094 11.900323 41.799479 Z M 14.800108 41.799479 C 14.846803 41.213542 15.31259 40.747396 15.899784 40.700521 C 16.507992 40.700521 16.999461 41.192708 16.999461 41.799479 C 16.999461 42.407552 16.507992 42.89974 15.899784 42.89974 C 15.292744 42.89974 14.800108 42.407552 14.800108 41.799479 Z M 14.800108 41.799479 " transform="matrix(3.346154,0,0,3,0,0)"/>
<path style="fill-rule:nonzero;fill:rgb(19.607843%,34.117647%,13.72549%);fill-opacity:1;stroke-width:0.3;stroke-linecap:butt;stroke-linejoin:miter;stroke:rgb(0%,0%,0%);stroke-opacity:1;stroke-miterlimit:4;" d="M 15.500539 41.799479 C 15.500539 41.192708 15.007902 40.700521 14.399695 40.700521 C 13.799659 40.799479 13.300018 41.200521 13.400413 41.799479 C 13.371228 42.082031 13.464619 42.363281 13.654903 42.572917 C 13.845187 42.782552 14.11602 42.901042 14.399695 42.89974 C 15.007902 42.89974 15.500539 42.407552 15.500539 41.799479 Z M 15.500539 41.799479 " transform="matrix(3.346154,0,0,3,0,0)"/>
<path style="fill-rule:nonzero;fill:rgb(19.607843%,34.117647%,13.72549%);fill-opacity:1;stroke-width:0.42;stroke-linecap:butt;stroke-linejoin:miter;stroke:rgb(0%,0%,0%);stroke-opacity:1;stroke-miterlimit:4;" d="M 29.999461 44.299479 C 29.718121 44.328125 29.436782 44.235677 29.22782 44.045573 C 29.01769 43.854167 28.898617 43.583333 28.899784 43.299479 C 28.89745 42.729167 29.331717 42.251302 29.900233 42.200521 C 30.507274 42.200521 30.99991 42.692708 30.99991 43.299479 C 31.032597 43.574219 30.938039 43.847656 30.743085 44.042969 C 30.548132 44.238281 30.273797 44.332031 29.999461 44.299479 Z M 29.999461 41.39974 C 29.392421 41.39974 28.899784 40.907552 28.899784 40.299479 C 28.94648 39.768229 29.367906 39.346354 29.900233 39.299479 C 30.34384 39.139323 30.841146 39.28125 31.135327 39.651042 C 31.429508 40.020833 31.454023 40.53776 31.196031 40.933594 C 30.939206 41.329427 30.457076 41.516927 29.999461 41.39974 Z M 29.999461 41.39974 " transform="matrix(3.346154,0,0,3,0,0)"/>
<path style="fill-rule:nonzero;fill:rgb(19.607843%,34.117647%,13.72549%);fill-opacity:1;stroke-width:0.42;stroke-linecap:butt;stroke-linejoin:miter;stroke:rgb(0%,0%,0%);stroke-opacity:1;stroke-miterlimit:4;" d="M 27.399695 41.799479 C 27.447557 41.213542 27.913344 40.747396 28.500539 40.700521 C 29.107579 40.700521 29.600216 41.192708 29.600216 41.799479 C 29.600216 42.407552 29.107579 42.89974 28.500539 42.89974 C 27.892331 42.89974 27.399695 42.407552 27.399695 41.799479 Z M 30.399874 41.799479 C 30.39754 41.229167 30.831807 40.751302 31.400323 40.700521 C 32.007364 40.700521 32.5 41.192708 32.5 41.799479 C 32.5 42.407552 32.007364 42.89974 31.400323 42.89974 C 30.831807 42.847656 30.39754 42.371094 30.399874 41.799479 Z M 30.399874 41.799479 " transform="matrix(3.346154,0,0,3,0,0)"/>
<path style="fill-rule:nonzero;fill:rgb(19.607843%,34.117647%,13.72549%);fill-opacity:1;stroke-width:0.3;stroke-linecap:butt;stroke-linejoin:miter;stroke:rgb(0%,0%,0%);stroke-opacity:1;stroke-miterlimit:4;" d="M 30.99991 41.799479 C 30.99991 41.192708 30.507274 40.700521 29.900233 40.700521 C 29.35273 40.791667 28.938308 41.246094 28.899784 41.799479 C 28.899784 42.407552 29.392421 42.89974 29.999461 42.89974 C 30.283136 42.901042 30.553969 42.782552 30.74542 42.572917 C 30.935704 42.363281 31.027927 42.082031 30.99991 41.799479 Z M 30.99991 41.799479 " transform="matrix(3.346154,0,0,3,0,0)"/>
<path style=" stroke:none;fill-rule:nonzero;fill:rgb(99.607843%,74.901961%,6.27451%);fill-opacity:1;" d="M 86.332031 83.101562 C 86.332031 65.371094 80.9375 51 74.285156 51 C 67.632812 51 62.238281 65.371094 62.238281 83.101562 C 62.238281 100.828125 67.632812 115.199219 74.285156 115.199219 C 80.9375 115.199219 86.332031 100.828125 86.332031 83.101562 Z M 86.332031 83.101562 "/>
<path style=" stroke:none;fill-rule:nonzero;fill:rgb(81.568627%,60.784314%,2.745098%);fill-opacity:1;" d="M 74.285156 51.300781 C 80.976562 51.300781 86.332031 65.699219 86.332031 83.101562 C 86.332031 100.5 80.976562 115.199219 74.285156 115.199219 "/>
<path style="fill:none;stroke-width:0.4;stroke-linecap:round;stroke-linejoin:round;stroke:rgb(0%,0%,0%);stroke-opacity:1;stroke-miterlimit:4;" d="M 25.800377 27.700521 C 25.800377 21.790365 24.188218 17 22.200162 17 C 20.212105 17 18.599946 21.790365 18.599946 27.700521 C 18.599946 33.609375 20.212105 38.39974 22.200162 38.39974 C 24.188218 38.39974 25.800377 33.609375 25.800377 27.700521 Z M 25.800377 27.700521 " transform="matrix(3.346154,0,0,3,0,0)"/>
<path style="fill-rule:nonzero;fill:rgb(99.607843%,74.901961%,6.27451%);fill-opacity:1;stroke-width:0.3;stroke-linecap:round;stroke-linejoin:round;stroke:rgb(0%,0%,0%);stroke-opacity:1;stroke-miterlimit:4;" d="M 19.199811 21.100172 L 26.60006 21.100643 C 26.875926 21.099632 27.100277 21.309883 27.100046 21.569301 C 27.100735 21.829642 26.876825 22.039904 26.600039 22.039992 L 19.199791 22.039522 C 18.923924 22.040533 18.7004 21.829458 18.700631 21.57004 C 18.699942 21.309699 18.923852 21.099437 19.199811 21.100172 Z M 19.199811 21.100172 " transform="matrix(2.370214,2.117615,-2.361955,2.12502,72.94718,-29.40233)"/>
<path style="fill-rule:nonzero;fill:rgb(99.607843%,74.901961%,6.27451%);fill-opacity:1;stroke-width:0.3;stroke-linecap:round;stroke-linejoin:round;stroke:rgb(0%,0%,0%);stroke-opacity:1;stroke-miterlimit:4;" d="M 17.800475 23.999837 L 26.99983 23.999732 C 27.275789 24.000468 27.50014 24.210719 27.499909 24.470137 C 27.499679 24.729556 27.275769 24.939818 27.000729 24.940005 L 17.799628 24.94001 C 17.523669 24.939275 17.300238 24.729946 17.299549 24.469606 C 17.29978 24.210187 17.523689 23.999925 17.800475 23.999837 Z M 17.800475 23.999837 " transform="matrix(2.370214,2.117615,-2.361955,2.12502,79.640126,-26.104825)"/>
<path style="fill-rule:nonzero;fill:rgb(100%,0%,0%);fill-opacity:1;stroke-width:0.3;stroke-linecap:round;stroke-linejoin:round;stroke:rgb(0%,0%,0%);stroke-opacity:1;stroke-miterlimit:4;" d="M 20.400054 20.200521 C 20.400054 20.53125 20.131555 20.799479 19.800018 20.799479 C 19.468481 20.799479 19.199982 20.53125 19.199982 20.200521 C 19.199982 19.86849 19.468481 19.60026 19.800018 19.60026 C 20.131555 19.60026 20.400054 19.86849 20.400054 20.200521 Z M 20.400054 20.200521 " transform="matrix(3.346154,0,0,3,0,0)"/>
<path style="fill-rule:nonzero;fill:rgb(100%,0%,0%);fill-opacity:1;stroke-width:0.3;stroke-linecap:round;stroke-linejoin:round;stroke:rgb(0%,0%,0%);stroke-opacity:1;stroke-miterlimit:4;" d="M 21.400503 21.10026 C 21.400503 21.43099 21.130837 21.700521 20.800467 21.700521 C 20.46893 21.700521 20.200431 21.43099 20.200431 21.10026 C 20.200431 20.768229 20.46893 20.5 20.800467 20.5 C 21.130837 20.5 21.400503 20.768229 21.400503 21.10026 Z M 21.400503 21.10026 " transform="matrix(3.346154,0,0,3,0,0)"/>
<path style="fill-rule:nonzero;fill:rgb(100%,0%,0%);fill-opacity:1;stroke-width:0.3;stroke-linecap:round;stroke-linejoin:round;stroke:rgb(0%,0%,0%);stroke-opacity:1;stroke-miterlimit:4;" d="M 22.300557 22.10026 C 22.300557 22.43099 22.030891 22.700521 21.700521 22.700521 C 21.368983 22.700521 21.100485 22.43099 21.100485 22.10026 C 21.100485 21.768229 21.368983 21.5 21.700521 21.5 C 22.030891 21.5 22.300557 21.768229 22.300557 22.10026 Z M 22.300557 22.10026 " transform="matrix(3.346154,0,0,3,0,0)"/>
<path style="fill-rule:nonzero;fill:rgb(100%,0%,0%);fill-opacity:1;stroke-width:0.3;stroke-linecap:round;stroke-linejoin:round;stroke:rgb(0%,0%,0%);stroke-opacity:1;stroke-miterlimit:4;" d="M 23.299838 23 C 23.299838 23.330729 23.03134 23.60026 22.699802 23.60026 C 22.368265 23.60026 22.099767 23.330729 22.099767 23 C 22.099767 22.669271 22.368265 22.39974 22.699802 22.39974 C 23.03134 22.39974 23.299838 22.669271 23.299838 23 Z M 23.299838 23 " transform="matrix(3.346154,0,0,3,0,0)"/>
<path style="fill-rule:nonzero;fill:rgb(100%,0%,0%);fill-opacity:1;stroke-width:0.3;stroke-linecap:round;stroke-linejoin:round;stroke:rgb(0%,0%,0%);stroke-opacity:1;stroke-miterlimit:4;" d="M 24.199892 24 C 24.199892 24.330729 23.931394 24.60026 23.599856 24.60026 C 23.268319 24.60026 22.99982 24.330729 22.99982 24 C 22.99982 23.669271 23.268319 23.39974 23.599856 23.39974 C 23.931394 23.39974 24.199892 23.669271 24.199892 24 Z M 24.199892 24 " transform="matrix(3.346154,0,0,3,0,0)"/>
<path style="fill-rule:nonzero;fill:rgb(100%,0%,0%);fill-opacity:1;stroke-width:0.3;stroke-linecap:round;stroke-linejoin:round;stroke:rgb(0%,0%,0%);stroke-opacity:1;stroke-miterlimit:4;" d="M 25.200341 24.89974 C 25.200341 25.231771 24.931843 25.5 24.600305 25.5 C 24.268768 25.5 24.000269 25.231771 24.000269 24.89974 C 24.000269 24.56901 24.268768 24.299479 24.600305 24.299479 C 24.931843 24.299479 25.200341 24.56901 25.200341 24.89974 Z M 25.200341 24.89974 " transform="matrix(3.346154,0,0,3,0,0)"/>
<path style="fill-rule:nonzero;fill:rgb(100%,0%,0%);fill-opacity:1;stroke-width:0.3;stroke-linecap:round;stroke-linejoin:round;stroke:rgb(0%,0%,0%);stroke-opacity:1;stroke-miterlimit:4;" d="M 26.100395 25.89974 C 26.100395 26.231771 25.831897 26.5 25.500359 26.5 C 25.168822 26.5 24.900323 26.231771 24.900323 25.89974 C 24.900323 25.56901 25.168822 25.299479 25.500359 25.299479 C 25.831897 25.299479 26.100395 25.56901 26.100395 25.89974 Z M 26.100395 25.89974 " transform="matrix(3.346154,0,0,3,0,0)"/>
<path style="fill-rule:nonzero;fill:rgb(99.607843%,74.901961%,6.27451%);fill-opacity:1;stroke-width:0.3;stroke-linecap:round;stroke-linejoin:round;stroke:rgb(0%,0%,0%);stroke-opacity:1;stroke-miterlimit:4;" d="M 17.500357 30.99968 L 25.899865 31.000688 C 26.175731 30.999678 26.400082 31.209928 26.399851 31.469347 C 26.40054 31.729688 26.17663 31.93995 25.899844 31.940038 L 17.49951 31.939854 C 17.22447 31.940041 17.00012 31.72979 17.00035 31.470372 C 16.999662 31.210031 17.223571 30.999769 17.500357 30.99968 Z M 17.500357 30.99968 " transform="matrix(-2.370214,-2.117615,2.361955,-2.12502,49.529278,207.348002)"/>
<path style="fill-rule:nonzero;fill:rgb(99.607843%,74.901961%,6.27451%);fill-opacity:1;stroke-width:0.3;stroke-linecap:round;stroke-linejoin:round;stroke:rgb(0%,0%,0%);stroke-opacity:1;stroke-miterlimit:4;" d="M 17.500205 28.099842 L 26.699561 28.099738 C 26.976346 28.099649 27.19987 28.310724 27.19964 28.570143 C 27.199409 28.829561 26.975499 29.039823 26.70046 29.04001 L 17.499358 29.040016 C 17.224319 29.040202 16.999968 28.829952 17.000199 28.570533 C 16.99951 28.310192 17.22342 28.09993 17.500205 28.099842 Z M 17.500205 28.099842 " transform="matrix(-2.370214,-2.117615,2.361955,-2.12502,58.8743,193.169842)"/>
<path style="fill-rule:nonzero;fill:rgb(100%,0%,0%);fill-opacity:1;stroke-width:0.3;stroke-linecap:round;stroke-linejoin:round;stroke:rgb(0%,0%,0%);stroke-opacity:1;stroke-miterlimit:4;" d="M 25.299569 32.89974 C 25.299569 33.231771 25.03107 33.5 24.699533 33.5 C 24.369163 33.5 24.099497 33.231771 24.099497 32.89974 C 24.099497 32.56901 24.369163 32.299479 24.699533 32.299479 C 25.03107 32.299479 25.299569 32.56901 25.299569 32.89974 Z M 25.299569 32.89974 " transform="matrix(3.346154,0,0,3,0,0)"/>
<path style="fill-rule:nonzero;fill:rgb(100%,0%,0%);fill-opacity:1;stroke-width:0.3;stroke-linecap:round;stroke-linejoin:round;stroke:rgb(0%,0%,0%);stroke-opacity:1;stroke-miterlimit:4;" d="M 24.300287 31.89974 C 24.300287 32.231771 24.031789 32.5 23.700251 32.5 C 23.368714 32.5 23.100216 32.231771 23.100216 31.89974 C 23.100216 31.56901 23.368714 31.299479 23.700251 31.299479 C 24.031789 31.299479 24.300287 31.56901 24.300287 31.89974 Z M 24.300287 31.89974 " transform="matrix(3.346154,0,0,3,0,0)"/>
<path style="fill-rule:nonzero;fill:rgb(100%,0%,0%);fill-opacity:1;stroke-width:0.3;stroke-linecap:round;stroke-linejoin:round;stroke:rgb(0%,0%,0%);stroke-opacity:1;stroke-miterlimit:4;" d="M 23.400233 31 C 23.400233 31.330729 23.131735 31.60026 22.800198 31.60026 C 22.46866 31.60026 22.200162 31.330729 22.200162 31 C 22.200162 30.669271 22.46866 30.39974 22.800198 30.39974 C 23.131735 30.39974 23.400233 30.669271 23.400233 31 Z M 23.400233 31 " transform="matrix(3.346154,0,0,3,0,0)"/>
<path style="fill-rule:nonzero;fill:rgb(100%,0%,0%);fill-opacity:1;stroke-width:0.3;stroke-linecap:round;stroke-linejoin:round;stroke:rgb(0%,0%,0%);stroke-opacity:1;stroke-miterlimit:4;" d="M 22.399784 30 C 22.399784 30.330729 22.131286 30.60026 21.799749 30.60026 C 21.468211 30.60026 21.199713 30.330729 21.199713 30 C 21.199713 29.669271 21.468211 29.39974 21.799749 29.39974 C 22.131286 29.39974 22.399784 29.669271 22.399784 30 Z M 22.399784 30 " transform="matrix(3.346154,0,0,3,0,0)"/>
<path style="fill-rule:nonzero;fill:rgb(100%,0%,0%);fill-opacity:1;stroke-width:0.3;stroke-linecap:round;stroke-linejoin:round;stroke:rgb(0%,0%,0%);stroke-opacity:1;stroke-miterlimit:4;" d="M 21.400503 29.10026 C 21.400503 29.43099 21.130837 29.700521 20.800467 29.700521 C 20.46893 29.700521 20.200431 29.43099 20.200431 29.10026 C 20.200431 28.768229 20.46893 28.5 20.800467 28.5 C 21.130837 28.5 21.400503 28.768229 21.400503 29.10026 Z M 21.400503 29.10026 " transform="matrix(3.346154,0,0,3,0,0)"/>
<path style="fill-rule:nonzero;fill:rgb(100%,0%,0%);fill-opacity:1;stroke-width:0.3;stroke-linecap:round;stroke-linejoin:round;stroke:rgb(0%,0%,0%);stroke-opacity:1;stroke-miterlimit:4;" d="M 20.500449 28.10026 C 20.500449 28.43099 20.23195 28.700521 19.900413 28.700521 C 19.568876 28.700521 19.300377 28.43099 19.300377 28.10026 C 19.300377 27.768229 19.568876 27.5 19.900413 27.5 C 20.23195 27.5 20.500449 27.768229 20.500449 28.10026 Z M 20.500449 28.10026 " transform="matrix(3.346154,0,0,3,0,0)"/>
<path style="fill-rule:nonzero;fill:rgb(100%,0%,0%);fill-opacity:1;stroke-width:0.3;stroke-linecap:round;stroke-linejoin:round;stroke:rgb(0%,0%,0%);stroke-opacity:1;stroke-miterlimit:4;" d="M 19.5 27.200521 C 19.5 27.53125 19.231501 27.799479 18.899964 27.799479 C 18.568427 27.799479 18.299928 27.53125 18.299928 27.200521 C 18.299928 26.86849 18.568427 26.60026 18.899964 26.60026 C 19.231501 26.60026 19.5 26.86849 19.5 27.200521 Z M 19.5 27.200521 " transform="matrix(3.346154,0,0,3,0,0)"/>
<path style="fill-rule:nonzero;fill:rgb(0%,39.607843%,71.764706%);fill-opacity:1;stroke-width:0.4;stroke-linecap:round;stroke-linejoin:round;stroke:rgb(0%,0%,0%);stroke-opacity:1;stroke-miterlimit:4;" d="M 23.799479 16.700521 C 23.799479 17.583333 23.083872 18.299479 22.200162 18.299479 C 21.316451 18.299479 20.599677 17.583333 20.599677 16.700521 C 20.599677 15.816406 21.316451 15.10026 22.200162 15.10026 C 23.083872 15.10026 23.799479 15.816406 23.799479 16.700521 Z M 23.799479 16.700521 " transform="matrix(3.346154,0,0,3,0,0)"/>
<path style="fill-rule:nonzero;fill:rgb(100%,0%,0%);fill-opacity:1;stroke-width:0.4;stroke-linecap:round;stroke-linejoin:round;stroke:rgb(0%,0%,0%);stroke-opacity:1;stroke-miterlimit:4;" d="M 23.700251 13 C 23.700251 12.171875 23.029005 11.5 22.200162 11.5 C 21.371318 11.5 20.700072 12.171875 20.700072 13 C 20.700072 13.828125 21.371318 14.5 22.200162 14.5 C 23.029005 14.5 23.700251 13.828125 23.700251 13 Z M 23.700251 13 " transform="matrix(3.346154,0,0,3,0,0)"/>
<path style="fill-rule:nonzero;fill:rgb(100%,0%,0%);fill-opacity:1;stroke-width:0.4;stroke-linecap:round;stroke-linejoin:round;stroke:rgb(0%,0%,0%);stroke-opacity:1;stroke-miterlimit:4;" d="M 21.600126 14.799479 C 21.600126 13.89974 21.100485 13.200521 20.599677 13.299479 C 20.100036 13.39974 19.699623 14 19.699623 14.799479 C 19.699623 15.60026 20.200431 16.39974 20.700072 16.299479 C 21.199713 16.200521 21.600126 15.60026 21.600126 14.799479 Z M 24.699533 14.799479 C 24.699533 13.89974 24.199892 13.200521 23.700251 13.200521 C 23.199443 13.200521 22.800198 13.89974 22.800198 14.799479 C 22.800198 15.700521 23.199443 16.299479 23.700251 16.299479 C 24.199892 16.299479 24.699533 15.60026 24.699533 14.799479 Z M 24.699533 14.799479 " transform="matrix(3.346154,0,0,3,0,0)"/>
<path style="fill:none;stroke-width:0.4;stroke-linecap:round;stroke-linejoin:round;stroke:rgb(0%,0%,0%);stroke-opacity:1;stroke-miterlimit:4;" d="M 21.900144 12.10026 C 22.181483 12.041667 22.47333 12.106771 22.703305 12.278646 C 22.933279 12.451823 23.076868 12.713542 23.100216 13 M 23.799479 15.700521 C 24.199892 15.166667 24.199892 14.433594 23.799479 13.89974 " transform="matrix(3.346154,0,0,3,0,0)"/>
<path style="fill-rule:nonzero;fill:rgb(59.607843%,3.137255%,1.960784%);fill-opacity:1;stroke-width:0.4;stroke-linecap:round;stroke-linejoin:round;stroke:rgb(0%,0%,0%);stroke-opacity:1;stroke-miterlimit:4;" d="M 23.100216 14.5 C 23.100216 13.60026 22.699802 12.89974 22.200162 12.89974 C 21.700521 12.89974 21.199713 13.60026 21.199713 14.5 C 21.199713 15.39974 21.700521 16 22.200162 16 C 22.699802 16 23.100216 15.299479 23.100216 14.5 Z M 23.100216 14.5 " transform="matrix(3.346154,0,0,3,0,0)"/>
<path style="fill:none;stroke-width:0.4;stroke-linecap:round;stroke-linejoin:round;stroke:rgb(0%,0%,0%);stroke-opacity:1;stroke-miterlimit:4;" d="M 22.300557 15.39974 C 22.601742 14.838542 22.601742 14.161458 22.300557 13.60026 " transform="matrix(3.346154,0,0,3,0,0)"/>
<path style="fill-rule:nonzero;fill:rgb(99.607843%,74.901961%,6.27451%);fill-opacity:1;stroke-width:0.4;stroke-linecap:round;stroke-linejoin:round;stroke:rgb(0%,0%,0%);stroke-opacity:1;stroke-miterlimit:4;" d="M 22.200162 37.200521 C 20.914871 36.21224 19.319055 35.714844 17.699892 35.799479 C 15.872935 35.8125 14.099677 35.174479 12.699982 34 C 12.699982 34 13.600036 37.60026 15.500539 38.10026 C 17.399874 38.60026 17.99991 37.60026 17.99991 37.60026 C 17.99991 37.60026 18.199533 38.700521 20.200431 38.700521 C 22.200162 38.700521 22.200162 37.200521 22.200162 37.200521 Z M 22.200162 37.200521 C 23.485453 36.21224 25.081268 35.714844 26.700431 35.799479 C 28.527389 35.8125 30.299479 35.174479 31.700341 34 C 31.700341 34 30.800287 37.60026 28.800557 38.10026 C 26.799659 38.60026 26.300018 37.60026 26.300018 37.60026 C 26.300018 37.60026 26.100395 38.700521 24.199892 38.700521 C 22.300557 38.700521 22.200162 37.200521 22.200162 37.200521 Z M 22.200162 37.200521 " transform="matrix(3.346154,0,0,3,0,0)"/>
<path style=" stroke:none;fill-rule:nonzero;fill:rgb(99.607843%,74.901961%,6.27451%);fill-opacity:1;" d="M 231.21875 272.101562 L 218.167969 264.300781 L 228.207031 252 C 228.542969 251.398438 219.507812 256.199219 211.8125 252.898438 C 204.117188 249.601562 200.433594 240.300781 179.6875 238.800781 C 150.578125 236.699219 147.898438 221.699219 147.566406 222.300781 C 141.542969 231 146.894531 249 150.242188 252 C 153.589844 255 154.925781 258.898438 177.347656 261.300781 C 199.765625 263.699219 194.746094 273 204.117188 276.601562 C 213.484375 280.199219 213.820312 278.699219 231.21875 272.101562 Z M 231.21875 272.101562 "/>
<path style=" stroke:none;fill-rule:nonzero;fill:rgb(100%,0%,0%);fill-opacity:1;" d="M 29.78125 275.398438 L 42.496094 267 L 32.125 255.300781 C 31.789062 254.699219 40.824219 258.898438 48.519531 255.601562 C 56.214844 252.300781 59.226562 242.699219 80.308594 240.601562 C 109.085938 237.601562 111.425781 222.601562 111.761719 223.199219 C 117.785156 231.601562 113.433594 249.898438 110.089844 252.898438 C 106.742188 255.898438 105.402344 259.800781 83.320312 263.101562 C 61.234375 266.398438 66.253906 275.101562 56.882812 279 C 52.871094 280.800781 47.179688 281.398438 29.78125 275.398438 Z M 29.78125 275.398438 "/>
<path style="fill:none;stroke-width:0.4;stroke-linecap:round;stroke-linejoin:round;stroke:rgb(0%,0%,0%);stroke-opacity:1;stroke-miterlimit:4;" d="M 33.400054 74.39974 C 33.299659 74.39974 32.399605 79.299479 24.000269 80.200521 C 17.699892 80.89974 17.200251 83.89974 14.50009 85.200521 C 13.940912 85.47526 13.323366 85.611979 12.699982 85.60026 C 11.637662 85.60026 10.585848 85.397135 9.600575 85 L 12.699982 89 L 8.900144 91.799479 C 12.200341 93.10026 14.099677 93.5 15.299749 93.39974 C 15.893948 93.44401 16.488147 93.304688 16.999461 93 C 19.800018 91.700521 19.000359 88.60026 24.900323 87.700521 C 30.800287 86.799479 31.899964 85.299479 32.900413 84.299479 C 33.899695 83.299479 35.200162 77.200521 33.400054 74.39974 Z M 33.400054 74.39974 " transform="matrix(3.346154,0,0,3,0,0)"/>
<path style="fill:none;stroke-width:0.4;stroke-linecap:round;stroke-linejoin:round;stroke:rgb(0%,0%,0%);stroke-opacity:1;stroke-miterlimit:4;" d="M 34.00009 81.200521 C 32.399605 84 30.299479 85.799479 24.699533 86.700521 C 20.599677 87.39974 19.399605 89.10026 18.400323 90.39974 C 17.959052 91.114583 17.338003 91.700521 16.600216 92.10026 C 16.205639 92.326823 15.753861 92.43099 15.299749 92.39974 C 13.819504 92.40625 12.353269 92.10026 11.000269 91.5 L 13.300018 89.799479 C 13.525323 89.632812 13.671246 89.378906 13.700431 89.10026 C 13.769307 88.847656 13.692259 88.578125 13.499641 88.39974 L 12.099946 86.60026 L 12.699982 86.60026 C 13.461117 86.60026 14.212913 86.428385 14.900503 86.10026 C 15.861261 85.606771 16.737967 84.966146 17.500269 84.200521 C 18.799569 82.89974 20.200431 81.60026 24.099497 81.200521 C 27.999731 80.799479 31.700341 79.200521 34.00009 75.799479 M 44.100305 74.10026 C 42.300198 77 43.899515 83 44.899964 84 C 45.900413 85 46.299659 86.299479 53.000449 87.10026 C 59.700072 87.89974 58.199982 91 61.000539 92.200521 C 61.532866 92.447917 62.111889 92.584635 62.700251 92.60026 C 63.999551 92.60026 65.799659 92.10026 69.099856 90.700521 L 65.199623 88.10026 L 68.199802 84 C 67.211027 84.398438 66.163883 84.635417 65.100395 84.700521 C 64.477011 84.71224 63.859465 84.575521 63.300287 84.299479 C 60.499731 83.10026 59.899695 80.10026 53.699713 79.60026 C 45.199982 78.89974 44.199533 74.10026 44.100305 74.10026 Z M 44.100305 74.10026 " transform="matrix(3.346154,0,0,3,0,0)"/>
<path style=" stroke:none;fill-rule:nonzero;fill:rgb(99.607843%,74.901961%,6.27451%);fill-opacity:1;" d="M 96.035156 191.699219 C 69.265625 182.398438 43.164062 198 42.832031 198 C 44.40625 192.195312 44.523438 186.148438 43.164062 180.300781 C 42.832031 178.199219 66.921875 156 105.070312 167.398438 "/>
<path style=" stroke:none;fill-rule:nonzero;fill:rgb(19.607843%,34.117647%,13.72549%);fill-opacity:1;" d="M 172.660156 190.800781 L 170.320312 190.800781 C 159.945312 193.199219 126.820312 202.5 96.035156 191.398438 L 105.070312 167.101562 C 128.15625 173.699219 150.242188 167.699219 159.945312 166.5 "/>
<path style=" stroke:none;fill-rule:nonzero;fill:rgb(100%,0%,0%);fill-opacity:1;" d="M 172.660156 190.800781 C 175.671875 189.898438 202.109375 186.898438 217.835938 202.800781 C 217.835938 202.800781 216.832031 200.101562 217.835938 184.5 C 218.839844 161.699219 174 165 159.945312 166.800781 Z M 172.660156 190.800781 "/>
<path style="fill:none;stroke-width:0.4;stroke-linecap:round;stroke-linejoin:round;stroke:rgb(0%,0%,0%);stroke-opacity:1;stroke-miterlimit:4;" d="M 13.199623 60.89974 C 13.900054 59.799479 18.899964 55.700521 25.099946 55.700521 M 64.899605 66 C 61.600575 62.89974 56.599497 62.299479 54.299749 62.299479 C 53.324982 62.285156 52.351383 62.385417 51.399964 62.60026 L 50.699533 62.60026 L 50.000269 62.799479 C 46.262302 63.902344 42.395923 64.507812 38.500359 64.60026 C 35.29472 64.654948 32.106591 64.113281 29.100575 63 C 27.250269 62.28125 25.284393 61.908854 23.299838 61.89974 C 19.750988 62.09375 16.279185 63.011719 13.100395 64.60026 M 25.099946 55.700521 C 27.1382 55.739583 29.158944 56.075521 31.100305 56.700521 C 33.418732 57.477865 35.855065 57.848958 38.299569 57.799479 C 40.990392 57.768229 43.66954 57.466146 46.299659 56.89974 L 48.000539 56.60026 C 49.911548 56.242188 51.855244 56.074219 53.800108 56.10026 C 58.399605 56.10026 63.300287 57.60026 65 61.299479 " transform="matrix(3.346154,0,0,3,0,0)"/>
<path style="fill:none;stroke-width:0.4;stroke-linecap:round;stroke-linejoin:round;stroke:rgb(0%,0%,0%);stroke-opacity:1;stroke-miterlimit:4;" d="M 25.099946 54.700521 C 17.399874 54.700521 12.800377 59.5 12.899605 60.10026 C 13.305855 62.049479 13.270833 64.065104 12.800377 66 C 15.977999 64.085938 19.592223 63.019531 23.299838 62.89974 C 25.145474 62.901042 26.975934 63.239583 28.700162 63.89974 C 31.825251 65.106771 35.149964 65.717448 38.500359 65.700521 C 42.704113 65.585938 46.874012 64.914062 50.900323 63.700521 L 51.599587 63.700521 C 52.48213 63.480469 53.390356 63.378906 54.299749 63.39974 C 57.299928 63.39974 61.899425 64.10026 65.100395 67.700521 C 65.100395 67.700521 64.800377 66.799479 65.100395 61.60026 C 65.400413 56.39974 59.100036 55.200521 53.800108 55.200521 C 51.789871 55.21875 49.785471 55.386719 47.799749 55.700521 C 44.678161 56.398438 41.497037 56.800781 38.299569 56.89974 C 35.961297 56.940104 33.631196 56.602865 31.400323 55.89974 C 29.377245 55.179688 27.246767 54.808594 25.099946 54.799479 Z M 25.099946 54.700521 " transform="matrix(3.346154,0,0,3,0,0)"/>
<path style="fill-rule:nonzero;fill:rgb(0%,39.607843%,71.764706%);fill-opacity:1;stroke-width:0.4;stroke-linecap:round;stroke-linejoin:round;stroke:rgb(0%,0%,0%);stroke-opacity:1;stroke-miterlimit:4;" d="M 28.100292 83.600364 C 28.100227 82.716108 26.62197 82.000281 24.799655 82.000393 C 22.977339 82.000506 21.49985 82.715906 21.499915 83.600162 C 21.500262 84.483146 22.977097 85.199992 24.800552 85.200132 C 26.622868 85.20002 28.100639 84.483348 28.100292 83.600364 Z M 28.100292 83.600364 " transform="matrix(3.266837,-0.649319,0.72424,2.928888,-58.560656,21.901663)"/>
<path style="fill-rule:nonzero;fill:rgb(0%,39.607843%,71.764706%);fill-opacity:1;stroke-width:0.4;stroke-linecap:round;stroke-linejoin:round;stroke:rgb(0%,0%,0%);stroke-opacity:1;stroke-miterlimit:4;" d="M 26.700431 83.200521 C 26.799659 83.60026 26.100395 84.200521 24.999551 84.39974 C 23.899874 84.60026 22.99982 84.5 22.899425 84 " transform="matrix(3.346154,0,0,3,0,0)"/>
<path style="fill-rule:nonzero;fill:rgb(0%,39.607843%,71.764706%);fill-opacity:1;stroke-width:0.4;stroke-linecap:round;stroke-linejoin:round;stroke:rgb(0%,0%,0%);stroke-opacity:1;stroke-miterlimit:4;" d="M 56.600079 83.900054 C 56.600545 82.077364 55.883659 80.60039 54.999605 80.600305 C 54.116818 80.599923 53.40011 82.077405 53.399644 83.900094 C 53.400445 85.722486 54.116064 87.199757 55.000118 87.199842 C 55.884172 87.199928 56.599613 85.722743 56.600079 83.900054 Z M 56.600079 83.900054 " transform="matrix(0.764097,-2.920737,3.257745,0.685053,-131.518234,354.630946)"/>
<path style="fill-rule:nonzero;fill:rgb(0%,39.607843%,71.764706%);fill-opacity:1;stroke-width:0.4;stroke-linecap:round;stroke-linejoin:round;stroke:rgb(0%,0%,0%);stroke-opacity:1;stroke-miterlimit:4;" d="M 56.899515 84.39974 C 56.800287 84.799479 55.799838 85 54.800557 84.700521 C 53.800108 84.39974 53.000449 83.89974 53.099677 83.5 " transform="matrix(3.346154,0,0,3,0,0)"/>
<path style="fill-rule:nonzero;fill:rgb(0%,39.607843%,71.764706%);fill-opacity:1;stroke-width:0.4;stroke-linecap:round;stroke-linejoin:round;stroke:rgb(0%,0%,0%);stroke-opacity:1;stroke-miterlimit:4;" d="M 40.399784 61.000375 C 40.399951 59.177748 39.683959 57.70047 38.799671 57.699935 C 37.916707 57.700543 37.200134 59.177305 37.199967 60.999932 C 37.199801 62.822559 37.915793 64.299837 38.80008 64.300372 C 39.683044 64.299764 40.399618 62.823002 40.399784 61.000375 Z M 40.399784 61.000375 " transform="matrix(0.0642376,-2.999447,3.345537,0.0575923,-76.639052,295.777145)"/>
<path style="fill-rule:nonzero;fill:rgb(0%,39.607843%,71.764706%);fill-opacity:1;stroke-width:0.4;stroke-linecap:round;stroke-linejoin:round;stroke:rgb(0%,0%,0%);stroke-opacity:1;stroke-miterlimit:4;" d="M 40.800108 61 C 40.800108 61.5 39.900054 61.89974 38.800377 61.799479 C 37.699533 61.700521 36.899874 61.39974 36.899874 61 " transform="matrix(3.346154,0,0,3,0,0)"/>
<path style="fill-rule:nonzero;fill:rgb(0%,39.607843%,71.764706%);fill-opacity:1;stroke-width:0.4;stroke-linecap:round;stroke-linejoin:round;stroke:rgb(0%,0%,0%);stroke-opacity:1;stroke-miterlimit:4;" d="M 23.199823 59.499388 C 23.199476 58.616404 21.722641 57.899558 19.900325 57.89967 C 18.07801 57.899783 16.600239 58.616454 16.600304 59.50071 C 16.599511 60.383442 18.077486 61.10054 19.899801 61.100428 C 21.722117 61.100315 23.199888 60.383644 23.199823 59.499388 Z M 23.199823 59.499388 " transform="matrix(3.266837,-0.649319,0.72424,2.928888,-41.491258,17.097818)"/>
<path style="fill-rule:nonzero;fill:rgb(0%,39.607843%,71.764706%);fill-opacity:1;stroke-width:0.4;stroke-linecap:round;stroke-linejoin:round;stroke:rgb(0%,0%,0%);stroke-opacity:1;stroke-miterlimit:4;" d="M 21.799749 59.10026 C 21.900144 59.5 21.100485 60.10026 20.100036 60.299479 C 19.099587 60.5 18.100305 60.39974 17.99991 59.89974 " transform="matrix(3.346154,0,0,3,0,0)"/>
<path style="fill-rule:nonzero;fill:rgb(0%,39.607843%,71.764706%);fill-opacity:1;stroke-width:0.4;stroke-linecap:round;stroke-linejoin:round;stroke:rgb(0%,0%,0%);stroke-opacity:1;stroke-miterlimit:4;" d="M 58.800136 59.700299 C 58.800462 57.877186 58.083322 56.400578 57.20023 56.400053 C 56.315857 56.399762 55.599435 57.877177 55.60039 59.700055 C 55.599854 61.52202 56.315923 63.000011 57.200296 63.000301 C 58.083178 62.999678 58.7996 61.522264 58.800136 59.700299 Z M 58.800136 59.700299 " transform="matrix(0.604045,-2.950714,3.291181,0.541557,-39.486811,315.589238)"/>
<path style="fill-rule:nonzero;fill:rgb(0%,39.607843%,71.764706%);fill-opacity:1;stroke-width:0.4;stroke-linecap:round;stroke-linejoin:round;stroke:rgb(0%,0%,0%);stroke-opacity:1;stroke-miterlimit:4;" d="M 59.200431 60 C 59.100036 60.5 58.099587 60.700521 57.100305 60.5 C 56.099856 60.299479 55.199802 59.799479 55.300198 59.299479 " transform="matrix(3.346154,0,0,3,0,0)"/>
<path style="fill:none;stroke-width:0.4;stroke-linecap:round;stroke-linejoin:round;stroke:rgb(0%,0%,0%);stroke-opacity:1;stroke-miterlimit:4;" d="M 43.500269 75.5 C 45.900413 78.799479 49.400233 80.299479 53.600485 80.60026 C 56.105693 80.661458 58.496498 81.660156 60.300108 83.39974 C 61.061243 84.165365 61.939116 84.807292 62.899874 85.299479 C 63.597971 85.585938 64.346264 85.721354 65.100395 85.700521 L 65.700431 85.700521 L 64.399964 87.5 C 64.207346 87.677083 64.130298 87.947917 64.200341 88.200521 C 64.229526 88.479167 64.374282 88.733073 64.599587 88.89974 L 66.999731 90.5 C 65.63389 91.091146 64.18283 91.46224 62.700251 91.60026 C 62.246139 91.630208 61.794361 91.526042 61.399784 91.299479 C 60.669001 90.936198 60.046785 90.384115 59.599677 89.700521 C 58.5 88.299479 57.199533 86.700521 53.099677 86.10026 C 48.99982 85.5 45.399605 83.700521 43.699892 81 " transform="matrix(3.346154,0,0,3,0,0)"/>
<path style="fill:none;stroke-width:0.4;stroke-linecap:round;stroke-linejoin:round;stroke:rgb(0%,0%,0%);stroke-opacity:1;stroke-miterlimit:4;" d="M 8.00009 7.89974 L 69.99991 7.89974 L 69.99991 132.209635 L 8.00009 132.209635 Z M 8.00009 7.89974 " transform="matrix(3.346154,0,0,3,0,0)"/>
</g>
</svg>
