<?xml version="1.0" encoding="UTF-8"?>
<svg xmlns="http://www.w3.org/2000/svg" xmlns:xlink="http://www.w3.org/1999/xlink" width="261px" height="420px" viewBox="0 0 261 426" version="1.1">
<g id="surface1">
<path style=" stroke:none;fill-rule:nonzero;fill:rgb(100%,100%,100%);fill-opacity:1;" d="M 18 0 L 243 0 C 252.941406 0 261 8.175781 261 18.257812 L 261 407.742188 C 261 417.824219 252.941406 426 243 426 L 18 426 C 8.058594 426 0 417.824219 0 407.742188 L 0 18.257812 C 0 8.175781 8.058594 0 18 0 Z M 18 0 "/>
<path style=" stroke:none;fill-rule:nonzero;fill:rgb(19.607843%,34.117647%,13.72549%);fill-opacity:1;" d="M 155.398438 371.835938 C 151.46875 371.886719 147.539062 371.476562 143.699219 370.617188 C 122.398438 366.058594 108.601562 345.058594 111.300781 322.238281 C 114 299.417969 131.398438 274.769531 137.398438 267.773438 L 138 267.164062 C 170.699219 228.824219 174.898438 205.390625 174.300781 194.742188 C 173.699219 184.09375 171.300781 179.226562 166.199219 175.269531 C 160.105469 170.609375 152.46875 168.539062 144.902344 169.484375 C 140.042969 171.382812 135.410156 173.832031 131.097656 176.789062 C 116.097656 185.007812 96 196.566406 75.898438 195.046875 C 64.699219 194.433594 54.921875 187.144531 51 176.484375 C 44.097656 157.925781 53.398438 132.972656 66.296875 119.582031 C 79.199219 106.195312 99.300781 81.242188 104.101562 71.808594 C 101.402344 69.984375 95.699219 69.074219 91.800781 67.855469 C 89.175781 67.152344 86.949219 65.386719 85.640625 62.96875 C 84.335938 60.550781 84.070312 57.699219 84.898438 55.074219 C 85.601562 52.402344 87.328125 50.125 89.695312 48.753906 C 92.066406 47.382812 94.875 47.027344 97.5 47.773438 C 102 49.292969 117 54.164062 122.699219 64.203125 C 128.398438 74.246094 123.601562 82.15625 108.300781 102.242188 C 99.878906 113.464844 90.761719 124.136719 81 134.191406 C 72.300781 143.625 66.902344 160.054688 70.203125 169.183594 C 71.101562 171.617188 72.597656 173.75 77.699219 174.050781 C 91.199219 175.269531 108.300781 165.53125 120.898438 158.53125 C 133.5 151.535156 136.5 149.40625 142.5 148.796875 C 155.769531 147 169.191406 150.734375 179.699219 159.140625 C 186 164.617188 194.097656 175.269531 195 193.832031 C 195.898438 218.175781 182.101562 247.382812 153.597656 280.855469 L 153 281.464844 C 146.398438 289.074219 133.800781 309.457031 132 324.675781 C 129.910156 336.191406 137 347.375 148.199219 350.234375 C 158.699219 352.667969 174.300781 349.320312 182.699219 338.667969 C 191.101562 328.019531 189.898438 306.109375 189.601562 263.511719 L 189.601562 248.601562 C 189.597656 242.835938 194.121094 238.117188 199.800781 237.949219 L 200.097656 237.949219 C 205.617188 238.117188 210 242.703125 210 248.296875 L 210 263.207031 C 210.601562 313.71875 210.601562 336.84375 198.898438 351.753906 C 188.023438 364.625 172.109375 371.972656 155.398438 371.835938 Z M 155.398438 371.835938 "/>
<path style=" stroke:none;fill-rule:nonzero;fill:rgb(5.098039%,22.745098%,7.058824%);fill-opacity:1;" d="M 77.699219 189.875 C 77.699219 189.875 105.300781 191.394531 140.398438 166.140625 C 140.398438 166.441406 137.097656 173.441406 137.097656 173.441406 C 137.097656 173.441406 110.402344 189.265625 99.898438 191.699219 C 89.402344 194.132812 79.800781 196.265625 78 195.351562 C 76.203125 194.441406 77.699219 189.875 77.699219 189.875 Z M 165.597656 158.53125 C 165.597656 158.53125 182.101562 160.359375 188.699219 181.660156 C 195.300781 202.957031 188.699219 228.519531 168 256.515625 C 147.296875 284.507812 116.703125 317.066406 133.199219 343.84375 C 133.5 344.148438 134.699219 339.582031 134.699219 339.582031 C 134.699219 339.582031 127.800781 330.757812 133.5 316.152344 C 138.984375 302.167969 146.574219 289.132812 156 277.507812 C 165.097656 266.34375 173.417969 254.550781 180.898438 242.210938 C 184.199219 235.824219 193.5 219.085938 194.097656 206 C 194.703125 192.917969 195.898438 180.136719 185.699219 165.53125 C 175.5 150.925781 164.699219 154.882812 164.699219 154.882812 Z M 151.5 366.664062 C 151.5 366.664062 178.5 371.835938 192.601562 353.273438 C 201.980469 340.519531 207.128906 325.070312 207.300781 309.15625 C 207.300781 303.980469 207.300781 247.992188 206.398438 245.863281 C 205.5 243.734375 204.601562 238.558594 199.800781 237.949219 C 200.097656 238.558594 209.097656 238.558594 209.699219 246.472656 C 210.300781 254.382812 210 301.546875 210 301.546875 L 207.898438 330.148438 C 207.898438 330.148438 204.601562 346.582031 197.703125 353.273438 C 190.796875 359.96875 181.199219 369.097656 167.699219 370.617188 C 161.863281 371.6875 155.925781 372.097656 150 371.835938 Z M 117.601562 80.332031 C 117.601562 80.332031 94.800781 110.757812 75.597656 133.882812 C 56.398438 157.011719 68.699219 175.269531 70.800781 176.484375 C 72.898438 177.703125 73.5 173.75 73.5 173.75 C 73.5 173.75 64.800781 170.09375 70.5 152.449219 C 76.203125 134.800781 93.898438 120.5 93.898438 120.5 L 113.398438 95.242188 L 121.199219 82.765625 L 119.703125 77.59375 Z M 117.601562 80.332031 "/>
<path style=" stroke:none;fill-rule:nonzero;fill:rgb(0%,39.607843%,71.764706%);fill-opacity:1;" d="M 123.902344 76.679688 C 123.902344 76.679688 129.300781 64.203125 111.601562 53.859375 C 93.898438 43.515625 87.597656 46.859375 85.199219 53.554688 C 82.800781 60.25 85.800781 67.550781 95.101562 69.375 C 104.402344 71.203125 115.5 75.765625 120.300781 83.984375 Z M 123.902344 76.679688 "/>
<path style="fill:none;stroke-width:0.4;stroke-linecap:round;stroke-linejoin:round;stroke:rgb(0%,0%,0%);stroke-opacity:1;stroke-miterlimit:4;" d="M 51.799472 122.199599 C 50.489576 122.216287 49.179681 122.081494 47.899733 121.79907 C 40.799473 120.300941 36.200516 113.399533 37.100255 105.8999 C 37.999995 98.400267 43.799473 90.299842 45.799473 88.000656 L 45.999994 87.800392 C 56.899732 75.200444 58.299471 67.499263 58.100252 63.999777 C 57.899731 60.500291 57.100252 58.900746 55.399732 57.600313 C 53.368482 56.068806 50.82291 55.388422 48.300774 55.699088 C 46.680983 56.322988 45.136712 57.127895 43.699213 58.099689 C 38.699213 60.800687 31.999996 64.599286 25.299476 64.099909 C 21.566403 63.898361 18.307289 61.502895 16.999998 57.999557 C 14.699217 51.900489 17.799477 43.699932 22.098955 39.299257 C 26.399736 34.899866 33.100256 26.699309 34.700516 23.599067 C 33.800777 22.999559 31.899735 22.700446 30.600256 22.299918 C 29.725256 22.068844 28.983069 21.488592 28.546871 20.693954 C 28.111975 19.899317 28.023434 18.962184 28.299475 18.099508 C 28.53385 17.221427 29.109371 16.473004 29.898433 16.02241 C 30.688798 15.571816 31.624996 15.454995 32.499995 15.70019 C 33.999995 16.199566 38.999995 17.800395 40.899734 21.100901 C 42.799473 24.400124 41.200515 26.999705 36.100255 33.600717 C 33.292964 37.288914 30.253902 40.796103 26.999996 44.10046 C 24.100257 47.200702 22.300778 52.60013 23.401038 55.60024 C 23.700518 56.400012 24.199215 57.100936 25.899736 57.199785 C 30.399735 57.600313 36.100255 54.399939 40.299474 52.09947 C 44.499994 49.800284 45.499994 49.100643 47.499993 48.900379 C 51.92317 48.309857 56.397128 49.537116 59.899731 52.299734 C 61.999991 54.099543 64.69921 57.600313 64.999991 63.700665 C 65.29947 71.700958 60.700512 81.299512 51.199212 92.299915 L 50.999993 92.500179 C 48.799472 95.000913 44.600254 101.699489 43.999994 106.700956 C 43.303379 110.485434 45.66666 114.160793 49.399733 115.100494 C 52.899732 115.900266 58.100252 114.800098 60.899731 111.299328 C 63.700512 107.799841 63.29947 100.599321 63.200512 86.600092 L 63.200512 81.70004 C 63.19921 79.805234 64.707022 78.254471 66.600251 78.19927 L 66.699209 78.19927 C 68.539053 78.254471 69.99999 79.761587 69.99999 81.599908 L 69.99999 86.49996 C 70.200511 103.100054 70.200511 110.699819 66.29947 115.59987 C 62.67447 119.829807 57.369784 122.24453 51.799472 122.199599 Z M 51.799472 122.199599 " transform="matrix(3,0,0,3.042857,0,0)"/>
<path style=" stroke:none;fill-rule:nonzero;fill:rgb(99.607843%,74.901961%,6.27451%);fill-opacity:1;" d="M 82.199219 281.464844 C 77.621094 281.578125 73.082031 280.53125 69 278.421875 C 57.296875 272.335938 50.699219 258.640625 51.300781 241.300781 C 52.671875 222.882812 56.925781 204.804688 63.902344 187.742188 C 64.769531 184.210938 67.625 181.535156 71.167969 180.945312 C 74.714844 180.351562 78.265625 181.953125 80.207031 185.015625 C 82.148438 188.082031 82.101562 192.023438 80.101562 195.046875 C 80.101562 195.046875 69.898438 219.085938 69 241.90625 C 68.699219 251.644531 71.699219 259.859375 77.101562 262.597656 C 82.5 265.335938 93.300781 262.292969 105 253.167969 C 108.8125 250.140625 114.320312 250.820312 117.300781 254.683594 C 120.28125 258.554688 119.609375 264.136719 115.800781 267.164062 C 102 278.117188 90.898438 281.464844 82.199219 281.464844 Z M 82.199219 281.464844 "/>
<path style=" stroke:none;fill-rule:nonzero;fill:rgb(81.568627%,60.784314%,2.745098%);fill-opacity:1;" d="M 56.398438 260.164062 C 57.902344 227.910156 71.699219 194.441406 72 194.132812 C 73.542969 190.355469 73.207031 186.058594 71.101562 182.574219 C 67.949219 182.84375 65.195312 184.820312 63.902344 187.742188 C 56.925781 204.804688 52.671875 222.882812 51.300781 241.300781 C 50.765625 249.867188 52.636719 258.414062 56.699219 265.945312 C 56.441406 264.03125 56.339844 262.097656 56.398438 260.164062 Z M 56.398438 260.164062 "/>
<path style="fill:none;stroke-width:0.4;stroke-linecap:round;stroke-linejoin:round;stroke:rgb(0%,0%,0%);stroke-opacity:1;stroke-miterlimit:4;" d="M 27.399736 92.500179 C 25.873694 92.537408 24.360674 92.193365 22.999997 91.500143 C 19.098956 89.500069 16.899737 84.999263 17.100258 79.300723 C 17.557289 73.247869 18.975258 67.306702 21.300778 61.699308 C 21.589841 60.538803 22.541664 59.659438 23.722653 59.465593 C 24.904944 59.270464 26.088538 59.796799 26.735673 60.803254 C 27.382809 61.810993 27.367184 63.106291 26.700517 64.099909 C 26.700517 64.099909 23.299476 72.00007 22.999997 79.499703 C 22.899736 82.700077 23.899736 85.399791 25.700517 86.299695 C 27.499996 87.1996 31.100256 86.199563 34.999995 83.200737 C 36.270828 82.205836 38.106766 82.429207 39.100255 83.69883 C 40.093744 84.97102 39.869786 86.805491 38.600255 87.800392 C 33.999995 91.400011 30.299475 92.500179 27.399736 92.500179 Z M 27.399736 92.500179 " transform="matrix(3,0,0,3.042857,0,0)"/>
<path style=" stroke:none;fill-rule:nonzero;fill:rgb(100%,0%,0%);fill-opacity:1;" d="M 149.007812 142.3125 L 169.710938 150.4375 L 89.578125 359.96875 L 68.878906 351.8125 Z M 149.007812 142.3125 "/>
<path style=" stroke:none;fill-rule:nonzero;fill:rgb(59.607843%,3.137255%,1.960784%);fill-opacity:1;" d="M 158.101562 162.183594 L 83.101562 356.925781 L 94.5 348.710938 L 167.101562 158.53125 Z M 158.101562 162.183594 "/>
<path style="fill:none;stroke-width:0.4;stroke-linecap:round;stroke-linejoin:round;stroke:rgb(0%,0%,0%);stroke-opacity:1;stroke-miterlimit:4;" d="M 49.669264 46.769364 L 56.570305 49.439552 L 29.859371 118.299584 L 22.959632 115.619126 Z M 49.669264 46.769364 " transform="matrix(3,0,0,3.042857,0,0)"/>
<path style="fill-rule:nonzero;fill:rgb(0%,30.196078%,63.137255%);fill-opacity:1;stroke-width:0.4;stroke-linecap:round;stroke-linejoin:round;stroke:rgb(0%,0%,0%);stroke-opacity:1;stroke-miterlimit:4;" d="M 69.200511 98.700663 L 63.399731 98.700663 L 66.29947 101.600641 Z M 70.799469 106.100164 L 70.799469 100.200076 L 67.79947 103.100054 Z M 61.899731 100.200076 L 61.899731 106.100164 L 64.800772 103.100054 Z M 63.399731 107.599577 L 69.200511 107.599577 L 66.29947 104.599467 Z M 63.399731 107.599577 " transform="matrix(3,0,0,3.042857,0,0)"/>
<path style="fill-rule:nonzero;fill:rgb(0%,39.607843%,71.764706%);fill-opacity:1;stroke-width:0.4;stroke-linecap:round;stroke-linejoin:round;stroke:rgb(0%,0%,0%);stroke-opacity:1;stroke-miterlimit:4;" d="M 70.799469 106.100164 L 67.79947 103.100054 L 70.799469 100.200076 L 70.799469 98.700663 L 69.200511 98.700663 L 66.29947 101.600641 L 63.399731 98.700663 L 61.899731 98.700663 L 61.899731 100.200076 L 64.800772 103.100054 L 61.899731 106.100164 L 61.899731 107.599577 L 63.399731 107.599577 L 66.29947 104.599467 L 69.200511 107.599577 L 70.799469 107.599577 Z M 70.799469 106.100164 " transform="matrix(3,0,0,3.042857,0,0)"/>
<path style="fill-rule:nonzero;fill:rgb(0%,30.196078%,63.137255%);fill-opacity:1;stroke-width:0.4;stroke-linecap:round;stroke-linejoin:round;stroke:rgb(0%,0%,0%);stroke-opacity:1;stroke-miterlimit:4;" d="M 51.899732 113.999041 L 46.499994 111.799988 L 48.098952 115.59987 Z M 50.499993 121.399826 L 52.700513 116.000398 L 48.899733 117.599943 Z M 44.499994 112.59976 L 42.300775 118.09932 L 46.100254 116.499775 Z M 43.100254 119.999261 L 48.499993 122.299731 L 46.899733 118.399716 Z M 43.100254 119.999261 " transform="matrix(3,0,0,3.042857,0,0)"/>
<path style="fill-rule:nonzero;fill:rgb(0%,39.607843%,71.764706%);fill-opacity:1;stroke-width:0.4;stroke-linecap:round;stroke-linejoin:round;stroke:rgb(0%,0%,0%);stroke-opacity:1;stroke-miterlimit:4;" d="M 50.499993 121.399826 L 48.899733 117.599943 L 52.700513 116.000398 L 53.299472 114.599834 L 51.899732 113.999041 L 48.098952 115.59987 L 46.499994 111.799988 L 45.100254 111.200479 L 44.499994 112.59976 L 46.100254 116.499775 L 42.300775 118.09932 L 41.699213 119.501168 L 43.100254 119.999261 L 46.899733 118.399716 L 48.499993 122.299731 L 49.899733 122.800391 Z M 50.499993 121.399826 " transform="matrix(3,0,0,3.042857,0,0)"/>
<path style="fill-rule:nonzero;fill:rgb(0%,30.196078%,63.137255%);fill-opacity:1;stroke-width:0.4;stroke-linecap:round;stroke-linejoin:round;stroke:rgb(0%,0%,0%);stroke-opacity:1;stroke-miterlimit:4;" d="M 33.299475 36.700959 L 29.100256 32.600681 L 29.199215 36.700959 Z M 29.299475 43.000292 L 33.399735 38.801165 L 29.199215 38.900013 Z M 26.999996 32.600681 L 22.899736 36.799808 L 26.999996 36.799808 Z M 22.899736 39.000145 L 27.199215 43.100424 L 27.100257 38.900013 Z M 22.899736 39.000145 " transform="matrix(3,0,0,3.042857,0,0)"/>
<path style="fill-rule:nonzero;fill:rgb(0%,39.607843%,71.764706%);fill-opacity:1;stroke-width:0.4;stroke-linecap:round;stroke-linejoin:round;stroke:rgb(0%,0%,0%);stroke-opacity:1;stroke-miterlimit:4;" d="M 29.299475 43.000292 L 29.199215 38.900013 L 33.399735 38.801165 L 34.399735 37.699712 L 33.299475 36.700959 L 29.199215 36.700959 L 29.100256 32.600681 L 27.999996 31.500512 L 26.999996 32.600681 L 26.999996 36.799808 L 22.899736 36.799808 L 21.799476 37.899976 L 22.899736 39.000145 L 27.100257 38.900013 L 27.199215 43.100424 L 28.199215 44.10046 Z M 62.999991 36.799808 C 59.999992 44.399573 55.600253 49.800284 53.100253 48.800247 C 50.600253 47.800211 50.999993 40.900086 53.999992 33.299038 C 56.999992 25.699273 63.899731 21.301165 63.899731 21.301165 C 63.899731 21.301165 65.999991 29.200043 62.999991 36.799808 Z M 62.999991 36.799808 " transform="matrix(3,0,0,3.042857,0,0)"/>
<path style="fill:none;stroke-width:0.4;stroke-linecap:round;stroke-linejoin:round;stroke:rgb(0%,0%,0%);stroke-opacity:1;stroke-miterlimit:4;" d="M 52.799472 36.89994 C 54.401034 35.700923 55.899732 35.100131 59.700512 33.699566 C 61.485668 33.093639 63.097647 32.064076 64.399731 30.70074 M 64.598949 26.699309 C 63.39322 27.644145 62.04296 28.387433 60.600252 28.90093 C 58.658846 29.59672 56.7552 30.397776 54.899732 31.300248 M 51.700514 42.000255 C 53.401034 40.499558 54.899732 40.000182 58.800773 38.499485 C 60.467439 37.915381 61.998689 36.996221 63.29947 35.799771 " transform="matrix(3,0,0,3.042857,0,0)"/>
<path style="fill:none;stroke-width:0.4;stroke-linecap:round;stroke-linejoin:round;stroke:rgb(0%,0%,0%);stroke-opacity:1;stroke-miterlimit:4;" d="M 64.399731 30.70074 C 63.097647 32.064076 61.485668 33.093639 59.700512 33.699566 C 55.899732 35.100131 54.401034 35.700923 52.799472 36.89994 M 51.600253 45.900269 C 53.532545 44.78598 55.576815 43.882224 57.700513 43.199272 C 58.71744 42.803879 59.690096 42.300651 60.600252 41.699859 M 63.29947 35.799771 C 61.998689 36.996221 60.467439 37.915381 58.800773 38.499485 C 54.899732 40.000182 53.401034 40.499558 51.700514 42.000255 " transform="matrix(3,0,0,3.042857,0,0)"/>
<path style="fill-rule:nonzero;fill:rgb(99.607843%,74.901961%,6.27451%);fill-opacity:1;stroke-width:0.4;stroke-linecap:round;stroke-linejoin:round;stroke:rgb(0%,0%,0%);stroke-opacity:1;stroke-miterlimit:4;" d="M 68.29947 48.800247 C 68.29947 51.892787 65.79296 54.399939 62.700512 54.399939 C 59.606763 54.399939 57.100252 51.892787 57.100252 48.800247 C 57.100252 45.707708 59.606763 43.199272 62.700512 43.199272 C 65.79296 43.199272 68.29947 45.707708 68.29947 48.800247 Z M 68.29947 48.800247 " transform="matrix(3,0,0,3.042857,0,0)"/>
<path style="fill-rule:nonzero;fill:rgb(99.607843%,74.901961%,6.27451%);fill-opacity:1;stroke-width:0.4;stroke-linecap:round;stroke-linejoin:round;stroke:rgb(0%,0%,0%);stroke-opacity:1;stroke-miterlimit:4;" d="M 66.600251 48.800247 C 66.600251 50.95437 64.854158 52.700262 62.700512 52.700262 C 60.545564 52.700262 58.800773 50.95437 58.800773 48.800247 C 58.800773 46.646125 60.545564 44.900233 62.700512 44.900233 C 64.854158 44.900233 66.600251 46.646125 66.600251 48.800247 Z M 66.600251 48.800247 " transform="matrix(3,0,0,3.042857,0,0)"/>
<path style=" stroke:none;fill-rule:nonzero;fill:rgb(81.568627%,60.784314%,2.745098%);fill-opacity:1;" d="M 194.402344 148.492188 C 194.402344 152.019531 191.582031 154.882812 188.101562 154.882812 C 184.621094 154.882812 181.800781 152.019531 181.800781 148.492188 C 181.800781 144.964844 184.621094 142.101562 188.101562 142.101562 C 191.582031 142.101562 194.402344 144.964844 194.402344 148.492188 Z M 194.402344 148.492188 "/>
<path style="fill-rule:nonzero;fill:rgb(99.607843%,74.901961%,6.27451%);fill-opacity:1;stroke-width:0.4;stroke-linecap:round;stroke-linejoin:round;stroke:rgb(0%,0%,0%);stroke-opacity:1;stroke-miterlimit:4;" d="M 51.600253 42.300651 C 51.600253 45.39319 49.092441 47.899059 45.999994 47.899059 C 42.906244 47.899059 40.399734 45.39319 40.399734 42.300651 C 40.399734 39.206828 42.906244 36.700959 45.999994 36.700959 C 49.092441 36.700959 51.600253 39.206828 51.600253 42.300651 Z M 51.600253 42.300651 " transform="matrix(3,0,0,3.042857,0,0)"/>
<path style="fill-rule:nonzero;fill:rgb(99.607843%,74.901961%,6.27451%);fill-opacity:1;stroke-width:0.4;stroke-linecap:round;stroke-linejoin:round;stroke:rgb(0%,0%,0%);stroke-opacity:1;stroke-miterlimit:4;" d="M 49.899733 42.300651 C 49.899733 44.45349 48.153639 46.200666 45.999994 46.200666 C 43.846348 46.200666 42.100255 44.45349 42.100255 42.300651 C 42.100255 40.146528 43.846348 38.399353 45.999994 38.399353 C 48.153639 38.399353 49.899733 40.146528 49.899733 42.300651 Z M 49.899733 42.300651 " transform="matrix(3,0,0,3.042857,0,0)"/>
<path style=" stroke:none;fill-rule:nonzero;fill:rgb(81.568627%,60.784314%,2.745098%);fill-opacity:1;" d="M 144.296875 128.714844 C 144.296875 132.242188 141.480469 135.101562 138 135.101562 C 134.519531 135.101562 131.699219 132.242188 131.699219 128.714844 C 131.699219 125.183594 134.519531 122.324219 138 122.324219 C 141.480469 122.324219 144.296875 125.183594 144.296875 128.714844 Z M 144.296875 128.714844 "/>
<path style="fill-rule:nonzero;fill:rgb(99.607843%,74.901961%,6.27451%);fill-opacity:1;stroke-width:0.4;stroke-linecap:round;stroke-linejoin:round;stroke:rgb(0%,0%,0%);stroke-opacity:1;stroke-miterlimit:4;" d="M 54.369784 45.619129 L 57.019523 51.670699 L 50.92968 54.330617 L 48.289056 48.280331 Z M 54.369784 45.619129 " transform="matrix(3,0,0,3.042857,0,0)"/>
<path style=" stroke:none;fill-rule:nonzero;fill:rgb(0%,0%,0%);fill-opacity:1;" d="M 165.210938 133.277344 L 173.160156 151.65625 L 154.886719 159.75 L 146.96875 141.339844 Z M 165.210938 133.277344 "/>
<path style="fill-rule:nonzero;fill:rgb(99.607843%,74.901961%,6.27451%);fill-opacity:1;stroke-width:0.4;stroke-linecap:round;stroke-linejoin:round;stroke:rgb(100%,100%,100%);stroke-opacity:1;stroke-miterlimit:4;" d="M 63.600568 46.500162 C 63.600285 44.511604 61.093452 42.8998 58.001098 42.900578 C 54.907793 42.89893 52.400033 44.511037 52.400316 46.499595 C 52.399404 48.488622 54.907432 50.099958 58.000261 50.100392 C 61.092615 50.099615 63.599656 48.489189 63.600568 46.500162 Z M 63.600568 46.500162 " transform="matrix(1.09463,-2.83307,2.793168,1.110268,-19.494047,254.061122)"/>
<path style="fill-rule:nonzero;fill:rgb(99.607843%,74.901961%,6.27451%);fill-opacity:1;stroke-width:0.4;stroke-linecap:round;stroke-linejoin:round;stroke:rgb(100%,100%,100%);stroke-opacity:1;stroke-miterlimit:4;" d="M 56.799768 43.899488 C 56.79996 41.912141 54.293127 40.300338 51.200297 40.299903 C 48.107468 40.299468 45.599708 41.911574 45.599991 43.900133 C 45.599799 45.887479 48.107827 47.498814 51.201132 47.500461 C 54.293486 47.499684 56.800051 45.888046 56.799768 43.899488 Z M 56.799768 43.899488 " transform="matrix(1.09463,-2.83307,2.793168,1.110268,-24.89494,230.025175)"/>
<path style=" stroke:none;fill-rule:nonzero;fill:rgb(81.568627%,60.784314%,2.745098%);fill-opacity:1;" d="M 162.085938 118.953125 C 157.769531 117.234375 151.570312 122.816406 148.246094 131.425781 C 144.917969 140.03125 145.726562 148.398438 150.046875 150.113281 C 154.367188 151.832031 160.5625 146.246094 163.890625 137.640625 C 167.210938 129.035156 166.40625 120.667969 162.085938 118.953125 Z M 162.085938 118.953125 "/>
<path style=" stroke:none;fill-rule:nonzero;fill:rgb(81.568627%,60.784314%,2.745098%);fill-opacity:1;" d="M 177.976562 125.140625 C 173.65625 123.421875 167.457031 129.007812 164.132812 137.613281 C 160.808594 146.21875 161.617188 154.585938 165.933594 156.304688 C 170.253906 158.019531 176.453125 152.4375 179.773438 143.832031 C 183.097656 135.222656 182.296875 126.855469 177.976562 125.140625 Z M 177.976562 125.140625 "/>
<path style="fill:none;stroke-width:0.4;stroke-linecap:round;stroke-linejoin:round;stroke:rgb(0%,0%,0%);stroke-opacity:1;stroke-miterlimit:4;" d="M 63.600568 46.500162 C 63.600285 44.511604 61.093452 42.8998 58.001098 42.900578 C 54.907793 42.89893 52.400033 44.511037 52.400316 46.499595 C 52.399404 48.488622 54.907432 50.099958 58.000261 50.100392 C 61.092615 50.099615 63.599656 48.489189 63.600568 46.500162 Z M 63.600568 46.500162 " transform="matrix(1.09463,-2.83307,2.793168,1.110268,-19.494047,254.061122)"/>
<path style="fill:none;stroke-width:0.4;stroke-linecap:round;stroke-linejoin:round;stroke:rgb(0%,0%,0%);stroke-opacity:1;stroke-miterlimit:4;" d="M 56.799768 43.899488 C 56.79996 41.912141 54.293127 40.300338 51.200297 40.299903 C 48.107468 40.299468 45.599708 41.911574 45.599991 43.900133 C 45.599799 45.887479 48.107827 47.498814 51.201132 47.500461 C 54.293486 47.499684 56.800051 45.888046 56.799768 43.899488 Z M 56.799768 43.899488 " transform="matrix(1.09463,-2.83307,2.793168,1.110268,-24.89494,230.025175)"/>
<path style="fill-rule:nonzero;fill:rgb(99.607843%,74.901961%,6.27451%);fill-opacity:1;stroke-width:0.4;stroke-linecap:round;stroke-linejoin:round;stroke:rgb(0%,0%,0%);stroke-opacity:1;stroke-miterlimit:4;" d="M 60.099616 45.199597 C 60.100389 43.212109 57.593227 41.599028 54.499913 41.599581 C 51.407793 41.599659 48.899152 43.211781 48.900054 45.200004 C 48.899762 47.188702 51.407635 48.800099 54.499756 48.80002 C 57.593069 48.799467 60.099324 47.188295 60.099616 45.199597 Z M 60.099616 45.199597 " transform="matrix(1.109241,-2.827218,2.787398,1.125087,-22.228407,241.47142)"/>
<path style="fill-rule:nonzero;fill:rgb(99.607843%,74.901961%,6.27451%);fill-opacity:1;stroke-width:0.4;stroke-linecap:round;stroke-linejoin:round;stroke:rgb(0%,0%,0%);stroke-opacity:1;stroke-miterlimit:4;" d="M 65.999991 19.899317 C 65.999991 20.783817 65.283845 21.500146 64.399731 21.500146 C 63.516918 21.500146 62.800772 20.783817 62.800772 19.899317 C 62.800772 19.016101 63.516918 18.299772 64.399731 18.299772 C 65.283845 18.299772 65.999991 19.016101 65.999991 19.899317 Z M 65.999991 19.899317 " transform="matrix(3,0,0,3.042857,0,0)"/>
<path style="fill-rule:nonzero;fill:rgb(90.196078%,90.196078%,90.196078%);fill-opacity:1;stroke-width:0.4;stroke-linecap:round;stroke-linejoin:round;stroke:rgb(0%,0%,0%);stroke-opacity:1;stroke-miterlimit:4;" d="M 65.69921 22.500182 C 65.69921 23.769805 64.670564 24.800652 63.399731 24.800652 C 62.128898 24.800652 61.100252 23.769805 61.100252 22.500182 C 61.100252 21.229276 62.128898 20.199713 63.399731 20.199713 C 64.670564 20.199713 65.69921 21.229276 65.69921 22.500182 Z M 65.69921 22.500182 " transform="matrix(3,0,0,3.042857,0,0)"/>
<path style=" stroke:none;fill-rule:nonzero;fill:rgb(80%,80%,80%);fill-opacity:1;" d="M 192 64.203125 C 191.019531 63.898438 189.976562 63.898438 189 64.203125 C 191.070312 65.289062 191.984375 67.796875 191.101562 69.984375 C 190.488281 71.257812 189.410156 72.242188 188.101562 72.726562 C 188.265625 72.726562 188.402344 72.859375 188.402344 73.027344 C 190.796875 73.867188 193.429688 72.667969 194.402344 70.289062 C 195.269531 67.9375 194.230469 65.300781 192 64.203125 Z M 192 64.203125 "/>
<path style="fill-rule:nonzero;fill:rgb(0%,39.607843%,71.764706%);fill-opacity:1;stroke-width:0.4;stroke-linecap:round;stroke-linejoin:round;stroke:rgb(0%,0%,0%);stroke-opacity:1;stroke-miterlimit:4;" d="M 37.499995 27.199969 C 37.499995 27.863665 36.962234 28.40027 36.299474 28.40027 C 35.636714 28.40027 35.100256 27.863665 35.100256 27.199969 C 35.100256 26.537558 35.636714 26.000952 36.299474 26.000952 C 36.962234 26.000952 37.499995 26.537558 37.499995 27.199969 Z M 37.499995 27.199969 " transform="matrix(3,0,0,3.042857,0,0)"/>
<path style="fill-rule:nonzero;fill:rgb(0%,39.607843%,71.764706%);fill-opacity:1;stroke-width:0.4;stroke-linecap:round;stroke-linejoin:round;stroke:rgb(0%,0%,0%);stroke-opacity:1;stroke-miterlimit:4;" d="M 34.399735 31.500512 C 34.399735 32.162924 33.861974 32.699529 33.200516 32.699529 C 32.537756 32.699529 31.999996 32.162924 31.999996 31.500512 C 31.999996 30.836816 32.537756 30.300211 33.200516 30.300211 C 33.861974 30.300211 34.399735 30.836816 34.399735 31.500512 Z M 34.399735 31.500512 " transform="matrix(3,0,0,3.042857,0,0)"/>
<path style="fill-rule:nonzero;fill:rgb(0%,39.607843%,71.764706%);fill-opacity:1;stroke-width:0.4;stroke-linecap:round;stroke-linejoin:round;stroke:rgb(0%,0%,0%);stroke-opacity:1;stroke-miterlimit:4;" d="M 23.600257 44.10046 C 23.600257 44.761588 23.062497 45.299477 22.401039 45.299477 C 21.738278 45.299477 21.199216 44.761588 21.199216 44.10046 C 21.199216 43.436765 21.738278 42.90016 22.401039 42.90016 C 23.062497 42.90016 23.600257 43.436765 23.600257 44.10046 Z M 23.600257 44.10046 " transform="matrix(3,0,0,3.042857,0,0)"/>
<path style="fill-rule:nonzero;fill:rgb(0%,39.607843%,71.764706%);fill-opacity:1;stroke-width:0.4;stroke-linecap:round;stroke-linejoin:round;stroke:rgb(0%,0%,0%);stroke-opacity:1;stroke-miterlimit:4;" d="M 20.999997 50.199528 C 20.999997 50.863224 20.462237 51.399829 19.799476 51.399829 C 19.136716 51.399829 18.600258 50.863224 18.600258 50.199528 C 18.600258 49.5384 19.136716 49.000511 19.799476 49.000511 C 20.462237 49.000511 20.999997 49.5384 20.999997 50.199528 Z M 20.999997 50.199528 " transform="matrix(3,0,0,3.042857,0,0)"/>
<path style="fill-rule:nonzero;fill:rgb(0%,39.607843%,71.764706%);fill-opacity:1;stroke-width:0.4;stroke-linecap:round;stroke-linejoin:round;stroke:rgb(0%,0%,0%);stroke-opacity:1;stroke-miterlimit:4;" d="M 21.300778 56.1009 C 21.300778 56.762028 20.761716 57.299917 20.098956 57.299917 C 19.437497 57.299917 18.899737 56.762028 18.899737 56.1009 C 18.899737 55.437204 19.437497 54.899315 20.098956 54.899315 C 20.761716 54.899315 21.300778 55.437204 21.300778 56.1009 Z M 21.300778 56.1009 " transform="matrix(3,0,0,3.042857,0,0)"/>
<path style="fill-rule:nonzero;fill:rgb(0%,39.607843%,71.764706%);fill-opacity:1;stroke-width:0.4;stroke-linecap:round;stroke-linejoin:round;stroke:rgb(0%,0%,0%);stroke-opacity:1;stroke-miterlimit:4;" d="M 32.800777 59.600386 C 32.800777 60.262798 32.263016 60.800687 31.600256 60.800687 C 30.936194 60.800687 30.399735 60.262798 30.399735 59.600386 C 30.399735 58.937974 30.936194 58.400085 31.600256 58.400085 C 32.263016 58.400085 32.800777 58.937974 32.800777 59.600386 Z M 32.800777 59.600386 " transform="matrix(3,0,0,3.042857,0,0)"/>
<path style="fill-rule:nonzero;fill:rgb(0%,39.607843%,71.764706%);fill-opacity:1;stroke-width:0.4;stroke-linecap:round;stroke-linejoin:round;stroke:rgb(0%,0%,0%);stroke-opacity:1;stroke-miterlimit:4;" d="M 39.200515 56.700408 C 39.200515 57.36282 38.662755 57.900709 37.999995 57.900709 C 37.337234 57.900709 36.800776 57.36282 36.800776 56.700408 C 36.800776 56.036713 37.337234 55.498824 37.999995 55.498824 C 38.662755 55.498824 39.200515 56.036713 39.200515 56.700408 Z M 39.200515 56.700408 " transform="matrix(3,0,0,3.042857,0,0)"/>
<path style="fill-rule:nonzero;fill:rgb(0%,39.607843%,71.764706%);fill-opacity:1;stroke-width:0.4;stroke-linecap:round;stroke-linejoin:round;stroke:rgb(0%,0%,0%);stroke-opacity:1;stroke-miterlimit:4;" d="M 44.899733 53.80043 C 44.899733 54.462842 44.361973 55.000731 43.699213 55.000731 C 43.037754 55.000731 42.499994 54.462842 42.499994 53.80043 C 42.499994 53.136735 43.037754 52.60013 43.699213 52.60013 C 44.361973 52.60013 44.899733 53.136735 44.899733 53.80043 Z M 44.899733 53.80043 " transform="matrix(3,0,0,3.042857,0,0)"/>
<path style="fill-rule:nonzero;fill:rgb(0%,39.607843%,71.764706%);fill-opacity:1;stroke-width:0.4;stroke-linecap:round;stroke-linejoin:round;stroke:rgb(0%,0%,0%);stroke-opacity:1;stroke-miterlimit:4;" d="M 61.200512 57.900709 C 61.200512 58.561837 60.662752 59.099726 59.999992 59.099726 C 59.337231 59.099726 58.800773 58.561837 58.800773 57.900709 C 58.800773 57.237013 59.337231 56.700408 59.999992 56.700408 C 60.662752 56.700408 61.200512 57.237013 61.200512 57.900709 Z M 61.200512 57.900709 " transform="matrix(3,0,0,3.042857,0,0)"/>
<path style="fill-rule:nonzero;fill:rgb(0%,39.607843%,71.764706%);fill-opacity:1;stroke-width:0.4;stroke-linecap:round;stroke-linejoin:round;stroke:rgb(0%,0%,0%);stroke-opacity:1;stroke-miterlimit:4;" d="M 62.499991 65.99985 C 62.499991 66.662262 61.962231 67.200151 61.299471 67.200151 C 60.63671 67.200151 60.100252 66.662262 60.100252 65.99985 C 60.100252 65.337438 60.63671 64.79955 61.299471 64.79955 C 61.962231 64.79955 62.499991 65.337438 62.499991 65.99985 Z M 62.499991 65.99985 " transform="matrix(3,0,0,3.042857,0,0)"/>
<path style="fill-rule:nonzero;fill:rgb(0%,39.607843%,71.764706%);fill-opacity:1;stroke-width:0.4;stroke-linecap:round;stroke-linejoin:round;stroke:rgb(0%,0%,0%);stroke-opacity:1;stroke-miterlimit:4;" d="M 60.600252 74.200408 C 60.600252 74.862819 60.062492 75.400708 59.399731 75.400708 C 58.736971 75.400708 58.199211 74.862819 58.199211 74.200408 C 58.199211 73.536712 58.736971 72.998823 59.399731 72.998823 C 60.062492 72.998823 60.600252 73.536712 60.600252 74.200408 Z M 60.600252 74.200408 " transform="matrix(3,0,0,3.042857,0,0)"/>
<path style="fill-rule:nonzero;fill:rgb(0%,39.607843%,71.764706%);fill-opacity:1;stroke-width:0.4;stroke-linecap:round;stroke-linejoin:round;stroke:rgb(0%,0%,0%);stroke-opacity:1;stroke-miterlimit:4;" d="M 56.299471 81.299512 C 56.299471 81.963208 55.763013 82.499813 55.100253 82.499813 C 54.437492 82.499813 53.899732 81.963208 53.899732 81.299512 C 53.899732 80.6371 54.437492 80.100495 55.100253 80.100495 C 55.763013 80.100495 56.299471 80.6371 56.299471 81.299512 Z M 56.299471 81.299512 " transform="matrix(3,0,0,3.042857,0,0)"/>
<path style="fill-rule:nonzero;fill:rgb(0%,39.607843%,71.764706%);fill-opacity:1;stroke-width:0.4;stroke-linecap:round;stroke-linejoin:round;stroke:rgb(0%,0%,0%);stroke-opacity:1;stroke-miterlimit:4;" d="M 51.300774 88.20092 C 51.300774 88.862049 50.761712 89.399937 50.098951 89.399937 C 49.437493 89.399937 48.899733 88.862049 48.899733 88.20092 C 48.899733 87.537225 49.437493 86.999336 50.098951 86.999336 C 50.761712 86.999336 51.300774 87.537225 51.300774 88.20092 Z M 51.300774 88.20092 " transform="matrix(3,0,0,3.042857,0,0)"/>
<path style="fill-rule:nonzero;fill:rgb(0%,39.607843%,71.764706%);fill-opacity:1;stroke-width:0.4;stroke-linecap:round;stroke-linejoin:round;stroke:rgb(0%,0%,0%);stroke-opacity:1;stroke-miterlimit:4;" d="M 46.200514 95.099761 C 46.200514 95.763457 45.662754 96.300062 44.999994 96.300062 C 44.337233 96.300062 43.799473 95.763457 43.799473 95.099761 C 43.799473 94.436065 44.337233 93.900744 44.999994 93.900744 C 45.662754 93.900744 46.200514 94.436065 46.200514 95.099761 Z M 46.200514 95.099761 " transform="matrix(3,0,0,3.042857,0,0)"/>
<path style="fill-rule:nonzero;fill:rgb(0%,39.607843%,71.764706%);fill-opacity:1;stroke-width:0.4;stroke-linecap:round;stroke-linejoin:round;stroke:rgb(0%,0%,0%);stroke-opacity:1;stroke-miterlimit:4;" d="M 41.999994 111.099063 C 41.999994 111.762759 41.462234 112.300648 40.799473 112.300648 C 40.136713 112.300648 39.600255 111.762759 39.600255 111.099063 C 39.600255 110.437935 40.136713 109.900047 40.799473 109.900047 C 41.462234 109.900047 41.999994 110.437935 41.999994 111.099063 Z M 41.999994 111.099063 " transform="matrix(3,0,0,3.042857,0,0)"/>
<path style="fill-rule:nonzero;fill:rgb(0%,39.607843%,71.764706%);fill-opacity:1;stroke-width:0.4;stroke-linecap:round;stroke-linejoin:round;stroke:rgb(0%,0%,0%);stroke-opacity:1;stroke-miterlimit:4;" d="M 42.499994 102.499262 C 42.499994 103.162958 41.962234 103.699563 41.300775 103.699563 C 40.638015 103.699563 40.100255 103.162958 40.100255 102.499262 C 40.100255 101.83685 40.638015 101.300245 41.300775 101.300245 C 41.962234 101.300245 42.499994 101.83685 42.499994 102.499262 Z M 42.499994 102.499262 " transform="matrix(3,0,0,3.042857,0,0)"/>
<path style="fill-rule:nonzero;fill:rgb(0%,39.607843%,71.764706%);fill-opacity:1;stroke-width:0.4;stroke-linecap:round;stroke-linejoin:round;stroke:rgb(0%,0%,0%);stroke-opacity:1;stroke-miterlimit:4;" d="M 67.79947 82.299549 C 67.79947 82.963245 67.261709 83.49985 66.600251 83.49985 C 65.937491 83.49985 65.39973 82.963245 65.39973 82.299549 C 65.39973 81.637137 65.937491 81.099248 66.600251 81.099248 C 67.261709 81.099248 67.79947 81.637137 67.79947 82.299549 Z M 67.79947 82.299549 " transform="matrix(3,0,0,3.042857,0,0)"/>
<path style="fill-rule:nonzero;fill:rgb(0%,39.607843%,71.764706%);fill-opacity:1;stroke-width:0.4;stroke-linecap:round;stroke-linejoin:round;stroke:rgb(0%,0%,0%);stroke-opacity:1;stroke-miterlimit:4;" d="M 56.800773 118.59998 C 56.800773 119.263676 56.263013 119.800281 55.600253 119.800281 C 54.937492 119.800281 54.401034 119.263676 54.401034 118.59998 C 54.401034 117.936284 54.937492 117.399679 55.600253 117.399679 C 56.263013 117.399679 56.800773 117.936284 56.800773 118.59998 Z M 56.800773 118.59998 " transform="matrix(3,0,0,3.042857,0,0)"/>
<path style="fill-rule:nonzero;fill:rgb(0%,39.607843%,71.764706%);fill-opacity:1;stroke-width:0.4;stroke-linecap:round;stroke-linejoin:round;stroke:rgb(0%,0%,0%);stroke-opacity:1;stroke-miterlimit:4;" d="M 62.700512 115.900266 C 62.700512 116.562678 62.162752 117.099283 61.499991 117.099283 C 60.837231 117.099283 60.299471 116.562678 60.299471 115.900266 C 60.299471 115.236571 60.837231 114.699966 61.499991 114.699966 C 62.162752 114.699966 62.700512 115.236571 62.700512 115.900266 Z M 62.700512 115.900266 " transform="matrix(3,0,0,3.042857,0,0)"/>
<path style="fill-rule:nonzero;fill:rgb(0%,39.607843%,71.764706%);fill-opacity:1;stroke-width:0.4;stroke-linecap:round;stroke-linejoin:round;stroke:rgb(0%,0%,0%);stroke-opacity:1;stroke-miterlimit:4;" d="M 66.600251 110.799951 C 66.600251 111.462363 66.062491 112.000252 65.39973 112.000252 C 64.73697 112.000252 64.200512 111.462363 64.200512 110.799951 C 64.200512 110.137539 64.73697 109.600934 65.39973 109.600934 C 66.062491 109.600934 66.600251 110.137539 66.600251 110.799951 Z M 66.600251 110.799951 " transform="matrix(3,0,0,3.042857,0,0)"/>
<path style="fill-rule:nonzero;fill:rgb(0%,39.607843%,71.764706%);fill-opacity:1;stroke-width:0.4;stroke-linecap:round;stroke-linejoin:round;stroke:rgb(0%,0%,0%);stroke-opacity:1;stroke-miterlimit:4;" d="M 67.901032 88.800429 C 67.901032 89.462841 67.36197 90.00073 66.699209 90.00073 C 66.036449 90.00073 65.499991 89.462841 65.499991 88.800429 C 65.499991 88.136733 66.036449 87.600128 66.699209 87.600128 C 67.36197 87.600128 67.901032 88.136733 67.901032 88.800429 Z M 67.901032 88.800429 " transform="matrix(3,0,0,3.042857,0,0)"/>
<path style="fill-rule:nonzero;fill:rgb(0%,39.607843%,71.764706%);fill-opacity:1;stroke-width:0.4;stroke-linecap:round;stroke-linejoin:round;stroke:rgb(0%,0%,0%);stroke-opacity:1;stroke-miterlimit:4;" d="M 67.901032 95.000913 C 67.901032 95.662041 67.36197 96.19993 66.699209 96.19993 C 66.036449 96.19993 65.499991 95.662041 65.499991 95.000913 C 65.499991 94.337217 66.036449 93.799328 66.699209 93.799328 C 67.36197 93.799328 67.901032 94.337217 67.901032 95.000913 Z M 67.901032 95.000913 " transform="matrix(3,0,0,3.042857,0,0)"/>
<path style="fill-rule:nonzero;fill:rgb(90.196078%,90.196078%,90.196078%);fill-opacity:1;stroke-width:0.4;stroke-linecap:round;stroke-linejoin:round;stroke:rgb(0%,0%,0%);stroke-opacity:1;stroke-miterlimit:4;" d="M 27.600257 121.199562 C 27.600257 122.967277 26.166663 124.399936 24.401038 124.399936 C 22.632809 124.399936 21.199216 122.967277 21.199216 121.199562 C 21.199216 119.431846 22.632809 118.000472 24.401038 118.000472 C 26.166663 118.000472 27.600257 119.431846 27.600257 121.199562 Z M 27.600257 121.199562 " transform="matrix(3,0,0,3.042857,0,0)"/>
<path style="fill-rule:nonzero;fill:rgb(99.607843%,74.901961%,6.27451%);fill-opacity:1;stroke-width:0.4;stroke-linecap:round;stroke-linejoin:round;stroke:rgb(0%,0%,0%);stroke-opacity:1;stroke-miterlimit:4;" d="M 25.799476 121.199562 C 25.799476 121.97366 25.173174 122.600127 24.401038 122.600127 C 23.627601 122.600127 22.999997 121.97366 22.999997 121.199562 C 22.999997 120.426748 23.627601 119.800281 24.401038 119.800281 C 25.173174 119.800281 25.799476 120.426748 25.799476 121.199562 Z M 25.799476 121.199562 " transform="matrix(3,0,0,3.042857,0,0)"/>
<path style="fill-rule:nonzero;fill:rgb(0%,39.607843%,71.764706%);fill-opacity:1;stroke-width:0.4;stroke-linecap:round;stroke-linejoin:round;stroke:rgb(0%,0%,0%);stroke-opacity:1;stroke-miterlimit:4;" d="M 21.799476 110.299291 C 22.696611 111.767894 23.08333 113.489395 22.899736 115.199342 C 22.499997 117.899056 22.300778 119.600017 24.799476 120.499921 C 27.299475 121.399826 28.999996 119.800281 30.100256 118.200736 C 31.020829 116.872061 32.171871 115.720542 33.499995 114.800098 C 30.800777 113.300685 28.100256 116.599907 28.100256 116.599907 C 28.542965 114.966984 28.576819 113.249335 28.199215 111.599724 C 27.046871 112.801308 26.009111 114.105592 25.100257 115.499738 C 25.100257 115.499738 25.799476 110.499555 21.799476 110.299291 Z M 21.799476 110.299291 " transform="matrix(3,0,0,3.042857,0,0)"/>
<path style="fill-rule:nonzero;fill:rgb(0%,39.607843%,71.764706%);fill-opacity:1;stroke-width:0.4;stroke-linecap:round;stroke-linejoin:round;stroke:rgb(0%,0%,0%);stroke-opacity:1;stroke-miterlimit:4;" d="M 29.800168 60.700617 C 29.800774 59.042827 27.561691 57.700046 24.799757 57.700048 C 22.039031 57.699612 19.799106 59.04359 19.799264 60.699718 C 19.799866 62.357071 22.038948 63.699853 24.800882 63.699851 C 27.561609 63.700286 29.800326 62.356745 29.800168 60.700617 Z M 29.800168 60.700617 " transform="matrix(1.021139,-2.861163,2.820865,1.035727,-122.353638,193.104827)"/>
<path style="fill-rule:nonzero;fill:rgb(0%,39.607843%,71.764706%);fill-opacity:1;stroke-width:0.4;stroke-linecap:round;stroke-linejoin:round;stroke:rgb(0%,0%,0%);stroke-opacity:1;stroke-miterlimit:4;" d="M 28.898991 60.699635 C 28.900192 59.484756 27.06506 58.499803 24.800123 58.499915 C 22.535629 58.501251 20.699424 59.48583 20.69943 60.700271 C 20.699879 61.915937 22.535775 62.899229 24.801155 62.900342 C 27.064885 62.900667 28.900647 61.914864 28.898991 60.699635 Z M 28.898991 60.699635 " transform="matrix(1.021139,-2.861163,2.820865,1.035727,-122.305641,193.113368)"/>
<path style="fill-rule:nonzero;fill:rgb(0%,39.607843%,71.764706%);fill-opacity:1;stroke-width:0.4;stroke-linecap:round;stroke-linejoin:round;stroke:rgb(0%,0%,0%);stroke-opacity:1;stroke-miterlimit:4;" d="M 36.529943 78.639595 L 44.670567 81.71031 L 41.019526 91.360215 L 32.89062 88.279229 Z M 36.529943 78.639595 " transform="matrix(3,0,0,3.042857,0,0)"/>
<path style="fill-rule:nonzero;fill:rgb(80%,80%,80%);fill-opacity:1;stroke-width:0.4;stroke-linecap:round;stroke-linejoin:round;stroke:rgb(0%,0%,0%);stroke-opacity:1;stroke-miterlimit:4;" d="M 37.399734 80.700004 L 42.899734 82.800209 L 38.699213 85.600055 Z M 37.399734 80.700004 " transform="matrix(3,0,0,3.042857,0,0)"/>
<path style="fill-rule:nonzero;fill:rgb(80%,80%,80%);fill-opacity:1;stroke-width:0.4;stroke-linecap:round;stroke-linejoin:round;stroke:rgb(0%,0%,0%);stroke-opacity:1;stroke-miterlimit:4;" d="M 41.100255 85.999299 C 41.100255 87.435809 39.936192 88.600165 38.499995 88.600165 C 37.063797 88.600165 35.901037 87.435809 35.901037 85.999299 C 35.901037 84.564073 37.063797 83.399718 38.499995 83.399718 C 39.936192 83.399718 41.100255 84.564073 41.100255 85.999299 Z M 41.100255 85.999299 " transform="matrix(3,0,0,3.042857,0,0)"/>
<path style="fill-rule:nonzero;fill:rgb(19.607843%,34.117647%,13.72549%);fill-opacity:1;stroke-width:0.4;stroke-linecap:round;stroke-linejoin:round;stroke:rgb(0%,0%,0%);stroke-opacity:1;stroke-miterlimit:4;" d="M 33.899735 19.20096 C 33.899735 19.862088 33.363277 20.399977 32.700516 20.399977 C 32.036454 20.399977 31.499996 19.862088 31.499996 19.20096 C 31.499996 18.537264 32.036454 18.000659 32.700516 18.000659 C 33.363277 18.000659 33.899735 18.537264 33.899735 19.20096 Z M 33.899735 19.20096 " transform="matrix(3,0,0,3.042857,0,0)"/>
<path style="fill:none;stroke-width:0.4;stroke-linecap:round;stroke-linejoin:round;stroke:rgb(0%,0%,0%);stroke-opacity:1;stroke-miterlimit:4;" d="M 34.299474 23.400087 C 36.665359 24.07662 38.718745 25.56448 40.100255 27.600498 " transform="matrix(3,0,0,3.042857,0,0)"/>
<path style="fill-rule:nonzero;fill:rgb(100%,0%,0%);fill-opacity:1;stroke-width:0.4;stroke-linecap:round;stroke-linejoin:round;stroke:rgb(0%,0%,0%);stroke-opacity:1;stroke-miterlimit:4;" d="M 25.499996 61.999704 C 25.499996 62.6634 24.963538 63.200005 24.299476 63.200005 C 23.636715 63.200005 23.100257 62.6634 23.100257 61.999704 C 23.100257 61.337292 23.636715 60.800687 24.299476 60.800687 C 24.963538 60.800687 25.499996 61.337292 25.499996 61.999704 Z M 25.499996 61.999704 " transform="matrix(3,0,0,3.042857,0,0)"/>
</g>
</svg>
