<?xml version="1.0" encoding="UTF-8"?>
<svg xmlns="http://www.w3.org/2000/svg" xmlns:xlink="http://www.w3.org/1999/xlink" width="261px" height="420px" viewBox="0 0 261 426" version="1.1">
<g id="surface1">
<path style=" stroke:none;fill-rule:nonzero;fill:rgb(100%,100%,100%);fill-opacity:1;" d="M 18 0 L 243 0 C 252.941406 0 261 8.175781 261 18.257812 L 261 407.742188 C 261 417.824219 252.941406 426 243 426 L 18 426 C 8.058594 426 0 417.824219 0 407.742188 L 0 18.257812 C 0 8.175781 8.058594 0 18 0 Z M 18 0 "/>
<path style=" stroke:none;fill-rule:nonzero;fill:rgb(0%,39.607843%,71.764706%);fill-opacity:1;" d="M 163.5 363.925781 L 174.300781 376.097656 L 185.101562 363.925781 L 185.101562 119.582031 L 163.5 119.582031 Z M 163.5 363.925781 "/>
<path style=" stroke:none;fill-rule:nonzero;fill:rgb(0%,30.196078%,63.137255%);fill-opacity:1;" d="M 163.5 363.925781 L 174.300781 376.097656 L 174.597656 119.582031 L 163.5 119.582031 Z M 163.5 363.925781 "/>
<path style="fill:none;stroke-width:0.4;stroke-linecap:round;stroke-linejoin:round;stroke:rgb(0%,0%,0%);stroke-opacity:1;stroke-miterlimit:4;" d="M 54.499992 119.600017 L 58.100252 123.600163 L 61.700512 119.600017 L 61.700512 39.299257 L 54.499992 39.299257 Z M 54.499992 119.600017 " transform="matrix(3,0,0,3.042857,0,0)"/>
<path style="fill:none;stroke-width:0.4;stroke-linecap:round;stroke-linejoin:round;stroke:rgb(0%,0%,0%);stroke-opacity:1;stroke-miterlimit:4;" d="M 58.100252 123.600163 L 58.100252 39.400673 " transform="matrix(3,0,0,3.042857,0,0)"/>
<path style="fill-rule:nonzero;fill:rgb(99.607843%,74.901961%,6.27451%);fill-opacity:1;stroke-width:0.4;stroke-linecap:round;stroke-linejoin:round;stroke:rgb(0%,0%,0%);stroke-opacity:1;stroke-miterlimit:4;" d="M 58.019523 36.39928 L 61.299471 39.780661 L 57.930981 43.049074 L 54.649732 39.679246 Z M 58.019523 36.39928 " transform="matrix(3,0,0,3.042857,0,0)"/>
<path style=" stroke:none;fill-rule:nonzero;fill:rgb(0%,0%,0%);fill-opacity:1;" d="M 174.363281 107.019531 L 184.199219 117.273438 L 174.089844 127.253906 L 164.25 117 Z M 174.363281 107.019531 "/>
<path style="fill-rule:nonzero;fill:rgb(99.607843%,74.901961%,6.27451%);fill-opacity:1;stroke-width:0.4;stroke-linecap:round;stroke-linejoin:round;stroke:rgb(0%,0%,0%);stroke-opacity:1;stroke-miterlimit:4;" d="M 61.59895 29.700703 C 61.59895 35.500659 59.999992 39.299257 58.100252 39.299257 C 56.199211 39.299257 54.799472 35.400527 54.799472 29.700703 C 54.996086 25.93163 56.243482 22.294783 58.399731 19.20096 C 60.420564 22.335863 61.528637 25.970143 61.59895 29.700703 Z M 61.59895 29.700703 " transform="matrix(3,0,0,3.042857,0,0)"/>
<path style="fill:none;stroke-width:0.4;stroke-linecap:round;stroke-linejoin:round;stroke:rgb(0%,0%,0%);stroke-opacity:1;stroke-miterlimit:4;" d="M 54.899732 32.400417 C 55.700513 31.099984 56.600253 30.39906 58.700513 28.500402 C 59.746085 27.705765 60.54296 26.631271 60.999991 25.40016 M 60.19921 22.700446 C 59.657544 23.624742 58.945304 24.438636 58.100252 25.099764 C 56.940096 26.031762 55.868482 27.070311 54.899732 28.200006 M 55.399732 36.000035 C 56.199211 34.59947 57.100252 33.89983 59.299471 31.899757 C 60.296867 31.141064 61.087231 30.143595 61.59895 28.999779 " transform="matrix(3,0,0,3.042857,0,0)"/>
<path style="fill:none;stroke-width:0.4;stroke-linecap:round;stroke-linejoin:round;stroke:rgb(0%,0%,0%);stroke-opacity:1;stroke-miterlimit:4;" d="M 60.999991 25.40016 C 60.54296 26.631271 59.746085 27.705765 58.700513 28.500402 C 56.600253 30.39906 55.700513 31.099984 54.899732 32.400417 M 56.299471 38.600901 C 57.335929 37.403167 58.472648 36.299147 59.700512 35.300395 C 60.287752 34.786897 60.822908 34.216915 61.299471 33.600717 M 61.59895 28.999779 C 61.087231 30.143595 60.296867 31.141064 59.299471 31.899757 C 57.100252 33.89983 56.199211 34.59947 55.399732 36.000035 " transform="matrix(3,0,0,3.042857,0,0)"/>
<path style="fill-rule:nonzero;fill:rgb(99.607843%,74.901961%,6.27451%);fill-opacity:1;stroke-width:0.4;stroke-linecap:round;stroke-linejoin:round;stroke:rgb(0%,0%,0%);stroke-opacity:1;stroke-miterlimit:4;" d="M 67.600251 36.500695 C 67.600251 38.710019 65.808585 40.499558 63.598949 40.499558 C 61.390616 40.499558 59.600252 38.710019 59.600252 36.500695 C 59.600252 34.291372 61.390616 32.499265 63.598949 32.499265 C 65.808585 32.499265 67.600251 34.291372 67.600251 36.500695 Z M 67.600251 36.500695 " transform="matrix(3,0,0,3.042857,0,0)"/>
<path style="fill-rule:nonzero;fill:rgb(99.607843%,74.901961%,6.27451%);fill-opacity:1;stroke-width:0.4;stroke-linecap:round;stroke-linejoin:round;stroke:rgb(0%,0%,0%);stroke-opacity:1;stroke-miterlimit:4;" d="M 66.29947 36.500695 C 66.29947 37.991122 65.091137 39.200409 63.598949 39.200409 C 62.108064 39.200409 60.899731 37.991122 60.899731 36.500695 C 60.899731 35.008985 62.108064 33.799698 63.598949 33.799698 C 65.091137 33.799698 66.29947 35.008985 66.29947 36.500695 Z M 66.29947 36.500695 " transform="matrix(3,0,0,3.042857,0,0)"/>
<path style=" stroke:none;fill-rule:nonzero;fill:rgb(81.568627%,60.784314%,2.745098%);fill-opacity:1;" d="M 195.300781 111.066406 C 195.300781 113.585938 193.285156 115.625 190.796875 115.625 C 188.3125 115.625 186.300781 113.585938 186.300781 111.066406 C 186.300781 108.542969 188.3125 106.5 190.796875 106.5 C 193.285156 106.5 195.300781 108.542969 195.300781 111.066406 Z M 195.300781 111.066406 "/>
<path style="fill-rule:nonzero;fill:rgb(99.607843%,74.901961%,6.27451%);fill-opacity:1;stroke-width:0.4;stroke-linecap:round;stroke-linejoin:round;stroke:rgb(0%,0%,0%);stroke-opacity:1;stroke-miterlimit:4;" d="M 56.700513 36.39928 C 56.700513 38.608603 54.910149 40.40071 52.700513 40.40071 C 50.490878 40.40071 48.700514 38.608603 48.700514 36.39928 C 48.700514 34.189956 50.490878 32.400417 52.700513 32.400417 C 54.910149 32.400417 56.700513 34.189956 56.700513 36.39928 Z M 56.700513 36.39928 " transform="matrix(3,0,0,3.042857,0,0)"/>
<path style="fill-rule:nonzero;fill:rgb(99.607843%,74.901961%,6.27451%);fill-opacity:1;stroke-width:0.4;stroke-linecap:round;stroke-linejoin:round;stroke:rgb(0%,0%,0%);stroke-opacity:1;stroke-miterlimit:4;" d="M 55.399732 36.39928 C 55.399732 37.89099 54.191399 39.100277 52.700513 39.100277 C 51.209628 39.100277 49.999993 37.89099 49.999993 36.39928 C 49.999993 34.908853 51.209628 33.699566 52.700513 33.699566 C 54.191399 33.699566 55.399732 34.908853 55.399732 36.39928 Z M 55.399732 36.39928 " transform="matrix(3,0,0,3.042857,0,0)"/>
<path style=" stroke:none;fill-rule:nonzero;fill:rgb(81.568627%,60.784314%,2.745098%);fill-opacity:1;" d="M 162.597656 110.757812 C 162.597656 113.28125 160.585938 115.324219 158.101562 115.324219 C 155.617188 115.324219 153.597656 113.28125 153.597656 110.757812 C 153.597656 108.242188 155.617188 106.195312 158.101562 106.195312 C 160.585938 106.195312 162.597656 108.242188 162.597656 110.757812 Z M 162.597656 110.757812 "/>
<path style="fill-rule:nonzero;fill:rgb(99.607843%,74.901961%,6.27451%);fill-opacity:1;stroke-width:0.4;stroke-linecap:round;stroke-linejoin:round;stroke:rgb(0%,0%,0%);stroke-opacity:1;stroke-miterlimit:4;" d="M 60.099964 18.099799 C 60.100459 17.49166 59.338673 16.999644 58.400166 16.999727 C 57.460375 16.999827 56.700781 17.492252 56.700286 18.100391 C 56.69979 18.70853 57.461576 19.200546 58.400065 19.199161 C 59.338591 19.20038 60.099468 18.707938 60.099964 18.099799 Z M 60.099964 18.099799 " transform="matrix(0.0418866,-3.04256,2.999708,0.0424849,118.81742,231.873945)"/>
<path style="fill-rule:nonzero;fill:rgb(99.607843%,74.901961%,6.27451%);fill-opacity:1;stroke-width:0.4;stroke-linecap:round;stroke-linejoin:round;stroke:rgb(0%,0%,0%);stroke-opacity:1;stroke-miterlimit:4;" d="M 57.400978 20.100477 C 57.399405 19.160303 56.90734 18.400172 56.300079 18.400839 C 55.6928 18.400203 55.200147 19.161062 55.199135 20.099969 C 55.199406 21.038859 55.692773 21.800274 56.300052 21.80091 C 56.907313 21.800244 57.399966 21.039385 57.400978 20.100477 Z M 57.400978 20.100477 " transform="matrix(0.0418866,-3.04256,2.999708,0.0424849,106.218085,231.573214)"/>
<path style="fill-rule:nonzero;fill:rgb(99.607843%,74.901961%,6.27451%);fill-opacity:1;stroke-width:0.4;stroke-linecap:round;stroke-linejoin:round;stroke:rgb(0%,0%,0%);stroke-opacity:1;stroke-miterlimit:4;" d="M 61.599772 20.099135 C 61.600803 19.161529 61.107436 18.400115 60.500156 18.399479 C 59.892896 18.400145 59.400243 19.161004 59.400515 20.099894 C 59.400786 21.038784 59.891586 21.800234 60.50013 21.79955 C 61.108693 21.800168 61.600062 21.039327 61.599772 20.099135 Z M 61.599772 20.099135 " transform="matrix(0.0418866,-3.04256,2.999708,0.0424849,119.089205,244.324918)"/>
<path style="fill-rule:nonzero;fill:rgb(99.607843%,74.901961%,6.27451%);fill-opacity:1;stroke-width:0.4;stroke-linecap:round;stroke-linejoin:round;stroke:rgb(0%,0%,0%);stroke-opacity:1;stroke-miterlimit:4;" d="M 59.600252 20.199713 C 59.600252 20.863409 59.062492 21.400014 58.399731 21.400014 C 57.736971 21.400014 57.199211 20.863409 57.199211 20.199713 C 57.199211 19.537301 57.736971 19.000696 58.399731 19.000696 C 59.062492 19.000696 59.600252 19.537301 59.600252 20.199713 Z M 59.600252 20.199713 " transform="matrix(3,0,0,3.042857,0,0)"/>
<path style=" stroke:none;fill-rule:nonzero;fill:rgb(81.568627%,60.784314%,2.745098%);fill-opacity:1;" d="M 175.199219 59.03125 L 173.699219 59.640625 C 174.90625 59.792969 175.808594 60.839844 175.800781 62.074219 C 175.828125 62.800781 175.488281 63.484375 174.898438 63.898438 C 175.585938 63.984375 176.277344 63.769531 176.796875 63.304688 C 177.3125 62.835938 177.605469 62.167969 177.597656 61.464844 C 177.464844 60.183594 176.464844 59.167969 175.199219 59.03125 Z M 175.199219 59.03125 "/>
<path style="fill-rule:nonzero;fill:rgb(99.607843%,74.901961%,6.27451%);fill-opacity:1;stroke-width:0.4;stroke-linecap:round;stroke-linejoin:round;stroke:rgb(0%,0%,0%);stroke-opacity:1;stroke-miterlimit:4;" d="M 59.999992 33.100057 C 59.999992 34.15016 59.149731 34.999998 58.100252 34.999998 C 57.050773 34.999998 56.199211 34.15016 56.199211 33.100057 C 56.199211 32.051238 57.050773 31.198832 58.100252 31.198832 C 59.149731 31.198832 59.999992 32.051238 59.999992 33.100057 Z M 59.999992 33.100057 " transform="matrix(3,0,0,3.042857,0,0)"/>
<path style=" stroke:none;fill-rule:nonzero;fill:rgb(0%,0%,0%);fill-opacity:1;" d="M 177.898438 100.71875 C 177.898438 102.734375 176.289062 104.367188 174.300781 104.367188 C 172.3125 104.367188 170.699219 102.734375 170.699219 100.71875 C 170.699219 98.703125 172.3125 97.066406 174.300781 97.066406 C 176.289062 97.066406 177.898438 98.703125 177.898438 100.71875 Z M 177.898438 100.71875 "/>
<path style="fill-rule:nonzero;fill:rgb(99.607843%,74.901961%,6.27451%);fill-opacity:1;stroke-width:0.4;stroke-linecap:round;stroke-linejoin:round;stroke:rgb(0%,0%,0%);stroke-opacity:1;stroke-miterlimit:4;" d="M 56.700513 36.39928 C 56.700513 37.449382 55.848951 38.300504 54.799472 38.300504 C 53.749992 38.300504 52.899732 37.449382 52.899732 36.39928 C 52.899732 35.350461 53.749992 34.499338 54.799472 34.499338 C 55.848951 34.499338 56.700513 35.350461 56.700513 36.39928 Z M 56.700513 36.39928 " transform="matrix(3,0,0,3.042857,0,0)"/>
<path style=" stroke:none;fill-rule:nonzero;fill:rgb(0%,0%,0%);fill-opacity:1;" d="M 168 110.757812 C 168 112.777344 166.386719 114.410156 164.398438 114.410156 C 162.414062 114.410156 160.800781 112.777344 160.800781 110.757812 C 160.800781 108.746094 162.414062 107.109375 164.398438 107.109375 C 166.386719 107.109375 168 108.746094 168 110.757812 Z M 168 110.757812 "/>
<path style="fill-rule:nonzero;fill:rgb(99.607843%,74.901961%,6.27451%);fill-opacity:1;stroke-width:0.4;stroke-linecap:round;stroke-linejoin:round;stroke:rgb(0%,0%,0%);stroke-opacity:1;stroke-miterlimit:4;" d="M 63.499991 36.39928 C 63.499991 37.449382 62.649731 38.300504 61.59895 38.300504 C 60.550773 38.300504 59.700512 37.449382 59.700512 36.39928 C 59.700512 35.350461 60.550773 34.499338 61.59895 34.499338 C 62.649731 34.499338 63.499991 35.350461 63.499991 36.39928 Z M 63.499991 36.39928 " transform="matrix(3,0,0,3.042857,0,0)"/>
<path style=" stroke:none;fill-rule:nonzero;fill:rgb(0%,0%,0%);fill-opacity:1;" d="M 188.402344 110.757812 C 188.402344 112.777344 186.789062 114.410156 184.796875 114.410156 C 182.808594 114.410156 181.199219 112.777344 181.199219 110.757812 C 181.199219 108.746094 182.808594 107.109375 184.796875 107.109375 C 186.789062 107.109375 188.402344 108.746094 188.402344 110.757812 Z M 188.402344 110.757812 "/>
<path style="fill-rule:nonzero;fill:rgb(99.607843%,74.901961%,6.27451%);fill-opacity:1;stroke-width:0.4;stroke-linecap:round;stroke-linejoin:round;stroke:rgb(0%,0%,0%);stroke-opacity:1;stroke-miterlimit:4;" d="M 61.299471 36.39928 C 61.299471 38.166995 59.867179 39.600937 58.100252 39.600937 C 56.332023 39.600937 54.899732 38.166995 54.899732 36.39928 C 54.899732 34.632848 56.332023 33.200189 58.100252 33.200189 C 59.867179 33.200189 61.299471 34.632848 61.299471 36.39928 Z M 61.299471 36.39928 " transform="matrix(3,0,0,3.042857,0,0)"/>
<path style=" stroke:none;fill-rule:nonzero;fill:rgb(0%,39.607843%,71.764706%);fill-opacity:1;" d="M 75.898438 62.074219 L 86.699219 49.902344 L 97.5 62.074219 L 97.5 306.417969 L 75.898438 306.417969 Z M 75.898438 62.074219 "/>
<path style=" stroke:none;fill-rule:nonzero;fill:rgb(0%,30.196078%,63.137255%);fill-opacity:1;" d="M 75.898438 62.074219 L 86.699219 49.902344 L 86.699219 306.417969 L 75.898438 306.417969 Z M 75.898438 62.074219 "/>
<path style="fill:none;stroke-width:0.4;stroke-linecap:round;stroke-linejoin:round;stroke:rgb(0%,0%,0%);stroke-opacity:1;stroke-miterlimit:4;" d="M 25.299476 20.399977 L 28.899736 16.399831 L 32.499995 20.399977 L 32.499995 100.700736 L 25.299476 100.700736 Z M 25.299476 20.399977 " transform="matrix(3,0,0,3.042857,0,0)"/>
<path style="fill:none;stroke-width:0.4;stroke-linecap:round;stroke-linejoin:round;stroke:rgb(0%,0%,0%);stroke-opacity:1;stroke-miterlimit:4;" d="M 28.899736 16.399831 L 28.899736 100.599321 " transform="matrix(3,0,0,3.042857,0,0)"/>
<path style="fill-rule:nonzero;fill:rgb(99.607843%,74.901961%,6.27451%);fill-opacity:1;stroke-width:0.4;stroke-linecap:round;stroke-linejoin:round;stroke:rgb(0%,0%,0%);stroke-opacity:1;stroke-miterlimit:4;" d="M 28.9401 103.580174 L 25.660153 100.210346 L 29.029944 96.93038 L 32.309891 100.300208 Z M 28.9401 103.580174 " transform="matrix(3,0,0,3.042857,0,0)"/>
<path style=" stroke:none;fill-rule:nonzero;fill:rgb(0%,0%,0%);fill-opacity:1;" d="M 86.820312 319.015625 L 77.007812 308.761719 L 87.121094 298.808594 L 96.929688 309.0625 Z M 86.820312 319.015625 "/>
<path style="fill-rule:nonzero;fill:rgb(99.607843%,74.901961%,6.27451%);fill-opacity:1;stroke-width:0.4;stroke-linecap:round;stroke-linejoin:round;stroke:rgb(0%,0%,0%);stroke-opacity:1;stroke-miterlimit:4;" d="M 25.401038 110.299291 C 25.401038 104.499335 26.999996 100.899717 28.899736 100.899717 C 30.800777 100.899717 32.200516 104.599467 32.200516 110.299291 C 32.003902 114.068364 30.756506 117.705211 28.600256 120.799034 C 26.579423 117.664131 25.471351 114.029851 25.401038 110.299291 Z M 25.401038 110.299291 " transform="matrix(3,0,0,3.042857,0,0)"/>
<path style="fill:none;stroke-width:0.4;stroke-linecap:round;stroke-linejoin:round;stroke:rgb(0%,0%,0%);stroke-opacity:1;stroke-miterlimit:4;" d="M 32.100256 107.599577 C 31.299475 108.90001 30.399735 109.600934 28.299475 111.499592 C 27.253902 112.294229 26.457028 113.368723 25.999996 114.599834 M 26.800778 117.299547 C 27.342444 116.375252 28.054684 115.561358 28.899736 114.90023 C 30.059892 113.968232 31.131506 112.929683 32.100256 111.799988 M 31.600256 103.999959 C 30.800777 105.400524 29.899735 106.100164 27.700517 108.100237 C 26.703121 108.85893 25.912757 109.856399 25.401038 111.000215 " transform="matrix(3,0,0,3.042857,0,0)"/>
<path style="fill:none;stroke-width:0.4;stroke-linecap:round;stroke-linejoin:round;stroke:rgb(0%,0%,0%);stroke-opacity:1;stroke-miterlimit:4;" d="M 25.999996 114.599834 C 26.457028 113.368723 27.253902 112.294229 28.299475 111.499592 C 30.399735 109.600934 31.299475 108.90001 32.100256 107.599577 M 30.700517 101.400377 C 29.664058 102.596826 28.52734 103.700846 27.299475 104.699599 C 26.712236 105.213097 26.17708 105.783079 25.700517 106.399276 M 25.401038 111.000215 C 25.912757 109.856399 26.703121 108.85893 27.700517 108.100237 C 29.899735 106.100164 30.800777 105.400524 31.600256 103.999959 " transform="matrix(3,0,0,3.042857,0,0)"/>
<path style="fill-rule:nonzero;fill:rgb(99.607843%,74.901961%,6.27451%);fill-opacity:1;stroke-width:0.4;stroke-linecap:round;stroke-linejoin:round;stroke:rgb(0%,0%,0%);stroke-opacity:1;stroke-miterlimit:4;" d="M 27.399736 103.499299 C 27.399736 105.708622 25.609371 107.500729 23.401038 107.500729 C 21.191403 107.500729 19.399737 105.708622 19.399737 103.499299 C 19.399737 101.289975 21.191403 99.500436 23.401038 99.500436 C 25.609371 99.500436 27.399736 101.289975 27.399736 103.499299 Z M 27.399736 103.499299 " transform="matrix(3,0,0,3.042857,0,0)"/>
<path style="fill-rule:nonzero;fill:rgb(99.607843%,74.901961%,6.27451%);fill-opacity:1;stroke-width:0.4;stroke-linecap:round;stroke-linejoin:round;stroke:rgb(0%,0%,0%);stroke-opacity:1;stroke-miterlimit:4;" d="M 26.100257 103.499299 C 26.100257 104.991009 24.891924 106.200296 23.401038 106.200296 C 21.908851 106.200296 20.700518 104.991009 20.700518 103.499299 C 20.700518 102.008872 21.908851 100.799585 23.401038 100.799585 C 24.891924 100.799585 26.100257 102.008872 26.100257 103.499299 Z M 26.100257 103.499299 " transform="matrix(3,0,0,3.042857,0,0)"/>
<path style=" stroke:none;fill-rule:nonzero;fill:rgb(81.568627%,60.784314%,2.745098%);fill-opacity:1;" d="M 74.699219 314.933594 C 74.699219 317.457031 72.6875 319.5 70.203125 319.5 C 67.714844 319.5 65.699219 317.457031 65.699219 314.933594 C 65.699219 312.414062 67.714844 310.375 70.203125 310.375 C 72.6875 310.375 74.699219 312.414062 74.699219 314.933594 Z M 74.699219 314.933594 "/>
<path style="fill-rule:nonzero;fill:rgb(99.607843%,74.901961%,6.27451%);fill-opacity:1;stroke-width:0.4;stroke-linecap:round;stroke-linejoin:round;stroke:rgb(0%,0%,0%);stroke-opacity:1;stroke-miterlimit:4;" d="M 38.299474 103.600714 C 38.299474 105.810038 36.509109 107.599577 34.299474 107.599577 C 32.089839 107.599577 30.299475 105.810038 30.299475 103.600714 C 30.299475 101.391391 32.089839 99.599284 34.299474 99.599284 C 36.509109 99.599284 38.299474 101.391391 38.299474 103.600714 Z M 38.299474 103.600714 " transform="matrix(3,0,0,3.042857,0,0)"/>
<path style="fill-rule:nonzero;fill:rgb(99.607843%,74.901961%,6.27451%);fill-opacity:1;stroke-width:0.4;stroke-linecap:round;stroke-linejoin:round;stroke:rgb(0%,0%,0%);stroke-opacity:1;stroke-miterlimit:4;" d="M 36.999995 103.600714 C 36.999995 105.091141 35.79036 106.300428 34.299474 106.300428 C 32.808589 106.300428 31.600256 105.091141 31.600256 103.600714 C 31.600256 102.109004 32.808589 100.899717 34.299474 100.899717 C 35.79036 100.899717 36.999995 102.109004 36.999995 103.600714 Z M 36.999995 103.600714 " transform="matrix(3,0,0,3.042857,0,0)"/>
<path style=" stroke:none;fill-rule:nonzero;fill:rgb(81.568627%,60.784314%,2.745098%);fill-opacity:1;" d="M 107.402344 315.242188 C 107.402344 317.757812 105.382812 319.804688 102.898438 319.804688 C 100.414062 319.804688 98.402344 317.757812 98.402344 315.242188 C 98.402344 312.71875 100.414062 310.675781 102.898438 310.675781 C 105.382812 310.675781 107.402344 312.71875 107.402344 315.242188 Z M 107.402344 315.242188 "/>
<path style="fill-rule:nonzero;fill:rgb(99.607843%,74.901961%,6.27451%);fill-opacity:1;stroke-width:0.4;stroke-linecap:round;stroke-linejoin:round;stroke:rgb(0%,0%,0%);stroke-opacity:1;stroke-miterlimit:4;" d="M 30.300252 121.900041 C 30.299464 121.29192 29.538962 120.799886 28.600455 120.799969 C 27.661947 120.800052 26.899786 121.292512 26.899291 121.900651 C 26.900061 122.50747 27.660581 123.000806 28.600354 122.999403 C 29.538861 122.999321 30.299757 122.50818 30.300252 121.900041 Z M 30.300252 121.900041 " transform="matrix(0.0418866,-3.04256,2.999708,0.0424849,-281.066468,453.366899)"/>
<path style="fill-rule:nonzero;fill:rgb(99.607843%,74.901961%,6.27451%);fill-opacity:1;stroke-width:0.4;stroke-linecap:round;stroke-linejoin:round;stroke:rgb(0%,0%,0%);stroke-opacity:1;stroke-miterlimit:4;" d="M 31.800299 119.900399 C 31.800028 118.961509 31.307944 118.200076 30.700665 118.199441 C 30.092103 118.198823 29.600752 118.960966 29.59974 119.899874 C 29.600011 120.838763 30.09336 121.598876 30.699356 121.59953 C 31.307918 121.600148 31.800553 120.837987 31.800299 119.900399 Z M 31.800299 119.900399 " transform="matrix(0.0418866,-3.04256,2.999708,0.0424849,-268.79502,453.695524)"/>
<path style="fill-rule:nonzero;fill:rgb(99.607843%,74.901961%,6.27451%);fill-opacity:1;stroke-width:0.4;stroke-linecap:round;stroke-linejoin:round;stroke:rgb(0%,0%,0%);stroke-opacity:1;stroke-miterlimit:4;" d="M 27.599431 119.900181 C 27.600425 118.959972 27.107076 118.199859 26.499815 118.200525 C 25.892536 118.199889 25.399884 118.960748 25.400155 119.899638 C 25.400445 120.83983 25.89251 121.599961 26.499789 121.600596 C 27.108334 121.599912 27.599703 120.839071 27.599431 119.900181 Z M 27.599431 119.900181 " transform="matrix(0.0418866,-3.04256,2.999708,0.0424849,-281.395751,440.613357)"/>
<path style="fill-rule:nonzero;fill:rgb(99.607843%,74.901961%,6.27451%);fill-opacity:1;stroke-width:0.4;stroke-linecap:round;stroke-linejoin:round;stroke:rgb(0%,0%,0%);stroke-opacity:1;stroke-miterlimit:4;" d="M 29.800777 119.800281 C 29.800777 120.462693 29.263017 120.999298 28.600256 120.999298 C 27.937496 120.999298 27.399736 120.462693 27.399736 119.800281 C 27.399736 119.136585 27.937496 118.59998 28.600256 118.59998 C 29.263017 118.59998 29.800777 119.136585 29.800777 119.800281 Z M 29.800777 119.800281 " transform="matrix(3,0,0,3.042857,0,0)"/>
<path style=" stroke:none;fill-rule:nonzero;fill:rgb(81.568627%,60.784314%,2.745098%);fill-opacity:1;" d="M 85.800781 366.96875 L 87.300781 366.359375 C 86.09375 366.207031 85.191406 365.160156 85.199219 363.925781 C 85.171875 363.199219 85.511719 362.515625 86.101562 362.101562 C 85.414062 362.015625 84.722656 362.230469 84.203125 362.695312 C 83.6875 363.164062 83.394531 363.832031 83.402344 364.535156 C 83.535156 365.816406 84.535156 366.832031 85.800781 366.96875 Z M 85.800781 366.96875 "/>
<path style="fill-rule:nonzero;fill:rgb(99.607843%,74.901961%,6.27451%);fill-opacity:1;stroke-width:0.4;stroke-linecap:round;stroke-linejoin:round;stroke:rgb(0%,0%,0%);stroke-opacity:1;stroke-miterlimit:4;" d="M 30.800777 106.899937 C 30.800777 107.948756 29.949215 108.801162 28.899736 108.801162 C 27.850257 108.801162 26.999996 107.948756 26.999996 106.899937 C 26.999996 105.849834 27.850257 104.999995 28.899736 104.999995 C 29.949215 104.999995 30.800777 105.849834 30.800777 106.899937 Z M 30.800777 106.899937 " transform="matrix(3,0,0,3.042857,0,0)"/>
<path style=" stroke:none;fill-rule:nonzero;fill:rgb(0%,0%,0%);fill-opacity:1;" d="M 90.300781 325.28125 C 90.300781 327.296875 88.6875 328.933594 86.699219 328.933594 C 84.710938 328.933594 83.101562 327.296875 83.101562 325.28125 C 83.101562 323.265625 84.710938 321.632812 86.699219 321.632812 C 88.6875 321.632812 90.300781 323.265625 90.300781 325.28125 Z M 90.300781 325.28125 "/>
<path style="fill-rule:nonzero;fill:rgb(99.607843%,74.901961%,6.27451%);fill-opacity:1;stroke-width:0.4;stroke-linecap:round;stroke-linejoin:round;stroke:rgb(0%,0%,0%);stroke-opacity:1;stroke-miterlimit:4;" d="M 34.100256 103.600714 C 34.100256 104.649533 33.249995 105.500656 32.200516 105.500656 C 31.151037 105.500656 30.299475 104.649533 30.299475 103.600714 C 30.299475 102.550612 31.151037 101.699489 32.200516 101.699489 C 33.249995 101.699489 34.100256 102.550612 34.100256 103.600714 Z M 34.100256 103.600714 " transform="matrix(3,0,0,3.042857,0,0)"/>
<path style=" stroke:none;fill-rule:nonzero;fill:rgb(0%,0%,0%);fill-opacity:1;" d="M 100.199219 315.242188 C 100.199219 317.253906 98.585938 318.890625 96.601562 318.890625 C 94.613281 318.890625 93 317.253906 93 315.242188 C 93 313.222656 94.613281 311.589844 96.601562 311.589844 C 98.585938 311.589844 100.199219 313.222656 100.199219 315.242188 Z M 100.199219 315.242188 "/>
<path style="fill-rule:nonzero;fill:rgb(99.607843%,74.901961%,6.27451%);fill-opacity:1;stroke-width:0.4;stroke-linecap:round;stroke-linejoin:round;stroke:rgb(0%,0%,0%);stroke-opacity:1;stroke-miterlimit:4;" d="M 27.299475 103.600714 C 27.299475 104.649533 26.449215 105.500656 25.401038 105.500656 C 24.350257 105.500656 23.499997 104.649533 23.499997 103.600714 C 23.499997 102.550612 24.350257 101.699489 25.401038 101.699489 C 26.449215 101.699489 27.299475 102.550612 27.299475 103.600714 Z M 27.299475 103.600714 " transform="matrix(3,0,0,3.042857,0,0)"/>
<path style=" stroke:none;fill-rule:nonzero;fill:rgb(0%,0%,0%);fill-opacity:1;" d="M 79.800781 315.242188 C 79.800781 317.253906 78.191406 318.890625 76.203125 318.890625 C 74.210938 318.890625 72.597656 317.253906 72.597656 315.242188 C 72.597656 313.222656 74.210938 311.589844 76.203125 311.589844 C 78.191406 311.589844 79.800781 313.222656 79.800781 315.242188 Z M 79.800781 315.242188 "/>
<path style="fill-rule:nonzero;fill:rgb(99.607843%,74.901961%,6.27451%);fill-opacity:1;stroke-width:0.4;stroke-linecap:round;stroke-linejoin:round;stroke:rgb(0%,0%,0%);stroke-opacity:1;stroke-miterlimit:4;" d="M 32.100256 103.600714 C 32.100256 105.367146 30.667964 106.799805 28.899736 106.799805 C 27.132809 106.799805 25.700517 105.367146 25.700517 103.600714 C 25.700517 101.832999 27.132809 100.399057 28.899736 100.399057 C 30.667964 100.399057 32.100256 101.832999 32.100256 103.600714 Z M 32.100256 103.600714 " transform="matrix(3,0,0,3.042857,0,0)"/>
<path style=" stroke:none;fill-rule:nonzero;fill:rgb(100%,0%,0%);fill-opacity:1;" d="M 130.800781 156.402344 C 95.101562 156.402344 66 172.53125 66 192.613281 C 66.347656 200.101562 69.839844 207.085938 75.597656 211.78125 L 75.597656 210.566406 C 75.597656 190.484375 100.199219 174.050781 130.5 174.050781 C 160.800781 174.050781 185.402344 190.484375 185.402344 210.566406 C 185.402344 211.175781 185.101562 211.78125 185.101562 212.695312 C 191.335938 207.886719 195.171875 200.546875 195.601562 192.613281 C 195.601562 172.53125 166.800781 156.402344 130.800781 156.402344 Z M 130.800781 156.402344 "/>
<path style=" stroke:none;fill-rule:nonzero;fill:rgb(59.607843%,3.137255%,1.960784%);fill-opacity:1;" d="M 130.800781 164.617188 C 164.398438 164.617188 192 178.617188 195.601562 196.875 C 195.96875 195.484375 196.171875 194.054688 196.199219 192.613281 C 196.199219 172.53125 167.101562 156.097656 130.800781 156.097656 C 94.5 156.097656 65.699219 172.53125 65.699219 192.613281 C 65.636719 194.039062 65.738281 195.46875 66 196.875 C 69.898438 178.617188 97.5 164.617188 130.800781 164.617188 Z M 130.800781 164.617188 "/>
<path style="fill:none;stroke-width:0.4;stroke-linecap:round;stroke-linejoin:round;stroke:rgb(0%,0%,0%);stroke-opacity:1;stroke-miterlimit:4;" d="M 43.600254 51.399829 C 31.700516 51.399829 21.999997 56.700408 21.999997 63.300137 C 22.115882 65.762358 23.279945 68.056408 25.199215 69.599469 L 25.199215 69.200224 C 25.199215 62.600496 33.399735 57.199785 43.499994 57.199785 C 53.600253 57.199785 61.800773 62.600496 61.800773 69.200224 C 61.800773 69.400488 61.700512 69.599469 61.700512 69.899865 C 63.778637 68.319576 65.057283 65.907421 65.200512 63.300137 C 65.200512 56.700408 55.600253 51.399829 43.600254 51.399829 Z M 43.600254 51.399829 " transform="matrix(3,0,0,3.042857,0,0)"/>
<path style=" stroke:none;fill-rule:nonzero;fill:rgb(100%,0%,0%);fill-opacity:1;" d="M 163.5 215.433594 C 163.5 215.433594 154.5 224.867188 156 235.824219 C 157.5 246.773438 180.898438 249.515625 186.300781 252.859375 C 189.414062 254.550781 192.007812 257.074219 193.796875 260.164062 C 193.796875 260.164062 195 247.992188 189.300781 243.425781 C 189 243.425781 197.703125 236.734375 191.402344 223.953125 C 191.402344 223.648438 188.699219 232.476562 181.800781 233.996094 C 174.898438 235.515625 168.898438 235.515625 163.5 227 Z M 97.5 209.957031 C 97.5 209.957031 106.796875 219.390625 105 230.34375 C 103.199219 241.300781 80.101562 244.035156 74.699219 247.382812 C 71.585938 249.074219 68.992188 251.597656 67.203125 254.683594 C 67.203125 254.683594 66 242.515625 71.699219 237.949219 C 72 237.949219 63.597656 231.257812 69.597656 218.476562 C 69.597656 218.175781 72.597656 227 79.199219 228.519531 C 85.800781 230.039062 92.402344 230.039062 97.5 221.519531 Z M 97.5 209.957031 "/>
<path style=" stroke:none;fill-rule:nonzero;fill:rgb(59.607843%,3.137255%,1.960784%);fill-opacity:1;" d="M 97.5 221.214844 C 100.785156 222.613281 102.570312 226.230469 101.699219 229.734375 C 101.101562 235.214844 95.699219 239.777344 96 239.777344 C 101.679688 238.601562 105.71875 233.484375 105.601562 227.605469 C 105 218.78125 97.5 209.957031 97.5 209.957031 Z M 163.203125 226.691406 C 160.035156 228.195312 158.390625 231.789062 159.300781 235.214844 C 160.09375 239.09375 162.089844 242.609375 165 245.253906 C 163.203125 244.949219 154.800781 241.90625 155.398438 233.082031 C 156 224.257812 163.5 215.433594 163.5 215.433594 Z M 163.203125 226.691406 "/>
<path style="fill:none;stroke-width:0.4;stroke-linecap:round;stroke-linejoin:round;stroke:rgb(0%,0%,0%);stroke-opacity:1;stroke-miterlimit:4;" d="M 32.499995 68.99996 C 32.499995 68.99996 35.598953 72.100202 34.999995 75.699821 C 34.399735 79.300723 26.700517 80.199344 24.899736 81.299512 C 23.861976 81.855373 22.997393 82.684672 22.401039 83.69883 C 22.401039 83.69883 21.999997 79.699967 23.899736 78.19927 C 23.999997 78.19927 21.199216 76.000217 23.199216 71.799806 C 23.199216 71.700958 24.199215 74.600936 26.399736 75.100312 C 28.600256 75.599689 30.800777 75.599689 32.499995 72.799843 Z M 54.499992 70.799769 C 54.499992 70.799769 51.499993 73.900011 51.999993 77.500914 C 52.499993 81.099248 60.299471 82.000437 62.100252 83.099321 C 63.138012 83.655183 64.002595 84.484481 64.598949 85.499923 C 64.598949 85.499923 64.999991 81.499776 63.100252 79.99908 C 62.999991 79.99908 65.901032 77.800026 63.800772 73.600899 C 63.800772 73.499483 62.899731 76.400745 60.600252 76.900121 C 58.299471 77.399498 56.299471 77.399498 54.499992 74.600936 Z M 54.499992 70.799769 " transform="matrix(3,0,0,3.042857,0,0)"/>
</g>
</svg>
