<?xml version="1.0" encoding="UTF-8"?>
<svg xmlns="http://www.w3.org/2000/svg" xmlns:xlink="http://www.w3.org/1999/xlink" width="261px" height="420px" viewBox="0 0 261 426" version="1.1">
<g id="surface1">
<path style=" stroke:none;fill-rule:nonzero;fill:rgb(100%,100%,100%);fill-opacity:1;" d="M 18 3.738281 L 243 3.738281 C 252.941406 3.738281 261 11.769531 261 21.671875 L 261 404.328125 C 261 414.230469 252.941406 422.261719 243 422.261719 L 18 422.261719 C 8.058594 422.261719 0 414.230469 0 404.328125 L 0 21.671875 C 0 11.769531 8.058594 3.738281 18 3.738281 Z M 18 3.738281 "/>
<path style=" stroke:none;fill-rule:nonzero;fill:rgb(100%,0%,0%);fill-opacity:1;" d="M 72 247.378906 C 72 247.378906 70.203125 239.308594 60.601562 185.195312 C 51 131.089844 53.101562 95.8125 60.296875 75.785156 C 67.5 55.753906 90.597656 55.453125 99.898438 65.320312 C 109.199219 75.1875 110.703125 85.648438 112.5 112.851562 C 114.300781 140.058594 105.898438 261.429688 105.898438 261.429688 L 99.601562 288.632812 L 80.699219 287.4375 Z M 72 247.378906 "/>
<path style=" stroke:none;fill-rule:nonzero;fill:rgb(19.607843%,34.117647%,13.72549%);fill-opacity:1;" d="M 108.300781 223.460938 C 110.703125 185.496094 113.703125 130.191406 112.5 112.851562 C 110.703125 85.648438 109.5 75.484375 99.898438 65.320312 C 90.300781 55.15625 67.5 55.753906 60.296875 75.785156 C 59.613281 77.546875 59.007812 79.34375 58.5 81.164062 Z M 108.300781 223.460938 "/>
<path style=" stroke:none;fill-rule:nonzero;fill:rgb(59.607843%,3.137255%,1.960784%);fill-opacity:1;" d="M 81.898438 268.304688 C 56.398438 86.84375 81.898438 59.042969 81.898438 59.042969 C 71.929688 59.667969 63.363281 66.3125 60.296875 75.785156 C 53.101562 95.8125 51.300781 131.386719 60.601562 185.195312 C 69.898438 239.007812 72 247.378906 72 247.378906 L 80.699219 287.4375 Z M 81.898438 268.304688 "/>
<path style=" stroke:none;fill-rule:nonzero;fill:rgb(5.098039%,22.745098%,7.058824%);fill-opacity:1;" d="M 72.300781 95.8125 C 75.597656 65.917969 81.898438 59.042969 81.898438 59.042969 C 71.929688 59.667969 63.363281 66.3125 60.296875 75.785156 "/>
<path style=" stroke:none;fill-rule:nonzero;fill:rgb(19.607843%,34.117647%,13.72549%);fill-opacity:1;" d="M 112.800781 260.230469 C 112.800781 260.230469 105.300781 270.101562 104.402344 292.820312 C 103.5 315.539062 101.699219 334.074219 101.699219 340.652344 C 101.699219 347.226562 92.402344 356.496094 84.300781 361.277344 C 79.570312 364.265625 74.25 366.203125 68.699219 366.957031 C 67.203125 366.660156 68.699219 362.472656 71.101562 352.308594 C 74.457031 340.96875 75.378906 329.050781 73.800781 317.332031 C 72 301.488281 73.5 282.058594 72.898438 276.375 C 72.300781 270.699219 70.203125 259.039062 69.898438 257.84375 C 69.597656 256.644531 63.902344 255.152344 64.5 250.070312 C 65.101562 244.984375 69.898438 245.882812 72 247.378906 C 73.71875 249.203125 74.863281 251.488281 75.300781 253.957031 C 75.785156 252.335938 76.855469 250.953125 78.300781 250.070312 C 80.101562 249.171875 81.597656 251.863281 80.402344 253.957031 C 79.332031 256.085938 78.816406 258.453125 78.898438 260.832031 C 79.199219 262.625 79.800781 258.738281 81.597656 258.441406 C 83.402344 258.140625 83.402344 258.738281 82.800781 262.925781 L 81.898438 266.8125 C 82.5 262.625 86.101562 264.417969 86.101562 266.511719 C 86.101562 268.605469 85.199219 271.292969 86.101562 271.59375 C 87 271.890625 87.597656 267.40625 89.101562 267.109375 C 90.597656 266.8125 90.898438 267.707031 90.597656 269.5 C 90.300781 271.292969 88.5 280.5625 90.898438 282.058594 C 93.300781 283.550781 94.5 273.988281 94.5 271.59375 C 94.5 269.203125 95.101562 267.707031 96.601562 267.707031 C 98.101562 267.707031 99.300781 274.878906 99.300781 273.089844 C 99.300781 271.292969 105.898438 256.046875 112.800781 260.230469 Z M 112.800781 260.230469 "/>
<path style=" stroke:none;fill-rule:nonzero;fill:rgb(5.098039%,22.745098%,7.058824%);fill-opacity:1;" d="M 81.300781 345.136719 C 80.699219 345.730469 73.203125 351.113281 68.699219 366.957031 C 68.101562 368.152344 68.699219 362.472656 71.101562 352.308594 C 74.457031 340.96875 75.378906 329.050781 73.800781 317.332031 C 72 301.488281 73.5 282.058594 72.898438 276.375 C 72.300781 270.699219 70.203125 259.039062 69.898438 257.84375 C 69.597656 256.644531 63.902344 255.152344 64.5 250.070312 C 65.101562 244.984375 69.898438 245.882812 72 247.378906 C 73.71875 249.203125 74.863281 251.488281 75.300781 253.957031 C 75.785156 252.335938 76.855469 250.953125 78.300781 250.070312 C 80.101562 249.171875 81.597656 251.863281 80.402344 253.957031 C 79.332031 256.085938 78.816406 258.453125 78.898438 260.832031 C 79.199219 262.625 79.800781 258.738281 81.597656 258.441406 C 83.402344 258.140625 83.402344 258.738281 82.800781 262.925781 L 81.898438 266.8125 C 82.5 262.625 80.402344 300.292969 81.300781 345.136719 Z M 81.300781 345.136719 "/>
<path style="fill:none;stroke-width:0.4;stroke-linecap:round;stroke-linejoin:round;stroke:rgb(0%,0%,0%);stroke-opacity:1;stroke-miterlimit:4;" d="M 37.600255 85.798924 C 37.600255 85.798924 35.100256 89.100875 34.800776 96.700457 C 34.499995 104.300039 33.899735 110.500179 33.899735 112.700608 C 33.899735 114.89973 30.800777 118.000454 28.100256 119.599816 C 26.523434 120.599417 24.749997 121.247524 22.899736 121.499711 C 22.401039 121.400404 22.899736 119.999656 23.700518 116.599706 C 24.819007 112.806448 25.126299 108.819804 24.600257 104.899799 C 23.999997 99.599953 24.499997 93.100586 24.299476 91.199384 C 24.100257 89.300795 23.401038 85.400391 23.299476 85.00055 C 23.199216 84.599403 21.300778 84.100256 21.499997 82.400281 C 21.700518 80.698999 23.299476 80.999532 23.999997 81.499986 C 24.572913 82.1102 24.954424 82.874601 25.100257 83.700415 C 25.261715 83.158148 25.618486 82.695588 26.100257 82.400281 C 26.700517 82.099747 27.199215 83.000041 26.800778 83.700415 C 26.444007 84.41255 26.272132 85.20439 26.299475 86.000151 C 26.399736 86.599912 26.600257 85.299777 27.199215 85.20047 C 27.800777 85.099857 27.800777 85.299777 27.600257 86.700525 L 27.299475 88.00066 C 27.499996 86.599912 28.700517 87.199673 28.700517 87.900047 C 28.700517 88.600421 28.399736 89.499409 28.700517 89.600022 C 28.999996 89.699329 29.199215 88.199274 29.700517 88.099967 C 30.199215 88.00066 30.299475 88.299887 30.199215 88.899648 C 30.100256 89.499409 29.499996 92.600132 30.299475 93.100586 C 31.100256 93.599733 31.499996 90.40101 31.499996 89.600022 C 31.499996 88.800341 31.700516 88.299887 32.200516 88.299887 C 32.700516 88.299887 33.100256 90.69893 33.100256 90.100476 C 33.100256 89.499409 35.299474 84.399483 37.600255 85.798924 Z M 37.600255 85.798924 " transform="matrix(3,0,0,2.989474,0,3.736842)"/>
<path style="fill:none;stroke-width:0.4;stroke-linecap:round;stroke-linejoin:round;stroke:rgb(0%,0%,0%);stroke-opacity:1;stroke-miterlimit:4;" d="M 33.800777 113.299062 C 33.800777 113.299062 33.200516 110.799406 30.399735 111.998927 C 27.600257 113.199755 24.199215 116.898933 22.899736 121.499711 " transform="matrix(3,0,0,2.989474,0,3.736842)"/>
<path style=" stroke:none;fill-rule:nonzero;fill:rgb(98.431373%,76.078431%,9.803922%);fill-opacity:1;" d="M 106.5 250.070312 C 106.5 250.070312 102 232.132812 95.699219 226.152344 C 89.402344 220.175781 84.300781 220.175781 82.800781 215.390625 C 81.300781 210.609375 89.699219 214.195312 89.699219 214.195312 C 89.699219 214.195312 73.203125 205.527344 73.5 201.339844 C 73.800781 197.15625 79.800781 199.546875 79.800781 199.546875 C 79.800781 199.546875 73.203125 193.269531 73.5 191.175781 C 73.800781 189.082031 78 190.878906 78 190.878906 C 78 190.878906 70.203125 181.308594 69.597656 177.722656 C 69 174.136719 74.699219 174.433594 78.597656 178.621094 C 82.5 182.804688 65.398438 166.960938 66 163.972656 C 66.597656 160.984375 71.699219 160.984375 74.398438 163.375 C 77.101562 165.769531 61.5 153.808594 61.199219 148.128906 C 60.902344 142.449219 68.398438 146.632812 68.398438 146.632812 C 68.398438 146.632812 57.296875 131.089844 57.601562 123.914062 C 57.902344 116.738281 66 127.5 66 127.5 C 66 127.5 57 109.265625 57.601562 102.691406 C 58.199219 96.109375 64.800781 106.871094 64.800781 106.871094 C 64.800781 106.871094 58.199219 91.925781 59.398438 88.9375 C 60.601562 85.949219 64.800781 94.019531 64.800781 94.019531 C 64.800781 94.019531 58.199219 79.671875 60.902344 74.585938 C 63.597656 69.503906 70.203125 81.761719 72.300781 93.121094 C 72.597656 93.121094 72.597656 85.949219 75 84.152344 C 77.398438 82.359375 77.699219 95.214844 75.300781 111.957031 C 76.203125 111.957031 78 104.183594 81.898438 103.585938 C 85.800781 102.984375 82.800781 121.226562 81.300781 124.8125 C 79.800781 128.398438 85.199219 116.738281 87.300781 118.53125 C 89.402344 120.328125 87.597656 134.675781 85.199219 140.355469 C 85.199219 140.652344 88.5 134.375 92.699219 134.078125 C 96.898438 133.777344 93.300781 152.011719 91.199219 161.582031 C 91.5 161.582031 94.800781 154.707031 97.199219 154.109375 C 99.601562 153.507812 99.898438 160.085938 95.101562 174.136719 C 95.402344 174.433594 98.402344 169.054688 101.101562 168.457031 C 103.796875 167.859375 101.101562 178.621094 98.101562 184.902344 C 98.402344 184.601562 103.199219 180.714844 105 182.207031 C 106.796875 183.703125 103.199219 192.96875 99.601562 198.949219 C 100.855469 197.695312 102.652344 197.136719 104.402344 197.453125 C 106.796875 198.050781 104.101562 207.617188 102.601562 211.203125 C 103.492188 209.101562 105.234375 207.472656 107.402344 206.722656 C 107.402344 206.722656 112.199219 201.042969 106.5 250.070312 Z M 106.5 250.070312 "/>
<path style=" stroke:none;fill-rule:nonzero;fill:rgb(81.568627%,60.784314%,2.745098%);fill-opacity:1;" d="M 86.402344 187.890625 C 86.402344 187.890625 78 174.734375 77.398438 170.546875 C 76.800781 166.363281 80.699219 167.859375 80.699219 167.859375 C 76.835938 163.140625 73.328125 158.144531 70.203125 152.910156 C 67.800781 147.828125 75.597656 153.808594 75.597656 153.808594 C 75.597656 153.808594 65.398438 138.261719 65.101562 133.179688 C 64.800781 128.101562 70.5 135.871094 70.5 135.871094 C 70.5 135.871094 64.800781 117.636719 65.101562 115.242188 C 65.398438 112.851562 69.597656 120.328125 69.597656 120.328125 C 69.597656 120.328125 65.101562 101.492188 67.5 96.410156 C 69.898438 91.328125 72.898438 108.367188 73.800781 118.230469 C 73.800781 118.230469 74.699219 114.644531 76.800781 114.945312 C 78.898438 115.242188 78.597656 122.417969 76.5 135.574219 C 77.101562 135.574219 78.597656 128.992188 80.699219 128.398438 C 82.800781 127.800781 80.402344 142.75 79.800781 145.738281 C 79.199219 148.726562 81 139.160156 82.199219 140.355469 C 83.402344 141.550781 84 152.910156 83.402344 157.695312 C 83.402344 157.695312 84.597656 152.613281 86.699219 152.011719 C 88.800781 151.414062 88.800781 166.066406 88.5 173.539062 C 88.800781 173.539062 89.699219 167.859375 90.898438 167.261719 C 92.101562 166.660156 93 171.746094 91.800781 183.105469 C 95.101562 178.023438 93.300781 194.464844 94.199219 192.96875 C 95.101562 191.476562 97.5 194.765625 97.5 204.929688 C 98.101562 203.136719 100.796875 200.441406 100.796875 202.835938 C 101.449219 207.390625 101.75 211.988281 101.699219 216.585938 C 101.402344 216.886719 103.796875 214.496094 105.300781 215.691406 C 106.796875 216.886719 105.898438 216.289062 106.199219 241.097656 C 106.199219 241.097656 102.300781 228.546875 98.402344 224.359375 C 94.5 220.175781 92.101562 219.574219 91.199219 218.382812 C 90.300781 217.1875 96.300781 215.691406 96.300781 215.691406 C 96.300781 215.691406 84.300781 209.113281 84 206.125 C 83.699219 203.136719 86.402344 203.730469 86.402344 203.730469 C 86.402344 203.730469 82.5 199.25 82.5 197.753906 C 82.5 196.257812 86.101562 197.753906 86.101562 197.753906 C 86.101562 197.753906 77.699219 188.1875 78.597656 184.300781 C 79.5 180.414062 86.402344 187.890625 86.402344 187.890625 Z M 86.402344 187.890625 "/>
<path style="fill:none;stroke-width:0.4;stroke-linecap:round;stroke-linejoin:round;stroke:rgb(0%,0%,0%);stroke-opacity:1;stroke-miterlimit:4;" d="M 35.499995 82.400281 C 35.499995 82.400281 33.999995 76.400061 31.899735 74.399552 C 29.800777 72.400349 28.100256 72.400349 27.600257 70.799681 C 27.100257 69.200319 29.899735 70.39984 29.899735 70.39984 C 29.899735 70.39984 24.401038 67.500344 24.499997 66.099596 C 24.600257 64.700154 26.600257 65.499835 26.600257 65.499835 C 26.600257 65.499835 24.401038 63.400019 24.499997 62.699645 C 24.600257 61.999271 25.999996 62.600338 25.999996 62.600338 C 25.999996 62.600338 23.401038 59.399001 23.199216 58.19948 C 22.999997 56.999959 24.899736 57.099266 26.199215 58.500014 C 27.499996 59.899455 21.799476 54.599609 21.999997 53.600008 C 22.199216 52.600407 23.899736 52.600407 24.799476 53.400088 C 25.700517 54.201076 20.499997 50.200058 20.399737 48.300162 C 20.300778 46.400267 22.799476 47.799708 22.799476 47.799708 C 22.799476 47.799708 19.098956 42.600476 19.200518 40.200127 C 19.300779 37.799777 21.999997 41.399648 21.999997 41.399648 C 21.999997 41.399648 18.999997 35.300121 19.200518 33.100999 C 19.399737 30.899263 21.600257 34.499133 21.600257 34.499133 C 21.600257 34.499133 19.399737 29.499821 19.799476 28.50022 C 20.200518 27.500619 21.600257 30.200195 21.600257 30.200195 C 21.600257 30.200195 19.399737 25.400803 20.300778 23.699521 C 21.199216 21.999546 23.401038 26.099871 24.100257 29.899662 C 24.199215 29.899662 24.199215 27.500619 24.999997 26.899552 C 25.799476 26.299791 25.899736 30.600036 25.100257 36.200415 C 25.401038 36.200415 25.999996 33.600146 27.299475 33.400226 C 28.600256 33.198999 27.600257 39.301139 27.100257 40.50066 C 26.600257 41.700182 28.399736 37.799777 29.100256 38.399538 C 29.800777 39.000605 29.199215 43.799997 28.399736 45.699893 C 28.399736 45.799199 29.499996 43.699384 30.899735 43.600077 C 32.299475 43.499464 31.100256 49.59899 30.399735 52.800327 C 30.499996 52.800327 31.600256 50.500591 32.399735 50.300671 C 33.200516 50.100751 33.299475 52.299873 31.700516 56.999959 C 31.800777 57.099266 32.800777 55.299983 33.700516 55.100063 C 34.598953 54.900143 33.700516 58.500014 32.700516 60.601136 C 32.800777 60.500523 34.399735 59.200388 34.999995 59.699535 C 35.598953 60.199989 34.499995 63.200099 33.299475 65.200608 C 33.757808 64.777247 34.386714 64.591701 34.999995 64.700154 C 35.800776 64.900074 34.700516 68.199411 34.200516 69.398933 C 33.700516 70.601067 35.299474 67.700264 35.800776 67.800878 C 36.299474 67.900184 36.800776 67.599651 35.499995 82.400281 Z M 35.499995 82.400281 " transform="matrix(3,0,0,2.989474,0,3.736842)"/>
<path style="fill:none;stroke-width:0.4;stroke-linecap:round;stroke-linejoin:round;stroke:rgb(0%,0%,0%);stroke-opacity:1;stroke-miterlimit:4;" d="M 22.899736 32.300011 C 22.899736 32.300011 25.799476 52.600407 30.100256 62.699645 C 34.399735 72.80019 35.200516 76.299447 35.598953 80.999532 " transform="matrix(3,0,0,2.989474,0,3.736842)"/>
<path style="fill:none;stroke-width:0.4;stroke-linecap:round;stroke-linejoin:round;stroke:rgb(0%,0%,0%);stroke-opacity:1;stroke-miterlimit:4;" d="M 35.299474 86.200072 C 35.299474 86.200072 38.100255 45.600586 37.499995 36.499642 C 36.901037 27.400006 36.499995 24.000055 33.299475 20.600105 C 30.100256 17.200154 22.499997 17.400074 20.098956 24.100668 C 17.700518 30.799956 17.100258 42.699783 20.200518 60.699136 C 23.299476 78.699796 23.999997 81.499986 23.999997 81.499986 M 24.401038 98.699659 C 27.209632 96.325443 31.122391 95.745282 34.499995 97.199604 M 24.401038 100.500248 C 24.401038 100.500248 29.600256 96.80107 34.299474 99.000193 " transform="matrix(3,0,0,2.989474,0,3.736842)"/>
<path style=" stroke:none;fill-rule:nonzero;fill:rgb(100%,0%,0%);fill-opacity:1;" d="M 189 247.378906 C 189 247.378906 190.796875 239.308594 200.398438 185.195312 C 210 131.089844 207.898438 95.8125 200.703125 75.785156 C 193.5 55.753906 170.402344 55.453125 161.101562 65.320312 C 151.800781 75.1875 150.296875 85.648438 148.5 112.851562 C 146.699219 140.058594 155.101562 261.429688 155.101562 261.429688 L 161.398438 288.632812 L 180.300781 287.4375 Z M 189 247.378906 "/>
<path style=" stroke:none;fill-rule:nonzero;fill:rgb(19.607843%,34.117647%,13.72549%);fill-opacity:1;" d="M 152.699219 223.460938 C 150.296875 185.496094 147.296875 130.191406 148.5 112.851562 C 150.296875 85.648438 151.5 75.484375 161.101562 65.320312 C 170.699219 55.15625 193.5 55.753906 200.703125 75.785156 L 202.5 81.164062 Z M 152.699219 223.460938 "/>
<path style=" stroke:none;fill-rule:nonzero;fill:rgb(59.607843%,3.137255%,1.960784%);fill-opacity:1;" d="M 179.101562 268.304688 C 204.601562 86.84375 179.101562 59.042969 179.101562 59.042969 C 189.070312 59.667969 197.636719 66.3125 200.703125 75.785156 C 207.898438 95.8125 209.699219 131.386719 200.398438 185.195312 C 191.101562 239.007812 189 247.378906 189 247.378906 L 180.300781 287.4375 Z M 179.101562 268.304688 "/>
<path style=" stroke:none;fill-rule:nonzero;fill:rgb(5.098039%,22.745098%,7.058824%);fill-opacity:1;" d="M 188.699219 95.8125 C 185.402344 65.917969 179.101562 59.042969 179.101562 59.042969 C 189.070312 59.667969 197.636719 66.3125 200.703125 75.785156 "/>
<path style=" stroke:none;fill-rule:nonzero;fill:rgb(19.607843%,34.117647%,13.72549%);fill-opacity:1;" d="M 148.199219 260.230469 C 148.199219 260.230469 155.699219 270.101562 156.597656 292.820312 C 157.5 315.539062 159.300781 334.074219 159.300781 340.652344 C 159.300781 347.226562 168.597656 356.496094 176.699219 361.277344 C 181.429688 364.265625 186.75 366.203125 192.300781 366.957031 C 193.796875 366.660156 192.300781 362.472656 189.898438 352.308594 C 186.542969 340.96875 185.621094 329.050781 187.199219 317.332031 C 189 301.488281 187.5 282.058594 188.101562 276.375 C 188.699219 270.699219 190.796875 259.039062 191.101562 257.84375 C 191.402344 256.644531 197.097656 255.152344 196.5 250.070312 C 195.898438 244.984375 191.101562 245.882812 189 247.378906 C 187.28125 249.203125 186.136719 251.488281 185.699219 253.957031 C 185.214844 252.335938 184.144531 250.953125 182.699219 250.070312 C 180.898438 249.171875 179.402344 251.863281 180.597656 253.957031 C 181.667969 256.085938 182.183594 258.453125 182.101562 260.832031 C 181.800781 262.625 181.199219 258.738281 179.402344 258.441406 C 177.597656 258.140625 177.597656 258.738281 178.199219 262.925781 L 179.101562 266.8125 C 178.5 262.625 174.898438 264.417969 174.898438 266.511719 C 174.898438 268.605469 175.800781 271.292969 174.898438 271.59375 C 174 271.890625 173.402344 267.40625 171.898438 267.109375 C 170.402344 266.8125 170.101562 267.707031 170.402344 269.5 C 170.699219 271.292969 172.5 280.5625 170.101562 282.058594 C 167.699219 283.550781 166.5 273.988281 166.5 271.59375 C 166.5 269.203125 165.898438 267.707031 164.398438 267.707031 C 162.898438 267.707031 161.699219 274.878906 161.699219 273.089844 C 161.699219 271.292969 155.101562 256.046875 148.199219 260.230469 Z M 148.199219 260.230469 "/>
<path style=" stroke:none;fill-rule:nonzero;fill:rgb(5.098039%,22.745098%,7.058824%);fill-opacity:1;" d="M 179.699219 345.136719 C 180.300781 345.730469 187.796875 351.113281 192.300781 366.957031 C 192.898438 368.152344 192.300781 362.472656 189.898438 352.308594 C 186.542969 340.96875 185.621094 329.050781 187.199219 317.332031 C 189 301.488281 187.5 282.058594 188.101562 276.375 C 188.699219 270.699219 190.796875 259.039062 191.101562 257.84375 C 191.402344 256.644531 197.097656 255.152344 196.5 250.070312 C 195.898438 244.984375 191.101562 245.882812 189 247.378906 C 187.28125 249.203125 186.136719 251.488281 185.699219 253.957031 C 185.214844 252.335938 184.144531 250.953125 182.699219 250.070312 C 180.898438 249.171875 179.402344 251.863281 180.597656 253.957031 C 181.667969 256.085938 182.183594 258.453125 182.101562 260.832031 C 181.800781 262.625 181.199219 258.738281 179.402344 258.441406 C 177.597656 258.140625 177.597656 258.738281 178.199219 262.925781 L 179.101562 266.8125 C 178.5 262.625 180.597656 300.292969 179.699219 345.136719 Z M 179.699219 345.136719 "/>
<path style="fill:none;stroke-width:0.4;stroke-linecap:round;stroke-linejoin:round;stroke:rgb(0%,0%,0%);stroke-opacity:1;stroke-miterlimit:4;" d="M 49.399733 85.798924 C 49.399733 85.798924 51.899732 89.100875 52.199211 96.700457 C 52.499993 104.300039 53.100253 110.500179 53.100253 112.700608 C 53.100253 114.89973 56.199211 118.000454 58.899731 119.599816 C 60.476554 120.599417 62.249991 121.247524 64.100251 121.499711 C 64.598949 121.400404 64.100251 119.999656 63.29947 116.599706 C 62.180981 112.806448 61.873689 108.819804 62.399731 104.899799 C 62.999991 99.599953 62.499991 93.100586 62.700512 91.199384 C 62.899731 89.300795 63.598949 85.400391 63.700512 85.00055 C 63.800772 84.599403 65.69921 84.100256 65.499991 82.400281 C 65.29947 80.698999 63.700512 80.999532 62.999991 81.499986 C 62.427075 82.1102 62.045564 82.874601 61.899731 83.700415 C 61.738273 83.158148 61.381502 82.695588 60.899731 82.400281 C 60.299471 82.099747 59.800773 83.000041 60.19921 83.700415 C 60.555981 84.41255 60.727856 85.20439 60.700512 86.000151 C 60.600252 86.599912 60.399731 85.299777 59.800773 85.20047 C 59.19921 85.099857 59.19921 85.299777 59.399731 86.700525 L 59.700512 88.00066 C 59.499992 86.599912 58.299471 87.199673 58.299471 87.900047 C 58.299471 88.600421 58.600252 89.499409 58.299471 89.600022 C 57.999992 89.699329 57.800773 88.199274 57.299471 88.099967 C 56.800773 88.00066 56.700513 88.299887 56.800773 88.899648 C 56.899732 89.499409 57.499992 92.600132 56.700513 93.100586 C 55.899732 93.599733 55.499992 90.40101 55.499992 89.600022 C 55.499992 88.800341 55.299471 88.299887 54.799472 88.299887 C 54.299472 88.299887 53.899732 90.69893 53.899732 90.100476 C 53.899732 89.499409 51.700514 84.399483 49.399733 85.798924 Z M 49.399733 85.798924 " transform="matrix(3,0,0,2.989474,0,3.736842)"/>
<path style="fill:none;stroke-width:0.4;stroke-linecap:round;stroke-linejoin:round;stroke:rgb(0%,0%,0%);stroke-opacity:1;stroke-miterlimit:4;" d="M 53.199211 113.299062 C 53.199211 113.299062 53.799472 110.799406 56.600253 111.998927 C 59.399731 113.199755 62.800772 116.898933 64.100251 121.499711 " transform="matrix(3,0,0,2.989474,0,3.736842)"/>
<path style=" stroke:none;fill-rule:nonzero;fill:rgb(98.431373%,76.078431%,9.803922%);fill-opacity:1;" d="M 154.5 250.070312 C 154.5 250.070312 159 232.132812 165.300781 226.152344 C 171.597656 220.175781 176.699219 220.175781 178.199219 215.390625 C 179.699219 210.609375 171.300781 214.195312 171.300781 214.195312 C 171.300781 214.195312 187.796875 205.527344 187.5 201.339844 C 187.199219 197.15625 181.199219 199.546875 181.199219 199.546875 C 181.199219 199.546875 187.796875 193.269531 187.5 191.175781 C 187.199219 189.082031 183 190.878906 183 190.878906 C 183 190.878906 190.796875 181.308594 191.402344 177.722656 C 192 174.136719 186.300781 174.433594 182.402344 178.621094 C 178.5 182.804688 195.601562 166.960938 195 163.972656 C 194.402344 160.984375 189.300781 160.984375 186.601562 163.375 C 183.898438 165.769531 199.5 153.808594 199.800781 148.128906 C 200.097656 142.449219 192.601562 146.632812 192.601562 146.632812 C 192.601562 146.632812 203.703125 131.089844 203.398438 123.914062 C 203.097656 116.738281 195 127.5 195 127.5 C 195 127.5 204 109.265625 203.398438 102.691406 C 202.800781 96.109375 196.199219 106.871094 196.199219 106.871094 C 196.199219 106.871094 202.800781 91.925781 201.601562 88.9375 C 200.398438 85.949219 196.199219 94.019531 196.199219 94.019531 C 196.199219 94.019531 202.800781 79.671875 200.097656 74.585938 C 197.402344 69.503906 190.796875 81.761719 188.699219 93.121094 C 188.402344 93.121094 188.402344 85.949219 186 84.152344 C 183.601562 82.359375 183.300781 95.214844 185.699219 111.957031 C 184.796875 111.957031 183 104.183594 179.101562 103.585938 C 175.199219 102.984375 178.199219 121.226562 179.699219 124.8125 C 181.199219 128.398438 175.800781 116.738281 173.699219 118.53125 C 171.597656 120.328125 173.402344 134.675781 175.800781 140.355469 C 175.800781 140.652344 172.5 134.375 168.300781 134.078125 C 164.101562 133.777344 167.699219 152.011719 169.800781 161.582031 C 169.5 161.582031 166.199219 154.707031 163.800781 154.109375 C 161.398438 153.507812 161.101562 160.085938 165.898438 174.136719 C 165.597656 174.433594 162.597656 169.054688 159.898438 168.457031 C 157.203125 167.859375 159.898438 178.621094 162.898438 184.902344 C 162.597656 184.601562 157.800781 180.714844 156 182.207031 C 154.203125 183.703125 157.800781 192.96875 161.398438 198.949219 C 160.144531 197.695312 158.347656 197.136719 156.597656 197.453125 C 154.203125 198.050781 156.898438 207.617188 158.398438 211.203125 C 157.507812 209.101562 155.765625 207.472656 153.597656 206.722656 C 153.597656 206.722656 148.800781 201.042969 154.5 250.070312 Z M 154.5 250.070312 "/>
<path style=" stroke:none;fill-rule:nonzero;fill:rgb(81.568627%,60.784314%,2.745098%);fill-opacity:1;" d="M 174.597656 187.890625 C 174.597656 187.890625 183 174.734375 183.601562 170.546875 C 184.199219 166.363281 180.300781 167.859375 180.300781 167.859375 C 184.164062 163.140625 187.671875 158.144531 190.796875 152.910156 C 193.199219 147.828125 185.402344 153.808594 185.402344 153.808594 C 185.402344 153.808594 195.601562 138.261719 195.898438 133.179688 C 196.199219 128.101562 190.5 135.871094 190.5 135.871094 C 190.5 135.871094 196.199219 117.636719 195.898438 115.242188 C 195.601562 112.851562 191.402344 120.328125 191.402344 120.328125 C 191.402344 120.328125 195.898438 101.492188 193.5 96.410156 C 191.101562 91.328125 188.101562 108.367188 187.199219 118.230469 C 187.199219 118.230469 186.300781 114.644531 184.199219 114.945312 C 182.101562 115.242188 182.402344 122.417969 184.5 135.574219 C 183.898438 135.574219 182.402344 128.992188 180.300781 128.398438 C 178.199219 127.800781 180.597656 142.75 181.199219 145.738281 C 181.800781 148.726562 180 139.160156 178.800781 140.355469 C 177.597656 141.550781 177 152.910156 177.597656 157.695312 C 177.597656 157.695312 176.402344 152.613281 174.300781 152.011719 C 172.199219 151.414062 172.199219 166.066406 172.5 173.539062 C 172.199219 173.539062 171.300781 167.859375 170.101562 167.261719 C 168.898438 166.660156 168 171.746094 169.199219 183.105469 C 165.898438 178.023438 167.699219 194.464844 166.800781 192.96875 C 165.898438 191.476562 163.5 194.765625 163.5 204.929688 C 162.898438 203.136719 160.203125 200.441406 160.203125 202.835938 C 159.550781 207.390625 159.25 211.988281 159.300781 216.585938 C 159.597656 216.886719 157.203125 214.496094 155.699219 215.691406 C 154.203125 216.886719 155.101562 216.289062 154.800781 241.097656 C 154.800781 241.097656 158.699219 228.546875 162.597656 224.359375 C 166.5 220.175781 168.898438 219.574219 169.800781 218.382812 C 170.699219 217.1875 164.699219 215.691406 164.699219 215.691406 C 164.699219 215.691406 176.699219 209.113281 177 206.125 C 177.300781 203.136719 174.597656 203.730469 174.597656 203.730469 C 174.597656 203.730469 178.5 199.25 178.5 197.753906 C 178.5 196.257812 174.898438 197.753906 174.898438 197.753906 C 174.898438 197.753906 183.300781 188.1875 182.402344 184.300781 C 181.5 180.414062 174.597656 187.890625 174.597656 187.890625 Z M 174.597656 187.890625 "/>
<path style="fill:none;stroke-width:0.4;stroke-linecap:round;stroke-linejoin:round;stroke:rgb(0%,0%,0%);stroke-opacity:1;stroke-miterlimit:4;" d="M 51.499993 82.400281 C 51.499993 82.400281 52.999993 76.400061 55.100253 74.399552 C 57.199211 72.400349 58.899731 72.400349 59.399731 70.799681 C 59.899731 69.200319 57.100252 70.39984 57.100252 70.39984 C 57.100252 70.39984 62.59895 67.500344 62.499991 66.099596 C 62.399731 64.700154 60.399731 65.499835 60.399731 65.499835 C 60.399731 65.499835 62.59895 63.400019 62.499991 62.699645 C 62.399731 61.999271 60.999991 62.600338 60.999991 62.600338 C 60.999991 62.600338 63.598949 59.399001 63.800772 58.19948 C 63.999991 56.999959 62.100252 57.099266 60.800773 58.500014 C 59.499992 59.899455 65.200512 54.599609 64.999991 53.600008 C 64.800772 52.600407 63.100252 52.600407 62.200512 53.400088 C 61.299471 54.201076 66.499991 50.200058 66.600251 48.300162 C 66.699209 46.400267 64.200512 47.799708 64.200512 47.799708 C 64.200512 47.799708 67.901032 42.600476 67.79947 40.200127 C 67.699209 37.799777 64.999991 41.399648 64.999991 41.399648 C 64.999991 41.399648 67.99999 35.300121 67.79947 33.100999 C 67.600251 30.899263 65.39973 34.499133 65.39973 34.499133 C 65.39973 34.499133 67.600251 29.499821 67.200511 28.50022 C 66.79947 27.500619 65.39973 30.200195 65.39973 30.200195 C 65.39973 30.200195 67.600251 25.400803 66.699209 23.699521 C 65.800772 21.999546 63.598949 26.099871 62.899731 29.899662 C 62.800772 29.899662 62.800772 27.500619 61.999991 26.899552 C 61.200512 26.299791 61.100252 30.600036 61.899731 36.200415 C 61.59895 36.200415 60.999991 33.600146 59.700512 33.400226 C 58.399731 33.198999 59.399731 39.301139 59.899731 40.50066 C 60.399731 41.700182 58.600252 37.799777 57.899731 38.399538 C 57.199211 39.000605 57.800773 43.799997 58.600252 45.699893 C 58.600252 45.799199 57.499992 43.699384 56.100253 43.600077 C 54.700513 43.499464 55.899732 49.59899 56.600253 52.800327 C 56.499992 52.800327 55.399732 50.500591 54.600253 50.300671 C 53.799472 50.100751 53.700513 52.299873 55.299471 56.999959 C 55.199211 57.099266 54.199211 55.299983 53.299472 55.100063 C 52.401034 54.900143 53.299472 58.500014 54.299472 60.601136 C 54.199211 60.500523 52.600253 59.200388 51.999993 59.699535 C 51.401034 60.199989 52.499993 63.200099 53.700513 65.200608 C 53.24218 64.777247 52.613274 64.591701 51.999993 64.700154 C 51.199212 64.900074 52.299472 68.199411 52.799472 69.398933 C 53.299472 70.601067 51.700514 67.700264 51.199212 67.800878 C 50.700514 67.900184 50.199212 67.599651 51.499993 82.400281 Z M 51.499993 82.400281 " transform="matrix(3,0,0,2.989474,0,3.736842)"/>
<path style="fill:none;stroke-width:0.4;stroke-linecap:round;stroke-linejoin:round;stroke:rgb(0%,0%,0%);stroke-opacity:1;stroke-miterlimit:4;" d="M 64.100251 32.300011 C 64.100251 32.300011 61.200512 52.600407 56.899732 62.699645 C 52.600253 72.80019 51.799472 76.299447 51.401034 80.999532 " transform="matrix(3,0,0,2.989474,0,3.736842)"/>
<path style="fill:none;stroke-width:0.4;stroke-linecap:round;stroke-linejoin:round;stroke:rgb(0%,0%,0%);stroke-opacity:1;stroke-miterlimit:4;" d="M 51.700514 86.200072 C 51.700514 86.200072 48.899733 45.600586 49.499993 36.499642 C 50.098951 27.400006 50.499993 24.000055 53.700513 20.600105 C 56.899732 17.200154 64.499991 17.400074 66.901032 24.100668 C 69.299469 30.799956 69.89973 42.699783 66.79947 60.699136 C 63.700512 78.699796 62.999991 81.499986 62.999991 81.499986 M 62.59895 98.699659 C 59.790356 96.325443 55.877596 95.745282 52.499993 97.199604 M 62.59895 100.500248 C 62.59895 100.500248 57.399732 96.80107 52.700513 99.000193 " transform="matrix(3,0,0,2.989474,0,3.736842)"/>
</g>
</svg>
