<?xml version="1.0" encoding="UTF-8"?>
<svg xmlns="http://www.w3.org/2000/svg" xmlns:xlink="http://www.w3.org/1999/xlink" width="261px" height="420px" viewBox="0 0 261 426" version="1.1">
<g id="surface1">
<path style=" stroke:none;fill-rule:nonzero;fill:rgb(100%,100%,100%);fill-opacity:1;" d="M 18 3.738281 L 243 3.738281 C 252.941406 3.738281 261 11.769531 261 21.671875 L 261 404.328125 C 261 414.230469 252.941406 422.261719 243 422.261719 L 18 422.261719 C 8.058594 422.261719 0 414.230469 0 404.328125 L 0 21.671875 C 0 11.769531 8.058594 3.738281 18 3.738281 Z M 18 3.738281 "/>
<path style=" stroke:none;fill-rule:nonzero;fill:rgb(100%,0%,0%);fill-opacity:1;" d="M 187.796875 313.445312 L 157.203125 243.492188 L 136.5 260.832031 L 174.898438 328.691406 Z M 187.796875 313.445312 "/>
<path style=" stroke:none;fill-rule:nonzero;fill:rgb(59.607843%,3.137255%,1.960784%);fill-opacity:1;" d="M 149.101562 283.851562 C 149.101562 283.851562 148.199219 270.699219 154.5 272.789062 C 160.800781 274.878906 177 315.539062 177 315.539062 L 180.898438 321.519531 L 187.796875 313.445312 L 157.203125 243.492188 L 136.5 260.832031 Z M 149.101562 283.851562 "/>
<path style="fill:none;stroke-width:0.4;stroke-linecap:round;stroke-linejoin:round;stroke:rgb(0%,0%,0%);stroke-opacity:1;stroke-miterlimit:4;" d="M 62.59895 103.599664 L 52.401034 80.199851 L 45.499994 86.000151 L 58.299471 108.69959 Z M 62.59895 103.599664 " transform="matrix(3,0,0,2.989474,0,3.736842)"/>
<path style=" stroke:none;fill-rule:nonzero;fill:rgb(100%,0%,0%);fill-opacity:1;" d="M 109.5 245.882812 L 75.597656 306.871094 L 86.699219 329.289062 L 126.601562 267.707031 L 125.699219 255.152344 L 116.097656 248.277344 Z M 109.5 245.882812 "/>
<path style=" stroke:none;fill-rule:nonzero;fill:rgb(59.607843%,3.137255%,1.960784%);fill-opacity:1;" d="M 107.097656 253.058594 C 109.859375 264.820312 107.808594 277.1875 101.402344 287.4375 C 90.300781 305.972656 84.898438 313.148438 84.898438 313.148438 L 83.402344 323.015625 L 90.300781 323.910156 L 113.703125 287.136719 L 121.800781 274.585938 L 124.5 255.152344 L 116.097656 248.277344 Z M 107.097656 253.058594 "/>
<path style="fill:none;stroke-width:0.4;stroke-linecap:round;stroke-linejoin:round;stroke:rgb(0%,0%,0%);stroke-opacity:1;stroke-miterlimit:4;" d="M 36.299474 81.199453 L 25.199215 101.400542 L 28.899736 108.89951 L 42.200515 88.299887 L 41.899734 84.100256 L 38.699213 81.80052 Z M 36.299474 81.199453 " transform="matrix(3,0,0,2.989474,0,3.736842)"/>
<path style=" stroke:none;fill-rule:nonzero;fill:rgb(19.607843%,34.117647%,13.72549%);fill-opacity:1;" d="M 118.199219 254.554688 L 123.902344 338.855469 L 138.300781 336.167969 L 144.296875 252.164062 Z M 118.199219 254.554688 "/>
<path style=" stroke:none;fill-rule:nonzero;fill:rgb(5.098039%,22.745098%,7.058824%);fill-opacity:1;" d="M 130.800781 253.957031 C 130.800781 253.957031 133.5 324.207031 132.300781 335.566406 C 134.847656 333.4375 137.253906 331.136719 139.5 328.691406 L 144.296875 252.164062 Z M 130.800781 253.957031 "/>
<path style="fill:none;stroke-width:0.4;stroke-linecap:round;stroke-linejoin:round;stroke:rgb(0%,0%,0%);stroke-opacity:1;stroke-miterlimit:4;" d="M 39.399734 83.900336 L 41.300775 112.099541 L 46.100254 111.200553 L 48.098952 83.100655 Z M 39.399734 83.900336 " transform="matrix(3,0,0,2.989474,0,3.736842)"/>
<path style=" stroke:none;fill-rule:nonzero;fill:rgb(19.607843%,34.117647%,13.72549%);fill-opacity:1;" d="M 173.101562 330.488281 C 173.101562 330.488281 172.5 337.664062 164.699219 334.074219 C 156.898438 330.488281 159.898438 319.722656 165.898438 318.53125 C 171.898438 317.332031 173.699219 319.722656 173.699219 319.722656 C 173.699219 319.722656 171.300781 312.546875 174.898438 307.769531 C 175.199219 308.066406 180 306.269531 183.898438 313.746094 C 183.898438 313.746094 182.699219 300.59375 192.300781 301.785156 C 201.898438 302.984375 198.601562 315.539062 191.699219 313.148438 C 193.644531 324.347656 198.277344 334.90625 205.199219 343.9375 C 216 357.988281 217.199219 359.1875 217.199219 359.1875 C 217.199219 359.1875 205.199219 365.761719 193.5 363.070312 C 187.796875 361.574219 186 361.277344 182.402344 354.699219 C 178.800781 348.125 173.101562 330.488281 173.101562 330.488281 Z M 118.199219 334.375 C 118.199219 334.375 112.5 333.777344 113.097656 328.691406 C 113.085938 327.394531 113.644531 326.148438 114.621094 325.292969 C 115.601562 324.429688 116.90625 324.035156 118.199219 324.207031 C 118.199219 324.207031 121.5 323.609375 122.699219 329.890625 C 123 330.488281 121.800781 322.714844 127.800781 320.023438 C 133.800781 317.332031 134.699219 328.691406 132.601562 330.488281 C 130.5 332.28125 141 318.230469 150.902344 326.601562 C 153.804688 328.117188 155.445312 331.277344 155.007812 334.511719 C 154.574219 337.75 152.160156 340.371094 148.957031 341.074219 C 145.761719 341.777344 142.460938 340.414062 140.699219 337.664062 C 138.195312 343.15625 136.578125 349.003906 135.902344 355 C 135.804688 362.160156 130.429688 368.15625 123.300781 369.050781 C 114.898438 370.246094 108.601562 370.246094 107.097656 365.460938 C 105.601562 360.679688 114.898438 355.300781 117 347.226562 C 118.253906 343.0625 118.664062 338.695312 118.199219 334.375 Z M 75.597656 306.871094 C 75.597656 306.871094 77.398438 297.007812 67.800781 297.007812 C 58.199219 297.007812 60.296875 310.757812 67.203125 308.660156 C 70.097656 313.878906 69.375 320.351562 65.398438 324.804688 C 58.5 332.578125 40.199219 351.113281 39.601562 352.308594 C 39 353.503906 51 360.679688 59.101562 360.082031 C 67.203125 359.484375 70.5 356.496094 77.101562 347.824219 C 83.699219 339.15625 86.699219 334.074219 92.402344 330.488281 C 94.105469 333.554688 97.785156 334.945312 101.101562 333.777344 C 106.5 331.382812 104.402344 326.601562 104.402344 325.40625 C 104.402344 324.207031 100.796875 314.644531 87.300781 321.21875 C 87.898438 321.519531 93.597656 311.355469 87.898438 305.972656 C 82.199219 300.59375 75.597656 306.871094 75.597656 306.871094 Z M 75.597656 306.871094 "/>
<path style=" stroke:none;fill-rule:nonzero;fill:rgb(5.098039%,22.745098%,7.058824%);fill-opacity:1;" d="M 87.898438 333.777344 C 87.898438 333.777344 85.5 324.804688 75.300781 331.082031 C 71.101562 334.375 67.5 350.214844 67.5 350.214844 C 67.5 350.214844 60 342.742188 43.199219 350.515625 C 39.601562 352.609375 39.902344 353.804688 39.902344 353.804688 C 39.902344 353.804688 51 360.382812 57 360.382812 C 63 360.382812 66.902344 359.484375 73.800781 351.414062 C 80.699219 343.339844 87.898438 333.777344 87.898438 333.777344 Z M 174.300781 334.074219 C 174.300781 334.074219 176.101562 327.195312 178.800781 326.601562 C 181.5 326.003906 189.300781 334.375 188.402344 343.640625 C 188.363281 347.261719 187.960938 350.867188 187.199219 354.402344 C 187.199219 354.402344 191.101562 349.320312 202.5 352.910156 C 213.902344 356.496094 216 359.484375 216 359.484375 C 216 359.484375 211.5 364.269531 200.097656 363.671875 C 188.699219 363.070312 187.796875 361.574219 185.699219 360.082031 C 183.601562 358.585938 178.5 344.835938 178.5 344.835938 Z M 140.398438 338.554688 C 140.398438 338.554688 140.101562 333.777344 133.199219 335.867188 C 126.300781 337.960938 128.398438 353.804688 128.398438 357.390625 C 128.398438 360.976562 135.300781 358.585938 135.300781 358.585938 Z M 140.398438 338.554688 "/>
<path style=" stroke:none;fill-rule:nonzero;fill:rgb(5.098039%,22.745098%,7.058824%);fill-opacity:1;" d="M 120.601562 359.1875 C 120.601562 359.1875 107.097656 363.671875 107.402344 366.957031 C 107.703125 370.246094 116.703125 371.144531 123.300781 369.050781 C 129.902344 366.957031 133.5 364.566406 134.699219 361.574219 C 135.902344 358.585938 129.300781 356.796875 126.902344 357.390625 Z M 120.601562 359.1875 "/>
<path style=" stroke:none;fill-rule:nonzero;fill:rgb(19.607843%,34.117647%,13.72549%);fill-opacity:1;" d="M 94.800781 189.679688 C 94.800781 189.679688 62.398438 150.820312 49.199219 128.699219 C 36 106.574219 33 75.785156 54.902344 67.113281 C 76.800781 58.441406 95.101562 88.335938 103.5 108.367188 C 111.898438 128.398438 120.601562 183.40625 120.601562 183.40625 Z M 94.800781 189.679688 "/>
<path style=" stroke:none;fill-rule:nonzero;fill:rgb(100%,0%,0%);fill-opacity:1;" d="M 87 80.269531 C 92.402344 86.246094 100.5 101.792969 103.5 108.367188 C 111.898438 128.398438 120.601562 183.40625 120.601562 183.40625 L 94.800781 189.679688 C 94.800781 189.679688 93 188.488281 82.199219 174.433594 "/>
<path style=" stroke:none;fill-rule:nonzero;fill:rgb(5.098039%,22.745098%,7.058824%);fill-opacity:1;" d="M 54.902344 67.113281 C 54.902344 67.113281 72.597656 58.441406 90.300781 83.855469 C 90.597656 84.152344 84.597656 99.097656 84.597656 99.097656 C 84.597656 99.097656 78 81.761719 66.902344 74.289062 C 55.800781 66.8125 52.5 68.609375 51 69.203125 Z M 54.902344 67.113281 "/>
<path style=" stroke:none;fill-rule:nonzero;fill:rgb(59.607843%,3.137255%,1.960784%);fill-opacity:1;" d="M 82.5 95.8125 C 103.199219 119.730469 112.5 185.195312 112.5 185.195312 L 120.601562 183.40625 C 120.601562 183.40625 107.097656 114.945312 105.300781 110.460938 C 103.5 105.976562 90.300781 83.855469 90.300781 83.855469 Z M 82.5 95.8125 "/>
<path style="fill:none;stroke-width:0.4;stroke-linecap:round;stroke-linejoin:round;stroke:rgb(0%,0%,0%);stroke-opacity:1;stroke-miterlimit:4;" d="M 31.600256 62.199191 C 31.600256 62.199191 20.799476 49.200457 16.399737 41.800795 C 11.999998 34.399827 10.999998 24.100668 18.300779 21.199865 C 25.600257 18.299062 31.700516 28.298993 34.499995 34.999587 C 37.299474 41.700182 40.200515 60.100682 40.200515 60.100682 Z M 31.600256 62.199191 " transform="matrix(3,0,0,2.989474,0,3.736842)"/>
<path style="fill-rule:nonzero;fill:rgb(98.431373%,76.078431%,9.803922%);fill-opacity:1;stroke-width:0.4;stroke-linecap:round;stroke-linejoin:round;stroke:rgb(0%,0%,0%);stroke-opacity:1;stroke-miterlimit:4;" d="M 31.299475 61.999271 C 31.095048 59.775322 31.332027 57.531773 31.999996 55.400597 C 32.720048 53.590862 32.927079 51.619099 32.598954 49.699604 C 31.75911 49.921737 31.061194 50.508431 30.700517 51.300272 C 31.575516 49.005763 32.210933 46.62632 32.598954 44.199838 C 31.799475 44.459865 31.052079 44.867545 30.399735 45.400666 C 31.59635 43.954184 32.420568 42.237222 32.800777 40.400047 C 32.108068 40.50066 31.454423 40.776367 30.899735 41.199728 C 30.899735 41.100421 32.299475 36.099802 32.100256 33.900679 C 31.709631 34.086226 31.367183 34.35932 31.100256 34.699054 C 31.265621 32.899772 31.199214 31.083503 30.899735 29.299901 C 30.899735 29.200594 30.299475 29.399208 30.100256 30.000275 C 29.899735 30.600036 30.499996 26.299791 27.999996 24.399895 C 28.477861 25.47659 28.513017 26.697018 28.100256 27.799846 C 27.62109 29.489368 27.419267 31.24553 27.499996 33.000385 L 25.600257 32.199398 C 25.401038 32.100091 25.600257 35.899882 27.299475 39.399139 L 25.600257 38.399538 C 25.061194 40.6065 25.497392 42.937596 26.800778 44.799598 C 26.20833 44.390611 25.516924 44.148878 24.799476 44.100531 C 24.799476 44.300451 25.100257 44.799598 25.401038 45.899813 C 25.622392 46.907254 26.105465 47.837602 26.800778 48.599389 C 26.065101 48.322376 25.285153 48.186482 24.499997 48.199549 C 24.700517 48.300162 25.199215 48.700003 25.401038 50.500591 C 25.528642 52.554674 26.072913 54.561716 26.999996 56.400198 C 28.037756 58.539214 29.499996 60.444336 31.299475 61.999271 Z M 31.299475 61.999271 " transform="matrix(3,0,0,2.989474,0,3.736842)"/>
<path style=" stroke:none;fill-rule:nonzero;fill:rgb(19.607843%,34.117647%,13.72549%);fill-opacity:1;" d="M 167.699219 191.476562 C 167.699219 191.476562 197.402344 155.007812 207 139.160156 C 216.601562 123.316406 223.5 111.058594 221.097656 91.625 C 218.699219 72.195312 202.5 64.722656 186.300781 71 C 170.101562 77.277344 162 84.75 153.296875 126.605469 C 144.601562 168.457031 142.5 181.015625 142.5 181.015625 Z M 167.699219 191.476562 "/>
<path style=" stroke:none;fill-rule:nonzero;fill:rgb(5.098039%,22.745098%,7.058824%);fill-opacity:1;" d="M 210.300781 72.796875 C 210.300781 72.796875 219.601562 92.222656 205.800781 118.832031 C 192 145.4375 163.5 189.679688 163.5 189.679688 L 167.699219 191.476562 C 167.699219 191.476562 204 145.4375 208.199219 137.964844 C 212.398438 130.492188 224.699219 108.667969 221.699219 92.523438 C 218.699219 76.382812 210.300781 72.796875 210.300781 72.796875 Z M 210.300781 72.796875 "/>
<path style=" stroke:none;fill-rule:nonzero;fill:rgb(100%,0%,0%);fill-opacity:1;" d="M 163.5 189.679688 L 142.5 181.015625 C 142.5 181.015625 144.601562 168.457031 153.296875 126.605469 C 162 84.75 168.597656 78.472656 182.402344 72.496094 Z M 163.5 189.679688 "/>
<path style="fill-rule:nonzero;fill:rgb(98.431373%,76.078431%,9.803922%);fill-opacity:1;stroke-width:0.4;stroke-linecap:round;stroke-linejoin:round;stroke:rgb(0%,0%,0%);stroke-opacity:1;stroke-miterlimit:4;" d="M 54.899732 61.500124 C 55.126294 59.464335 55.024732 57.405026 54.600253 55.400597 C 53.899732 51.800726 53.899732 50.500591 54.401034 50.500591 C 54.899732 50.500591 55.800773 51.500193 56.199211 52.600407 L 56.499992 53.699315 C 55.595044 51.717099 54.924471 49.636884 54.499992 47.500481 C 54.299472 44.999519 54.299472 44.700292 54.299472 44.700292 C 54.299472 44.700292 54.799472 43.900611 55.700513 46.50088 C 55.014315 44.985145 54.608065 43.35965 54.499992 41.700182 C 54.600253 41.600875 55.299471 41.399648 55.800773 42.90101 C 55.802076 41.331701 55.532544 39.775459 54.999992 38.298924 C 54.479159 37.211777 54.270826 35.999188 54.401034 34.799667 L 54.401034 33.999986 C 54.401034 33.999986 55.700513 33.499532 56.999992 35.600655 C 56.999992 35.600655 55.700513 32.199398 56.100253 29.800355 L 56.600253 27.299392 C 57.239575 27.498006 57.7552 27.976246 57.999992 28.599527 C 58.100252 28.599527 58.100252 24.499202 61.299471 22.89984 C 61.457023 25.270136 61.151033 27.648272 60.399731 29.899662 C 60.299471 30.099582 60.800773 29.399208 61.700512 29.299901 C 61.731762 31.062596 61.35546 32.806998 60.600252 34.399827 C 61.029939 34.173773 61.523429 34.103213 61.999991 34.199906 C 62.209627 35.663375 61.890616 37.15167 61.100252 38.399538 C 61.76171 38.110764 62.479158 37.973564 63.200512 38.001004 C 62.69921 38.731432 62.328116 39.542872 62.100252 40.400047 C 61.899731 41.399648 62.200512 43.699384 61.499991 45.400666 C 62.04947 44.983839 62.710929 44.740798 63.399731 44.700292 C 63.027335 46.404187 62.071606 47.923842 60.700512 49.000536 C 61.264314 48.935203 61.832023 48.90123 62.399731 48.899923 C 62.29947 49.000536 62.800772 50.799818 59.899731 55.299983 C 56.999992 59.800149 57.100252 59.800149 55.399732 61.899964 C 53.700513 63.99978 54.899732 61.500124 54.899732 61.500124 Z M 54.899732 61.500124 " transform="matrix(3,0,0,2.989474,0,3.736842)"/>
<path style="fill:none;stroke-width:0.4;stroke-linecap:round;stroke-linejoin:round;stroke:rgb(0%,0%,0%);stroke-opacity:1;stroke-miterlimit:4;" d="M 55.899732 62.800259 C 55.899732 62.800259 65.800772 50.601205 68.99999 45.300052 C 72.200511 40.000206 74.49999 35.899882 73.699208 29.399208 C 72.899729 22.89984 67.499991 20.400184 62.100252 22.5 C 56.700513 24.599816 53.999992 27.099472 51.098951 41.100421 C 48.200514 55.100063 47.499993 59.301001 47.499993 59.301001 Z M 55.899732 62.800259 " transform="matrix(3,0,0,2.989474,0,3.736842)"/>
<path style=" stroke:none;fill-rule:nonzero;fill:rgb(19.607843%,34.117647%,13.72549%);fill-opacity:1;" d="M 119.398438 178.621094 C 119.398438 178.621094 101.101562 125.109375 103.5 91.925781 C 105.898438 58.742188 127.800781 54.554688 135.601562 56.351562 C 143.398438 58.144531 151.800781 63.824219 156.300781 79.070312 C 160.800781 94.320312 161.101562 109.566406 154.5 140.058594 C 147.902344 170.546875 145.800781 181.015625 145.800781 181.015625 C 145.800781 181.015625 125.699219 186.394531 119.398438 178.621094 Z M 119.398438 178.621094 "/>
<path style=" stroke:none;fill-rule:nonzero;fill:rgb(5.098039%,22.745098%,7.058824%);fill-opacity:1;" d="M 134.398438 182.804688 L 145.800781 181.015625 C 145.800781 181.015625 148.199219 170.847656 154.5 140.058594 C 160.800781 109.265625 160.5 94.320312 156.300781 79.070312 C 152.101562 63.824219 143.398438 57.847656 135.601562 56.351562 L 132 56.351562 C 132 56.351562 151.203125 92.222656 134.398438 182.804688 Z M 134.398438 182.804688 "/>
<path style=" stroke:none;fill-rule:nonzero;fill:rgb(81.568627%,60.784314%,2.745098%);fill-opacity:1;" d="M 87.300781 97.90625 C 87.300781 97.90625 90.597656 112.554688 89.699219 117.339844 C 88.800781 122.117188 90.898438 114.945312 92.101562 114.347656 C 93.300781 113.75 93.300781 116.140625 89.699219 128.101562 L 89.699219 130.492188 C 90.722656 129.589844 91.960938 128.972656 93.300781 128.699219 C 93.597656 128.699219 93.300781 129.890625 90.597656 135.871094 C 88.90625 138.785156 87.980469 142.074219 87.898438 145.4375 C 87.898438 145.4375 92.101562 140.953125 93.597656 140.652344 C 95.101562 140.355469 94.5 143.046875 91.800781 148.128906 C 89.101562 153.210938 90 164.871094 90 164.871094 C 90.707031 162.773438 91.828125 160.839844 93.300781 159.1875 C 93.804688 162.109375 93.492188 165.105469 92.402344 167.859375 C 90.300781 174.136719 92.402344 187.589844 92.402344 187.589844 C 92.402344 187.589844 81.597656 167.859375 81 158.292969 C 82.101562 158.503906 83.078125 159.152344 83.699219 160.085938 C 84.597656 161.882812 84.300781 152.011719 81.597656 146.632812 L 78.597656 140.355469 C 78.597656 140.355469 83.402344 141.851562 83.402344 142.449219 C 81.492188 137.746094 80.183594 132.824219 79.5 127.800781 C 81.671875 128.167969 83.492188 129.644531 84.300781 131.6875 C 84 131.089844 85.800781 126.003906 84.597656 121.820312 C 83.402344 117.636719 80.101562 111.058594 80.101562 107.46875 C 82.429688 107.988281 84.472656 109.382812 85.800781 111.355469 C 83.699219 106.953125 84.28125 101.742188 87.300781 97.90625 Z M 87.300781 97.90625 "/>
<path style=" stroke:none;fill-rule:nonzero;fill:rgb(98.431373%,76.078431%,9.803922%);fill-opacity:1;" d="M 127.800781 180.117188 C 127.402344 177.421875 126.375 174.867188 124.800781 172.644531 C 123.09375 170.195312 122.246094 167.25 122.398438 164.269531 C 124.570312 164.066406 126.664062 165.109375 127.800781 166.960938 C 129.300781 169.953125 126.902344 160.683594 124.5 156.796875 C 121.761719 152.996094 120.011719 148.578125 119.398438 143.941406 C 122.320312 143.878906 125.015625 145.515625 126.300781 148.128906 C 125.472656 144.675781 124.160156 141.351562 122.398438 138.261719 C 122.398438 137.964844 123.601562 137.066406 126.300781 137.964844 C 129 138.863281 119.398438 126.902344 118.800781 119.429688 C 121.75 119.789062 124.335938 121.578125 125.699219 124.214844 C 126 123.914062 120.601562 112.554688 121.199219 105.082031 C 124.015625 105.367188 126.5 107.054688 127.800781 109.566406 C 127.027344 106.628906 126.527344 103.625 126.300781 100.59375 C 126.300781 100.894531 128.097656 100.894531 129 102.390625 C 129.902344 103.882812 127.800781 95.8125 129.601562 92.222656 C 131.398438 88.636719 132.902344 88.9375 134.398438 84.152344 C 134.398438 83.855469 138.300781 89.234375 136.5 100.59375 C 137.71875 99.367188 139.136719 98.355469 140.699219 97.605469 C 142.941406 103.890625 142.941406 110.753906 140.699219 117.039062 L 145.199219 114.644531 C 146.082031 119.207031 144.871094 123.921875 141.902344 127.5 C 141.902344 128.101562 144.601562 126.003906 147.296875 126.003906 C 146.808594 131.578125 144.492188 136.828125 140.699219 140.953125 C 141 141.25 144.601562 139.160156 146.699219 139.160156 C 148.800781 139.160156 147.296875 141.851562 140.398438 149.324219 C 142.539062 148.589844 144.75 148.085938 147 147.828125 C 146.914062 153.066406 144.496094 158 140.398438 161.28125 L 137.097656 165.167969 C 138.601562 163.828125 140.492188 162.988281 142.5 162.773438 C 142.199219 163.074219 144 165.769531 139.199219 172.941406 C 134.398438 180.117188 135 182.804688 135 182.804688 Z M 127.800781 180.117188 "/>
<path style=" stroke:none;fill-rule:nonzero;fill:rgb(81.568627%,60.784314%,2.745098%);fill-opacity:1;" d="M 130.800781 181.015625 C 132.339844 177.433594 134.25 174.03125 136.5 170.847656 C 137.660156 169.75 138.574219 168.429688 139.199219 166.960938 C 137.488281 166.980469 135.816406 167.496094 134.398438 168.457031 C 134.398438 168.457031 134.699219 161.28125 137.097656 158.890625 C 138.964844 156.792969 140.574219 154.484375 141.902344 152.011719 C 140.011719 151.511719 138 151.957031 136.5 153.210938 C 138.046875 150.699219 138.777344 147.78125 138.601562 144.839844 C 138.601562 139.160156 139.800781 134.976562 141 134.078125 C 141.628906 133.152344 142.136719 132.148438 142.5 131.089844 C 140.90625 130.953125 139.3125 131.378906 138 132.285156 C 139.78125 128.707031 141 124.875 141.601562 120.925781 C 140.195312 121.195312 138.925781 121.933594 138 123.015625 C 139.132812 118.625 139.433594 114.066406 138.902344 109.566406 L 138 104.183594 C 137.089844 105.128906 136.371094 106.25 135.902344 107.46875 C 135.601562 108.96875 136.199219 102.089844 133.800781 100.894531 C 131.398438 99.699219 132.902344 105.082031 131.699219 107.769531 C 130.078125 110.683594 129.546875 114.070312 130.199219 117.339844 C 129.167969 115.089844 127.863281 112.980469 126.300781 111.058594 C 126.300781 111.355469 127.199219 123.316406 131.097656 129.59375 C 131.097656 129.890625 127.199219 126.902344 125.699219 126.902344 C 126.957031 131.96875 128.769531 136.878906 131.097656 141.550781 L 127.199219 140.953125 C 127.5 141.25 129.601562 141.550781 130.199219 146.632812 C 130.445312 149.246094 130.847656 151.84375 131.398438 154.40625 C 130.144531 153.011719 128.613281 151.890625 126.902344 151.121094 C 127.109375 154.617188 127.921875 158.058594 129.300781 161.28125 C 131.699219 165.769531 129.902344 172.941406 129.902344 172.941406 C 129.367188 171.257812 128.179688 169.855469 126.601562 169.054688 C 126.902344 169.355469 127.5 173.242188 128.398438 176.53125 C 129.066406 178.269531 129.566406 180.074219 129.902344 181.910156 Z M 130.800781 181.015625 "/>
<path style="fill:none;stroke-width:0.4;stroke-linecap:round;stroke-linejoin:round;stroke:rgb(0%,0%,0%);stroke-opacity:1;stroke-miterlimit:4;" d="M 42.600254 59.000468 C 42.467442 58.098867 42.124994 57.242999 41.600255 56.500812 C 41.031244 55.681531 40.748692 54.696303 40.799473 53.699315 C 41.523432 53.631368 42.221348 53.980249 42.600254 54.599609 C 43.100254 55.600517 42.300775 52.499794 41.499994 51.199659 C 40.587234 49.928271 40.003901 48.450429 39.799474 46.899414 C 40.773432 46.878507 41.671869 47.426001 42.100255 48.300162 C 41.824213 47.145068 41.386713 46.033093 40.799473 44.999519 C 40.799473 44.900212 41.200515 44.599678 42.100255 44.900212 C 42.999994 45.200745 39.799474 41.199728 39.600255 38.700072 C 40.583328 38.820285 41.445307 39.418739 41.899734 40.30074 C 41.999994 40.200127 40.200515 36.400336 40.399734 33.900679 C 41.338536 33.996066 42.166661 34.560547 42.600254 35.400734 C 42.342442 34.41812 42.175775 33.413292 42.100255 32.399318 C 42.100255 32.499931 42.699213 32.499931 42.999994 33.000385 C 43.300775 33.499532 42.600254 30.799956 43.200515 29.599128 C 43.799473 28.399607 44.300775 28.50022 44.799473 26.899552 C 44.799473 26.800245 46.100254 28.599527 45.499994 32.399318 C 45.906244 31.989024 46.3789 31.650597 46.899733 31.399717 C 47.647129 33.502146 47.647129 35.797962 46.899733 37.900391 L 48.399733 37.099403 C 48.694004 38.625591 48.290358 40.20274 47.300775 41.399648 C 47.300775 41.600875 48.200514 40.899194 49.098951 40.899194 C 48.936191 42.763809 48.164056 44.519971 46.899733 45.899813 C 46.999993 45.99912 48.200514 45.300052 48.899733 45.300052 C 49.600253 45.300052 49.098951 46.200347 46.799473 48.700003 C 47.513014 48.454349 48.249993 48.285789 48.999993 48.199549 C 48.971347 49.951791 48.165358 51.602113 46.799473 52.699714 L 45.699212 53.999849 C 46.200514 53.551662 46.830723 53.270728 47.499993 53.198861 C 47.399733 53.299475 47.999993 54.201076 46.399733 56.600118 C 44.799473 59.000468 44.999994 59.899455 44.999994 59.899455 Z M 42.600254 59.000468 " transform="matrix(3,0,0,2.989474,0,3.736842)"/>
<path style="fill:none;stroke-width:0.4;stroke-linecap:round;stroke-linejoin:round;stroke:rgb(0%,0%,0%);stroke-opacity:1;stroke-miterlimit:4;" d="M 39.799474 58.500014 C 39.799474 58.500014 33.700516 40.599967 34.499995 29.499821 C 35.299474 18.399675 42.600254 16.998927 45.200515 17.599994 C 47.799472 18.199755 50.600253 20.099651 52.100253 25.199576 C 53.600253 30.300809 53.700513 35.400734 51.499993 45.600586 C 49.300774 55.799131 48.600254 59.301001 48.600254 59.301001 C 48.600254 59.301001 41.899734 61.100283 39.799474 58.500014 Z M 28.899736 33.400226 C 28.899736 33.400226 29.600256 40.200127 28.700517 44.799598 C 27.800777 49.39907 29.199215 58.300094 30.999996 61.600737 " transform="matrix(3,0,0,2.989474,0,3.736842)"/>
<path style=" stroke:none;fill-rule:nonzero;fill:rgb(81.568627%,60.784314%,2.745098%);fill-opacity:1;" d="M 165.300781 188.1875 C 165.300781 188.1875 180.597656 165.769531 182.402344 157.695312 C 182.101562 157.394531 177 158.59375 176.402344 160.683594 C 178.214844 155.417969 179.621094 150.019531 180.597656 144.539062 C 180.597656 144.839844 177.300781 146.335938 176.699219 147.234375 C 179.640625 141.605469 181.667969 135.550781 182.699219 129.292969 L 183.601562 122.71875 C 183.601562 122.71875 182.699219 122.417969 179.699219 126.902344 C 180.570312 123.179688 180.972656 119.363281 180.898438 115.542969 C 180.898438 116.140625 181.800781 111.058594 181.800781 111.058594 C 180.398438 111.503906 179.148438 112.332031 178.199219 113.453125 C 179.773438 108.464844 180.980469 103.367188 181.800781 98.207031 C 180.234375 99.109375 178.980469 100.464844 178.199219 102.089844 C 178.066406 98.757812 177.5625 95.449219 176.699219 92.222656 C 174.75 94.402344 173.496094 97.105469 173.101562 99.996094 C 172.460938 105.863281 172.460938 111.773438 173.101562 117.636719 C 173.101562 117.636719 168.300781 111.65625 167.402344 111.65625 C 168.828125 115.074219 169.644531 118.71875 169.800781 122.417969 C 169.199219 126.902344 171.898438 135.574219 172.5 138.5625 C 173.101562 141.550781 166.5 133.777344 166.5 133.777344 C 168.074219 136.890625 169.183594 140.214844 169.800781 143.644531 L 170.699219 149.023438 C 170.699219 149.023438 171 148.128906 168.597656 146.632812 L 166.199219 145.4375 C 167.765625 148.101562 168.785156 151.046875 169.199219 154.109375 C 169.375 157.558594 169.976562 160.972656 171 164.269531 C 171.597656 166.367188 171.382812 168.605469 170.402344 170.546875 C 170.402344 170.546875 168.597656 165.769531 166.5 165.167969 C 166.574219 167.679688 166.878906 170.183594 167.402344 172.644531 C 167.945312 177.914062 167.226562 183.242188 165.300781 188.1875 Z M 165.300781 188.1875 "/>
<path style="fill:none;stroke-width:0.4;stroke-linecap:round;stroke-linejoin:round;stroke:rgb(0%,0%,0%);stroke-opacity:1;stroke-miterlimit:4;" d="M 44.699213 35.500041 C 44.699213 35.500041 45.499994 44.399758 44.899733 48.599389 C 44.300775 52.800327 43.600254 59.099774 43.600254 59.099774 M 58.600252 31.70025 C 58.600252 31.70025 58.100252 39.599059 58.100252 44.700292 C 58.100252 49.800217 58.800773 56.000358 54.499992 62.600338 M 25.199215 101.400542 C 25.199215 101.400542 25.799476 98.101205 22.600257 98.101205 C 19.399737 98.101205 20.098956 102.700677 22.401039 101.998996 C 23.365882 103.744705 23.124997 105.909854 21.799476 107.399455 C 19.499997 109.999725 13.399738 116.199865 13.200519 116.599706 C 12.999998 116.999546 16.999998 119.399895 19.700518 119.199975 C 22.401039 119.000055 23.499997 118.000454 25.700517 115.099651 C 27.899736 112.200154 28.899736 110.500179 30.800777 109.300657 C 31.368485 110.326392 32.595048 110.791566 33.700516 110.400872 C 35.499995 109.599884 34.800776 108.000523 34.800776 107.600682 C 34.800776 107.199535 33.598954 104.000812 29.100256 106.199934 C 29.299475 106.300547 31.199214 102.900597 29.299475 101.100008 C 27.399736 99.300726 25.199215 101.400542 25.199215 101.400542 Z M 39.399734 110.600792 C 39.399734 110.600792 37.499995 110.400872 37.699213 108.69959 C 37.695307 108.265776 37.881505 107.848949 38.207026 107.562789 C 38.533849 107.274015 38.968745 107.142042 39.399734 107.199535 C 39.399734 107.199535 40.499994 106.999615 40.899734 109.100737 C 40.999994 109.300657 40.600255 106.700388 42.600254 105.800094 C 44.600254 104.899799 44.899733 108.69959 44.200515 109.300657 C 43.499994 109.900418 46.999993 105.200333 50.300774 108.000523 C 51.268222 108.50751 51.815097 109.564604 51.669264 110.646526 C 51.524732 111.729754 50.720045 112.606528 49.652337 112.841728 C 48.587233 113.076928 47.486973 112.620901 46.899733 111.701007 C 46.065098 113.538182 45.526035 115.494264 45.300775 117.5 C 45.268223 119.895123 43.476556 121.900858 41.100255 122.200085 C 38.299474 122.599926 36.200516 122.599926 35.699214 120.999257 C 35.200516 119.399895 38.299474 117.600613 38.999995 114.89973 C 39.417963 113.506822 39.554682 112.045967 39.399734 110.600792 Z M 57.700513 109.300657 C 57.700513 109.300657 57.499992 111.701007 54.899732 110.500179 C 52.299472 109.300657 53.299472 105.69948 55.299471 105.300946 C 57.299471 104.899799 57.899731 105.69948 57.899731 105.69948 C 57.899731 105.69948 57.100252 103.299131 58.299471 101.701076 C 58.399731 101.800382 59.999992 101.199315 61.299471 103.700278 C 61.299471 103.700278 60.899731 99.300726 64.100251 99.69926 C 67.29947 100.100407 66.200512 104.300039 63.899731 103.500358 C 64.548168 107.246575 66.092439 110.778499 68.39973 113.799516 C 71.99999 118.499601 72.399729 118.900748 72.399729 118.900748 C 72.399729 118.900748 68.39973 121.099871 64.499991 120.199576 C 62.59895 119.699122 61.999991 119.599816 60.800773 117.399387 C 59.600252 115.200264 57.700513 109.300657 57.700513 109.300657 Z M 13.200519 116.599706 C 13.200519 116.599706 21.499997 112.599994 23.700518 117.199466 M 44.899733 119.399895 C 44.899733 119.399895 44.600254 115.899332 35.699214 120.999257 M 61.399731 118.299681 C 64.29947 113.399675 72.399729 118.900748 72.399729 118.900748 " transform="matrix(3,0,0,2.989474,0,3.736842)"/>
<path style=" stroke:none;fill-rule:nonzero;fill:rgb(98.431373%,76.078431%,9.803922%);fill-opacity:1;" d="M 98.101562 230.039062 C 99.476562 234.066406 101.394531 237.886719 103.796875 241.398438 C 107.097656 244.691406 117.898438 255.152344 119.398438 258.738281 C 120.898438 262.328125 124.5 268.605469 130.800781 268.304688 C 135.578125 267.988281 139.972656 265.582031 142.800781 261.730469 C 146.644531 256.285156 151.070312 251.273438 156 246.78125 C 159.84375 243.382812 162.914062 239.203125 165 234.523438 C 166.800781 230.039062 174.597656 215.089844 174.597656 213.597656 C 174.597656 212.101562 165.898438 186.09375 165.898438 186.09375 L 146.398438 174.734375 L 109.199219 178.023438 L 96.898438 187.589844 L 93 207.917969 L 90.300781 215.691406 Z M 98.101562 230.039062 "/>
<path style=" stroke:none;fill-rule:nonzero;fill:rgb(81.568627%,60.784314%,2.745098%);fill-opacity:1;" d="M 148.800781 182.207031 L 147.296875 182.207031 C 149.089844 187.765625 150.394531 193.464844 151.203125 199.25 C 151.203125 201.667969 151.507812 204.078125 152.101562 206.425781 L 151.5 209.414062 L 152.101562 210.011719 L 155.101562 211.503906 C 155.398438 211.804688 154.203125 213 154.5 213.300781 C 154.800781 213.597656 152.699219 214.496094 153 214.496094 L 150.902344 216.289062 L 153.296875 216.289062 C 155.101562 216.585938 156 215.988281 157.203125 216.289062 C 157.53125 216.289062 157.800781 216.554688 157.800781 216.886719 L 151.5 220.773438 C 150.984375 227.0625 149.148438 233.175781 146.101562 238.710938 C 147.84375 241.46875 149.347656 244.367188 150.597656 247.378906 L 152.699219 249.46875 L 161.101562 240.503906 L 162.597656 238.410156 C 163.800781 236.320312 164.699219 234.222656 165.597656 232.433594 L 166.5 230.335938 C 165.933594 229.554688 165.621094 228.613281 165.597656 227.648438 C 165.300781 227.347656 165.597656 226.75 165.597656 226.453125 L 162.597656 226.453125 L 161.398438 224.957031 L 163.203125 222.566406 L 166.199219 221.671875 L 168.300781 220.773438 L 170.101562 219.574219 L 171.300781 217.785156 L 171.898438 216.289062 C 172.855469 214.5 172.488281 212.292969 171 210.910156 L 169.199219 210.910156 L 167.699219 211.503906 C 166.742188 212.304688 166.382812 213.617188 166.800781 214.796875 L 164.699219 213.300781 C 163.460938 213.195312 162.296875 212.667969 161.398438 211.804688 L 160.203125 210.910156 C 158.683594 208.042969 158.464844 204.671875 159.597656 201.640625 C 158.421875 199.957031 157.699219 198 157.5 195.960938 C 157.054688 194.5 156.753906 192.996094 156.597656 191.476562 L 154.800781 194.167969 L 154.800781 192.074219 C 152.066406 189.75 150.171875 186.601562 149.398438 183.105469 C 149.398438 182.507812 149.101562 182.507812 148.800781 182.207031 M 142.800781 262.027344 L 146.699219 256.046875 L 143.101562 250.667969 C 142.863281 256.125 140.496094 261.277344 136.5 265.015625 L 134.699219 266.8125 C 137.863281 266.167969 140.714844 264.480469 142.800781 262.027344 M 105 227.347656 L 104.699219 227.347656 L 107.402344 235.71875 C 107.703125 236.320312 110.402344 240.804688 111 242.296875 C 111.496094 242.296875 111.898438 241.894531 111.898438 241.398438 C 111.613281 240.957031 111.507812 240.425781 111.601562 239.90625 C 111.5625 238.800781 111.667969 237.699219 111.898438 236.617188 C 111.898438 236.019531 113.398438 228.246094 113.398438 227.648438 C 113.398438 227.050781 113.398438 226.152344 112.800781 226.152344 L 105.898438 225.257812 L 105.300781 225.257812 C 105.601562 225.558594 105.300781 227.050781 105 227.347656 Z M 105 227.347656 "/>
<path style="fill:none;stroke-width:0.37;stroke-linecap:round;stroke-linejoin:round;stroke:rgb(0%,0%,0%);stroke-opacity:1;stroke-miterlimit:4;" d="M 32.700516 75.699686 C 33.15885 77.046861 33.798172 78.324783 34.598953 79.499477 C 35.699214 80.600999 39.299474 84.100256 39.799474 85.299777 C 40.299474 86.500605 41.499994 88.600421 43.600254 88.499807 C 45.192702 88.393967 46.657546 87.58906 47.600254 86.300685 C 48.881504 84.47919 50.356764 82.802734 51.999993 81.300066 C 53.281243 80.163265 54.30468 78.76513 54.999992 77.199741 C 55.600253 75.699686 58.199211 70.699067 58.199211 70.19992 C 58.199211 69.699466 55.299471 60.99967 55.299471 60.99967 L 48.799472 57.199879 L 36.399734 58.300094 L 32.299475 61.500124 L 30.999996 68.300025 L 30.100256 70.900294 Z M 32.700516 75.699686 " transform="matrix(3,0,0,2.989474,0,3.736842)"/>
<path style=" stroke:none;fill-rule:nonzero;fill:rgb(0%,0%,0%);fill-opacity:1;" d="M 122.699219 250.070312 L 134.097656 248.871094 L 139.800781 250.367188 L 139.199219 252.757812 L 129.601562 252.460938 L 123.300781 252.460938 Z M 122.699219 250.070312 "/>
<path style="fill-rule:nonzero;fill:rgb(98.431373%,76.078431%,9.803922%);fill-opacity:1;stroke-width:0.37;stroke-linecap:round;stroke-linejoin:round;stroke:rgb(0%,0%,0%);stroke-opacity:1;stroke-miterlimit:4;" d="M 44.699213 56.800039 L 41.799473 56.299585 C 40.348953 55.988598 38.83463 56.278678 37.600255 57.099266 C 36.664057 56.935932 35.70312 57.005185 34.800776 57.299186 C 34.700516 57.399799 34.800776 57.199879 35.598953 57.700333 C 34.520829 58.045293 33.529943 58.626761 32.700516 59.399001 C 32.598954 59.499615 33.399735 59.301001 33.899735 59.399001 C 32.59635 59.899455 31.700516 61.108123 31.600256 62.499725 C 32.204423 62.512792 32.779943 62.764979 33.200516 63.200099 C 33.299475 63.100792 34.200516 60.601136 35.399735 60.199989 C 35.52213 61.157777 35.756505 62.097271 36.100255 63.000179 C 36.100255 62.900872 36.598953 63.000179 37.100255 62.400418 C 37.600255 61.800657 37.699213 63.100792 37.699213 63.100792 C 38.214838 62.638232 38.65364 62.098578 38.999995 61.500124 C 39.368484 61.841164 39.770828 62.141698 40.200515 62.400418 C 40.299474 62.499725 40.899734 61.999271 41.100255 61.600737 C 41.300775 61.19959 41.200515 62.099884 42.999994 62.199191 C 43.989577 62.099884 44.876296 61.545857 45.399733 60.699136 C 45.497389 61.16431 45.743483 61.585057 46.100254 61.899964 C 46.578118 61.45831 46.864577 60.849403 46.899733 60.199989 C 47.200514 58.899854 48.600254 60.601136 48.600254 60.601136 L 49.098951 60.99967 C 49.499993 61.19959 48.700514 59.600228 49.399733 59.499615 C 50.098951 59.399001 49.600253 61.300204 51.401034 62.800259 C 51.499993 62.800259 51.600253 63.400019 51.499993 63.900473 C 51.401034 64.39962 52.199211 63.499326 52.299472 63.000179 C 52.401034 62.499725 53.299472 64.300314 53.299472 64.300314 L 53.700513 62.400418 C 53.705722 61.590284 53.605461 60.78407 53.401034 60.000069 C 54.026034 60.68607 54.59244 61.421724 55.100253 62.199191 C 55.401034 61.824177 55.667961 61.421724 55.899732 60.99967 C 55.324211 59.749188 54.382805 58.703854 53.199211 58.000867 C 51.098951 56.500812 49.399733 55.899744 48.399733 56.200278 C 47.192702 56.537398 45.951816 56.738625 44.699213 56.800039 Z M 44.699213 56.800039 " transform="matrix(3,0,0,2.989474,0,3.736842)"/>
<path style="fill-rule:nonzero;fill:rgb(98.431373%,76.078431%,9.803922%);fill-opacity:1;stroke-width:0.37;stroke-linecap:round;stroke-linejoin:round;stroke:rgb(0%,0%,0%);stroke-opacity:1;stroke-miterlimit:4;" d="M 30.899735 62.199191 C 30.703121 63.363433 30.992183 64.556421 31.700516 65.499835 C 31.186194 65.275088 30.651037 65.106528 30.100256 64.999381 C 30.210933 65.699755 30.5651 66.336103 31.100256 66.79997 C 31.100256 66.899277 32.598954 66.400129 33.299475 67.19981 C 33.855464 67.807411 34.089839 68.642372 33.932287 69.452506 C 33.774735 70.260027 33.243485 70.944721 32.499995 71.300135 C 32.499995 71.199521 35.399735 71.199521 35.499995 67.599651 C 35.888016 67.099197 36.162755 66.519036 36.299474 65.899675 C 35.885412 65.716742 35.414058 65.716742 34.999995 65.899675 C 34.299474 66.200209 36.399734 65.099994 36.100255 63.000179 C 35.951818 62.047618 35.717443 61.10943 35.399735 60.199989 C 34.268224 60.836336 33.466141 61.930018 33.200516 63.200099 C 32.667964 62.477512 31.79036 62.097271 30.899735 62.199191 Z M 52.999993 59.399001 C 52.777336 60.627269 52.811191 61.886898 53.100253 63.100792 C 53.100253 63.299406 51.999993 62.199191 51.999993 62.199191 C 51.901034 63.657433 52.213534 65.111755 52.899732 66.400129 C 52.999993 66.60005 52.199211 70.100613 55.600253 70.500454 C 54.778638 69.844506 54.602857 68.665892 55.199211 67.800878 C 55.377596 67.31741 55.776034 66.947623 56.270825 66.810423 C 56.765617 66.67061 57.298169 66.78037 57.700513 67.099197 C 57.700513 67.099197 58.100252 66.899277 58.199211 65.600448 C 58.299471 64.300314 58.100252 65.299915 57.199211 65.499835 C 57.6927 64.832128 57.971346 64.029833 57.999992 63.200099 C 57.999992 63.100792 57.399732 62.800259 56.399732 63.400019 C 55.399732 63.99978 57.299471 60.199989 52.999993 59.399001 Z M 52.999993 59.399001 " transform="matrix(3,0,0,2.989474,0,3.736842)"/>
<path style="fill:none;stroke-width:0.37;stroke-linecap:round;stroke-linejoin:round;stroke:rgb(0%,0%,0%);stroke-opacity:1;stroke-miterlimit:4;" d="M 36.901037 68.499945 C 37.076818 67.891038 37.507807 67.38797 38.082026 67.118797 C 38.657547 66.852236 39.319005 66.844396 39.901036 67.099197 C 42.200515 67.800878 42.899734 66.899277 42.899734 66.899277 C 42.899734 66.899277 42.200515 67.700264 42.899734 69.60016 C 43.212234 70.636347 43.315098 71.723495 43.200515 72.80019 L 42.999994 73.900404 C 42.999994 73.900404 41.999994 73.39995 41.399734 73.999711 C 40.799473 74.599472 40.799473 74.900006 41.399734 75.400459 C 41.658848 75.610833 41.970046 75.748033 42.300775 75.798993 C 42.484369 76.134807 42.720046 76.439261 42.999994 76.700594 C 43.756504 76.850861 44.52864 76.917501 45.300775 76.899208 L 46.799473 75.798993 C 47.799472 75.099926 47.999993 74.500165 47.799472 73.900404 C 47.600254 73.299337 46.600254 73.299337 45.899733 73.799791 L 45.300775 74.200938 L 45.300775 70.999601 M 51.899732 68.300025 C 51.899732 68.300025 51.098951 66.700663 48.799472 67.39973 C 46.499994 68.100105 46.399733 67.300424 46.399733 67.300424 C 46.686191 68.326158 46.615879 69.418533 46.200514 70.39984 " transform="matrix(3,0,0,2.989474,0,3.736842)"/>
<path style="fill:none;stroke-width:0.37;stroke-linecap:round;stroke-linejoin:round;stroke:rgb(0%,0%,0%);stroke-opacity:1;stroke-miterlimit:4;" d="M 43.399734 75.400459 C 43.399734 75.400459 43.699213 76.20014 44.200515 76.20014 C 44.699213 76.20014 45.399733 75.60038 45.399733 75.299846 M 41.600255 75.60038 C 41.600255 75.60038 41.499994 76.099527 40.299474 76.700594 C 39.100255 77.300355 38.799474 77.599582 38.799474 77.599582 M 47.300775 75.60038 C 47.880202 76.2903 48.552077 76.895288 49.300774 77.399662 " transform="matrix(3,0,0,2.989474,0,3.736842)"/>
<path style="fill-rule:nonzero;fill:rgb(98.431373%,76.078431%,9.803922%);fill-opacity:1;stroke-width:0.37;stroke-linecap:round;stroke-linejoin:round;stroke:rgb(0%,0%,0%);stroke-opacity:1;stroke-miterlimit:4;" d="M 34.299474 83.399882 C 34.690099 84.335456 35.587235 84.96135 36.598953 85.00055 C 38.299474 85.099857 40.600255 83.799722 41.999994 80.199851 " transform="matrix(3,0,0,2.989474,0,3.736842)"/>
<path style="fill-rule:nonzero;fill:rgb(98.431373%,76.078431%,9.803922%);fill-opacity:1;stroke-width:0.37;stroke-linecap:round;stroke-linejoin:round;stroke:rgb(0%,0%,0%);stroke-opacity:1;stroke-miterlimit:4;" d="M 42.899734 76.799901 C 41.544265 76.713661 40.273432 77.468915 39.699213 78.699796 C 38.600255 80.900226 38.399734 81.999133 36.800776 82.600201 C 35.200516 83.199961 34.100256 82.800121 33.800777 82.400281 C 33.499995 81.999133 34.100256 83.999642 35.999995 83.999642 C 37.901036 83.999642 40.299474 81.999133 41.100255 79.398864 M 52.999993 84.599403 C 52.999993 84.599403 49.700514 85.899538 48.200514 83.499188 C 47.380202 82.248707 46.709629 80.905452 46.200514 79.499477 C 41.999994 80.500385 41.499994 79.800011 41.499994 79.800011 " transform="matrix(3,0,0,2.989474,0,3.736842)"/>
<path style="fill-rule:nonzero;fill:rgb(98.431373%,76.078431%,9.803922%);fill-opacity:1;stroke-width:0.37;stroke-linecap:round;stroke-linejoin:round;stroke:rgb(0%,0%,0%);stroke-opacity:1;stroke-miterlimit:4;" d="M 45.699212 76.700594 C 45.699212 76.700594 47.499993 76.20014 49.200514 79.699398 C 50.899732 83.199961 52.499993 83.900336 54.199211 83.999642 C 53.899732 83.999642 51.700514 85.600311 49.300774 82.700814 " transform="matrix(3,0,0,2.989474,0,3.736842)"/>
<path style="fill:none;stroke-width:0.37;stroke-linecap:round;stroke-linejoin:round;stroke:rgb(0%,0%,0%);stroke-opacity:1;stroke-miterlimit:4;" d="M 41.799473 80.698999 C 41.799473 80.698999 43.499994 79.499477 46.499994 80.500385 M 40.899734 82.600201 C 41.016921 83.116335 41.257807 83.595882 41.600255 83.999642 C 42.200515 84.500096 45.300775 84.500096 45.699212 84.100256 C 46.368483 83.436468 46.851556 82.608041 47.098952 81.699906 M 41.200515 83.299268 C 41.200515 83.299268 45.600254 83.000041 46.300775 83.299268 M 40.999994 82.400281 C 42.869786 81.83972 44.873692 81.91028 46.700514 82.600201 M 45.799473 81.400679 C 45.899733 80.900226 45.799473 81.400679 45.699212 82.099747 M 44.600254 80.199851 C 44.71614 80.765639 44.680983 81.351026 44.499994 81.899827 M 42.799473 80.399772 C 43.015619 80.833585 43.118484 81.315746 43.100254 81.80052 M 41.600255 81.300066 C 41.600255 81.300066 41.799473 81.400679 41.799473 82.199054 " transform="matrix(3,0,0,2.989474,0,3.736842)"/>
<path style="fill-rule:nonzero;fill:rgb(98.431373%,76.078431%,9.803922%);fill-opacity:1;stroke-width:0.37;stroke-linecap:round;stroke-linejoin:round;stroke:rgb(0%,0%,0%);stroke-opacity:1;stroke-miterlimit:4;" d="M 32.299475 71.199521 C 32.911454 71.015281 33.423172 70.595841 33.722652 70.03136 C 34.023433 69.469493 34.087235 68.809625 33.899735 68.199411 C 33.499995 65.699755 30.800777 66.79997 30.499996 67.19981 C 29.703121 67.739464 29.171871 68.591412 29.039058 69.545279 C 28.904944 70.497841 29.180986 71.462162 29.800777 72.199122 C 30.802079 73.512324 31.671871 74.918299 32.399735 76.400061 C 32.399735 76.799901 33.700516 75.60038 33.700516 75.60038 L 32.499995 73.999711 L 33.899735 75.60038 C 34.563797 75.158726 35.085933 74.534138 35.399735 73.799791 C 34.164058 73.704404 32.983068 73.253604 31.999996 72.499656 C 30.700517 71.300135 31.100256 70.39984 31.199214 70.100613 C 31.299475 69.80008 32.399735 69.899387 32.399735 69.899387 M 55.499992 70.39984 C 55.499992 70.39984 53.799472 68.000798 55.999992 66.899277 C 58.199211 65.799062 59.19921 68.800479 58.999992 69.899387 C 58.800773 70.999601 57.199211 73.20003 56.899732 73.999711 C 56.600253 74.799392 56.499992 76.899208 56.499992 76.899208 C 56.499992 76.899208 54.999992 76.299447 54.899732 75.899607 C 54.799472 75.501073 56.199211 73.799791 56.199211 73.799791 L 54.700513 75.798993 C 54.700513 75.798993 53.299472 74.500165 53.299472 73.700484 C 53.299472 72.900803 56.399732 72.699576 56.999992 71.699975 C 57.600252 70.699067 57.700513 69.398933 57.199211 69.099706 C 56.700513 68.800479 55.999992 69.300933 55.999992 69.300933 " transform="matrix(3,0,0,2.989474,0,3.736842)"/>
<path style="fill:none;stroke-width:0.37;stroke-linecap:round;stroke-linejoin:round;stroke:rgb(0%,0%,0%);stroke-opacity:1;stroke-miterlimit:4;" d="M 57.199211 67.700264 C 57.199211 67.700264 58.100252 67.700264 58.399731 69.000399 M 32.200516 67.700264 C 32.200516 67.700264 32.800777 67.599651 33.200516 68.800479 M 41.200515 68.899785 C 40.593744 68.520852 39.910151 68.281731 39.200515 68.199411 C 38.401036 68.333998 37.664057 68.718159 37.100255 69.300933 M 51.899732 70.300534 C 51.115878 70.490001 50.305983 70.556641 49.499993 70.500454 L 47.098952 70.500454 C 47.386712 69.65504 48.118483 69.038292 48.999993 68.899785 C 51.199212 68.699865 50.799472 69.699466 51.899732 70.300534 Z M 51.899732 70.300534 " transform="matrix(3,0,0,2.989474,0,3.736842)"/>
<path style="fill:none;stroke-width:0.37;stroke-linecap:round;stroke-linejoin:round;stroke:rgb(0%,0%,0%);stroke-opacity:1;stroke-miterlimit:4;" d="M 37.399734 70.699067 C 38.148432 70.902908 38.927078 70.972161 39.699213 70.900294 L 41.899734 70.900294 C 41.694005 69.986933 40.930984 69.303546 39.999994 69.200319 C 37.901036 69.000399 38.100255 70.100613 37.399734 70.699067 Z M 48.600254 68.300025 C 48.600254 68.300025 48.999993 67.900184 50.300774 68.300025 C 50.903639 68.481652 51.476555 68.750825 51.999993 69.099706 " transform="matrix(3,0,0,2.989474,0,3.736842)"/>
<path style="fill-rule:nonzero;fill:rgb(0%,0%,0%);fill-opacity:1;stroke-width:0.37;stroke-linecap:round;stroke-linejoin:round;stroke:rgb(0%,0%,0%);stroke-opacity:1;stroke-miterlimit:4;" d="M 40.399734 69.499546 C 40.699213 69.699466 40.200515 70.300534 39.600255 70.39984 C 38.999995 70.500454 38.499995 69.499546 38.499995 69.499546 C 39.074213 69.112772 39.826817 69.112772 40.399734 69.499546 Z M 50.098951 69.099706 C 50.499993 69.699466 49.999993 70 49.098951 70.100613 C 48.200514 70.19992 48.300774 69.398933 48.399733 69.300933 C 48.499993 69.200319 49.799472 68.699865 50.098951 69.099706 Z M 50.098951 69.099706 " transform="matrix(3,0,0,2.989474,0,3.736842)"/>
<path style="fill:none;stroke-width:0.37;stroke-linecap:round;stroke-linejoin:round;stroke:rgb(0%,0%,0%);stroke-opacity:1;stroke-miterlimit:4;" d="M 46.600254 68.800479 C 46.600254 68.800479 47.399733 69.000399 47.499993 68.399332 " transform="matrix(3,0,0,2.989474,0,3.736842)"/>
<path style="fill-rule:nonzero;fill:rgb(0%,0%,0%);fill-opacity:1;stroke-width:0.37;stroke-linecap:round;stroke-linejoin:round;stroke:rgb(0%,0%,0%);stroke-opacity:1;stroke-miterlimit:4;" d="M 42.399734 68.599252 C 42.213536 68.660665 42.011713 68.642372 41.84114 68.546985 C 41.669265 68.451598 41.545567 68.289571 41.499994 68.100105 " transform="matrix(3,0,0,2.989474,0,3.736842)"/>
<path style=" stroke:none;fill-rule:nonzero;fill:rgb(100%,100%,100%);fill-opacity:1;" d="M 117.601562 212.101562 C 117.601562 212.597656 117.199219 213 116.703125 213 C 116.203125 213 115.800781 212.597656 115.800781 212.101562 C 115.800781 211.609375 116.203125 211.203125 116.703125 211.203125 C 117.199219 211.203125 117.601562 211.609375 117.601562 212.101562 Z M 117.601562 212.101562 "/>
<path style=" stroke:none;fill-rule:nonzero;fill:rgb(100%,100%,100%);fill-opacity:1;" d="M 147 211.503906 C 147 212 146.597656 212.402344 146.101562 212.402344 C 145.601562 212.402344 145.199219 212 145.199219 211.503906 C 145.199219 211.011719 145.601562 210.609375 146.101562 210.609375 C 146.597656 210.609375 147 211.011719 147 211.503906 Z M 147 211.503906 "/>
</g>
</svg>
