<?xml version="1.0" encoding="UTF-8"?>
<svg xmlns="http://www.w3.org/2000/svg" xmlns:xlink="http://www.w3.org/1999/xlink" width="261px" height="420px" viewBox="0 0 261 426" version="1.1">
<g id="surface1">
<path style=" stroke:none;fill-rule:nonzero;fill:rgb(100%,100%,100%);fill-opacity:1;" d="M 18 3.738281 L 243 3.738281 C 252.941406 3.738281 261 11.769531 261 21.671875 L 261 404.328125 C 261 414.230469 252.941406 422.261719 243 422.261719 L 18 422.261719 C 8.058594 422.261719 0 414.230469 0 404.328125 L 0 21.671875 C 0 11.769531 8.058594 3.738281 18 3.738281 Z M 18 3.738281 "/>
<path style=" stroke:none;fill-rule:nonzero;fill:rgb(19.607843%,34.117647%,13.72549%);fill-opacity:1;" d="M 219.300781 79.96875 C 219.300781 79.96875 230.398438 63.226562 214.800781 52.765625 C 199.199219 42.300781 172.800781 67.113281 166.800781 100.894531 C 160.800781 134.675781 160.800781 137.964844 160.800781 137.964844 L 168 150.519531 Z M 219.300781 79.96875 "/>
<path style=" stroke:none;fill-rule:nonzero;fill:rgb(5.098039%,22.745098%,7.058824%);fill-opacity:1;" d="M 214.800781 52.464844 C 199.199219 42.003906 172.800781 66.8125 166.800781 100.59375 C 160.800781 134.375 160.800781 137.367188 160.800781 137.367188 L 169.800781 150.222656 C 176.101562 126.304688 173.402344 68.308594 214.800781 52.464844 Z M 214.800781 52.464844 "/>
<path style=" stroke:none;fill-rule:nonzero;fill:rgb(100%,0%,0%);fill-opacity:1;" d="M 179.402344 153.210938 C 179.402344 153.210938 183.300781 140.355469 188.101562 134.675781 C 188.101562 134.976562 177.898438 136.171875 174 140.058594 L 169.800781 144.839844 L 174.597656 158.292969 Z M 179.402344 153.210938 "/>
<path style=" stroke:none;fill-rule:nonzero;fill:rgb(59.607843%,3.137255%,1.960784%);fill-opacity:1;" d="M 184.796875 140.355469 C 183.949219 140.789062 183.039062 141.085938 182.101562 141.25 C 178.691406 141.878906 175.980469 144.464844 175.199219 147.828125 L 176.402344 149.324219 C 177 150.222656 177.300781 150.519531 177.300781 151.121094 C 177.566406 152.960938 177.253906 154.839844 176.402344 156.5 L 177 156.5 C 176.972656 156.171875 177.082031 155.847656 177.300781 155.601562 L 177.300781 155.007812 L 178.5 154.40625 L 179.402344 153.808594 L 180.597656 149.625 L 181.800781 147.53125 C 182.136719 146.035156 182.75 144.621094 183.601562 143.347656 C 183.800781 142.320312 184.105469 141.320312 184.5 140.355469 "/>
<path style=" stroke:none;fill-rule:nonzero;fill:rgb(98.431373%,76.078431%,9.803922%);fill-opacity:1;" d="M 219.300781 79.96875 C 219.300781 79.96875 222.300781 91.925781 213.601562 98.804688 C 215.871094 99.09375 218.175781 98.671875 220.199219 97.605469 C 220.199219 97.605469 220.800781 100.59375 216.300781 104.183594 C 213.503906 106.304688 210.1875 107.644531 206.703125 108.070312 C 208.71875 107.917969 210.75 108.121094 212.699219 108.667969 C 212.699219 108.667969 209.097656 114.644531 196.796875 120.027344 C 199.296875 120.292969 201.679688 121.226562 203.703125 122.71875 C 203.703125 123.015625 192.300781 127.800781 189.300781 129.890625 L 196.796875 129.890625 C 195.265625 131.582031 193.289062 132.820312 191.101562 133.480469 C 187.199219 134.324219 183.378906 135.527344 179.699219 137.066406 C 176.3125 138.828125 173.183594 141.039062 170.402344 143.644531 C 170.402344 143.644531 168.300781 141.550781 169.800781 136.46875 C 171.300781 131.386719 175.5 126.902344 174 119.730469 C 174 119.730469 177.597656 120.625 177.597656 123.316406 C 177.539062 117.984375 178.558594 112.695312 180.597656 107.769531 C 182.007812 109.46875 183.121094 111.390625 183.898438 113.453125 C 184.199219 113.453125 182.699219 102.390625 188.699219 93.71875 C 190.738281 95.597656 192.015625 98.148438 192.300781 100.894531 C 193.296875 95.792969 195.804688 91.109375 199.5 87.445312 C 199.5 88.039062 201 93.71875 201 93.71875 C 201 93.71875 207.300781 80.269531 219.300781 79.96875 Z M 219.300781 79.96875 "/>
<path style=" stroke:none;fill-rule:nonzero;fill:rgb(81.568627%,60.784314%,2.745098%);fill-opacity:1;" d="M 171.898438 140.355469 C 175.921875 135.976562 180.339844 131.972656 185.101562 128.398438 C 187.320312 127.308594 189.628906 126.40625 192 125.707031 C 190.882812 124.628906 189.351562 124.085938 187.796875 124.214844 C 184.796875 124.511719 192 118.832031 197.703125 114.644531 C 203.398438 110.460938 203.703125 109.566406 203.703125 109.566406 L 199.5 109.566406 C 199.5 109.566406 208.5 103.585938 210.300781 97.007812 C 210.980469 94.152344 211.882812 91.351562 213 88.636719 C 213 88.636719 203.097656 93.71875 200.097656 98.207031 L 198.898438 100.296875 L 198.898438 96.710938 C 198.898438 96.710938 193.796875 104.480469 192.300781 107.769531 L 190.5 111.65625 L 188.699219 108.367188 C 188.246094 110.859375 187.4375 113.277344 186.300781 115.542969 C 184.796875 117.636719 183.300781 120.328125 183.300781 120.328125 C 183.152344 118.777344 182.75 117.261719 182.101562 115.84375 C 180.921875 121.164062 179.003906 126.292969 176.402344 131.089844 C 174.339844 133.875 172.816406 137.015625 171.898438 140.355469 Z M 171.898438 140.355469 "/>
<path style="fill:none;stroke-width:0.4;stroke-linecap:round;stroke-linejoin:round;stroke:rgb(0%,0%,0%);stroke-opacity:1;stroke-miterlimit:4;" d="M 56.800773 46.899414 C 58.256502 43.306077 60.514314 40.090366 63.399731 37.50055 C 65.675772 35.551001 67.634105 33.255185 69.200511 30.699343 " transform="matrix(3,0,0,2.989474,0,3.736842)"/>
<path style=" stroke:none;fill-rule:nonzero;fill:rgb(100%,0%,0%);fill-opacity:1;" d="M 161.699219 148.425781 C 160.386719 150.1875 158.089844 150.910156 156 150.222656 C 152.398438 148.726562 151.800781 139.460938 159.597656 137.964844 C 167.402344 136.46875 168.300781 145.4375 168 146.632812 C 169.265625 144.789062 171.492188 143.855469 173.699219 144.242188 C 177.597656 145.136719 179.402344 148.726562 176.402344 155.898438 C 177.472656 154.414062 179.117188 153.445312 180.9375 153.21875 C 182.757812 152.992188 184.59375 153.527344 186 154.707031 C 191.101562 158.59375 185.699219 166.660156 180 163.972656 C 177.625 172.472656 178.152344 181.515625 181.5 189.679688 C 181.5 189.679688 170.699219 189.679688 164.398438 184.300781 C 158.101562 178.917969 159.898438 169.054688 159.898438 167.558594 C 162.8125 161.613281 163.453125 154.8125 161.699219 148.425781 Z M 161.699219 148.425781 "/>
<path style=" stroke:none;fill-rule:nonzero;fill:rgb(59.607843%,3.137255%,1.960784%);fill-opacity:1;" d="M 161.398438 180.714844 C 163.378906 183.652344 166.367188 185.777344 169.800781 186.691406 L 172.5 187.890625 L 180.597656 189.382812 L 182.101562 189.382812 C 178.699219 184.308594 174.777344 179.601562 170.402344 175.332031 C 169.339844 173.863281 167.882812 172.722656 166.199219 172.042969 C 171.597656 163.671875 168.898438 155.601562 162 148.425781 C 164.699219 157.695312 159.300781 166.066406 159.898438 172.34375 C 160.128906 175.175781 160.628906 177.976562 161.398438 180.714844 Z M 161.398438 180.714844 "/>
<path style="fill:none;stroke-width:0.4;stroke-linecap:round;stroke-linejoin:round;stroke:rgb(0%,0%,0%);stroke-opacity:1;stroke-miterlimit:4;" d="M 53.899732 48.399469 C 53.462232 48.988776 52.696607 49.23051 51.999993 49.000536 C 50.799472 48.500083 50.600253 45.400666 53.199211 44.900212 C 55.800773 44.399758 56.100253 47.399868 55.999992 47.799708 C 56.421867 47.182961 57.164055 46.870667 57.899731 47.000028 C 59.19921 47.299255 59.800773 48.500083 58.800773 50.899125 C 59.157544 50.402591 59.705721 50.078538 60.312492 50.002751 C 60.919262 49.926964 61.531241 50.105978 61.999991 50.500591 C 63.700512 51.800726 61.899731 54.498996 59.999992 53.600008 C 59.208325 56.443318 59.384106 59.468255 60.499992 62.199191 C 60.499992 62.199191 56.899732 62.199191 54.799472 60.399909 C 52.700513 58.599321 53.299472 55.299983 53.299472 54.79953 C 53.299472 54.300382 54.799472 51.399579 53.899732 48.399469 Z M 62.800772 43.799997 C 61.479158 45.681599 60.497387 47.780108 59.899731 50.000138 " transform="matrix(3,0,0,2.989474,0,3.736842)"/>
<path style="fill:none;stroke-width:0.4;stroke-linecap:round;stroke-linejoin:round;stroke:rgb(0%,0%,0%);stroke-opacity:1;stroke-miterlimit:4;" d="M 73.10025 25.50011 C 73.10025 25.50011 74.10025 29.499821 71.200511 31.800864 C 71.957021 31.897557 72.72525 31.756437 73.399729 31.399717 C 73.399729 31.399717 73.60025 32.399318 72.10025 33.600146 C 71.167959 34.309667 70.06249 34.757854 68.901032 34.900281 C 69.572907 34.849321 70.24999 34.917267 70.89973 35.100201 C 70.89973 35.100201 69.699209 37.099403 65.598949 38.899992 C 66.432282 38.988845 67.226553 39.301139 67.901032 39.800286 C 67.901032 39.899593 64.100251 41.500261 63.100252 42.199329 L 65.598949 42.199329 C 65.088533 42.765116 64.429678 43.17933 63.700512 43.400157 C 62.399731 43.682397 61.126294 44.084851 59.899731 44.599678 C 58.770825 45.188985 57.727857 45.92856 56.800773 46.800107 C 56.800773 46.800107 56.100253 46.099733 56.600253 44.399758 C 57.100252 42.699783 58.499992 41.199728 57.999992 38.800685 C 57.999992 38.800685 59.19921 39.099912 59.19921 40.000206 C 59.179679 38.216604 59.519523 36.447376 60.19921 34.799667 C 60.669262 35.368068 61.040356 36.010949 61.299471 36.700869 C 61.399731 36.700869 60.899731 33.000385 62.899731 30.099582 C 63.579418 30.728089 64.005199 31.581344 64.100251 32.499931 C 64.432283 30.793423 65.26822 29.225421 66.499991 28.001073 C 66.499991 28.199686 66.999991 30.099582 66.999991 30.099582 C 66.999991 30.099582 69.100251 25.600723 73.10025 25.50011 Z M 73.10025 25.50011 " transform="matrix(3,0,0,2.989474,0,3.736842)"/>
<path style="fill:none;stroke-width:0.4;stroke-linecap:round;stroke-linejoin:round;stroke:rgb(0%,0%,0%);stroke-opacity:1;stroke-miterlimit:4;" d="M 73.10025 25.50011 C 73.10025 25.50011 76.799468 19.89973 71.60025 16.400473 C 66.39973 12.899909 57.600252 21.199865 55.600253 32.499931 C 53.600253 43.799997 53.600253 44.700292 53.600253 44.700292 M 60.700512 62.199191 C 60.700512 62.199191 55.800773 54.399689 53.299472 56.200278 " transform="matrix(3,0,0,2.989474,0,3.736842)"/>
<path style=" stroke:none;fill-rule:nonzero;fill:rgb(19.607843%,34.117647%,13.72549%);fill-opacity:1;" d="M 41.699219 79.96875 C 41.699219 79.96875 30.601562 63.226562 46.199219 52.765625 C 61.800781 42.300781 88.5 66.8125 94.5 100.59375 C 100.5 134.375 100.796875 137.367188 100.796875 137.367188 L 93.597656 150.222656 Z M 41.699219 79.96875 "/>
<path style=" stroke:none;fill-rule:nonzero;fill:rgb(5.098039%,22.745098%,7.058824%);fill-opacity:1;" d="M 46.199219 52.464844 C 61.800781 42.003906 88.199219 66.8125 94.199219 100.59375 C 100.199219 134.375 100.199219 137.367188 100.199219 137.367188 L 91.199219 150.222656 C 84.898438 126.304688 87.597656 68.308594 46.199219 52.464844 Z M 46.199219 52.464844 "/>
<path style=" stroke:none;fill-rule:nonzero;fill:rgb(100%,0%,0%);fill-opacity:1;" d="M 81.597656 153.210938 C 81.597656 153.210938 77.699219 140.355469 72.898438 134.675781 C 72.898438 134.976562 83.101562 136.171875 87 140.058594 L 91.199219 144.839844 L 86.402344 158.292969 Z M 81.597656 153.210938 "/>
<path style=" stroke:none;fill-rule:nonzero;fill:rgb(59.607843%,3.137255%,1.960784%);fill-opacity:1;" d="M 76.203125 140.355469 C 76.558594 141.566406 77.171875 142.6875 78 143.644531 C 78.671875 145.007812 79.269531 146.40625 79.800781 147.828125 L 81 150.222656 L 81.898438 154.109375 L 83.101562 154.707031 L 84 155.601562 C 84 155.898438 84.597656 155.898438 84.597656 155.898438 C 84.597656 155.898438 84.898438 156.5 84.898438 156.796875 L 85.199219 156.796875 C 84.738281 155.042969 84.535156 153.230469 84.597656 151.414062 C 84.84375 150.835938 85.046875 150.238281 85.199219 149.625 C 85.570312 149.085938 86.09375 148.667969 86.699219 148.425781 C 85.671875 145.144531 83.09375 142.574219 79.800781 141.550781 L 76.203125 140.355469 "/>
<path style=" stroke:none;fill-rule:nonzero;fill:rgb(100%,0%,0%);fill-opacity:1;" d="M 84.898438 158.59375 L 84.898438 157.996094 L 85.199219 157.996094 L 85.199219 158.59375 "/>
<path style=" stroke:none;fill-rule:nonzero;fill:rgb(98.431373%,76.078431%,9.803922%);fill-opacity:1;" d="M 41.699219 79.96875 C 41.699219 79.96875 38.699219 91.925781 47.398438 98.804688 C 45.128906 99.09375 42.824219 98.671875 40.800781 97.605469 C 40.800781 97.605469 40.199219 100.59375 44.699219 104.183594 C 47.496094 106.304688 50.8125 107.644531 54.296875 108.070312 C 52.28125 107.917969 50.25 108.121094 48.300781 108.667969 C 48.300781 108.667969 51.902344 114.644531 64.203125 120.027344 C 61.703125 120.292969 59.320312 121.226562 57.296875 122.71875 C 57.296875 123.015625 68.699219 127.800781 71.699219 129.890625 L 64.203125 129.890625 C 65.734375 131.582031 67.710938 132.820312 69.898438 133.480469 C 73.800781 134.324219 77.621094 135.527344 81.300781 137.066406 C 84.757812 138.710938 87.902344 140.933594 90.597656 143.644531 C 90.597656 143.644531 92.699219 141.550781 91.199219 136.46875 C 89.699219 131.386719 85.5 126.902344 87 119.730469 C 87 119.730469 83.402344 120.625 83.402344 123.316406 C 83.460938 117.984375 82.441406 112.695312 80.402344 107.769531 C 78.992188 109.46875 77.878906 111.390625 77.101562 113.453125 C 76.800781 113.453125 78.300781 102.390625 72.300781 93.71875 C 70.261719 95.597656 68.984375 98.148438 68.699219 100.894531 C 67.703125 95.792969 65.195312 91.109375 61.5 87.445312 C 61.5 88.039062 60 93.71875 60 93.71875 C 60 93.71875 53.699219 80.269531 41.699219 79.96875 Z M 41.699219 79.96875 "/>
<path style=" stroke:none;fill-rule:nonzero;fill:rgb(81.568627%,60.784314%,2.745098%);fill-opacity:1;" d="M 89.101562 140.355469 C 85.078125 135.976562 80.660156 131.972656 75.898438 128.398438 C 73.679688 127.308594 71.371094 126.40625 69 125.707031 C 70.117188 124.628906 71.648438 124.085938 73.203125 124.214844 C 76.203125 124.511719 69 118.832031 63.296875 114.644531 C 57.601562 110.460938 57.296875 109.566406 57.296875 109.566406 L 61.800781 109.566406 C 61.800781 109.566406 52.800781 103.585938 51 97.007812 C 50.324219 94.152344 49.417969 91.351562 48.300781 88.636719 C 48.300781 88.636719 58.199219 93.71875 61.5 98.207031 L 62.398438 100.296875 L 62.398438 96.710938 C 62.398438 96.710938 67.5 104.480469 69 107.769531 L 70.800781 111.65625 L 72.300781 108.367188 C 72.753906 110.859375 73.5625 113.277344 74.699219 115.542969 C 75.359375 117.351562 76.265625 119.0625 77.398438 120.625 C 77.523438 119.167969 77.933594 117.742188 78.597656 116.441406 C 79.796875 121.660156 81.714844 126.691406 84.300781 131.386719 C 86.191406 134.210938 87.800781 137.214844 89.101562 140.355469 Z M 89.101562 140.355469 "/>
<path style="fill:none;stroke-width:0.4;stroke-linecap:round;stroke-linejoin:round;stroke:rgb(0%,0%,0%);stroke-opacity:1;stroke-miterlimit:4;" d="M 17.799477 30.699343 C 19.35807 33.261719 21.316403 35.557535 23.600257 37.50055 C 26.485673 40.090366 28.743486 43.306077 30.199215 46.899414 " transform="matrix(3,0,0,2.989474,0,3.736842)"/>
<path style=" stroke:none;fill-rule:nonzero;fill:rgb(100%,0%,0%);fill-opacity:1;" d="M 99.300781 148.425781 C 100.613281 150.1875 102.910156 150.910156 105 150.222656 C 108.601562 148.726562 109.199219 139.460938 101.402344 137.964844 C 93.597656 136.46875 92.699219 145.4375 93 146.632812 C 91.734375 144.789062 89.507812 143.855469 87.300781 144.242188 C 83.402344 145.136719 81.597656 148.726562 84.597656 155.898438 C 83.527344 154.414062 81.882812 153.445312 80.0625 153.21875 C 78.242188 152.992188 76.40625 153.527344 75 154.707031 C 69.898438 158.59375 75.300781 166.660156 81 163.972656 C 83.375 172.472656 82.847656 181.515625 79.5 189.679688 C 79.5 189.679688 90.300781 189.679688 96.601562 184.300781 C 102.898438 178.917969 101.101562 169.054688 101.101562 167.558594 C 101.101562 166.066406 96.601562 157.394531 99.300781 148.425781 Z M 99.300781 148.425781 "/>
<path style=" stroke:none;fill-rule:nonzero;fill:rgb(59.607843%,3.137255%,1.960784%);fill-opacity:1;" d="M 101.101562 172.34375 C 101.699219 166.066406 96.300781 157.394531 99 148.425781 C 92.101562 155.601562 89.402344 163.671875 94.800781 172.042969 C 93.246094 172.925781 91.828125 174.03125 90.597656 175.332031 C 86.222656 179.601562 82.300781 184.308594 78.898438 189.382812 L 80.402344 189.382812 L 88.5 187.890625 C 89.496094 187.746094 90.425781 187.335938 91.199219 186.691406 C 94.515625 185.542969 97.433594 183.46875 99.601562 180.714844 C 100.371094 177.976562 100.871094 175.175781 101.101562 172.34375 Z M 101.101562 172.34375 "/>
<path style="fill:none;stroke-width:0.4;stroke-linecap:round;stroke-linejoin:round;stroke:rgb(0%,0%,0%);stroke-opacity:1;stroke-miterlimit:4;" d="M 33.100256 48.399469 C 33.537756 48.988776 34.303381 49.23051 34.999995 49.000536 C 36.200516 48.500083 36.399734 45.400666 33.800777 44.900212 C 31.199214 44.399758 30.899735 47.399868 30.999996 47.799708 C 30.578121 47.182961 29.835933 46.870667 29.100256 47.000028 C 27.800777 47.299255 27.199215 48.500083 28.199215 50.899125 C 27.842444 50.402591 27.294267 50.078538 26.687496 50.002751 C 26.080726 49.926964 25.468746 50.105978 24.999997 50.500591 C 23.299476 51.800726 25.100257 54.498996 26.999996 53.600008 C 27.791663 56.443318 27.615882 59.468255 26.499996 62.199191 C 26.499996 62.199191 30.100256 62.199191 32.200516 60.399909 C 34.299474 58.599321 33.800777 55.299983 33.700516 54.79953 C 33.598954 54.300382 32.200516 51.399579 33.100256 48.399469 Z M 24.199215 43.799997 C 25.52083 45.681599 26.5026 47.780108 27.100257 50.000138 " transform="matrix(3,0,0,2.989474,0,3.736842)"/>
<path style="fill:none;stroke-width:0.4;stroke-linecap:round;stroke-linejoin:round;stroke:rgb(0%,0%,0%);stroke-opacity:1;stroke-miterlimit:4;" d="M 13.899738 25.50011 C 13.899738 25.50011 12.899738 29.499821 15.799477 31.800864 C 15.042967 31.897557 14.274738 31.756437 13.600259 31.399717 C 13.600259 31.399717 13.399738 32.399318 14.899738 33.600146 C 15.832029 34.309667 16.937498 34.757854 18.098956 34.900281 C 17.427081 34.849321 16.749998 34.917267 16.100258 35.100201 C 16.100258 35.100201 17.300779 37.099403 21.401039 38.899992 C 20.567705 38.988845 19.773435 39.301139 19.098956 39.800286 C 19.098956 39.899593 22.899736 41.500261 23.899736 42.199329 L 21.401039 42.199329 C 21.911455 42.765116 22.570309 43.17933 23.299476 43.400157 C 24.600257 43.682397 25.873694 44.084851 27.100257 44.599678 C 28.2526 45.149785 29.300777 45.89328 30.199215 46.800107 C 30.199215 46.800107 30.899735 46.099733 30.399735 44.399758 C 29.899735 42.699783 28.499996 41.199728 28.999996 38.800685 C 28.999996 38.800685 27.800777 39.099912 27.800777 40.000206 C 27.820309 38.216604 27.480465 36.447376 26.800778 34.799667 C 26.330725 35.368068 25.959632 36.010949 25.700517 36.700869 C 25.600257 36.700869 26.100257 33.000385 24.100257 30.099582 C 23.42057 30.728089 22.994788 31.581344 22.899736 32.499931 C 22.567705 30.793423 21.731768 29.225421 20.499997 28.001073 C 20.499997 28.199686 19.999997 30.099582 19.999997 30.099582 C 19.999997 30.099582 17.899737 25.600723 13.899738 25.50011 Z M 13.899738 25.50011 " transform="matrix(3,0,0,2.989474,0,3.736842)"/>
<path style="fill:none;stroke-width:0.4;stroke-linecap:round;stroke-linejoin:round;stroke:rgb(0%,0%,0%);stroke-opacity:1;stroke-miterlimit:4;" d="M 13.899738 25.50011 C 13.899738 25.50011 10.200519 19.89973 15.399737 16.400473 C 20.600258 12.899909 29.499996 21.099252 31.499996 32.399318 C 33.499995 43.699384 33.598954 44.700292 33.598954 44.700292 M 26.299475 62.199191 C 26.299475 62.199191 31.199214 54.399689 33.700516 56.200278 " transform="matrix(3,0,0,2.989474,0,3.736842)"/>
<path style=" stroke:none;fill-rule:nonzero;fill:rgb(19.607843%,34.117647%,13.72549%);fill-opacity:1;" d="M 41.699219 346.03125 C 41.699219 346.03125 30.601562 362.773438 46.199219 373.234375 C 61.800781 383.699219 88.199219 358.886719 94.199219 325.105469 C 100.199219 291.324219 100.199219 288.035156 100.199219 288.035156 L 93 275.480469 Z M 41.699219 346.03125 "/>
<path style=" stroke:none;fill-rule:nonzero;fill:rgb(5.098039%,22.745098%,7.058824%);fill-opacity:1;" d="M 45.902344 373.535156 C 61.5 383.996094 87.597656 359.1875 93.898438 325.40625 C 100.199219 291.625 99.898438 288.632812 99.898438 288.632812 L 90.898438 275.777344 C 84.597656 299.695312 87.300781 357.691406 45.902344 373.535156 Z M 45.902344 373.535156 "/>
<path style=" stroke:none;fill-rule:nonzero;fill:rgb(100%,0%,0%);fill-opacity:1;" d="M 81.300781 272.789062 C 81.300781 272.789062 77.101562 285.644531 72.597656 291.324219 C 72.597656 291.023438 82.800781 289.828125 86.699219 285.941406 C 88.332031 284.566406 89.746094 282.953125 90.898438 281.160156 L 85.800781 267.707031 Z M 81.300781 272.789062 "/>
<path style=" stroke:none;fill-rule:nonzero;fill:rgb(59.607843%,3.137255%,1.960784%);fill-opacity:1;" d="M 75.898438 285.644531 L 78.597656 284.75 C 82.007812 284.121094 84.71875 281.535156 85.5 278.171875 L 84 276.675781 C 83.699219 275.777344 83.402344 275.480469 83.402344 274.878906 C 83.175781 273.066406 83.378906 271.222656 84 269.5 L 83.699219 269.5 C 83.730469 269.828125 83.621094 270.152344 83.402344 270.398438 L 83.402344 270.992188 L 82.199219 271.59375 L 81.300781 272.191406 L 80.101562 276.375 L 78.898438 278.46875 C 78.5625 279.964844 77.953125 281.378906 77.101562 282.652344 C 76.894531 283.679688 76.597656 284.679688 76.203125 285.644531 "/>
<path style=" stroke:none;fill-rule:nonzero;fill:rgb(98.431373%,76.078431%,9.803922%);fill-opacity:1;" d="M 41.699219 346.03125 C 41.699219 346.03125 38.699219 334.074219 47.398438 327.195312 C 45.128906 326.90625 42.824219 327.328125 40.800781 328.394531 C 40.800781 328.394531 40.199219 325.40625 44.699219 321.816406 C 47.496094 319.695312 50.8125 318.355469 54.296875 317.929688 C 52.28125 318.082031 50.25 317.878906 48.300781 317.332031 C 48.300781 317.332031 51.902344 311.355469 64.203125 305.972656 C 61.703125 305.707031 59.320312 304.773438 57.296875 303.28125 C 57.296875 302.984375 68.699219 298.199219 71.699219 296.109375 L 64.203125 296.109375 C 65.734375 294.417969 67.710938 293.179688 69.898438 292.519531 C 73.800781 291.675781 77.621094 290.472656 81.300781 288.933594 C 84.6875 287.171875 87.816406 284.960938 90.597656 282.355469 C 90.597656 282.355469 92.699219 284.449219 91.199219 289.53125 C 89.699219 294.613281 85.5 299.097656 87 306.269531 C 87 306.269531 83.402344 305.375 83.402344 302.683594 C 83.488281 308.015625 82.46875 313.3125 80.402344 318.230469 C 78.992188 316.53125 77.878906 314.609375 77.101562 312.546875 C 76.800781 312.546875 78.300781 323.609375 72.300781 332.28125 C 70.261719 330.402344 68.984375 327.851562 68.699219 325.105469 C 67.761719 330.3125 65.246094 335.109375 61.5 338.855469 C 61.5 338.257812 60 332.578125 60 332.578125 C 60 332.578125 53.398438 345.730469 41.699219 346.03125 Z M 41.699219 346.03125 "/>
<path style=" stroke:none;fill-rule:nonzero;fill:rgb(81.568627%,60.784314%,2.745098%);fill-opacity:1;" d="M 88.800781 285.644531 C 84.726562 290.082031 80.203125 294.089844 75.300781 297.601562 C 73.195312 298.714844 70.984375 299.613281 68.699219 300.292969 C 69.816406 301.371094 71.347656 301.914062 72.898438 301.785156 C 75.898438 301.488281 68.699219 307.167969 62.699219 311.355469 C 56.699219 315.539062 57 316.433594 57 316.433594 L 61.5 316.433594 C 61.5 316.433594 52.5 322.414062 50.699219 328.992188 C 50.019531 331.847656 49.117188 334.648438 48 337.363281 C 48 337.363281 57.902344 332.28125 60.902344 327.792969 L 62.101562 325.703125 L 62.101562 329.589844 C 62.101562 329.589844 67.203125 321.816406 68.699219 318.53125 L 70.5 314.644531 L 72 317.929688 C 72.457031 315.4375 73.265625 313.023438 74.398438 310.757812 L 77.398438 305.972656 C 77.546875 307.523438 77.953125 309.039062 78.597656 310.457031 C 79.777344 305.136719 81.699219 300.003906 84.300781 295.210938 C 86.296875 292.28125 87.820312 289.050781 88.800781 285.644531 Z M 88.800781 285.644531 "/>
<path style="fill:none;stroke-width:0.4;stroke-linecap:round;stroke-linejoin:round;stroke:rgb(0%,0%,0%);stroke-opacity:1;stroke-miterlimit:4;" d="M 30.100256 93.100586 C 28.605465 96.673017 26.352861 99.880887 23.499997 102.49945 C 21.19531 104.421559 19.234372 106.721295 17.700518 109.300657 " transform="matrix(3,0,0,2.989474,0,3.736842)"/>
<path style=" stroke:none;fill-rule:nonzero;fill:rgb(100%,0%,0%);fill-opacity:1;" d="M 99 277.574219 C 100.3125 275.8125 102.609375 275.089844 104.699219 275.777344 C 108.300781 277.273438 108.898438 286.539062 101.101562 288.035156 C 93.300781 289.53125 92.402344 280.5625 92.699219 279.367188 C 91.4375 281.210938 89.207031 282.144531 87 281.757812 C 83.101562 280.863281 81.300781 277.273438 84 270.101562 C 82.984375 271.566406 81.390625 272.539062 79.617188 272.765625 C 77.84375 272.992188 76.054688 272.457031 74.699219 271.292969 C 72.132812 269.726562 71.328125 266.382812 72.898438 263.820312 C 74.472656 261.261719 77.832031 260.457031 80.402344 262.027344 C 82.949219 253.546875 82.414062 244.445312 78.898438 236.320312 C 78.898438 236.320312 90 236.320312 96.300781 241.699219 C 102.601562 247.082031 100.796875 256.945312 100.796875 258.441406 C 100.796875 259.933594 96.300781 269.203125 99 277.574219 Z M 99 277.574219 "/>
<path style=" stroke:none;fill-rule:nonzero;fill:rgb(59.607843%,3.137255%,1.960784%);fill-opacity:1;" d="M 99.300781 245.285156 C 97.214844 242.449219 94.269531 240.355469 90.898438 239.308594 L 88.199219 238.109375 L 80.402344 236.617188 L 78.898438 236.617188 C 82.300781 241.691406 86.222656 246.398438 90.597656 250.667969 C 91.660156 252.136719 93.117188 253.277344 94.800781 253.957031 C 89.402344 262.328125 92.101562 270.398438 99 277.574219 C 96.300781 268.304688 100.796875 259.339844 101.101562 253.65625 C 101.210938 250.757812 100.59375 247.882812 99.300781 245.285156 Z M 99.300781 245.285156 "/>
<path style="fill:none;stroke-width:0.4;stroke-linecap:round;stroke-linejoin:round;stroke:rgb(0%,0%,0%);stroke-opacity:1;stroke-miterlimit:4;" d="M 32.999995 91.600531 C 33.437495 91.011224 34.20312 90.76949 34.899735 90.999464 C 36.100255 91.499917 36.299474 94.599334 33.700516 95.099788 C 31.100256 95.600242 30.800777 92.600132 30.899735 92.200292 C 30.479162 92.817039 29.735673 93.129333 28.999996 92.999972 C 27.700517 92.700745 27.100257 91.499917 27.999996 89.100875 C 27.661454 89.590875 27.130205 89.916236 26.539059 89.992022 C 25.947913 90.067809 25.351559 89.888796 24.899736 89.499409 C 24.044267 88.975435 23.776038 87.856927 24.299476 86.999752 C 24.824215 86.143885 25.944007 85.874711 26.800778 86.399992 C 27.649736 83.563215 27.47135 80.518678 26.299475 77.800809 C 26.299475 77.800809 29.999996 77.800809 32.100256 79.600091 C 34.200516 81.400679 33.598954 84.700017 33.598954 85.20047 C 33.598954 85.699618 32.100256 88.800341 32.999995 91.600531 Z M 24.100257 96.200003 C 25.421871 94.318401 26.403642 92.219892 26.999996 89.999862 " transform="matrix(3,0,0,2.989474,0,3.736842)"/>
<path style="fill:none;stroke-width:0.4;stroke-linecap:round;stroke-linejoin:round;stroke:rgb(0%,0%,0%);stroke-opacity:1;stroke-miterlimit:4;" d="M 13.899738 114.49989 C 13.899738 114.49989 12.899738 110.500179 15.799477 108.199136 C 15.042967 108.102443 14.274738 108.243563 13.600259 108.600283 C 13.600259 108.600283 13.399738 107.600682 14.899738 106.399854 C 15.832029 105.690333 16.937498 105.242146 18.098956 105.099719 C 17.427081 105.150679 16.749998 105.082733 16.100258 104.899799 C 16.100258 104.899799 17.300779 102.900597 21.401039 101.100008 C 20.567705 101.011155 19.773435 100.698861 19.098956 100.199714 C 19.098956 100.100407 22.899736 98.499739 23.899736 97.800671 L 21.401039 97.800671 C 21.911455 97.234884 22.570309 96.82067 23.299476 96.599843 C 24.600257 96.317603 25.873694 95.915149 27.100257 95.400322 C 28.229163 94.811015 29.272131 94.07144 30.199215 93.199893 C 30.199215 93.199893 30.899735 93.900267 30.399735 95.600242 C 29.899735 97.300217 28.499996 98.800272 28.999996 101.199315 C 28.999996 101.199315 27.800777 100.900088 27.800777 99.999794 C 27.829423 101.783396 27.489579 103.555238 26.800778 105.200333 C 26.330725 104.631932 25.959632 103.989051 25.700517 103.299131 C 25.600257 103.299131 26.100257 106.999615 24.100257 109.900418 C 23.42057 109.271911 22.994788 108.418656 22.899736 107.500069 C 22.587236 109.241857 21.748695 110.846446 20.499997 112.099541 C 20.499997 111.89962 19.999997 109.999725 19.999997 109.999725 C 19.999997 109.999725 17.799477 114.399277 13.899738 114.49989 Z M 13.899738 114.49989 " transform="matrix(3,0,0,2.989474,0,3.736842)"/>
<path style="fill:none;stroke-width:0.4;stroke-linecap:round;stroke-linejoin:round;stroke:rgb(0%,0%,0%);stroke-opacity:1;stroke-miterlimit:4;" d="M 13.899738 114.49989 C 13.899738 114.49989 10.200519 120.10027 15.399737 123.599527 C 20.600258 127.100091 29.399735 118.800135 31.399735 107.500069 C 33.399735 96.200003 33.399735 95.200402 33.399735 95.200402 M 26.199215 77.800809 C 26.199215 77.800809 30.999996 85.600311 33.598954 83.799722 " transform="matrix(3,0,0,2.989474,0,3.736842)"/>
<path style=" stroke:none;fill-rule:nonzero;fill:rgb(19.607843%,34.117647%,13.72549%);fill-opacity:1;" d="M 219 346.03125 C 219 346.03125 229.800781 362.773438 214.5 373.234375 C 199.199219 383.699219 172.5 358.886719 166.5 325.105469 C 160.5 291.324219 160.203125 288.035156 160.203125 288.035156 L 167.402344 275.480469 Z M 219 346.03125 "/>
<path style=" stroke:none;fill-rule:nonzero;fill:rgb(5.098039%,22.745098%,7.058824%);fill-opacity:1;" d="M 214.5 373.535156 C 198.898438 383.996094 172.5 359.1875 166.5 325.40625 C 160.5 291.625 160.203125 288.632812 160.203125 288.632812 L 169.199219 275.777344 C 175.800781 299.695312 172.800781 357.691406 214.5 373.535156 Z M 214.5 373.535156 "/>
<path style=" stroke:none;fill-rule:nonzero;fill:rgb(100%,0%,0%);fill-opacity:1;" d="M 179.402344 272.789062 C 179.402344 272.789062 183.300781 285.644531 188.101562 291.324219 C 188.101562 291.023438 177.898438 289.828125 174 285.941406 C 172.371094 284.566406 170.957031 282.953125 169.800781 281.160156 L 174.597656 267.707031 Z M 179.402344 272.789062 "/>
<path style=" stroke:none;fill-rule:nonzero;fill:rgb(59.607843%,3.137255%,1.960784%);fill-opacity:1;" d="M 184.5 285.644531 C 184.015625 284.488281 183.414062 283.386719 182.699219 282.355469 C 182.027344 280.992188 181.425781 279.59375 180.898438 278.171875 L 179.699219 275.777344 L 178.800781 271.890625 L 177.597656 271.292969 L 176.402344 270.398438 C 176.402344 270.230469 176.265625 270.101562 176.101562 270.101562 C 176.101562 269.800781 175.800781 269.5 175.800781 269.203125 L 175.5 269.203125 C 175.960938 270.957031 176.167969 272.769531 176.101562 274.585938 C 175.855469 275.164062 175.65625 275.761719 175.5 276.375 L 174 277.574219 C 174.929688 280.914062 177.546875 283.523438 180.898438 284.449219 L 184.5 285.644531 "/>
<path style=" stroke:none;fill-rule:nonzero;fill:rgb(100%,0%,0%);fill-opacity:1;" d="M 175.800781 267.40625 L 175.800781 268.003906 L 175.5 268.003906 L 175.5 267.40625 "/>
<path style=" stroke:none;fill-rule:nonzero;fill:rgb(98.431373%,76.078431%,9.803922%);fill-opacity:1;" d="M 219 346.03125 C 219 346.03125 222 334.074219 213.300781 327.195312 C 215.570312 326.90625 217.875 327.328125 219.902344 328.394531 C 219.902344 328.394531 220.5 325.40625 215.699219 321.816406 C 213.027344 319.679688 209.804688 318.332031 206.398438 317.929688 C 208.320312 318.085938 210.253906 317.878906 212.097656 317.332031 C 212.097656 317.332031 208.5 311.355469 196.5 305.972656 C 198.914062 305.726562 201.207031 304.792969 203.097656 303.28125 C 203.097656 302.984375 192 298.199219 188.699219 296.109375 L 196.5 296.109375 C 194.878906 294.371094 192.800781 293.125 190.5 292.519531 C 186.6875 291.707031 182.96875 290.503906 179.402344 288.933594 C 176.085938 287.078125 173.058594 284.761719 170.402344 282.058594 C 170.402344 282.058594 168.300781 284.148438 169.800781 289.234375 C 171.300781 294.3125 175.5 298.796875 174 305.972656 C 174 305.972656 177.597656 305.074219 177.597656 302.386719 C 177.539062 307.714844 178.558594 313.003906 180.597656 317.929688 C 181.929688 316.179688 183.035156 314.269531 183.898438 312.25 C 184.199219 312.25 182.699219 323.308594 188.699219 331.980469 C 190.574219 329.988281 191.824219 327.496094 192.300781 324.804688 C 193.203125 329.941406 195.722656 334.652344 199.5 338.257812 L 201 332.28125 C 201 332.28125 206.703125 345.730469 219 346.03125 Z M 219 346.03125 "/>
<path style=" stroke:none;fill-rule:nonzero;fill:rgb(81.568627%,60.784314%,2.745098%);fill-opacity:1;" d="M 171.597656 285.644531 C 175.621094 290.023438 180.039062 294.027344 184.796875 297.601562 C 187.019531 298.691406 189.324219 299.59375 191.699219 300.292969 C 190.582031 301.371094 189.050781 301.914062 187.5 301.785156 C 184.796875 301.488281 192 307.167969 197.402344 311.355469 C 202.800781 315.539062 203.097656 316.433594 203.097656 316.433594 L 199.199219 316.433594 C 199.199219 316.433594 208.199219 322.414062 210 328.992188 C 210.675781 331.847656 211.582031 334.648438 212.699219 337.363281 C 212.699219 337.363281 202.800781 332.28125 199.5 327.792969 L 198.601562 325.703125 L 198.601562 329.589844 C 198.601562 329.589844 193.5 321.816406 192 318.53125 L 190.199219 314.644531 L 188.699219 317.929688 C 188.246094 315.4375 187.4375 313.023438 186.300781 310.757812 L 183 305.671875 C 182.851562 307.265625 182.335938 308.796875 181.5 310.15625 C 180.476562 304.832031 178.65625 299.695312 176.101562 294.910156 C 174.039062 292.125 172.511719 288.984375 171.597656 285.644531 Z M 171.597656 285.644531 "/>
<path style="fill:none;stroke-width:0.4;stroke-linecap:round;stroke-linejoin:round;stroke:rgb(0%,0%,0%);stroke-opacity:1;stroke-miterlimit:4;" d="M 69.100251 109.300657 C 67.510407 106.760495 65.557283 104.468599 63.29947 102.49945 C 60.414054 99.909634 58.157544 96.693923 56.700513 93.100586 " transform="matrix(3,0,0,2.989474,0,3.736842)"/>
<path style=" stroke:none;fill-rule:nonzero;fill:rgb(100%,0%,0%);fill-opacity:1;" d="M 161.699219 277.574219 C 160.386719 275.8125 158.089844 275.089844 156 275.777344 C 152.398438 277.273438 151.800781 286.539062 159.597656 288.035156 C 167.402344 289.53125 168.300781 280.5625 168 279.367188 C 169.265625 281.210938 171.492188 282.144531 173.699219 281.757812 C 177.597656 280.863281 179.402344 277.273438 176.402344 270.101562 C 177.472656 271.585938 179.117188 272.554688 180.9375 272.78125 C 182.757812 273.007812 184.59375 272.472656 186 271.292969 C 191.101562 267.40625 185.699219 259.339844 180 262.027344 C 177.625 253.527344 178.152344 244.484375 181.5 236.320312 C 181.5 236.320312 170.699219 236.320312 164.398438 241.699219 C 158.101562 247.082031 159.898438 256.945312 159.898438 258.441406 C 159.898438 259.933594 163.800781 269.203125 161.699219 277.574219 Z M 161.699219 277.574219 "/>
<path style=" stroke:none;fill-rule:nonzero;fill:rgb(59.607843%,3.137255%,1.960784%);fill-opacity:1;" d="M 159.597656 253.957031 C 159.898438 259.636719 164.398438 269.203125 161.699219 278.171875 C 168.597656 270.992188 171 262.625 165.597656 254.253906 C 167.230469 253.46875 168.746094 252.464844 170.101562 251.265625 C 174.3125 246.925781 178.125 242.226562 181.5 237.214844 L 177.597656 237.214844 L 172.199219 238.710938 L 169.199219 239.90625 C 165.929688 240.988281 163.09375 243.085938 161.101562 245.882812 C 159.75 248.347656 159.222656 251.175781 159.597656 253.957031 Z M 159.597656 253.957031 "/>
<path style="fill:none;stroke-width:0.4;stroke-linecap:round;stroke-linejoin:round;stroke:rgb(0%,0%,0%);stroke-opacity:1;stroke-miterlimit:4;" d="M 53.899732 91.600531 C 53.462232 91.011224 52.696607 90.76949 51.999993 90.999464 C 50.799472 91.499917 50.600253 94.599334 53.199211 95.099788 C 55.800773 95.600242 56.100253 92.600132 55.999992 92.200292 C 56.421867 92.817039 57.164055 93.129333 57.899731 92.999972 C 59.19921 92.700745 59.800773 91.499917 58.800773 89.100875 C 59.157544 89.597409 59.705721 89.921462 60.312492 89.997249 C 60.919262 90.073036 61.531241 89.894022 61.999991 89.499409 C 63.700512 88.199274 61.899731 85.501004 59.999992 86.399992 C 59.208325 83.556682 59.384106 80.531745 60.499992 77.800809 C 60.499992 77.800809 56.899732 77.800809 54.799472 79.600091 C 52.700513 81.400679 53.199211 84.399483 53.299472 85.20047 C 53.401034 86.000151 54.600253 88.800341 53.899732 91.600531 Z M 62.700512 96.200003 C 61.378898 94.318401 60.397127 92.219892 59.800773 89.999862 " transform="matrix(3,0,0,2.989474,0,3.736842)"/>
<path style="fill:none;stroke-width:0.4;stroke-linecap:round;stroke-linejoin:round;stroke:rgb(0%,0%,0%);stroke-opacity:1;stroke-miterlimit:4;" d="M 72.99999 114.49989 C 72.99999 114.49989 73.99999 110.500179 71.10025 108.199136 C 71.856761 108.102443 72.62499 108.243563 73.300771 108.600283 C 73.300771 108.600283 73.49999 107.600682 71.89973 106.399854 C 71.009105 105.685107 69.934886 105.234306 68.79947 105.099719 C 69.440094 105.151986 70.084626 105.082733 70.699209 104.899799 C 70.699209 104.899799 69.49999 102.900597 65.499991 101.100008 C 66.304678 101.017688 67.069001 100.705394 67.699209 100.199714 C 67.699209 100.100407 63.999991 98.499739 62.899731 97.800671 L 65.499991 97.800671 C 64.959626 97.219204 64.266918 96.802377 63.499991 96.599843 C 62.229158 96.328056 60.989575 95.925602 59.800773 95.400322 C 58.695304 94.779654 57.68619 94.0048 56.800773 93.100586 C 56.800773 93.100586 56.100253 93.799653 56.600253 95.500935 C 57.100252 97.199604 58.499992 98.699659 57.999992 101.100008 C 57.999992 101.100008 59.19921 100.799475 59.19921 99.900487 C 59.179679 101.682782 59.519523 103.452011 60.19921 105.099719 C 60.643221 104.514332 61.01171 103.875371 61.299471 103.199824 C 61.399731 103.199824 60.899731 106.899001 62.899731 109.799805 C 63.524731 109.133404 63.941397 108.29975 64.100251 107.399455 C 64.401033 109.117724 65.240876 110.693566 66.499991 111.89962 L 66.999991 109.900418 C 66.999991 109.900418 68.901032 114.399277 72.99999 114.49989 Z M 72.99999 114.49989 " transform="matrix(3,0,0,2.989474,0,3.736842)"/>
<path style="fill:none;stroke-width:0.4;stroke-linecap:round;stroke-linejoin:round;stroke:rgb(0%,0%,0%);stroke-opacity:1;stroke-miterlimit:4;" d="M 72.99999 114.49989 C 72.99999 114.49989 76.60025 120.10027 71.49999 123.599527 C 66.39973 127.100091 57.499992 118.800135 55.499992 107.500069 C 53.499993 96.200003 53.401034 95.400322 53.401034 95.400322 M 60.499992 77.800809 C 60.499992 77.800809 55.700513 85.600311 53.199211 83.799722 " transform="matrix(3,0,0,2.989474,0,3.736842)"/>
</g>
</svg>
