<?xml version="1.0" encoding="UTF-8"?>
<svg xmlns="http://www.w3.org/2000/svg" xmlns:xlink="http://www.w3.org/1999/xlink" width="261px" height="420px" viewBox="0 0 261 426" version="1.1">
<g id="surface1">
<path style=" stroke:none;fill-rule:nonzero;fill:rgb(100%,100%,100%);fill-opacity:1;" d="M 18 3.738281 L 243 3.738281 C 252.941406 3.738281 261 11.769531 261 21.671875 L 261 404.328125 C 261 414.230469 252.941406 422.261719 243 422.261719 L 18 422.261719 C 8.058594 422.261719 0 414.230469 0 404.328125 L 0 21.671875 C 0 11.769531 8.058594 3.738281 18 3.738281 Z M 18 3.738281 "/>
<path style=" stroke:none;fill-rule:nonzero;fill:rgb(19.607843%,34.117647%,13.72549%);fill-opacity:1;" d="M 154.5 76.082031 C 154.5 76.082031 161.101562 83.558594 162.898438 109.265625 C 164.699219 134.976562 160.800781 152.613281 175.199219 173.242188 C 189.601562 193.867188 205.199219 178.320312 206.398438 175.332031 C 207.601562 172.34375 214.800781 161.882812 204.601562 135.273438 C 194.402344 108.667969 182.402344 96.410156 179.402344 85.050781 C 176.402344 73.691406 174.597656 65.617188 177.597656 55.753906 C 179.402344 50.96875 178.199219 53.0625 178.5 52.167969 C 178.800781 51.269531 169.5 51.269531 160.203125 61.433594 C 150.902344 71.597656 154.5 76.082031 154.5 76.082031 Z M 154.5 76.082031 "/>
<path style=" stroke:none;fill-rule:nonzero;fill:rgb(100%,0%,0%);fill-opacity:1;" d="M 175.199219 173.242188 C 189.601562 193.867188 205.199219 178.320312 206.398438 175.332031 C 207.601562 172.34375 214.800781 161.882812 204.601562 135.273438 C 194.402344 108.667969 182.402344 96.410156 179.402344 85.050781 C 184.199219 136.171875 160.800781 152.613281 175.199219 173.242188 Z M 175.199219 173.242188 "/>
<path style=" stroke:none;fill-rule:nonzero;fill:rgb(5.098039%,22.745098%,7.058824%);fill-opacity:1;" d="M 178.199219 51.867188 C 173.964844 51.75 169.820312 53.125 166.5 55.753906 C 161.496094 59.023438 157.453125 63.5625 154.800781 68.910156 C 152.699219 73.089844 153.902344 76.082031 156 77.574219 C 158.773438 78.585938 161.875 78.015625 164.101562 76.082031 C 167.09375 73.738281 169.550781 70.78125 171.300781 67.414062 C 172.5 64.425781 175.800781 57.546875 175.800781 57.546875 L 178.199219 52.464844 L 178.800781 51.269531 Z M 178.199219 51.867188 "/>
<path style=" stroke:none;fill-rule:nonzero;fill:rgb(5.098039%,22.745098%,7.058824%);fill-opacity:1;" d="M 164.101562 76.382812 C 164.101562 76.382812 168 98.503906 163.5 117.636719 C 163.5 117.636719 162.597656 101.195312 161.398438 95.8125 C 160.4375 90.296875 158.929688 84.890625 156.898438 79.671875 L 155.398438 77.574219 Z M 164.101562 76.382812 "/>
<path style=" stroke:none;fill-rule:nonzero;fill:rgb(59.607843%,3.137255%,1.960784%);fill-opacity:1;" d="M 185.699219 98.503906 C 185.699219 98.503906 199.5 119.429688 202.800781 130.191406 C 206.097656 140.953125 212.398438 152.3125 209.398438 166.960938 C 208.179688 173.125 204.351562 178.460938 198.898438 181.609375 C 198.898438 181.609375 201.601562 154.707031 192.898438 131.386719 C 184.199219 108.070312 181.5 103.285156 181.5 103.285156 Z M 185.699219 98.503906 "/>
<path style="fill:none;stroke-width:0.4;stroke-linecap:round;stroke-linejoin:round;stroke:rgb(0%,0%,0%);stroke-opacity:1;stroke-miterlimit:4;" d="M 51.499993 24.199975 C 51.499993 24.199975 53.700513 26.700938 54.299472 35.300121 C 54.899732 43.900611 53.600253 49.800217 58.399731 56.700732 C 63.200512 63.599939 67.99999 58.500014 68.79947 57.399799 C 69.600251 56.299585 71.60025 52.900941 68.200511 43.999917 C 64.800772 35.100201 60.800773 30.999876 59.800773 27.200085 C 58.800773 23.400294 58.199211 20.699411 59.19921 17.400074 L 59.499992 16.200553 C 59.399731 15.900019 56.499992 15.900019 53.401034 19.29997 C 50.300774 22.69992 51.499993 24.199975 51.499993 24.199975 Z M 51.499993 24.199975 " transform="matrix(3,0,0,2.989474,0,3.736842)"/>
<path style="fill:none;stroke-width:0.4;stroke-linecap:round;stroke-linejoin:round;stroke:rgb(0%,0%,0%);stroke-opacity:1;stroke-miterlimit:4;" d="M 51.499993 24.199975 C 51.499993 24.199975 52.401034 25.799337 54.700513 24.199975 C 56.999992 22.600613 58.700513 16.800314 59.399731 16.29986 " transform="matrix(3,0,0,2.989474,0,3.736842)"/>
<path style=" stroke:none;fill-rule:nonzero;fill:rgb(98.431373%,76.078431%,9.803922%);fill-opacity:1;" d="M 188.101562 105.679688 C 186.601562 100.84375 184.480469 96.222656 181.800781 91.925781 C 178.40625 84.472656 176.371094 76.472656 175.800781 68.308594 C 175.800781 68.308594 172.199219 94.019531 168.597656 101.195312 C 165 108.367188 167.402344 107.171875 168.300781 107.171875 L 172.199219 106.277344 C 170.347656 108.59375 168.925781 111.230469 168 114.046875 C 167.402344 116.738281 166.800781 119.429688 169.800781 117.933594 L 172.800781 116.140625 C 172.339844 120.730469 171.019531 125.191406 168.898438 129.292969 C 166.195312 133.941406 164.648438 139.171875 164.398438 144.539062 C 164.945312 154.007812 168.167969 163.128906 173.699219 170.847656 C 174 170.847656 174.300781 171.148438 174.300781 168.457031 C 174.300781 165.769531 176.699219 162.179688 177 157.097656 C 177.15625 155.207031 177.15625 153.304688 177 151.414062 C 177 151.414062 178.800781 154.707031 180 153.808594 C 181.199219 152.910156 181.800781 147.53125 178.199219 137.066406 C 178.199219 137.964844 181.800781 140.652344 183.300781 139.757812 C 184.796875 138.863281 186.898438 132.878906 184.5 122.417969 L 183.300781 119.429688 C 183.300781 119.429688 185.402344 122.117188 186.300781 121.820312 C 187.199219 121.519531 188.402344 116.140625 185.402344 106.574219 C 185.402344 106.277344 188.699219 109.265625 188.101562 105.679688 Z M 188.101562 105.679688 "/>
<path style=" stroke:none;fill-rule:nonzero;fill:rgb(81.568627%,60.784314%,2.745098%);fill-opacity:1;" d="M 176.101562 79.96875 C 175.761719 85.984375 175.058594 91.972656 174 97.90625 C 172.5 101.792969 171.597656 102.691406 172.5 102.390625 L 174.898438 101.792969 C 173.773438 104.503906 172.871094 107.304688 172.199219 110.164062 C 171.597656 113.453125 172.800781 113.152344 173.101562 112.554688 C 173.402344 111.957031 176.101562 108.96875 176.101562 108.96875 C 175.605469 114.089844 174.390625 119.121094 172.5 123.914062 C 169.332031 131.269531 167.796875 139.226562 168 147.234375 C 168.65625 152.914062 169.863281 158.519531 171.597656 163.972656 C 171.597656 163.972656 173.101562 149.921875 173.699219 146.632812 C 174.300781 143.347656 174 142.449219 174 142.449219 C 174 142.449219 174.898438 147.234375 175.800781 146.933594 C 176.699219 146.632812 176.101562 138.863281 175.800781 134.976562 C 175.648438 133.984375 175.648438 132.976562 175.800781 131.988281 C 175.800781 131.089844 178.199219 134.078125 179.402344 134.078125 C 180.597656 134.078125 182.402344 136.765625 180.300781 118.53125 C 180 112.851562 179.699219 109.863281 179.699219 109.863281 C 179.699219 109.863281 181.199219 114.644531 182.402344 114.945312 C 183.601562 115.242188 183.601562 109.863281 182.699219 102.691406 C 181.800781 95.511719 177.898438 82.0625 177.898438 81.761719 L 176.699219 75.484375 L 175.800781 72.496094 Z M 176.101562 79.96875 "/>
<path style="fill:none;stroke-width:0.4;stroke-linecap:round;stroke-linejoin:round;stroke:rgb(0%,0%,0%);stroke-opacity:1;stroke-miterlimit:4;" d="M 58.600252 21.500399 C 58.600252 21.500399 57.399732 30.099582 56.199211 32.499931 C 54.999992 34.900281 55.800773 34.499133 56.100253 34.499133 L 57.399732 34.1006 C 56.785148 34.914654 56.31119 35.828015 55.999992 36.800176 C 55.800773 37.70047 55.600253 38.599458 56.600253 38.100311 L 57.600252 37.50055 C 57.446607 39.035885 57.006502 40.526794 56.299471 41.898795 C 55.39843 43.455037 54.882805 45.203359 54.799472 47.000028 C 54.99218 50.164778 56.065096 53.213234 57.899731 55.799131 C 57.999992 55.799131 58.100252 55.899744 58.100252 54.99945 C 58.100252 54.100462 58.899731 52.900941 58.999992 51.199659 C 59.052075 50.567232 59.052075 49.932191 58.999992 49.30107 C 58.999992 49.30107 59.600252 50.300671 59.999992 50.100751 C 60.399731 49.899524 60.600252 48.000935 59.399731 44.499065 C 59.399731 44.799598 60.600252 45.699893 61.100252 45.400666 C 61.59895 45.100132 62.29947 43.10093 61.499991 39.599059 L 61.100252 38.599458 C 61.100252 38.599458 61.800773 39.499752 62.100252 39.399139 C 62.399731 39.301139 62.800772 37.50055 61.800773 34.30052 C 61.899731 34.399827 62.999991 35.400734 62.800772 34.1006 C 62.287752 32.503851 61.617179 30.96329 60.800773 29.499821 C 59.600252 27.700539 58.700513 23.199067 58.600252 21.500399 Z M 58.600252 21.500399 " transform="matrix(3,0,0,2.989474,0,3.736842)"/>
<path style="fill:none;stroke-width:0.4;stroke-linecap:round;stroke-linejoin:round;stroke:rgb(0%,0%,0%);stroke-opacity:1;stroke-miterlimit:4;" d="M 58.600252 21.898933 C 58.600252 21.898933 59.19921 30.099582 59.399731 31.999477 C 59.600252 33.900679 58.700513 39.599059 57.600252 43.19893 C 56.499992 46.800107 56.800773 53.400088 57.700513 55.600517 " transform="matrix(3,0,0,2.989474,0,3.736842)"/>
<path style=" stroke:none;fill-rule:nonzero;fill:rgb(19.607843%,34.117647%,13.72549%);fill-opacity:1;" d="M 106.5 76.082031 C 106.5 76.082031 99.898438 83.558594 98.101562 109.265625 C 96.300781 134.976562 100.199219 152.613281 85.800781 173.242188 C 71.398438 193.867188 55.800781 178.320312 54.601562 175.332031 C 53.398438 172.34375 46.199219 161.882812 56.398438 135.273438 C 66.597656 108.667969 78.597656 96.410156 81.597656 85.050781 C 84.597656 73.691406 86.402344 65.617188 83.402344 55.753906 C 81.597656 50.96875 82.800781 53.0625 82.5 52.167969 C 82.199219 51.269531 91.5 51.269531 100.796875 61.433594 C 110.097656 71.597656 106.5 76.082031 106.5 76.082031 Z M 106.5 76.082031 "/>
<path style=" stroke:none;fill-rule:nonzero;fill:rgb(100%,0%,0%);fill-opacity:1;" d="M 85.800781 173.242188 C 71.398438 193.867188 55.800781 178.320312 54.601562 175.332031 C 53.398438 172.34375 46.199219 161.882812 56.398438 135.273438 C 66.597656 108.667969 78.597656 96.410156 81.597656 85.050781 C 76.800781 136.171875 100.199219 152.613281 85.800781 173.242188 Z M 85.800781 173.242188 "/>
<path style=" stroke:none;fill-rule:nonzero;fill:rgb(5.098039%,22.745098%,7.058824%);fill-opacity:1;" d="M 83.101562 51.867188 C 87.335938 51.75 91.480469 53.125 94.800781 55.753906 C 99.804688 59.023438 103.847656 63.5625 106.5 68.910156 C 108.601562 73.089844 107.402344 76.082031 105.300781 77.574219 C 102.527344 78.585938 99.425781 78.015625 97.199219 76.082031 C 94.207031 73.738281 91.75 70.78125 90 67.414062 C 88.800781 64.425781 85.5 57.546875 85.5 57.546875 L 83.101562 52.464844 L 82.5 51.269531 Z M 83.101562 51.867188 "/>
<path style=" stroke:none;fill-rule:nonzero;fill:rgb(5.098039%,22.745098%,7.058824%);fill-opacity:1;" d="M 97.199219 76.382812 C 95.171875 90.074219 95.371094 104.007812 97.796875 117.636719 C 97.796875 117.636719 98.699219 101.195312 99.898438 95.8125 C 100.859375 90.296875 102.371094 84.890625 104.402344 79.671875 L 105.898438 77.574219 Z M 97.199219 76.382812 "/>
<path style=" stroke:none;fill-rule:nonzero;fill:rgb(59.607843%,3.137255%,1.960784%);fill-opacity:1;" d="M 75.300781 98.503906 C 75.300781 98.503906 61.5 119.429688 58.199219 130.191406 C 54.902344 140.953125 48.601562 152.3125 51.601562 166.960938 C 52.820312 173.125 56.648438 178.460938 62.101562 181.609375 C 62.101562 181.609375 59.398438 154.707031 68.101562 131.386719 C 76.800781 108.070312 79.5 103.285156 79.5 103.285156 Z M 75.300781 98.503906 "/>
<path style="fill:none;stroke-width:0.4;stroke-linecap:round;stroke-linejoin:round;stroke:rgb(0%,0%,0%);stroke-opacity:1;stroke-miterlimit:4;" d="M 35.499995 24.199975 C 35.499995 24.199975 33.299475 26.700938 32.700516 35.300121 C 32.100256 43.900611 33.399735 49.800217 28.600256 56.700732 C 23.799476 63.599939 18.999997 58.500014 18.200518 57.399799 C 17.399737 56.299585 15.399737 52.900941 18.799477 43.999917 C 22.199216 35.100201 26.199215 30.999876 27.199215 27.200085 C 28.199215 23.400294 28.800777 20.699411 27.800777 17.400074 L 27.499996 16.200553 C 27.600257 15.900019 30.499996 15.900019 33.598954 19.29997 C 36.699214 22.69992 35.499995 24.199975 35.499995 24.199975 Z M 35.499995 24.199975 " transform="matrix(3,0,0,2.989474,0,3.736842)"/>
<path style="fill:none;stroke-width:0.4;stroke-linecap:round;stroke-linejoin:round;stroke:rgb(0%,0%,0%);stroke-opacity:1;stroke-miterlimit:4;" d="M 35.499995 24.199975 C 35.499995 24.199975 34.598953 25.799337 32.299475 24.199975 C 29.999996 22.600613 28.299475 16.800314 27.600257 16.29986 " transform="matrix(3,0,0,2.989474,0,3.736842)"/>
<path style=" stroke:none;fill-rule:nonzero;fill:rgb(98.431373%,76.078431%,9.803922%);fill-opacity:1;" d="M 72.898438 105.679688 C 74.398438 100.84375 76.519531 96.222656 79.199219 91.925781 C 82.59375 84.472656 84.628906 76.472656 85.199219 68.308594 C 85.199219 68.308594 88.800781 94.019531 92.402344 101.195312 C 96 108.367188 93.597656 107.171875 92.699219 107.171875 L 88.800781 105.679688 C 90.644531 108.113281 92.066406 110.84375 93 113.75 C 93.597656 116.441406 94.199219 119.128906 91.199219 117.636719 L 88.199219 115.84375 C 88.660156 120.433594 89.980469 124.890625 92.101562 128.992188 C 94.804688 133.644531 96.351562 138.871094 96.601562 144.242188 C 96.023438 153.703125 92.804688 162.816406 87.300781 170.546875 C 87 170.546875 86.699219 170.847656 86.699219 168.15625 C 86.699219 165.46875 84.300781 161.882812 84 156.796875 C 83.84375 154.90625 83.84375 153.007812 84 151.121094 C 84 151.121094 82.199219 154.109375 81 153.507812 C 79.800781 152.910156 79.199219 147.234375 82.800781 136.765625 C 82.800781 137.664062 79.199219 140.355469 77.699219 139.460938 C 76.203125 138.5625 74.101562 132.585938 76.5 122.117188 L 77.699219 119.128906 C 77.699219 119.128906 75.597656 121.820312 74.699219 121.519531 C 73.800781 121.226562 72.597656 115.84375 75.597656 106.277344 C 76.203125 106.277344 72.300781 109.265625 72.898438 105.679688 Z M 72.898438 105.679688 "/>
<path style=" stroke:none;fill-rule:nonzero;fill:rgb(81.568627%,60.784314%,2.745098%);fill-opacity:1;" d="M 84.898438 79.96875 C 85.238281 85.984375 85.941406 91.972656 87 97.90625 C 88.5 101.792969 89.402344 102.691406 88.5 102.390625 L 86.101562 101.792969 C 86.101562 101.792969 88.199219 107.171875 89.101562 110.460938 C 90 113.75 88.5 113.453125 88.199219 112.851562 C 87.898438 112.253906 85.199219 109.265625 85.199219 109.265625 C 85.695312 114.390625 86.910156 119.421875 88.800781 124.214844 C 91.914062 131.601562 93.542969 139.519531 93.597656 147.53125 C 92.746094 153.203125 91.441406 158.800781 89.699219 164.269531 C 89.699219 164.269531 88.199219 150.222656 87.898438 146.933594 C 87.601562 145.554688 87.402344 144.152344 87.300781 142.75 C 87.300781 142.75 86.402344 147.53125 85.5 147.234375 C 84.597656 146.933594 85.199219 139.160156 85.5 135.273438 C 85.652344 134.28125 85.652344 133.273438 85.5 132.285156 C 85.5 131.386719 83.101562 134.675781 82.199219 134.675781 C 81.300781 134.675781 79.199219 137.066406 81 118.832031 C 81.300781 113.152344 81.597656 110.164062 81.597656 110.164062 C 81.597656 110.164062 80.101562 114.945312 79.199219 115.242188 C 78.300781 115.542969 77.699219 110.164062 78.597656 103.285156 C 79.5 96.410156 83.402344 82.359375 83.402344 82.0625 L 84.898438 75.785156 L 85.5 72.796875 Z M 84.898438 79.96875 "/>
<path style="fill:none;stroke-width:0.4;stroke-linecap:round;stroke-linejoin:round;stroke:rgb(0%,0%,0%);stroke-opacity:1;stroke-miterlimit:4;" d="M 28.399736 21.500399 C 28.399736 21.500399 29.600256 30.099582 30.800777 32.499931 C 31.999996 34.900281 31.199214 34.499133 30.899735 34.499133 L 29.600256 34.1006 C 30.21484 34.914654 30.688798 35.828015 30.999996 36.800176 C 31.199214 37.70047 31.399735 38.599458 30.399735 38.100311 L 29.399735 37.50055 C 29.553381 39.035885 29.993485 40.526794 30.700517 41.898795 C 31.601558 43.455037 32.117183 45.203359 32.200516 47.000028 C 32.007808 50.164778 30.934892 53.213234 29.100256 55.799131 C 28.999996 55.799131 28.899736 55.899744 28.899736 54.99945 C 28.899736 54.100462 28.100256 52.900941 27.999996 51.199659 C 27.947913 50.567232 27.947913 49.932191 27.999996 49.30107 C 27.999996 49.30107 27.399736 50.300671 26.999996 50.100751 C 26.600257 49.899524 26.399736 48.000935 27.600257 44.499065 C 27.600257 44.799598 26.399736 45.699893 25.899736 45.400666 C 25.401038 45.100132 24.700517 43.10093 25.499996 39.599059 L 25.899736 38.599458 C 25.899736 38.599458 25.199215 39.499752 24.899736 39.399139 C 24.600257 39.301139 24.199215 37.50055 25.199215 34.30052 C 25.100257 34.399827 23.999997 35.400734 24.199215 34.1006 C 24.712236 32.503851 25.382809 30.96329 26.199215 29.499821 C 27.399736 27.700539 28.399736 23.199067 28.399736 21.500399 Z M 28.399736 21.500399 " transform="matrix(3,0,0,2.989474,0,3.736842)"/>
<path style="fill:none;stroke-width:0.4;stroke-linecap:round;stroke-linejoin:round;stroke:rgb(0%,0%,0%);stroke-opacity:1;stroke-miterlimit:4;" d="M 28.399736 21.898933 C 28.399736 21.898933 27.800777 30.099582 27.600257 31.999477 C 27.399736 33.900679 28.299475 39.599059 29.399735 43.19893 C 30.499996 46.800107 30.199215 53.400088 29.299475 55.600517 " transform="matrix(3,0,0,2.989474,0,3.736842)"/>
<path style=" stroke:none;fill-rule:nonzero;fill:rgb(19.607843%,34.117647%,13.72549%);fill-opacity:1;" d="M 154.5 349.917969 C 154.5 349.917969 161.101562 342.441406 162.898438 316.734375 C 164.699219 291.023438 160.800781 273.386719 175.199219 252.757812 C 189.601562 232.132812 205.199219 247.679688 206.398438 250.667969 C 207.601562 253.65625 214.800781 264.117188 204.601562 290.726562 C 194.402344 317.332031 182.402344 329.589844 179.402344 340.949219 C 176.402344 352.308594 174.597656 360.382812 177.597656 370.246094 C 179.402344 375.03125 178.199219 372.9375 178.5 373.832031 C 178.800781 374.730469 169.5 374.730469 160.203125 364.566406 C 150.902344 354.402344 154.5 349.917969 154.5 349.917969 Z M 154.5 349.917969 "/>
<path style=" stroke:none;fill-rule:nonzero;fill:rgb(100%,0%,0%);fill-opacity:1;" d="M 175.199219 252.757812 C 189.601562 232.132812 205.199219 247.679688 206.398438 250.667969 C 207.601562 253.65625 214.800781 264.117188 204.601562 290.726562 C 194.402344 317.332031 182.402344 329.589844 179.402344 340.949219 C 184.199219 289.828125 160.800781 273.6875 175.199219 252.757812 Z M 175.199219 252.757812 "/>
<path style=" stroke:none;fill-rule:nonzero;fill:rgb(5.098039%,22.745098%,7.058824%);fill-opacity:1;" d="M 178.199219 374.132812 C 173.964844 374.25 169.820312 372.875 166.5 370.246094 C 161.496094 366.976562 157.453125 362.4375 154.800781 357.089844 C 152.699219 352.910156 153.902344 349.917969 156 348.425781 C 158.773438 347.414062 161.875 347.984375 164.101562 349.917969 C 167.023438 352.332031 169.464844 355.273438 171.300781 358.585938 C 172.5 361.574219 175.800781 368.453125 175.800781 368.453125 L 178.199219 373.535156 L 178.800781 374.730469 Z M 178.199219 374.132812 "/>
<path style=" stroke:none;fill-rule:nonzero;fill:rgb(5.098039%,22.745098%,7.058824%);fill-opacity:1;" d="M 164.101562 349.917969 C 164.101562 349.917969 168 327.792969 163.5 308.960938 C 163.5 308.960938 162.597656 325.105469 161.398438 330.488281 C 160.4375 336 158.929688 341.410156 156.898438 346.628906 L 155.398438 349.023438 Z M 164.101562 349.917969 "/>
<path style=" stroke:none;fill-rule:nonzero;fill:rgb(59.607843%,3.137255%,1.960784%);fill-opacity:1;" d="M 185.699219 327.496094 C 185.699219 327.496094 199.5 306.570312 202.800781 295.808594 C 206.097656 285.046875 212.398438 273.6875 209.398438 259.039062 C 208.179688 252.875 204.351562 247.539062 198.898438 244.390625 C 198.898438 244.390625 201.601562 271.292969 192.898438 294.613281 C 184.199219 317.929688 181.5 322.714844 181.5 322.714844 Z M 185.699219 327.496094 "/>
<path style="fill:none;stroke-width:0.4;stroke-linecap:round;stroke-linejoin:round;stroke:rgb(0%,0%,0%);stroke-opacity:1;stroke-miterlimit:4;" d="M 51.499993 115.800025 C 51.499993 115.800025 53.700513 113.299062 54.299472 104.699879 C 54.899732 96.099389 53.600253 90.199783 58.399731 83.299268 C 63.200512 76.400061 67.99999 81.499986 68.79947 82.600201 C 69.600251 83.700415 71.60025 87.099059 68.200511 96.000083 C 64.800772 104.899799 60.800773 109.000124 59.800773 112.799915 C 58.800773 116.599706 58.199211 119.300589 59.19921 122.599926 L 59.499992 123.799447 C 59.399731 124.099981 56.499992 124.099981 53.401034 120.70003 C 50.300774 117.30008 51.499993 115.800025 51.499993 115.800025 Z M 51.499993 115.800025 " transform="matrix(3,0,0,2.989474,0,3.736842)"/>
<path style="fill:none;stroke-width:0.4;stroke-linecap:round;stroke-linejoin:round;stroke:rgb(0%,0%,0%);stroke-opacity:1;stroke-miterlimit:4;" d="M 51.499993 115.800025 C 51.499993 115.800025 52.401034 114.200663 54.700513 115.800025 C 56.999992 117.399387 58.700513 123.199686 59.399731 123.70014 " transform="matrix(3,0,0,2.989474,0,3.736842)"/>
<path style=" stroke:none;fill-rule:nonzero;fill:rgb(98.431373%,76.078431%,9.803922%);fill-opacity:1;" d="M 188.101562 320.621094 C 186.539062 325.523438 184.421875 330.238281 181.800781 334.671875 C 178.371094 342.007812 176.335938 349.914062 175.800781 357.988281 C 175.800781 357.988281 172.199219 332.28125 168.597656 325.105469 C 165 317.929688 167.402344 319.128906 168.300781 319.128906 L 172.199219 320.320312 C 170.355469 317.886719 168.933594 315.15625 168 312.25 C 167.402344 309.558594 166.800781 306.871094 169.800781 308.363281 L 172.800781 310.15625 C 172.339844 305.566406 171.019531 301.109375 168.898438 297.007812 C 166.195312 292.355469 164.648438 287.128906 164.398438 281.757812 C 164.976562 272.296875 168.195312 263.183594 173.699219 255.453125 C 174 255.453125 174.300781 255.152344 174.300781 257.84375 C 174.300781 260.53125 176.699219 264.117188 177 269.203125 C 177.15625 271.09375 177.15625 272.992188 177 274.878906 C 177 274.878906 178.800781 271.890625 180 272.492188 C 181.199219 273.089844 181.800781 278.765625 178.199219 289.234375 C 178.199219 288.335938 181.800781 285.644531 183.300781 286.539062 C 184.796875 287.4375 186.898438 293.414062 184.5 303.882812 L 183 307.167969 C 183 307.167969 184.796875 304.480469 186 304.773438 C 187.199219 305.074219 188.101562 310.457031 184.796875 320.320312 C 185.402344 319.722656 188.699219 316.734375 188.101562 320.621094 Z M 188.101562 320.621094 "/>
<path style=" stroke:none;fill-rule:nonzero;fill:rgb(81.568627%,60.784314%,2.745098%);fill-opacity:1;" d="M 176.101562 346.03125 C 175.761719 340.015625 175.058594 334.027344 174 328.09375 C 172.5 324.207031 171.597656 323.308594 172.5 323.609375 L 174.898438 324.207031 C 174.898438 324.207031 172.800781 318.828125 171.898438 315.539062 C 171 312.25 172.5 312.546875 172.800781 313.148438 C 173.101562 313.746094 175.800781 316.734375 175.800781 316.734375 C 175.304688 311.609375 174.089844 306.578125 172.199219 301.785156 C 169.085938 294.398438 167.457031 286.480469 167.402344 278.46875 C 168.253906 272.796875 169.558594 267.199219 171.300781 261.730469 C 171.300781 261.730469 172.800781 275.777344 173.101562 279.066406 C 173.398438 280.445312 173.597656 281.847656 173.699219 283.25 C 173.699219 283.25 174.597656 278.46875 175.5 278.765625 C 176.402344 279.066406 175.800781 286.839844 175.5 290.726562 C 175.347656 291.71875 175.347656 292.726562 175.5 293.714844 C 175.5 294.613281 177.898438 291.324219 178.800781 291.324219 C 179.699219 291.324219 181.800781 288.933594 180 307.167969 C 179.699219 312.847656 179.402344 315.835938 179.402344 315.835938 C 179.402344 315.835938 180.898438 311.054688 181.800781 310.757812 C 182.699219 310.457031 183.300781 315.835938 182.402344 322.714844 C 181.5 329.589844 177.597656 343.640625 177.597656 343.9375 L 176.101562 350.214844 L 175.5 353.203125 Z M 176.101562 346.03125 "/>
<path style="fill:none;stroke-width:0.4;stroke-linecap:round;stroke-linejoin:round;stroke:rgb(0%,0%,0%);stroke-opacity:1;stroke-miterlimit:4;" d="M 58.600252 118.499601 C 58.600252 118.499601 57.399732 109.900418 56.199211 107.500069 C 54.999992 105.099719 55.800773 105.500867 56.100253 105.500867 L 57.399732 105.8994 C 56.785148 105.085346 56.31119 104.171985 55.999992 103.199824 C 55.800773 102.29953 55.600253 101.400542 56.600253 101.899689 L 57.600252 102.49945 C 57.446607 100.964115 57.006502 99.473206 56.299471 98.101205 C 55.39843 96.544963 54.882805 94.796641 54.799472 92.999972 C 54.99218 89.835222 56.065096 86.786766 57.899731 84.200869 C 57.999992 84.200869 58.100252 84.100256 58.100252 85.00055 C 58.100252 85.899538 58.899731 87.099059 58.999992 88.800341 C 59.052075 89.432768 59.052075 90.067809 58.999992 90.69893 C 58.999992 90.69893 59.600252 89.699329 59.999992 89.899249 C 60.399731 90.100476 60.600252 91.999065 59.399731 95.500935 C 59.399731 95.200402 60.600252 94.300107 61.100252 94.599334 C 61.59895 94.899868 62.29947 96.89907 61.499991 100.400941 L 60.999991 101.499849 C 60.999991 101.499849 61.59895 100.600861 61.999991 100.698861 C 62.399731 100.799475 62.700512 102.600063 61.59895 105.8994 C 61.800773 105.69948 62.899731 104.699879 62.700512 106.000014 C 62.179679 107.639882 61.47395 109.217031 60.600252 110.700099 C 59.600252 112.299461 58.700513 116.800933 58.600252 118.499601 Z M 58.600252 118.499601 " transform="matrix(3,0,0,2.989474,0,3.736842)"/>
<path style="fill:none;stroke-width:0.4;stroke-linecap:round;stroke-linejoin:round;stroke:rgb(0%,0%,0%);stroke-opacity:1;stroke-miterlimit:4;" d="M 58.600252 118.101067 C 58.600252 118.101067 59.19921 109.900418 59.399731 108.000523 C 59.600252 106.099321 58.700513 100.400941 57.600252 96.80107 C 56.499992 93.199893 56.800773 86.599912 57.700513 84.399483 " transform="matrix(3,0,0,2.989474,0,3.736842)"/>
<path style=" stroke:none;fill-rule:nonzero;fill:rgb(19.607843%,34.117647%,13.72549%);fill-opacity:1;" d="M 106.5 349.917969 C 106.5 349.917969 99.898438 342.441406 98.101562 316.734375 C 96.300781 291.023438 100.199219 273.386719 85.800781 252.757812 C 71.398438 232.132812 55.800781 247.679688 54.601562 250.667969 C 53.398438 253.65625 46.199219 264.117188 56.398438 290.726562 C 66.597656 317.332031 78.597656 329.589844 81.597656 340.949219 C 84.597656 352.308594 86.402344 360.382812 83.402344 370.246094 C 81.597656 375.03125 82.800781 372.9375 82.5 373.832031 C 82.199219 374.730469 91.5 374.730469 100.796875 364.566406 C 110.097656 354.402344 106.5 349.917969 106.5 349.917969 Z M 106.5 349.917969 "/>
<path style=" stroke:none;fill-rule:nonzero;fill:rgb(100%,0%,0%);fill-opacity:1;" d="M 85.800781 252.757812 C 71.398438 232.132812 55.800781 247.679688 54.601562 250.667969 C 53.398438 253.65625 46.199219 264.117188 56.398438 290.726562 C 66.597656 317.332031 78.597656 329.589844 81.597656 340.949219 C 76.800781 289.828125 100.199219 273.6875 85.800781 252.757812 Z M 85.800781 252.757812 "/>
<path style=" stroke:none;fill-rule:nonzero;fill:rgb(5.098039%,22.745098%,7.058824%);fill-opacity:1;" d="M 83.101562 374.132812 C 87.335938 374.25 91.480469 372.875 94.800781 370.246094 C 99.804688 366.976562 103.847656 362.4375 106.5 357.089844 C 108.601562 352.910156 107.402344 349.917969 105.300781 348.425781 C 102.527344 347.414062 99.425781 347.984375 97.199219 349.917969 C 94.277344 352.332031 91.835938 355.273438 90 358.585938 C 88.800781 361.574219 85.5 368.453125 85.5 368.453125 L 83.101562 373.535156 L 82.5 374.730469 Z M 83.101562 374.132812 "/>
<path style=" stroke:none;fill-rule:nonzero;fill:rgb(5.098039%,22.745098%,7.058824%);fill-opacity:1;" d="M 97.199219 349.917969 C 97.199219 349.917969 93.597656 327.792969 97.796875 308.960938 C 97.796875 308.960938 98.699219 325.105469 99.898438 330.488281 C 100.859375 336 102.371094 341.410156 104.402344 346.628906 L 105.898438 349.023438 Z M 97.199219 349.917969 "/>
<path style=" stroke:none;fill-rule:nonzero;fill:rgb(59.607843%,3.137255%,1.960784%);fill-opacity:1;" d="M 75.300781 327.496094 C 75.300781 327.496094 61.5 306.570312 58.199219 295.808594 C 54.902344 285.046875 48.601562 273.6875 51.601562 259.039062 C 52.820312 252.875 56.648438 247.539062 62.101562 244.390625 C 62.101562 244.390625 59.398438 271.292969 68.101562 294.613281 C 76.800781 317.929688 79.5 322.714844 79.5 322.714844 Z M 75.300781 327.496094 "/>
<path style="fill:none;stroke-width:0.4;stroke-linecap:round;stroke-linejoin:round;stroke:rgb(0%,0%,0%);stroke-opacity:1;stroke-miterlimit:4;" d="M 35.499995 115.800025 C 35.499995 115.800025 33.299475 113.299062 32.700516 104.699879 C 32.100256 96.099389 33.399735 90.199783 28.600256 83.299268 C 23.799476 76.400061 18.999997 81.499986 18.200518 82.600201 C 17.399737 83.700415 15.399737 87.099059 18.799477 96.000083 C 22.199216 104.899799 26.199215 109.000124 27.199215 112.799915 C 28.199215 116.599706 28.800777 119.300589 27.800777 122.599926 L 27.499996 123.799447 C 27.600257 124.099981 30.499996 124.099981 33.598954 120.70003 C 36.699214 117.30008 35.499995 115.800025 35.499995 115.800025 Z M 35.499995 115.800025 " transform="matrix(3,0,0,2.989474,0,3.736842)"/>
<path style="fill:none;stroke-width:0.4;stroke-linecap:round;stroke-linejoin:round;stroke:rgb(0%,0%,0%);stroke-opacity:1;stroke-miterlimit:4;" d="M 35.499995 115.800025 C 35.499995 115.800025 34.598953 114.200663 32.299475 115.800025 C 29.999996 117.399387 28.299475 123.199686 27.600257 123.70014 " transform="matrix(3,0,0,2.989474,0,3.736842)"/>
<path style=" stroke:none;fill-rule:nonzero;fill:rgb(98.431373%,76.078431%,9.803922%);fill-opacity:1;" d="M 72.898438 320.621094 C 74.460938 325.523438 76.578125 330.238281 79.199219 334.671875 C 82.628906 342.007812 84.664062 349.914062 85.199219 357.988281 C 85.199219 357.988281 88.800781 332.28125 92.402344 325.105469 C 96 317.929688 93.597656 319.128906 92.699219 319.128906 L 88.800781 320.621094 C 90.644531 318.183594 92.066406 315.457031 93 312.546875 C 93.597656 309.859375 94.199219 307.167969 91.199219 308.960938 L 88.5 310.457031 C 88.941406 305.957031 90.261719 301.589844 92.402344 297.601562 C 95.226562 292.898438 96.773438 287.539062 96.898438 282.058594 C 96.320312 272.644531 93.210938 263.558594 87.898438 255.75 C 87.300781 255.75 87 255.453125 87 258.140625 C 87 260.832031 84.898438 264.417969 84.300781 269.5 C 84.140625 271.390625 84.140625 273.289062 84.300781 275.179688 C 84.300781 275.179688 82.5 272.191406 81.300781 272.789062 C 80.101562 273.386719 79.5 279.066406 83.101562 289.53125 C 83.101562 288.933594 79.5 286.242188 78 286.839844 C 76.5 287.4375 74.398438 293.714844 76.800781 304.179688 L 78 307.167969 C 78 307.167969 76.203125 304.480469 75 304.773438 C 73.800781 305.074219 72.898438 310.457031 76.203125 320.320312 C 76.203125 319.722656 72.300781 316.734375 72.898438 320.621094 Z M 72.898438 320.621094 "/>
<path style=" stroke:none;fill-rule:nonzero;fill:rgb(81.568627%,60.784314%,2.745098%);fill-opacity:1;" d="M 84.898438 346.03125 C 85.238281 340.015625 85.941406 334.027344 87 328.09375 C 88.5 324.207031 89.402344 323.308594 88.5 323.609375 L 86.101562 324.207031 C 86.101562 324.207031 88.199219 318.828125 89.101562 315.539062 C 90 312.25 88.5 312.546875 88.199219 313.148438 C 86.984375 314.339844 85.882812 315.644531 84.898438 317.03125 C 85.394531 311.910156 86.609375 306.878906 88.5 302.085938 C 91.667969 294.730469 93.203125 286.773438 93 278.765625 C 92.34375 273.085938 91.136719 267.480469 89.402344 262.027344 C 89.402344 262.027344 87.898438 276.078125 87.300781 279.367188 C 86.699219 282.652344 87 283.550781 87 283.550781 C 87 283.550781 86.101562 278.765625 85.199219 279.066406 C 84.300781 279.367188 84.898438 287.136719 85.199219 291.023438 C 85.351562 292.015625 85.351562 293.023438 85.199219 294.011719 C 85.199219 294.910156 82.800781 291.921875 81.597656 291.921875 C 80.402344 291.921875 78.597656 289.234375 80.699219 307.46875 C 81 313.148438 81.300781 316.136719 81.300781 316.136719 C 81.300781 316.136719 79.800781 311.355469 78.597656 311.054688 C 77.398438 310.757812 77.398438 316.136719 78.300781 323.308594 C 79.199219 330.488281 83.101562 343.9375 83.101562 344.238281 L 84.300781 350.515625 L 85.199219 353.503906 Z M 84.898438 346.03125 "/>
<path style="fill:none;stroke-width:0.4;stroke-linecap:round;stroke-linejoin:round;stroke:rgb(0%,0%,0%);stroke-opacity:1;stroke-miterlimit:4;" d="M 28.399736 118.499601 C 28.399736 118.499601 29.600256 109.900418 30.800777 107.500069 C 31.999996 105.099719 31.199214 105.500867 30.899735 105.500867 L 29.600256 106.000014 C 30.21484 105.184653 30.688798 104.272598 30.999996 103.299131 C 31.199214 102.400143 31.399735 101.499849 30.399735 102.099609 L 29.499996 102.600063 C 29.647131 101.094782 30.087235 99.633927 30.800777 98.299818 C 31.742183 96.72659 32.257808 94.933841 32.299475 93.100586 C 32.106766 89.951516 31.070308 86.912206 29.299475 84.300176 C 29.100256 84.300176 28.999996 84.200869 28.999996 85.099857 C 28.999996 86.000151 28.299475 87.199673 28.100256 88.899648 C 28.046871 89.532075 28.046871 90.167116 28.100256 90.799543 C 28.100256 90.799543 27.499996 89.799942 27.100257 89.999862 C 26.700517 90.199783 26.499996 92.099678 27.700517 95.600242 C 27.700517 95.400322 26.499996 94.500028 25.999996 94.699948 C 25.499996 94.899868 24.799476 96.999684 25.600257 100.500248 L 25.999996 101.499849 C 25.999996 101.499849 25.401038 100.600861 24.999997 100.698861 C 24.600257 100.799475 24.299476 102.600063 25.401038 105.8994 C 25.199215 105.69948 24.100257 104.699879 24.299476 106.000014 C 24.820309 107.639882 25.526038 109.217031 26.399736 110.700099 C 27.542965 113.154022 28.22135 115.798718 28.399736 118.499601 Z M 28.399736 118.499601 " transform="matrix(3,0,0,2.989474,0,3.736842)"/>
<path style="fill:none;stroke-width:0.4;stroke-linecap:round;stroke-linejoin:round;stroke:rgb(0%,0%,0%);stroke-opacity:1;stroke-miterlimit:4;" d="M 28.399736 118.101067 C 28.399736 118.101067 27.800777 109.900418 27.600257 108.000523 C 27.399736 106.099321 28.299475 100.400941 29.399735 96.80107 C 30.499996 93.199893 30.199215 86.599912 29.299475 84.399483 " transform="matrix(3,0,0,2.989474,0,3.736842)"/>
<path style=" stroke:none;fill-rule:nonzero;fill:rgb(100%,0%,0%);fill-opacity:1;" d="M 175.5 225.257812 C 175.5 225.257812 166.5 220.773438 141.296875 225.558594 C 116.097656 230.335938 99.898438 239.007812 76.203125 230.335938 C 52.5 221.671875 63.296875 202.835938 66 200.742188 C 68.699219 198.652344 76.800781 189.082031 105.300781 192.074219 C 133.800781 195.0625 148.5 203.730469 160.5 203.730469 C 172.5 203.730469 180.300781 203.433594 189.300781 197.753906 L 192.300781 195.664062 C 193.199219 195.363281 195.300781 204.328125 188.101562 215.691406 C 180.898438 227.050781 175.5 225.257812 175.5 225.257812 Z M 175.5 225.257812 "/>
<path style=" stroke:none;fill-rule:nonzero;fill:rgb(19.607843%,34.117647%,13.72549%);fill-opacity:1;" d="M 76.203125 230.335938 C 52.199219 221.671875 63.296875 202.835938 66 200.742188 C 68.699219 198.652344 76.800781 189.082031 105.300781 192.074219 C 133.800781 195.0625 148.5 203.730469 160.5 203.730469 C 109.5 212.101562 99.898438 239.007812 76.203125 230.335938 Z M 76.203125 230.335938 "/>
<path style=" stroke:none;fill-rule:nonzero;fill:rgb(59.607843%,3.137255%,1.960784%);fill-opacity:1;" d="M 192.898438 196.554688 C 193.9375 200.535156 193.621094 204.738281 192 208.515625 C 190.144531 214.238281 186.835938 219.386719 182.402344 223.460938 C 178.5 226.453125 175.199219 226.152344 173.699219 224.359375 C 172.109375 221.984375 171.671875 219.019531 172.5 216.289062 C 174.085938 212.972656 176.210938 209.9375 178.800781 207.320312 L 187.199219 200.441406 L 191.402344 196.554688 L 192 195.664062 Z M 192.898438 196.554688 "/>
<path style=" stroke:none;fill-rule:nonzero;fill:rgb(59.607843%,3.137255%,1.960784%);fill-opacity:1;" d="M 172.800781 216.289062 C 172.800781 216.289062 150.296875 218.679688 133.199219 227.347656 C 133.199219 227.347656 149.398438 224.0625 155.101562 223.761719 C 160.699219 223.382812 166.320312 223.484375 171.898438 224.0625 L 174.597656 224.660156 Z M 172.800781 216.289062 "/>
<path style=" stroke:none;fill-rule:nonzero;fill:rgb(5.098039%,22.745098%,7.058824%);fill-opacity:1;" d="M 145.800781 201.339844 C 145.800781 201.339844 121.5 193.269531 110.703125 192.96875 C 99.898438 192.671875 86.699219 189.382812 72.898438 195.664062 C 67.101562 198.382812 62.816406 203.53125 61.199219 209.710938 C 61.199219 209.710938 86.699219 200.441406 111.300781 202.539062 C 121.464844 203.273438 131.578125 204.574219 141.601562 206.425781 Z M 145.800781 201.339844 "/>
<path style="fill:none;stroke-width:0.4;stroke-linecap:round;stroke-linejoin:round;stroke:rgb(0%,0%,0%);stroke-opacity:1;stroke-miterlimit:4;" d="M 58.499992 74.100325 C 58.499992 74.100325 55.499992 72.60027 47.098952 74.200938 C 38.699213 75.798993 33.299475 78.699796 25.401038 75.798993 C 17.499998 72.900803 21.098955 66.99989 21.999997 65.899675 C 22.899736 64.799461 25.600257 61.999271 35.100256 63.000179 C 44.600254 63.99978 49.499993 66.899277 53.499993 66.899277 C 57.499992 66.899277 60.100252 66.79997 63.100252 64.900074 L 64.200512 64.201007 C 64.399731 64.300314 65.100251 67.099197 62.800772 70.999601 C 60.499992 74.900006 58.499992 74.100325 58.499992 74.100325 Z M 58.499992 74.100325 " transform="matrix(3,0,0,2.989474,0,3.736842)"/>
<path style="fill:none;stroke-width:0.4;stroke-linecap:round;stroke-linejoin:round;stroke:rgb(0%,0%,0%);stroke-opacity:1;stroke-miterlimit:4;" d="M 58.499992 74.100325 C 58.499992 74.100325 56.800773 73.700484 57.700513 70.999601 C 58.600252 68.300025 63.800772 65.299915 64.200512 64.39962 " transform="matrix(3,0,0,2.989474,0,3.736842)"/>
<path style=" stroke:none;fill-rule:nonzero;fill:rgb(98.431373%,76.078431%,9.803922%);fill-opacity:1;" d="M 138 200.742188 C 143.273438 200.75 148.515625 201.449219 153.597656 202.835938 C 159.300781 204.628906 171.300781 204.03125 176.402344 203.136719 C 176.402344 203.136719 154.203125 213 148.199219 218.679688 C 142.199219 224.359375 142.800781 221.070312 142.5 220.175781 C 142.347656 218.882812 142.347656 217.578125 142.5 216.289062 C 140.636719 218.605469 138.523438 220.710938 136.199219 222.566406 C 133.800781 223.761719 131.097656 224.957031 132 221.671875 L 133.199219 218.382812 C 128.941406 219.964844 125.0625 222.40625 121.800781 225.558594 C 118.027344 229.453125 113.253906 232.246094 108 233.625 C 98.601562 235.769531 88.777344 235.039062 79.800781 231.535156 C 79.800781 231.234375 79.199219 230.9375 81.898438 230.335938 C 84.597656 229.742188 87.300781 226.453125 92.101562 224.957031 L 97.5 223.761719 C 97.5 223.761719 94.199219 222.269531 94.5 221.371094 C 94.800781 220.472656 99.898438 218.082031 111 218.679688 C 110.402344 218.679688 107.097656 215.988281 107.097656 214.496094 C 107.097656 213 113.097656 209.414062 123.601562 208.8125 L 126.601562 209.414062 C 126.601562 209.414062 123.601562 207.917969 123.601562 207.023438 C 123.601562 206.125 128.699219 203.136719 139.199219 204.03125 C 138.601562 203.730469 134.398438 201.042969 138 200.742188 Z M 138 200.742188 "/>
<path style=" stroke:none;fill-rule:nonzero;fill:rgb(81.568627%,60.784314%,2.745098%);fill-opacity:1;" d="M 166.199219 205.527344 C 160.523438 207.371094 155.003906 209.667969 149.699219 212.402344 C 146.398438 214.796875 145.800781 215.988281 145.800781 214.796875 L 145.800781 212.402344 L 138 217.484375 C 135 218.976562 135 217.785156 135.300781 216.886719 L 138.300781 213 C 133.386719 214.863281 128.742188 217.378906 124.5 220.472656 C 118.082031 225.199219 110.871094 228.742188 103.199219 230.9375 C 97.550781 231.867188 91.816406 232.164062 86.101562 231.832031 L 102.601562 225.257812 L 106.199219 224.0625 C 106.199219 224.0625 101.402344 224.0625 101.402344 223.164062 C 101.402344 222.269531 109.199219 220.773438 113.097656 219.875 L 116.398438 219.277344 C 117 218.976562 113.703125 217.785156 112.800781 216.585938 C 111.898438 215.390625 109.5 214.195312 128.097656 211.804688 C 130.9375 210.941406 133.851562 210.339844 136.800781 210.011719 C 136.800781 210.011719 131.699219 209.414062 131.097656 208.515625 C 130.5 207.617188 135.300781 206.425781 142.800781 205.226562 C 150.296875 204.03125 163.800781 204.628906 164.398438 204.328125 L 174 204.328125 Z M 166.199219 205.527344 "/>
<path style="fill:none;stroke-width:0.4;stroke-linecap:round;stroke-linejoin:round;stroke:rgb(0%,0%,0%);stroke-opacity:1;stroke-miterlimit:4;" d="M 59.19921 66.500743 C 59.19921 66.500743 51.401034 70 49.399733 71.899895 C 47.399733 73.799791 47.600254 72.699576 47.499993 72.499656 C 47.449212 72.034482 47.449212 71.565388 47.499993 71.100215 C 46.864577 71.895975 46.124994 72.602883 45.300775 73.20003 C 44.600254 73.599871 43.699213 73.999711 43.999994 72.900803 L 44.300775 71.800589 C 42.904942 72.376829 41.621088 73.18827 40.499994 74.200938 C 38.499995 76.00022 37.100255 76.700594 35.999995 76.899208 C 32.878902 77.659689 29.598954 77.450622 26.600257 76.299447 C 26.600257 76.099527 26.399736 76.00022 27.199215 75.798993 C 27.999996 75.60038 28.999996 74.500165 30.700517 73.999711 L 32.499995 73.599871 C 32.499995 73.599871 31.399735 73.100723 31.499996 72.80019 C 31.600256 72.499656 33.299475 71.699975 36.999995 71.899895 C 36.699214 71.899895 35.598953 70.999601 35.598953 70.601067 C 35.598953 70.19992 37.600255 68.800479 41.200515 68.699865 L 42.200515 68.699865 C 42.200515 68.699865 41.200515 68.199411 41.200515 67.900184 C 41.200515 67.599651 42.899734 66.700663 46.300775 66.899277 C 46.200514 66.899277 44.899733 66.000289 46.100254 65.899675 C 47.861972 65.931035 49.61067 66.201516 51.300774 66.700663 C 52.999993 67.19981 57.499992 66.79997 59.19921 66.500743 Z M 59.19921 66.500743 " transform="matrix(3,0,0,2.989474,0,3.736842)"/>
<path style="fill:none;stroke-width:0.4;stroke-linecap:round;stroke-linejoin:round;stroke:rgb(0%,0%,0%);stroke-opacity:1;stroke-miterlimit:4;" d="M 58.399731 66.700663 L 48.899733 68.699865 C 46.899733 68.899785 41.799473 71.199521 38.499995 73.20003 C 35.200516 75.200539 28.899736 76.500674 26.499996 76.20014 " transform="matrix(3,0,0,2.989474,0,3.736842)"/>
</g>
</svg>
