<?xml version="1.0" encoding="UTF-8"?>
<svg xmlns="http://www.w3.org/2000/svg" xmlns:xlink="http://www.w3.org/1999/xlink" width="261px" height="420px" viewBox="0 0 261 426" version="1.1">
<g id="surface1">
<path style=" stroke:none;fill-rule:nonzero;fill:rgb(100%,100%,100%);fill-opacity:1;" d="M 18 3.738281 L 243 3.738281 C 252.941406 3.738281 261 11.769531 261 21.671875 L 261 404.328125 C 261 414.230469 252.941406 422.261719 243 422.261719 L 18 422.261719 C 8.058594 422.261719 0 414.230469 0 404.328125 L 0 21.671875 C 0 11.769531 8.058594 3.738281 18 3.738281 Z M 18 3.738281 "/>
<path style=" stroke:none;fill-rule:nonzero;fill:rgb(19.607843%,34.117647%,13.72549%);fill-opacity:1;" d="M 120.300781 70.101562 C 120.300781 70.101562 124.5 78.773438 120 103.585938 C 115.5 128.398438 106.796875 144.242188 115.5 167.558594 C 124.199219 190.878906 142.5 179.816406 144.902344 177.128906 C 147.296875 174.433594 156.300781 166.660156 153 138.863281 C 149.699219 111.058594 141.601562 96.410156 141.601562 84.453125 C 141.601562 72.496094 141.902344 65.023438 147.296875 56.351562 C 149.699219 52.464844 148.800781 54.257812 149.101562 53.0625 C 149.398438 51.867188 140.699219 50.375 129.300781 57.25 C 117.898438 64.125 120.300781 70.101562 120.300781 70.101562 Z M 120.300781 70.101562 "/>
<path style=" stroke:none;fill-rule:nonzero;fill:rgb(100%,0%,0%);fill-opacity:1;" d="M 115.199219 167.558594 C 123.601562 190.878906 142.199219 179.816406 144.296875 177.128906 C 146.398438 174.433594 156 166.660156 152.699219 138.863281 C 149.398438 111.058594 141 96.410156 141 84.453125 C 133.199219 134.675781 106.796875 144.242188 115.199219 167.558594 Z M 115.199219 167.558594 "/>
<path style=" stroke:none;fill-rule:nonzero;fill:rgb(5.098039%,22.745098%,7.058824%);fill-opacity:1;" d="M 148.800781 52.765625 C 144.808594 51.726562 140.589844 52.046875 136.800781 53.664062 C 131.230469 55.363281 126.246094 58.570312 122.398438 62.929688 C 119.398438 66.515625 119.398438 69.804688 121.199219 71.597656 C 123.574219 73.292969 126.699219 73.523438 129.300781 72.195312 C 132.636719 70.644531 135.605469 68.40625 138 65.617188 L 144.902344 57.546875 L 148.5 53.664062 L 149.398438 52.765625 Z M 148.800781 52.765625 "/>
<path style=" stroke:none;fill-rule:nonzero;fill:rgb(5.098039%,22.745098%,7.058824%);fill-opacity:1;" d="M 129.300781 72.496094 C 129.300781 72.496094 127.199219 94.617188 118.5 111.355469 C 118.5 111.355469 121.800781 95.511719 122.097656 90.132812 C 122.476562 84.652344 122.375 79.152344 121.800781 73.691406 L 120.898438 71 Z M 129.300781 72.496094 "/>
<path style=" stroke:none;fill-rule:nonzero;fill:rgb(59.607843%,3.137255%,1.960784%);fill-opacity:1;" d="M 144 99.097656 C 144 99.097656 151.5 123.015625 152.398438 133.777344 C 153.296875 144.539062 156 157.097656 149.398438 170.25 C 146.527344 175.804688 141.566406 179.996094 135.601562 181.910156 C 135.601562 181.910156 145.199219 157.097656 142.5 132.878906 C 139.800781 108.667969 138.902344 103.285156 138.902344 103.285156 Z M 144 99.097656 "/>
<path style="fill:none;stroke-width:0.4;stroke-linecap:round;stroke-linejoin:round;stroke:rgb(0%,0%,0%);stroke-opacity:1;stroke-miterlimit:4;" d="M 40.100255 22.199466 C 40.100255 22.199466 41.499994 25.10027 39.999994 33.400226 C 38.499995 41.700182 35.598953 47.000028 38.499995 54.79953 C 41.399734 62.600338 47.200514 59.000468 48.300774 58.000867 C 49.399733 56.999959 52.100253 54.498996 50.999993 45.200745 C 49.899733 35.899882 47.200514 30.999876 47.200514 27.000165 C 47.200514 23.000454 47.300775 20.500798 49.098951 17.599994 C 49.333326 17.253727 49.533847 16.885247 49.700514 16.49978 C 49.600253 16.29986 46.899733 15.600792 43.100254 17.999835 C 39.299474 20.400184 40.100255 22.199466 40.100255 22.199466 Z M 40.100255 22.199466 " transform="matrix(3,0,0,2.989474,0,3.736842)"/>
<path style="fill:none;stroke-width:0.4;stroke-linecap:round;stroke-linejoin:round;stroke:rgb(0%,0%,0%);stroke-opacity:1;stroke-miterlimit:4;" d="M 40.100255 22.199466 C 40.100255 22.199466 40.600255 23.900748 43.100254 23.000454 C 45.600254 22.10016 48.700514 17.099541 49.600253 16.701007 " transform="matrix(3,0,0,2.989474,0,3.736842)"/>
<path style=" stroke:none;fill-rule:nonzero;fill:rgb(98.431373%,76.078431%,9.803922%);fill-opacity:1;" d="M 144.296875 106.871094 C 144.277344 101.722656 143.570312 96.597656 142.199219 91.625 C 140.398438 86.246094 141 72.496094 142.199219 68.011719 C 142.199219 68.011719 132 91.328125 126.601562 97.007812 C 121.199219 102.691406 124.199219 102.390625 124.800781 102.390625 L 129 102.390625 C 126.683594 104.367188 124.578125 106.570312 122.699219 108.96875 C 121.800781 111.058594 120.601562 114.046875 123.902344 112.851562 L 127.199219 111.65625 C 125.535156 115.855469 123.089844 119.710938 120 123.015625 C 116.09375 126.542969 113.285156 131.105469 111.898438 136.171875 C 109.929688 145.328125 110.554688 154.847656 113.703125 163.671875 C 114 163.671875 114.300781 164.269531 114.898438 161.28125 C 115.5 158.292969 118.800781 155.898438 120.300781 151.414062 C 121.800781 146.933594 121.800781 146.035156 121.800781 146.035156 C 121.800781 146.035156 123 149.023438 123.902344 148.726562 C 124.800781 148.425781 127.5 143.347656 126.300781 132.585938 C 126.300781 133.480469 129 136.46875 130.199219 136.46875 C 131.398438 136.46875 135.300781 130.789062 136.199219 120.328125 L 135.601562 117.039062 C 135.601562 117.039062 137.097656 120.027344 138.300781 120.027344 C 139.5 120.027344 141.902344 114.945312 141 105.082031 C 141.601562 106.277344 144 107.171875 144.296875 106.871094 Z M 144.296875 106.871094 "/>
<path style=" stroke:none;fill-rule:nonzero;fill:rgb(81.568627%,60.784314%,2.745098%);fill-opacity:1;" d="M 139.800781 79.371094 C 137.882812 84.863281 135.679688 90.25 133.199219 95.511719 C 131.097656 98.804688 129.601562 99.398438 130.800781 99.398438 L 133.199219 99.398438 L 128.097656 107.171875 C 126.300781 109.863281 127.800781 109.863281 128.398438 109.566406 L 132.601562 106.871094 C 130.828125 111.574219 128.402344 116 125.398438 120.027344 C 120.371094 126.242188 116.785156 133.492188 114.898438 141.25 C 113.964844 146.882812 113.664062 152.597656 114 158.292969 L 120.601562 142.449219 C 121.152344 141.304688 121.554688 140.101562 121.800781 138.863281 C 121.800781 138.863281 121.800781 143.347656 122.699219 143.347656 C 123.601562 143.347656 124.800781 135.871094 125.699219 131.988281 C 125.839844 130.980469 126.039062 129.980469 126.300781 128.992188 C 126.601562 128.398438 127.800781 131.6875 129 132.285156 C 130.199219 132.878906 131.097656 135.574219 133.800781 117.636719 C 135 112.253906 135.601562 108.96875 135.601562 108.96875 C 135.855469 110.816406 136.363281 112.628906 137.097656 114.347656 C 138 114.644531 139.800781 109.863281 140.398438 102.691406 C 141 95.511719 141 82.0625 141 81.460938 L 141.601562 75.484375 L 141.601562 72.496094 Z M 139.800781 79.371094 "/>
<path style="fill:none;stroke-width:0.4;stroke-linecap:round;stroke-linejoin:round;stroke:rgb(0%,0%,0%);stroke-opacity:1;stroke-miterlimit:4;" d="M 47.499993 21.500399 C 47.499993 21.500399 44.200515 29.299901 42.399734 31.199796 C 40.600255 33.100999 41.499994 33.000385 41.799473 33.000385 L 43.100254 33.000385 C 42.328119 33.661559 41.624994 34.39852 40.999994 35.200814 C 40.699213 35.899882 40.299474 36.899483 41.399734 36.499642 L 42.499994 36.099802 C 41.944005 37.50447 41.130203 38.794152 40.100255 39.899593 C 38.87239 41.138314 37.947911 42.643596 37.399734 44.300451 C 36.798172 47.367201 37.005203 50.537178 37.999995 53.499395 C 38.100255 53.499395 38.299474 53.699315 38.399734 52.699714 C 38.499995 51.700113 39.699213 50.899125 40.200515 49.39907 C 40.699213 47.900322 40.699213 47.599788 40.699213 47.599788 C 40.699213 47.599788 41.200515 48.599389 41.399734 48.500083 C 41.600255 48.399469 42.600254 46.700801 42.200515 43.10093 C 42.200515 43.400157 43.100254 44.399758 43.600254 44.399758 C 44.100254 44.399758 45.200515 42.499862 45.499994 39.000605 L 45.499994 37.900391 C 45.499994 37.900391 45.899733 38.899992 46.300775 38.899992 C 46.700514 38.899992 47.499993 37.200017 47.300775 33.900679 C 47.300775 33.999986 48.098952 35.200814 48.200514 34.1006 C 48.300774 33.000385 47.700514 29.899662 47.499993 29.000674 C 47.300775 28.10038 47.200514 23.000454 47.499993 21.500399 Z M 47.499993 21.500399 " transform="matrix(3,0,0,2.989474,0,3.736842)"/>
<path style="fill:none;stroke-width:0.4;stroke-linecap:round;stroke-linejoin:round;stroke:rgb(0%,0%,0%);stroke-opacity:1;stroke-miterlimit:4;" d="M 47.399733 21.700319 C 47.399733 21.700319 45.799473 29.599128 45.600254 31.600944 C 45.399733 33.600146 43.100254 38.700072 40.999994 41.800795 C 38.901036 44.900212 37.799474 50.601205 38.100255 53.100861 " transform="matrix(3,0,0,2.989474,0,3.736842)"/>
<path style=" stroke:none;fill-rule:nonzero;fill:rgb(100%,0%,0%);fill-opacity:1;" d="M 204.898438 164.570312 C 204.898438 164.570312 201 155.601562 206.703125 131.089844 C 212.398438 106.574219 221.097656 91.03125 213.601562 67.113281 C 206.097656 43.195312 186.898438 53.960938 184.796875 56.351562 C 182.699219 58.742188 172.800781 66.515625 175.199219 94.617188 C 177.597656 122.71875 185.101562 137.367188 184.796875 149.023438 C 184.5 160.683594 183.601562 168.457031 177.898438 177.128906 C 175.199219 181.015625 176.402344 179.21875 176.101562 180.117188 C 175.800781 181.015625 184.5 183.40625 196.199219 176.828125 C 207.898438 170.25 204.898438 164.570312 204.898438 164.570312 Z M 204.898438 164.570312 "/>
<path style=" stroke:none;fill-rule:nonzero;fill:rgb(19.607843%,34.117647%,13.72549%);fill-opacity:1;" d="M 213.300781 67.414062 C 205.800781 43.792969 186.601562 54.257812 184.5 56.652344 C 182.402344 59.042969 172.5 66.8125 174.597656 94.917969 C 176.699219 123.015625 184.796875 137.664062 184.5 149.625 C 194.097656 99.398438 220.800781 91.328125 213.300781 67.414062 Z M 213.300781 67.414062 "/>
<path style=" stroke:none;fill-rule:nonzero;fill:rgb(59.607843%,3.137255%,1.960784%);fill-opacity:1;" d="M 175.800781 180.714844 C 179.742188 181.796875 183.917969 181.691406 187.796875 180.414062 C 193.402344 178.761719 198.476562 175.667969 202.5 171.445312 C 205.800781 168.15625 205.5 164.570312 203.703125 162.773438 C 201.316406 161.160156 198.28125 160.824219 195.601562 161.882812 C 192.210938 163.222656 189.148438 165.261719 186.601562 167.859375 L 179.402344 175.632812 L 175.800781 179.816406 L 175.5 179.816406 Z M 175.800781 180.714844 "/>
<path style=" stroke:none;fill-rule:nonzero;fill:rgb(59.607843%,3.137255%,1.960784%);fill-opacity:1;" d="M 195.898438 161.882812 C 197.929688 148.460938 202.082031 135.441406 208.199219 123.316406 C 206.421875 130.3125 205.015625 137.394531 204 144.539062 C 203.46875 150.007812 203.367188 155.503906 203.703125 160.984375 L 203.703125 163.671875 Z M 195.898438 161.882812 "/>
<path style=" stroke:none;fill-rule:nonzero;fill:rgb(5.098039%,22.745098%,7.058824%);fill-opacity:1;" d="M 181.800781 134.675781 C 181.800781 134.675781 175.199219 111.058594 175.199219 99.996094 C 175.199219 88.9375 172.5 76.679688 179.402344 63.527344 C 182.300781 58.0625 187.453125 54.132812 193.5 52.765625 C 193.5 52.765625 183.300781 77.277344 184.796875 101.492188 C 186.300781 125.707031 187.199219 131.6875 187.199219 131.6875 Z M 181.800781 134.675781 "/>
<path style="fill:none;stroke-width:0.4;stroke-linecap:round;stroke-linejoin:round;stroke:rgb(0%,0%,0%);stroke-opacity:1;stroke-miterlimit:4;" d="M 68.29947 53.799928 C 68.29947 53.799928 66.999991 50.799818 68.901032 42.600476 C 70.799469 34.399827 73.699208 29.200594 71.200511 21.199865 C 68.699209 13.199136 62.700512 16.800314 61.59895 17.599994 C 60.499992 18.399675 57.600252 20.999945 58.399731 30.400116 C 59.19921 39.800286 61.700512 44.700292 61.59895 48.599389 C 61.499991 52.499794 61.200512 55.100063 59.299471 58.000867 C 58.999992 58.599321 58.700513 59.000468 58.700513 59.099774 C 58.700513 59.200388 61.499991 60.199989 65.39973 57.900253 C 69.299469 55.600517 68.29947 53.799928 68.29947 53.799928 Z M 68.29947 53.799928 " transform="matrix(3,0,0,2.989474,0,3.736842)"/>
<path style="fill:none;stroke-width:0.4;stroke-linecap:round;stroke-linejoin:round;stroke:rgb(0%,0%,0%);stroke-opacity:1;stroke-miterlimit:4;" d="M 68.29947 53.799928 C 68.29947 53.799928 67.901032 52.099953 65.29947 52.900941 C 62.700512 53.699315 59.499992 58.300094 58.700513 59.000468 " transform="matrix(3,0,0,2.989474,0,3.736842)"/>
<path style=" stroke:none;fill-rule:nonzero;fill:rgb(98.431373%,76.078431%,9.803922%);fill-opacity:1;" d="M 181.800781 127.203125 C 181.882812 132.726562 182.484375 138.230469 183.601562 143.644531 C 184.558594 151.117188 184.253906 158.695312 182.699219 166.066406 C 182.699219 166.066406 193.5 143.046875 199.199219 137.664062 C 204.898438 132.285156 201.898438 132.285156 201 132.285156 L 197.097656 132.285156 C 199.617188 130.546875 201.839844 128.429688 203.703125 126.003906 C 204.601562 123.914062 206.097656 120.925781 202.800781 122.117188 L 199.5 122.71875 C 201.484375 118.546875 204.117188 114.714844 207.300781 111.355469 C 212.699219 105.679688 214.800781 101.492188 215.398438 98.207031 C 217.804688 89.164062 217.597656 79.628906 214.800781 70.699219 C 214.5 70.699219 213.902344 70.101562 213.601562 73.089844 C 213.300781 76.082031 209.699219 77.875 207.898438 82.660156 C 206.097656 87.445312 206.398438 88.039062 206.398438 88.039062 C 206.398438 88.039062 205.5 84.75 204.300781 85.050781 C 203.097656 85.347656 200.703125 90.433594 201 101.492188 C 201 100.59375 198.601562 97.007812 197.097656 97.308594 C 195.601562 97.605469 191.699219 103.285156 190.5 113.453125 L 190.5 116.738281 C 189.996094 115.53125 189.285156 114.417969 188.402344 113.453125 C 187.5 113.453125 184.796875 118.230469 184.796875 128.398438 C 184.796875 128.101562 182.402344 123.914062 181.800781 127.203125 Z M 181.800781 127.203125 "/>
<path style=" stroke:none;fill-rule:nonzero;fill:rgb(81.568627%,60.784314%,2.745098%);fill-opacity:1;" d="M 186.300781 155.300781 C 186.300781 155.300781 190.796875 142.75 193.5 139.460938 C 196.199219 136.171875 197.097656 135.574219 195.898438 135.574219 L 193.5 135.574219 L 198.898438 128.101562 C 200.703125 125.109375 199.199219 125.109375 198.300781 125.40625 L 194.402344 128.398438 C 196.488281 123.667969 199.210938 119.238281 202.5 115.242188 C 207.390625 109.1875 211.152344 102.300781 213.601562 94.917969 C 214.566406 89.492188 214.96875 83.980469 214.800781 78.472656 C 214.800781 78.472656 208.800781 91.03125 207.898438 94.320312 L 206.398438 97.90625 C 206.398438 97.90625 206.703125 93.121094 205.800781 93.121094 C 204.898438 93.121094 203.097656 100.59375 202.5 104.480469 C 202.40625 105.53125 202.101562 106.546875 201.601562 107.46875 C 201.300781 108.070312 200.097656 104.480469 199.199219 104.183594 C 198.300781 103.882812 197.097656 100.59375 193.796875 118.832031 C 192.300781 124.511719 191.699219 127.203125 191.699219 127.203125 C 191.699219 127.203125 191.101562 122.117188 190.5 121.820312 C 189.898438 121.519531 188.101562 126.304688 186.898438 132.878906 C 185.699219 139.460938 185.402344 153.507812 185.101562 154.109375 L 184.5 160.085938 L 183.898438 162.773438 Z M 186.300781 155.300781 "/>
<path style="fill:none;stroke-width:0.4;stroke-linecap:round;stroke-linejoin:round;stroke:rgb(0%,0%,0%);stroke-opacity:1;stroke-miterlimit:4;" d="M 60.999991 54.399689 C 60.999991 54.399689 64.499991 46.600187 66.39973 44.799598 C 68.29947 43.000316 67.29947 43.000316 66.999991 43.000316 L 65.69921 43.000316 C 66.539053 42.418849 67.279939 41.710635 67.901032 40.899194 C 68.200511 40.200127 68.699209 39.200525 67.600251 39.599059 L 66.499991 39.800286 C 67.161449 38.404765 68.039053 37.122923 69.100251 35.999188 C 70.89973 34.1006 71.60025 32.699851 71.799469 31.600944 C 72.601552 28.576007 72.532542 25.38643 71.60025 22.399387 C 71.49999 22.399387 71.300771 22.199466 71.200511 23.199067 C 71.10025 24.199975 69.89973 24.799736 69.299469 26.400404 C 68.699209 28.001073 68.79947 28.199686 68.79947 28.199686 C 68.79947 28.199686 68.49999 27.099472 68.100251 27.200085 C 67.699209 27.299392 66.901032 29.000674 66.999991 32.699851 C 66.999991 32.399318 66.200512 31.199796 65.69921 31.30041 C 65.200512 31.399717 63.899731 33.299612 63.499991 36.700869 L 63.499991 37.799777 C 63.332022 37.396017 63.095043 37.023616 62.800772 36.700869 C 62.499991 36.700869 61.59895 38.298924 61.59895 41.700182 C 61.59895 41.600875 60.800773 40.200127 60.700512 41.399648 C 60.683585 43.208077 60.8177 45.015199 61.100252 46.800107 C 61.428377 49.32459 61.395825 51.884353 60.999991 54.399689 Z M 60.999991 54.399689 " transform="matrix(3,0,0,2.989474,0,3.736842)"/>
<path style="fill:none;stroke-width:0.4;stroke-linecap:round;stroke-linejoin:round;stroke:rgb(0%,0%,0%);stroke-opacity:1;stroke-miterlimit:4;" d="M 61.399731 53.100861 C 61.399731 53.100861 62.899731 46.099733 63.200512 44.199838 C 63.499991 42.299942 65.901032 37.200017 68.100251 34.199906 C 70.166657 30.592196 71.364573 26.551978 71.60025 22.399387 " transform="matrix(3,0,0,2.989474,0,3.736842)"/>
<path style=" stroke:none;fill-rule:nonzero;fill:rgb(100%,0%,0%);fill-opacity:1;" d="M 79.800781 228.84375 C 79.800781 228.84375 88.5 224.0625 113.398438 227.949219 C 138.300781 231.832031 154.800781 238.710938 177.597656 228.84375 C 200.398438 218.976562 188.402344 201.339844 186 199.546875 C 183.601562 197.753906 174.597656 188.785156 147 192.96875 C 119.398438 197.15625 105 206.722656 93.300781 207.320312 C 81.597656 207.917969 73.800781 208.214844 64.800781 203.136719 L 61.5 201.339844 C 60.601562 201.042969 58.800781 210.011719 66.597656 221.070312 C 74.398438 232.132812 79.800781 228.84375 79.800781 228.84375 Z M 79.800781 228.84375 "/>
<path style=" stroke:none;fill-rule:nonzero;fill:rgb(19.607843%,34.117647%,13.72549%);fill-opacity:1;" d="M 177.597656 228.84375 C 200.703125 219.277344 188.402344 201.339844 186 199.546875 C 183.601562 197.753906 174.597656 188.785156 147 192.96875 C 119.398438 197.15625 105 206.722656 93.300781 207.320312 C 144 212.699219 154.5 238.710938 177.597656 228.84375 Z M 177.597656 228.84375 "/>
<path style=" stroke:none;fill-rule:nonzero;fill:rgb(59.607843%,3.137255%,1.960784%);fill-opacity:1;" d="M 60.902344 201.640625 C 60.261719 205.6875 60.785156 209.832031 62.398438 213.597656 C 64.769531 218.945312 68.246094 223.734375 72.597656 227.648438 C 76.203125 230.335938 79.5 230.039062 81.300781 227.949219 C 82.902344 225.523438 83.019531 222.410156 81.597656 219.875 C 79.832031 216.777344 77.488281 214.039062 74.699219 211.804688 L 66 205.226562 L 61.800781 201.9375 L 60.902344 201.339844 Z M 60.902344 201.640625 "/>
<path style=" stroke:none;fill-rule:nonzero;fill:rgb(59.607843%,3.137255%,1.960784%);fill-opacity:1;" d="M 81.898438 219.875 C 81.898438 219.875 104.101562 221.070312 121.199219 228.84375 C 121.199219 228.84375 105.300781 226.453125 99.898438 226.453125 C 94.375 226.3125 88.847656 226.710938 83.402344 227.648438 L 81 228.246094 Z M 81.898438 219.875 "/>
<path style=" stroke:none;fill-rule:nonzero;fill:rgb(5.098039%,22.745098%,7.058824%);fill-opacity:1;" d="M 107.703125 203.730469 C 107.703125 203.730469 130.800781 194.765625 141.902344 193.867188 C 153 192.96875 165 189.082031 178.800781 194.765625 C 184.40625 197.21875 188.753906 201.871094 190.796875 207.617188 C 190.796875 207.617188 165.300781 199.847656 141.601562 203.433594 C 117.898438 207.023438 111.601562 208.515625 111.601562 208.515625 Z M 107.703125 203.730469 "/>
<path style="fill:none;stroke-width:0.4;stroke-linecap:round;stroke-linejoin:round;stroke:rgb(0%,0%,0%);stroke-opacity:1;stroke-miterlimit:4;" d="M 26.600257 75.299846 C 26.600257 75.299846 29.499996 73.700484 37.799474 75.000619 C 46.100254 76.299447 51.600253 78.60049 59.19921 75.299846 C 66.79947 71.999202 62.899731 66.400129 61.999991 65.499835 C 61.100252 64.599541 58.199211 61.899964 48.999993 63.299406 C 39.799474 64.700154 34.999995 67.900184 31.100256 68.100105 C 27.199215 68.300025 24.600257 68.399332 21.600257 66.700663 L 20.499997 66.099596 C 20.200518 66.200209 19.600258 69.000399 22.199216 72.699576 C 24.799476 76.400061 26.600257 75.299846 26.600257 75.299846 Z M 26.600257 75.299846 " transform="matrix(3,0,0,2.989474,0,3.736842)"/>
<path style="fill:none;stroke-width:0.4;stroke-linecap:round;stroke-linejoin:round;stroke:rgb(0%,0%,0%);stroke-opacity:1;stroke-miterlimit:4;" d="M 26.600257 75.299846 C 26.600257 75.299846 28.299475 74.700085 27.199215 72.199122 C 26.100257 69.699466 20.999997 66.899277 20.499997 66.099596 " transform="matrix(3,0,0,2.989474,0,3.736842)"/>
<path style=" stroke:none;fill-rule:nonzero;fill:rgb(98.431373%,76.078431%,9.803922%);fill-opacity:1;" d="M 115.199219 203.136719 C 110.230469 203.605469 105.3125 204.503906 100.5 205.824219 C 95.101562 208.214844 81.597656 207.617188 76.5 207.023438 C 76.5 207.023438 100.5 215.691406 106.5 220.773438 C 112.5 225.855469 111.898438 222.863281 112.199219 222.269531 L 112.199219 218.082031 C 114.179688 220.414062 116.507812 222.429688 119.097656 224.0625 C 121.199219 224.660156 124.199219 226.152344 123 222.863281 L 122.097656 219.574219 C 126.332031 220.925781 130.21875 223.171875 133.5 226.152344 C 137.5 229.546875 142.21875 231.996094 147.296875 233.328125 C 156.527344 234.855469 166.003906 233.71875 174.597656 230.039062 C 174.597656 229.742188 175.199219 229.445312 172.5 228.84375 C 169.800781 228.246094 167.101562 225.257812 162 224.359375 C 160.265625 223.707031 158.449219 223.304688 156.597656 223.164062 C 156.597656 223.164062 159.898438 221.671875 159.597656 220.773438 C 159.300781 219.875 154.203125 217.484375 143.398438 218.976562 C 144 218.976562 147.296875 215.988281 147 214.496094 C 146.699219 213 140.699219 210.011719 130.199219 209.710938 L 126.601562 210.910156 C 126.601562 210.910156 129.601562 209.710938 129.601562 208.515625 C 129.601562 207.320312 124.5 205.226562 114.300781 206.425781 C 114.898438 205.824219 118.800781 203.136719 115.199219 203.136719 Z M 115.199219 203.136719 "/>
<path style=" stroke:none;fill-rule:nonzero;fill:rgb(81.568627%,60.784314%,2.745098%);fill-opacity:1;" d="M 88.199219 209.113281 C 93.871094 210.605469 99.390625 212.609375 104.699219 215.089844 C 108.300781 217.1875 108.601562 218.082031 108.601562 217.1875 C 108.574219 216.28125 108.472656 215.382812 108.300781 214.496094 L 116.097656 219.277344 C 119.097656 220.773438 119.097656 219.277344 118.800781 218.976562 C 117.941406 217.675781 116.933594 216.46875 115.800781 215.390625 C 120.6875 216.785156 125.339844 218.902344 129.601562 221.671875 C 136.121094 226.207031 143.449219 229.453125 151.203125 231.234375 C 156.90625 231.640625 162.640625 231.441406 168.300781 230.636719 L 152.101562 225.257812 L 148.5 224.359375 C 148.5 224.359375 153 224.359375 152.699219 223.164062 C 152.398438 221.96875 145.199219 221.371094 140.699219 220.773438 L 138 220.773438 C 137.097656 220.175781 140.398438 218.976562 141 217.785156 C 141.601562 216.585938 144.296875 215.390625 126 213.597656 L 117.300781 212.101562 C 117.300781 212.101562 122.398438 211.203125 122.699219 210.308594 C 123 209.414062 118.199219 207.917969 111.300781 207.320312 C 104.199219 207.054688 97.089844 207.152344 90 207.617188 L 81 207.617188 Z M 88.199219 209.113281 "/>
<path style="fill:none;stroke-width:0.4;stroke-linecap:round;stroke-linejoin:round;stroke:rgb(0%,0%,0%);stroke-opacity:1;stroke-miterlimit:4;" d="M 25.401038 68.100105 C 25.401038 68.100105 33.299475 70.900294 35.399735 72.60027 C 37.499995 74.300245 37.200516 73.299337 37.299474 73.100723 L 37.299474 71.699975 C 37.934891 72.504883 38.714838 73.181737 39.600255 73.700484 C 40.299474 73.900404 41.300775 74.399552 40.899734 73.299337 L 40.600255 72.199122 C 42.010411 72.65123 43.305984 73.402564 44.399733 74.399552 C 45.721348 75.552033 47.299473 76.373927 48.999993 76.799901 C 52.076816 77.305582 55.233065 76.924034 58.100252 75.699686 C 58.100252 75.60038 58.199211 75.501073 57.399732 75.299846 C 56.600253 75.099926 55.600253 74.100325 53.899732 73.799791 C 53.322909 73.581577 52.716138 73.446991 52.100253 73.39995 C 52.100253 73.39995 53.199211 72.900803 53.100253 72.60027 C 52.999993 72.299736 51.300774 71.500055 47.600254 71.999202 C 47.899733 71.999202 48.999993 70.999601 48.899733 70.500454 C 48.799472 70 46.799473 69.000399 43.300775 68.899785 L 42.200515 69.300933 C 42.200515 69.300933 43.200515 68.899785 43.200515 68.499945 C 43.200515 68.100105 41.499994 67.39973 38.100255 67.800878 C 38.299474 67.800878 39.499994 66.79997 38.299474 66.700663 C 36.611974 66.867916 34.940099 67.16845 33.299475 67.599651 C 31.499996 68.399332 26.999996 68.300025 25.401038 68.100105 Z M 25.401038 68.100105 " transform="matrix(3,0,0,2.989474,0,3.736842)"/>
<path style="fill:none;stroke-width:0.4;stroke-linecap:round;stroke-linejoin:round;stroke:rgb(0%,0%,0%);stroke-opacity:1;stroke-miterlimit:4;" d="M 25.999996 68.199411 L 35.699214 69.499546 C 37.699213 69.60016 42.999994 71.600668 46.100254 73.39995 C 49.200514 75.200539 55.199211 76.099527 57.800773 75.798993 " transform="matrix(3,0,0,2.989474,0,3.736842)"/>
<path style=" stroke:none;fill-rule:nonzero;fill:rgb(19.607843%,34.117647%,13.72549%);fill-opacity:1;" d="M 53.398438 70.101562 C 53.398438 70.101562 57.902344 78.773438 53.101562 103.585938 C 48.300781 128.398438 40.199219 144.242188 48.300781 167.558594 C 56.398438 190.878906 75.597656 179.816406 77.699219 177.128906 C 79.800781 174.433594 89.101562 166.660156 85.800781 138.863281 C 82.5 111.058594 74.398438 96.410156 74.398438 84.453125 C 74.398438 72.496094 74.699219 65.023438 80.101562 56.351562 C 82.800781 52.464844 81.597656 54.257812 81.898438 53.0625 C 82.199219 51.867188 73.800781 50.375 62.101562 57.25 C 50.398438 64.125 53.398438 70.101562 53.398438 70.101562 Z M 53.398438 70.101562 "/>
<path style=" stroke:none;fill-rule:nonzero;fill:rgb(100%,0%,0%);fill-opacity:1;" d="M 48.300781 167.558594 C 56.699219 190.878906 75.597656 179.816406 77.699219 177.128906 C 79.800781 174.433594 89.101562 166.660156 85.800781 138.863281 C 82.5 111.058594 74.398438 96.410156 74.398438 84.453125 C 66.597656 134.675781 40.199219 144.242188 48.300781 167.558594 Z M 48.300781 167.558594 "/>
<path style=" stroke:none;fill-rule:nonzero;fill:rgb(5.098039%,22.745098%,7.058824%);fill-opacity:1;" d="M 81.898438 52.765625 C 78.011719 51.726562 73.886719 52.046875 70.203125 53.664062 C 64.550781 55.371094 59.46875 58.574219 55.5 62.929688 C 52.800781 66.515625 52.800781 69.804688 54.601562 71.597656 C 56.855469 73.308594 59.90625 73.542969 62.398438 72.195312 C 65.789062 70.726562 68.769531 68.472656 71.101562 65.617188 L 78 57.546875 L 81.597656 53.664062 L 81.597656 53.0625 Z M 81.898438 52.765625 "/>
<path style=" stroke:none;fill-rule:nonzero;fill:rgb(5.098039%,22.745098%,7.058824%);fill-opacity:1;" d="M 62.398438 72.496094 C 62.398438 72.496094 60.296875 94.617188 51.601562 111.355469 C 51.601562 111.355469 54.902344 95.511719 55.199219 90.132812 C 55.578125 84.652344 55.476562 79.152344 54.902344 73.691406 L 54.296875 71 Z M 62.398438 72.496094 "/>
<path style=" stroke:none;fill-rule:nonzero;fill:rgb(59.607843%,3.137255%,1.960784%);fill-opacity:1;" d="M 77.398438 99.097656 C 77.398438 99.097656 84.898438 123.015625 85.5 133.777344 C 86.101562 144.539062 89.101562 157.097656 82.800781 170.25 C 79.851562 175.742188 74.917969 179.914062 69 181.910156 C 69 181.910156 78.300781 157.097656 75.898438 132.878906 C 73.5 108.667969 72.300781 103.285156 72.300781 103.285156 Z M 77.398438 99.097656 "/>
<path style="fill:none;stroke-width:0.4;stroke-linecap:round;stroke-linejoin:round;stroke:rgb(0%,0%,0%);stroke-opacity:1;stroke-miterlimit:4;" d="M 17.799477 22.199466 C 17.799477 22.199466 19.300779 25.10027 17.700518 33.400226 C 16.100258 41.700182 13.399738 47.000028 16.100258 54.79953 C 18.799477 62.600338 24.799476 59.000468 25.899736 58.000867 C 26.999996 56.999959 29.700517 54.498996 28.600256 45.200745 C 27.499996 35.899882 24.799476 30.999876 24.799476 27.000165 C 24.799476 23.000454 24.899736 20.500798 26.700517 17.599994 C 26.93359 17.253727 27.135413 16.885247 27.299475 16.49978 C 27.199215 16.29986 24.600257 15.600792 20.700518 17.999835 C 16.799477 20.400184 17.799477 22.199466 17.799477 22.199466 Z M 17.799477 22.199466 " transform="matrix(3,0,0,2.989474,0,3.736842)"/>
<path style="fill:none;stroke-width:0.4;stroke-linecap:round;stroke-linejoin:round;stroke:rgb(0%,0%,0%);stroke-opacity:1;stroke-miterlimit:4;" d="M 17.799477 22.199466 C 17.799477 22.199466 18.300779 23.900748 20.799476 23.000454 C 23.299476 22.10016 26.499996 17.099541 27.299475 16.701007 " transform="matrix(3,0,0,2.989474,0,3.736842)"/>
<path style=" stroke:none;fill-rule:nonzero;fill:rgb(98.431373%,76.078431%,9.803922%);fill-opacity:1;" d="M 77.699219 106.871094 C 77.523438 101.734375 76.824219 96.625 75.597656 91.625 C 73.800781 86.246094 74.398438 72.496094 75.597656 68.011719 C 75.597656 68.011719 65.398438 91.328125 60 97.007812 C 54.601562 102.691406 57.296875 102.390625 58.199219 102.390625 C 59.496094 102.539062 60.804688 102.539062 62.101562 102.390625 C 59.824219 104.3125 57.804688 106.527344 56.101562 108.96875 C 54.902344 111.058594 53.699219 114.046875 57 112.851562 L 60.296875 111.65625 C 58.632812 115.855469 56.191406 119.710938 53.101562 123.015625 C 49.355469 126.617188 46.660156 131.164062 45.300781 136.171875 C 43.160156 145.3125 43.789062 154.886719 47.097656 163.671875 C 47.398438 163.671875 47.699219 164.269531 48 161.28125 C 48.300781 158.292969 51.902344 155.898438 53.398438 151.414062 C 54.097656 149.683594 54.601562 147.878906 54.902344 146.035156 C 54.902344 146.035156 56.398438 149.023438 57 148.726562 C 57.601562 148.425781 60.601562 143.347656 59.699219 132.585938 C 59.699219 133.480469 62.101562 136.46875 63.597656 136.46875 C 65.101562 136.46875 68.699219 130.789062 69.300781 120.328125 L 69.300781 117.039062 C 69.300781 117.039062 70.800781 120.027344 71.699219 120.027344 C 72.597656 120.027344 75.300781 114.945312 74.699219 105.082031 C 74.699219 106.277344 77.398438 107.769531 77.699219 106.871094 Z M 77.699219 106.871094 "/>
<path style=" stroke:none;fill-rule:nonzero;fill:rgb(81.568627%,60.784314%,2.745098%);fill-opacity:1;" d="M 72.898438 79.371094 C 71.113281 84.867188 69.011719 90.257812 66.597656 95.511719 C 64.203125 98.804688 63 99.398438 63.902344 99.398438 L 66.597656 99.398438 L 61.5 107.171875 C 59.699219 109.863281 60.902344 109.566406 61.800781 109.265625 L 65.699219 106.277344 C 64.105469 111.144531 61.667969 115.695312 58.5 119.730469 C 53.589844 126.019531 50.015625 133.242188 48 140.953125 C 47.109375 146.488281 46.910156 152.113281 47.398438 157.695312 C 47.398438 157.695312 52.800781 144.839844 53.699219 141.851562 C 54.296875 140.730469 54.703125 139.519531 54.902344 138.261719 C 54.902344 138.261719 54.902344 143.046875 56.101562 143.046875 C 57.296875 143.046875 58.199219 135.574219 58.800781 131.6875 C 58.894531 130.640625 59.199219 129.621094 59.699219 128.699219 C 60 128.101562 60.902344 131.089844 62.101562 131.988281 C 63.296875 132.878906 64.203125 135.273438 67.203125 117.039062 L 69 108.667969 C 69 108.667969 69.597656 113.453125 70.5 114.046875 C 71.398438 114.644531 72.898438 109.566406 73.800781 102.390625 C 74.699219 95.214844 74.398438 81.460938 74.398438 81.164062 L 74.398438 72.195312 Z M 72.898438 79.371094 "/>
<path style="fill:none;stroke-width:0.4;stroke-linecap:round;stroke-linejoin:round;stroke:rgb(0%,0%,0%);stroke-opacity:1;stroke-miterlimit:4;" d="M 25.199215 21.399785 C 25.199215 21.399785 21.899737 29.299901 20.098956 31.199796 C 18.300779 33.100999 19.300779 33.000385 19.499997 33.000385 C 19.930987 33.050039 20.368487 33.050039 20.799476 33.000385 C 20.041664 33.643266 19.368487 34.384147 18.799477 35.200814 C 18.399737 35.899882 18.098956 36.899483 19.098956 36.499642 L 20.200518 36.099802 C 19.644529 37.50447 18.830727 38.794152 17.799477 39.899593 C 16.550779 41.104341 15.653644 42.625303 15.200519 44.300451 C 14.486977 47.358055 14.696613 50.560698 15.799477 53.499395 C 15.899737 53.499395 15.999998 53.699315 16.100258 52.699714 C 16.200519 51.700113 17.499998 50.899125 17.899737 49.39907 C 18.13281 48.820216 18.300779 48.216536 18.399737 47.599788 C 18.399737 47.599788 18.899737 48.599389 19.098956 48.500083 C 19.300779 48.399469 20.300778 46.700801 19.999997 43.10093 C 19.999997 43.400157 20.799476 44.399758 21.300778 44.399758 C 21.799476 44.399758 22.999997 42.499862 23.199216 39.000605 L 23.199216 37.900391 C 23.199216 37.900391 23.700518 38.899992 24.100257 38.899992 C 24.499997 38.899992 25.299476 37.200017 24.999997 33.900679 C 24.999997 33.999986 25.899736 35.200814 25.999996 34.1006 C 25.93359 32.381024 25.700517 30.673209 25.299476 29.000674 C 24.600257 27.599926 24.799476 23.000454 25.199215 21.399785 Z M 25.199215 21.399785 " transform="matrix(3,0,0,2.989474,0,3.736842)"/>
<path style="fill:none;stroke-width:0.4;stroke-linecap:round;stroke-linejoin:round;stroke:rgb(0%,0%,0%);stroke-opacity:1;stroke-miterlimit:4;" d="M 24.899736 22.30008 C 24.899736 22.30008 23.600257 29.599128 23.401038 31.600944 C 23.199216 33.600146 20.799476 38.700072 18.799477 41.800795 C 16.799477 44.900212 15.499998 51.199659 15.799477 53.699315 " transform="matrix(3,0,0,2.989474,0,3.736842)"/>
<path style=" stroke:none;fill-rule:nonzero;fill:rgb(19.607843%,34.117647%,13.72549%);fill-opacity:1;" d="M 140.699219 356.195312 C 140.699219 356.195312 136.5 347.527344 141 322.714844 C 145.5 297.898438 154.203125 282.058594 145.5 258.738281 C 136.800781 235.421875 118.5 246.480469 116.097656 249.171875 C 113.703125 251.863281 104.699219 259.636719 108 287.4375 C 111.300781 315.242188 119.398438 329.890625 119.398438 341.847656 C 119.398438 353.804688 119.097656 361.277344 113.703125 369.949219 C 111.300781 373.832031 112.199219 372.039062 111.898438 373.234375 C 111.601562 374.433594 120.300781 375.925781 131.699219 369.050781 C 143.101562 362.175781 140.699219 356.195312 140.699219 356.195312 Z M 140.699219 356.195312 "/>
<path style=" stroke:none;fill-rule:nonzero;fill:rgb(100%,0%,0%);fill-opacity:1;" d="M 145.800781 258.738281 C 137.398438 235.421875 118.800781 246.480469 116.703125 249.171875 C 114.601562 251.863281 105 259.636719 108.300781 287.4375 C 111.601562 315.242188 120 329.890625 120 341.847656 C 127.800781 291.625 154.203125 282.058594 145.800781 258.738281 Z M 145.800781 258.738281 "/>
<path style=" stroke:none;fill-rule:nonzero;fill:rgb(5.098039%,22.745098%,7.058824%);fill-opacity:1;" d="M 112.5 373.234375 C 116.488281 374.273438 120.710938 373.953125 124.5 372.335938 C 130.101562 370.710938 135.109375 367.492188 138.902344 363.070312 C 141.902344 359.484375 141.902344 356.195312 140.101562 354.402344 C 137.722656 352.707031 134.601562 352.476562 132 353.804688 C 128.75 355.214844 125.871094 357.367188 123.601562 360.082031 L 116.703125 368.453125 L 113.097656 372.335938 L 111.898438 373.234375 Z M 112.5 373.234375 "/>
<path style=" stroke:none;fill-rule:nonzero;fill:rgb(5.098039%,22.745098%,7.058824%);fill-opacity:1;" d="M 132 353.503906 C 132 353.503906 134.398438 331.382812 142.800781 314.644531 C 142.800781 314.644531 139.800781 330.488281 139.199219 335.867188 C 138.75 341.351562 138.953125 346.875 139.800781 352.308594 L 140.398438 354.699219 Z M 132 353.503906 "/>
<path style=" stroke:none;fill-rule:nonzero;fill:rgb(59.607843%,3.137255%,1.960784%);fill-opacity:1;" d="M 117 327.195312 C 117 327.195312 109.5 303.28125 108.601562 292.519531 C 107.703125 281.757812 105 269.203125 111.601562 256.046875 C 114.472656 250.496094 119.433594 246.304688 125.398438 244.390625 C 125.398438 244.390625 115.800781 269.203125 118.5 293.414062 C 121.199219 317.632812 122.097656 323.308594 122.097656 323.308594 Z M 117 327.195312 "/>
<path style="fill:none;stroke-width:0.4;stroke-linecap:round;stroke-linejoin:round;stroke:rgb(0%,0%,0%);stroke-opacity:1;stroke-miterlimit:4;" d="M 46.899733 117.89984 C 46.899733 117.89984 45.499994 115.000344 46.999993 106.700388 C 48.499993 98.399125 51.401034 93.100586 48.499993 85.299777 C 45.600254 77.500275 39.799474 81.100146 38.699213 82.099747 C 37.600255 83.100655 34.899735 85.600311 35.999995 94.899868 C 37.100255 104.200732 39.799474 109.100737 39.799474 113.100448 C 39.799474 117.10016 39.699213 119.599816 37.901036 122.500619 C 37.666661 122.846886 37.466141 123.215366 37.299474 123.599527 C 37.399734 123.799447 40.100255 124.499821 43.899733 122.099472 C 47.700514 119.699122 46.899733 117.89984 46.899733 117.89984 Z M 46.899733 117.89984 " transform="matrix(3,0,0,2.989474,0,3.736842)"/>
<path style="fill:none;stroke-width:0.4;stroke-linecap:round;stroke-linejoin:round;stroke:rgb(0%,0%,0%);stroke-opacity:1;stroke-miterlimit:4;" d="M 46.899733 117.89984 C 46.899733 117.89984 46.399733 116.199865 43.899733 117.10016 C 41.399734 118.000454 38.299474 123.001073 37.399734 123.399607 " transform="matrix(3,0,0,2.989474,0,3.736842)"/>
<path style=" stroke:none;fill-rule:nonzero;fill:rgb(98.431373%,76.078431%,9.803922%);fill-opacity:1;" d="M 116.703125 319.722656 C 116.875 324.765625 117.574219 329.777344 118.800781 334.671875 C 120.601562 340.050781 120 353.804688 118.800781 358.289062 C 117.601562 362.773438 129 334.96875 134.398438 329.289062 C 139.800781 323.609375 136.800781 323.910156 136.199219 323.910156 L 132 323.910156 C 134.386719 322.011719 136.507812 319.800781 138.300781 317.332031 C 139.199219 315.242188 140.398438 312.25 137.097656 313.445312 L 133.5 314.042969 C 135.132812 309.914062 137.582031 306.15625 140.699219 302.984375 C 144.382812 299.28125 147.15625 294.78125 148.800781 289.828125 C 150.605469 280.660156 149.984375 271.183594 147 262.328125 C 146.699219 262.328125 146.101562 261.730469 145.800781 264.71875 C 145.5 267.707031 141.902344 270.101562 140.398438 274.585938 C 138.902344 279.066406 138.902344 279.964844 138.902344 279.964844 C 138.902344 279.964844 137.398438 276.675781 136.800781 277.273438 C 136.199219 277.871094 133.199219 282.652344 134.398438 293.414062 C 134.398438 292.519531 131.699219 289.234375 130.199219 289.234375 C 128.699219 289.234375 125.398438 295.210938 124.5 305.671875 L 124.5 308.660156 C 124.5 308.660156 123.300781 305.972656 122.097656 305.972656 C 120.898438 305.972656 118.5 311.054688 119.097656 320.917969 C 119.398438 320.023438 116.703125 317.632812 116.703125 319.722656 Z M 116.703125 319.722656 "/>
<path style=" stroke:none;fill-rule:nonzero;fill:rgb(81.568627%,60.784314%,2.745098%);fill-opacity:1;" d="M 121.199219 346.929688 C 123.117188 341.4375 125.320312 336.050781 127.800781 330.785156 C 129.902344 327.496094 131.398438 326.902344 130.199219 326.902344 L 127.800781 326.902344 L 132.902344 319.128906 C 134.699219 316.433594 133.199219 316.433594 132.601562 316.734375 C 131.121094 317.613281 129.714844 318.613281 128.398438 319.722656 C 130.136719 314.921875 132.566406 310.386719 135.601562 306.269531 C 140.679688 300.089844 144.273438 292.828125 146.101562 285.046875 C 147.03125 279.519531 147.335938 273.902344 147 268.304688 L 140.398438 283.851562 C 139.847656 284.992188 139.445312 286.195312 139.199219 287.4375 C 139.199219 287.4375 139.199219 282.953125 138.300781 282.953125 C 137.398438 282.953125 136.199219 290.425781 135.300781 294.3125 C 135.1875 295.328125 134.988281 296.328125 134.699219 297.300781 C 134.398438 297.898438 133.199219 294.910156 132 294.011719 C 130.800781 293.121094 129.902344 290.726562 127.199219 308.660156 C 126 314.042969 125.398438 317.332031 125.398438 317.332031 C 125.144531 315.476562 124.636719 313.671875 123.902344 311.953125 C 123 311.652344 121.199219 316.433594 120.601562 323.609375 C 119.863281 330.660156 119.660156 337.757812 120 344.835938 L 119.398438 351.710938 L 119.398438 354.402344 Z M 121.199219 346.929688 "/>
<path style="fill:none;stroke-width:0.4;stroke-linecap:round;stroke-linejoin:round;stroke:rgb(0%,0%,0%);stroke-opacity:1;stroke-miterlimit:4;" d="M 39.499994 118.800135 C 39.499994 118.800135 42.999994 110.799406 44.799473 108.89951 C 46.600254 106.999615 45.600254 107.100228 45.399733 107.100228 L 43.999994 107.100228 C 44.795567 106.465188 45.502598 105.725613 46.100254 104.899799 C 46.399733 104.200732 46.799473 103.199824 45.699212 103.599664 L 44.499994 103.799585 C 45.044265 102.418436 45.860671 101.161422 46.899733 100.100407 C 48.127597 98.861686 49.052076 97.356404 49.600253 95.699549 C 50.201816 92.632799 49.994785 89.462822 48.999993 86.500605 C 48.899733 86.500605 48.700514 86.300685 48.600254 87.300286 C 48.499993 88.299887 47.300775 89.100875 46.799473 90.60093 C 46.300775 92.099678 46.300775 92.400212 46.300775 92.400212 C 46.300775 92.400212 45.799473 91.299997 45.600254 91.499917 C 45.399733 91.699838 44.399733 93.299199 44.799473 96.89907 C 44.799473 96.599843 43.899733 95.500935 43.399734 95.500935 C 42.899734 95.500935 41.799473 97.500138 41.499994 100.999395 L 41.499994 101.998996 C 41.499994 101.998996 41.100255 101.100008 40.699213 101.100008 C 40.299474 101.100008 39.499994 102.799983 39.699213 106.099321 C 39.699213 106.000014 38.901036 104.799186 38.799474 105.8994 C 38.808588 107.590229 39.044265 109.271911 39.499994 110.900019 C 40.200515 112.499381 39.799474 117.10016 39.499994 118.800135 Z M 39.499994 118.800135 " transform="matrix(3,0,0,2.989474,0,3.736842)"/>
<path style="fill:none;stroke-width:0.4;stroke-linecap:round;stroke-linejoin:round;stroke:rgb(0%,0%,0%);stroke-opacity:1;stroke-miterlimit:4;" d="M 39.600255 118.299681 C 39.600255 118.299681 41.200515 110.300259 41.399734 108.399056 C 41.600255 106.500468 43.899733 101.299928 45.999994 98.199205 C 47.917962 94.706481 48.915358 90.78517 48.899733 86.801139 " transform="matrix(3,0,0,2.989474,0,3.736842)"/>
<path style=" stroke:none;fill-rule:nonzero;fill:rgb(100%,0%,0%);fill-opacity:1;" d="M 56.398438 261.429688 C 56.398438 261.429688 60.296875 270.398438 54.601562 294.910156 C 48.902344 319.425781 40.199219 334.96875 47.699219 358.886719 C 55.199219 382.804688 74.398438 372.039062 76.5 369.648438 C 78.597656 367.257812 88.5 359.484375 86.402344 331.382812 C 84.300781 303.28125 76.203125 288.632812 76.5 276.675781 C 76.800781 264.71875 77.699219 257.242188 83.402344 248.871094 C 89.101562 240.503906 84.898438 246.480469 85.199219 245.882812 C 85.5 245.285156 76.800781 242.59375 65.101562 249.171875 C 53.398438 255.75 56.398438 261.429688 56.398438 261.429688 Z M 56.398438 261.429688 "/>
<path style=" stroke:none;fill-rule:nonzero;fill:rgb(19.607843%,34.117647%,13.72549%);fill-opacity:1;" d="M 47.699219 358.289062 C 55.199219 382.207031 74.398438 371.742188 76.5 369.050781 C 78.597656 366.359375 88.5 359.1875 86.402344 331.082031 C 84.300781 302.984375 76.203125 288.335938 76.5 276.375 C 66.902344 326.300781 40.199219 334.671875 47.699219 358.289062 Z M 47.699219 358.289062 "/>
<path style=" stroke:none;fill-rule:nonzero;fill:rgb(59.607843%,3.137255%,1.960784%);fill-opacity:1;" d="M 85.199219 245.285156 C 81.257812 244.203125 77.082031 244.308594 73.203125 245.585938 C 67.648438 247.355469 62.609375 250.429688 58.5 254.554688 C 55.199219 257.84375 55.5 261.429688 57.296875 263.226562 C 59.683594 264.839844 62.71875 265.175781 65.398438 264.117188 C 68.789062 262.777344 71.851562 260.738281 74.398438 258.140625 C 76.5 255.453125 81.597656 250.070312 81.597656 250.070312 L 85.199219 246.183594 Z M 85.199219 245.285156 "/>
<path style=" stroke:none;fill-rule:nonzero;fill:rgb(59.607843%,3.137255%,1.960784%);fill-opacity:1;" d="M 65.101562 264.117188 C 63.03125 277.535156 58.878906 290.542969 52.800781 302.683594 C 54.578125 295.6875 55.984375 288.605469 57 281.460938 C 57.53125 275.992188 57.632812 270.496094 57.296875 265.015625 L 57.296875 262.328125 Z M 65.101562 264.117188 "/>
<path style=" stroke:none;fill-rule:nonzero;fill:rgb(5.098039%,22.745098%,7.058824%);fill-opacity:1;" d="M 79.199219 291.324219 C 79.199219 291.324219 85.800781 314.941406 85.800781 326.003906 C 85.800781 337.0625 88.5 349.320312 81.597656 362.472656 C 78.605469 367.859375 73.496094 371.761719 67.5 373.234375 C 67.5 373.234375 77.699219 348.722656 76.203125 324.507812 C 74.699219 300.292969 73.800781 294.3125 73.800781 294.3125 Z M 79.199219 291.324219 "/>
<path style="fill:none;stroke-width:0.4;stroke-linecap:round;stroke-linejoin:round;stroke:rgb(0%,0%,0%);stroke-opacity:1;stroke-miterlimit:4;" d="M 18.799477 86.200072 C 18.799477 86.200072 20.098956 89.200182 18.200518 97.399524 C 16.300779 105.600173 13.399738 110.799406 15.899737 118.800135 C 18.399737 126.800864 24.401038 123.199686 25.499996 122.400006 C 26.600257 121.600325 29.499996 119.000055 28.800777 109.599884 C 28.100256 100.199714 25.401038 95.299708 25.499996 91.299997 C 25.600257 87.300286 25.899736 84.799323 27.800777 81.999133 C 28.055986 81.66724 28.259111 81.296146 28.399736 80.900226 C 28.299475 80.600999 25.600257 79.800011 21.700518 82.099747 C 17.799477 84.399483 18.799477 86.200072 18.799477 86.200072 Z M 18.799477 86.200072 " transform="matrix(3,0,0,2.989474,0,3.736842)"/>
<path style="fill:none;stroke-width:0.4;stroke-linecap:round;stroke-linejoin:round;stroke:rgb(0%,0%,0%);stroke-opacity:1;stroke-miterlimit:4;" d="M 18.799477 86.200072 C 18.799477 86.200072 19.300779 87.900047 21.799476 87.099059 C 24.299476 86.300685 27.700517 81.400679 28.499996 80.999532 " transform="matrix(3,0,0,2.989474,0,3.736842)"/>
<path style=" stroke:none;fill-rule:nonzero;fill:rgb(98.431373%,76.078431%,9.803922%);fill-opacity:1;" d="M 79.199219 298.796875 C 79.136719 293.667969 78.53125 288.558594 77.398438 283.550781 C 76.183594 275.695312 76.488281 267.675781 78.300781 259.933594 C 78.300781 259.933594 67.5 282.953125 61.800781 288.335938 C 56.101562 293.714844 59.101562 293.714844 60 293.714844 L 63.902344 293.714844 C 61.382812 295.453125 59.160156 297.570312 57.296875 299.996094 C 56.398438 302.085938 54.902344 304.773438 58.199219 303.882812 L 61.5 302.984375 C 59.453125 307.121094 56.832031 310.945312 53.699219 314.34375 C 48.300781 320.023438 46.199219 324.207031 45.601562 327.496094 C 43.195312 336.539062 43.402344 346.070312 46.199219 355 C 46.5 355 47.097656 355.597656 47.398438 352.609375 C 47.699219 349.617188 51.300781 347.824219 53.101562 343.042969 C 54.902344 338.257812 54.601562 337.664062 54.601562 337.664062 C 54.601562 337.664062 55.5 340.949219 56.699219 340.351562 C 57.902344 339.753906 60.296875 334.96875 60 324.207031 C 60 325.105469 62.398438 328.691406 63.902344 328.394531 C 65.398438 328.09375 69.300781 322.414062 70.5 311.953125 L 70.5 308.960938 C 70.5 308.960938 71.699219 311.652344 72.597656 311.953125 C 73.5 312.25 76.203125 307.46875 76.203125 297.300781 C 76.203125 298.5 78.597656 302.386719 79.199219 298.796875 Z M 79.199219 298.796875 "/>
<path style=" stroke:none;fill-rule:nonzero;fill:rgb(81.568627%,60.784314%,2.745098%);fill-opacity:1;" d="M 75.597656 271.292969 C 73.589844 276.746094 71.183594 282.039062 68.398438 287.136719 C 65.699219 290.425781 64.800781 291.324219 65.699219 291.324219 L 68.398438 291.324219 C 66.46875 293.722656 64.667969 296.214844 63 298.796875 C 60.902344 301.488281 62.398438 301.488281 63.296875 301.1875 L 67.203125 298.5 C 65.144531 303.15625 62.417969 307.488281 59.101562 311.355469 C 54.207031 317.414062 50.445312 324.296875 48 331.679688 C 47.070312 337.210938 46.769531 342.824219 47.097656 348.425781 C 47.097656 348.425781 52.800781 335.867188 53.699219 332.578125 L 55.199219 328.992188 C 55.199219 328.992188 54.902344 333.476562 56.101562 333.476562 C 57.296875 333.476562 58.5 326.003906 59.101562 322.117188 L 60 319.128906 C 60.296875 318.53125 61.5 322.117188 62.398438 322.414062 C 63.296875 322.714844 64.800781 326.003906 67.800781 307.769531 L 70.203125 299.394531 C 70.203125 299.394531 70.5 304.480469 71.101562 304.773438 C 71.699219 305.074219 73.800781 300.59375 74.699219 293.714844 C 75.597656 286.839844 76.203125 273.089844 76.5 272.492188 L 77.398438 266.511719 L 77.398438 263.519531 Z M 75.597656 271.292969 "/>
<path style="fill:none;stroke-width:0.4;stroke-linecap:round;stroke-linejoin:round;stroke:rgb(0%,0%,0%);stroke-opacity:1;stroke-miterlimit:4;" d="M 26.100257 85.699618 C 26.100257 85.699618 22.600257 93.399813 20.700518 95.200402 C 18.799477 96.999684 19.899737 96.999684 20.098956 96.999684 L 21.401039 96.999684 C 21.401039 96.999684 19.600258 98.299818 19.300779 99.100806 C 18.999997 99.900487 18.399737 100.698861 19.499997 100.400941 L 20.600258 100.100407 C 19.981768 101.495929 19.135414 102.779077 18.098956 103.900198 C 16.300779 105.800094 15.499998 107.199535 15.300779 108.29975 C 14.498696 111.324686 14.567706 114.512957 15.499998 117.5 C 15.699217 117.5 15.799477 117.69992 15.899737 116.700319 C 15.999998 115.699411 17.200518 115.099651 17.799477 113.500289 C 18.03255 112.920128 18.200518 112.316448 18.300779 111.701007 C 18.300779 111.701007 18.700518 112.799915 18.999997 112.599994 C 19.300779 112.400074 20.200518 110.799406 20.098956 107.199535 C 20.098956 107.500069 20.999997 108.69959 21.401039 108.600283 C 21.799476 108.49967 23.199216 106.599774 23.600257 103.100517 L 23.600257 102.099609 C 23.787757 102.462863 24.023434 102.798677 24.299476 103.100517 C 24.700517 103.100517 25.499996 101.600462 25.499996 98.199205 C 25.499996 98.299818 26.299475 99.69926 26.499996 98.499739 C 26.479163 96.784083 26.27734 95.074961 25.899736 93.399813 C 25.529944 90.841357 25.596351 88.237167 26.100257 85.699618 Z M 26.100257 85.699618 " transform="matrix(3,0,0,2.989474,0,3.736842)"/>
<path style="fill:none;stroke-width:0.4;stroke-linecap:round;stroke-linejoin:round;stroke:rgb(0%,0%,0%);stroke-opacity:1;stroke-miterlimit:4;" d="M 25.799476 86.399992 C 25.799476 86.399992 24.199215 94.00088 23.999997 95.899469 C 23.799476 97.800671 21.199216 102.900597 18.999997 105.8994 C 16.799477 108.89951 15.399737 114.800424 15.499998 117.30008 " transform="matrix(3,0,0,2.989474,0,3.736842)"/>
<path style=" stroke:none;fill-rule:nonzero;fill:rgb(19.607843%,34.117647%,13.72549%);fill-opacity:1;" d="M 207.601562 356.195312 C 207.601562 356.195312 203.097656 347.527344 207.898438 322.714844 C 212.699219 297.898438 220.800781 282.058594 212.097656 258.738281 C 203.398438 235.421875 185.101562 246.480469 183 249.171875 C 180.898438 251.863281 171.300781 259.636719 174.597656 287.4375 C 177.898438 315.242188 186.300781 329.890625 186.300781 341.847656 C 186.300781 353.804688 186 361.277344 180.597656 369.949219 C 177.898438 373.832031 179.101562 372.039062 178.800781 373.234375 C 178.5 374.433594 186.898438 375.925781 198.601562 369.050781 C 210.300781 362.175781 207.601562 356.195312 207.601562 356.195312 Z M 207.601562 356.195312 "/>
<path style=" stroke:none;fill-rule:nonzero;fill:rgb(100%,0%,0%);fill-opacity:1;" d="M 212.699219 258.738281 C 204.300781 235.421875 185.402344 246.480469 183.300781 249.171875 C 181.199219 251.863281 171.898438 259.636719 175.199219 287.4375 C 178.5 315.242188 186.601562 329.890625 186.601562 341.847656 C 194.402344 291.625 220.800781 282.058594 212.699219 258.738281 Z M 212.699219 258.738281 "/>
<path style=" stroke:none;fill-rule:nonzero;fill:rgb(5.098039%,22.745098%,7.058824%);fill-opacity:1;" d="M 179.402344 373.234375 C 183.386719 374.273438 187.613281 373.953125 191.402344 372.335938 C 196.929688 370.558594 201.894531 367.359375 205.800781 363.070312 C 208.5 359.484375 208.5 356.195312 206.703125 354.402344 C 204.445312 352.691406 201.390625 352.457031 198.898438 353.804688 C 195.554688 355.203125 192.578125 357.355469 190.199219 360.082031 L 183.300781 368.453125 L 179.699219 372.335938 L 178.800781 373.234375 Z M 179.402344 373.234375 "/>
<path style=" stroke:none;fill-rule:nonzero;fill:rgb(5.098039%,22.745098%,7.058824%);fill-opacity:1;" d="M 198.898438 353.503906 C 198.898438 353.503906 201 331.382812 209.699219 314.644531 C 209.699219 314.644531 206.398438 330.488281 206.097656 335.867188 C 205.722656 341.347656 205.824219 346.847656 206.398438 352.308594 L 207.300781 354.699219 Z M 198.898438 353.503906 "/>
<path style=" stroke:none;fill-rule:nonzero;fill:rgb(59.607843%,3.137255%,1.960784%);fill-opacity:1;" d="M 183.601562 327.195312 C 183.601562 327.195312 176.101562 303.28125 175.5 292.519531 C 174.898438 281.757812 171.898438 269.203125 178.199219 256.046875 C 181.148438 250.558594 186.082031 246.386719 192 244.390625 C 192 244.390625 182.699219 269.203125 185.101562 293.414062 C 187.5 317.632812 188.699219 323.308594 188.699219 323.308594 Z M 183.601562 327.195312 "/>
<path style="fill:none;stroke-width:0.4;stroke-linecap:round;stroke-linejoin:round;stroke:rgb(0%,0%,0%);stroke-opacity:1;stroke-miterlimit:4;" d="M 69.200511 117.89984 C 69.200511 117.89984 67.699209 115.000344 69.299469 106.700388 C 70.89973 98.399125 73.60025 93.100586 70.699209 85.299777 C 67.79947 77.500275 62.100252 81.100146 60.999991 82.099747 C 59.899731 83.100655 57.100252 85.600311 58.199211 94.899868 C 59.299471 104.200732 62.100252 109.100737 62.100252 113.100448 C 62.100252 117.10016 61.999991 119.599816 60.19921 122.500619 C 59.966137 122.846886 59.765617 123.215366 59.600252 123.599527 C 59.700512 123.799447 62.29947 124.499821 66.200512 122.099472 C 70.100251 119.699122 69.200511 117.89984 69.200511 117.89984 Z M 69.200511 117.89984 " transform="matrix(3,0,0,2.989474,0,3.736842)"/>
<path style="fill:none;stroke-width:0.4;stroke-linecap:round;stroke-linejoin:round;stroke:rgb(0%,0%,0%);stroke-opacity:1;stroke-miterlimit:4;" d="M 69.200511 117.89984 C 69.200511 117.89984 68.699209 116.199865 66.200512 117.10016 C 63.700512 118.000454 60.499992 123.001073 59.700512 123.399607 " transform="matrix(3,0,0,2.989474,0,3.736842)"/>
<path style=" stroke:none;fill-rule:nonzero;fill:rgb(98.431373%,76.078431%,9.803922%);fill-opacity:1;" d="M 183.300781 319.722656 C 183.472656 324.765625 184.175781 329.777344 185.402344 334.671875 C 187.199219 340.050781 186.601562 353.804688 185.402344 358.289062 C 184.199219 362.773438 195.601562 334.96875 201 329.289062 C 206.398438 323.609375 203.703125 323.910156 202.800781 323.910156 L 198.898438 323.910156 C 201.253906 322.066406 203.28125 319.84375 204.898438 317.332031 C 206.097656 315.242188 207.300781 312.25 204 313.445312 L 200.398438 314.042969 C 202.03125 309.914062 204.480469 306.15625 207.601562 302.984375 C 211.347656 299.382812 214.039062 294.835938 215.398438 289.828125 C 217.539062 280.6875 216.910156 271.113281 213.601562 262.328125 C 213.300781 262.328125 213 261.730469 212.699219 264.71875 C 212.398438 267.707031 208.5 270.101562 207.300781 274.585938 C 206.601562 276.316406 206.097656 278.121094 205.800781 279.964844 C 205.800781 279.964844 204.300781 276.675781 203.703125 277.273438 C 203.097656 277.871094 200.097656 282.652344 201 293.414062 C 201 292.519531 198.601562 289.234375 197.097656 289.234375 C 195.601562 289.234375 192 295.210938 191.402344 305.671875 L 191.402344 308.660156 C 191.402344 308.660156 189.898438 305.972656 188.699219 305.972656 C 187.5 305.972656 185.101562 311.054688 186 320.917969 C 186.300781 320.023438 183.601562 317.632812 183.300781 319.722656 Z M 183.300781 319.722656 "/>
<path style=" stroke:none;fill-rule:nonzero;fill:rgb(81.568627%,60.784314%,2.745098%);fill-opacity:1;" d="M 188.101562 346.929688 C 189.886719 341.433594 191.988281 336.039062 194.402344 330.785156 C 196.796875 327.496094 198 326.902344 197.097656 326.902344 L 194.402344 326.902344 L 199.5 319.128906 C 201.300781 316.433594 200.097656 316.433594 199.199219 316.734375 L 195.300781 319.722656 C 196.894531 314.855469 199.332031 310.304688 202.5 306.269531 C 207.464844 300.011719 211.042969 292.78125 213 285.046875 C 213.890625 279.511719 214.089844 273.886719 213.601562 268.304688 C 213.601562 268.304688 208.199219 281.160156 207.300781 283.851562 C 206.75 284.992188 206.347656 286.195312 206.097656 287.4375 C 206.097656 287.4375 206.097656 282.953125 204.898438 282.953125 C 203.703125 282.953125 202.800781 290.425781 202.199219 294.3125 C 202.105469 295.359375 201.800781 296.378906 201.300781 297.300781 C 201 297.898438 200.097656 294.910156 198.898438 294.011719 C 197.703125 293.121094 196.796875 290.726562 193.796875 308.660156 C 192.601562 314.042969 192 317.332031 192 317.332031 C 192 317.332031 191.402344 312.25 190.5 311.953125 C 189.601562 311.652344 188.101562 316.433594 187.199219 323.609375 C 186.621094 330.671875 186.421875 337.753906 186.601562 344.835938 L 186.601562 353.804688 Z M 188.101562 346.929688 "/>
<path style="fill:none;stroke-width:0.4;stroke-linecap:round;stroke-linejoin:round;stroke:rgb(0%,0%,0%);stroke-opacity:1;stroke-miterlimit:4;" d="M 61.700512 118.699521 C 61.700512 118.699521 65.200512 110.799406 66.999991 108.89951 C 68.79947 106.999615 67.901032 107.100228 67.600251 107.100228 L 66.29947 107.100228 C 67.084626 106.483481 67.760407 105.739987 68.29947 104.899799 C 68.699209 104.200732 69.100251 103.199824 67.99999 103.599664 L 66.79947 103.799585 C 67.343741 102.418436 68.160147 101.161422 69.200511 100.100407 C 70.449209 98.895659 71.346344 97.374697 71.799469 95.699549 C 72.513011 92.641945 72.303375 89.439302 71.200511 86.500605 C 71.10025 86.500605 70.99999 86.300685 70.89973 87.300286 C 70.799469 88.299887 69.49999 89.100875 69.100251 90.60093 C 68.867178 91.179784 68.699209 91.783464 68.600251 92.400212 C 68.600251 92.400212 68.100251 91.299997 67.901032 91.499917 C 67.699209 91.699838 66.699209 93.299199 66.999991 96.89907 C 66.999991 96.599843 66.200512 95.500935 65.69921 95.500935 C 65.200512 95.500935 63.999991 97.500138 63.800772 100.999395 L 63.800772 101.998996 C 63.800772 101.998996 63.29947 101.100008 62.899731 101.100008 C 62.499991 101.100008 61.700512 102.799983 61.999991 106.099321 C 61.999991 106.000014 61.100252 104.799186 60.999991 105.8994 C 61.057283 107.586309 61.29296 109.262764 61.700512 110.900019 C 62.399731 112.499381 62.100252 116.999546 61.700512 118.699521 Z M 61.700512 118.699521 " transform="matrix(3,0,0,2.989474,0,3.736842)"/>
<path style="fill:none;stroke-width:0.4;stroke-linecap:round;stroke-linejoin:round;stroke:rgb(0%,0%,0%);stroke-opacity:1;stroke-miterlimit:4;" d="M 61.800773 118.299681 C 61.800773 118.299681 63.399731 110.300259 63.598949 108.399056 C 63.800772 106.500468 66.200512 101.299928 68.200511 98.199205 C 70.200511 95.099788 71.300771 89.398795 71.10025 86.801139 " transform="matrix(3,0,0,2.989474,0,3.736842)"/>
</g>
</svg>
