<svg xmlns="http://www.w3.org/2000/svg" viewBox="0 0 78 140">
  <rect width="78" height="140" rx="6" ry="6" fill="#fff"/>
  <path d="M69.9 106.8s-2.3-2-3.1-1.6a8.4 8.4 0 0 1-4.2.3c-3.6-1.2-4.4-.2-6 .1s-9.5-1.6-22.7-.3-15-1.8-17-1.9S8 107 8 107v17.2l62-.7z" fill="#febf10"/>
  <path d="M69.9 111.8s-2.3-2-3.1-1.6a8.4 8.4 0 0 1-4.2.3c-3.6-1.2-4.4-.2-6 .1s-9.5-1.6-22.7-.3-15-1.8-17-1.9S8 112 8 112v17.2l62-.7z" fill="#0065b7"/>
  <path d="M8 114.4a21 21 0 0 1 6.1-.2c3.3.4 6-1.6 9.3-.4s14.8 2 16.5 1.8l18.5-1.3a23.8 23.8 0 0 1 11.5 1.6v16.3H8z" fill="#325723"/>
  <path d="M8 117.8a21 21 0 0 1 6.1-.2c3.3.4 6-1.6 9.3-.5s14.8 2 16.5 1.9 16.7-1.1 18.5-1.4a26.6 26.6 0 0 1 11.5 1.6v12.9H8z" fill="#0d3a12"/>
  <path d="M8 114.4a21 21 0 0 1 6.1-.2c3.3.4 6-1.6 9.3-.4s14.8 2 16.5 1.8l18.5-1.3a23.8 23.8 0 0 1 11.5 1.6M8 112s6.9-3.7 8.9-3.6 3.8 3.2 17 1.9 21 .6 22.7.3 2.4-1.3 6-.1a8.4 8.4 0 0 0 4.2-.3c.8-.4 3.1 1.6 3.1 1.6" fill="none" stroke="#000" stroke-linecap="round" stroke-linejoin="round" stroke-width=".42"/>
  <path d="M16.7 130a1 1 0 0 0-.8-.7 1.1 1.1 0 0 0-1.2.6h-.1c-.2 1.1.2 1.8 1.3 1.9h46.8a2 2 0 0 0 .8-.4 3.7 3.7 0 0 0 .2-1.2c-.1-.2-.1-.2-.1-.3v.1a1 1 0 0 0-1.1-.4.7.7 0 0 0-.7.4 1.5 1.5 0 0 0-.1.7l-44.9-.3v-.4m-7.2-6.9H8.2v6c.2 1.7 1 2.6 2.3 2.8h.6c1.7.1 2.8-.5 3.3-1.9v-.4c0-1.3-.4-2-1.4-2s-1.2.3-1.4 1.1a1.4 1.4 0 0 0 .9 1.2 1.8 1.8 0 0 1-1.5.6h-.2l-.4-.2a2 2 0 0 1-1-1.6v-4.6h1.2v-1.3c.1-1.5 1.1-2.4 2.9-2.7a3 3 0 0 1 2.8 2.2h12.4c-.2-.2.2-.2 0-.4s-.1-.3-.2-.3v-.4l-.9-.2H17.3a4 4 0 0 0-3.8-2.2 4.1 4.1 0 0 0-4 4.2m40.2-1.4l-.2.9h12.2a3 3 0 0 1 5.7 0v2.1h1v4.7a1.3 1.3 0 0 1-.7 1.2l-.3.2h-.2a1.8 1.8 0 0 1-1.5-.6h.2a1.1 1.1 0 0 0 .6-1.1c-.2-.8-.6-1.1-1.3-1.1s-1.5.7-1.4 2c.5 1.5 1.6 2.2 3.4 2.2h.5a2.5 2.5 0 0 0 2.1-2.5v-6.2h-1.3V122a3.7 3.7 0 0 0-3.6-2.6 4.7 4.7 0 0 0-3.8 1.9h-9.6c-.1.2-1.4-.1-1.6.1m-15.8 1h9.4c1.1-.1 1.4-.7 1.1-1.8h1a2.6 2.6 0 0 1 1.4 1.9h2.8l-.6-.7-.2-.3-.3-.2h-1a2.6 2.6 0 0 0-3.2-2h-.9a1.4 1.4 0 0 0-.8.7h-7.7a1.5 1.5 0 0 0-1.2-.8h-.6a6.5 6.5 0 0 0-3.6 1.8l-.3.3a1.3 1.3 0 0 0-.2.8H31a2.4 2.4 0 0 1 1.9-1.5c0 1.2.4 1.7 1.2 1.8z" fill="#febf10"/>
  <path d="M28.7 122.3H16.4a3 3 0 0 0-2.8-2.2c-1.8.3-2.8 1.2-2.9 2.7v1.3H9.5v4.6a2 2 0 0 0 1 1.6l.4.2h.2a1.8 1.8 0 0 0 1.5-.6 1.4 1.4 0 0 1-.9-1.2c.2-.8.7-1.2 1.4-1.1s1.4.7 1.4 2v.2h.3a1.1 1.1 0 0 1 1.2-.6 1 1 0 0 1 .8.7v.4l44.9.3a1.5 1.5 0 0 1 .1-.7.7.7 0 0 1 .7-.4 1 1 0 0 1 1.1.4v.2h.2c-.1-1.3.4-2 1.4-2s1.1.3 1.3 1.1a1.1 1.1 0 0 1-.6 1.1h-.2a1.8 1.8 0 0 0 1.5.6h.2l.3-.2a1.3 1.3 0 0 0 .7-1.2v-4.7h-1v-2.1a3 3 0 0 0-5.7 0h-11c-.1.2-.2-.1-.5-.1H47a2.6 2.6 0 0 0-1.4-1.9h-1c.3 1.1 0 1.7-1.1 1.8h-9.1m0 0h-.3c-.8-.1-1.2-.6-1.2-1.6a2.4 2.4 0 0 0-1.9 1.5h-1.4m15.8-.6a2.2 2.2 0 0 1 1.1 1.6H62c.7-1.6 1.6-2.2 2.6-1.9a2.4 2.4 0 0 1 2.3 1.8v2.1h.9v4c-.3.5-.7.8-1 .7a2.2 2.2 0 0 0-.1-2.1 2 2 0 0 0-2-.6 1.9 1.9 0 0 0-1.5 1.5c-1.2-.2-2 .2-2.3 1.1l-43.7-.3c-.3-.9-1.1-1.3-2.3-1.1a2.2 2.2 0 0 0-1.5-1.5 2.2 2.2 0 0 0-2.1.6 2.2 2.2 0 0 0-.1 2.1.7.7 0 0 1-.8-.3 3.4 3.4 0 0 1-.3-.8v-3.9h1.1v-1.7a2.4 2.4 0 0 1 2.2-2.3 2.3 2.3 0 0 1 2.4 2.1h15.7a1.6 1.6 0 0 1 .9-1.1 3.5 3.5 0 0 0 1.8 1.3h10a1.4 1.4 0 0 0 1.2-1.4z" fill="#f7931e"/>
  <path d="M46.5 123.3a2.2 2.2 0 0 0-1.1-1.6 1.4 1.4 0 0 1-1.2 1.4h-10a3.5 3.5 0 0 1-1.8-1.3 1.6 1.6 0 0 0-.9 1.1H15.9a2.3 2.3 0 0 0-2.4-2.1 2.4 2.4 0 0 0-2.2 2.3v1.7h-1.1v3.9a3.4 3.4 0 0 0 .3.8.7.7 0 0 0 .8.3 2.2 2.2 0 0 1 .1-2.1 2.2 2.2 0 0 1 2.1-.6 2.2 2.2 0 0 1 1.5 1.5c1.2-.2 2 .2 2.3 1.1l43.7.3c.3-.9 1.1-1.3 2.3-1.1a1.9 1.9 0 0 1 1.5-1.5 2 2 0 0 1 2 .6 2.2 2.2 0 0 1 .1 2.1c.3.1.7-.2 1-.7v-4H67v-2.1a2.4 2.4 0 0 0-2.3-1.8c-1-.3-1.9.3-2.6 1.9H46.5m-25.7 6l-4.8-2.6v-3.5l46.1.4v3.4l-4.2 2.4z"/>
  <path d="M16 126.8l4.8 2.5 37.1.2 4.2-2.4v-3.4l-46.1-.4z" fill="#0065b7"/>
  <path d="M42.8 120.2a1.4 1.4 0 0 1 .8-.7h.4c3-.7 3.5 1.9 3.5 1.9H61a4.7 4.7 0 0 1 3.8-1.9 3.7 3.7 0 0 1 3.6 2.6v1.5H70v6.2c0 2.3-3 2.5-3 2.5-1.8 0-2.7-.6-3.2-2.1-.1-1.3.4-2 1.4-2s1.1.3 1.3 1.1a1.1 1.1 0 0 1-.6 1.1h-.2a1.8 1.8 0 0 0 1.5.6h.2l.3-.2a1.3 1.3 0 0 0 .7-1.2v-4.7h-1v-2.1a3 3 0 0 0-5.7 0H47a2.6 2.6 0 0 0-1.4-1.9h-1c.3 1.1 0 1.7-1.1 1.8h-9.4c-.8-.1-1.2-.6-1.2-1.6a2.4 2.4 0 0 0-1.9 1.5H16.4a3 3 0 0 0-2.8-2.2c-1.8.3-2.8 1.2-2.9 2.7v1.3H9.5v4.6a2 2 0 0 0 1 1.6l.4.2h.2a1.8 1.8 0 0 0 1.5-.6 1.4 1.4 0 0 1-.9-1.2c.2-.8.7-1.2 1.4-1.1s1.4.7 1.4 2v.4c-.5 1.4-1.6 2-3.3 1.9h-.6a2.8 2.8 0 0 1-2.4-2.8v-6h1.3a4.1 4.1 0 0 1 4-4.2 4 4 0 0 1 3.8 2.2h10.1" fill="none" stroke="#000" stroke-linecap="round" stroke-linejoin="round" stroke-width=".4"/>
  <path d="M43.2 122.3a1.1 1.1 0 0 1-.5-1.1 3.1 3.1 0 0 1 .1-1h-7.7a3.1 3.1 0 0 1 .1 1 1.2 1.2 0 0 1-.8 1.1" fill="none" stroke="#000" stroke-linecap="round" stroke-linejoin="round" stroke-width=".4"/>
  <path d="M32.9 120.8h.5" fill="none" stroke="#000" stroke-linecap="round" stroke-linejoin="round" stroke-width=".48"/>
  <path d="M32.4 121.8a3.5 3.5 0 0 0 1.8 1.3h10a1.4 1.4 0 0 0 1.2-1.4 2.2 2.2 0 0 1 1.1 1.6H62c.7-1.6 1.6-2.2 2.6-1.9a2.4 2.4 0 0 1 2.3 1.8v2.1h.9v4c-.3.5-.7.8-1 .7a2.2 2.2 0 0 0-.1-2.1 2 2 0 0 0-2-.6 1.9 1.9 0 0 0-1.5 1.5c-1.2-.2-2 .2-2.3 1.1l-43.7-.3c-.3-.9-1.1-1.3-2.3-1.1a2.2 2.2 0 0 0-1.5-1.5 2.2 2.2 0 0 0-2.1.6 2.2 2.2 0 0 0-.1 2.1.7.7 0 0 1-.8-.3 3.4 3.4 0 0 1-.3-.8v-3.9h1.1V123a2.4 2.4 0 0 1 2.2-2.3 2.3 2.3 0 0 1 2.4 2.1h15.7a1.6 1.6 0 0 1 .9-1z" fill="none" stroke="#000" stroke-linecap="round" stroke-linejoin="round" stroke-width=".4"/>
  <path d="M35.1 120.2a1.5 1.5 0 0 0-1.2-.8m-3.8 1.7a5.3 5.3 0 0 1 3.2-1.7" fill="none" stroke="#000" stroke-linecap="round" stroke-linejoin="round" stroke-width=".48"/>
  <path fill="none" stroke="#000" stroke-linecap="round" stroke-linejoin="round" stroke-width=".4" d="M16 126.8l4.8 2.5 37.1.2 4.2-2.4v-3.4l-46.1-.4v3.5z"/>
  <path d="M14.7 129.9a1.1 1.1 0 0 1 1.2-.6 1 1 0 0 1 .8.7v.4l44.9.3a1.5 1.5 0 0 1 .1-.7.7.7 0 0 1 .7-.4 1 1 0 0 1 1.1.4v.2c0 .1 0 .1.1.3a3.7 3.7 0 0 1-.2 1.2 1.9 1.9 0 0 1-.9.5H15.9c-1.1-.1-1.5-.9-1.3-2h.1z" fill="none" stroke="#000" stroke-linecap="round" stroke-linejoin="round" stroke-width=".4"/>
  <path d="M44.3 120.6h.3" fill="none" stroke="#000" stroke-linecap="round" stroke-linejoin="round" stroke-width=".48"/>
  <path d="M70 65.2V17a6 6 0 0 0-4.1-1.7c-3.8 0-6.9 3.9-6.9 8.7s8 8.5 4.5 14.6-7.5 7.3-11.8 7.2c-2-1.2-3.2-4.3-3.2-4.3a3.4 3.4 0 0 0 2-.2c-2.6-.4-3.8-3.6-3.9-3.7a3.3 3.3 0 0 0 2.1.2c-2.4-.6-3.7-3.3-3.7-3.3a2.1 2.1 0 0 0 1.6-.5 3.6 3.6 0 0 1-2.9-1.8 1 1 0 0 0 1-.2 2 2 0 0 1-1.1-1.6 1.3 1.3 0 0 0 1.3.2 3.3 3.3 0 0 1-.5-3.8 1.4 1.4 0 0 0 1 .9c-.3-2.1.8-2.7.8-2.7 2.7-1.7 2.6 1 2.6 1s2.9-2 2.5-4.3-5.7-3.7-6.5-3.8-7.5-.9-12.1 3.6-5 4.3-5.1 4.3a4.4 4.4 0 0 0 3.1-.3s-.8 3.5-2.8 4.7a3.2 3.2 0 0 0 1.3-.1c-.1.1-1.1 4.4-4.1 6.5a3.1 3.1 0 0 0 2.2-.9s-1.2 3.7-2.8 4.7a5.8 5.8 0 0 0 1.9-.8c-.1 0-2.1 4.9-3.1 5.8a13.8 13.8 0 0 1-8.6-6.8c-3.4-6.1 4.6-9.9 4.6-14.6s-3.2-8.7-7-8.7A6.6 6.6 0 0 0 8.1 17v47.9l24.5-3.4-.3-11.8 13.7-.5-.3 12.3z" fill="#a77e6a"/>
  <path d="M19.3 24.1c0-4.8-3.2-8.6-7-8.6a6.5 6.5 0 0 0-4.2 1.6s6.1-.8 11.2 7zm50.6-7a6.4 6.4 0 0 0-4.1-1.6c-3.8 0-6.9 3.8-6.9 8.6 0 0 3.4-7.9 11-7zM55.4 49.2c-5.5-3.8-6.9-7.8-6.9-7.9a2.3 2.3 0 0 0 2-.2c-2.6-.4-3.8-3.5-3.9-3.6a2.4 2.4 0 0 0 2.1.1c-2.4-.5-3.7-3.2-3.7-3.2a2 2 0 0 0 1.6-.6 3.6 3.6 0 0 1-2.9-1.7 1 1 0 0 0 1-.2 2.1 2.1 0 0 1-1.1-1.6 1.3 1.3 0 0 0 1.3.2 3.5 3.5 0 0 1-.5-3.9 1.4 1.4 0 0 0 1 1 3 3 0 0 1 .7-2.5c1.7-2.2 2.1-6.1 2.1-6.1l-9.6-3.2s-.5 13.1-2.5 14.2a1.8 1.8 0 0 0 1.3 0c-.1.1-1 4.4-4.1 6.5a4.3 4.3 0 0 0 2.3-1c0 .1-1.2 3.7-2.8 4.8a6.8 6.8 0 0 0 1.9-.8c-.1 0-3 6.1-4 7.1" fill="#603813"/>
  <path d="M55.5 51.3a10.1 10.1 0 0 0 3.8-5.3c.6.9.2 3.5.1 3.5 2-1.5 2.9-5.5 2.7-5.5s1 3.4.9 3.3c1.8-2.7 2-7.2 2-7.3a7.7 7.7 0 0 1 .9 2.7c1.5-3.3 0-7.2 0-7.2a16.7 16.7 0 0 1 1.6 1.2 13.9 13.9 0 0 0-6.1-7.5c2 2.3 6.9 9.3-4.8 15.8l-6 1.1 2.7 3.4zm-33 0a9.6 9.6 0 0 1-3.7-5.3c-.6.9-.2 3.5-.1 3.5-2-1.5-2.9-5.5-2.8-5.5s-1 3.4-.9 3.3a16.2 16.2 0 0 1-1.9-7.3 7.7 7.7 0 0 0-.9 2.7c-1.5-3.3 0-7.2 0-7.2a16.7 16.7 0 0 0-1.6 1.2 13.9 13.9 0 0 1 6-7.5c-2 2.3-7.6 10 6.6 16.4l1.5-.3-1.2 3.9z" fill="#f15a24"/>
  <path d="M47.8 19a9.7 9.7 0 0 0-2.9 2.8c-.7 1.3-.5 1.5.3 2a3.8 3.8 0 0 1 1.2 1.2s1.4-1.5 2.6.7c0 .1 3.3-2.7 2.1-4.6a4.3 4.3 0 0 0-3.3-2.1z" fill="#f7931e"/>
  <path d="M69.9 17a6 6 0 0 0-4.1-1.7c-3.8 0-6.9 3.9-6.9 8.7s8 8.5 4.5 14.6-7.4 7.3-11.7 7.2c-2-1.2-3.2-4.3-3.2-4.3a3.4 3.4 0 0 0 2-.2c-2.6-.4-3.8-3.6-3.9-3.7a3.3 3.3 0 0 0 2.1.2c-2.4-.6-3.7-3.3-3.7-3.3a2.1 2.1 0 0 0 1.6-.5 3.6 3.6 0 0 1-2.9-1.8 1 1 0 0 0 1-.2 2 2 0 0 1-1.1-1.6 1.3 1.3 0 0 0 1.3.2 3.3 3.3 0 0 1-.5-3.8 1.4 1.4 0 0 0 1 .9c-.3-2.1.8-2.7.8-2.7 2.7-1.7 2.6 1 2.6 1s2.9-2 2.5-4.3-5.7-3.7-6.5-3.8-7.5-.9-12.1 3.6-5 4.3-5.1 4.3a4.4 4.4 0 0 0 3.1-.3s-.8 3.5-2.8 4.7a3.2 3.2 0 0 0 1.3-.1c-.1.1-1.1 4.4-4.1 6.5a3.1 3.1 0 0 0 2.2-.9s-1.2 3.7-2.8 4.7a5.8 5.8 0 0 0 1.9-.8c-.1 0-2.1 4.9-3.1 5.8a13.8 13.8 0 0 1-8.6-6.8c-3.4-6.1 4.6-9.9 4.6-14.6s-3.2-8.7-7-8.7A6.6 6.6 0 0 0 8.1 17v40.8" fill="none" stroke="#000" stroke-linecap="round" stroke-linejoin="round" stroke-width=".4"/>
  <path fill="#603813" d="M13 57l-5 7.5.1 10 8.5-15.9L13 57z"/>
  <path d="M22.5 51.3a9.6 9.6 0 0 1-3.7-5.3c-.6.9-.2 3.5-.1 3.5-2-1.5-2.9-5.5-2.8-5.5s-1 3.4-.9 3.3a16.2 16.2 0 0 1-1.9-7.3 7.7 7.7 0 0 0-.9 2.7c-1.5-3.3 0-7.2 0-7.2a16.7 16.7 0 0 0-1.6 1.2 13.9 13.9 0 0 1 6-7.5" fill="none" stroke="#000" stroke-linecap="round" stroke-linejoin="round" stroke-width=".4"/>
  <circle cx="46.8" cy="11.7" r=".8" fill="#febf10" stroke="#000" stroke-linecap="round" stroke-linejoin="round" stroke-width=".4"/>
  <path d="M47.9 19a9 9 0 0 0-3.2 3.5c-.8 2 .8.4 1.4 2.5" fill="none" stroke="#000" stroke-linecap="round" stroke-linejoin="round" stroke-width=".4"/>
  <path d="M35 19.8a9.2 9.2 0 0 0-2.2 5.1 22.6 22.6 0 0 0 2-1.3l-1.4 4.2 3-3.2-1.2 3.9 1.6-.9v2l1.3-1.6v1.8l1.5-2.3v1.2l.9-1.3.5 1.4 1.7-4.2a6.4 6.4 0 0 1-2.2.5c-.1 0 4-1.7 3.9-4.6s-3.3-2.9-3.3-2.9-4-.3-6.1 2.2z" fill="#f15a24" stroke="#000" stroke-linecap="round" stroke-linejoin="round" stroke-width=".4"/>
  <ellipse cx="39.7" cy="21.4" rx="3.2" ry="1.9" transform="rotate(-19.4 39.67 21.53)" fill="#29abe2"/>
  <ellipse cx="40.4" cy="21.7" rx="2.8" ry="1.6" transform="rotate(-19.4 40.55 21.68)" fill="#fff"/>
  <path d="M44.5 23.5s2.1-1.6 3.9-.3a2.1 2.1 0 0 1 .5 2.7M42 20.2s-1-.5-2.6 1.3a4 4 0 0 0 2.6 0" fill="none" stroke="#000" stroke-linecap="round" stroke-linejoin="round" stroke-width=".4"/>
  <path d="M42.8 20s-.4-1.2-2.7-.6a11.3 11.3 0 0 0-4.2 2.6m6.4.1a4.9 4.9 0 0 1-3.5 1.5" fill="none" stroke="#000" stroke-linecap="round" stroke-linejoin="round" stroke-width=".4"/>
  <circle cx="41.5" cy="20.9" r=".8" transform="rotate(-8.1 40.31 20.95)"/>
  <circle cx="41.7" cy="20.6" r=".2" fill="#fff"/>
  <path fill="#f7931e" stroke="#000" stroke-linecap="round" stroke-linejoin="round" stroke-width=".42" d="M23.82 104.63l3.46-.52 1.84 12.2-3.46.52z"/>
  <ellipse cx="27.6" cy="117.1" rx="2.2" ry="1.7" fill="#f7931e" stroke="#000" stroke-linecap="round" stroke-linejoin="round" stroke-width=".42"/>
  <path d="M13.5 51.7A42.9 42.9 0 0 0 8 56.9" fill="#a77e6a" stroke="#000" stroke-linecap="round" stroke-linejoin="round" stroke-width=".4"/>
  <path d="M8 64.8l.4-.6a64.9 64.9 0 0 1 5.9-8.7" fill="#856353" stroke="#000" stroke-linecap="round" stroke-linejoin="round" stroke-width=".4"/>
  <ellipse cx="18.8" cy="94.6" rx="2.7" ry="15.9" transform="rotate(-3.5 18.37 95.57)" fill="#a77e6a" stroke="#000" stroke-linecap="round" stroke-linejoin="round" stroke-width=".4"/>
  <path d="M8 74.8c.6-1.6 1.2-3.2 2-4.9 3.5-8.1 7.4-14.1 8.8-13.5S18.4 64 14.9 72c-2.4 5.5-5 10.1-6.8 12.2" fill="#856353" stroke="#000" stroke-linecap="round" stroke-linejoin="round" stroke-width=".4"/>
  <ellipse cx="15.3" cy="84.7" rx="15.9" ry="2.7" transform="rotate(-84 15.34 84.7)" fill="#856353"/>
  <path d="M12.2 88.5s2 6.4 5.1.9c.1.1-1.5 10.8-3.5 11s-1.6-11.9-1.6-11.9z" fill="#603813"/>
  <ellipse cx="15.3" cy="84.7" rx="15.9" ry="2.7" transform="rotate(-84 15.34 84.7)" fill="none" stroke="#000" stroke-linecap="round" stroke-linejoin="round" stroke-width=".4"/>
  <path d="M8.1 94.6c.4-1.7.8-3.6 1.4-5.5 2.4-8.4 5.5-14.9 6.9-14.5s.7 7.5-1.8 16-5 13.9-6.5 14.5" fill="#a77e6a" stroke="#000" stroke-linecap="round" stroke-linejoin="round" stroke-width=".4"/>
  <path d="M8 85.1l.8-2.1c3.2-8.2 7-14.4 8.4-13.8s-.2 7.6-3.4 15.7A56.1 56.1 0 0 1 8 96.5" fill="#603813" stroke="#000" stroke-linecap="round" stroke-linejoin="round" stroke-width=".4"/>
  <ellipse cx="26.3" cy="118" rx=".8" ry="1.1" transform="rotate(-7.6 26.23 117.43)" fill="#f7931e" stroke="#000" stroke-linecap="round" stroke-linejoin="round" stroke-width=".42"/>
  <path d="M23.4 56.2a7.9 7.9 0 0 1-13.6-5.6 7.3 7.3 0 0 1 .6-3" fill="#a77e6a" stroke="#000" stroke-linecap="round" stroke-linejoin="round" stroke-width=".4"/>
  <ellipse cx="24.8" cy="118.3" rx="1" ry="1.2" transform="rotate(-7.6 24.67 118.08)" fill="#f7931e" stroke="#000" stroke-linecap="round" stroke-linejoin="round" stroke-width=".42"/>
  <ellipse cx="23" cy="118.4" rx="1.2" ry="1.5" transform="rotate(-10 23.05 118.34)" fill="#f7931e" stroke="#000" stroke-linecap="round" stroke-linejoin="round" stroke-width=".42"/>
  <ellipse cx="30" cy="117.9" rx="1.1" ry=".8" transform="rotate(-87.6 30.01 117.96)" fill="#f7931e" stroke="#000" stroke-linecap="round" stroke-linejoin="round" stroke-width=".42"/>
  <ellipse cx="31.5" cy="117.9" rx="1.2" ry="1" transform="rotate(-87.6 31.54 117.92)" fill="#f7931e" stroke="#000" stroke-linecap="round" stroke-linejoin="round" stroke-width=".42"/>
  <ellipse cx="33.4" cy="118.1" rx="1.2" ry="1.5" fill="#f7931e" stroke="#000" stroke-linecap="round" stroke-linejoin="round" stroke-width=".42"/>
  <ellipse cx="28.1" cy="118" rx="1.1" ry="1" fill="#f7931e" stroke="#000" stroke-linecap="round" stroke-linejoin="round" stroke-width=".42"/>
  <ellipse cx="28.5" cy="118.9" rx="1.4" ry="1.1" fill="#f7931e" stroke="#000" stroke-linecap="round" stroke-linejoin="round" stroke-width=".42"/>
  <ellipse cx="28.8" cy="120.2" rx="1.5" ry="1.3" fill="#f7931e" stroke="#000" stroke-linecap="round" stroke-linejoin="round" stroke-width=".42"/>
  <path d="M22.3 119.2c-.9-.5-2.1.5-2.1.5a2.1 2.1 0 0 1 2-1.9s.3.3.1 1.4z" fill="red" stroke="#000" stroke-linecap="round" stroke-linejoin="round" stroke-width=".42"/>
  <ellipse cx="31" cy="96.1" rx="15.9" ry="2.7" transform="rotate(-89.5 30.95 96.09)" fill="#856353"/>
  <path d="M28.2 100.4s2.6 6.1 5.1.3c.1.1-.3 11-2.3 11.3s-2.8-11.6-2.8-11.6z" fill="#603813"/>
  <ellipse cx="31" cy="96.1" rx="15.9" ry="2.7" transform="rotate(-89.5 30.95 96.09)" fill="none" stroke="#000" stroke-linecap="round" stroke-linejoin="round" stroke-width=".4"/>
  <path d="M34.1 118.9c.8-.5 2 .5 2 .5a2 2 0 0 0-2-1.9s-.2.3 0 1.4z" fill="red" stroke="#000" stroke-linecap="round" stroke-linejoin="round" stroke-width=".42"/>
  <ellipse cx="34.4" cy="98" rx="15.9" ry="2.7" transform="rotate(-86.6 34.37 98)" fill="#a77e6a" stroke="#000" stroke-linecap="round" stroke-linejoin="round" stroke-width=".4"/>
  <path d="M28 121a1.6 1.6 0 0 1 1.5 0l-.7 1.5z" fill="red" stroke="#000" stroke-linecap="round" stroke-linejoin="round" stroke-width=".42"/>
  <ellipse cx="38.6" cy="99.5" rx="15.9" ry="2.7" transform="rotate(-89.5 38.65 99.42)" fill="#856353"/>
  <path d="M36 103.5s2.6 6.2 5.1.4c.1.1-.4 11-2.4 11.3S36 103.5 36 103.5z" fill="#603813"/>
  <ellipse cx="38.6" cy="99.5" rx="15.9" ry="2.7" transform="rotate(-89.5 38.65 99.42)" fill="none" stroke="#000" stroke-linecap="round" stroke-linejoin="round" stroke-width=".4"/>
  <ellipse cx="26.3" cy="91.5" rx="2.7" ry="15.9" transform="rotate(-3.3 26.9 91.1)" fill="#a77e6a" stroke="#000" stroke-linecap="round" stroke-linejoin="round" stroke-width=".4"/>
  <ellipse cx="23" cy="92.3" rx="2.7" ry="15.9" transform="rotate(-3.9 23.33 91.95)" fill="#856353"/>
  <path d="M20.6 96.7s3 6 5.2 0c0 .1.3 11-1.7 11.4s-3.5-11.4-3.5-11.4z" fill="#603813"/>
  <ellipse cx="23" cy="92.3" rx="2.7" ry="15.9" transform="rotate(-3.9 23.33 91.95)" fill="none" stroke="#000" stroke-linecap="round" stroke-linejoin="round" stroke-width=".4"/>
  <path d="M23.3 45.4a1.6 1.6 0 0 0 1.4-.1c.1 0-.8 4.3-2.4 5.7" fill="none" stroke="#000" stroke-linecap="round" stroke-linejoin="round" stroke-width=".4"/>
  <path fill="#603813" d="M65.1 57l4.9 7.5v10l-8.6-15.9 3.7-1.6z"/>
  <path d="M55.5 51.3a10.1 10.1 0 0 0 3.8-5.3c.6.9.2 3.5.1 3.5 2-1.5 2.9-5.5 2.7-5.5s1 3.4.9 3.3c1.8-2.7 2-7.2 2-7.3a7.7 7.7 0 0 1 .9 2.7c1.5-3.3 0-7.2 0-7.2a16.7 16.7 0 0 1 1.6 1.2 13.9 13.9 0 0 0-6.1-7.5" fill="none" stroke="#000" stroke-linecap="round" stroke-linejoin="round" stroke-width=".4"/>
  <path fill="#f7931e" stroke="#000" stroke-linecap="round" stroke-linejoin="round" stroke-width=".42" d="M52.38 116.64l-3.46-.52 1.85-12.2 3.46.52z"/>
  <ellipse cx="50.4" cy="117.1" rx="2.2" ry="1.7" fill="#f7931e" stroke="#000" stroke-linecap="round" stroke-linejoin="round" stroke-width=".42"/>
  <path d="M64.6 51.7a56.9 56.9 0 0 1 5.4 5" fill="#a77e6a" stroke="#000" stroke-linecap="round" stroke-linejoin="round" stroke-width=".4"/>
  <path d="M70 64.8l-.3-.6a91.7 91.7 0 0 0-5.9-8.7" fill="#856353" stroke="#000" stroke-linecap="round" stroke-linejoin="round" stroke-width=".4"/>
  <ellipse cx="59.2" cy="94.6" rx="15.9" ry="2.7" transform="rotate(-86.5 59.16 94.63)" fill="#a77e6a" stroke="#000" stroke-linecap="round" stroke-linejoin="round" stroke-width=".4"/>
  <path d="M70 74.8c-.5-1.6-1.2-3.2-1.9-4.9-3.5-8.1-7.5-14.1-8.8-13.5s.3 7.6 3.8 15.6c2.4 5.5 5 10.1 6.8 12.2" fill="#856353" stroke="#000" stroke-linecap="round" stroke-linejoin="round" stroke-width=".4"/>
  <ellipse cx="62.7" cy="84.7" rx="2.7" ry="15.9" transform="rotate(-6 62.53 84.6)" fill="#856353"/>
  <path d="M65.8 88.6s-1.9 6.4-5.1.9c0 .1 1.5 10.8 3.6 10.9s1.5-11.8 1.5-11.8z" fill="#603813"/>
  <ellipse cx="62.7" cy="84.7" rx="2.7" ry="15.9" transform="rotate(-6 62.53 84.6)" fill="none" stroke="#000" stroke-linecap="round" stroke-linejoin="round" stroke-width=".4"/>
  <path d="M70 105.1c-1.6-.6-4.4-6.8-6.6-14.5s-3.2-15.6-1.8-16 4.5 6.1 7 14.5c.5 1.9 1 3.8 1.4 5.5" fill="#a77e6a" stroke="#000" stroke-linecap="round" stroke-linejoin="round" stroke-width=".4"/>
  <path d="M70 85.1a18 18 0 0 0-.8-2.1c-3.2-8.2-6.9-14.4-8.3-13.8s.1 7.6 3.3 15.7A61.6 61.6 0 0 0 70 96.5" fill="#603813" stroke="#000" stroke-linecap="round" stroke-linejoin="round" stroke-width=".4"/>
  <ellipse cx="51.7" cy="118" rx="1.1" ry=".8" transform="rotate(-82.4 51.79 117.97)" fill="#f7931e" stroke="#000" stroke-linecap="round" stroke-linejoin="round" stroke-width=".42"/>
  <path d="M54.7 56.2a7.6 7.6 0 0 0 5.6 2.4 8 8 0 0 0 8-8 7.3 7.3 0 0 0-.6-3" fill="#a77e6a" stroke="#000" stroke-linecap="round" stroke-linejoin="round" stroke-width=".4"/>
  <ellipse cx="53.2" cy="118.3" rx="1.2" ry="1" transform="rotate(-82.4 53.26 118.25)" fill="#f7931e" stroke="#000" stroke-linecap="round" stroke-linejoin="round" stroke-width=".42"/>
  <ellipse cx="55" cy="118.4" rx="1.5" ry="1.2" transform="rotate(-80 55.08 118.42)" fill="#f7931e" stroke="#000" stroke-linecap="round" stroke-linejoin="round" stroke-width=".42"/>
  <ellipse cx="48" cy="117.9" rx=".8" ry="1.1" transform="rotate(-2.4 47.68 118.01)" fill="#f7931e" stroke="#000" stroke-linecap="round" stroke-linejoin="round" stroke-width=".42"/>
  <ellipse cx="46.5" cy="117.9" rx="1" ry="1.2" transform="translate(-4.91 2.06)" fill="#f7931e" stroke="#000" stroke-linecap="round" stroke-linejoin="round" stroke-width=".42"/>
  <ellipse cx="44.7" cy="118.1" rx="1.2" ry="1.5" fill="#f7931e" stroke="#000" stroke-linecap="round" stroke-linejoin="round" stroke-width=".42"/>
  <ellipse cx="50" cy="118" rx="1.1" ry="1" fill="#f7931e" stroke="#000" stroke-linecap="round" stroke-linejoin="round" stroke-width=".42"/>
  <ellipse cx="49.6" cy="118.9" rx="1.4" ry="1.1" fill="#f7931e" stroke="#000" stroke-linecap="round" stroke-linejoin="round" stroke-width=".42"/>
  <ellipse cx="49.3" cy="120.2" rx="1.5" ry="1.3" fill="#f7931e" stroke="#000" stroke-linecap="round" stroke-linejoin="round" stroke-width=".42"/>
  <path d="M55.8 119.2c.8-.5 2 .5 2 .5a2 2 0 0 0-2-1.9s-.3.3 0 1.4z" fill="red" stroke="#000" stroke-linecap="round" stroke-linejoin="round" stroke-width=".42"/>
  <ellipse cx="47.1" cy="96.1" rx="2.7" ry="15.9" transform="translate(-.85 .42)" fill="#856353"/>
  <path d="M44.3 100.5s2.8 6.1 5.2.3c0 .1-.1 10.9-2.2 11.3s-3-11.6-3-11.6z" fill="#603813"/>
  <ellipse cx="47.1" cy="96.1" rx="2.7" ry="15.9" transform="translate(-.85 .42)" fill="none" stroke="#000" stroke-linecap="round" stroke-linejoin="round" stroke-width=".4"/>
  <path d="M43.9 118.9c-.8-.5-2 .5-2 .5a2 2 0 0 1 2-1.9s.3.3 0 1.4z" fill="red" stroke="#000" stroke-linecap="round" stroke-linejoin="round" stroke-width=".42"/>
  <ellipse cx="43.6" cy="98" rx="2.7" ry="15.9" transform="rotate(-3.4 42.64 97.38)" fill="#a77e6a" stroke="#000" stroke-linecap="round" stroke-linejoin="round" stroke-width=".4"/>
  <path d="M50 121a1.6 1.6 0 0 0-1.5 0l.7 1.5z" fill="red" stroke="#000" stroke-linecap="round" stroke-linejoin="round" stroke-width=".42"/>
  <ellipse cx="51.7" cy="91.5" rx="15.9" ry="2.7" transform="rotate(-86.7 51.74 91.41)" fill="#a77e6a" stroke="#000" stroke-linecap="round" stroke-linejoin="round" stroke-width=".4"/>
  <ellipse cx="55.1" cy="92.3" rx="15.9" ry="2.7" transform="rotate(-86.1 55.12 92.28)" fill="#856353"/>
  <path d="M57.5 96.4s-3 6-5.2.1c-.1.1-.3 10.9 1.7 11.4s3.5-11.5 3.5-11.5z" fill="#603813"/>
  <ellipse cx="55.1" cy="92.3" rx="15.9" ry="2.7" transform="rotate(-86.1 55.12 92.28)" fill="none" stroke="#000" stroke-linecap="round" stroke-linejoin="round" stroke-width=".4"/>
  <path d="M51.7 46a1.9 1.9 0 0 1-1.4-.2 34.5 34.5 0 0 0 5.2 5.5" fill="none" stroke="#000" stroke-linecap="round" stroke-linejoin="round" stroke-width=".4"/>
  <circle cx="39" cy="68.3" r="23.8" fill="#fff" stroke="#000" stroke-linecap="round" stroke-linejoin="round" stroke-width=".42"/>
  <path d="M44.7 12.7a4.9 4.9 0 0 0-.7-1.6 4.7 4.7 0 0 0-2.1 1.3 5.7 5.7 0 0 0-2.3-1.5 6.9 6.9 0 0 0-1.8 1.8 5.9 5.9 0 0 0-2.7-1 7.1 7.1 0 0 0-1.2 2.2 5.8 5.8 0 0 0-2.8-.2 7 7 0 0 0-.6 2.5 5.5 5.5 0 0 0-2.4.7 8.1 8.1 0 0 1 5 2.5c.1-.2 10.9-2.4 11.3-2.3a8 8 0 0 1 2.1-5.1 6.2 6.2 0 0 0-1.8.7z" fill="#febf10" stroke="#000" stroke-linecap="round" stroke-linejoin="round" stroke-width=".4"/>
  <path d="M34.2 15.4a1.6 1.6 0 0 1-.2 2.3 1.6 1.6 0 0 1-2.1-.5c-.6-.8.1-2.3.1-2.3s1.6-.2 2.2.5zm3.5-1.1a1.6 1.6 0 0 1-.8 2.1 1.5 1.5 0 0 1-1.9-1.1c-.3-.8.7-2 .7-2s1.7.1 2 1zm3.7-.5a1.7 1.7 0 0 1-1.2 1.9 1.6 1.6 0 0 1-1.7-1.5c-.1-.9 1.2-1.8 1.2-1.8s1.6.5 1.7 1.4z" fill="#d09b07" stroke="#000" stroke-linecap="round" stroke-linejoin="round" stroke-width=".4"/>
  <path d="M43.9 14.5c-.2.9-.9 1.5-1.4 1.3s-.7-1.1-.4-2a2.2 2.2 0 0 1 1.4-1.2 2.5 2.5 0 0 1 .4 1.9z" fill="#d09b07" stroke="#000" stroke-linecap="round" stroke-linejoin="round" stroke-width=".38"/>
  <ellipse cx="36.6" cy="15.5" rx=".7" ry=".8" transform="rotate(-18.8 36.5 15.66)" fill="#325723" stroke="#000" stroke-linecap="round" stroke-linejoin="round" stroke-width=".4"/>
  <ellipse cx="33.5" cy="17" rx=".7" ry=".8" transform="rotate(-31.5 33.4 17.02)" fill="#325723" stroke="#000" stroke-linecap="round" stroke-linejoin="round" stroke-width=".4"/>
  <ellipse cx="40" cy="14.8" rx=".7" ry=".8" transform="rotate(-5 39.53 14.35)" fill="#325723" stroke="#000" stroke-linecap="round" stroke-linejoin="round" stroke-width=".4"/>
  <ellipse cx="42.9" cy="14.9" rx=".8" ry=".5" transform="rotate(-77 42.85 14.9)" fill="#325723" stroke="#000" stroke-linecap="round" stroke-linejoin="round" stroke-width=".36"/>
  <path d="M33.2 20.4L32.1 19c.3-.2 5.8-4.2 12.4-3.4l-.2 1.8c-5.9-.7-11 3-11.1 3z" fill="#d09b07" stroke="#000" stroke-linecap="round" stroke-linejoin="round" stroke-width=".4"/>
  <path d="M31.9 19.1h-.3a.5.5 0 0 1 .1-.6 19.8 19.8 0 0 1 13-3.5c.2 0 .3.2.3.5s-.2.3-.4.3a17.9 17.9 0 0 0-12.4 3.4zm1.2 1.8l-.3-.2a.3.3 0 0 1 .1-.5c.1-.1 4.1-3.3 11.5-3.2a.4.4 0 0 1 0 .8c-7.1-.1-11 3-11 3z" fill="#febf10" stroke="#000" stroke-linecap="round" stroke-linejoin="round" stroke-width=".4"/>
  <circle cx="27.7" cy="16.8" r=".8" fill="#febf10" stroke="#000" stroke-linecap="round" stroke-linejoin="round" stroke-width=".4"/>
  <circle cx="30.7" cy="13" r=".8" fill="#febf10" stroke="#000" stroke-linecap="round" stroke-linejoin="round" stroke-width=".4"/>
  <circle cx="34.9" cy="10.9" r=".8" fill="#febf10" stroke="#000" stroke-linecap="round" stroke-linejoin="round" stroke-width=".4"/>
  <circle cx="39.5" cy="10.1" r=".8" fill="#febf10" stroke="#000" stroke-linecap="round" stroke-linejoin="round" stroke-width=".4"/>
  <circle cx="44.2" cy="10.3" r=".8" fill="#febf10" stroke="#000" stroke-linecap="round" stroke-linejoin="round" stroke-width=".4"/>
  <path d="M21.9 125.3a1.2 1.2 0 0 1 .9.3h-.1c0 .1 0 .1-.1 0l-.7-.2a1 1 0 0 0-1 1 1.1 1.1 0 0 0 1 1h.7v-.4h.3v.8a.1.1 0 0 0-.1.1 1.7 1.7 0 0 1-.9.2 1.3 1.3 0 1 1 0-2.6zm1.6.1h.2v2.4h-.2zm2.1-.1a1.3 1.3 0 1 1-1.3 1.3 1.3 1.3 0 0 1 1.3-1.3zm0 2.3a1 1 0 0 0 0-2 1 1 0 1 0 0 2zm2.9-2.3a1.2 1.2 0 0 1 .9.3h-.1c0 .1 0 .1-.1 0l-.7-.2a1 1 0 0 0-1 1 1.1 1.1 0 0 0 1 1 1.2 1.2 0 0 0 .7-.2h.2c.1.1 0 .1 0 .1a1 1 0 0 1-.9.4 1.3 1.3 0 1 1 0-2.6zm1.1 2.5l1.1-2.5h.2l1.1 2.5a.1.1 0 0 1-.1.1h-.1a.1.1 0 0 1-.1-.1l-.3-.6h-1.2l-.3.6a.1.1 0 0 1-.1.1h-.1a.1.1 0 0 1-.1-.1zm1.7-.8a6.1 6.1 0 0 0-.5-1.2l-.5 1.2zm2.2-1.7a1.3 1.3 0 1 1 0 2.6 1.3 1.3 0 1 1 0-2.6zm0 2.3a1 1 0 0 0 0-2 1 1 0 1 0 0 2zm1.8-2.2c0-.1 0-.1.1-.1h.1l1.6 2v-1.9a.1.1 0 0 1 .1-.1h.2v2.4a.1.1 0 0 1-.1.1h-.1l-1.6-2.1v2h-.2a.1.1 0 0 1-.1-.1zm2.8 0a.1.1 0 0 1 .1-.1h.2v2.2h1a.1.1 0 0 1 .1.1h-1.3a.1.1 0 0 1-.1-.1zm1.8 0h.2v2.4h-.2zm1 0h.1l1.7 2v-1.9h.2v2.4h-.1l-1.7-2.1v2h-.2zm2.8 0h1.4a.1.1 0 0 1 .1.1h-1.3v1.8h1.2c.1 0 .1 0 .1.1a.1.1 0 0 1-.1.1h-1.4zm4-.1a1.4 1.4 0 0 1 .9.3h-.1c0 .1-.1.1-.1 0l-.7-.2a.9.9 0 0 0-1 1 1 1 0 0 0 1 1l.7-.2a.1.1 0 0 1 .1-.1h.1a1.2 1.2 0 0 1-.9.4 1.3 1.3 0 0 1 0-2.6zm1.1 2.5l1.1-2.5h.1l1.1 2.5h-.2l-.3-.6h-1.3l-.2.6a.1.1 0 0 0-.1.1h-.2zm1.7-.8a6.1 6.1 0 0 1-.5-1.2h-.1l-.5 1.2zm1-1.6a.1.1 0 0 1 .1-.1h.9a.8.8 0 0 1 .8.8.8.8 0 0 1-.5.7l.5 1a.1.1 0 0 1-.1.1H53l-.5-.9h-.7v.9a.1.1 0 0 1-.1.1h-.1a.1.1 0 0 1-.1-.1zm1 1.2a.5.5 0 0 0 0-1h-.7v1zm1.4-1.2a.1.1 0 0 1 .1-.1h.8a1.3 1.3 0 0 1 0 2.6H54a.1.1 0 0 1-.1-.1zm.8 2.2a1 1 0 1 0 0-2h-.5v2zm1.7-.1h.1s.1-.1.1 0a1 1 0 0 0 .6.3.5.5 0 0 0 .5-.4c0-.3-.2-.4-.6-.6s-.7-.3-.7-.8.2-.6.8-.6a.9.9 0 0 1 .6.2s.1 0 0 .1h-.1l-.5-.2a.5.5 0 0 0-.5.4c0 .3.2.4.5.5s.8.4.8.8a.8.8 0 0 1-.8.7c-.4 0-.7-.3-.8-.3z" stroke="#000" stroke-miterlimit="10" stroke-width=".1"/>
  <circle cx="39" cy="68.3" r="19.8" fill="none" stroke="#000" stroke-linecap="round" stroke-linejoin="round" stroke-width=".4"/>
  <circle cx="39" cy="68.3" r="18.3"/>
  <circle cx="39" cy="68.3" r="14.2" fill="none" stroke="#ed1e79" stroke-linecap="round" stroke-linejoin="round" stroke-width=".4"/>
  <path d="M38.2 52.7a15.7 15.7 0 1 0 16.4 14.9 15.6 15.6 0 0 0-16.4-14.9zM39.6 81a12.7 12.7 0 1 1-1.2-25.3 12.6 12.6 0 0 1 13.3 12A12.8 12.8 0 0 1 39.6 81z" fill="#febf10"/>
  <circle cx="39" cy="68.3" r="8.5" fill="red"/>
  <path d="M46.5 64.5a11.8 11.8 0 0 1 .4 2 9.5 9.5 0 0 1-8.9 9.8l-2.4-.2a9.9 9.9 0 0 0 3.8.7 8.4 8.4 0 0 0 8-8.9 6.7 6.7 0 0 0-.9-3.4z" fill="#980805"/>
  <circle cx="39" cy="54.2" r="1.4" fill="#febf10" stroke="#000" stroke-linecap="round" stroke-linejoin="round" stroke-width=".4"/>
  <circle cx="39" cy="54.2" r=".2"/>
  <circle cx="42" cy="54.5" r="1.4" fill="#febf10" stroke="#000" stroke-linecap="round" stroke-linejoin="round" stroke-width=".4"/>
  <circle cx="42" cy="54.5" r=".2"/>
  <circle cx="44.8" cy="55.4" r="1.4" fill="#febf10" stroke="#000" stroke-linecap="round" stroke-linejoin="round" stroke-width=".4"/>
  <circle cx="44.8" cy="55.4" r=".2"/>
  <circle cx="47.4" cy="56.9" r="1.4" fill="#febf10" stroke="#000" stroke-linecap="round" stroke-linejoin="round" stroke-width=".4"/>
  <circle cx="47.4" cy="56.9" r=".2"/>
  <circle cx="49.6" cy="58.9" r="1.4" fill="#febf10" stroke="#000" stroke-linecap="round" stroke-linejoin="round" stroke-width=".4"/>
  <circle cx="49.6" cy="58.9" r=".2"/>
  <circle cx="51.3" cy="61.3" r="1.4" fill="#febf10" stroke="#000" stroke-linecap="round" stroke-linejoin="round" stroke-width=".4"/>
  <circle cx="51.3" cy="61.3" r=".2"/>
  <circle cx="39" cy="82.5" r="1.4" fill="#febf10" stroke="#000" stroke-linecap="round" stroke-linejoin="round" stroke-width=".4"/>
  <circle cx="39" cy="82.5" r=".2"/>
  <circle cx="42" cy="82.2" r="1.4" fill="#febf10" stroke="#000" stroke-linecap="round" stroke-linejoin="round" stroke-width=".4"/>
  <circle cx="42" cy="82.2" r=".2"/>
  <circle cx="44.8" cy="81.3" r="1.4" fill="#febf10" stroke="#000" stroke-linecap="round" stroke-linejoin="round" stroke-width=".4"/>
  <circle cx="44.8" cy="81.3" r=".2"/>
  <circle cx="47.3" cy="79.8" r="1.4" fill="#febf10" stroke="#000" stroke-linecap="round" stroke-linejoin="round" stroke-width=".4"/>
  <circle cx="47.3" cy="79.8" r=".2"/>
  <circle cx="49.5" cy="77.8" r="1.4" fill="#febf10" stroke="#000" stroke-linecap="round" stroke-linejoin="round" stroke-width=".4"/>
  <circle cx="49.5" cy="77.8" r=".2"/>
  <circle cx="51.2" cy="75.5" r="1.4" fill="#febf10" stroke="#000" stroke-linecap="round" stroke-linejoin="round" stroke-width=".4"/>
  <circle cx="51.2" cy="75.5" r=".2"/>
  <circle cx="52.5" cy="64" r="1.4" fill="#febf10" stroke="#000" stroke-linecap="round" stroke-linejoin="round" stroke-width=".4"/>
  <circle cx="52.5" cy="64" r=".2"/>
  <circle cx="53.1" cy="66.9" r="1.4" fill="#febf10" stroke="#000" stroke-linecap="round" stroke-linejoin="round" stroke-width=".4"/>
  <circle cx="53.1" cy="66.9" r=".2"/>
  <circle cx="53.1" cy="69.9" r="1.4" fill="#febf10" stroke="#000" stroke-linecap="round" stroke-linejoin="round" stroke-width=".4"/>
  <circle cx="53.1" cy="69.9" r=".2"/>
  <circle cx="52.4" cy="72.8" r="1.4" fill="#febf10" stroke="#000" stroke-linecap="round" stroke-linejoin="round" stroke-width=".4"/>
  <circle cx="52.4" cy="72.8" r=".2"/>
  <circle cx="36.1" cy="82.2" r="1.4" fill="#febf10" stroke="#000" stroke-linecap="round" stroke-linejoin="round" stroke-width=".4"/>
  <circle cx="36.1" cy="82.2" r=".2"/>
  <circle cx="33.2" cy="81.3" r="1.4" fill="#febf10" stroke="#000" stroke-linecap="round" stroke-linejoin="round" stroke-width=".4"/>
  <circle cx="33.2" cy="81.3" r=".2"/>
  <circle cx="30.7" cy="79.8" r="1.4" fill="#febf10" stroke="#000" stroke-linecap="round" stroke-linejoin="round" stroke-width=".4"/>
  <circle cx="30.7" cy="79.8" r=".2"/>
  <circle cx="28.5" cy="77.8" r="1.4" fill="#febf10" stroke="#000" stroke-linecap="round" stroke-linejoin="round" stroke-width=".4"/>
  <circle cx="28.4" cy="77.8" r=".2"/>
  <circle cx="26.8" cy="75.4" r="1.4" fill="#febf10" stroke="#000" stroke-linecap="round" stroke-linejoin="round" stroke-width=".4"/>
  <circle cx="26.8" cy="75.4" r=".2"/>
  <circle cx="36.1" cy="54.5" r="1.4" fill="#febf10" stroke="#000" stroke-linecap="round" stroke-linejoin="round" stroke-width=".4"/>
  <circle cx="36.1" cy="54.5" r=".2"/>
  <circle cx="33.3" cy="55.4" r="1.4" fill="#febf10" stroke="#000" stroke-linecap="round" stroke-linejoin="round" stroke-width=".4"/>
  <circle cx="33.3" cy="55.4" r=".2"/>
  <circle cx="30.7" cy="56.9" r="1.4" fill="#febf10" stroke="#000" stroke-linecap="round" stroke-linejoin="round" stroke-width=".4"/>
  <circle cx="30.7" cy="56.9" r=".2"/>
  <circle cx="28.5" cy="58.9" r="1.4" fill="#febf10" stroke="#000" stroke-linecap="round" stroke-linejoin="round" stroke-width=".4"/>
  <circle cx="28.5" cy="58.9" r=".2"/>
  <circle cx="26.8" cy="61.2" r="1.4" fill="#febf10" stroke="#000" stroke-linecap="round" stroke-linejoin="round" stroke-width=".4"/>
  <circle cx="26.8" cy="61.2" r=".2"/>
  <circle cx="25.5" cy="72.7" r="1.4" fill="#febf10" stroke="#000" stroke-linecap="round" stroke-linejoin="round" stroke-width=".4"/>
  <circle cx="25.5" cy="72.7" r=".2"/>
  <circle cx="24.9" cy="69.7" r="1.4" fill="#febf10" stroke="#000" stroke-linecap="round" stroke-linejoin="round" stroke-width=".4"/>
  <circle cx="24.9" cy="69.7" r=".2"/>
  <circle cx="24.9" cy="66.8" r="1.4" fill="#febf10" stroke="#000" stroke-linecap="round" stroke-linejoin="round" stroke-width=".4"/>
  <circle cx="24.9" cy="66.8" r=".2"/>
  <circle cx="25.5" cy="63.9" r="1.4" fill="#febf10" stroke="#000" stroke-linecap="round" stroke-linejoin="round" stroke-width=".4"/>
  <circle cx="25.6" cy="63.9" r=".2"/>
  <circle cx="39" cy="51.3" r=".3" fill="#febf10"/>
  <circle cx="42.6" cy="51.7" r=".3" fill="#febf10"/>
  <circle cx="46" cy="52.8" r=".3" fill="#febf10"/>
  <circle cx="49.1" cy="54.6" r=".3" fill="#febf10"/>
  <circle cx="51.7" cy="57" r=".3" fill="#febf10"/>
  <circle cx="53.7" cy="59.9" r=".3" fill="#febf10"/>
  <circle cx="39" cy="85.4" r=".3" fill="#febf10"/>
  <circle cx="42.6" cy="85" r=".3" fill="#febf10"/>
  <circle cx="45.9" cy="83.9" r=".3" fill="#febf10"/>
  <circle cx="49" cy="82.1" r=".3" fill="#febf10"/>
  <circle cx="51.6" cy="79.7" r=".3" fill="#febf10"/>
  <circle cx="53.7" cy="76.9" r=".3" fill="#febf10"/>
  <circle cx="55.2" cy="63.1" r=".3" fill="#febf10"/>
  <circle cx="55.9" cy="66.6" r=".3" fill="#febf10"/>
  <circle cx="56" cy="70.2" r=".3" fill="#febf10"/>
  <circle cx="55.1" cy="73.7" r=".3" fill="#febf10"/>
  <circle cx="35.5" cy="85" r=".3" fill="#febf10"/>
  <circle cx="32.1" cy="83.9" r=".3" fill="#febf10"/>
  <circle cx="29" cy="82.1" r=".3" fill="#febf10"/>
  <circle cx="26.3" cy="79.7" r=".3" fill="#febf10"/>
  <circle cx="24.3" cy="76.8" r=".3" fill="#febf10"/>
  <circle cx="35.5" cy="51.7" r=".3" fill="#febf10"/>
  <circle cx="32.1" cy="52.8" r=".3" fill="#febf10"/>
  <circle cx="29.1" cy="54.6" r=".3" fill="#febf10"/>
  <circle cx="26.4" cy="57" r=".3" fill="#febf10"/>
  <circle cx="24.3" cy="59.8" r=".3" fill="#febf10"/>
  <circle cx="22.8" cy="73.6" r=".3" fill="#febf10"/>
  <circle cx="22.1" cy="70" r=".3" fill="#febf10"/>
  <circle cx="22.1" cy="66.5" r=".3" fill="#febf10"/>
  <circle cx="22.9" cy="63" r=".3" fill="#febf10"/>
  <circle cx="39.1" cy="57.7" r="1.4" fill="#febf10" stroke="#000" stroke-linecap="round" stroke-linejoin="round" stroke-width=".4"/>
  <circle cx="39.1" cy="57.7" r=".4" fill="#fff" stroke="#000" stroke-linecap="round" stroke-linejoin="round" stroke-width=".4"/>
  <circle cx="49.4" cy="68.4" r="1.4" fill="#febf10" stroke="#000" stroke-linecap="round" stroke-linejoin="round" stroke-width=".4"/>
  <circle cx="49.4" cy="68.4" r=".4" fill="#fff" stroke="#000" stroke-linecap="round" stroke-linejoin="round" stroke-width=".4"/>
  <circle cx="28.3" cy="68.3" r="1.4" fill="#febf10" stroke="#000" stroke-linecap="round" stroke-linejoin="round" stroke-width=".4"/>
  <circle cx="28.3" cy="68.3" r=".4" fill="#fff" stroke="#000" stroke-linecap="round" stroke-linejoin="round" stroke-width=".4"/>
  <circle cx="39" cy="78.9" r="1.4" fill="#febf10" stroke="#000" stroke-linecap="round" stroke-linejoin="round" stroke-width=".4"/>
  <circle cx="39" cy="78.9" r=".4" fill="#fff" stroke="#000" stroke-linecap="round" stroke-linejoin="round" stroke-width=".4"/>
  <circle cx="46.5" cy="60.9" r="1.4" fill="#febf10" stroke="#000" stroke-linecap="round" stroke-linejoin="round" stroke-width=".4"/>
  <circle cx="46.5" cy="60.9" r=".4" fill="#fff" stroke="#000" stroke-linecap="round" stroke-linejoin="round" stroke-width=".4"/>
  <circle cx="46.3" cy="75.8" r="1.4" fill="#febf10" stroke="#000" stroke-linecap="round" stroke-linejoin="round" stroke-width=".4"/>
  <circle cx="46.3" cy="75.8" r=".4" fill="#fff" stroke="#000" stroke-linecap="round" stroke-linejoin="round" stroke-width=".4"/>
  <circle cx="31.4" cy="60.9" r="1.4" fill="#febf10" stroke="#000" stroke-linecap="round" stroke-linejoin="round" stroke-width=".4"/>
  <circle cx="31.4" cy="60.9" r=".4" fill="#fff" stroke="#000" stroke-linecap="round" stroke-linejoin="round" stroke-width=".4"/>
  <circle cx="31.5" cy="75.9" r="1.4" fill="#febf10" stroke="#000" stroke-linecap="round" stroke-linejoin="round" stroke-width=".4"/>
  <circle cx="31.5" cy="75.9" r=".4" fill="#fff" stroke="#000" stroke-linecap="round" stroke-linejoin="round" stroke-width=".4"/>
  <circle cx="43.2" cy="58.6" r="1.4" fill="#febf10" stroke="#000" stroke-linecap="round" stroke-linejoin="round" stroke-width=".4"/>
  <circle cx="43.2" cy="58.6" r=".4" fill="#fff" stroke="#000" stroke-linecap="round" stroke-linejoin="round" stroke-width=".4"/>
  <circle cx="48.6" cy="72.4" r="1.4" fill="#febf10" stroke="#000" stroke-linecap="round" stroke-linejoin="round" stroke-width=".4"/>
  <circle cx="48.6" cy="72.4" r=".4" fill="#fff" stroke="#000" stroke-linecap="round" stroke-linejoin="round" stroke-width=".4"/>
  <circle cx="29.2" cy="64.3" r="1.4" fill="#febf10" stroke="#000" stroke-linecap="round" stroke-linejoin="round" stroke-width=".4"/>
  <circle cx="29.2" cy="64.3" r=".4" fill="#fff" stroke="#000" stroke-linecap="round" stroke-linejoin="round" stroke-width=".4"/>
  <circle cx="34.9" cy="78.1" r="1.4" fill="#febf10" stroke="#000" stroke-linecap="round" stroke-linejoin="round" stroke-width=".4"/>
  <circle cx="34.9" cy="78.1" r=".4" fill="#fff" stroke="#000" stroke-linecap="round" stroke-linejoin="round" stroke-width=".4"/>
  <circle cx="48.7" cy="64.3" r="1.4" fill="#febf10" stroke="#000" stroke-linecap="round" stroke-linejoin="round" stroke-width=".4"/>
  <circle cx="48.7" cy="64.3" r=".4" fill="#fff" stroke="#000" stroke-linecap="round" stroke-linejoin="round" stroke-width=".4"/>
  <circle cx="42.8" cy="78.1" r="1.4" fill="#febf10" stroke="#000" stroke-linecap="round" stroke-linejoin="round" stroke-width=".4"/>
  <circle cx="42.8" cy="78.1" r=".4" fill="#fff" stroke="#000" stroke-linecap="round" stroke-linejoin="round" stroke-width=".4"/>
  <circle cx="34.9" cy="58.6" r="1.4" fill="#febf10" stroke="#000" stroke-linecap="round" stroke-linejoin="round" stroke-width=".4"/>
  <circle cx="34.9" cy="58.6" r=".4" fill="#fff" stroke="#000" stroke-linecap="round" stroke-linejoin="round" stroke-width=".4"/>
  <circle cx="29.1" cy="72.4" r="1.4" fill="#febf10" stroke="#000" stroke-linecap="round" stroke-linejoin="round" stroke-width=".4"/>
  <circle cx="29.1" cy="72.4" r=".4" fill="#fff" stroke="#000" stroke-linecap="round" stroke-linejoin="round" stroke-width=".4"/>
  <path d="M42.7 64.3c1.4-.2 1.2.3 2.8.7s-1.1-1.9-2.8-1.9a3.1 3.1 0 0 0-3.1 3.1c0 .4-.2.7-.1 1a4.3 4.3 0 0 1 3.2-2.9zm-7.6 0c-1.4.1-1.2.3-2.7.7a2.9 2.9 0 0 1 2.7-1.9 2.7 2.7 0 0 1 3 2.6c0 .4-1.1-1.5-3-1.4zm1.3 7.1a6.1 6.1 0 0 1 1.9-.6c.5.2.6.4.6.4a.8.8 0 0 1 .7-.3l2.4.8s-2.8-.4-3.1.1a2.9 2.9 0 0 0-2.4-.2c-1.6.4-.1-.2-.1-.2zm-.3.7a19 19 0 0 0 2.7.5 15.7 15.7 0 0 0 3-.6c.2-.1-.4.7-1.5 1a4.1 4.1 0 0 1-2.9-.1z" fill="#980805"/>
  <path d="M36.9 66.2s-1.2-2-3.7-.6m3.5.9a3 3 0 0 1-2.9.2m7.3-.5s1.2-2 3.7-.6m-3.5.9a3 3 0 0 0 2.9.2m-11.8-1.8a2.9 2.9 0 0 1 2.7-1.9 3 3 0 0 1 2.8 1.9" fill="none" stroke="#000" stroke-linecap="round" stroke-linejoin="round" stroke-width=".3"/>
  <path d="M45.4 64.9a2.9 2.9 0 0 0-2.7-1.9c-2.8 0-3.4 3.2-3 4.9s.8.5.7 1-.6.4-.6.3-1.6.1-1.6.1m-.7-1s-.6 1 .6 1.1m4.5 2.2a6.9 6.9 0 0 1-3.7 1.7 6.4 6.4 0 0 1-3.5-1.7c1 .3 2.9-1.4 3.5-.4.7-1 2 .5 3.7.4z" fill="none" stroke="#000" stroke-linecap="round" stroke-linejoin="round" stroke-width=".3"/>
  <path d="M42.3 71.7a6.8 6.8 0 0 1-3.3.8c-1.8 0-3.6-.7-3.4-.8s3-.5 3.3.1 3.2-.1 3.4-.1zM36.4 70a8.4 8.4 0 0 0-1.8 2.9m6.9-2.9a8.4 8.4 0 0 1 1.8 2.9" fill="none" stroke="#000" stroke-linecap="round" stroke-linejoin="round" stroke-width=".3"/>
  <path d="M41.1 66.2h3.4a2.1 2.1 0 0 0-2.3-.1z" stroke="#000" stroke-linecap="round" stroke-linejoin="round" stroke-width=".3"/>
  <path fill="#0065b7" stroke="#000" stroke-linecap="round" stroke-linejoin="round" stroke-width=".3" d="M45.1 66.2h-.6"/>
  <path d="M36.9 66.2h-3.4a2.3 2.3 0 0 1 2.4-.1z" stroke="#000" stroke-linecap="round" stroke-linejoin="round" stroke-width=".3"/>
  <path fill="#0065b7" stroke="#000" stroke-linecap="round" stroke-linejoin="round" stroke-width=".3" d="M33 66.2h.5"/>
  <path d="M37.5 74.5a1.9 1.9 0 0 1 2.8 0m.8-12.3a3.7 3.7 0 0 1-2 .4 3.4 3.4 0 0 1-1.9-.4" fill="none" stroke="#000" stroke-linecap="round" stroke-linejoin="round" stroke-width=".3"/>
  <path fill="none" stroke="#000" stroke-linecap="round" stroke-linejoin="round" stroke-width=".4" d="M8 7.9h62v124.31H8z"/>
</svg>
