<svg xmlns="http://www.w3.org/2000/svg" viewBox="0 0 78 140">
  <rect width="78" height="140" rx="6" ry="6" fill="#fff"/>
  <circle cx="39" cy="40.4" r="26.4" fill="none" stroke="#000" stroke-linecap="round" stroke-linejoin="round" stroke-width=".4"/>
  <circle cx="39" cy="40.4" r="24.4"/>
  <circle cx="39" cy="40.4" r="18.9" fill="none" stroke="#ed1e79" stroke-linecap="round" stroke-linejoin="round" stroke-width=".4"/>
  <path d="M38 19.5a20.9 20.9 0 1 0 21.9 19.9A20.8 20.8 0 0 0 38 19.5zm1.8 37.8a16.9 16.9 0 1 1 16.1-17.7 16.9 16.9 0 0 1-16.1 17.7z" fill="#febf10"/>
  <circle cx="39" cy="40.4" r="11.3" fill="red"/>
  <path d="M49.1 35.2A12.6 12.6 0 0 1 37.7 51a16.6 16.6 0 0 1-3.2-.3 10.6 10.6 0 0 0 5.1 1 11.3 11.3 0 0 0 10.7-11.9 12.1 12.1 0 0 0-1.2-4.6z" fill="#980805"/>
  <circle cx="39" cy="21.4" r="1.8" fill="#febf10" stroke="#000" stroke-linecap="round" stroke-linejoin="round" stroke-width=".4"/>
  <circle cx="39" cy="21.4" r=".3"/>
  <circle cx="43" cy="21.8" r="1.8" fill="#febf10" stroke="#000" stroke-linecap="round" stroke-linejoin="round" stroke-width=".4"/>
  <circle cx="43" cy="21.8" r=".3"/>
  <circle cx="46.8" cy="23.1" r="1.8" fill="#febf10" stroke="#000" stroke-linecap="round" stroke-linejoin="round" stroke-width=".4"/>
  <circle cx="46.8" cy="23.1" r=".3"/>
  <circle cx="50.2" cy="25.1" r="1.8" fill="#febf10" stroke="#000" stroke-linecap="round" stroke-linejoin="round" stroke-width=".4"/>
  <circle cx="50.2" cy="25.1" r=".3"/>
  <circle cx="53.2" cy="27.8" r="1.8" fill="#febf10" stroke="#000" stroke-linecap="round" stroke-linejoin="round" stroke-width=".4"/>
  <circle cx="53.2" cy="27.8" r=".3"/>
  <circle cx="55.4" cy="31" r="1.8" fill="#febf10" stroke="#000" stroke-linecap="round" stroke-linejoin="round" stroke-width=".4"/>
  <circle cx="55.4" cy="31" r=".3"/>
  <circle cx="39" cy="59.4" r="1.8" fill="#febf10" stroke="#000" stroke-linecap="round" stroke-linejoin="round" stroke-width=".4"/>
  <circle cx="39" cy="59.4" r=".3"/>
  <circle cx="43" cy="58.9" r="1.8" fill="#febf10" stroke="#000" stroke-linecap="round" stroke-linejoin="round" stroke-width=".4"/>
  <circle cx="43" cy="58.9" r=".3"/>
  <circle cx="46.7" cy="57.7" r="1.8" fill="#febf10" stroke="#000" stroke-linecap="round" stroke-linejoin="round" stroke-width=".4"/>
  <circle cx="46.7" cy="57.7" r=".3"/>
  <circle cx="50.1" cy="55.7" r="1.8" fill="#febf10" stroke="#000" stroke-linecap="round" stroke-linejoin="round" stroke-width=".4"/>
  <circle cx="50.1" cy="55.7" r=".3"/>
  <circle cx="53.1" cy="53.1" r="1.8" fill="#febf10" stroke="#000" stroke-linecap="round" stroke-linejoin="round" stroke-width=".4"/>
  <circle cx="53.1" cy="53" r=".3"/>
  <circle cx="55.3" cy="49.9" r="1.8" fill="#febf10" stroke="#000" stroke-linecap="round" stroke-linejoin="round" stroke-width=".4"/>
  <circle cx="55.3" cy="49.9" r=".3"/>
  <circle cx="57" cy="34.6" r="1.8" fill="#febf10" stroke="#000" stroke-linecap="round" stroke-linejoin="round" stroke-width=".4"/>
  <circle cx="57" cy="34.6" r=".3"/>
  <circle cx="57.9" cy="38.5" r="1.8" fill="#febf10" stroke="#000" stroke-linecap="round" stroke-linejoin="round" stroke-width=".4"/>
  <circle cx="57.9" cy="38.5" r=".3"/>
  <circle cx="57.9" cy="42.5" r="1.8" fill="#febf10" stroke="#000" stroke-linecap="round" stroke-linejoin="round" stroke-width=".4"/>
  <circle cx="57.9" cy="42.5" r=".3"/>
  <circle cx="57" cy="46.3" r="1.8" fill="#febf10" stroke="#000" stroke-linecap="round" stroke-linejoin="round" stroke-width=".4"/>
  <circle cx="57" cy="46.4" r=".3"/>
  <circle cx="35.1" cy="58.9" r="1.8" fill="#febf10" stroke="#000" stroke-linecap="round" stroke-linejoin="round" stroke-width=".4"/>
  <circle cx="35.1" cy="58.9" r=".3"/>
  <circle cx="31.3" cy="57.7" r="1.8" fill="#febf10" stroke="#000" stroke-linecap="round" stroke-linejoin="round" stroke-width=".4"/>
  <circle cx="31.3" cy="57.7" r=".3"/>
  <circle cx="27.9" cy="55.7" r="1.8" fill="#febf10" stroke="#000" stroke-linecap="round" stroke-linejoin="round" stroke-width=".4"/>
  <circle cx="27.9" cy="55.7" r=".3"/>
  <circle cx="24.9" cy="53.1" r="1.8" fill="#febf10" stroke="#000" stroke-linecap="round" stroke-linejoin="round" stroke-width=".4"/>
  <circle cx="24.9" cy="53" r=".3"/>
  <circle cx="22.6" cy="49.8" r="1.8" fill="#febf10" stroke="#000" stroke-linecap="round" stroke-linejoin="round" stroke-width=".4"/>
  <circle cx="22.6" cy="49.8" r=".3"/>
  <circle cx="35.1" cy="21.9" r="1.8" fill="#febf10" stroke="#000" stroke-linecap="round" stroke-linejoin="round" stroke-width=".4"/>
  <circle cx="35.1" cy="21.9" r=".3"/>
  <circle cx="31.4" cy="23.1" r="1.8" fill="#febf10" stroke="#000" stroke-linecap="round" stroke-linejoin="round" stroke-width=".4"/>
  <circle cx="31.4" cy="23.1" r=".3"/>
  <circle cx="28" cy="25.1" r="1.8" fill="#febf10" stroke="#000" stroke-linecap="round" stroke-linejoin="round" stroke-width=".4"/>
  <circle cx="28" cy="25.1" r=".3"/>
  <circle cx="25" cy="27.7" r="1.8" fill="#febf10" stroke="#000" stroke-linecap="round" stroke-linejoin="round" stroke-width=".4"/>
  <circle cx="25" cy="27.7" r=".3"/>
  <circle cx="22.7" cy="30.8" r="1.8" fill="#febf10" stroke="#000" stroke-linecap="round" stroke-linejoin="round" stroke-width=".4"/>
  <circle cx="22.7" cy="30.8" r=".3"/>
  <circle cx="21" cy="46.2" r="1.8" fill="#febf10" stroke="#000" stroke-linecap="round" stroke-linejoin="round" stroke-width=".4"/>
  <circle cx="21" cy="46.2" r=".3"/>
  <circle cx="20.2" cy="42.3" r="1.8" fill="#febf10" stroke="#000" stroke-linecap="round" stroke-linejoin="round" stroke-width=".4"/>
  <circle cx="20.2" cy="42.3" r=".3"/>
  <circle cx="20.2" cy="38.3" r="1.8" fill="#febf10" stroke="#000" stroke-linecap="round" stroke-linejoin="round" stroke-width=".4"/>
  <circle cx="20.2" cy="38.3" r=".3"/>
  <circle cx="21" cy="34.5" r="1.8" fill="#febf10" stroke="#000" stroke-linecap="round" stroke-linejoin="round" stroke-width=".4"/>
  <circle cx="21" cy="34.4" r=".3"/>
  <circle cx="39.1" cy="17.6" r=".3" fill="#febf10"/>
  <circle cx="43.8" cy="18.1" r=".3" fill="#febf10"/>
  <circle cx="48.3" cy="19.7" r=".3" fill="#febf10"/>
  <circle cx="52.5" cy="22.1" r=".3" fill="#febf10"/>
  <circle cx="56" cy="25.3" r=".3" fill="#febf10"/>
  <circle cx="58.7" cy="29.1" r=".3" fill="#febf10"/>
  <circle cx="39" cy="63.2" r=".3" fill="#febf10"/>
  <circle cx="43.8" cy="62.6" r=".3" fill="#febf10"/>
  <circle cx="48.2" cy="61.2" r=".3" fill="#febf10"/>
  <circle cx="52.3" cy="58.8" r=".3" fill="#febf10"/>
  <circle cx="55.9" cy="55.5" r=".3" fill="#febf10"/>
  <circle cx="58.6" cy="51.8" r=".3" fill="#febf10"/>
  <circle cx="60.6" cy="33.4" r=".3" fill="#febf10"/>
  <circle cx="61.7" cy="38.1" r=".3" fill="#febf10"/>
  <circle cx="61.7" cy="42.9" r=".3" fill="#febf10"/>
  <circle cx="60.6" cy="47.6" r=".3" fill="#febf10"/>
  <circle cx="34.3" cy="62.6" r=".3" fill="#febf10"/>
  <circle cx="29.8" cy="61.2" r=".3" fill="#febf10"/>
  <circle cx="25.6" cy="58.8" r=".3" fill="#febf10"/>
  <circle cx="22.1" cy="55.6" r=".3" fill="#febf10"/>
  <circle cx="19.4" cy="51.7" r=".3" fill="#febf10"/>
  <circle cx="34.3" cy="18.2" r=".3" fill="#febf10"/>
  <circle cx="29.8" cy="19.6" r=".3" fill="#febf10"/>
  <circle cx="25.8" cy="22" r=".3" fill="#febf10"/>
  <circle cx="22.2" cy="25.2" r=".3" fill="#febf10"/>
  <circle cx="19.4" cy="28.9" r=".3" fill="#febf10"/>
  <circle cx="17.4" cy="47.4" r=".3" fill="#febf10"/>
  <circle cx="16.4" cy="42.7" r=".3" fill="#febf10"/>
  <circle cx="16.4" cy="37.9" r=".3" fill="#febf10"/>
  <circle cx="17.4" cy="33.2" r=".3" fill="#febf10"/>
  <circle cx="39.1" cy="26.2" r="1.8" fill="#febf10" stroke="#000" stroke-linecap="round" stroke-linejoin="round" stroke-width=".4"/>
  <circle cx="39.1" cy="26.2" r=".6" fill="#fff" stroke="#000" stroke-linecap="round" stroke-linejoin="round" stroke-width=".4"/>
  <circle cx="52.9" cy="40.4" r="1.8" fill="#febf10" stroke="#000" stroke-linecap="round" stroke-linejoin="round" stroke-width=".4"/>
  <circle cx="52.9" cy="40.4" r=".6" fill="#fff" stroke="#000" stroke-linecap="round" stroke-linejoin="round" stroke-width=".4"/>
  <circle cx="24.8" cy="40.4" r="1.8" fill="#febf10" stroke="#000" stroke-linecap="round" stroke-linejoin="round" stroke-width=".4"/>
  <circle cx="24.8" cy="40.4" r=".6" fill="#fff" stroke="#000" stroke-linecap="round" stroke-linejoin="round" stroke-width=".4"/>
  <circle cx="39" cy="54.5" r="1.8" fill="#febf10" stroke="#000" stroke-linecap="round" stroke-linejoin="round" stroke-width=".4"/>
  <circle cx="39" cy="54.5" r=".6" fill="#fff" stroke="#000" stroke-linecap="round" stroke-linejoin="round" stroke-width=".4"/>
  <circle cx="49" cy="30.5" r="1.8" fill="#febf10" stroke="#000" stroke-linecap="round" stroke-linejoin="round" stroke-width=".4"/>
  <circle cx="49" cy="30.5" r=".6" fill="#fff" stroke="#000" stroke-linecap="round" stroke-linejoin="round" stroke-width=".4"/>
  <circle cx="48.8" cy="50.4" r="1.8" fill="#febf10" stroke="#000" stroke-linecap="round" stroke-linejoin="round" stroke-width=".4"/>
  <circle cx="48.8" cy="50.4" r=".6" fill="#fff" stroke="#000" stroke-linecap="round" stroke-linejoin="round" stroke-width=".4"/>
  <circle cx="28.9" cy="30.4" r="1.8" fill="#febf10" stroke="#000" stroke-linecap="round" stroke-linejoin="round" stroke-width=".4"/>
  <circle cx="28.9" cy="30.4" r=".6" fill="#fff" stroke="#000" stroke-linecap="round" stroke-linejoin="round" stroke-width=".4"/>
  <circle cx="29" cy="50.4" r="1.8" fill="#febf10" stroke="#000" stroke-linecap="round" stroke-linejoin="round" stroke-width=".4"/>
  <circle cx="29" cy="50.4" r=".6" fill="#fff" stroke="#000" stroke-linecap="round" stroke-linejoin="round" stroke-width=".4"/>
  <circle cx="44.6" cy="27.3" r="1.8" fill="#febf10" stroke="#000" stroke-linecap="round" stroke-linejoin="round" stroke-width=".4"/>
  <circle cx="44.6" cy="27.3" r=".6" fill="#fff" stroke="#000" stroke-linecap="round" stroke-linejoin="round" stroke-width=".4"/>
  <circle cx="51.8" cy="45.9" r="1.8" fill="#febf10" stroke="#000" stroke-linecap="round" stroke-linejoin="round" stroke-width=".4"/>
  <circle cx="51.8" cy="45.9" r=".6" fill="#fff" stroke="#000" stroke-linecap="round" stroke-linejoin="round" stroke-width=".4"/>
  <circle cx="25.9" cy="35" r="1.8" fill="#febf10" stroke="#000" stroke-linecap="round" stroke-linejoin="round" stroke-width=".4"/>
  <circle cx="25.9" cy="35" r=".6" fill="#fff" stroke="#000" stroke-linecap="round" stroke-linejoin="round" stroke-width=".4"/>
  <circle cx="33.5" cy="53.4" r="1.8" fill="#febf10" stroke="#000" stroke-linecap="round" stroke-linejoin="round" stroke-width=".4"/>
  <circle cx="33.5" cy="53.4" r=".6" fill="#fff" stroke="#000" stroke-linecap="round" stroke-linejoin="round" stroke-width=".4"/>
  <circle cx="52" cy="35" r="1.8" fill="#febf10" stroke="#000" stroke-linecap="round" stroke-linejoin="round" stroke-width=".4"/>
  <circle cx="52" cy="35" r=".6" fill="#fff" stroke="#000" stroke-linecap="round" stroke-linejoin="round" stroke-width=".4"/>
  <circle cx="44.1" cy="53.4" r="1.8" fill="#febf10" stroke="#000" stroke-linecap="round" stroke-linejoin="round" stroke-width=".4"/>
  <circle cx="44.1" cy="53.4" r=".6" fill="#fff" stroke="#000" stroke-linecap="round" stroke-linejoin="round" stroke-width=".4"/>
  <circle cx="33.5" cy="27.3" r="1.8" fill="#febf10" stroke="#000" stroke-linecap="round" stroke-linejoin="round" stroke-width=".4"/>
  <circle cx="33.5" cy="27.3" r=".6" fill="#fff" stroke="#000" stroke-linecap="round" stroke-linejoin="round" stroke-width=".4"/>
  <circle cx="25.8" cy="45.9" r="1.8" fill="#febf10" stroke="#000" stroke-linecap="round" stroke-linejoin="round" stroke-width=".4"/>
  <circle cx="25.8" cy="45.9" r=".6" fill="#fff" stroke="#000" stroke-linecap="round" stroke-linejoin="round" stroke-width=".4"/>
  <path d="M43.9 35c1.9-.2 1.6.4 3.7.9.2-.4-1.4-2.6-3.7-2.6a4.2 4.2 0 0 0-4.1 4.3c0 .4-.3.8-.1 1.2a5.8 5.8 0 0 1 4.2-3.8zm-10.1 0c-1.9.1-1.6.4-3.7.9-.1-.4 1.4-2.6 3.7-2.6a3.7 3.7 0 0 1 4 3.6c0 .4-1.4-2.1-4-1.9zm1.7 9.5s2-1 2.6-.8a1.6 1.6 0 0 1 .8.5.8.8 0 0 1 .9-.4l3.2 1s-3.7-.4-4.1.2a4.7 4.7 0 0 0-3.3-.2c-2.1.5-.1-.3-.1-.3zm-.3.9a23.3 23.3 0 0 0 3.5.7 27.1 27.1 0 0 0 4.1-.8 2.8 2.8 0 0 1-2 1.3 5.5 5.5 0 0 1-4-.1 6.7 6.7 0 0 1-1.6-1.1z" fill="#980805"/>
  <path d="M36.2 37.5s-1.6-2.7-4.9-.8m4.6 1.2a3.9 3.9 0 0 1-3.9.3m9.8-.7s1.6-2.7 5-.8m-4.7 1.2s2.1 1.4 3.9.3" fill="none" stroke="#000" stroke-linecap="round" stroke-linejoin="round" stroke-width=".3"/>
  <path d="M30.1 35.9a4 4 0 0 1 3.7-2.6 3.8 3.8 0 0 1 3.7 2.5m10.1 0a3.9 3.9 0 0 0-3.7-2.5c-3.7 0-4.5 4.2-4 6.5.2.6 1.1.7.9 1.3s-.7.5-.8.5l-2 .1m-1.1-1.4a1 1 0 0 0 .9 1.5m6 3c.1 0-2.7 2.2-4.9 2.2s-4.8-2.2-4.7-2.2 3.8-1.9 4.7-.6c.9-1.3 2.7.7 4.9.6z" fill="none" stroke="#000" stroke-linecap="round" stroke-linejoin="round" stroke-width=".3"/>
  <path d="M43.4 44.9A8.2 8.2 0 0 1 39 46c-2.5 0-4.8-.9-4.5-1.1s4-.6 4.4.1 4.3-.1 4.5-.1zm-7.9-2.3a11.9 11.9 0 0 0-2.4 3.9m9.3-3.9a11.9 11.9 0 0 1 2.4 3.9" fill="none" stroke="#000" stroke-linecap="round" stroke-linejoin="round" stroke-width=".3"/>
  <path d="M41.8 37.5h4.6a3 3 0 0 0-3.2-.1z" stroke="#000" stroke-linecap="round" stroke-linejoin="round" stroke-width=".3"/>
  <path fill="#0065b7" stroke="#000" stroke-linecap="round" stroke-linejoin="round" stroke-width=".3" d="M47.1 37.5h-.7"/>
  <path d="M36.2 37.5h-4.5a2.8 2.8 0 0 1 3.1-.1z" stroke="#000" stroke-linecap="round" stroke-linejoin="round" stroke-width=".3"/>
  <path fill="#0065b7" stroke="#000" stroke-linecap="round" stroke-linejoin="round" stroke-width=".3" d="M31 37.5h.7"/>
  <path d="M37 48.7a2.1 2.1 0 0 1 1.9-.9 2.2 2.2 0 0 1 1.8.8m1.1-16.4a6.3 6.3 0 0 1-2.7.6 5.4 5.4 0 0 1-2.5-.6" fill="none" stroke="#000" stroke-linecap="round" stroke-linejoin="round" stroke-width=".3"/>
  <circle cx="39" cy="99.6" r="26.4" fill="none" stroke="#000" stroke-linecap="round" stroke-linejoin="round" stroke-width=".4"/>
  <circle cx="39" cy="99.6" r="24.4"/>
  <circle cx="39" cy="99.6" r="18.9" fill="none" stroke="#ed1e79" stroke-linecap="round" stroke-linejoin="round" stroke-width=".4"/>
  <path d="M38 78.7a20.9 20.9 0 1 0 21.9 19.9A20.9 20.9 0 0 0 38 78.7zm1.8 37.8a16.9 16.9 0 1 1 16.1-17.7 16.8 16.8 0 0 1-16.1 17.7z" fill="#febf10"/>
  <circle cx="39" cy="99.6" r="11.3" fill="red"/>
  <path d="M49.1 94.5a11 11 0 0 1 .4 2.7 12.4 12.4 0 0 1-11.8 13 11.3 11.3 0 0 1-3.2-.2 10.6 10.6 0 0 0 5.1.9 11.3 11.3 0 0 0 10.7-11.8 11.6 11.6 0 0 0-1.2-4.6z" fill="#980805"/>
  <circle cx="39" cy="80.7" r="1.8" fill="#febf10" stroke="#000" stroke-linecap="round" stroke-linejoin="round" stroke-width=".4"/>
  <circle cx="39" cy="80.7" r=".3"/>
  <circle cx="43" cy="81.1" r="1.8" fill="#febf10" stroke="#000" stroke-linecap="round" stroke-linejoin="round" stroke-width=".4"/>
  <circle cx="43" cy="81.1" r=".3"/>
  <circle cx="46.8" cy="82.4" r="1.8" fill="#febf10" stroke="#000" stroke-linecap="round" stroke-linejoin="round" stroke-width=".4"/>
  <circle cx="46.8" cy="82.4" r=".3"/>
  <circle cx="50.2" cy="84.4" r="1.8" fill="#febf10" stroke="#000" stroke-linecap="round" stroke-linejoin="round" stroke-width=".4"/>
  <circle cx="50.2" cy="84.4" r=".3"/>
  <circle cx="53.2" cy="87" r="1.8" fill="#febf10" stroke="#000" stroke-linecap="round" stroke-linejoin="round" stroke-width=".4"/>
  <circle cx="53.2" cy="87" r=".3"/>
  <circle cx="55.4" cy="90.2" r="1.8" fill="#febf10" stroke="#000" stroke-linecap="round" stroke-linejoin="round" stroke-width=".4"/>
  <circle cx="55.4" cy="90.2" r=".3"/>
  <circle cx="39" cy="118.6" r="1.8" fill="#febf10" stroke="#000" stroke-linecap="round" stroke-linejoin="round" stroke-width=".4"/>
  <circle cx="39" cy="118.6" r=".3"/>
  <circle cx="43" cy="118.2" r="1.8" fill="#febf10" stroke="#000" stroke-linecap="round" stroke-linejoin="round" stroke-width=".4"/>
  <circle cx="43" cy="118.2" r=".3"/>
  <circle cx="46.7" cy="117" r="1.8" fill="#febf10" stroke="#000" stroke-linecap="round" stroke-linejoin="round" stroke-width=".4"/>
  <circle cx="46.7" cy="117" r=".3"/>
  <circle cx="50.1" cy="115" r="1.8" fill="#febf10" stroke="#000" stroke-linecap="round" stroke-linejoin="round" stroke-width=".4"/>
  <circle cx="50.1" cy="115" r=".3"/>
  <circle cx="53.1" cy="112.3" r="1.8" fill="#febf10" stroke="#000" stroke-linecap="round" stroke-linejoin="round" stroke-width=".4"/>
  <circle cx="53.1" cy="112.3" r=".3"/>
  <circle cx="55.3" cy="109.1" r="1.8" fill="#febf10" stroke="#000" stroke-linecap="round" stroke-linejoin="round" stroke-width=".4"/>
  <circle cx="55.3" cy="109.1" r=".3"/>
  <circle cx="57" cy="93.8" r="1.8" fill="#febf10" stroke="#000" stroke-linecap="round" stroke-linejoin="round" stroke-width=".4"/>
  <circle cx="57" cy="93.8" r=".3"/>
  <circle cx="57.9" cy="97.7" r="1.8" fill="#febf10" stroke="#000" stroke-linecap="round" stroke-linejoin="round" stroke-width=".4"/>
  <circle cx="57.9" cy="97.7" r=".3"/>
  <circle cx="57.9" cy="101.7" r="1.8" fill="#febf10" stroke="#000" stroke-linecap="round" stroke-linejoin="round" stroke-width=".4"/>
  <circle cx="57.9" cy="101.7" r=".3"/>
  <circle cx="57" cy="105.6" r="1.8" fill="#febf10" stroke="#000" stroke-linecap="round" stroke-linejoin="round" stroke-width=".4"/>
  <circle cx="57" cy="105.6" r=".3"/>
  <circle cx="35.1" cy="118.1" r="1.8" fill="#febf10" stroke="#000" stroke-linecap="round" stroke-linejoin="round" stroke-width=".4"/>
  <circle cx="35.1" cy="118.1" r=".3"/>
  <circle cx="31.3" cy="116.9" r="1.8" fill="#febf10" stroke="#000" stroke-linecap="round" stroke-linejoin="round" stroke-width=".4"/>
  <circle cx="31.3" cy="116.9" r=".3"/>
  <circle cx="27.9" cy="114.9" r="1.8" fill="#febf10" stroke="#000" stroke-linecap="round" stroke-linejoin="round" stroke-width=".4"/>
  <circle cx="27.9" cy="114.9" r=".3"/>
  <circle cx="24.9" cy="112.3" r="1.8" fill="#febf10" stroke="#000" stroke-linecap="round" stroke-linejoin="round" stroke-width=".4"/>
  <circle cx="24.9" cy="112.3" r=".3"/>
  <circle cx="22.6" cy="109.1" r="1.8" fill="#febf10" stroke="#000" stroke-linecap="round" stroke-linejoin="round" stroke-width=".4"/>
  <circle cx="22.6" cy="109.1" r=".3"/>
  <circle cx="35.1" cy="81.1" r="1.8" fill="#febf10" stroke="#000" stroke-linecap="round" stroke-linejoin="round" stroke-width=".4"/>
  <circle cx="35.1" cy="81.1" r=".3"/>
  <circle cx="31.4" cy="82.3" r="1.8" fill="#febf10" stroke="#000" stroke-linecap="round" stroke-linejoin="round" stroke-width=".4"/>
  <circle cx="31.4" cy="82.3" r=".3"/>
  <circle cx="28" cy="84.3" r="1.8" fill="#febf10" stroke="#000" stroke-linecap="round" stroke-linejoin="round" stroke-width=".4"/>
  <circle cx="28" cy="84.3" r=".3"/>
  <circle cx="25" cy="87" r="1.8" fill="#febf10" stroke="#000" stroke-linecap="round" stroke-linejoin="round" stroke-width=".4"/>
  <circle cx="25" cy="87" r=".3"/>
  <circle cx="22.7" cy="90.1" r="1.8" fill="#febf10" stroke="#000" stroke-linecap="round" stroke-linejoin="round" stroke-width=".4"/>
  <circle cx="22.7" cy="90.1" r=".3"/>
  <circle cx="21" cy="105.4" r="1.8" fill="#febf10" stroke="#000" stroke-linecap="round" stroke-linejoin="round" stroke-width=".4"/>
  <circle cx="21" cy="105.4" r=".3"/>
  <circle cx="20.2" cy="101.5" r="1.8" fill="#febf10" stroke="#000" stroke-linecap="round" stroke-linejoin="round" stroke-width=".4"/>
  <circle cx="20.2" cy="101.5" r=".3"/>
  <circle cx="20.2" cy="97.6" r="1.8" fill="#febf10" stroke="#000" stroke-linecap="round" stroke-linejoin="round" stroke-width=".4"/>
  <circle cx="20.2" cy="97.6" r=".3"/>
  <circle cx="21" cy="93.7" r="1.8" fill="#febf10" stroke="#000" stroke-linecap="round" stroke-linejoin="round" stroke-width=".4"/>
  <circle cx="21" cy="93.7" r=".3"/>
  <circle cx="39.1" cy="76.9" r=".3" fill="#febf10"/>
  <circle cx="43.8" cy="77.4" r=".3" fill="#febf10"/>
  <circle cx="48.3" cy="78.9" r=".3" fill="#febf10"/>
  <circle cx="52.5" cy="81.3" r=".3" fill="#febf10"/>
  <circle cx="56" cy="84.5" r=".3" fill="#febf10"/>
  <circle cx="58.7" cy="88.3" r=".3" fill="#febf10"/>
  <circle cx="39" cy="122.4" r=".3" fill="#febf10"/>
  <circle cx="43.8" cy="121.9" r=".3" fill="#febf10"/>
  <circle cx="48.2" cy="120.5" r=".3" fill="#febf10"/>
  <circle cx="52.3" cy="118" r=".3" fill="#febf10"/>
  <circle cx="55.9" cy="114.8" r=".3" fill="#febf10"/>
  <circle cx="58.6" cy="111.1" r=".3" fill="#febf10"/>
  <circle cx="34.3" cy="121.8" r=".3" fill="#febf10"/>
  <circle cx="29.8" cy="120.4" r=".3" fill="#febf10"/>
  <circle cx="25.6" cy="118" r=".3" fill="#febf10"/>
  <circle cx="22.1" cy="114.8" r=".3" fill="#febf10"/>
  <circle cx="19.4" cy="111" r=".3" fill="#febf10"/>
  <circle cx="34.3" cy="77.4" r=".3" fill="#febf10"/>
  <circle cx="29.8" cy="78.9" r=".3" fill="#febf10"/>
  <circle cx="25.8" cy="81.3" r=".3" fill="#febf10"/>
  <circle cx="22.2" cy="84.5" r=".3" fill="#febf10"/>
  <circle cx="19.4" cy="88.2" r=".3" fill="#febf10"/>
  <circle cx="17.4" cy="106.6" r=".3" fill="#febf10"/>
  <circle cx="16.4" cy="101.9" r=".3" fill="#febf10"/>
  <circle cx="16.4" cy="97.1" r=".3" fill="#febf10"/>
  <circle cx="17.4" cy="92.5" r=".3" fill="#febf10"/>
  <circle cx="39.1" cy="85.4" r="1.8" fill="#febf10" stroke="#000" stroke-linecap="round" stroke-linejoin="round" stroke-width=".4"/>
  <circle cx="39.1" cy="85.4" r=".6" fill="#fff" stroke="#000" stroke-linecap="round" stroke-linejoin="round" stroke-width=".4"/>
  <circle cx="52.9" cy="99.7" r="1.8" fill="#febf10" stroke="#000" stroke-linecap="round" stroke-linejoin="round" stroke-width=".4"/>
  <circle cx="52.9" cy="99.7" r=".6" fill="#fff" stroke="#000" stroke-linecap="round" stroke-linejoin="round" stroke-width=".4"/>
  <circle cx="24.8" cy="99.6" r="1.8" fill="#febf10" stroke="#000" stroke-linecap="round" stroke-linejoin="round" stroke-width=".4"/>
  <circle cx="24.8" cy="99.6" r=".6" fill="#fff" stroke="#000" stroke-linecap="round" stroke-linejoin="round" stroke-width=".4"/>
  <circle cx="39" cy="113.7" r="1.8" fill="#febf10" stroke="#000" stroke-linecap="round" stroke-linejoin="round" stroke-width=".4"/>
  <circle cx="39" cy="113.7" r=".6" fill="#fff" stroke="#000" stroke-linecap="round" stroke-linejoin="round" stroke-width=".4"/>
  <circle cx="49" cy="89.7" r="1.8" fill="#febf10" stroke="#000" stroke-linecap="round" stroke-linejoin="round" stroke-width=".4"/>
  <circle cx="49" cy="89.7" r=".6" fill="#fff" stroke="#000" stroke-linecap="round" stroke-linejoin="round" stroke-width=".4"/>
  <circle cx="48.8" cy="109.6" r="1.8" fill="#febf10" stroke="#000" stroke-linecap="round" stroke-linejoin="round" stroke-width=".4"/>
  <circle cx="48.8" cy="109.6" r=".6" fill="#fff" stroke="#000" stroke-linecap="round" stroke-linejoin="round" stroke-width=".4"/>
  <circle cx="28.9" cy="89.6" r="1.8" fill="#febf10" stroke="#000" stroke-linecap="round" stroke-linejoin="round" stroke-width=".4"/>
  <circle cx="28.9" cy="89.6" r=".6" fill="#fff" stroke="#000" stroke-linecap="round" stroke-linejoin="round" stroke-width=".4"/>
  <circle cx="29" cy="109.7" r="1.8" fill="#febf10" stroke="#000" stroke-linecap="round" stroke-linejoin="round" stroke-width=".4"/>
  <circle cx="29" cy="109.7" r=".6" fill="#fff" stroke="#000" stroke-linecap="round" stroke-linejoin="round" stroke-width=".4"/>
  <circle cx="44.6" cy="86.6" r="1.8" fill="#febf10" stroke="#000" stroke-linecap="round" stroke-linejoin="round" stroke-width=".4"/>
  <circle cx="44.6" cy="86.6" r=".6" fill="#fff" stroke="#000" stroke-linecap="round" stroke-linejoin="round" stroke-width=".4"/>
  <circle cx="51.8" cy="105.1" r="1.8" fill="#febf10" stroke="#000" stroke-linecap="round" stroke-linejoin="round" stroke-width=".4"/>
  <circle cx="51.8" cy="105.1" r=".6" fill="#fff" stroke="#000" stroke-linecap="round" stroke-linejoin="round" stroke-width=".4"/>
  <circle cx="25.9" cy="94.3" r="1.8" fill="#febf10" stroke="#000" stroke-linecap="round" stroke-linejoin="round" stroke-width=".4"/>
  <circle cx="25.9" cy="94.3" r=".6" fill="#fff" stroke="#000" stroke-linecap="round" stroke-linejoin="round" stroke-width=".4"/>
  <circle cx="33.5" cy="112.7" r="1.8" fill="#febf10" stroke="#000" stroke-linecap="round" stroke-linejoin="round" stroke-width=".4"/>
  <circle cx="33.5" cy="112.7" r=".6" fill="#fff" stroke="#000" stroke-linecap="round" stroke-linejoin="round" stroke-width=".4"/>
  <circle cx="52" cy="94.3" r="1.8" fill="#febf10" stroke="#000" stroke-linecap="round" stroke-linejoin="round" stroke-width=".4"/>
  <circle cx="52" cy="94.3" r=".6" fill="#fff" stroke="#000" stroke-linecap="round" stroke-linejoin="round" stroke-width=".4"/>
  <circle cx="44.1" cy="112.7" r="1.8" fill="#febf10" stroke="#000" stroke-linecap="round" stroke-linejoin="round" stroke-width=".4"/>
  <circle cx="44.1" cy="112.7" r=".6" fill="#fff" stroke="#000" stroke-linecap="round" stroke-linejoin="round" stroke-width=".4"/>
  <circle cx="33.5" cy="86.6" r="1.8" fill="#febf10" stroke="#000" stroke-linecap="round" stroke-linejoin="round" stroke-width=".4"/>
  <circle cx="33.5" cy="86.6" r=".6" fill="#fff" stroke="#000" stroke-linecap="round" stroke-linejoin="round" stroke-width=".4"/>
  <circle cx="25.8" cy="105.1" r="1.8" fill="#febf10" stroke="#000" stroke-linecap="round" stroke-linejoin="round" stroke-width=".4"/>
  <circle cx="25.8" cy="105.1" r=".6" fill="#fff" stroke="#000" stroke-linecap="round" stroke-linejoin="round" stroke-width=".4"/>
  <path d="M43.9 94.2c1.9-.2 1.6.4 3.7 1 .2-.5-1.4-2.6-3.7-2.6a4.1 4.1 0 0 0-4.1 4.2c0 .5-.3.9-.1 1.3.5-1.7 2.4-3.7 4.2-3.9zm-10.1 0c-1.9.1-1.6.4-3.7 1-.1-.5 1.4-2.6 3.7-2.6s4 1.5 4 3.5-1.4-2-4-1.9zm1.7 9.6s2-1 2.6-.8a2.2 2.2 0 0 1 .8.4.9.9 0 0 1 .9-.4l3.2 1.1s-3.7-.5-4.1.1a5.5 5.5 0 0 0-3.3-.2c-2.1.5-.1-.2-.1-.2zm-.3.8a23.3 23.3 0 0 0 3.5.7 18.6 18.6 0 0 0 4.1-.8 3.1 3.1 0 0 1-2 1.4 6.7 6.7 0 0 1-4-.1 9 9 0 0 1-1.6-1.2z" fill="#980805"/>
  <path d="M36.2 96.8s-1.6-2.7-4.9-.8m4.6 1.1s-2 1.5-3.9.4m9.8-.7s1.6-2.7 5-.8m-4.7 1.1s2.1 1.5 3.9.4" fill="none" stroke="#000" stroke-linecap="round" stroke-linejoin="round" stroke-width=".3"/>
  <path d="M30.1 95.1a4 4 0 0 1 3.7-2.6 3.9 3.9 0 0 1 3.7 2.6m10.1 0a4 4 0 0 0-3.7-2.6c-3.7 0-4.5 4.3-4 6.6.2.6 1.1.6.9 1.3a.7.7 0 0 1-.8.4c-1.4 1.5-2 .1-2 .1m-1.1-1.4a1 1 0 0 0 .9 1.5m6 3.1c.1 0-2.7 2.1-4.9 2.1s-4.8-2.2-4.7-2.1 3.8-1.9 4.7-.7c.9-1.2 2.7.8 4.9.7z" fill="none" stroke="#000" stroke-linecap="round" stroke-linejoin="round" stroke-width=".3"/>
  <path d="M43.4 104.2a8.9 8.9 0 0 1-4.4 1c-2.5 0-4.8-.9-4.5-1s4-.7 4.4 0 4.3 0 4.5 0zm-7.9-2.4a11.9 11.9 0 0 0-2.4 3.9m9.3-3.9a11.9 11.9 0 0 1 2.4 3.9" fill="none" stroke="#000" stroke-linecap="round" stroke-linejoin="round" stroke-width=".3"/>
  <path d="M41.8 96.8h4.6a3 3 0 0 0-3.2-.1z" stroke="#000" stroke-linecap="round" stroke-linejoin="round" stroke-width=".3"/>
  <path fill="#0065b7" stroke="#000" stroke-linecap="round" stroke-linejoin="round" stroke-width=".3" d="M47.1 96.7l-.7.1"/>
  <path d="M36.2 96.8h-4.5a2.8 2.8 0 0 1 3.1-.1z" stroke="#000" stroke-linecap="round" stroke-linejoin="round" stroke-width=".3"/>
  <path fill="#0065b7" stroke="#000" stroke-linecap="round" stroke-linejoin="round" stroke-width=".3" d="M31 96.7l.7.1"/>
  <path d="M37 107.9a2.3 2.3 0 0 1 1.9-.9 2.5 2.5 0 0 1 1.8.8m1.1-16.4a5.1 5.1 0 0 1-2.7.6 5.5 5.5 0 0 1-2.5-.5" fill="none" stroke="#000" stroke-linecap="round" stroke-linejoin="round" stroke-width=".3"/>
  <path fill="none" stroke="#000" stroke-linecap="round" stroke-linejoin="round" stroke-width=".4" d="M8 7.9h62v124.31H8z"/>
</svg>
