<svg xmlns="http://www.w3.org/2000/svg" viewBox="0 0 78 140">
  <rect width="78" height="140" rx="6" ry="6" fill="#fff"/>
  <circle cx="29.5" cy="31.4" r="19.1" fill="none" stroke="#000" stroke-linecap="round" stroke-linejoin="round" stroke-width=".4"/>
  <circle cx="29.5" cy="31.4" r="17.6"/>
  <circle cx="29.5" cy="31.4" r="13.7" fill="none" stroke="#ed1e79" stroke-linecap="round" stroke-linejoin="round" stroke-width=".4"/>
  <path d="M28.8 16.4a15.1 15.1 0 1 0 15.8 14.3 15 15 0 0 0-15.8-14.3zm1.3 27.2A12.1 12.1 0 0 1 17.3 32a12.2 12.2 0 1 1 24.4-1.2 12.2 12.2 0 0 1-11.6 12.8z" fill="#febf10"/>
  <circle cx="29.5" cy="31.4" r="8.2" fill="red"/>
  <path d="M36.8 27.7l.3 2a9 9 0 0 1-10.9 9.2 9 9 0 0 0 3.7.7 8.1 8.1 0 0 0 7.7-8.6 7.3 7.3 0 0 0-.8-3.3z" fill="#980805"/>
  <circle cx="29.5" cy="15.1" r="1" fill="#febf10"/>
  <circle cx="29.5" cy="15.1" r=".2"/>
  <circle cx="29.5" cy="47.8" r="1" fill="#febf10"/>
  <circle cx="29.5" cy="47.8" r=".2"/>
  <path d="M33.1 27.5c1.3-.1 1.1.3 2.6.7s-1-1.8-2.7-1.8a3 3 0 0 0-3 3 2.7 2.7 0 0 0 0 .9 4.4 4.4 0 0 1 3.1-2.8zm-7.3 0c-1.4.1-1.2.3-2.7.7s1-1.8 2.7-1.8a2.6 2.6 0 0 1 2.8 2.5c0 .3-1-1.4-2.8-1.4zm1.2 6.9s1.4-.7 1.8-.5l.6.3a.8.8 0 0 1 .7-.3l2.3.8s-2.7-.4-3 .1a2.8 2.8 0 0 0-2.3-.2c-1.6.4-.1-.2-.1-.2zm-.3.6a20.1 20.1 0 0 0 2.6.5 15.5 15.5 0 0 0 2.9-.5c.2-.1-.4.7-1.4.9a4.1 4.1 0 0 1-2.9 0 6.3 6.3 0 0 1-1.2-.9z" fill="#980805"/>
  <path d="M27.5 29.4a2.6 2.6 0 0 0-3.6-.6m3.4.8a2.8 2.8 0 0 1-2.8.3m7-.5a2.6 2.6 0 0 1 3.6-.6m-3.4.8a2.8 2.8 0 0 0 2.8.3" fill="none" stroke="#000" stroke-linecap="round" stroke-linejoin="round" stroke-width=".3"/>
  <path d="M23.1 28.2a2.9 2.9 0 0 1 2.7-1.9 2.8 2.8 0 0 1 2.6 1.8m7.3 0a2.9 2.9 0 0 0-2.7-1.8c-2.6 0-3.2 3.1-2.8 4.8s.8.4.6.9-.5.3-.6.3l-1.5.1m-.7-1s-.5 1 .6 1m4.4 2.2s-2 1.6-3.6 1.6-3.4-1.6-3.4-1.6 2.8-1.3 3.4-.4c.6-.9 1.9.5 3.6.4z" fill="none" stroke="#000" stroke-linecap="round" stroke-linejoin="round" stroke-width=".3"/>
  <path d="M32.7 34.7a6.2 6.2 0 0 1-3.2.8 6.1 6.1 0 0 1-3.3-.8c.2-.1 2.9-.5 3.2.1s3.1-.1 3.3-.1zM27 33a9.1 9.1 0 0 0-1.7 2.8m6.6-2.8a8.7 8.7 0 0 1 1.8 2.8" fill="none" stroke="#000" stroke-linecap="round" stroke-linejoin="round" stroke-width=".3"/>
  <path d="M31.5 29.4h3.3a2 2 0 0 0-2.2-.1z" stroke="#000" stroke-linecap="round" stroke-linejoin="round" stroke-width=".3"/>
  <path fill="#0065b7" stroke="#000" stroke-linecap="round" stroke-linejoin="round" stroke-width=".3" d="M35.4 29.4h-.6"/>
  <path d="M27.5 29.4h-3.3a2.2 2.2 0 0 1 2.3-.1z" stroke="#000" stroke-linecap="round" stroke-linejoin="round" stroke-width=".3"/>
  <path fill="#0065b7" stroke="#000" stroke-linecap="round" stroke-linejoin="round" stroke-width=".3" d="M23.7 29.4h.5"/>
  <path d="M28 37.4a1.9 1.9 0 0 1 2.8 0m.7-11.9a3.4 3.4 0 0 1-1.9.4 4.2 4.2 0 0 1-1.8-.3" fill="none" stroke="#000" stroke-linecap="round" stroke-linejoin="round" stroke-width=".3"/>
  <circle cx="29.5" cy="21.3" r="1.7" fill="#febf10" stroke="#000" stroke-linecap="round" stroke-linejoin="round" stroke-width=".4"/>
  <circle cx="29.5" cy="21.3" r=".3"/>
  <circle cx="29.5" cy="41.7" r="1.7" fill="#febf10" stroke="#000" stroke-linecap="round" stroke-linejoin="round" stroke-width=".4"/>
  <circle cx="29.5" cy="41.7" r=".3"/>
  <circle cx="39.8" cy="31.5" r="1.7" fill="#febf10" stroke="#000" stroke-linecap="round" stroke-linejoin="round" stroke-width=".4"/>
  <circle cx="39.8" cy="31.5" r=".3"/>
  <circle cx="19.3" cy="31.5" r="1.7" fill="#febf10" stroke="#000" stroke-linecap="round" stroke-linejoin="round" stroke-width=".4"/>
  <circle cx="19.3" cy="31.5" r=".3"/>
  <circle cx="36.8" cy="24.3" r="1.7" fill="#febf10" stroke="#000" stroke-linecap="round" stroke-linejoin="round" stroke-width=".4"/>
  <circle cx="36.8" cy="24.3" r=".3"/>
  <circle cx="22.3" cy="38.7" r="1.7" fill="#febf10" stroke="#000" stroke-linecap="round" stroke-linejoin="round" stroke-width=".4"/>
  <circle cx="22.3" cy="38.7" r=".3"/>
  <circle cx="36.8" cy="38.7" r="1.7" fill="#febf10" stroke="#000" stroke-linecap="round" stroke-linejoin="round" stroke-width=".4"/>
  <circle cx="36.8" cy="38.7" r=".3"/>
  <circle cx="22.3" cy="24.3" r="1.7" fill="#febf10" stroke="#000" stroke-linecap="round" stroke-linejoin="round" stroke-width=".4"/>
  <circle cx="22.3" cy="24.3" r=".3"/>
  <circle cx="39" cy="27.7" r="1.7" fill="#febf10" stroke="#000" stroke-linecap="round" stroke-linejoin="round" stroke-width=".4"/>
  <circle cx="39" cy="27.7" r=".3"/>
  <circle cx="20.1" cy="35.3" r="1.7" fill="#febf10" stroke="#000" stroke-linecap="round" stroke-linejoin="round" stroke-width=".4"/>
  <circle cx="20.1" cy="35.3" r=".3"/>
  <circle cx="33.3" cy="41" r="1.7" fill="#febf10" stroke="#000" stroke-linecap="round" stroke-linejoin="round" stroke-width=".4"/>
  <circle cx="33.3" cy="41" r=".3"/>
  <circle cx="25.7" cy="22" r="1.7" fill="#febf10" stroke="#000" stroke-linecap="round" stroke-linejoin="round" stroke-width=".4"/>
  <circle cx="25.7" cy="22" r=".3"/>
  <circle cx="39" cy="35.3" r="1.7" fill="#febf10" stroke="#000" stroke-linecap="round" stroke-linejoin="round" stroke-width=".4"/>
  <circle cx="39" cy="35.3" r=".3"/>
  <circle cx="20.1" cy="27.7" r="1.7" fill="#febf10" stroke="#000" stroke-linecap="round" stroke-linejoin="round" stroke-width=".4"/>
  <circle cx="20.1" cy="27.7" r=".3"/>
  <circle cx="25.7" cy="41" r="1.7" fill="#febf10" stroke="#000" stroke-linecap="round" stroke-linejoin="round" stroke-width=".4"/>
  <circle cx="25.7" cy="41" r=".3"/>
  <circle cx="33.4" cy="22" r="1.7" fill="#febf10" stroke="#000" stroke-linecap="round" stroke-linejoin="round" stroke-width=".4"/>
  <circle cx="33.4" cy="22" r=".3"/>
  <circle cx="45.9" cy="31.4" r="1" fill="#febf10"/>
  <circle cx="45.9" cy="31.4" r=".2"/>
  <circle cx="13.2" cy="31.4" r="1" fill="#febf10"/>
  <circle cx="13.2" cy="31.4" r=".2"/>
  <circle cx="41.1" cy="19.9" r="1" fill="#febf10"/>
  <circle cx="41.1" cy="19.9" r=".2"/>
  <circle cx="18" cy="43" r="1" fill="#febf10"/>
  <circle cx="18" cy="43" r=".2"/>
  <circle cx="41.2" cy="43" r="1" fill="#febf10"/>
  <circle cx="41.2" cy="43" r=".2"/>
  <circle cx="18" cy="19.9" r="1" fill="#febf10"/>
  <circle cx="18" cy="19.9" r=".2"/>
  <circle cx="35.6" cy="16.3" r="1" fill="#febf10"/>
  <circle cx="35.6" cy="16.3" r=".2"/>
  <circle cx="23.5" cy="46.6" r="1" fill="#febf10"/>
  <circle cx="23.5" cy="46.6" r=".2"/>
  <circle cx="44.8" cy="37.5" r="1" fill="#febf10"/>
  <circle cx="44.8" cy="37.5" r=".2"/>
  <circle cx="14.4" cy="25.4" r="1" fill="#febf10"/>
  <circle cx="14.4" cy="25.4" r=".2"/>
  <circle cx="44.6" cy="25" r="1" fill="#febf10"/>
  <circle cx="44.6" cy="25" r=".2"/>
  <circle cx="14.5" cy="37.9" r="1" fill="#febf10"/>
  <circle cx="14.5" cy="37.9" r=".2"/>
  <circle cx="36.1" cy="46.5" r="1" fill="#febf10"/>
  <circle cx="36.1" cy="46.5" r=".2"/>
  <circle cx="23.1" cy="16.4" r="1" fill="#febf10"/>
  <circle cx="23.1" cy="16.4" r=".2"/>
  <circle cx="38.5" cy="17.8" r="1" fill="#febf10"/>
  <circle cx="38.5" cy="17.8" r=".2"/>
  <circle cx="20.6" cy="45.1" r="1" fill="#febf10"/>
  <circle cx="20.6" cy="45.1" r=".2"/>
  <circle cx="43.3" cy="40.4" r="1" fill="#febf10"/>
  <circle cx="43.3" cy="40.4" r=".2"/>
  <circle cx="15.9" cy="22.5" r="1" fill="#febf10"/>
  <circle cx="15.9" cy="22.5" r=".2"/>
  <circle cx="45.5" cy="28.1" r="1" fill="#febf10"/>
  <circle cx="45.5" cy="28.1" r=".2"/>
  <circle cx="13.5" cy="34.8" r="1" fill="#febf10"/>
  <circle cx="13.5" cy="34.8" r=".2"/>
  <circle cx="32.9" cy="47.5" r="1" fill="#febf10"/>
  <circle cx="32.9" cy="47.5" r=".2"/>
  <circle cx="26.3" cy="15.4" r="1" fill="#febf10"/>
  <circle cx="26.3" cy="15.4" r=".2"/>
  <circle cx="43.1" cy="22.3" r="1" fill="#febf10"/>
  <circle cx="43.1" cy="22.3" r=".2"/>
  <circle cx="16" cy="40.6" r="1" fill="#febf10"/>
  <circle cx="16" cy="40.6" r=".2"/>
  <circle cx="38.7" cy="45" r="1" fill="#febf10"/>
  <circle cx="38.7" cy="45" r=".2"/>
  <circle cx="20.4" cy="17.9" r="1" fill="#febf10"/>
  <circle cx="20.4" cy="17.9" r=".2"/>
  <circle cx="45.6" cy="34.6" r="1" fill="#febf10"/>
  <circle cx="45.6" cy="34.6" r=".2"/>
  <circle cx="13.5" cy="28.3" r="1" fill="#febf10"/>
  <circle cx="13.5" cy="28.3" r=".2"/>
  <circle cx="26.5" cy="47.6" r="1" fill="#febf10"/>
  <circle cx="26.5" cy="47.6" r=".2"/>
  <circle cx="32.7" cy="15.4" r="1" fill="#febf10"/>
  <circle cx="32.7" cy="15.4" r=".2"/>
  <path fill="none" stroke="#000" stroke-linecap="round" stroke-linejoin="round" stroke-width=".4" d="M29.6 19.3l2.9-2.6 1.7 3.5L38 19l.2 3.9 3.9.2-1.2 3.7 3.5 1.8-2.6 2.9 2.6 3-3.5 1.7 1.2 3.7-3.9.3-.2 3.9-3.8-1.3-1.7 3.6-2.9-2.6-3 2.6-1.7-3.6-3.8 1.3-.2-3.9-3.9-.3 1.2-3.7-3.5-1.7 2.6-3-2.6-2.9 3.5-1.8-1.2-3.7 3.9-.2.2-3.9 3.8 1.2 1.7-3.5 3 2.6z"/>
  <circle cx="19.6" cy="21.6" r=".2"/>
  <circle cx="22.3" cy="20.6" r=".2"/>
  <circle cx="24.2" cy="18.4" r=".2"/>
  <circle cx="27" cy="18.7" r=".2"/>
  <circle cx="32.1" cy="18.8" r=".2"/>
  <circle cx="29.6" cy="17.3" r=".2"/>
  <circle cx="34.9" cy="18.5" r=".2"/>
  <circle cx="36.7" cy="20.7" r=".2"/>
  <circle cx="39.6" cy="21.5" r=".2"/>
  <circle cx="40.3" cy="24.2" r=".2"/>
  <circle cx="42.6" cy="26.1" r=".2"/>
  <circle cx="42.2" cy="28.9" r=".2"/>
  <circle cx="43.7" cy="31.5" r=".2"/>
  <circle cx="42.2" cy="34" r=".2"/>
  <circle cx="42.7" cy="36.9" r=".2"/>
  <circle cx="40.3" cy="38.6" r=".2"/>
  <circle cx="39.5" cy="41.5" r=".2"/>
  <circle cx="36.8" cy="42.3" r=".2"/>
  <circle cx="35" cy="44.5" r=".2"/>
  <circle cx="32" cy="44.2" r=".2"/>
  <circle cx="29.6" cy="45.6" r=".2"/>
  <circle cx="26.9" cy="44.2" r=".2"/>
  <circle cx="24.1" cy="44.6" r=".2"/>
  <circle cx="22.3" cy="42.2" r=".2"/>
  <circle cx="19.5" cy="41.4" r=".2"/>
  <circle cx="18.7" cy="38.6" r=".2"/>
  <circle cx="16.3" cy="36.9" r=".2"/>
  <circle cx="16.9" cy="34" r=".2"/>
  <circle cx="15.3" cy="31.4" r=".2"/>
  <circle cx="16.8" cy="29" r=".2"/>
  <circle cx="16.5" cy="26.1" r=".2"/>
  <circle cx="18.7" cy="24.3" r=".2"/>
  <circle cx="29.5" cy="108.6" r="19.1" fill="none" stroke="#000" stroke-linecap="round" stroke-linejoin="round" stroke-width=".4"/>
  <circle cx="29.5" cy="108.6" r="17.6"/>
  <circle cx="29.5" cy="108.6" r="13.7" fill="none" stroke="#ed1e79" stroke-linecap="round" stroke-linejoin="round" stroke-width=".4"/>
  <path d="M28.8 93.5a15.1 15.1 0 1 0 15.8 14.3 15.1 15.1 0 0 0-15.8-14.3zm1.3 27.3a12.2 12.2 0 0 1-1.2-24.4A12.1 12.1 0 0 1 41.7 108a12.3 12.3 0 0 1-11.6 12.8z" fill="#febf10"/>
  <circle cx="29.5" cy="108.6" r="8.2" fill="red"/>
  <path d="M36.8 104.9l.3 1.9a9 9 0 0 1-8.6 9.4 6 6 0 0 1-2.3-.2 7.7 7.7 0 0 0 3.7.7 8 8 0 0 0 7.7-8.5 7.3 7.3 0 0 0-.8-3.3z" fill="#980805"/>
  <circle cx="29.5" cy="92.3" r="1" fill="#febf10"/>
  <circle cx="29.5" cy="92.3" r=".2"/>
  <circle cx="29.5" cy="124.9" r="1" fill="#febf10"/>
  <circle cx="29.5" cy="124.9" r=".2"/>
  <path d="M33.1 104.7c1.3-.2 1.1.2 2.6.6s-1-1.8-2.7-1.8a3 3 0 0 0-3 3 3.3 3.3 0 0 0 0 1 4 4 0 0 1 3.1-2.8zm-7.3 0c-1.4 0-1.2.2-2.7.6s1-1.8 2.7-1.8a2.6 2.6 0 0 1 2.8 2.5c0 .4-1-1.4-2.8-1.3zm1.2 6.9s1.4-.8 1.8-.6l.6.3a.8.8 0 0 1 .7-.3l2.3.8s-2.7-.4-3 .1a3.3 3.3 0 0 0-2.3-.2c-1.6.4-.1-.1-.1-.1zm-.3.6a20.1 20.1 0 0 0 2.6.5 14.5 14.5 0 0 0 2.9-.6c.2-.1-.4.7-1.4 1a4.7 4.7 0 0 1-2.9-.1z" fill="#980805"/>
  <path d="M27.5 106.5a2.6 2.6 0 0 0-3.6-.6m3.4.9a2.8 2.8 0 0 1-2.8.2m7-.5a2.6 2.6 0 0 1 3.6-.6m-3.4.9a2.8 2.8 0 0 0 2.8.2" fill="none" stroke="#000" stroke-linecap="round" stroke-linejoin="round" stroke-width=".3"/>
  <path d="M23.1 105.3a2.9 2.9 0 0 1 2.7-1.9 2.8 2.8 0 0 1 2.6 1.9m7.3 0a2.8 2.8 0 0 0-2.7-1.9c-2.6 0-3.2 3.1-2.8 4.8s.8.5.6.9-.5.4-.6.3-1.5.1-1.5.1m-.7-1s-.5 1 .6 1.1m4.4 2.2a7.7 7.7 0 0 1-3.6 1.5c-1.6 0-3.4-1.6-3.4-1.5s2.8-1.4 3.4-.5c.6-.9 1.9.5 3.6.5z" fill="none" stroke="#000" stroke-linecap="round" stroke-linejoin="round" stroke-width=".3"/>
  <path d="M32.7 111.9a6.8 6.8 0 0 1-3.2.7 8.1 8.1 0 0 1-3.3-.7c.2-.1 2.9-.5 3.2 0s3.1 0 3.3 0zm-5.7-1.7a8.2 8.2 0 0 0-1.7 2.7m6.6-2.7a7.9 7.9 0 0 1 1.8 2.7" fill="none" stroke="#000" stroke-linecap="round" stroke-linejoin="round" stroke-width=".3"/>
  <path d="M31.5 106.5h3.3a2 2 0 0 0-2.2-.1z" stroke="#000" stroke-linecap="round" stroke-linejoin="round" stroke-width=".3"/>
  <path fill="#0065b7" stroke="#000" stroke-linecap="round" stroke-linejoin="round" stroke-width=".3" d="M35.4 106.5h-.6"/>
  <path d="M27.5 106.5h-3.3a2.2 2.2 0 0 1 2.3-.1z" stroke="#000" stroke-linecap="round" stroke-linejoin="round" stroke-width=".3"/>
  <path fill="#0065b7" stroke="#000" stroke-linecap="round" stroke-linejoin="round" stroke-width=".3" d="M23.7 106.5h.5"/>
  <path d="M28 114.5a2 2 0 0 1 1.4-.6 1.7 1.7 0 0 1 1.4.6m.7-11.9a3.3 3.3 0 0 1-1.9.5 4 4 0 0 1-1.8-.4" fill="none" stroke="#000" stroke-linecap="round" stroke-linejoin="round" stroke-width=".3"/>
  <circle cx="29.5" cy="98.4" r="1.7" fill="#febf10" stroke="#000" stroke-linecap="round" stroke-linejoin="round" stroke-width=".4"/>
  <circle cx="29.5" cy="98.4" r=".3"/>
  <circle cx="29.5" cy="118.8" r="1.7" fill="#febf10" stroke="#000" stroke-linecap="round" stroke-linejoin="round" stroke-width=".4"/>
  <circle cx="29.5" cy="118.8" r=".3"/>
  <circle cx="39.8" cy="108.6" r="1.7" fill="#febf10" stroke="#000" stroke-linecap="round" stroke-linejoin="round" stroke-width=".4"/>
  <circle cx="39.8" cy="108.6" r=".3"/>
  <circle cx="19.3" cy="108.6" r="1.7" fill="#febf10" stroke="#000" stroke-linecap="round" stroke-linejoin="round" stroke-width=".4"/>
  <circle cx="19.3" cy="108.6" r=".3"/>
  <circle cx="36.8" cy="101.4" r="1.7" fill="#febf10" stroke="#000" stroke-linecap="round" stroke-linejoin="round" stroke-width=".4"/>
  <circle cx="36.8" cy="101.4" r=".3"/>
  <circle cx="22.3" cy="115.8" r="1.7" fill="#febf10" stroke="#000" stroke-linecap="round" stroke-linejoin="round" stroke-width=".4"/>
  <circle cx="22.3" cy="115.8" r=".3"/>
  <circle cx="36.8" cy="115.8" r="1.7" fill="#febf10" stroke="#000" stroke-linecap="round" stroke-linejoin="round" stroke-width=".4"/>
  <circle cx="36.8" cy="115.8" r=".3"/>
  <circle cx="22.3" cy="101.4" r="1.7" fill="#febf10" stroke="#000" stroke-linecap="round" stroke-linejoin="round" stroke-width=".4"/>
  <circle cx="22.3" cy="101.4" r=".3"/>
  <circle cx="39" cy="104.8" r="1.7" fill="#febf10" stroke="#000" stroke-linecap="round" stroke-linejoin="round" stroke-width=".4"/>
  <circle cx="39" cy="104.8" r=".3"/>
  <circle cx="20.1" cy="112.4" r="1.7" fill="#febf10" stroke="#000" stroke-linecap="round" stroke-linejoin="round" stroke-width=".4"/>
  <circle cx="20.1" cy="112.4" r=".3"/>
  <circle cx="33.3" cy="118.1" r="1.7" fill="#febf10" stroke="#000" stroke-linecap="round" stroke-linejoin="round" stroke-width=".4"/>
  <circle cx="33.3" cy="118.1" r=".3"/>
  <circle cx="25.7" cy="99.1" r="1.7" fill="#febf10" stroke="#000" stroke-linecap="round" stroke-linejoin="round" stroke-width=".4"/>
  <circle cx="25.7" cy="99.1" r=".3"/>
  <circle cx="39" cy="112.4" r="1.7" fill="#febf10" stroke="#000" stroke-linecap="round" stroke-linejoin="round" stroke-width=".4"/>
  <circle cx="39" cy="112.4" r=".3"/>
  <circle cx="20.1" cy="104.8" r="1.7" fill="#febf10" stroke="#000" stroke-linecap="round" stroke-linejoin="round" stroke-width=".4"/>
  <circle cx="20.1" cy="104.8" r=".3"/>
  <circle cx="25.7" cy="118.1" r="1.7" fill="#febf10" stroke="#000" stroke-linecap="round" stroke-linejoin="round" stroke-width=".4"/>
  <circle cx="25.7" cy="118.1" r=".3"/>
  <circle cx="33.4" cy="99.1" r="1.7" fill="#febf10" stroke="#000" stroke-linecap="round" stroke-linejoin="round" stroke-width=".4"/>
  <circle cx="33.4" cy="99.1" r=".3"/>
  <circle cx="45.9" cy="108.6" r="1" fill="#febf10"/>
  <circle cx="45.9" cy="108.6" r=".2"/>
  <circle cx="13.2" cy="108.6" r="1" fill="#febf10"/>
  <circle cx="13.2" cy="108.6" r=".2"/>
  <circle cx="41.1" cy="97" r="1" fill="#febf10"/>
  <circle cx="41.1" cy="97" r=".2"/>
  <circle cx="18" cy="120.1" r="1" fill="#febf10"/>
  <circle cx="18" cy="120.1" r=".2"/>
  <circle cx="41.2" cy="120.1" r="1" fill="#febf10"/>
  <circle cx="41.2" cy="120.1" r=".2"/>
  <circle cx="18" cy="97" r="1" fill="#febf10"/>
  <circle cx="18" cy="97" r=".2"/>
  <circle cx="35.6" cy="93.4" r="1" fill="#febf10"/>
  <circle cx="35.6" cy="93.4" r=".2"/>
  <circle cx="23.5" cy="123.8" r="1" fill="#febf10"/>
  <circle cx="23.5" cy="123.8" r=".2"/>
  <circle cx="44.8" cy="114.6" r="1" fill="#febf10"/>
  <circle cx="44.8" cy="114.6" r=".2"/>
  <circle cx="14.4" cy="102.5" r="1" fill="#febf10"/>
  <circle cx="14.4" cy="102.5" r=".2"/>
  <circle cx="44.6" cy="102.1" r="1" fill="#febf10"/>
  <circle cx="44.6" cy="102.1" r=".2"/>
  <circle cx="14.5" cy="115" r="1" fill="#febf10"/>
  <circle cx="14.5" cy="115" r=".2"/>
  <circle cx="36.1" cy="123.6" r="1" fill="#febf10"/>
  <circle cx="36.1" cy="123.6" r=".2"/>
  <circle cx="23.1" cy="93.5" r="1" fill="#febf10"/>
  <circle cx="23.1" cy="93.5" r=".2"/>
  <circle cx="38.5" cy="94.9" r="1" fill="#febf10"/>
  <circle cx="38.5" cy="94.9" r=".2"/>
  <circle cx="20.6" cy="122.3" r="1" fill="#febf10"/>
  <circle cx="20.6" cy="122.3" r=".2"/>
  <circle cx="43.3" cy="117.5" r="1" fill="#febf10"/>
  <circle cx="43.3" cy="117.5" r=".2"/>
  <circle cx="15.9" cy="99.6" r="1" fill="#febf10"/>
  <circle cx="15.9" cy="99.6" r=".2"/>
  <circle cx="45.5" cy="105.3" r="1" fill="#febf10"/>
  <circle cx="45.5" cy="105.3" r=".2"/>
  <circle cx="13.5" cy="111.9" r="1" fill="#febf10"/>
  <circle cx="13.5" cy="111.9" r=".2"/>
  <circle cx="32.9" cy="124.6" r="1" fill="#febf10"/>
  <circle cx="32.9" cy="124.6" r=".2"/>
  <circle cx="26.3" cy="92.6" r="1" fill="#febf10"/>
  <circle cx="26.3" cy="92.6" r=".2"/>
  <circle cx="43.1" cy="99.5" r="1" fill="#febf10"/>
  <circle cx="43.1" cy="99.5" r=".2"/>
  <circle cx="16" cy="117.7" r="1" fill="#febf10"/>
  <circle cx="16" cy="117.7" r=".2"/>
  <circle cx="38.7" cy="122.2" r="1" fill="#febf10"/>
  <circle cx="38.7" cy="122.2" r=".2"/>
  <circle cx="20.4" cy="95" r="1" fill="#febf10"/>
  <circle cx="20.4" cy="95" r=".2"/>
  <circle cx="45.6" cy="111.7" r="1" fill="#febf10"/>
  <circle cx="45.6" cy="111.7" r=".2"/>
  <circle cx="13.5" cy="105.5" r="1" fill="#febf10"/>
  <circle cx="13.5" cy="105.5" r=".2"/>
  <circle cx="26.5" cy="124.7" r="1" fill="#febf10"/>
  <circle cx="26.5" cy="124.7" r=".2"/>
  <circle cx="32.7" cy="92.5" r="1" fill="#febf10"/>
  <circle cx="32.7" cy="92.5" r=".2"/>
  <path fill="none" stroke="#000" stroke-linecap="round" stroke-linejoin="round" stroke-width=".4" d="M29.6 96.4l2.9-2.6 1.7 3.5 3.8-1.2.2 3.9 3.9.3-1.2 3.7 3.5 1.7-2.6 3 2.6 2.9-3.5 1.7 1.2 3.8-3.9.2-.2 3.9-3.8-1.2-1.7 3.5-2.9-2.6-3 2.6-1.7-3.5-3.8 1.2-.2-3.9-3.9-.2 1.2-3.8-3.5-1.7 2.6-2.9-2.6-3 3.5-1.7-1.2-3.7 3.9-.3.2-3.9 3.8 1.2 1.7-3.5 3 2.6z"/>
  <circle cx="19.6" cy="98.7" r=".2"/>
  <circle cx="22.3" cy="97.7" r=".2"/>
  <circle cx="24.2" cy="95.5" r=".2"/>
  <circle cx="27" cy="95.8" r=".2"/>
  <circle cx="32.1" cy="95.9" r=".2"/>
  <circle cx="29.6" cy="94.4" r=".2"/>
  <circle cx="34.9" cy="95.7" r=".2"/>
  <circle cx="36.7" cy="97.8" r=".2"/>
  <circle cx="39.6" cy="98.6" r=".2"/>
  <circle cx="40.3" cy="101.3" r=".2"/>
  <circle cx="42.6" cy="103.2" r=".2"/>
  <circle cx="42.2" cy="106" r=".2"/>
  <circle cx="43.7" cy="108.6" r=".2"/>
  <circle cx="42.2" cy="111.1" r=".2"/>
  <circle cx="42.7" cy="114" r=".2"/>
  <circle cx="40.3" cy="115.8" r=".2"/>
  <circle cx="39.5" cy="118.7" r=".2"/>
  <circle cx="36.8" cy="119.5" r=".2"/>
  <circle cx="35" cy="121.6" r=".2"/>
  <circle cx="32" cy="121.3" r=".2"/>
  <circle cx="29.6" cy="122.7" r=".2"/>
  <circle cx="26.9" cy="121.4" r=".2"/>
  <circle cx="24.1" cy="121.7" r=".2"/>
  <circle cx="22.3" cy="119.3" r=".2"/>
  <circle cx="19.5" cy="118.6" r=".2"/>
  <circle cx="18.7" cy="115.8" r=".2"/>
  <circle cx="16.3" cy="114" r=".2"/>
  <circle cx="16.9" cy="111.1" r=".2"/>
  <circle cx="15.3" cy="108.5" r=".2"/>
  <circle cx="16.8" cy="106.1" r=".2"/>
  <circle cx="16.5" cy="103.3" r=".2"/>
  <circle cx="18.7" cy="101.4" r=".2"/>
  <circle cx="48.5" cy="70" r="19.1" fill="none" stroke="#000" stroke-linecap="round" stroke-linejoin="round" stroke-width=".4"/>
  <circle cx="48.5" cy="70" r="17.6"/>
  <circle cx="48.5" cy="70" r="13.7" fill="none" stroke="#ed1e79" stroke-linecap="round" stroke-linejoin="round" stroke-width=".4"/>
  <path d="M47.8 54.9a15.1 15.1 0 1 0 15.8 14.4 15.1 15.1 0 0 0-15.8-14.4zm1.3 27.3a12.2 12.2 0 0 1-12.8-11.6 12.2 12.2 0 0 1 24.4-1.2 12.2 12.2 0 0 1-11.6 12.8z" fill="#febf10"/>
  <circle cx="48.5" cy="70" r="8.2" fill="red"/>
  <path d="M55.8 66.3l.3 2a9.1 9.1 0 0 1-8.6 9.4l-2.3-.2a9 9 0 0 0 3.7.7 8.2 8.2 0 0 0 7.7-8.6 7.3 7.3 0 0 0-.8-3.3z" fill="#980805"/>
  <circle cx="48.5" cy="53.7" r="1" fill="#febf10"/>
  <circle cx="48.5" cy="53.7" r=".2"/>
  <circle cx="48.5" cy="86.4" r="1" fill="#febf10"/>
  <circle cx="48.5" cy="86.4" r=".2"/>
  <path d="M52.1 66.1c1.3-.1 1.1.3 2.6.7a2.9 2.9 0 0 0-2.7-1.9 3.1 3.1 0 0 0-3 3.1 2.7 2.7 0 0 0 0 .9 4.4 4.4 0 0 1 3.1-2.8zm-7.3 0c-1.4.1-1.2.3-2.7.7a2.9 2.9 0 0 1 2.7-1.9 2.6 2.6 0 0 1 2.8 2.6c0 .3-1-1.5-2.8-1.4zM46 73a5.4 5.4 0 0 1 1.8-.6l.6.3a.8.8 0 0 1 .7-.2l2.3.7s-2.7-.3-3 .2a2.8 2.8 0 0 0-2.3-.2c-1.6.4-.1-.2-.1-.2zm-.3.6a20.1 20.1 0 0 0 2.6.5 15.5 15.5 0 0 0 2.9-.5c.2-.1-.4.7-1.4.9a4.1 4.1 0 0 1-2.9 0 6.3 6.3 0 0 1-1.2-.9z" fill="#980805"/>
  <path d="M46.5 68a2.5 2.5 0 0 0-3.6-.6m3.4.8a2.8 2.8 0 0 1-2.8.3m7-.5a2.5 2.5 0 0 1 3.6-.6m-3.4.8a2.8 2.8 0 0 0 2.8.3" fill="none" stroke="#000" stroke-linecap="round" stroke-linejoin="round" stroke-width=".3"/>
  <path d="M42.1 66.8a2.9 2.9 0 0 1 2.7-1.9 2.8 2.8 0 0 1 2.6 1.8m7.3 0a2.9 2.9 0 0 0-2.7-1.8c-2.6 0-3.2 3.1-2.8 4.7s.8.5.6 1-.5.3-.6.3l-1.5.1m-.7-1s-.5.9.6 1m4.4 2.2s-2 1.6-3.6 1.6-3.4-1.6-3.4-1.6 2.8-1.4 3.4-.5c.6-.8 1.9.6 3.6.5z" fill="none" stroke="#000" stroke-linecap="round" stroke-linejoin="round" stroke-width=".3"/>
  <path d="M51.7 73.3a6.8 6.8 0 0 1-3.2.7 6.6 6.6 0 0 1-3.3-.7c.2-.1 2.9-.5 3.2.1s3.1-.1 3.3-.1zM46 71.6a9.1 9.1 0 0 0-1.7 2.8m6.6-2.8a8.7 8.7 0 0 1 1.8 2.8" fill="none" stroke="#000" stroke-linecap="round" stroke-linejoin="round" stroke-width=".3"/>
  <path d="M50.5 68h3.3a2 2 0 0 0-2.2-.1z" stroke="#000" stroke-linecap="round" stroke-linejoin="round" stroke-width=".3"/>
  <path fill="#0065b7" stroke="#000" stroke-linecap="round" stroke-linejoin="round" stroke-width=".3" d="M54.4 67.9l-.6.1"/>
  <path d="M46.5 68h-3.3a2.2 2.2 0 0 1 2.3-.1z" stroke="#000" stroke-linecap="round" stroke-linejoin="round" stroke-width=".3"/>
  <path fill="#0065b7" stroke="#000" stroke-linecap="round" stroke-linejoin="round" stroke-width=".3" d="M42.7 67.9l.5.1"/>
  <path d="M47 76a1.7 1.7 0 0 1 1.4-.6 2 2 0 0 1 1.4.5m.7-11.8a3.4 3.4 0 0 1-1.9.4 3 3 0 0 1-1.8-.4" fill="none" stroke="#000" stroke-linecap="round" stroke-linejoin="round" stroke-width=".3"/>
  <circle cx="48.5" cy="59.8" r="1.7" fill="#febf10" stroke="#000" stroke-linecap="round" stroke-linejoin="round" stroke-width=".4"/>
  <circle cx="48.5" cy="59.8" r=".3"/>
  <circle cx="48.5" cy="80.3" r="1.7" fill="#febf10" stroke="#000" stroke-linecap="round" stroke-linejoin="round" stroke-width=".4"/>
  <circle cx="48.5" cy="80.3" r=".3"/>
  <circle cx="58.8" cy="70.1" r="1.7" fill="#febf10" stroke="#000" stroke-linecap="round" stroke-linejoin="round" stroke-width=".4"/>
  <circle cx="58.8" cy="70.1" r=".3"/>
  <circle cx="38.3" cy="70.1" r="1.7" fill="#febf10" stroke="#000" stroke-linecap="round" stroke-linejoin="round" stroke-width=".4"/>
  <circle cx="38.3" cy="70.1" r=".3"/>
  <circle cx="55.8" cy="62.8" r="1.7" fill="#febf10" stroke="#000" stroke-linecap="round" stroke-linejoin="round" stroke-width=".4"/>
  <circle cx="55.8" cy="62.8" r=".3"/>
  <circle cx="41.3" cy="77.3" r="1.7" fill="#febf10" stroke="#000" stroke-linecap="round" stroke-linejoin="round" stroke-width=".4"/>
  <circle cx="41.3" cy="77.3" r=".3"/>
  <circle cx="55.8" cy="77.3" r="1.7" fill="#febf10" stroke="#000" stroke-linecap="round" stroke-linejoin="round" stroke-width=".4"/>
  <circle cx="55.8" cy="77.3" r=".3"/>
  <circle cx="41.3" cy="62.8" r="1.7" fill="#febf10" stroke="#000" stroke-linecap="round" stroke-linejoin="round" stroke-width=".4"/>
  <circle cx="41.3" cy="62.8" r=".3"/>
  <circle cx="58" cy="66.3" r="1.7" fill="#febf10" stroke="#000" stroke-linecap="round" stroke-linejoin="round" stroke-width=".4"/>
  <circle cx="58" cy="66.3" r=".3"/>
  <circle cx="39.1" cy="73.9" r="1.7" fill="#febf10" stroke="#000" stroke-linecap="round" stroke-linejoin="round" stroke-width=".4"/>
  <circle cx="39.1" cy="73.9" r=".3"/>
  <circle cx="52.3" cy="79.5" r="1.7" fill="#febf10" stroke="#000" stroke-linecap="round" stroke-linejoin="round" stroke-width=".4"/>
  <circle cx="52.3" cy="79.5" r=".3"/>
  <circle cx="44.7" cy="60.6" r="1.7" fill="#febf10" stroke="#000" stroke-linecap="round" stroke-linejoin="round" stroke-width=".4"/>
  <circle cx="44.7" cy="60.6" r=".3"/>
  <circle cx="58" cy="73.9" r="1.7" fill="#febf10" stroke="#000" stroke-linecap="round" stroke-linejoin="round" stroke-width=".4"/>
  <circle cx="58" cy="73.9" r=".3"/>
  <circle cx="39.1" cy="66.2" r="1.7" fill="#febf10" stroke="#000" stroke-linecap="round" stroke-linejoin="round" stroke-width=".4"/>
  <circle cx="39.1" cy="66.2" r=".3"/>
  <circle cx="44.7" cy="79.5" r="1.7" fill="#febf10" stroke="#000" stroke-linecap="round" stroke-linejoin="round" stroke-width=".4"/>
  <circle cx="44.7" cy="79.5" r=".3"/>
  <circle cx="52.4" cy="60.6" r="1.7" fill="#febf10" stroke="#000" stroke-linecap="round" stroke-linejoin="round" stroke-width=".4"/>
  <circle cx="52.4" cy="60.6" r=".3"/>
  <circle cx="64.9" cy="70" r="1" fill="#febf10"/>
  <circle cx="64.9" cy="70" r=".2"/>
  <circle cx="32.2" cy="70" r="1" fill="#febf10"/>
  <circle cx="32.2" cy="70" r=".2"/>
  <circle cx="60.1" cy="58.5" r="1" fill="#febf10"/>
  <circle cx="60.1" cy="58.5" r=".2"/>
  <circle cx="37" cy="81.6" r="1" fill="#febf10"/>
  <circle cx="37" cy="81.6" r=".2"/>
  <circle cx="60.2" cy="81.6" r="1" fill="#febf10"/>
  <circle cx="60.2" cy="81.6" r=".2"/>
  <circle cx="37" cy="58.4" r="1" fill="#febf10"/>
  <circle cx="37" cy="58.4" r=".2"/>
  <circle cx="54.6" cy="54.9" r="1" fill="#febf10"/>
  <circle cx="54.6" cy="54.9" r=".2"/>
  <circle cx="42.5" cy="85.2" r="1" fill="#febf10"/>
  <circle cx="42.5" cy="85.2" r=".2"/>
  <circle cx="63.8" cy="76.1" r="1" fill="#febf10"/>
  <circle cx="63.8" cy="76.1" r=".2"/>
  <circle cx="33.4" cy="63.9" r="1" fill="#febf10"/>
  <circle cx="33.4" cy="63.9" r=".2"/>
  <circle cx="63.6" cy="63.6" r="1" fill="#febf10"/>
  <circle cx="63.6" cy="63.6" r=".2"/>
  <circle cx="33.5" cy="76.5" r="1" fill="#febf10"/>
  <circle cx="33.5" cy="76.5" r=".2"/>
  <circle cx="55.1" cy="85.1" r="1" fill="#febf10"/>
  <circle cx="55.1" cy="85.1" r=".2"/>
  <circle cx="42.1" cy="55" r="1" fill="#febf10"/>
  <circle cx="42.1" cy="55" r=".2"/>
  <circle cx="57.5" cy="56.4" r="1" fill="#febf10"/>
  <circle cx="57.5" cy="56.4" r=".2"/>
  <circle cx="39.6" cy="83.7" r="1" fill="#febf10"/>
  <circle cx="39.6" cy="83.7" r=".2"/>
  <circle cx="62.3" cy="79" r="1" fill="#febf10"/>
  <circle cx="62.3" cy="79" r=".2"/>
  <circle cx="34.9" cy="61" r="1" fill="#febf10"/>
  <circle cx="34.9" cy="61" r=".2"/>
  <circle cx="64.5" cy="66.7" r="1" fill="#febf10"/>
  <circle cx="64.5" cy="66.7" r=".2"/>
  <circle cx="32.5" cy="73.4" r="1" fill="#febf10"/>
  <circle cx="32.5" cy="73.4" r=".2"/>
  <circle cx="51.9" cy="86.1" r="1" fill="#febf10"/>
  <circle cx="51.9" cy="86.1" r=".2"/>
  <circle cx="45.3" cy="54" r="1" fill="#febf10"/>
  <circle cx="45.3" cy="54" r=".2"/>
  <circle cx="62.1" cy="60.9" r="1" fill="#febf10"/>
  <circle cx="62.1" cy="60.9" r=".2"/>
  <circle cx="35" cy="79.2" r="1" fill="#febf10"/>
  <circle cx="35" cy="79.2" r=".2"/>
  <circle cx="57.7" cy="83.6" r="1" fill="#febf10"/>
  <circle cx="57.7" cy="83.6" r=".2"/>
  <circle cx="39.4" cy="56.4" r="1" fill="#febf10"/>
  <circle cx="39.4" cy="56.4" r=".2"/>
  <circle cx="64.6" cy="73.2" r="1" fill="#febf10"/>
  <circle cx="64.6" cy="73.2" r=".2"/>
  <circle cx="32.5" cy="66.9" r="1" fill="#febf10"/>
  <circle cx="32.5" cy="66.9" r=".2"/>
  <circle cx="45.5" cy="86.1" r="1" fill="#febf10"/>
  <circle cx="45.5" cy="86.1" r=".2"/>
  <circle cx="51.7" cy="54" r="1" fill="#febf10"/>
  <circle cx="51.7" cy="54" r=".2"/>
  <path fill="none" stroke="#000" stroke-linecap="round" stroke-linejoin="round" stroke-width=".4" d="M48.6 57.9l2.9-2.6 1.7 3.5 3.8-1.3.2 4 3.9.2-1.2 3.7 3.5 1.8-2.6 2.9 2.6 3-3.5 1.7 1.2 3.7-3.9.3-.2 3.9-3.8-1.3-1.7 3.5-2.9-2.6-3 2.6-1.7-3.5-3.8 1.3-.2-3.9-3.9-.3 1.2-3.7-3.5-1.7 2.6-3-2.6-2.9 3.5-1.8-1.2-3.7 3.9-.2.2-4 3.8 1.3 1.7-3.5 3 2.6z"/>
  <circle cx="38.6" cy="60.1" r=".2"/>
  <circle cx="41.3" cy="59.1" r=".2"/>
  <circle cx="43.2" cy="57" r=".2"/>
  <circle cx="46" cy="57.3" r=".2"/>
  <circle cx="51.1" cy="57.4" r=".2"/>
  <circle cx="48.6" cy="55.9" r=".2"/>
  <circle cx="53.9" cy="57.1" r=".2"/>
  <circle cx="55.7" cy="59.3" r=".2"/>
  <circle cx="58.6" cy="60.1" r=".2"/>
  <circle cx="59.3" cy="62.8" r=".2"/>
  <circle cx="61.6" cy="64.6" r=".2"/>
  <circle cx="61.2" cy="67.5" r=".2"/>
  <circle cx="62.7" cy="70.1" r=".2"/>
  <circle cx="61.2" cy="72.6" r=".2"/>
  <circle cx="61.7" cy="75.5" r=".2"/>
  <circle cx="59.2" cy="77.2" r=".2"/>
  <circle cx="58.5" cy="80.1" r=".2"/>
  <circle cx="55.8" cy="80.9" r=".2"/>
  <circle cx="54" cy="83" r=".2"/>
  <circle cx="51" cy="82.8" r=".2"/>
  <circle cx="48.6" cy="84.2" r=".2"/>
  <circle cx="45.9" cy="82.8" r=".2"/>
  <circle cx="43.1" cy="83.2" r=".2"/>
  <circle cx="41.3" cy="80.8" r=".2"/>
  <circle cx="38.5" cy="80" r=".2"/>
  <circle cx="37.7" cy="77.2" r=".2"/>
  <circle cx="35.3" cy="75.5" r=".2"/>
  <circle cx="35.9" cy="72.6" r=".2"/>
  <circle cx="34.3" cy="70" r=".2"/>
  <circle cx="35.8" cy="67.5" r=".2"/>
  <circle cx="35.5" cy="64.7" r=".2"/>
  <circle cx="37.7" cy="62.8" r=".2"/>
  <path fill="none" stroke="#000" stroke-linecap="round" stroke-linejoin="round" stroke-width=".4" d="M8 7.9h62v124.31H8z"/>
</svg>
