<svg xmlns="http://www.w3.org/2000/svg" viewBox="0 0 78 140">
  <rect width="78" height="140" rx="6" ry="6" fill="#fff"/>
  <circle cx="23.7" cy="25.8" r="13.1" fill="none" stroke="#000" stroke-linecap="round" stroke-linejoin="round" stroke-width=".4"/>
  <circle cx="23.7" cy="25.8" r="12.1"/>
  <circle cx="23.7" cy="25.8" r="9.4" fill="none" stroke="#ed1e79" stroke-linecap="round" stroke-linejoin="round" stroke-width=".4"/>
  <path d="M23.2 15.4a10.4 10.4 0 1 0 10.9 9.9 10.4 10.4 0 0 0-10.9-9.9zm1 18.7a8.3 8.3 0 0 1-8.8-7.9 8.4 8.4 0 1 1 16.7-.8 8.3 8.3 0 0 1-7.9 8.7z" fill="#febf10"/>
  <circle cx="23.7" cy="25.8" r="5.6" fill="red"/>
  <path d="M28.7 23.2a6.8 6.8 0 0 1 .2 1.4 6 6 0 0 1-5.8 6.4h-1.6a7 7 0 0 0 2.5.5 5.6 5.6 0 0 0 5.3-5.9 4.6 4.6 0 0 0-.6-2.4z" fill="#980805"/>
  <circle cx="23.8" cy="14.6" r=".7" fill="#febf10"/>
  <circle cx="23.8" cy="14.6" r=".1"/>
  <circle cx="23.8" cy="37" r=".7" fill="#febf10"/>
  <circle cx="23.8" cy="37" r=".1"/>
  <path d="M26.2 23.1c.9-.1.8.2 1.8.5s-.7-1.3-1.8-1.3a2.1 2.1 0 0 0-2.1 2.1c0 .2-.1.4 0 .6a2.9 2.9 0 0 1 2.1-1.9zm-5 0a6.1 6.1 0 0 0-1.8.5c-.1-.2.7-1.3 1.8-1.3a1.8 1.8 0 0 1 2 1.7c0 .3-.7-1-2-.9zm.8 4.7s1-.5 1.3-.4l.4.2a.8.8 0 0 1 .5-.2l1.5.6s-1.8-.3-2 .1a2.2 2.2 0 0 0-1.6-.2c-1.1.3-.1-.1-.1-.1zm-.1.4l1.7.4 2-.4a1.8 1.8 0 0 1-1 .7 3.1 3.1 0 0 1-1.9-.1 2.1 2.1 0 0 1-.8-.6z" fill="#980805"/>
  <path d="M22.4 24.4a1.7 1.7 0 0 0-2.5-.4m2.3.5a2 2 0 0 1-1.9.2m4.8-.3a1.7 1.7 0 0 1 2.5-.4m-2.3.5a2 2 0 0 0 1.9.2" fill="none" stroke="#000" stroke-linecap="round" stroke-linejoin="round" stroke-width=".3"/>
  <path d="M19.4 23.5a1.9 1.9 0 0 1 1.8-1.2 2 2 0 0 1 1.8 1.2m5 0a2 2 0 0 0-1.8-1.2c-1.8 0-2.2 2.1-2 3.2s.6.3.4.6-.3.3-.3.3h-1.1m-.5-.7a.5.5 0 0 0 .5.8m2.9 1.5a4.5 4.5 0 0 1-2.4 1 4 4 0 0 1-2.3-1c.6.1 1.9-1 2.3-.4s1.3.4 2.4.4z" fill="none" stroke="#000" stroke-linecap="round" stroke-linejoin="round" stroke-width=".3"/>
  <path d="M25.9 28a4 4 0 0 1-2.2.5 3.7 3.7 0 0 1-2.2-.5c.1 0 2-.3 2.2.1s2.1-.1 2.2-.1zM22 26.9a9 9 0 0 0-1.2 1.9m4.6-1.9a6.1 6.1 0 0 1 1.2 1.9" fill="none" stroke="#000" stroke-linecap="round" stroke-linejoin="round" stroke-width=".3"/>
  <path d="M25.1 24.4h2.3a1.4 1.4 0 0 0-1.6-.1z" stroke="#000" stroke-linecap="round" stroke-linejoin="round" stroke-width=".3"/>
  <path fill="#0065b7" stroke="#000" stroke-linecap="round" stroke-linejoin="round" stroke-width=".3" d="M27.8 24.4h-.4"/>
  <path d="M22.4 24.4h-2.3a1.4 1.4 0 0 1 1.6-.1z" stroke="#000" stroke-linecap="round" stroke-linejoin="round" stroke-width=".3"/>
  <path fill="#0065b7" stroke="#000" stroke-linecap="round" stroke-linejoin="round" stroke-width=".3" d="M19.8 24.4h.3"/>
  <path d="M22.7 29.9a1.2 1.2 0 0 1 1-.5 1.3 1.3 0 0 1 .9.4m.5-8.1a2.1 2.1 0 0 1-1.3.3 1.9 1.9 0 0 1-1.2-.3" fill="none" stroke="#000" stroke-linecap="round" stroke-linejoin="round" stroke-width=".3"/>
  <circle cx="23.8" cy="18.8" r="1.1" fill="#febf10" stroke="#000" stroke-linecap="round" stroke-linejoin="round" stroke-width=".4"/>
  <circle cx="23.8" cy="18.8" r=".2"/>
  <circle cx="23.8" cy="32.8" r="1.1" fill="#febf10" stroke="#000" stroke-linecap="round" stroke-linejoin="round" stroke-width=".4"/>
  <circle cx="23.8" cy="32.8" r=".2"/>
  <circle cx="30.8" cy="25.8" r="1.1" fill="#febf10" stroke="#000" stroke-linecap="round" stroke-linejoin="round" stroke-width=".4"/>
  <circle cx="30.8" cy="25.8" r=".2"/>
  <circle cx="16.8" cy="25.8" r="1.1" fill="#febf10" stroke="#000" stroke-linecap="round" stroke-linejoin="round" stroke-width=".4"/>
  <circle cx="16.8" cy="25.8" r=".2"/>
  <circle cx="28.7" cy="20.9" r="1.1" fill="#febf10" stroke="#000" stroke-linecap="round" stroke-linejoin="round" stroke-width=".4"/>
  <circle cx="28.7" cy="20.9" r=".2"/>
  <circle cx="18.8" cy="30.7" r="1.1" fill="#febf10" stroke="#000" stroke-linecap="round" stroke-linejoin="round" stroke-width=".4"/>
  <circle cx="18.8" cy="30.7" r=".2"/>
  <circle cx="28.7" cy="30.7" r="1.1" fill="#febf10" stroke="#000" stroke-linecap="round" stroke-linejoin="round" stroke-width=".4"/>
  <circle cx="28.7" cy="30.7" r=".2"/>
  <circle cx="18.8" cy="20.9" r="1.1" fill="#febf10" stroke="#000" stroke-linecap="round" stroke-linejoin="round" stroke-width=".4"/>
  <circle cx="18.8" cy="20.9" r=".2"/>
  <circle cx="30.3" cy="23.2" r="1.1" fill="#febf10" stroke="#000" stroke-linecap="round" stroke-linejoin="round" stroke-width=".4"/>
  <circle cx="30.3" cy="23.2" r=".2"/>
  <circle cx="17.3" cy="28.4" r="1.1" fill="#febf10" stroke="#000" stroke-linecap="round" stroke-linejoin="round" stroke-width=".4"/>
  <circle cx="17.3" cy="28.4" r=".2"/>
  <circle cx="26.4" cy="32.3" r="1.1" fill="#febf10" stroke="#000" stroke-linecap="round" stroke-linejoin="round" stroke-width=".4"/>
  <circle cx="26.4" cy="32.3" r=".2"/>
  <circle cx="21.2" cy="19.3" r="1.1" fill="#febf10" stroke="#000" stroke-linecap="round" stroke-linejoin="round" stroke-width=".4"/>
  <circle cx="21.2" cy="19.3" r=".2"/>
  <circle cx="30.3" cy="28.4" r="1.1" fill="#febf10" stroke="#000" stroke-linecap="round" stroke-linejoin="round" stroke-width=".4"/>
  <circle cx="30.3" cy="28.4" r=".2"/>
  <circle cx="17.3" cy="23.2" r="1.1" fill="#febf10" stroke="#000" stroke-linecap="round" stroke-linejoin="round" stroke-width=".4"/>
  <circle cx="17.3" cy="23.2" r=".2"/>
  <circle cx="21.2" cy="32.3" r="1.1" fill="#febf10" stroke="#000" stroke-linecap="round" stroke-linejoin="round" stroke-width=".4"/>
  <circle cx="21.2" cy="32.3" r=".2"/>
  <circle cx="26.4" cy="19.3" r="1.1" fill="#febf10" stroke="#000" stroke-linecap="round" stroke-linejoin="round" stroke-width=".4"/>
  <circle cx="26.4" cy="19.3" r=".2"/>
  <circle cx="35" cy="25.8" r=".7" fill="#febf10"/>
  <circle cx="35" cy="25.8" r=".1"/>
  <circle cx="12.6" cy="25.8" r=".7" fill="#febf10"/>
  <circle cx="12.6" cy="25.8" r=".1"/>
  <circle cx="31.7" cy="17.9" r=".7" fill="#febf10"/>
  <circle cx="31.7" cy="17.9" r=".1"/>
  <circle cx="15.9" cy="33.7" r=".7" fill="#febf10"/>
  <circle cx="15.9" cy="33.7" r=".1"/>
  <circle cx="31.7" cy="33.7" r=".7" fill="#febf10"/>
  <circle cx="31.7" cy="33.7" r=".1"/>
  <circle cx="15.9" cy="17.8" r=".7" fill="#febf10"/>
  <circle cx="15.9" cy="17.8" r=".1"/>
  <circle cx="27.9" cy="15.4" r=".7" fill="#febf10"/>
  <circle cx="27.9" cy="15.4" r=".1"/>
  <circle cx="19.6" cy="36.2" r=".7" fill="#febf10"/>
  <circle cx="19.6" cy="36.2" r=".1"/>
  <circle cx="34.2" cy="29.9" r=".7" fill="#febf10"/>
  <circle cx="34.2" cy="29.9" r=".1"/>
  <circle cx="13.4" cy="21.6" r=".7" fill="#febf10"/>
  <circle cx="13.4" cy="21.6" r=".1"/>
  <circle cx="34.1" cy="21.4" r=".7" fill="#febf10"/>
  <circle cx="34.1" cy="21.4" r=".1"/>
  <circle cx="13.5" cy="30.2" r=".7" fill="#febf10"/>
  <circle cx="13.5" cy="30.2" r=".1"/>
  <circle cx="28.2" cy="36.1" r=".7" fill="#febf10"/>
  <circle cx="28.2" cy="36.1" r=".1"/>
  <circle cx="19.4" cy="15.5" r=".7" fill="#febf10"/>
  <circle cx="19.4" cy="15.5" r=".1"/>
  <circle cx="29.9" cy="16.4" r=".7" fill="#febf10"/>
  <circle cx="29.9" cy="16.4" r=".1"/>
  <circle cx="17.6" cy="35.2" r=".7" fill="#febf10"/>
  <circle cx="17.6" cy="35.2" r=".1"/>
  <circle cx="33.2" cy="31.9" r=".7" fill="#febf10"/>
  <circle cx="33.2" cy="31.9" r=".1"/>
  <circle cx="14.4" cy="19.6" r=".7" fill="#febf10"/>
  <circle cx="14.4" cy="19.6" r=".1"/>
  <circle cx="34.7" cy="23.5" r=".7" fill="#febf10"/>
  <circle cx="34.7" cy="23.5" r=".1"/>
  <circle cx="12.8" cy="28.1" r=".7" fill="#febf10"/>
  <circle cx="12.8" cy="28.1" r=".1"/>
  <circle cx="26.1" cy="36.8" r=".7" fill="#febf10"/>
  <circle cx="26.1" cy="36.8" r=".1"/>
  <circle cx="21.5" cy="14.8" r=".7" fill="#febf10"/>
  <circle cx="21.5" cy="14.8" r=".1"/>
  <circle cx="33.1" cy="19.5" r=".7" fill="#febf10"/>
  <circle cx="33.1" cy="19.5" r=".1"/>
  <circle cx="14.5" cy="32" r=".7" fill="#febf10"/>
  <circle cx="14.5" cy="32" r=".1"/>
  <circle cx="30.1" cy="35.1" r=".7" fill="#febf10"/>
  <circle cx="30.1" cy="35.1" r=".1"/>
  <circle cx="17.5" cy="16.5" r=".7" fill="#febf10"/>
  <circle cx="17.5" cy="16.5" r=".1"/>
  <circle cx="34.8" cy="27.9" r=".7" fill="#febf10"/>
  <circle cx="34.8" cy="27.9" r=".1"/>
  <circle cx="12.8" cy="23.6" r=".7" fill="#febf10"/>
  <circle cx="12.8" cy="23.6" r=".1"/>
  <circle cx="21.7" cy="36.8" r=".7" fill="#febf10"/>
  <circle cx="21.7" cy="36.8" r=".1"/>
  <circle cx="26" cy="14.8" r=".7" fill="#febf10"/>
  <circle cx="26" cy="14.8" r=".1"/>
  <path fill="none" stroke="#000" stroke-linecap="round" stroke-linejoin="round" stroke-width=".4" d="M23.8 17.4l2-1.7 1.2 2.4 2.5-.9.2 2.7 2.7.2-.9 2.5 2.5 1.2-1.8 2 1.8 2.1-2.5 1.1.9 2.6-2.7.2-.2 2.7-2.5-.9-1.2 2.4-2-1.8-2 1.8-1.2-2.4-2.6.9-.1-2.7-2.7-.2.8-2.6-2.4-1.1 1.8-2.1-1.8-2 2.4-1.2-.8-2.5 2.7-.2.1-2.7 2.6.9 1.2-2.4 2 1.7z"/>
  <circle cx="17" cy="19" r=".1"/>
  <circle cx="18.8" cy="18.3" r=".1"/>
  <circle cx="20.1" cy="16.8" r=".1"/>
  <circle cx="22.1" cy="17" r=".1"/>
  <circle cx="25.6" cy="17.1" r=".1"/>
  <circle cx="23.8" cy="16.1" r=".1"/>
  <circle cx="27.5" cy="16.9" r=".1"/>
  <circle cx="28.7" cy="18.4" r=".1"/>
  <circle cx="30.7" cy="19" r=".1"/>
  <circle cx="31.2" cy="20.8" r=".1"/>
  <circle cx="32.7" cy="22.1" r=".1"/>
  <circle cx="32.4" cy="24" r=".1"/>
  <circle cx="33.5" cy="25.8" r=".1"/>
  <circle cx="32.4" cy="27.5" r=".1"/>
  <circle cx="32.8" cy="29.5" r=".1"/>
  <circle cx="31.1" cy="30.7" r=".1"/>
  <circle cx="30.6" cy="32.7" r=".1"/>
  <circle cx="28.7" cy="33.2" r=".1"/>
  <circle cx="27.5" cy="34.7" r=".1"/>
  <circle cx="25.5" cy="34.5" r=".1"/>
  <circle cx="23.8" cy="35.5" r=".1"/>
  <circle cx="22" cy="34.5" r=".1"/>
  <circle cx="20.1" cy="34.8" r=".1"/>
  <circle cx="18.8" cy="33.2" r=".1"/>
  <circle cx="16.9" cy="32.6" r=".1"/>
  <circle cx="16.4" cy="30.7" r=".1"/>
  <circle cx="14.7" cy="29.5" r=".1"/>
  <circle cx="15.1" cy="27.5" r=".1"/>
  <circle cx="14" cy="25.7" r=".1"/>
  <circle cx="15" cy="24.1" r=".1"/>
  <circle cx="14.8" cy="22.1" r=".1"/>
  <circle cx="16.4" cy="20.9" r=".1"/>
  <circle cx="54.2" cy="25.8" r="13.1" fill="none" stroke="#000" stroke-linecap="round" stroke-linejoin="round" stroke-width=".4"/>
  <circle cx="54.2" cy="25.8" r="12.1"/>
  <circle cx="54.2" cy="25.8" r="9.4" fill="none" stroke="#ed1e79" stroke-linecap="round" stroke-linejoin="round" stroke-width=".4"/>
  <path d="M53.7 15.4a10.4 10.4 0 1 0 10.9 9.9 10.4 10.4 0 0 0-10.9-9.9zm1 18.7a8.3 8.3 0 0 1-8.8-7.9 8.4 8.4 0 1 1 16.7-.8 8.3 8.3 0 0 1-7.9 8.7z" fill="#febf10"/>
  <circle cx="54.2" cy="25.8" r="5.6" fill="red"/>
  <path d="M59.2 23.2a6.8 6.8 0 0 1 .2 1.4 6 6 0 0 1-5.8 6.4H52a7 7 0 0 0 2.5.5 5.6 5.6 0 0 0 5.3-5.9 4.6 4.6 0 0 0-.6-2.4z" fill="#980805"/>
  <circle cx="54.3" cy="14.6" r=".7" fill="#febf10"/>
  <circle cx="54.3" cy="14.6" r=".1"/>
  <circle cx="54.3" cy="37" r=".7" fill="#febf10"/>
  <circle cx="54.3" cy="37" r=".1"/>
  <path d="M56.7 23.1c.9-.1.8.2 1.8.5s-.7-1.3-1.8-1.3a2.1 2.1 0 0 0-2.1 2.1c0 .2-.1.4 0 .6a2.9 2.9 0 0 1 2.1-1.9zm-5 0a6.1 6.1 0 0 0-1.8.5c-.1-.2.7-1.3 1.8-1.3a1.8 1.8 0 0 1 2 1.7c0 .3-.7-1-2-.9zm.8 4.7s1-.5 1.3-.4l.4.2a.8.8 0 0 1 .5-.2l1.5.6s-1.8-.3-2 .1a2.2 2.2 0 0 0-1.6-.2c-1.1.3-.1-.1-.1-.1zm-.1.4l1.7.4 2-.4a1.8 1.8 0 0 1-1 .7 3.1 3.1 0 0 1-1.9-.1 2.1 2.1 0 0 1-.8-.6z" fill="#980805"/>
  <path d="M52.9 24.4a1.7 1.7 0 0 0-2.5-.4m2.3.5a2 2 0 0 1-1.9.2m4.8-.3a1.7 1.7 0 0 1 2.5-.4m-2.3.5a2 2 0 0 0 1.9.2" fill="none" stroke="#000" stroke-linecap="round" stroke-linejoin="round" stroke-width=".3"/>
  <path d="M49.9 23.5a1.9 1.9 0 0 1 1.8-1.2 2 2 0 0 1 1.8 1.2m5 0a2 2 0 0 0-1.8-1.2c-1.8 0-2.2 2.1-2 3.2s.6.3.4.6-.3.3-.3.3h-1.1m-.5-.7a.5.5 0 0 0 .5.8m2.9 1.5a4.5 4.5 0 0 1-2.4 1 4 4 0 0 1-2.3-1c.6.1 1.9-1 2.3-.4s1.3.4 2.4.4z" fill="none" stroke="#000" stroke-linecap="round" stroke-linejoin="round" stroke-width=".3"/>
  <path d="M56.4 28a4 4 0 0 1-2.2.5A3.7 3.7 0 0 1 52 28c.1 0 2-.3 2.2.1s2.1-.1 2.2-.1zm-3.9-1.1a9 9 0 0 0-1.2 1.9m4.6-1.9a6.1 6.1 0 0 1 1.2 1.9" fill="none" stroke="#000" stroke-linecap="round" stroke-linejoin="round" stroke-width=".3"/>
  <path d="M55.6 24.4h2.3a1.4 1.4 0 0 0-1.6-.1z" stroke="#000" stroke-linecap="round" stroke-linejoin="round" stroke-width=".3"/>
  <path fill="#0065b7" stroke="#000" stroke-linecap="round" stroke-linejoin="round" stroke-width=".3" d="M58.3 24.4h-.4"/>
  <path d="M52.9 24.4h-2.3a1.4 1.4 0 0 1 1.6-.1z" stroke="#000" stroke-linecap="round" stroke-linejoin="round" stroke-width=".3"/>
  <path fill="#0065b7" stroke="#000" stroke-linecap="round" stroke-linejoin="round" stroke-width=".3" d="M50.3 24.4h.3"/>
  <path d="M53.2 29.9a1.2 1.2 0 0 1 1-.5 1.3 1.3 0 0 1 .9.4m.5-8.1a2.1 2.1 0 0 1-1.3.3 1.9 1.9 0 0 1-1.2-.3" fill="none" stroke="#000" stroke-linecap="round" stroke-linejoin="round" stroke-width=".3"/>
  <circle cx="54.3" cy="18.8" r="1.1" fill="#febf10" stroke="#000" stroke-linecap="round" stroke-linejoin="round" stroke-width=".4"/>
  <circle cx="54.3" cy="18.8" r=".2"/>
  <circle cx="54.3" cy="32.8" r="1.1" fill="#febf10" stroke="#000" stroke-linecap="round" stroke-linejoin="round" stroke-width=".4"/>
  <circle cx="54.3" cy="32.8" r=".2"/>
  <circle cx="61.3" cy="25.8" r="1.1" fill="#febf10" stroke="#000" stroke-linecap="round" stroke-linejoin="round" stroke-width=".4"/>
  <circle cx="61.3" cy="25.8" r=".2"/>
  <circle cx="47.3" cy="25.8" r="1.1" fill="#febf10" stroke="#000" stroke-linecap="round" stroke-linejoin="round" stroke-width=".4"/>
  <circle cx="47.3" cy="25.8" r=".2"/>
  <circle cx="59.2" cy="20.9" r="1.1" fill="#febf10" stroke="#000" stroke-linecap="round" stroke-linejoin="round" stroke-width=".4"/>
  <circle cx="59.2" cy="20.9" r=".2"/>
  <circle cx="49.3" cy="30.7" r="1.1" fill="#febf10" stroke="#000" stroke-linecap="round" stroke-linejoin="round" stroke-width=".4"/>
  <circle cx="49.3" cy="30.7" r=".2"/>
  <circle cx="59.2" cy="30.7" r="1.1" fill="#febf10" stroke="#000" stroke-linecap="round" stroke-linejoin="round" stroke-width=".4"/>
  <circle cx="59.2" cy="30.7" r=".2"/>
  <circle cx="49.3" cy="20.9" r="1.1" fill="#febf10" stroke="#000" stroke-linecap="round" stroke-linejoin="round" stroke-width=".4"/>
  <circle cx="49.3" cy="20.9" r=".2"/>
  <circle cx="60.8" cy="23.2" r="1.1" fill="#febf10" stroke="#000" stroke-linecap="round" stroke-linejoin="round" stroke-width=".4"/>
  <circle cx="60.8" cy="23.2" r=".2"/>
  <circle cx="47.8" cy="28.4" r="1.1" fill="#febf10" stroke="#000" stroke-linecap="round" stroke-linejoin="round" stroke-width=".4"/>
  <circle cx="47.8" cy="28.4" r=".2"/>
  <circle cx="56.9" cy="32.3" r="1.1" fill="#febf10" stroke="#000" stroke-linecap="round" stroke-linejoin="round" stroke-width=".4"/>
  <circle cx="56.9" cy="32.3" r=".2"/>
  <circle cx="51.7" cy="19.3" r="1.1" fill="#febf10" stroke="#000" stroke-linecap="round" stroke-linejoin="round" stroke-width=".4"/>
  <circle cx="51.7" cy="19.3" r=".2"/>
  <circle cx="60.8" cy="28.4" r="1.1" fill="#febf10" stroke="#000" stroke-linecap="round" stroke-linejoin="round" stroke-width=".4"/>
  <circle cx="60.8" cy="28.4" r=".2"/>
  <circle cx="47.8" cy="23.2" r="1.1" fill="#febf10" stroke="#000" stroke-linecap="round" stroke-linejoin="round" stroke-width=".4"/>
  <circle cx="47.8" cy="23.2" r=".2"/>
  <circle cx="51.7" cy="32.3" r="1.1" fill="#febf10" stroke="#000" stroke-linecap="round" stroke-linejoin="round" stroke-width=".4"/>
  <circle cx="51.7" cy="32.3" r=".2"/>
  <circle cx="56.9" cy="19.3" r="1.1" fill="#febf10" stroke="#000" stroke-linecap="round" stroke-linejoin="round" stroke-width=".4"/>
  <circle cx="56.9" cy="19.3" r=".2"/>
  <circle cx="65.5" cy="25.8" r=".7" fill="#febf10"/>
  <circle cx="65.5" cy="25.8" r=".1"/>
  <circle cx="43.1" cy="25.8" r=".7" fill="#febf10"/>
  <circle cx="43.1" cy="25.8" r=".1"/>
  <circle cx="62.2" cy="17.9" r=".7" fill="#febf10"/>
  <circle cx="62.2" cy="17.9" r=".1"/>
  <circle cx="46.4" cy="33.7" r=".7" fill="#febf10"/>
  <circle cx="46.4" cy="33.7" r=".1"/>
  <circle cx="62.2" cy="33.7" r=".7" fill="#febf10"/>
  <circle cx="62.2" cy="33.7" r=".1"/>
  <circle cx="46.4" cy="17.8" r=".7" fill="#febf10"/>
  <circle cx="46.4" cy="17.8" r=".1"/>
  <circle cx="58.4" cy="15.4" r=".7" fill="#febf10"/>
  <circle cx="58.4" cy="15.4" r=".1"/>
  <circle cx="50.1" cy="36.2" r=".7" fill="#febf10"/>
  <circle cx="50.1" cy="36.2" r=".1"/>
  <circle cx="64.7" cy="29.9" r=".7" fill="#febf10"/>
  <circle cx="64.7" cy="29.9" r=".1"/>
  <circle cx="43.9" cy="21.6" r=".7" fill="#febf10"/>
  <circle cx="43.9" cy="21.6" r=".1"/>
  <circle cx="64.6" cy="21.4" r=".7" fill="#febf10"/>
  <circle cx="64.6" cy="21.4" r=".1"/>
  <circle cx="44" cy="30.2" r=".7" fill="#febf10"/>
  <circle cx="44" cy="30.2" r=".1"/>
  <circle cx="58.7" cy="36.1" r=".7" fill="#febf10"/>
  <circle cx="58.7" cy="36.1" r=".1"/>
  <circle cx="49.9" cy="15.5" r=".7" fill="#febf10"/>
  <circle cx="49.9" cy="15.5" r=".1"/>
  <circle cx="60.4" cy="16.4" r=".7" fill="#febf10"/>
  <circle cx="60.4" cy="16.4" r=".1"/>
  <circle cx="48.1" cy="35.2" r=".7" fill="#febf10"/>
  <circle cx="48.1" cy="35.2" r=".1"/>
  <circle cx="63.7" cy="31.9" r=".7" fill="#febf10"/>
  <circle cx="63.7" cy="31.9" r=".1"/>
  <circle cx="44.9" cy="19.6" r=".7" fill="#febf10"/>
  <circle cx="44.9" cy="19.6" r=".1"/>
  <circle cx="65.2" cy="23.5" r=".7" fill="#febf10"/>
  <circle cx="65.2" cy="23.5" r=".1"/>
  <circle cx="43.3" cy="28.1" r=".7" fill="#febf10"/>
  <circle cx="43.3" cy="28.1" r=".1"/>
  <circle cx="56.6" cy="36.8" r=".7" fill="#febf10"/>
  <circle cx="56.6" cy="36.8" r=".1"/>
  <circle cx="52" cy="14.8" r=".7" fill="#febf10"/>
  <circle cx="52" cy="14.8" r=".1"/>
  <circle cx="63.6" cy="19.5" r=".7" fill="#febf10"/>
  <circle cx="63.6" cy="19.5" r=".1"/>
  <circle cx="45" cy="32" r=".7" fill="#febf10"/>
  <circle cx="45" cy="32" r=".1"/>
  <circle cx="60.6" cy="35.1" r=".7" fill="#febf10"/>
  <circle cx="60.6" cy="35.1" r=".1"/>
  <circle cx="48" cy="16.5" r=".7" fill="#febf10"/>
  <circle cx="48" cy="16.5" r=".1"/>
  <circle cx="65.3" cy="27.9" r=".7" fill="#febf10"/>
  <circle cx="65.3" cy="27.9" r=".1"/>
  <circle cx="43.3" cy="23.6" r=".7" fill="#febf10"/>
  <circle cx="43.3" cy="23.6" r=".1"/>
  <circle cx="52.2" cy="36.8" r=".7" fill="#febf10"/>
  <circle cx="52.2" cy="36.8" r=".1"/>
  <circle cx="56.5" cy="14.8" r=".7" fill="#febf10"/>
  <circle cx="56.5" cy="14.8" r=".1"/>
  <path fill="none" stroke="#000" stroke-linecap="round" stroke-linejoin="round" stroke-width=".4" d="M54.3 17.4l2-1.7 1.2 2.4 2.5-.9.2 2.7 2.7.2-.9 2.5 2.5 1.2-1.8 2 1.8 2.1L62 29l.9 2.6-2.7.2-.2 2.7-2.5-.9-1.2 2.4-2-1.8-2 1.8-1.2-2.4-2.6.9-.1-2.7-2.7-.2.8-2.6-2.4-1.1 1.8-2.1-1.8-2 2.4-1.2-.8-2.5 2.7-.2.1-2.7 2.6.9 1.2-2.4 2 1.7z"/>
  <circle cx="47.5" cy="19" r=".1"/>
  <circle cx="49.3" cy="18.3" r=".1"/>
  <circle cx="50.6" cy="16.8" r=".1"/>
  <circle cx="52.6" cy="17" r=".1"/>
  <circle cx="56.1" cy="17.1" r=".1"/>
  <circle cx="54.3" cy="16.1" r=".1"/>
  <circle cx="58" cy="16.9" r=".1"/>
  <circle cx="59.2" cy="18.4" r=".1"/>
  <circle cx="61.2" cy="19" r=".1"/>
  <circle cx="61.7" cy="20.8" r=".1"/>
  <circle cx="63.2" cy="22.1" r=".1"/>
  <circle cx="62.9" cy="24" r=".1"/>
  <circle cx="64" cy="25.8" r=".1"/>
  <circle cx="62.9" cy="27.5" r=".1"/>
  <circle cx="63.3" cy="29.5" r=".1"/>
  <circle cx="61.6" cy="30.7" r=".1"/>
  <circle cx="61.1" cy="32.7" r=".1"/>
  <circle cx="59.2" cy="33.2" r=".1"/>
  <circle cx="58" cy="34.7" r=".1"/>
  <circle cx="56" cy="34.5" r=".1"/>
  <circle cx="54.3" cy="35.5" r=".1"/>
  <circle cx="52.5" cy="34.5" r=".1"/>
  <circle cx="50.6" cy="34.8" r=".1"/>
  <circle cx="49.3" cy="33.2" r=".1"/>
  <circle cx="47.4" cy="32.6" r=".1"/>
  <circle cx="46.9" cy="30.7" r=".1"/>
  <circle cx="45.2" cy="29.5" r=".1"/>
  <circle cx="45.6" cy="27.5" r=".1"/>
  <circle cx="44.5" cy="25.7" r=".1"/>
  <circle cx="45.5" cy="24.1" r=".1"/>
  <circle cx="45.3" cy="22.1" r=".1"/>
  <circle cx="46.9" cy="20.9" r=".1"/>
  <circle cx="23.7" cy="114.2" r="13.1" fill="none" stroke="#000" stroke-linecap="round" stroke-linejoin="round" stroke-width=".4"/>
  <circle cx="23.7" cy="114.2" r="12.1"/>
  <circle cx="23.7" cy="114.2" r="9.4" fill="none" stroke="#ed1e79" stroke-linecap="round" stroke-linejoin="round" stroke-width=".4"/>
  <path d="M23.2 103.9a10.3 10.3 0 0 0-9.8 10.8 10.4 10.4 0 1 0 20.7-1 10.3 10.3 0 0 0-10.9-9.8zm1 18.7a8.4 8.4 0 1 1 7.9-8.8 8.3 8.3 0 0 1-7.9 8.8z" fill="#febf10"/>
  <circle cx="23.7" cy="114.2" r="5.6" fill="red"/>
  <path d="M28.7 111.7a5.9 5.9 0 0 1 .2 1.3 6.2 6.2 0 0 1-5.8 6.5l-1.6-.2a4.3 4.3 0 0 0 2.5.5 5.5 5.5 0 0 0 5.3-5.8 4.4 4.4 0 0 0-.6-2.3z" fill="#980805"/>
  <circle cx="23.8" cy="103.1" r=".7" fill="#febf10"/>
  <circle cx="23.8" cy="103.1" r=".1"/>
  <circle cx="23.8" cy="125.5" r=".7" fill="#febf10"/>
  <circle cx="23.8" cy="125.5" r=".1"/>
  <path d="M26.2 111.6c.9-.1.8.1 1.8.4s-.7-1.3-1.8-1.3a2.1 2.1 0 0 0-2.1 2.1c0 .3-.1.5 0 .7a2.7 2.7 0 0 1 2.1-1.9zm-5 0c-1 0-.8.1-1.8.4s.7-1.3 1.8-1.3a1.9 1.9 0 0 1 2 1.8c0 .2-.7-1-2-.9zm.8 4.7s1-.5 1.3-.4l.4.2a.5.5 0 0 1 .5-.2l1.5.5s-1.8-.2-2 .1a2.6 2.6 0 0 0-1.6-.1c-1.1.2-.1-.1-.1-.1zm-.1.4l1.7.3 2-.3a2.1 2.1 0 0 1-1 .6 3.1 3.1 0 0 1-1.9 0z" fill="#980805"/>
  <path d="M22.4 112.8a1.8 1.8 0 0 0-2.5-.4m2.3.6a2 2 0 0 1-1.9.2m4.8-.4a1.8 1.8 0 0 1 2.5-.4m-2.3.6a2 2 0 0 0 1.9.2" fill="none" stroke="#000" stroke-linecap="round" stroke-linejoin="round" stroke-width=".3"/>
  <path d="M19.4 112a2 2 0 0 1 1.8-1.3A1.9 1.9 0 0 1 23 112m5 0a1.9 1.9 0 0 0-1.8-1.3c-1.8 0-2.2 2.1-2 3.3s.6.3.4.6-.3.2-.3.2l-1.1.1m-.5-.7a.5.5 0 0 0 .5.7m2.9 1.5a4.3 4.3 0 0 1-2.4 1.1 3.9 3.9 0 0 1-2.3-1.1c.6.2 1.9-.9 2.3-.3s1.3.4 2.4.3z" fill="none" stroke="#000" stroke-linecap="round" stroke-linejoin="round" stroke-width=".3"/>
  <path d="M25.9 116.5a4 4 0 0 1-2.2.5 4.9 4.9 0 0 1-2.2-.5c.1-.1 2-.3 2.2 0s2.1 0 2.2 0zm-3.9-1.2a9 9 0 0 0-1.2 1.9m4.6-1.9a6.1 6.1 0 0 1 1.2 1.9" fill="none" stroke="#000" stroke-linecap="round" stroke-linejoin="round" stroke-width=".3"/>
  <path d="M25.1 112.8h2.3a1.5 1.5 0 0 0-1.6 0z" stroke="#000" stroke-linecap="round" stroke-linejoin="round" stroke-width=".3"/>
  <path fill="#0065b7" stroke="#000" stroke-linecap="round" stroke-linejoin="round" stroke-width=".3" d="M27.8 112.8h-.4"/>
  <path d="M22.4 112.8h-2.3a1.5 1.5 0 0 1 1.6 0z" stroke="#000" stroke-linecap="round" stroke-linejoin="round" stroke-width=".3"/>
  <path fill="#0065b7" stroke="#000" stroke-linecap="round" stroke-linejoin="round" stroke-width=".3" d="M19.8 112.8h.3"/>
  <path d="M22.7 118.3a1.5 1.5 0 0 1 1-.4 1 1 0 0 1 .9.4m.5-8.1a3.1 3.1 0 0 1-1.3.3 1.9 1.9 0 0 1-1.2-.3" fill="none" stroke="#000" stroke-linecap="round" stroke-linejoin="round" stroke-width=".3"/>
  <circle cx="23.8" cy="107.3" r="1.1" fill="#febf10" stroke="#000" stroke-linecap="round" stroke-linejoin="round" stroke-width=".4"/>
  <circle cx="23.8" cy="107.3" r=".2"/>
  <circle cx="23.8" cy="121.3" r="1.1" fill="#febf10" stroke="#000" stroke-linecap="round" stroke-linejoin="round" stroke-width=".4"/>
  <circle cx="23.8" cy="121.3" r=".2"/>
  <circle cx="30.8" cy="114.3" r="1.1" fill="#febf10" stroke="#000" stroke-linecap="round" stroke-linejoin="round" stroke-width=".4"/>
  <circle cx="30.8" cy="114.3" r=".2"/>
  <circle cx="16.8" cy="114.3" r="1.1" fill="#febf10" stroke="#000" stroke-linecap="round" stroke-linejoin="round" stroke-width=".4"/>
  <circle cx="16.8" cy="114.3" r=".2"/>
  <circle cx="28.7" cy="109.3" r="1.1" fill="#febf10" stroke="#000" stroke-linecap="round" stroke-linejoin="round" stroke-width=".4"/>
  <circle cx="28.7" cy="109.3" r=".2"/>
  <circle cx="18.8" cy="119.2" r="1.1" fill="#febf10" stroke="#000" stroke-linecap="round" stroke-linejoin="round" stroke-width=".4"/>
  <circle cx="18.8" cy="119.2" r=".2"/>
  <circle cx="28.7" cy="119.2" r="1.1" fill="#febf10" stroke="#000" stroke-linecap="round" stroke-linejoin="round" stroke-width=".4"/>
  <circle cx="28.7" cy="119.2" r=".2"/>
  <circle cx="18.8" cy="109.3" r="1.1" fill="#febf10" stroke="#000" stroke-linecap="round" stroke-linejoin="round" stroke-width=".4"/>
  <circle cx="18.8" cy="109.3" r=".2"/>
  <circle cx="30.3" cy="111.7" r="1.1" fill="#febf10" stroke="#000" stroke-linecap="round" stroke-linejoin="round" stroke-width=".4"/>
  <circle cx="30.3" cy="111.7" r=".2"/>
  <circle cx="17.3" cy="116.9" r="1.1" fill="#febf10" stroke="#000" stroke-linecap="round" stroke-linejoin="round" stroke-width=".4"/>
  <circle cx="17.3" cy="116.9" r=".2"/>
  <circle cx="26.4" cy="120.8" r="1.1" fill="#febf10" stroke="#000" stroke-linecap="round" stroke-linejoin="round" stroke-width=".4"/>
  <circle cx="26.4" cy="120.8" r=".2"/>
  <circle cx="21.2" cy="107.8" r="1.1" fill="#febf10" stroke="#000" stroke-linecap="round" stroke-linejoin="round" stroke-width=".4"/>
  <circle cx="21.2" cy="107.8" r=".2"/>
  <circle cx="30.3" cy="116.9" r="1.1" fill="#febf10" stroke="#000" stroke-linecap="round" stroke-linejoin="round" stroke-width=".4"/>
  <circle cx="30.3" cy="116.9" r=".2"/>
  <circle cx="17.3" cy="111.6" r="1.1" fill="#febf10" stroke="#000" stroke-linecap="round" stroke-linejoin="round" stroke-width=".4"/>
  <circle cx="17.3" cy="111.6" r=".2"/>
  <circle cx="21.2" cy="120.7" r="1.1" fill="#febf10" stroke="#000" stroke-linecap="round" stroke-linejoin="round" stroke-width=".4"/>
  <circle cx="21.2" cy="120.7" r=".2"/>
  <circle cx="26.4" cy="107.8" r="1.1" fill="#febf10" stroke="#000" stroke-linecap="round" stroke-linejoin="round" stroke-width=".4"/>
  <circle cx="26.4" cy="107.8" r=".2"/>
  <circle cx="35" cy="114.2" r=".7" fill="#febf10"/>
  <circle cx="35" cy="114.2" r=".1"/>
  <circle cx="12.6" cy="114.2" r=".7" fill="#febf10"/>
  <circle cx="12.6" cy="114.2" r=".1"/>
  <circle cx="31.7" cy="106.3" r=".7" fill="#febf10"/>
  <circle cx="31.7" cy="106.3" r=".1"/>
  <circle cx="15.9" cy="122.2" r=".7" fill="#febf10"/>
  <circle cx="15.9" cy="122.2" r=".1"/>
  <circle cx="31.7" cy="122.2" r=".7" fill="#febf10"/>
  <circle cx="31.7" cy="122.2" r=".1"/>
  <circle cx="15.9" cy="106.3" r=".7" fill="#febf10"/>
  <circle cx="15.9" cy="106.3" r=".1"/>
  <circle cx="27.9" cy="103.9" r=".7" fill="#febf10"/>
  <circle cx="27.9" cy="103.9" r=".1"/>
  <circle cx="19.6" cy="124.7" r=".7" fill="#febf10"/>
  <circle cx="19.6" cy="124.7" r=".1"/>
  <circle cx="34.2" cy="118.4" r=".7" fill="#febf10"/>
  <circle cx="34.2" cy="118.4" r=".1"/>
  <circle cx="13.4" cy="110.1" r=".7" fill="#febf10"/>
  <circle cx="13.4" cy="110.1" r=".1"/>
  <circle cx="34.1" cy="109.8" r=".7" fill="#febf10"/>
  <circle cx="34.1" cy="109.8" r=".1"/>
  <circle cx="13.5" cy="118.7" r=".7" fill="#febf10"/>
  <circle cx="13.5" cy="118.7" r=".1"/>
  <circle cx="28.2" cy="124.6" r=".7" fill="#febf10"/>
  <circle cx="28.2" cy="124.6" r=".1"/>
  <circle cx="19.4" cy="103.9" r=".7" fill="#febf10"/>
  <circle cx="19.4" cy="103.9" r=".1"/>
  <circle cx="29.9" cy="104.9" r=".7" fill="#febf10"/>
  <circle cx="29.9" cy="104.9" r=".1"/>
  <circle cx="17.6" cy="123.6" r=".7" fill="#febf10"/>
  <circle cx="17.6" cy="123.6" r=".1"/>
  <circle cx="33.2" cy="120.4" r=".7" fill="#febf10"/>
  <circle cx="33.2" cy="120.4" r=".1"/>
  <circle cx="14.4" cy="108.1" r=".7" fill="#febf10"/>
  <circle cx="14.4" cy="108.1" r=".1"/>
  <circle cx="34.7" cy="112" r=".7" fill="#febf10"/>
  <circle cx="34.7" cy="112" r=".1"/>
  <circle cx="12.8" cy="116.5" r=".7" fill="#febf10"/>
  <circle cx="12.8" cy="116.5" r=".1"/>
  <circle cx="26.1" cy="125.2" r=".7" fill="#febf10"/>
  <circle cx="26.1" cy="125.2" r=".1"/>
  <circle cx="21.5" cy="103.3" r=".7" fill="#febf10"/>
  <circle cx="21.5" cy="103.3" r=".1"/>
  <circle cx="33.1" cy="108" r=".7" fill="#febf10"/>
  <circle cx="33.1" cy="108" r=".1"/>
  <circle cx="14.5" cy="120.5" r=".7" fill="#febf10"/>
  <circle cx="14.5" cy="120.5" r=".1"/>
  <circle cx="30.1" cy="123.5" r=".7" fill="#febf10"/>
  <circle cx="30.1" cy="123.5" r=".1"/>
  <circle cx="17.5" cy="104.9" r=".7" fill="#febf10"/>
  <circle cx="17.5" cy="104.9" r=".1"/>
  <circle cx="34.8" cy="116.4" r=".7" fill="#febf10"/>
  <circle cx="34.8" cy="116.4" r=".1"/>
  <circle cx="12.8" cy="112.1" r=".7" fill="#febf10"/>
  <circle cx="12.8" cy="112.1" r=".1"/>
  <circle cx="21.7" cy="125.3" r=".7" fill="#febf10"/>
  <circle cx="21.7" cy="125.3" r=".1"/>
  <circle cx="26" cy="103.2" r=".7" fill="#febf10"/>
  <circle cx="26" cy="103.2" r=".1"/>
  <path fill="none" stroke="#000" stroke-linecap="round" stroke-linejoin="round" stroke-width=".4" d="M23.8 105.9l2-1.8 1.2 2.4 2.5-.8.2 2.7 2.7.1-.9 2.6 2.5 1.2-1.8 2 1.8 2-2.5 1.2.9 2.5-2.7.2-.2 2.7-2.5-.9-1.2 2.5-2-1.8-2 1.8-1.2-2.5-2.6.9-.1-2.7-2.7-.2.8-2.5-2.4-1.2 1.8-2-1.8-2 2.4-1.2-.8-2.6 2.7-.1.1-2.7 2.6.8 1.2-2.4 2 1.8z"/>
  <circle cx="17" cy="107.5" r=".1"/>
  <circle cx="18.8" cy="106.8" r=".1"/>
  <circle cx="20.1" cy="105.3" r=".1"/>
  <circle cx="22.1" cy="105.5" r=".1"/>
  <circle cx="25.6" cy="105.6" r=".1"/>
  <circle cx="23.8" cy="104.5" r=".1"/>
  <circle cx="27.5" cy="105.4" r=".1"/>
  <circle cx="28.7" cy="106.9" r=".1"/>
  <circle cx="30.7" cy="107.4" r=".1"/>
  <circle cx="31.2" cy="109.3" r=".1"/>
  <circle cx="32.7" cy="110.5" r=".1"/>
  <circle cx="32.4" cy="112.5" r=".1"/>
  <circle cx="33.5" cy="114.3" r=".1"/>
  <circle cx="32.4" cy="116" r=".1"/>
  <circle cx="32.8" cy="118" r=".1"/>
  <circle cx="31.1" cy="119.2" r=".1"/>
  <circle cx="30.6" cy="121.1" r=".1"/>
  <circle cx="28.7" cy="121.7" r=".1"/>
  <circle cx="27.5" cy="123.1" r=".1"/>
  <circle cx="25.5" cy="123" r=".1"/>
  <circle cx="23.8" cy="123.9" r=".1"/>
  <circle cx="22" cy="123" r=".1"/>
  <circle cx="20.1" cy="123.2" r=".1"/>
  <circle cx="18.8" cy="121.6" r=".1"/>
  <circle cx="16.9" cy="121.1" r=".1"/>
  <circle cx="16.4" cy="119.2" r=".1"/>
  <circle cx="14.7" cy="118" r=".1"/>
  <circle cx="15.1" cy="116" r=".1"/>
  <circle cx="14" cy="114.2" r=".1"/>
  <circle cx="15" cy="112.5" r=".1"/>
  <circle cx="14.8" cy="110.6" r=".1"/>
  <circle cx="16.4" cy="109.3" r=".1"/>
  <circle cx="54.2" cy="114.2" r="13.1" fill="none" stroke="#000" stroke-linecap="round" stroke-linejoin="round" stroke-width=".4"/>
  <circle cx="54.2" cy="114.2" r="12.1"/>
  <circle cx="54.2" cy="114.2" r="9.4" fill="none" stroke="#ed1e79" stroke-linecap="round" stroke-linejoin="round" stroke-width=".4"/>
  <path d="M53.7 103.9a10.3 10.3 0 0 0-9.8 10.8 10.4 10.4 0 1 0 20.7-1 10.3 10.3 0 0 0-10.9-9.8zm1 18.7a8.4 8.4 0 1 1 7.9-8.8 8.3 8.3 0 0 1-7.9 8.8z" fill="#febf10"/>
  <circle cx="54.2" cy="114.2" r="5.6" fill="red"/>
  <path d="M59.2 111.7a5.9 5.9 0 0 1 .2 1.3 6.2 6.2 0 0 1-5.8 6.5l-1.6-.2a4.3 4.3 0 0 0 2.5.5 5.5 5.5 0 0 0 5.3-5.8 4.4 4.4 0 0 0-.6-2.3z" fill="#980805"/>
  <circle cx="54.3" cy="103.1" r=".7" fill="#febf10"/>
  <circle cx="54.3" cy="103.1" r=".1"/>
  <circle cx="54.3" cy="125.5" r=".7" fill="#febf10"/>
  <circle cx="54.3" cy="125.5" r=".1"/>
  <path d="M56.7 111.6c.9-.1.8.1 1.8.4s-.7-1.3-1.8-1.3a2.1 2.1 0 0 0-2.1 2.1c0 .3-.1.5 0 .7a2.7 2.7 0 0 1 2.1-1.9zm-5 0c-1 0-.8.1-1.8.4s.7-1.3 1.8-1.3a1.9 1.9 0 0 1 2 1.8c0 .2-.7-1-2-.9zm.8 4.7s1-.5 1.3-.4l.4.2a.5.5 0 0 1 .5-.2l1.5.5s-1.8-.2-2 .1a2.6 2.6 0 0 0-1.6-.1c-1.1.2-.1-.1-.1-.1zm-.1.4l1.7.3 2-.3a2.1 2.1 0 0 1-1 .6 3.1 3.1 0 0 1-1.9 0z" fill="#980805"/>
  <path d="M52.9 112.8a1.8 1.8 0 0 0-2.5-.4m2.3.6a2 2 0 0 1-1.9.2m4.8-.4a1.8 1.8 0 0 1 2.5-.4m-2.3.6a2 2 0 0 0 1.9.2" fill="none" stroke="#000" stroke-linecap="round" stroke-linejoin="round" stroke-width=".3"/>
  <path d="M49.9 112a2 2 0 0 1 1.8-1.3 1.9 1.9 0 0 1 1.8 1.3m5 0a1.9 1.9 0 0 0-1.8-1.3c-1.8 0-2.2 2.1-2 3.3s.6.3.4.6-.3.2-.3.2l-1.1.1m-.5-.7a.5.5 0 0 0 .5.7m2.9 1.5a4.3 4.3 0 0 1-2.4 1.1 3.9 3.9 0 0 1-2.3-1.1c.6.2 1.9-.9 2.3-.3s1.3.4 2.4.3z" fill="none" stroke="#000" stroke-linecap="round" stroke-linejoin="round" stroke-width=".3"/>
  <path d="M56.4 116.5a4 4 0 0 1-2.2.5 4.9 4.9 0 0 1-2.2-.5c.1-.1 2-.3 2.2 0s2.1 0 2.2 0zm-3.9-1.2a9 9 0 0 0-1.2 1.9m4.6-1.9a6.1 6.1 0 0 1 1.2 1.9" fill="none" stroke="#000" stroke-linecap="round" stroke-linejoin="round" stroke-width=".3"/>
  <path d="M55.6 112.8h2.3a1.5 1.5 0 0 0-1.6 0z" stroke="#000" stroke-linecap="round" stroke-linejoin="round" stroke-width=".3"/>
  <path fill="#0065b7" stroke="#000" stroke-linecap="round" stroke-linejoin="round" stroke-width=".3" d="M58.3 112.8h-.4"/>
  <path d="M52.9 112.8h-2.3a1.5 1.5 0 0 1 1.6 0z" stroke="#000" stroke-linecap="round" stroke-linejoin="round" stroke-width=".3"/>
  <path fill="#0065b7" stroke="#000" stroke-linecap="round" stroke-linejoin="round" stroke-width=".3" d="M50.3 112.8h.3"/>
  <path d="M53.2 118.3a1.5 1.5 0 0 1 1-.4 1 1 0 0 1 .9.4m.5-8.1a3.1 3.1 0 0 1-1.3.3 1.9 1.9 0 0 1-1.2-.3" fill="none" stroke="#000" stroke-linecap="round" stroke-linejoin="round" stroke-width=".3"/>
  <circle cx="54.3" cy="107.3" r="1.1" fill="#febf10" stroke="#000" stroke-linecap="round" stroke-linejoin="round" stroke-width=".4"/>
  <circle cx="54.3" cy="107.3" r=".2"/>
  <circle cx="54.3" cy="121.3" r="1.1" fill="#febf10" stroke="#000" stroke-linecap="round" stroke-linejoin="round" stroke-width=".4"/>
  <circle cx="54.3" cy="121.3" r=".2"/>
  <circle cx="61.3" cy="114.3" r="1.1" fill="#febf10" stroke="#000" stroke-linecap="round" stroke-linejoin="round" stroke-width=".4"/>
  <circle cx="61.3" cy="114.3" r=".2"/>
  <circle cx="47.3" cy="114.3" r="1.1" fill="#febf10" stroke="#000" stroke-linecap="round" stroke-linejoin="round" stroke-width=".4"/>
  <circle cx="47.3" cy="114.3" r=".2"/>
  <circle cx="59.2" cy="109.3" r="1.1" fill="#febf10" stroke="#000" stroke-linecap="round" stroke-linejoin="round" stroke-width=".4"/>
  <circle cx="59.2" cy="109.3" r=".2"/>
  <circle cx="49.3" cy="119.2" r="1.1" fill="#febf10" stroke="#000" stroke-linecap="round" stroke-linejoin="round" stroke-width=".4"/>
  <circle cx="49.3" cy="119.2" r=".2"/>
  <circle cx="59.2" cy="119.2" r="1.1" fill="#febf10" stroke="#000" stroke-linecap="round" stroke-linejoin="round" stroke-width=".4"/>
  <circle cx="59.2" cy="119.2" r=".2"/>
  <circle cx="49.3" cy="109.3" r="1.1" fill="#febf10" stroke="#000" stroke-linecap="round" stroke-linejoin="round" stroke-width=".4"/>
  <circle cx="49.3" cy="109.3" r=".2"/>
  <circle cx="60.8" cy="111.7" r="1.1" fill="#febf10" stroke="#000" stroke-linecap="round" stroke-linejoin="round" stroke-width=".4"/>
  <circle cx="60.8" cy="111.7" r=".2"/>
  <circle cx="47.8" cy="116.9" r="1.1" fill="#febf10" stroke="#000" stroke-linecap="round" stroke-linejoin="round" stroke-width=".4"/>
  <circle cx="47.8" cy="116.9" r=".2"/>
  <circle cx="56.9" cy="120.8" r="1.1" fill="#febf10" stroke="#000" stroke-linecap="round" stroke-linejoin="round" stroke-width=".4"/>
  <circle cx="56.9" cy="120.8" r=".2"/>
  <circle cx="51.7" cy="107.8" r="1.1" fill="#febf10" stroke="#000" stroke-linecap="round" stroke-linejoin="round" stroke-width=".4"/>
  <circle cx="51.7" cy="107.8" r=".2"/>
  <circle cx="60.8" cy="116.9" r="1.1" fill="#febf10" stroke="#000" stroke-linecap="round" stroke-linejoin="round" stroke-width=".4"/>
  <circle cx="60.8" cy="116.9" r=".2"/>
  <circle cx="47.8" cy="111.6" r="1.1" fill="#febf10" stroke="#000" stroke-linecap="round" stroke-linejoin="round" stroke-width=".4"/>
  <circle cx="47.8" cy="111.6" r=".2"/>
  <circle cx="51.7" cy="120.7" r="1.1" fill="#febf10" stroke="#000" stroke-linecap="round" stroke-linejoin="round" stroke-width=".4"/>
  <circle cx="51.7" cy="120.7" r=".2"/>
  <circle cx="56.9" cy="107.8" r="1.1" fill="#febf10" stroke="#000" stroke-linecap="round" stroke-linejoin="round" stroke-width=".4"/>
  <circle cx="56.9" cy="107.8" r=".2"/>
  <circle cx="65.5" cy="114.2" r=".7" fill="#febf10"/>
  <circle cx="65.5" cy="114.2" r=".1"/>
  <circle cx="43.1" cy="114.2" r=".7" fill="#febf10"/>
  <circle cx="43.1" cy="114.2" r=".1"/>
  <circle cx="62.2" cy="106.3" r=".7" fill="#febf10"/>
  <circle cx="62.2" cy="106.3" r=".1"/>
  <circle cx="46.4" cy="122.2" r=".7" fill="#febf10"/>
  <circle cx="46.4" cy="122.2" r=".1"/>
  <circle cx="62.2" cy="122.2" r=".7" fill="#febf10"/>
  <circle cx="62.2" cy="122.2" r=".1"/>
  <circle cx="46.4" cy="106.3" r=".7" fill="#febf10"/>
  <circle cx="46.4" cy="106.3" r=".1"/>
  <circle cx="58.4" cy="103.9" r=".7" fill="#febf10"/>
  <circle cx="58.4" cy="103.9" r=".1"/>
  <circle cx="50.1" cy="124.7" r=".7" fill="#febf10"/>
  <circle cx="50.1" cy="124.7" r=".1"/>
  <circle cx="64.7" cy="118.4" r=".7" fill="#febf10"/>
  <circle cx="64.7" cy="118.4" r=".1"/>
  <circle cx="43.9" cy="110.1" r=".7" fill="#febf10"/>
  <circle cx="43.9" cy="110.1" r=".1"/>
  <circle cx="64.6" cy="109.8" r=".7" fill="#febf10"/>
  <circle cx="64.6" cy="109.8" r=".1"/>
  <circle cx="44" cy="118.7" r=".7" fill="#febf10"/>
  <circle cx="44" cy="118.7" r=".1"/>
  <circle cx="58.7" cy="124.6" r=".7" fill="#febf10"/>
  <circle cx="58.7" cy="124.6" r=".1"/>
  <circle cx="49.9" cy="103.9" r=".7" fill="#febf10"/>
  <circle cx="49.9" cy="103.9" r=".1"/>
  <circle cx="60.4" cy="104.9" r=".7" fill="#febf10"/>
  <circle cx="60.4" cy="104.9" r=".1"/>
  <circle cx="48.1" cy="123.6" r=".7" fill="#febf10"/>
  <circle cx="48.1" cy="123.6" r=".1"/>
  <circle cx="63.7" cy="120.4" r=".7" fill="#febf10"/>
  <circle cx="63.7" cy="120.4" r=".1"/>
  <circle cx="44.9" cy="108.1" r=".7" fill="#febf10"/>
  <circle cx="44.9" cy="108.1" r=".1"/>
  <circle cx="65.2" cy="112" r=".7" fill="#febf10"/>
  <circle cx="65.2" cy="112" r=".1"/>
  <circle cx="43.3" cy="116.5" r=".7" fill="#febf10"/>
  <circle cx="43.3" cy="116.5" r=".1"/>
  <circle cx="56.6" cy="125.2" r=".7" fill="#febf10"/>
  <circle cx="56.6" cy="125.2" r=".1"/>
  <circle cx="52" cy="103.3" r=".7" fill="#febf10"/>
  <circle cx="52" cy="103.3" r=".1"/>
  <circle cx="63.6" cy="108" r=".7" fill="#febf10"/>
  <circle cx="63.6" cy="108" r=".1"/>
  <circle cx="45" cy="120.5" r=".7" fill="#febf10"/>
  <circle cx="45" cy="120.5" r=".1"/>
  <circle cx="60.6" cy="123.5" r=".7" fill="#febf10"/>
  <circle cx="60.6" cy="123.5" r=".1"/>
  <circle cx="48" cy="104.9" r=".7" fill="#febf10"/>
  <circle cx="48" cy="104.9" r=".1"/>
  <circle cx="65.3" cy="116.4" r=".7" fill="#febf10"/>
  <circle cx="65.3" cy="116.4" r=".1"/>
  <circle cx="43.3" cy="112.1" r=".7" fill="#febf10"/>
  <circle cx="43.3" cy="112.1" r=".1"/>
  <circle cx="52.2" cy="125.3" r=".7" fill="#febf10"/>
  <circle cx="52.2" cy="125.3" r=".1"/>
  <circle cx="56.5" cy="103.2" r=".7" fill="#febf10"/>
  <circle cx="56.5" cy="103.2" r=".1"/>
  <path fill="none" stroke="#000" stroke-linecap="round" stroke-linejoin="round" stroke-width=".4" d="M54.3 105.9l2-1.8 1.2 2.4 2.5-.8.2 2.7 2.7.1-.9 2.6 2.5 1.2-1.8 2 1.8 2-2.5 1.2.9 2.5-2.7.2-.2 2.7-2.5-.9-1.2 2.5-2-1.8-2 1.8-1.2-2.5-2.6.9-.1-2.7-2.7-.2.8-2.5-2.4-1.2 1.8-2-1.8-2 2.4-1.2-.8-2.6 2.7-.1.1-2.7 2.6.8 1.2-2.4 2 1.8z"/>
  <circle cx="47.5" cy="107.5" r=".1"/>
  <circle cx="49.3" cy="106.8" r=".1"/>
  <circle cx="50.6" cy="105.3" r=".1"/>
  <circle cx="52.6" cy="105.5" r=".1"/>
  <circle cx="56.1" cy="105.6" r=".1"/>
  <circle cx="54.3" cy="104.5" r=".1"/>
  <circle cx="58" cy="105.4" r=".1"/>
  <circle cx="59.2" cy="106.9" r=".1"/>
  <circle cx="61.2" cy="107.4" r=".1"/>
  <circle cx="61.7" cy="109.3" r=".1"/>
  <circle cx="63.2" cy="110.5" r=".1"/>
  <circle cx="62.9" cy="112.5" r=".1"/>
  <circle cx="64" cy="114.3" r=".1"/>
  <circle cx="62.9" cy="116" r=".1"/>
  <circle cx="63.3" cy="118" r=".1"/>
  <circle cx="61.6" cy="119.2" r=".1"/>
  <circle cx="61.1" cy="121.1" r=".1"/>
  <circle cx="59.2" cy="121.7" r=".1"/>
  <circle cx="58" cy="123.1" r=".1"/>
  <circle cx="56" cy="123" r=".1"/>
  <circle cx="54.3" cy="123.9" r=".1"/>
  <circle cx="52.5" cy="123" r=".1"/>
  <circle cx="50.6" cy="123.2" r=".1"/>
  <circle cx="49.3" cy="121.6" r=".1"/>
  <circle cx="47.4" cy="121.1" r=".1"/>
  <circle cx="46.9" cy="119.2" r=".1"/>
  <circle cx="45.2" cy="118" r=".1"/>
  <circle cx="45.6" cy="116" r=".1"/>
  <circle cx="44.5" cy="114.2" r=".1"/>
  <circle cx="45.5" cy="112.5" r=".1"/>
  <circle cx="45.3" cy="110.6" r=".1"/>
  <circle cx="46.9" cy="109.3" r=".1"/>
  <path d="M29.7 75a2.7 2.7 0 0 1 .5 1.1.1.1 0 0 1-.1.1h-.2c-.1 0-.1 0-.1-.1a1.6 1.6 0 0 0-.3-.9 1.4 1.4 0 0 0-1.9 0 1.3 1.3 0 0 0-.1 1.8 2.1 2.1 0 0 0 .7.5l.5-.4-.4-.4.2-.2h.1l.5.6c.1.1.1.1 0 .2l-.8.7a2.9 2.9 0 0 1-1-.6 1.7 1.7 0 0 1 .1-2.4 1.6 1.6 0 0 1 2.3 0zm2.4 1.8a1.5 1.5 0 0 1 .6 2.2 1.5 1.5 0 0 1-2.2.7 1.6 1.6 0 0 1-.7-2.2 1.8 1.8 0 0 1 2.3-.7zm-1.4 2.6a1.3 1.3 0 0 0 1.8-.5 1.3 1.3 0 0 0-.6-1.8 1.3 1.3 0 0 0-1.8.5 1.3 1.3 0 0 0 .6 1.8zm3.3-1.7h.3l-.7 2.8 1.3.3c0 .1 0 .1-.1.1l-1.5-.4h-.1zm4.4.6a1.8 1.8 0 0 1 1.1.4v.2h-.3a1.2 1.2 0 0 0-.8-.4 1.4 1.4 0 0 0-1.4 1.4 1.3 1.3 0 0 0 1.3 1.3c.4.1.6-.1.9-.3h.1v.2a1.5 1.5 0 0 1-1.1.4 1.6 1.6 0 0 1-1.6-1.7 1.5 1.5 0 0 1 1.8-1.5zm1.5 3.2l1.1-3.3h.2l1.7 2.9c0 .1 0 .1-.1.1h-.2l-.5-.7-1.6.2-.2.8h-.4zm2.1-1.3l-.9-1.4-.5 1.6zm.8-2.2h.1l1.1-.3a1 1 0 0 1 .9 1.7l1 .9v.2h-.3l-.9-1-.9.3.4 1.1c0 .1 0 .1-.1.1h-.2zm1.7 1.1a.5.5 0 0 0 .4-.8.7.7 0 0 0-.8-.4l-.8.3.4 1.2zm1-1.9c-.1-.1-.1-.1 0-.2l.8-.6a1.6 1.6 0 0 1 2.3.5 1.5 1.5 0 0 1-.5 2.2l-.8.6h-.1zm2.4 1.7a1.3 1.3 0 1 0-1.5-2.1l-.5.3 1.4 2.2zm2-1.8v-.2c-.1 0-.1-.1 0-.1a1.4 1.4 0 0 0 .8-.4.6.6 0 0 0 0-.8c-.3-.2-.6-.1-1.1.2s-.9.4-1.3 0a.8.8 0 0 1 0-1.2 1.4 1.4 0 0 1 .7-.5h.1c.1.1.1.2 0 .2a1.1 1.1 0 0 0-.6.3.7.7 0 0 0 0 .9.8.8 0 0 0 .9-.1c.6-.4 1.1-.5 1.5-.2a.9.9 0 0 1 0 1.3 1.4 1.4 0 0 1-.9.5s-.1.2-.1.1z" stroke="#000" stroke-miterlimit="10" stroke-width=".05"/>
  <path fill="#fbc219" stroke="#000" stroke-linecap="round" stroke-linejoin="round" stroke-width=".4" d="M40.9 70.5l-2.3-1.2-2.2 1.2.4-2.5-1.8-1.8 2.5-.4 1.1-2.3 1.1 2.3 2.6.4-1.9 1.7.5 2.6z"/>
  <path fill="#fbc219" d="M32.5 58.4h12.3v1.93H32.5z"/>
  <path d="M30.4 69.6h-2.1a.3.3 0 0 1-.3-.3l.7-1.3-.7-1.1c0-.2.1-.4.3-.4h2.1c.2 0 .3.2.3.4v2.4a.3.3 0 0 1-.3.3z" fill="none" stroke="#000" stroke-miterlimit="10" stroke-width=".4"/>
  <path d="M32.4 68.4h-2c-.2 0-.3-.1-.3-.2v-2.6a.3.3 0 0 1 .3-.3h2" fill="#fff" stroke="#000" stroke-miterlimit="10" stroke-width=".4"/>
  <path d="M46.8 69.6h2.1c.2 0 .4-.1.4-.3l-.8-1.3.8-1.1a.4.4 0 0 0-.4-.4h-2.1a.4.4 0 0 0-.3.4v2.4a.3.3 0 0 0 .3.3z" fill="none" stroke="#000" stroke-miterlimit="10" stroke-width=".4"/>
  <path d="M44.8 68.4h2c.2 0 .3-.1.3-.2v-2.6a.3.3 0 0 0-.3-.3h-2" fill="#fff" stroke="#000" stroke-miterlimit="10" stroke-width=".4"/>
  <path d="M44.8 63.2V59a.5.5 0 0 0-.5-.5H33a.6.6 0 0 0-.6.5v10.2a6.2 6.2 0 0 0 6.2 6.2 6.2 6.2 0 0 0 6.2-6.2zm-12.2-2.8h12.2" fill="none" stroke="#000" stroke-miterlimit="10" stroke-width=".4"/>
  <path fill="none" stroke="#000" stroke-linecap="round" stroke-linejoin="round" stroke-width=".4" d="M8 7.9h62v124.31H8z"/>
</svg>
