<svg xmlns="http://www.w3.org/2000/svg" viewBox="0 0 78 140">
  <rect width="78" height="140" rx="6" ry="6" fill="#fff"/>
  <path d="M64.1 70.1s-.9-2.5-1.5-2.7-5.4 2.7-5.4 2.7z" fill="#0d3a12"/>
  <path fill="#c69c6d" d="M14.1 36.7l1.4 3.6.5-3.3-.7-1.2-1.2.9z"/>
  <path d="M68.3 55.9c-.2-5.1-2.5-7.6-7.5-14.8s-9.2-5.6-11.5-5.6a20.5 20.5 0 0 1-5-1l-10.1 4A21.3 21.3 0 0 1 31 42l-1 .8h-.1a22.7 22.7 0 0 0-5.2 7.7 46.4 46.4 0 0 0-1.8 5 24.6 24.6 0 0 0-3.7-6.7c-.6 0-6.2 3.4-6.2 3.4l1.2 1.8c.6.8 3.1 7.7 8 10.3.6.2 3.3-1.2 5.1-2.3a31.4 31.4 0 0 0 6.2-6.4h.2c1.6 3.8 3.3 8 3.8 8.8s.3 3.1.3 3.1-2 1.4-2.1 2.5l21.6.2c.8-1.2 5.8-3 6-3a9.6 9.6 0 0 0-5-4.7l-.7-3.5-2-1.2 1.5.7c3.1 1.5 11.3 2.5 11.2-2.6z" fill="red"/>
  <path fill="#f3bc84" d="M43.8 34.2l1.6.7 3.3.6-1 3.7-7.7 1.6-4.2-.4.7-5.6 3.1.2 3 .3 1.2-1.1z"/>
  <path fill="#004da1" d="M35.8 41.4l.8 5.8L47 45.3l1.1-6.6-7 1.9-5.3.2v.6z"/>
  <path d="M36.4 47l10.8-2.2-3 19.9S36.1 52.4 36.4 47z" fill="#febf10"/>
  <path d="M27.5 19.5a5.3 5.3 0 0 0-1.2 1.9 4.6 4.6 0 0 1 2.2.7 7.6 7.6 0 0 0 .7-1.4" fill="red" stroke="#000" stroke-linecap="round" stroke-linejoin="round" stroke-width=".4"/>
  <path d="M33 18.8s.4-4.6-3.7-3.4-1.8 6.2 2.3 5.3" fill="red"/>
  <path d="M32.3 19.6a4.6 4.6 0 0 0-1.3-1.5c-.8-.4-.8-1-1.3-.2s0 1.2.7 1.7a5.4 5.4 0 0 0 1.5.8z" fill="#980805"/>
  <path d="M33 18.8s.4-4.6-3.7-3.4-1.8 6.2 2.3 5.3" fill="none" stroke="#000" stroke-linecap="round" stroke-linejoin="round" stroke-width=".4"/>
  <path d="M49.2 38.2s7.1 3.8 10.4 7.3 4.2 6.2 4.2 6.2l1 1s-3.4-1-4.9.5-1.9 4.6-.2 6 5.6 1.2 7.4-.8 1.2-6.2-.8-9.2-7-11.3-10.3-12.7a11.7 11.7 0 0 0-6.2-1z" fill="#980805"/>
  <path d="M30.5 17a2 2 0 0 0-.5.5c-.5.7-.9 1.9 1.9 2.8m.5-.6a4.8 4.8 0 0 0-2.4-2.2" fill="none" stroke="#000" stroke-linecap="round" stroke-linejoin="round" stroke-width=".4"/>
  <path d="M44.2 34.4c-.8-.4-3.6.9-3.6.9a6.2 6.2 0 0 0 7.5 1.9l.5-1.7a25.1 25.1 0 0 1-4.4-1.1z" fill="#c69c6d"/>
  <path d="M35.5 41.4a8.7 8.7 0 0 0 2.8.3A20.9 20.9 0 0 0 48.4 39a.8.8 0 0 0 .3-1 .7.7 0 0 0-1-.3A19.2 19.2 0 0 1 35.8 40zm11.7 3.9a21.3 21.3 0 0 1-8.2 2.5 21.9 21.9 0 0 1-2.8 0l.2-1.5a18.7 18.7 0 0 0 10.8-2.7z" fill="#febf10" stroke="#000" stroke-linecap="round" stroke-linejoin="round" stroke-width=".4"/>
  <path d="M49.9 35.5c-2 6-3.4 19-4.7 31.4a1.1 1.1 0 0 1-.6.7h-.2a.6.6 0 0 1-.6-.4c-.5-.7-11.1-18.7-8.3-29.9a.8.8 0 0 1 .9-.6.7.7 0 0 1 .5.9c-2 8.5 4.4 22.1 7 26.9 1.3-11.7 2.5-23.4 4.4-29.1" fill="#0065b7" stroke="#000" stroke-linecap="round" stroke-linejoin="round" stroke-width=".4"/>
  <ellipse cx="48.1" cy="49.9" rx="3" ry="1.1" transform="rotate(-62.2 48.1 49.93)" fill="#d09b07" stroke="#000" stroke-linecap="round" stroke-linejoin="round" stroke-width=".4"/>
  <path d="M49.4 33.3a.7.7 0 0 0 0-.9 8.8 8.8 0 0 1-1.5-3.9 9.6 9.6 0 0 0-1-3 6.2 6.2 0 0 0-3.3-2.8.7.7 0 0 0-.9.5.8.8 0 0 0 .5 1 4.6 4.6 0 0 1 2.4 2.1 7.5 7.5 0 0 1 .8 2.4 10 10 0 0 0 1.8 4.6.9.9 0 0 0 1.1.2c0-.1.1-.1.1-.2z" fill="#856353" stroke="#000" stroke-linecap="round" stroke-linejoin="round" stroke-width=".4"/>
  <path d="M47.6 34.2a.8.8 0 0 0 .3-.9 7.5 7.5 0 0 1-.6-4.2A8.8 8.8 0 0 0 47 26a6.3 6.3 0 0 0-2.6-3.5.8.8 0 0 0-1 .3.8.8 0 0 0 .3 1 5.1 5.1 0 0 1 1.9 2.7 7.2 7.2 0 0 1 .2 2.5 9.4 9.4 0 0 0 .7 4.9.7.7 0 0 0 1 .4z" fill="#856353" stroke="#000" stroke-linecap="round" stroke-linejoin="round" stroke-width=".4"/>
  <path d="M46.4 34.5a1 1 0 0 0 .2-.9 7.5 7.5 0 0 1-.6-4.2 8.6 8.6 0 0 0-.3-3.1 6.5 6.5 0 0 0-2.5-3.5.8.8 0 0 0-1.1.3.8.8 0 0 0 .3 1 5.1 5.1 0 0 1 1.9 2.7 7.1 7.1 0 0 1 .2 2.5 9.4 9.4 0 0 0 .7 4.9 1 1 0 0 0 1 .4c0-.1.1-.1.2-.1z" fill="#856353" stroke="#000" stroke-linecap="round" stroke-linejoin="round" stroke-width=".4"/>
  <circle cx="18.3" cy="27.1" r="8.5" fill="#fff" stroke="#000" stroke-linecap="round" stroke-linejoin="round" stroke-width=".4"/>
  <circle cx="18.3" cy="27.1" r="7.9"/>
  <circle cx="18.3" cy="27.1" r="6.1" fill="none" stroke="#ed1e79" stroke-linecap="round" stroke-linejoin="round" stroke-width=".4"/>
  <circle cx="18.3" cy="27.1" r="6.7" fill="#d09b07" stroke="#000" stroke-miterlimit="10" stroke-width=".4"/>
  <path fill="#856353" stroke="#000" stroke-linecap="round" stroke-linejoin="round" stroke-width=".4" d="M18.3 20.4l.8 2.6 1.8-2.1-.3 2.7 2.4-1.2-1.2 2.4 2.7-.3-2.1 1.8 2.6.8-2.6.8 2.1 1.8-2.7-.3 1.2 2.4-2.4-1.2.3 2.7-1.8-2.1-.8 2.6-.8-2.6-1.8 2.1.3-2.7-2.4 1.2 1.2-2.4-2.7.3 2.1-1.8-2.6-.8 2.6-.8-2.1-1.8 2.7.3-1.2-2.4 2.4 1.2-.3-2.7 1.8 2.1.8-2.6z"/>
  <circle cx="18.3" cy="19.8" r=".4" fill="#febf10"/>
  <circle cx="18.3" cy="19.8" r=".1"/>
  <circle cx="18.3" cy="34.4" r=".4" fill="#febf10"/>
  <circle cx="18.3" cy="34.4" r=".1"/>
  <circle cx="25.6" cy="27" r=".4" fill="#febf10"/>
  <circle cx="25.6" cy="27" r=".1"/>
  <circle cx="11" cy="27" r=".4" fill="#febf10"/>
  <circle cx="11" cy="27" r=".1"/>
  <circle cx="23.4" cy="21.9" r=".4" fill="#febf10"/>
  <circle cx="23.4" cy="21.9" r=".1"/>
  <circle cx="13.1" cy="32.2" r=".4" fill="#febf10"/>
  <circle cx="13.1" cy="32.2" r=".1"/>
  <circle cx="23.5" cy="32.2" r=".4" fill="#febf10"/>
  <circle cx="23.5" cy="32.2" r=".1"/>
  <circle cx="13.1" cy="21.9" r=".4" fill="#febf10"/>
  <circle cx="13.1" cy="21.9" r=".1"/>
  <circle cx="21" cy="20.3" r=".4" fill="#febf10"/>
  <circle cx="21" cy="20.3" r=".1"/>
  <circle cx="15.6" cy="33.9" r=".4" fill="#febf10"/>
  <circle cx="15.6" cy="33.9" r=".1"/>
  <circle cx="25.1" cy="29.8" r=".4" fill="#febf10"/>
  <circle cx="25.1" cy="29.8" r=".1"/>
  <circle cx="11.5" cy="24.3" r=".4" fill="#febf10"/>
  <circle cx="11.5" cy="24.3" r=".1"/>
  <circle cx="25" cy="24.2" r=".4" fill="#febf10"/>
  <circle cx="25" cy="24.2" r=".1"/>
  <circle cx="11.6" cy="29.9" r=".4" fill="#febf10"/>
  <circle cx="11.6" cy="29.9" r=".1"/>
  <circle cx="21.2" cy="33.8" r=".4" fill="#febf10"/>
  <circle cx="21.2" cy="33.8" r=".1"/>
  <circle cx="15.4" cy="20.3" r=".4" fill="#febf10"/>
  <circle cx="15.4" cy="20.3" r=".1"/>
  <circle cx="22.3" cy="21" r=".4" fill="#febf10"/>
  <circle cx="22.3" cy="21" r=".1"/>
  <circle cx="14.3" cy="33.2" r=".4" fill="#febf10"/>
  <circle cx="14.3" cy="33.2" r=".1"/>
  <circle cx="24.4" cy="31.1" r=".4" fill="#febf10"/>
  <circle cx="24.4" cy="31.1" r=".1"/>
  <circle cx="12.2" cy="23" r=".4" fill="#febf10"/>
  <circle cx="12.2" cy="23" r=".1"/>
  <circle cx="25.4" cy="25.6" r=".4" fill="#febf10"/>
  <circle cx="25.4" cy="25.6" r=".1"/>
  <circle cx="11.1" cy="28.5" r=".4" fill="#febf10"/>
  <circle cx="11.1" cy="28.5" r=".1"/>
  <circle cx="19.8" cy="34.2" r=".4" fill="#febf10"/>
  <circle cx="19.8" cy="34.2" r=".1"/>
  <circle cx="16.8" cy="19.9" r=".4" fill="#febf10"/>
  <circle cx="16.8" cy="19.9" r=".1"/>
  <circle cx="24.3" cy="23" r=".4" fill="#febf10"/>
  <circle cx="24.3" cy="23" r=".1"/>
  <circle cx="12.2" cy="31.1" r=".4" fill="#febf10"/>
  <circle cx="12.2" cy="31.1" r=".1"/>
  <circle cx="22.4" cy="33.1" r=".4" fill="#febf10"/>
  <circle cx="22.4" cy="33.1" r=".1"/>
  <circle cx="14.2" cy="21" r=".4" fill="#febf10"/>
  <circle cx="14.2" cy="21" r=".1"/>
  <circle cx="25.4" cy="28.5" r=".4" fill="#febf10"/>
  <circle cx="25.4" cy="28.5" r=".1"/>
  <circle cx="11.1" cy="25.7" r=".4" fill="#febf10"/>
  <circle cx="11.1" cy="25.7" r=".1"/>
  <circle cx="16.9" cy="34.3" r=".4" fill="#febf10"/>
  <circle cx="16.9" cy="34.3" r=".1"/>
  <circle cx="19.7" cy="19.9" r=".4" fill="#febf10"/>
  <circle cx="19.7" cy="19.9" r=".1"/>
  <circle cx="18.3" cy="27.1" r="4.1" fill="red"/>
  <path d="M21.9 25.2c.1.3.1.6.2 1a4.5 4.5 0 0 1-4.3 4.7h-1.2a4 4 0 0 0 1.9.3 4 4 0 0 0 3.8-4.2 3.3 3.3 0 0 0-.4-1.8zm-1.9-.1c.7-.1.6.1 1.4.3a1.6 1.6 0 0 0-1.4-.9 1.5 1.5 0 0 0-1.5 1.5c0 .2-.1.3 0 .5a2.3 2.3 0 0 1 1.5-1.4zm-3.6 0c-.7 0-.6.1-1.4.3a1.8 1.8 0 0 1 1.4-.9 1.3 1.3 0 0 1 1.4 1.3c0 .2-.5-.8-1.4-.7z" fill="#980805"/>
  <path d="M17 28.6s.7-.4.9-.3h.3s.1-.2.4-.1l1.1.4a3.4 3.4 0 0 1-1.5.8s-1.1-.2-1.4-.7.2-.1.2-.1z" fill="#980805"/>
  <path d="M17.3 26a1.1 1.1 0 0 0-1.8-.3m1.6.4a1.3 1.3 0 0 1-1.4.2m3.6-.3s.5-1.2 1.8-.3m-1.7.4a1.3 1.3 0 0 0 1.4.2" fill="none" stroke="#000" stroke-linecap="round" stroke-linejoin="round" stroke-width=".3"/>
  <path d="M15 25.4a1.6 1.6 0 0 1 1.4-.9 1.4 1.4 0 0 1 1.3.9m3.7 0a1.6 1.6 0 0 0-1.4-.9c-1.3 0-1.6 1.5-1.4 2.4s.4.2.3.4-.3.2-.3.2h-.7m-.4-.5s-.3.5.3.5m2.2 1.2a4 4 0 0 1-1.8.7 3.4 3.4 0 0 1-1.7-.7c.5.1 1.4-.7 1.7-.3s1 .3 1.8.3zm-3-.8a4 4 0 0 0-.9 1.4m3.4-1.4a3.1 3.1 0 0 1 .8 1.4" fill="none" stroke="#000" stroke-linecap="round" stroke-linejoin="round" stroke-width=".3"/>
  <path d="M19.3 26h1.6a.9.9 0 0 0-1.1 0z" stroke="#000" stroke-linecap="round" stroke-linejoin="round" stroke-width=".3"/>
  <path fill="#0065b7" stroke="#000" stroke-linecap="round" stroke-linejoin="round" stroke-width=".3" d="M21.2 26h-.3"/>
  <path d="M17.3 26h-1.7a.9.9 0 0 1 1.1 0z" stroke="#000" stroke-linecap="round" stroke-linejoin="round" stroke-width=".3"/>
  <path fill="#0065b7" stroke="#000" stroke-linecap="round" stroke-linejoin="round" stroke-width=".3" d="M15.3 26h.3"/>
  <path d="M17.5 30.1a1 1 0 0 1 .7-.4 1.5 1.5 0 0 1 .7.3m.4-5.9l-1 .2-.9-.2m-.7 4.6a9.5 9.5 0 0 0 3.1 0" fill="none" stroke="#000" stroke-linecap="round" stroke-linejoin="round" stroke-width=".3"/>
  <circle cx="18.3" cy="27.1" r="4.1" fill="none" stroke="#000" stroke-miterlimit="10" stroke-width=".4"/>
  <circle cx="13.8" cy="22.6" r=".1"/>
  <circle cx="15" cy="22.2" r=".1"/>
  <circle cx="15.9" cy="21.2" r=".1"/>
  <circle cx="17.1" cy="21.4" r=".1"/>
  <circle cx="19.4" cy="21.4" r=".1"/>
  <circle cx="18.3" cy="20.7" r=".1"/>
  <circle cx="20.7" cy="21.3" r=".1"/>
  <circle cx="21.5" cy="22.3" r=".1"/>
  <circle cx="22.8" cy="22.6" r=".1"/>
  <circle cx="23.1" cy="23.8" r=".1"/>
  <circle cx="24.1" cy="24.6" r=".1"/>
  <circle cx="23.9" cy="25.9" r=".1"/>
  <circle cx="24.6" cy="27.1" r=".1"/>
  <circle cx="23.9" cy="28.2" r=".1"/>
  <circle cx="24.1" cy="29.5" r=".1"/>
  <circle cx="23.1" cy="30.3" r=".1"/>
  <circle cx="22.7" cy="31.6" r=".1"/>
  <circle cx="21.5" cy="31.9" r=".1"/>
  <circle cx="20.7" cy="32.9" r=".1"/>
  <circle cx="19.4" cy="32.8" r=".1"/>
  <circle cx="18.3" cy="33.4" r=".1"/>
  <circle cx="17.1" cy="32.8" r=".1"/>
  <circle cx="15.9" cy="32.9" r=".1"/>
  <circle cx="15" cy="31.9" r=".1"/>
  <circle cx="13.8" cy="31.5" r=".1"/>
  <circle cx="13.4" cy="30.3" r=".1"/>
  <circle cx="12.3" cy="29.5" r=".1"/>
  <circle cx="12.6" cy="28.2" r=".1"/>
  <circle cx="11.9" cy="27" r=".1"/>
  <circle cx="12.6" cy="25.9" r=".1"/>
  <circle cx="12.4" cy="24.7" r=".1"/>
  <circle cx="13.4" cy="23.8" r=".1"/>
  <path d="M44 24a22.8 22.8 0 0 0 .9 4.2 6.8 6.8 0 0 1 0 5.3c-.8 2.2-3.2 2-6.9 1.3s-4.2-8.2-3.5-9.1A9.8 9.8 0 0 1 44 24z" fill="#f3bc84"/>
  <path d="M42.8 24.3a18.6 18.6 0 0 0 .7 4.4c.6 1.7.1 5.3-2 6.5 0 0 2.3.3 3-1a6.2 6.2 0 0 0 .9-4.6c-.5-1.6-1.3-5.2-1.3-5.2v-.5z" fill="#c69c6d"/>
  <path d="M44 24a22.8 22.8 0 0 0 .9 4.2 6.8 6.8 0 0 1 0 5.3c-.8 2.2-3.2 2-6.9 1.3s-4.2-8.2-3.5-9.1A9.8 9.8 0 0 1 44 24z" fill="none" stroke="#000" stroke-linecap="round" stroke-linejoin="round" stroke-width=".4"/>
  <path d="M36.2 27.3a2.5 2.5 0 0 1 3.6-1m3-2.1a2.2 2.2 0 0 0-1.6 2.2 3.9 3.9 0 0 0 1.6 2.8c.3.3 0 1.3 0 1.3m-1.7-.5s-.2.7.2.8.7-.2.9-.4l.2-.2m-.1.6l-.1-.4m.7-.2l.4.2" fill="none" stroke="#000" stroke-linecap="round" stroke-linejoin="round" stroke-width=".3"/>
  <path d="M21.4 63.9s5.2-11.7 10.8-11.7l1.5 3.3s-4.5 5.8-7.8 7.3l-3.7 1.6z" fill="#980805"/>
  <path d="M43.1 31.6h-.7c-.2 0-1 1.1-1 1.1l2.6-.9-2.5.9s2.1 1.1 2.7-.9h.1a3.7 3.7 0 0 0-1.2-.2z" fill="red"/>
  <path d="M41 32.7a15.9 15.9 0 0 0 3.4-1m-2.9 1.1s2.1 1.1 2.7-.9m-.1-.2a2.8 2.8 0 0 0-1-.1h-.7c-.2 0-1 .9-1 .9" fill="none" stroke="#000" stroke-linecap="round" stroke-linejoin="round" stroke-width=".3"/>
  <path d="M44.3 34.5a20.5 20.5 0 0 0 5 1c2.3 0 6.5-1.5 11.5 5.6s7.3 9.7 7.5 14.8-8.1 4.1-11.2 2.6a69.3 69.3 0 0 1-9.4-5.6c-.5-.5 3.3-5 3.3-5l2.8 1.6s3.8-.6 6 1.2" fill="none" stroke="#000" stroke-linecap="round" stroke-linejoin="round" stroke-width=".4"/>
  <path d="M63.3 67.1s-5.1 1.6-6 2.9l-.2.2-7.3-.2v-1.2l3.2.4 1.2-2.5 2.9.6 1.6-2.4 3.5.5z" fill="#0065b7"/>
  <path d="M58.4 49.8s2.9-1.4 6.4 2.8M34.2 38.5A21.3 21.3 0 0 1 31 42a18.8 18.8 0 0 0-6.3 8.5l-1.8 4.7" fill="none" stroke="#000" stroke-linecap="round" stroke-linejoin="round" stroke-width=".4"/>
  <path d="M23.3 56.5a23.3 23.3 0 0 0-4.1-7.7c-.6 0-6.2 3.4-6.2 3.4l1.2 1.8c.6.8 3.1 7.7 8 10.3.6.2 3.3-1.2 5.1-2.3s5.7-5.1 6.4-6.7" fill="none" stroke="#000" stroke-linecap="round" stroke-linejoin="round" stroke-width=".4"/>
  <path d="M29.9 42.8a52.5 52.5 0 0 0 2.2 8.6c1.2 2.7 4.7 11.9 5.4 12.9s.3 3.1.3 3.1-2 1.5-2.2 2.6m22-11l.7 3.4a9.6 9.6 0 0 1 5 4.7c-.2 0-5.1 1.6-5.9 2.9" fill="none" stroke="#000" stroke-linecap="round" stroke-linejoin="round" stroke-width=".4"/>
  <path d="M42.9 43.5c-3.6-.9-5.3.2-5.3.4s.8.7 2.3.7a2.7 2.7 0 0 0-.2 1.7c-.3 1.1.2 1.2.2 1.2h.1a2 2 0 0 0-.4.8c-.3 1.9 1.7 1.2 1.7.9a2.1 2.1 0 0 0 .3-.7h.7c1.5.4 3.2 1.6 3.8 1.7a5.3 5.3 0 0 1 1.8 1 4.5 4.5 0 0 0 1.3-3s-2.7-3.9-6.3-4.7z" fill="#f3bc84"/>
  <path d="M40 44.7a1.9 1.9 0 0 0-.3 1.4m2.5-.5s-2.2-.3-2.5.7.2 1.2.2 1.2" fill="none" stroke="#000" stroke-linecap="round" stroke-linejoin="round" stroke-width=".4"/>
  <path d="M41.9 46.9a1.8 1.8 0 0 0-2.3 1.4c-.3 1.9 1.7 1.2 1.7.9a2.1 2.1 0 0 0 .3-.7" fill="none" stroke="#000" stroke-linecap="round" stroke-linejoin="round" stroke-width=".4"/>
  <path d="M40.6 48.7s.2-.6 1.7-.2 3.2 1.6 3.8 1.7a5.3 5.3 0 0 1 1.8 1 4.5 4.5 0 0 0 1.3-3s-2.7-3.9-6.3-4.7-5.3.2-5.3.4.8.7 2.6.7h2.4" fill="none" stroke="#000" stroke-linecap="round" stroke-linejoin="round" stroke-width=".4"/>
  <path d="M54.1 49.1s-.9 4.4-3.7 6.5c0 0-2-.2-3.6-3.3a6.7 6.7 0 0 0 3.3-4.9s.9-.1 4 1.7z" fill="#febf10" stroke="#000" stroke-linecap="round" stroke-linejoin="round" stroke-width=".4"/>
  <path d="M46.8 52.9l-.5-.9.4-.2a4.8 4.8 0 0 0 2.5-4.2v-.5h1v.5a5.7 5.7 0 0 1-3 5z" fill="#febf10" stroke="#000" stroke-linecap="round" stroke-linejoin="round" stroke-width=".4"/>
  <ellipse cx="14.2" cy="44.6" rx="3.2" ry="1.1" transform="rotate(-23.8 14.38 44.66)" fill="#d09b07" stroke="#000" stroke-linecap="round" stroke-linejoin="round" stroke-width=".4"/>
  <path d="M16.3 34.4a25.3 25.3 0 0 0-2.2 1.9s1.5-1.7 1.6-1.6l.6-.3s.3-1.7-1.1-1.9l-1.1.2s-.4-.9-1.2-.5-1.9 2.5-2.1 3-.4 1.9.4 4.3l1.8 6.3 2.7-1.2a17.5 17.5 0 0 0-.3-4.1c-.3-1.3-1.1-3-.6-3.6s2-1.8 2.1-2.1-.2-.6-.6-.4zm-.6.3z" fill="#f3bc84"/>
  <path d="M15.7 36.2a7.8 7.8 0 0 0 .5 1.2c.1.2.6.1.6-.2a7.6 7.6 0 0 0-.5-1.6z" fill="#f3bc84"/>
  <path d="M14.1 32.6s-.4-.9-1.2-.5-1.9 2.5-2.1 3-.4 1.9.4 4.3L13 46l2.7-1.2a19.1 19.1 0 0 0-.3-4.3c-.3-1.3-1.1-3-.6-3.6s2-1.8 2.1-2.1-.2-.6-.6-.4a25.3 25.3 0 0 0-2.2 1.9" fill="none" stroke="#000" stroke-linecap="round" stroke-linejoin="round" stroke-width=".4"/>
  <path d="M12.3 34.2s1.5-1.9 2.9-1.7 1.1 1.9 1.1 1.9" fill="none" stroke="#000" stroke-linecap="round" stroke-linejoin="round" stroke-width=".4"/>
  <path d="M15.7 34.8s-.5-1.2-2.2.5c0 0 .5-1.3 1.3-1.6s.7.7.7.7m.8 1.2a7.6 7.6 0 0 1 .5 1.6c0 .3-.5.4-.6.2a7.8 7.8 0 0 1-.5-1.2m.1.6s0 .5-.1 1.7a14 14 0 0 0-.2 2.2" fill="none" stroke="#000" stroke-linecap="round" stroke-linejoin="round" stroke-width=".4"/>
  <path d="M20.4 49.1s-4.4 3.4-8.1 3.3a12.1 12.1 0 0 1-.8-6.6 7.5 7.5 0 0 0 6.1-1.9 22.9 22.9 0 0 1 2.8 5.2z" fill="#febf10" stroke="#000" stroke-linecap="round" stroke-linejoin="round" stroke-width=".4"/>
  <path d="M11.2 46.3v-1.1h.6a5.4 5.4 0 0 0 4.8-1.8l.3-.4.8.6-.3.5a6.2 6.2 0 0 1-5.8 2.1z" fill="#febf10" stroke="#000" stroke-linecap="round" stroke-linejoin="round" stroke-width=".4"/>
  <path d="M40.2 67.6H38l-.2-2.7a33.7 33.7 0 0 0 19.9-5l.6 2.6c-.2.1-6.5 5.1-18.1 5.1z" fill="#325723" stroke="#000" stroke-linecap="round" stroke-linejoin="round" stroke-width=".4"/>
  <ellipse cx="44.6" cy="66" rx="3.4" ry="2.2" transform="rotate(-6.9 44.3 65.93)" fill="#febf10" stroke="#000" stroke-linecap="round" stroke-linejoin="round" stroke-width=".4"/>
  <ellipse cx="44.6" cy="66" rx="2.5" ry="1.5" transform="rotate(-6.9 44.3 65.93)" fill="#0d3a12" stroke="#000" stroke-linecap="round" stroke-linejoin="round" stroke-width=".4"/>
  <path fill="#febf10" d="M48.7 69.8l1-1.6 2.9.5 1.4-2.6 2.9.7 1.4-2.4 3.4.5.8 1.1-3.7-.5-1.4 2.5-2.9-.7-1.3 2.5-3-.5-.4.7-1.1-.2z"/>
  <path fill="none" stroke="#000" stroke-linecap="round" stroke-linejoin="round" stroke-width=".4" d="M48.5 70l1.2-1.8 2.9.5 1.4-2.6 2.9.7 1.4-2.4 3.4.5"/>
  <path fill="none" stroke="#000" stroke-linecap="round" stroke-linejoin="round" stroke-width=".4" d="M49.8 70l.4-.7 3 .5 1.3-2.5 2.9.7 1.4-2.5 3.7.5"/>
  <path d="M30 22.3a13.1 13.1 0 0 0 2.9-3.3c1.1-1.8 6.7-4.9 9.9.6l.2 1.8z" fill="#febf10"/>
  <path d="M32.6 38.8a.8.8 0 0 1-.5-.7 10.5 10.5 0 0 0-.9-4.2 6.2 6.2 0 0 1-.8-2.9c-.2-2.8 1-4.2 1.1-4.2a.7.7 0 0 1 1-.1.8.8 0 0 1 .1 1.1 4.8 4.8 0 0 0-.7 3.1 6.1 6.1 0 0 0 .6 2.4 9.7 9.7 0 0 1 1.1 4.8.9.9 0 0 1-.8.8z" fill="#856353" stroke="#000" stroke-linecap="round" stroke-linejoin="round" stroke-width=".4"/>
  <path d="M34.6 38.6a1.1 1.1 0 0 1-.7-.6 8.8 8.8 0 0 0-1.9-3.9 9.6 9.6 0 0 1-1.5-2.7 5.8 5.8 0 0 1 .2-4.3.7.7 0 0 1 1-.3.8.8 0 0 1 .3 1 4.7 4.7 0 0 0 0 3.2 5.9 5.9 0 0 0 1.2 2.2 9.9 9.9 0 0 1 2.2 4.5c0 .4-.2.8-.6.8z" fill="#856353" stroke="#000" stroke-linecap="round" stroke-linejoin="round" stroke-width=".4"/>
  <path d="M35.8 38.1a1.1 1.1 0 0 1-.7-.6 8.9 8.9 0 0 0-1.8-3.9 6.4 6.4 0 0 1-1.5-2.7c-.8-2.6 0-4.2.1-4.3a.7.7 0 0 1 1-.3.8.8 0 0 1 .3 1 4.7 4.7 0 0 0 0 3.2 7.8 7.8 0 0 0 1.2 2.2 9.9 9.9 0 0 1 2.2 4.5.6.6 0 0 1-.6.8z" fill="#856353" stroke="#000" stroke-linecap="round" stroke-linejoin="round" stroke-width=".4"/>
  <path d="M36.9 37.2a.7.7 0 0 1-.7-.6 8.4 8.4 0 0 0-1.9-3.8 7.6 7.6 0 0 1-1.5-2.7 6.5 6.5 0 0 1 .1-4.3.7.7 0 0 1 1-.3.7.7 0 0 1 .4 1c-.1 0-.6 1.2 0 3.2a5.9 5.9 0 0 0 1.2 2.2 8.6 8.6 0 0 1 2.1 4.4.7.7 0 0 1-.5.9z" fill="#856353" stroke="#000" stroke-linecap="round" stroke-linejoin="round" stroke-width=".4"/>
  <path d="M37.9 36.7a.9.9 0 0 1-.7-.6 8.4 8.4 0 0 0-1.8-3.8 7.9 7.9 0 0 1-1.5-2.7c-.8-2.7 0-4.3.1-4.4s1.2-1.2 1.6-1 0 1-.3 1.7a5 5 0 0 0 0 3.3 7.8 7.8 0 0 0 1.2 2.2 9.4 9.4 0 0 1 2.2 4.4.8.8 0 0 1-.6.9z" fill="#856353" stroke="#000" stroke-linecap="round" stroke-linejoin="round" stroke-width=".4"/>
  <path d="M40.6 17.2s1.6-7 8.4-7.4 6.6 3.7 6.1 5.3-3.6 2.9-5.4 1.4-6.8-1-8.5.9" fill="#febf10"/>
  <path d="M55.1 13.8a4.6 4.6 0 0 1-4.8.8c-2.7-1.3-7.4-.4-9.3 2.7-.1.1 2.8-1.8 4.9-1.8s3.2.2 3.6.7a2.9 2.9 0 0 0 2.9.9c1.5-.3 2.7-1.4 2.8-2a3.5 3.5 0 0 0-.1-1.3z" fill="#d09b07"/>
  <path d="M40.6 17.2s1.6-7 8.4-7.4 6.6 3.7 6.1 5.3-3.6 2.9-5.4 1.4-6.8-1-8.5.9" fill="none" stroke="#000" stroke-linecap="round" stroke-linejoin="round" stroke-width=".4"/>
  <path d="M41.2 17.7s3.6-3.3 10.3.8a15.8 15.8 0 0 0 5.8 1.9 4 4 0 0 1 3.4 4.3c-.3 3.3-7.6 3.6-10.8.5s-2.8-5.8-4.9-5.9a4.3 4.3 0 0 0-2 .4" fill="red"/>
  <path d="M42.6 18.9a4.2 4.2 0 0 1 4-.4c2.1 1 3 4.7 6.9 5.8s6.6.7 6.7-2c-.1.1 1.9 3.3-.9 4.3s-6.6 1.2-8.8-.8-2.9-4.4-3.7-5.3-2.3-2.1-3.8-.9z" fill="#980805"/>
  <path d="M41.2 17.7s3.6-3.3 10.3.8a15.8 15.8 0 0 0 5.8 1.9 4 4 0 0 1 3.4 4.3c-.3 3.3-7.6 3.6-10.8.5s-2.8-5.8-4.9-5.9a4.3 4.3 0 0 0-2 .4m10-6.2s-7.1-3.8-12.2 3.7" fill="none" stroke="#000" stroke-linecap="round" stroke-linejoin="round" stroke-width=".4"/>
  <path d="M36.2 16.8s2.8-.1 2.1 4h1l2.3-.3 1.2-.9s-1.3-2.5-3.5-2.9a6.1 6.1 0 0 0-3.1.1z" fill="#d09b07"/>
  <path d="M58.5 23.5s-1.1-1.4-4.9-2.3-5.1-6.1-12-3.4" fill="none" stroke="#000" stroke-linecap="round" stroke-linejoin="round" stroke-width=".4"/>
  <path d="M30 22.3a13.1 13.1 0 0 0 2.9-3.3c1.1-1.8 6.7-4.9 9.9.6l.2 1.8z" fill="none" stroke="#000" stroke-linecap="round" stroke-linejoin="round" stroke-width=".4"/>
  <path d="M41.5 20.5s-2.5.5-5.8.8-6.1 1-7.2 1.9-.1 4.9 2.5 4.3 3.1-2.7 7.6-3 7.3.1 7.6-4.1-4.7.1-4.7.1z" fill="#0065b7"/>
  <path d="M31.1 22.1s-.8 1.6.2 2.4 5.1-.8 6.7-.1a14.7 14.7 0 0 0-5.4 2.4c-1.8 1.6-3.6.7-4.3-1s0-2.8 1.2-3.2z" fill="#004da1"/>
  <path d="M41.5 20.5s-2.5.5-5.8.8-6.1 1-7.2 1.9-.1 4.9 2.5 4.3 3.1-2.7 7.6-3 7.3.1 7.6-4.1-4.7.1-4.7.1zm15.7 16.8s-2.4 1.1-2.4 7.1a27.4 27.4 0 0 1-.1 5m.8-11.9s-2.6 5.8-2.1 11.1" fill="none" stroke="#000" stroke-linecap="round" stroke-linejoin="round" stroke-width=".4"/>
  <path d="M37.2 28.1a2.4 2.4 0 0 0 1.8.1 1.3 1.3 0 0 0 .8-.8 1.9 1.9 0 0 0-1.6 0c-.9.3-1 .7-1 .7z" fill="#fff"/>
  <path d="M37.3 27.9l1.1-.6a4.2 4.2 0 0 1 1.5.1 2.1 2.1 0 0 1-1.2.9 2.4 2.4 0 0 1-1.5-.2m2.7-.7a1.7 1.7 0 0 0-2.8.7" fill="none" stroke="#000" stroke-linecap="round" stroke-linejoin="round" stroke-width=".3"/>
  <ellipse cx="38.7" cy="27.8" rx=".7" ry=".5" transform="rotate(-15.1 38.92 27.8)"/>
  <circle cx="38.9" cy="27.5" r=".2" fill="#fff"/>
  <path d="M41.5 27.1a2.3 2.3 0 0 0 1.7 0 1.3 1.3 0 0 0 .8-.8 1.9 1.9 0 0 0-1.6 0c-.8.4-.9.8-.9.8z" fill="#fff"/>
  <path d="M41.6 26.8l1-.5a3.2 3.2 0 0 1 1.3.1 1.7 1.7 0 0 1-1.1.8 2.2 2.2 0 0 1-1.4-.2m2.5-.6a1.5 1.5 0 0 0-2.5.6" fill="none" stroke="#000" stroke-linecap="round" stroke-linejoin="round" stroke-width=".3"/>
  <ellipse cx="42.8" cy="26.7" rx=".6" ry=".5" transform="rotate(-15.1 42.9 26.8)"/>
  <ellipse cx="43" cy="26.5" rx=".2" ry=".2" transform="rotate(-15.1 42.95 26.42)" fill="#fff"/>
  <path d="M62.9 67.3A10.9 10.9 0 0 0 64 70" fill="none" stroke="#000" stroke-linecap="round" stroke-linejoin="round" stroke-width=".4"/>
  <path d="M14 70s.9 2.4 1.4 2.6 5.4-2.7 5.4-2.7z" fill="#0d3a12"/>
  <path fill="#c69c6d" d="M64 103.3l-1.5-3.5-.4 3.3.7 1.1 1.2-.9z"/>
  <path d="M9.8 84.2c.1 5.1 2.5 7.6 7.5 14.7s9.1 5.6 11.5 5.7a20.4 20.4 0 0 1 4.9 1l10.2-4.1a19.9 19.9 0 0 1 3.1-3.4l1.1-.9a23.1 23.1 0 0 0 5.3-7.7 42 42 0 0 0 1.7-4.9 25.6 25.6 0 0 0 3.8 6.7c.5 0 6.1-3.5 6.1-3.5l-1.1-1.7c-.6-.8-3.2-7.8-8-10.3-.6-.3-3.4 1.1-5.1 2.3a29 29 0 0 0-6.3 6.3h-.2a86.6 86.6 0 0 0-3.8-8.7 6.1 6.1 0 0 1-.3-3.1s2-1.4 2.2-2.5l-21.7-.3c-.8 1.3-5.8 3-5.9 3a9.2 9.2 0 0 0 5 4.8l.6 3.4 2.1 1.2-1.6-.8c-3-1.3-11.3-2.3-11.1 2.8z" fill="red"/>
  <path fill="#f3bc84" d="M34.2 105.9l-1.6-.8-3.2-.6 1-3.6 7.6-1.7 4.3.4-.8 5.6-3-.2-3.1-.3-1.2 1.2z"/>
  <path fill="#004da1" d="M42.3 98.6l-.8-5.8-10.5 2-1 6.5 6.9-1.9 5.4-.1v-.7z"/>
  <path d="M41.6 93.1l-10.8 2.1 3.1-19.9s8.1 12.4 7.7 17.8z" fill="#febf10"/>
  <path d="M50.6 120.6a4.6 4.6 0 0 0 1.1-1.9 3.9 3.9 0 0 1-2.1-.8c.1 0-.5.7-.8 1.4" fill="red" stroke="#000" stroke-linecap="round" stroke-linejoin="round" stroke-width=".4"/>
  <path d="M45 121.2s-.3 4.6 3.8 3.5 1.8-6.3-2.4-5.4" fill="red"/>
  <path d="M45.7 120.5a4.1 4.1 0 0 0 1.4 1.5c.8.3.7.9 1.2.2s0-1.2-.6-1.7a10.7 10.7 0 0 0-1.6-.9z" fill="#980805"/>
  <path d="M45 121.2s-.3 4.6 3.8 3.5 1.8-6.3-2.4-5.4" fill="none" stroke="#000" stroke-linecap="round" stroke-linejoin="round" stroke-width=".4"/>
  <path d="M28.9 101.8s-7.2-3.8-10.5-7.3a19.4 19.4 0 0 1-4.2-6.1l-1-1s3.5 1 5-.5 1.9-4.6.2-6-5.6-1.2-7.5.7-1.1 6.2.8 9.2 7 11.4 10.4 12.8a11.8 11.8 0 0 0 6.1.9z" fill="#980805"/>
  <path d="M47.6 123l.5-.5c.5-.7.8-1.9-2-2.8m-.5.6a4.4 4.4 0 0 0 2.5 2.2" fill="none" stroke="#000" stroke-linecap="round" stroke-linejoin="round" stroke-width=".4"/>
  <path d="M33.8 105.6c.9.5 3.7-.9 3.7-.9a6.3 6.3 0 0 0-7.6-1.9l-.5 1.8a31.3 31.3 0 0 1 4.4 1z" fill="#c69c6d"/>
  <path d="M42.5 98.6a18.9 18.9 0 0 0-2.8-.2 20.2 20.2 0 0 0-10 2.6.7.7 0 0 0-.3 1 .7.7 0 0 0 1 .3 18.4 18.4 0 0 1 11.8-2.2zm-11.7-3.9a19.7 19.7 0 0 1 8.2-2.4 11 11 0 0 1 2.8 0l-.2 1.5a19.2 19.2 0 0 0-10.8 2.6z" fill="#febf10" stroke="#000" stroke-linecap="round" stroke-linejoin="round" stroke-width=".4"/>
  <path d="M28.1 104.5c2.1-5.9 3.4-19 4.8-31.4a.6.6 0 0 1 .6-.6h.1a.9.9 0 0 1 .7.3c.4.7 11 18.7 8.3 30a.7.7 0 0 1-.9.5.8.8 0 0 1-.6-.9c2.1-8.5-4.3-22.1-7-26.8-1.3 11.6-2.4 23.3-4.4 29" fill="#0065b7" stroke="#000" stroke-linecap="round" stroke-linejoin="round" stroke-width=".4"/>
  <ellipse cx="29.9" cy="90.2" rx="3" ry="1.1" transform="rotate(-62.2 29.93 90.18)" fill="#d09b07" stroke="#000" stroke-linecap="round" stroke-linejoin="round" stroke-width=".4"/>
  <path d="M28.6 106.7a.7.7 0 0 0 0 .9 8 8 0 0 1 1.6 4 5.9 5.9 0 0 0 1 2.9 5.8 5.8 0 0 0 3.3 2.8.7.7 0 0 0 .9-.5.8.8 0 0 0-.6-.9 5.4 5.4 0 0 1-2.4-2.2 5.1 5.1 0 0 1-.7-2.4 10.1 10.1 0 0 0-1.9-4.5.6.6 0 0 0-1-.2z" fill="#856353" stroke="#000" stroke-linecap="round" stroke-linejoin="round" stroke-width=".4"/>
  <path d="M30.4 105.8a.7.7 0 0 0-.2.9 10.2 10.2 0 0 1 .6 4.2 6.8 6.8 0 0 0 .3 3.1c.9 2.6 2.4 3.5 2.5 3.5a.7.7 0 1 0 .7-1.3c-.1 0-1.1-.7-1.8-2.7a5.3 5.3 0 0 1-.2-2.5 10.4 10.4 0 0 0-.8-4.8.7.7 0 0 0-.9-.5z" fill="#856353" stroke="#000" stroke-linecap="round" stroke-linejoin="round" stroke-width=".4"/>
  <path d="M31.7 105.6a.7.7 0 0 0-.3.8 9.3 9.3 0 0 1 .7 4.3 6.4 6.4 0 0 0 .3 3 5.5 5.5 0 0 0 2.5 3.5.7.7 0 0 0 1-.3.7.7 0 0 0-.3-1c-.1 0-1.1-.7-1.8-2.7a5.2 5.2 0 0 1-.2-2.5 10.5 10.5 0 0 0-.8-4.8.6.6 0 0 0-.9-.4z" fill="#856353" stroke="#000" stroke-linecap="round" stroke-linejoin="round" stroke-width=".4"/>
  <circle cx="59.8" cy="113" r="8.5" fill="#fff" stroke="#000" stroke-linecap="round" stroke-linejoin="round" stroke-width=".4"/>
  <circle cx="59.8" cy="113" r="7.9"/>
  <circle cx="59.8" cy="113" r="6.1" fill="none" stroke="#ed1e79" stroke-linecap="round" stroke-linejoin="round" stroke-width=".4"/>
  <circle cx="59.8" cy="113" r="6.7" fill="#d09b07" stroke="#000" stroke-miterlimit="10" stroke-width=".4"/>
  <path fill="#856353" stroke="#000" stroke-linecap="round" stroke-linejoin="round" stroke-width=".4" d="M59.7 119.7l-.8-2.6-1.7 2 .2-2.7-2.4 1.3 1.2-2.4-2.7.2 2.1-1.7-2.6-.9 2.6-.8-2.1-1.7 2.7.2-1.2-2.4 2.4 1.2-.2-2.7 1.7 2.1.8-2.6.9 2.6 1.7-2.1-.2 2.7 2.4-1.2-1.3 2.4 2.7-.2-2 1.7 2.6.8-2.6.9 2 1.7-2.7-.2 1.3 2.4-2.4-1.3.2 2.7-1.7-2-.9 2.6z"/>
  <circle cx="59.8" cy="120.3" r=".4" fill="#febf10"/>
  <circle cx="59.8" cy="120.3" r=".1"/>
  <circle cx="59.8" cy="105.7" r=".4" fill="#febf10"/>
  <circle cx="59.8" cy="105.7" r=".1"/>
  <circle cx="52.4" cy="113" r=".4" fill="#febf10"/>
  <circle cx="52.4" cy="113" r=".1"/>
  <circle cx="67.1" cy="113" r=".4" fill="#febf10"/>
  <circle cx="67.1" cy="113" r=".1"/>
  <circle cx="54.6" cy="118.1" r=".4" fill="#febf10"/>
  <circle cx="54.6" cy="118.1" r=".1"/>
  <circle cx="64.9" cy="107.8" r=".4" fill="#febf10"/>
  <circle cx="64.9" cy="107.8" r=".1"/>
  <circle cx="54.6" cy="107.8" r=".4" fill="#febf10"/>
  <circle cx="54.6" cy="107.8" r=".1"/>
  <circle cx="64.9" cy="118.2" r=".4" fill="#febf10"/>
  <circle cx="64.9" cy="118.2" r=".1"/>
  <circle cx="57.1" cy="119.8" r=".4" fill="#febf10"/>
  <circle cx="57.1" cy="119.8" r=".1"/>
  <circle cx="62.5" cy="106.2" r=".4" fill="#febf10"/>
  <circle cx="62.5" cy="106.2" r=".1"/>
  <circle cx="53" cy="110.3" r=".4" fill="#febf10"/>
  <circle cx="53" cy="110.3" r=".1"/>
  <circle cx="66.6" cy="115.7" r=".4" fill="#febf10"/>
  <circle cx="66.6" cy="115.7" r=".1"/>
  <circle cx="53.1" cy="115.9" r=".4" fill="#febf10"/>
  <circle cx="53.1" cy="115.9" r=".1"/>
  <circle cx="66.5" cy="110.1" r=".4" fill="#febf10"/>
  <circle cx="66.5" cy="110.1" r=".1"/>
  <circle cx="56.9" cy="106.3" r=".4" fill="#febf10"/>
  <circle cx="56.9" cy="106.3" r=".1"/>
  <circle cx="62.6" cy="119.7" r=".4" fill="#febf10"/>
  <circle cx="62.6" cy="119.7" r=".1"/>
  <circle cx="55.8" cy="119.1" r=".4" fill="#febf10"/>
  <circle cx="55.8" cy="119.1" r=".1"/>
  <circle cx="63.8" cy="106.9" r=".4" fill="#febf10"/>
  <circle cx="63.8" cy="106.9" r=".1"/>
  <circle cx="53.6" cy="109" r=".4" fill="#febf10"/>
  <circle cx="53.6" cy="109" r=".1"/>
  <circle cx="65.9" cy="117" r=".4" fill="#febf10"/>
  <circle cx="65.9" cy="117" r=".1"/>
  <circle cx="52.6" cy="114.5" r=".4" fill="#febf10"/>
  <circle cx="52.6" cy="114.5" r=".1"/>
  <circle cx="66.9" cy="111.5" r=".4" fill="#febf10"/>
  <circle cx="66.9" cy="111.5" r=".1"/>
  <circle cx="58.3" cy="105.8" r=".4" fill="#febf10"/>
  <circle cx="58.3" cy="105.8" r=".1"/>
  <circle cx="61.2" cy="120.1" r=".4" fill="#febf10"/>
  <circle cx="61.2" cy="120.1" r=".1"/>
  <circle cx="53.7" cy="117.1" r=".4" fill="#febf10"/>
  <circle cx="53.7" cy="117.1" r=".1"/>
  <circle cx="65.8" cy="108.9" r=".4" fill="#febf10"/>
  <circle cx="65.8" cy="108.9" r=".1"/>
  <circle cx="55.7" cy="106.9" r=".4" fill="#febf10"/>
  <circle cx="55.7" cy="106.9" r=".1"/>
  <circle cx="63.8" cy="119.1" r=".4" fill="#febf10"/>
  <circle cx="63.8" cy="119.1" r=".1"/>
  <circle cx="52.6" cy="111.6" r=".4" fill="#febf10"/>
  <circle cx="52.6" cy="111.6" r=".1"/>
  <circle cx="66.9" cy="114.4" r=".4" fill="#febf10"/>
  <circle cx="66.9" cy="114.4" r=".1"/>
  <circle cx="61.1" cy="105.8" r=".4" fill="#febf10"/>
  <circle cx="61.1" cy="105.8" r=".1"/>
  <circle cx="58.3" cy="120.2" r=".4" fill="#febf10"/>
  <circle cx="58.3" cy="120.2" r=".1"/>
  <circle cx="59.8" cy="113" r="4.1" fill="red"/>
  <path d="M56.1 114.8c0-.3-.1-.6-.1-.9a4.6 4.6 0 0 1 4.3-4.8h1.1a5.2 5.2 0 0 0-1.8-.3 4.1 4.1 0 0 0-3.9 4.3 4.2 4.2 0 0 0 .4 1.7zm1.9.1c-.7.1-.6-.1-1.3-.3s.5.9 1.3.9a1.5 1.5 0 0 0 1.5-1.5c0-.2.1-.3 0-.5a1.8 1.8 0 0 1-1.5 1.4zm3.7 0c.7 0 .5-.1 1.3-.3a1.4 1.4 0 0 1-1.3.9c-.9 0-1.5-.5-1.5-1.2s.5.7 1.5.6z" fill="#980805"/>
  <path d="M61 111.5l-.9.3-.3-.2a.4.4 0 0 1-.3.2l-1.2-.4a4.3 4.3 0 0 1 1.5-.8 2 2 0 0 1 1.4.7c.2.2-.2.2-.2.2z" fill="#980805"/>
  <path d="M60.8 114a1.1 1.1 0 0 0 1.8.3m-1.7-.4a1.4 1.4 0 0 1 1.4-.1m-3.5.2a1.1 1.1 0 0 1-1.8.3m1.7-.4a1.4 1.4 0 0 0-1.4-.1" fill="none" stroke="#000" stroke-linecap="round" stroke-linejoin="round" stroke-width=".3"/>
  <path d="M63 114.6a1.4 1.4 0 0 1-1.3 1 1.4 1.4 0 0 1-1.4-1m-3.6 0a1.4 1.4 0 0 0 1.3 1c1.3 0 1.6-1.6 1.4-2.4s-.3-.3-.3-.5l.3-.2c.5-.5.8 0 .8 0m.3.5s.3-.5-.3-.5m-2.2-1.1a3.7 3.7 0 0 1 1.8-.8 2.8 2.8 0 0 1 1.7.8c-.5-.1-1.4.7-1.7.2s-.9-.2-1.8-.2zm3 .8a3.6 3.6 0 0 0 .9-1.4m-3.3 1.4a3.6 3.6 0 0 1-.9-1.4" fill="none" stroke="#000" stroke-linecap="round" stroke-linejoin="round" stroke-width=".3"/>
  <path d="M58.8 114h-1.7a1.2 1.2 0 0 0 1.2.1z" stroke="#000" stroke-linecap="round" stroke-linejoin="round" stroke-width=".3"/>
  <path fill="#0065b7" stroke="#000" stroke-linecap="round" stroke-linejoin="round" stroke-width=".3" d="M56.8 114h.3"/>
  <path d="M60.8 114h1.6a1.1 1.1 0 0 1-1.1.1z" stroke="#000" stroke-linecap="round" stroke-linejoin="round" stroke-width=".3"/>
  <path fill="#0065b7" stroke="#000" stroke-linecap="round" stroke-linejoin="round" stroke-width=".3" d="M62.7 114h-.3"/>
  <path d="M60.5 110a.8.8 0 0 1-.7.3.7.7 0 0 1-.6-.3m-.4 6c.2-.2.5-.2.9-.2h1m.6-4.5a8.1 8.1 0 0 0-3.1.1" fill="none" stroke="#000" stroke-linecap="round" stroke-linejoin="round" stroke-width=".3"/>
  <circle cx="59.8" cy="113" r="4.1" fill="none" stroke="#000" stroke-miterlimit="10" stroke-width=".4"/>
  <circle cx="64.2" cy="117.4" r=".1"/>
  <circle cx="63" cy="117.9" r=".1"/>
  <circle cx="62.2" cy="118.8" r=".1"/>
  <circle cx="60.9" cy="118.7" r=".1"/>
  <circle cx="58.6" cy="118.6" r=".1"/>
  <circle cx="59.8" cy="119.3" r=".1"/>
  <circle cx="57.4" cy="118.8" r=".1"/>
  <circle cx="56.6" cy="117.8" r=".1"/>
  <circle cx="55.3" cy="117.4" r=".1"/>
  <circle cx="54.9" cy="116.2" r=".1"/>
  <circle cx="53.9" cy="115.4" r=".1"/>
  <circle cx="54.1" cy="114.1" r=".1"/>
  <circle cx="53.4" cy="113" r=".1"/>
  <circle cx="54.1" cy="111.8" r=".1"/>
  <circle cx="53.9" cy="110.5" r=".1"/>
  <circle cx="55" cy="109.8" r=".1"/>
  <circle cx="55.3" cy="108.5" r=".1"/>
  <circle cx="56.5" cy="108.1" r=".1"/>
  <circle cx="57.3" cy="107.2" r=".1"/>
  <circle cx="58.7" cy="107.3" r=".1"/>
  <circle cx="59.8" cy="106.7" r=".1"/>
  <circle cx="60.9" cy="107.3" r=".1"/>
  <circle cx="62.2" cy="107.1" r=".1"/>
  <circle cx="63" cy="108.2" r=".1"/>
  <circle cx="64.3" cy="108.5" r=".1"/>
  <circle cx="64.6" cy="109.8" r=".1"/>
  <circle cx="65.7" cy="110.6" r=".1"/>
  <circle cx="65.4" cy="111.9" r=".1"/>
  <circle cx="66.2" cy="113" r=".1"/>
  <circle cx="65.5" cy="114.1" r=".1"/>
  <circle cx="65.6" cy="115.4" r=".1"/>
  <circle cx="64.6" cy="116.2" r=".1"/>
  <path d="M34 116.1a22.8 22.8 0 0 0-.9-4.2 7.3 7.3 0 0 1 0-5.3c.8-2.3 3.3-2.1 7-1.4s4.1 8.2 3.4 9.1a9.6 9.6 0 0 1-9.5 1.8z" fill="#f3bc84"/>
  <path d="M35.3 115.8a16.3 16.3 0 0 0-.8-4.5c-.6-1.7-.1-5.3 2.1-6.5-.1 0-2.3-.3-3.1 1a6.1 6.1 0 0 0-.8 4.6l1.3 5.3v.4z" fill="#c69c6d"/>
  <path d="M34 116.1a22.8 22.8 0 0 0-.9-4.2 7.3 7.3 0 0 1 0-5.3c.8-2.3 3.3-2.1 7-1.4s4.1 8.2 3.4 9.1a9.6 9.6 0 0 1-9.5 1.8z" fill="none" stroke="#000" stroke-linecap="round" stroke-linejoin="round" stroke-width=".4"/>
  <path d="M41.8 112.8c-.1.6-1.5 2-3.5.9m-3 2.1a2.2 2.2 0 0 0 1.6-2.2c-.1-1.5-1.5-2.5-1.7-2.8s.1-1.2.1-1.2m1.6.5s.2-.8-.2-.9a2.8 2.8 0 0 0-.9.5h-.1m0-.4l.1.4m-.6.1l-.4-.2" fill="none" stroke="#000" stroke-linecap="round" stroke-linejoin="round" stroke-width=".3"/>
  <path d="M56.7 76.2s-5.3 11.6-10.9 11.6l-1.5-3.3s4.5-5.8 7.9-7.3a22.7 22.7 0 0 1 3.6-1.5z" fill="#980805"/>
  <path d="M35 108.5l.3-.2h.4l.9-1.1-2.6.8 2.6-.8s-2.1-1.1-2.7.9h-.1z" fill="red"/>
  <path d="M37 107.3a12.7 12.7 0 0 0-3.4 1.1m3-1.1s-2.1-1.1-2.7.9" fill="none" stroke="#000" stroke-linecap="round" stroke-linejoin="round" stroke-width=".3"/>
  <path d="M33.9 108.4H35l.3-.2h.4l.9-.9" fill="none" stroke="#000" stroke-linecap="round" stroke-linejoin="round" stroke-width=".3"/>
  <path d="M33.7 105.6a20.4 20.4 0 0 0-4.9-1c-2.4-.1-6.5 1.5-11.5-5.7s-7.4-9.6-7.5-14.7 8.1-4.1 11.1-2.7a70 70 0 0 1 9.5 5.7c.5.5-3.4 5-3.4 5l-2.7-1.7s-3.9.7-6.1-1.2" fill="none" stroke="#000" stroke-linecap="round" stroke-linejoin="round" stroke-width=".4"/>
  <path d="M14.8 72.9s5-1.5 5.9-2.9h7.5v1.3l-3.1-.5-1.3 2.5-2.8-.5-1.6 2.4-3.5-.6z" fill="#0065b7"/>
  <path d="M19.6 90.3s-2.8 1.4-6.4-2.9m30.7 14.1a19.9 19.9 0 0 1 3.1-3.4 20 20 0 0 0 6.4-8.6l1.7-4.7" fill="none" stroke="#000" stroke-linecap="round" stroke-linejoin="round" stroke-width=".4"/>
  <path d="M54.8 83.5a24.3 24.3 0 0 0 4.1 7.8c.5 0 6.1-3.5 6.1-3.5l-1.1-1.7c-.6-.8-3.2-7.8-8-10.3-.6-.3-3.4 1.1-5.1 2.3s-5.8 5.1-6.4 6.7" fill="none" stroke="#000" stroke-linecap="round" stroke-linejoin="round" stroke-width=".4"/>
  <path d="M48.1 97.3a50.1 50.1 0 0 0-2.2-8.6c-1.1-2.8-4.7-11.9-5.4-12.9a6.1 6.1 0 0 1-.3-3.1s2-1.5 2.2-2.6m-22 11l-.6-3.4a9.2 9.2 0 0 1-5-4.8c.1 0 5.1-1.6 5.8-2.8" fill="none" stroke="#000" stroke-linecap="round" stroke-linejoin="round" stroke-width=".4"/>
  <path d="M35.1 96.6c3.6.9 5.4-.2 5.4-.4s-.8-.7-2.4-.8a2 2 0 0 0 .2-1.6h.1c.3-1-.3-1.2-.3-1.2H38a2.5 2.5 0 0 0 .4-.9c.3-1.9-1.6-1.1-1.7-.9a2.1 2.1 0 0 0-.3.7v.2l-.7-.2a24.1 24.1 0 0 1-3.8-1.7 6.1 6.1 0 0 1-1.7-.9 3.9 3.9 0 0 0-1.3 3s2.6 3.8 6.2 4.7z" fill="#f3bc84"/>
  <path d="M38.1 95.3a1.6 1.6 0 0 0 .2-1.4m-2.4.5s2.2.4 2.5-.7-.3-1.2-.3-1.2" fill="none" stroke="#000" stroke-linecap="round" stroke-linejoin="round" stroke-width=".4"/>
  <path d="M36.2 93.2a1.8 1.8 0 0 0 2.2-1.5c.3-1.9-1.6-1.1-1.7-.9a2.1 2.1 0 0 0-.3.7" fill="none" stroke="#000" stroke-linecap="round" stroke-linejoin="round" stroke-width=".4"/>
  <path d="M37.4 91.4s-.2.5-1.7.1a24.1 24.1 0 0 1-3.8-1.7 6.1 6.1 0 0 1-1.7-.9 3.9 3.9 0 0 0-1.3 3s2.6 3.8 6.2 4.7 5.4-.2 5.4-.4-.9-.8-2.6-.8h-2.4" fill="none" stroke="#000" stroke-linecap="round" stroke-linejoin="round" stroke-width=".4"/>
  <path d="M23.9 90.9s.9-4.4 3.8-6.5c-.1 0 2 .3 3.6 3.3a7 7 0 0 0-3.4 4.9c0 .1-.8.2-4-1.7z" fill="#febf10" stroke="#000" stroke-linecap="round" stroke-linejoin="round" stroke-width=".4"/>
  <path d="M31.3 87.2l.5.8-.5.3a5 5 0 0 0-2.5 4.1v.5h-1v-.5a6.1 6.1 0 0 1 3-5z" fill="#febf10" stroke="#000" stroke-linecap="round" stroke-linejoin="round" stroke-width=".4"/>
  <ellipse cx="63.8" cy="95.4" rx="3.2" ry="1.1" transform="rotate(-23.8 63.88 95.49)" fill="#d09b07" stroke="#000" stroke-linecap="round" stroke-linejoin="round" stroke-width=".4"/>
  <path d="M61.7 105.6a25.3 25.3 0 0 0 2.2-1.9s-1.4 1.8-1.5 1.6l-.7.3s-.3 1.7 1.1 1.9a1.4 1.4 0 0 0 1.1-.2v.2a1.1 1.1 0 0 0 1.3.5c.7-.4 1.9-2.6 2.1-3a8.1 8.1 0 0 0-.4-4.4c-.8-2.4-1.9-6.4-1.9-6.4l-2.7 1.3a26.7 26.7 0 0 0 .3 4.1c.4 1.3 1.1 3 .6 3.5s-2 1.9-2 2.1.1.7.5.4zm.7-.3z" fill="#f3bc84"/>
  <path d="M62.4 103.9l-.5-1.2c-.2-.2-.6-.2-.6.2a10.3 10.3 0 0 0 .5 1.6z" fill="#f3bc84"/>
  <path d="M63.9 107.5a1.1 1.1 0 0 0 1.3.5c.7-.4 1.9-2.6 2.1-3a8.1 8.1 0 0 0-.4-4.4c-.8-2.4-1.8-6.5-1.8-6.5l-2.7 1.2a24.8 24.8 0 0 0 .2 4.3c.4 1.3 1.1 3 .6 3.5s-2 1.9-2 2.1.1.7.5.4a25.3 25.3 0 0 0 2.2-1.9" fill="none" stroke="#000" stroke-linecap="round" stroke-linejoin="round" stroke-width=".4"/>
  <path d="M65.8 105.8s-1.6 1.9-3 1.7-1.1-1.9-1.1-1.9" fill="none" stroke="#000" stroke-linecap="round" stroke-linejoin="round" stroke-width=".4"/>
  <path d="M62.3 105.2s.6 1.2 2.2-.5c0 .1-.5 1.4-1.2 1.6s-.7-.7-.7-.7m-.8-1.1a10.3 10.3 0 0 1-.5-1.6c0-.4.4-.4.6-.2l.5 1.2m-.2-.6a10.6 10.6 0 0 1 .2-1.7l.2-2.3" fill="none" stroke="#000" stroke-linecap="round" stroke-linejoin="round" stroke-width=".4"/>
  <path d="M57.6 91s4.4-3.5 8.2-3.4a13.2 13.2 0 0 1 .7 6.7 6.7 6.7 0 0 0-6 1.8c0 .1-1.5-1.5-2.9-5.1z" fill="#febf10" stroke="#000" stroke-linecap="round" stroke-linejoin="round" stroke-width=".4"/>
  <path d="M66.9 93.8l-.2 1h-.5a5.4 5.4 0 0 0-4.8 1.8l-.3.4-.9-.6.4-.4a5.9 5.9 0 0 1 5.7-2.2z" fill="#febf10" stroke="#000" stroke-linecap="round" stroke-linejoin="round" stroke-width=".4"/>
  <path d="M37.9 72.5h2.2v2.7c-11.9-.6-19.8 5-19.8 5.1l-.7-2.7c.4-.2 6.6-5.1 18.3-5.1z" fill="#325723" stroke="#000" stroke-linecap="round" stroke-linejoin="round" stroke-width=".4"/>
  <ellipse cx="33.5" cy="74" rx="3.4" ry="2.2" transform="rotate(-6.9 33.02 73.58)" fill="#febf10" stroke="#000" stroke-linecap="round" stroke-linejoin="round" stroke-width=".4"/>
  <ellipse cx="33.5" cy="74" rx="2.5" ry="1.5" transform="rotate(-6.9 33.85 73.63)" fill="#0d3a12" stroke="#000" stroke-linecap="round" stroke-linejoin="round" stroke-width=".4"/>
  <path fill="#febf10" d="M29.3 70.3l-.9 1.6-3-.6-1.3 2.6-3-.7-1.3 2.4-3.5-.4-.8-1.1 3.7.4 1.4-2.4 3 .7 1.3-2.6 3 .6.4-.7 1 .2z"/>
  <path fill="none" stroke="#000" stroke-linecap="round" stroke-linejoin="round" stroke-width=".4" d="M29.5 70.1l-1.1 1.8-3-.6-1.3 2.6-3-.7-1.3 2.4-3.5-.4"/>
  <path fill="none" stroke="#000" stroke-linecap="round" stroke-linejoin="round" stroke-width=".4" d="M28.3 70.1l-.4.7-3-.6-1.3 2.6-3-.7-1.4 2.4-3.7-.4"/>
  <path d="M48.1 117.7a15.5 15.5 0 0 0-2.9 3.3c-1.1 1.8-6.8 4.9-9.9-.6l-.3-1.8z" fill="#febf10"/>
  <path d="M45.4 101.2c.3.1.6.4.5.7a8.9 8.9 0 0 0 1 4.2 10.8 10.8 0 0 1 .8 3 7 7 0 0 1-1.1 4.2.8.8 0 0 1-1.1 0 .8.8 0 0 1-.1-1 4.5 4.5 0 0 0 .8-3.2 6.7 6.7 0 0 0-.7-2.4 10.9 10.9 0 0 1-1.1-4.8.8.8 0 0 1 .8-.7z" fill="#856353" stroke="#000" stroke-linecap="round" stroke-linejoin="round" stroke-width=".4"/>
  <path d="M43.4 101.5c.4 0 .7.2.7.6a9.5 9.5 0 0 0 1.9 3.8 6.4 6.4 0 0 1 1.5 2.7 6.5 6.5 0 0 1-.1 4.3.7.7 0 0 1-1 .3.7.7 0 0 1-.3-1 5.1 5.1 0 0 0-.1-3.2 5.9 5.9 0 0 0-1.2-2.2 9.5 9.5 0 0 1-2.1-4.4.7.7 0 0 1 .6-.9z" fill="#856353" stroke="#000" stroke-linecap="round" stroke-linejoin="round" stroke-width=".4"/>
  <path d="M42.2 102c.4 0 .7.2.7.6a8.4 8.4 0 0 0 1.9 3.8 7.6 7.6 0 0 1 1.5 2.7 6.5 6.5 0 0 1-.1 4.3.7.7 0 0 1-1 .3c-.4-.1-.5-.6-.4-1s.6-1.2 0-3.2a5.9 5.9 0 0 0-1.2-2.2 9.5 9.5 0 0 1-2.1-4.4.7.7 0 0 1 .5-.9z" fill="#856353" stroke="#000" stroke-linecap="round" stroke-linejoin="round" stroke-width=".4"/>
  <path d="M41.2 102.8a.9.9 0 0 1 .7.6 7.9 7.9 0 0 0 1.8 3.8 7.9 7.9 0 0 1 1.5 2.7 6.3 6.3 0 0 1-.1 4.4.8.8 0 0 1-1 .3.7.7 0 0 1-.3-1 5.9 5.9 0 0 0 0-3.3 6.1 6.1 0 0 0-1.3-2.2 10.5 10.5 0 0 1-2.1-4.4.8.8 0 0 1 .6-.9z" fill="#856353" stroke="#000" stroke-linecap="round" stroke-linejoin="round" stroke-width=".4"/>
  <path d="M40.1 103.4c.4 0 .7.2.7.5a10.1 10.1 0 0 0 1.9 3.9 6.4 6.4 0 0 1 1.5 2.7 6.8 6.8 0 0 1-.1 4.3c-.2.4-1.2 1.2-1.6 1s0-.9.2-1.7.6-1.2 0-3.2a5.9 5.9 0 0 0-1.2-2.2 10 10 0 0 1-2.1-4.4.7.7 0 0 1 .5-.9z" fill="#856353" stroke="#000" stroke-linecap="round" stroke-linejoin="round" stroke-width=".4"/>
  <path d="M37.5 122.8s-1.7 7-8.4 7.5-6.7-3.8-6.2-5.4 3.7-2.9 5.4-1.3 6.8.9 8.6-1" fill="#febf10"/>
  <path d="M22.9 126.2a4.7 4.7 0 0 1 4.9-.7c2.6 1.2 7.3.3 9.3-2.7 0-.1-2.9 1.8-4.9 1.8s-3.3-.3-3.7-.7a3 3 0 0 0-2.8-1c-1.5.4-2.8 1.4-2.8 2a5 5 0 0 0 0 1.3z" fill="#d09b07"/>
  <path d="M37.5 122.8s-1.7 7-8.4 7.5-6.7-3.8-6.2-5.4 3.7-2.9 5.4-1.3 6.8.9 8.6-1" fill="none" stroke="#000" stroke-linecap="round" stroke-linejoin="round" stroke-width=".4"/>
  <path d="M36.8 122.4s-3.6 3.2-10.2-.8a17.2 17.2 0 0 0-5.9-2 3.9 3.9 0 0 1-3.3-4.3c.2-3.3 7.5-3.5 10.7-.5s2.9 5.8 4.9 5.9a3.2 3.2 0 0 0 2-.4" fill="red"/>
  <path d="M35.5 121.1a4.2 4.2 0 0 1-4.1.5c-2.1-1-3-4.7-6.8-5.9s-6.6-.6-6.7 2c0-.1-1.9-3.3.8-4.3s6.6-1.2 8.8.9 2.9 4.3 3.7 5.3 2.4 2.1 3.9.8c-.1 0 .4.7.4.7z" fill="#980805"/>
  <path d="M36.8 122.4s-3.6 3.2-10.2-.8a17.2 17.2 0 0 0-5.9-2 3.9 3.9 0 0 1-3.3-4.3c.2-3.3 7.5-3.5 10.7-.5s2.9 5.8 4.9 5.9a3.2 3.2 0 0 0 2-.4m-9.9 6.2s7 3.8 12.1-3.7" fill="none" stroke="#000" stroke-linecap="round" stroke-linejoin="round" stroke-width=".4"/>
  <path d="M41.8 123.2s-2.7.1-2.1-4h-1l-2.3.4-1.2.8s1.3 2.5 3.6 2.9 3-.1 3-.1z" fill="#d09b07"/>
  <path d="M19.5 116.5s1.2 1.5 4.9 2.4 5.2 6.1 12 3.3" fill="none" stroke="#000" stroke-linecap="round" stroke-linejoin="round" stroke-width=".4"/>
  <path d="M48.1 117.7a15.5 15.5 0 0 0-2.9 3.3c-1.1 1.8-6.8 4.9-9.9-.6l-.3-1.8z" fill="none" stroke="#000" stroke-linecap="round" stroke-linejoin="round" stroke-width=".4"/>
  <path d="M36.5 119.5s2.5-.4 5.9-.7 6-1 7.1-2 .1-4.8-2.4-4.3-3.2 2.7-7.7 3.1-7.3-.2-7.6 4 4.7-.1 4.7-.1z" fill="#0065b7"/>
  <path d="M46.9 118s.9-1.7-.1-2.5-5.2.8-6.8.2c.1-.1 3.5-.9 5.4-2.4s3.7-.8 4.3 1 0 2.7-1.2 3.2z" fill="#004da1"/>
  <path d="M36.5 119.5s2.5-.4 5.9-.7 6-1 7.1-2 .1-4.8-2.4-4.3-3.2 2.7-7.7 3.1-7.3-.2-7.6 4 4.7-.1 4.7-.1zm-15.7-16.8s2.5-1.1 2.4-7.1c-.1-4.2.2-5 .2-5m-.9 11.9s2.6-5.8 2.1-11.1" fill="none" stroke="#000" stroke-linecap="round" stroke-linejoin="round" stroke-width=".4"/>
  <path d="M40.8 111.9a2.9 2.9 0 0 0-1.8-.1c-.7.4-.8.8-.8.8a1.7 1.7 0 0 0 1.6.1c.9-.4 1-.8 1-.8z" fill="#fff"/>
  <path d="M40.8 112.2a3.6 3.6 0 0 1-1.2.5 2.8 2.8 0 0 1-1.5-.1 2.6 2.6 0 0 1 1.2-.9 2.3 2.3 0 0 1 1.6.3m-2.8.7a1.7 1.7 0 0 0 2.8-.7" fill="none" stroke="#000" stroke-linecap="round" stroke-linejoin="round" stroke-width=".3"/>
  <ellipse cx="39.3" cy="112.3" rx=".7" ry=".5" transform="rotate(-15.1 39.62 112.35)"/>
  <circle cx="39.2" cy="112.5" r=".2" fill="#fff"/>
  <path d="M36.6 113a2.7 2.7 0 0 0-1.7-.1c-.8.4-.8.8-.8.8a1.9 1.9 0 0 0 1.5.1c.9-.4 1-.8 1-.8z" fill="#fff"/>
  <path d="M36.5 113.2a2.8 2.8 0 0 1-1 .5 2.3 2.3 0 0 1-1.4-.1 2.2 2.2 0 0 1 1.1-.8 2 2 0 0 1 1.4.2m-2.5.7a1.5 1.5 0 0 0 2.5-.7" fill="none" stroke="#000" stroke-linecap="round" stroke-linejoin="round" stroke-width=".3"/>
  <ellipse cx="35.2" cy="113.3" rx=".6" ry=".5" transform="rotate(-15.1 35.27 113.31)"/>
  <ellipse cx="35.1" cy="113.5" rx=".2" ry=".2" transform="rotate(-15.1 34.84 113.64)" fill="#fff"/>
  <path d="M15.2 72.8a9.1 9.1 0 0 0-1.2-2.7M8 7.9h62v124.31H8zM8.1 70H70" fill="none" stroke="#000" stroke-linecap="round" stroke-linejoin="round" stroke-width=".4"/>
</svg>
