<svg xmlns="http://www.w3.org/2000/svg" viewBox="0 0 78 140">
  <rect width="78" height="140" rx="6" ry="6" fill="#fff"/>
  <path d="M65.4 34a2.3 2.3 0 0 0 1.5-.6 3 3 0 0 1-1.3-.4 2.4 2.4 0 0 0 1.6-1s-1 .3-1.4 0a1.9 1.9 0 0 0 1.4-1.3s-1.2.6-1.7.3a2.6 2.6 0 0 0 1.2-1.1 6.1 6.1 0 0 1-1.5.3c-.4-.1-3.3 2.8.2 3.8z" fill="#856353" stroke="#000" stroke-linecap="round" stroke-linejoin="round" stroke-width=".4"/>
  <path d="M61.6 31a8.2 8.2 0 0 0-7.4 5.2 53.4 53.4 0 0 0-2.8 8L38.2 63.1V70h28.5a52.5 52.5 0 0 0-1.5-6.1 7.3 7.3 0 0 0-1.2-1.7l-.7-5 1 .5 1.6-.4 1.9-1.5.9-.3.4-1.1-.3-1.3-.6-.9-.8-3v-7.6l.6-1.9-1.2-1.9-1.1-3.4-.8-1.9s-2.7-1.8-3.3-1.5z" fill="#a77e6a"/>
  <path d="M64.6 39.2s2.1 5.9 2.6 5.9l.2 3.8.5 2.3.4 1.6.6.5v2.1l-.8.4-1.4 1-1.9 1h-1.3l-.6-5.9-1.2-4.4 1.7-4.2.3-3.9z" fill="#856353"/>
  <path d="M59.4 58.3s1.9 8.5-.1 11.7h7.3s-.4-4.6-1.4-6a7.5 7.5 0 0 1-1.2-2.2l-.7-5.4z" fill="#856353"/>
  <path d="M9.7 69.9S13 57.7 23.3 57.2s13.5 11.1 13.6 12.7z" fill="#a77e6a"/>
  <path d="M29.4 58.9s2.8 7.9-2.5 11.1h9.8s-.7-8.1-7.3-11.1z" fill="#856353"/>
  <path d="M61.3 31a7.8 7.8 0 0 1 2.1 3.1c.5 1.6 1.5 4 1.5 4l.5 1.9h-1.1a25.5 25.5 0 0 0-1.1-4.4l-.8-1.1-1.2-2.1-1.2-1.3h1.3" fill="#0065b7"/>
  <path d="M21.9 57.3s-7.4 6.3-8.4 12.6h7s-.2-7.9 5-12.3c-.1 0-.1-.3-.1-.3h-.6a11.4 11.4 0 0 0-3.6 4.7 29.1 29.1 0 0 0-1 3.5l-1-.4s.4-1.2-.2-1.4-1.3.7-1.3.8-1 .1-1 .1 2.3-3.6 2.9-4.2l3.5-3.3z" fill="#325723"/>
  <path d="M17 59.2a3.2 3.2 0 0 1 2.1-3.6c2.7-1.2 7.7-2.8 12.2.6s6.9 9 5.7 13.9c0 0-1.6-9-8.4-11.9a12 12 0 0 0-11.6 1z" fill="#febf10"/>
  <path d="M38.6 69.9s2.5-16.3-13.1-18.5c-.2.4-.7-.3-.7-.3l-.3.4a6.3 6.3 0 0 0-7 5c.1-.1 6.6-4.5 12.2-1.2s8.1 8.6 7.2 14.6z" fill="red"/>
  <path d="M30 48.1l-1.6 3.7s8.7 2.8 10 11.4l5.3-3.1a17.1 17.1 0 0 1 3.2-.7c.8 0 .7-.1.7-.1L45 54.6l-1.4-4.4s-1.5.1-1.6-.9-.1-.4-.1-.4a40.7 40.7 0 0 1-7.9-.1z" fill="#325723"/>
  <path fill="#0065b7" d="M66 50.8l.4 2.4-.9 2.4-.3 1.6.1 1.2.7 1.4.3.5-1.4 1.5-2.3 1.3-2.7.4-2.5-.5-2.5-1.1-2.7-1.9-2.8-3.3-1.3-2.1-.8-1.2-1-1.9.9 2.8.2 2.5v1.7l.3 1 .3.7.6-.4.6-.9.1-.2.1 1.5.1 1 .3.6.6.8.4.4.5-.6.3-1V63l.2 1.1.6.8.5-.3.5-1 .2-.4.1 1.1.3 1.1.3.6.9-.4.5-.8.2-.4.2.9.1.8.5.7.7-.6.5-.7.2-.4.2.9.6.7.5.5.6-.4.4-.8.1-.7.4.7.5.6.6.4.5-.7.4-1.1v-.4l.7.8.5.4.4.2.6-.6.1-.8.1-.8.3.8.4.5.8-1 .5-1.2.1-1.3-.1-1.2.2-1.1-.3-.9-.5.5-.5-.8-.1-1.9.6-2 .5-1.1-.3-1.5-.2-1.9-.3-1.4-.4 2.3z"/>
  <path d="M65.1 33.7l.4.9c.1.2.1.4.2.6a7.8 7.8 0 0 1 .5 1.4l.6 1.3.7 1.2a1 1 0 0 1 .1 1.2 11.2 11.2 0 0 0-.5 1.3v.9a7.6 7.6 0 0 1 .1 1.5 5.9 5.9 0 0 0 .2 1.4v2.4a2.2 2.2 0 0 1 0 .8 4.2 4.2 0 0 0 .5 2.2 4.3 4.3 0 0 1 .1.5 7.5 7.5 0 0 0 .5 1.6h.4v.2c.1 0 .1.1.1.2s.1.7.1 1.1a2.1 2.1 0 0 1-.4 1.1h-.8c0 .1-.1.1-.2.2l-.5.4a1.3 1.3 0 0 1-1.1.6 3.5 3.5 0 0 0 .6 2.1l.5-.6a2.6 2.6 0 0 1 0 2.1 4.6 4.6 0 0 1-1.2 4.9 1.8 1.8 0 0 1-.5-.7l.3 1a21.6 21.6 0 0 1 1 4.4M65.2 30a3.7 3.7 0 0 1-.2 1.8l-.4.7a3.1 3.1 0 0 0 .5 1.2" fill="none" stroke="#000" stroke-linecap="round" stroke-linejoin="round" stroke-width=".4"/>
  <path d="M37.6 49.3a12.2 12.2 0 0 1 3.5 6.7c.1 0 4.9 1.2 6.3 3.2l-1-2-1.6-3.1-1.1-3.9h-1.3l-.4-.8v-.5z" fill="#0d3a12"/>
  <path fill="#0065b7" d="M61.6 47.2l.8-1.9v-1.8l.2-2.7.5-2-.1-1.6h.9l.5 1.8-.7 2.1-.3 2.4-.3 2.5-1.3 1.8-.2-.6z"/>
  <path fill="#febf10" d="M44.4 50.1l1.2.9.5.3.8 2.4.4 1.6v2l-.1 1.3-.9-1.3-1-2-.5-1.3-.6-1.4-.4-1.1-.3-1.2.9-.2z"/>
  <path fill="#0065b7" d="M43.7 53.4l.3.6-.1.6-.6 1.1-.2.3h.8l.4-.1.5-.7.1-1-.4-1-.4-.7-.4.9zm-5.2 9.8l2.5-1.4 2.1-1.4 2.2-.8 1.9-.2.5.1 1.6 1.8 4 4.7.9 1.5v.7l-.6 1.1-.4.8-6-.1-1.2-1.2-.7-.4-2.7-1.1-2.6-1.9-.9-.9-.8-1 .2-.3z"/>
  <path fill="#febf10" d="M41.7 61.5l2.8 2.1 2.8 2.2 1.4 1.4.3 1.1-.2 1.2-.3.6 2.3-.1.1-.9v-1.5l-.5-1.4-1.2-1.4-2.6-2.2-2.2-1.6-.9-.7-1.8 1.2z"/>
  <path d="M63 29.2a4.1 4.1 0 0 1-.5.9l-.7.8M28.4 52a6.4 6.4 0 0 1 1.8.6l1.2.6a12.1 12.1 0 0 1 2 1.4l.6.5a13.1 13.1 0 0 1 3 4.1 14 14 0 0 1 1.3 4.1h.1c.9 0 5.6-4.1 8.3-3.9h.9a14.9 14.9 0 0 0-6.5-3.6m-15.9-4.3c.1.1.1 0 0-.2m11.7 18.6a18 18 0 0 0-.6-2.2 16.6 16.6 0 0 0-3.9-6.6l-.3-.4a14.8 14.8 0 0 0-5-3l-1.4-.2-.8.7a15 15 0 0 0-3.4 5.6 19.5 19.5 0 0 0-1 6.1m4.4-12.6h-1.8m24.2 12.6l-1.7-1.5a15.4 15.4 0 0 1-4.8-2.4 9.4 9.4 0 0 1-2.4-2.5c0 .3.1.6.1.9v.3a4.9 4.9 0 0 1 .1 1.2 2.8 2.8 0 0 1 .1.9 14.8 14.8 0 0 1-.1 3m-.3-6.5a.3.3 0 0 0 .1.2m-16.6-6.2a12.4 12.4 0 0 0-4.8 1.9" fill="none" stroke="#000" stroke-linecap="round" stroke-linejoin="round" stroke-width=".4"/>
  <path d="M25.7 57.5l-.8-.2-.2.2a13.6 13.6 0 0 0-4.1 6.6.4.4 0 0 1-.1.3 5 5 0 0 0-.2 1.2l-1-.5v-.6c-.1-.4-.2-.7-.4-.8s-.8.2-1.1.9h-1.1l.5-.7a19.7 19.7 0 0 1 5.9-6.7h-1.3a27.1 27.1 0 0 0-8.3 12.6M63.3 56l.2 1.6h.9l.9-.2a9.9 9.9 0 0 1 .6-3.1l.5-1.2-.5-2.9" fill="none" stroke="#000" stroke-linecap="round" stroke-linejoin="round" stroke-width=".4"/>
  <path d="M66.1 57.2a9.7 9.7 0 0 1 1.1-3.9l-.9-5.6m-.7 17.1a1.2 1.2 0 0 1-.3-.9c-.1 1.3-.3 2.1-.8 2.4a2.7 2.7 0 0 1-1.5-1.6 5.5 5.5 0 0 1-.9 2.3 3.2 3.2 0 0 1-1.6-2c-.2 1.2-.5 1.9-1.1 2.2a3.8 3.8 0 0 1-1.3-2.1l-.7 1.1a1.3 1.3 0 0 1-.6.5 2.9 2.9 0 0 1-.8-2.3 2.6 2.6 0 0 1-1.7 1.5 4.8 4.8 0 0 1-.7-2.7 3.2 3.2 0 0 1-1.2 1.7l.5.6a8 8 0 0 1 .9 1.4 2.1 2.1 0 0 1 .4 1.2 6.4 6.4 0 0 1-1 1.8M52.8 57a5.3 5.3 0 0 1-2.6.6 12.9 12.9 0 0 0 3.5 3.5 11.8 11.8 0 0 0 5.6 2.2h1.2a10.2 10.2 0 0 0 2.5-.6l1.1-.6-.6-4.6m.6 4.7l.3-.2a8.1 8.1 0 0 0 1.9-1.8 4.5 4.5 0 0 1-1-2.7m-17.6-3.7l.4.9.6 1 1.5 1.9m1.4 3.7a2.5 2.5 0 0 0-.2.7 2.1 2.1 0 0 1-.6 1l1.3 1.4a4.7 4.7 0 0 1-.5-2.5.6.6 0 0 1 0-.6zm-1.7.6a6.6 6.6 0 0 1-.6-3.1 3.3 3.3 0 0 1-1.2 1.4 4.4 4.4 0 0 1-.7-3.3c.3-2.1-1.3-5.6-1.3-5.6" fill="none" stroke="#000" stroke-linecap="round" stroke-linejoin="round" stroke-width=".4"/>
  <path d="M44.1 52.1c.2 1.1-1.8 3.9-2.7 1.7s1.3-3.5 1.3-3.5h.9z" fill="#0065b7"/>
  <path d="M52.4 64.9l-.3-.5m-8.5-14s1.7 6.2 3.8 8.3" fill="none" stroke="#000" stroke-linecap="round" stroke-linejoin="round" stroke-width=".4"/>
  <path d="M42.7 50.3s-2.2 1.4-1.3 3.5 2.9-.5 2.7-1.6m-.6-1.5a2.2 2.2 0 0 0-1.2 2.8m1.6-.2a1.8 1.8 0 0 1-.2 1.7l-.6 1h1a2 2 0 0 0 .8-1.8m5.9 8.8l-3.3-3.6M37 69.9s1.5-8.6-5.3-13.3-14.1 0-14.1 0" fill="none" stroke="#000" stroke-linecap="round" stroke-linejoin="round" stroke-width=".4"/>
  <path d="M56.6 29.5a4.4 4.4 0 0 1 2.1-3.4c.2 0 .6.5.4 2.6s-2.5.8-2.5.8z" fill="#a77e6a" stroke="#000" stroke-linecap="round" stroke-linejoin="round" stroke-width=".4"/>
  <path d="M61.6 47.2s1.7 5.4 1.6 8" fill="none" stroke="#000" stroke-linecap="round" stroke-linejoin="round" stroke-width=".4"/>
  <path d="M63.1 28.4s-5.2-1.3-8.1 2.3a58.5 58.5 0 0 0-5 8.6l1 4.8h.5s2-10.6 8-13a3.1 3.1 0 0 1 2-.1s1.7-1.2 1.6-2.6z" fill="#856353" stroke="#000" stroke-linecap="round" stroke-linejoin="round" stroke-width=".4"/>
  <path d="M61.6 31a16.1 16.1 0 0 0 1.9-3.1c.6-1.6 1.4-1.9 1.4-1.9a13.7 13.7 0 0 0 .2 3.2 3.9 3.9 0 0 1-.5 3.3" fill="#a77e6a" stroke="#000" stroke-linecap="round" stroke-linejoin="round" stroke-width=".4"/>
  <path d="M50.7 70h-2.1l.2-.5a2 2 0 0 0-.1-2.1c-.6-1.3-4.6-4.3-7.1-5.9l1.9-1.1c1.1.7 6.1 3.8 7.1 6.2s.3 3.3.1 3.4z" fill="none" stroke="#000" stroke-linecap="round" stroke-linejoin="round" stroke-width=".4"/>
  <ellipse cx="13.9" cy="35.8" rx="3" ry="1.1" transform="rotate(-13.2 13.82 35.76)" fill="#d09b07" stroke="#000" stroke-linecap="round" stroke-linejoin="round" stroke-width=".4"/>
  <path d="M54.5 52.1c-1-6.5-3.5-8.5-3.5-8.5s-1.5-10.9-6.3-11.8S27.3 29 27.3 29s-2.9-1-5.1 3-3.7 6.5-4.1 7.5l.7 3a10.7 10.7 0 0 0-1.4-4.4c0 .1-6.4 2.2-6.4 2.2s.1 5.2 3 8.8 7.3-1.2 8.6-2.2a19.1 19.1 0 0 0 5.1-6.1c.2.8 1.4 5.6 2.3 7.2s9.8 2.5 14.7 0c-.1 0 3.9 8.1 5.3 9.4s5.6 1.1 4.5-5.3z" fill="red"/>
  <path d="M33.7 48.7s-.5-5.9-1-9.1-4.8-10.8-4.6-10.9l1.3-.2s2.4 1.6 5.2 3.1 8.2-.8 8.2-.8l1.9 1.1-1.2 16.9-5 .3z" fill="#0065b7"/>
  <path d="M45.2 32.1s4.2.7 5.8 11.5c0 .1 3.2 3.8 3.4 8.6a4.5 4.5 0 0 0-1.9-1.5s-1.7-1.9-2.5-1.9-1.6-10-5-11.9c-.1.1.2-4.8.2-4.8z" fill="#980805"/>
  <path d="M43.5 49.2l1.2-17.3-1.9-1.1s-5.5 2.3-8.2.8-5.2-3.1-5.2-3.1l-1.3.2c-.2.1 4 7.6 4.6 10.9s1 9.1 1 9.1M27.3 29s-2.9-1-5.1 3-3.7 6.5-4.1 7.5" fill="none" stroke="#000" stroke-linecap="round" stroke-linejoin="round" stroke-width=".4"/>
  <path d="M27.8 40.9S29 46.2 30 48c0 .1 9.8 2.5 14.7 0-.1 0 3.9 8.1 5.3 9.4s5.6 1.1 4.5-5.3-3.5-8.5-3.5-8.5-1.5-10.9-6.3-11.8-10.2-1.7-13.4-2.2" fill="none" stroke="#000" stroke-linecap="round" stroke-linejoin="round" stroke-width=".4"/>
  <path d="M40.9 44.1l.3-1.2a27.8 27.8 0 0 0 .2-5.2c-1.7-.3-2.8-1-3.1-2.1a5.9 5.9 0 0 1-3.3 2.2c.1 4.5 1.4 7.9 3.8 9.9a3.8 3.8 0 0 0 1.1-1.1l.6-1.1a7.4 7.4 0 0 0 .4-1.4" fill="#fbcb54"/>
  <path d="M40.9 38.5h-.3l-3.2 6.3a24.3 24.3 0 0 0 1.4 2c1.5-1.6 2.3-4.4 2.1-8.3z" fill="#174020"/>
  <path d="M38.2 36.9a4.1 4.1 0 0 1-2.5 1.3 13.5 13.5 0 0 0 1.7 6.6l3.2-6.3a3.8 3.8 0 0 1-2.4-1.6" fill="#d81b06"/>
  <path fill="#fbcb54" d="M35.3 34.2l-.6.1-.4-.7-.5.9-.6-.1.1.7-.5.4.7.3-.2.7.8-.1.4.6.4-.7h.5l-.1-.8.5-.3-.5-.3v-.7m7 .2l-.4-.5-.4.8-.5.1.2.6-.4.5.6.2v.7l.6-.1.4.5.3-.7.5-.1-.2-.8.4-.3-.5-.3-.1-.7-.5.1"/>
  <path d="M34 25.9a3 3 0 0 1-1.3 1.9c-1 .5.1 1.6 1 2.2s5.8 1.6 6.4 1 1-.9.9-1.3-1.3-1.4-1.3-2.7a2.1 2.1 0 0 0-1.2-1.9s-4-.1-4.5.8z" fill="#f3bc84"/>
  <path d="M36.7 26.5a9.2 9.2 0 0 1 1.2 4.1l1.3-.2 1.6-.6-.7-1.3-.8-3.2z" fill="#c69c6d"/>
  <path d="M34 25.9a2.7 2.7 0 0 1-1.2 1.9c-1 .5 0 1.6.9 2.2s5.8 1.6 6.4 1 1-.9.7-1.3a4.9 4.9 0 0 1-1.1-2.7 2.1 2.1 0 0 0-1.2-1.9s-4-.1-4.5.8z" fill="none" stroke="#000" stroke-linecap="round" stroke-linejoin="round" stroke-width=".4"/>
  <path d="M33.5 15s1.1-3.1 2.2-3.9 4.5-.4 7.2.9 3.1 1.4 3.6 2 .3 2.6-.6 4.9S33.5 15 33.5 15z" fill="red"/>
  <path d="M33.5 15s1.1-3.1 2.2-3.9 4.5-.4 7.2.9 3.1 1.4 3.6 2 .3 2.6-.6 4.9S33.5 15 33.5 15z" fill="none" stroke="#000" stroke-linecap="round" stroke-linejoin="round" stroke-width=".4"/>
  <circle cx="18.5" cy="21.3" r="9.3" fill="#fff" stroke="#000" stroke-linecap="round" stroke-linejoin="round" stroke-width=".4"/>
  <circle cx="18.5" cy="21.3" r="8.6"/>
  <circle cx="18.5" cy="21.3" r="6.6" fill="none" stroke="#ed1e79" stroke-linecap="round" stroke-linejoin="round" stroke-width=".4"/>
  <circle cx="18.5" cy="21.3" r="7.3" fill="#d09b07" stroke="#000" stroke-miterlimit="10" stroke-width=".4"/>
  <path fill="#856353" stroke="#000" stroke-linecap="round" stroke-linejoin="round" stroke-width=".4" d="M18.6 14.1l.9 2.8 1.9-2.3-.3 2.9 2.6-1.3-1.3 2.6 2.9-.2-2.2 1.9 2.8.9-2.8.8 2.2 1.9-2.9-.2 1.3 2.6-2.6-1.3.3 2.9-1.9-2.2-.9 2.8-.9-2.8-1.9 2.2.2-2.9-2.6 1.3 1.4-2.6-3 .2 2.3-1.9-2.8-.8 2.8-.9-2.3-1.9 3 .2-1.4-2.6 2.6 1.3-.2-2.9 1.9 2.3.9-2.8z"/>
  <circle cx="18.5" cy="13.4" r=".5" fill="#febf10"/>
  <circle cx="18.5" cy="13.4" r=".1"/>
  <circle cx="18.5" cy="29.3" r=".5" fill="#febf10"/>
  <circle cx="18.5" cy="29.3" r=".1"/>
  <circle cx="26.5" cy="21.3" r=".5" fill="#febf10"/>
  <circle cx="26.5" cy="21.3" r=".1"/>
  <circle cx="10.6" cy="21.3" r=".5" fill="#febf10"/>
  <circle cx="10.6" cy="21.3" r=".1"/>
  <circle cx="24.2" cy="15.7" r=".5" fill="#febf10"/>
  <circle cx="24.2" cy="15.7" r=".1"/>
  <circle cx="12.9" cy="26.9" r=".5" fill="#febf10"/>
  <circle cx="12.9" cy="26.9" r=".1"/>
  <circle cx="24.2" cy="26.9" r=".5" fill="#febf10"/>
  <circle cx="24.2" cy="26.9" r=".1"/>
  <circle cx="12.9" cy="15.7" r=".5" fill="#febf10"/>
  <circle cx="12.9" cy="15.7" r=".1"/>
  <circle cx="21.5" cy="13.9" r=".5" fill="#febf10"/>
  <circle cx="21.5" cy="13.9" r=".1"/>
  <circle cx="15.6" cy="28.7" r=".5" fill="#febf10"/>
  <circle cx="15.6" cy="28.7" r=".1"/>
  <circle cx="25.9" cy="24.3" r=".5" fill="#febf10"/>
  <circle cx="25.9" cy="24.3" r=".1"/>
  <circle cx="11.2" cy="18.3" r=".5" fill="#febf10"/>
  <circle cx="11.2" cy="18.3" r=".1"/>
  <circle cx="25.8" cy="18.2" r=".5" fill="#febf10"/>
  <circle cx="25.8" cy="18.2" r=".1"/>
  <circle cx="11.2" cy="24.4" r=".5" fill="#febf10"/>
  <circle cx="11.2" cy="24.4" r=".1"/>
  <circle cx="21.7" cy="28.6" r=".5" fill="#febf10"/>
  <circle cx="21.7" cy="28.6" r=".1"/>
  <circle cx="15.4" cy="14" r=".5" fill="#febf10"/>
  <circle cx="15.4" cy="14" r=".1"/>
  <circle cx="22.9" cy="14.7" r=".5" fill="#febf10"/>
  <circle cx="22.9" cy="14.7" r=".1"/>
  <circle cx="14.2" cy="28" r=".5" fill="#febf10"/>
  <circle cx="14.2" cy="28" r=".1"/>
  <circle cx="25.2" cy="25.7" r=".5" fill="#febf10"/>
  <circle cx="25.2" cy="25.7" r=".1"/>
  <circle cx="11.9" cy="16.9" r=".5" fill="#febf10"/>
  <circle cx="11.9" cy="16.9" r=".1"/>
  <circle cx="26.3" cy="19.7" r=".5" fill="#febf10"/>
  <circle cx="26.3" cy="19.7" r=".1"/>
  <circle cx="10.8" cy="22.9" r=".5" fill="#febf10"/>
  <circle cx="10.8" cy="22.9" r=".1"/>
  <circle cx="20.2" cy="29.1" r=".5" fill="#febf10"/>
  <circle cx="20.2" cy="29.1" r=".1"/>
  <circle cx="16.9" cy="13.5" r=".5" fill="#febf10"/>
  <circle cx="16.9" cy="13.5" r=".1"/>
  <circle cx="25.1" cy="16.9" r=".5" fill="#febf10"/>
  <circle cx="25.1" cy="16.9" r=".1"/>
  <circle cx="11.9" cy="25.8" r=".5" fill="#febf10"/>
  <circle cx="11.9" cy="25.8" r=".1"/>
  <circle cx="23" cy="27.9" r=".5" fill="#febf10"/>
  <circle cx="23" cy="27.9" r=".1"/>
  <circle cx="14.1" cy="14.7" r=".5" fill="#febf10"/>
  <circle cx="14.1" cy="14.7" r=".1"/>
  <circle cx="26.3" cy="22.8" r=".5" fill="#febf10"/>
  <circle cx="26.3" cy="22.8" r=".1"/>
  <circle cx="10.7" cy="19.8" r=".5" fill="#febf10"/>
  <circle cx="10.7" cy="19.8" r=".1"/>
  <circle cx="17" cy="29.1" r=".5" fill="#febf10"/>
  <circle cx="17" cy="29.1" r=".1"/>
  <circle cx="20.1" cy="13.5" r=".5" fill="#febf10"/>
  <circle cx="20.1" cy="13.5" r=".1"/>
  <circle cx="18.5" cy="21.3" r="4.5" fill="red"/>
  <path d="M22.5 19.3c.1.3.1.7.2 1a5 5 0 0 1-4.7 5.2h-1.3a6.5 6.5 0 0 0 2 .4 4.6 4.6 0 0 0 4.3-4.8 4.8 4.8 0 0 0-.5-1.8zm-2-.1c.7-.1.6.1 1.4.3s-.5-1-1.4-1a1.8 1.8 0 0 0-1.7 1.7c0 .2-.1.3 0 .5a2.2 2.2 0 0 1 1.7-1.5zm-4 0a4 4 0 0 0-1.5.3 1.8 1.8 0 0 1 1.5-1 1.5 1.5 0 0 1 1.6 1.4c0 .2-.6-.8-1.6-.7z" fill="#980805"/>
  <path d="M17.2 22.9s.7-.4 1-.3l.3.2a.4.4 0 0 1 .3-.2l1.3.5a4.2 4.2 0 0 1-1.6.8 2.2 2.2 0 0 1-1.5-.7c-.2-.3.2-.3.2-.3z" fill="#980805"/>
  <path d="M17.4 20.2a1.2 1.2 0 0 0-1.9-.3m1.8.4a1.5 1.5 0 0 1-1.5.2m3.8-.3s.6-1.3 2-.3m-1.9.4a1.7 1.7 0 0 0 1.6.2" fill="none" stroke="#000" stroke-linecap="round" stroke-linejoin="round" stroke-width=".3"/>
  <path d="M15 19.5a1.5 1.5 0 0 1 1.5-1 1.4 1.4 0 0 1 1.4 1m4 0a1.5 1.5 0 0 0-1.4-1c-1.5 0-1.8 1.7-1.6 2.6s.4.3.3.5-.3.2-.3.2h-.8m-.4-.5s-.3.5.4.5m2.3 1.2a4.1 4.1 0 0 1-1.9.9 3.6 3.6 0 0 1-1.9-.9c.6.2 1.5-.7 1.9-.2s1 .3 1.9.2zm-3.2-.8a4.5 4.5 0 0 0-1 1.5m3.6-1.5a4.5 4.5 0 0 1 1 1.5" fill="none" stroke="#000" stroke-linecap="round" stroke-linejoin="round" stroke-width=".3"/>
  <path d="M19.6 20.2h1.8a1 1 0 0 0-1.2-.1z" stroke="#000" stroke-linecap="round" stroke-linejoin="round" stroke-width=".3"/>
  <path fill="#0065b7" stroke="#000" stroke-linecap="round" stroke-linejoin="round" stroke-width=".3" d="M21.7 20.2h-.3"/>
  <path d="M17.4 20.2h-1.8a1.2 1.2 0 0 1 1.3-.1z" stroke="#000" stroke-linecap="round" stroke-linejoin="round" stroke-width=".3"/>
  <path fill="#0065b7" stroke="#000" stroke-linecap="round" stroke-linejoin="round" stroke-width=".3" d="M15.4 20.2h.2"/>
  <path d="M17.7 24.6a1.2 1.2 0 0 1 .8-.4.9.9 0 0 1 .7.3m.4-6.4l-1 .2-1-.2m-.7 5a10.8 10.8 0 0 0 3.3 0" fill="none" stroke="#000" stroke-linecap="round" stroke-linejoin="round" stroke-width=".3"/>
  <circle cx="18.5" cy="21.3" r="4.5" fill="none" stroke="#000" stroke-miterlimit="10" stroke-width=".4"/>
  <circle cx="13.7" cy="16.5" r=".1"/>
  <circle cx="15" cy="16" r=".1"/>
  <circle cx="15.9" cy="15" r=".1"/>
  <circle cx="17.3" cy="15.1" r=".1"/>
  <circle cx="19.8" cy="15.2" r=".1"/>
  <circle cx="18.6" cy="14.4" r=".1"/>
  <circle cx="21.2" cy="15" r=".1"/>
  <circle cx="22" cy="16.1" r=".1"/>
  <circle cx="23.4" cy="16.5" r=".1"/>
  <circle cx="23.8" cy="17.8" r=".1"/>
  <circle cx="24.9" cy="18.7" r=".1"/>
  <circle cx="24.7" cy="20.1" r=".1"/>
  <circle cx="25.4" cy="21.3" r=".1"/>
  <circle cx="24.7" cy="22.6" r=".1"/>
  <circle cx="24.9" cy="24" r=".1"/>
  <circle cx="23.7" cy="24.8" r=".1"/>
  <circle cx="23.4" cy="26.2" r=".1"/>
  <circle cx="22.1" cy="26.6" r=".1"/>
  <circle cx="21.2" cy="27.6" r=".1"/>
  <circle cx="19.8" cy="27.5" r=".1"/>
  <circle cx="18.6" cy="28.2" r=".1"/>
  <circle cx="17.3" cy="27.5" r=".1"/>
  <circle cx="15.9" cy="27.7" r=".1"/>
  <circle cx="15" cy="26.5" r=".1"/>
  <circle cx="13.6" cy="26.2" r=".1"/>
  <circle cx="13.3" cy="24.8" r=".1"/>
  <circle cx="12.1" cy="24" r=".1"/>
  <circle cx="12.4" cy="22.5" r=".1"/>
  <circle cx="11.6" cy="21.3" r=".1"/>
  <circle cx="12.3" cy="20.1" r=".1"/>
  <circle cx="12.2" cy="18.7" r=".1"/>
  <circle cx="13.3" cy="17.8" r=".1"/>
  <path d="M26.8 30.9s-3.6 13.9-12.6 18.3c0 0 1.1 2.8 5.3.2s7.7-7.2 8.2-8.5 1-6.8-.9-10z" fill="#980805"/>
  <path d="M30 25.1a.8.8 0 0 1-.1-.8 6.9 6.9 0 0 0 1.2-3.6 7.2 7.2 0 0 1 .7-2.7 5.7 5.7 0 0 1 2.8-2.7.6.6 0 0 1 .8.4.6.6 0 0 1-.4.9 4.3 4.3 0 0 0-2 2.1 4.1 4.1 0 0 0-.5 2.1 10.2 10.2 0 0 1-1.4 4.2.7.7 0 0 1-.9.2z" fill="#856353" stroke="#000" stroke-linecap="round" stroke-linejoin="round" stroke-width=".4"/>
  <path d="M32 25.7a.5.5 0 0 1-.3-.7 6.5 6.5 0 0 0 .3-3.8 6.3 6.3 0 0 1 .1-2.7c.7-2.4 2-3.3 2.1-3.3a.7.7 0 1 1 .7 1.1 4.5 4.5 0 0 0-1.5 2.5 5.9 5.9 0 0 0 0 2.3 10 10 0 0 1-.4 4.3c-.1.4-.5.5-.9.4a.1.1 0 0 1-.1-.1z" fill="#856353" stroke="#000" stroke-linecap="round" stroke-linejoin="round" stroke-width=".4"/>
  <path d="M34 15.4a41.6 41.6 0 0 1-1 4.8 6.1 6.1 0 0 0 .3 4.7c.8 2 3 1.7 6.2.9s3.3-7.5 2.6-8.3-4.3-3.8-8.1-2.1z" fill="#f3bc84"/>
  <path d="M39.6 16.9s.7 7.3-2.5 9.2h1.8l3.3-4.9v-3.5z" fill="#c69c6d"/>
  <path d="M34 15.3a42.4 42.4 0 0 1-1 4.9 6.1 6.1 0 0 0 .3 4.7c.8 2 3 1.7 6.2.9s3.3-7.5 2.6-8.3-4.3-3.9-8.1-2.2z" fill="none" stroke="#000" stroke-linecap="round" stroke-linejoin="round" stroke-width=".4"/>
  <path d="M40.4 19c-.1-.6-1.4-1.8-3.2-.7m-3.4-1.4s2.2-.3 2.2 1.6-1.6 2.3-1.7 2.9.6.6.6.6m1.3-.4s.2.7-.1.8a1.5 1.5 0 0 1-.8-.4h-.1m0 .4l.1-.4m-.6-.1l-.3.2" fill="none" stroke="#000" stroke-linecap="round" stroke-linejoin="round" stroke-width=".3"/>
  <path d="M34.6 23.1a.4.4 0 0 1 .3.2h.3c.2 0 .8.9.8.9l-2.1-.6 2.1.6s-1.6 1.1-2.2-.6h-.1z" fill="red"/>
  <path d="M36.3 24a7.6 7.6 0 0 1-2.7-.7m2.4.8s-1.6 1.1-2.2-.6" fill="none" stroke="#000" stroke-linecap="round" stroke-linejoin="round" stroke-width=".3"/>
  <path d="M33.8 23.3l.8-.2a.4.4 0 0 1 .3.2h.3c.2 0 .8.8.8.8" fill="none" stroke="#000" stroke-linecap="round" stroke-linejoin="round" stroke-width=".3"/>
  <path d="M44.3 28.9a.5.5 0 0 0 .4-.7 9.2 9.2 0 0 1 .6-3.7 7.2 7.2 0 0 0 .6-2.7 5.9 5.9 0 0 0-1.2-3.6.7.7 0 0 0-1 0 .7.7 0 0 0 0 .9c.1 0 .8.9.8 2.8a4.9 4.9 0 0 1-.4 2.1 8.8 8.8 0 0 0-.7 4.4c0 .3.4.6.7.6z" fill="#856353" stroke="#000" stroke-linecap="round" stroke-linejoin="round" stroke-width=".4"/>
  <path d="M42.5 28.8a.6.6 0 0 0 .6-.6 8.2 8.2 0 0 1 1.5-3.5 7.2 7.2 0 0 0 1.1-2.5 5.9 5.9 0 0 0-.3-3.8.7.7 0 0 0-1.1.7 4.7 4.7 0 0 1 .1 2.9 5.2 5.2 0 0 1-.9 2 7.9 7.9 0 0 0-1.7 4 .8.8 0 0 0 .6.8z" fill="#856353" stroke="#000" stroke-linecap="round" stroke-linejoin="round" stroke-width=".4"/>
  <path d="M41.4 28.4a.6.6 0 0 0 .6-.5 7.2 7.2 0 0 1 1.5-3.5 8.2 8.2 0 0 0 1.1-2.5 6.3 6.3 0 0 0-.3-3.9.7.7 0 0 0-.9-.2.8.8 0 0 0-.3.9 3.9 3.9 0 0 1 .2 2.9 4.7 4.7 0 0 1-1 2 9.4 9.4 0 0 0-1.6 4.1.6.6 0 0 0 .6.7z" fill="#856353" stroke="#000" stroke-linecap="round" stroke-linejoin="round" stroke-width=".4"/>
  <path d="M40.4 27.7a.6.6 0 0 0 .6-.5 7.2 7.2 0 0 1 1.5-3.5 8.2 8.2 0 0 0 1.1-2.5 6.3 6.3 0 0 0-.3-3.9.7.7 0 0 0-1.1.7 5.1 5.1 0 0 1 .1 2.9 4.6 4.6 0 0 1-.9 2 8.3 8.3 0 0 0-1.7 4.1.7.7 0 0 0 .6.7z" fill="#856353" stroke="#000" stroke-linecap="round" stroke-linejoin="round" stroke-width=".4"/>
  <path d="M39.5 27.3q.4 0 .6-.6a6.3 6.3 0 0 1 1.4-3.4 6.5 6.5 0 0 0 1.2-2.5 6.3 6.3 0 0 0-.3-3.9c-.2-.3-1.2-1-1.5-.8s0 .9.3 1.5a4.6 4.6 0 0 1 .2 2.9 6.3 6.3 0 0 1-1 2 8.9 8.9 0 0 0-1.6 4.1.6.6 0 0 0 .5.7z" fill="#856353" stroke="#000" stroke-linecap="round" stroke-linejoin="round" stroke-width=".4"/>
  <path d="M39.6 19.8a2.3 2.3 0 0 1-1.6.1c-.7-.2-.8-.6-.8-.6a2.2 2.2 0 0 1 1.5-.2c.8.3.9.7.9.7z" fill="#fff"/>
  <path d="M39.5 19.6a2.8 2.8 0 0 0-1-.5 2.4 2.4 0 0 0-1.3.2 1.7 1.7 0 0 0 1.1.7 2.1 2.1 0 0 0 1.3-.3m-2.4-.5a1.5 1.5 0 0 1 2.5.5" fill="none" stroke="#000" stroke-linecap="round" stroke-linejoin="round" stroke-width=".3"/>
  <ellipse cx="38.2" cy="19.5" rx=".5" ry=".6" transform="rotate(-78.5 38.25 19.51)"/>
  <circle cx="38.1" cy="19.3" r=".2" fill="#fff"/>
  <path d="M35.8 19.1a2.3 2.3 0 0 1-1.6.1 1 1 0 0 1-.7-.6 1.5 1.5 0 0 1 1.4-.2c.8.3.9.7.9.7z" fill="#fff"/>
  <path d="M35.7 18.9l-1-.4a2.3 2.3 0 0 0-1.1.1 1.4 1.4 0 0 0 .9.7 2.1 2.1 0 0 0 1.3-.3m-2.2-.4a1.3 1.3 0 0 1 2.2.4" fill="none" stroke="#000" stroke-linecap="round" stroke-linejoin="round" stroke-width=".3"/>
  <ellipse cx="34.5" cy="18.8" rx=".5" ry=".5" transform="rotate(-78.5 34.53 18.82)"/>
  <ellipse cx="34.4" cy="18.7" rx=".2" ry=".2" transform="rotate(-78.5 34.4 18.6)" fill="#fff"/>
  <path d="M45.8 19.7c-7.6-5-12.7-3.5-13.1-3.4l.7-1.3c.2-.1 4.2-1.6 12.7 3.3z" fill="#febf10" stroke="#000" stroke-linecap="round" stroke-linejoin="round" stroke-width=".4"/>
  <path d="M39.7 10.8L38.2 15l3.6 1.2 1.7-4a26.1 26.1 0 0 0-3.8-1.4z" fill="#febf10" stroke="#000" stroke-linecap="round" stroke-linejoin="round" stroke-width=".4"/>
  <path d="M42.9 12.7s3.4-1.6 7 3.2a15 15 0 0 0 3.7 3.1 3.1 3.1 0 0 1 1.2 4.1c-1.1 2.3-7.8-.2-8.1-3.6-.4-6.9-3.1-6.5-3.1-6.5" fill="#febf10"/>
  <path d="M43.6 12.8a2.7 2.7 0 0 1 2.8 1.7c.8 1.7.8 4.3 3.3 6.2s4.6 2.4 5.4.5c0 0 .4 2.9-1.8 2.8s-5.6-1.4-6.1-3.1-.8-4.2-1.1-5.1-.8-2.9-2.3-2.7c.1 0-.2-.3-.2-.3z" fill="#d09b07"/>
  <path d="M43.1 12.7s3.2-1.6 6.8 3.2a15 15 0 0 0 3.7 3.1 3.1 3.1 0 0 1 1.2 4.1c-1.1 2.3-7.7 0-8-3.4-.7-7.1-3-6.6-3-6.6" fill="none" stroke="#000" stroke-linecap="round" stroke-linejoin="round" stroke-width=".4"/>
  <path d="M42.5 12.7s3.1-3.6 9.9.2a14.6 14.6 0 0 0 5.9 1.7 4 4 0 0 1 3.5 4.3c-.1 3.2-9.3 3.8-11.3-.1-4.2-8-7-6.1-7-6.1" fill="#0065b7"/>
  <path d="M43.3 12.5a3.4 3.4 0 0 1 4.2.6c1.8 1.5 3.2 4.6 7.1 5.6s6.6.4 6.6-2.2c0 0 2 3.2-.7 4.3s-7.3 1.1-8.8-.6-3-4.5-3.9-5.5-2.4-2.9-4.1-2z" fill="#004da1"/>
  <path d="M42.7 12.6s2.9-3.5 9.7.3a14.6 14.6 0 0 0 5.9 1.7 4 4 0 0 1 3.5 4.3c-.1 3.2-9.1 3.9-11.2 0-4.5-7.9-6.9-6.2-6.9-6.2" fill="none" stroke="#000" stroke-linecap="round" stroke-linejoin="round" stroke-width=".4"/>
  <path d="M59.6 17.7s-1.2-1.4-4.9-2.2-5.5-5.8-12.2-2.8" fill="none" stroke="#000" stroke-linecap="round" stroke-linejoin="round" stroke-width=".4"/>
  <circle cx="41.7" cy="13" r="2.3" fill="#febf10" stroke="#000" stroke-linecap="round" stroke-linejoin="round" stroke-width=".4"/>
  <path fill="none" stroke="#000" stroke-linecap="round" stroke-linejoin="round" stroke-width=".4" d="M41.7 10.8v4.5m2.2-2.3h-4.5m4.2-1.1l-3.8 2.3m3 .8l-2.3-3.9m2.2 0L40.6 15m3-.9L39.7 12"/>
  <circle cx="41.7" cy="13" r="1.2" fill="#febf10" stroke="#000" stroke-linecap="round" stroke-linejoin="round" stroke-width=".4"/>
  <path d="M37.7 33.9c-5.8 0-8.2-5.3-8.2-5.4l3.1-.6c.2.5 3.2 4.3 8.4 1.9l3.5 1.7a12.7 12.7 0 0 1-6.8 2.4z" fill="#0d3a12"/>
  <path d="M43.4 31a8.7 8.7 0 0 1-5.6 2 7.6 7.6 0 0 1-7.2-4.7l-1.1.2s2.4 4.1 5.7 5.1a11.8 11.8 0 0 0 8.2-1.4l1.1-.7z" fill="#325723"/>
  <path d="M37.7 33.9c-5.8 0-8.2-5.3-8.2-5.4l3.1-.6c.2.5 3.2 4.3 8.4 1.9l3.5 1.7a12.7 12.7 0 0 1-6.8 2.4z" fill="none" stroke="#000" stroke-linecap="round" stroke-linejoin="round" stroke-width=".4"/>
  <path d="M43.4 31a8.7 8.7 0 0 1-5.6 2 7.6 7.6 0 0 1-7.2-4.7m-3.5 2.6a19.9 19.9 0 0 1 .8 9.4c-.9 2.7-4.1 5.7-5.3 6.6s-5.8 5.8-8.6 2.2-3-8.8-3-8.8 6.4-2.1 6.4-2.2a10.7 10.7 0 0 1 1.4 4.4" fill="none" stroke="#000" stroke-linecap="round" stroke-linejoin="round" stroke-width=".4"/>
  <path d="M13.6 28.3a3.3 3.3 0 0 1 .9-1.2c.9-.9 2.5-.3 2.5-.3s.5.3-.1.5a3.1 3.1 0 0 1-1.6.1 2.4 2.4 0 0 0-.5 1.4c0 .5 1-.7 1-.7a.9.9 0 0 1 1-.1c.5.2.6.2.7.5s-.5.5-.9.3-1 .4-1 1 .4 1.5.5 2.3a11.1 11.1 0 0 1-.6 4.9c-.6 1.4-2.6-.3-2.6-.3a7.1 7.1 0 0 0-.5-4.8 10.9 10.9 0 0 1-1-4.4c0-.2.2-2.5 1.6-2.6s-.6 1.4-.7 1.6a10.1 10.1 0 0 0 .3 1.7s.3-1.3 1.1-1.6a5.7 5.7 0 0 1 2.6-.4.3.3 0 0 1 .2.4" fill="#f3bc84"/>
  <path d="M13.6 28.3a3.3 3.3 0 0 1 .9-1.2c.9-.9 2.5-.3 2.5-.3s.5.3-.1.5a3.1 3.1 0 0 1-1.6.1 2.4 2.4 0 0 0-.5 1.4c0 .5 1-.7 1-.7a.9.9 0 0 1 1-.1c.5.2.6.2.7.5s-.5.5-.9.3-1 .4-1 1 .4 1.5.5 2.3a11.1 11.1 0 0 1-.6 4.9c-.6 1.4-2.6-.3-2.6-.3a7.1 7.1 0 0 0-.5-4.8 10.9 10.9 0 0 1-1-4.4c0-.2.2-2.5 1.6-2.6s-.6 1.4-.7 1.6a10.1 10.1 0 0 0 .3 1.7s.3-1.3 1.1-1.6a5.7 5.7 0 0 1 2.6-.4.3.3 0 0 1 .2.4" fill="none" stroke="#000" stroke-linecap="round" stroke-linejoin="round" stroke-width=".4"/>
  <path d="M18.1 39s-3.8 2.2-7.3 1.5c0 0-.3-.9.4-4.1a6.5 6.5 0 0 0 5.9-.7s.4-.3 1 3.3z" fill="#febf10" stroke="#000" stroke-linecap="round" stroke-linejoin="round" stroke-width=".4"/>
  <path d="M10.8 36.8l.3-.9h.5a4.8 4.8 0 0 0 4.7-.8l.4-.3.7.7-.4.3a6 6 0 0 1-5.8 1.2z" fill="#febf10" stroke="#000" stroke-linecap="round" stroke-linejoin="round" stroke-width=".4"/>
  <path fill="none" stroke="#000" stroke-linecap="round" stroke-linejoin="round" stroke-width=".4" d="M42.2 34.5l-.4-.6-.4.9h-.5l.2.6-.4.5.6.2v.8l.6-.2.4.5.2-.7h.5l-.2-.8.5-.4-.6-.3v-.6l-.5.1zm-1.3 4c.1 3.9-.6 6.7-2.1 8.3a12.1 12.1 0 0 1-1.4-2 12.5 12.5 0 0 1-1.7-6.6 4.1 4.1 0 0 0 2.5-1.3 3.8 3.8 0 0 0 2.4 1.6z"/>
  <path d="M41.1 42.9a20.8 20.8 0 0 0 .3-5.2c-1.7-.3-2.8-1-3.2-2.1a5.3 5.3 0 0 1-3.2 2.2c.1 4.5 1.4 7.9 3.8 9.9a3.8 3.8 0 0 0 1.1-1.1l.6-1.1a7.4 7.4 0 0 0 .4-1.4zm-7.4-8.4h-.6l.1.6-.5.5.6.3-.1.7.8-.1.3.5.4-.7.6.1-.1-.8.5-.3-.5-.4v-.6h-.6l-.4-.6-.5.8z" fill="none" stroke="#000" stroke-linecap="round" stroke-linejoin="round" stroke-width=".4"/>
  <path d="M37.8 38.8a.5.5 0 0 1 .4.2 1 1 0 0 1 0 1.2.5.5 0 0 1-.4.2l-.4-.2a1.8 1.8 0 0 1 0-1.2z" fill="#0065b7" stroke="#000" stroke-linecap="round" stroke-linejoin="round" stroke-width=".4"/>
  <path fill="none" stroke="#000" stroke-linecap="round" stroke-linejoin="round" stroke-width=".4" d="M37.4 44.8l3.2-6.3"/>
  <path d="M18.3 54.8s6.9-7.2 18 3.5c.1.1-2.7-5.9-11.1-7 0 .2-.5-.3-.5-.3l-.4.4s-4.6-.3-6 3.4z" fill="#980805"/>
  <path d="M32.9 48.5A29.6 29.6 0 0 0 26.8 29l1.3-.3A32.2 32.2 0 0 1 34 48.6m10.1.6l-1-.1 1.2-17.7.9.4-1.1 17.4z" fill="#febf10" stroke="#000" stroke-linecap="round" stroke-linejoin="round" stroke-width=".4"/>
  <path d="M44.8 43.7c-.7-.5-3.2.2-3.8.9a1.3 1.3 0 0 0-.1 1.5.3.3 0 0 0-.1.2c-.2 1.2.5 1 .6 1a.4.4 0 0 0-.1.3c0 1.1.6 1.2.8 1.1s-.1.3 0 .4 2.2.8 2.2.8v-.2a4.9 4.9 0 0 0 1.9 1.5l1.5 2.6a2.7 2.7 0 0 0 1.3-2.2s-3.4-7.4-4.2-7.9z" fill="#f3bc84"/>
  <path d="M43 44.8s-1.9.3-2.2 1.6.5 1 .5 1" fill="none" stroke="#000" stroke-linecap="round" stroke-linejoin="round" stroke-width=".4"/>
  <path d="M43.5 46s-2.2.4-2.2 1.7.7 1.1.7 1.1" fill="none" stroke="#000" stroke-linecap="round" stroke-linejoin="round" stroke-width=".4"/>
  <path d="M43.6 47.3a1.6 1.6 0 0 0-1.5 1.9c.2 1.6 2.2.8 2.2.8" fill="none" stroke="#000" stroke-linecap="round" stroke-linejoin="round" stroke-width=".4"/>
  <path d="M42.7 49.2s.9 0 1-.2a5.1 5.1 0 0 0 2.4 2.3l1.5 2.6a2.7 2.7 0 0 0 1.4-2.3s-3.4-7.4-4.2-7.9-3.2.2-3.8.9a1.3 1.3 0 0 0-.1 1.5m11.6 4.7s-1.8-2.6-4.7-2.2" fill="none" stroke="#000" stroke-linecap="round" stroke-linejoin="round" stroke-width=".4"/>
  <path d="M57.2 58.7a6.7 6.7 0 0 1-2.8-.6c-3.4-1.3-6-6.3-8.1-12.2a6.4 6.4 0 0 1 2.1 2.9c.4 1.6 3.4 7 6.4 8.1a7.5 7.5 0 0 0 6.9-.7c5.3-2.8 3-14.5 3-14.6l1.2-.2c.1.5 2.5 12.6-3.6 15.9a11.6 11.6 0 0 1-5.1 1.4z" fill="#0065b7" stroke="#000" stroke-linecap="round" stroke-linejoin="round" stroke-width=".4"/>
  <path d="M9.8 69.9a6.9 6.9 0 0 1 .3-.8 12.3 12.3 0 0 1 .9-2.2 21.4 21.4 0 0 1 4.9-6.8l1.1-.9c0-.2-.1-.4-.1-.6a3.5 3.5 0 0 1 .5-1.8l.3-.7a6.1 6.1 0 0 1 5.8-4.6h1v-.2h.3a.1.1 0 0 1 .1.1h.1c0 .1.1.1.1.2l2.4.4.8.2L30 48m31.5-16.9a9.2 9.2 0 0 1 2.3 4M60 31.2a8.5 8.5 0 0 1 2.6 3.9" fill="none" stroke="#000" stroke-linecap="round" stroke-linejoin="round" stroke-width=".4"/>
  <path fill="#0065b7" stroke="#000" stroke-linecap="round" stroke-linejoin="round" stroke-width=".4" d="M64.14 40.3l1.46-.34.36 1.5-1.46.34z"/>
  <path fill="#e6e6e6" stroke="#000" stroke-linecap="round" stroke-linejoin="round" stroke-width=".4" d="M62.33 35.36l2.14-.51.5 2.1-2.14.5z"/>
  <path d="M63.06 35.8l.87-.2.2.83-.88.21z"/>
  <path d="M64.6 37.1s.5 1.6.8 2.8" fill="none" stroke="#000" stroke-linecap="round" stroke-linejoin="round" stroke-width=".4"/>
  <path d="M62.9 37.5a8.4 8.4 0 0 1 0 2.9 46.6 46.6 0 0 0-.5 4.9l-.3.9a8.8 8.8 0 0 0-.5 1l.2.5a3.3 3.3 0 0 0 1.4-2.5c.2-1.7.9-5.1.9-6.1" fill="#0065b7" stroke="#000" stroke-linecap="round" stroke-linejoin="round" stroke-width=".4"/>
  <path d="M63.4 37.4a9.9 9.9 0 0 1 .9 2.7m-51.7 66.1a1.8 1.8 0 0 0-1.5.6s1 0 1.3.4a2.1 2.1 0 0 0-1.6.9s1-.3 1.4 0a2.1 2.1 0 0 0-1.4 1.4s1.2-.7 1.7-.4a2.6 2.6 0 0 0-1.2 1.1 4 4 0 0 1 1.5-.2c.4 0 3.3-2.9-.2-3.8z" fill="#856353" stroke="#000" stroke-linecap="round" stroke-linejoin="round" stroke-width=".4"/>
  <path d="M16.4 109.1a8 8 0 0 0 7.4-5.2 49 49 0 0 0 2.8-8L39.8 77v-6.9H11.2a52.5 52.5 0 0 0 1.5 6.1A7.9 7.9 0 0 0 14 78l.7 4.9-1-.4-1.6.3-1.9 1.6-1 .2-.3 1.1.3 1.3.6 1 .8 3v7.5l-.6 2 1.2 1.9 1.1 3.3.8 1.9s2.7 1.9 3.3 1.5z" fill="#a77e6a"/>
  <path d="M13.4 101s-2.2-6-2.6-6-.2-3.8-.2-3.8l-.5-2.2-.4-1.6-.6-.6v-2.1l.8-.3 1.4-1 1.9-1h1.3l.6 5.9 1.2 4.3-1.7 4.4-.3 3.8z" fill="#856353"/>
  <path d="M18.6 81.8s-1.9-8.4.1-11.7h-7.3s.3 4.6 1.3 6a11 11 0 0 1 1.3 2.2l.7 5.4z" fill="#856353"/>
  <path d="M68.3 70.3S65 82.4 54.7 82.9 41.2 71.8 41.1 70.2s27.2.1 27.2.1z" fill="#a77e6a"/>
  <path d="M48.6 81.2s-2.8-7.8 2.5-11.1h-9.9s.8 8.1 7.4 11.1z" fill="#856353"/>
  <path d="M16.7 109.1a8 8 0 0 1-2.1-3c-.5-1.7-1.5-4-1.5-4l-.5-1.9 1.1-.2a25.5 25.5 0 0 0 1.1 4.4l.8 1.1 1.2 2.2 1.2 1.4h-1.3" fill="#0065b7"/>
  <path d="M56.1 82.8s7.4-6.3 8.4-12.6h-7s.2 8-5 12.4c.1-.1.1.3.1.3h.6a12.1 12.1 0 0 0 3.6-4.9 29.1 29.1 0 0 0 1-3.5l1 .5s-.4 1.1.2 1.3 1.3-.7 1.3-.8h1a41 41 0 0 1-2.9 4.2L54.9 83z" fill="#325723"/>
  <path d="M61 80.9a3.3 3.3 0 0 1-2.1 3.7c-2.7 1.2-7.7 2.8-12.2-.7s-6.9-9-5.7-13.9c0 0 1.6 9 8.4 11.9a11.7 11.7 0 0 0 11.6-1z" fill="#febf10"/>
  <path d="M39.4 70.3s-2.5 16.3 13.1 18.4c.2-.3.7.4.7.4l.3-.5a6.3 6.3 0 0 0 7-5c-.1.1-6.6 4.5-12.2 1.2s-8.1-8.6-7.2-14.6z" fill="red"/>
  <path d="M48 92l1.6-3.7s-8.7-2.8-10-11.4c.1 0-4.4 2.7-5.3 3.1a11.6 11.6 0 0 1-3.2.7c-.8 0-.7.1-.7.1l2.6 4.7 1.4 4.4s1.5-.1 1.6.9.1.5.1.5a33.4 33.4 0 0 1 7.9.1z" fill="#325723"/>
  <path fill="#0065b7" d="M12 89.3l-.4-2.4.9-2.3.3-1.7-.1-1.2-.7-1.3-.3-.5 1.4-1.6 2.3-1.2 2.7-.4 2.5.4 2.5 1.2 2.7 1.8 2.8 3.3 1.3 2.2.8 1.2 1 1.8-.9-2.8-.2-2.5v-1.6l-.3-1.1-.3-.7-.6.4-.6.9-.1.2-.1-1.5-.1-1-.3-.6-.6-.8-.4-.4-.5.6-.3 1.1v-1.7l-.2-1.1-.6-.8-.5.3-.5 1.1-.2.3-.1-1.1-.3-1-.3-.6-.9.4-.5.7-.2.4-.2-.9-.1-.8-.5-.6-.7.5-.5.7-.2.5-.2-.9-.6-.8-.5-.5-.6.4-.4.9-.1.7-.4-.7-.5-.6-.6-.5-.5.8-.4 1v.4l-.7-.8-.5-.3-.4-.2-.6.5-.1.9-.1.8-.3-.9-.4-.4-.8.9-.5 1.2-.1 1.3.1 1.2-.2 1.2.3.8.5-.5.5.8.1 1.9-.6 2-.5 1.1.3 1.6.2 1.9.3 1.3.4-2.3z"/>
  <path d="M12.9 106.4l-.4-.9c-.1-.2-.1-.4-.2-.6a7.8 7.8 0 0 1-.5-1.4l-.6-1.3-.7-1.1a1.2 1.2 0 0 1-.1-1.3 6.9 6.9 0 0 0 .5-1.3v-.9a7.1 7.1 0 0 1-.1-1.5 6.8 6.8 0 0 0-.2-1.4v-2.4a2.1 2.1 0 0 1 0-.8 4.2 4.2 0 0 0-.5-2.2 4.3 4.3 0 0 1-.1-.5 7.5 7.5 0 0 0-.5-1.6h-.4a.4.4 0 0 1-.1-.3c0-.3-.1-.7-.1-1a2.5 2.5 0 0 1 .4-1.2h1c.1-.2.3-.3.5-.5a2 2 0 0 1 1.1-.6 3.7 3.7 0 0 0-.6-2.1l-.5.6a2.6 2.6 0 0 1 0-2.1 4.6 4.6 0 0 1 1.2-5.1l.5.7-.3-.9a24.2 24.2 0 0 1-1-4.5m1.6 40a4 4 0 0 1 .2-1.9l.4-.6a2.9 2.9 0 0 0-.5-1.3" fill="none" stroke="#000" stroke-linecap="round" stroke-linejoin="round" stroke-width=".4"/>
  <path d="M40.4 90.8a12.2 12.2 0 0 1-3.5-6.7c-.1 0-4.9-1.1-6.3-3.2l1 2 1.6 3.1 1.1 4h1.3l.4.8v.5z" fill="#0d3a12"/>
  <path fill="#0065b7" d="M16.4 92.9l-.8 1.9v1.8l-.2 2.8-.5 1.9.1 1.6-.9.1-.5-1.9.7-2.1.3-2.4.3-2.5 1.3-1.8.2.6z"/>
  <path fill="#febf10" d="M33.6 90l-1.2-.9-.5-.2-.8-2.5-.4-1.6v-2l.1-1.3.9 1.3 1 2 .5 1.4.6 1.3.4 1.1.3 1.2-.9.2z"/>
  <path fill="#0065b7" d="M34.3 86.7l-.3-.5.1-.7.6-1.1.2-.3h-.8l-.4.2-.5.6-.1 1 .4 1 .4.8.4-1zm5.2-9.8L37 78.3l-2.1 1.4-2.2.8-1.9.3-.5-.2-1.6-1.8-4-4.7-.9-1.5V72l.6-1.1.4-.8h6l1.2 1.2.7.4 2.7 1.1 2.6 1.9.9.9.8 1-.2.3z"/>
  <path fill="#febf10" d="M36.3 78.6l-2.8-2.1-2.8-2.1-1.4-1.5-.3-1.1.2-1.2.3-.6-2.3.1-.1.9v1.6l.5 1.3 1.2 1.4 2.6 2.3 2.2 1.6.9.6 1.8-1.2z"/>
  <path d="M15 110.9a2.2 2.2 0 0 1 .5-.8l.7-.8m33.4-21.1l-1.8-.7-1.2-.6-2-1.3-.6-.5a13.5 13.5 0 0 1-3-4.2 14.4 14.4 0 0 1-1.3-4h-.1c-.9 0-5.6 4.1-8.3 3.8h-.9a13.9 13.9 0 0 0 6.5 3.6m15.9 4.3c-.1 0-.1 0 0 .2M41.1 70.2a14.1 14.1 0 0 0 .6 2.2 17 17 0 0 0 3.9 6.7l.3.3a14.8 14.8 0 0 0 5 3l1.4.3.8-.7a15.5 15.5 0 0 0 3.4-5.7 19 19 0 0 0 1-6.1m-4.4 12.6h1.8M30.7 70.2l1.7 1.5a15.4 15.4 0 0 1 4.8 2.4 11.2 11.2 0 0 1 2.4 2.5c0-.3-.1-.6-.1-.9v-.3a4.1 4.1 0 0 1-.1-1.1 3.4 3.4 0 0 1-.1-1 14.8 14.8 0 0 1 .1-3m.3 6.6a.4.4 0 0 0-.1-.3m16.6 6.2a12.4 12.4 0 0 0 4.8-1.9" fill="none" stroke="#000" stroke-linecap="round" stroke-linejoin="round" stroke-width=".4"/>
  <path d="M52.3 82.7h1a14.4 14.4 0 0 0 4.1-6.7.4.4 0 0 1 .1-.3 5 5 0 0 0 .2-1.2l1 .5v.7c.1.4.2.6.4.7s.8-.2 1.1-.9h1.1l-.5.8a20.7 20.7 0 0 1-5.9 6.7h1.3a27.1 27.1 0 0 0 8.3-12.6M14.7 84.2l-.2-1.7h-.9a3.2 3.2 0 0 0-.9.3 8.9 8.9 0 0 1-.6 3l-.5 1.2.5 2.9" fill="none" stroke="#000" stroke-linecap="round" stroke-linejoin="round" stroke-width=".4"/>
  <path d="M11.9 83a9.7 9.7 0 0 1-1.1 3.8l.9 5.6m.7-17.1a1.2 1.2 0 0 1 .3.9c.1-1.3.3-2.1.8-2.4a2.6 2.6 0 0 1 1.5 1.7 5.5 5.5 0 0 1 .9-2.4 3.2 3.2 0 0 1 1.6 2c.2-1.2.5-1.9 1.1-2.2a4.6 4.6 0 0 1 1.3 2.1l.7-1.1.6-.5a3 3 0 0 1 .8 2.3 2.6 2.6 0 0 1 1.7-1.5 4.8 4.8 0 0 1 .7 2.7 3.2 3.2 0 0 1 1.2-1.7l-.5-.6a7.7 7.7 0 0 1-.9-1.3 2.4 2.4 0 0 1-.4-1.3 6.4 6.4 0 0 1 1-1.8m.4 12.9a9.1 9.1 0 0 1 2.6-.6 14.5 14.5 0 0 0-3.5-3.5 11.8 11.8 0 0 0-5.6-2.2h-1.2a10.2 10.2 0 0 0-2.5.6l-1.1.6.6 4.6m-.6-4.7l-.3.2a8.1 8.1 0 0 0-1.9 1.8 4.5 4.5 0 0 1 1 2.8m17.6 3.6l-.4-.9-.6-1-1.5-1.9m-1.4-3.7a2.5 2.5 0 0 0 .2-.7 2.9 2.9 0 0 1 .6-1l-1.3-1.4a4.9 4.9 0 0 1 .5 2.5.6.6 0 0 1 0 .6zm1.7-.6a6.8 6.8 0 0 1 .6 3.1 2.6 2.6 0 0 1 1.2-1.3 4 4 0 0 1 .7 3.2c-.4 2.1 1.3 5.6 1.3 5.6" fill="none" stroke="#000" stroke-linecap="round" stroke-linejoin="round" stroke-width=".4"/>
  <path d="M33.9 88c-.2-1.1 1.8-3.9 2.7-1.7s-1.3 3.5-1.3 3.5h-.9z" fill="#0065b7"/>
  <path d="M25.6 75.2l.3.5m8.5 14s-1.7-6.2-3.8-8.3" fill="none" stroke="#000" stroke-linecap="round" stroke-linejoin="round" stroke-width=".4"/>
  <path d="M35.3 89.8s2.2-1.3 1.3-3.5-2.9.5-2.7 1.6m.6 1.5a2.1 2.1 0 0 0 1.2-2.7m-1.6.1a1.8 1.8 0 0 1 .2-1.7l.6-.9h-1a2 2 0 0 0-.8 1.8m-5.9-8.9l3.3 3.6M41 70.3s-1.5 8.6 5.3 13.3 14.1 0 14.1 0" fill="none" stroke="#000" stroke-linecap="round" stroke-linejoin="round" stroke-width=".4"/>
  <path d="M21.4 110.6a4.4 4.4 0 0 1-2.1 3.4c-.2 0-.6-.5-.4-2.6s2.5-.8 2.5-.8z" fill="#a77e6a" stroke="#000" stroke-linecap="round" stroke-linejoin="round" stroke-width=".4"/>
  <path d="M16.4 93s-1.7-5.5-1.6-8.1" fill="none" stroke="#000" stroke-linecap="round" stroke-linejoin="round" stroke-width=".4"/>
  <path d="M14.9 111.8s5.2 1.2 8.1-2.4a58.5 58.5 0 0 0 5-8.6L27 96h-.5s-2 10.5-8 13a4.3 4.3 0 0 1-2 0s-1.7 1.3-1.6 2.8z" fill="#856353" stroke="#000" stroke-linecap="round" stroke-linejoin="round" stroke-width=".4"/>
  <path d="M16.4 109.1a16.1 16.1 0 0 0-1.9 3.1c-.6 1.6-1.4 1.9-1.4 1.9a12.7 12.7 0 0 0-.2-3.1 3.9 3.9 0 0 1 .5-3.3" fill="#a77e6a" stroke="#000" stroke-linecap="round" stroke-linejoin="round" stroke-width=".4"/>
  <path d="M27.3 70.1h2.1l-.2.5a2.1 2.1 0 0 0 .1 2.2c.6 1.2 4.6 4.2 7.1 5.9l-1.9 1.1c-1.1-.8-6.1-3.9-7.1-6.3s-.3-3.3-.1-3.4z" fill="none" stroke="#000" stroke-linecap="round" stroke-linejoin="round" stroke-width=".4"/>
  <ellipse cx="64.1" cy="104.3" rx="3" ry="1.1" transform="rotate(-13.2 64.14 104.2)" fill="#d09b07" stroke="#000" stroke-linecap="round" stroke-linejoin="round" stroke-width=".4"/>
  <path d="M23.5 88.1c1 6.4 3.5 8.5 3.5 8.5s1.5 10.8 6.3 11.8 17.4 2.7 17.4 2.7 2.9 1.1 5.1-3 3.7-6.4 4.1-7.5l-.7-2.9a10 10 0 0 0 1.4 4.3l6.4-2.2s-.1-5.2-3-8.8-7.3 1.3-8.6 2.2a18.5 18.5 0 0 0-5.1 6.2 42.5 42.5 0 0 0-2.3-7.3s-9.8-2.5-14.7 0c.1 0-3.9-8.1-5.3-9.4s-5.6-1.1-4.5 5.4z" fill="red"/>
  <path d="M44.2 91.4s.5 5.9 1.1 9.1 4.8 10.8 4.6 10.9l-1.3.2s-2.4-1.6-5.2-3.1-8.2.8-8.2.8l-1.9-1.1 1.2-16.9 5-.3z" fill="#0065b7"/>
  <path d="M32.8 108s-4.2-.7-5.8-11.5a15.2 15.2 0 0 1-3.4-8.6 4.6 4.6 0 0 0 1.9 1.6s1.7 1.9 2.5 1.9 1.6 9.9 5 11.8c.1-.1-.2 4.8-.2 4.8z" fill="#980805"/>
  <path d="M34.5 90.9l-1.2 17.3 1.9 1.1s5.5-2.3 8.2-.8 5.2 3.1 5.2 3.1l1.3-.2c.2-.1-4-7.6-4.6-10.9s-1.1-9.1-1.1-9.1m6.5 19.7s2.9 1.1 5.1-3 3.7-6.4 4.1-7.5" fill="none" stroke="#000" stroke-linecap="round" stroke-linejoin="round" stroke-width=".4"/>
  <path d="M50.2 99.2S49 93.9 48 92.1c0 0-9.8-2.5-14.7 0 .1 0-3.9-8.1-5.3-9.4s-5.6-1.1-4.5 5.4 3.5 8.5 3.5 8.5 1.5 10.8 6.3 11.8l13.4 2.1" fill="none" stroke="#000" stroke-linecap="round" stroke-linejoin="round" stroke-width=".4"/>
  <path d="M37.1 96l-.3 1.2a28.2 28.2 0 0 0-.2 5.2c1.7.4 2.8 1 3.1 2.1a5.3 5.3 0 0 1 3.3-2.1c-.1-4.6-1.4-7.9-3.8-10a5.7 5.7 0 0 0-1.1 1.1l-.6 1.2a6.5 6.5 0 0 0-.4 1.3" fill="#fbcb54"/>
  <path d="M37.1 101.6h.3l3.2-6.2c-.4-.7-.9-1.4-1.4-2.1-1.5 1.7-2.3 4.4-2.1 8.3z" fill="#174020"/>
  <path d="M39.8 103.2a4.1 4.1 0 0 1 2.5-1.3 12.9 12.9 0 0 0-1.7-6.5l-3.2 6.2a3.8 3.8 0 0 1 2.4 1.6" fill="#d81b06"/>
  <path fill="#fbcb54" d="M42.7 105.9l.6-.1.4.7.5-.9.6.1-.1-.6.5-.5-.7-.3.2-.7-.8.1-.4-.6-.4.7h-.5l.1.8-.5.3.5.4v.6m-7-.2l.4.6.4-.9h.5l-.2-.6.4-.6-.6-.2v-.7l-.6.2-.4-.6-.3.8h-.5l.2.8-.4.4.5.2.1.7.5-.1"/>
  <path d="M44 114.2a2.9 2.9 0 0 1 1.3-1.8c1-.5-.1-1.6-1-2.3s-5.8-1.6-6.4-1-1 .9-.9 1.3 1.3 1.4 1.3 2.8a2 2 0 0 0 1.2 1.8s4 .1 4.5-.8z" fill="#f3bc84"/>
  <path d="M41.3 113.6a9.2 9.2 0 0 1-1.2-4.1l-1.3.2-1.6.6.7 1.3.8 3.2z" fill="#c69c6d"/>
  <path d="M44 114.2a2.7 2.7 0 0 1 1.2-1.9c1-.5 0-1.5-.9-2.2s-5.8-1.6-6.4-1-1 1-.7 1.3a5.3 5.3 0 0 1 1.1 2.8 2 2 0 0 0 1.2 1.8s4 .1 4.5-.8z" fill="none" stroke="#000" stroke-linecap="round" stroke-linejoin="round" stroke-width=".4"/>
  <path d="M44.5 125.1s-1.1 3.2-2.2 4-4.5.3-7.2-.9-3.1-1.5-3.6-2-.3-2.7.6-5 12.4 3.9 12.4 3.9z" fill="red"/>
  <path d="M44.5 125.1s-1.1 3.2-2.2 4-4.5.3-7.2-.9-3.1-1.5-3.6-2-.3-2.7.6-5 12.4 3.9 12.4 3.9z" fill="none" stroke="#000" stroke-linecap="round" stroke-linejoin="round" stroke-width=".4"/>
  <circle cx="59.5" cy="118.8" r="9.3" fill="#fff" stroke="#000" stroke-linecap="round" stroke-linejoin="round" stroke-width=".4"/>
  <circle cx="59.5" cy="118.8" r="8.6"/>
  <circle cx="59.5" cy="118.8" r="6.6" fill="none" stroke="#ed1e79" stroke-linecap="round" stroke-linejoin="round" stroke-width=".4"/>
  <circle cx="59.5" cy="118.8" r="7.3" fill="#d09b07" stroke="#000" stroke-miterlimit="10" stroke-width=".4"/>
  <path fill="#856353" stroke="#000" stroke-linecap="round" stroke-linejoin="round" stroke-width=".4" d="M59.4 126.1l-.9-2.8-1.9 2.2.3-2.9-2.6 1.3 1.3-2.6-2.9.3 2.2-1.9-2.8-.9 2.8-.9-2.2-1.9 2.9.2-1.3-2.6 2.6 1.4-.3-3 1.9 2.3.9-2.8.9 2.8 1.9-2.3-.2 3 2.6-1.4-1.4 2.6 3-.2-2.3 1.9 2.8.9-2.8.9 2.3 1.9-3-.3 1.4 2.6-2.6-1.3.2 2.9-1.9-2.2-.9 2.8z"/>
  <circle cx="59.5" cy="126.8" r=".5" fill="#febf10"/>
  <circle cx="59.5" cy="126.8" r=".1"/>
  <circle cx="59.5" cy="110.9" r=".5" fill="#febf10"/>
  <circle cx="59.5" cy="110.9" r=".1"/>
  <circle cx="51.5" cy="118.8" r=".5" fill="#febf10"/>
  <circle cx="51.5" cy="118.8" r=".1"/>
  <circle cx="67.4" cy="118.8" r=".5" fill="#febf10"/>
  <circle cx="67.4" cy="118.8" r=".1"/>
  <circle cx="53.8" cy="124.4" r=".5" fill="#febf10"/>
  <circle cx="53.8" cy="124.4" r=".1"/>
  <circle cx="65.1" cy="113.2" r=".5" fill="#febf10"/>
  <circle cx="65.1" cy="113.2" r=".1"/>
  <circle cx="53.8" cy="113.2" r=".5" fill="#febf10"/>
  <circle cx="53.8" cy="113.2" r=".1"/>
  <circle cx="65.1" cy="124.5" r=".5" fill="#febf10"/>
  <circle cx="65.1" cy="124.5" r=".1"/>
  <circle cx="56.5" cy="126.2" r=".5" fill="#febf10"/>
  <circle cx="56.5" cy="126.2" r=".1"/>
  <circle cx="62.4" cy="111.4" r=".5" fill="#febf10"/>
  <circle cx="62.4" cy="111.4" r=".1"/>
  <circle cx="52.1" cy="115.9" r=".5" fill="#febf10"/>
  <circle cx="52.1" cy="115.9" r=".1"/>
  <circle cx="66.8" cy="121.8" r=".5" fill="#febf10"/>
  <circle cx="66.8" cy="121.8" r=".1"/>
  <circle cx="52.2" cy="121.9" r=".5" fill="#febf10"/>
  <circle cx="52.2" cy="121.9" r=".1"/>
  <circle cx="66.8" cy="115.7" r=".5" fill="#febf10"/>
  <circle cx="66.8" cy="115.7" r=".1"/>
  <circle cx="56.3" cy="111.5" r=".5" fill="#febf10"/>
  <circle cx="56.3" cy="111.5" r=".1"/>
  <circle cx="62.6" cy="126.1" r=".5" fill="#febf10"/>
  <circle cx="62.6" cy="126.1" r=".1"/>
  <circle cx="55.1" cy="125.5" r=".5" fill="#febf10"/>
  <circle cx="55.1" cy="125.5" r=".1"/>
  <circle cx="63.8" cy="112.2" r=".5" fill="#febf10"/>
  <circle cx="63.8" cy="112.2" r=".1"/>
  <circle cx="52.8" cy="114.5" r=".5" fill="#febf10"/>
  <circle cx="52.8" cy="114.5" r=".1"/>
  <circle cx="66.1" cy="123.2" r=".5" fill="#febf10"/>
  <circle cx="66.1" cy="123.2" r=".1"/>
  <circle cx="51.7" cy="120.4" r=".5" fill="#febf10"/>
  <circle cx="51.7" cy="120.4" r=".1"/>
  <circle cx="67.2" cy="117.2" r=".5" fill="#febf10"/>
  <circle cx="67.2" cy="117.2" r=".1"/>
  <circle cx="57.8" cy="111" r=".5" fill="#febf10"/>
  <circle cx="57.8" cy="111" r=".1"/>
  <circle cx="61.1" cy="126.6" r=".5" fill="#febf10"/>
  <circle cx="61.1" cy="126.6" r=".1"/>
  <circle cx="52.9" cy="123.3" r=".5" fill="#febf10"/>
  <circle cx="52.9" cy="123.3" r=".1"/>
  <circle cx="66.1" cy="114.4" r=".5" fill="#febf10"/>
  <circle cx="66.1" cy="114.4" r=".1"/>
  <circle cx="55" cy="112.2" r=".5" fill="#febf10"/>
  <circle cx="55" cy="112.2" r=".1"/>
  <circle cx="63.9" cy="125.4" r=".5" fill="#febf10"/>
  <circle cx="63.9" cy="125.4" r=".1"/>
  <circle cx="51.7" cy="117.3" r=".5" fill="#febf10"/>
  <circle cx="51.7" cy="117.3" r=".1"/>
  <circle cx="67.3" cy="120.3" r=".5" fill="#febf10"/>
  <circle cx="67.3" cy="120.3" r=".1"/>
  <circle cx="61" cy="111" r=".5" fill="#febf10"/>
  <circle cx="61" cy="111" r=".1"/>
  <circle cx="57.9" cy="126.6" r=".5" fill="#febf10"/>
  <circle cx="57.9" cy="126.6" r=".1"/>
  <circle cx="59.5" cy="118.8" r="4.5" fill="red"/>
  <path d="M55.5 120.8c-.1-.3-.1-.6-.2-1a5.1 5.1 0 0 1 4.7-5.2h1.3A4.6 4.6 0 0 0 55 119a4.8 4.8 0 0 0 .5 1.8zm2 .1c-.7.1-.6-.1-1.4-.3s.5 1 1.4 1a1.7 1.7 0 0 0 1.7-1.7c0-.2.1-.3 0-.5a2 2 0 0 1-1.7 1.5zm4 0a4 4 0 0 0 1.5-.3 1.8 1.8 0 0 1-1.5 1 1.5 1.5 0 0 1-1.6-1.4c0-.2.6.8 1.6.7z" fill="#980805"/>
  <path d="M60.8 117.2s-.7.4-1 .3l-.3-.2a.4.4 0 0 1-.3.2l-1.3-.4a3.7 3.7 0 0 1 1.6-.9s1.2.2 1.5.8-.2.2-.2.2z" fill="#980805"/>
  <path d="M60.6 119.9a1.2 1.2 0 0 0 1.9.4m-1.8-.5a1.4 1.4 0 0 1 1.5-.1m-3.8.2a1.2 1.2 0 0 1-2 .4m1.9-.5a1.5 1.5 0 0 0-1.6-.1" fill="none" stroke="#000" stroke-linecap="round" stroke-linejoin="round" stroke-width=".3"/>
  <path d="M63 120.6a1.5 1.5 0 0 1-1.5 1 1.4 1.4 0 0 1-1.4-1m-4 0a1.5 1.5 0 0 0 1.4 1c1.5 0 1.8-1.7 1.6-2.6s-.4-.2-.3-.5l.3-.2c.5-.5.8 0 .8 0m.4.6s.3-.6-.4-.6m-2.3-1.2a4.1 4.1 0 0 1 1.9-.9 3.6 3.6 0 0 1 1.9.9c-.6-.1-1.5.7-1.9.2s-1-.3-1.9-.2zm3.2.9a5.5 5.5 0 0 0 1-1.6m-3.6 1.6a5.5 5.5 0 0 1-1-1.6" fill="none" stroke="#000" stroke-linecap="round" stroke-linejoin="round" stroke-width=".3"/>
  <path d="M58.4 119.9h-1.8a1 1 0 0 0 1.2.1z" stroke="#000" stroke-linecap="round" stroke-linejoin="round" stroke-width=".3"/>
  <path fill="#0065b7" stroke="#000" stroke-linecap="round" stroke-linejoin="round" stroke-width=".3" d="M56.3 120l.3-.1"/>
  <path d="M60.6 119.9h1.8a1.2 1.2 0 0 1-1.3.1z" stroke="#000" stroke-linecap="round" stroke-linejoin="round" stroke-width=".3"/>
  <path fill="#0065b7" stroke="#000" stroke-linecap="round" stroke-linejoin="round" stroke-width=".3" d="M62.6 120l-.2-.1"/>
  <path d="M60.3 115.6a1.1 1.1 0 0 1-.8.3.9.9 0 0 1-.7-.3m-.4 6.5a1.5 1.5 0 0 1 1-.3l1 .2m.7-5a10.8 10.8 0 0 0-3.3 0" fill="none" stroke="#000" stroke-linecap="round" stroke-linejoin="round" stroke-width=".3"/>
  <circle cx="59.5" cy="118.8" r="4.5" fill="none" stroke="#000" stroke-miterlimit="10" stroke-width=".4"/>
  <circle cx="64.3" cy="123.6" r=".1"/>
  <circle cx="63" cy="124.1" r=".1"/>
  <circle cx="62.1" cy="125.2" r=".1"/>
  <circle cx="60.7" cy="125" r=".1"/>
  <circle cx="58.2" cy="125" r=".1"/>
  <circle cx="59.4" cy="125.7" r=".1"/>
  <circle cx="56.8" cy="125.1" r=".1"/>
  <circle cx="56" cy="124" r=".1"/>
  <circle cx="54.6" cy="123.7" r=".1"/>
  <circle cx="54.2" cy="122.4" r=".1"/>
  <circle cx="53.1" cy="121.4" r=".1"/>
  <circle cx="53.3" cy="120" r=".1"/>
  <circle cx="52.6" cy="118.8" r=".1"/>
  <circle cx="53.3" cy="117.6" r=".1"/>
  <circle cx="53.1" cy="116.2" r=".1"/>
  <circle cx="54.3" cy="115.3" r=".1"/>
  <circle cx="54.6" cy="113.9" r=".1"/>
  <circle cx="55.9" cy="113.5" r=".1"/>
  <circle cx="56.8" cy="112.5" r=".1"/>
  <circle cx="58.2" cy="112.6" r=".1"/>
  <circle cx="59.4" cy="112" r=".1"/>
  <circle cx="60.7" cy="112.6" r=".1"/>
  <circle cx="62.1" cy="112.4" r=".1"/>
  <circle cx="63" cy="113.6" r=".1"/>
  <circle cx="64.4" cy="114" r=".1"/>
  <circle cx="64.7" cy="115.3" r=".1"/>
  <circle cx="65.9" cy="116.2" r=".1"/>
  <circle cx="65.6" cy="117.6" r=".1"/>
  <circle cx="66.4" cy="118.8" r=".1"/>
  <circle cx="65.7" cy="120" r=".1"/>
  <circle cx="65.8" cy="121.4" r=".1"/>
  <circle cx="64.7" cy="122.3" r=".1"/>
  <path d="M51.2 109.2s3.5-13.9 12.5-18.3c0 0-1-2.8-5.2-.2a28.3 28.3 0 0 0-8.3 8.5c-.3.8-.9 6.8 1 10z" fill="#980805"/>
  <path d="M48 115.1a.8.8 0 0 1 .1.8 6.6 6.6 0 0 0-1.2 3.6 6.8 6.8 0 0 1-.7 2.6 5.1 5.1 0 0 1-2.8 2.7.6.6 0 0 1-.8-.4c-.2-.4 0-.7.4-.9a4.3 4.3 0 0 0 2-2 4.4 4.4 0 0 0 .5-2.2 9.4 9.4 0 0 1 1.4-4.1.7.7 0 0 1 .9-.3z" fill="#856353" stroke="#000" stroke-linecap="round" stroke-linejoin="round" stroke-width=".4"/>
  <path d="M46 114.4a.5.5 0 0 1 .3.7 6.5 6.5 0 0 0-.3 3.8 6.8 6.8 0 0 1-.1 2.8 5.4 5.4 0 0 1-2.1 3.2.7.7 0 1 1-.7-1.1 4 4 0 0 0 1.5-2.5 5.4 5.4 0 0 0 0-2.2 10.4 10.4 0 0 1 .4-4.4.8.8 0 0 1 .9-.4.1.1 0 0 1 .1.1z" fill="#856353" stroke="#000" stroke-linecap="round" stroke-linejoin="round" stroke-width=".4"/>
  <path d="M44 124.7a41.6 41.6 0 0 1 1-4.8 6.1 6.1 0 0 0-.3-4.7c-.8-2-3-1.7-6.2-.8s-3.3 7.5-2.6 8.2 4.3 3.8 8.1 2.1z" fill="#f3bc84"/>
  <path d="M38.4 123.2s-.7-7.3 2.5-9.2h-1.8l-3.3 5v3.5z" fill="#c69c6d"/>
  <path d="M44 124.8a42.4 42.4 0 0 1 1-4.9 6.1 6.1 0 0 0-.3-4.7c-.8-2-3-1.7-6.2-.8s-3.3 7.5-2.6 8.2 4.3 4 8.1 2.2z" fill="none" stroke="#000" stroke-linecap="round" stroke-linejoin="round" stroke-width=".4"/>
  <path d="M37.6 121.2c.1.5 1.4 1.7 3.2.6m3.4 1.5s-2.2.2-2.2-1.6 1.6-2.4 1.7-3-.6-.6-.6-.6m-1.3.4s-.2-.6.1-.7.6.1.8.3h.1m0-.4l-.1.4m.6.1l.3-.2" fill="none" stroke="#000" stroke-linecap="round" stroke-linejoin="round" stroke-width=".3"/>
  <path d="M43.4 117a.4.4 0 0 1-.3-.2h-.3c-.2 0-.8-.9-.8-.9l2.1.6-2.1-.5s1.6-1.1 2.2.7h.1z" fill="red"/>
  <path d="M41.7 116.1a7.6 7.6 0 0 1 2.7.7M42 116s1.6-1.1 2.2.7" fill="none" stroke="#000" stroke-linecap="round" stroke-linejoin="round" stroke-width=".3"/>
  <path d="M44.2 116.8l-.8.2a.4.4 0 0 1-.3-.2h-.3c-.2 0-.8-.7-.8-.7" fill="none" stroke="#000" stroke-linecap="round" stroke-linejoin="round" stroke-width=".3"/>
  <path d="M33.7 111.2a.6.6 0 0 0-.4.7 9.2 9.2 0 0 1-.6 3.7 7.2 7.2 0 0 0-.6 2.7 6.4 6.4 0 0 0 1.2 3.7.7.7 0 0 0 1-1 3.6 3.6 0 0 1-.8-2.7 5.1 5.1 0 0 1 .4-2.2 8.6 8.6 0 0 0 .7-4.3.6.6 0 0 0-.7-.6z" fill="#856353" stroke="#000" stroke-linecap="round" stroke-linejoin="round" stroke-width=".4"/>
  <path d="M35.5 111.3c-.3.1-.6.3-.6.6a8.2 8.2 0 0 1-1.5 3.5 7.2 7.2 0 0 0-1.1 2.5 5.7 5.7 0 0 0 .3 3.8.7.7 0 0 0 .9.2.6.6 0 0 0 .2-.9 4.5 4.5 0 0 1-.1-2.8 5 5 0 0 1 .9-2.1 7.9 7.9 0 0 0 1.7-4 .8.8 0 0 0-.6-.8z" fill="#856353" stroke="#000" stroke-linecap="round" stroke-linejoin="round" stroke-width=".4"/>
  <path d="M36.6 111.7a.6.6 0 0 0-.6.6 8.2 8.2 0 0 1-1.5 3.5 7.2 7.2 0 0 0-1.1 2.5 5.9 5.9 0 0 0 .3 3.8.7.7 0 0 0 .9.2.8.8 0 0 0 .3-.9c-.1 0-.6-1-.2-2.9a5.4 5.4 0 0 1 1-2 8.9 8.9 0 0 0 1.6-4c.1-.4-.2-.7-.6-.8z" fill="#856353" stroke="#000" stroke-linecap="round" stroke-linejoin="round" stroke-width=".4"/>
  <path d="M37.6 112.4a.6.6 0 0 0-.6.6 8.2 8.2 0 0 1-1.5 3.5 7.6 7.6 0 0 0-1.1 2.4 6.3 6.3 0 0 0 .3 3.9.7.7 0 0 0 1.1-.7 4.9 4.9 0 0 1-.1-2.9 4.6 4.6 0 0 1 .9-2 7.9 7.9 0 0 0 1.7-4 .8.8 0 0 0-.6-.8z" fill="#856353" stroke="#000" stroke-linecap="round" stroke-linejoin="round" stroke-width=".4"/>
  <path d="M38.5 112.8c-.3 0-.5.3-.6.6a7.1 7.1 0 0 1-1.4 3.5 5.8 5.8 0 0 0-1.2 2.5 5.9 5.9 0 0 0 .3 3.8c.2.3 1.2 1 1.5.8s0-.8-.3-1.5a4.2 4.2 0 0 1-.2-2.9 7.5 7.5 0 0 1 1-2 8.9 8.9 0 0 0 1.6-4 .7.7 0 0 0-.5-.8z" fill="#856353" stroke="#000" stroke-linecap="round" stroke-linejoin="round" stroke-width=".4"/>
  <path d="M38.4 120.3a2.3 2.3 0 0 1 1.6-.1c.7.2.8.6.8.6a1.7 1.7 0 0 1-1.5.2c-.8-.3-.9-.7-.9-.7z" fill="#fff"/>
  <path d="M38.5 120.6a3.7 3.7 0 0 0 1 .4 3.2 3.2 0 0 0 1.3-.1 2.2 2.2 0 0 0-1.1-.8 2.1 2.1 0 0 0-1.3.3m2.4.5a1.5 1.5 0 0 1-2.5-.5" fill="none" stroke="#000" stroke-linecap="round" stroke-linejoin="round" stroke-width=".3"/>
  <ellipse cx="39.8" cy="120.6" rx=".5" ry=".6" transform="rotate(-78.5 39.77 120.56)"/>
  <circle cx="39.9" cy="120.8" r=".2" fill="#fff"/>
  <path d="M42.2 121.1a2.1 2.1 0 0 1 1.6-.2 1.2 1.2 0 0 1 .7.7 1.6 1.6 0 0 1-1.4.1c-.8-.3-.9-.6-.9-.6z" fill="#fff"/>
  <path d="M42.3 121.3a2.3 2.3 0 0 0 1 .3 1.4 1.4 0 0 0 1.1-.1 1.8 1.8 0 0 0-.9-.7 2.1 2.1 0 0 0-1.3.3m2.2.4a1.3 1.3 0 0 1-2.2-.4" fill="none" stroke="#000" stroke-linecap="round" stroke-linejoin="round" stroke-width=".3"/>
  <ellipse cx="43.5" cy="121.3" rx=".5" ry=".5" transform="rotate(-78.5 43.5 121.26)"/>
  <ellipse cx="43.6" cy="121.5" rx=".2" ry=".2" transform="rotate(-78.5 43.63 121.47)" fill="#fff"/>
  <path d="M32.2 120.4c7.6 5.1 12.7 3.5 13.1 3.4l-.7 1.4c-.2 0-4.2 1.5-12.7-3.4z" fill="#febf10" stroke="#000" stroke-linecap="round" stroke-linejoin="round" stroke-width=".4"/>
  <path d="M38.3 129.3l1.5-4.2-3.6-1.2-1.7 4a26.1 26.1 0 0 0 3.8 1.4z" fill="#febf10" stroke="#000" stroke-linecap="round" stroke-linejoin="round" stroke-width=".4"/>
  <path d="M35.1 127.4s-3.4 1.6-7-3.2a15 15 0 0 0-3.7-3.1 3.1 3.1 0 0 1-1.2-4.1c1.1-2.2 7.8.2 8.1 3.6.4 7 3.1 6.5 3.1 6.5" fill="#febf10"/>
  <path d="M34.4 127.3a2.6 2.6 0 0 1-2.8-1.7c-.8-1.6-.8-4.2-3.3-6.2s-4.6-2.3-5.4-.5c0 0-.4-2.9 1.8-2.8s5.6 1.4 6.1 3.1.8 4.2 1.1 5.1.8 2.9 2.3 2.8z" fill="#d09b07"/>
  <path d="M34.9 127.4s-3.2 1.6-6.8-3.2a15 15 0 0 0-3.7-3.1 3.1 3.1 0 0 1-1.2-4.1c1.1-2.2 7.7.1 8 3.5.7 7 3 6.5 3 6.5" fill="none" stroke="#000" stroke-linecap="round" stroke-linejoin="round" stroke-width=".4"/>
  <path d="M35.5 127.4s-3.1 3.6-9.9-.2a16.6 16.6 0 0 0-5.9-1.7 4 4 0 0 1-3.5-4.2c.1-3.3 9.3-3.8 11.3.1 4.2 7.9 7 6 7 6" fill="#0065b7"/>
  <path d="M34.7 127.6a3.4 3.4 0 0 1-4.2-.5c-1.8-1.6-3.2-4.6-7.1-5.7s-6.6-.4-6.6 2.3c0-.1-2-3.3.7-4.4s7.3-1.1 8.8.6 3 4.6 3.9 5.5 2.4 2.9 4.1 2z" fill="#004da1"/>
  <path d="M35.3 127.5s-2.9 3.5-9.7-.3a16.6 16.6 0 0 0-5.9-1.7 4 4 0 0 1-3.5-4.2c.1-3.3 9.1-4 11.2-.1 4.5 8 6.9 6.2 6.9 6.2" fill="none" stroke="#000" stroke-linecap="round" stroke-linejoin="round" stroke-width=".4"/>
  <path d="M18.4 122.4s1.2 1.4 4.9 2.2 5.5 5.8 12.2 2.8" fill="none" stroke="#000" stroke-linecap="round" stroke-linejoin="round" stroke-width=".4"/>
  <circle cx="36.3" cy="127.1" r="2.3" fill="#febf10" stroke="#000" stroke-linecap="round" stroke-linejoin="round" stroke-width=".4"/>
  <path fill="none" stroke="#000" stroke-linecap="round" stroke-linejoin="round" stroke-width=".4" d="M36.3 129.3v-4.5m-2.2 2.3h4.5m-4.2 1.1l3.8-2.3m-3-.7l2.3 3.8m-2.2 0l2.1-3.9m-3 .9l3.9 2.2"/>
  <circle cx="36.3" cy="127.1" r="1.2" fill="#febf10" stroke="#000" stroke-linecap="round" stroke-linejoin="round" stroke-width=".4"/>
  <path d="M40.3 106.3c5.8 0 8.2 5.3 8.2 5.3l-3.1.7c-.2-.6-3.2-4.4-8.4-2l-3.5-1.7a12.5 12.5 0 0 1 6.8-2.3z" fill="#0d3a12"/>
  <path d="M34.6 109.1a8.7 8.7 0 0 1 5.6-2 7.8 7.8 0 0 1 7.2 4.7l1.1-.2s-2.4-4.1-5.7-5a11.3 11.3 0 0 0-8.2 1.3l-1.1.7z" fill="#325723"/>
  <path d="M40.3 106.3c5.8 0 8.2 5.3 8.2 5.3l-3.1.7c-.2-.6-3.2-4.4-8.4-2l-3.5-1.7a12.5 12.5 0 0 1 6.8-2.3z" fill="none" stroke="#000" stroke-linecap="round" stroke-linejoin="round" stroke-width=".4"/>
  <path d="M34.6 109.1a8.7 8.7 0 0 1 5.6-2 7.8 7.8 0 0 1 7.2 4.7m3.5-2.6a19.9 19.9 0 0 1-.8-9.4c.9-2.7 4.1-5.7 5.3-6.6s5.8-5.8 8.6-2.2 3 8.8 3 8.8l-6.4 2.2a10 10 0 0 1-1.4-4.3" fill="none" stroke="#000" stroke-linecap="round" stroke-linejoin="round" stroke-width=".4"/>
  <path d="M64.4 111.8a3.3 3.3 0 0 1-.9 1.2 2.8 2.8 0 0 1-2.5.4s-.5-.4.1-.6a4.9 4.9 0 0 1 1.6-.1 2 2 0 0 0 .5-1.3c0-.6-1 .6-1 .6a1.1 1.1 0 0 1-1 .2c-.5-.3-.6-.3-.7-.6s.5-.5.9-.2 1-.5 1-1-.4-1.6-.5-2.4a11.3 11.3 0 0 1 .6-4.9c.6-1.3 2.6.4 2.6.4a6.7 6.7 0 0 0 .5 4.7 11.2 11.2 0 0 1 1 4.4c0 .2-.2 2.5-1.6 2.6s.6-1.4.7-1.6a10.1 10.1 0 0 0-.3-1.7s-.3 1.3-1.1 1.7a6.9 6.9 0 0 1-2.6.3c-.3-.1-.2-.3-.2-.3" fill="#f3bc84"/>
  <path d="M64.4 111.8a3.3 3.3 0 0 1-.9 1.2 2.8 2.8 0 0 1-2.5.4s-.5-.4.1-.6a4.9 4.9 0 0 1 1.6-.1 2 2 0 0 0 .5-1.3c0-.6-1 .6-1 .6a1.1 1.1 0 0 1-1 .2c-.5-.3-.6-.3-.7-.6s.5-.5.9-.2 1-.5 1-1-.4-1.6-.5-2.4a11.3 11.3 0 0 1 .6-4.9c.6-1.3 2.6.4 2.6.4a6.7 6.7 0 0 0 .5 4.7 11.2 11.2 0 0 1 1 4.4c0 .2-.2 2.5-1.6 2.6s.6-1.4.7-1.6a10.1 10.1 0 0 0-.3-1.7s-.3 1.3-1.1 1.7a6.9 6.9 0 0 1-2.6.3c-.3-.1-.2-.3-.2-.3" fill="none" stroke="#000" stroke-linecap="round" stroke-linejoin="round" stroke-width=".4"/>
  <path d="M59.9 101.1s3.8-2.2 7.3-1.4c0-.1.3.8-.4 4a6.9 6.9 0 0 0-5.9.7s-.4.3-1-3.3z" fill="#febf10" stroke="#000" stroke-linecap="round" stroke-linejoin="round" stroke-width=".4"/>
  <path d="M67.2 103.3l-.3 1-.5-.2a4.8 4.8 0 0 0-4.7.8l-.4.4-.7-.8.4-.3a5.8 5.8 0 0 1 5.8-1z" fill="#febf10" stroke="#000" stroke-linecap="round" stroke-linejoin="round" stroke-width=".4"/>
  <path fill="none" stroke="#000" stroke-linecap="round" stroke-linejoin="round" stroke-width=".4" d="M35.8 105.6l.4.6.4-.8.5-.1-.2-.6.4-.5-.6-.2v-.8l-.6.2-.4-.5-.2.7-.5.1.2.7-.5.4.6.3v.7l.5-.2zm1.3-4c-.1-3.9.6-6.6 2.1-8.3a12.8 12.8 0 0 1 1.4 2.1 11.9 11.9 0 0 1 1.7 6.5 4.1 4.1 0 0 0-2.5 1.3 3.8 3.8 0 0 0-2.4-1.6z"/>
  <path d="M36.9 97.2a21.1 21.1 0 0 0-.3 5.2c1.7.4 2.8 1 3.2 2.1a4.8 4.8 0 0 1 3.2-2.1c-.1-4.6-1.4-7.9-3.8-10a5.7 5.7 0 0 0-1.1 1.1l-.6 1.2a6.5 6.5 0 0 0-.4 1.3zm7.4 8.4h.6l-.1-.6.5-.4-.6-.4.1-.6-.8.1-.3-.6-.4.7-.6-.1.1.9-.5.3.5.3v.7l.6-.1.4.7.5-.9z" fill="none" stroke="#000" stroke-linecap="round" stroke-linejoin="round" stroke-width=".4"/>
  <path d="M40.2 101.3c-.2 0-.3 0-.4-.2a.8.8 0 0 1-.2-.6.8.8 0 0 1 .2-.5c.1-.2.2-.3.4-.3a.5.5 0 0 1 .4.3.7.7 0 0 1 .1.5c0 .3 0 .5-.1.6a.4.4 0 0 1-.4.2z" fill="#0065b7" stroke="#000" stroke-linecap="round" stroke-linejoin="round" stroke-width=".4"/>
  <path fill="none" stroke="#000" stroke-linecap="round" stroke-linejoin="round" stroke-width=".4" d="M40.6 95.4l-3.2 6.2"/>
  <path d="M59.7 85.4s-6.9 7.1-18-3.6c-.1-.1 2.7 5.9 11 7 0-.2.5.3.5.3l.5-.4s4.5.3 6-3.3z" fill="#980805"/>
  <path d="M45.1 91.6c-.8 11.1 6 19.5 6.1 19.6l-1.3.2A32.2 32.2 0 0 1 44 91.5M33.9 91h1l-1.2 17.7-.9-.4L33.9 91z" fill="#febf10" stroke="#000" stroke-linecap="round" stroke-linejoin="round" stroke-width=".4"/>
  <path d="M33.2 96.4c.7.5 3.2-.1 3.8-.8a1.5 1.5 0 0 0 .1-1.6v-.2c.2-1.2-.5-1.1-.6-1.1a.4.4 0 0 0 .1-.3c0-1.1-.6-1.1-.8-1.1s.1-.2 0-.4-2.2-.8-2.2-.8v.2a4.9 4.9 0 0 0-1.9-1.5l-1.5-2.5a2.6 2.6 0 0 0-1.2 2.2s3.4 7.4 4.2 7.9z" fill="#f3bc84"/>
  <path d="M35 95.3s1.9-.3 2.2-1.5-.5-1.1-.5-1.1" fill="none" stroke="#000" stroke-linecap="round" stroke-linejoin="round" stroke-width=".4"/>
  <path d="M34.5 94.1s2.2-.3 2.2-1.7-.7-1.1-.7-1.1" fill="none" stroke="#000" stroke-linecap="round" stroke-linejoin="round" stroke-width=".4"/>
  <path d="M34.4 92.8a1.6 1.6 0 0 0 1.5-1.9c-.2-1.6-2.2-.8-2.2-.8" fill="none" stroke="#000" stroke-linecap="round" stroke-linejoin="round" stroke-width=".4"/>
  <path d="M35.3 90.9s-.9 0-1 .2a5.1 5.1 0 0 0-2.4-2.3l-1.5-2.5a2.6 2.6 0 0 0-1.4 2.2s3.4 7.4 4.2 7.9 3.2-.1 3.8-.8a1.5 1.5 0 0 0 .1-1.6m-11.6-4.6a5.3 5.3 0 0 0 4.7 2.1" fill="none" stroke="#000" stroke-linecap="round" stroke-linejoin="round" stroke-width=".4"/>
  <path d="M20.8 81.4a6.7 6.7 0 0 1 2.8.6c3.4 1.3 6 6.3 8.1 12.2a6.4 6.4 0 0 1-2.1-2.9c-.4-1.6-3.4-6.9-6.4-8.1a7.8 7.8 0 0 0-6.9.7c-5.3 2.8-3 14.5-3 14.6l-1.2.2c-.1-.5-2.5-12.6 3.6-15.9a11.6 11.6 0 0 1 5.1-1.4z" fill="#0065b7" stroke="#000" stroke-linecap="round" stroke-linejoin="round" stroke-width=".4"/>
  <path d="M68.2 70.3a6.9 6.9 0 0 0-.3.8 10.9 10.9 0 0 1-.9 2.1 21.4 21.4 0 0 1-4.9 6.8l-1.1.9c0 .2.1.4.1.6a3.5 3.5 0 0 1-.5 1.8l-.3.8a6.2 6.2 0 0 1-5.8 4.6h-1c0 .1-.1.1-.1.2h-.5c0-.1-.1-.2-.1-.3l-2.4-.4h-.8L48 92.1M16.5 109a9.2 9.2 0 0 1-2.3-4m3.8 4a9.2 9.2 0 0 1-2.6-4" fill="none" stroke="#000" stroke-linecap="round" stroke-linejoin="round" stroke-width=".4"/>
  <path fill="#0065b7" stroke="#000" stroke-linecap="round" stroke-linejoin="round" stroke-width=".4" d="M13.9 99.8l-1.45.36-.36-1.5 1.46-.35z"/>
  <path fill="#e6e6e6" stroke="#000" stroke-linecap="round" stroke-linejoin="round" stroke-width=".4" d="M15.82 104.8l-2.14.52-.5-2.1 2.14-.5z"/>
  <path d="M15.07 104.26l-.87.21-.2-.83.87-.21z"/>
  <path d="M13.4 103s-.5-1.5-.8-2.7" fill="none" stroke="#000" stroke-linecap="round" stroke-linejoin="round" stroke-width=".4"/>
  <path d="M15.1 102.7a8.4 8.4 0 0 1 0-2.9c.3-1.4.5-5 .5-5l.3-.9.5-1-.2-.5a3.3 3.3 0 0 0-1.4 2.5c-.2 1.7-.9 5.2-.9 6.2" fill="#0065b7" stroke="#000" stroke-linecap="round" stroke-linejoin="round" stroke-width=".4"/>
  <path d="M14.6 102.7a8.6 8.6 0 0 1-.9-2.7" fill="#856353" stroke="#000" stroke-linecap="round" stroke-linejoin="round" stroke-width=".4"/>
  <path fill="none" stroke="#000" stroke-linecap="round" stroke-linejoin="round" stroke-width=".4" d="M8 7.9h62v124.31H8zM8.1 70H70"/>
</svg>
