<svg xmlns="http://www.w3.org/2000/svg" viewBox="0 0 78 140">
  <rect width="78" height="140" rx="6" ry="6" fill="#fff"/>
  <circle cx="59" cy="19.9" r="9.3" fill="#fff" stroke="#000" stroke-linecap="round" stroke-linejoin="round" stroke-width=".4"/>
  <circle cx="59" cy="19.9" r="8.6"/>
  <circle cx="59" cy="19.9" r="6.6" fill="none" stroke="#ed1e79" stroke-linecap="round" stroke-linejoin="round" stroke-width=".4"/>
  <circle cx="59" cy="19.9" r="7.3" fill="#d09b07" stroke="#000" stroke-miterlimit="10" stroke-width=".4"/>
  <path fill="#856353" stroke="#000" stroke-linecap="round" stroke-linejoin="round" stroke-width=".4" d="M59 12.7l.9 2.8 1.9-2.3-.2 3 2.6-1.4-1.3 2.6 2.9-.2-2.3 1.9 2.8.9-2.8.9 2.3 1.9-2.9-.3 1.3 2.7-2.6-1.4.2 2.9-1.9-2.2-.9 2.8-.9-2.8-1.9 2.2.3-2.9-2.6 1.4 1.3-2.7-2.9.3 2.2-1.9-2.8-.9 2.8-.9-2.2-1.9 2.9.2-1.3-2.6 2.6 1.4-.3-3 1.9 2.3.9-2.8z"/>
  <circle cx="59" cy="12" r=".5" fill="#febf10"/>
  <circle cx="59" cy="12" r=".1"/>
  <circle cx="59" cy="27.9" r=".5" fill="#febf10"/>
  <circle cx="59" cy="27.9" r=".1"/>
  <circle cx="67" cy="19.9" r=".5" fill="#febf10"/>
  <circle cx="67" cy="19.9" r=".1"/>
  <circle cx="51" cy="19.9" r=".5" fill="#febf10"/>
  <circle cx="51" cy="19.9" r=".1"/>
  <circle cx="64.6" cy="14.3" r=".5" fill="#febf10"/>
  <circle cx="64.6" cy="14.3" r=".1"/>
  <circle cx="53.4" cy="25.6" r=".5" fill="#febf10"/>
  <circle cx="53.4" cy="25.6" r=".1"/>
  <circle cx="64.7" cy="25.6" r=".5" fill="#febf10"/>
  <circle cx="64.7" cy="25.6" r=".1"/>
  <circle cx="53.4" cy="14.3" r=".5" fill="#febf10"/>
  <circle cx="53.4" cy="14.3" r=".1"/>
  <circle cx="62" cy="12.6" r=".5" fill="#febf10"/>
  <circle cx="62" cy="12.6" r=".1"/>
  <circle cx="56.1" cy="27.3" r=".5" fill="#febf10"/>
  <circle cx="56.1" cy="27.3" r=".1"/>
  <circle cx="66.4" cy="22.9" r=".5" fill="#febf10"/>
  <circle cx="66.4" cy="22.9" r=".1"/>
  <circle cx="51.6" cy="17" r=".5" fill="#febf10"/>
  <circle cx="51.6" cy="17" r=".1"/>
  <circle cx="66.3" cy="16.8" r=".5" fill="#febf10"/>
  <circle cx="66.3" cy="16.8" r=".1"/>
  <circle cx="51.7" cy="23.1" r=".5" fill="#febf10"/>
  <circle cx="51.7" cy="23.1" r=".1"/>
  <circle cx="62.2" cy="27.3" r=".5" fill="#febf10"/>
  <circle cx="62.2" cy="27.3" r=".1"/>
  <circle cx="55.9" cy="12.6" r=".5" fill="#febf10"/>
  <circle cx="55.9" cy="12.6" r=".1"/>
  <circle cx="63.4" cy="13.3" r=".5" fill="#febf10"/>
  <circle cx="63.4" cy="13.3" r=".1"/>
  <circle cx="54.6" cy="26.6" r=".5" fill="#febf10"/>
  <circle cx="54.6" cy="26.6" r=".1"/>
  <circle cx="65.7" cy="24.3" r=".5" fill="#febf10"/>
  <circle cx="65.7" cy="24.3" r=".1"/>
  <circle cx="52.4" cy="15.6" r=".5" fill="#febf10"/>
  <circle cx="52.4" cy="15.6" r=".1"/>
  <circle cx="66.8" cy="18.3" r=".5" fill="#febf10"/>
  <circle cx="66.8" cy="18.3" r=".1"/>
  <circle cx="51.2" cy="21.6" r=".5" fill="#febf10"/>
  <circle cx="51.2" cy="21.6" r=".1"/>
  <circle cx="60.7" cy="27.7" r=".5" fill="#febf10"/>
  <circle cx="60.7" cy="27.7" r=".1"/>
  <circle cx="57.4" cy="12.2" r=".5" fill="#febf10"/>
  <circle cx="57.4" cy="12.2" r=".1"/>
  <circle cx="65.6" cy="15.5" r=".5" fill="#febf10"/>
  <circle cx="65.6" cy="15.5" r=".1"/>
  <circle cx="52.4" cy="24.4" r=".5" fill="#febf10"/>
  <circle cx="52.4" cy="24.4" r=".1"/>
  <circle cx="63.5" cy="26.6" r=".5" fill="#febf10"/>
  <circle cx="63.5" cy="26.6" r=".1"/>
  <circle cx="54.6" cy="13.3" r=".5" fill="#febf10"/>
  <circle cx="54.6" cy="13.3" r=".1"/>
  <circle cx="66.8" cy="21.5" r=".5" fill="#febf10"/>
  <circle cx="66.8" cy="21.5" r=".1"/>
  <circle cx="51.2" cy="18.4" r=".5" fill="#febf10"/>
  <circle cx="51.2" cy="18.4" r=".1"/>
  <circle cx="57.5" cy="27.8" r=".5" fill="#febf10"/>
  <circle cx="57.5" cy="27.8" r=".1"/>
  <circle cx="60.6" cy="12.1" r=".5" fill="#febf10"/>
  <circle cx="60.6" cy="12.1" r=".1"/>
  <circle cx="59" cy="19.9" r="4.5" fill="red"/>
  <path d="M63 17.9c0 .4.1.7.1 1.1a4.8 4.8 0 0 1-4.6 5.1h-1.3a4.5 4.5 0 0 0 2 .4 4.3 4.3 0 0 0 4.2-4.7 5.8 5.8 0 0 0-.4-1.9zm-2.1-.1c.8-.1.7.2 1.5.4a1.7 1.7 0 0 0-1.5-1 1.6 1.6 0 0 0-1.6 1.6c0 .2-.1.4 0 .5a2.4 2.4 0 0 1 1.6-1.5zm-4 0a10.3 10.3 0 0 0-1.4.4c-.1-.2.6-1 1.5-1a1.4 1.4 0 0 1 1.5 1.4 2.3 2.3 0 0 0-1.6-.8z" fill="#980805"/>
  <path d="M57.6 21.6s.8-.4 1-.3h.3s.2-.2.4-.1l1.3.4a3.7 3.7 0 0 1-1.6.9 3.8 3.8 0 0 1-1.6-.8c-.1-.2.2-.1.2-.1z" fill="#980805"/>
  <path d="M57.9 18.8a1.2 1.2 0 0 0-2-.3m1.9.5a1.8 1.8 0 0 1-1.6.1m3.9-.3s.6-1.3 1.9-.3m-1.8.5a1.6 1.6 0 0 0 1.5.1" fill="none" stroke="#000" stroke-linecap="round" stroke-linejoin="round" stroke-width=".3"/>
  <path d="M55.5 18.2a1.6 1.6 0 0 1 1.5-1.1 1.7 1.7 0 0 1 1.4 1m4 0a1.8 1.8 0 0 0-1.5-1c-1.4 0-1.7 1.7-1.5 2.6s.4.3.3.5a.4.4 0 0 1-.3.2c-.6.6-.8.1-.8.1m-.4-.6a.4.4 0 0 0 .3.6m2.4 1.2a4.3 4.3 0 0 1-2 .8 3.7 3.7 0 0 1-1.8-.8c.5.1 1.5-.8 1.8-.3s1.1.3 2 .3zm-3.3-.9a4.4 4.4 0 0 0-.9 1.5m3.6-1.5a6.1 6.1 0 0 1 1 1.5" fill="none" stroke="#000" stroke-linecap="round" stroke-linejoin="round" stroke-width=".3"/>
  <path d="M60.1 18.8h1.8a1.1 1.1 0 0 0-1.2 0z" stroke="#000" stroke-linecap="round" stroke-linejoin="round" stroke-width=".3"/>
  <path fill="#0065b7" stroke="#000" stroke-linecap="round" stroke-linejoin="round" stroke-width=".3" d="M62.2 18.8h-.3"/>
  <path d="M57.9 18.8h-1.8a1.1 1.1 0 0 1 1.2 0z" stroke="#000" stroke-linecap="round" stroke-linejoin="round" stroke-width=".3"/>
  <path fill="#0065b7" stroke="#000" stroke-linecap="round" stroke-linejoin="round" stroke-width=".3" d="M55.8 18.8h.3"/>
  <path d="M58.2 23.2a.8.8 0 0 1 .7-.3 1.1 1.1 0 0 1 .8.3m.4-6.5l-1.1.2a1.6 1.6 0 0 1-1-.2m-.7 5a8.7 8.7 0 0 0 3.4 0" fill="none" stroke="#000" stroke-linecap="round" stroke-linejoin="round" stroke-width=".3"/>
  <circle cx="59" cy="19.9" r="4.5" fill="none" stroke="#000" stroke-miterlimit="10" stroke-width=".4"/>
  <circle cx="54.2" cy="15.1" r=".1"/>
  <circle cx="55.5" cy="14.6" r=".1"/>
  <circle cx="56.4" cy="13.6" r=".1"/>
  <circle cx="57.8" cy="13.7" r=".1"/>
  <circle cx="60.3" cy="13.8" r=".1"/>
  <circle cx="59" cy="13.1" r=".1"/>
  <circle cx="61.6" cy="13.7" r=".1"/>
  <circle cx="62.5" cy="14.7" r=".1"/>
  <circle cx="63.9" cy="15.1" r=".1"/>
  <circle cx="64.3" cy="16.4" r=".1"/>
  <circle cx="65.4" cy="17.3" r=".1"/>
  <circle cx="65.2" cy="18.7" r=".1"/>
  <circle cx="65.9" cy="20" r=".1"/>
  <circle cx="65.1" cy="21.2" r=".1"/>
  <circle cx="65.4" cy="22.6" r=".1"/>
  <circle cx="64.2" cy="23.4" r=".1"/>
  <circle cx="63.9" cy="24.9" r=".1"/>
  <circle cx="62.5" cy="25.2" r=".1"/>
  <circle cx="61.7" cy="26.3" r=".1"/>
  <circle cx="60.2" cy="26.2" r=".1"/>
  <circle cx="59" cy="26.8" r=".1"/>
  <circle cx="57.7" cy="26.2" r=".1"/>
  <circle cx="56.4" cy="26.3" r=".1"/>
  <circle cx="55.5" cy="25.2" r=".1"/>
  <circle cx="54.1" cy="24.8" r=".1"/>
  <circle cx="53.8" cy="23.4" r=".1"/>
  <circle cx="52.6" cy="22.6" r=".1"/>
  <circle cx="52.8" cy="21.2" r=".1"/>
  <circle cx="52.1" cy="19.9" r=".1"/>
  <circle cx="52.8" cy="18.7" r=".1"/>
  <circle cx="52.6" cy="17.4" r=".1"/>
  <circle cx="53.7" cy="16.5" r=".1"/>
  <path d="M50.5 56.2a1.4 1.4 0 0 1 1.3 1.5.9.9 0 0 1 .1 1.4 2.1 2.1 0 0 1 .1 2.1l.5 5.5s1 .9.8 1.6a1.6 1.6 0 0 1 .1 1.7H42.8V57z" fill="#bdccd4"/>
  <path fill="#325723" d="M24.9 40.2l-7.1 16.6L15.2 70l12-.2 17.4.2 1 .1-1.2-5.9-1.1-3.9-3-4.1-11-14.9-2-2.1-2.4 1z"/>
  <path fill="#0d3a12" d="M15.1 60.6l14.3 2.7 1.9.2 2.5 6.4-18 .1-.7-9.4z"/>
  <path d="M28.1 69.8c-.6-2.1-6.9-13-6.9-13l-5.5 5.4s5.4 7.5 5.9 7.9z" fill="#0065b7"/>
  <path d="M27.5 42.3l.3 5.3-.4 3.9.7 2.3.4 1.7v2a1.3 1.3 0 0 0 1.3-1.1 66.4 66.4 0 0 0 .4-6.8v-.9l-.7-1.4.2-1.4-.8-.8v-1.2l-.6-.3v-1z" fill="#0d3a12"/>
  <path d="M50.5 56.2a1.4 1.4 0 0 1 1.3 1.5.9.9 0 0 1 .1 1.4 2.1 2.1 0 0 1 .1 2.1l.5 5.5s1 .9.8 1.6a1.4 1.4 0 0 1 .1 1.5" fill="none" stroke="#000" stroke-linecap="round" stroke-linejoin="round" stroke-width=".4"/>
  <path fill="#004da1" d="M23.4 60.7l3.1 5.8 1.6 3.4h-3L20.3 61l3.1-.3z"/>
  <path fill="#febf10" stroke="#000" stroke-linecap="round" stroke-linejoin="round" stroke-width=".4" d="M60.1 69.9V46.4h1.7v23.5M61 46.7v23.2"/>
  <path d="M43.8 59.1c-7.2 2-19.4-.1-22.3-.7l2.8 3.9a44.2 44.2 0 0 0 11.1 1.4 37.6 37.6 0 0 0 8.6-.9z" fill="#febf10"/>
  <ellipse cx="27.8" cy="61.2" rx="1.5" ry="1.5" fill="#d09b07"/>
  <ellipse cx="32" cy="61.8" rx="1.5" ry="1.5" fill="#d09b07"/>
  <ellipse cx="36.2" cy="61.9" rx="1.5" ry="1.5" fill="#d09b07"/>
  <ellipse cx="40.5" cy="61.6" rx="1.5" ry="1.5" fill="#d09b07"/>
  <path d="M13.8 58.7a59.1 59.1 0 0 0-.8 11.2h3.3a119.9 119.9 0 0 1 4-15c1.1-3.1 3.9-8.4 5.5-11.7a22.8 22.8 0 0 0 1.4-4.8l-5.3-1.9a14.7 14.7 0 0 0-4.8 6.3s-6.9 5.7-3.5 15.9" fill="red"/>
  <path d="M24.8 38.8s-5.2 7.5-7.3 13.2-2.4 17.9-2.4 17.9h1.1l3-12.4 1.5-3.8 3.2-6.5 2.1-4.8.8-2.2V39l-1.1-.7-.6-.2z" fill="#980805"/>
  <path d="M21.9 36.5a14.7 14.7 0 0 0-4.8 6.3s-6.9 5.7-3.5 15.9" fill="none" stroke="#000" stroke-linecap="round" stroke-linejoin="round" stroke-width=".4"/>
  <path d="M14.5 51.6s.6-.2 0 3.4-1.8 9.8-1.5 14.9" fill="none" stroke="#000" stroke-linecap="round" stroke-linejoin="round" stroke-width=".4"/>
  <path d="M55.1 62.2c-1.2-1.3-5.6-3.1-5.6-3.1l-6.7-.2 1.8 6.1a14.6 14.6 0 0 0 9.1 2.3z" fill="#0065b7"/>
  <path d="M43.5 61.1s4.8 3.5 7.3 3.4v2.9L47 66.3 44.5 65z" fill="#004da1"/>
  <path d="M24.5 37.6a2 2 0 0 1-2.6-2.2c.2-1.4 1.8-1.4 1.8-1.4.6-3.2 4.9-1.3 4.9-1.3l1.5 2.9-.9.7z" fill="red"/>
  <path d="M28.6 32.7s-4.3-1.9-4.9 1.3c0 0-1.6 0-1.8 1.4a2 2 0 0 0 2.6 2.2" fill="none" stroke="#000" stroke-linecap="round" stroke-linejoin="round" stroke-width=".4"/>
  <path d="M41.8 33.7a.8.8 0 0 0 .4-.9 8.6 8.6 0 0 1-.1-4.2 7.9 7.9 0 0 0 .1-3.1c-.5-2.7-2-3.8-2.1-3.8a.6.6 0 0 0-1 .2.7.7 0 0 0 .2 1 5 5 0 0 1 1.4 2.9 5.2 5.2 0 0 1-.1 2.5 10.2 10.2 0 0 0 .1 4.9.7.7 0 0 0 1 .5z" fill="#856353" stroke="#000" stroke-linecap="round" stroke-linejoin="round" stroke-width=".4"/>
  <path d="M40.7 33.7a.8.8 0 0 0 .3-.9 8.6 8.6 0 0 1-.1-4.2 6.4 6.4 0 0 0 .1-3.1 6.2 6.2 0 0 0-2-3.8c-.4-.3-1.7-.6-1.9-.2s.4.8 1 1.4 1.1.8 1.5 2.9a7 7 0 0 1-.1 2.5 9.1 9.1 0 0 0 .1 4.9.7.7 0 0 0 .9.5z" fill="#856353" stroke="#000" stroke-linecap="round" stroke-linejoin="round" stroke-width=".4"/>
  <path d="M39.4 33.8a.9.9 0 0 0 .3-.9 8.6 8.6 0 0 1-.1-4.2 6.4 6.4 0 0 0 .1-3.1 6.2 6.2 0 0 0-2-3.8.7.7 0 0 0-1.1.2.8.8 0 0 0 .2 1c.1 0 1 .8 1.5 2.9a10.5 10.5 0 0 1-.1 2.5 9.1 9.1 0 0 0 .1 4.9.7.7 0 0 0 .9.5z" fill="#856353" stroke="#000" stroke-linecap="round" stroke-linejoin="round" stroke-width=".4"/>
  <path d="M40 34.1s2.6.6 3.1 1.3a2.2 2.2 0 0 1 1.5 1.1l2.2 2.8a2.4 2.4 0 0 1 1.1 2s.4.3.4 1.8a2.2 2.2 0 0 1 1.1 2 2.6 2.6 0 0 1 .2 2s.8.4.2 1.7.9 0 .8 2a1.2 1.2 0 0 1 0 1.7s.6.3.4 1.5.5 1.5-1 1.1a2.6 2.6 0 0 1 .3 2.2s.2 2.5-2.2 1.8a3.1 3.1 0 0 1-3 1 6 6 0 0 1-4.4-1.3 2.5 2.5 0 0 1-1.8-.8s-1.8-.1-2.2-1.2-2.3 0-2.7-2a1.2 1.2 0 0 1-.9-1.3 1.1 1.1 0 0 1-1.1-1.6 1.1 1.1 0 0 1-.6-1.5 1.2 1.2 0 0 1-.9-1.4 2.7 2.7 0 0 1-.7-3 2 2 0 0 1-.9-2 1.3 1.3 0 0 1-.6-1.3 1.2 1.2 0 0 1-.8-1.1 2.1 2.1 0 0 1-.3-2 6.7 6.7 0 0 1 5.6-4.8z" fill="#bdccd4"/>
  <path d="M29 43.9s1.8 3.3 4.3 2.3a2.4 2.4 0 0 0 3.8-.3s.9 1.6 2.5.2c0 0 1.9 1.7 2.8-.2 0 0 3.7 2.2 5.2-.6 0 0 1.4.8 1.5-.9 0 0-.3-1-.6-1.1s-.2 2.3-1.5 1.2a3.5 3.5 0 0 1-4.8.3s-1.7 1.2-2.5 0-1.6 1.3-2.6-.2c0 0-2.6 2.2-3.8-.3 0 0-.9 2.3-4.9-1.7 0 0-.2 1.4.6 1.3zm3 7.9s2.1 2.5 3.8 0c0 0 1.5 2.2 2.8-.1 0 0 1.9 2.1 2.9-.1 0 0 1.5 1.5 2.3-.1 0 0 1.9 1.5 2.5-1.1 0 0 1.7 1.4 2.4-.6 0 0 1.4.9 1.6-.7l-.5-.5.2-.7s-.4 2.1-1.5.9-1.2 2-2.6.4c0 0-.8 2.4-2.5.6 0 0-.4 2.5-2.2.5a1.7 1.7 0 0 1-2.8.4s-1.1 2.1-2.6.4a3.2 3.2 0 0 1-4.3-.6s-.5 1.2.5 1.3z" fill="#999"/>
  <path d="M40 34.1s2.6.6 3.1 1.3a2.2 2.2 0 0 1 1.5 1.1l2.2 2.8a2.4 2.4 0 0 1 1.1 2s.4.3.4 1.8a2.2 2.2 0 0 1 1.1 2 2.6 2.6 0 0 1 .2 2s.8.4.2 1.7.9 0 .8 2a1.2 1.2 0 0 1 0 1.7s.6.3.4 1.5.5 1.5-1 1.1a2.6 2.6 0 0 1 .3 2.2s.2 2.5-2.2 1.8a3.1 3.1 0 0 1-3 1 6 6 0 0 1-4.4-1.3 2.5 2.5 0 0 1-1.8-.8s-1.8-.1-2.2-1.2-2.3 0-2.7-2a1.2 1.2 0 0 1-.9-1.3 1.1 1.1 0 0 1-1.1-1.6 1.1 1.1 0 0 1-.6-1.5 1.2 1.2 0 0 1-.9-1.4 2.7 2.7 0 0 1-.7-3 2 2 0 0 1-.9-2 1.3 1.3 0 0 1-.6-1.3 1.2 1.2 0 0 1-.8-1.1 2.1 2.1 0 0 1-.3-2 6.7 6.7 0 0 1 5.6-4.8z" fill="none" stroke="#000" stroke-linecap="round" stroke-linejoin="round" stroke-width=".4"/>
  <path d="M38.5 32.2l-6.7-1.4-.8 3.8 1 .9a15.5 15.5 0 0 0 4.5 1.1c2.1.1 3.6-1.8 3.4-2.4s-1.5-.7-1.5-.7-.3.1 0-.9.1-.3.1-.4" fill="#f3bc84"/>
  <path d="M35.3 33.3s0 2.5.7 3 3.5-.3 3.5-.3l.6-1.3-.5-.7-1.4-.5v-.9l-2.2.3z" fill="#c69c6d"/>
  <path d="M31.8 30.8L34 20.6l7.6-1.4a4.5 4.5 0 0 1 .8 2.2 4.8 4.8 0 0 1 0 1.5l1.7 2.2c.1.4-.3.8-.8 1.1s-.2 1.1-.1 2a8.1 8.1 0 0 1 .3 2c0 .6-1.1.9-2.1 1.1s-2.3.2-2.9.9" fill="#f3bc84"/>
  <path d="M39.1 33.8c.4.4.9.6.8 1s-2.6 1.7-5.3 1.3-4.8-1.5-4.6-2.6 2.6-1.7 5.3-1.3c-3.2-.4-6 .3-6.3 1.7s2.2 2.8 5.4 3.2 6-.4 6.3-1.7-.5-1.1-1.4-1.7m-4-1.5z" fill="#febf10"/>
  <path d="M38.4 33.5c1.4.3 2.5 1.1 2.3 1.9s-3.1 2.1-6.3 1.7-5.6-1.9-5.4-3.2 2.2-1.8 4.7-1.8" fill="none" stroke="#000" stroke-linecap="round" stroke-linejoin="round" stroke-width=".4"/>
  <path d="M38.4 33.5c.7.2 1.6.8 1.5 1.3s-2.6 1.7-5.3 1.3-4.8-1.5-4.6-2.6 2.1-1.6 4.4-1.6" fill="none" stroke="#000" stroke-linecap="round" stroke-linejoin="round" stroke-width=".4"/>
  <path d="M43.3 29.3s-3.4 1.4-5.1 1.3.1 1.4.1 1.4l1.7-.5 2.1-.4 1.1-.4.3-.6z" fill="#c69c6d"/>
  <path d="M41.6 19.2a4.5 4.5 0 0 1 .8 2.2 4.8 4.8 0 0 1 0 1.5l1.7 2.2c.1.4-.3.8-.8 1.1s-.2 1.1-.1 2a8.1 8.1 0 0 1 .3 2c0 .6-1.1.9-2.1 1.1s-2.7.2-3 1.3a8.7 8.7 0 0 0-.2 2.5" fill="none" stroke="#000" stroke-linecap="round" stroke-linejoin="round" stroke-width=".4"/>
  <path d="M41.9 22.6a18.2 18.2 0 0 1-2.4.9 2.4 2.4 0 0 1 2-1.5s.2.2-.1.7m.5 1.2l-1.6.3m2.1-3.2a2.8 2.8 0 0 0-3.1 1.5" fill="none" stroke="#000" stroke-linecap="round" stroke-linejoin="round" stroke-width=".3"/>
  <ellipse cx="41" cy="23.5" rx=".5" ry=".6" transform="rotate(-13.3 41.16 23.5)"/>
  <circle cx="41.1" cy="23.3" r=".2" fill="#fff"/>
  <path d="M43.4 25.6a.5.5 0 0 0-.6.3" fill="none" stroke="#000" stroke-linecap="round" stroke-linejoin="round" stroke-width=".3"/>
  <path fill="#febf10" d="M28.4 19.7L26 22.2l-1.6-2.5h.7l-.9-1.6 1.7.8-.2-.7 2.7 1.5zm8.1-4l-3.2 1.4-.5-3 .6.3-.2-1.7 1.3 1.3.1-.7 1.9 2.4zm4.1-1.3l-3.3.7.1-3.1.5.5.2-1.8.9 1.6.4-.7 1.2 2.8zm-8.8 3.3l-2.9 1.7-.9-2.9.6.2-.4-1.8 1.4 1.3.1-.8 2.1 2.3z"/>
  <path d="M42.1 25.3a.5.5 0 0 0 .1.8" fill="none" stroke="#000" stroke-linecap="round" stroke-linejoin="round" stroke-width=".3"/>
  <path d="M43.1 27.9s.5-.2.4-.6-.5-.5-.9-.1a3.9 3.9 0 0 0-.8 1.1 7.2 7.2 0 0 0 1.4.5c.4 0 .6-.3.5-.5s-.6-.4-.6-.4z" fill="red" stroke="#000" stroke-linecap="round" stroke-linejoin="round" stroke-width=".3"/>
  <path d="M24.9 21s3.8-5.8 15-7.8v2.9L27 22.2z" fill="#d09b07"/>
  <path fill="none" stroke="#000" stroke-linecap="round" stroke-linejoin="round" stroke-width=".4" d="M28.4 19.7L26 22.2l-1.6-2.5h.7l-.9-1.6 1.7.8-.2-.7 2.7 1.5zm8.1-4l-3.2 1.4-.5-3 .6.3-.2-1.7 1.3 1.3.1-.7 1.9 2.4zm4.1-1.3l-3.3.7.1-3.1.5.5.2-1.8.9 1.6.4-.7 1.2 2.8zm-8.8 3.3l-2.9 1.7-.9-2.9.6.2-.4-1.8 1.4 1.3.1-.8 2.1 2.3z"/>
  <path fill="red" d="M27.5 23.1L23 20.6h4.6l-1.1-3.7 4 1.7.5-4.4 3.8 2.3 1.2-4.4 2.5 2.9 2.4-4.5-.4 5.8-13 6.8z"/>
  <path fill="#febf10" d="M40.8 12.7l-2.1 3.8-2.2-2.5-1.2 4-3.6-2.2-.4 4.2-3.4-1.4.9 2.9-4.2.1-1.6-1 4.5-.1-1.1-3.7 4.1 1.8.4-4.5 3.8 2.3 1.4-4.3 2.4 2.7 2.3-4.3v2.2"/>
  <path fill="none" stroke="#000" stroke-linecap="round" stroke-linejoin="round" stroke-width=".4" d="M40.7 12.7l-2 3.8-2.2-2.5-1.2 4-3.6-2.2-.4 4.2-3.4-1.4.9 2.9-4.1.1"/>
  <path fill="none" stroke="#ed1e79" stroke-linecap="round" stroke-linejoin="round" stroke-width=".3" d="M40.8 12.7h-.1"/>
  <path fill="none" stroke="#000" stroke-linecap="round" stroke-linejoin="round" stroke-width=".4" d="M27.5 23.1L23 20.6h4.6l-1.1-3.7 4 1.7.5-4.4 3.8 2.3 1.2-4.4 2.5 2.9 2.4-4.5-.4 5.8-13 6.8z"/>
  <circle cx="22.8" cy="20.5" r=".8" fill="#febf10" stroke="#000" stroke-linecap="round" stroke-linejoin="round" stroke-width=".4"/>
  <path d="M22.8 20.2a.4.4 0 0 1 .4.3.4.4 0 0 1-.4.4" fill="none" stroke="#000" stroke-linecap="round" stroke-linejoin="round" stroke-width=".3"/>
  <circle cx="26.2" cy="16.6" r=".8" fill="#febf10" stroke="#000" stroke-linecap="round" stroke-linejoin="round" stroke-width=".4"/>
  <path d="M26.3 16.2c.2 0 .3.2.3.4a.3.3 0 0 1-.3.3" fill="none" stroke="#000" stroke-linecap="round" stroke-linejoin="round" stroke-width=".3"/>
  <circle cx="30.8" cy="13.7" r=".8" fill="#febf10" stroke="#000" stroke-linecap="round" stroke-linejoin="round" stroke-width=".4"/>
  <path d="M30.8 13.4c.2 0 .4.1.4.3a.4.4 0 0 1-.4.3" fill="none" stroke="#000" stroke-linecap="round" stroke-linejoin="round" stroke-width=".3"/>
  <circle cx="36" cy="11.5" r=".8" fill="#febf10" stroke="#000" stroke-linecap="round" stroke-linejoin="round" stroke-width=".4"/>
  <path d="M36 11.2a.3.3 0 1 1 0 .6" fill="none" stroke="#000" stroke-linecap="round" stroke-linejoin="round" stroke-width=".3"/>
  <circle cx="40.9" cy="10.1" r=".8" fill="#febf10" stroke="#000" stroke-linecap="round" stroke-linejoin="round" stroke-width=".4"/>
  <path d="M41 9.7a.4.4 0 0 1 .3.4.5.5 0 0 1-.3.3" fill="none" stroke="#000" stroke-linecap="round" stroke-linejoin="round" stroke-width=".3"/>
  <path d="M28.7 34.4a.6.6 0 0 1-.3-.8 8.1 8.1 0 0 0 .2-4.3 7.5 7.5 0 0 1 0-3 6.9 6.9 0 0 1 2.2-3.8.8.8 0 0 1 1 .2.7.7 0 0 1-.2 1.1 5.3 5.3 0 0 0-1.5 2.8 7 7 0 0 0 0 2.5 9.5 9.5 0 0 1-.3 4.9.7.7 0 0 1-.9.5z" fill="#856353" stroke="#000" stroke-linecap="round" stroke-linejoin="round" stroke-width=".4"/>
  <path d="M30.7 34.7a.7.7 0 0 1-.5-.8 9 9 0 0 0-.8-4.1 7 7 0 0 1-.7-3 7.1 7.1 0 0 1 1.2-4.2.8.8 0 0 1 1.1 0 .7.7 0 0 1 0 1 6.2 6.2 0 0 0-.8 3.2 6.5 6.5 0 0 0 .6 2.4 10 10 0 0 1 .9 4.8c-.1.4-.4.8-.8.7z" fill="#856353" stroke="#000" stroke-linecap="round" stroke-linejoin="round" stroke-width=".4"/>
  <path d="M31.7 34.6a.8.8 0 0 1-.5-.8 8 8 0 0 0-.8-4.2 7.8 7.8 0 0 1-.7-3 6 6 0 0 1 1.3-4.1.7.7 0 0 1 1 0 .8.8 0 0 1 .1 1 4.5 4.5 0 0 0-.9 3.1 6.6 6.6 0 0 0 .6 2.5 10 10 0 0 1 .9 4.8.8.8 0 0 1-.8.7z" fill="#856353" stroke="#000" stroke-linecap="round" stroke-linejoin="round" stroke-width=".4"/>
  <path d="M33 34a.7.7 0 0 1-.6-.7 8.2 8.2 0 0 0-.7-4.2 7 7 0 0 1-.7-3 5.6 5.6 0 0 1 1.2-4.1.7.7 0 1 1 1.1 1 4.5 4.5 0 0 0-.8 3.1 5.7 5.7 0 0 0 .6 2.5 9.9 9.9 0 0 1 .8 4.8.7.7 0 0 1-.8.7.1.1 0 0 1-.1-.1z" fill="#856353" stroke="#000" stroke-linecap="round" stroke-linejoin="round" stroke-width=".4"/>
  <path d="M34.1 33.8a.8.8 0 0 1-.5-.7 9.2 9.2 0 0 0-.8-4.2 8.8 8.8 0 0 1-.7-3 7.1 7.1 0 0 1 1.2-4.2c.3-.3 1.6-.8 1.9-.5s-.3.9-.8 1.5a6.2 6.2 0 0 0-.8 3.2 6.5 6.5 0 0 0 .6 2.4 10 10 0 0 1 .9 4.8.7.7 0 0 1-.8.7z" fill="#856353" stroke="#000" stroke-linecap="round" stroke-linejoin="round" stroke-width=".4"/>
  <path d="M35.4 33.6a.8.8 0 0 1-.5-.7 9.2 9.2 0 0 0-.8-4.2 8.8 8.8 0 0 1-.7-3 6.2 6.2 0 0 1 1.2-4.1.8.8 0 0 1 1.1-.1.9.9 0 0 1 .1 1.1c-.1 0-.9 1-.9 3.1a6.5 6.5 0 0 0 .6 2.4 10.4 10.4 0 0 1 .9 4.9.8.8 0 0 1-.8.7z" fill="#856353" stroke="#000" stroke-linecap="round" stroke-linejoin="round" stroke-width=".4"/>
  <path d="M36.6 33.1a.8.8 0 0 1-.5-.7 9.4 9.4 0 0 0-.7-4.2 7 7 0 0 1-.8-3 6.1 6.1 0 0 1 1.3-4.2.8.8 0 0 1 1.1 0 .7.7 0 0 1 0 1 5.7 5.7 0 0 0-.9 3.2 5.1 5.1 0 0 0 .7 2.4 10.1 10.1 0 0 1 .8 4.8c0 .5-.3.8-.8.7z" fill="#856353" stroke="#000" stroke-linecap="round" stroke-linejoin="round" stroke-width=".4"/>
  <path d="M37.8 32.9a.7.7 0 0 1-.5-.8 9.2 9.2 0 0 0-.8-4.2 6.3 6.3 0 0 1-.7-3 6.6 6.6 0 0 1 1.2-4.1c.3-.3 1.5-.9 1.8-.6s-.2.9-.7 1.6a5.6 5.6 0 0 0-.8 3.1 6.6 6.6 0 0 0 .6 2.5 10 10 0 0 1 .9 4.8.8.8 0 0 1-.8.7z" fill="#856353" stroke="#000" stroke-linecap="round" stroke-linejoin="round" stroke-width=".4"/>
  <path d="M29.1 25.5L27.5 24c.2-.2 5.8-6.2 13.8-6.8l.2 2.2c-7.2.5-12.4 6-12.4 6.1z" fill="#0065b7" stroke="#000" stroke-linecap="round" stroke-linejoin="round" stroke-width=".4"/>
  <path d="M27.3 24.3l-.4-.2a.4.4 0 0 1-.1-.6 23 23 0 0 1 14.5-7.2.6.6 0 0 1 .6.5.5.5 0 0 1-.5.5 22.7 22.7 0 0 0-13.9 6.8zm1.8 1.7c-.1.1-.3 0-.4-.1s-.2-.4-.1-.6 4.1-4.9 12.9-6.4c.2-.1.5.1.5.4a.3.3 0 0 1-.3.5c-8.5 1.5-12.3 6-12.3 6.1z" fill="#febf10" stroke="#000" stroke-linecap="round" stroke-linejoin="round" stroke-width=".4"/>
  <path d="M26.7 39.8a8 8 0 0 1-.9 3.4c-1.6 3.3-4.4 8.6-5.5 11.7a119.9 119.9 0 0 0-4 15" fill="none" stroke="#000" stroke-linecap="round" stroke-linejoin="round" stroke-width=".4"/>
  <path fill="#febf10" stroke="#000" stroke-linecap="round" stroke-linejoin="round" stroke-width=".4" d="M46.7 47.8L42.6 45l1-4.8 3.7 2.8-.6 4.8z"/>
  <ellipse cx="45.3" cy="44" rx="1" ry="1.3" transform="rotate(-21.8 45.38 44.01)" fill="#0d3a12" stroke="#000" stroke-linecap="round" stroke-linejoin="round" stroke-width=".4"/>
  <path d="M36.9 41.6a18.6 18.6 0 0 1-8.1-1.9l1.9-2.5c.3.2 6.4 3.5 14.3-.8l2 2.4a21.5 21.5 0 0 1-10.1 2.8z" fill="#febf10" stroke="#000" stroke-linecap="round" stroke-linejoin="round" stroke-width=".4"/>
  <path d="M28.4 54.9a36 36 0 0 1-4 1.5l-4.8.7-1 3.9 3.6-.2 3.2-.5 2.7-1.3.2-.4.2-1.9z" fill="#febf10"/>
  <path d="M18.6 60.9s6.5.6 9.7-2.3a13.5 13.5 0 0 0-.8-7.1m-.5.8s1.1-.2.6-10m2.5 6.5s.8 8.4-1.5 8.8m14.6 2.5s2.1 6.3 2.3 9.9M19.3 58.2s7.8-.9 9-2.4m-8.7 1.3s6.4-.6 8.7-2.1" fill="none" stroke="#000" stroke-linecap="round" stroke-linejoin="round" stroke-width=".4"/>
  <path d="M56.5 62.7a.8.8 0 0 0-1.1-.5c-1 .3-1.9 1.8-1.6 5 .2 1 1.4.9 1.2.1" fill="#febf10"/>
  <path d="M17.5 64.8a61.6 61.6 0 0 0 4 5.2M38 63.8a11.3 11.3 0 0 1 .6 6.2M37 63.8a13.6 13.6 0 0 1 .7 6" fill="none" stroke="#000" stroke-linecap="round" stroke-linejoin="round" stroke-width=".4"/>
  <path d="M64.7 64.2c0-.7-.5-.7-2.1-1.9a3.3 3.3 0 0 0-3.9-.2 12.2 12.2 0 0 1-2.3.8c-2.9.3-1.4 4.6-1.4 4.6 1.5-.2 1.1 0 2.6 1a5.3 5.3 0 0 0 3.4.5l.9.3c.5 0 1.7 0 1.5-1.2h-.3c.5 0 1.2-.2 1.2-.8s-.4-.7-.4-.7.6-1 .4-1.6h-.2c.3-.3.6-.5.6-.8z" fill="#f3bc84"/>
  <path d="M60.5 62.5a7.5 7.5 0 0 1 1.9 1.6c.2.5.6 1.7-.4 1.3s-1.3-1-1.6-1.2-1.4 1.4-2.2 1.1" fill="none" stroke="#000" stroke-linecap="round" stroke-linejoin="round" stroke-width=".4"/>
  <path d="M60.7 64.7s-.4.1-.3.9 2.8 1.1 3.5.9.6-1 .4-1.6M61 67.5s-.8-.2-.9.4 1.2 1.3 1.8 1.3 1.7 0 1.5-1.2" fill="none" stroke="#000" stroke-linecap="round" stroke-linejoin="round" stroke-width=".4"/>
  <path d="M60.5 66s-.5 0-.3.8 2 1.1 2.4 1.2 1.6 0 1.6-.8-.3-.7-.3-.7" fill="none" stroke="#000" stroke-linecap="round" stroke-linejoin="round" stroke-width=".4"/>
  <path d="M53.5 61a4.2 4.2 0 0 0-2.6 3.2 10.4 10.4 0 0 0-.1 3.2h3.1l1.3-5S53.8 61 53.5 61z" fill="#febf10"/>
  <path d="M61 69a5.3 5.3 0 0 1-3.4-.5c-1.5-1-1.1-1.2-2.6-1 0 0-1.5-4.3 1.4-4.6a12.2 12.2 0 0 0 2.3-.8 3.3 3.3 0 0 1 3.9.2c1.6 1.2 2.1 1.2 2.1 1.9s-1.5 1.1-2 1" fill="none" stroke="#000" stroke-linecap="round" stroke-linejoin="round" stroke-width=".4"/>
  <path d="M56.5 62.7a.8.8 0 0 0-1.1-.5c-1 .3-1.9 1.8-1.6 5 .2 1 1.4.9 1.2.1m-1-5.9s-2.9 1.2-2.4 5.9m1.8-6.3s-3.2 1.1-2.5 6.2m-1.4-8.1s4.4 1.8 5.6 3.1M44.6 65a14.6 14.6 0 0 0 9.1 2.3M44 62.8a37.6 37.6 0 0 1-8.6.9 44.2 44.2 0 0 1-11.1-1.4m3.3-3.1a39.2 39.2 0 0 0 14.1.3" fill="none" stroke="#000" stroke-linecap="round" stroke-linejoin="round" stroke-width=".4"/>
  <path d="M56 50a5.6 5.6 0 0 1 5.6-5.5 5.5 5.5 0 0 1 3.7 1.4 4.8 4.8 0 0 1 3.5-2.3c-1.3 0-2.5-.9-3.5-2.3a5.5 5.5 0 0 1-3.7 1.4 5.6 5.6 0 0 1-5.6-5.6 5.8 5.8 0 0 1 .6-2.6 10.4 10.4 0 0 0-5.4 9.1 10.5 10.5 0 0 0 5.4 9.1A6 6 0 0 1 56 50z" fill="#0065b7"/>
  <path d="M54.9 48c0-2 2.5-3.8 4.6-3.8a3.4 3.4 0 0 1 2.4.9 3.4 3.4 0 0 1 2.4-1.5 3.1 3.1 0 0 1-2.4-1.6 3.5 3.5 0 0 1-2.4 1c-2.1 0-4.6-1.5-4.6-3.5a6.8 6.8 0 0 1 .2-2.1 9.1 9.1 0 0 0-2.5 6.2 10.6 10.6 0 0 0 2.6 6.7 5.6 5.6 0 0 1-.3-2.3z" fill="#004da1"/>
  <path d="M61 30.9s.6 5.3 2.4 7.4a5.2 5.2 0 0 0-1.9 3.5h-1.1a5.5 5.5 0 0 0-2-3.5c1.8-2.1 2.5-7.4 2.5-7.4" fill="#0065b7"/>
  <path d="M60.9 34.7s.3 3.7 1.1 5.2a4.2 4.2 0 0 0-.9 2.4h-.5a4.2 4.2 0 0 0-.9-2.4 20.4 20.4 0 0 0 1.2-5.2" fill="#004da1"/>
  <path d="M56 50a5.6 5.6 0 0 1 5.6-5.5 5.5 5.5 0 0 1 3.7 1.4 4.8 4.8 0 0 1 3.5-2.3c-1.3 0-2.5-.9-3.5-2.3a5.5 5.5 0 0 1-3.7 1.4 5.6 5.6 0 0 1-5.6-5.6 5.8 5.8 0 0 1 .6-2.6 10.4 10.4 0 0 0-5.4 9.1 10.5 10.5 0 0 0 5.4 9.1A6 6 0 0 1 56 50z" fill="none" stroke="#000" stroke-linecap="round" stroke-linejoin="round" stroke-width=".4"/>
  <path d="M60.9 30.9s-.7 5.3-2.5 7.4a5.5 5.5 0 0 1 2 3.5m1.1 0a5.2 5.2 0 0 1 1.9-3.5c-1.8-2.1-2.4-7.4-2.4-7.4" fill="none" stroke="#000" stroke-linecap="round" stroke-linejoin="round" stroke-width=".4"/>
  <path fill="#0065b7" stroke="#000" stroke-linecap="round" stroke-linejoin="round" stroke-width=".4" d="M59.6 41.8h2.8v4.92h-2.8z"/>
  <path d="M23.5 60.8s4 6.9 4.6 9" fill="none" stroke="#000" stroke-linecap="round" stroke-linejoin="round" stroke-width=".4"/>
  <circle cx="27.9" cy="61.2" r="1.6" fill="none" stroke="#000" stroke-linecap="round" stroke-linejoin="round" stroke-width=".4"/>
  <path d="M27.9 60.3a.9.9 0 0 1 .8.9.9.9 0 0 1-.8.8 1 1 0 0 1-1.1-1c-.1-.4 0-1.1 1-1.4" fill="none" stroke="#000" stroke-linecap="round" stroke-linejoin="round" stroke-width=".4"/>
  <circle cx="32" cy="61.7" r="1.5" fill="none" stroke="#000" stroke-linecap="round" stroke-linejoin="round" stroke-width=".4"/>
  <path d="M32 62.5a.8.8 0 0 1 0-1.6c.5 0 1.1.2 1.1.9a1.3 1.3 0 0 1-1 1.4" fill="none" stroke="#000" stroke-linecap="round" stroke-linejoin="round" stroke-width=".4"/>
  <circle cx="36.2" cy="61.9" r="1.6" fill="none" stroke="#000" stroke-linecap="round" stroke-linejoin="round" stroke-width=".4"/>
  <path d="M36.2 61.1a.8.8 0 0 1 .9.8.9.9 0 0 1-.9.9 1.1 1.1 0 0 1-1.1-1 1.5 1.5 0 0 1 1.1-1.5" fill="none" stroke="#000" stroke-linecap="round" stroke-linejoin="round" stroke-width=".4"/>
  <circle cx="40.5" cy="61.5" r="1.5" fill="none" stroke="#000" stroke-linecap="round" stroke-linejoin="round" stroke-width=".4"/>
  <path d="M40.5 62.4a.8.8 0 0 1-.8-.9.8.8 0 0 1 .8-.8 1.1 1.1 0 0 1 1.1 1 1.4 1.4 0 0 1-1.1 1.4m5-25.8l-1.4 1.5-2.1-.3-1.4 1.6-1.9-.8-1.6 1.2-1.8-1.2-1.5 1-1.4-1.6-1.8.9-.7-1.5" fill="none" stroke="#000" stroke-linecap="round" stroke-linejoin="round" stroke-width=".4"/>
  <path fill="#0065b7" stroke="#000" stroke-linecap="round" stroke-linejoin="round" stroke-width=".4" d="M26.2 39.6l-1.7-1.3.2-1.6 1.9-.9 2.6.3 1.7 1.3-.2 1.5-1.9.9-2.6-.2z"/>
  <path fill="#febf10" stroke="#000" stroke-linecap="round" stroke-linejoin="round" stroke-width=".4" d="M26.7 38.9l-1.2-.8.1-1 1.3-.6 1.8.2 1.1.8-.1 1-1.3.6-1.7-.2z"/>
  <circle cx="18.8" cy="120.1" r="9.3" fill="#fff" stroke="#000" stroke-linecap="round" stroke-linejoin="round" stroke-width=".4"/>
  <circle cx="18.8" cy="120.1" r="8.6"/>
  <circle cx="18.8" cy="120.1" r="6.6" fill="none" stroke="#ed1e79" stroke-linecap="round" stroke-linejoin="round" stroke-width=".4"/>
  <circle cx="18.8" cy="120.1" r="7.3" fill="#d09b07" stroke="#000" stroke-miterlimit="10" stroke-width=".4"/>
  <path fill="#856353" stroke="#000" stroke-linecap="round" stroke-linejoin="round" stroke-width=".4" d="M18.8 127.3l-.9-2.8-1.9 2.3.2-2.9-2.6 1.3 1.4-2.6-2.9.2 2.2-1.9-2.8-.9 2.8-.8-2.2-1.9 2.9.2-1.4-2.6 2.6 1.3-.2-2.9 1.9 2.3.9-2.8.9 2.8 1.9-2.3-.3 2.9 2.7-1.3-1.4 2.6 2.9-.2-2.2 1.9 2.8.8-2.8.9 2.2 1.9-2.9-.2 1.4 2.6-2.7-1.3.3 2.9-1.9-2.3-.9 2.8z"/>
  <circle cx="18.8" cy="128" r=".5" fill="#febf10"/>
  <circle cx="18.8" cy="128" r=".1"/>
  <circle cx="18.8" cy="112.1" r=".5" fill="#febf10"/>
  <circle cx="18.8" cy="112.1" r=".1"/>
  <circle cx="10.9" cy="120.1" r=".5" fill="#febf10"/>
  <circle cx="10.9" cy="120.1" r=".1"/>
  <circle cx="26.8" cy="120.1" r=".5" fill="#febf10"/>
  <circle cx="26.8" cy="120.1" r=".1"/>
  <circle cx="13.2" cy="125.7" r=".5" fill="#febf10"/>
  <circle cx="13.2" cy="125.7" r=".1"/>
  <circle cx="24.4" cy="114.5" r=".5" fill="#febf10"/>
  <circle cx="24.4" cy="114.5" r=".1"/>
  <circle cx="13.2" cy="114.5" r=".5" fill="#febf10"/>
  <circle cx="13.2" cy="114.5" r=".1"/>
  <circle cx="24.4" cy="125.7" r=".5" fill="#febf10"/>
  <circle cx="24.4" cy="125.7" r=".1"/>
  <circle cx="15.9" cy="127.5" r=".5" fill="#febf10"/>
  <circle cx="15.9" cy="127.5" r=".1"/>
  <circle cx="21.8" cy="112.7" r=".5" fill="#febf10"/>
  <circle cx="21.8" cy="112.7" r=".1"/>
  <circle cx="11.4" cy="117.1" r=".5" fill="#febf10"/>
  <circle cx="11.4" cy="117.1" r=".1"/>
  <circle cx="26.2" cy="123.1" r=".5" fill="#febf10"/>
  <circle cx="26.2" cy="123.1" r=".1"/>
  <circle cx="11.5" cy="123.2" r=".5" fill="#febf10"/>
  <circle cx="11.5" cy="123.2" r=".1"/>
  <circle cx="26.1" cy="117" r=".5" fill="#febf10"/>
  <circle cx="26.1" cy="117" r=".1"/>
  <circle cx="15.7" cy="112.8" r=".5" fill="#febf10"/>
  <circle cx="15.7" cy="112.8" r=".1"/>
  <circle cx="21.9" cy="127.4" r=".5" fill="#febf10"/>
  <circle cx="21.9" cy="127.4" r=".1"/>
  <circle cx="14.5" cy="126.7" r=".5" fill="#febf10"/>
  <circle cx="14.5" cy="126.7" r=".1"/>
  <circle cx="23.2" cy="113.4" r=".5" fill="#febf10"/>
  <circle cx="23.2" cy="113.4" r=".1"/>
  <circle cx="12.1" cy="115.7" r=".5" fill="#febf10"/>
  <circle cx="12.1" cy="115.7" r=".1"/>
  <circle cx="25.5" cy="124.5" r=".5" fill="#febf10"/>
  <circle cx="25.5" cy="124.5" r=".1"/>
  <circle cx="11" cy="121.7" r=".5" fill="#febf10"/>
  <circle cx="11" cy="121.7" r=".1"/>
  <circle cx="26.6" cy="118.5" r=".5" fill="#febf10"/>
  <circle cx="26.6" cy="118.5" r=".1"/>
  <circle cx="17.2" cy="112.3" r=".5" fill="#febf10"/>
  <circle cx="17.2" cy="112.3" r=".1"/>
  <circle cx="20.4" cy="127.9" r=".5" fill="#febf10"/>
  <circle cx="20.4" cy="127.9" r=".1"/>
  <circle cx="12.2" cy="124.5" r=".5" fill="#febf10"/>
  <circle cx="12.2" cy="124.5" r=".1"/>
  <circle cx="25.4" cy="115.6" r=".5" fill="#febf10"/>
  <circle cx="25.4" cy="115.6" r=".1"/>
  <circle cx="14.4" cy="113.5" r=".5" fill="#febf10"/>
  <circle cx="14.4" cy="113.5" r=".1"/>
  <circle cx="23.3" cy="126.7" r=".5" fill="#febf10"/>
  <circle cx="23.3" cy="126.7" r=".1"/>
  <circle cx="11" cy="118.6" r=".5" fill="#febf10"/>
  <circle cx="11" cy="118.6" r=".1"/>
  <circle cx="26.6" cy="121.6" r=".5" fill="#febf10"/>
  <circle cx="26.6" cy="121.6" r=".1"/>
  <circle cx="20.3" cy="112.3" r=".5" fill="#febf10"/>
  <circle cx="20.3" cy="112.3" r=".1"/>
  <circle cx="17.3" cy="127.9" r=".5" fill="#febf10"/>
  <circle cx="17.3" cy="127.9" r=".1"/>
  <circle cx="18.8" cy="120.1" r="4.5" fill="red"/>
  <path d="M14.9 122.1a3.6 3.6 0 0 1-.2-1 5.1 5.1 0 0 1 4.7-5.2h1.2a4.5 4.5 0 0 0-6.2 4.3 3.5 3.5 0 0 0 .5 1.9zm2 .1c-.7.1-.6-.1-1.5-.3a1.8 1.8 0 0 0 1.5 1 1.7 1.7 0 0 0 1.6-1.7c0-.2.1-.3.1-.5a2.3 2.3 0 0 1-1.7 1.5zm4 0c.7 0 .6-.1 1.4-.3s-.5 1-1.4 1a1.5 1.5 0 0 1-1.6-1.4c0-.2.6.8 1.6.7z" fill="#980805"/>
  <path d="M20.2 118.5s-.8.4-1 .3l-.3-.2a.7.7 0 0 1-.4.2l-1.2-.5a3.4 3.4 0 0 1 1.6-.8 2.2 2.2 0 0 1 1.5.7c.2.3-.2.3-.2.3z" fill="#980805"/>
  <path d="M19.9 121.2a1.3 1.3 0 0 0 2 .3m-1.8-.4a1.4 1.4 0 0 1 1.5-.1m-3.9.2s-.6 1.3-1.9.3m1.8-.4a1.4 1.4 0 0 0-1.5-.1" fill="none" stroke="#000" stroke-linecap="round" stroke-linejoin="round" stroke-width=".3"/>
  <path d="M22.3 121.9a1.5 1.5 0 0 1-1.4 1 1.5 1.5 0 0 1-1.5-1m-3.9 0a1.4 1.4 0 0 0 1.4 1c1.5 0 1.8-1.7 1.6-2.6s-.5-.2-.4-.5a.4.4 0 0 1 .3-.2c.6-.5.9 0 .9 0m.4.5s.3-.5-.4-.5m-2.4-1.2a4.1 4.1 0 0 1 2-.9 3.6 3.6 0 0 1 1.9.9c-.6-.2-1.6.7-1.9.2s-1.1-.3-2-.2zm3.3.8a4.5 4.5 0 0 0 1-1.5m-3.7 1.5a3.5 3.5 0 0 1-.9-1.5" fill="none" stroke="#000" stroke-linecap="round" stroke-linejoin="round" stroke-width=".3"/>
  <path d="M17.7 121.2h-1.8a1.2 1.2 0 0 0 1.3.1z" stroke="#000" stroke-linecap="round" stroke-linejoin="round" stroke-width=".3"/>
  <path fill="#0065b7" stroke="#000" stroke-linecap="round" stroke-linejoin="round" stroke-width=".3" d="M15.6 121.2h.3"/>
  <path d="M19.9 121.2h1.8a1 1 0 0 1-1.2.1z" stroke="#000" stroke-linecap="round" stroke-linejoin="round" stroke-width=".3"/>
  <path fill="#0065b7" stroke="#000" stroke-linecap="round" stroke-linejoin="round" stroke-width=".3" d="M22 121.2h-.3"/>
  <path d="M19.7 116.8a1.2 1.2 0 0 1-.8.4.8.8 0 0 1-.7-.3m-.4 6.4l1-.2 1 .2m.7-5a11.3 11.3 0 0 0-3.4 0" fill="none" stroke="#000" stroke-linecap="round" stroke-linejoin="round" stroke-width=".3"/>
  <circle cx="18.8" cy="120.1" r="4.5" fill="none" stroke="#000" stroke-miterlimit="10" stroke-width=".4"/>
  <circle cx="23.7" cy="124.9" r=".1"/>
  <circle cx="22.4" cy="125.4" r=".1"/>
  <circle cx="21.4" cy="126.4" r=".1"/>
  <circle cx="20" cy="126.3" r=".1"/>
  <circle cx="17.6" cy="126.2" r=".1"/>
  <circle cx="18.8" cy="127" r=".1"/>
  <circle cx="16.2" cy="126.4" r=".1"/>
  <circle cx="15.3" cy="125.3" r=".1"/>
  <circle cx="13.9" cy="124.9" r=".1"/>
  <circle cx="13.6" cy="123.6" r=".1"/>
  <circle cx="12.5" cy="122.7" r=".1"/>
  <circle cx="12.7" cy="121.3" r=".1"/>
  <circle cx="11.9" cy="120.1" r=".1"/>
  <circle cx="12.7" cy="118.8" r=".1"/>
  <circle cx="12.4" cy="117.4" r=".1"/>
  <circle cx="13.6" cy="116.6" r=".1"/>
  <circle cx="14" cy="115.2" r=".1"/>
  <circle cx="15.3" cy="114.8" r=".1"/>
  <circle cx="16.2" cy="113.8" r=".1"/>
  <circle cx="17.6" cy="113.9" r=".1"/>
  <circle cx="18.8" cy="113.2" r=".1"/>
  <circle cx="20.1" cy="113.9" r=".1"/>
  <circle cx="21.4" cy="113.7" r=".1"/>
  <circle cx="22.4" cy="114.9" r=".1"/>
  <circle cx="23.7" cy="115.2" r=".1"/>
  <circle cx="24.1" cy="116.6" r=".1"/>
  <circle cx="25.3" cy="117.4" r=".1"/>
  <circle cx="25" cy="118.9" r=".1"/>
  <circle cx="25.8" cy="120.1" r=".1"/>
  <circle cx="25" cy="121.3" r=".1"/>
  <circle cx="25.2" cy="122.7" r=".1"/>
  <circle cx="24.1" cy="123.6" r=".1"/>
  <path d="M27.4 83.8a1.4 1.4 0 0 1-1.3-1.5.9.9 0 0 1-.2-1.4 2 2 0 0 1-.1-2.1l-.5-5.5s-.9-.9-.8-1.6a1.8 1.8 0 0 1-.1-1.7h10.7v13z" fill="#bdccd4"/>
  <path fill="#325723" d="M52.9 99.9L60 83.3 62.6 70l-12 .2-17.3-.2h-1l1.1 5.8 1.2 3.9 3 4.2 11 14.9 1.9 2 2.4-.9z"/>
  <path fill="#0d3a12" d="M62.8 79.4l-14.4-2.7-1.8-.2-2.5-6.4L62 70l.8 9.4z"/>
  <path d="M49.7 70.3c.7 2 6.9 13 6.9 13l5.5-5.4s-5.4-7.6-5.9-7.9z" fill="#0065b7"/>
  <path d="M50.3 97.7l-.2-5.2.3-3.9-.7-2.3-.3-1.7v-2.1a1.3 1.3 0 0 0-1.2 1.1c-.4 1.2-.5 6.9-.5 6.9v.8l.7 1.4-.2 1.4.8.9v1.1l.6.4v1z" fill="#0d3a12"/>
  <path d="M27.4 83.8a1.4 1.4 0 0 1-1.3-1.5.9.9 0 0 1-.2-1.4 2 2 0 0 1-.1-2.1l-.5-5.5s-.9-.9-.8-1.6a1.2 1.2 0 0 1-.1-1.4" fill="none" stroke="#000" stroke-linecap="round" stroke-linejoin="round" stroke-width=".4"/>
  <path fill="#004da1" d="M54.4 79.3l-3.1-5.7-1.6-3.5h3.1l4.7 9-3.1.2z"/>
  <path fill="#febf10" stroke="#000" stroke-linecap="round" stroke-linejoin="round" stroke-width=".4" d="M17.8 70.1v23.5H16V70.1m.8 23.3V70.1"/>
  <path d="M34 80.9c7.2-2 19.4.1 22.4.7l-2.9-3.8a42 42 0 0 0-11.1-1.5 45.8 45.8 0 0 0-8.6.9z" fill="#febf10"/>
  <ellipse cx="50" cy="78.9" rx="1.5" ry="1.5" fill="#d09b07"/>
  <ellipse cx="45.8" cy="78.3" rx="1.5" ry="1.5" fill="#d09b07"/>
  <ellipse cx="41.6" cy="78.1" rx="1.5" ry="1.5" fill="#d09b07"/>
  <ellipse cx="37.4" cy="78.4" rx="1.5" ry="1.5" fill="#d09b07"/>
  <path d="M64 81.4a52.3 52.3 0 0 0 .9-11.3h-3.4a138.8 138.8 0 0 1-3.9 15c-1.2 3.2-4 8.4-5.5 11.7a17.4 17.4 0 0 0-1.4 4.8l5.2 2a14 14 0 0 0 4.8-6.3s6.9-5.7 3.5-16" fill="red"/>
  <path d="M53.1 101.3s5.1-7.5 7.2-13.2 2.4-18 2.4-18h-1.1l-3 12.5-1.5 3.8-3.2 6.4-2.1 4.9-.7 2.2v1.1l1.1.7.6.2z" fill="#980805"/>
  <path d="M55.9 103.6a14 14 0 0 0 4.8-6.3s6.9-5.7 3.5-16" fill="none" stroke="#000" stroke-linecap="round" stroke-linejoin="round" stroke-width=".4"/>
  <path d="M63.4 88.5s-.7.1 0-3.5a71.3 71.3 0 0 0 1.5-14.9" fill="none" stroke="#000" stroke-linecap="round" stroke-linejoin="round" stroke-width=".4"/>
  <path d="M22.7 77.9c1.2 1.2 5.6 3 5.6 3l6.8.2-1.9-6a15 15 0 0 0-9.1-2.4z" fill="#0065b7"/>
  <path d="M34.4 79s-4.9-3.5-7.4-3.5v-2.9l3.8 1.1 2.5 1.3z" fill="#004da1"/>
  <path d="M53.4 102.5a1.9 1.9 0 0 1 2.5 2.2c-.2 1.4-1.8 1.4-1.8 1.4-.6 3.2-4.8 1.2-4.8 1.2l-1.5-2.8.8-.7z" fill="red"/>
  <path d="M49.3 107.3s4.2 2 4.8-1.2c0 0 1.6 0 1.8-1.4a1.9 1.9 0 0 0-2.5-2.2" fill="none" stroke="#000" stroke-linecap="round" stroke-linejoin="round" stroke-width=".4"/>
  <path d="M36 106.4a.6.6 0 0 0-.3.8 8.8 8.8 0 0 1 0 4.3 9.7 9.7 0 0 0-.1 3 6.5 6.5 0 0 0 2.1 3.9.8.8 0 0 0 1-.2.8.8 0 0 0-.1-1.1c-.1 0-1.1-.8-1.5-2.9a7 7 0 0 1 .1-2.5 10.2 10.2 0 0 0-.1-4.9.7.7 0 0 0-.9-.5z" fill="#856353" stroke="#000" stroke-linecap="round" stroke-linejoin="round" stroke-width=".4"/>
  <path d="M37.2 106.4a.7.7 0 0 0-.4.8 9 9 0 0 1 .1 4.3 6.4 6.4 0 0 0-.1 3.1 5.9 5.9 0 0 0 2.1 3.8c.3.2 1.6.5 1.8.2s-.4-.9-1-1.5a4.9 4.9 0 0 1-1.4-2.8 5.7 5.7 0 0 1 .1-2.6 10.2 10.2 0 0 0-.1-4.9.8.8 0 0 0-1-.5.1.1 0 0 0-.1.1z" fill="#856353" stroke="#000" stroke-linecap="round" stroke-linejoin="round" stroke-width=".4"/>
  <path d="M38.5 106.3a.7.7 0 0 0-.4.8 9 9 0 0 1 .1 4.3 7.9 7.9 0 0 0-.1 3.1 6.4 6.4 0 0 0 2.1 3.8.8.8 0 0 0 1-.2.8.8 0 0 0-.2-1.1 4.9 4.9 0 0 1-1.4-2.8 5.7 5.7 0 0 1 .1-2.6 10.2 10.2 0 0 0-.1-4.9.7.7 0 0 0-.9-.5z" fill="#856353" stroke="#000" stroke-linecap="round" stroke-linejoin="round" stroke-width=".4"/>
  <path d="M37.8 105.9s-2.5-.6-3-1.3a2.3 2.3 0 0 1-1.6-1.1l-2.2-2.8a2.3 2.3 0 0 1-1.1-1.9s-.3-.3-.4-1.9a2.4 2.4 0 0 1-1.1-2 2.6 2.6 0 0 1-.2-2s-.8-.3-.2-1.6-.9-.1-.8-2.1a1.2 1.2 0 0 1 0-1.7s-.6-.3-.3-1.4-.6-1.6.9-1.1a2.6 2.6 0 0 1-.2-2.3s-.3-2.4 2.1-1.8a3.2 3.2 0 0 1 3-.9 5.6 5.6 0 0 1 4.4 1.2 2.5 2.5 0 0 1 1.8.8s1.8.1 2.2 1.3 2.3 0 2.8 2a1 1 0 0 1 .8 1.2 1.2 1.2 0 0 1 1.2 1.6 1.1 1.1 0 0 1 .5 1.5s1.2.4.9 1.5a2.8 2.8 0 0 1 .8 2.9 2 2 0 0 1 .8 2 1.5 1.5 0 0 1 .7 1.3s.6.2.7 1.2a2 2 0 0 1 .3 2 6.5 6.5 0 0 1-5.5 4.8c-4.5.5-7.3.6-7.3.6z" fill="#bdccd4"/>
  <path d="M48.8 96.1s-1.7-3.3-4.2-2.3a2.5 2.5 0 0 0-3.9.3s-.8-1.6-2.5-.2c0 0-1.9-1.6-2.8.2 0 0-3.7-2.2-5.2.6a1 1 0 0 0-1.5.9s.4 1 .6 1.1.2-2.2 1.6-1.1a3.4 3.4 0 0 1 4.7-.4s1.7-1.1 2.5 0 1.6-1.3 2.6.3c0 0 2.6-2.3 3.8.3 0 0 .9-2.4 4.9 1.7 0 0 .2-1.5-.6-1.4zm-3-7.8s-2.1-2.6-3.8-.1c0 0-1.5-2.1-2.8.1 0 0-1.8-2.1-2.8.1 0 0-1.5-1.5-2.3.2 0 0-2-1.5-2.5 1 0 0-1.8-1.3-2.5.7 0 0-1.4-1-1.5.7l.5.5-.2.6s.3-2 1.5-.8 1.1-2.1 2.5-.5c0 0 .8-2.3 2.5-.6 0 0 .5-2.5 2.2-.4 0 0 1.1-2.1 2.8-.5 0 0 1.2-2 2.7-.3 0 0 2-1.7 4.3.5 0 0 .4-1.2-.6-1.2z" fill="#999"/>
  <path d="M37.8 105.9s-2.5-.6-3-1.3a2.3 2.3 0 0 1-1.6-1.1l-2.2-2.8a2.3 2.3 0 0 1-1.1-1.9s-.3-.3-.4-1.9a2.4 2.4 0 0 1-1.1-2 2.6 2.6 0 0 1-.2-2s-.8-.3-.2-1.6-.9-.1-.8-2.1a1.2 1.2 0 0 1 0-1.7s-.6-.3-.3-1.4-.6-1.6.9-1.1a2.6 2.6 0 0 1-.2-2.3s-.3-2.4 2.1-1.8a3.2 3.2 0 0 1 3-.9 5.6 5.6 0 0 1 4.4 1.2 2.5 2.5 0 0 1 1.8.8s1.8.1 2.2 1.3 2.3 0 2.8 2a1 1 0 0 1 .8 1.2 1.2 1.2 0 0 1 1.2 1.6 1.1 1.1 0 0 1 .5 1.5s1.2.4.9 1.5a2.8 2.8 0 0 1 .8 2.9 2 2 0 0 1 .8 2 1.5 1.5 0 0 1 .7 1.3s.6.2.7 1.2a2 2 0 0 1 .3 2 6.5 6.5 0 0 1-5.5 4.8c-4.5.5-7.3.6-7.3.6z" fill="none" stroke="#000" stroke-linecap="round" stroke-linejoin="round" stroke-width=".4"/>
  <path d="M39.3 107.8l6.7 1.4.8-3.7a9.1 9.1 0 0 0-1-1 13.5 13.5 0 0 0-4.5-1c-2.1-.1-3.6 1.7-3.4 2.4s1.6.7 1.6.7.3-.2 0 .9l-.2.3" fill="#f3bc84"/>
  <path d="M42.6 106.7s0-2.5-.8-3-3.4.4-3.4.4l-.7 1.2.6.7 1.3.5v1l2.2-.4z" fill="#c69c6d"/>
  <path d="M46 109.2l-2.1 10.2-7.6 1.5a6.1 6.1 0 0 1-.9-2.3 4.8 4.8 0 0 1 0-1.5 25.6 25.6 0 0 1-1.6-2.2c-.2-.3.2-.8.7-1a5.4 5.4 0 0 0 .1-2 21.1 21.1 0 0 1-.3-2.1c.1-.6 1.1-.8 2.1-1s2.3-.2 2.9-1" fill="#f3bc84"/>
  <path d="M38.8 106.2c-.5-.3-.9-.5-.9-.9s2.6-1.7 5.4-1.4 4.7 1.5 4.5 2.6-2.6 1.7-5.3 1.4c3.2.4 6-.4 6.3-1.7s-2.1-2.8-5.4-3.2-6 .3-6.3 1.7.6 1 1.5 1.6m3.9 1.6z" fill="#febf10"/>
  <path d="M39.5 106.6c-1.5-.4-2.5-1.1-2.4-1.9s3.1-2.1 6.3-1.7 5.7 1.8 5.4 3.2-2.2 1.8-4.7 1.8" fill="none" stroke="#000" stroke-linecap="round" stroke-linejoin="round" stroke-width=".4"/>
  <path d="M39.5 106.6c-.8-.3-1.7-.8-1.6-1.3s2.6-1.7 5.4-1.4 4.7 1.5 4.5 2.6-2.1 1.7-4.4 1.6" fill="none" stroke="#000" stroke-linecap="round" stroke-linejoin="round" stroke-width=".4"/>
  <path d="M34.6 110.8s3.3-1.5 5-1.3 0-1.4 0-1.4l-1.7.5-2.2.3-1.1.4-.3.6z" fill="#c69c6d"/>
  <path d="M36.3 120.9a6.1 6.1 0 0 1-.9-2.3 4.8 4.8 0 0 1 0-1.5 25.6 25.6 0 0 1-1.6-2.2c-.2-.3.2-.8.7-1a5.4 5.4 0 0 0 .1-2 21.1 21.1 0 0 1-.3-2.1c.1-.6 1.1-.8 2.1-1s2.8-.2 3.1-1.3a7.3 7.3 0 0 0 .1-2.5" fill="none" stroke="#000" stroke-linecap="round" stroke-linejoin="round" stroke-width=".4"/>
  <path d="M35.9 117.4l2.4-.8c0-.1-.6 1.4-2 1.4s-.1-.1.1-.7m-.5-1.1l1.6-.3m-2 3.1c.4.4 2.3.1 3.1-1.4" fill="none" stroke="#000" stroke-linecap="round" stroke-linejoin="round" stroke-width=".3"/>
  <ellipse cx="36.8" cy="116.5" rx=".5" ry=".6" transform="rotate(-13.3 36.8 116.87)"/>
  <circle cx="36.7" cy="116.7" r=".2" fill="#fff"/>
  <path d="M34.5 114.4s.4.1.5-.2" fill="none" stroke="#000" stroke-linecap="round" stroke-linejoin="round" stroke-width=".3"/>
  <path fill="#febf10" d="M49.5 120.3l2.3-2.5 1.7 2.6-.8-.1.9 1.6-1.6-.8.1.7-2.6-1.5zm-8.1 4.1l3.1-1.4.6 2.9-.7-.3.2 1.8-1.2-1.3-.2.7-1.8-2.4zm-4.2 1.2l3.4-.6-.1 3-.6-.5-.2 1.9-.9-1.6-.3.6-1.3-2.8zm8.8-3.2l2.9-1.8 1 3-.7-.3.4 1.8-1.4-1.2v.7l-2.2-2.2z"/>
  <path d="M35.7 114.7a.5.5 0 0 0-.1-.8" fill="none" stroke="#000" stroke-linecap="round" stroke-linejoin="round" stroke-width=".3"/>
  <path d="M34.8 112.2s-.6.2-.5.6.5.5.9.1a6.3 6.3 0 0 0 .8-1.1 6.4 6.4 0 0 0-1.4-.6.5.5 0 0 0-.5.6 1.3 1.3 0 0 0 .7.4z" fill="red" stroke="#000" stroke-linecap="round" stroke-linejoin="round" stroke-width=".3"/>
  <path d="M52.9 119.1s-3.8 5.7-15 7.7V124l12.9-6.2z" fill="#d09b07"/>
  <path fill="none" stroke="#000" stroke-linecap="round" stroke-linejoin="round" stroke-width=".4" d="M49.5 120.3l2.3-2.5 1.7 2.6-.8-.1.9 1.6-1.6-.8.1.7-2.6-1.5zm-8.1 4.1l3.1-1.4.6 2.9-.7-.3.2 1.8-1.2-1.3-.2.7-1.8-2.4zm-4.2 1.2l3.4-.6-.1 3-.6-.5-.2 1.9-.9-1.6-.3.6-1.3-2.8zm8.8-3.2l2.9-1.8 1 3-.7-.3.4 1.8-1.4-1.2v.7l-2.2-2.2z"/>
  <path fill="red" d="M50.3 116.9l4.5 2.5h-4.5l1.1 3.7-4.1-1.7-.4 4.5-3.9-2.4-1.2 4.5-2.5-2.9-2.4 4.4.5-5.8 12.9-6.8z"/>
  <path fill="#febf10" d="M37.1 127.4l2.1-3.8 2.1 2.4 1.2-3.9 3.6 2.1.4-4.2 3.4 1.5-.8-2.9 4.1-.1 1.7 1h-4.5l1.1 3.7-4.1-1.7-.5 4.4-3.8-2.3-1.3 4.4-2.4-2.7-2.4 4.2.1-2.1"/>
  <path fill="none" stroke="#000" stroke-linecap="round" stroke-linejoin="round" stroke-width=".4" d="M37.1 127.3l2.1-3.7 2.1 2.4 1.2-3.9 3.6 2.1.4-4.2 3.4 1.5-.8-2.9 4-.1"/>
  <path fill="none" stroke="#ed1e79" stroke-linecap="round" stroke-linejoin="round" stroke-width=".3" d="M37.1 127.4v-.1"/>
  <path fill="none" stroke="#000" stroke-linecap="round" stroke-linejoin="round" stroke-width=".4" d="M50.3 116.9l4.5 2.5h-4.5l1.1 3.7-4.1-1.7-.4 4.5-3.9-2.4-1.2 4.5-2.5-2.9-2.4 4.4.5-5.8 12.9-6.8z"/>
  <circle cx="55" cy="119.5" r=".8" fill="#febf10" stroke="#000" stroke-linecap="round" stroke-linejoin="round" stroke-width=".4"/>
  <path d="M55 119.8a.3.3 0 0 1 0-.6" fill="none" stroke="#000" stroke-linecap="round" stroke-linejoin="round" stroke-width=".3"/>
  <circle cx="51.6" cy="123.5" r=".8" fill="#febf10" stroke="#000" stroke-linecap="round" stroke-linejoin="round" stroke-width=".4"/>
  <path d="M51.5 123.8a.3.3 0 0 1 0-.6" fill="none" stroke="#000" stroke-linecap="round" stroke-linejoin="round" stroke-width=".3"/>
  <circle cx="47" cy="126.4" r=".8" fill="#febf10" stroke="#000" stroke-linecap="round" stroke-linejoin="round" stroke-width=".4"/>
  <path d="M47 126.7a.3.3 0 0 1-.3-.3.3.3 0 0 1 .3-.3" fill="none" stroke="#000" stroke-linecap="round" stroke-linejoin="round" stroke-width=".3"/>
  <circle cx="41.9" cy="128.6" r=".8" fill="#febf10" stroke="#000" stroke-linecap="round" stroke-linejoin="round" stroke-width=".4"/>
  <path d="M41.8 128.9l-.3-.3a.4.4 0 0 1 .3-.4" fill="none" stroke="#000" stroke-linecap="round" stroke-linejoin="round" stroke-width=".3"/>
  <circle cx="36.9" cy="130" r=".8" fill="#febf10" stroke="#000" stroke-linecap="round" stroke-linejoin="round" stroke-width=".4"/>
  <path d="M36.9 130.3a.3.3 0 0 1 0-.6" fill="none" stroke="#000" stroke-linecap="round" stroke-linejoin="round" stroke-width=".3"/>
  <path d="M49.1 105.6a.7.7 0 0 1 .3.8 9.2 9.2 0 0 0-.2 4.3 6.5 6.5 0 0 1 0 3.1c-.6 2.7-2.1 3.7-2.2 3.7a.7.7 0 0 1-1-.2.8.8 0 0 1 .2-1 5 5 0 0 0 1.6-2.9 5.3 5.3 0 0 0-.1-2.5 9.5 9.5 0 0 1 .3-4.9.7.7 0 0 1 .9-.5z" fill="#856353" stroke="#000" stroke-linecap="round" stroke-linejoin="round" stroke-width=".4"/>
  <path d="M47.2 105.3a.8.8 0 0 1 .5.8 9.4 9.4 0 0 0 .7 4.2 6.6 6.6 0 0 1-.5 7.1.9.9 0 0 1-1.1.1.8.8 0 0 1 0-1.1 5.1 5.1 0 0 0 .9-3.1 5.2 5.2 0 0 0-.7-2.5 9.9 9.9 0 0 1-.8-4.8.7.7 0 0 1 .8-.7z" fill="#856353" stroke="#000" stroke-linecap="round" stroke-linejoin="round" stroke-width=".4"/>
  <path d="M46.1 105.5c.3.1.6.4.5.7a9.2 9.2 0 0 0 .8 4.2 7 7 0 0 1 .7 3 6.2 6.2 0 0 1-1.2 4.1.7.7 0 1 1-1.1-1 5.2 5.2 0 0 0 .8-3.1 6.5 6.5 0 0 0-.6-2.4 10.4 10.4 0 0 1-.9-4.9.8.8 0 0 1 .8-.7z" fill="#856353" stroke="#000" stroke-linecap="round" stroke-linejoin="round" stroke-width=".4"/>
  <path d="M44.9 106a.8.8 0 0 1 .5.7 8 8 0 0 0 .8 4.2 8.8 8.8 0 0 1 .7 3 6.1 6.1 0 0 1-1.3 4.2.7.7 0 0 1-1 0 .7.7 0 0 1-.1-1 4.9 4.9 0 0 0 .9-3.2 6.5 6.5 0 0 0-.6-2.4 10 10 0 0 1-.9-4.8.7.7 0 0 1 .8-.7z" fill="#856353" stroke="#000" stroke-linecap="round" stroke-linejoin="round" stroke-width=".4"/>
  <path d="M43.7 106.2a.8.8 0 0 1 .6.8 8.2 8.2 0 0 0 .7 4.2 6.3 6.3 0 0 1 .7 3 5.9 5.9 0 0 1-1.2 4.1c-.3.3-1.5.9-1.8.6s.2-.9.7-1.6a5.6 5.6 0 0 0 .8-3.1 5.1 5.1 0 0 0-.6-2.5 10.1 10.1 0 0 1-.8-4.8.7.7 0 0 1 .7-.7z" fill="#856353" stroke="#000" stroke-linecap="round" stroke-linejoin="round" stroke-width=".4"/>
  <path d="M42.4 106.4a.8.8 0 0 1 .6.8 7.8 7.8 0 0 0 .7 4.1 7 7 0 0 1 .7 3 7.1 7.1 0 0 1-1.2 4.2.8.8 0 0 1-1.1 0 .7.7 0 0 1 0-1 5.7 5.7 0 0 0 .8-3.2 5 5 0 0 0-.6-2.4 10.1 10.1 0 0 1-.8-4.8c0-.4.3-.8.7-.7z" fill="#856353" stroke="#000" stroke-linecap="round" stroke-linejoin="round" stroke-width=".4"/>
  <path d="M41.2 106.9a.8.8 0 0 1 .5.8 8 8 0 0 0 .8 4.2 7.8 7.8 0 0 1 .7 3c0 2.7-1.2 4.1-1.3 4.1a.7.7 0 0 1-1 0 .8.8 0 0 1-.1-1 4.5 4.5 0 0 0 .9-3.1 6.6 6.6 0 0 0-.6-2.5 10 10 0 0 1-.9-4.8.8.8 0 0 1 .8-.7z" fill="#856353" stroke="#000" stroke-linecap="round" stroke-linejoin="round" stroke-width=".4"/>
  <path d="M40.1 107.2a.8.8 0 0 1 .5.7 9.4 9.4 0 0 0 .7 4.2 7 7 0 0 1 .8 3 6.1 6.1 0 0 1-1.3 4.2c-.3.3-1.5.8-1.8.5s.2-.9.7-1.6a4.8 4.8 0 0 0 .9-3.1 5.1 5.1 0 0 0-.7-2.4 10.3 10.3 0 0 1-.8-4.9.7.7 0 0 1 .8-.7z" fill="#856353" stroke="#000" stroke-linecap="round" stroke-linejoin="round" stroke-width=".4"/>
  <path d="M48.8 114.6l1.6 1.4c-.3.3-5.9 6.3-13.9 6.8l-.2-2.1c7.2-.5 12.4-6.1 12.5-6.1z" fill="#0065b7" stroke="#000" stroke-linecap="round" stroke-linejoin="round" stroke-width=".4"/>
  <path d="M50.6 115.8h.4a.5.5 0 0 1 0 .7 23.2 23.2 0 0 1-14.5 7.1.5.5 0 0 1-.5-.4c-.1-.3.1-.5.4-.6a23 23 0 0 0 13.9-6.6zm-1.9-1.8h.4a.5.5 0 0 1 .1.7c-.2.2-4.1 4.8-12.9 6.4-.2 0-.5-.1-.5-.4s.1-.5.4-.6c8.4-1.5 12.2-6 12.3-6a.2.2 0 0 1 .2-.1z" fill="#febf10" stroke="#000" stroke-linecap="round" stroke-linejoin="round" stroke-width=".4"/>
  <path d="M51.1 100.3a7.7 7.7 0 0 1 1-3.5c1.5-3.3 4.3-8.5 5.5-11.7a138.8 138.8 0 0 0 3.9-15" fill="none" stroke="#000" stroke-linecap="round" stroke-linejoin="round" stroke-width=".4"/>
  <path fill="#febf10" stroke="#000" stroke-linecap="round" stroke-linejoin="round" stroke-width=".4" d="M31.2 92.2l4 2.8-1 4.8-3.6-2.8.6-4.8z"/>
  <ellipse cx="32.6" cy="96" rx="1" ry="1.3" transform="rotate(-21.8 32.63 96.22)" fill="#0d3a12" stroke="#000" stroke-linecap="round" stroke-linejoin="round" stroke-width=".4"/>
  <path d="M41 98.5a19.2 19.2 0 0 1 8 1.8l-1.9 2.5c-.2-.1-6.4-3.4-14.3.9l-2-2.5A22.9 22.9 0 0 1 41 98.5z" fill="#febf10" stroke="#000" stroke-linecap="round" stroke-linejoin="round" stroke-width=".4"/>
  <path d="M49.4 85.1s3.1-1.3 4-1.5l4.8-.6 1.1-3.9h-3.7l-3.2.6-2.7 1.3-.2.3-.2 2z" fill="#febf10"/>
  <path d="M59.3 79.1s-6.6-.6-9.8 2.3a13.9 13.9 0 0 0 .8 7.2m.6-.9s-1.2.3-.7 10.1m-2.5-6.5s-.8-8.5 1.5-8.8M34.6 80a64.5 64.5 0 0 1-2.3-9.9m26.2 11.7s-7.8 1-9 2.4m8.7-1.2s-6.3.5-8.6 2" fill="none" stroke="#000" stroke-linecap="round" stroke-linejoin="round" stroke-width=".4"/>
  <path d="M21.3 77.4s.2.8 1.2.5 1.8-1.8 1.5-5c-.2-1.1-1.3-1-1.2-.1" fill="#febf10"/>
  <path d="M60.4 75.2a65.4 65.4 0 0 0-4.1-5.1m-16.4 6.2a10.9 10.9 0 0 1-.7-6.2m1.6 6.1a13.3 13.3 0 0 1-.7-6" fill="none" stroke="#000" stroke-linecap="round" stroke-linejoin="round" stroke-width=".4"/>
  <path d="M13.1 75.8c0 .7.6.7 2.1 2a3.3 3.3 0 0 0 3.9.1 9.1 9.1 0 0 1 2.3-.7c3-.4 1.4-4.7 1.4-4.7s-1.1 0-2.6-.9a5.4 5.4 0 0 0-3.3-.6h-.1l-.8-.3c-.6 0-1.8 0-1.5 1.2h.2c-.5 0-1.1.2-1.1.7s.4.8.4.8-.7.9-.5 1.5h.2c-.3.4-.6.7-.6.9z" fill="#f3bc84"/>
  <path d="M17.3 77.5s-1.6-1-1.8-1.5-.7-1.7.4-1.4 1.2 1.1 1.6 1.3 1.4-1.4 2.1-1.2" fill="none" stroke="#000" stroke-linecap="round" stroke-linejoin="round" stroke-width=".4"/>
  <path d="M17.1 75.3s.4 0 .4-.8-2.8-1.2-3.5-.9-.7.9-.5 1.5m3.3-2.5s.8.1.9-.4-1.2-1.3-1.7-1.4-1.8 0-1.5 1.2" fill="none" stroke="#000" stroke-linecap="round" stroke-linejoin="round" stroke-width=".4"/>
  <path d="M17.3 74.1s.5 0 .3-.8-2-1.1-2.4-1.2-1.6-.1-1.6.7.4.8.4.8" fill="none" stroke="#000" stroke-linecap="round" stroke-linejoin="round" stroke-width=".4"/>
  <path d="M24.3 79.1a4.4 4.4 0 0 0 2.6-3.3 9.9 9.9 0 0 0 .1-3.1h-3l-1.4 5a12.6 12.6 0 0 0 1.7 1.4z" fill="#febf10"/>
  <path d="M16.9 71a5.4 5.4 0 0 1 3.3.6c1.5.9 1.2 1.2 2.6.9s1.6 4.3-1.4 4.7a9.1 9.1 0 0 0-2.3.7 3.3 3.3 0 0 1-3.9-.1c-1.5-1.3-2.1-1.3-2.1-2s1.5-1.1 2.1-.9" fill="none" stroke="#000" stroke-linecap="round" stroke-linejoin="round" stroke-width=".4"/>
  <path d="M21.3 77.4s.2.8 1.2.5 1.8-1.8 1.5-5c-.2-1.1-1.3-1-1.2-.1m1 5.8s2.9-1.2 2.4-5.8M24.5 79s3.1-1.1 2.4-6.1m1.4 8s-4.4-1.8-5.6-3m10.5-2.8a15 15 0 0 0-9.1-2.4m9.7 4.5a45.8 45.8 0 0 1 8.6-.9 42 42 0 0 1 11.1 1.5m-3.3 3a39.2 39.2 0 0 0-14.1-.3" fill="none" stroke="#000" stroke-linecap="round" stroke-linejoin="round" stroke-width=".4"/>
  <path d="M21.9 90a5.6 5.6 0 0 1-9.4 4.1c-1 1.4-2.3 2.4-3.5 2.4 1.3 0 2.5.9 3.5 2.3a5.6 5.6 0 0 1 9.4 4.1 5.3 5.3 0 0 1-.7 2.6 10.3 10.3 0 0 0 0-18.1 5.9 5.9 0 0 1 .7 2.6z" fill="#0065b7"/>
  <path d="M22.9 92c0 2.1-2.5 3.9-4.5 3.9a3.6 3.6 0 0 1-2.5-1 3.1 3.1 0 0 1-2.3 1.6 3.2 3.2 0 0 1 2.3 1.5 3.6 3.6 0 0 1 2.5-1c2 0 4.5 1.5 4.5 3.6a4.4 4.4 0 0 1-.2 2 8.7 8.7 0 0 0 2.5-6.1 10.4 10.4 0 0 0-2.6-6.7 5.3 5.3 0 0 1 .3 2.2z" fill="#004da1"/>
  <path d="M16.9 109.2s-.7-5.4-2.5-7.5a5.1 5.1 0 0 0 2-3.4h1a5.1 5.1 0 0 0 2 3.4c-1.8 2.1-2.5 7.5-2.5 7.5" fill="#0065b7"/>
  <path d="M17 105.3s-.3-3.7-1.2-5.2a4.1 4.1 0 0 0 .9-2.3h.5a4.1 4.1 0 0 0 .9 2.3c-.8 1.5-1.1 5.2-1.1 5.2" fill="#004da1"/>
  <path d="M21.9 90a5.6 5.6 0 0 1-9.4 4.1c-1 1.4-2.3 2.4-3.5 2.4 1.3 0 2.5.9 3.5 2.3a5.6 5.6 0 0 1 9.4 4.1 5.3 5.3 0 0 1-.7 2.6 10.3 10.3 0 0 0 0-18.1 5.9 5.9 0 0 1 .7 2.6z" fill="none" stroke="#000" stroke-linecap="round" stroke-linejoin="round" stroke-width=".4"/>
  <path d="M16.9 109.2s.7-5.4 2.5-7.5a5.1 5.1 0 0 1-2-3.4m-1 0a5.1 5.1 0 0 1-2 3.4c1.8 2.1 2.5 7.5 2.5 7.5" fill="none" stroke="#000" stroke-linecap="round" stroke-linejoin="round" stroke-width=".4"/>
  <path fill="#0065b7" stroke="#000" stroke-linecap="round" stroke-linejoin="round" stroke-width=".4" d="M18.3 98.3h-2.8v-4.92h2.8z"/>
  <path d="M54.3 79.2s-3.9-6.9-4.6-8.9" fill="none" stroke="#000" stroke-linecap="round" stroke-linejoin="round" stroke-width=".4"/>
  <circle cx="50" cy="78.9" r="1.6" fill="none" stroke="#000" stroke-linecap="round" stroke-linejoin="round" stroke-width=".4"/>
  <path d="M50 79.7a.9.9 0 0 1-.9-.8.9.9 0 0 1 .9-.9 1.1 1.1 0 0 1 1.1 1 1.5 1.5 0 0 1-1.1 1.5" fill="none" stroke="#000" stroke-linecap="round" stroke-linejoin="round" stroke-width=".4"/>
  <circle cx="45.8" cy="78.3" r="1.5" fill="none" stroke="#000" stroke-linecap="round" stroke-linejoin="round" stroke-width=".4"/>
  <path d="M45.8 77.5a.8.8 0 0 1 .8.8.8.8 0 0 1-.8.9 1 1 0 0 1-1-1c-.1-.4 0-1.1 1-1.4" fill="none" stroke="#000" stroke-linecap="round" stroke-linejoin="round" stroke-width=".4"/>
  <circle cx="41.6" cy="78.1" r="1.6" fill="none" stroke="#000" stroke-linecap="round" stroke-linejoin="round" stroke-width=".4"/>
  <path d="M41.6 79a.8.8 0 0 1-.8-.9.8.8 0 0 1 .8-.8 1 1 0 0 1 1.1 1 1.4 1.4 0 0 1-1.1 1.4" fill="none" stroke="#000" stroke-linecap="round" stroke-linejoin="round" stroke-width=".4"/>
  <circle cx="37.3" cy="78.5" r="1.5" fill="none" stroke="#000" stroke-linecap="round" stroke-linejoin="round" stroke-width=".4"/>
  <path d="M37.3 77.7a.8.8 0 1 1 0 1.6.9.9 0 0 1-1-.9 1.3 1.3 0 0 1 1-1.4m-4.9 25.8l1.4-1.6 2 .3 1.5-1.5 1.8.7 1.7-1.2 1.7 1.3 1.5-1 1.4 1.5 1.8-.9.7 1.6" fill="none" stroke="#000" stroke-linecap="round" stroke-linejoin="round" stroke-width=".4"/>
  <path fill="#0065b7" stroke="#000" stroke-linecap="round" stroke-linejoin="round" stroke-width=".4" d="M51.6 100.5l1.7 1.3-.1 1.5-2 .9-2.5-.2-1.7-1.3.1-1.6 2-.9 2.5.3z"/>
  <path fill="#febf10" stroke="#000" stroke-linecap="round" stroke-linejoin="round" stroke-width=".4" d="M51.1 101.1l1.2.8-.1 1-1.3.6-1.7-.2-1.2-.8.1-1 1.3-.6 1.7.2z"/>
  <path fill="none" stroke="#000" stroke-linecap="round" stroke-linejoin="round" stroke-width=".4" d="M8 7.9h62v124.31H8zM8.1 70H70"/>
</svg>
