<?xml version="1.0" encoding="UTF-8"?>
<svg xmlns="http://www.w3.org/2000/svg" xmlns:xlink="http://www.w3.org/1999/xlink" width="261px" height="420px" viewBox="0 0 261 426" version="1.1">
<g id="surface1">
<path style=" stroke:none;fill-rule:nonzero;fill:rgb(100%,100%,100%);fill-opacity:1;" d="M 18 3.738281 L 243 3.738281 C 252.941406 3.738281 261 11.769531 261 21.671875 L 261 404.328125 C 261 414.230469 252.941406 422.261719 243 422.261719 L 18 422.261719 C 8.058594 422.261719 0 414.230469 0 404.328125 L 0 21.671875 C 0 11.769531 8.058594 3.738281 18 3.738281 Z M 18 3.738281 "/>
<path style=" stroke:none;fill-rule:nonzero;fill:rgb(19.607843%,34.117647%,13.72549%);fill-opacity:1;" d="M 168.300781 255.453125 C 168.300781 255.453125 170.699219 250.070312 180 250.367188 C 180.851562 252.519531 180.382812 254.960938 178.800781 256.644531 C 179.402344 256.644531 185.101562 251.863281 195 258.738281 C 192.046875 261.277344 188.378906 262.84375 184.5 263.226562 C 189.28125 263.761719 193.625 266.253906 196.5 270.101562 C 194.011719 271.414062 191.210938 272.035156 188.402344 271.890625 C 188.402344 271.890625 193.796875 272.789062 195.300781 282.058594 C 193.5625 281.699219 191.859375 281.199219 190.199219 280.5625 C 193.289062 283.058594 195.152344 286.761719 195.300781 290.726562 C 194.703125 290.425781 190.796875 290.128906 188.402344 289.234375 C 190.964844 291.570312 193.007812 294.425781 194.402344 297.601562 C 193.070312 297.933594 191.667969 297.71875 190.5 297.007812 C 194.113281 301.554688 196.304688 307.066406 196.796875 312.847656 C 192.097656 311.894531 188.046875 308.945312 185.699219 304.773438 C 186.433594 307.257812 186.21875 309.917969 185.101562 312.25 C 180.578125 310.3125 177.476562 306.070312 177 301.1875 C 175.917969 303.507812 175.015625 305.910156 174.300781 308.363281 C 172.066406 305.359375 171.097656 301.609375 171.597656 297.898438 C 170.628906 299.519531 169.15625 300.78125 167.402344 301.488281 C 167.214844 299.398438 167.214844 297.296875 167.402344 295.210938 C 166.042969 297.054688 164.304688 298.582031 162.300781 299.695312 C 161.304688 297.109375 160.699219 294.386719 160.5 291.625 C 160.203125 287.136719 168.300781 255.453125 168.300781 255.453125 Z M 168.300781 255.453125 "/>
<path style=" stroke:none;fill-rule:nonzero;fill:rgb(5.098039%,22.745098%,7.058824%);fill-opacity:1;" d="M 196.796875 312.847656 C 192.097656 311.894531 188.046875 308.945312 185.699219 304.773438 C 186.433594 307.257812 186.21875 309.917969 185.101562 312.25 C 180.578125 310.3125 177.476562 306.070312 177 301.1875 C 175.917969 303.507812 175.015625 305.910156 174.300781 308.363281 C 172.066406 305.359375 171.097656 301.609375 171.597656 297.898438 C 170.628906 299.519531 169.15625 300.78125 167.402344 301.488281 C 167.214844 299.398438 167.214844 297.296875 167.402344 295.210938 C 166.042969 297.054688 164.304688 298.582031 162.300781 299.695312 C 161.304688 297.109375 160.699219 294.386719 160.5 291.625 C 160.5 289.234375 163.5 271.59375 165.597656 262.328125 C 173.664062 268.453125 179.039062 277.453125 180.597656 287.4375 C 183.769531 297.128906 189.34375 305.871094 196.796875 312.847656 Z M 196.796875 312.847656 "/>
<path style="fill:none;stroke-width:0.4;stroke-linecap:round;stroke-linejoin:round;stroke:rgb(0%,0%,0%);stroke-opacity:1;stroke-miterlimit:4;" d="M 56.100253 84.200869 C 56.100253 84.200869 56.899732 82.400281 59.999992 82.499587 C 60.283846 83.219562 60.127596 84.036229 59.600252 84.599403 C 59.800773 84.599403 61.700512 83.000041 64.999991 85.299777 C 64.015616 86.149111 62.79296 86.673085 61.499991 86.801139 C 63.093741 86.980152 64.541658 87.813807 65.499991 89.100875 C 64.670564 89.539915 63.73697 89.747676 62.800772 89.699329 C 62.800772 89.699329 64.598949 89.999862 65.100251 93.100586 C 64.520824 92.980372 63.953116 92.813119 63.399731 92.600132 C 64.429678 93.435093 65.050772 94.673814 65.100251 96.000083 C 64.901033 95.899469 63.598949 95.800162 62.800772 95.500935 C 63.654939 96.282323 64.335929 97.237497 64.800772 98.299818 C 64.356762 98.410885 63.889314 98.339018 63.499991 98.101205 C 64.704418 99.622167 65.434887 101.465875 65.598949 103.399744 C 64.032543 103.080917 62.682283 102.094383 61.899731 100.698861 C 62.144523 101.529902 62.072908 102.419743 61.700512 103.199824 C 60.1927 102.551717 59.158846 101.132675 58.999992 99.49934 C 58.639315 100.275501 58.338534 101.079102 58.100252 101.899689 C 57.355461 100.894861 57.032544 99.64046 57.199211 98.399125 C 56.876294 98.941392 56.385409 99.363446 55.800773 99.599953 C 55.738273 98.900886 55.738273 98.197898 55.800773 97.500138 C 55.347649 98.116885 54.768222 98.627792 54.100253 99.000193 C 53.768222 98.135178 53.566399 97.224431 53.499993 96.300616 C 53.401034 94.799255 56.100253 84.200869 56.100253 84.200869 Z M 56.100253 84.200869 " transform="matrix(3,0,0,2.989474,0,3.736842)"/>
<path style=" stroke:none;fill-rule:nonzero;fill:rgb(98.431373%,76.078431%,9.803922%);fill-opacity:1;" d="M 67.5 134.375 C 67.5 134.375 30.898438 175.929688 84 218.976562 C 85.949219 220.941406 88.054688 222.742188 90.300781 224.359375 L 93.898438 219.277344 C 93.898438 219.277344 82.800781 210.609375 82.199219 200.144531 C 81.554688 193.339844 79.835938 186.679688 77.101562 180.414062 C 77.101562 180.414062 72.300781 181.609375 72 190.28125 C 69.640625 185.46875 69.640625 179.84375 72 175.03125 C 74.398438 169.730469 74.507812 163.675781 72.300781 158.292969 C 69.066406 159.640625 66.628906 162.394531 65.699219 165.769531 C 65.699219 165.769531 69.597656 154.109375 68.398438 147.234375 C 67.671875 142.984375 67.371094 138.679688 67.5 134.375 Z M 67.5 134.375 "/>
<path style=" stroke:none;fill-rule:nonzero;fill:rgb(81.568627%,60.784314%,2.745098%);fill-opacity:1;" d="M 89.699219 219.875 C 89.699219 219.875 94.199219 223.460938 92.101562 220.773438 C 90 218.082031 78 203.433594 78 197.453125 L 78 187.289062 C 75.382812 190.511719 73.90625 194.503906 73.800781 198.652344 C 74.101562 204.929688 64.5 185.496094 66.296875 176.828125 C 67.136719 174.003906 67.640625 171.09375 67.800781 168.15625 C 65.257812 169.171875 63.433594 171.441406 63 174.136719 C 61.800781 178.917969 61.199219 159.488281 63 153.808594 C 64.050781 151.464844 64.464844 148.886719 64.203125 146.335938 C 64.203125 146.335938 56.699219 150.820312 57.296875 167.859375 C 57.902344 184.902344 70.203125 207.320312 89.699219 219.875 Z M 89.699219 219.875 "/>
<path style="fill:none;stroke-width:0.4;stroke-linecap:round;stroke-linejoin:round;stroke:rgb(0%,0%,0%);stroke-opacity:1;stroke-miterlimit:4;" d="M 20.600258 49.499684 C 19.600258 58.3994 21.600257 62.299805 26.100257 68.199411 M 22.499997 43.699384 C 22.499997 43.699384 10.299478 57.599719 27.999996 71.999202 C 28.649736 72.656456 29.351558 73.25883 30.100256 73.799791 L 31.299475 72.099816 C 31.299475 72.099816 27.600257 69.200319 27.399736 65.699755 C 27.184892 63.423539 26.611975 61.19567 25.700517 59.099774 C 25.700517 59.099774 24.100257 59.499615 23.999997 62.400418 C 23.213538 60.790603 23.213538 58.909001 23.999997 57.299186 C 24.799476 55.526037 24.835934 53.500701 24.100257 51.700113 C 23.022132 52.150913 22.209632 53.072114 21.899737 54.201076 C 21.899737 54.201076 23.199216 50.300671 22.799476 48.000935 C 22.557289 46.57928 22.457028 45.139332 22.499997 43.699384 Z M 22.499997 43.699384 " transform="matrix(3,0,0,2.989474,0,3.736842)"/>
<path style=" stroke:none;fill-rule:nonzero;fill:rgb(98.431373%,76.078431%,9.803922%);fill-opacity:1;" d="M 127.199219 258.738281 C 123.644531 244.101562 117.664062 230.160156 109.5 217.484375 C 96.300781 197.453125 96.898438 194.464844 96.601562 192.375 C 96.300781 190.28125 87.597656 198.949219 91.199219 218.382812 C 90.898438 218.382812 63.902344 217.484375 67.203125 241.996094 C 67.5 241.398438 82.199219 221.96875 100.5 233.328125 C 118.800781 244.691406 123.601562 255.75 127.199219 270.699219 C 127.527344 266.71875 127.527344 262.71875 127.199219 258.738281 Z M 127.199219 258.738281 "/>
<path style=" stroke:none;fill-rule:nonzero;fill:rgb(81.568627%,60.784314%,2.745098%);fill-opacity:1;" d="M 90.300781 218.382812 C 85.5 218.382812 64.203125 220.175781 67.203125 241.996094 C 67.5 241.398438 82.199219 221.96875 100.5 233.328125 C 118.800781 244.691406 123.601562 255.75 127.199219 270.699219 C 127.527344 266.71875 127.527344 262.71875 127.199219 258.738281 C 127.199219 258.738281 114.898438 221.070312 90.300781 218.382812 Z M 90.300781 218.382812 "/>
<path style=" stroke:none;fill-rule:nonzero;fill:rgb(19.607843%,34.117647%,13.72549%);fill-opacity:1;" d="M 149.699219 62.328125 C 149.699219 62.328125 171 42.300781 196.199219 58.742188 C 221.398438 75.1875 194.703125 116.140625 179.699219 135.871094 C 164.699219 155.601562 161.398438 186.691406 163.800781 214.496094 C 164.398438 215.089844 100.199219 150.519531 149.699219 62.328125 Z M 149.699219 62.328125 "/>
<path style="fill:none;stroke-width:0.4;stroke-linecap:round;stroke-linejoin:round;stroke:rgb(0%,0%,0%);stroke-opacity:1;stroke-miterlimit:4;" d="M 42.399734 85.299777 C 41.214838 80.403692 39.221349 75.740193 36.499995 71.500055 C 32.100256 64.799461 32.299475 63.79986 32.200516 63.100792 C 32.100256 62.400418 29.199215 65.299915 30.399735 71.800589 C 30.299475 71.800589 21.300778 71.500055 22.401039 79.699398 C 22.499997 79.499477 27.399736 73.00011 33.499995 76.799901 C 39.600255 80.600999 41.200515 84.300176 42.399734 89.300795 C 42.509109 87.9693 42.509109 86.631272 42.399734 85.299777 Z M 42.399734 85.299777 " transform="matrix(3,0,0,2.989474,0,3.736842)"/>
<path style=" stroke:none;fill-rule:nonzero;fill:rgb(5.098039%,22.745098%,7.058824%);fill-opacity:1;" d="M 148.5 70.101562 L 150 70.699219 C 150.296875 71 150.597656 71 150.597656 71.300781 C 150.597656 71.597656 150.902344 71.597656 150.902344 71.898438 L 151.203125 71.898438 C 151.082031 73.167969 150.667969 74.394531 150 75.484375 C 148.867188 77.207031 147.5625 78.808594 146.101562 80.269531 L 140.398438 86.246094 L 147.902344 85.050781 L 145.5 90.433594 L 143.398438 96.410156 C 142.679688 98.589844 141.035156 100.339844 138.902344 101.195312 L 139.800781 101.195312 L 142.5 100.296875 L 145.5 100.296875 C 145.390625 104.71875 144.152344 109.039062 141.902344 112.851562 C 139.996094 116.679688 138.875 120.84375 138.601562 125.109375 C 139.457031 123.363281 140.570312 121.75 141.902344 120.328125 C 143.972656 118.652344 146.179688 117.152344 148.5 115.84375 C 149.308594 118.046875 149.714844 120.375 149.699219 122.71875 C 149.738281 124.871094 149.332031 127.007812 148.5 128.992188 L 147.296875 130.789062 L 144.902344 133.480469 L 147.296875 131.6875 L 147.601562 131.6875 L 148.5 131.089844 L 150.597656 131.089844 C 151.410156 133.429688 151.300781 135.992188 150.296875 138.261719 L 149.398438 140.355469 C 145.972656 144.878906 144.5625 150.609375 145.5 156.199219 L 146.398438 154.707031 C 146.886719 153.488281 147.597656 152.371094 148.5 151.414062 L 151.203125 148.425781 L 152.398438 147.53125 C 153.296875 145.738281 153.296875 147.234375 153.296875 147.234375 C 154.0625 152.191406 153.960938 157.25 153 162.179688 C 152.820312 163.792969 152.515625 165.390625 152.101562 166.960938 C 153.042969 165.71875 154.152344 164.613281 155.398438 163.671875 L 155.699219 163.671875 L 157.800781 162.480469 C 159.597656 165.46875 158.398438 166.363281 158.699219 168.757812 C 159 171.148438 157.800781 172.644531 157.800781 173.835938 C 157.488281 174.964844 157.085938 176.0625 156.597656 177.128906 C 155.390625 179.804688 154.484375 182.617188 153.902344 185.496094 L 159 183.105469 L 159 185.792969 C 159.695312 182.144531 160.09375 178.449219 160.203125 174.734375 C 161.164062 155.398438 160.761719 136.019531 159 116.738281 C 157.113281 94.371094 161.476562 71.917969 171.597656 51.867188 C 163.539062 53.410156 155.941406 56.785156 149.398438 61.730469 Z M 148.5 70.101562 "/>
<path style="fill-rule:nonzero;fill:rgb(98.431373%,76.078431%,9.803922%);fill-opacity:1;stroke-width:0.4;stroke-linecap:round;stroke-linejoin:round;stroke:rgb(0%,0%,0%);stroke-opacity:1;stroke-miterlimit:4;" d="M 55.899732 84.799323 C 55.899732 84.799323 56.600253 80.600999 58.600252 79.20025 C 60.600252 77.800809 65.29947 76.700594 66.600251 75.699686 C 67.901032 74.700085 70.100251 70 70.799469 69.398933 C 71.49999 68.800479 68.29947 68.499945 65.999991 71.300135 C 67.983063 68.395412 68.934886 64.909221 68.699209 61.39951 C 68.175772 63.087726 67.166657 64.582554 65.800772 65.699755 C 63.700512 67.19981 63.399731 67.300424 63.29947 67.599651 C 63.200512 67.900184 63.899731 65.499835 61.899731 63.900473 C 61.999991 63.900473 62.29947 66.500743 59.299471 69.80008 C 56.299471 73.100723 55.899732 84.799323 55.899732 84.799323 Z M 55.899732 84.799323 " transform="matrix(3,0,0,2.989474,0,3.736842)"/>
<path style=" stroke:none;fill-rule:nonzero;fill:rgb(100%,0%,0%);fill-opacity:1;" d="M 110.402344 129.59375 C 110.402344 129.59375 120.601562 210.609375 124.5 233.03125 C 128.398438 255.453125 130.5 310.457031 92.101562 338.257812 C 53.699219 366.0625 57.296875 363.671875 52.5 372.335938 C 68.054688 375.8125 84.367188 372.671875 97.5 363.671875 C 121.5 347.824219 159.898438 326.003906 167.699219 257.242188 C 175.5 188.488281 110.402344 129.59375 110.402344 129.59375 Z M 110.402344 129.59375 "/>
<path style=" stroke:none;fill-rule:nonzero;fill:rgb(81.568627%,60.784314%,2.745098%);fill-opacity:1;" d="M 172.5 238.109375 C 172.5 238.109375 175.199219 222.566406 180.597656 215.390625 C 182.820312 212.726562 184.734375 209.816406 186.300781 206.722656 C 186.3125 209.554688 185.910156 212.375 185.101562 215.089844 C 183.898438 218.082031 187.5 211.203125 194.703125 206.722656 L 201.601562 202.238281 C 201.601562 202.238281 193.796875 221.371094 186.300781 227.050781 C 188.320312 226.265625 190.441406 225.761719 192.601562 225.558594 C 189.511719 228.449219 186.089844 230.953125 182.402344 233.03125 C 178.261719 235.179688 174.667969 238.25 171.898438 241.996094 Z M 172.5 238.109375 "/>
<path style=" stroke:none;fill-rule:nonzero;fill:rgb(59.607843%,3.137255%,1.960784%);fill-opacity:1;" d="M 89.699219 352.609375 C 67.5 371.144531 52.199219 371.742188 52.5 372.335938 C 57.296875 363.671875 53.699219 366.0625 92.101562 338.257812 C 130.5 310.457031 128.699219 255.453125 124.5 233.03125 C 120.300781 210.609375 110.402344 129.59375 110.402344 129.59375 C 110.402344 129.59375 118.199219 138.863281 131.699219 157.394531 C 131.699219 157.394531 174.597656 282.355469 89.699219 352.609375 Z M 89.699219 352.609375 "/>
<path style="fill:none;stroke-width:0.4;stroke-linecap:round;stroke-linejoin:round;stroke:rgb(0%,0%,0%);stroke-opacity:1;stroke-miterlimit:4;" d="M 65.29947 68.499945 C 65.29947 68.499945 65.598949 69.300933 61.800773 72.699576 C 57.999992 76.099527 56.100253 83.799722 56.100253 83.799722 " transform="matrix(3,0,0,2.989474,0,3.736842)"/>
<path style=" stroke:none;fill-rule:nonzero;fill:rgb(100%,0%,0%);fill-opacity:1;" d="M 118.800781 299.996094 C 118.800781 299.996094 124.800781 260.230469 92.101562 254.253906 C 91.96875 257.285156 92.695312 260.289062 94.199219 262.925781 C 87.722656 254.9375 76.808594 252.035156 67.203125 255.75 C 68.511719 257.777344 69.714844 259.871094 70.800781 262.027344 C 66.355469 261.019531 61.703125 261.546875 57.601562 263.519531 C 58.742188 265.417969 60.277344 267.050781 62.101562 268.304688 C 61.5 268.003906 48.601562 268.003906 48.601562 284.75 C 51.101562 284.292969 53.460938 283.269531 55.5 281.757812 C 54.023438 283.253906 53.355469 285.367188 53.699219 287.4375 L 57.601562 285.941406 C 57.601562 285.941406 53.398438 308.660156 72.300781 309.859375 C 91.199219 311.054688 86.101562 293.414062 84.597656 291.625 C 81.535156 287.769531 76.324219 286.324219 71.699219 288.035156 C 75.417969 278.949219 85.199219 273.882812 94.800781 276.078125 C 105.300781 278.46875 115.199219 289.828125 116.703125 310.15625 C 116.703125 310.757812 118.800781 299.996094 118.800781 299.996094 Z M 118.800781 299.996094 "/>
<path style=" stroke:none;fill-rule:nonzero;fill:rgb(59.607843%,3.137255%,1.960784%);fill-opacity:1;" d="M 57.601562 285.941406 C 57.601562 285.941406 53.398438 308.660156 72.300781 309.859375 C 91.199219 311.054688 86.101562 293.414062 84.597656 291.625 C 81.535156 287.769531 76.324219 286.324219 71.699219 288.035156 C 75.417969 278.949219 85.199219 273.882812 94.800781 276.078125 C 105.300781 278.46875 115.199219 289.828125 116.703125 310.15625 C 117.445312 307.621094 117.953125 305.019531 118.199219 302.386719 C 118.199219 302.386719 118.800781 281.160156 101.402344 271.292969 C 84 261.429688 63.296875 267.40625 57.601562 285.941406 Z M 57.601562 285.941406 "/>
<path style="fill:none;stroke-width:0.4;stroke-linecap:round;stroke-linejoin:round;stroke:rgb(0%,0%,0%);stroke-opacity:1;stroke-miterlimit:4;" d="M 39.600255 99.100806 C 39.600255 99.100806 41.600255 85.798924 30.700517 83.799722 C 30.656246 84.813697 30.898433 85.817218 31.399735 86.700525 C 29.240881 84.028389 25.602861 83.057535 22.401039 84.300176 C 22.837236 84.978337 23.238278 85.678711 23.600257 86.399992 C 22.118486 86.062871 20.567705 86.239272 19.200518 86.899139 C 19.580726 87.53418 20.092445 88.080367 20.700518 88.499807 C 20.499997 88.399194 16.200519 88.399194 16.200519 94.00088 C 17.033852 93.848 17.82031 93.505653 18.499997 92.999972 C 18.00781 93.500426 17.785154 94.207334 17.899737 94.899868 L 19.200518 94.399414 C 19.200518 94.399414 17.799477 101.998996 24.100257 102.400143 C 30.399735 102.799983 28.700517 96.89907 28.199215 96.300616 C 27.178382 95.010935 25.441403 94.527468 23.899736 95.099788 C 25.139319 92.060478 28.399736 90.36573 31.600256 91.100077 C 35.100256 91.899758 38.399734 95.699549 38.901036 102.49945 C 38.901036 102.700677 39.600255 99.100806 39.600255 99.100806 Z M 39.600255 99.100806 " transform="matrix(3,0,0,2.989474,0,3.736842)"/>
<path style="fill:none;stroke-width:0.4;stroke-linecap:round;stroke-linejoin:round;stroke:rgb(0%,0%,0%);stroke-opacity:1;stroke-miterlimit:4;" d="M 36.800776 42.100022 C 36.800776 42.100022 40.200515 69.200319 41.499994 76.700594 C 42.799473 84.200869 43.499994 102.600063 30.700517 111.89962 C 17.899737 121.200484 19.098956 120.400803 17.499998 123.298993 C 22.684893 124.461928 28.122392 123.411367 32.499995 120.400803 C 40.499994 115.099651 53.299472 107.800602 55.899732 84.799323 C 58.499992 61.800657 36.800776 42.100022 36.800776 42.100022 Z M 36.800776 42.100022 " transform="matrix(3,0,0,2.989474,0,3.736842)"/>
<path style="fill:none;stroke-width:0.4;stroke-linecap:round;stroke-linejoin:round;stroke:rgb(0%,0%,0%);stroke-opacity:1;stroke-miterlimit:4;" d="M 49.899733 19.599197 C 49.899733 19.599197 56.999992 12.899909 65.39973 18.399675 C 73.799469 23.900748 64.901033 37.599857 59.899731 44.199838 C 54.899732 50.799818 53.799472 61.19959 54.600253 70.500454 C 54.799472 70.699067 33.399735 49.099843 49.899733 19.599197 Z M 49.899733 19.599197 " transform="matrix(3,0,0,2.989474,0,3.736842)"/>
<path style=" stroke:none;fill-rule:nonzero;fill:rgb(98.431373%,76.078431%,9.803922%);fill-opacity:1;" d="M 167.699219 257.242188 L 167.699219 253.65625 C 167.402344 251.863281 167.402344 250.070312 167.101562 248.574219 L 167.101562 247.976562 C 166.875 246.050781 166.472656 244.148438 165.898438 242.296875 C 162.90625 231.15625 157.589844 220.765625 150.296875 211.804688 L 132.300781 193.867188 L 136.800781 192.375 L 135.601562 192.375 C 126.902344 189.980469 122.398438 184.902344 121.5 176.53125 C 125.109375 175.265625 129.058594 175.375 132.601562 176.828125 C 130.828125 175.066406 128.671875 173.734375 126.300781 172.941406 C 121.402344 170.648438 118.011719 166.03125 117.300781 160.683594 C 119.765625 160.089844 122.363281 160.519531 124.5 161.882812 C 121.671875 158.78125 118.445312 156.0625 114.898438 153.808594 L 112.5 150.820312 C 110.761719 148.058594 110.023438 144.789062 110.402344 141.550781 L 116.703125 143.046875 C 105.898438 126.304688 110.097656 118.832031 110.097656 118.53125 C 111.675781 119.058594 113.1875 119.757812 114.601562 120.625 C 113.328125 116.453125 112.625 112.128906 112.5 107.769531 C 112.5 101.492188 114.898438 100.59375 114.898438 100.59375 L 119.097656 102.691406 C 116.703125 92.222656 120.898438 89.832031 120.601562 89.832031 C 120.300781 89.832031 125.398438 93.121094 125.699219 93.421875 C 124.800781 78.773438 129.300781 76.976562 129.300781 76.976562 C 129.300781 76.976562 130.800781 79.96875 130.5 79.96875 C 144.601562 60.238281 149.699219 62.628906 149.699219 62.628906 L 148.5 71 L 150.296875 71.597656 L 150.902344 72.195312 L 150.902344 72.496094 C 150.902344 72.660156 151.03125 72.796875 151.203125 72.796875 C 150.9375 74.03125 150.535156 75.234375 150 76.382812 L 146.101562 81.164062 C 144.546875 82.816406 142.839844 84.320312 141 85.648438 C 141 85.949219 141 85.949219 140.699219 85.949219 L 147.902344 85.949219 L 145.800781 91.328125 C 144.96875 93.167969 144.265625 95.070312 143.699219 97.007812 C 142.984375 99.1875 141.335938 100.933594 139.199219 101.792969 L 140.101562 101.792969 L 142.800781 100.894531 L 145.5 100.894531 C 145.390625 105.316406 144.152344 109.636719 141.902344 113.453125 C 139.964844 116.601562 138.925781 120.21875 138.902344 123.914062 C 138.652344 124.683594 138.550781 125.5 138.601562 126.304688 C 140.152344 121.507812 143.785156 117.667969 148.5 115.84375 C 148.5 115.84375 153.296875 122.117188 145.199219 132.585938 C 146.886719 131.738281 148.71875 131.230469 150.597656 131.089844 C 150.597656 131.089844 152.398438 132.878906 149.398438 140.355469 C 146.398438 147.828125 144.601562 151.121094 145.5 156.199219 C 145.800781 155.898438 149.699219 148.726562 153 146.933594 C 154.394531 153.675781 154.085938 160.664062 152.101562 167.261719 C 152.101562 167.558594 155.699219 163.074219 157.800781 162.480469 C 159.898438 161.882812 161.101562 167.859375 153.902344 185.496094 C 153.597656 185.496094 155.398438 184.003906 159 182.207031 C 162.597656 180.414062 159.300781 186.992188 159.898438 196.855469 C 159.898438 201.339844 165.300781 220.175781 167.699219 227.347656 C 170.203125 237.15625 170.203125 247.433594 167.699219 257.242188 Z M 167.699219 257.242188 "/>
<path style=" stroke:none;fill-rule:nonzero;fill:rgb(81.568627%,60.784314%,2.745098%);fill-opacity:1;" d="M 167.402344 232.730469 C 167.402344 232.730469 155.699219 204.929688 149.101562 201.042969 C 142.5 197.15625 139.199219 195.0625 142.199219 194.167969 C 143.671875 193.386719 145.480469 193.625 146.699219 194.765625 C 146.699219 194.765625 134.398438 188.1875 132.601562 185.792969 C 131.46875 184.453125 130.558594 182.9375 129.902344 181.308594 C 133.914062 181.453125 137.832031 182.582031 141.296875 184.601562 C 144.902344 187.589844 133.199219 172.644531 131.699219 167.859375 C 133.742188 168.554688 135.667969 169.566406 137.398438 170.847656 C 138.601562 172.34375 120.300781 152.3125 118.800781 148.726562 C 117.300781 145.136719 128.699219 150.222656 130.199219 152.613281 C 131.699219 155.007812 117.300781 131.988281 117.601562 126.902344 C 121.09375 128.613281 124.085938 131.1875 126.300781 134.375 C 126.300781 133.777344 118.199219 115.242188 118.800781 111.058594 C 121.40625 113.164062 123.632812 115.691406 125.398438 118.53125 C 125.398438 118.230469 123.601562 106.277344 124.800781 100.894531 C 125.097656 100.59375 127.199219 103.285156 127.800781 105.378906 C 128.398438 107.46875 129.601562 85.949219 136.800781 81.460938 C 136.496094 91.488281 135.492188 101.476562 133.800781 111.355469 C 134.398438 111.058594 136.800781 108.367188 138.601562 107.769531 C 136.101562 116.617188 134.992188 125.789062 135.300781 134.976562 C 135.300781 135.871094 134.097656 134.675781 138.300781 131.6875 C 137.699219 132.285156 140.699219 137.964844 138.902344 145.4375 L 141.902344 142.75 C 141.296875 143.644531 140.101562 158.59375 144.296875 164.871094 C 144.601562 164.871094 144.902344 161.28125 147.902344 159.785156 C 149.554688 166.328125 150.0625 173.101562 149.398438 179.816406 C 147.902344 190.28125 165.597656 213.597656 167.402344 232.730469 Z M 167.402344 232.730469 "/>
<path style="fill:none;stroke-width:0.4;stroke-linecap:round;stroke-linejoin:round;stroke:rgb(0%,0%,0%);stroke-opacity:1;stroke-miterlimit:4;" d="M 55.899732 84.799323 L 55.899732 83.599802 C 55.800773 83.000041 55.800773 82.400281 55.700513 81.899827 L 55.700513 81.699906 C 55.624992 81.055719 55.490878 80.419372 55.299471 79.800011 C 54.302076 76.073393 52.529941 72.597656 50.098951 69.60016 L 44.100254 63.599939 L 45.600254 63.100792 L 45.200515 63.100792 C 42.300775 62.299805 40.799473 60.601136 40.499994 57.800946 C 41.703119 57.377586 43.019525 57.414173 44.200515 57.900253 C 43.609369 57.310946 42.890619 56.865372 42.100255 56.600118 C 40.467442 55.833104 39.337234 54.288622 39.100255 52.499794 C 39.921869 52.30118 40.787755 52.444914 41.499994 52.900941 C 40.557286 51.863446 39.481765 50.954005 38.299474 50.200058 L 37.499995 49.200457 C 36.920568 48.276642 36.674474 47.182961 36.800776 46.099733 L 38.901036 46.600187 C 35.299474 40.999807 36.699214 38.500151 36.699214 38.399538 C 37.225255 38.575938 37.729161 38.809832 38.200515 39.099912 C 37.776036 37.70439 37.541661 36.257909 37.499995 34.799667 C 37.499995 32.699851 38.299474 32.399318 38.299474 32.399318 L 39.699213 33.100999 C 38.901036 29.599128 40.299474 28.799447 40.200515 28.799447 C 40.100255 28.799447 41.799473 29.899662 41.899734 30.000275 C 41.600255 25.10027 43.100254 24.499202 43.100254 24.499202 C 43.100254 24.499202 43.600254 25.50011 43.499994 25.50011 C 48.200514 18.900129 49.899733 19.69981 49.899733 19.69981 L 49.499993 22.5 L 50.098951 22.69992 L 50.300774 22.89984 L 50.300774 23.000454 C 50.300774 23.055334 50.343743 23.101067 50.401035 23.101067 C 50.312493 23.513974 50.178378 23.916428 49.999993 24.300589 L 48.700514 25.89995 C 48.182285 26.452671 47.613275 26.955738 46.999993 27.400006 C 46.999993 27.500619 46.999993 27.500619 46.899733 27.500619 L 49.300774 27.500619 L 48.600254 29.299901 C 48.32291 29.915342 48.088535 30.551689 47.899733 31.199796 C 47.661452 31.928917 47.111973 32.512998 46.399733 32.800465 L 46.700514 32.800465 L 47.600254 32.499931 L 48.499993 32.499931 C 48.463535 33.97908 48.050775 35.424255 47.300775 36.700869 C 46.654941 37.754044 46.308587 38.964018 46.300775 40.200127 C 46.217441 40.45754 46.183587 40.729327 46.200514 40.999807 C 46.717441 39.395219 47.928379 38.110764 49.499993 37.50055 C 49.499993 37.50055 51.098951 39.599059 48.399733 43.10093 C 48.962233 42.817383 49.57291 42.647516 50.199212 42.600476 C 50.199212 42.600476 50.799472 43.19893 49.799472 45.699893 C 48.799472 48.199549 48.200514 49.30107 48.499993 50.999739 C 48.600254 50.899125 49.899733 48.500083 50.999993 47.900322 C 51.464837 50.155631 51.361972 52.49326 50.700514 54.700223 C 50.700514 54.79953 51.899732 53.299475 52.600253 53.100861 C 53.299472 52.900941 53.700513 54.900143 51.300774 60.79975 C 51.199212 60.79975 51.799472 60.300602 52.999993 59.699535 C 54.199211 59.099774 53.100253 61.300204 53.299472 64.599541 C 53.299472 66.099596 55.100253 72.400349 55.899732 74.799392 C 56.734367 78.080436 56.734367 81.51828 55.899732 84.799323 Z M 55.899732 84.799323 " transform="matrix(3,0,0,2.989474,0,3.736842)"/>
<path style="fill:none;stroke-width:0.4;stroke-linecap:round;stroke-linejoin:round;stroke:rgb(0%,0%,0%);stroke-opacity:1;stroke-miterlimit:4;" d="M 56.600253 79.800011 C 56.399732 77.399662 55.100253 74.500165 54.600253 73.00011 C 53.902336 71.156401 53.100253 69.353199 52.199211 67.599651 L 51.199212 65.400528 C 49.999993 63.000179 48.899733 60.500523 47.899733 57.900253 C 46.593743 54.774703 45.492181 51.566833 44.600254 48.300162 C 43.975254 46.219947 43.605463 44.069171 43.499994 41.898795 L 43.499994 41.399648 C 43.416661 40.703194 43.382806 40.001513 43.399734 39.301139 L 43.399734 38.800685 C 43.399734 37.19479 43.499994 35.591508 43.699213 33.999986 C 43.888015 32.273878 44.22265 30.568676 44.699213 28.900061 L 44.699213 28.70014 C 45.07291 27.512379 45.506504 26.344218 45.999994 25.199576 C 46.499994 24.300589 46.999993 23.400294 47.600254 22.5 " transform="matrix(3,0,0,2.989474,0,3.736842)"/>
<path style=" stroke:none;fill-rule:nonzero;fill:rgb(100%,17.647059%,5.490196%);fill-opacity:1;" d="M 144 323.609375 C 144 323.609375 137.097656 331.082031 119.097656 328.992188 C 101.101562 326.902344 102 326.300781 97.199219 332.878906 C 103.917969 332.058594 110.726562 332.460938 117.300781 334.074219 C 127.199219 337.0625 143.398438 336.167969 144 323.609375 Z M 144 323.609375 "/>
<path style="fill:none;stroke-width:0.4;stroke-linecap:round;stroke-linejoin:round;stroke:rgb(0%,0%,0%);stroke-opacity:1;stroke-miterlimit:4;" d="M 48.098952 106.899001 C 48.098952 106.899001 45.699212 109.499271 39.699213 108.800204 C 33.700516 108.101136 33.999995 107.899909 32.399735 110.100338 C 34.639318 109.825938 36.908849 109.960525 39.100255 110.500179 C 42.399734 111.49978 47.899733 111.099939 48.098952 106.899001 Z M 48.098952 106.899001 " transform="matrix(3,0,0,2.989474,0,3.736842)"/>
<path style=" stroke:none;fill-rule:nonzero;fill:rgb(19.607843%,34.117647%,13.72549%);fill-opacity:1;" d="M 67.203125 356.496094 C 67.203125 356.496094 81.898438 349.023438 91.800781 352.011719 C 101.699219 355 97.5 363.96875 93.597656 366.359375 C 81.09375 373.902344 66.082031 376.160156 51.902344 372.636719 C 51.300781 372.636719 52.800781 364.566406 67.203125 356.496094 Z M 67.203125 356.496094 "/>
<path style=" stroke:none;fill-rule:nonzero;fill:rgb(5.098039%,22.745098%,7.058824%);fill-opacity:1;" d="M 58.199219 373.535156 C 56.058594 373.707031 53.90625 373.398438 51.902344 372.636719 C 51.300781 372.636719 52.800781 364.566406 67.203125 356.496094 C 74.554688 352.886719 82.71875 351.238281 90.898438 351.710938 C 90.898438 351.710938 63.597656 374.132812 58.199219 373.535156 Z M 58.199219 373.535156 "/>
<path style="fill:none;stroke-width:0.4;stroke-linecap:round;stroke-linejoin:round;stroke:rgb(0%,0%,0%);stroke-opacity:1;stroke-miterlimit:4;" d="M 22.401039 118.000454 C 22.401039 118.000454 27.299475 115.500798 30.600256 116.500399 C 33.899735 117.5 32.499995 120.50011 31.199214 121.299791 C 27.031246 123.822967 22.027341 124.578221 17.300779 123.399607 C 17.100258 123.399607 17.600258 120.70003 22.401039 118.000454 Z M 55.700513 87.199673 C 57.673169 88.603034 59.089835 90.657117 59.700512 92.999972 C 60.209627 95.579335 61.304679 98.008431 62.899731 100.100407 M 39.600255 99.100806 C 39.600255 99.100806 37.699213 86.801139 27.199215 88.00066 C 20.399737 89.100875 19.200518 94.399414 19.200518 94.399414 " transform="matrix(3,0,0,2.989474,0,3.736842)"/>
<path style="fill-rule:nonzero;fill:rgb(100%,17.647059%,5.490196%);fill-opacity:1;stroke-width:0.4;stroke-linecap:round;stroke-linejoin:round;stroke:rgb(0%,0%,0%);stroke-opacity:1;stroke-miterlimit:4;" d="M 55.600253 87.700127 C 55.600253 87.700127 48.399733 96.700457 38.200515 99.000193 C 37.979161 100.232381 38.048172 101.498542 38.399734 102.700677 C 38.399734 102.799983 49.899733 99.200113 54.199211 94.200801 C 55.299471 92.900666 55.700513 92.700745 55.600253 87.700127 Z M 55.600253 87.700127 " transform="matrix(3,0,0,2.989474,0,3.736842)"/>
</g>
</svg>
