<?xml version="1.0" encoding="UTF-8"?>
<svg xmlns="http://www.w3.org/2000/svg" xmlns:xlink="http://www.w3.org/1999/xlink" width="261px" height="420px" viewBox="0 0 261 426" version="1.1">
<g id="surface1">
<path style=" stroke:none;fill-rule:nonzero;fill:rgb(100%,100%,100%);fill-opacity:1;" d="M 18 3.738281 L 243 3.738281 C 252.941406 3.738281 261 11.769531 261 21.671875 L 261 404.328125 C 261 414.230469 252.941406 422.261719 243 422.261719 L 18 422.261719 C 8.058594 422.261719 0 414.230469 0 404.328125 L 0 21.671875 C 0 11.769531 8.058594 3.738281 18 3.738281 Z M 18 3.738281 "/>
<path style=" stroke:none;fill-rule:nonzero;fill:rgb(19.607843%,34.117647%,13.72549%);fill-opacity:1;" d="M 53.398438 69.203125 C 53.398438 69.203125 57.902344 77.875 53.101562 102.691406 C 48.300781 127.5 40.199219 143.046875 48.300781 166.363281 C 56.398438 189.679688 75.300781 178.621094 77.699219 176.230469 C 80.101562 173.835938 89.101562 165.769531 86.402344 137.664062 C 83.699219 109.566406 74.699219 95.8125 74.699219 83.855469 C 74.699219 71.898438 75 64.425781 80.402344 55.753906 C 83.101562 51.867188 81.898438 53.664062 82.199219 52.765625 C 82.5 51.867188 74.101562 49.777344 62.398438 56.652344 C 50.699219 63.527344 53.398438 69.203125 53.398438 69.203125 Z M 53.398438 69.203125 "/>
<path style=" stroke:none;fill-rule:nonzero;fill:rgb(100%,0%,0%);fill-opacity:1;" d="M 83.699219 167.859375 C 74.699219 187.589844 56.398438 181.015625 54.296875 176.53125 C 52.199219 172.042969 42.601562 164.269531 45.601562 137.367188 C 48.601562 110.460938 53.398438 106.574219 54.902344 95.511719 C 63.296875 145.738281 93.898438 145.4375 83.699219 167.859375 Z M 83.699219 167.859375 "/>
<path style=" stroke:none;fill-rule:nonzero;fill:rgb(5.098039%,22.745098%,7.058824%);fill-opacity:1;" d="M 81.898438 52.167969 C 77.910156 51.132812 73.691406 51.445312 69.898438 53.0625 C 64.371094 54.847656 59.40625 58.042969 55.5 62.328125 C 52.800781 65.917969 52.800781 69.203125 54.601562 71 C 56.855469 72.710938 59.90625 72.945312 62.398438 71.597656 C 65.742188 70.195312 68.722656 68.046875 71.101562 65.320312 L 78 56.949219 L 81.597656 53.0625 L 82.5 52.167969 Z M 81.898438 52.167969 "/>
<path style=" stroke:none;fill-rule:nonzero;fill:rgb(5.098039%,22.745098%,7.058824%);fill-opacity:1;" d="M 62.398438 71.597656 C 62.398438 71.597656 60.296875 93.71875 51.601562 110.460938 C 51.601562 110.460938 54.902344 94.617188 55.199219 89.234375 C 55.578125 83.757812 55.476562 78.253906 54.902344 72.796875 L 54.296875 70.699219 Z M 62.398438 71.597656 "/>
<path style=" stroke:none;fill-rule:nonzero;fill:rgb(59.607843%,3.137255%,1.960784%);fill-opacity:1;" d="M 54.601562 98.207031 C 54.601562 98.207031 48.300781 122.117188 46.199219 132.878906 C 43.320312 145.300781 44.585938 158.316406 49.800781 169.953125 C 56.398438 180.414062 58.199219 180.414062 63.597656 181.609375 C 63.597656 181.609375 54.296875 156.796875 56.699219 132.878906 C 59.101562 108.96875 60.296875 102.984375 60.296875 102.984375 Z M 54.601562 98.207031 "/>
<path style="fill:none;stroke-width:0.4;stroke-linecap:round;stroke-linejoin:round;stroke:rgb(0%,0%,0%);stroke-opacity:1;stroke-miterlimit:4;" d="M 17.799477 21.898933 C 17.799477 21.898933 19.300779 24.799736 17.700518 33.100999 C 16.100258 41.399648 13.399738 46.600187 16.100258 54.399689 C 18.799477 62.199191 24.799476 58.599321 25.899736 57.700333 C 26.999996 56.800039 29.700517 54.201076 28.800777 44.799598 C 27.899736 35.400734 24.899736 30.799956 24.899736 26.800245 C 24.899736 22.800534 24.999997 20.300878 26.800778 17.400074 L 27.399736 16.400473 C 27.299475 16.099939 24.700517 15.400872 20.799476 17.700608 C 16.899737 20.000344 17.799477 21.898933 17.799477 21.898933 Z M 17.799477 21.898933 " transform="matrix(3,0,0,2.989474,0,3.736842)"/>
<path style="fill:none;stroke-width:0.4;stroke-linecap:round;stroke-linejoin:round;stroke:rgb(0%,0%,0%);stroke-opacity:1;stroke-miterlimit:4;" d="M 17.799477 21.898933 C 17.799477 21.898933 18.300779 23.600215 20.799476 22.69992 C 23.299476 21.800933 26.499996 16.800314 27.299475 16.400473 " transform="matrix(3,0,0,2.989474,0,3.736842)"/>
<path style=" stroke:none;fill-rule:nonzero;fill:rgb(98.431373%,76.078431%,9.803922%);fill-opacity:1;" d="M 53.398438 109.863281 C 52.800781 106.277344 54.902344 97.605469 54.902344 95.511719 C 55.472656 87.738281 55.269531 79.929688 54.296875 72.195312 C 54.296875 72.195312 64.5 95.511719 69.898438 101.195312 C 75.300781 106.871094 72.597656 106.574219 71.699219 106.574219 C 70.40625 106.726562 69.09375 106.726562 67.800781 106.574219 C 70.128906 108.425781 72.242188 110.53125 74.101562 112.851562 C 75 115.242188 76.5 117.933594 73.203125 117.039062 L 69.898438 116.140625 C 71.660156 120.4375 74.316406 124.3125 77.699219 127.5 C 81.507812 131.101562 84.304688 135.640625 85.800781 140.652344 C 88.089844 149.765625 87.566406 159.347656 84.300781 168.15625 C 84 168.15625 83.699219 169.054688 83.402344 166.066406 C 83.101562 163.074219 79.5 160.683594 78 156.199219 C 77.300781 154.464844 76.800781 152.664062 76.5 150.820312 C 76.5 150.820312 75 153.808594 74.398438 153.507812 C 73.800781 153.210938 70.800781 148.128906 71.398438 137.367188 C 71.398438 138.261719 69 141.851562 67.5 141.25 C 66 140.652344 62.101562 135.574219 61.5 125.109375 L 61.5 122.117188 C 61.5 122.117188 60 124.8125 58.800781 125.109375 C 57.601562 125.40625 55.199219 120.625 55.800781 110.164062 C 55.5 110.460938 53.699219 113.453125 53.398438 109.863281 Z M 53.398438 109.863281 "/>
<path style=" stroke:none;fill-rule:nonzero;fill:rgb(81.568627%,60.784314%,2.745098%);fill-opacity:1;" d="M 57 83.257812 C 57 83.257812 61.800781 95.8125 63.902344 99.398438 C 66 102.984375 67.5 103.285156 66.296875 103.285156 L 63.902344 103.285156 C 63.902344 103.285156 67.5 108.070312 69 110.757812 C 70.5 113.453125 69.300781 113.75 68.699219 113.453125 L 64.5 110.460938 C 66.515625 115.257812 69.132812 119.78125 72.300781 123.914062 C 77.113281 130.089844 80.769531 137.078125 83.101562 144.539062 C 83.828125 150.1875 84.027344 155.894531 83.699219 161.582031 C 83.699219 161.582031 78.300781 148.425781 76.800781 145.738281 C 76.539062 144.457031 76.027344 143.238281 75.300781 142.148438 C 75.300781 142.148438 75.898438 146.632812 74.699219 146.632812 C 73.5 146.632812 72.300781 139.160156 71.398438 135.273438 C 71.261719 134.265625 71.058594 133.265625 70.800781 132.285156 C 70.5 131.6875 69.300781 135.273438 68.101562 135.574219 C 66.902344 135.871094 66 139.160156 62.699219 120.925781 C 61.5 115.542969 60.902344 112.253906 60.902344 112.253906 C 60.902344 112.253906 60.601562 117.339844 59.699219 117.636719 C 58.800781 117.933594 57 113.453125 56.101562 106.277344 C 55.261719 99.132812 54.859375 91.941406 54.902344 84.75 L 54.902344 75.484375 Z M 57 83.257812 "/>
<path style="fill:none;stroke-width:0.4;stroke-linecap:round;stroke-linejoin:round;stroke:rgb(0%,0%,0%);stroke-opacity:1;stroke-miterlimit:4;" d="M 18.200518 22.69992 C 18.200518 22.69992 21.700518 30.699343 23.499997 32.499931 C 25.299476 34.30052 24.299476 34.30052 24.100257 34.30052 C 23.634111 34.350173 23.165361 34.350173 22.700518 34.30052 C 23.476559 34.919881 24.179684 35.624175 24.799476 36.400336 C 25.100257 37.099403 25.600257 38.100311 24.499997 37.70047 L 23.499997 37.50055 C 24.061195 38.896072 24.912757 40.158313 25.999996 41.199728 C 27.23958 42.486796 28.194006 44.019517 28.800777 45.699893 C 29.453121 48.756189 29.279944 51.9327 28.299475 54.900143 C 28.100256 54.900143 27.999996 55.200677 27.899736 54.201076 C 27.800777 53.198861 26.600257 52.400487 26.100257 50.799818 C 25.600257 49.200457 25.600257 49.000536 25.600257 49.000536 C 25.600257 49.000536 25.100257 50.100751 24.899736 50.000138 C 24.700517 49.899524 23.700518 48.199549 23.899736 44.599678 C 23.899736 44.799598 23.100257 45.99912 22.600257 45.899813 C 22.098955 45.799199 20.799476 43.999917 20.600258 40.50066 L 20.600258 39.399139 C 20.600258 39.399139 20.098956 40.400047 19.799476 40.50066 C 19.499997 40.599967 18.600258 38.899992 18.700518 35.500041 C 18.700518 35.600655 17.799477 36.899483 17.700518 35.699961 C 17.742185 34.023506 17.908852 32.352278 18.200518 30.699343 C 18.403643 28.03766 18.403643 25.36291 18.200518 22.69992 Z M 18.200518 22.69992 " transform="matrix(3,0,0,2.989474,0,3.736842)"/>
<path style="fill:none;stroke-width:0.4;stroke-linecap:round;stroke-linejoin:round;stroke:rgb(0%,0%,0%);stroke-opacity:1;stroke-miterlimit:4;" d="M 18.399737 23.499601 C 18.399737 23.499601 19.899737 30.999876 20.200518 32.899772 C 20.499997 34.799667 22.899736 40.000206 24.899736 43.19893 C 26.899736 46.400267 28.399736 51.99934 28.100256 54.498996 " transform="matrix(3,0,0,2.989474,0,3.736842)"/>
<path style=" stroke:none;fill-rule:nonzero;fill:rgb(100%,0%,0%);fill-opacity:1;" d="M 116.398438 163.671875 C 116.398438 163.671875 120.898438 155.007812 116.097656 130.191406 C 111.300781 105.378906 103.199219 89.535156 111.898438 66.214844 C 120.601562 42.902344 138.902344 53.960938 141 56.652344 C 143.101562 59.339844 152.699219 67.113281 149.398438 94.917969 C 146.101562 122.71875 137.699219 137.367188 137.699219 149.324219 C 137.699219 161.28125 138 168.757812 143.699219 177.128906 L 145.5 180.414062 C 145.800781 181.308594 137.097656 183.40625 125.398438 176.53125 C 113.703125 169.652344 116.398438 163.671875 116.398438 163.671875 Z M 116.398438 163.671875 "/>
<path style=" stroke:none;fill-rule:nonzero;fill:rgb(19.607843%,34.117647%,13.72549%);fill-opacity:1;" d="M 111.601562 66.214844 C 119.703125 42.902344 138.601562 53.960938 140.699219 56.652344 C 142.800781 59.339844 152.101562 67.113281 149.101562 94.917969 C 146.101562 122.71875 137.398438 137.367188 137.398438 149.324219 C 129.601562 99.097656 103.199219 89.535156 111.601562 66.214844 Z M 111.601562 66.214844 "/>
<path style=" stroke:none;fill-rule:nonzero;fill:rgb(59.607843%,3.137255%,1.960784%);fill-opacity:1;" d="M 144.902344 180.414062 C 141.039062 181.476562 136.933594 181.265625 133.199219 179.816406 C 127.652344 178.074219 122.675781 174.871094 118.800781 170.546875 C 115.800781 166.960938 115.800781 163.671875 117.601562 161.882812 C 119.871094 160.261719 122.820312 159.921875 125.398438 160.984375 C 128.738281 162.53125 131.707031 164.773438 134.097656 167.558594 L 141 175.929688 L 144.601562 179.816406 L 145.800781 180.414062 Z M 144.902344 180.414062 "/>
<path style=" stroke:none;fill-rule:nonzero;fill:rgb(59.607843%,3.137255%,1.960784%);fill-opacity:1;" d="M 125.097656 160.984375 C 125.097656 160.984375 123 139.160156 114.300781 122.417969 C 114.300781 122.417969 117.601562 138.261719 117.898438 143.644531 C 118.277344 149.125 118.179688 154.621094 117.601562 160.085938 C 117 162.773438 117 162.480469 117 162.480469 Z M 125.097656 160.984375 "/>
<path style=" stroke:none;fill-rule:nonzero;fill:rgb(5.098039%,22.745098%,7.058824%);fill-opacity:1;" d="M 140.398438 134.675781 C 140.398438 134.675781 147.902344 110.757812 148.5 99.996094 C 149.101562 89.234375 152.101562 76.679688 145.800781 63.527344 C 142.855469 58.035156 137.917969 53.867188 132 51.867188 C 132 51.867188 141.296875 76.679688 138.902344 100.894531 C 136.5 125.109375 135.300781 130.492188 135.300781 130.492188 Z M 140.398438 134.675781 "/>
<path style="fill:none;stroke-width:0.4;stroke-linecap:round;stroke-linejoin:round;stroke:rgb(0%,0%,0%);stroke-opacity:1;stroke-miterlimit:4;" d="M 38.799474 53.499395 C 38.799474 53.499395 40.299474 50.601205 38.699213 42.299942 C 37.100255 33.999986 34.399735 28.70014 37.299474 20.899332 C 40.200515 13.101136 45.899733 16.701007 46.999993 17.700608 C 48.098952 18.700209 50.899732 21.199865 49.799472 30.500729 C 48.700514 39.800286 45.899733 44.700292 45.899733 48.700003 C 45.899733 52.699714 45.999994 55.200677 47.899733 58.000867 L 48.499993 59.099774 C 48.300774 59.399001 45.699212 60.100682 41.799473 57.700333 C 37.901036 55.299983 38.799474 53.499395 38.799474 53.499395 Z M 38.799474 53.499395 " transform="matrix(3,0,0,2.989474,0,3.736842)"/>
<path style="fill:none;stroke-width:0.4;stroke-linecap:round;stroke-linejoin:round;stroke:rgb(0%,0%,0%);stroke-opacity:1;stroke-miterlimit:4;" d="M 38.799474 53.499395 C 38.799474 53.499395 39.299474 51.800726 41.799473 52.600407 C 44.300775 53.400088 47.499993 58.500014 48.300774 59.000468 " transform="matrix(3,0,0,2.989474,0,3.736842)"/>
<path style=" stroke:none;fill-rule:nonzero;fill:rgb(98.431373%,76.078431%,9.803922%);fill-opacity:1;" d="M 140.699219 126.902344 C 140.503906 132.042969 139.800781 137.148438 138.601562 142.148438 C 136.800781 147.53125 137.398438 160.984375 138.601562 165.769531 C 138.601562 165.769531 128.398438 142.449219 123 136.765625 C 117.601562 131.089844 120.601562 131.386719 121.199219 131.386719 C 122.496094 131.234375 123.804688 131.234375 125.097656 131.386719 C 122.824219 129.464844 120.804688 127.253906 119.097656 124.8125 C 117.898438 122.71875 117 119.730469 120 120.925781 L 123.300781 122.117188 C 121.710938 117.878906 119.257812 114.015625 116.097656 110.757812 C 112.355469 107.15625 109.660156 102.613281 108.300781 97.605469 C 106.167969 88.558594 106.796875 79.089844 110.097656 70.402344 C 110.402344 70.402344 110.703125 69.503906 111 72.496094 C 111.300781 75.484375 115.199219 77.875 116.398438 82.359375 C 117.097656 84.09375 117.601562 85.894531 117.898438 87.742188 C 117.898438 87.742188 119.398438 84.75 120 85.050781 C 120.601562 85.347656 123.601562 90.433594 122.699219 101.195312 C 122.699219 100.296875 125.097656 97.308594 126.601562 97.308594 C 128.097656 97.308594 131.699219 102.984375 132.300781 113.453125 L 132.300781 115.84375 C 132.300781 115.84375 133.800781 112.851562 135 112.851562 C 136.199219 112.851562 138.601562 117.933594 137.699219 128.101562 C 137.699219 127.5 140.398438 123.316406 140.699219 126.902344 Z M 140.699219 126.902344 "/>
<path style=" stroke:none;fill-rule:nonzero;fill:rgb(81.568627%,60.784314%,2.745098%);fill-opacity:1;" d="M 135.902344 154.40625 C 134.113281 148.90625 132.011719 143.519531 129.601562 138.261719 C 127.199219 134.976562 126 134.078125 126.902344 134.078125 L 129.601562 134.078125 C 129.601562 134.078125 126.300781 129.59375 124.5 126.605469 C 122.699219 123.613281 124.199219 123.914062 124.800781 124.214844 L 128.699219 126.902344 C 127.070312 122.144531 124.632812 117.695312 121.5 113.75 C 116.757812 107.355469 113.199219 100.164062 111 92.523438 C 110.273438 86.976562 110.074219 81.371094 110.402344 75.785156 L 117 91.328125 C 117.417969 92.492188 117.71875 93.695312 117.898438 94.917969 C 117.898438 94.917969 117.898438 90.433594 119.097656 90.433594 C 120.300781 90.433594 121.199219 97.90625 121.800781 101.792969 L 122.699219 104.78125 C 123 105.378906 124.199219 102.089844 125.097656 101.492188 C 126 100.894531 127.199219 98.207031 130.199219 116.140625 C 131.398438 121.519531 132 124.8125 132 124.8125 C 132 124.8125 132.601562 119.730469 133.5 119.429688 C 134.398438 119.128906 135.902344 123.914062 136.800781 131.089844 C 137.378906 138.046875 137.578125 145.03125 137.398438 152.011719 L 137.398438 160.984375 Z M 135.902344 154.40625 "/>
<path style="fill:none;stroke-width:0.4;stroke-linecap:round;stroke-linejoin:round;stroke:rgb(0%,0%,0%);stroke-opacity:1;stroke-miterlimit:4;" d="M 46.200514 54.201076 C 46.200514 54.201076 42.799473 46.400267 40.999994 44.499065 C 39.200515 42.600476 40.200515 42.699783 40.399734 42.699783 C 40.832026 42.648823 41.268223 42.648823 41.699213 42.699783 C 40.941401 42.056902 40.268224 41.317328 39.699213 40.50066 C 39.299474 39.800286 38.999995 38.800685 39.999994 39.200525 L 41.100255 39.599059 C 40.570307 38.181324 39.752599 36.889029 38.699213 35.799268 C 37.451818 34.59452 36.55338 33.074865 36.100255 31.399717 C 35.389318 28.373473 35.598953 25.20611 36.699214 22.30008 C 36.800776 22.30008 36.901037 21.999546 36.999995 23.000454 C 37.100255 24.000055 38.399734 24.799736 38.799474 26.299791 C 39.032547 26.879952 39.200515 27.482326 39.299474 28.10038 C 39.299474 28.10038 39.799474 27.099472 39.999994 27.200085 C 40.200515 27.299392 41.200515 29.000674 40.899734 32.600545 C 40.899734 32.300011 41.699213 31.30041 42.200515 31.30041 C 42.699213 31.30041 43.899733 33.198999 44.100254 36.700869 L 44.100254 37.50055 C 44.100254 37.50055 44.600254 36.499642 44.999994 36.499642 C 45.399733 36.499642 46.200514 38.199618 45.899733 41.600875 C 45.899733 41.500261 46.799473 40.30074 46.899733 41.399648 C 46.842441 43.086556 46.606764 44.761705 46.200514 46.400267 C 45.600254 48.100242 45.799473 52.499794 46.200514 54.201076 Z M 46.200514 54.201076 " transform="matrix(3,0,0,2.989474,0,3.736842)"/>
<path style="fill:none;stroke-width:0.4;stroke-linecap:round;stroke-linejoin:round;stroke:rgb(0%,0%,0%);stroke-opacity:1;stroke-miterlimit:4;" d="M 46.200514 53.799928 C 46.200514 53.799928 44.600254 45.899813 44.399733 43.999917 C 44.200515 42.100022 41.799473 36.899483 39.799474 33.800066 C 37.799474 30.699343 36.499995 24.900349 36.800776 22.399387 " transform="matrix(3,0,0,2.989474,0,3.736842)"/>
<path style=" stroke:none;fill-rule:nonzero;fill:rgb(100%,0%,0%);fill-opacity:1;" d="M 182.699219 163.671875 C 182.699219 163.671875 187.199219 155.007812 182.402344 130.191406 C 177.597656 105.378906 169.5 89.535156 178.199219 66.214844 C 186.898438 42.902344 205.199219 53.960938 207.300781 56.652344 C 209.398438 59.339844 219 67.113281 215.699219 94.917969 C 212.398438 122.71875 204 137.367188 204 149.324219 C 204 161.28125 204.601562 168.757812 210 177.128906 L 211.800781 180.414062 C 212.097656 181.308594 203.398438 183.40625 191.699219 176.53125 C 180 169.652344 182.699219 163.671875 182.699219 163.671875 Z M 182.699219 163.671875 "/>
<path style=" stroke:none;fill-rule:nonzero;fill:rgb(19.607843%,34.117647%,13.72549%);fill-opacity:1;" d="M 178.199219 66.214844 C 186.300781 42.902344 205.199219 53.960938 207.300781 56.652344 C 209.398438 59.339844 219 67.113281 215.699219 94.917969 C 212.398438 122.71875 204 137.367188 204 149.324219 C 195.898438 99.097656 169.5 89.535156 178.199219 66.214844 Z M 178.199219 66.214844 "/>
<path style=" stroke:none;fill-rule:nonzero;fill:rgb(59.607843%,3.137255%,1.960784%);fill-opacity:1;" d="M 211.199219 180.414062 C 207.339844 181.5 203.230469 181.289062 199.5 179.816406 C 193.953125 178.074219 188.980469 174.871094 185.101562 170.546875 C 182.101562 166.960938 182.101562 163.671875 183.898438 161.882812 C 186.171875 160.261719 189.117188 159.921875 191.699219 160.984375 C 195.039062 162.53125 198.003906 164.773438 200.398438 167.558594 C 202.800781 169.953125 207.300781 175.929688 207.300781 175.929688 L 210.902344 179.816406 L 212.097656 180.414062 Z M 211.199219 180.414062 "/>
<path style=" stroke:none;fill-rule:nonzero;fill:rgb(59.607843%,3.137255%,1.960784%);fill-opacity:1;" d="M 191.699219 160.984375 C 191.699219 160.984375 189.601562 139.160156 180.898438 122.417969 C 180.898438 122.417969 184.199219 138.261719 184.5 143.644531 C 185.183594 149.113281 185.078125 154.648438 184.199219 160.085938 L 183.601562 162.480469 Z M 191.699219 160.984375 "/>
<path style=" stroke:none;fill-rule:nonzero;fill:rgb(5.098039%,22.745098%,7.058824%);fill-opacity:1;" d="M 207 134.675781 C 207 134.675781 214.5 110.757812 215.398438 99.996094 C 216.300781 89.234375 219 76.679688 212.398438 63.527344 C 209.527344 57.976562 204.566406 53.78125 198.601562 51.867188 C 198.601562 51.867188 208.199219 76.679688 205.5 100.894531 C 202.800781 125.109375 201.898438 130.492188 201.898438 130.492188 Z M 207 134.675781 "/>
<path style="fill:none;stroke-width:0.5;stroke-linecap:round;stroke-linejoin:round;stroke:rgb(0%,0%,0%);stroke-opacity:1;stroke-miterlimit:4;" d="M 60.899731 53.499395 C 60.899731 53.499395 62.399731 50.601205 60.800773 42.299942 C 59.19921 33.999986 56.499992 28.70014 59.399731 20.899332 C 62.29947 13.101136 67.99999 16.701007 69.100251 17.700608 C 70.200511 18.700209 72.99999 21.199865 71.89973 30.500729 C 70.799469 39.800286 67.99999 44.700292 67.99999 48.700003 C 67.99999 52.699714 68.200511 55.200677 69.99999 58.000867 L 70.600251 59.099774 C 70.39973 59.399001 67.79947 60.100682 63.899731 57.700333 C 59.999992 55.299983 60.899731 53.499395 60.899731 53.499395 Z M 60.899731 53.499395 " transform="matrix(3,0,0,2.989474,0,3.736842)"/>
<path style="fill:none;stroke-width:0.5;stroke-linecap:round;stroke-linejoin:round;stroke:rgb(0%,0%,0%);stroke-opacity:1;stroke-miterlimit:4;" d="M 60.899731 53.499395 C 60.899731 53.499395 61.399731 51.800726 63.899731 52.600407 C 66.39973 53.400088 69.600251 58.500014 70.39973 59.000468 " transform="matrix(3,0,0,2.989474,0,3.736842)"/>
<path style=" stroke:none;fill-rule:nonzero;fill:rgb(98.431373%,76.078431%,9.803922%);fill-opacity:1;" d="M 207 127.5 C 206.75 132.421875 206.148438 137.3125 205.199219 142.148438 C 203.398438 147.53125 204 160.984375 205.199219 165.769531 C 205.199219 165.769531 195 142.449219 189.601562 136.765625 C 184.199219 131.089844 187.199219 131.386719 187.796875 131.386719 C 189.09375 131.234375 190.402344 131.234375 191.699219 131.386719 C 189.5 129.382812 187.496094 127.179688 185.699219 124.8125 C 184.5 122.71875 183.601562 119.730469 186.898438 120.925781 L 189.898438 122.117188 C 188.308594 117.878906 185.859375 114.015625 182.699219 110.757812 C 178.957031 107.15625 176.257812 102.613281 174.898438 97.605469 C 172.921875 88.550781 173.546875 79.125 176.699219 70.402344 C 177 70.402344 177.300781 69.503906 177.898438 72.496094 C 178.5 75.484375 181.800781 77.875 183.300781 82.359375 C 183.800781 84.128906 184.203125 85.925781 184.5 87.742188 C 184.5 87.742188 186 84.75 186.898438 85.050781 C 187.796875 85.347656 190.5 90.433594 189.300781 101.195312 C 189.300781 100.296875 191.699219 97.308594 193.199219 97.308594 C 194.703125 97.308594 198.300781 102.984375 198.898438 113.453125 L 198.898438 116.441406 C 198.898438 116.441406 200.398438 113.75 201.601562 113.75 C 202.800781 113.75 205.199219 118.832031 204.300781 128.699219 C 204.601562 127.5 207 126.605469 207 127.5 Z M 207 127.5 "/>
<path style=" stroke:none;fill-rule:nonzero;fill:rgb(81.568627%,60.784314%,2.745098%);fill-opacity:1;" d="M 202.800781 154.40625 C 200.878906 148.914062 198.675781 143.523438 196.199219 138.261719 C 194.097656 134.976562 192.601562 134.078125 193.5 134.078125 L 196.199219 134.078125 C 196.199219 134.078125 192.898438 129.59375 191.101562 126.605469 C 189.300781 123.613281 190.796875 123.914062 191.402344 124.214844 C 192.777344 125 194.078125 125.894531 195.300781 126.902344 C 193.667969 122.144531 191.234375 117.695312 188.101562 113.75 C 183.328125 107.414062 179.863281 100.203125 177.898438 92.523438 C 176.972656 86.996094 176.671875 81.378906 177 75.785156 L 183.601562 91.328125 C 184.015625 92.492188 184.320312 93.695312 184.5 94.917969 C 184.5 94.917969 184.5 90.433594 185.699219 90.433594 C 186.898438 90.433594 187.796875 97.90625 188.699219 101.792969 C 188.839844 102.800781 189.039062 103.796875 189.300781 104.78125 C 189.601562 105.378906 190.796875 102.089844 191.699219 101.492188 C 192.601562 100.894531 194.097656 98.207031 196.796875 116.140625 C 198 121.519531 198.601562 124.8125 198.601562 124.8125 C 198.855469 122.957031 199.359375 121.148438 200.097656 119.429688 C 201 119.128906 202.800781 123.914062 203.398438 131.089844 C 204 138.261719 204 151.714844 204 152.011719 L 204.601562 158.292969 L 204.601562 160.984375 Z M 202.800781 154.40625 "/>
<path style="fill:none;stroke-width:0.5;stroke-linecap:round;stroke-linejoin:round;stroke:rgb(0%,0%,0%);stroke-opacity:1;stroke-miterlimit:4;" d="M 68.39973 54.201076 C 68.39973 54.201076 64.999991 46.400267 63.200512 44.499065 C 61.399731 42.600476 62.399731 42.699783 62.59895 42.699783 C 63.031241 42.648823 63.467439 42.648823 63.899731 42.699783 C 63.166658 42.029462 62.498689 41.292501 61.899731 40.50066 C 61.499991 39.800286 61.200512 38.800685 62.29947 39.200525 L 63.29947 39.599059 C 62.769522 38.181324 61.953116 36.889029 60.899731 35.799268 C 59.652335 34.59452 58.752596 33.074865 58.299471 31.399717 C 57.640617 28.37086 57.84895 25.21787 58.899731 22.30008 C 58.999992 22.30008 59.100252 21.999546 59.299471 23.000454 C 59.499992 24.000055 60.600252 24.799736 61.100252 26.299791 C 61.266919 26.891712 61.401033 27.492779 61.499991 28.10038 C 61.499991 28.10038 61.999991 27.099472 62.29947 27.200085 C 62.59895 27.299392 63.499991 29.000674 63.100252 32.600545 C 63.100252 32.300011 63.899731 31.30041 64.399731 31.30041 C 64.901033 31.30041 66.100251 33.198999 66.29947 36.700869 L 66.29947 37.70047 C 66.29947 37.70047 66.79947 36.800176 67.200511 36.800176 C 67.600251 36.800176 68.39973 38.500151 68.100251 41.800795 C 68.100251 41.700182 68.99999 40.50066 69.100251 41.600875 C 69.041657 43.286477 68.808584 44.961625 68.39973 46.600187 C 67.79947 48.100242 67.99999 52.499794 68.39973 54.201076 Z M 68.39973 54.201076 " transform="matrix(3,0,0,2.989474,0,3.736842)"/>
<path style="fill:none;stroke-width:0.5;stroke-linecap:round;stroke-linejoin:round;stroke:rgb(0%,0%,0%);stroke-opacity:1;stroke-miterlimit:4;" d="M 68.29947 53.799928 C 68.29947 53.799928 66.699209 45.899813 66.499991 43.999917 C 66.29947 42.100022 63.899731 36.899483 61.899731 33.800066 C 59.959627 30.384436 58.927075 26.528458 58.899731 22.600613 " transform="matrix(3,0,0,2.989474,0,3.736842)"/>
<path style=" stroke:none;fill-rule:nonzero;fill:rgb(19.607843%,34.117647%,13.72549%);fill-opacity:1;" d="M 207.300781 356.496094 C 207.300781 356.496094 203.097656 347.824219 207.601562 323.015625 C 212.097656 298.199219 220.800781 282.355469 212.398438 259.039062 C 204 235.71875 185.402344 247.082031 183.300781 249.46875 C 181.199219 251.863281 171.597656 259.933594 174.597656 287.738281 C 177.597656 315.539062 186 330.1875 186 342.144531 C 186 354.101562 185.699219 361.574219 180.300781 370.246094 C 177.898438 374.132812 178.800781 372.335938 178.5 373.234375 C 178.199219 374.132812 186.898438 376.222656 198.300781 369.347656 C 209.699219 362.472656 207.300781 356.496094 207.300781 356.496094 Z M 207.300781 356.496094 "/>
<path style=" stroke:none;fill-rule:nonzero;fill:rgb(100%,0%,0%);fill-opacity:1;" d="M 177 258.140625 C 186 238.410156 204.601562 244.984375 206.703125 249.46875 C 208.800781 253.957031 218.097656 261.730469 215.398438 288.632812 C 212.699219 315.539062 207.300781 319.425781 205.800781 330.488281 C 198 280.261719 167.101562 280.5625 177 258.140625 Z M 177 258.140625 "/>
<path style=" stroke:none;fill-rule:nonzero;fill:rgb(5.098039%,22.745098%,7.058824%);fill-opacity:1;" d="M 178.800781 373.832031 C 182.789062 374.867188 187.007812 374.554688 190.796875 372.9375 C 196.367188 371.230469 201.351562 368.023438 205.199219 363.671875 C 208.199219 360.082031 208.199219 356.796875 206.398438 355 C 204.027344 353.308594 200.898438 353.074219 198.300781 354.402344 C 194.957031 355.804688 191.980469 357.953125 189.601562 360.679688 C 187.796875 363.371094 182.699219 369.050781 182.699219 369.050781 L 179.101562 372.9375 L 178.199219 373.832031 Z M 178.800781 373.832031 "/>
<path style=" stroke:none;fill-rule:nonzero;fill:rgb(5.098039%,22.745098%,7.058824%);fill-opacity:1;" d="M 198.300781 353.804688 C 198.300781 353.804688 200.398438 331.980469 209.097656 315.242188 C 209.097656 315.242188 205.800781 331.082031 205.5 336.464844 C 205.125 341.941406 205.222656 347.445312 205.800781 352.910156 L 206.703125 355.300781 Z M 198.300781 353.804688 "/>
<path style=" stroke:none;fill-rule:nonzero;fill:rgb(59.607843%,3.137255%,1.960784%);fill-opacity:1;" d="M 206.398438 327.792969 C 206.398438 327.792969 212.398438 303.882812 214.5 293.121094 C 217.515625 280.707031 216.246094 267.652344 210.902344 256.046875 C 204.601562 245.585938 202.800781 245.585938 197.097656 244.390625 C 197.097656 244.390625 206.703125 269.203125 204 293.121094 C 201.300781 317.03125 200.398438 323.015625 200.398438 323.015625 Z M 206.398438 327.792969 "/>
<path style="fill:none;stroke-width:0.4;stroke-linecap:round;stroke-linejoin:round;stroke:rgb(0%,0%,0%);stroke-opacity:1;stroke-miterlimit:4;" d="M 69.100251 118.000454 C 69.100251 118.000454 67.699209 115.099651 69.200511 106.801001 C 70.699209 98.499739 73.60025 93.199893 70.799469 85.400391 C 67.99999 77.599582 62.100252 81.199453 61.100252 82.199054 C 60.100252 83.199961 57.199211 85.699618 58.199211 95.000481 C 59.19921 104.300039 61.999991 109.200044 61.999991 113.199755 C 61.999991 117.199466 61.899731 119.699122 60.100252 122.599926 L 59.499992 123.599527 C 59.600252 123.900061 62.29947 124.599128 66.100251 122.299392 C 69.89973 119.999656 69.100251 118.000454 69.100251 118.000454 Z M 69.100251 118.000454 " transform="matrix(3,0,0,2.989474,0,3.736842)"/>
<path style="fill:none;stroke-width:0.4;stroke-linecap:round;stroke-linejoin:round;stroke:rgb(0%,0%,0%);stroke-opacity:1;stroke-miterlimit:4;" d="M 69.100251 118.000454 C 69.100251 118.000454 68.600251 116.300479 66.100251 117.10016 C 63.598949 117.89984 60.499992 123.001073 59.600252 123.50022 " transform="matrix(3,0,0,2.989474,0,3.736842)"/>
<path style=" stroke:none;fill-rule:nonzero;fill:rgb(98.431373%,76.078431%,9.803922%);fill-opacity:1;" d="M 208.199219 315.242188 C 208.5 318.828125 206.703125 328.09375 206.703125 330.1875 C 205.648438 338.023438 205.648438 345.96875 206.703125 353.804688 C 206.703125 353.804688 196.199219 330.488281 190.796875 324.804688 C 185.402344 319.128906 188.101562 319.425781 189 319.425781 L 192.898438 319.425781 C 190.613281 317.625 188.589844 315.511719 186.898438 313.148438 C 185.699219 310.757812 184.199219 308.066406 187.5 308.960938 L 190.796875 309.859375 C 189.09375 305.605469 186.542969 301.746094 183.300781 298.5 C 179.335938 294.96875 176.429688 290.417969 174.898438 285.347656 C 172.769531 276.21875 173.292969 266.679688 176.402344 257.84375 C 176.699219 257.84375 177 256.945312 177.300781 259.933594 C 177.597656 262.925781 181.5 265.316406 182.699219 269.800781 C 183.398438 271.535156 183.898438 273.335938 184.199219 275.179688 C 184.199219 275.179688 185.699219 272.191406 186.300781 272.492188 C 186.898438 272.789062 189.898438 277.871094 189.300781 288.632812 C 189.300781 287.738281 191.699219 284.148438 193.199219 284.75 C 194.703125 285.347656 198.601562 290.425781 199.5 300.890625 L 198.898438 303.882812 C 198.898438 303.882812 200.398438 301.1875 201.601562 300.890625 C 202.800781 300.59375 205.199219 305.375 204.898438 315.835938 C 205.199219 315.539062 207.601562 311.652344 208.199219 315.242188 Z M 208.199219 315.242188 "/>
<path style=" stroke:none;fill-rule:nonzero;fill:rgb(81.568627%,60.784314%,2.745098%);fill-opacity:1;" d="M 203.703125 342.441406 C 203.703125 342.441406 198.898438 329.890625 196.796875 326.300781 C 194.703125 322.714844 193.199219 322.414062 194.402344 322.414062 L 196.796875 322.414062 C 196.796875 322.414062 193.199219 317.632812 191.699219 314.941406 C 190.199219 312.25 191.402344 311.953125 192.300781 312.25 L 196.199219 315.242188 C 194.21875 310.484375 191.703125 305.972656 188.699219 301.785156 C 183.664062 295.757812 179.980469 288.726562 177.898438 281.160156 C 176.96875 275.53125 176.667969 269.816406 177 264.117188 C 177 264.117188 182.402344 276.976562 183.898438 279.964844 L 185.402344 283.550781 C 185.402344 283.550781 185.101562 278.765625 186 278.765625 C 186.898438 278.765625 188.699219 286.539062 189.300781 290.425781 C 189.417969 291.339844 189.617188 292.238281 189.898438 293.121094 C 190.5 294.011719 191.402344 290.425781 192.601562 290.128906 C 193.796875 289.828125 194.703125 286.539062 198 304.773438 C 198.835938 307.613281 199.4375 310.511719 199.800781 313.445312 C 199.800781 313.445312 200.097656 308.363281 201.300781 308.066406 C 202.5 307.769531 203.703125 312.25 204.898438 319.425781 C 206.097656 326.601562 205.800781 340.351562 205.800781 340.949219 L 205.800781 350.214844 Z M 203.703125 342.441406 "/>
<path style="fill:none;stroke-width:0.4;stroke-linecap:round;stroke-linejoin:round;stroke:rgb(0%,0%,0%);stroke-opacity:1;stroke-miterlimit:4;" d="M 68.901032 117.30008 C 68.901032 117.30008 65.39973 109.300657 63.598949 107.500069 C 61.800773 105.69948 62.700512 105.69948 62.999991 105.69948 C 63.430981 105.649827 63.868481 105.649827 64.29947 105.69948 C 63.537752 105.097106 62.863272 104.391505 62.29947 103.599664 C 61.899731 102.900597 61.399731 101.899689 62.499991 102.29953 L 63.598949 102.49945 C 63.039054 101.103928 62.186189 99.841687 61.100252 98.800272 C 59.78645 97.573311 58.821606 96.020989 58.299471 94.300107 C 57.589836 91.247731 57.764315 88.056847 58.800773 85.099857 C 58.899731 85.099857 58.999992 84.799323 59.100252 85.798924 C 59.19921 86.801139 60.499992 87.599513 60.899731 89.200182 C 61.132804 89.780342 61.299471 90.382716 61.399731 90.999464 C 61.399731 90.999464 61.899731 89.899249 62.100252 89.999862 C 62.29947 90.100476 63.29947 91.800451 63.100252 95.400322 C 63.100252 95.200402 63.899731 94.00088 64.399731 94.100187 C 64.901033 94.200801 66.200512 96.000083 66.499991 99.49934 L 66.29947 100.600861 C 66.29947 100.600861 66.79947 99.599953 67.200511 99.49934 C 67.600251 99.400033 68.39973 101.100008 68.29947 104.499959 C 68.29947 104.399345 69.100251 103.100517 69.200511 104.300039 C 69.236969 105.975187 69.102855 107.651642 68.79947 109.300657 C 68.49999 111.29986 68.39973 115.600105 68.901032 117.30008 Z M 68.901032 117.30008 " transform="matrix(3,0,0,2.989474,0,3.736842)"/>
<path style="fill:none;stroke-width:0.4;stroke-linecap:round;stroke-linejoin:round;stroke:rgb(0%,0%,0%);stroke-opacity:1;stroke-miterlimit:4;" d="M 68.49999 116.300479 C 68.49999 116.300479 67.100251 109.000124 66.699209 107.100228 C 65.624991 103.463771 64.04296 99.994567 61.999991 96.80107 C 59.999992 93.700347 58.499992 87.500206 58.800773 85.00055 " transform="matrix(3,0,0,2.989474,0,3.736842)"/>
<path style=" stroke:none;fill-rule:nonzero;fill:rgb(100%,0%,0%);fill-opacity:1;" d="M 144.296875 262.328125 C 144.296875 262.328125 139.800781 270.992188 144.601562 295.808594 C 149.398438 320.621094 157.5 336.464844 149.398438 359.785156 C 141.296875 383.097656 122.398438 372.039062 120 369.347656 C 117.601562 366.660156 108.601562 358.886719 111.898438 331.082031 C 115.199219 303.28125 123.300781 288.632812 123.300781 276.675781 C 123.300781 264.71875 123 257.242188 117.601562 248.871094 C 112.199219 240.503906 116.097656 246.480469 115.800781 245.585938 C 115.5 244.691406 124.199219 242.59375 135.601562 249.46875 C 147 256.347656 144.296875 262.328125 144.296875 262.328125 Z M 144.296875 262.328125 "/>
<path style=" stroke:none;fill-rule:nonzero;fill:rgb(19.607843%,34.117647%,13.72549%);fill-opacity:1;" d="M 149.398438 359.785156 C 141 383.097656 122.398438 372.039062 120 369.347656 C 117.601562 366.660156 108.601562 358.886719 111.898438 331.082031 C 115.199219 303.28125 123.300781 288.632812 123.300781 276.675781 C 131.398438 326.902344 157.5 336.464844 149.398438 359.785156 Z M 149.398438 359.785156 "/>
<path style=" stroke:none;fill-rule:nonzero;fill:rgb(59.607843%,3.137255%,1.960784%);fill-opacity:1;" d="M 115.800781 244.984375 C 119.789062 243.953125 124.011719 244.265625 127.800781 245.882812 C 133.328125 247.667969 138.292969 250.863281 142.199219 255.152344 C 144.902344 258.738281 144.902344 262.027344 143.101562 263.820312 C 140.84375 265.535156 137.789062 265.769531 135.300781 264.417969 C 131.933594 263.058594 128.949219 260.902344 126.601562 258.140625 L 119.703125 249.769531 L 116.097656 245.882812 L 115.800781 245.882812 Z M 115.800781 244.984375 "/>
<path style=" stroke:none;fill-rule:nonzero;fill:rgb(59.607843%,3.137255%,1.960784%);fill-opacity:1;" d="M 135.601562 265.015625 C 135.601562 265.015625 137.699219 286.839844 146.398438 303.582031 C 146.398438 303.582031 143.101562 287.738281 142.800781 282.355469 C 142.421875 276.875 142.523438 271.378906 143.101562 265.914062 L 144 263.519531 Z M 135.601562 265.015625 "/>
<path style=" stroke:none;fill-rule:nonzero;fill:rgb(5.098039%,22.745098%,7.058824%);fill-opacity:1;" d="M 120.601562 291.324219 C 120.601562 291.324219 112.800781 315.242188 112.199219 326.003906 C 111.601562 336.765625 108.601562 349.320312 115.199219 362.472656 C 117.949219 368.007812 122.8125 372.207031 128.699219 374.132812 C 128.699219 374.132812 119.398438 349.320312 121.800781 325.105469 C 124.199219 300.890625 125.398438 295.507812 125.398438 295.507812 Z M 120.601562 291.324219 "/>
<path style="fill:none;stroke-width:0.4;stroke-linecap:round;stroke-linejoin:round;stroke:rgb(0%,0%,0%);stroke-opacity:1;stroke-miterlimit:4;" d="M 48.098952 86.500605 C 48.098952 86.500605 46.600254 89.398795 48.200514 97.700058 C 49.799472 106.000014 52.499993 111.29986 49.799472 119.100668 C 47.098952 126.898864 41.100255 123.298993 39.999994 122.299392 C 38.901036 121.299791 36.200516 118.800135 37.299474 109.499271 C 38.399734 100.199714 41.100255 95.299708 41.100255 91.299997 C 41.100255 87.300286 40.999994 84.799323 39.200515 81.999133 C 38.96614 81.652866 38.76562 81.284386 38.600255 80.900226 C 38.699213 80.600999 41.399734 79.899318 45.200515 82.299667 C 48.999993 84.700017 48.098952 86.500605 48.098952 86.500605 Z M 48.098952 86.500605 " transform="matrix(3,0,0,2.989474,0,3.736842)"/>
<path style="fill:none;stroke-width:0.4;stroke-linecap:round;stroke-linejoin:round;stroke:rgb(0%,0%,0%);stroke-opacity:1;stroke-miterlimit:4;" d="M 48.098952 86.500605 C 48.098952 86.500605 47.600254 88.199274 45.100254 87.399593 C 42.600254 86.599912 39.499994 81.400679 38.600255 80.999532 " transform="matrix(3,0,0,2.989474,0,3.736842)"/>
<path style=" stroke:none;fill-rule:nonzero;fill:rgb(98.431373%,76.078431%,9.803922%);fill-opacity:1;" d="M 120 298.5 C 120.113281 293.429688 120.921875 288.402344 122.398438 283.550781 C 124.199219 278.171875 123.300781 264.417969 122.398438 259.933594 C 122.398438 259.933594 132.300781 283.25 137.699219 288.933594 C 143.101562 294.613281 140.398438 294.3125 139.5 294.3125 L 135.601562 294.3125 C 137.949219 296.160156 139.980469 298.382812 141.601562 300.890625 C 142.800781 302.984375 144 305.972656 140.699219 304.773438 L 137.398438 303.582031 C 139.066406 307.78125 141.511719 311.636719 144.601562 314.941406 C 148.347656 318.59375 151.128906 323.113281 152.699219 328.09375 C 154.507812 337.164062 153.886719 346.542969 150.902344 355.300781 C 150.296875 355.300781 150 356.195312 149.699219 353.203125 C 149.398438 350.214844 145.800781 347.824219 144.296875 343.042969 C 142.800781 338.257812 142.800781 337.664062 142.800781 337.664062 C 142.800781 337.664062 141.296875 340.949219 140.699219 340.652344 C 140.101562 340.351562 137.097656 335.269531 138 324.507812 C 138 325.105469 135.601562 328.394531 134.097656 328.394531 C 132.601562 328.394531 129 322.714844 128.398438 312.25 L 128.398438 308.960938 C 128.398438 308.960938 126.902344 313.148438 126 313.148438 C 125.097656 313.148438 122.398438 308.066406 123 297.898438 C 123 298.199219 120.601562 302.085938 120 298.5 Z M 120 298.5 "/>
<path style=" stroke:none;fill-rule:nonzero;fill:rgb(81.568627%,60.784314%,2.745098%);fill-opacity:1;" d="M 124.800781 271.292969 C 126.582031 276.835938 128.789062 282.234375 131.398438 287.4375 C 133.5 290.726562 135 291.324219 133.800781 291.324219 L 131.398438 291.324219 L 136.199219 299.097656 C 138 301.785156 136.800781 301.785156 135.902344 301.488281 L 132.300781 298.5 C 134.039062 303.304688 136.464844 307.832031 139.5 311.953125 C 144.410156 318.242188 147.984375 325.460938 150 333.175781 C 150.929688 338.707031 151.234375 344.320312 150.902344 349.917969 L 144.296875 334.074219 C 143.703125 332.953125 143.296875 331.738281 143.101562 330.488281 C 143.101562 330.488281 143.101562 335.269531 142.199219 335.269531 C 141.296875 335.269531 139.800781 327.792969 139.199219 323.910156 C 139.085938 322.898438 138.886719 321.898438 138.601562 320.917969 C 138 320.320312 137.097656 323.308594 135.902344 324.207031 C 134.699219 325.105469 133.800781 327.496094 130.800781 309.558594 C 130.375 306.636719 129.777344 303.742188 129 300.890625 C 129 300.890625 128.398438 305.972656 127.800781 306.269531 C 127.199219 306.570312 125.097656 301.785156 124.5 294.613281 C 123.710938 287.566406 123.410156 280.476562 123.601562 273.386719 L 123.601562 264.417969 Z M 124.800781 271.292969 "/>
<path style="fill:none;stroke-width:0.4;stroke-linecap:round;stroke-linejoin:round;stroke:rgb(0%,0%,0%);stroke-opacity:1;stroke-miterlimit:4;" d="M 40.799473 85.798924 C 40.799473 85.798924 44.100254 93.599733 45.899733 95.500935 C 47.700514 97.399524 46.799473 97.300217 46.499994 97.300217 L 45.200515 97.300217 C 45.959629 97.943098 46.631504 98.682672 47.200514 99.49934 C 47.600254 100.199714 47.999993 101.199315 46.899733 100.799475 L 45.799473 100.400941 C 46.329421 101.818676 47.147129 103.110971 48.200514 104.200732 C 49.427076 105.438146 50.351555 106.944735 50.899732 108.600283 C 51.502597 111.63306 51.295566 114.771677 50.300774 117.69992 C 50.098951 117.69992 49.999993 118.000454 49.899733 116.999546 C 49.799472 115.999945 48.600254 115.200264 48.098952 113.700209 C 47.600254 112.200154 47.600254 111.89962 47.600254 111.89962 C 47.600254 111.89962 47.098952 112.900528 46.899733 112.799915 C 46.700514 112.700608 45.699212 110.999326 45.999994 107.399455 C 45.999994 107.699989 45.200515 108.69959 44.699213 108.69959 C 44.200515 108.69959 42.999994 106.801001 42.799473 103.299131 L 42.799473 102.29953 C 42.799473 102.29953 42.300775 103.500358 41.999994 103.500358 C 41.699213 103.500358 40.799473 101.800382 40.999994 98.399125 C 40.999994 98.499739 40.200515 99.69926 40.100255 98.600352 C 40.072911 96.90691 40.308588 95.220002 40.799473 93.599733 C 41.399734 91.800451 41.100255 87.399593 40.799473 85.798924 Z M 40.799473 85.798924 " transform="matrix(3,0,0,2.989474,0,3.736842)"/>
<path style="fill:none;stroke-width:0.4;stroke-linecap:round;stroke-linejoin:round;stroke:rgb(0%,0%,0%);stroke-opacity:1;stroke-miterlimit:4;" d="M 40.799473 86.000151 C 40.799473 86.000151 42.300775 94.00088 42.600254 95.899469 C 42.899734 97.800671 45.100254 102.999904 47.098952 106.099321 C 49.098951 109.200044 50.401035 115.500798 50.098951 118.000454 " transform="matrix(3,0,0,2.989474,0,3.736842)"/>
<path style=" stroke:none;fill-rule:nonzero;fill:rgb(100%,0%,0%);fill-opacity:1;" d="M 78 262.328125 C 78 262.328125 73.5 270.992188 78.300781 295.808594 C 83.101562 320.621094 91.199219 336.464844 82.5 359.785156 C 73.800781 383.097656 55.5 372.039062 53.398438 369.347656 C 51.300781 366.660156 42 358.886719 45.300781 331.082031 C 48.601562 303.28125 56.699219 288.632812 56.699219 276.675781 C 56.699219 264.71875 56.398438 257.242188 51 248.871094 C 45.601562 240.503906 49.5 246.480469 49.199219 245.585938 C 48.902344 244.691406 57.296875 242.59375 69 249.46875 C 80.699219 256.347656 78 262.328125 78 262.328125 Z M 78 262.328125 "/>
<path style=" stroke:none;fill-rule:nonzero;fill:rgb(19.607843%,34.117647%,13.72549%);fill-opacity:1;" d="M 83.101562 359.785156 C 74.699219 383.097656 56.101562 372.039062 53.699219 369.347656 C 51.300781 366.660156 42.300781 358.886719 45.601562 331.082031 C 48.902344 303.28125 56.699219 288.632812 56.699219 276.675781 C 65.101562 326.902344 91.199219 336.464844 83.101562 359.785156 Z M 83.101562 359.785156 "/>
<path style=" stroke:none;fill-rule:nonzero;fill:rgb(59.607843%,3.137255%,1.960784%);fill-opacity:1;" d="M 49.5 244.984375 C 53.492188 243.953125 57.710938 244.265625 61.5 245.882812 C 67.03125 247.667969 71.992188 250.863281 75.898438 255.152344 C 78.597656 258.738281 78.597656 262.027344 76.800781 263.820312 C 74.546875 265.535156 71.492188 265.769531 69 264.417969 C 65.632812 263.058594 62.648438 260.902344 60.296875 258.140625 L 53.398438 249.769531 L 49.800781 245.882812 L 48.902344 244.984375 Z M 49.5 244.984375 "/>
<path style=" stroke:none;fill-rule:nonzero;fill:rgb(59.607843%,3.137255%,1.960784%);fill-opacity:1;" d="M 69 265.015625 C 69 265.015625 71.101562 286.839844 79.800781 303.582031 C 79.800781 303.582031 76.5 287.738281 76.203125 282.355469 C 75.820312 276.875 75.925781 271.378906 76.5 265.914062 L 77.101562 263.519531 Z M 69 265.015625 "/>
<path style=" stroke:none;fill-rule:nonzero;fill:rgb(5.098039%,22.745098%,7.058824%);fill-opacity:1;" d="M 54.296875 291.324219 C 54.296875 291.324219 46.5 315.242188 45.902344 326.003906 C 45.300781 336.765625 42.300781 349.320312 48.902344 362.472656 C 51.648438 368.007812 56.511719 372.207031 62.398438 374.132812 C 62.398438 374.132812 53.101562 349.320312 55.5 325.105469 C 57.902344 300.890625 59.101562 295.507812 59.101562 295.507812 Z M 54.296875 291.324219 "/>
<path style="fill:none;stroke-width:0.4;stroke-linecap:round;stroke-linejoin:round;stroke:rgb(0%,0%,0%);stroke-opacity:1;stroke-miterlimit:4;" d="M 25.999996 86.500605 C 25.999996 86.500605 24.499997 89.398795 26.100257 97.700058 C 27.700517 106.000014 30.399735 111.29986 27.499996 119.100668 C 24.600257 126.898864 18.899737 123.298993 17.799477 122.299392 C 16.699216 121.299791 13.999998 118.800135 15.100258 109.499271 C 16.200519 100.199714 18.899737 95.299708 18.899737 91.299997 C 18.899737 87.300286 18.799477 84.799323 16.999998 81.999133 C 16.765623 81.652866 16.565102 81.284386 16.399737 80.900226 C 16.499998 80.600999 19.098956 79.899318 22.999997 82.299667 C 26.899736 84.700017 25.999996 86.500605 25.999996 86.500605 Z M 25.999996 86.500605 " transform="matrix(3,0,0,2.989474,0,3.736842)"/>
<path style="fill:none;stroke-width:0.4;stroke-linecap:round;stroke-linejoin:round;stroke:rgb(0%,0%,0%);stroke-opacity:1;stroke-miterlimit:4;" d="M 25.999996 86.500605 C 25.999996 86.500605 25.499996 88.199274 22.999997 87.399593 C 20.499997 86.599912 17.300779 81.499986 16.499998 80.999532 " transform="matrix(3,0,0,2.989474,0,3.736842)"/>
<path style=" stroke:none;fill-rule:nonzero;fill:rgb(98.431373%,76.078431%,9.803922%);fill-opacity:1;" d="M 53.398438 298.5 C 53.570312 293.457031 54.277344 288.449219 55.5 283.550781 C 57.296875 278.171875 56.699219 264.417969 55.5 259.933594 C 55.5 259.933594 65.699219 283.25 71.101562 288.933594 C 76.5 294.613281 73.5 294.3125 72.898438 294.3125 L 69 294.3125 C 71.351562 296.160156 73.378906 298.382812 75 300.890625 C 76.203125 302.984375 77.101562 305.972656 74.101562 304.773438 L 70.800781 303.582031 C 72.46875 307.78125 74.90625 311.636719 78 314.941406 C 81.808594 318.492188 84.515625 323.058594 85.800781 328.09375 C 87.933594 337.140625 87.308594 346.609375 84 355.300781 C 83.699219 355.300781 83.402344 356.195312 83.101562 353.203125 C 82.800781 350.214844 78.898438 347.824219 77.699219 343.042969 C 77.003906 341.308594 76.5 339.503906 76.203125 337.664062 C 76.203125 337.664062 74.699219 342.144531 74.101562 341.847656 C 73.5 341.546875 70.5 336.464844 71.398438 325.703125 C 71.398438 326.300781 69 329.589844 67.5 329.589844 C 66 329.589844 62.398438 323.910156 61.800781 313.445312 L 61.800781 310.15625 C 61.800781 310.15625 60.296875 313.148438 59.398438 313.148438 C 58.5 313.148438 55.800781 308.066406 56.398438 297.898438 C 56.398438 298.199219 53.699219 302.085938 53.398438 298.5 Z M 53.398438 298.5 "/>
<path style=" stroke:none;fill-rule:nonzero;fill:rgb(81.568627%,60.784314%,2.745098%);fill-opacity:1;" d="M 58.199219 271.292969 C 59.984375 276.792969 62.089844 282.183594 64.5 287.4375 C 66.902344 291.023438 68.101562 291.324219 67.203125 291.324219 L 64.5 291.324219 L 69.597656 299.097656 C 71.398438 301.785156 69.898438 301.785156 69.300781 301.488281 L 65.398438 298.5 C 66.996094 303.367188 69.429688 307.921875 72.597656 311.953125 C 77.394531 318.3125 80.957031 325.515625 83.101562 333.175781 C 83.832031 338.722656 84.03125 344.328125 83.699219 349.917969 L 77.101562 334.074219 C 76.644531 332.921875 76.339844 331.71875 76.203125 330.488281 C 76.203125 330.488281 76.203125 335.269531 75 335.269531 C 73.800781 335.269531 72.898438 327.792969 72.300781 323.910156 C 72.058594 322.898438 71.753906 321.898438 71.398438 320.917969 C 71.101562 320.320312 69.898438 323.308594 69 324.207031 C 68.101562 325.105469 66.902344 327.496094 63.902344 309.558594 L 62.101562 300.890625 C 62.101562 300.890625 61.5 305.972656 60.601562 306.269531 C 59.699219 306.570312 58.199219 301.785156 57.296875 294.613281 C 56.722656 287.554688 56.519531 280.46875 56.699219 273.386719 L 56.699219 263.820312 Z M 58.199219 271.292969 "/>
<path style="fill:none;stroke-width:0.4;stroke-linecap:round;stroke-linejoin:round;stroke:rgb(0%,0%,0%);stroke-opacity:1;stroke-miterlimit:4;" d="M 18.499997 85.798924 C 18.499997 85.798924 21.899737 93.599733 23.700518 95.500935 C 25.499996 97.399524 24.499997 97.300217 24.299476 97.300217 C 23.868486 97.351177 23.432288 97.351177 22.999997 97.300217 C 23.759111 97.943098 24.430986 98.682672 24.999997 99.49934 C 25.401038 100.199714 25.700517 101.199315 24.700517 100.799475 L 23.600257 100.400941 C 24.130205 101.818676 24.947913 103.110971 25.999996 104.200732 C 27.248694 105.40548 28.147131 106.925135 28.600256 108.600283 C 29.311194 111.626527 29.102861 114.79389 27.999996 117.69992 C 27.899736 117.69992 27.800777 118.000454 27.700517 116.999546 C 27.600257 115.999945 26.299475 115.200264 25.899736 113.700209 C 25.667965 113.120048 25.499996 112.517674 25.401038 111.89962 C 25.401038 111.89962 24.899736 113.199755 24.700517 113.100448 C 24.499997 112.999835 23.499997 111.29986 23.799476 107.699989 C 23.799476 107.899909 22.999997 109.000124 22.499997 109.000124 C 21.999997 109.000124 20.799476 107.100228 20.600258 103.599664 L 20.600258 102.49945 C 20.600258 102.49945 20.098956 103.500358 19.799476 103.500358 C 19.499997 103.500358 18.600258 101.800382 18.799477 98.399125 C 18.799477 98.499739 17.999997 99.69926 17.799477 98.600352 C 17.838539 96.904297 18.10807 95.222615 18.600258 93.599733 C 18.967445 91.011224 18.934893 88.378287 18.499997 85.798924 Z M 18.499997 85.798924 " transform="matrix(3,0,0,2.989474,0,3.736842)"/>
<path style="fill:none;stroke-width:0.4;stroke-linecap:round;stroke-linejoin:round;stroke:rgb(0%,0%,0%);stroke-opacity:1;stroke-miterlimit:4;" d="M 18.700518 86.000151 C 18.700518 86.000151 20.200518 94.00088 20.499997 95.899469 C 20.799476 97.800671 22.999997 102.999904 24.999997 106.099321 C 26.999996 109.200044 28.199215 115.099651 27.999996 117.600613 " transform="matrix(3,0,0,2.989474,0,3.736842)"/>
</g>
</svg>
