<?xml version="1.0" encoding="UTF-8"?>
<svg xmlns="http://www.w3.org/2000/svg" xmlns:xlink="http://www.w3.org/1999/xlink" width="261px" height="420px" viewBox="0 0 261 426" version="1.1">
<g id="surface1">
<path style=" stroke:none;fill-rule:nonzero;fill:rgb(100%,100%,100%);fill-opacity:1;" d="M 18 0 L 243 0 C 252.941406 0 261 8.058594 261 18 L 261 402 C 261 411.941406 252.941406 420 243 420 L 18 420 C 8.058594 420 0 411.941406 0 402 L 0 18 C 0 8.058594 8.058594 0 18 0 Z M 18 0 "/>
<path style=" stroke:none;fill-rule:nonzero;fill:rgb(0%,0%,0%);fill-opacity:1;" d="M 214.238281 84.261719 C 214.238281 101.894531 199.945312 116.1875 182.3125 116.1875 C 164.679688 116.1875 150.386719 101.894531 150.386719 84.261719 C 150.386719 66.628906 164.679688 52.335938 182.3125 52.335938 C 199.945312 52.335938 214.238281 66.628906 214.238281 84.261719 Z M 214.238281 84.261719 "/>
<path style="fill:none;stroke-width:0.6;stroke-linecap:butt;stroke-linejoin:miter;stroke:rgb(0%,0%,0%);stroke-opacity:1;stroke-miterlimit:10;" d="M 72.628906 28.08724 C 72.628906 34.635417 67.320312 39.945312 60.770833 39.945312 C 54.222656 39.945312 48.91276 34.635417 48.91276 28.08724 C 48.91276 21.53776 54.222656 16.229167 60.770833 16.229167 C 67.320312 16.229167 72.628906 21.53776 72.628906 28.08724 Z M 72.628906 28.08724 " transform="matrix(3,0,0,3,0,0)"/>
<path style=" stroke:none;fill-rule:nonzero;fill:rgb(98.431373%,76.078431%,9.803922%);fill-opacity:1;" d="M 175.46875 67.738281 L 182.3125 54.457031 L 189.15625 67.738281 L 203.386719 63.1875 L 198.835938 77.417969 L 212.117188 84.261719 L 198.835938 91.105469 L 203.386719 105.339844 L 189.15625 100.785156 L 182.3125 114.070312 L 175.46875 100.785156 L 161.238281 105.339844 L 165.792969 91.105469 L 152.507812 84.261719 L 165.792969 77.417969 L 161.238281 63.1875 Z M 175.46875 67.738281 "/>
<path style="fill:none;stroke-width:0.3;stroke-linecap:butt;stroke-linejoin:miter;stroke:rgb(0%,0%,0%);stroke-opacity:1;stroke-miterlimit:10;" d="M 66.670573 28.08724 C 66.670573 31.345052 64.028646 33.985677 60.770833 33.985677 C 57.513021 33.985677 54.872396 31.345052 54.872396 28.08724 C 54.872396 24.829427 57.513021 22.1875 60.770833 22.1875 C 64.028646 22.1875 66.670573 24.829427 66.670573 28.08724 Z M 66.670573 28.08724 " transform="matrix(3,0,0,3,0,0)"/>
<path style="fill:none;stroke-width:0.6;stroke-linecap:butt;stroke-linejoin:miter;stroke:rgb(0%,0%,0%);stroke-opacity:1;stroke-miterlimit:10;" d="M 65.696615 28.08724 C 65.696615 30.807292 63.492188 33.013021 60.770833 33.013021 C 58.050781 33.013021 55.845052 30.807292 55.845052 28.08724 C 55.845052 25.365885 58.050781 23.161458 60.770833 23.161458 C 63.492188 23.161458 65.696615 25.365885 65.696615 28.08724 Z M 65.696615 28.08724 " transform="matrix(3,0,0,3,0,0)"/>
<path style="fill:none;stroke-width:0.3;stroke-linecap:round;stroke-linejoin:round;stroke:rgb(0%,0%,0%);stroke-opacity:1;stroke-miterlimit:4;" d="M 57.46224 27.143229 C 57.46224 27.143229 58.157552 28.045573 59.834635 27.272135 C 59.595052 26.856771 59.161458 26.591146 58.683594 26.565104 C 58.204427 26.53776 57.744792 26.755208 57.46224 27.141927 Z M 57.46224 27.143229 " transform="matrix(3,0,0,3,0,0)"/>
<path style=" stroke:none;fill-rule:nonzero;fill:rgb(0%,0%,0%);fill-opacity:1;" d="M 177.335938 81.3125 C 177.335938 80.433594 176.660156 79.726562 175.828125 79.726562 C 174.992188 79.726562 174.316406 80.433594 174.316406 81.3125 C 174.316406 82.1875 174.992188 82.898438 175.828125 82.898438 C 176.660156 82.898438 177.335938 82.1875 177.335938 81.3125 Z M 177.335938 81.3125 "/>
<path style=" stroke:none;fill-rule:nonzero;fill:rgb(100%,100%,100%);fill-opacity:1;" d="M 176.101562 80.421875 C 176.101562 80.679688 175.890625 80.886719 175.636719 80.886719 C 175.378906 80.886719 175.171875 80.679688 175.171875 80.421875 C 175.171875 80.164062 175.378906 79.957031 175.636719 79.957031 C 175.890625 79.957031 176.101562 80.164062 176.101562 80.421875 Z M 176.101562 80.421875 "/>
<path style="fill:none;stroke-width:0.3;stroke-linecap:round;stroke-linejoin:round;stroke:rgb(0%,0%,0%);stroke-opacity:1;stroke-miterlimit:4;" d="M 57.28125 26.523438 C 58.032552 26.113281 58.96875 26.285156 59.52474 26.936198 M 64.05599 27.209635 C 64.05599 27.209635 63.359375 28.111979 61.683594 27.338542 C 61.921875 26.923177 62.355469 26.657552 62.834635 26.630208 C 63.3125 26.604167 63.772135 26.821615 64.05599 27.209635 Z M 64.05599 27.209635 " transform="matrix(3,0,0,3,0,0)"/>
<path style=" stroke:none;fill-rule:nonzero;fill:rgb(0%,0%,0%);fill-opacity:1;" d="M 190.234375 81.511719 C 190.234375 80.636719 189.558594 79.925781 188.722656 79.925781 C 187.890625 79.925781 187.214844 80.636719 187.214844 81.511719 C 187.214844 82.390625 187.890625 83.101562 188.722656 83.101562 C 189.558594 83.101562 190.234375 82.390625 190.234375 81.511719 Z M 190.234375 81.511719 "/>
<path style=" stroke:none;fill-rule:nonzero;fill:rgb(100%,100%,100%);fill-opacity:1;" d="M 189.382812 80.621094 C 189.382812 80.878906 189.175781 81.085938 188.917969 81.085938 C 188.664062 81.085938 188.453125 80.878906 188.453125 80.621094 C 188.453125 80.363281 188.664062 80.15625 188.917969 80.15625 C 189.175781 80.15625 189.382812 80.363281 189.382812 80.621094 Z M 189.382812 80.621094 "/>
<path style="fill:none;stroke-width:0.3;stroke-linecap:round;stroke-linejoin:round;stroke:rgb(0%,0%,0%);stroke-opacity:1;stroke-miterlimit:4;" d="M 64.235677 26.589844 C 63.484375 26.179688 62.549479 26.352865 61.99349 27.002604 M 57.333333 25.466146 C 57.333333 25.466146 59.52474 25.415365 59.859375 25.492188 C 60.216146 25.65625 60.454427 26.002604 60.479167 26.394531 C 60.483073 26.790365 60.464844 27.1875 60.427083 27.580729 " transform="matrix(3,0,0,3,0,0)"/>
<path style="fill:none;stroke-width:0.3;stroke-linecap:round;stroke-linejoin:round;stroke:rgb(0%,0%,0%);stroke-opacity:1;stroke-miterlimit:4;" d="M 63.856771 25.570312 C 63.141927 25.436198 62.408854 25.427083 61.691406 25.544271 C 61.303385 25.673177 61.355469 25.854167 61.303385 26.059896 C 61.242188 26.746094 61.234375 27.436198 61.278646 28.122396 M 59.782552 28.792969 C 60.014323 28.901042 60.223958 29.049479 60.402344 29.231771 C 60.505208 29.411458 60.865885 29.411458 61.019531 29.308594 C 61.229167 29.148438 61.464844 29.026042 61.717448 28.947917 C 61.97526 28.895833 61.768229 28.510417 61.768229 28.510417 M 61.114583 30.160156 C 61.036458 30.255208 60.925781 30.31901 60.804688 30.339844 C 60.651042 30.339844 60.572917 30.134115 60.419271 30.134115 C 60.265625 30.134115 60.098958 30.295573 59.851562 30.365885 C 59.625 30.434896 59.390625 30.470052 59.154948 30.46875 C 60.115885 30.78776 61.153646 30.796875 62.121094 30.494792 C 61.907552 30.438802 61.699219 30.360677 61.501302 30.263021 C 61.346354 30.160156 61.217448 30.108073 61.114583 30.160156 Z M 61.114583 30.160156 " transform="matrix(3,0,0,3,0,0)"/>
<path style="fill:none;stroke-width:0.3;stroke-linecap:round;stroke-linejoin:round;stroke:rgb(0%,0%,0%);stroke-opacity:1;stroke-miterlimit:4;" d="M 61.889323 30.615885 C 61.889323 30.615885 61.459635 31.441406 60.778646 31.501302 C 60.419271 31.498698 60.083333 31.321615 59.877604 31.028646 C 59.740885 30.845052 59.584635 30.678385 59.41276 30.529948 " transform="matrix(3,0,0,3,0,0)"/>
<path style=" stroke:none;fill-rule:nonzero;fill:rgb(98.431373%,76.078431%,9.803922%);fill-opacity:1;" d="M 195.507812 59.769531 C 195.507812 61.582031 194.035156 63.054688 192.222656 63.054688 C 190.40625 63.054688 188.9375 61.582031 188.9375 59.769531 C 188.9375 57.953125 190.40625 56.484375 192.222656 56.484375 C 194.035156 56.484375 195.507812 57.953125 195.507812 59.769531 Z M 195.507812 59.769531 "/>
<path style=" stroke:none;fill-rule:nonzero;fill:rgb(98.431373%,76.078431%,9.803922%);fill-opacity:1;" d="M 209.828125 74.34375 C 209.828125 76.15625 208.359375 77.628906 206.542969 77.628906 C 204.730469 77.628906 203.257812 76.15625 203.257812 74.34375 C 203.257812 72.527344 204.730469 71.058594 206.542969 71.058594 C 208.359375 71.058594 209.828125 72.527344 209.828125 74.34375 Z M 209.828125 74.34375 "/>
<path style=" stroke:none;fill-rule:nonzero;fill:rgb(98.431373%,76.078431%,9.803922%);fill-opacity:1;" d="M 209.828125 93.964844 C 209.828125 95.78125 208.359375 97.25 206.542969 97.25 C 204.730469 97.25 203.257812 95.78125 203.257812 93.964844 C 203.257812 92.152344 204.730469 90.679688 206.542969 90.679688 C 208.359375 90.679688 209.828125 92.152344 209.828125 93.964844 Z M 209.828125 93.964844 "/>
<path style=" stroke:none;fill-rule:nonzero;fill:rgb(98.431373%,76.078431%,9.803922%);fill-opacity:1;" d="M 195.507812 108.582031 C 195.507812 110.394531 194.035156 111.867188 192.222656 111.867188 C 190.40625 111.867188 188.9375 110.394531 188.9375 108.582031 C 188.9375 106.769531 190.40625 105.296875 192.222656 105.296875 C 194.035156 105.296875 195.507812 106.769531 195.507812 108.582031 Z M 195.507812 108.582031 "/>
<path style=" stroke:none;fill-rule:nonzero;fill:rgb(98.431373%,76.078431%,9.803922%);fill-opacity:1;" d="M 175.074219 108.582031 C 175.074219 110.394531 173.601562 111.867188 171.789062 111.867188 C 169.976562 111.867188 168.503906 110.394531 168.503906 108.582031 C 168.503906 106.769531 169.976562 105.296875 171.789062 105.296875 C 173.601562 105.296875 175.074219 106.769531 175.074219 108.582031 Z M 175.074219 108.582031 "/>
<path style=" stroke:none;fill-rule:nonzero;fill:rgb(98.431373%,76.078431%,9.803922%);fill-opacity:1;" d="M 161.320312 93.964844 C 161.320312 95.78125 159.851562 97.25 158.035156 97.25 C 156.222656 97.25 154.753906 95.78125 154.753906 93.964844 C 154.753906 92.152344 156.222656 90.679688 158.035156 90.679688 C 159.851562 90.679688 161.320312 92.152344 161.320312 93.964844 Z M 161.320312 93.964844 "/>
<path style=" stroke:none;fill-rule:nonzero;fill:rgb(98.431373%,76.078431%,9.803922%);fill-opacity:1;" d="M 161.320312 74.273438 C 161.320312 76.089844 159.851562 77.558594 158.035156 77.558594 C 156.222656 77.558594 154.753906 76.089844 154.753906 74.273438 C 154.753906 72.460938 156.222656 70.988281 158.035156 70.988281 C 159.851562 70.988281 161.320312 72.460938 161.320312 74.273438 Z M 161.320312 74.273438 "/>
<path style=" stroke:none;fill-rule:nonzero;fill:rgb(98.431373%,76.078431%,9.803922%);fill-opacity:1;" d="M 175.074219 59.769531 C 175.074219 61.582031 173.601562 63.054688 171.789062 63.054688 C 169.976562 63.054688 168.503906 61.582031 168.503906 59.769531 C 168.503906 57.953125 169.976562 56.484375 171.789062 56.484375 C 173.601562 56.484375 175.074219 57.953125 175.074219 59.769531 Z M 175.074219 59.769531 "/>
<path style=" stroke:none;fill-rule:nonzero;fill:rgb(0%,0%,0%);fill-opacity:1;" d="M 110.675781 84.261719 C 110.675781 101.894531 96.382812 116.1875 78.75 116.1875 C 61.117188 116.1875 46.824219 101.894531 46.824219 84.261719 C 46.824219 66.628906 61.117188 52.335938 78.75 52.335938 C 96.382812 52.335938 110.675781 66.628906 110.675781 84.261719 Z M 110.675781 84.261719 "/>
<path style="fill:none;stroke-width:0.6;stroke-linecap:butt;stroke-linejoin:miter;stroke:rgb(0%,0%,0%);stroke-opacity:1;stroke-miterlimit:10;" d="M 38.108073 28.08724 C 38.108073 34.635417 32.799479 39.945312 26.25 39.945312 C 19.700521 39.945312 14.391927 34.635417 14.391927 28.08724 C 14.391927 21.53776 19.700521 16.229167 26.25 16.229167 C 32.799479 16.229167 38.108073 21.53776 38.108073 28.08724 Z M 38.108073 28.08724 " transform="matrix(3,0,0,3,0,0)"/>
<path style=" stroke:none;fill-rule:nonzero;fill:rgb(98.431373%,76.078431%,9.803922%);fill-opacity:1;" d="M 71.90625 67.738281 L 78.75 54.457031 L 85.59375 67.738281 L 99.824219 63.1875 L 95.273438 77.417969 L 108.554688 84.261719 L 95.273438 91.105469 L 99.824219 105.339844 L 85.59375 100.785156 L 78.75 114.070312 L 71.90625 100.785156 L 57.675781 105.339844 L 62.230469 91.105469 L 48.945312 84.261719 L 62.230469 77.417969 L 57.675781 63.1875 Z M 71.90625 67.738281 "/>
<path style="fill:none;stroke-width:0.3;stroke-linecap:butt;stroke-linejoin:miter;stroke:rgb(0%,0%,0%);stroke-opacity:1;stroke-miterlimit:10;" d="M 32.148438 28.08724 C 32.148438 31.345052 29.507812 33.985677 26.25 33.985677 C 22.992188 33.985677 20.351562 31.345052 20.351562 28.08724 C 20.351562 24.829427 22.992188 22.1875 26.25 22.1875 C 29.507812 22.1875 32.148438 24.829427 32.148438 28.08724 Z M 32.148438 28.08724 " transform="matrix(3,0,0,3,0,0)"/>
<path style="fill:none;stroke-width:0.6;stroke-linecap:butt;stroke-linejoin:miter;stroke:rgb(0%,0%,0%);stroke-opacity:1;stroke-miterlimit:10;" d="M 31.175781 28.08724 C 31.175781 30.807292 28.970052 33.013021 26.25 33.013021 C 23.529948 33.013021 21.324219 30.807292 21.324219 28.08724 C 21.324219 25.365885 23.529948 23.161458 26.25 23.161458 C 28.970052 23.161458 31.175781 25.365885 31.175781 28.08724 Z M 31.175781 28.08724 " transform="matrix(3,0,0,3,0,0)"/>
<path style="fill:none;stroke-width:0.3;stroke-linecap:round;stroke-linejoin:round;stroke:rgb(0%,0%,0%);stroke-opacity:1;stroke-miterlimit:4;" d="M 22.940104 27.143229 C 22.940104 27.143229 23.636719 28.045573 25.3125 27.272135 C 25.074219 26.856771 24.640625 26.591146 24.16276 26.565104 C 23.683594 26.53776 23.223958 26.755208 22.941406 27.141927 Z M 22.940104 27.143229 " transform="matrix(3,0,0,3,0,0)"/>
<path style=" stroke:none;fill-rule:nonzero;fill:rgb(0%,0%,0%);fill-opacity:1;" d="M 73.773438 81.3125 C 73.773438 80.433594 73.097656 79.726562 72.265625 79.726562 C 71.429688 79.726562 70.753906 80.433594 70.753906 81.3125 C 70.753906 82.1875 71.429688 82.898438 72.265625 82.898438 C 73.097656 82.898438 73.773438 82.1875 73.773438 81.3125 Z M 73.773438 81.3125 "/>
<path style=" stroke:none;fill-rule:nonzero;fill:rgb(100%,100%,100%);fill-opacity:1;" d="M 72.535156 80.421875 C 72.535156 80.679688 72.328125 80.886719 72.070312 80.886719 C 71.816406 80.886719 71.605469 80.679688 71.605469 80.421875 C 71.605469 80.164062 71.816406 79.957031 72.070312 79.957031 C 72.328125 79.957031 72.535156 80.164062 72.535156 80.421875 Z M 72.535156 80.421875 "/>
<path style="fill:none;stroke-width:0.3;stroke-linecap:round;stroke-linejoin:round;stroke:rgb(0%,0%,0%);stroke-opacity:1;stroke-miterlimit:4;" d="M 22.760417 26.523438 C 23.511719 26.113281 24.447917 26.285156 25.003906 26.936198 M 29.535156 27.209635 C 29.535156 27.209635 28.838542 28.111979 27.161458 27.338542 C 27.401042 26.923177 27.834635 26.657552 28.313802 26.630208 C 28.791667 26.604167 29.251302 26.821615 29.535156 27.209635 Z M 29.535156 27.209635 " transform="matrix(3,0,0,3,0,0)"/>
<path style=" stroke:none;fill-rule:nonzero;fill:rgb(0%,0%,0%);fill-opacity:1;" d="M 86.671875 81.511719 C 86.671875 80.636719 85.996094 79.925781 85.160156 79.925781 C 84.328125 79.925781 83.652344 80.636719 83.652344 81.511719 C 83.652344 82.390625 84.328125 83.101562 85.160156 83.101562 C 85.996094 83.101562 86.671875 82.390625 86.671875 81.511719 Z M 86.671875 81.511719 "/>
<path style=" stroke:none;fill-rule:nonzero;fill:rgb(100%,100%,100%);fill-opacity:1;" d="M 85.820312 80.621094 C 85.820312 80.878906 85.613281 81.085938 85.355469 81.085938 C 85.097656 81.085938 84.890625 80.878906 84.890625 80.621094 C 84.890625 80.363281 85.097656 80.15625 85.355469 80.15625 C 85.613281 80.15625 85.820312 80.363281 85.820312 80.621094 Z M 85.820312 80.621094 "/>
<path style="fill:none;stroke-width:0.3;stroke-linecap:round;stroke-linejoin:round;stroke:rgb(0%,0%,0%);stroke-opacity:1;stroke-miterlimit:4;" d="M 29.714844 26.589844 C 28.963542 26.179688 28.028646 26.352865 27.471354 27.002604 M 22.8125 25.466146 C 22.8125 25.466146 25.003906 25.415365 25.338542 25.492188 C 25.695312 25.65625 25.932292 26.002604 25.958333 26.394531 C 25.96224 26.790365 25.94401 27.1875 25.90625 27.580729 " transform="matrix(3,0,0,3,0,0)"/>
<path style="fill:none;stroke-width:0.3;stroke-linecap:round;stroke-linejoin:round;stroke:rgb(0%,0%,0%);stroke-opacity:1;stroke-miterlimit:4;" d="M 29.335938 25.570312 C 28.621094 25.436198 27.888021 25.427083 27.170573 25.544271 C 26.782552 25.673177 26.834635 25.854167 26.782552 26.059896 C 26.721354 26.746094 26.713542 27.436198 26.75651 28.122396 M 25.261719 28.792969 C 25.49349 28.901042 25.703125 29.049479 25.88151 29.231771 C 25.984375 29.411458 26.345052 29.411458 26.498698 29.308594 C 26.708333 29.148438 26.94401 29.026042 27.196615 28.947917 C 27.454427 28.895833 27.247396 28.510417 27.247396 28.510417 M 26.59375 30.160156 C 26.515625 30.255208 26.404948 30.31901 26.283854 30.339844 C 26.130208 30.339844 26.052083 30.134115 25.898438 30.134115 C 25.74349 30.134115 25.578125 30.295573 25.329427 30.365885 C 25.104167 30.434896 24.869792 30.470052 24.634115 30.46875 C 25.595052 30.78776 26.632812 30.796875 27.60026 30.494792 C 27.386719 30.438802 27.178385 30.360677 26.980469 30.263021 C 26.825521 30.160156 26.696615 30.108073 26.59375 30.160156 Z M 26.59375 30.160156 " transform="matrix(3,0,0,3,0,0)"/>
<path style="fill:none;stroke-width:0.3;stroke-linecap:round;stroke-linejoin:round;stroke:rgb(0%,0%,0%);stroke-opacity:1;stroke-miterlimit:4;" d="M 27.36849 30.615885 C 27.36849 30.615885 26.9375 31.441406 26.257812 31.501302 C 25.898438 31.498698 25.5625 31.321615 25.355469 31.028646 C 25.220052 30.845052 25.063802 30.678385 24.891927 30.529948 " transform="matrix(3,0,0,3,0,0)"/>
<path style=" stroke:none;fill-rule:nonzero;fill:rgb(98.431373%,76.078431%,9.803922%);fill-opacity:1;" d="M 91.945312 59.769531 C 91.945312 61.582031 90.472656 63.054688 88.660156 63.054688 C 86.84375 63.054688 85.375 61.582031 85.375 59.769531 C 85.375 57.953125 86.84375 56.484375 88.660156 56.484375 C 90.472656 56.484375 91.945312 57.953125 91.945312 59.769531 Z M 91.945312 59.769531 "/>
<path style=" stroke:none;fill-rule:nonzero;fill:rgb(98.431373%,76.078431%,9.803922%);fill-opacity:1;" d="M 106.265625 74.34375 C 106.265625 76.15625 104.796875 77.628906 102.980469 77.628906 C 101.167969 77.628906 99.695312 76.15625 99.695312 74.34375 C 99.695312 72.527344 101.167969 71.058594 102.980469 71.058594 C 104.796875 71.058594 106.265625 72.527344 106.265625 74.34375 Z M 106.265625 74.34375 "/>
<path style=" stroke:none;fill-rule:nonzero;fill:rgb(98.431373%,76.078431%,9.803922%);fill-opacity:1;" d="M 106.265625 93.964844 C 106.265625 95.78125 104.796875 97.25 102.980469 97.25 C 101.167969 97.25 99.695312 95.78125 99.695312 93.964844 C 99.695312 92.152344 101.167969 90.679688 102.980469 90.679688 C 104.796875 90.679688 106.265625 92.152344 106.265625 93.964844 Z M 106.265625 93.964844 "/>
<path style=" stroke:none;fill-rule:nonzero;fill:rgb(98.431373%,76.078431%,9.803922%);fill-opacity:1;" d="M 91.945312 108.582031 C 91.945312 110.394531 90.472656 111.867188 88.660156 111.867188 C 86.84375 111.867188 85.375 110.394531 85.375 108.582031 C 85.375 106.769531 86.84375 105.296875 88.660156 105.296875 C 90.472656 105.296875 91.945312 106.769531 91.945312 108.582031 Z M 91.945312 108.582031 "/>
<path style=" stroke:none;fill-rule:nonzero;fill:rgb(98.431373%,76.078431%,9.803922%);fill-opacity:1;" d="M 71.511719 108.582031 C 71.511719 110.394531 70.039062 111.867188 68.226562 111.867188 C 66.410156 111.867188 64.941406 110.394531 64.941406 108.582031 C 64.941406 106.769531 66.410156 105.296875 68.226562 105.296875 C 70.039062 105.296875 71.511719 106.769531 71.511719 108.582031 Z M 71.511719 108.582031 "/>
<path style=" stroke:none;fill-rule:nonzero;fill:rgb(98.431373%,76.078431%,9.803922%);fill-opacity:1;" d="M 57.757812 93.964844 C 57.757812 95.78125 56.289062 97.25 54.472656 97.25 C 52.660156 97.25 51.1875 95.78125 51.1875 93.964844 C 51.1875 92.152344 52.660156 90.679688 54.472656 90.679688 C 56.289062 90.679688 57.757812 92.152344 57.757812 93.964844 Z M 57.757812 93.964844 "/>
<path style=" stroke:none;fill-rule:nonzero;fill:rgb(98.431373%,76.078431%,9.803922%);fill-opacity:1;" d="M 57.757812 74.273438 C 57.757812 76.089844 56.289062 77.558594 54.472656 77.558594 C 52.660156 77.558594 51.1875 76.089844 51.1875 74.273438 C 51.1875 72.460938 52.660156 70.988281 54.472656 70.988281 C 56.289062 70.988281 57.757812 72.460938 57.757812 74.273438 Z M 57.757812 74.273438 "/>
<path style=" stroke:none;fill-rule:nonzero;fill:rgb(98.431373%,76.078431%,9.803922%);fill-opacity:1;" d="M 71.511719 59.769531 C 71.511719 61.582031 70.039062 63.054688 68.226562 63.054688 C 66.410156 63.054688 64.941406 61.582031 64.941406 59.769531 C 64.941406 57.953125 66.410156 56.484375 68.226562 56.484375 C 70.039062 56.484375 71.511719 57.953125 71.511719 59.769531 Z M 71.511719 59.769531 "/>
<path style=" stroke:none;fill-rule:nonzero;fill:rgb(0%,0%,0%);fill-opacity:1;" d="M 214.238281 335.902344 C 214.238281 353.535156 199.945312 367.828125 182.3125 367.828125 C 164.679688 367.828125 150.386719 353.535156 150.386719 335.902344 C 150.386719 318.269531 164.679688 303.976562 182.3125 303.976562 C 199.945312 303.976562 214.238281 318.269531 214.238281 335.902344 Z M 214.238281 335.902344 "/>
<path style="fill:none;stroke-width:0.6;stroke-linecap:butt;stroke-linejoin:miter;stroke:rgb(0%,0%,0%);stroke-opacity:1;stroke-miterlimit:10;" d="M 72.628906 111.967448 C 72.628906 118.515625 67.320312 123.825521 60.770833 123.825521 C 54.222656 123.825521 48.91276 118.515625 48.91276 111.967448 C 48.91276 105.417969 54.222656 100.109375 60.770833 100.109375 C 67.320312 100.109375 72.628906 105.417969 72.628906 111.967448 Z M 72.628906 111.967448 " transform="matrix(3,0,0,3,0,0)"/>
<path style=" stroke:none;fill-rule:nonzero;fill:rgb(98.431373%,76.078431%,9.803922%);fill-opacity:1;" d="M 175.46875 319.378906 L 182.3125 306.09375 L 189.15625 319.378906 L 203.386719 314.824219 L 198.835938 329.054688 L 212.117188 335.902344 L 198.835938 342.742188 L 203.386719 356.976562 L 189.15625 352.421875 L 182.3125 365.707031 L 175.46875 352.421875 L 161.238281 356.976562 L 165.792969 342.742188 L 152.507812 335.902344 L 165.792969 329.054688 L 161.238281 314.824219 Z M 175.46875 319.378906 "/>
<path style="fill:none;stroke-width:0.3;stroke-linecap:butt;stroke-linejoin:miter;stroke:rgb(0%,0%,0%);stroke-opacity:1;stroke-miterlimit:10;" d="M 66.670573 111.967448 C 66.670573 115.22526 64.028646 117.865885 60.770833 117.865885 C 57.513021 117.865885 54.872396 115.22526 54.872396 111.967448 C 54.872396 108.709635 57.513021 106.067708 60.770833 106.067708 C 64.028646 106.067708 66.670573 108.709635 66.670573 111.967448 Z M 66.670573 111.967448 " transform="matrix(3,0,0,3,0,0)"/>
<path style="fill:none;stroke-width:0.6;stroke-linecap:butt;stroke-linejoin:miter;stroke:rgb(0%,0%,0%);stroke-opacity:1;stroke-miterlimit:10;" d="M 65.696615 111.967448 C 65.696615 114.6875 63.492188 116.893229 60.770833 116.893229 C 58.050781 116.893229 55.845052 114.6875 55.845052 111.967448 C 55.845052 109.246094 58.050781 107.040365 60.770833 107.040365 C 63.492188 107.040365 65.696615 109.246094 65.696615 111.967448 Z M 65.696615 111.967448 " transform="matrix(3,0,0,3,0,0)"/>
<path style="fill:none;stroke-width:0.3;stroke-linecap:round;stroke-linejoin:round;stroke:rgb(0%,0%,0%);stroke-opacity:1;stroke-miterlimit:4;" d="M 57.46224 111.022135 C 57.46224 111.022135 58.157552 111.924479 59.834635 111.152344 C 59.595052 110.736979 59.161458 110.471354 58.683594 110.44401 C 58.204427 110.417969 57.744792 110.635417 57.46224 111.022135 Z M 57.46224 111.022135 " transform="matrix(3,0,0,3,0,0)"/>
<path style=" stroke:none;fill-rule:nonzero;fill:rgb(0%,0%,0%);fill-opacity:1;" d="M 177.335938 332.949219 C 177.335938 332.074219 176.660156 331.363281 175.828125 331.363281 C 174.992188 331.363281 174.316406 332.074219 174.316406 332.949219 C 174.316406 333.824219 174.992188 334.535156 175.828125 334.535156 C 176.660156 334.535156 177.335938 333.824219 177.335938 332.949219 Z M 177.335938 332.949219 "/>
<path style=" stroke:none;fill-rule:nonzero;fill:rgb(100%,100%,100%);fill-opacity:1;" d="M 176.101562 332.0625 C 176.101562 332.316406 175.890625 332.527344 175.636719 332.527344 C 175.378906 332.527344 175.171875 332.316406 175.171875 332.0625 C 175.171875 331.804688 175.378906 331.597656 175.636719 331.597656 C 175.890625 331.597656 176.101562 331.804688 176.101562 332.0625 Z M 176.101562 332.0625 "/>
<path style="fill:none;stroke-width:0.3;stroke-linecap:round;stroke-linejoin:round;stroke:rgb(0%,0%,0%);stroke-opacity:1;stroke-miterlimit:4;" d="M 57.28125 110.403646 C 58.032552 109.992188 58.96875 110.165365 59.52474 110.816406 M 64.05599 111.089844 C 64.05599 111.089844 63.359375 111.992188 61.683594 111.217448 C 61.921875 110.802083 62.355469 110.536458 62.834635 110.510417 C 63.313802 110.484375 63.773438 110.701823 64.05599 111.088542 Z M 64.05599 111.089844 " transform="matrix(3,0,0,3,0,0)"/>
<path style=" stroke:none;fill-rule:nonzero;fill:rgb(0%,0%,0%);fill-opacity:1;" d="M 190.234375 333.148438 C 190.234375 332.273438 189.558594 331.5625 188.722656 331.5625 C 187.890625 331.5625 187.214844 332.273438 187.214844 333.148438 C 187.214844 334.027344 187.890625 334.738281 188.722656 334.738281 C 189.558594 334.738281 190.234375 334.027344 190.234375 333.148438 Z M 190.234375 333.148438 "/>
<path style=" stroke:none;fill-rule:nonzero;fill:rgb(100%,100%,100%);fill-opacity:1;" d="M 189.382812 332.261719 C 189.382812 332.519531 189.175781 332.726562 188.917969 332.726562 C 188.664062 332.726562 188.453125 332.519531 188.453125 332.261719 C 188.453125 332.003906 188.664062 331.796875 188.917969 331.796875 C 189.175781 331.796875 189.382812 332.003906 189.382812 332.261719 Z M 189.382812 332.261719 "/>
<path style="fill:none;stroke-width:0.3;stroke-linecap:round;stroke-linejoin:round;stroke:rgb(0%,0%,0%);stroke-opacity:1;stroke-miterlimit:4;" d="M 64.235677 110.470052 C 63.484375 110.059896 62.549479 110.231771 61.99349 110.882812 M 57.333333 109.346354 C 57.333333 109.346354 59.52474 109.294271 59.859375 109.372396 C 60.216146 109.536458 60.453125 109.882812 60.479167 110.273438 C 60.483073 110.670573 60.464844 111.066406 60.427083 111.460938 " transform="matrix(3,0,0,3,0,0)"/>
<path style="fill:none;stroke-width:0.3;stroke-linecap:round;stroke-linejoin:round;stroke:rgb(0%,0%,0%);stroke-opacity:1;stroke-miterlimit:4;" d="M 63.856771 109.449219 C 63.141927 109.315104 62.408854 109.30599 61.691406 109.423177 C 61.303385 109.553385 61.355469 109.733073 61.303385 109.938802 C 61.242188 110.625 61.234375 111.315104 61.278646 112.002604 M 59.782552 112.673177 C 60.014323 112.78125 60.223958 112.929688 60.402344 113.110677 C 60.505208 113.290365 60.865885 113.290365 61.019531 113.1875 C 61.229167 113.027344 61.464844 112.904948 61.717448 112.828125 C 61.97526 112.776042 61.768229 112.389323 61.768229 112.389323 M 61.114583 114.040365 C 61.036458 114.134115 60.925781 114.197917 60.804688 114.220052 C 60.651042 114.220052 60.572917 114.014323 60.419271 114.014323 C 60.265625 114.014323 60.098958 114.174479 59.851562 114.246094 C 59.625 114.315104 59.390625 114.35026 59.154948 114.348958 C 60.115885 114.667969 61.153646 114.677083 62.121094 114.375 C 61.907552 114.31901 61.699219 114.240885 61.501302 114.143229 C 61.346354 114.039062 61.217448 113.988281 61.114583 114.039062 Z M 61.114583 114.040365 " transform="matrix(3,0,0,3,0,0)"/>
<path style="fill:none;stroke-width:0.3;stroke-linecap:round;stroke-linejoin:round;stroke:rgb(0%,0%,0%);stroke-opacity:1;stroke-miterlimit:4;" d="M 61.889323 114.494792 C 61.889323 114.494792 61.459635 115.320312 60.778646 115.380208 C 60.419271 115.377604 60.083333 115.201823 59.877604 114.907552 C 59.740885 114.72526 59.585938 114.558594 59.41276 114.408854 " transform="matrix(3,0,0,3,0,0)"/>
<path style=" stroke:none;fill-rule:nonzero;fill:rgb(98.431373%,76.078431%,9.803922%);fill-opacity:1;" d="M 195.507812 311.410156 C 195.507812 313.222656 194.035156 314.695312 192.222656 314.695312 C 190.40625 314.695312 188.9375 313.222656 188.9375 311.410156 C 188.9375 309.59375 190.40625 308.125 192.222656 308.125 C 194.035156 308.125 195.507812 309.59375 195.507812 311.410156 Z M 195.507812 311.410156 "/>
<path style=" stroke:none;fill-rule:nonzero;fill:rgb(98.431373%,76.078431%,9.803922%);fill-opacity:1;" d="M 209.828125 325.980469 C 209.828125 327.792969 208.359375 329.265625 206.542969 329.265625 C 204.730469 329.265625 203.257812 327.792969 203.257812 325.980469 C 203.257812 324.164062 204.730469 322.695312 206.542969 322.695312 C 208.359375 322.695312 209.828125 324.164062 209.828125 325.980469 Z M 209.828125 325.980469 "/>
<path style=" stroke:none;fill-rule:nonzero;fill:rgb(98.431373%,76.078431%,9.803922%);fill-opacity:1;" d="M 209.828125 345.601562 C 209.828125 347.417969 208.359375 348.886719 206.542969 348.886719 C 204.730469 348.886719 203.257812 347.417969 203.257812 345.601562 C 203.257812 343.789062 204.730469 342.316406 206.542969 342.316406 C 208.359375 342.316406 209.828125 343.789062 209.828125 345.601562 Z M 209.828125 345.601562 "/>
<path style=" stroke:none;fill-rule:nonzero;fill:rgb(98.431373%,76.078431%,9.803922%);fill-opacity:1;" d="M 195.507812 360.222656 C 195.507812 362.035156 194.035156 363.507812 192.222656 363.507812 C 190.40625 363.507812 188.9375 362.035156 188.9375 360.222656 C 188.9375 358.40625 190.40625 356.9375 192.222656 356.9375 C 194.035156 356.9375 195.507812 358.40625 195.507812 360.222656 Z M 195.507812 360.222656 "/>
<path style=" stroke:none;fill-rule:nonzero;fill:rgb(98.431373%,76.078431%,9.803922%);fill-opacity:1;" d="M 175.074219 360.222656 C 175.074219 362.035156 173.601562 363.507812 171.789062 363.507812 C 169.976562 363.507812 168.503906 362.035156 168.503906 360.222656 C 168.503906 358.40625 169.976562 356.9375 171.789062 356.9375 C 173.601562 356.9375 175.074219 358.40625 175.074219 360.222656 Z M 175.074219 360.222656 "/>
<path style=" stroke:none;fill-rule:nonzero;fill:rgb(98.431373%,76.078431%,9.803922%);fill-opacity:1;" d="M 161.320312 345.601562 C 161.320312 347.417969 159.851562 348.886719 158.035156 348.886719 C 156.222656 348.886719 154.753906 347.417969 154.753906 345.601562 C 154.753906 343.789062 156.222656 342.316406 158.035156 342.316406 C 159.851562 342.316406 161.320312 343.789062 161.320312 345.601562 Z M 161.320312 345.601562 "/>
<path style=" stroke:none;fill-rule:nonzero;fill:rgb(98.431373%,76.078431%,9.803922%);fill-opacity:1;" d="M 161.320312 325.910156 C 161.320312 327.726562 159.851562 329.195312 158.035156 329.195312 C 156.222656 329.195312 154.753906 327.726562 154.753906 325.910156 C 154.753906 324.097656 156.222656 322.625 158.035156 322.625 C 159.851562 322.625 161.320312 324.097656 161.320312 325.910156 Z M 161.320312 325.910156 "/>
<path style=" stroke:none;fill-rule:nonzero;fill:rgb(98.431373%,76.078431%,9.803922%);fill-opacity:1;" d="M 175.074219 311.410156 C 175.074219 313.222656 173.601562 314.695312 171.789062 314.695312 C 169.976562 314.695312 168.503906 313.222656 168.503906 311.410156 C 168.503906 309.59375 169.976562 308.125 171.789062 308.125 C 173.601562 308.125 175.074219 309.59375 175.074219 311.410156 Z M 175.074219 311.410156 "/>
<path style=" stroke:none;fill-rule:nonzero;fill:rgb(0%,0%,0%);fill-opacity:1;" d="M 110.675781 335.902344 C 110.675781 353.535156 96.382812 367.828125 78.75 367.828125 C 61.117188 367.828125 46.824219 353.535156 46.824219 335.902344 C 46.824219 318.269531 61.117188 303.976562 78.75 303.976562 C 96.382812 303.976562 110.675781 318.269531 110.675781 335.902344 Z M 110.675781 335.902344 "/>
<path style="fill:none;stroke-width:0.6;stroke-linecap:butt;stroke-linejoin:miter;stroke:rgb(0%,0%,0%);stroke-opacity:1;stroke-miterlimit:10;" d="M 38.108073 111.967448 C 38.108073 118.515625 32.799479 123.825521 26.25 123.825521 C 19.700521 123.825521 14.391927 118.515625 14.391927 111.967448 C 14.391927 105.417969 19.700521 100.109375 26.25 100.109375 C 32.799479 100.109375 38.108073 105.417969 38.108073 111.967448 Z M 38.108073 111.967448 " transform="matrix(3,0,0,3,0,0)"/>
<path style=" stroke:none;fill-rule:nonzero;fill:rgb(98.431373%,76.078431%,9.803922%);fill-opacity:1;" d="M 71.90625 319.378906 L 78.75 306.09375 L 85.59375 319.378906 L 99.824219 314.824219 L 95.273438 329.054688 L 108.554688 335.902344 L 95.273438 342.742188 L 99.824219 356.976562 L 85.59375 352.421875 L 78.75 365.707031 L 71.90625 352.421875 L 57.675781 356.976562 L 62.230469 342.742188 L 48.945312 335.902344 L 62.230469 329.054688 L 57.675781 314.824219 Z M 71.90625 319.378906 "/>
<path style="fill:none;stroke-width:0.3;stroke-linecap:butt;stroke-linejoin:miter;stroke:rgb(0%,0%,0%);stroke-opacity:1;stroke-miterlimit:10;" d="M 32.148438 111.967448 C 32.148438 115.22526 29.507812 117.865885 26.25 117.865885 C 22.992188 117.865885 20.351562 115.22526 20.351562 111.967448 C 20.351562 108.709635 22.992188 106.067708 26.25 106.067708 C 29.507812 106.067708 32.148438 108.709635 32.148438 111.967448 Z M 32.148438 111.967448 " transform="matrix(3,0,0,3,0,0)"/>
<path style="fill:none;stroke-width:0.6;stroke-linecap:butt;stroke-linejoin:miter;stroke:rgb(0%,0%,0%);stroke-opacity:1;stroke-miterlimit:10;" d="M 31.175781 111.967448 C 31.175781 114.6875 28.970052 116.893229 26.25 116.893229 C 23.529948 116.893229 21.324219 114.6875 21.324219 111.967448 C 21.324219 109.246094 23.529948 107.040365 26.25 107.040365 C 28.970052 107.040365 31.175781 109.246094 31.175781 111.967448 Z M 31.175781 111.967448 " transform="matrix(3,0,0,3,0,0)"/>
<path style="fill:none;stroke-width:0.3;stroke-linecap:round;stroke-linejoin:round;stroke:rgb(0%,0%,0%);stroke-opacity:1;stroke-miterlimit:4;" d="M 22.940104 111.022135 C 22.940104 111.022135 23.636719 111.924479 25.3125 111.152344 C 25.074219 110.736979 24.640625 110.471354 24.16276 110.44401 C 23.683594 110.417969 23.223958 110.635417 22.941406 111.022135 Z M 22.940104 111.022135 " transform="matrix(3,0,0,3,0,0)"/>
<path style=" stroke:none;fill-rule:nonzero;fill:rgb(0%,0%,0%);fill-opacity:1;" d="M 73.773438 332.949219 C 73.773438 332.074219 73.097656 331.363281 72.265625 331.363281 C 71.429688 331.363281 70.753906 332.074219 70.753906 332.949219 C 70.753906 333.824219 71.429688 334.535156 72.265625 334.535156 C 73.097656 334.535156 73.773438 333.824219 73.773438 332.949219 Z M 73.773438 332.949219 "/>
<path style=" stroke:none;fill-rule:nonzero;fill:rgb(100%,100%,100%);fill-opacity:1;" d="M 72.535156 332.0625 C 72.535156 332.316406 72.328125 332.527344 72.070312 332.527344 C 71.816406 332.527344 71.605469 332.316406 71.605469 332.0625 C 71.605469 331.804688 71.816406 331.597656 72.070312 331.597656 C 72.328125 331.597656 72.535156 331.804688 72.535156 332.0625 Z M 72.535156 332.0625 "/>
<path style="fill:none;stroke-width:0.3;stroke-linecap:round;stroke-linejoin:round;stroke:rgb(0%,0%,0%);stroke-opacity:1;stroke-miterlimit:4;" d="M 22.760417 110.403646 C 23.511719 109.992188 24.447917 110.165365 25.003906 110.816406 M 29.535156 111.089844 C 29.535156 111.089844 28.838542 111.992188 27.161458 111.217448 C 27.401042 110.802083 27.834635 110.536458 28.313802 110.510417 C 28.792969 110.484375 29.251302 110.701823 29.535156 111.088542 Z M 29.535156 111.089844 " transform="matrix(3,0,0,3,0,0)"/>
<path style=" stroke:none;fill-rule:nonzero;fill:rgb(0%,0%,0%);fill-opacity:1;" d="M 86.671875 333.148438 C 86.671875 332.273438 85.996094 331.5625 85.160156 331.5625 C 84.328125 331.5625 83.652344 332.273438 83.652344 333.148438 C 83.652344 334.027344 84.328125 334.738281 85.160156 334.738281 C 85.996094 334.738281 86.671875 334.027344 86.671875 333.148438 Z M 86.671875 333.148438 "/>
<path style=" stroke:none;fill-rule:nonzero;fill:rgb(100%,100%,100%);fill-opacity:1;" d="M 85.820312 332.261719 C 85.820312 332.519531 85.613281 332.726562 85.355469 332.726562 C 85.097656 332.726562 84.890625 332.519531 84.890625 332.261719 C 84.890625 332.003906 85.097656 331.796875 85.355469 331.796875 C 85.613281 331.796875 85.820312 332.003906 85.820312 332.261719 Z M 85.820312 332.261719 "/>
<path style="fill:none;stroke-width:0.3;stroke-linecap:round;stroke-linejoin:round;stroke:rgb(0%,0%,0%);stroke-opacity:1;stroke-miterlimit:4;" d="M 29.714844 110.470052 C 28.963542 110.059896 28.028646 110.231771 27.471354 110.882812 M 22.8125 109.346354 C 22.8125 109.346354 25.003906 109.294271 25.338542 109.372396 C 25.695312 109.536458 25.932292 109.882812 25.958333 110.273438 C 25.96224 110.670573 25.94401 111.066406 25.90625 111.460938 " transform="matrix(3,0,0,3,0,0)"/>
<path style="fill:none;stroke-width:0.3;stroke-linecap:round;stroke-linejoin:round;stroke:rgb(0%,0%,0%);stroke-opacity:1;stroke-miterlimit:4;" d="M 29.335938 109.449219 C 28.621094 109.315104 27.888021 109.30599 27.170573 109.423177 C 26.782552 109.553385 26.834635 109.733073 26.782552 109.938802 C 26.721354 110.625 26.713542 111.315104 26.75651 112.002604 M 25.261719 112.673177 C 25.49349 112.78125 25.703125 112.929688 25.88151 113.110677 C 25.984375 113.290365 26.345052 113.290365 26.498698 113.1875 C 26.708333 113.027344 26.94401 112.904948 27.196615 112.828125 C 27.454427 112.776042 27.247396 112.389323 27.247396 112.389323 M 26.59375 114.040365 C 26.515625 114.134115 26.404948 114.197917 26.283854 114.220052 C 26.130208 114.220052 26.052083 114.014323 25.898438 114.014323 C 25.74349 114.014323 25.578125 114.174479 25.329427 114.246094 C 25.104167 114.315104 24.869792 114.35026 24.634115 114.348958 C 25.595052 114.667969 26.632812 114.677083 27.60026 114.375 C 27.386719 114.31901 27.178385 114.240885 26.980469 114.143229 C 26.825521 114.039062 26.696615 113.988281 26.59375 114.039062 Z M 26.59375 114.040365 " transform="matrix(3,0,0,3,0,0)"/>
<path style="fill:none;stroke-width:0.3;stroke-linecap:round;stroke-linejoin:round;stroke:rgb(0%,0%,0%);stroke-opacity:1;stroke-miterlimit:4;" d="M 27.36849 114.494792 C 27.36849 114.494792 26.9375 115.320312 26.257812 115.380208 C 25.898438 115.377604 25.5625 115.201823 25.355469 114.907552 C 25.220052 114.72526 25.063802 114.558594 24.891927 114.408854 " transform="matrix(3,0,0,3,0,0)"/>
<path style=" stroke:none;fill-rule:nonzero;fill:rgb(98.431373%,76.078431%,9.803922%);fill-opacity:1;" d="M 91.945312 311.410156 C 91.945312 313.222656 90.472656 314.695312 88.660156 314.695312 C 86.84375 314.695312 85.375 313.222656 85.375 311.410156 C 85.375 309.59375 86.84375 308.125 88.660156 308.125 C 90.472656 308.125 91.945312 309.59375 91.945312 311.410156 Z M 91.945312 311.410156 "/>
<path style=" stroke:none;fill-rule:nonzero;fill:rgb(98.431373%,76.078431%,9.803922%);fill-opacity:1;" d="M 106.265625 325.980469 C 106.265625 327.792969 104.796875 329.265625 102.980469 329.265625 C 101.167969 329.265625 99.695312 327.792969 99.695312 325.980469 C 99.695312 324.164062 101.167969 322.695312 102.980469 322.695312 C 104.796875 322.695312 106.265625 324.164062 106.265625 325.980469 Z M 106.265625 325.980469 "/>
<path style=" stroke:none;fill-rule:nonzero;fill:rgb(98.431373%,76.078431%,9.803922%);fill-opacity:1;" d="M 106.265625 345.601562 C 106.265625 347.417969 104.796875 348.886719 102.980469 348.886719 C 101.167969 348.886719 99.695312 347.417969 99.695312 345.601562 C 99.695312 343.789062 101.167969 342.316406 102.980469 342.316406 C 104.796875 342.316406 106.265625 343.789062 106.265625 345.601562 Z M 106.265625 345.601562 "/>
<path style=" stroke:none;fill-rule:nonzero;fill:rgb(98.431373%,76.078431%,9.803922%);fill-opacity:1;" d="M 91.945312 360.222656 C 91.945312 362.035156 90.472656 363.507812 88.660156 363.507812 C 86.84375 363.507812 85.375 362.035156 85.375 360.222656 C 85.375 358.40625 86.84375 356.9375 88.660156 356.9375 C 90.472656 356.9375 91.945312 358.40625 91.945312 360.222656 Z M 91.945312 360.222656 "/>
<path style=" stroke:none;fill-rule:nonzero;fill:rgb(98.431373%,76.078431%,9.803922%);fill-opacity:1;" d="M 71.511719 360.222656 C 71.511719 362.035156 70.039062 363.507812 68.226562 363.507812 C 66.410156 363.507812 64.941406 362.035156 64.941406 360.222656 C 64.941406 358.40625 66.410156 356.9375 68.226562 356.9375 C 70.039062 356.9375 71.511719 358.40625 71.511719 360.222656 Z M 71.511719 360.222656 "/>
<path style=" stroke:none;fill-rule:nonzero;fill:rgb(98.431373%,76.078431%,9.803922%);fill-opacity:1;" d="M 57.757812 345.601562 C 57.757812 347.417969 56.289062 348.886719 54.472656 348.886719 C 52.660156 348.886719 51.1875 347.417969 51.1875 345.601562 C 51.1875 343.789062 52.660156 342.316406 54.472656 342.316406 C 56.289062 342.316406 57.757812 343.789062 57.757812 345.601562 Z M 57.757812 345.601562 "/>
<path style=" stroke:none;fill-rule:nonzero;fill:rgb(98.431373%,76.078431%,9.803922%);fill-opacity:1;" d="M 57.757812 325.910156 C 57.757812 327.726562 56.289062 329.195312 54.472656 329.195312 C 52.660156 329.195312 51.1875 327.726562 51.1875 325.910156 C 51.1875 324.097656 52.660156 322.625 54.472656 322.625 C 56.289062 322.625 57.757812 324.097656 57.757812 325.910156 Z M 57.757812 325.910156 "/>
<path style=" stroke:none;fill-rule:nonzero;fill:rgb(98.431373%,76.078431%,9.803922%);fill-opacity:1;" d="M 71.511719 311.410156 C 71.511719 313.222656 70.039062 314.695312 68.226562 314.695312 C 66.410156 314.695312 64.941406 313.222656 64.941406 311.410156 C 64.941406 309.59375 66.410156 308.125 68.226562 308.125 C 70.039062 308.125 71.511719 309.59375 71.511719 311.410156 Z M 71.511719 311.410156 "/>
<path style="fill-rule:nonzero;fill:rgb(0%,0%,0%);fill-opacity:1;stroke-width:0.4;stroke-linecap:round;stroke-linejoin:round;stroke:rgb(0%,0%,0%);stroke-opacity:1;stroke-miterlimit:4;" d="M 61.972656 70.082031 C 61.972656 80.330729 53.665365 88.638021 43.416667 88.638021 C 33.169271 88.638021 24.860677 80.330729 24.860677 70.082031 C 24.860677 59.833333 33.169271 51.526042 43.416667 51.526042 C 53.665365 51.526042 61.972656 59.833333 61.972656 70.082031 Z M 61.972656 70.082031 " transform="matrix(3,0,0,3,0,0)"/>
<path style="fill:none;stroke-width:0.4;stroke-linecap:round;stroke-linejoin:round;stroke:rgb(0%,0%,0%);stroke-opacity:1;stroke-miterlimit:4;" d="M 47.86849 63.492188 C 48.152344 63.44401 48.440104 63.540365 48.638021 63.748698 C 48.731771 63.886719 48.838542 64.015625 48.958333 64.132812 C 49.183594 64.363281 49.377604 64.622396 49.535156 64.903646 C 49.615885 65.022135 49.68099 65.151042 49.727865 65.286458 C 49.813802 65.457031 49.898438 65.64974 49.984375 65.864583 C 50.1875 65.748698 50.345052 65.567708 50.433594 65.351562 C 50.263021 66.085938 50.352865 66.855469 50.688802 67.53125 C 50.85026 67.768229 50.980469 68.027344 51.074219 68.299479 C 51.239583 68.665365 51.347656 69.054688 51.394531 69.453125 C 51.391927 69.647135 51.369792 69.839844 51.329427 70.029948 C 51.333333 70.229167 51.289062 70.427083 51.201823 70.606771 C 51.105469 70.704427 51.019531 70.8125 50.945312 70.927083 C 50.85026 71.071615 50.765625 71.221354 50.688802 71.376302 C 50.643229 71.485677 50.667969 71.611979 50.752604 71.696615 L 51.394531 71.567708 C 51.294271 71.757812 51.164062 71.932292 51.010417 72.080729 C 50.63151 72.574219 50.447917 73.191406 50.497396 73.811198 C 50.511719 74.071615 50.419271 74.326823 50.239583 74.516927 C 49.910156 74.936198 49.464844 75.247396 48.958333 75.414062 C 48.752604 75.425781 48.553385 75.492188 48.38151 75.605469 C 48.263021 75.6875 48.132812 75.752604 47.997396 75.799479 C 47.859375 75.893229 47.730469 76 47.613281 76.11849 C 47.50651 76.316406 47.31901 76.457031 47.10026 76.503906 C 47.429688 76.583333 47.735677 76.735677 47.997396 76.951823 L 47.997396 77.080729 C 47.242188 76.93099 46.467448 77.230469 46.010417 77.85026 C 45.878906 77.980469 45.726562 78.088542 45.561198 78.170573 C 45.139323 78.300781 44.684896 78.278646 44.278646 78.105469 C 44.057292 78.016927 43.84375 77.910156 43.639323 77.786458 L 43.510417 77.721354 L 43.253906 77.592448 C 42.925781 77.442708 42.53776 77.520833 42.291667 77.786458 C 42.27474 77.783854 42.25651 77.789062 42.244792 77.802083 C 42.231771 77.815104 42.22526 77.832031 42.227865 77.85026 L 42.164062 77.914062 C 41.682292 77.459635 41.083333 77.148438 40.433594 77.015625 C 39.951823 77.022135 39.472656 76.934896 39.023438 76.760417 C 38.877604 76.705729 38.746094 76.61849 38.639323 76.503906 C 38.477865 76.471354 38.352865 76.345052 38.31901 76.183594 C 38.315104 76.134115 38.291667 76.08724 38.253906 76.054688 C 38.130208 75.85026 38.023438 75.635417 37.933594 75.414062 C 37.84375 75.199219 37.686198 75.019531 37.484375 74.901042 C 36.911458 74.423177 36.470052 73.804688 36.203125 73.106771 C 36.115885 72.88151 36.071615 72.641927 36.075521 72.401042 C 36.117188 71.845052 36.139323 71.226562 36.139323 70.542969 C 36.160156 70.40625 36.123698 70.266927 36.039062 70.157552 C 35.954427 70.048177 35.828125 69.979167 35.691406 69.966146 C 35.535156 69.994792 35.397135 70.085938 35.3125 70.220052 C 35.226562 70.354167 35.200521 70.516927 35.240885 70.670573 L 35.114583 70.414062 L 35.114583 69.773438 C 35.324219 69.436198 35.559896 69.114583 35.81901 68.8125 C 35.976562 68.640625 36.105469 68.446615 36.203125 68.234375 C 36.372396 68.06901 36.445312 67.826823 36.395833 67.595052 C 36.401042 67.378906 36.378906 67.164062 36.332031 66.953125 C 36.285156 66.763021 36.285156 66.565104 36.332031 66.376302 C 36.514323 65.984375 36.803385 65.651042 37.165365 65.415365 C 37.298177 65.328125 37.454427 65.283854 37.613281 65.286458 C 37.645833 65.248698 37.692708 65.226562 37.742188 65.222656 L 37.997396 65.222656 C 38.015625 65.22526 38.033854 65.21875 38.045573 65.207031 C 38.058594 65.19401 38.063802 65.177083 38.0625 65.158854 C 38.233073 65.158854 38.317708 65.095052 38.317708 64.966146 L 38.382812 64.966146 C 38.398438 64.755208 38.329427 64.546875 38.190104 64.389323 C 38.089844 64.34375 37.980469 64.321615 37.869792 64.325521 L 37.869792 64.389323 C 37.799479 64.394531 37.730469 64.371094 37.678385 64.325521 C 37.677083 64.235677 37.654948 64.148438 37.613281 64.06901 C 37.651042 63.908854 37.716146 63.757812 37.80599 63.619792 C 38.21224 63.578125 38.623698 63.60026 39.023438 63.683594 C 39.544271 63.652344 40.048177 63.498698 40.497396 63.235677 C 40.669271 63.106771 40.817708 63.001302 40.946615 62.915365 C 41.334635 62.528646 41.764323 62.183594 42.227865 61.890625 C 42.449219 61.800781 42.664062 61.69401 42.86849 61.570312 L 43.0625 61.570312 C 43.255208 61.571615 43.447917 61.59375 43.638021 61.632812 C 43.988281 61.855469 44.276042 62.165365 44.471354 62.53125 C 44.471354 62.615885 44.557292 62.572917 44.727865 62.402344 C 44.813802 62.197917 44.813802 61.966146 44.727865 61.761719 C 44.557292 61.46224 44.557292 61.290365 44.727865 61.248698 C 44.947917 61.295573 45.14974 61.40625 45.304688 61.56901 C 45.763021 62.033854 46.255208 62.46224 46.778646 62.851562 C 47.096354 63.135417 47.466146 63.352865 47.86849 63.492188 Z M 47.86849 63.492188 " transform="matrix(3,0,0,3,0,0)"/>
<path style="fill:none;stroke-width:0.4;stroke-linecap:round;stroke-linejoin:round;stroke:rgb(0%,0%,0%);stroke-opacity:1;stroke-miterlimit:4;" d="M 48.574219 62.595052 C 48.355469 62.550781 48.140625 62.486979 47.933594 62.403646 C 47.817708 62.328125 47.710938 62.242188 47.613281 62.145833 C 47.3125 61.964844 47.032552 61.75 46.778646 61.50651 C 46.322917 61.084635 45.733073 60.834635 45.113281 60.799479 C 44.420573 60.628906 43.699219 60.606771 42.997396 60.735677 C 42.427083 60.855469 41.869792 61.027344 41.330729 61.248698 C 41.195312 61.295573 41.065104 61.360677 40.946615 61.441406 C 40.807292 61.535156 40.679688 61.641927 40.5625 61.760417 L 40.433594 61.890625 C 40.384115 61.886719 40.33724 61.863281 40.304688 61.825521 C 40.240885 61.661458 40.197917 61.488281 40.177083 61.3125 C 40.102865 61.390625 40.015625 61.455729 39.920573 61.505208 C 39.652344 61.757812 39.35026 61.973958 39.023438 62.145833 C 38.846354 62.277344 38.652344 62.385417 38.446615 62.466146 C 38.085938 62.580729 37.755208 62.778646 37.484375 63.044271 L 36.588542 63.941406 C 36.30599 64.25 36.108073 64.625 36.010417 65.03125 C 35.897135 65.438802 35.723958 65.826823 35.497396 66.183594 C 35.440104 66.294271 35.376302 66.401042 35.30599 66.503906 C 35.205729 66.549479 35.096354 66.572917 34.985677 66.56901 C 34.865885 66.606771 34.755208 66.673177 34.665365 66.760417 C 34.576823 67.042969 34.623698 67.35026 34.792969 67.59375 C 34.811198 67.591146 34.828125 67.597656 34.841146 67.610677 C 34.852865 67.622396 34.859375 67.640625 34.856771 67.657552 C 34.855469 67.967448 34.790365 68.273438 34.665365 68.55599 C 34.611979 68.709635 34.546875 68.859375 34.472656 69.003906 C 34.388021 69.260417 34.302083 69.496094 34.216146 69.709635 C 34.045573 70.309896 34.114583 70.953125 34.408854 71.503906 C 34.652344 71.99349 34.929688 72.464844 35.242188 72.914062 C 35.365885 73.102865 35.411458 73.333333 35.369792 73.554688 L 34.856771 73.61849 C 34.686198 73.61849 34.729167 73.704427 34.984375 73.876302 C 35.489583 74.33724 35.941406 74.852865 36.330729 75.414062 C 36.375 75.552083 36.440104 75.68099 36.523438 75.799479 C 36.65625 76.022135 36.763021 76.257812 36.84375 76.503906 C 37.050781 76.880208 37.334635 77.207031 37.678385 77.464844 C 37.882812 77.588542 38.096354 77.695312 38.317708 77.785156 L 39.536458 77.785156 L 39.216146 78.490885 C 39.845052 78.320312 40.509115 78.320312 41.139323 78.490885 C 41.641927 78.675781 42.134115 78.889323 42.613281 79.13151 C 42.74349 79.138021 42.872396 79.160156 42.997396 79.196615 C 43.886719 79.282552 44.783854 79.173177 45.625 78.876302 C 46.106771 78.723958 46.545573 78.459635 46.907552 78.105469 C 47.029948 78.356771 47.233073 78.559896 47.484375 78.683594 L 47.611979 78.811198 C 47.597656 78.235677 47.924479 77.707031 48.446615 77.464844 C 48.559896 77.360677 48.690104 77.273438 48.829427 77.209635 L 49.214844 77.015625 C 49.346354 76.885417 49.497396 76.777344 49.66276 76.696615 C 49.783854 76.657552 49.893229 76.592448 49.983073 76.503906 C 50.325521 76.076823 50.667969 75.670573 51.009115 75.286458 C 51.217448 75.084635 51.334635 74.80599 51.329427 74.515625 C 51.372396 74.089844 51.458333 73.897135 51.585938 73.940104 L 52.226562 73.940104 C 52.059896 73.625 52.014323 73.260417 52.098958 72.914062 C 52.136719 72.746094 52.157552 72.574219 52.16276 72.402344 C 52.246094 72.238281 52.311198 72.066406 52.355469 71.889323 C 52.389323 71.617188 52.476562 71.355469 52.611979 71.11849 C 52.735677 70.877604 52.821615 70.61849 52.86849 70.351562 C 52.955729 69.723958 52.889323 69.085938 52.675781 68.490885 C 52.544271 68.230469 52.371094 67.992188 52.16276 67.786458 C 52.302083 67.688802 52.411458 67.55599 52.483073 67.402344 C 52.526042 67.402344 52.591146 67.338542 52.675781 67.209635 L 52.675781 67.145833 C 52.373698 67.144531 52.088542 67.002604 51.90625 66.760417 C 51.824219 66.595052 51.716146 66.44401 51.585938 66.3125 C 51.542969 66.183594 51.501302 66.035156 51.458333 65.864583 C 51.372396 65.651042 51.308594 65.479167 51.265625 65.351562 C 51.161458 65.102865 51.032552 64.867188 50.88151 64.645833 C 50.5625 64.067708 50.035156 63.63151 49.407552 63.428385 C 49.19401 63.428385 49.171875 63.364583 49.342448 63.235677 C 49.428385 63.075521 49.428385 62.882812 49.342448 62.722656 C 49.080729 62.722656 48.821615 62.679688 48.572917 62.595052 Z M 48.574219 62.595052 " transform="matrix(3,0,0,3,0,0)"/>
<path style="fill:none;stroke-width:0.4;stroke-linecap:round;stroke-linejoin:round;stroke:rgb(0%,0%,0%);stroke-opacity:1;stroke-miterlimit:4;" d="M 48.446615 74.964844 C 46.453125 76.946615 43.464844 77.533854 40.869792 76.454427 C 38.276042 75.375 36.585938 72.839844 36.588542 70.029948 C 36.553385 68.190104 37.298177 66.420573 38.639323 65.158854 C 39.933594 63.846354 41.699219 63.108073 43.542969 63.108073 C 45.385417 63.108073 47.152344 63.846354 48.446615 65.158854 C 49.786458 66.420573 50.53125 68.190104 50.496094 70.029948 C 50.523438 71.888021 49.78125 73.673177 48.446615 74.964844 Z M 48.446615 74.964844 " transform="matrix(3,0,0,3,0,0)"/>
<path style="fill:none;stroke-width:0.4;stroke-linecap:round;stroke-linejoin:round;stroke:rgb(0%,0%,0%);stroke-opacity:1;stroke-miterlimit:4;" d="M 50.497396 63.108073 C 53.304688 65.947917 54.139323 70.19401 52.614583 73.885417 C 51.091146 77.576823 47.503906 79.997396 43.510417 80.028646 C 39.511719 80.005208 35.917969 77.585938 34.391927 73.890625 C 32.867188 70.195312 33.707031 65.945312 36.523438 63.108073 C 38.346354 61.203125 40.873698 60.135417 43.510417 60.158854 C 46.14974 60.11849 48.684896 61.188802 50.497396 63.108073 Z M 50.497396 63.108073 " transform="matrix(3,0,0,3,0,0)"/>
<path style="fill:none;stroke-width:0.4;stroke-linecap:round;stroke-linejoin:round;stroke:rgb(0%,0%,0%);stroke-opacity:1;stroke-miterlimit:4;" d="M 51.458333 62.145833 C 53.589844 64.240885 54.791667 67.105469 54.791667 70.09375 C 54.791667 73.083333 53.589844 75.946615 51.458333 78.041667 C 49.391927 80.216146 46.509115 81.425781 43.510417 81.375 C 38.955729 81.373698 34.847656 78.634115 33.096354 74.43099 C 31.345052 70.226562 32.291667 65.38151 35.497396 62.145833 C 37.59375 59.976562 40.49349 58.769531 43.510417 58.8125 C 46.509115 58.763021 49.391927 59.971354 51.458333 62.145833 Z M 51.458333 62.145833 " transform="matrix(3,0,0,3,0,0)"/>
<path style="fill:none;stroke-width:0.3;stroke-linecap:round;stroke-linejoin:round;stroke:rgb(0%,0%,0%);stroke-opacity:1;stroke-miterlimit:4;" d="M 63.476562 70.027344 C 63.574219 75.346354 61.434896 80.46224 57.579427 84.127604 C 53.895833 87.949219 48.786458 90.063802 43.479167 89.960938 C 38.174479 90.046875 33.070312 87.936198 29.377604 84.127604 C 21.60026 76.335938 21.60026 63.71875 29.377604 55.925781 C 33.070312 52.11849 38.174479 50.00651 43.477865 50.092448 C 48.785156 49.990885 53.894531 52.104167 57.579427 55.925781 C 61.420573 59.601562 63.557292 64.710938 63.476562 70.027344 Z M 63.476562 70.027344 " transform="matrix(3,0,0,3,0,0)"/>
<path style="fill:none;stroke-width:0.6;stroke-linecap:round;stroke-linejoin:round;stroke:rgb(0%,0%,0%);stroke-opacity:1;stroke-miterlimit:4;" d="M 65.109375 70.027344 C 65.191406 75.769531 62.895833 81.291667 58.765625 85.282552 C 54.783854 89.425781 49.25651 91.72526 43.510417 91.627604 C 37.777344 91.639323 32.276042 89.367188 28.222656 85.313802 C 24.169271 81.260417 21.898438 75.759115 21.910156 70.027344 C 21.869792 64.286458 24.13151 58.768229 28.191406 54.708333 C 32.251302 50.648438 37.769531 48.386719 43.510417 48.427083 C 49.242188 48.415365 54.74349 50.6875 58.796875 54.740885 C 62.85026 58.794271 65.122396 64.294271 65.109375 70.027344 Z M 65.109375 70.027344 " transform="matrix(3,0,0,3,0,0)"/>
<path style=" stroke:none;fill-rule:nonzero;fill:rgb(98.431373%,76.078431%,9.803922%);fill-opacity:1;" d="M 153.664062 163.789062 C 153.664062 165.484375 152.292969 166.859375 150.597656 166.859375 C 148.902344 166.859375 147.527344 165.484375 147.527344 163.789062 C 147.527344 162.097656 148.902344 160.722656 150.597656 160.722656 C 152.292969 160.722656 153.664062 162.097656 153.664062 163.789062 Z M 153.664062 163.789062 "/>
<path style=" stroke:none;fill-rule:nonzero;fill:rgb(98.431373%,76.078431%,9.803922%);fill-opacity:1;" d="M 179.296875 191.222656 C 179.296875 192.917969 177.925781 194.292969 176.230469 194.292969 C 174.535156 194.292969 173.160156 192.917969 173.160156 191.222656 C 173.160156 189.527344 174.535156 188.152344 176.230469 188.152344 C 177.925781 188.152344 179.296875 189.527344 179.296875 191.222656 Z M 179.296875 191.222656 "/>
<path style=" stroke:none;fill-rule:nonzero;fill:rgb(98.431373%,76.078431%,9.803922%);fill-opacity:1;" d="M 179.296875 229.671875 C 179.296875 231.367188 177.925781 232.738281 176.230469 232.738281 C 174.535156 232.738281 173.160156 231.367188 173.160156 229.671875 C 173.160156 227.976562 174.535156 226.601562 176.230469 226.601562 C 177.925781 226.601562 179.296875 227.976562 179.296875 229.671875 Z M 179.296875 229.671875 "/>
<path style=" stroke:none;fill-rule:nonzero;fill:rgb(98.431373%,76.078431%,9.803922%);fill-opacity:1;" d="M 86.863281 191.222656 C 86.863281 192.917969 85.488281 194.292969 83.792969 194.292969 C 82.097656 194.292969 80.722656 192.917969 80.722656 191.222656 C 80.722656 189.527344 82.097656 188.152344 83.792969 188.152344 C 85.488281 188.152344 86.863281 189.527344 86.863281 191.222656 Z M 86.863281 191.222656 "/>
<path style=" stroke:none;fill-rule:nonzero;fill:rgb(98.431373%,76.078431%,9.803922%);fill-opacity:1;" d="M 86.863281 229.671875 C 86.863281 231.367188 85.488281 232.738281 83.792969 232.738281 C 82.097656 232.738281 80.722656 231.367188 80.722656 229.671875 C 80.722656 227.976562 82.097656 226.601562 83.792969 226.601562 C 85.488281 226.601562 86.863281 227.976562 86.863281 229.671875 Z M 86.863281 229.671875 "/>
<path style=" stroke:none;fill-rule:nonzero;fill:rgb(98.431373%,76.078431%,9.803922%);fill-opacity:1;" d="M 153.664062 256.707031 C 153.664062 258.402344 152.292969 259.777344 150.597656 259.777344 C 148.902344 259.777344 147.527344 258.402344 147.527344 256.707031 C 147.527344 255.011719 148.902344 253.636719 150.597656 253.636719 C 152.292969 253.636719 153.664062 255.011719 153.664062 256.707031 Z M 153.664062 256.707031 "/>
<path style=" stroke:none;fill-rule:nonzero;fill:rgb(98.431373%,76.078431%,9.803922%);fill-opacity:1;" d="M 112.015625 163.789062 C 112.015625 165.484375 110.640625 166.859375 108.945312 166.859375 C 107.25 166.859375 105.875 165.484375 105.875 163.789062 C 105.875 162.097656 107.25 160.722656 108.945312 160.722656 C 110.640625 160.722656 112.015625 162.097656 112.015625 163.789062 Z M 112.015625 163.789062 "/>
<path style=" stroke:none;fill-rule:nonzero;fill:rgb(98.431373%,76.078431%,9.803922%);fill-opacity:1;" d="M 112.015625 256.707031 C 112.015625 258.402344 110.640625 259.777344 108.945312 259.777344 C 107.25 259.777344 105.875 258.402344 105.875 256.707031 C 105.875 255.011719 107.25 253.636719 108.945312 253.636719 C 110.640625 253.636719 112.015625 255.011719 112.015625 256.707031 Z M 112.015625 256.707031 "/>
<path style=" stroke:none;fill-rule:nonzero;fill:rgb(98.431373%,76.078431%,9.803922%);fill-opacity:1;" d="M 117.789062 178.941406 C 109.777344 164.65625 120.859375 161.050781 125.53125 159.585938 C 130.207031 158.117188 130.203125 155.714844 130.203125 155.714844 C 131.597656 158.265625 134.238281 159.890625 137.144531 159.988281 C 142.484375 160.519531 149.828125 164.792969 144.488281 179.207031 C 140.148438 177.171875 135.398438 176.164062 130.605469 176.269531 C 123.796875 176.804688 125.398438 176.941406 117.789062 178.941406 Z M 117.789062 178.941406 "/>
<path style=" stroke:none;fill-rule:nonzero;fill:rgb(98.431373%,76.078431%,9.803922%);fill-opacity:1;" d="M 144.199219 179.304688 C 149.222656 164.902344 159.402344 169.519531 163.289062 171.789062 C 167.179688 174.058594 168.847656 172.558594 168.847656 172.558594 C 167.933594 175.082031 168.421875 177.902344 170.140625 179.96875 C 173.042969 183.949219 174 191.859375 163.019531 198.097656 C 160.484375 194 157.511719 190.1875 154.15625 186.730469 C 149.605469 182.417969 150.367188 182.089844 144.199219 179.304688 Z M 144.199219 179.304688 "/>
<path style=" stroke:none;fill-rule:nonzero;fill:rgb(98.431373%,76.078431%,9.803922%);fill-opacity:1;" d="M 162.890625 197.890625 C 176.789062 190.933594 180.136719 202.015625 181.320312 206.511719 C 182.503906 211.003906 184.78125 211.109375 184.78125 211.109375 C 182.300781 212.320312 180.644531 214.75 180.425781 217.5 C 179.683594 222.535156 174.027344 229.238281 161.488281 225.265625 C 163.238281 220.582031 164.214844 215.640625 164.375 210.640625 C 164.507812 206.34375 164.007812 202.046875 162.890625 197.890625 Z M 162.890625 197.890625 "/>
<path style=" stroke:none;fill-rule:nonzero;fill:rgb(98.431373%,76.078431%,9.803922%);fill-opacity:1;" d="M 161.695312 224.878906 C 175.984375 230.496094 170.742188 240.59375 168.222656 244.429688 C 165.703125 248.269531 167.128906 250.015625 167.128906 250.015625 C 164.601562 248.992188 161.722656 249.378906 159.558594 251.035156 C 155.367188 253.816406 147.046875 255.402344 142.363281 241.765625 C 146.585938 239.992188 150.496094 237.546875 153.9375 234.523438 C 158.554688 230.09375 158.527344 230.996094 161.695312 224.878906 Z M 161.695312 224.878906 "/>
<path style=" stroke:none;fill-rule:nonzero;fill:rgb(98.431373%,76.078431%,9.803922%);fill-opacity:1;" d="M 142.445312 241.695312 C 150.21875 256.457031 139.117188 259.996094 134.433594 261.433594 C 129.75 262.867188 129.714844 265.332031 129.714844 265.332031 C 128.386719 262.722656 125.777344 261.015625 122.855469 260.851562 C 117.535156 260.226562 110.28125 255.738281 115.820312 241.03125 C 120.171875 242.710938 124.808594 243.511719 129.472656 243.386719 C 133.859375 243.511719 138.238281 242.941406 142.445312 241.695312 Z M 142.445312 241.695312 "/>
<path style=" stroke:none;fill-rule:nonzero;fill:rgb(98.431373%,76.078431%,9.803922%);fill-opacity:1;" d="M 116.585938 240.984375 C 110.871094 256.332031 101.472656 251.214844 97.332031 248.59375 C 93.191406 245.976562 91.359375 247.535156 91.359375 247.535156 C 92.402344 244.820312 91.933594 241.757812 90.128906 239.476562 C 87.085938 235.058594 85.234375 226.21875 99.6875 220.96875 C 101.09375 225.75 103.511719 230.175781 106.78125 233.9375 C 109.304688 237.179688 112.707031 239.628906 116.585938 240.988281 Z M 116.585938 240.984375 "/>
<path style=" stroke:none;fill-rule:nonzero;fill:rgb(98.431373%,76.078431%,9.803922%);fill-opacity:1;" d="M 99.148438 221.308594 C 84.53125 228.136719 81.394531 218.183594 80.132812 213.742188 C 78.871094 209.304688 76.472656 209.191406 76.472656 209.191406 C 79.015625 208.0625 80.757812 205.660156 81.042969 202.894531 C 81.808594 197.921875 86.398438 191.25 100.566406 196.921875 C 98.351562 200.851562 97.136719 205.265625 97.027344 209.773438 C 97.261719 216.171875 97.480469 214.09375 99.148438 221.308594 Z M 99.148438 221.308594 "/>
<path style=" stroke:none;fill-rule:nonzero;fill:rgb(98.431373%,76.078431%,9.803922%);fill-opacity:1;" d="M 99.867188 196.828125 C 85.234375 190.34375 89.726562 180.511719 92.058594 176.707031 C 94.390625 172.902344 92.859375 171.398438 92.859375 171.398438 C 95.015625 172.515625 97.636719 172.195312 99.464844 170.597656 C 103.53125 167.96875 111.582031 167.695312 118.1875 178.90625 C 113.925781 180.738281 109.976562 183.222656 106.480469 186.273438 C 102.070312 190.570312 102.730469 190.726562 99.867188 196.832031 Z M 99.867188 196.828125 "/>
<path style=" stroke:none;fill-rule:nonzero;fill:rgb(81.568627%,60.784314%,2.745098%);fill-opacity:1;" d="M 122.058594 179.015625 C 116.824219 168.601562 124.066406 165.976562 127.117188 164.902344 C 130.171875 163.832031 130.171875 162.082031 130.171875 162.082031 C 131.011719 163.863281 132.746094 165.050781 134.710938 165.195312 C 138.199219 165.585938 142.996094 168.699219 139.507812 179.207031 C 136.714844 177.734375 133.589844 177 130.433594 177.070312 C 127.554688 177.261719 124.726562 177.917969 122.058594 179.015625 Z M 147.367188 182.824219 C 151.003906 174.164062 156.855469 176.40625 159.066406 177.5625 C 161.277344 178.714844 162.34375 177.761719 162.34375 177.761719 C 161.695312 179.160156 161.863281 180.800781 162.773438 182.042969 C 164.324219 184.242188 164.535156 188.832031 157.71875 192.980469 C 156.402344 190.703125 154.800781 188.601562 152.953125 186.726562 C 150.445312 184.402344 150.910156 184.175781 147.367188 182.824219 Z M 162.578125 203.714844 C 171.664062 200.320312 173.941406 205.914062 174.753906 208.179688 C 175.566406 210.445312 177.0625 210.515625 177.0625 210.515625 C 175.609375 210.980469 174.53125 212.199219 174.242188 213.695312 C 173.792969 216.222656 170.125 219.546875 161.851562 217.460938 C 162.953125 215.167969 163.566406 212.671875 163.648438 210.132812 C 163.699219 207.945312 163.335938 205.765625 162.578125 203.710938 Z M 158.550781 227.449219 C 168.320312 231.941406 165.289062 238.609375 163.789062 241.121094 C 162.289062 243.632812 163.316406 244.894531 163.316406 244.894531 C 161.710938 244.097656 159.800781 244.230469 158.324219 245.242188 C 155.660156 246.953125 150.195312 247.660156 146.457031 238.117188 C 149.164062 237.109375 151.664062 235.609375 153.828125 233.691406 C 155.996094 232.132812 157.640625 229.957031 158.554688 227.449219 Z M 136.570312 241.527344 C 140.867188 251.90625 134.683594 254.417969 132.070312 255.441406 C 129.460938 256.464844 129.433594 258.199219 129.433594 258.199219 C 128.835938 256.535156 127.375 255.328125 125.625 255.058594 C 122.671875 254.628906 118.636719 251.488281 121.753906 241.117188 C 124.113281 242.273438 126.71875 242.835938 129.34375 242.746094 C 131.8125 242.820312 134.269531 242.40625 136.574219 241.527344 Z M 113.605469 237.4375 C 109.316406 247.308594 103.492188 244.46875 100.945312 242.992188 C 98.394531 241.519531 97.152344 242.566406 97.152344 242.566406 C 97.917969 240.9375 97.738281 239.019531 96.6875 237.554688 C 94.910156 234.898438 94.078125 229.421875 103.5625 225.542969 C 104.253906 228.449219 105.636719 231.144531 107.59375 233.402344 C 109.109375 235.359375 111.21875 236.773438 113.605469 237.4375 Z M 99.433594 216.898438 C 88.882812 220.824219 86.554688 214.949219 85.609375 212.328125 C 84.667969 209.707031 82.925781 209.628906 82.925781 209.628906 C 84.605469 209.09375 85.859375 207.683594 86.195312 205.953125 C 86.722656 203.035156 90.003906 199.140625 100.300781 202.5625 C 98.757812 204.78125 97.894531 207.402344 97.820312 210.101562 C 97.910156 212.449219 98.460938 214.761719 99.433594 216.898438 Z M 104.039062 193.417969 C 94.320312 188.320312 96.652344 182.050781 97.9375 179.664062 C 99.222656 177.277344 98.160156 176.191406 98.160156 176.191406 C 99.453125 177.015625 101.121094 176.949219 102.34375 176.023438 C 104.800781 174.503906 109.941406 174.765625 114.785156 182.554688 C 112.183594 183.519531 109.777344 184.953125 107.695312 186.789062 C 105.109375 189.394531 105.535156 189.535156 104.035156 193.417969 Z M 104.039062 193.417969 "/>
<path style="fill-rule:nonzero;fill:rgb(98.431373%,76.078431%,9.803922%);fill-opacity:1;stroke-width:0.4;stroke-linecap:butt;stroke-linejoin:miter;stroke:rgb(0%,0%,0%);stroke-opacity:1;stroke-miterlimit:10;" d="M 52.023438 61.515625 C 51.690104 61.138021 51.322917 60.792969 50.924479 60.484375 C 47.246094 57.61849 42.24349 57.136719 38.08724 59.248698 C 36.927083 59.842448 35.861979 60.605469 34.928385 61.515625 C 33.884115 62.536458 33.045573 63.747396 32.459635 65.084635 C 31.763021 66.639323 31.411458 68.324219 31.428385 70.027344 C 31.424479 71.138021 31.5625 72.246094 31.839844 73.321615 C 32.395833 75.300781 33.460938 77.10026 34.929688 78.539062 C 36.160156 79.848958 37.691406 80.838542 39.390625 81.421875 C 40.714844 81.886719 42.108073 82.119792 43.510417 82.109375 C 46.074219 82.152344 48.580729 81.356771 50.64974 79.84375 C 51.139323 79.44401 51.598958 79.007812 52.022135 78.539062 C 53.067708 77.557292 53.928385 76.394531 54.5625 75.106771 C 55.257812 73.505208 55.609375 71.773438 55.592448 70.027344 C 55.645833 66.815104 54.351562 63.727865 52.022135 61.515625 " transform="matrix(3,0,0,3,0,0)"/>
<path style=" stroke:none;fill-rule:nonzero;fill:rgb(98.431373%,76.078431%,9.803922%);fill-opacity:1;" d="M 151.566406 188.359375 C 151.578125 188.507812 151.648438 188.648438 151.765625 188.746094 C 157.621094 194.28125 160.886719 202.023438 160.765625 210.082031 C 160.804688 214.453125 159.9375 218.78125 158.21875 222.800781 C 156.585938 226.023438 154.402344 228.9375 151.765625 231.410156 L 150.785156 232.390625 C 142.65625 240.019531 130.933594 242.4375 120.449219 238.648438 C 116.160156 237.140625 112.277344 234.664062 109.101562 231.40625 C 105.089844 227.53125 102.300781 222.5625 101.074219 217.121094 C 100.542969 214.8125 100.28125 212.449219 100.296875 210.078125 C 100.195312 202.0625 103.375 194.355469 109.101562 188.746094 C 111.300781 186.515625 113.804688 184.601562 116.539062 183.070312 C 128.140625 177.148438 142.226562 179.273438 151.566406 188.355469 "/>
<path style=" stroke:none;fill-rule:nonzero;fill:rgb(98.431373%,76.078431%,9.803922%);fill-opacity:1;" d="M 148.4375 188.359375 C 148.433594 188.085938 148.367188 187.820312 148.242188 187.578125 C 147.441406 187.574219 146.648438 187.441406 145.894531 187.183594 C 145.222656 187.050781 144.566406 186.851562 143.933594 186.597656 C 143.582031 186.367188 143.253906 186.105469 142.957031 185.8125 C 142.039062 185.257812 141.183594 184.601562 140.410156 183.859375 C 139.019531 182.570312 137.21875 181.808594 135.324219 181.703125 C 133.210938 181.179688 131.007812 181.113281 128.863281 181.507812 C 127.125 181.875 125.421875 182.398438 123.777344 183.074219 C 123.363281 183.21875 122.96875 183.414062 122.605469 183.660156 C 122.183594 183.949219 121.789062 184.277344 121.429688 184.640625 L 121.039062 185.03125 C 120.890625 185.023438 120.746094 184.953125 120.648438 184.835938 C 120.453125 184.332031 120.324219 183.804688 120.257812 183.269531 C 120.027344 183.507812 119.765625 183.707031 119.472656 183.859375 C 118.828125 184.472656 118.101562 184.996094 117.320312 185.425781 C 117.144531 185.582031 116.949219 185.714844 116.734375 185.8125 C 116.191406 186.214844 115.597656 186.546875 114.972656 186.792969 C 113.867188 187.140625 112.863281 187.742188 112.035156 188.554688 L 109.296875 191.296875 C 108.4375 192.238281 107.832031 193.382812 107.535156 194.621094 C 107.1875 195.867188 106.660156 197.050781 105.96875 198.144531 C 105.816406 198.460938 105.6875 198.789062 105.578125 199.121094 L 105.382812 199.121094 C 105.074219 199.261719 104.738281 199.328125 104.402344 199.316406 C 104.035156 199.433594 103.699219 199.636719 103.425781 199.90625 C 103.15625 200.769531 103.300781 201.707031 103.816406 202.449219 C 103.867188 202.441406 103.921875 202.457031 103.960938 202.496094 C 104 202.535156 104.019531 202.589844 104.011719 202.644531 C 104.007812 203.585938 103.804688 204.519531 103.425781 205.382812 C 103.261719 205.851562 103.066406 206.3125 102.835938 206.753906 C 102.578125 207.535156 102.316406 208.253906 102.058594 208.90625 C 101.535156 210.742188 101.746094 212.703125 102.640625 214.386719 L 103.425781 215.5625 C 103.945312 216.605469 104.535156 217.648438 105.1875 218.691406 C 105.5625 219.269531 105.703125 219.972656 105.574219 220.648438 L 104.011719 220.84375 C 103.492188 220.84375 103.621094 221.105469 104.402344 221.625 C 105.945312 223.03125 107.324219 224.609375 108.511719 226.324219 C 108.648438 226.742188 108.847656 227.140625 109.101562 227.5 C 109.503906 228.179688 109.832031 228.898438 110.078125 229.648438 C 110.707031 230.796875 111.574219 231.800781 112.621094 232.585938 C 113.246094 232.964844 113.902344 233.292969 114.578125 233.566406 L 118.300781 233.566406 L 117.320312 235.71875 C 118.785156 235.324219 120.308594 235.195312 121.820312 235.328125 C 122.214844 235.457031 122.671875 235.585938 123.191406 235.71875 C 124.726562 236.285156 126.230469 236.9375 127.691406 237.675781 C 128.089844 237.695312 128.484375 237.761719 128.863281 237.871094 C 131.578125 238.132812 134.320312 237.800781 136.890625 236.890625 C 138.363281 236.425781 139.703125 235.621094 140.804688 234.542969 C 141.179688 235.308594 141.800781 235.929688 142.566406 236.304688 L 142.957031 236.695312 C 142.910156 234.941406 143.910156 233.324219 145.5 232.585938 C 145.847656 232.265625 146.246094 232 146.675781 231.804688 L 147.847656 231.214844 C 148.25 230.816406 148.714844 230.488281 149.21875 230.238281 C 149.585938 230.121094 149.921875 229.921875 150.199219 229.648438 C 150.425781 229.300781 150.6875 228.972656 150.976562 228.671875 C 151.683594 227.695312 152.472656 226.78125 153.328125 225.933594 C 153.964844 225.320312 154.320312 224.46875 154.308594 223.585938 C 154.4375 222.28125 154.699219 221.691406 155.089844 221.824219 L 157.046875 221.824219 C 156.535156 220.863281 156.398438 219.746094 156.65625 218.691406 C 156.769531 218.175781 156.835938 217.652344 156.851562 217.125 C 157.101562 216.625 157.300781 216.101562 157.4375 215.5625 C 157.539062 214.734375 157.804688 213.9375 158.21875 213.214844 C 158.597656 212.472656 158.859375 211.683594 159.003906 210.863281 C 159.269531 208.953125 159.070312 207.003906 158.417969 205.1875 C 158.015625 204.390625 157.488281 203.664062 156.851562 203.035156 C 157.277344 202.738281 157.613281 202.332031 157.828125 201.859375 C 157.960938 201.859375 158.15625 201.664062 158.417969 201.273438 L 158.417969 201.078125 C 157.496094 201.074219 156.625 200.640625 156.070312 199.90625 C 155.820312 199.398438 155.488281 198.933594 155.089844 198.535156 C 154.960938 198.144531 154.828125 197.6875 154.699219 197.164062 C 154.4375 196.511719 154.242188 195.988281 154.109375 195.601562 C 153.792969 194.84375 153.402344 194.121094 152.941406 193.445312 C 152.527344 192.769531 151.996094 192.171875 151.371094 191.683594 C 150.59375 190.773438 149.578125 190.097656 148.4375 189.730469 C 147.785156 189.730469 147.71875 189.53125 148.238281 189.140625 C 148.363281 188.898438 148.433594 188.632812 148.4375 188.359375 "/>
<path style=" stroke:none;fill-rule:nonzero;fill:rgb(98.431373%,76.078431%,9.803922%);fill-opacity:1;" d="M 151.371094 195.988281 C 151.382812 195.839844 151.453125 195.699219 151.566406 195.601562 C 151.449219 195.914062 151.386719 196.242188 151.371094 196.578125 L 151.371094 198.339844 C 151.511719 199.683594 151.839844 201 152.347656 202.253906 C 152.84375 202.980469 153.238281 203.769531 153.523438 204.601562 C 154.03125 205.71875 154.359375 206.90625 154.503906 208.125 C 154.496094 208.71875 154.429688 209.308594 154.308594 209.886719 C 154.316406 210.496094 154.183594 211.097656 153.917969 211.648438 C 153.625 211.945312 153.363281 212.273438 153.132812 212.625 C 152.84375 213.066406 152.582031 213.523438 152.351562 213.996094 C 152.210938 214.332031 152.285156 214.71875 152.546875 214.972656 L 154.503906 214.585938 C 154.199219 215.164062 153.800781 215.691406 153.328125 216.148438 C 152.570312 217.253906 152.101562 218.53125 151.960938 219.867188 C 151.828125 220.378906 151.765625 220.90625 151.765625 221.433594 C 151.808594 222.226562 151.527344 223.003906 150.980469 223.585938 C 149.972656 224.863281 148.613281 225.816406 147.066406 226.324219 C 146.4375 226.355469 145.828125 226.558594 145.304688 226.910156 C 144.941406 227.160156 144.546875 227.355469 144.132812 227.5 C 143.707031 227.785156 143.316406 228.113281 142.957031 228.476562 C 142.632812 229.078125 142.058594 229.507812 141.390625 229.648438 C 142.398438 229.890625 143.335938 230.359375 144.132812 231.019531 L 144.132812 231.410156 C 141.824219 230.953125 139.460938 231.867188 138.0625 233.761719 C 137.664062 234.15625 137.199219 234.488281 136.695312 234.738281 C 135.40625 235.136719 134.019531 235.070312 132.78125 234.542969 C 132.101562 234.269531 131.449219 233.941406 130.824219 233.566406 L 130.433594 233.371094 L 129.648438 232.980469 C 128.644531 232.523438 127.464844 232.757812 126.714844 233.566406 C 126.660156 233.558594 126.605469 233.578125 126.570312 233.613281 C 126.53125 233.652344 126.511719 233.707031 126.519531 233.761719 L 126.320312 233.953125 C 125.351562 233.132812 124.304688 232.414062 123.191406 231.804688 C 122.496094 231.53125 121.773438 231.332031 121.039062 231.214844 C 119.566406 231.234375 118.105469 230.96875 116.734375 230.4375 C 116.285156 230.269531 115.886719 230 115.558594 229.648438 C 115.066406 229.550781 114.679688 229.164062 114.578125 228.671875 C 114.570312 228.519531 114.5 228.378906 114.382812 228.28125 C 114.007812 227.65625 113.679688 227 113.40625 226.324219 C 113.128906 225.667969 112.648438 225.117188 112.035156 224.757812 C 110.285156 223.296875 108.9375 221.410156 108.121094 219.277344 C 107.855469 218.59375 107.722656 217.863281 107.734375 217.125 C 107.859375 215.820312 107.925781 214.386719 107.925781 212.820312 L 107.925781 211.453125 C 107.992188 211.035156 107.882812 210.609375 107.621094 210.277344 C 107.363281 209.941406 106.976562 209.730469 106.558594 209.691406 C 106.082031 209.777344 105.664062 210.058594 105.402344 210.46875 C 105.140625 210.875 105.0625 211.375 105.1875 211.84375 L 104.796875 211.0625 L 104.796875 209.101562 C 105.4375 208.070312 106.15625 207.085938 106.945312 206.164062 C 107.429688 205.640625 107.824219 205.046875 108.121094 204.402344 C 108.640625 203.894531 108.859375 203.15625 108.707031 202.445312 C 108.722656 201.789062 108.65625 201.132812 108.511719 200.488281 C 108.371094 199.910156 108.371094 199.304688 108.511719 198.726562 C 109.070312 197.53125 109.953125 196.515625 111.058594 195.792969 C 111.464844 195.527344 111.941406 195.390625 112.429688 195.402344 C 112.527344 195.285156 112.667969 195.214844 112.816406 195.203125 L 113.601562 195.203125 C 113.65625 195.210938 113.707031 195.191406 113.746094 195.15625 C 113.785156 195.117188 113.804688 195.0625 113.796875 195.007812 C 114.316406 195.007812 114.578125 194.8125 114.578125 194.421875 L 114.777344 194.421875 C 114.828125 193.777344 114.613281 193.144531 114.1875 192.660156 C 113.882812 192.519531 113.546875 192.453125 113.210938 192.464844 L 113.210938 192.660156 C 112.996094 192.675781 112.785156 192.605469 112.621094 192.464844 C 112.621094 192.191406 112.554688 191.925781 112.429688 191.683594 C 112.542969 191.195312 112.742188 190.730469 113.011719 190.3125 C 114.253906 190.183594 115.511719 190.25 116.734375 190.507812 C 117.648438 190.378906 118.496094 190.246094 119.277344 190.117188 C 119.976562 189.898438 120.636719 189.566406 121.234375 189.136719 C 121.753906 188.746094 122.210938 188.421875 122.605469 188.160156 C 123.789062 186.976562 125.101562 185.925781 126.519531 185.027344 C 127.195312 184.753906 127.851562 184.425781 128.476562 184.050781 L 129.0625 184.050781 C 129.65625 184.058594 130.246094 184.121094 130.824219 184.246094 C 131.894531 184.925781 132.769531 185.867188 133.367188 186.984375 C 133.367188 187.242188 133.628906 187.113281 134.148438 186.59375 C 134.410156 185.96875 134.410156 185.261719 134.148438 184.636719 C 133.628906 183.722656 133.628906 183.203125 134.148438 183.070312 C 134.820312 183.210938 135.4375 183.554688 135.910156 184.050781 C 137.308594 185.46875 138.8125 186.777344 140.410156 187.964844 C 141.378906 188.832031 142.511719 189.5 143.742188 189.921875 C 144.605469 189.773438 145.484375 190.066406 146.089844 190.699219 C 146.375 191.125 146.703125 191.519531 147.066406 191.878906 C 147.753906 192.578125 148.347656 193.367188 148.828125 194.226562 C 149.074219 194.589844 149.273438 194.984375 149.414062 195.398438 C 149.675781 195.921875 149.933594 196.507812 150.195312 197.164062 C 150.707031 196.914062 151.121094 196.5 151.371094 195.988281 "/>
<path style=" stroke:none;fill-rule:nonzero;fill:rgb(98.431373%,76.078431%,9.803922%);fill-opacity:1;" d="M 151.765625 209.886719 C 151.777344 208.300781 151.582031 206.722656 151.175781 205.1875 C 150.398438 201.285156 148.414062 197.722656 145.5 195.011719 C 141.585938 190.890625 136.113281 188.617188 130.429688 188.75 C 126.699219 188.699219 123.035156 189.71875 119.863281 191.683594 C 118.277344 192.582031 116.828125 193.703125 115.558594 195.011719 C 113.671875 196.867188 112.144531 199.058594 111.058594 201.472656 C 109.875 204.117188 109.273438 206.988281 109.296875 209.886719 C 109.296875 210.542969 109.363281 211.199219 109.492188 211.84375 C 109.828125 216.8125 111.988281 221.480469 115.558594 224.953125 C 117.910156 227.351562 120.792969 229.164062 123.976562 230.238281 C 126.085938 230.761719 128.253906 231.027344 130.429688 231.019531 C 136.074219 231.164062 141.527344 228.96875 145.5 224.953125 C 147.242188 223.242188 148.695312 221.261719 149.804688 219.085938 C 150.328125 217.777344 150.785156 216.539062 151.175781 215.363281 C 151.566406 213.5625 151.761719 211.726562 151.765625 209.886719 Z M 151.765625 209.886719 "/>
<path style=" stroke:none;fill-rule:nonzero;fill:rgb(0%,0%,0%);fill-opacity:1;" d="M 151.765625 188.75 C 151.648438 188.652344 151.578125 188.511719 151.566406 188.359375 C 142.226562 179.277344 128.140625 177.152344 116.539062 183.074219 C 113.800781 184.605469 111.296875 186.515625 109.097656 188.75 C 103.371094 194.359375 100.191406 202.066406 100.292969 210.082031 C 100.28125 212.453125 100.542969 214.816406 101.074219 217.125 C 102.300781 222.566406 105.089844 227.53125 109.101562 231.410156 C 112.277344 234.667969 116.160156 237.144531 120.449219 238.652344 C 130.933594 242.441406 142.65625 240.023438 150.785156 232.390625 L 151.765625 231.410156 C 154.402344 228.9375 156.585938 226.023438 158.21875 222.800781 C 159.9375 218.78125 160.804688 214.453125 160.765625 210.082031 C 160.886719 202.023438 157.621094 194.285156 151.765625 188.75 M 148.238281 187.574219 C 148.5 188.0625 148.5 188.652344 148.238281 189.140625 C 147.71875 189.53125 147.785156 189.730469 148.4375 189.730469 C 149.578125 190.097656 150.59375 190.773438 151.371094 191.683594 C 151.992188 192.171875 152.523438 192.769531 152.9375 193.445312 C 153.402344 194.121094 153.792969 194.84375 154.109375 195.601562 C 154.242188 195.988281 154.4375 196.511719 154.699219 197.164062 C 154.828125 197.6875 154.957031 198.140625 155.089844 198.535156 C 155.488281 198.933594 155.820312 199.398438 156.070312 199.90625 C 156.625 200.640625 157.496094 201.074219 158.417969 201.078125 L 158.417969 201.273438 C 158.15625 201.664062 157.960938 201.859375 157.828125 201.859375 C 157.613281 202.332031 157.277344 202.738281 156.851562 203.035156 C 157.488281 203.664062 158.015625 204.390625 158.417969 205.1875 C 159.066406 207.003906 159.265625 208.953125 159 210.863281 C 158.859375 211.679688 158.597656 212.472656 158.21875 213.214844 C 157.804688 213.933594 157.535156 214.734375 157.433594 215.5625 C 157.296875 216.101562 157.101562 216.625 156.847656 217.125 C 156.832031 217.652344 156.769531 218.175781 156.652344 218.691406 C 156.394531 219.746094 156.53125 220.863281 157.042969 221.824219 L 155.089844 221.824219 C 154.695312 221.691406 154.433594 222.28125 154.304688 223.585938 C 154.316406 224.46875 153.964844 225.320312 153.328125 225.933594 C 152.46875 226.78125 151.683594 227.695312 150.976562 228.671875 C 150.6875 228.972656 150.421875 229.300781 150.195312 229.648438 C 149.917969 229.921875 149.585938 230.121094 149.21875 230.238281 C 148.710938 230.488281 148.246094 230.816406 147.847656 231.214844 L 146.671875 231.804688 C 146.242188 232 145.847656 232.265625 145.496094 232.585938 C 143.90625 233.324219 142.90625 234.941406 142.953125 236.695312 L 142.5625 236.304688 C 141.796875 235.929688 141.175781 235.308594 140.800781 234.542969 C 139.699219 235.621094 138.359375 236.425781 136.886719 236.890625 C 134.316406 237.800781 131.578125 238.132812 128.863281 237.871094 C 128.480469 237.761719 128.085938 237.695312 127.6875 237.675781 C 126.226562 236.9375 124.726562 236.285156 123.1875 235.71875 C 122.667969 235.585938 122.210938 235.457031 121.816406 235.328125 C 120.308594 235.195312 118.785156 235.324219 117.316406 235.71875 L 118.296875 233.566406 L 114.574219 233.566406 C 113.898438 233.292969 113.246094 232.964844 112.621094 232.585938 C 111.574219 231.800781 110.707031 230.796875 110.074219 229.648438 C 109.828125 228.898438 109.5 228.179688 109.097656 227.5 C 108.84375 227.140625 108.644531 226.742188 108.511719 226.324219 C 107.320312 224.609375 105.941406 223.035156 104.398438 221.628906 C 103.617188 221.105469 103.488281 220.84375 104.011719 220.84375 L 105.574219 220.648438 C 105.703125 219.972656 105.5625 219.269531 105.1875 218.691406 C 104.53125 217.648438 103.945312 216.605469 103.421875 215.5625 L 102.640625 214.386719 C 101.742188 212.707031 101.53125 210.742188 102.050781 208.90625 C 102.3125 208.253906 102.570312 207.535156 102.835938 206.753906 C 103.0625 206.3125 103.257812 205.851562 103.421875 205.382812 C 103.804688 204.519531 104.003906 203.585938 104.011719 202.644531 C 104.015625 202.589844 104 202.535156 103.960938 202.5 C 103.921875 202.460938 103.867188 202.441406 103.816406 202.449219 C 103.300781 201.707031 103.15625 200.769531 103.425781 199.90625 C 103.699219 199.636719 104.035156 199.433594 104.398438 199.316406 C 104.738281 199.328125 105.070312 199.261719 105.378906 199.121094 L 105.574219 199.121094 C 105.683594 198.789062 105.8125 198.460938 105.964844 198.144531 C 106.65625 197.050781 107.183594 195.867188 107.53125 194.621094 C 107.828125 193.378906 108.433594 192.234375 109.292969 191.292969 L 112.03125 188.554688 C 112.859375 187.742188 113.867188 187.140625 114.96875 186.792969 C 115.597656 186.546875 116.1875 186.214844 116.730469 185.8125 C 116.945312 185.714844 117.144531 185.582031 117.316406 185.425781 C 118.101562 184.996094 118.824219 184.472656 119.46875 183.859375 C 119.761719 183.707031 120.023438 183.507812 120.253906 183.269531 C 120.316406 183.804688 120.449219 184.332031 120.640625 184.835938 C 120.742188 184.953125 120.882812 185.023438 121.035156 185.03125 L 121.425781 184.640625 C 121.785156 184.277344 122.175781 183.949219 122.601562 183.660156 C 122.964844 183.414062 123.359375 183.21875 123.773438 183.074219 C 125.417969 182.398438 127.121094 181.875 128.863281 181.507812 C 131.003906 181.113281 133.207031 181.179688 135.320312 181.703125 C 137.214844 181.808594 139.015625 182.570312 140.410156 183.859375 C 141.179688 184.601562 142.035156 185.257812 142.953125 185.8125 C 143.253906 186.105469 143.582031 186.367188 143.929688 186.597656 C 144.566406 186.851562 145.21875 187.050781 145.890625 187.183594 C 146.648438 187.441406 147.441406 187.574219 148.238281 187.574219 M 151.566406 195.601562 C 151.449219 195.699219 151.378906 195.839844 151.367188 195.988281 C 151.117188 196.5 150.707031 196.914062 150.195312 197.164062 C 149.933594 196.511719 149.675781 195.925781 149.410156 195.402344 C 149.269531 194.988281 149.070312 194.59375 148.824219 194.230469 C 148.34375 193.375 147.753906 192.582031 147.0625 191.878906 C 146.699219 191.523438 146.371094 191.128906 146.085938 190.707031 C 145.480469 190.070312 144.601562 189.777344 143.734375 189.925781 C 142.507812 189.5 141.375 188.835938 140.410156 187.96875 C 138.808594 186.78125 137.304688 185.472656 135.910156 184.054688 C 135.433594 183.558594 134.820312 183.214844 134.148438 183.074219 C 133.625 183.203125 133.625 183.726562 134.148438 184.640625 C 134.410156 185.265625 134.410156 185.972656 134.148438 186.597656 C 133.625 187.117188 133.363281 187.246094 133.363281 186.988281 C 132.765625 185.871094 131.890625 184.925781 130.820312 184.246094 C 130.242188 184.125 129.652344 184.058594 129.058594 184.054688 L 128.472656 184.054688 C 127.847656 184.429688 127.191406 184.757812 126.515625 185.03125 C 125.101562 185.929688 123.789062 186.980469 122.601562 188.164062 C 122.210938 188.421875 121.753906 188.75 121.230469 189.140625 C 120.632812 189.570312 119.972656 189.898438 119.273438 190.117188 C 118.492188 190.25 117.644531 190.378906 116.730469 190.507812 C 115.507812 190.253906 114.253906 190.1875 113.011719 190.3125 C 112.738281 190.734375 112.539062 191.199219 112.425781 191.683594 C 112.550781 191.925781 112.617188 192.195312 112.621094 192.46875 C 112.78125 192.609375 112.992188 192.679688 113.207031 192.664062 L 113.207031 192.46875 C 113.542969 192.457031 113.878906 192.523438 114.1875 192.664062 C 114.609375 193.148438 114.824219 193.78125 114.773438 194.425781 L 114.574219 194.425781 C 114.574219 194.816406 114.316406 195.011719 113.796875 195.011719 C 113.804688 195.066406 113.785156 195.121094 113.746094 195.160156 C 113.707031 195.195312 113.652344 195.214844 113.597656 195.207031 L 112.816406 195.207031 C 112.664062 195.21875 112.523438 195.289062 112.425781 195.40625 C 111.9375 195.394531 111.460938 195.53125 111.054688 195.796875 C 109.949219 196.515625 109.066406 197.53125 108.511719 198.730469 C 108.367188 199.308594 108.367188 199.914062 108.511719 200.492188 C 108.652344 201.136719 108.71875 201.792969 108.703125 202.449219 C 108.859375 203.15625 108.636719 203.894531 108.121094 204.40625 C 107.820312 205.050781 107.425781 205.644531 106.945312 206.164062 C 106.15625 207.089844 105.433594 208.070312 104.792969 209.101562 L 104.792969 211.058594 L 105.183594 211.84375 C 105.0625 211.375 105.140625 210.875 105.398438 210.46875 C 105.660156 210.058594 106.078125 209.777344 106.554688 209.691406 C 106.976562 209.730469 107.359375 209.941406 107.621094 210.273438 C 107.878906 210.609375 107.992188 211.035156 107.925781 211.453125 L 107.925781 212.820312 C 107.925781 214.386719 107.859375 215.820312 107.726562 217.125 C 107.71875 217.863281 107.851562 218.59375 108.117188 219.277344 C 108.929688 221.410156 110.277344 223.296875 112.03125 224.761719 C 112.644531 225.121094 113.125 225.667969 113.402344 226.324219 C 113.675781 227 114.003906 227.65625 114.382812 228.28125 C 114.496094 228.378906 114.566406 228.519531 114.574219 228.671875 C 114.675781 229.164062 115.0625 229.550781 115.558594 229.648438 C 115.882812 230 116.285156 230.265625 116.730469 230.433594 C 118.101562 230.96875 119.5625 231.234375 121.035156 231.214844 C 121.773438 231.332031 122.496094 231.53125 123.1875 231.804688 C 124.300781 232.414062 125.351562 233.136719 126.316406 233.957031 L 126.515625 233.761719 C 126.507812 233.707031 126.527344 233.652344 126.566406 233.613281 C 126.605469 233.578125 126.65625 233.558594 126.710938 233.566406 C 127.460938 232.757812 128.640625 232.519531 129.644531 232.976562 L 130.429688 233.367188 L 130.816406 233.566406 C 131.445312 233.941406 132.097656 234.269531 132.777344 234.542969 C 134.019531 235.070312 135.40625 235.136719 136.691406 234.738281 C 137.199219 234.488281 137.660156 234.15625 138.058594 233.761719 C 139.457031 231.867188 141.824219 230.953125 144.128906 231.414062 L 144.128906 231.019531 C 143.332031 230.359375 142.394531 229.890625 141.386719 229.648438 C 142.054688 229.507812 142.628906 229.078125 142.953125 228.476562 C 143.3125 228.113281 143.707031 227.785156 144.128906 227.5 C 144.542969 227.355469 144.9375 227.160156 145.300781 226.910156 C 145.824219 226.558594 146.433594 226.355469 147.0625 226.324219 C 148.609375 225.816406 149.972656 224.863281 150.976562 223.585938 C 151.519531 223.003906 151.804688 222.226562 151.757812 221.433594 C 151.757812 220.90625 151.824219 220.378906 151.957031 219.867188 C 152.097656 218.53125 152.566406 217.253906 153.328125 216.148438 C 153.800781 215.691406 154.195312 215.164062 154.5 214.582031 L 152.542969 214.972656 C 152.285156 214.714844 152.207031 214.332031 152.347656 213.996094 C 152.582031 213.523438 152.839844 213.066406 153.128906 212.625 C 153.359375 212.273438 153.621094 211.945312 153.910156 211.648438 C 154.179688 211.097656 154.3125 210.496094 154.300781 209.886719 C 154.425781 209.308594 154.492188 208.71875 154.5 208.125 C 154.359375 206.90625 154.027344 205.71875 153.523438 204.601562 C 153.238281 203.769531 152.84375 202.980469 152.347656 202.253906 C 151.839844 201 151.507812 199.683594 151.367188 198.339844 L 151.367188 196.578125 C 151.382812 196.242188 151.449219 195.914062 151.566406 195.601562 M 151.171875 205.1875 C 151.578125 206.722656 151.773438 208.300781 151.761719 209.886719 C 151.757812 211.726562 151.5625 213.5625 151.171875 215.363281 C 150.78125 216.539062 150.324219 217.777344 149.800781 219.085938 C 148.695312 221.261719 147.238281 223.242188 145.496094 224.953125 C 141.527344 228.96875 136.074219 231.164062 130.429688 231.019531 C 128.253906 231.027344 126.082031 230.765625 123.972656 230.242188 C 120.789062 229.164062 117.90625 227.355469 115.558594 224.953125 C 111.988281 221.484375 109.824219 216.8125 109.488281 211.84375 C 109.359375 211.199219 109.292969 210.542969 109.292969 209.886719 C 109.273438 206.988281 109.871094 204.117188 111.054688 201.472656 C 112.140625 199.058594 113.667969 196.867188 115.554688 195.011719 C 116.824219 193.703125 118.273438 192.582031 119.863281 191.683594 C 123.03125 189.71875 126.699219 188.699219 130.429688 188.746094 C 136.109375 188.613281 141.582031 190.890625 145.496094 195.011719 C 148.410156 197.722656 150.394531 201.285156 151.171875 205.1875 Z M 151.171875 205.1875 "/>
<path style="fill:none;stroke-width:0.3;stroke-linecap:round;stroke-linejoin:round;stroke:rgb(0%,0%,0%);stroke-opacity:1;stroke-miterlimit:4;" d="M 38.769531 68.803385 C 38.769531 68.803385 39.752604 70.075521 42.114583 68.984375 C 41.776042 68.39974 41.166667 68.026042 40.492188 67.989583 C 39.817708 67.951823 39.170573 68.257812 38.770833 68.803385 Z M 38.769531 68.803385 " transform="matrix(3,0,0,3,0,0)"/>
<path style=" stroke:none;fill-rule:nonzero;fill:rgb(0%,0%,0%);fill-opacity:1;" d="M 123.289062 206.246094 C 123.289062 205.011719 122.339844 204.011719 121.164062 204.011719 C 119.988281 204.011719 119.035156 205.011719 119.035156 206.246094 C 119.035156 207.480469 119.988281 208.480469 121.164062 208.480469 C 122.339844 208.480469 123.289062 207.480469 123.289062 206.246094 Z M 123.289062 206.246094 "/>
<path style=" stroke:none;fill-rule:nonzero;fill:rgb(100%,100%,100%);fill-opacity:1;" d="M 121.546875 204.992188 C 121.546875 205.355469 121.253906 205.648438 120.890625 205.648438 C 120.53125 205.648438 120.238281 205.355469 120.238281 204.992188 C 120.238281 204.632812 120.53125 204.339844 120.890625 204.339844 C 121.253906 204.339844 121.546875 204.632812 121.546875 204.992188 Z M 121.546875 204.992188 "/>
<path style="fill:none;stroke-width:0.3;stroke-linecap:round;stroke-linejoin:round;stroke:rgb(0%,0%,0%);stroke-opacity:1;stroke-miterlimit:4;" d="M 38.515625 67.93099 C 39.575521 67.352865 40.894531 67.595052 41.678385 68.513021 M 48.063802 68.898438 C 48.063802 68.898438 47.083333 70.170573 44.720052 69.079427 C 45.057292 68.494792 45.667969 68.119792 46.342448 68.083333 C 47.016927 68.046875 47.665365 68.352865 48.063802 68.898438 Z M 48.063802 68.898438 " transform="matrix(3,0,0,3,0,0)"/>
<path style=" stroke:none;fill-rule:nonzero;fill:rgb(0%,0%,0%);fill-opacity:1;" d="M 141.46875 206.527344 C 141.46875 205.292969 140.515625 204.292969 139.339844 204.292969 C 138.167969 204.292969 137.214844 205.292969 137.214844 206.527344 C 137.214844 207.761719 138.167969 208.765625 139.339844 208.765625 C 140.515625 208.765625 141.46875 207.761719 141.46875 206.527344 Z M 141.46875 206.527344 "/>
<path style=" stroke:none;fill-rule:nonzero;fill:rgb(100%,100%,100%);fill-opacity:1;" d="M 140.265625 205.273438 C 140.265625 205.636719 139.972656 205.929688 139.609375 205.929688 C 139.25 205.929688 138.957031 205.636719 138.957031 205.273438 C 138.957031 204.914062 139.25 204.621094 139.609375 204.621094 C 139.972656 204.621094 140.265625 204.914062 140.265625 205.273438 Z M 140.265625 205.273438 "/>
<path style="fill:none;stroke-width:0.3;stroke-linecap:round;stroke-linejoin:round;stroke:rgb(0%,0%,0%);stroke-opacity:1;stroke-miterlimit:4;" d="M 48.317708 68.026042 C 47.259115 67.446615 45.940104 67.690104 45.15625 68.606771 M 38.588542 66.441406 C 38.588542 66.441406 41.678385 66.36849 42.151042 66.476562 C 42.652344 66.709635 42.986979 67.196615 43.023438 67.748698 C 43.028646 68.307292 43.003906 68.865885 42.950521 69.420573 " transform="matrix(3,0,0,3,0,0)"/>
<path style="fill:none;stroke-width:0.3;stroke-linecap:round;stroke-linejoin:round;stroke:rgb(0%,0%,0%);stroke-opacity:1;stroke-miterlimit:4;" d="M 47.783854 66.585938 C 46.776042 66.398438 45.74349 66.385417 44.730469 66.549479 C 44.186198 66.731771 44.259115 66.985677 44.186198 67.277344 C 44.10026 68.24349 44.08724 69.216146 44.14974 70.183594 M 42.041667 71.130208 C 42.367188 71.28125 42.66276 71.490885 42.914062 71.747396 C 43.058594 72.002604 43.567708 72.002604 43.786458 71.856771 C 44.079427 71.630208 44.41276 71.457031 44.766927 71.346354 C 45.13151 71.27474 44.839844 70.730469 44.839844 70.730469 M 43.920573 73.05599 C 43.808594 73.190104 43.653646 73.279948 43.483073 73.309896 C 43.265625 73.309896 43.15625 73.019531 42.9375 73.019531 C 42.720052 73.019531 42.488281 73.246094 42.138021 73.346354 C 41.820312 73.44401 41.489583 73.49349 41.157552 73.492188 C 44.065104 74.157552 45.33724 73.528646 45.33724 73.528646 C 45.036458 73.447917 44.74349 73.338542 44.463542 73.200521 C 44.246094 73.05599 44.063802 72.983073 43.919271 73.05599 Z M 43.920573 73.05599 " transform="matrix(3,0,0,3,0,0)"/>
<path style="fill:none;stroke-width:0.3;stroke-linecap:round;stroke-linejoin:round;stroke:rgb(0%,0%,0%);stroke-opacity:1;stroke-miterlimit:4;" d="M 45.010417 73.697917 C 45.010417 73.697917 44.403646 74.860677 43.446615 74.946615 C 42.940104 74.942708 42.466146 74.69401 42.174479 74.278646 C 41.983073 74.022135 41.763021 73.786458 41.519531 73.576823 " transform="matrix(3,0,0,3,0,0)"/>
</g>
</svg>
