<?xml version="1.0" encoding="UTF-8"?>
<svg xmlns="http://www.w3.org/2000/svg" xmlns:xlink="http://www.w3.org/1999/xlink" width="261px" height="420px" viewBox="0 0 261 426" version="1.1">
<g id="surface1">
<path style=" stroke:none;fill-rule:nonzero;fill:rgb(100%,100%,100%);fill-opacity:1;" d="M 18 0 L 243 0 C 252.941406 0 261 8.058594 261 18 L 261 402 C 261 411.941406 252.941406 420 243 420 L 18 420 C 8.058594 420 0 411.941406 0 402 L 0 18 C 0 8.058594 8.058594 0 18 0 Z M 18 0 "/>
<path style=" stroke:none;fill-rule:nonzero;fill:rgb(80%,80%,80%);fill-opacity:1;" d="M 185.101562 111 C 185.101562 111 183 127.5 194.699219 130.5 C 194.699219 130.800781 187.199219 132.898438 183.300781 123.898438 C 182.636719 120.230469 182.636719 116.46875 183.300781 112.800781 Z M 181.199219 75.601562 C 184.699219 72.878906 189.367188 72.195312 193.5 73.800781 C 199.800781 76.800781 199.5 84 195.898438 90.898438 C 193.996094 94.714844 191.574219 98.25 188.699219 101.398438 L 188.101562 95.398438 C 188.101562 95.398438 196.5 88.5 194.699219 80.101562 C 192.898438 71.699219 180 80.101562 180 80.101562 Z M 75.300781 110.398438 C 75.300781 110.398438 78.300781 127.5 66.601562 130.5 C 66.601562 130.800781 74.398438 132.898438 78.300781 123.898438 C 78.742188 120.214844 78.742188 116.488281 78.300781 112.800781 Z M 80.398438 75.601562 C 80.398438 75.601562 74.101562 70.800781 67.800781 73.800781 C 61.5 76.800781 60.601562 84.300781 64.199219 91.5 C 66.226562 95.480469 68.855469 99.125 72 102.300781 L 72 96.601562 C 72 96.601562 65.101562 88.5 66.898438 80.101562 C 68.699219 71.699219 81.601562 80.101562 81.601562 80.101562 Z M 80.398438 75.601562 "/>
<path style=" stroke:none;fill-rule:nonzero;fill:rgb(59.607843%,3.137255%,1.960784%);fill-opacity:1;" d="M 123.898438 152.398438 C 119.65625 154.828125 114.960938 156.359375 110.101562 156.898438 L 105.601562 157.5 L 129.300781 157.5 Z M 130.5 157.5 L 145.199219 157.5 C 144.601562 157.199219 145.199219 156.898438 144.601562 156.601562 C 144 156.300781 141.300781 155.398438 140.101562 154.199219 C 138.898438 153 137.101562 152.398438 135.898438 151.199219 L 130.5 157.5 "/>
<path style=" stroke:none;fill-rule:nonzero;fill:rgb(100%,0%,0%);fill-opacity:1;" d="M 98.101562 157.199219 L 162.601562 157.199219 L 162.601562 170.339844 L 98.101562 170.339844 Z M 98.101562 157.199219 "/>
<path style=" stroke:none;fill-rule:nonzero;fill:rgb(98.431373%,76.078431%,9.803922%);fill-opacity:1;" d="M 83.699219 62.101562 C 84.195312 63.855469 84.398438 65.679688 84.300781 67.5 C 84.300781 72.300781 78.601562 76.5 74.101562 84.898438 C 69.601562 93.300781 63.601562 111.601562 87.898438 121.800781 C 112.199219 132 155.101562 126.300781 156.601562 126 C 158.101562 125.699219 185.398438 120.898438 188.101562 103.199219 C 190.800781 85.5 183.300781 79.800781 179.699219 73.199219 C 176.101562 66.601562 175.5 65.699219 177 62.699219 "/>
<path style=" stroke:none;fill-rule:nonzero;fill:rgb(85.098039%,68.627451%,21.960784%);fill-opacity:1;" d="M 96.898438 71.699219 C 96.898438 71.699219 87.898438 110.699219 89.699219 123 C 90 123.300781 72 115.199219 70.5 104.101562 C 69.390625 95.722656 71.539062 87.242188 76.5 80.398438 C 79.800781 76.5 84.601562 70.5 84.601562 68.699219 L 84.601562 64.199219 C 84.601562 64.199219 91.800781 70.5 96.898438 71.699219 Z M 163.199219 71.699219 C 163.199219 71.699219 171.898438 109.5 170.101562 121.800781 C 170.101562 122.101562 185.398438 115.800781 187.800781 103.800781 C 189.296875 95.816406 188.027344 87.5625 184.199219 80.398438 C 181.800781 75.601562 177.601562 70.5 177.601562 68.699219 C 177.339844 67.085938 176.722656 65.550781 175.800781 64.199219 C 172.0625 67.40625 167.800781 69.941406 163.199219 71.699219 Z M 163.199219 71.699219 "/>
<path style=" stroke:none;fill-rule:nonzero;fill:rgb(100%,0%,0%);fill-opacity:1;" d="M 177.300781 60.898438 C 177.300781 52.617188 156.347656 45.898438 130.5 45.898438 C 104.652344 45.898438 83.699219 52.617188 83.699219 60.898438 C 83.699219 69.183594 104.652344 75.898438 130.5 75.898438 C 156.347656 75.898438 177.300781 69.183594 177.300781 60.898438 Z M 177.300781 60.898438 "/>
<path style=" stroke:none;fill-rule:nonzero;fill:rgb(63.921569%,5.490196%,1.176471%);fill-opacity:1;" d="M 84.300781 58.199219 L 83.699219 61.199219 C 84.300781 64.800781 88.199219 68.101562 96 70.800781 L 97.5 70.800781 L 109.199219 73.800781 C 109.519531 63.742188 114.375 54.367188 122.398438 48.300781 C 123.472656 47.375 124.476562 46.375 125.398438 45.300781 C 115.925781 45.378906 106.519531 46.898438 97.5 49.800781 C 90 52.5 85.800781 55.199219 84.300781 58.199219 Z M 84.300781 58.199219 "/>
<path style="fill:none;stroke-width:0.4;stroke-linecap:butt;stroke-linejoin:miter;stroke:rgb(0%,0%,0%);stroke-opacity:1;stroke-miterlimit:10;" d="M 59.10026 20.299479 C 59.10026 17.539062 52.115885 15.299479 43.5 15.299479 C 34.884115 15.299479 27.89974 17.539062 27.89974 20.299479 C 27.89974 23.061198 34.884115 25.299479 43.5 25.299479 C 52.115885 25.299479 59.10026 23.061198 59.10026 20.299479 Z M 59.10026 20.299479 " transform="matrix(3,0,0,3,0,0)"/>
<path style=" stroke:none;fill-rule:nonzero;fill:rgb(19.607843%,34.117647%,13.72549%);fill-opacity:1;" d="M 181.800781 93.300781 C 178.5 94.5 177.601562 96.898438 177 100.5 C 176.417969 97.734375 174.332031 95.53125 171.601562 94.800781 C 169.5625 94.363281 167.433594 94.792969 165.726562 95.988281 C 164.019531 97.183594 162.886719 99.035156 162.601562 101.101562 C 161.914062 98.003906 159.425781 95.632812 156.300781 95.101562 C 150.300781 94.199219 147.898438 96.898438 147 101.398438 C 146.101562 97.800781 144.300781 94.5 139.800781 94.800781 C 135.300781 95.101562 132.601562 95.699219 130.800781 99.601562 L 130.199219 101.101562 C 127.199219 97.199219 127.5 94.5 121.800781 94.800781 C 117.859375 94.84375 114.371094 97.367188 113.101562 101.101562 C 112.5 97.5 110.398438 93.300781 104.398438 94.199219 C 98.398438 95.101562 99.601562 98.398438 99.601562 103.199219 L 99.300781 103.199219 C 99.300781 98.101562 98.398438 92.398438 91.199219 93.300781 C 84 94.199219 86.398438 97.199219 85.800781 101.101562 L 86.398438 101.699219 L 85.800781 101.699219 C 85.5 96.898438 84.300781 92.398438 79.800781 91.800781 C 77.667969 91.359375 75.449219 91.871094 73.722656 93.195312 C 71.996094 94.519531 70.929688 96.527344 70.800781 98.699219 C 70.800781 98.699219 68.699219 115.199219 89.699219 122.699219 C 110.699219 130.199219 140.699219 127.800781 140.699219 127.800781 C 140.699219 127.800781 166.5 126.300781 175.5 120 C 184.5 113.699219 187.199219 109.800781 188.101562 103.199219 C 189 96.601562 188.398438 90.898438 181.800781 93.300781 Z M 181.800781 93.300781 "/>
<path style="fill:none;stroke-width:0.4;stroke-linecap:round;stroke-linejoin:round;stroke:rgb(0%,0%,0%);stroke-opacity:1;stroke-miterlimit:4;" d="M 27.89974 20.700521 C 28.065104 21.285156 28.132812 21.893229 28.10026 22.5 C 28.10026 24.10026 26.200521 25.5 24.700521 28.299479 C 23.200521 31.10026 21.200521 37.200521 29.299479 40.60026 C 37.39974 44 51.700521 42.10026 52.200521 42 C 52.700521 41.89974 61.799479 40.299479 62.700521 34.39974 C 63.60026 28.5 61.10026 26.60026 59.89974 24.39974 C 58.700521 22.200521 58.5 21.89974 59 20.89974 " transform="matrix(3,0,0,3,0,0)"/>
<path style="fill:none;stroke-width:0.4;stroke-linecap:round;stroke-linejoin:round;stroke:rgb(0%,0%,0%);stroke-opacity:1;stroke-miterlimit:4;" d="M 62.60026 34.799479 C 62.89974 33.799479 63.10026 30.10026 60.60026 31.10026 C 58.10026 32.10026 59.200521 32.299479 59 33.5 C 59.231771 34.822917 59.231771 36.177083 59 37.5 M 54.200521 33.700521 C 54.799479 32.299479 55.5 31.5 57.200521 31.60026 C 58.110677 31.84375 58.80599 32.578125 59 33.5 M 54.200521 33.799479 C 54.036458 32.714844 53.184896 31.863281 52.10026 31.700521 C 50.200521 31.299479 49.299479 32.39974 49 33.89974 C 49.108073 35.46875 49.040365 37.045573 48.799479 38.60026 M 43.299479 34.10026 C 43.320312 33.326823 43.670573 32.598958 44.264323 32.101562 C 44.856771 31.604167 45.634115 31.385417 46.39974 31.5 C 47.709635 31.438802 48.84375 32.398438 49 33.700521 M 37.799479 34 C 37.854167 32.602865 39.002604 31.498698 40.39974 31.5 C 42.299479 31.299479 43 32.799479 43.299479 34.10026 L 43.60026 39.200521 " transform="matrix(3,0,0,3,0,0)"/>
<path style="fill:none;stroke-width:0.4;stroke-linecap:round;stroke-linejoin:round;stroke:rgb(0%,0%,0%);stroke-opacity:1;stroke-miterlimit:4;" d="M 33.200521 34.299479 C 33.200521 32.700521 33.39974 31.60026 34.799479 31.299479 C 36.200521 31 37.60026 32.700521 37.799479 33.89974 C 37.88151 35.815104 38.115885 37.721354 38.5 39.60026 M 28.60026 33.60026 C 28.799479 32.299479 29.200521 31.10026 30.39974 31 C 31.60026 30.89974 33.10026 32.60026 33.10026 34.299479 C 33.049479 35.954427 33.252604 37.606771 33.700521 39.200521 M 28.60026 33.799479 C 28.5 32.200521 28.10026 30.700521 26.60026 30.5 C 25.10026 30.299479 23.5 33.10026 23.5 33.10026 M 28.60026 33.60026 C 28.489583 35.205729 28.589844 36.820312 28.89974 38.39974 M 54.200521 33.700521 C 54.304688 35.21224 54.169271 36.730469 53.799479 38.200521 " transform="matrix(3,0,0,3,0,0)"/>
<path style="fill:none;stroke-width:0.4;stroke-linecap:round;stroke-linejoin:round;stroke:rgb(0%,0%,0%);stroke-opacity:1;stroke-miterlimit:4;" d="M 27.299479 24.5 C 27.299479 24.5 24 21.799479 21.39974 23.39974 C 18.799479 25 18.700521 28.39974 20.700521 31.5 C 22.700521 34.60026 25.60026 40.299479 22.60026 40.700521 " transform="matrix(3,0,0,3,0,0)"/>
<path style="fill:none;stroke-width:0.4;stroke-linecap:round;stroke-linejoin:round;stroke:rgb(0%,0%,0%);stroke-opacity:1;stroke-miterlimit:4;" d="M 25.89974 38.60026 C 25.89974 38.60026 27.200521 44.39974 21.700521 43.39974 C 18.5 42.89974 18.200521 40.200521 19.200521 38.89974 C 20.200521 37.60026 21.89974 37.39974 22.5 39.39974 C 23.10026 41.39974 22.10026 41.799479 21 41.299479 C 19.89974 40.799479 20.10026 40.299479 20.39974 39.89974 M 25.89974 26.10026 C 25.89974 26.10026 23.60026 24.39974 22.299479 26.39974 C 21 28.39974 23.39974 31.60026 23.39974 31.60026 M 59.89974 24.39974 C 59.89974 24.39974 63 21.799479 65.60026 23.39974 C 68.200521 25 68.299479 28.39974 66.299479 31.5 C 64.299479 34.60026 61.39974 40.299479 64.39974 40.700521 " transform="matrix(3,0,0,3,0,0)"/>
<path style="fill:none;stroke-width:0.4;stroke-linecap:round;stroke-linejoin:round;stroke:rgb(0%,0%,0%);stroke-opacity:1;stroke-miterlimit:4;" d="M 61 38 C 61 38 59.799479 44.39974 65.299479 43.39974 C 68.5 42.89974 68.799479 40.200521 67.799479 38.89974 C 66.799479 37.60026 65.10026 37.39974 64.5 39.39974 C 63.89974 41.39974 64.89974 41.799479 66 41.299479 C 67.10026 40.799479 66.89974 40.299479 66.60026 39.89974 M 61.10026 26.10026 C 61.10026 26.10026 63.39974 24.39974 64.700521 26.39974 C 66 28.39974 63 32 63 32 M 32.700521 52.39974 L 54.200521 52.39974 L 54.200521 56.779948 L 32.700521 56.779948 Z M 32.700521 52.39974 " transform="matrix(3,0,0,3,0,0)"/>
<path style=" stroke:none;fill-rule:nonzero;fill:rgb(100%,0%,0%);fill-opacity:1;" d="M 130.5 116.699219 C 126.390625 118.105469 123.621094 121.957031 123.601562 126.300781 C 119.617188 123.351562 114.210938 123.230469 110.101562 126 C 110.101562 126 116.398438 126.898438 120.898438 135.300781 C 125.398438 143.699219 125.101562 143.699219 131.101562 144.300781 C 137.101562 144.898438 139.199219 138.300781 141.898438 135 C 144.480469 130.917969 148.105469 127.605469 152.398438 125.398438 C 152.101562 125.398438 144.601562 120.601562 138.601562 126 C 137.707031 121.699219 134.636719 118.175781 130.5 116.699219 Z M 130.5 116.699219 "/>
<path style=" stroke:none;fill-rule:nonzero;fill:rgb(100%,0%,0%);fill-opacity:1;" d="M 124.5 142.5 C 124.5 142.5 119.101562 150.300781 129.601562 157.5 C 129.601562 157.5 139.800781 155.699219 137.101562 142.5 "/>
<path style=" stroke:none;fill-rule:nonzero;fill:rgb(100%,0%,0%);fill-opacity:1;" d="M 123.898438 141.300781 C 123.898438 141.300781 109.199219 144.601562 105.300781 157.199219 C 112.792969 158.277344 120.378906 155.96875 126 150.898438 M 136.199219 140.699219 C 136.199219 140.699219 152.699219 144.601562 156.601562 157.199219 C 149.105469 158.277344 141.523438 155.96875 135.898438 150.898438 "/>
<path style="fill:none;stroke-width:0.4;stroke-linecap:round;stroke-linejoin:round;stroke:rgb(0%,0%,0%);stroke-opacity:1;stroke-miterlimit:4;" d="M 43.5 38.89974 C 42.130208 39.36849 41.207031 40.652344 41.200521 42.10026 C 39.872396 41.117188 38.070312 41.076823 36.700521 42 C 36.700521 42 38.799479 42.299479 40.299479 45.10026 C 41.799479 47.89974 41.700521 47.89974 43.700521 48.10026 C 45.700521 48.299479 46.39974 46.10026 47.299479 45 C 48.160156 43.639323 49.36849 42.535156 50.799479 41.799479 C 50.700521 41.799479 48.200521 40.200521 46.200521 42 C 45.902344 40.566406 44.878906 39.391927 43.5 38.89974 Z M 41.299479 47.10026 C 41.299479 47.10026 36.39974 48.200521 35.10026 52.39974 C 37.597656 52.759115 40.126302 51.989583 42 50.299479 M 46 47.10026 C 46 47.10026 50.89974 48.200521 52.200521 52.39974 C 49.701823 52.759115 47.174479 51.989583 45.299479 50.299479 " transform="matrix(3,0,0,3,0,0)"/>
<path style=" stroke:none;fill-rule:nonzero;fill:rgb(100%,0%,0%);fill-opacity:1;" d="M 124.5 145.5 C 124.5 145.5 119.101562 151.800781 129.601562 157.5 C 132.34375 157.203125 134.800781 155.664062 136.265625 153.320312 C 137.730469 150.980469 138.035156 148.097656 137.101562 145.5 "/>
<path style="fill:none;stroke-width:0.4;stroke-linecap:round;stroke-linejoin:round;stroke:rgb(0%,0%,0%);stroke-opacity:1;stroke-miterlimit:4;" d="M 41.5 47.5 C 41.5 47.5 39.700521 50.10026 43.200521 52.5 C 43.200521 52.5 46.60026 51.89974 45.700521 47.5 " transform="matrix(3,0,0,3,0,0)"/>
<path style=" stroke:none;fill-rule:nonzero;fill:rgb(80%,80%,80%);fill-opacity:1;" d="M 185.101562 315 C 185.101562 315 183 331.5 194.699219 334.5 C 194.699219 334.800781 187.199219 336.898438 183.300781 327.898438 C 182.636719 324.230469 182.636719 320.46875 183.300781 316.800781 Z M 181.199219 279.601562 C 184.699219 276.878906 189.367188 276.195312 193.5 277.800781 C 199.800781 280.800781 199.5 288 195.898438 294.898438 C 193.996094 298.714844 191.574219 302.25 188.699219 305.398438 L 188.101562 299.398438 C 188.101562 299.398438 196.5 292.5 194.699219 284.101562 C 192.898438 275.699219 180 284.101562 180 284.101562 Z M 75.300781 314.398438 C 75.300781 314.398438 78.300781 331.5 66.601562 334.5 C 66.601562 334.800781 74.398438 336.898438 78.300781 327.898438 C 78.742188 324.214844 78.742188 320.488281 78.300781 316.800781 Z M 80.398438 279.601562 C 80.398438 279.601562 74.101562 274.800781 67.800781 277.800781 C 61.5 280.800781 60.601562 288.300781 64.199219 295.5 C 66.226562 299.480469 68.855469 303.125 72 306.300781 L 72 300.601562 C 72 300.601562 65.101562 292.5 66.898438 284.101562 C 68.699219 275.699219 81.601562 284.101562 81.601562 284.101562 Z M 80.398438 279.601562 "/>
<path style=" stroke:none;fill-rule:nonzero;fill:rgb(59.607843%,3.137255%,1.960784%);fill-opacity:1;" d="M 123.898438 356.398438 C 119.65625 358.828125 114.960938 360.359375 110.101562 360.898438 L 105.601562 361.5 L 129.300781 361.5 Z M 130.5 361.5 L 145.199219 361.5 C 144.601562 361.199219 145.199219 360.898438 144.601562 360.601562 C 144 360.300781 141.300781 359.398438 140.101562 358.199219 C 138.898438 357 137.101562 356.398438 135.898438 355.199219 L 130.5 361.5 "/>
<path style=" stroke:none;fill-rule:nonzero;fill:rgb(100%,0%,0%);fill-opacity:1;" d="M 98.101562 361.199219 L 162.601562 361.199219 L 162.601562 374.339844 L 98.101562 374.339844 Z M 98.101562 361.199219 "/>
<path style=" stroke:none;fill-rule:nonzero;fill:rgb(98.431373%,76.078431%,9.803922%);fill-opacity:1;" d="M 83.699219 266.101562 C 84.195312 267.855469 84.398438 269.679688 84.300781 271.5 C 84.300781 276.300781 78.601562 280.5 74.101562 288.898438 C 69.601562 297.300781 63.601562 315.601562 87.898438 325.800781 C 112.199219 336 155.101562 330.300781 156.601562 330 C 158.101562 329.699219 185.398438 324.898438 188.101562 307.199219 C 190.800781 289.5 183.300781 283.800781 179.699219 277.199219 C 176.101562 270.601562 175.5 269.699219 177 266.699219 "/>
<path style=" stroke:none;fill-rule:nonzero;fill:rgb(85.098039%,68.627451%,21.960784%);fill-opacity:1;" d="M 96.898438 275.699219 C 96.898438 275.699219 87.898438 314.699219 89.699219 327 C 90 327.300781 72 319.199219 70.5 308.101562 C 69.390625 299.722656 71.539062 291.242188 76.5 284.398438 C 79.800781 280.5 84.601562 274.5 84.601562 272.699219 L 84.601562 268.199219 C 84.601562 268.199219 91.800781 274.5 96.898438 275.699219 Z M 163.199219 275.699219 C 163.199219 275.699219 171.898438 313.5 170.101562 325.800781 C 170.101562 326.101562 185.398438 319.800781 187.800781 307.800781 C 189.296875 299.816406 188.027344 291.5625 184.199219 284.398438 C 181.800781 279.601562 177.601562 274.5 177.601562 272.699219 C 177.339844 271.085938 176.722656 269.550781 175.800781 268.199219 C 172.0625 271.40625 167.800781 273.941406 163.199219 275.699219 Z M 163.199219 275.699219 "/>
<path style=" stroke:none;fill-rule:nonzero;fill:rgb(100%,0%,0%);fill-opacity:1;" d="M 177.300781 264.898438 C 177.300781 256.617188 156.347656 249.898438 130.5 249.898438 C 104.652344 249.898438 83.699219 256.617188 83.699219 264.898438 C 83.699219 273.183594 104.652344 279.898438 130.5 279.898438 C 156.347656 279.898438 177.300781 273.183594 177.300781 264.898438 Z M 177.300781 264.898438 "/>
<path style=" stroke:none;fill-rule:nonzero;fill:rgb(63.921569%,5.490196%,1.176471%);fill-opacity:1;" d="M 84.300781 262.199219 L 83.699219 265.199219 C 84.300781 268.800781 88.199219 272.101562 96 274.800781 L 97.5 274.800781 L 109.199219 277.800781 C 109.519531 267.742188 114.375 258.367188 122.398438 252.300781 L 125.398438 249.300781 C 115.925781 249.378906 106.519531 250.898438 97.5 253.800781 C 90 256.5 85.800781 259.199219 84.300781 262.199219 Z M 84.300781 262.199219 "/>
<path style="fill:none;stroke-width:0.4;stroke-linecap:butt;stroke-linejoin:miter;stroke:rgb(0%,0%,0%);stroke-opacity:1;stroke-miterlimit:10;" d="M 59.10026 88.299479 C 59.10026 85.539062 52.115885 83.299479 43.5 83.299479 C 34.884115 83.299479 27.89974 85.539062 27.89974 88.299479 C 27.89974 91.061198 34.884115 93.299479 43.5 93.299479 C 52.115885 93.299479 59.10026 91.061198 59.10026 88.299479 Z M 59.10026 88.299479 " transform="matrix(3,0,0,3,0,0)"/>
<path style=" stroke:none;fill-rule:nonzero;fill:rgb(19.607843%,34.117647%,13.72549%);fill-opacity:1;" d="M 181.800781 297.300781 C 178.5 298.5 177.601562 300.898438 177 304.5 C 176.417969 301.734375 174.332031 299.53125 171.601562 298.800781 C 169.5625 298.363281 167.433594 298.792969 165.726562 299.988281 C 164.019531 301.183594 162.886719 303.035156 162.601562 305.101562 C 161.914062 302.003906 159.425781 299.632812 156.300781 299.101562 C 150.300781 298.199219 147.898438 300.898438 147 305.398438 C 146.101562 301.800781 144.300781 298.5 139.800781 298.800781 C 135.300781 299.101562 132.601562 299.699219 130.800781 303.601562 L 130.199219 305.101562 C 127.199219 301.199219 127.5 298.5 121.800781 298.800781 C 117.859375 298.84375 114.371094 301.367188 113.101562 305.101562 C 112.5 301.5 110.398438 297.300781 104.398438 298.199219 C 98.398438 299.101562 99.601562 302.398438 99.601562 307.199219 L 99.300781 307.199219 C 99.300781 302.101562 98.398438 296.398438 91.199219 297.300781 C 84 298.199219 86.398438 301.199219 85.800781 305.101562 L 86.398438 305.699219 L 85.800781 305.699219 C 85.5 300.898438 84.300781 296.398438 79.800781 295.800781 C 77.667969 295.359375 75.449219 295.871094 73.722656 297.195312 C 71.996094 298.519531 70.929688 300.527344 70.800781 302.699219 C 70.800781 302.699219 68.699219 319.199219 89.699219 326.699219 C 110.699219 334.199219 140.699219 331.800781 140.699219 331.800781 C 140.699219 331.800781 166.5 330.300781 175.5 324 C 184.5 317.699219 187.199219 313.800781 188.101562 307.199219 C 189 300.601562 188.398438 294.898438 181.800781 297.300781 Z M 181.800781 297.300781 "/>
<path style="fill:none;stroke-width:0.4;stroke-linecap:round;stroke-linejoin:round;stroke:rgb(0%,0%,0%);stroke-opacity:1;stroke-miterlimit:4;" d="M 27.89974 88.700521 C 28.065104 89.285156 28.132812 89.893229 28.10026 90.5 C 28.10026 92.10026 26.200521 93.5 24.700521 96.299479 C 23.200521 99.10026 21.200521 105.200521 29.299479 108.60026 C 37.39974 112 51.700521 110.10026 52.200521 110 C 52.700521 109.89974 61.799479 108.299479 62.700521 102.39974 C 63.60026 96.5 61.10026 94.60026 59.89974 92.39974 C 58.700521 90.200521 58.5 89.89974 59 88.89974 " transform="matrix(3,0,0,3,0,0)"/>
<path style="fill:none;stroke-width:0.4;stroke-linecap:round;stroke-linejoin:round;stroke:rgb(0%,0%,0%);stroke-opacity:1;stroke-miterlimit:4;" d="M 62.60026 102.799479 C 62.89974 101.799479 63.10026 98.10026 60.60026 99.10026 C 58.10026 100.10026 59.200521 100.299479 59 101.5 C 59.231771 102.822917 59.231771 104.177083 59 105.5 M 54.200521 101.700521 C 54.799479 100.299479 55.5 99.5 57.200521 99.60026 C 58.110677 99.84375 58.80599 100.578125 59 101.5 M 54.200521 101.799479 C 54.036458 100.714844 53.184896 99.863281 52.10026 99.700521 C 50.200521 99.299479 49.299479 100.39974 49 101.89974 C 49.108073 103.46875 49.040365 105.045573 48.799479 106.60026 M 43.299479 102.10026 C 43.320312 101.326823 43.670573 100.598958 44.264323 100.101562 C 44.856771 99.604167 45.634115 99.385417 46.39974 99.5 C 47.709635 99.438802 48.84375 100.398438 49 101.700521 M 37.799479 102 C 37.854167 100.602865 39.002604 99.498698 40.39974 99.5 C 42.299479 99.299479 43 100.799479 43.299479 102.10026 L 43.60026 107.200521 " transform="matrix(3,0,0,3,0,0)"/>
<path style="fill:none;stroke-width:0.4;stroke-linecap:round;stroke-linejoin:round;stroke:rgb(0%,0%,0%);stroke-opacity:1;stroke-miterlimit:4;" d="M 33.200521 102.299479 C 33.200521 100.700521 33.39974 99.60026 34.799479 99.299479 C 36.200521 99 37.60026 100.700521 37.799479 101.89974 C 37.88151 103.815104 38.115885 105.721354 38.5 107.60026 M 28.60026 101.60026 C 28.799479 100.299479 29.200521 99.10026 30.39974 99 C 31.60026 98.89974 33.10026 100.60026 33.10026 102.299479 C 33.049479 103.954427 33.252604 105.606771 33.700521 107.200521 M 28.60026 101.799479 C 28.5 100.200521 28.10026 98.700521 26.60026 98.5 C 25.10026 98.299479 23.5 101.10026 23.5 101.10026 M 28.60026 101.60026 C 28.489583 103.205729 28.589844 104.820312 28.89974 106.39974 M 54.200521 101.700521 C 54.304688 103.21224 54.169271 104.730469 53.799479 106.200521 " transform="matrix(3,0,0,3,0,0)"/>
<path style="fill:none;stroke-width:0.4;stroke-linecap:round;stroke-linejoin:round;stroke:rgb(0%,0%,0%);stroke-opacity:1;stroke-miterlimit:4;" d="M 27.299479 92.5 C 27.299479 92.5 24 89.799479 21.39974 91.39974 C 18.799479 93 18.700521 96.39974 20.700521 99.5 C 22.700521 102.60026 25.60026 108.299479 22.60026 108.700521 " transform="matrix(3,0,0,3,0,0)"/>
<path style="fill:none;stroke-width:0.4;stroke-linecap:round;stroke-linejoin:round;stroke:rgb(0%,0%,0%);stroke-opacity:1;stroke-miterlimit:4;" d="M 25.89974 106.60026 C 25.89974 106.60026 27.200521 112.39974 21.700521 111.39974 C 18.5 110.89974 18.200521 108.200521 19.200521 106.89974 C 20.200521 105.60026 21.89974 105.39974 22.5 107.39974 C 23.10026 109.39974 22.10026 109.799479 21 109.299479 C 19.89974 108.799479 20.10026 108.299479 20.39974 107.89974 M 25.89974 94.10026 C 25.89974 94.10026 23.60026 92.39974 22.299479 94.39974 C 21 96.39974 23.39974 99.60026 23.39974 99.60026 M 59.89974 92.39974 C 59.89974 92.39974 63 89.799479 65.60026 91.39974 C 68.200521 93 68.299479 96.39974 66.299479 99.5 C 64.299479 102.60026 61.39974 108.299479 64.39974 108.700521 " transform="matrix(3,0,0,3,0,0)"/>
<path style="fill:none;stroke-width:0.4;stroke-linecap:round;stroke-linejoin:round;stroke:rgb(0%,0%,0%);stroke-opacity:1;stroke-miterlimit:4;" d="M 61 106 C 61 106 59.799479 112.39974 65.299479 111.39974 C 68.5 110.89974 68.799479 108.200521 67.799479 106.89974 C 66.799479 105.60026 65.10026 105.39974 64.5 107.39974 C 63.89974 109.39974 64.89974 109.799479 66 109.299479 C 67.10026 108.799479 66.89974 108.299479 66.60026 107.89974 M 61.10026 94.10026 C 61.10026 94.10026 63.39974 92.39974 64.700521 94.39974 C 66 96.39974 63 100 63 100 M 32.700521 120.39974 L 54.200521 120.39974 L 54.200521 124.779948 L 32.700521 124.779948 Z M 32.700521 120.39974 " transform="matrix(3,0,0,3,0,0)"/>
<path style=" stroke:none;fill-rule:nonzero;fill:rgb(100%,0%,0%);fill-opacity:1;" d="M 130.5 320.699219 C 126.390625 322.105469 123.621094 325.957031 123.601562 330.300781 C 119.617188 327.351562 114.210938 327.230469 110.101562 330 C 110.101562 330 116.398438 330.898438 120.898438 339.300781 C 125.398438 347.699219 125.101562 347.699219 131.101562 348.300781 C 137.101562 348.898438 139.199219 342.300781 141.898438 339 C 144.480469 334.917969 148.105469 331.605469 152.398438 329.398438 C 152.101562 329.398438 144.601562 324.601562 138.601562 330 C 137.707031 325.699219 134.636719 322.175781 130.5 320.699219 Z M 130.5 320.699219 "/>
<path style=" stroke:none;fill-rule:nonzero;fill:rgb(100%,0%,0%);fill-opacity:1;" d="M 124.5 346.5 C 124.5 346.5 119.101562 354.300781 129.601562 361.5 C 129.601562 361.5 139.800781 359.699219 137.101562 346.5 "/>
<path style=" stroke:none;fill-rule:nonzero;fill:rgb(100%,0%,0%);fill-opacity:1;" d="M 123.898438 345.300781 C 123.898438 345.300781 109.199219 348.601562 105.300781 361.199219 C 112.792969 362.277344 120.378906 359.96875 126 354.898438 M 136.199219 344.699219 C 136.199219 344.699219 152.699219 348.601562 156.601562 361.199219 C 149.105469 362.277344 141.523438 359.96875 135.898438 354.898438 "/>
<path style="fill:none;stroke-width:0.4;stroke-linecap:round;stroke-linejoin:round;stroke:rgb(0%,0%,0%);stroke-opacity:1;stroke-miterlimit:4;" d="M 43.5 106.89974 C 42.130208 107.36849 41.207031 108.652344 41.200521 110.10026 C 39.872396 109.117188 38.070312 109.076823 36.700521 110 C 36.700521 110 38.799479 110.299479 40.299479 113.10026 C 41.799479 115.89974 41.700521 115.89974 43.700521 116.10026 C 45.700521 116.299479 46.39974 114.10026 47.299479 113 C 48.160156 111.639323 49.36849 110.535156 50.799479 109.799479 C 50.700521 109.799479 48.200521 108.200521 46.200521 110 C 45.902344 108.566406 44.878906 107.391927 43.5 106.89974 Z M 41.299479 115.10026 C 41.299479 115.10026 36.39974 116.200521 35.10026 120.39974 C 37.597656 120.759115 40.126302 119.989583 42 118.299479 M 46 115.10026 C 46 115.10026 50.89974 116.200521 52.200521 120.39974 C 49.701823 120.759115 47.174479 119.989583 45.299479 118.299479 " transform="matrix(3,0,0,3,0,0)"/>
<path style=" stroke:none;fill-rule:nonzero;fill:rgb(100%,0%,0%);fill-opacity:1;" d="M 124.5 349.5 C 124.5 349.5 119.101562 355.800781 129.601562 361.5 C 132.34375 361.203125 134.800781 359.664062 136.265625 357.320312 C 137.730469 354.980469 138.035156 352.097656 137.101562 349.5 "/>
<path style="fill:none;stroke-width:0.4;stroke-linecap:round;stroke-linejoin:round;stroke:rgb(0%,0%,0%);stroke-opacity:1;stroke-miterlimit:4;" d="M 41.5 115.5 C 41.5 115.5 39.700521 118.10026 43.200521 120.5 C 43.200521 120.5 46.60026 119.89974 45.700521 115.5 " transform="matrix(3,0,0,3,0,0)"/>
</g>
</svg>
