<?xml version="1.0" encoding="UTF-8"?>
<svg xmlns="http://www.w3.org/2000/svg" xmlns:xlink="http://www.w3.org/1999/xlink" width="261px" height="420px" viewBox="0 0 261 426" version="1.1">
<g id="surface1">
<path style=" stroke:none;fill-rule:nonzero;fill:rgb(100%,100%,100%);fill-opacity:1;" d="M 18 0 L 243 0 C 252.941406 0 261 8.058594 261 18 L 261 402 C 261 411.941406 252.941406 420 243 420 L 18 420 C 8.058594 420 0 411.941406 0 402 L 0 18 C 0 8.058594 8.058594 0 18 0 Z M 18 0 "/>
<path style=" stroke:none;fill-rule:nonzero;fill:rgb(63.921569%,5.490196%,1.176471%);fill-opacity:1;" d="M 75 129.601562 L 62.699219 138 L 98.101562 138 L 87 126 Z M 75 129.601562 "/>
<path style="fill:none;stroke-width:0.4;stroke-linecap:round;stroke-linejoin:round;stroke:rgb(0%,0%,0%);stroke-opacity:1;stroke-miterlimit:4;" d="M 19.200521 21.299479 C 19.200521 21.299479 15.799479 19.799479 14.5 22.60026 C 13.200521 25.39974 16.700521 29.39974 17 30.10026 C 17.229167 30.385417 17.326823 30.755208 17.269531 31.115885 C 17.213542 31.477865 17.00651 31.799479 16.700521 32 C 14.60026 33.5 17.60026 35.5 18.700521 33 C 19.799479 30.5 17.39974 27.5 16.60026 25.700521 C 15.799479 23.89974 15.10026 21.60026 19.39974 22.799479 M 34.89974 21.299479 C 34.89974 21.299479 38.39974 19.799479 39.700521 22.60026 C 41 25.39974 37.5 29.39974 37.200521 30.10026 C 36.971354 30.385417 36.872396 30.755208 36.929688 31.115885 C 36.986979 31.477865 37.19401 31.799479 37.5 32 C 39.60026 33.5 36.60026 35.5 35.5 33 C 34.39974 30.5 36.700521 27.5 37.60026 25.700521 C 38.5 23.89974 38.89974 21.700521 34.60026 22.89974 " transform="matrix(3,0,0,3,0,0)"/>
<path style=" stroke:none;fill-rule:nonzero;fill:rgb(100%,0%,0%);fill-opacity:1;" d="M 74.398438 120 C 74.398438 120 77.101562 130.199219 62.398438 135.300781 C 62.101562 135.601562 79.800781 138 83.699219 121.5 C 83.699219 121.800781 74.398438 120 74.398438 120 Z M 74.398438 120 "/>
<path style=" stroke:none;fill-rule:nonzero;fill:rgb(100%,0%,0%);fill-opacity:1;" d="M 88.5 120 C 88.5 120 85.800781 130.199219 100.5 135.300781 C 100.800781 135.601562 83.101562 137.398438 79.5 120.898438 C 79.5 121.199219 88.5 120 88.5 120 Z M 88.5 120 "/>
<path style="fill:none;stroke-width:0.4;stroke-linecap:round;stroke-linejoin:round;stroke:rgb(0%,0%,0%);stroke-opacity:1;stroke-miterlimit:4;" d="M 24.799479 40 C 24.799479 40 25.700521 43.39974 20.799479 45.10026 C 20.700521 45.200521 26.60026 46 27.89974 40.5 C 26.858073 40.390625 25.822917 40.222656 24.799479 40 Z M 24.799479 40 " transform="matrix(3,0,0,3,0,0)"/>
<path style="fill:none;stroke-width:0.4;stroke-linecap:round;stroke-linejoin:round;stroke:rgb(0%,0%,0%);stroke-opacity:1;stroke-miterlimit:4;" d="M 29.5 40 C 29.5 40 28.60026 43.39974 33.5 45.10026 C 33.60026 45.200521 27.60026 45.89974 26.39974 40.39974 C 26.39974 40.5 29.5 40 29.5 40 Z M 29.5 40 " transform="matrix(3,0,0,3,0,0)"/>
<path style=" stroke:none;fill-rule:nonzero;fill:rgb(100%,0%,0%);fill-opacity:1;" d="M 75 117.898438 C 75.601562 124.230469 77.765625 130.3125 81.300781 135.601562 C 81.300781 135.300781 86.699219 131.398438 87.601562 118.199219 C 89.398438 117.898438 75 117.898438 75 117.898438 Z M 75 117.898438 "/>
<path style="fill:none;stroke-width:0.4;stroke-linecap:round;stroke-linejoin:round;stroke:rgb(0%,0%,0%);stroke-opacity:1;stroke-miterlimit:4;" d="M 24.700521 36 C 24.700521 36 24.200521 41.39974 27.10026 45.10026 C 27.10026 45 30 42.799479 29.700521 35.89974 C 29.700521 35.799479 24.700521 36 24.700521 36 Z M 24.700521 36 " transform="matrix(3,0,0,3,0,0)"/>
<path style="fill-rule:nonzero;fill:rgb(100%,0%,0%);fill-opacity:1;stroke-width:0.4;stroke-linecap:round;stroke-linejoin:round;stroke:rgb(0%,0%,0%);stroke-opacity:1;stroke-miterlimit:4;" d="M 24.60026 39.299479 C 24.60026 39.299479 23.10026 39.700521 23.10026 42 C 23.10026 42 25.200521 42.5 26.200521 39.89974 M 29.89974 39.299479 C 29.89974 39.299479 31.299479 39.700521 31.39974 42 C 29.970052 42.246094 28.601562 41.31901 28.299479 39.89974 " transform="matrix(3,0,0,3,0,0)"/>
<path style=" stroke:none;fill-rule:nonzero;fill:rgb(100%,0%,0%);fill-opacity:1;" d="M 85.199219 119.101562 C 85.199219 119.101562 86.699219 123 81.300781 128.101562 C 78.4375 126.167969 76.832031 122.84375 77.101562 119.398438 Z M 85.199219 119.101562 "/>
<path style="fill:none;stroke-width:0.4;stroke-linecap:round;stroke-linejoin:round;stroke:rgb(0%,0%,0%);stroke-opacity:1;stroke-miterlimit:4;" d="M 28.39974 39.700521 C 28.39974 39.700521 28.89974 41 27.10026 42.700521 C 26.175781 42.029948 25.64974 40.940104 25.700521 39.799479 Z M 28.39974 39.700521 " transform="matrix(3,0,0,3,0,0)"/>
<path style=" stroke:none;fill-rule:nonzero;fill:rgb(84.313725%,62.352941%,3.529412%);fill-opacity:1;" d="M 61.800781 62.699219 C 59.90625 62.132812 58.089844 61.324219 56.398438 60.300781 L 57.601562 63 C 58.136719 64.355469 58.539062 65.765625 58.800781 67.199219 C 59.285156 69.472656 59.585938 71.78125 59.699219 74.101562 L 59.699219 80.101562 L 58.800781 86.699219 L 57.898438 90.898438 C 57.652344 92.988281 57.550781 95.09375 57.601562 97.199219 C 60.601562 93.601562 63.601562 94.199219 66.601562 99.300781 C 67.40625 97.542969 68.941406 96.226562 70.800781 95.699219 C 70.753906 94.789062 70.855469 93.878906 71.101562 93 C 71.902344 89.359375 72.105469 85.609375 71.699219 81.898438 L 71.699219 75.300781 C 71.699219 74.398438 71.398438 73.199219 71.398438 72 L 70.800781 64.800781 L 62.101562 62.699219 M 94.199219 64.5 L 93.601562 74.699219 L 94.5 95.101562 C 95.699219 95.398438 97.199219 96.898438 98.699219 99.300781 C 101.398438 93.601562 103.5 93 105.601562 97.800781 C 105.550781 95.6875 105.347656 93.582031 105 91.5 L 104.101562 86.699219 L 103.199219 79.5 L 103.199219 72.898438 C 103.253906 71.1875 103.453125 69.480469 103.800781 67.800781 C 104.0625 66.460938 104.464844 65.15625 105 63.898438 C 105.175781 62.496094 105.691406 61.160156 106.5 60 C 104.609375 61.125 102.597656 62.03125 100.5 62.699219 L 94.199219 64.5 "/>
<path style=" stroke:none;fill-rule:nonzero;fill:rgb(100%,0%,0%);fill-opacity:1;" d="M 108.601562 56.398438 C 108.601562 54 105.898438 51.898438 100.5 50.101562 C 94.804688 48.164062 88.8125 47.25 82.800781 47.398438 C 75.300781 50.101562 71.699219 55.199219 72 62.398438 C 72 63.300781 72.300781 63.898438 72.300781 64.800781 L 81.300781 65.398438 C 85.617188 65.429688 89.929688 65.128906 94.199219 64.5 L 100.5 62.699219 C 102.597656 62.03125 104.609375 61.125 106.5 60 C 107.746094 59.214844 108.53125 57.871094 108.601562 56.398438 "/>
<path style=" stroke:none;fill-rule:nonzero;fill:rgb(19.607843%,34.117647%,13.72549%);fill-opacity:1;" d="M 99 99.300781 C 97.5 96.898438 96 95.398438 94.5 95.101562 C 93 94.800781 90 96.300781 87.898438 100.199219 C 84.300781 94.199219 80.699219 94.199219 77.398438 100.199219 C 75 96.898438 72.601562 95.398438 70.800781 95.699219 C 68.941406 96.226562 67.40625 97.542969 66.601562 99.300781 C 63.601562 94.199219 60.601562 93.601562 57.601562 97.199219 C 57.378906 97.445312 57.273438 97.773438 57.300781 98.101562 C 57.300781 108.300781 60 113.699219 68.699219 119.101562 L 69.898438 119.699219 C 69.898438 119.699219 78 124.199219 91.5 120.300781 L 93.601562 119.398438 C 101.195312 115.476562 105.859375 107.542969 105.601562 99 C 105.53125 98.496094 105.429688 97.992188 105.300781 97.5 C 102.601562 92.699219 101.398438 93.601562 99 99.300781 Z M 99 99.300781 "/>
<path style=" stroke:none;fill-rule:nonzero;fill:rgb(98.431373%,76.078431%,9.803922%);fill-opacity:1;" d="M 93.601562 74.699219 L 94.199219 64.5 C 89.929688 65.128906 85.617188 65.429688 81.300781 65.398438 L 72.300781 64.800781 L 70.5 64.800781 L 71.101562 72 C 71.101562 73.199219 71.398438 74.398438 71.398438 75.300781 L 71.398438 81.898438 C 71.808594 85.609375 71.605469 89.359375 70.800781 93 C 70.554688 93.878906 70.453125 94.789062 70.5 95.699219 C 72.300781 95.398438 74.699219 96.898438 76.800781 100.199219 C 80.398438 94.199219 84 94.199219 87.601562 100.199219 C 89.699219 96.300781 91.800781 94.5 94.199219 95.101562 L 93.300781 74.699219 "/>
<path style=" stroke:none;fill-rule:nonzero;fill:rgb(63.921569%,5.490196%,1.176471%);fill-opacity:1;" d="M 82.800781 47.398438 L 81.300781 47.398438 C 74.695312 47.242188 68.113281 48.152344 61.800781 50.101562 C 56.398438 51.898438 54 54 54 56.398438 C 53.910156 58 54.886719 59.46875 56.398438 60 C 58.089844 61.023438 59.90625 61.832031 61.800781 62.398438 L 70.5 64.5 L 72.300781 64.5 C 72.300781 63.601562 72 63 72 62.101562 C 71.699219 54.898438 75.300781 49.800781 82.800781 47.101562 "/>
<path style="fill:none;stroke-width:0.4;stroke-linecap:round;stroke-linejoin:round;stroke:rgb(0%,0%,0%);stroke-opacity:1;stroke-miterlimit:4;" d="M 31.10026 25 L 34.39974 24.5 C 34.380208 23.898438 34.414062 23.295573 34.5 22.700521 C 34.678385 22.28125 34.8125 21.846354 34.89974 21.39974 C 35.005208 20.945312 35.173177 20.507812 35.39974 20.10026 L 33.5 21 L 31.299479 21.60026 C 29.876302 21.813802 28.438802 21.914062 27 21.89974 L 24 21.700521 L 23.39974 21.700521 C 22.450521 21.53776 21.514323 21.303385 20.60026 21 C 19.96875 20.809896 19.363281 20.541667 18.799479 20.200521 C 18.891927 20.516927 19.026042 20.820312 19.200521 21.10026 C 19.286458 21.578125 19.420573 22.048177 19.60026 22.5 L 19.89974 24.799479 L 23.700521 25.299479 C 26.170573 25.449219 28.64974 25.348958 31.10026 25 Z M 31.10026 25 " transform="matrix(3,0,0,3,0,0)"/>
<path style="fill:none;stroke-width:0.4;stroke-linecap:round;stroke-linejoin:round;stroke:rgb(0%,0%,0%);stroke-opacity:1;stroke-miterlimit:4;" d="M 18.799479 20.200521 L 18.700521 20.200521 C 18.231771 19.979167 17.924479 19.516927 17.89974 19 C 17.89974 18.200521 18.799479 17.5 20.60026 16.89974 C 22.669271 16.25 24.832031 15.945312 27 16 L 27.5 16 C 29.536458 15.958333 31.565104 16.263021 33.5 16.89974 C 35.299479 17.5 36.10026 18.200521 36.10026 19 C 36.076823 19.490885 35.815104 19.938802 35.39974 20.200521 M 23.89974 27.39974 L 19.799479 26.89974 C 19.700521 27.5 19.700521 28.299479 19.60026 29 C 19.46224 29.458333 19.361979 29.925781 19.299479 30.39974 C 19.183594 31.09375 19.117188 31.795573 19.10026 32.5 C 20.200521 31.299479 21.200521 31.5 22.10026 33.200521 C 22.36849 32.614583 22.880208 32.175781 23.5 32 C 24.200521 31.89974 24.89974 32.39974 25.700521 33.5 C 26.833333 31.5 28.033854 31.5 29.299479 33.5 C 30 32.200521 30.700521 31.60026 31.39974 31.799479 C 32.10026 32 32.39974 32.39974 32.89974 33.200521 C 33.700521 31.299479 34.5 31.10026 35.10026 32.700521 C 35.115885 31.998698 35.083333 31.296875 35 30.60026 L 34.700521 29 C 34.502604 28.214844 34.401042 27.408854 34.39974 26.60026 L 31.10026 27.299479 C 28.713542 27.632812 26.294271 27.666667 23.89974 27.39974 Z M 23.89974 27.39974 " transform="matrix(3,0,0,3,0,0)"/>
<path style="fill:none;stroke-width:0.4;stroke-linecap:round;stroke-linejoin:round;stroke:rgb(0%,0%,0%);stroke-opacity:1;stroke-miterlimit:4;" d="M 35.10026 33.10026 C 35.171875 35.917969 33.615885 38.526042 31.10026 39.799479 C 28.647135 40.820312 25.902344 40.891927 23.39974 40 C 20.585938 38.595052 18.890625 35.638021 19.10026 32.5 M 35.10026 32.700521 L 35.10026 33.10026 M 19.89974 24.799479 C 19.91276 25.501302 19.878906 26.203125 19.799479 26.89974 M 34.39974 26.60026 C 34.300781 25.903646 34.300781 25.196615 34.39974 24.5 M 22.10026 33.200521 C 22.141927 34.744792 22.308594 36.282552 22.60026 37.799479 M 25.700521 33.5 L 26 38.299479 M 32.89974 33.200521 C 32.860677 34.75 32.658854 36.291667 32.299479 37.799479 M 29.299479 33.5 L 29 38.299479 " transform="matrix(3,0,0,3,0,0)"/>
<path style="fill-rule:nonzero;fill:rgb(100%,0%,0%);fill-opacity:1;stroke-width:0.4;stroke-linecap:round;stroke-linejoin:round;stroke:rgb(0%,0%,0%);stroke-opacity:1;stroke-miterlimit:4;" d="M 33.60026 45.200521 L 35 45.200521 L 35 48.5 L 19.200521 48.5 L 19.200521 45.200521 Z M 33.60026 45.200521 " transform="matrix(3,0,0,3,0,0)"/>
<path style=" stroke:none;fill-rule:nonzero;fill:rgb(63.921569%,5.490196%,1.176471%);fill-opacity:1;" d="M 173.398438 129.601562 L 161.101562 138 L 196.5 138 L 185.398438 126 Z M 173.398438 129.601562 "/>
<path style="fill:none;stroke-width:0.4;stroke-linecap:round;stroke-linejoin:round;stroke:rgb(0%,0%,0%);stroke-opacity:1;stroke-miterlimit:4;" d="M 52.10026 21.299479 C 52.10026 21.299479 48.60026 19.799479 47.299479 22.60026 C 46 25.39974 49.5 29.39974 49.799479 30.10026 C 50.028646 30.385417 50.127604 30.755208 50.070312 31.115885 C 50.013021 31.477865 49.80599 31.799479 49.5 32 C 47.39974 33.5 50.39974 35.5 51.5 33 C 52.60026 30.5 50.299479 27.5 49.39974 25.700521 C 48.5 23.89974 47.89974 21.60026 52.200521 22.799479 M 67.799479 21.299479 C 67.799479 21.299479 71.200521 19.799479 72.5 22.60026 C 73.799479 25.39974 70.299479 29.39974 70 30.10026 C 69.770833 30.385417 69.673177 30.755208 69.730469 31.115885 C 69.786458 31.477865 69.99349 31.799479 70.299479 32 C 72.39974 33.5 69.39974 35.5 68.299479 33 C 67.200521 30.5 69.60026 27.5 70.39974 25.700521 C 71.200521 23.89974 71.700521 21.700521 67.39974 22.89974 " transform="matrix(3,0,0,3,0,0)"/>
<path style=" stroke:none;fill-rule:nonzero;fill:rgb(100%,0%,0%);fill-opacity:1;" d="M 172.800781 120 C 172.800781 120 175.5 130.199219 160.800781 135.300781 C 160.800781 135.601562 178.199219 138 182.101562 121.5 C 182.101562 121.800781 172.800781 120 172.800781 120 Z M 172.800781 120 "/>
<path style=" stroke:none;fill-rule:nonzero;fill:rgb(100%,0%,0%);fill-opacity:1;" d="M 186.898438 120 C 186.898438 120 184.199219 130.199219 198.898438 135.300781 C 199.199219 135.601562 181.5 137.398438 177.898438 120.898438 C 177.898438 121.199219 186.898438 120 186.898438 120 Z M 186.898438 120 "/>
<path style="fill:none;stroke-width:0.4;stroke-linecap:round;stroke-linejoin:round;stroke:rgb(0%,0%,0%);stroke-opacity:1;stroke-miterlimit:4;" d="M 57.60026 40 C 57.60026 40 58.5 43.39974 53.60026 45.10026 C 53.60026 45.200521 59.39974 46 60.700521 40.5 C 59.658854 40.390625 58.623698 40.222656 57.60026 40 Z M 57.60026 40 " transform="matrix(3,0,0,3,0,0)"/>
<path style="fill:none;stroke-width:0.4;stroke-linecap:round;stroke-linejoin:round;stroke:rgb(0%,0%,0%);stroke-opacity:1;stroke-miterlimit:4;" d="M 62.299479 40 C 62.299479 40 61.39974 43.39974 66.299479 45.10026 C 66.39974 45.200521 60.39974 45.89974 59.200521 40.39974 C 59.200521 40.5 62.299479 40 62.299479 40 Z M 62.299479 40 " transform="matrix(3,0,0,3,0,0)"/>
<path style=" stroke:none;fill-rule:nonzero;fill:rgb(100%,0%,0%);fill-opacity:1;" d="M 173.398438 117.898438 C 174.003906 124.230469 176.167969 130.3125 179.699219 135.601562 C 179.699219 135.300781 185.101562 131.398438 186 118.199219 C 187.800781 117.898438 173.398438 117.898438 173.398438 117.898438 Z M 173.398438 117.898438 "/>
<path style="fill:none;stroke-width:0.4;stroke-linecap:round;stroke-linejoin:round;stroke:rgb(0%,0%,0%);stroke-opacity:1;stroke-miterlimit:4;" d="M 57.5 36 C 57.5 36 57 41.39974 59.89974 45.10026 C 59.89974 45 62.89974 42.799479 62.5 35.89974 C 62.5 35.799479 57.5 36 57.5 36 Z M 57.5 36 " transform="matrix(3,0,0,3,0,0)"/>
<path style="fill-rule:nonzero;fill:rgb(100%,0%,0%);fill-opacity:1;stroke-width:0.4;stroke-linecap:round;stroke-linejoin:round;stroke:rgb(0%,0%,0%);stroke-opacity:1;stroke-miterlimit:4;" d="M 57.39974 39.299479 C 57.39974 39.299479 55.89974 39.700521 55.89974 42 C 55.89974 42 58 42.5 59 39.89974 M 62.700521 39.299479 C 62.700521 39.299479 64.10026 39.700521 64.200521 42 C 62.770833 42.246094 61.401042 41.31901 61.10026 39.89974 " transform="matrix(3,0,0,3,0,0)"/>
<path style=" stroke:none;fill-rule:nonzero;fill:rgb(100%,0%,0%);fill-opacity:1;" d="M 183.601562 119.101562 C 183.601562 119.101562 185.101562 123 179.699219 128.101562 C 176.835938 126.167969 175.234375 122.84375 175.5 119.398438 Z M 183.601562 119.101562 "/>
<path style="fill:none;stroke-width:0.4;stroke-linecap:round;stroke-linejoin:round;stroke:rgb(0%,0%,0%);stroke-opacity:1;stroke-miterlimit:4;" d="M 61.200521 39.700521 C 61.200521 39.700521 61.700521 41 59.89974 42.700521 C 58.976562 42.029948 58.450521 40.940104 58.5 39.799479 Z M 61.200521 39.700521 " transform="matrix(3,0,0,3,0,0)"/>
<path style=" stroke:none;fill-rule:nonzero;fill:rgb(84.313725%,62.352941%,3.529412%);fill-opacity:1;" d="M 160.199219 62.699219 C 158.304688 62.132812 156.492188 61.324219 154.800781 60.300781 C 155.320312 61.140625 155.726562 62.050781 156 63 C 156.535156 64.355469 156.9375 65.765625 157.199219 67.199219 C 157.832031 69.445312 158.136719 71.769531 158.101562 74.101562 L 158.101562 80.101562 L 157.199219 86.699219 L 156.300781 90.898438 C 156.050781 92.988281 155.949219 95.09375 156 97.199219 C 159 93.601562 162 94.199219 165 99.300781 C 165.804688 97.542969 167.339844 96.226562 169.199219 95.699219 C 169.152344 94.789062 169.253906 93.878906 169.5 93 C 170.304688 89.359375 170.507812 85.609375 170.101562 81.898438 L 170.101562 75.300781 C 170.136719 74.191406 170.035156 73.082031 169.800781 72 L 169.199219 64.800781 L 160.5 62.699219 M 192.601562 64.5 L 192 74.699219 L 192.898438 95.101562 C 194.398438 95.398438 195.898438 96.898438 197.398438 99.300781 C 199.800781 93.601562 201.898438 93 204 97.800781 C 203.949219 95.6875 203.75 93.582031 203.398438 91.5 L 202.5 86.699219 L 201.601562 79.5 L 201.601562 72.898438 C 201.652344 71.1875 201.851562 69.480469 202.199219 67.800781 C 202.460938 66.460938 202.863281 65.15625 203.398438 63.898438 C 203.574219 62.496094 204.089844 61.160156 204.898438 60 C 203.007812 61.125 200.996094 62.03125 198.898438 62.699219 L 192.601562 64.5 "/>
<path style=" stroke:none;fill-rule:nonzero;fill:rgb(100%,0%,0%);fill-opacity:1;" d="M 207 56.398438 C 207 54 204.300781 51.898438 198.898438 50.101562 C 193.207031 48.164062 187.214844 47.25 181.199219 47.398438 C 173.699219 50.101562 170.101562 55.199219 170.398438 62.398438 C 170.398438 63.300781 170.699219 63.898438 170.699219 64.800781 L 179.699219 65.398438 C 184.015625 65.429688 188.328125 65.128906 192.601562 64.5 L 198.898438 62.699219 C 200.996094 62.03125 203.007812 61.125 204.898438 60 C 206.148438 59.214844 206.929688 57.871094 207 56.398438 "/>
<path style=" stroke:none;fill-rule:nonzero;fill:rgb(19.607843%,34.117647%,13.72549%);fill-opacity:1;" d="M 197.398438 99.300781 C 195.898438 96.898438 194.398438 95.398438 192.898438 95.101562 C 191.398438 94.800781 188.699219 96.300781 186.300781 100.199219 C 182.699219 94.199219 179.101562 94.199219 175.800781 100.199219 C 173.398438 96.898438 171 95.398438 169.199219 95.699219 C 167.339844 96.226562 165.804688 97.542969 165 99.300781 C 162 94.199219 159 93.601562 156 97.199219 C 155.78125 97.445312 155.671875 97.773438 155.699219 98.101562 C 155.699219 108.300781 158.398438 113.699219 167.101562 119.101562 L 168.300781 119.699219 C 168.300781 119.699219 176.398438 124.199219 189.898438 120.300781 L 192 119.398438 C 199.59375 115.476562 204.261719 107.542969 204 99 C 203.929688 98.496094 203.828125 97.992188 203.699219 97.5 C 201 92.699219 199.800781 93.601562 197.398438 99.300781 Z M 197.398438 99.300781 "/>
<path style=" stroke:none;fill-rule:nonzero;fill:rgb(98.431373%,76.078431%,9.803922%);fill-opacity:1;" d="M 192 74.699219 L 192.601562 64.5 C 188.328125 65.128906 184.015625 65.429688 179.699219 65.398438 L 170.699219 64.800781 L 168.898438 64.800781 L 169.5 72 C 169.734375 73.082031 169.835938 74.191406 169.800781 75.300781 L 169.800781 81.898438 C 170.207031 85.609375 170.003906 89.359375 169.199219 93 C 168.953125 93.878906 168.851562 94.789062 168.898438 95.699219 C 170.699219 95.398438 173.101562 96.898438 175.199219 100.199219 C 178.800781 94.199219 182.398438 94.199219 186 100.199219 C 188.101562 96.300781 190.199219 94.5 192.601562 95.101562 L 192 74.699219 "/>
<path style=" stroke:none;fill-rule:nonzero;fill:rgb(63.921569%,5.490196%,1.176471%);fill-opacity:1;" d="M 181.199219 47.398438 L 179.699219 47.398438 C 173.097656 47.261719 166.515625 48.175781 160.199219 50.101562 C 154.800781 51.898438 152.398438 54 152.398438 56.398438 C 152.308594 58 153.289062 59.46875 154.800781 60 C 156.492188 61.023438 158.304688 61.832031 160.199219 62.398438 L 168.898438 64.5 L 170.699219 64.5 C 170.699219 63.601562 170.398438 63 170.398438 62.101562 C 170.101562 54.898438 173.699219 49.800781 181.199219 47.101562 "/>
<path style="fill:none;stroke-width:0.4;stroke-linecap:round;stroke-linejoin:round;stroke:rgb(0%,0%,0%);stroke-opacity:1;stroke-miterlimit:4;" d="M 63.89974 25 L 67.200521 24.5 C 67.161458 23.893229 67.229167 23.283854 67.39974 22.700521 L 67.700521 21.39974 C 67.804688 20.945312 67.973958 20.507812 68.200521 20.10026 L 66.299479 21 L 64.200521 21.60026 C 62.74349 21.809896 61.272135 21.910156 59.799479 21.89974 L 56.799479 21.700521 L 56.299479 21.700521 C 55.315104 21.548177 54.345052 21.315104 53.39974 21 C 52.768229 20.809896 52.164062 20.541667 51.60026 20.200521 C 51.691406 20.516927 51.825521 20.820312 52 21.10026 C 52.08724 21.578125 52.221354 22.048177 52.39974 22.5 L 52.700521 24.799479 L 56.5 25.299479 C 58.970052 25.449219 61.449219 25.348958 63.89974 25 Z M 63.89974 25 " transform="matrix(3,0,0,3,0,0)"/>
<path style="fill:none;stroke-width:0.4;stroke-linecap:round;stroke-linejoin:round;stroke:rgb(0%,0%,0%);stroke-opacity:1;stroke-miterlimit:4;" d="M 51.60026 20.200521 L 51.5 20.200521 C 51.032552 19.979167 50.723958 19.516927 50.700521 19 C 50.700521 18.200521 51.60026 17.5 53.39974 16.89974 C 55.46875 16.25 57.63151 15.945312 59.799479 16 L 60.299479 16 C 62.335938 15.958333 64.365885 16.263021 66.299479 16.89974 C 68.10026 17.5 69 18.200521 69 19 C 68.924479 19.498698 68.63151 19.938802 68.200521 20.200521 M 56.700521 27.39974 L 52.60026 26.89974 C 52.578125 27.604167 52.511719 28.304688 52.39974 29 C 52.263021 29.458333 52.16276 29.925781 52.10026 30.39974 C 51.984375 31.09375 51.916667 31.795573 51.89974 32.5 C 53 31.299479 54 31.5 54.89974 33.200521 C 55.167969 32.614583 55.679688 32.175781 56.299479 32 C 57 31.89974 57.700521 32.39974 58.5 33.5 C 59.632812 31.5 60.833333 31.5 62.10026 33.5 C 62.799479 32.200521 63.5 31.60026 64.200521 31.799479 C 64.89974 32 65.200521 32.39974 65.700521 33.200521 C 66.5 31.299479 67.299479 31.10026 67.89974 32.700521 C 67.916667 31.998698 67.882812 31.296875 67.799479 30.60026 L 67.5 29 C 67.302083 28.214844 67.201823 27.408854 67.200521 26.60026 L 63.89974 27.299479 C 61.513021 27.632812 59.095052 27.666667 56.700521 27.39974 Z M 56.700521 27.39974 " transform="matrix(3,0,0,3,0,0)"/>
<path style="fill:none;stroke-width:0.4;stroke-linecap:round;stroke-linejoin:round;stroke:rgb(0%,0%,0%);stroke-opacity:1;stroke-miterlimit:4;" d="M 67.89974 33.10026 C 67.972656 35.917969 66.415365 38.526042 63.89974 39.799479 C 61.446615 40.820312 58.703125 40.891927 56.200521 40 C 53.423177 38.55599 51.742188 35.626302 51.89974 32.5 M 67.89974 32.700521 L 67.89974 33.10026 M 52.700521 24.799479 C 52.71224 25.501302 52.678385 26.203125 52.60026 26.89974 M 67.200521 26.60026 C 67.10026 25.903646 67.10026 25.196615 67.200521 24.5 M 54.89974 33.200521 C 54.941406 34.744792 55.109375 36.282552 55.39974 37.799479 M 58.5 33.5 L 58.799479 38.299479 M 65.700521 33.200521 C 65.660156 34.75 65.459635 36.291667 65.10026 37.799479 M 62.10026 33.5 L 61.799479 38.299479 " transform="matrix(3,0,0,3,0,0)"/>
<path style="fill-rule:nonzero;fill:rgb(100%,0%,0%);fill-opacity:1;stroke-width:0.4;stroke-linecap:round;stroke-linejoin:round;stroke:rgb(0%,0%,0%);stroke-opacity:1;stroke-miterlimit:4;" d="M 66.39974 45.200521 L 67.799479 45.200521 L 67.799479 48.5 L 52 48.5 L 52 45.200521 Z M 66.39974 45.200521 " transform="matrix(3,0,0,3,0,0)"/>
<path style=" stroke:none;fill-rule:nonzero;fill:rgb(63.921569%,5.490196%,1.176471%);fill-opacity:1;" d="M 75 354.300781 L 62.699219 363 L 98.101562 363 L 87 351 Z M 75 354.300781 "/>
<path style="fill:none;stroke-width:0.4;stroke-linecap:round;stroke-linejoin:round;stroke:rgb(0%,0%,0%);stroke-opacity:1;stroke-miterlimit:4;" d="M 19.200521 96.89974 C 19.200521 96.89974 15.799479 95.5 14.5 98.200521 C 13.200521 100.89974 16.700521 105.10026 17 105.799479 C 17.229167 106.085938 17.326823 106.454427 17.269531 106.816406 C 17.213542 107.178385 17.00651 107.498698 16.700521 107.700521 C 14.60026 109.200521 17.60026 111.200521 18.700521 108.60026 C 19.799479 106 17.39974 103.200521 16.60026 101.299479 C 15.799479 99.39974 15.10026 97.299479 19.39974 98.39974 M 34.89974 96.89974 C 34.89974 96.89974 38.39974 95.5 39.700521 98.200521 C 41 100.89974 37.5 105.10026 37.200521 105.799479 C 36.971354 106.085938 36.872396 106.454427 36.929688 106.816406 C 36.986979 107.178385 37.19401 107.498698 37.5 107.700521 C 39.60026 109.200521 36.60026 111.200521 35.5 108.60026 C 34.39974 106 36.700521 103.200521 37.60026 101.299479 C 38.5 99.39974 38.89974 97.39974 34.60026 98.60026 " transform="matrix(3,0,0,3,0,0)"/>
<path style=" stroke:none;fill-rule:nonzero;fill:rgb(100%,0%,0%);fill-opacity:1;" d="M 74.398438 347.101562 C 74.398438 347.101562 77.101562 357.300781 62.398438 362.398438 C 62.101562 362.699219 79.800781 365.101562 83.699219 348.601562 Z M 74.398438 347.101562 "/>
<path style=" stroke:none;fill-rule:nonzero;fill:rgb(100%,0%,0%);fill-opacity:1;" d="M 88.5 347.101562 C 88.5 347.101562 85.800781 357.300781 100.5 362.398438 C 100.800781 362.699219 83.101562 364.5 79.5 348 Z M 88.5 347.101562 "/>
<path style="fill:none;stroke-width:0.4;stroke-linecap:round;stroke-linejoin:round;stroke:rgb(0%,0%,0%);stroke-opacity:1;stroke-miterlimit:4;" d="M 24.799479 115.700521 C 24.799479 115.700521 25.700521 119.10026 20.799479 120.799479 C 20.700521 120.89974 26.60026 121.700521 27.89974 116.200521 C 26.858073 116.089844 25.822917 115.923177 24.799479 115.700521 Z M 24.799479 115.700521 " transform="matrix(3,0,0,3,0,0)"/>
<path style="fill:none;stroke-width:0.4;stroke-linecap:round;stroke-linejoin:round;stroke:rgb(0%,0%,0%);stroke-opacity:1;stroke-miterlimit:4;" d="M 29.5 115.700521 C 29.5 115.700521 28.60026 119.10026 33.5 120.799479 C 33.60026 120.89974 27.60026 121.5 26.39974 116 C 27.440104 115.998698 28.479167 115.898438 29.5 115.700521 Z M 29.5 115.700521 " transform="matrix(3,0,0,3,0,0)"/>
<path style=" stroke:none;fill-rule:nonzero;fill:rgb(100%,0%,0%);fill-opacity:1;" d="M 75 345 C 75.648438 351.320312 77.8125 357.390625 81.300781 362.699219 C 81.300781 362.398438 86.699219 358.5 87.601562 345 Z M 75 345 "/>
<path style="fill:none;stroke-width:0.4;stroke-linecap:round;stroke-linejoin:round;stroke:rgb(0%,0%,0%);stroke-opacity:1;stroke-miterlimit:4;" d="M 24.700521 111.60026 C 24.700521 111.60026 24.200521 117.10026 27.10026 120.799479 C 27.10026 120.700521 30 118.39974 29.700521 111.5 Z M 24.700521 111.60026 " transform="matrix(3,0,0,3,0,0)"/>
<path style="fill-rule:nonzero;fill:rgb(100%,0%,0%);fill-opacity:1;stroke-width:0.4;stroke-linecap:round;stroke-linejoin:round;stroke:rgb(0%,0%,0%);stroke-opacity:1;stroke-miterlimit:4;" d="M 24.60026 115 C 24.60026 115 23.10026 115.39974 23.10026 117.700521 C 23.10026 117.700521 25.200521 118.200521 26.200521 115.60026 M 29.89974 115 C 29.89974 115 31.299479 115.39974 31.39974 117.700521 C 29.970052 117.946615 28.601562 117.019531 28.299479 115.60026 " transform="matrix(3,0,0,3,0,0)"/>
<path style=" stroke:none;fill-rule:nonzero;fill:rgb(100%,0%,0%);fill-opacity:1;" d="M 85.199219 346.199219 C 85.199219 346.199219 86.699219 350.101562 81.300781 355.199219 C 78.4375 353.265625 76.832031 349.945312 77.101562 346.5 Z M 85.199219 346.199219 "/>
<path style="fill:none;stroke-width:0.4;stroke-linecap:round;stroke-linejoin:round;stroke:rgb(0%,0%,0%);stroke-opacity:1;stroke-miterlimit:4;" d="M 28.39974 115.39974 C 28.39974 115.39974 28.89974 116.700521 27.10026 118.39974 C 26.175781 117.729167 25.64974 116.640625 25.700521 115.5 Z M 28.39974 115.39974 " transform="matrix(3,0,0,3,0,0)"/>
<path style=" stroke:none;fill-rule:nonzero;fill:rgb(84.313725%,62.352941%,3.529412%);fill-opacity:1;" d="M 61.800781 289.5 C 59.859375 289.058594 58.027344 288.242188 56.398438 287.101562 L 57.601562 290.101562 C 58.136719 291.355469 58.539062 292.660156 58.800781 294 C 59.246094 296.277344 59.546875 298.582031 59.699219 300.898438 L 59.699219 307.199219 L 58.800781 313.800781 L 57.898438 318 C 57.65625 319.992188 57.558594 321.996094 57.601562 324 C 60.601562 320.398438 63.601562 321.300781 66.601562 326.398438 C 67.800781 324 69.300781 322.800781 70.800781 322.800781 C 70.753906 321.890625 70.855469 320.976562 71.101562 320.101562 C 71.902344 316.457031 72.105469 312.707031 71.699219 309 L 71.699219 302.398438 C 71.699219 301.199219 71.398438 300.300781 71.398438 299.101562 L 70.800781 291.601562 C 67.824219 291.253906 64.902344 290.550781 62.101562 289.5 M 94.199219 291.300781 L 93.601562 301.800781 L 94.5 322.199219 C 95.699219 322.5 97.199219 324 98.699219 326.398438 C 101.398438 320.398438 103.5 320.101562 105.601562 324.898438 C 105.550781 322.789062 105.347656 320.683594 105 318.601562 L 104.101562 313.800781 L 103.199219 306.601562 L 103.199219 300 C 103.234375 298.285156 103.433594 296.578125 103.800781 294.898438 C 104.019531 293.550781 104.425781 292.238281 105 291 C 105.175781 289.597656 105.691406 288.257812 106.5 287.101562 C 104.648438 288.234375 102.621094 289.042969 100.5 289.5 C 98.503906 290.414062 96.378906 291.019531 94.199219 291.300781 "/>
<path style=" stroke:none;fill-rule:nonzero;fill:rgb(100%,0%,0%);fill-opacity:1;" d="M 108.601562 283.5 C 108.601562 281.101562 105.898438 278.699219 100.5 276.898438 C 94.753906 275.222656 88.785156 274.414062 82.800781 274.5 C 75.300781 277.199219 71.699219 282.300781 72 289.199219 C 72 290.101562 72.300781 291 72.300781 291.898438 L 81.300781 292.5 C 85.632812 292.589844 89.960938 292.1875 94.199219 291.300781 C 96.378906 291.019531 98.503906 290.414062 100.5 289.5 C 102.621094 289.042969 104.648438 288.234375 106.5 287.101562 C 107.746094 286.316406 108.53125 284.972656 108.601562 283.5 "/>
<path style=" stroke:none;fill-rule:nonzero;fill:rgb(19.607843%,34.117647%,13.72549%);fill-opacity:1;" d="M 99 326.398438 C 97.5 324 96 322.5 94.5 322.199219 C 93 321.898438 90 323.398438 87.898438 327 C 84.300781 321 80.699219 321 77.398438 327 C 75 324 72.601562 322.5 70.800781 322.800781 C 69 323.101562 67.800781 324 66.601562 326.398438 C 63.601562 321.300781 60.601562 320.398438 57.601562 324 C 57.363281 324.351562 57.253906 324.777344 57.300781 325.199219 C 57.300781 335.398438 60 340.800781 68.699219 346.199219 L 69.898438 346.800781 C 69.898438 346.800781 78 351.300781 91.5 347.398438 L 93.601562 346.199219 C 101.246094 342.332031 105.933594 334.363281 105.601562 325.800781 L 105.601562 324.601562 C 102.601562 319.800781 101.398438 320.398438 99 326.398438 Z M 99 326.398438 "/>
<path style=" stroke:none;fill-rule:nonzero;fill:rgb(98.431373%,76.078431%,9.803922%);fill-opacity:1;" d="M 93.601562 301.800781 L 94.199219 291.300781 C 89.960938 292.1875 85.632812 292.589844 81.300781 292.5 L 72.300781 291.898438 L 70.5 291.898438 L 71.101562 299.398438 C 71.101562 300.601562 71.398438 301.5 71.398438 302.699219 L 71.398438 309 C 71.808594 312.707031 71.605469 316.457031 70.800781 320.101562 C 70.554688 320.976562 70.453125 321.890625 70.5 322.800781 C 72.300781 322.5 74.699219 324 76.800781 327 C 80.398438 321 84 321 87.601562 327 C 89.699219 323.398438 91.800781 321.601562 94.199219 322.199219 L 93.300781 301.800781 "/>
<path style=" stroke:none;fill-rule:nonzero;fill:rgb(63.921569%,5.490196%,1.176471%);fill-opacity:1;" d="M 82.800781 274.5 L 81.300781 274.5 C 74.722656 274.40625 68.160156 275.210938 61.800781 276.898438 C 56.398438 278.699219 54 281.101562 54 283.5 C 54.074219 285.050781 54.996094 286.4375 56.398438 287.101562 C 58.027344 288.242188 59.859375 289.058594 61.800781 289.5 C 64.605469 290.550781 67.527344 291.253906 70.5 291.601562 L 72.300781 291.601562 C 72.300781 290.699219 72 289.800781 72 288.898438 C 71.699219 282 75.300781 276.898438 82.800781 274.199219 "/>
<path style="fill:none;stroke-width:0.4;stroke-linecap:round;stroke-linejoin:round;stroke:rgb(0%,0%,0%);stroke-opacity:1;stroke-miterlimit:4;" d="M 31.10026 100.700521 C 32.214844 100.597656 33.320312 100.395833 34.39974 100.10026 C 34.382812 99.53125 34.416667 98.96224 34.5 98.39974 C 34.678385 97.981771 34.8125 97.545573 34.89974 97.10026 C 35.005208 96.645833 35.173177 96.208333 35.39974 95.799479 L 33.5 96.700521 L 31.299479 97.200521 C 29.886719 97.501302 28.44401 97.635417 27 97.60026 L 24 97.39974 L 23.39974 97.39974 L 20.60026 96.700521 L 18.799479 95.89974 C 18.910156 96.209635 19.042969 96.510417 19.200521 96.799479 C 19.300781 97.276042 19.433594 97.74349 19.60026 98.200521 L 19.89974 100.39974 C 21.152344 100.665365 22.421875 100.832031 23.700521 100.89974 C 26.166667 101.083333 28.645833 101.016927 31.10026 100.700521 Z M 31.10026 100.700521 " transform="matrix(3,0,0,3,0,0)"/>
<path style="fill:none;stroke-width:0.4;stroke-linecap:round;stroke-linejoin:round;stroke:rgb(0%,0%,0%);stroke-opacity:1;stroke-miterlimit:4;" d="M 18.799479 95.89974 L 18.700521 95.89974 C 18.268229 95.638021 17.97526 95.199219 17.89974 94.700521 C 17.89974 93.89974 18.799479 93.10026 20.60026 92.5 C 22.686198 91.936198 24.839844 91.667969 27 91.700521 L 27.5 91.700521 C 29.527344 91.679688 31.548177 91.949219 33.5 92.5 C 35.299479 93.10026 36.10026 93.89974 36.10026 94.700521 C 36.076823 95.190104 35.815104 95.638021 35.39974 95.89974 M 23.89974 103.10026 C 22.520833 102.997396 21.151042 102.796875 19.799479 102.5 C 19.700521 103.200521 19.700521 103.89974 19.60026 104.700521 C 19.451823 105.154948 19.351562 105.623698 19.299479 106.10026 C 19.188802 106.761719 19.122396 107.429688 19.10026 108.10026 C 20.200521 107 21.200521 107.200521 22.10026 108.89974 C 22.5 108.10026 23 107.700521 23.5 107.700521 C 24 107.700521 24.89974 108.10026 25.700521 109.10026 C 26.833333 107.233073 28.033854 107.233073 29.299479 109.10026 C 30 107.89974 30.700521 107.299479 31.39974 107.5 C 32.10026 107.700521 32.39974 108.10026 32.89974 108.89974 C 33.700521 107 34.5 106.799479 35.10026 108.39974 C 35.115885 107.697917 35.083333 106.996094 35 106.299479 L 34.700521 104.700521 C 34.502604 103.915365 34.401042 103.109375 34.39974 102.299479 L 31.10026 103 C 28.709635 103.282552 26.296875 103.316406 23.89974 103.10026 Z M 23.89974 103.10026 " transform="matrix(3,0,0,3,0,0)"/>
<path style="fill:none;stroke-width:0.4;stroke-linecap:round;stroke-linejoin:round;stroke:rgb(0%,0%,0%);stroke-opacity:1;stroke-miterlimit:4;" d="M 35.10026 108.799479 C 35.148438 111.611979 33.597656 114.208333 31.10026 115.5 C 28.643229 116.527344 25.882812 116.563802 23.39974 115.60026 C 20.601562 114.230469 18.903646 111.309896 19.10026 108.200521 M 35.10026 108.39974 L 35.10026 108.799479 M 19.89974 100.39974 C 19.916667 101.101562 19.882812 101.803385 19.799479 102.5 M 34.39974 102.299479 C 34.299479 101.570312 34.299479 100.829427 34.39974 100.10026 M 22.10026 108.89974 C 22.145833 110.44401 22.313802 111.981771 22.60026 113.5 M 25.700521 109.10026 L 26 113.89974 M 32.89974 108.89974 C 32.855469 110.449219 32.653646 111.990885 32.299479 113.5 M 29.299479 109.10026 L 29 113.89974 " transform="matrix(3,0,0,3,0,0)"/>
<path style="fill-rule:nonzero;fill:rgb(100%,0%,0%);fill-opacity:1;stroke-width:0.4;stroke-linecap:round;stroke-linejoin:round;stroke:rgb(0%,0%,0%);stroke-opacity:1;stroke-miterlimit:4;" d="M 33.60026 120.89974 L 35 120.89974 L 35 124.200521 L 19.200521 124.200521 L 19.200521 120.89974 Z M 33.60026 120.89974 " transform="matrix(3,0,0,3,0,0)"/>
<path style=" stroke:none;fill-rule:nonzero;fill:rgb(63.921569%,5.490196%,1.176471%);fill-opacity:1;" d="M 173.398438 354.300781 L 161.101562 363 L 196.5 363 L 185.398438 351 Z M 173.398438 354.300781 "/>
<path style="fill:none;stroke-width:0.4;stroke-linecap:round;stroke-linejoin:round;stroke:rgb(0%,0%,0%);stroke-opacity:1;stroke-miterlimit:4;" d="M 52.10026 96.89974 C 52.10026 96.89974 48.60026 95.5 47.299479 98.200521 C 46 100.89974 49.5 105.10026 49.799479 105.799479 C 50.028646 106.085938 50.127604 106.454427 50.070312 106.816406 C 50.013021 107.178385 49.80599 107.498698 49.5 107.700521 C 47.39974 109.200521 50.39974 111.200521 51.5 108.60026 C 52.60026 106 50.299479 103.200521 49.39974 101.299479 C 48.5 99.39974 47.89974 97.299479 52.200521 98.39974 M 67.799479 96.89974 C 67.799479 96.89974 71.200521 95.5 72.5 98.200521 C 73.799479 100.89974 70.299479 105.10026 70 105.799479 C 69.770833 106.085938 69.673177 106.454427 69.730469 106.816406 C 69.786458 107.178385 69.99349 107.498698 70.299479 107.700521 C 72.39974 109.200521 69.39974 111.200521 68.299479 108.60026 C 67.200521 106 69.60026 103.200521 70.39974 101.299479 C 71.200521 99.39974 71.700521 97.39974 67.39974 98.60026 " transform="matrix(3,0,0,3,0,0)"/>
<path style=" stroke:none;fill-rule:nonzero;fill:rgb(100%,0%,0%);fill-opacity:1;" d="M 172.800781 347.101562 C 172.800781 347.101562 175.5 357.300781 160.800781 362.398438 C 160.800781 362.699219 178.199219 365.101562 182.101562 348.601562 Z M 172.800781 347.101562 "/>
<path style=" stroke:none;fill-rule:nonzero;fill:rgb(100%,0%,0%);fill-opacity:1;" d="M 186.898438 347.101562 C 186.898438 347.101562 184.199219 357.300781 198.898438 362.398438 C 199.199219 362.699219 181.5 364.5 177.898438 348 Z M 186.898438 347.101562 "/>
<path style="fill:none;stroke-width:0.4;stroke-linecap:round;stroke-linejoin:round;stroke:rgb(0%,0%,0%);stroke-opacity:1;stroke-miterlimit:4;" d="M 57.60026 115.700521 C 57.60026 115.700521 58.5 119.10026 53.60026 120.799479 C 53.60026 120.89974 59.39974 121.700521 60.700521 116.200521 C 59.658854 116.089844 58.623698 115.923177 57.60026 115.700521 Z M 57.60026 115.700521 " transform="matrix(3,0,0,3,0,0)"/>
<path style="fill:none;stroke-width:0.4;stroke-linecap:round;stroke-linejoin:round;stroke:rgb(0%,0%,0%);stroke-opacity:1;stroke-miterlimit:4;" d="M 62.299479 115.700521 C 62.299479 115.700521 61.39974 119.10026 66.299479 120.799479 C 66.39974 120.89974 60.39974 121.5 59.200521 116 C 60.240885 115.998698 61.278646 115.898438 62.299479 115.700521 Z M 62.299479 115.700521 " transform="matrix(3,0,0,3,0,0)"/>
<path style=" stroke:none;fill-rule:nonzero;fill:rgb(100%,0%,0%);fill-opacity:1;" d="M 173.398438 345 C 174.050781 351.320312 176.210938 357.390625 179.699219 362.699219 C 179.699219 362.398438 185.101562 358.5 186 345 Z M 173.398438 345 "/>
<path style="fill:none;stroke-width:0.4;stroke-linecap:round;stroke-linejoin:round;stroke:rgb(0%,0%,0%);stroke-opacity:1;stroke-miterlimit:4;" d="M 57.5 111.60026 C 57.5 111.60026 57 117.10026 59.89974 120.799479 C 59.89974 120.700521 62.89974 118.39974 62.5 111.5 Z M 57.5 111.60026 " transform="matrix(3,0,0,3,0,0)"/>
<path style="fill-rule:nonzero;fill:rgb(100%,0%,0%);fill-opacity:1;stroke-width:0.4;stroke-linecap:round;stroke-linejoin:round;stroke:rgb(0%,0%,0%);stroke-opacity:1;stroke-miterlimit:4;" d="M 57.39974 115 C 57.39974 115 55.89974 115.39974 55.89974 117.700521 C 55.89974 117.700521 58 118.200521 59 115.60026 M 62.700521 115 C 62.700521 115 64.10026 115.39974 64.200521 117.700521 C 62.770833 117.946615 61.401042 117.019531 61.10026 115.60026 " transform="matrix(3,0,0,3,0,0)"/>
<path style=" stroke:none;fill-rule:nonzero;fill:rgb(100%,0%,0%);fill-opacity:1;" d="M 183.601562 346.199219 C 183.601562 346.199219 185.101562 350.101562 179.699219 355.199219 C 176.835938 353.265625 175.234375 349.945312 175.5 346.5 Z M 183.601562 346.199219 "/>
<path style="fill:none;stroke-width:0.4;stroke-linecap:round;stroke-linejoin:round;stroke:rgb(0%,0%,0%);stroke-opacity:1;stroke-miterlimit:4;" d="M 61.200521 115.39974 C 61.200521 115.39974 61.700521 116.700521 59.89974 118.39974 C 58.976562 117.729167 58.450521 116.640625 58.5 115.5 Z M 61.200521 115.39974 " transform="matrix(3,0,0,3,0,0)"/>
<path style=" stroke:none;fill-rule:nonzero;fill:rgb(84.313725%,62.352941%,3.529412%);fill-opacity:1;" d="M 160.199219 289.5 C 158.261719 289.058594 156.425781 288.242188 154.800781 287.101562 C 155.328125 288.042969 155.730469 289.050781 156 290.101562 C 156.535156 291.355469 156.9375 292.660156 157.199219 294 C 157.792969 296.253906 158.09375 298.570312 158.101562 300.898438 L 158.101562 307.199219 L 157.199219 313.800781 L 156.300781 318 C 156.058594 319.992188 155.957031 321.996094 156 324 C 159 320.398438 162 321.300781 165 326.398438 C 166.199219 324 167.699219 322.800781 169.199219 322.800781 C 169.152344 321.890625 169.253906 320.976562 169.5 320.101562 C 170.304688 316.457031 170.507812 312.707031 170.101562 309 L 170.101562 302.398438 C 170.148438 301.292969 170.046875 300.179688 169.800781 299.101562 L 169.199219 291.601562 C 166.226562 291.253906 163.304688 290.550781 160.5 289.5 M 192.601562 291.300781 L 192 301.800781 L 192.898438 322.199219 C 194.398438 322.5 195.898438 324 197.398438 326.398438 C 199.800781 320.398438 201.898438 320.101562 204 324.898438 C 203.949219 322.789062 203.75 320.683594 203.398438 318.601562 L 202.5 313.800781 L 201.601562 306.601562 L 201.601562 300 C 201.632812 298.285156 201.835938 296.578125 202.199219 294.898438 C 202.421875 293.550781 202.824219 292.238281 203.398438 291 C 203.574219 289.597656 204.089844 288.257812 204.898438 287.101562 C 203.050781 288.234375 201.019531 289.042969 198.898438 289.5 C 196.917969 290.449219 194.785156 291.058594 192.601562 291.300781 "/>
<path style=" stroke:none;fill-rule:nonzero;fill:rgb(100%,0%,0%);fill-opacity:1;" d="M 207 283.5 C 207 281.101562 204.300781 278.699219 198.898438 276.898438 C 193.152344 275.222656 187.1875 274.414062 181.199219 274.5 C 173.699219 277.199219 170.101562 282.300781 170.398438 289.199219 C 170.398438 290.101562 170.699219 291 170.699219 291.898438 L 179.699219 292.5 C 184.03125 292.589844 188.359375 292.1875 192.601562 291.300781 C 194.785156 291.058594 196.917969 290.449219 198.898438 289.5 C 201.019531 289.042969 203.050781 288.234375 204.898438 287.101562 C 206.148438 286.316406 206.929688 284.972656 207 283.5 "/>
<path style=" stroke:none;fill-rule:nonzero;fill:rgb(19.607843%,34.117647%,13.72549%);fill-opacity:1;" d="M 197.398438 326.398438 C 195.898438 324 194.398438 322.5 192.898438 322.199219 C 191.398438 321.898438 188.699219 323.398438 186.300781 327 C 182.699219 321 179.101562 321 175.800781 327 C 173.398438 324 171 322.5 169.199219 322.800781 C 167.398438 323.101562 166.199219 324 165 326.398438 C 162 321.300781 159 320.398438 156 324 C 155.761719 324.351562 155.65625 324.777344 155.699219 325.199219 C 155.699219 335.398438 158.398438 340.800781 167.101562 346.199219 L 168.300781 346.800781 C 168.300781 346.800781 176.398438 351.300781 189.898438 347.398438 L 192 346.199219 C 199.644531 342.332031 204.335938 334.363281 204 325.800781 L 204 324.601562 C 201 319.800781 199.800781 320.398438 197.398438 326.398438 Z M 197.398438 326.398438 "/>
<path style=" stroke:none;fill-rule:nonzero;fill:rgb(98.431373%,76.078431%,9.803922%);fill-opacity:1;" d="M 192 301.800781 L 192.601562 291.300781 C 188.359375 292.1875 184.03125 292.589844 179.699219 292.5 L 170.699219 291.898438 L 168.898438 291.898438 L 169.5 299.398438 C 169.75 300.480469 169.847656 301.589844 169.800781 302.699219 L 169.800781 309 C 170.207031 312.707031 170.003906 316.457031 169.199219 320.101562 C 168.953125 320.976562 168.851562 321.890625 168.898438 322.800781 C 170.699219 322.5 173.101562 324 175.199219 327 C 178.800781 321 182.398438 321 186 327 C 188.101562 323.398438 190.199219 321.601562 192.601562 322.199219 L 191.699219 301.800781 "/>
<path style=" stroke:none;fill-rule:nonzero;fill:rgb(63.921569%,5.490196%,1.176471%);fill-opacity:1;" d="M 181.199219 274.5 L 179.699219 274.5 C 173.121094 274.425781 166.5625 275.234375 160.199219 276.898438 C 154.800781 278.699219 152.398438 281.101562 152.398438 283.5 C 152.472656 285.050781 153.394531 286.4375 154.800781 287.101562 C 156.425781 288.242188 158.261719 289.058594 160.199219 289.5 C 163.003906 290.550781 165.925781 291.253906 168.898438 291.601562 L 170.699219 291.601562 C 170.699219 290.699219 170.398438 289.800781 170.398438 288.898438 C 170.101562 282 173.699219 276.898438 181.199219 274.199219 "/>
<path style="fill:none;stroke-width:0.4;stroke-linecap:round;stroke-linejoin:round;stroke:rgb(0%,0%,0%);stroke-opacity:1;stroke-miterlimit:4;" d="M 63.89974 100.700521 C 65.015625 100.597656 66.119792 100.395833 67.200521 100.10026 C 67.167969 99.526042 67.235677 98.950521 67.39974 98.39974 L 67.700521 97.10026 C 67.804688 96.645833 67.973958 96.208333 68.200521 95.799479 L 66.299479 96.700521 L 64.200521 97.200521 C 62.752604 97.494792 61.277344 97.630208 59.799479 97.60026 L 56.799479 97.39974 L 56.299479 97.39974 L 53.39974 96.700521 L 51.60026 95.89974 C 51.709635 96.209635 51.84375 96.510417 52 96.799479 C 52.10026 97.276042 52.234375 97.74349 52.39974 98.200521 L 52.700521 100.39974 C 53.951823 100.665365 55.222656 100.832031 56.5 100.89974 C 58.967448 101.083333 61.446615 101.016927 63.89974 100.700521 Z M 63.89974 100.700521 " transform="matrix(3,0,0,3,0,0)"/>
<path style="fill:none;stroke-width:0.4;stroke-linecap:round;stroke-linejoin:round;stroke:rgb(0%,0%,0%);stroke-opacity:1;stroke-miterlimit:4;" d="M 51.60026 95.89974 L 51.5 95.89974 C 51.06901 95.638021 50.77474 95.199219 50.700521 94.700521 C 50.700521 93.89974 51.60026 93.10026 53.39974 92.5 C 55.485677 91.936198 57.639323 91.667969 59.799479 91.700521 L 60.299479 91.700521 C 62.328125 91.679688 64.347656 91.949219 66.299479 92.5 C 68.10026 93.10026 69 93.89974 69 94.700521 C 68.924479 95.199219 68.63151 95.638021 68.200521 95.89974 M 56.700521 103.10026 C 55.320312 102.997396 53.950521 102.796875 52.60026 102.5 C 52.578125 103.236979 52.511719 103.971354 52.39974 104.700521 C 52.252604 105.154948 52.152344 105.623698 52.10026 106.10026 C 51.988281 106.761719 51.921875 107.429688 51.89974 108.10026 C 53 107 54 107.200521 54.89974 108.89974 C 55.299479 108.10026 55.799479 107.700521 56.299479 107.700521 C 56.799479 107.700521 57.700521 108.10026 58.5 109.10026 C 59.632812 107.233073 60.833333 107.233073 62.10026 109.10026 C 62.799479 107.89974 63.5 107.299479 64.200521 107.5 C 64.89974 107.700521 65.200521 108.10026 65.700521 108.89974 C 66.5 107 67.299479 106.799479 67.89974 108.39974 C 67.916667 107.697917 67.882812 106.996094 67.799479 106.299479 L 67.5 104.700521 C 67.302083 103.915365 67.201823 103.109375 67.200521 102.299479 L 63.89974 103 C 61.510417 103.282552 59.096354 103.316406 56.700521 103.10026 Z M 56.700521 103.10026 " transform="matrix(3,0,0,3,0,0)"/>
<path style="fill:none;stroke-width:0.4;stroke-linecap:round;stroke-linejoin:round;stroke:rgb(0%,0%,0%);stroke-opacity:1;stroke-miterlimit:4;" d="M 67.89974 108.799479 C 67.947917 111.611979 66.398438 114.208333 63.89974 115.5 C 61.442708 116.527344 58.683594 116.563802 56.200521 115.60026 C 53.438802 114.190104 51.757812 111.296875 51.89974 108.200521 M 67.89974 108.39974 L 67.89974 108.799479 M 52.700521 100.39974 C 52.716146 101.101562 52.683594 101.803385 52.60026 102.5 M 67.200521 102.299479 C 67.10026 101.570312 67.10026 100.829427 67.200521 100.10026 M 54.89974 108.89974 C 54.946615 110.44401 55.113281 111.981771 55.39974 113.5 M 58.5 109.10026 L 58.799479 113.89974 M 65.700521 108.89974 C 65.654948 110.449219 65.454427 111.990885 65.10026 113.5 M 62.10026 109.10026 L 61.799479 113.89974 " transform="matrix(3,0,0,3,0,0)"/>
<path style="fill-rule:nonzero;fill:rgb(100%,0%,0%);fill-opacity:1;stroke-width:0.4;stroke-linecap:round;stroke-linejoin:round;stroke:rgb(0%,0%,0%);stroke-opacity:1;stroke-miterlimit:4;" d="M 66.39974 120.89974 L 67.799479 120.89974 L 67.799479 124.200521 L 52 124.200521 L 52 120.89974 Z M 66.39974 120.89974 " transform="matrix(3,0,0,3,0,0)"/>
<path style="fill-rule:nonzero;fill:rgb(98.431373%,76.078431%,9.803922%);fill-opacity:1;stroke-width:0.4;stroke-linecap:round;stroke-linejoin:round;stroke:rgb(0%,0%,0%);stroke-opacity:1;stroke-miterlimit:4;" d="M 45.299479 70.39974 L 43.5 69.5 L 41.799479 70.39974 L 42.10026 68.39974 L 40.60026 67 L 42.60026 66.700521 L 43.5 65 L 44.39974 66.700521 L 46.39974 67 L 44.89974 68.39974 Z M 45.299479 70.39974 " transform="matrix(3,0,0,3,0,0)"/>
<path style=" stroke:none;fill-rule:nonzero;fill:rgb(98.431373%,76.078431%,9.803922%);fill-opacity:1;" d="M 116.101562 183 L 144.898438 183 L 144.898438 187.5 L 116.101562 187.5 Z M 116.101562 183 "/>
<path style="fill:none;stroke-width:0.4;stroke-linecap:butt;stroke-linejoin:miter;stroke:rgb(0%,0%,0%);stroke-opacity:1;stroke-miterlimit:10;" d="M 37.10026 69.700521 L 35.39974 69.700521 C 35.289062 69.700521 35.200521 69.610677 35.200521 69.5 L 35.799479 68.5 L 35.200521 67.60026 C 35.200521 67.39974 35.299479 67.299479 35.39974 67.299479 L 37.10026 67.299479 C 37.200521 67.299479 37.299479 67.39974 37.299479 67.60026 L 37.299479 69.5 C 37.299479 69.610677 37.210938 69.700521 37.10026 69.700521 Z M 37.10026 69.700521 " transform="matrix(3,0,0,3,0,0)"/>
<path style="fill-rule:nonzero;fill:rgb(100%,100%,100%);fill-opacity:1;stroke-width:0.4;stroke-linecap:butt;stroke-linejoin:miter;stroke:rgb(0%,0%,0%);stroke-opacity:1;stroke-miterlimit:10;" d="M 38.700521 68.799479 L 37.10026 68.799479 C 36.989583 68.799479 36.89974 68.710938 36.89974 68.60026 L 36.89974 66.60026 L 37.10026 66.39974 L 38.700521 66.39974 " transform="matrix(3,0,0,3,0,0)"/>
<path style="fill:none;stroke-width:0.4;stroke-linecap:butt;stroke-linejoin:miter;stroke:rgb(0%,0%,0%);stroke-opacity:1;stroke-miterlimit:10;" d="M 49.89974 69.700521 L 51.60026 69.700521 C 51.710938 69.700521 51.799479 69.610677 51.799479 69.5 L 51.200521 68.5 L 51.799479 67.60026 C 51.799479 67.39974 51.700521 67.299479 51.60026 67.299479 L 49.89974 67.299479 C 49.799479 67.299479 49.700521 67.39974 49.700521 67.60026 L 49.700521 69.5 C 49.700521 69.610677 49.789062 69.700521 49.89974 69.700521 Z M 49.89974 69.700521 " transform="matrix(3,0,0,3,0,0)"/>
<path style="fill-rule:nonzero;fill:rgb(100%,100%,100%);fill-opacity:1;stroke-width:0.4;stroke-linecap:butt;stroke-linejoin:miter;stroke:rgb(0%,0%,0%);stroke-opacity:1;stroke-miterlimit:10;" d="M 48.299479 68.799479 L 49.89974 68.799479 C 50.010417 68.799479 50.10026 68.710938 50.10026 68.60026 L 50.10026 66.60026 L 49.89974 66.39974 L 48.299479 66.39974 " transform="matrix(3,0,0,3,0,0)"/>
<path style="fill:none;stroke-width:0.4;stroke-linecap:butt;stroke-linejoin:miter;stroke:rgb(0%,0%,0%);stroke-opacity:1;stroke-miterlimit:10;" d="M 48.299479 64.700521 L 48.299479 61.39974 C 48.299479 61.179688 48.121094 61 47.89974 61 L 39.10026 61 C 38.878906 61 38.700521 61.179688 38.700521 61.39974 L 38.700521 69.39974 C 38.671875 70.68099 39.169271 71.917969 40.075521 72.824219 C 40.981771 73.730469 42.21875 74.227865 43.5 74.200521 C 44.790365 74.226562 46.036458 73.733073 46.958333 72.829427 C 47.88151 71.927083 48.39974 70.690104 48.39974 69.39974 Z M 38.799479 62.5 L 48.299479 62.5 " transform="matrix(3,0,0,3,0,0)"/>
</g>
</svg>
