<?xml version="1.0" encoding="UTF-8"?>
<svg xmlns="http://www.w3.org/2000/svg" xmlns:xlink="http://www.w3.org/1999/xlink" width="261px" height="420px" viewBox="0 0 261 426" version="1.1">
<g id="surface1">
<path style=" stroke:none;fill-rule:nonzero;fill:rgb(100%,100%,100%);fill-opacity:1;" d="M 18 0 L 243 0 C 252.941406 0 261 8.058594 261 18 L 261 402 C 261 411.941406 252.941406 420 243 420 L 18 420 C 8.058594 420 0 411.941406 0 402 L 0 18 C 0 8.058594 8.058594 0 18 0 Z M 18 0 "/>
<path style=" stroke:none;fill-rule:nonzero;fill:rgb(63.921569%,5.490196%,1.176471%);fill-opacity:1;" d="M 66.601562 359.699219 L 58.199219 366 L 82.800781 366 L 75 357.601562 Z M 66.601562 359.699219 "/>
<path style="fill:none;stroke-width:0.4;stroke-linecap:round;stroke-linejoin:round;stroke:rgb(0%,0%,0%);stroke-opacity:1;stroke-miterlimit:4;" d="M 18.299479 105.299479 C 18.299479 105.299479 15.89974 104.299479 15 106.200521 C 14.10026 108.10026 16.5 110.89974 16.799479 111.39974 C 17.045573 111.846354 16.916667 112.40625 16.5 112.700521 C 15.10026 113.799479 17.200521 115.10026 17.89974 113.39974 C 18.60026 111.700521 17 109.60026 16.39974 108.299479 C 15.799479 107 15.39974 105.60026 18.39974 106.39974 M 29.10026 105.299479 C 29.10026 105.299479 31.5 104.299479 32.39974 106.200521 C 33.299479 108.10026 30.89974 110.89974 30.60026 111.39974 C 30.354167 111.846354 30.483073 112.40625 30.89974 112.700521 C 32.299479 113.799479 30.200521 115.10026 29.5 113.39974 C 28.799479 111.700521 30.39974 109.60026 30.89974 108.299479 C 31.39974 107 31.799479 105.60026 28.89974 106.39974 " transform="matrix(3,0,0,3,0,0)"/>
<path style=" stroke:none;fill-rule:nonzero;fill:rgb(100%,0%,0%);fill-opacity:1;" d="M 66.300781 354.601562 C 66.300781 354.601562 68.398438 361.800781 58.199219 365.398438 C 57.898438 365.398438 70.199219 367.199219 72.898438 355.800781 Z M 66.300781 354.601562 "/>
<path style=" stroke:none;fill-rule:nonzero;fill:rgb(100%,0%,0%);fill-opacity:1;" d="M 76.199219 354.601562 C 76.199219 354.601562 74.101562 361.800781 84.300781 365.398438 C 84.601562 365.398438 72.300781 366.601562 69.898438 355.5 Z M 76.199219 354.601562 "/>
<path style="fill:none;stroke-width:0.4;stroke-linecap:round;stroke-linejoin:round;stroke:rgb(0%,0%,0%);stroke-opacity:1;stroke-miterlimit:4;" d="M 22.10026 118.200521 C 22.10026 118.200521 22.799479 120.60026 19.39974 121.799479 C 19.299479 121.799479 23.299479 122.39974 24.200521 118.60026 Z M 22.10026 118.200521 " transform="matrix(3,0,0,3,0,0)"/>
<path style="fill:none;stroke-width:0.4;stroke-linecap:round;stroke-linejoin:round;stroke:rgb(0%,0%,0%);stroke-opacity:1;stroke-miterlimit:4;" d="M 25.39974 118.200521 C 25.39974 118.200521 24.700521 120.60026 28.10026 121.799479 C 28.200521 121.799479 24.10026 122.299479 23.200521 118.5 Z M 25.39974 118.200521 " transform="matrix(3,0,0,3,0,0)"/>
<path style=" stroke:none;fill-rule:nonzero;fill:rgb(100%,0%,0%);fill-opacity:1;" d="M 66.601562 353.398438 C 67.191406 357.683594 68.726562 361.785156 71.101562 365.398438 C 71.101562 365.398438 74.699219 362.699219 75.601562 353.398438 Z M 66.601562 353.398438 "/>
<path style="fill:none;stroke-width:0.4;stroke-linecap:round;stroke-linejoin:round;stroke:rgb(0%,0%,0%);stroke-opacity:1;stroke-miterlimit:4;" d="M 22.10026 115.39974 C 22.10026 115.39974 21.700521 119.200521 23.700521 121.799479 C 23.700521 121.700521 25.700521 120.10026 25.5 115.39974 C 25.5 115.299479 22.10026 115.39974 22.10026 115.39974 Z M 22.10026 115.39974 " transform="matrix(3,0,0,3,0,0)"/>
<path style="fill-rule:nonzero;fill:rgb(100%,0%,0%);fill-opacity:1;stroke-width:0.4;stroke-linecap:round;stroke-linejoin:round;stroke:rgb(0%,0%,0%);stroke-opacity:1;stroke-miterlimit:4;" d="M 22 117.799479 C 22 117.799479 21 118 20.89974 119.60026 C 21.888021 119.789062 22.852865 119.175781 23.10026 118.200521 M 25.60026 117.799479 C 25.60026 117.799479 26.60026 118 26.700521 119.60026 C 25.71224 119.789062 24.747396 119.175781 24.5 118.200521 " transform="matrix(3,0,0,3,0,0)"/>
<path style=" stroke:none;fill-rule:nonzero;fill:rgb(100%,0%,0%);fill-opacity:1;" d="M 73.800781 354 C 73.800781 354 74.699219 356.699219 71.101562 360.300781 C 69.085938 359.015625 68.027344 356.660156 68.398438 354.300781 Z M 73.800781 354 "/>
<path style="fill:none;stroke-width:0.4;stroke-linecap:round;stroke-linejoin:round;stroke:rgb(0%,0%,0%);stroke-opacity:1;stroke-miterlimit:4;" d="M 24.60026 118 C 24.60026 118 24.89974 118.89974 23.700521 120.10026 C 23.065104 119.640625 22.722656 118.878906 22.799479 118.10026 Z M 24.60026 118 " transform="matrix(3,0,0,3,0,0)"/>
<path style=" stroke:none;fill-rule:nonzero;fill:rgb(84.313725%,62.352941%,3.529412%);fill-opacity:1;" d="M 57.601562 315 C 56.3125 314.742188 55.089844 314.234375 54 313.5 L 54.898438 315.601562 C 55.242188 316.460938 55.445312 317.375 55.5 318.300781 L 56.398438 323.101562 C 56.398438 324.300781 56.101562 325.800781 56.101562 327.300781 C 56.046875 328.816406 55.847656 330.324219 55.5 331.800781 C 55.417969 332.820312 55.214844 333.828125 54.898438 334.800781 C 54.898438 336.300781 54.601562 337.5 54.601562 339 C 54.601562 340.5 58.800781 336.898438 60.898438 340.5 C 61.800781 339 62.699219 338.101562 63.898438 338.101562 C 63.832031 337.386719 63.933594 336.667969 64.199219 336 C 64.605469 333.519531 64.707031 331.003906 64.5 328.5 L 64.5 321.601562 L 63.898438 316.5 L 57.898438 315 M 80.101562 316.5 L 79.5 323.398438 L 80.101562 337.5 C 81.449219 338.078125 82.523438 339.152344 83.101562 340.5 C 84.898438 336.300781 86.398438 336 87.898438 339.300781 C 89.398438 342.601562 87.601562 336.601562 87.601562 335.101562 L 86.699219 331.800781 C 86.449219 330.113281 86.351562 328.40625 86.398438 326.699219 C 86.101562 325.214844 86.101562 323.683594 86.398438 322.199219 C 86.335938 321.089844 86.433594 319.980469 86.699219 318.898438 C 86.726562 317.875 86.929688 316.859375 87.300781 315.898438 C 87.515625 315.019531 87.925781 314.199219 88.5 313.5 C 87.191406 314.222656 85.773438 314.730469 84.300781 315 L 80.101562 316.5 "/>
<path style=" stroke:none;fill-rule:nonzero;fill:rgb(100%,0%,0%);fill-opacity:1;" d="M 90 310.800781 C 90 309 88.199219 307.800781 84.300781 306.300781 C 80.285156 305.265625 76.148438 304.757812 72 304.800781 C 67.335938 305.84375 64.222656 310.253906 64.800781 315 L 64.800781 316.800781 L 71.101562 316.800781 L 80.101562 316.199219 L 84.300781 314.699219 C 85.773438 314.429688 87.191406 313.925781 88.5 313.199219 C 89.324219 312.523438 89.859375 311.558594 90 310.5 "/>
<path style=" stroke:none;fill-rule:nonzero;fill:rgb(19.607843%,34.117647%,13.72549%);fill-opacity:1;" d="M 83.398438 340.5 C 82.199219 338.699219 81.300781 337.800781 80.101562 337.5 C 78.898438 337.199219 77.101562 338.398438 75.601562 341.101562 C 73.199219 336.898438 70.800781 336.898438 68.398438 341.101562 C 66.601562 338.699219 65.101562 337.800781 63.898438 338.101562 C 62.699219 338.398438 61.800781 339 60.898438 340.5 C 58.800781 336.898438 57 336.300781 54.601562 339 L 54.601562 339.601562 C 54.601562 346.5 56.398438 350.398438 62.398438 354 L 63.300781 354.601562 C 67.984375 356.554688 73.238281 356.660156 78 354.898438 L 79.5 354.300781 C 84.796875 351.625 88.070312 346.132812 87.898438 340.199219 C 87.898438 339.898438 87.601562 339.601562 87.601562 339.300781 C 87.601562 339 85.199219 336.300781 83.398438 340.5 Z M 83.398438 340.5 "/>
<path style=" stroke:none;fill-rule:nonzero;fill:rgb(98.431373%,76.078431%,9.803922%);fill-opacity:1;" d="M 79.5 323.398438 L 80.101562 316.5 L 71.101562 317.101562 L 63.601562 317.101562 L 64.199219 322.199219 L 64.199219 329.101562 C 64.40625 331.601562 64.304688 334.121094 63.898438 336.601562 C 63.632812 337.265625 63.53125 337.984375 63.601562 338.699219 C 64.800781 338.398438 66.300781 339.300781 68.101562 341.699219 C 70.199219 337.5 72.898438 337.5 75.300781 341.699219 C 76.898438 338.898438 78.398438 337.699219 79.800781 338.101562 L 79.199219 324 "/>
<path style=" stroke:none;fill-rule:nonzero;fill:rgb(63.921569%,5.490196%,1.176471%);fill-opacity:1;" d="M 72 304.800781 L 71.101562 304.800781 C 66.550781 304.617188 62 305.125 57.601562 306.300781 C 54 307.800781 52.199219 309 52.199219 310.800781 C 52.339844 311.859375 52.875 312.824219 53.699219 313.5 L 54 313.5 C 55.089844 314.234375 56.3125 314.742188 57.601562 315 L 63.601562 316.5 L 64.800781 316.5 L 64.800781 315 C 64.222656 310.253906 67.335938 305.84375 72 304.800781 "/>
<path style="fill:none;stroke-width:0.4;stroke-linecap:round;stroke-linejoin:round;stroke:rgb(0%,0%,0%);stroke-opacity:1;stroke-miterlimit:4;" d="M 26.5 107.89974 L 28.700521 107.5 C 28.700521 107.10026 28.799479 106.700521 28.799479 106.299479 L 29.10026 105.39974 L 29.39974 104.5 C 29.016927 104.795573 28.572917 105.001302 28.10026 105.10026 L 26.60026 105.5 C 25.610677 105.677083 24.604167 105.74349 23.60026 105.700521 L 21.200521 105.700521 C 20.516927 105.605469 19.847656 105.4375 19.200521 105.200521 L 17.89974 104.700521 L 18.200521 105.299479 L 18.5 106.299479 C 18.622396 106.790365 18.688802 107.294271 18.700521 107.799479 L 21.39974 108.200521 C 23.105469 108.25 24.8125 108.14974 26.5 107.89974 Z M 26.5 107.89974 " transform="matrix(3,0,0,3,0,0)"/>
<path style="fill:none;stroke-width:0.4;stroke-linecap:round;stroke-linejoin:round;stroke:rgb(0%,0%,0%);stroke-opacity:1;stroke-miterlimit:4;" d="M 17.89974 104.60026 C 17.576823 104.470052 17.375 104.147135 17.39974 103.799479 C 17.39974 103.200521 18 102.700521 19.200521 102.299479 C 20.626302 101.871094 22.110677 101.667969 23.60026 101.700521 L 24 101.700521 C 25.390625 101.674479 26.776042 101.876302 28.10026 102.299479 C 29.299479 102.700521 29.89974 103.200521 29.89974 103.799479 C 29.924479 104.147135 29.722656 104.470052 29.39974 104.60026 M 21.5 109.60026 L 18.700521 109.200521 C 18.60026 109.60026 18.60026 110.10026 18.5 110.700521 C 18.39974 111.299479 18.39974 111.299479 18.299479 111.60026 C 18.220052 112.0625 18.1875 112.53125 18.200521 113 C 18.89974 112.200521 19.60026 112.39974 20.299479 113.5 C 20.484375 113.126302 20.807292 112.839844 21.200521 112.700521 C 21.835938 112.760417 22.39974 113.135417 22.700521 113.700521 C 23.5 112.39974 24.299479 112.39974 25.200521 113.700521 C 25.700521 112.799479 26.200521 112.5 26.700521 112.60026 C 27.127604 112.776042 27.480469 113.09375 27.700521 113.5 C 28.299479 112.233073 28.799479 112.132812 29.200521 113.200521 C 29.213542 112.697917 29.179688 112.195312 29.10026 111.700521 C 29.080729 111.359375 29.014323 111.022135 28.89974 110.700521 C 28.799479 110.10026 28.799479 109.5 28.700521 109 L 26.5 109.5 C 24.839844 109.682292 23.166667 109.716146 21.5 109.60026 Z M 21.5 109.60026 " transform="matrix(3,0,0,3,0,0)"/>
<path style="fill:none;stroke-width:0.4;stroke-linecap:round;stroke-linejoin:round;stroke:rgb(0%,0%,0%);stroke-opacity:1;stroke-miterlimit:4;" d="M 29.200521 113.5 C 29.195312 115.434896 28.115885 117.207031 26.39974 118.10026 C 24.748698 118.821615 22.877604 118.856771 21.200521 118.200521 C 19.255208 117.268229 18.070312 115.251302 18.200521 113.10026 M 29.200521 113.200521 L 29.200521 113.5 M 18.700521 107.700521 L 18.700521 109.200521 M 28.700521 109 L 28.700521 107.5 M 20.299479 113.5 C 20.291667 114.574219 20.391927 115.645833 20.60026 116.700521 M 22.700521 113.700521 L 23 117 M 27.700521 113.5 C 27.657552 114.575521 27.52474 115.647135 27.299479 116.700521 M 25.200521 113.700521 L 25 117 " transform="matrix(3,0,0,3,0,0)"/>
<path style="fill-rule:nonzero;fill:rgb(100%,0%,0%);fill-opacity:1;stroke-width:0.4;stroke-linecap:round;stroke-linejoin:round;stroke:rgb(0%,0%,0%);stroke-opacity:1;stroke-miterlimit:4;" d="M 28.200521 121.799479 L 29.10026 121.799479 L 29.10026 124.10026 L 18.299479 124.10026 L 18.299479 121.799479 Z M 28.200521 121.799479 " transform="matrix(3,0,0,3,0,0)"/>
<path style=" stroke:none;fill-rule:nonzero;fill:rgb(63.921569%,5.490196%,1.176471%);fill-opacity:1;" d="M 185.398438 359.699219 L 177 366 L 201.601562 366 L 193.800781 357.601562 Z M 185.398438 359.699219 "/>
<path style="fill:none;stroke-width:0.4;stroke-linecap:round;stroke-linejoin:round;stroke:rgb(0%,0%,0%);stroke-opacity:1;stroke-miterlimit:4;" d="M 57.89974 105.299479 C 57.89974 105.299479 55.5 104.299479 54.60026 106.200521 C 53.700521 108.10026 56.10026 110.89974 56.39974 111.39974 C 56.645833 111.846354 56.516927 112.40625 56.10026 112.700521 C 54.700521 113.799479 56.799479 115.10026 57.5 113.39974 C 58.200521 111.700521 56.60026 109.60026 56.10026 108.299479 C 55.60026 107 55 105.60026 58 106.39974 M 68.700521 105.299479 C 68.700521 105.299479 71.10026 104.299479 72 106.200521 C 72.89974 108.10026 70.5 110.89974 70.200521 111.39974 C 69.954427 111.846354 70.083333 112.40625 70.5 112.700521 C 71.89974 113.799479 69.799479 115.10026 69.10026 113.39974 C 68.39974 111.700521 70 109.60026 70.60026 108.299479 C 71.200521 107 71.39974 105.60026 68.5 106.39974 " transform="matrix(3,0,0,3,0,0)"/>
<path style=" stroke:none;fill-rule:nonzero;fill:rgb(100%,0%,0%);fill-opacity:1;" d="M 185.101562 354.601562 C 185.101562 354.601562 187.199219 361.800781 177 365.398438 C 176.699219 365.398438 189 367.199219 191.699219 355.800781 Z M 185.101562 354.601562 "/>
<path style=" stroke:none;fill-rule:nonzero;fill:rgb(100%,0%,0%);fill-opacity:1;" d="M 195 354.601562 C 195 354.601562 192.898438 361.800781 203.101562 365.398438 C 203.398438 365.398438 191.101562 366.601562 188.699219 355.5 Z M 195 354.601562 "/>
<path style="fill:none;stroke-width:0.4;stroke-linecap:round;stroke-linejoin:round;stroke:rgb(0%,0%,0%);stroke-opacity:1;stroke-miterlimit:4;" d="M 61.700521 118.200521 C 61.700521 118.200521 62.39974 120.60026 59 121.799479 C 58.89974 121.799479 62.89974 122.39974 63.799479 118.60026 Z M 61.700521 118.200521 " transform="matrix(3,0,0,3,0,0)"/>
<path style="fill:none;stroke-width:0.4;stroke-linecap:round;stroke-linejoin:round;stroke:rgb(0%,0%,0%);stroke-opacity:1;stroke-miterlimit:4;" d="M 65 118.200521 C 65 118.200521 64.299479 120.60026 67.700521 121.799479 C 67.799479 121.799479 63.700521 122.299479 62.799479 118.5 Z M 65 118.200521 " transform="matrix(3,0,0,3,0,0)"/>
<path style=" stroke:none;fill-rule:nonzero;fill:rgb(100%,0%,0%);fill-opacity:1;" d="M 185.398438 353.398438 C 185.988281 357.683594 187.527344 361.785156 189.898438 365.398438 C 189.898438 365.398438 193.5 362.699219 194.398438 353.398438 Z M 185.398438 353.398438 "/>
<path style="fill:none;stroke-width:0.4;stroke-linecap:round;stroke-linejoin:round;stroke:rgb(0%,0%,0%);stroke-opacity:1;stroke-miterlimit:4;" d="M 61.700521 115.39974 C 61.700521 115.39974 61.299479 119.200521 63.299479 121.799479 C 63.299479 121.700521 65.299479 120.10026 65.10026 115.39974 C 65.10026 115.299479 61.700521 115.39974 61.700521 115.39974 Z M 61.700521 115.39974 " transform="matrix(3,0,0,3,0,0)"/>
<path style="fill-rule:nonzero;fill:rgb(100%,0%,0%);fill-opacity:1;stroke-width:0.4;stroke-linecap:round;stroke-linejoin:round;stroke:rgb(0%,0%,0%);stroke-opacity:1;stroke-miterlimit:4;" d="M 61.60026 117.799479 C 61.60026 117.799479 60.60026 118 60.5 119.60026 C 61.488281 119.789062 62.453125 119.175781 62.700521 118.200521 M 65.200521 117.799479 C 65.200521 117.799479 66.200521 118 66.299479 119.60026 C 65.311198 119.789062 64.346354 119.175781 64.10026 118.200521 " transform="matrix(3,0,0,3,0,0)"/>
<path style=" stroke:none;fill-rule:nonzero;fill:rgb(100%,0%,0%);fill-opacity:1;" d="M 192.601562 354 C 192.601562 354 193.5 356.699219 189.898438 360.300781 C 187.886719 359.015625 186.824219 356.660156 187.199219 354.300781 Z M 192.601562 354 "/>
<path style="fill:none;stroke-width:0.4;stroke-linecap:round;stroke-linejoin:round;stroke:rgb(0%,0%,0%);stroke-opacity:1;stroke-miterlimit:4;" d="M 64.200521 118 C 64.200521 118 64.5 118.89974 63.299479 120.10026 C 62.665365 119.640625 62.322917 118.878906 62.39974 118.10026 Z M 64.200521 118 " transform="matrix(3,0,0,3,0,0)"/>
<path style=" stroke:none;fill-rule:nonzero;fill:rgb(84.313725%,62.352941%,3.529412%);fill-opacity:1;" d="M 176.398438 315 C 175.113281 314.742188 173.886719 314.234375 172.800781 313.5 L 173.699219 315.601562 C 174.042969 316.460938 174.246094 317.375 174.300781 318.300781 L 175.199219 323.101562 C 175.199219 324.300781 174.898438 325.800781 174.898438 327.300781 C 174.847656 328.816406 174.648438 330.324219 174.300781 331.800781 C 174.300781 332.699219 174 333.601562 174 334.800781 C 173.65625 336.175781 173.453125 337.582031 173.398438 339 C 175.800781 336.300781 177.601562 336.898438 179.699219 340.5 C 180.601562 339 181.5 338.101562 182.699219 338.101562 C 182.632812 337.386719 182.734375 336.667969 183 336 C 183.40625 333.519531 183.503906 331.003906 183.300781 328.5 L 183.300781 321.601562 L 182.699219 316.5 L 176.699219 315 M 198.898438 316.5 L 198.300781 323.398438 L 198.898438 337.5 C 200.25 338.078125 201.324219 339.152344 201.898438 340.5 C 203.699219 336.300781 205.199219 336 206.699219 339.300781 C 208.199219 342.601562 206.398438 336.601562 206.398438 335.101562 L 205.5 331.800781 C 205.5 330 205.199219 328.5 205.199219 326.699219 C 204.902344 325.214844 204.902344 323.683594 205.199219 322.199219 C 205.132812 321.089844 205.234375 319.980469 205.5 318.898438 C 205.527344 317.875 205.730469 316.859375 206.101562 315.898438 C 206.3125 315.019531 206.722656 314.199219 207.300781 313.5 C 205.992188 314.222656 204.570312 314.730469 203.101562 315 L 198.898438 316.5 "/>
<path style=" stroke:none;fill-rule:nonzero;fill:rgb(100%,0%,0%);fill-opacity:1;" d="M 208.800781 310.800781 C 208.800781 309 207 307.800781 203.101562 306.300781 C 199.082031 305.265625 194.949219 304.757812 190.800781 304.800781 C 186.136719 305.84375 183.023438 310.253906 183.601562 315 L 183.601562 316.800781 L 189.898438 316.800781 L 198.898438 316.199219 L 203.101562 314.699219 C 204.570312 314.429688 205.992188 313.925781 207.300781 313.199219 C 208.125 312.523438 208.660156 311.558594 208.800781 310.5 "/>
<path style=" stroke:none;fill-rule:nonzero;fill:rgb(19.607843%,34.117647%,13.72549%);fill-opacity:1;" d="M 202.199219 340.5 C 201 338.699219 200.101562 337.800781 198.898438 337.5 C 197.699219 337.199219 195.898438 338.398438 194.398438 341.101562 C 192 336.898438 189.601562 336.898438 187.199219 341.101562 C 185.398438 338.699219 183.898438 337.800781 182.699219 338.101562 C 181.5 338.398438 180.601562 339 179.699219 340.5 C 177.601562 336.898438 175.800781 336.300781 173.398438 339 L 173.398438 339.601562 C 173.398438 346.5 175.199219 350.398438 181.199219 354 L 182.101562 354.601562 C 186.785156 356.554688 192.039062 356.660156 196.800781 354.898438 L 198.300781 354.300781 C 203.597656 351.625 206.871094 346.132812 206.699219 340.199219 C 206.699219 339.898438 206.398438 339.601562 206.398438 339.300781 C 206.398438 339 204 336.300781 202.199219 340.5 Z M 202.199219 340.5 "/>
<path style=" stroke:none;fill-rule:nonzero;fill:rgb(98.431373%,76.078431%,9.803922%);fill-opacity:1;" d="M 198.300781 323.398438 L 198.898438 316.5 L 189.898438 317.101562 L 182.398438 317.101562 L 183 322.199219 L 183 329.101562 C 183.257812 331.394531 183.257812 333.707031 183 336 C 182.734375 336.667969 182.632812 337.386719 182.699219 338.101562 C 183.898438 337.800781 185.398438 338.699219 187.199219 341.101562 C 189.601562 336.898438 192 336.898438 194.398438 341.101562 C 196 338.300781 197.5 337.101562 198.898438 337.5 L 198.300781 323.398438 "/>
<path style=" stroke:none;fill-rule:nonzero;fill:rgb(63.921569%,5.490196%,1.176471%);fill-opacity:1;" d="M 190.800781 304.800781 L 189.898438 304.800781 C 185.351562 304.617188 180.800781 305.125 176.398438 306.300781 C 172.800781 307.800781 171 309 171 310.800781 C 171.140625 311.859375 171.675781 312.824219 172.5 313.5 L 172.800781 313.5 C 173.886719 314.234375 175.113281 314.742188 176.398438 315 L 182.398438 316.5 L 183.601562 316.5 L 183.601562 315 C 183.023438 310.253906 186.136719 305.84375 190.800781 304.800781 "/>
<path style="fill:none;stroke-width:0.4;stroke-linecap:round;stroke-linejoin:round;stroke:rgb(0%,0%,0%);stroke-opacity:1;stroke-miterlimit:4;" d="M 66.10026 107.89974 L 68.299479 107.5 C 68.299479 107.10026 68.39974 106.700521 68.39974 106.299479 L 68.700521 105.39974 L 69 104.5 C 68.617188 104.795573 68.173177 105.001302 67.700521 105.10026 L 66.200521 105.5 C 65.210938 105.677083 64.204427 105.74349 63.200521 105.700521 L 60.799479 105.700521 C 60.117188 105.605469 59.446615 105.4375 58.799479 105.200521 L 57.5 104.700521 L 57.799479 105.299479 L 58.10026 106.299479 C 58.222656 106.790365 58.289062 107.294271 58.299479 107.799479 L 61 108.200521 C 62.705729 108.25 64.41276 108.14974 66.10026 107.89974 Z M 66.10026 107.89974 " transform="matrix(3,0,0,3,0,0)"/>
<path style="fill:none;stroke-width:0.4;stroke-linecap:round;stroke-linejoin:round;stroke:rgb(0%,0%,0%);stroke-opacity:1;stroke-miterlimit:4;" d="M 57.5 104.60026 C 57.177083 104.470052 56.97526 104.147135 57 103.799479 C 57 103.200521 57.60026 102.700521 58.799479 102.299479 C 60.226562 101.871094 61.710938 101.667969 63.200521 101.700521 L 63.60026 101.700521 C 64.990885 101.674479 66.375 101.876302 67.700521 102.299479 C 68.89974 102.700521 69.5 103.200521 69.5 103.799479 C 69.52474 104.147135 69.322917 104.470052 69 104.60026 M 61.10026 109.60026 L 58.299479 109.200521 C 58.200521 109.60026 58.200521 110.10026 58.10026 110.700521 C 58 111.299479 58 111.299479 57.89974 111.60026 C 57.820312 112.0625 57.786458 112.53125 57.799479 113 C 58.5 112.200521 59.200521 112.39974 59.89974 113.5 C 60.084635 113.126302 60.407552 112.839844 60.799479 112.700521 C 61.436198 112.760417 62 113.135417 62.299479 113.700521 C 63.10026 112.39974 63.89974 112.39974 64.799479 113.700521 C 65.299479 112.799479 65.799479 112.5 66.299479 112.60026 C 66.727865 112.776042 67.080729 113.09375 67.299479 113.5 C 67.89974 112.233073 68.39974 112.132812 68.799479 113.200521 C 68.813802 112.697917 68.779948 112.195312 68.700521 111.700521 C 68.68099 111.359375 68.613281 111.022135 68.5 110.700521 C 68.39974 110.10026 68.39974 109.5 68.299479 109 L 66.10026 109.5 C 64.440104 109.682292 62.766927 109.716146 61.10026 109.60026 Z M 61.10026 109.60026 " transform="matrix(3,0,0,3,0,0)"/>
<path style="fill:none;stroke-width:0.4;stroke-linecap:round;stroke-linejoin:round;stroke:rgb(0%,0%,0%);stroke-opacity:1;stroke-miterlimit:4;" d="M 68.799479 113.5 C 68.795573 115.434896 67.716146 117.207031 66 118.10026 C 64.348958 118.821615 62.477865 118.856771 60.799479 118.200521 C 58.855469 117.268229 57.669271 115.251302 57.799479 113.10026 M 68.799479 113.200521 L 68.799479 113.5 M 58.299479 107.700521 L 58.299479 109.200521 M 68.299479 109 L 68.299479 107.5 M 59.89974 113.5 C 59.891927 114.574219 59.992188 115.645833 60.200521 116.700521 M 62.299479 113.700521 L 62.60026 117 M 67.299479 113.5 C 67.257812 114.575521 67.123698 115.647135 66.89974 116.700521 M 64.799479 113.700521 L 64.60026 117 " transform="matrix(3,0,0,3,0,0)"/>
<path style="fill-rule:nonzero;fill:rgb(100%,0%,0%);fill-opacity:1;stroke-width:0.4;stroke-linecap:round;stroke-linejoin:round;stroke:rgb(0%,0%,0%);stroke-opacity:1;stroke-miterlimit:4;" d="M 67.799479 121.799479 L 68.700521 121.799479 L 68.700521 124.10026 L 57.89974 124.10026 L 57.89974 121.799479 Z M 67.799479 121.799479 " transform="matrix(3,0,0,3,0,0)"/>
<path style=" stroke:none;fill-rule:nonzero;fill:rgb(63.921569%,5.490196%,1.176471%);fill-opacity:1;" d="M 66.601562 103.800781 L 58.199219 111 L 82.800781 111 L 75 102 Z M 66.601562 103.800781 "/>
<path style="fill:none;stroke-width:0.4;stroke-linecap:round;stroke-linejoin:round;stroke:rgb(0%,0%,0%);stroke-opacity:1;stroke-miterlimit:4;" d="M 18.299479 19.700521 C 18.299479 19.700521 15.89974 18.60026 15 20.5 C 14.10026 22.39974 16.5 25.299479 16.799479 25.700521 C 17.058594 26.177083 16.93099 26.770833 16.5 27.10026 C 15.10026 28.10026 17.200521 29.5 17.89974 27.700521 C 18.60026 25.89974 17 24 16.39974 22.700521 C 15.799479 21.39974 15.39974 19.89974 18.39974 20.700521 M 29.10026 19.700521 C 29.10026 19.700521 31.5 18.60026 32.39974 20.5 C 33.299479 22.39974 30.89974 25.299479 30.60026 25.700521 C 30.341146 26.177083 30.46875 26.770833 30.89974 27.10026 C 32.299479 28.10026 30.200521 29.5 29.5 27.700521 C 28.799479 25.89974 30.39974 24 30.89974 22.700521 C 31.39974 21.39974 31.799479 20 28.89974 20.799479 " transform="matrix(3,0,0,3,0,0)"/>
<path style=" stroke:none;fill-rule:nonzero;fill:rgb(100%,0%,0%);fill-opacity:1;" d="M 66.300781 97.800781 C 66.300781 97.800781 68.398438 104.699219 58.199219 108.300781 C 64.890625 109.601562 71.402344 105.347656 72.898438 98.699219 C 70.679688 98.566406 68.472656 98.265625 66.300781 97.800781 Z M 66.300781 97.800781 "/>
<path style=" stroke:none;fill-rule:nonzero;fill:rgb(100%,0%,0%);fill-opacity:1;" d="M 76.199219 97.800781 C 76.199219 97.800781 74.101562 104.699219 84.300781 108.300781 C 77.621094 109.40625 71.261719 105.03125 69.898438 98.398438 C 72.011719 98.347656 74.117188 98.148438 76.199219 97.800781 Z M 76.199219 97.800781 "/>
<path style="fill:none;stroke-width:0.4;stroke-linecap:round;stroke-linejoin:round;stroke:rgb(0%,0%,0%);stroke-opacity:1;stroke-miterlimit:4;" d="M 22.10026 32.60026 C 22.10026 32.60026 22.799479 34.89974 19.39974 36.10026 C 21.595052 36.47526 23.701823 35.070312 24.200521 32.89974 C 23.49349 32.848958 22.791667 32.748698 22.10026 32.60026 Z M 22.10026 32.60026 " transform="matrix(3,0,0,3,0,0)"/>
<path style="fill:none;stroke-width:0.4;stroke-linecap:round;stroke-linejoin:round;stroke:rgb(0%,0%,0%);stroke-opacity:1;stroke-miterlimit:4;" d="M 25.39974 32.60026 C 25.39974 32.60026 24.700521 34.89974 28.10026 36.10026 C 25.860677 36.423177 23.742188 34.996094 23.200521 32.799479 C 23.9375 32.782552 24.671875 32.716146 25.39974 32.60026 Z M 25.39974 32.60026 " transform="matrix(3,0,0,3,0,0)"/>
<path style=" stroke:none;fill-rule:nonzero;fill:rgb(100%,0%,0%);fill-opacity:1;" d="M 66.601562 96.300781 C 67.167969 100.683594 68.703125 104.886719 71.101562 108.601562 C 73.953125 105.128906 75.539062 100.792969 75.601562 96.300781 Z M 66.601562 96.300781 "/>
<path style="fill:none;stroke-width:0.4;stroke-linecap:round;stroke-linejoin:round;stroke:rgb(0%,0%,0%);stroke-opacity:1;stroke-miterlimit:4;" d="M 22.10026 29.799479 C 22.10026 29.799479 21.700521 33.60026 23.700521 36.10026 C 23.700521 36 25.700521 34.5 25.5 29.700521 Z M 22.10026 29.799479 " transform="matrix(3,0,0,3,0,0)"/>
<path style="fill-rule:nonzero;fill:rgb(100%,0%,0%);fill-opacity:1;stroke-width:0.4;stroke-linecap:round;stroke-linejoin:round;stroke:rgb(0%,0%,0%);stroke-opacity:1;stroke-miterlimit:4;" d="M 22 32.10026 C 22 32.10026 21 32.39974 20.89974 34 C 21.907552 34.13151 22.854167 33.486979 23.10026 32.5 M 25.60026 32.10026 C 25.60026 32.10026 26.60026 32.39974 26.700521 34 C 25.691406 34.13151 24.746094 33.486979 24.5 32.5 " transform="matrix(3,0,0,3,0,0)"/>
<path style=" stroke:none;fill-rule:nonzero;fill:rgb(100%,0%,0%);fill-opacity:1;" d="M 73.800781 97.199219 C 73.800781 97.199219 74.699219 99.898438 71.101562 103.199219 C 69.085938 101.914062 68.027344 99.558594 68.398438 97.199219 Z M 73.800781 97.199219 "/>
<path style="fill:none;stroke-width:0.4;stroke-linecap:round;stroke-linejoin:round;stroke:rgb(0%,0%,0%);stroke-opacity:1;stroke-miterlimit:4;" d="M 24.60026 32.39974 C 24.60026 32.39974 24.89974 33.299479 23.700521 34.39974 C 23.065104 33.941406 22.722656 33.179688 22.799479 32.39974 Z M 24.60026 32.39974 " transform="matrix(3,0,0,3,0,0)"/>
<path style=" stroke:none;fill-rule:nonzero;fill:rgb(84.313725%,62.352941%,3.529412%);fill-opacity:1;" d="M 57.601562 58.199219 L 54 56.398438 L 54.898438 58.5 C 55.242188 59.363281 55.445312 60.273438 55.5 61.199219 L 56.398438 66 C 56.398438 67.5 56.101562 68.699219 56.101562 70.199219 C 56.046875 71.714844 55.847656 73.222656 55.5 74.699219 C 55.472656 75.726562 55.269531 76.742188 54.898438 77.699219 C 54.898438 79.199219 54.601562 80.699219 54.601562 81.898438 C 54.601562 83.101562 58.800781 80.101562 60.898438 83.398438 C 61.800781 81.898438 62.699219 81 63.898438 81 C 63.855469 80.382812 63.960938 79.769531 64.199219 79.199219 C 64.601562 76.621094 64.699219 74.003906 64.5 71.398438 L 64.5 64.800781 L 63.898438 59.699219 L 57.898438 58.199219 M 80.101562 59.398438 L 79.5 66.601562 L 80.101562 80.699219 C 81 80.699219 82.199219 81.898438 83.101562 83.398438 C 84.898438 79.5 86.398438 79.199219 87.898438 82.5 C 87.898438 81 87.601562 79.5 87.601562 78 L 86.699219 74.699219 C 86.449219 73.113281 86.351562 71.503906 86.398438 69.898438 C 86.101562 68.414062 86.101562 66.886719 86.398438 65.398438 C 86.351562 64.191406 86.453125 62.984375 86.699219 61.800781 C 86.753906 60.875 86.957031 59.960938 87.300781 59.101562 C 87.574219 58.148438 87.976562 57.242188 88.5 56.398438 L 84.300781 58.199219 L 80.101562 59.398438 "/>
<path style=" stroke:none;fill-rule:nonzero;fill:rgb(100%,0%,0%);fill-opacity:1;" d="M 90 54 C 90 52.199219 88.199219 50.699219 84.300781 49.5 C 80.332031 48.203125 76.171875 47.59375 72 47.699219 C 67.414062 48.863281 64.359375 53.191406 64.800781 57.898438 L 64.800781 59.699219 L 71.101562 59.699219 L 80.101562 59.101562 L 84.300781 57.898438 L 88.5 56.101562 C 89.195312 55.5625 89.714844 54.832031 90 54 "/>
<path style=" stroke:none;fill-rule:nonzero;fill:rgb(19.607843%,34.117647%,13.72549%);fill-opacity:1;" d="M 83.398438 83.398438 C 82.199219 81.898438 81.300781 80.699219 80.101562 80.699219 C 78.898438 80.699219 77.101562 81.300781 75.601562 84 C 73.199219 79.800781 70.800781 79.800781 68.398438 84 C 66.601562 81.898438 65.101562 80.699219 63.898438 81 C 62.699219 81.300781 61.800781 81.898438 60.898438 83.398438 C 58.800781 80.101562 57 79.5 54.601562 81.898438 L 54.601562 82.800781 C 54.601562 89.699219 56.398438 93.601562 62.398438 97.199219 L 63.300781 97.199219 C 67.984375 99.152344 73.238281 99.261719 78 97.5 L 79.5 96.898438 C 84.851562 94.285156 88.148438 88.75 87.898438 82.800781 C 87.898438 82.5 87.601562 82.199219 87.601562 81.898438 C 87.601562 81.601562 85.199219 79.5 83.398438 83.398438 Z M 83.398438 83.398438 "/>
<path style=" stroke:none;fill-rule:nonzero;fill:rgb(98.431373%,76.078431%,9.803922%);fill-opacity:1;" d="M 79.5 66.601562 L 80.101562 59.398438 L 71.101562 60 L 63.601562 60 L 64.199219 65.101562 L 64.199219 71.699219 C 64.402344 74.304688 64.300781 76.921875 63.898438 79.5 C 63.660156 80.066406 63.554688 80.683594 63.601562 81.300781 C 64.800781 81 66.300781 82.199219 68.101562 84.300781 C 70.199219 80.101562 72.898438 80.101562 75.300781 84.300781 C 76.800781 81.601562 78.300781 80.398438 79.800781 81 L 79.199219 66.898438 "/>
<path style=" stroke:none;fill-rule:nonzero;fill:rgb(63.921569%,5.490196%,1.176471%);fill-opacity:1;" d="M 72 47.699219 L 71.101562 47.699219 C 66.535156 47.605469 61.980469 48.214844 57.601562 49.5 C 54 50.699219 52.199219 52.199219 52.199219 54 C 52.265625 55 52.832031 55.902344 53.699219 56.398438 L 54 56.398438 L 57.601562 58.199219 L 63.601562 59.699219 L 64.800781 59.699219 L 64.800781 57.898438 C 64.359375 53.191406 67.414062 48.863281 72 47.699219 "/>
<path style="fill:none;stroke-width:0.4;stroke-linecap:round;stroke-linejoin:round;stroke:rgb(0%,0%,0%);stroke-opacity:1;stroke-miterlimit:4;" d="M 26.5 22.299479 L 28.700521 21.89974 C 28.700521 21.39974 28.799479 21 28.799479 20.700521 C 28.885417 20.394531 28.984375 20.095052 29.10026 19.799479 C 29.169271 19.490885 29.269531 19.188802 29.39974 18.89974 L 28.10026 19.5 L 26.60026 19.89974 L 23.60026 20.10026 L 21.200521 20.10026 L 19.200521 19.700521 L 17.89974 19.10026 L 18.200521 19.799479 L 18.5 20.700521 C 18.622396 21.22526 18.688802 21.761719 18.700521 22.299479 L 21.39974 22.60026 C 23.105469 22.64974 24.8125 22.549479 26.5 22.299479 Z M 17.89974 18.89974 C 17.595052 18.701823 17.407552 18.364583 17.39974 18 C 17.39974 17.5 18 17 19.200521 16.60026 C 20.626302 16.170573 22.110677 15.967448 23.60026 16 L 24 16 C 25.390625 15.973958 26.776042 16.177083 28.10026 16.60026 C 29.299479 17 29.89974 17.5 29.89974 18 C 29.893229 18.364583 29.705729 18.701823 29.39974 18.89974 M 21.5 23.89974 L 18.700521 23.5 C 18.60026 24 18.60026 24.5 18.5 25 C 18.39974 25.5 18.39974 25.700521 18.299479 26 C 18.217448 26.46224 18.183594 26.93099 18.200521 27.39974 C 18.89974 26.60026 19.60026 26.700521 20.299479 27.89974 C 20.60026 27.39974 20.89974 27.10026 21.200521 27.10026 C 21.5 27.10026 22.200521 27.299479 22.700521 28.10026 C 23.5 26.700521 24.299479 26.700521 25.200521 28.10026 C 25.733073 27.166667 26.233073 26.766927 26.700521 26.89974 C 27.14974 27.092448 27.507812 27.450521 27.700521 27.89974 C 28.299479 26.632812 28.799479 26.533854 29.200521 27.60026 C 29.216146 27.097656 29.182292 26.595052 29.10026 26.10026 C 29.082031 25.726562 29.014323 25.356771 28.89974 25 C 28.799479 24.39974 28.799479 23.89974 28.700521 23.39974 L 26.5 23.799479 C 24.84375 24.032552 23.164062 24.066406 21.5 23.89974 Z M 21.5 23.89974 " transform="matrix(3,0,0,3,0,0)"/>
<path style="fill:none;stroke-width:0.4;stroke-linecap:round;stroke-linejoin:round;stroke:rgb(0%,0%,0%);stroke-opacity:1;stroke-miterlimit:4;" d="M 29.200521 27.799479 C 29.195312 29.734375 28.115885 31.50651 26.39974 32.39974 C 24.748698 33.121094 22.877604 33.157552 21.200521 32.5 C 19.255208 31.56901 18.070312 29.552083 18.200521 27.39974 M 29.200521 27.60026 L 29.200521 27.799479 M 18.700521 22.10026 L 18.700521 23.5 M 28.700521 23.39974 L 28.700521 21.89974 M 20.299479 27.89974 C 20.295573 28.973958 20.395833 30.045573 20.60026 31.10026 M 22.700521 28.10026 L 23 31.39974 M 27.700521 27.89974 C 27.652344 28.97526 27.518229 30.045573 27.299479 31.10026 M 25.200521 28.10026 L 25 31.39974 " transform="matrix(3,0,0,3,0,0)"/>
<path style="fill-rule:nonzero;fill:rgb(100%,0%,0%);fill-opacity:1;stroke-width:0.4;stroke-linecap:round;stroke-linejoin:round;stroke:rgb(0%,0%,0%);stroke-opacity:1;stroke-miterlimit:4;" d="M 28.200521 36.200521 L 29.10026 36.200521 L 29.10026 38.5 L 18.299479 38.5 L 18.299479 36.200521 Z M 28.200521 36.200521 " transform="matrix(3,0,0,3,0,0)"/>
<path style=" stroke:none;fill-rule:nonzero;fill:rgb(63.921569%,5.490196%,1.176471%);fill-opacity:1;" d="M 185.398438 103.800781 L 177 111 L 201.601562 111 L 193.800781 102 Z M 185.398438 103.800781 "/>
<path style="fill:none;stroke-width:0.4;stroke-linecap:round;stroke-linejoin:round;stroke:rgb(0%,0%,0%);stroke-opacity:1;stroke-miterlimit:4;" d="M 57.89974 19.700521 C 57.89974 19.700521 55.5 18.60026 54.60026 20.5 C 53.700521 22.39974 56.10026 25.299479 56.39974 25.700521 C 56.658854 26.177083 56.53125 26.770833 56.10026 27.10026 C 54.700521 28.10026 56.799479 29.5 57.5 27.700521 C 58.200521 25.89974 56.60026 24 56.10026 22.700521 C 55.60026 21.39974 55 19.89974 58 20.700521 M 68.700521 19.700521 C 68.700521 19.700521 71.10026 18.60026 72 20.5 C 72.89974 22.39974 70.5 25.299479 70.200521 25.700521 C 69.941406 26.177083 70.06901 26.770833 70.5 27.10026 C 71.89974 28.10026 69.799479 29.5 69.10026 27.700521 C 68.39974 25.89974 70 24 70.60026 22.700521 C 71.200521 21.39974 71.39974 20 68.5 20.799479 " transform="matrix(3,0,0,3,0,0)"/>
<path style=" stroke:none;fill-rule:nonzero;fill:rgb(100%,0%,0%);fill-opacity:1;" d="M 185.101562 97.800781 C 185.101562 97.800781 187.199219 104.699219 177 108.300781 C 183.691406 109.601562 190.203125 105.347656 191.699219 98.699219 C 189.480469 98.566406 187.273438 98.265625 185.101562 97.800781 Z M 185.101562 97.800781 "/>
<path style=" stroke:none;fill-rule:nonzero;fill:rgb(100%,0%,0%);fill-opacity:1;" d="M 195 97.800781 C 195 97.800781 192.898438 104.699219 203.101562 108.300781 C 196.417969 109.40625 190.058594 105.03125 188.699219 98.398438 C 190.8125 98.347656 192.917969 98.148438 195 97.800781 Z M 195 97.800781 "/>
<path style="fill:none;stroke-width:0.4;stroke-linecap:round;stroke-linejoin:round;stroke:rgb(0%,0%,0%);stroke-opacity:1;stroke-miterlimit:4;" d="M 61.700521 32.60026 C 61.700521 32.60026 62.39974 34.89974 59 36.10026 C 61.195312 36.47526 63.302083 35.070312 63.799479 32.89974 C 63.09375 32.848958 62.391927 32.748698 61.700521 32.60026 Z M 61.700521 32.60026 " transform="matrix(3,0,0,3,0,0)"/>
<path style="fill:none;stroke-width:0.4;stroke-linecap:round;stroke-linejoin:round;stroke:rgb(0%,0%,0%);stroke-opacity:1;stroke-miterlimit:4;" d="M 65 32.60026 C 65 32.60026 64.299479 34.89974 67.700521 36.10026 C 65.460938 36.423177 63.342448 34.996094 62.799479 32.799479 C 63.536458 32.782552 64.272135 32.716146 65 32.60026 Z M 65 32.60026 " transform="matrix(3,0,0,3,0,0)"/>
<path style=" stroke:none;fill-rule:nonzero;fill:rgb(100%,0%,0%);fill-opacity:1;" d="M 185.398438 96.300781 C 185.964844 100.683594 187.503906 104.886719 189.898438 108.601562 C 192.75 105.128906 194.339844 100.792969 194.398438 96.300781 Z M 185.398438 96.300781 "/>
<path style="fill:none;stroke-width:0.4;stroke-linecap:round;stroke-linejoin:round;stroke:rgb(0%,0%,0%);stroke-opacity:1;stroke-miterlimit:4;" d="M 61.700521 29.799479 C 61.700521 29.799479 61.299479 33.60026 63.299479 36.10026 C 63.299479 36 65.299479 34.5 65.10026 29.700521 Z M 61.700521 29.799479 " transform="matrix(3,0,0,3,0,0)"/>
<path style="fill-rule:nonzero;fill:rgb(100%,0%,0%);fill-opacity:1;stroke-width:0.4;stroke-linecap:round;stroke-linejoin:round;stroke:rgb(0%,0%,0%);stroke-opacity:1;stroke-miterlimit:4;" d="M 61.60026 32.10026 C 61.60026 32.10026 60.60026 32.39974 60.5 34 C 61.507812 34.13151 62.454427 33.486979 62.700521 32.5 M 65.200521 32.10026 C 65.200521 32.10026 66.200521 32.39974 66.299479 34 C 65.291667 34.13151 64.345052 33.486979 64.10026 32.5 " transform="matrix(3,0,0,3,0,0)"/>
<path style=" stroke:none;fill-rule:nonzero;fill:rgb(100%,0%,0%);fill-opacity:1;" d="M 192.601562 97.199219 C 192.601562 97.199219 193.5 99.898438 189.898438 103.199219 C 187.886719 101.914062 186.824219 99.558594 187.199219 97.199219 Z M 192.601562 97.199219 "/>
<path style="fill:none;stroke-width:0.4;stroke-linecap:round;stroke-linejoin:round;stroke:rgb(0%,0%,0%);stroke-opacity:1;stroke-miterlimit:4;" d="M 64.200521 32.39974 C 64.200521 32.39974 64.5 33.299479 63.299479 34.39974 C 62.665365 33.941406 62.322917 33.179688 62.39974 32.39974 Z M 64.200521 32.39974 " transform="matrix(3,0,0,3,0,0)"/>
<path style=" stroke:none;fill-rule:nonzero;fill:rgb(84.313725%,62.352941%,3.529412%);fill-opacity:1;" d="M 176.398438 58.199219 L 172.800781 56.398438 L 173.699219 58.5 C 174.042969 59.363281 174.246094 60.273438 174.300781 61.199219 L 175.199219 66 C 175.199219 67.5 174.898438 68.699219 174.898438 70.199219 C 174.847656 71.714844 174.648438 73.222656 174.300781 74.699219 C 174.300781 75.898438 174 76.800781 174 77.699219 C 173.671875 79.078125 173.472656 80.484375 173.398438 81.898438 C 175.800781 79.5 177.601562 80.101562 179.699219 83.398438 C 180.601562 81.898438 181.5 81 182.699219 81 C 182.65625 80.382812 182.757812 79.769531 183 79.199219 C 183.398438 76.621094 183.5 74.003906 183.300781 71.398438 L 183.300781 64.800781 L 182.699219 59.699219 L 176.699219 58.199219 M 198.898438 59.398438 L 198.300781 66.601562 L 198.898438 80.699219 C 199.800781 80.699219 201 81.898438 201.898438 83.398438 C 203.699219 79.5 205.199219 79.199219 206.699219 82.5 C 206.699219 81 206.398438 79.5 206.398438 78 L 205.5 74.699219 C 205.5 73.199219 205.199219 71.398438 205.199219 69.898438 C 204.902344 68.414062 204.902344 66.886719 205.199219 65.398438 C 205.152344 64.191406 205.253906 62.984375 205.5 61.800781 C 205.554688 60.875 205.757812 59.960938 206.101562 59.101562 C 206.375 58.148438 206.777344 57.242188 207.300781 56.398438 L 203.101562 58.199219 L 198.898438 59.398438 "/>
<path style=" stroke:none;fill-rule:nonzero;fill:rgb(100%,0%,0%);fill-opacity:1;" d="M 208.800781 54 C 208.800781 52.199219 207 50.699219 203.101562 49.5 C 199.132812 48.203125 194.972656 47.59375 190.800781 47.699219 C 186.214844 48.863281 183.160156 53.191406 183.601562 57.898438 L 183.601562 59.699219 L 189.898438 59.699219 L 198.898438 59.101562 L 203.101562 57.898438 L 207.300781 56.101562 C 208.046875 55.480469 208.570312 54.640625 208.800781 53.699219 "/>
<path style=" stroke:none;fill-rule:nonzero;fill:rgb(19.607843%,34.117647%,13.72549%);fill-opacity:1;" d="M 202.199219 83.398438 C 201 81.898438 200.101562 80.699219 198.898438 80.699219 C 197.699219 80.699219 195.898438 81.300781 194.398438 84 C 192 79.800781 189.601562 79.800781 187.199219 84 C 185.398438 81.898438 183.898438 80.699219 182.699219 81 C 181.5 81.300781 180.601562 81.898438 179.699219 83.398438 C 177.601562 80.101562 175.800781 79.5 173.398438 81.898438 L 173.398438 82.800781 C 173.398438 89.699219 175.199219 93.601562 181.199219 97.199219 L 182.101562 97.199219 C 186.785156 99.152344 192.039062 99.261719 196.800781 97.5 L 198.300781 96.898438 C 203.652344 94.285156 206.949219 88.75 206.699219 82.800781 C 206.699219 82.5 206.398438 82.199219 206.398438 81.898438 C 206.398438 81.601562 204 79.5 202.199219 83.398438 Z M 202.199219 83.398438 "/>
<path style=" stroke:none;fill-rule:nonzero;fill:rgb(98.431373%,76.078431%,9.803922%);fill-opacity:1;" d="M 198.300781 66.601562 L 198.898438 59.398438 L 189.898438 60 L 182.398438 60 L 183 65.101562 L 183 71.699219 C 183.199219 74.304688 183.101562 76.921875 182.699219 79.5 C 182.460938 80.066406 182.355469 80.683594 182.398438 81.300781 C 183.601562 81 185.101562 82.199219 186.898438 84.300781 C 189.300781 80.101562 191.699219 80.101562 194.101562 84.300781 C 195.601562 81.601562 197.101562 80.398438 198.601562 81 L 198 66.898438 "/>
<path style=" stroke:none;fill-rule:nonzero;fill:rgb(63.921569%,5.490196%,1.176471%);fill-opacity:1;" d="M 190.800781 47.699219 L 189.898438 47.699219 C 185.335938 47.605469 180.78125 48.214844 176.398438 49.5 C 172.800781 50.699219 171 52.199219 171 54 C 171.066406 55 171.628906 55.902344 172.5 56.398438 L 172.800781 56.398438 L 176.398438 58.199219 L 182.398438 59.699219 L 183.601562 59.699219 L 183.601562 57.898438 C 183.160156 53.191406 186.214844 48.863281 190.800781 47.699219 "/>
<path style="fill:none;stroke-width:0.4;stroke-linecap:round;stroke-linejoin:round;stroke:rgb(0%,0%,0%);stroke-opacity:1;stroke-miterlimit:4;" d="M 66.10026 22.299479 L 68.299479 21.89974 C 68.299479 21.39974 68.39974 21 68.39974 20.700521 C 68.484375 20.394531 68.584635 20.095052 68.700521 19.799479 C 68.768229 19.490885 68.869792 19.188802 69 18.89974 L 67.700521 19.5 L 66.200521 19.89974 L 63.200521 20.10026 L 60.799479 20.10026 L 58.799479 19.700521 L 57.5 19.10026 L 57.799479 19.799479 L 58.10026 20.700521 C 58.221354 21.22526 58.289062 21.761719 58.299479 22.299479 L 61 22.60026 C 62.705729 22.64974 64.41276 22.549479 66.10026 22.299479 Z M 57.5 18.89974 C 57.19401 18.701823 57.007812 18.364583 57 18 C 57 17.5 57.60026 17 58.799479 16.60026 C 60.226562 16.170573 61.710938 15.967448 63.200521 16 L 63.60026 16 C 64.990885 15.973958 66.375 16.177083 67.700521 16.60026 C 68.89974 17 69.5 17.5 69.5 18 C 69.492188 18.364583 69.30599 18.701823 69 18.89974 M 61.10026 23.89974 L 58.299479 23.5 C 58.200521 24 58.200521 24.5 58.10026 25 C 58 25.5 58 25.700521 57.89974 26 C 57.816406 26.46224 57.783854 26.93099 57.799479 27.39974 C 58.5 26.60026 59.200521 26.700521 59.89974 27.89974 C 60.200521 27.39974 60.5 27.10026 60.799479 27.10026 C 61.10026 27.10026 61.799479 27.299479 62.299479 28.10026 C 63.10026 26.700521 63.89974 26.700521 64.799479 28.10026 C 65.333333 27.166667 65.833333 26.766927 66.299479 26.89974 C 66.75 27.092448 67.108073 27.450521 67.299479 27.89974 C 67.89974 26.632812 68.39974 26.533854 68.799479 27.60026 C 68.816406 27.097656 68.782552 26.595052 68.700521 26.10026 C 68.68099 25.726562 68.614583 25.356771 68.5 25 C 68.39974 24.39974 68.39974 23.89974 68.299479 23.39974 L 66.10026 23.799479 C 64.442708 24.032552 62.764323 24.066406 61.10026 23.89974 Z M 61.10026 23.89974 " transform="matrix(3,0,0,3,0,0)"/>
<path style="fill:none;stroke-width:0.4;stroke-linecap:round;stroke-linejoin:round;stroke:rgb(0%,0%,0%);stroke-opacity:1;stroke-miterlimit:4;" d="M 68.799479 27.799479 C 68.795573 29.734375 67.716146 31.50651 66 32.39974 C 64.348958 33.121094 62.477865 33.157552 60.799479 32.5 C 58.855469 31.56901 57.669271 29.552083 57.799479 27.39974 M 68.799479 27.60026 L 68.799479 27.799479 M 58.299479 22.10026 L 58.299479 23.5 M 68.299479 23.39974 L 68.299479 21.89974 M 59.89974 27.89974 C 59.894531 28.973958 59.996094 30.045573 60.200521 31.10026 M 62.299479 28.10026 L 62.60026 31.39974 M 67.299479 27.89974 C 67.252604 28.97526 67.11849 30.045573 66.89974 31.10026 M 64.799479 28.10026 L 64.60026 31.39974 " transform="matrix(3,0,0,3,0,0)"/>
<path style="fill-rule:nonzero;fill:rgb(100%,0%,0%);fill-opacity:1;stroke-width:0.4;stroke-linecap:round;stroke-linejoin:round;stroke:rgb(0%,0%,0%);stroke-opacity:1;stroke-miterlimit:4;" d="M 67.799479 36.200521 L 68.700521 36.200521 L 68.700521 38.5 L 57.89974 38.5 L 57.89974 36.200521 Z M 67.799479 36.200521 " transform="matrix(3,0,0,3,0,0)"/>
<path style=" stroke:none;fill-rule:nonzero;fill:rgb(63.921569%,5.490196%,1.176471%);fill-opacity:1;" d="M 66.601562 231 L 58.199219 237 L 82.800781 237 L 75 228.601562 Z M 66.601562 231 "/>
<path style="fill:none;stroke-width:0.4;stroke-linecap:round;stroke-linejoin:round;stroke:rgb(0%,0%,0%);stroke-opacity:1;stroke-miterlimit:4;" d="M 18.299479 62.5 C 18.299479 62.5 15.89974 61.5 15 63.39974 C 14.10026 65.299479 16.5 68.10026 16.799479 68.60026 C 17.045573 69.046875 16.916667 69.606771 16.5 69.89974 C 15.10026 70.89974 17.200521 72.299479 17.89974 70.60026 C 18.60026 68.89974 17 66.799479 16.39974 65.5 C 15.799479 64.200521 15.39974 62.700521 18.39974 63.5 M 29.10026 62.5 C 29.10026 62.5 31.5 61.5 32.39974 63.39974 C 33.299479 65.299479 30.89974 68.10026 30.60026 68.60026 C 30.354167 69.046875 30.483073 69.606771 30.89974 69.89974 C 32.299479 70.89974 30.200521 72.299479 29.5 70.60026 C 28.799479 68.89974 30.39974 66.799479 30.89974 65.5 C 31.39974 64.200521 31.799479 62.799479 28.89974 63.60026 " transform="matrix(3,0,0,3,0,0)"/>
<path style=" stroke:none;fill-rule:nonzero;fill:rgb(100%,0%,0%);fill-opacity:1;" d="M 66.300781 226.199219 C 66.300781 226.199219 68.398438 233.398438 58.199219 237 C 57.898438 237 70.199219 238.5 72.898438 227.101562 C 70.679688 226.96875 68.472656 226.667969 66.300781 226.199219 Z M 66.300781 226.199219 "/>
<path style=" stroke:none;fill-rule:nonzero;fill:rgb(100%,0%,0%);fill-opacity:1;" d="M 76.199219 226.199219 C 76.199219 226.199219 74.101562 233.398438 84.300781 237 C 84.601562 237 72.300781 238.199219 69.898438 226.800781 C 72.011719 226.75 74.117188 226.546875 76.199219 226.199219 Z M 76.199219 226.199219 "/>
<path style="fill:none;stroke-width:0.4;stroke-linecap:round;stroke-linejoin:round;stroke:rgb(0%,0%,0%);stroke-opacity:1;stroke-miterlimit:4;" d="M 22.10026 75.39974 C 22.10026 75.39974 22.799479 77.799479 19.39974 79 C 19.299479 79 23.299479 79.5 24.200521 75.700521 Z M 22.10026 75.39974 " transform="matrix(3,0,0,3,0,0)"/>
<path style="fill:none;stroke-width:0.4;stroke-linecap:round;stroke-linejoin:round;stroke:rgb(0%,0%,0%);stroke-opacity:1;stroke-miterlimit:4;" d="M 25.39974 75.39974 C 25.39974 75.39974 24.700521 77.799479 28.10026 79 C 28.200521 79 24.10026 79.39974 23.200521 75.700521 Z M 25.39974 75.39974 " transform="matrix(3,0,0,3,0,0)"/>
<path style=" stroke:none;fill-rule:nonzero;fill:rgb(100%,0%,0%);fill-opacity:1;" d="M 66.601562 224.699219 C 67.167969 229.082031 68.703125 233.285156 71.101562 237 C 71.101562 237 74.699219 234 75.601562 225 C 72.609375 224.734375 69.601562 224.632812 66.601562 224.699219 Z M 66.601562 224.699219 "/>
<path style="fill:none;stroke-width:0.4;stroke-linecap:round;stroke-linejoin:round;stroke:rgb(0%,0%,0%);stroke-opacity:1;stroke-miterlimit:4;" d="M 22.10026 72.60026 C 22.10026 72.60026 21.700521 76.39974 23.700521 78.89974 C 23.700521 78.89974 25.700521 77.299479 25.5 72.60026 Z M 22.10026 72.60026 " transform="matrix(3,0,0,3,0,0)"/>
<path style="fill-rule:nonzero;fill:rgb(100%,0%,0%);fill-opacity:1;stroke-width:0.4;stroke-linecap:round;stroke-linejoin:round;stroke:rgb(0%,0%,0%);stroke-opacity:1;stroke-miterlimit:4;" d="M 22 74.89974 C 22 74.89974 21 75.200521 20.89974 76.799479 C 21.888021 76.989583 22.852865 76.376302 23.10026 75.39974 M 25.60026 74.89974 C 25.60026 74.89974 26.60026 75.200521 26.700521 76.799479 C 25.71224 76.989583 24.747396 76.376302 24.5 75.39974 " transform="matrix(3,0,0,3,0,0)"/>
<path style=" stroke:none;fill-rule:nonzero;fill:rgb(100%,0%,0%);fill-opacity:1;" d="M 73.800781 225.601562 C 73.800781 225.601562 74.699219 228.300781 71.101562 231.898438 C 69.144531 230.566406 68.101562 228.25 68.398438 225.898438 C 70.1875 225.640625 71.996094 225.542969 73.800781 225.601562 Z M 73.800781 225.601562 "/>
<path style="fill:none;stroke-width:0.4;stroke-linecap:round;stroke-linejoin:round;stroke:rgb(0%,0%,0%);stroke-opacity:1;stroke-miterlimit:4;" d="M 24.60026 75.200521 C 24.60026 75.200521 24.89974 76.10026 23.700521 77.299479 C 23.065104 76.841146 22.722656 76.079427 22.799479 75.299479 C 23.395833 75.213542 23.998698 75.18099 24.60026 75.200521 Z M 24.60026 75.200521 " transform="matrix(3,0,0,3,0,0)"/>
<path style=" stroke:none;fill-rule:nonzero;fill:rgb(84.313725%,62.352941%,3.529412%);fill-opacity:1;" d="M 57.601562 186.601562 L 54 185.101562 L 54.898438 186.898438 C 55.242188 187.761719 55.445312 188.671875 55.5 189.601562 L 56.398438 194.398438 C 56.398438 195.898438 56.101562 197.398438 56.101562 198.898438 C 56.007812 200.414062 55.808594 201.917969 55.5 203.398438 C 55.445312 204.328125 55.242188 205.238281 54.898438 206.101562 C 54.898438 207.601562 54.601562 209.101562 54.601562 210.300781 C 54.601562 211.5 58.800781 208.5 60.898438 211.800781 C 61.492188 210.59375 62.589844 209.710938 63.898438 209.398438 C 63.855469 208.785156 63.960938 208.167969 64.199219 207.601562 C 64.597656 205.121094 64.699219 202.601562 64.5 200.101562 L 64.5 193.199219 L 63.898438 188.101562 L 57.898438 186.601562 M 80.101562 187.800781 L 79.5 195 L 80.101562 209.101562 C 81.382812 209.625 82.441406 210.582031 83.101562 211.800781 C 84.898438 207.898438 86.398438 207.601562 87.898438 210.898438 C 87.898438 209.398438 87.601562 208.199219 87.601562 206.398438 L 86.699219 203.398438 C 86.460938 201.710938 86.359375 200.003906 86.398438 198.300781 C 86.101562 196.816406 86.101562 195.285156 86.398438 193.800781 C 86.351562 192.59375 86.453125 191.382812 86.699219 190.199219 C 86.753906 189.273438 86.957031 188.363281 87.300781 187.5 C 87.574219 186.550781 87.976562 185.640625 88.5 184.800781 L 84.300781 186.601562 L 80.101562 187.800781 "/>
<path style=" stroke:none;fill-rule:nonzero;fill:rgb(100%,0%,0%);fill-opacity:1;" d="M 90 182.398438 C 90 180.601562 88.199219 179.101562 84.300781 177.898438 C 80.332031 176.601562 76.171875 175.996094 72 176.101562 C 66.898438 178.199219 64.5 181.5 64.800781 186.300781 L 64.800781 188.101562 L 71.101562 188.101562 C 74.113281 188.21875 77.128906 188.019531 80.101562 187.5 L 84.300781 186.300781 L 88.5 184.5 C 89.371094 184 89.933594 183.101562 90 182.101562 "/>
<path style=" stroke:none;fill-rule:nonzero;fill:rgb(19.607843%,34.117647%,13.72549%);fill-opacity:1;" d="M 83.398438 211.800781 C 82.628906 210.558594 81.46875 209.609375 80.101562 209.101562 C 78.601562 208.800781 77.101562 209.699219 75.601562 212.398438 C 73.199219 208.398438 70.800781 208.398438 68.398438 212.398438 C 66.601562 210.300781 65.101562 209.398438 63.898438 209.398438 C 62.589844 209.710938 61.492188 210.59375 60.898438 211.800781 C 58.800781 208.5 57 207.898438 54.601562 210.300781 L 54.601562 211.199219 C 54.601562 218.101562 56.398438 222 62.398438 225.601562 L 63.300781 226.199219 C 67.984375 228.152344 73.238281 228.261719 78 226.5 L 79.5 225.601562 C 84.75 223.03125 88.027344 217.644531 87.898438 211.800781 L 87.898438 210.898438 C 85.800781 207.601562 85.199219 207.898438 83.398438 211.800781 Z M 83.398438 211.800781 "/>
<path style=" stroke:none;fill-rule:nonzero;fill:rgb(98.431373%,76.078431%,9.803922%);fill-opacity:1;" d="M 79.5 195 L 80.101562 187.800781 C 77.128906 188.316406 74.113281 188.519531 71.101562 188.398438 L 63.601562 188.398438 L 64.199219 193.5 L 64.199219 200.398438 C 64.398438 202.902344 64.296875 205.421875 63.898438 207.898438 C 63.660156 208.46875 63.554688 209.085938 63.601562 209.699219 C 64.800781 209.699219 66.300781 210.601562 68.101562 212.699219 C 70.199219 208.800781 72.898438 208.800781 75.300781 212.699219 C 76.800781 210 78.300781 209.101562 79.800781 209.398438 L 79.5 195 "/>
<path style=" stroke:none;fill-rule:nonzero;fill:rgb(63.921569%,5.490196%,1.176471%);fill-opacity:1;" d="M 72 176.101562 L 71.101562 176.101562 C 66.535156 176.007812 61.980469 176.613281 57.601562 177.898438 C 54 179.101562 52.199219 180.601562 52.199219 182.398438 C 52.265625 183.402344 52.832031 184.300781 53.699219 184.800781 L 54 184.800781 L 57.601562 186.300781 L 63.601562 187.800781 L 64.800781 187.800781 L 64.800781 186 C 64.5 181.199219 66.898438 177.898438 72 175.800781 "/>
<path style="fill:none;stroke-width:0.4;stroke-linecap:round;stroke-linejoin:round;stroke:rgb(0%,0%,0%);stroke-opacity:1;stroke-miterlimit:4;" d="M 26.5 65.10026 L 28.700521 64.700521 C 28.700521 64.299479 28.799479 63.89974 28.799479 63.5 L 29.10026 62.60026 L 29.39974 61.700521 L 28.10026 62.299479 L 26.60026 62.700521 L 23.60026 62.89974 L 21.200521 62.89974 L 19.200521 62.39974 L 17.89974 61.799479 L 18.200521 62.5 L 18.5 63.39974 C 18.622396 63.924479 18.688802 64.460938 18.700521 65 L 21.39974 65.299479 C 23.101562 65.433594 24.813802 65.365885 26.5 65.10026 Z M 26.5 65.10026 " transform="matrix(3,0,0,3,0,0)"/>
<path style="fill:none;stroke-width:0.4;stroke-linecap:round;stroke-linejoin:round;stroke:rgb(0%,0%,0%);stroke-opacity:1;stroke-miterlimit:4;" d="M 17.89974 61.700521 C 17.576823 61.570312 17.375 61.247396 17.39974 60.89974 C 17.39974 60.299479 18 59.799479 19.200521 59.39974 C 20.626302 58.970052 22.110677 58.768229 23.60026 58.799479 L 24 58.799479 C 25.390625 58.77474 26.776042 58.976562 28.10026 59.39974 C 29.299479 59.799479 29.89974 60.299479 29.89974 60.89974 C 29.877604 61.233073 29.690104 61.533854 29.39974 61.700521 M 21.5 66.700521 C 20.554688 66.671875 19.615885 66.53776 18.700521 66.299479 C 18.60026 66.799479 18.60026 67.299479 18.5 67.799479 C 18.39974 68.299479 18.39974 68.5 18.299479 68.799479 C 18.220052 69.261719 18.1875 69.731771 18.200521 70.200521 C 18.89974 69.39974 19.60026 69.60026 20.299479 70.700521 C 20.60026 70.200521 20.89974 69.89974 21.200521 69.89974 C 21.5 69.89974 22.200521 70.200521 22.700521 70.89974 C 23.5 69.5 24.299479 69.5 25.200521 70.89974 C 25.700521 70 26.200521 69.60026 26.700521 69.799479 C 27.200521 70 27.39974 70.200521 27.700521 70.700521 C 28.299479 69.367188 28.799479 69.266927 29.200521 70.39974 C 29.216146 69.898438 29.182292 69.395833 29.10026 68.89974 C 29.072917 68.527344 29.00651 68.158854 28.89974 67.799479 C 28.799479 67.299479 28.799479 66.700521 28.700521 66.200521 L 26.5 66.60026 C 24.847656 66.882812 23.16276 66.916667 21.5 66.700521 Z M 21.5 66.700521 " transform="matrix(3,0,0,3,0,0)"/>
<path style="fill:none;stroke-width:0.4;stroke-linecap:round;stroke-linejoin:round;stroke:rgb(0%,0%,0%);stroke-opacity:1;stroke-miterlimit:4;" d="M 29.200521 70.60026 C 29.233073 72.570312 28.148438 74.390625 26.39974 75.299479 C 24.748698 76.020833 22.877604 76.057292 21.200521 75.39974 C 19.259115 74.41276 18.082031 72.375 18.200521 70.200521 M 29.200521 70.39974 L 29.200521 70.60026 M 18.700521 64.89974 L 18.700521 66.299479 M 28.700521 66.200521 L 28.700521 64.700521 M 20.299479 70.700521 C 20.295573 71.773438 20.395833 72.846354 20.60026 73.89974 M 22.700521 70.89974 L 23 74.200521 M 27.700521 70.700521 C 27.652344 71.776042 27.518229 72.846354 27.299479 73.89974 M 25.200521 70.89974 L 25 74.200521 " transform="matrix(3,0,0,3,0,0)"/>
<path style="fill-rule:nonzero;fill:rgb(100%,0%,0%);fill-opacity:1;stroke-width:0.4;stroke-linecap:round;stroke-linejoin:round;stroke:rgb(0%,0%,0%);stroke-opacity:1;stroke-miterlimit:4;" d="M 28.200521 79 L 29.10026 79 L 29.10026 81.299479 L 18.299479 81.299479 L 18.299479 79 Z M 28.200521 79 " transform="matrix(3,0,0,3,0,0)"/>
<path style=" stroke:none;fill-rule:nonzero;fill:rgb(63.921569%,5.490196%,1.176471%);fill-opacity:1;" d="M 185.398438 231 L 177 237 L 201.601562 237 L 193.800781 228.601562 Z M 185.398438 231 "/>
<path style="fill:none;stroke-width:0.4;stroke-linecap:round;stroke-linejoin:round;stroke:rgb(0%,0%,0%);stroke-opacity:1;stroke-miterlimit:4;" d="M 57.89974 62.5 C 57.89974 62.5 55.5 61.5 54.60026 63.39974 C 53.700521 65.299479 56.10026 68.10026 56.39974 68.60026 C 56.645833 69.046875 56.516927 69.606771 56.10026 69.89974 C 54.700521 70.89974 56.799479 72.299479 57.5 70.60026 C 58.200521 68.89974 56.60026 66.799479 56.10026 65.5 C 55.60026 64.200521 55 62.700521 58 63.5 M 68.700521 62.5 C 68.700521 62.5 71.10026 61.5 72 63.39974 C 72.89974 65.299479 70.5 68.10026 70.200521 68.60026 C 69.954427 69.046875 70.083333 69.606771 70.5 69.89974 C 71.89974 70.89974 69.799479 72.299479 69.10026 70.60026 C 68.39974 68.89974 70 66.799479 70.60026 65.5 C 71.200521 64.200521 71.39974 62.799479 68.5 63.60026 " transform="matrix(3,0,0,3,0,0)"/>
<path style=" stroke:none;fill-rule:nonzero;fill:rgb(100%,0%,0%);fill-opacity:1;" d="M 185.101562 226.199219 C 185.101562 226.199219 187.199219 233.398438 177 237 C 176.699219 237 189 238.5 191.699219 227.101562 C 189.480469 226.96875 187.273438 226.667969 185.101562 226.199219 Z M 185.101562 226.199219 "/>
<path style=" stroke:none;fill-rule:nonzero;fill:rgb(100%,0%,0%);fill-opacity:1;" d="M 195 226.199219 C 195 226.199219 192.898438 233.398438 203.101562 237 C 203.398438 237 191.101562 238.199219 188.699219 226.800781 C 190.8125 226.75 192.917969 226.546875 195 226.199219 Z M 195 226.199219 "/>
<path style="fill:none;stroke-width:0.4;stroke-linecap:round;stroke-linejoin:round;stroke:rgb(0%,0%,0%);stroke-opacity:1;stroke-miterlimit:4;" d="M 61.700521 75.39974 C 61.700521 75.39974 62.39974 77.799479 59 79 C 58.89974 79 62.89974 79.5 63.799479 75.700521 Z M 61.700521 75.39974 " transform="matrix(3,0,0,3,0,0)"/>
<path style="fill:none;stroke-width:0.4;stroke-linecap:round;stroke-linejoin:round;stroke:rgb(0%,0%,0%);stroke-opacity:1;stroke-miterlimit:4;" d="M 65 75.39974 C 65 75.39974 64.299479 77.799479 67.700521 79 C 67.799479 79 63.700521 79.39974 62.799479 75.700521 Z M 65 75.39974 " transform="matrix(3,0,0,3,0,0)"/>
<path style=" stroke:none;fill-rule:nonzero;fill:rgb(100%,0%,0%);fill-opacity:1;" d="M 185.398438 224.699219 C 185.964844 229.082031 187.503906 233.285156 189.898438 237 C 189.898438 237 193.5 234 194.398438 225 C 191.40625 224.734375 188.402344 224.632812 185.398438 224.699219 Z M 185.398438 224.699219 "/>
<path style="fill:none;stroke-width:0.4;stroke-linecap:round;stroke-linejoin:round;stroke:rgb(0%,0%,0%);stroke-opacity:1;stroke-miterlimit:4;" d="M 61.700521 72.60026 C 61.700521 72.60026 61.299479 76.39974 63.299479 78.89974 C 63.299479 78.89974 65.299479 77.299479 65.10026 72.60026 Z M 61.700521 72.60026 " transform="matrix(3,0,0,3,0,0)"/>
<path style="fill-rule:nonzero;fill:rgb(100%,0%,0%);fill-opacity:1;stroke-width:0.4;stroke-linecap:round;stroke-linejoin:round;stroke:rgb(0%,0%,0%);stroke-opacity:1;stroke-miterlimit:4;" d="M 61.60026 74.89974 C 61.60026 74.89974 60.60026 75.200521 60.5 76.799479 C 61.488281 76.989583 62.453125 76.376302 62.700521 75.39974 M 65.200521 74.89974 C 65.200521 74.89974 66.200521 75.200521 66.299479 76.799479 C 65.311198 76.989583 64.346354 76.376302 64.10026 75.39974 " transform="matrix(3,0,0,3,0,0)"/>
<path style=" stroke:none;fill-rule:nonzero;fill:rgb(100%,0%,0%);fill-opacity:1;" d="M 192.601562 225.601562 C 192.601562 225.601562 193.5 228.300781 189.898438 231.898438 C 187.945312 230.566406 186.902344 228.25 187.199219 225.898438 C 188.988281 225.640625 190.792969 225.542969 192.601562 225.601562 Z M 192.601562 225.601562 "/>
<path style="fill:none;stroke-width:0.4;stroke-linecap:round;stroke-linejoin:round;stroke:rgb(0%,0%,0%);stroke-opacity:1;stroke-miterlimit:4;" d="M 64.200521 75.200521 C 64.200521 75.200521 64.5 76.10026 63.299479 77.299479 C 62.665365 76.841146 62.322917 76.079427 62.39974 75.299479 C 62.996094 75.213542 63.597656 75.18099 64.200521 75.200521 Z M 64.200521 75.200521 " transform="matrix(3,0,0,3,0,0)"/>
<path style=" stroke:none;fill-rule:nonzero;fill:rgb(84.313725%,62.352941%,3.529412%);fill-opacity:1;" d="M 176.398438 186.601562 L 172.800781 185.101562 L 173.699219 186.898438 C 174.042969 187.761719 174.246094 188.671875 174.300781 189.601562 L 175.199219 194.398438 C 175.199219 195.898438 174.898438 197.398438 174.898438 198.898438 C 174.808594 200.414062 174.609375 201.917969 174.300781 203.398438 C 174.300781 204.300781 174 205.199219 174 206.101562 C 173.671875 207.480469 173.472656 208.882812 173.398438 210.300781 C 175.800781 207.898438 177.601562 208.5 179.699219 211.800781 C 180.292969 210.59375 181.390625 209.710938 182.699219 209.398438 C 182.65625 208.785156 182.757812 208.167969 183 207.601562 C 183.398438 205.121094 183.5 202.601562 183.300781 200.101562 L 183.300781 193.199219 L 182.699219 188.101562 L 176.699219 186.601562 M 198.898438 187.800781 L 198.300781 195 L 198.898438 209.101562 C 200.183594 209.625 201.242188 210.582031 201.898438 211.800781 C 203.699219 207.898438 205.199219 207.601562 206.699219 210.898438 C 206.699219 209.398438 206.398438 208.199219 206.398438 206.398438 L 205.5 203.398438 C 205.5 201.601562 205.199219 199.800781 205.199219 198.300781 C 204.902344 196.816406 204.902344 195.285156 205.199219 193.800781 C 205.152344 192.59375 205.253906 191.382812 205.5 190.199219 C 205.554688 189.273438 205.757812 188.363281 206.101562 187.5 C 206.375 186.550781 206.777344 185.640625 207.300781 184.800781 L 203.101562 186.601562 L 198.898438 187.800781 "/>
<path style=" stroke:none;fill-rule:nonzero;fill:rgb(100%,0%,0%);fill-opacity:1;" d="M 208.800781 182.398438 C 208.800781 180.601562 207 179.101562 203.101562 177.898438 C 199.132812 176.601562 194.972656 175.996094 190.800781 176.101562 C 185.699219 178.199219 183.300781 181.5 183.601562 186.300781 L 183.601562 188.101562 L 189.898438 188.101562 C 192.914062 188.21875 195.929688 188.019531 198.898438 187.5 L 203.101562 186.300781 L 207.300781 184.5 C 208.167969 184 208.734375 183.101562 208.800781 182.101562 "/>
<path style=" stroke:none;fill-rule:nonzero;fill:rgb(19.607843%,34.117647%,13.72549%);fill-opacity:1;" d="M 202.199219 211.800781 C 201.429688 210.558594 200.269531 209.609375 198.898438 209.101562 C 197.398438 208.800781 195.898438 209.699219 194.398438 212.398438 C 192 208.398438 189.601562 208.398438 187.199219 212.398438 C 185.398438 210.300781 183.898438 209.398438 182.699219 209.398438 C 181.390625 209.710938 180.292969 210.59375 179.699219 211.800781 C 177.601562 208.5 175.800781 207.898438 173.398438 210.300781 L 173.398438 211.199219 C 173.398438 218.101562 175.199219 222 181.199219 225.601562 L 182.101562 226.199219 C 186.785156 228.152344 192.039062 228.261719 196.800781 226.5 L 198.300781 225.601562 C 203.550781 223.03125 206.828125 217.644531 206.699219 211.800781 L 206.699219 210.898438 C 204.601562 207.601562 204 207.898438 202.199219 211.800781 Z M 202.199219 211.800781 "/>
<path style=" stroke:none;fill-rule:nonzero;fill:rgb(98.431373%,76.078431%,9.803922%);fill-opacity:1;" d="M 198.300781 195 L 198.898438 187.800781 C 195.929688 188.316406 192.914062 188.519531 189.898438 188.398438 L 182.398438 188.398438 L 183 193.5 L 183 200.398438 C 183.199219 202.902344 183.097656 205.421875 182.699219 207.898438 C 182.460938 208.46875 182.355469 209.085938 182.398438 209.699219 C 183.601562 209.699219 185.101562 210.601562 186.898438 212.699219 C 189.300781 208.699219 191.699219 208.699219 194.101562 212.699219 C 195.601562 210 197.101562 209.101562 198.601562 209.398438 L 198.300781 195 "/>
<path style=" stroke:none;fill-rule:nonzero;fill:rgb(63.921569%,5.490196%,1.176471%);fill-opacity:1;" d="M 190.800781 176.101562 L 189.898438 176.101562 C 185.335938 176.007812 180.78125 176.613281 176.398438 177.898438 C 172.800781 179.101562 171 180.601562 171 182.398438 C 171.066406 183.402344 171.628906 184.300781 172.5 184.800781 L 172.800781 184.800781 L 176.398438 186.300781 L 182.398438 187.800781 L 183.601562 187.800781 L 183.601562 186 C 183.300781 181.199219 185.699219 177.898438 190.800781 175.800781 "/>
<path style="fill:none;stroke-width:0.4;stroke-linecap:round;stroke-linejoin:round;stroke:rgb(0%,0%,0%);stroke-opacity:1;stroke-miterlimit:4;" d="M 66.10026 65.10026 L 68.299479 64.700521 C 68.299479 64.299479 68.39974 63.89974 68.39974 63.5 L 68.700521 62.60026 L 69 61.700521 L 67.700521 62.299479 L 66.200521 62.700521 L 63.200521 62.89974 L 60.799479 62.89974 L 58.799479 62.39974 L 57.5 61.799479 L 57.799479 62.5 L 58.10026 63.39974 C 58.221354 63.924479 58.289062 64.460938 58.299479 65 L 61 65.299479 C 62.701823 65.433594 64.414062 65.365885 66.10026 65.10026 Z M 66.10026 65.10026 " transform="matrix(3,0,0,3,0,0)"/>
<path style="fill:none;stroke-width:0.4;stroke-linecap:round;stroke-linejoin:round;stroke:rgb(0%,0%,0%);stroke-opacity:1;stroke-miterlimit:4;" d="M 57.5 61.700521 C 57.177083 61.570312 56.97526 61.247396 57 60.89974 C 57 60.299479 57.60026 59.799479 58.799479 59.39974 C 60.226562 58.970052 61.710938 58.768229 63.200521 58.799479 L 63.60026 58.799479 C 64.990885 58.77474 66.375 58.976562 67.700521 59.39974 C 68.89974 59.799479 69.5 60.299479 69.5 60.89974 C 69.477865 61.233073 69.290365 61.533854 69 61.700521 M 61.10026 66.700521 C 60.154948 66.671875 59.214844 66.53776 58.299479 66.299479 C 58.200521 66.799479 58.200521 67.299479 58.10026 67.799479 C 58 68.299479 58 68.5 57.89974 68.799479 C 57.820312 69.261719 57.786458 69.731771 57.799479 70.200521 C 58.5 69.39974 59.200521 69.60026 59.89974 70.700521 C 60.200521 70.200521 60.5 69.89974 60.799479 69.89974 C 61.10026 69.89974 61.799479 70.200521 62.299479 70.89974 C 63.10026 69.5 63.89974 69.5 64.799479 70.89974 C 65.299479 70 65.799479 69.60026 66.299479 69.799479 C 66.799479 70 67 70.200521 67.299479 70.700521 C 67.89974 69.367188 68.39974 69.266927 68.799479 70.39974 C 68.816406 69.898438 68.782552 69.395833 68.700521 68.89974 C 68.673177 68.527344 68.605469 68.158854 68.5 67.799479 C 68.39974 67.299479 68.39974 66.700521 68.299479 66.200521 L 66.10026 66.60026 C 64.447917 66.882812 62.761719 66.916667 61.10026 66.700521 Z M 61.10026 66.700521 " transform="matrix(3,0,0,3,0,0)"/>
<path style="fill:none;stroke-width:0.4;stroke-linecap:round;stroke-linejoin:round;stroke:rgb(0%,0%,0%);stroke-opacity:1;stroke-miterlimit:4;" d="M 68.799479 70.60026 C 68.833333 72.570312 67.748698 74.390625 66 75.299479 C 64.348958 76.020833 62.477865 76.057292 60.799479 75.39974 C 58.859375 74.41276 57.682292 72.375 57.799479 70.200521 M 68.799479 70.39974 L 68.799479 70.60026 M 58.299479 64.89974 L 58.299479 66.299479 M 68.299479 66.200521 L 68.299479 64.700521 M 59.89974 70.700521 C 59.894531 71.773438 59.996094 72.846354 60.200521 73.89974 M 62.299479 70.89974 L 62.60026 74.200521 M 67.299479 70.700521 C 67.252604 71.776042 67.11849 72.846354 66.89974 73.89974 M 64.799479 70.89974 L 64.60026 74.200521 " transform="matrix(3,0,0,3,0,0)"/>
<path style="fill-rule:nonzero;fill:rgb(100%,0%,0%);fill-opacity:1;stroke-width:0.4;stroke-linecap:round;stroke-linejoin:round;stroke:rgb(0%,0%,0%);stroke-opacity:1;stroke-miterlimit:4;" d="M 67.799479 79 L 68.700521 79 L 68.700521 81.299479 L 57.89974 81.299479 L 57.89974 79 Z M 67.799479 79 " transform="matrix(3,0,0,3,0,0)"/>
<path style=" stroke:none;fill-rule:nonzero;fill:rgb(63.921569%,5.490196%,1.176471%);fill-opacity:1;" d="M 126 168 L 117.601562 173.101562 L 142.199219 173.101562 L 134.398438 165.300781 Z M 126 168 "/>
<path style="fill:none;stroke-width:0.4;stroke-linecap:round;stroke-linejoin:round;stroke:rgb(0%,0%,0%);stroke-opacity:1;stroke-miterlimit:4;" d="M 38.10026 41.10026 C 38.10026 41.10026 35.700521 40 34.799479 42 C 33.89974 44 36.299479 46.700521 36.60026 47.200521 C 36.846354 47.645833 36.716146 48.207031 36.299479 48.5 C 34.89974 49.5 37 50.89974 37.700521 49.10026 C 38.39974 47.299479 36.799479 45.39974 36.299479 44.10026 C 35.799479 42.799479 35.200521 41.299479 38.200521 42.10026 M 48.89974 41.10026 C 48.89974 41.10026 51.299479 40 52.200521 42 C 53.10026 44 50.700521 46.700521 50.39974 47.200521 C 50.153646 47.645833 50.283854 48.207031 50.700521 48.5 C 52.10026 49.5 50 50.89974 49.299479 49.10026 C 48.60026 47.299479 50.200521 45.39974 50.700521 44.10026 C 51.200521 42.799479 51.60026 41.39974 48.700521 42.200521 " transform="matrix(3,0,0,3,0,0)"/>
<path style=" stroke:none;fill-rule:nonzero;fill:rgb(100%,0%,0%);fill-opacity:1;" d="M 125.699219 162 C 125.699219 162 127.800781 169.199219 117.601562 172.5 C 124.289062 173.800781 130.804688 169.550781 132.300781 162.898438 C 130.082031 162.769531 127.875 162.46875 125.699219 162 Z M 125.699219 162 "/>
<path style=" stroke:none;fill-rule:nonzero;fill:rgb(100%,0%,0%);fill-opacity:1;" d="M 135.601562 162 C 135.601562 162 133.5 169.199219 143.699219 172.5 C 137.019531 173.605469 130.660156 169.234375 129.300781 162.601562 Z M 135.601562 162 "/>
<path style="fill:none;stroke-width:0.4;stroke-linecap:round;stroke-linejoin:round;stroke:rgb(0%,0%,0%);stroke-opacity:1;stroke-miterlimit:4;" d="M 41.89974 54 C 41.89974 54 42.60026 56.39974 39.200521 57.5 C 41.395833 57.875 43.501302 56.470052 44 54.299479 C 43.294271 54.248698 42.592448 54.148438 41.89974 54 Z M 41.89974 54 " transform="matrix(3,0,0,3,0,0)"/>
<path style="fill:none;stroke-width:0.4;stroke-linecap:round;stroke-linejoin:round;stroke:rgb(0%,0%,0%);stroke-opacity:1;stroke-miterlimit:4;" d="M 45.200521 54 C 45.200521 54 44.5 56.39974 47.89974 57.5 C 45.661458 57.822917 43.541667 56.395833 43 54.200521 Z M 45.200521 54 " transform="matrix(3,0,0,3,0,0)"/>
<path style=" stroke:none;fill-rule:nonzero;fill:rgb(100%,0%,0%);fill-opacity:1;" d="M 126 160.5 C 126.566406 164.882812 128.101562 169.085938 130.5 172.800781 C 133.308594 169.421875 134.894531 165.191406 135 160.800781 C 132.007812 160.535156 129.003906 160.433594 126 160.5 Z M 126 160.5 "/>
<path style="fill:none;stroke-width:0.4;stroke-linecap:round;stroke-linejoin:round;stroke:rgb(0%,0%,0%);stroke-opacity:1;stroke-miterlimit:4;" d="M 41.89974 51.200521 C 41.89974 51.200521 41.5 55 43.5 57.5 C 43.5 57.5 45.5 55.89974 45.299479 51.10026 Z M 41.89974 51.200521 " transform="matrix(3,0,0,3,0,0)"/>
<path style="fill-rule:nonzero;fill:rgb(100%,0%,0%);fill-opacity:1;stroke-width:0.4;stroke-linecap:round;stroke-linejoin:round;stroke:rgb(0%,0%,0%);stroke-opacity:1;stroke-miterlimit:4;" d="M 41.799479 53.5 C 41.799479 53.5 40.799479 53.799479 40.700521 55.39974 C 41.708333 55.53125 42.654948 54.886719 42.89974 53.89974 M 45.39974 53.5 C 45.39974 53.5 46.39974 53.799479 46.5 55.39974 C 45.492188 55.53125 44.545573 54.886719 44.299479 53.89974 " transform="matrix(3,0,0,3,0,0)"/>
<path style=" stroke:none;fill-rule:nonzero;fill:rgb(100%,0%,0%);fill-opacity:1;" d="M 133.199219 161.398438 C 133.199219 161.398438 134.101562 164.101562 130.5 167.699219 C 128.542969 166.367188 127.5 164.046875 127.800781 161.699219 C 129.585938 161.441406 131.394531 161.34375 133.199219 161.398438 Z M 133.199219 161.398438 "/>
<path style="fill:none;stroke-width:0.4;stroke-linecap:round;stroke-linejoin:round;stroke:rgb(0%,0%,0%);stroke-opacity:1;stroke-miterlimit:4;" d="M 44.39974 53.799479 C 44.39974 53.799479 44.700521 54.700521 43.5 55.89974 C 42.865885 55.441406 42.522135 54.679688 42.60026 53.89974 C 43.195312 53.813802 43.798177 53.78125 44.39974 53.799479 Z M 44.39974 53.799479 " transform="matrix(3,0,0,3,0,0)"/>
<path style=" stroke:none;fill-rule:nonzero;fill:rgb(84.313725%,62.352941%,3.529412%);fill-opacity:1;" d="M 117 122.398438 L 113.398438 120.601562 L 114.300781 122.699219 C 114.644531 123.5625 114.84375 124.472656 114.898438 125.398438 L 115.800781 130.199219 C 115.800781 131.699219 115.5 133.199219 115.5 134.398438 C 115.429688 136.011719 115.230469 137.617188 114.898438 139.199219 C 114.84375 140.125 114.644531 141.039062 114.300781 141.898438 C 114.300781 143.398438 114 144.898438 114 146.101562 C 114 147.300781 118.199219 144.300781 120.300781 147.601562 C 121.199219 146.101562 122.101562 145.199219 123.300781 145.199219 C 123.257812 144.585938 123.359375 143.96875 123.601562 143.398438 C 124 140.921875 124.097656 138.402344 123.898438 135.898438 L 123.898438 129 L 123 123.898438 L 117 122.398438 M 139.5 123.601562 L 138.898438 130.800781 L 139.5 144.898438 C 140.398438 144.898438 141.601562 146.101562 142.5 147.601562 C 144.300781 143.699219 145.800781 143.398438 147.300781 146.699219 C 147.300781 145.199219 147 143.699219 147 142.199219 L 146.101562 139.199219 C 145.859375 137.511719 145.757812 135.804688 145.800781 134.101562 C 145.5 132.613281 145.5 131.085938 145.800781 129.601562 C 145.75 128.390625 145.851562 127.183594 146.101562 126 C 146.15625 125.074219 146.355469 124.164062 146.699219 123.300781 C 146.972656 122.347656 147.378906 121.441406 147.898438 120.601562 L 143.699219 122.398438 L 139.5 123.601562 "/>
<path style=" stroke:none;fill-rule:nonzero;fill:rgb(100%,0%,0%);fill-opacity:1;" d="M 149.398438 118.199219 C 149.398438 116.398438 147.601562 114.898438 143.699219 113.699219 C 139.734375 112.402344 135.574219 111.792969 131.398438 111.898438 C 126.816406 113.0625 123.757812 117.390625 124.199219 122.101562 L 124.199219 123.898438 L 130.5 123.898438 C 133.511719 124.019531 136.53125 123.816406 139.5 123.300781 L 143.699219 122.101562 L 147.898438 120.300781 C 148.800781 119.398438 149.398438 118.800781 149.398438 117.898438 "/>
<path style=" stroke:none;fill-rule:nonzero;fill:rgb(19.607843%,34.117647%,13.72549%);fill-opacity:1;" d="M 142.800781 147.601562 C 141.601562 146.101562 140.699219 144.898438 139.5 144.898438 C 138.300781 144.898438 136.5 145.5 135 148.199219 C 132.601562 144 130.199219 144 127.800781 148.199219 C 126 146.101562 124.5 144.898438 123.300781 145.199219 C 122.101562 145.5 121.199219 146.101562 120.300781 147.601562 C 118.199219 144.300781 116.398438 143.699219 114 146.101562 L 114 147 C 114 153.898438 115.800781 157.800781 121.800781 161.398438 L 122.699219 161.398438 C 127.324219 163.542969 132.613281 163.757812 137.398438 162 L 138.898438 161.101562 C 144.25 158.484375 147.546875 152.949219 147.300781 147 C 147.300781 146.699219 147 146.398438 147 146.101562 C 147 145.800781 144.601562 143.699219 142.800781 147.601562 Z M 142.800781 147.601562 "/>
<path style=" stroke:none;fill-rule:nonzero;fill:rgb(98.431373%,76.078431%,9.803922%);fill-opacity:1;" d="M 138.898438 130.800781 L 139.5 123.601562 C 136.53125 124.117188 133.511719 124.320312 130.5 124.199219 L 123 124.199219 L 123.601562 129.300781 L 123.601562 136.199219 C 123.800781 138.703125 123.699219 141.222656 123.300781 143.699219 C 123.058594 144.269531 122.957031 144.882812 123 145.5 C 124.199219 145.199219 125.699219 146.398438 127.5 148.5 C 129.898438 144.300781 132.300781 144.300781 134.699219 148.5 C 136.199219 145.800781 137.699219 144.601562 139.199219 145.199219 L 138.601562 131.101562 "/>
<path style=" stroke:none;fill-rule:nonzero;fill:rgb(63.921569%,5.490196%,1.176471%);fill-opacity:1;" d="M 131.398438 111.898438 L 130.5 111.898438 C 125.933594 111.808594 121.382812 112.414062 117 113.699219 C 113.398438 114.898438 111.601562 116.398438 111.601562 118.199219 C 111.667969 119.199219 112.230469 120.101562 113.101562 120.601562 L 113.398438 120.601562 L 117 122.398438 L 123 123.898438 L 124.199219 123.898438 L 124.199219 122.101562 C 123.757812 117.390625 126.816406 113.0625 131.398438 111.898438 "/>
<path style="fill:none;stroke-width:0.4;stroke-linecap:round;stroke-linejoin:round;stroke:rgb(0%,0%,0%);stroke-opacity:1;stroke-miterlimit:4;" d="M 46.299479 43.700521 L 48.5 43.299479 C 48.5 42.89974 48.60026 42.5 48.60026 42.10026 L 48.89974 41.200521 L 49.200521 40.299479 L 47.89974 40.89974 L 46.39974 41.299479 L 43.39974 41.5 L 41 41.5 L 39 41 L 37.700521 40.39974 L 38 41.10026 L 38.299479 42 C 38.421875 42.52474 38.488281 43.061198 38.5 43.60026 L 41.200521 43.89974 C 42.902344 43.983073 44.609375 43.916667 46.299479 43.700521 Z M 37.700521 40.299479 C 37.380208 40.115885 37.1875 39.769531 37.200521 39.39974 C 37.200521 38.89974 37.799479 38.39974 39 38 C 40.425781 37.570312 41.911458 37.36849 43.39974 37.39974 L 43.799479 37.39974 C 45.190104 37.373698 46.575521 37.576823 47.89974 38 C 49.10026 38.39974 49.700521 38.89974 49.700521 39.39974 C 49.692708 39.764323 49.505208 40.101562 49.200521 40.299479 M 41.299479 45.299479 C 40.354167 45.272135 39.415365 45.138021 38.5 44.89974 C 38.39974 45.39974 38.39974 45.89974 38.299479 46.39974 C 38.200521 46.89974 38.200521 47.10026 38.10026 47.39974 C 38.016927 47.861979 37.983073 48.330729 38 48.799479 C 38.700521 48 39.39974 48.10026 40.10026 49.299479 C 40.39974 48.799479 40.700521 48.5 41 48.5 C 41.299479 48.5 42 48.799479 42.5 49.5 C 43.299479 48.10026 44.10026 48.10026 45 49.5 C 45.533854 48.632812 46.033854 48.233073 46.5 48.299479 C 46.949219 48.492188 47.307292 48.85026 47.5 49.299479 C 48.10026 48.033854 48.60026 47.933594 49 49 C 49.016927 48.497396 48.983073 47.996094 48.89974 47.5 C 48.873698 47.127604 48.80599 46.757812 48.700521 46.39974 C 48.60026 45.799479 48.60026 45.299479 48.5 44.799479 L 46.299479 45.200521 C 44.643229 45.432292 42.964844 45.466146 41.299479 45.299479 Z M 41.299479 45.299479 " transform="matrix(3,0,0,3,0,0)"/>
<path style="fill:none;stroke-width:0.4;stroke-linecap:round;stroke-linejoin:round;stroke:rgb(0%,0%,0%);stroke-opacity:1;stroke-miterlimit:4;" d="M 49 49.200521 C 49.032552 51.170573 47.949219 52.990885 46.200521 53.89974 C 44.536458 54.561198 42.688802 54.596354 41 54 C 39.058594 53.013021 37.882812 50.973958 38 48.799479 M 49 49 L 49 49.200521 M 38.5 43.5 L 38.5 44.89974 M 48.5 44.799479 L 48.5 43.299479 M 40.10026 49.299479 C 40.095052 50.373698 40.195312 51.445312 40.39974 52.5 M 42.5 49.5 L 42.799479 52.799479 M 47.5 49.299479 C 47.453125 50.376302 47.31901 51.445312 47.10026 52.5 M 45 49.5 L 44.799479 52.799479 " transform="matrix(3,0,0,3,0,0)"/>
<path style="fill-rule:nonzero;fill:rgb(100%,0%,0%);fill-opacity:1;stroke-width:0.4;stroke-linecap:round;stroke-linejoin:round;stroke:rgb(0%,0%,0%);stroke-opacity:1;stroke-miterlimit:4;" d="M 48 57.60026 L 48.89974 57.60026 L 48.89974 59.89974 L 38.10026 59.89974 L 38.10026 57.60026 Z M 48 57.60026 " transform="matrix(3,0,0,3,0,0)"/>
</g>
</svg>
