<?xml version="1.0" encoding="UTF-8"?>
<svg xmlns="http://www.w3.org/2000/svg" xmlns:xlink="http://www.w3.org/1999/xlink" width="261px" height="420px" viewBox="0 0 261 426" version="1.1">
<g id="surface1">
<path style=" stroke:none;fill-rule:nonzero;fill:rgb(100%,100%,100%);fill-opacity:1;" d="M 18 0 L 243 0 C 252.941406 0 261 8.058594 261 18 L 261 402 C 261 411.941406 252.941406 420 243 420 L 18 420 C 8.058594 420 0 411.941406 0 402 L 0 18 C 0 8.058594 8.058594 0 18 0 Z M 18 0 "/>
<path style=" stroke:none;fill-rule:nonzero;fill:rgb(0%,0%,0%);fill-opacity:1;" d="M 211.199219 94.800781 C 211.199219 118.988281 191.589844 138.601562 167.398438 138.601562 C 143.210938 138.601562 123.601562 118.988281 123.601562 94.800781 C 123.601562 70.609375 143.210938 51 167.398438 51 C 191.589844 51 211.199219 70.609375 211.199219 94.800781 Z M 211.199219 94.800781 "/>
<path style="fill:none;stroke-width:0.6;stroke-linecap:butt;stroke-linejoin:miter;stroke:rgb(0%,0%,0%);stroke-opacity:1;stroke-miterlimit:10;" d="M 72.10026 31.60026 C 72.10026 40.602865 64.802083 47.89974 55.799479 47.89974 C 46.798177 47.89974 39.5 40.602865 39.5 31.60026 C 39.5 22.597656 46.798177 15.299479 55.799479 15.299479 C 64.802083 15.299479 72.10026 22.597656 72.10026 31.60026 Z M 72.10026 31.60026 " transform="matrix(3,0,0,3,0,0)"/>
<path style=" stroke:none;fill-rule:nonzero;fill:rgb(98.431373%,76.078431%,9.803922%);fill-opacity:1;" d="M 158.101562 72 L 167.398438 54 L 177 72 L 196.5 66 L 190.199219 85.5 L 208.199219 94.800781 L 190.199219 104.101562 L 196.5 123.601562 L 177 117.300781 L 167.398438 135.601562 L 158.101562 117.300781 L 138.601562 123.601562 L 144.898438 104.101562 L 126.601562 94.800781 L 144.898438 85.5 L 138.601562 66 Z M 158.101562 72 "/>
<path style="fill:none;stroke-width:0.3;stroke-linecap:butt;stroke-linejoin:miter;stroke:rgb(0%,0%,0%);stroke-opacity:1;stroke-miterlimit:10;" d="M 63.89974 31.60026 C 63.89974 36.072917 60.273438 39.700521 55.799479 39.700521 C 51.326823 39.700521 47.700521 36.072917 47.700521 31.60026 C 47.700521 27.126302 51.326823 23.5 55.799479 23.5 C 60.273438 23.5 63.89974 27.126302 63.89974 31.60026 Z M 63.89974 31.60026 " transform="matrix(3,0,0,3,0,0)"/>
<path style="fill:none;stroke-width:0.6;stroke-linecap:butt;stroke-linejoin:miter;stroke:rgb(0%,0%,0%);stroke-opacity:1;stroke-miterlimit:10;" d="M 62.60026 31.60026 C 62.60026 35.355469 59.55599 38.39974 55.799479 38.39974 C 52.044271 38.39974 49 35.355469 49 31.60026 C 49 27.845052 52.044271 24.799479 55.799479 24.799479 C 59.55599 24.799479 62.60026 27.845052 62.60026 31.60026 Z M 62.60026 31.60026 " transform="matrix(3,0,0,3,0,0)"/>
<path style="fill:none;stroke-width:0.3;stroke-linecap:butt;stroke-linejoin:miter;stroke:rgb(0%,0%,0%);stroke-opacity:1;stroke-miterlimit:10;" d="M 61.39974 31.60026 C 61.39974 34.692708 58.893229 37.200521 55.799479 37.200521 C 52.707031 37.200521 50.200521 34.692708 50.200521 31.60026 C 50.200521 28.507812 52.707031 26 55.799479 26 C 58.893229 26 61.39974 28.507812 61.39974 31.60026 Z M 61.39974 31.60026 " transform="matrix(3,0,0,3,0,0)"/>
<path style="fill:none;stroke-width:0.3;stroke-linecap:round;stroke-linejoin:round;stroke:rgb(0%,0%,0%);stroke-opacity:1;stroke-miterlimit:4;" d="M 52.10026 30.60026 C 52.10026 30.60026 52.89974 31.60026 54.799479 30.799479 C 54.541667 30.315104 54.053385 29.996094 53.505208 29.954427 C 52.957031 29.914062 52.427083 30.157552 52.10026 30.60026 Z M 52.10026 30.60026 " transform="matrix(3,0,0,3,0,0)"/>
<path style=" stroke:none;fill-rule:nonzero;fill:rgb(0%,0%,0%);fill-opacity:1;" d="M 162 91.800781 C 162 90.804688 161.195312 90 160.199219 90 C 159.207031 90 158.398438 90.804688 158.398438 91.800781 C 158.398438 92.792969 159.207031 93.601562 160.199219 93.601562 C 161.195312 93.601562 162 92.792969 162 91.800781 Z M 162 91.800781 "/>
<path style=" stroke:none;fill-rule:nonzero;fill:rgb(100%,100%,100%);fill-opacity:1;" d="M 160.5 90.601562 C 160.5 90.929688 160.230469 91.199219 159.898438 91.199219 C 159.570312 91.199219 159.300781 90.929688 159.300781 90.601562 C 159.300781 90.269531 159.570312 90 159.898438 90 C 160.230469 90 160.5 90.269531 160.5 90.601562 Z M 160.5 90.601562 "/>
<path style="fill:none;stroke-width:0.3;stroke-linecap:round;stroke-linejoin:round;stroke:rgb(0%,0%,0%);stroke-opacity:1;stroke-miterlimit:4;" d="M 51.89974 29.89974 C 52.744792 29.445312 53.794271 29.654948 54.39974 30.39974 M 59.5 30.700521 C 59.5 30.700521 58.700521 31.700521 56.89974 30.799479 C 57.183594 30.36849 57.658854 30.101562 58.174479 30.082031 C 58.690104 30.0625 59.183594 30.291667 59.5 30.700521 Z M 59.5 30.700521 " transform="matrix(3,0,0,3,0,0)"/>
<path style=" stroke:none;fill-rule:nonzero;fill:rgb(0%,0%,0%);fill-opacity:1;" d="M 176.398438 92.101562 C 176.398438 91.105469 175.59375 90.300781 174.601562 90.300781 C 173.605469 90.300781 172.800781 91.105469 172.800781 92.101562 C 172.800781 93.09375 173.605469 93.898438 174.601562 93.898438 C 175.59375 93.898438 176.398438 93.09375 176.398438 92.101562 Z M 176.398438 92.101562 "/>
<path style=" stroke:none;fill-rule:nonzero;fill:rgb(100%,100%,100%);fill-opacity:1;" d="M 175.5 90.898438 C 175.5 91.230469 175.230469 91.5 174.898438 91.5 C 174.570312 91.5 174.300781 91.230469 174.300781 90.898438 C 174.300781 90.570312 174.570312 90.300781 174.898438 90.300781 C 175.230469 90.300781 175.5 90.570312 175.5 90.898438 Z M 175.5 90.898438 "/>
<path style="fill:none;stroke-width:0.3;stroke-linecap:round;stroke-linejoin:round;stroke:rgb(0%,0%,0%);stroke-opacity:1;stroke-miterlimit:4;" d="M 59.700521 30 C 58.854167 29.545573 57.80599 29.755208 57.200521 30.5 M 52 28.700521 L 54.799479 28.700521 C 55.213542 28.861979 55.489583 29.25651 55.5 29.700521 C 55.5 30.10026 55.39974 31 55.39974 31 " transform="matrix(3,0,0,3,0,0)"/>
<path style="fill:none;stroke-width:0.3;stroke-linecap:round;stroke-linejoin:round;stroke:rgb(0%,0%,0%);stroke-opacity:1;stroke-miterlimit:4;" d="M 59.299479 28.89974 C 58.511719 28.729167 57.699219 28.695312 56.89974 28.799479 C 56.39974 29 56.5 29.200521 56.39974 29.39974 C 56.35026 30.165365 56.35026 30.933594 56.39974 31.700521 M 54.700521 32.5 C 54.700521 32.5 55.299479 32.799479 55.39974 33 C 55.5 33.200521 55.89974 33.200521 56.10026 33 L 56.89974 32.60026 C 57.200521 32.60026 56.89974 32.200521 56.89974 32.200521 M 56.200521 34 L 55.89974 34.200521 L 55.39974 34 C 55.299479 34 55.10026 34.200521 54.799479 34.200521 C 54.5 34.200521 54 34.39974 54 34.299479 C 56.299479 34.89974 57.299479 34.39974 57.299479 34.39974 L 56.60026 34.10026 C 56.5 34 56.299479 33.89974 56.200521 34 Z M 56.200521 34 " transform="matrix(3,0,0,3,0,0)"/>
<path style="fill:none;stroke-width:0.3;stroke-linecap:round;stroke-linejoin:round;stroke:rgb(0%,0%,0%);stroke-opacity:1;stroke-miterlimit:4;" d="M 57.10026 34.5 C 56.820312 34.996094 56.351562 35.356771 55.799479 35.5 C 55.417969 35.459635 55.0625 35.28125 54.799479 35 C 54.684896 34.761719 54.513021 34.55599 54.299479 34.39974 " transform="matrix(3,0,0,3,0,0)"/>
<path style=" stroke:none;fill-rule:nonzero;fill:rgb(98.431373%,76.078431%,9.803922%);fill-opacity:1;" d="M 185.699219 61.199219 C 185.699219 63.683594 183.683594 65.699219 181.199219 65.699219 C 178.714844 65.699219 176.699219 63.683594 176.699219 61.199219 C 176.699219 58.714844 178.714844 56.699219 181.199219 56.699219 C 183.683594 56.699219 185.699219 58.714844 185.699219 61.199219 Z M 185.699219 61.199219 "/>
<path style=" stroke:none;fill-rule:nonzero;fill:rgb(98.431373%,76.078431%,9.803922%);fill-opacity:1;" d="M 205.199219 81.300781 C 205.199219 83.785156 203.183594 85.800781 200.699219 85.800781 C 198.214844 85.800781 196.199219 83.785156 196.199219 81.300781 C 196.199219 78.816406 198.214844 76.800781 200.699219 76.800781 C 203.183594 76.800781 205.199219 78.816406 205.199219 81.300781 Z M 205.199219 81.300781 "/>
<path style=" stroke:none;fill-rule:nonzero;fill:rgb(98.431373%,76.078431%,9.803922%);fill-opacity:1;" d="M 205.199219 108 C 205.199219 110.484375 203.183594 112.5 200.699219 112.5 C 198.214844 112.5 196.199219 110.484375 196.199219 108 C 196.199219 105.515625 198.214844 103.5 200.699219 103.5 C 203.183594 103.5 205.199219 105.515625 205.199219 108 Z M 205.199219 108 "/>
<path style=" stroke:none;fill-rule:nonzero;fill:rgb(98.431373%,76.078431%,9.803922%);fill-opacity:1;" d="M 185.699219 128.101562 C 185.699219 130.585938 183.683594 132.601562 181.199219 132.601562 C 178.714844 132.601562 176.699219 130.585938 176.699219 128.101562 C 176.699219 125.613281 178.714844 123.601562 181.199219 123.601562 C 183.683594 123.601562 185.699219 125.613281 185.699219 128.101562 Z M 185.699219 128.101562 "/>
<path style=" stroke:none;fill-rule:nonzero;fill:rgb(98.431373%,76.078431%,9.803922%);fill-opacity:1;" d="M 157.5 128.101562 C 157.5 130.585938 155.484375 132.601562 153 132.601562 C 150.515625 132.601562 148.5 130.585938 148.5 128.101562 C 148.5 125.613281 150.515625 123.601562 153 123.601562 C 155.484375 123.601562 157.5 125.613281 157.5 128.101562 Z M 157.5 128.101562 "/>
<path style=" stroke:none;fill-rule:nonzero;fill:rgb(98.431373%,76.078431%,9.803922%);fill-opacity:1;" d="M 138.601562 108 C 138.601562 110.484375 136.585938 112.5 134.101562 112.5 C 131.613281 112.5 129.601562 110.484375 129.601562 108 C 129.601562 105.515625 131.613281 103.5 134.101562 103.5 C 136.585938 103.5 138.601562 105.515625 138.601562 108 Z M 138.601562 108 "/>
<path style=" stroke:none;fill-rule:nonzero;fill:rgb(98.431373%,76.078431%,9.803922%);fill-opacity:1;" d="M 138.601562 81 C 138.601562 83.484375 136.585938 85.5 134.101562 85.5 C 131.613281 85.5 129.601562 83.484375 129.601562 81 C 129.601562 78.515625 131.613281 76.5 134.101562 76.5 C 136.585938 76.5 138.601562 78.515625 138.601562 81 Z M 138.601562 81 "/>
<path style=" stroke:none;fill-rule:nonzero;fill:rgb(98.431373%,76.078431%,9.803922%);fill-opacity:1;" d="M 157.5 61.199219 C 157.5 63.683594 155.484375 65.699219 153 65.699219 C 150.515625 65.699219 148.5 63.683594 148.5 61.199219 C 148.5 58.714844 150.515625 56.699219 153 56.699219 C 155.484375 56.699219 157.5 58.714844 157.5 61.199219 Z M 157.5 61.199219 "/>
<path style=" stroke:none;fill-rule:nonzero;fill:rgb(0%,0%,0%);fill-opacity:1;" d="M 211.199219 325.199219 C 211.199219 349.390625 191.589844 369 167.398438 369 C 143.210938 369 123.601562 349.390625 123.601562 325.199219 C 123.601562 301.011719 143.210938 281.398438 167.398438 281.398438 C 191.589844 281.398438 211.199219 301.011719 211.199219 325.199219 Z M 211.199219 325.199219 "/>
<path style="fill:none;stroke-width:0.6;stroke-linecap:butt;stroke-linejoin:miter;stroke:rgb(0%,0%,0%);stroke-opacity:1;stroke-miterlimit:10;" d="M 72.10026 108.39974 C 72.10026 117.402344 64.802083 124.700521 55.799479 124.700521 C 46.798177 124.700521 39.5 117.402344 39.5 108.39974 C 39.5 99.397135 46.798177 92.10026 55.799479 92.10026 C 64.802083 92.10026 72.10026 99.397135 72.10026 108.39974 Z M 72.10026 108.39974 " transform="matrix(3,0,0,3,0,0)"/>
<path style=" stroke:none;fill-rule:nonzero;fill:rgb(98.431373%,76.078431%,9.803922%);fill-opacity:1;" d="M 158.101562 302.699219 L 167.398438 284.398438 L 177 302.699219 L 196.5 296.398438 L 190.199219 315.898438 L 208.199219 325.199219 L 190.199219 334.5 L 196.5 354 L 177 348 L 167.398438 366 L 158.101562 348 L 138.601562 354 L 144.898438 334.5 L 126.601562 325.199219 L 144.898438 315.898438 L 138.601562 296.398438 Z M 158.101562 302.699219 "/>
<path style="fill:none;stroke-width:0.3;stroke-linecap:butt;stroke-linejoin:miter;stroke:rgb(0%,0%,0%);stroke-opacity:1;stroke-miterlimit:10;" d="M 63.89974 108.39974 C 63.89974 112.873698 60.273438 116.5 55.799479 116.5 C 51.326823 116.5 47.700521 112.873698 47.700521 108.39974 C 47.700521 103.927083 51.326823 100.299479 55.799479 100.299479 C 60.273438 100.299479 63.89974 103.927083 63.89974 108.39974 Z M 63.89974 108.39974 " transform="matrix(3,0,0,3,0,0)"/>
<path style="fill:none;stroke-width:0.6;stroke-linecap:butt;stroke-linejoin:miter;stroke:rgb(0%,0%,0%);stroke-opacity:1;stroke-miterlimit:10;" d="M 62.60026 108.39974 C 62.60026 112.154948 59.55599 115.200521 55.799479 115.200521 C 52.044271 115.200521 49 112.154948 49 108.39974 C 49 104.644531 52.044271 101.60026 55.799479 101.60026 C 59.55599 101.60026 62.60026 104.644531 62.60026 108.39974 Z M 62.60026 108.39974 " transform="matrix(3,0,0,3,0,0)"/>
<path style="fill:none;stroke-width:0.3;stroke-linecap:butt;stroke-linejoin:miter;stroke:rgb(0%,0%,0%);stroke-opacity:1;stroke-miterlimit:10;" d="M 61.39974 108.39974 C 61.39974 111.492188 58.893229 114 55.799479 114 C 52.707031 114 50.200521 111.492188 50.200521 108.39974 C 50.200521 105.307292 52.707031 102.799479 55.799479 102.799479 C 58.893229 102.799479 61.39974 105.307292 61.39974 108.39974 Z M 61.39974 108.39974 " transform="matrix(3,0,0,3,0,0)"/>
<path style="fill:none;stroke-width:0.3;stroke-linecap:round;stroke-linejoin:round;stroke:rgb(0%,0%,0%);stroke-opacity:1;stroke-miterlimit:4;" d="M 52.10026 107.5 C 52.10026 107.5 52.89974 108.5 54.799479 107.60026 C 54.523438 107.127604 54.02474 106.828125 53.477865 106.807292 C 52.929688 106.78776 52.410156 107.048177 52.10026 107.5 Z M 52.10026 107.5 " transform="matrix(3,0,0,3,0,0)"/>
<path style=" stroke:none;fill-rule:nonzero;fill:rgb(0%,0%,0%);fill-opacity:1;" d="M 162 322.199219 C 162 321.207031 161.195312 320.398438 160.199219 320.398438 C 159.207031 320.398438 158.398438 321.207031 158.398438 322.199219 C 158.398438 323.195312 159.207031 324 160.199219 324 C 161.195312 324 162 323.195312 162 322.199219 Z M 162 322.199219 "/>
<path style=" stroke:none;fill-rule:nonzero;fill:rgb(100%,100%,100%);fill-opacity:1;" d="M 160.5 321.300781 C 160.5 321.632812 160.230469 321.898438 159.898438 321.898438 C 159.570312 321.898438 159.300781 321.632812 159.300781 321.300781 C 159.300781 320.96875 159.570312 320.699219 159.898438 320.699219 C 160.230469 320.699219 160.5 320.96875 160.5 321.300781 Z M 160.5 321.300781 "/>
<path style="fill:none;stroke-width:0.3;stroke-linecap:round;stroke-linejoin:round;stroke:rgb(0%,0%,0%);stroke-opacity:1;stroke-miterlimit:4;" d="M 51.89974 106.799479 C 52.729167 106.359375 53.75 106.523438 54.39974 107.200521 M 59.5 107.5 C 59.5 107.5 58.700521 108.5 56.89974 107.700521 C 57.130208 107.21224 57.604167 106.885417 58.141927 106.84375 C 58.679688 106.802083 59.197917 107.053385 59.5 107.5 Z M 59.5 107.5 " transform="matrix(3,0,0,3,0,0)"/>
<path style=" stroke:none;fill-rule:nonzero;fill:rgb(0%,0%,0%);fill-opacity:1;" d="M 176.398438 322.5 C 176.398438 321.507812 175.59375 320.699219 174.601562 320.699219 C 173.605469 320.699219 172.800781 321.507812 172.800781 322.5 C 172.800781 323.492188 173.605469 324.300781 174.601562 324.300781 C 175.59375 324.300781 176.398438 323.492188 176.398438 322.5 Z M 176.398438 322.5 "/>
<path style=" stroke:none;fill-rule:nonzero;fill:rgb(100%,100%,100%);fill-opacity:1;" d="M 175.5 321.601562 C 175.5 321.929688 175.230469 322.199219 174.898438 322.199219 C 174.570312 322.199219 174.300781 321.929688 174.300781 321.601562 C 174.300781 321.269531 174.570312 321 174.898438 321 C 175.230469 321 175.5 321.269531 175.5 321.601562 Z M 175.5 321.601562 "/>
<path style="fill:none;stroke-width:0.3;stroke-linecap:round;stroke-linejoin:round;stroke:rgb(0%,0%,0%);stroke-opacity:1;stroke-miterlimit:4;" d="M 59.700521 106.799479 C 58.854167 106.345052 57.80599 106.554688 57.200521 107.299479 M 52 105.60026 L 54.799479 105.60026 C 55.213542 105.761719 55.489583 106.15625 55.5 106.60026 C 55.5 107 55.39974 107.89974 55.39974 107.89974 " transform="matrix(3,0,0,3,0,0)"/>
<path style="fill:none;stroke-width:0.3;stroke-linecap:round;stroke-linejoin:round;stroke:rgb(0%,0%,0%);stroke-opacity:1;stroke-miterlimit:4;" d="M 59.299479 105.700521 C 58.509115 105.529948 57.691406 105.529948 56.89974 105.700521 C 56.39974 105.799479 56.5 106 56.39974 106.200521 C 56.35026 106.998698 56.35026 107.800781 56.39974 108.60026 M 54.700521 109.299479 C 54.700521 109.299479 55.299479 109.60026 55.39974 109.799479 C 55.5 110 55.89974 110 56.10026 109.89974 C 56.299479 109.799479 56.60026 109.5 56.89974 109.5 C 57.200521 109.5 56.89974 109 56.89974 109 M 56.200521 110.799479 L 55.89974 111 L 55.39974 110.799479 L 54.799479 111.10026 L 54 111.10026 C 55.072917 111.44401 56.226562 111.44401 57.299479 111.10026 C 57.046875 111.054688 56.807292 110.951823 56.60026 110.799479 Z M 56.200521 110.799479 " transform="matrix(3,0,0,3,0,0)"/>
<path style="fill:none;stroke-width:0.3;stroke-linecap:round;stroke-linejoin:round;stroke:rgb(0%,0%,0%);stroke-opacity:1;stroke-miterlimit:4;" d="M 57.10026 111.299479 C 57.10026 111.299479 56.60026 112.299479 55.799479 112.299479 C 55.395833 112.352865 55 112.154948 54.799479 111.799479 C 54.684896 111.561198 54.513021 111.355469 54.299479 111.200521 " transform="matrix(3,0,0,3,0,0)"/>
<path style=" stroke:none;fill-rule:nonzero;fill:rgb(98.431373%,76.078431%,9.803922%);fill-opacity:1;" d="M 185.699219 291.601562 C 185.699219 294.085938 183.683594 296.101562 181.199219 296.101562 C 178.714844 296.101562 176.699219 294.085938 176.699219 291.601562 C 176.699219 289.113281 178.714844 287.101562 181.199219 287.101562 C 183.683594 287.101562 185.699219 289.113281 185.699219 291.601562 Z M 185.699219 291.601562 "/>
<path style=" stroke:none;fill-rule:nonzero;fill:rgb(98.431373%,76.078431%,9.803922%);fill-opacity:1;" d="M 205.199219 311.699219 C 205.199219 314.183594 203.183594 316.199219 200.699219 316.199219 C 198.214844 316.199219 196.199219 314.183594 196.199219 311.699219 C 196.199219 309.214844 198.214844 307.199219 200.699219 307.199219 C 203.183594 307.199219 205.199219 309.214844 205.199219 311.699219 Z M 205.199219 311.699219 "/>
<path style=" stroke:none;fill-rule:nonzero;fill:rgb(98.431373%,76.078431%,9.803922%);fill-opacity:1;" d="M 205.199219 338.398438 C 205.199219 340.886719 203.183594 342.898438 200.699219 342.898438 C 198.214844 342.898438 196.199219 340.886719 196.199219 338.398438 C 196.199219 335.914062 198.214844 333.898438 200.699219 333.898438 C 203.183594 333.898438 205.199219 335.914062 205.199219 338.398438 Z M 205.199219 338.398438 "/>
<path style=" stroke:none;fill-rule:nonzero;fill:rgb(98.431373%,76.078431%,9.803922%);fill-opacity:1;" d="M 185.699219 358.5 C 185.699219 360.984375 183.683594 363 181.199219 363 C 178.714844 363 176.699219 360.984375 176.699219 358.5 C 176.699219 356.015625 178.714844 354 181.199219 354 C 183.683594 354 185.699219 356.015625 185.699219 358.5 Z M 185.699219 358.5 "/>
<path style=" stroke:none;fill-rule:nonzero;fill:rgb(98.431373%,76.078431%,9.803922%);fill-opacity:1;" d="M 157.5 358.5 C 157.5 360.984375 155.484375 363 153 363 C 150.515625 363 148.5 360.984375 148.5 358.5 C 148.5 356.015625 150.515625 354 153 354 C 155.484375 354 157.5 356.015625 157.5 358.5 Z M 157.5 358.5 "/>
<path style=" stroke:none;fill-rule:nonzero;fill:rgb(98.431373%,76.078431%,9.803922%);fill-opacity:1;" d="M 138.601562 338.398438 C 138.601562 340.886719 136.585938 342.898438 134.101562 342.898438 C 131.613281 342.898438 129.601562 340.886719 129.601562 338.398438 C 129.601562 335.914062 131.613281 333.898438 134.101562 333.898438 C 136.585938 333.898438 138.601562 335.914062 138.601562 338.398438 Z M 138.601562 338.398438 "/>
<path style=" stroke:none;fill-rule:nonzero;fill:rgb(98.431373%,76.078431%,9.803922%);fill-opacity:1;" d="M 138.601562 311.699219 C 138.601562 314.183594 136.585938 316.199219 134.101562 316.199219 C 131.613281 316.199219 129.601562 314.183594 129.601562 311.699219 C 129.601562 309.214844 131.613281 307.199219 134.101562 307.199219 C 136.585938 307.199219 138.601562 309.214844 138.601562 311.699219 Z M 138.601562 311.699219 "/>
<path style=" stroke:none;fill-rule:nonzero;fill:rgb(98.431373%,76.078431%,9.803922%);fill-opacity:1;" d="M 157.5 291.601562 C 157.5 294.085938 155.484375 296.101562 153 296.101562 C 150.515625 296.101562 148.5 294.085938 148.5 291.601562 C 148.5 289.113281 150.515625 287.101562 153 287.101562 C 155.484375 287.101562 157.5 289.113281 157.5 291.601562 Z M 157.5 291.601562 "/>
<path style=" stroke:none;fill-rule:nonzero;fill:rgb(0%,0%,0%);fill-opacity:1;" d="M 137.398438 210 C 137.398438 234.191406 117.789062 253.800781 93.601562 253.800781 C 69.410156 253.800781 49.800781 234.191406 49.800781 210 C 49.800781 185.808594 69.410156 166.199219 93.601562 166.199219 C 117.789062 166.199219 137.398438 185.808594 137.398438 210 Z M 137.398438 210 "/>
<path style="fill:none;stroke-width:0.6;stroke-linecap:butt;stroke-linejoin:miter;stroke:rgb(0%,0%,0%);stroke-opacity:1;stroke-miterlimit:10;" d="M 47.5 70 C 47.5 79.002604 40.201823 86.299479 31.200521 86.299479 C 22.197917 86.299479 14.89974 79.002604 14.89974 70 C 14.89974 60.997396 22.197917 53.700521 31.200521 53.700521 C 40.201823 53.700521 47.5 60.997396 47.5 70 Z M 47.5 70 " transform="matrix(3,0,0,3,0,0)"/>
<path style=" stroke:none;fill-rule:nonzero;fill:rgb(98.431373%,76.078431%,9.803922%);fill-opacity:1;" d="M 84 187.5 L 93.601562 169.199219 L 102.898438 187.5 L 122.398438 181.199219 L 116.101562 200.699219 L 134.398438 210 L 116.101562 219.300781 L 122.398438 238.800781 L 102.898438 232.5 L 93.601562 250.800781 L 84 232.5 L 64.5 238.800781 L 70.800781 219.300781 L 52.800781 210 L 70.800781 200.699219 L 64.5 181.199219 Z M 84 187.5 "/>
<path style="fill:none;stroke-width:0.3;stroke-linecap:butt;stroke-linejoin:miter;stroke:rgb(0%,0%,0%);stroke-opacity:1;stroke-miterlimit:10;" d="M 39.299479 70 C 39.299479 74.473958 35.673177 78.10026 31.200521 78.10026 C 26.726562 78.10026 23.10026 74.473958 23.10026 70 C 23.10026 65.526042 26.726562 61.89974 31.200521 61.89974 C 35.673177 61.89974 39.299479 65.526042 39.299479 70 Z M 39.299479 70 " transform="matrix(3,0,0,3,0,0)"/>
<path style="fill:none;stroke-width:0.6;stroke-linecap:butt;stroke-linejoin:miter;stroke:rgb(0%,0%,0%);stroke-opacity:1;stroke-miterlimit:10;" d="M 37.89974 70 C 37.89974 73.700521 34.89974 76.700521 31.200521 76.700521 C 27.5 76.700521 24.5 73.700521 24.5 70 C 24.5 66.299479 27.5 63.299479 31.200521 63.299479 C 34.89974 63.299479 37.89974 66.299479 37.89974 70 Z M 37.89974 70 " transform="matrix(3,0,0,3,0,0)"/>
<path style="fill:none;stroke-width:0.3;stroke-linecap:butt;stroke-linejoin:miter;stroke:rgb(0%,0%,0%);stroke-opacity:1;stroke-miterlimit:10;" d="M 36.799479 70 C 36.799479 73.092448 34.292969 75.60026 31.200521 75.60026 C 28.106771 75.60026 25.60026 73.092448 25.60026 70 C 25.60026 66.907552 28.106771 64.39974 31.200521 64.39974 C 34.292969 64.39974 36.799479 66.907552 36.799479 70 Z M 36.799479 70 " transform="matrix(3,0,0,3,0,0)"/>
<path style="fill:none;stroke-width:0.3;stroke-linecap:round;stroke-linejoin:round;stroke:rgb(0%,0%,0%);stroke-opacity:1;stroke-miterlimit:4;" d="M 27.5 69 C 27.5 69 28.200521 70.10026 30.10026 69.200521 C 29.869792 68.71224 29.395833 68.385417 28.858073 68.34375 C 28.320312 68.302083 27.802083 68.553385 27.5 69 Z M 27.5 69 " transform="matrix(3,0,0,3,0,0)"/>
<path style=" stroke:none;fill-rule:nonzero;fill:rgb(0%,0%,0%);fill-opacity:1;" d="M 87.898438 207 C 87.898438 206.007812 87.09375 205.199219 86.101562 205.199219 C 85.105469 205.199219 84.300781 206.007812 84.300781 207 C 84.300781 207.992188 85.105469 208.800781 86.101562 208.800781 C 87.09375 208.800781 87.898438 207.992188 87.898438 207 Z M 87.898438 207 "/>
<path style=" stroke:none;fill-rule:nonzero;fill:rgb(100%,100%,100%);fill-opacity:1;" d="M 86.699219 206.101562 C 86.699219 206.429688 86.429688 206.699219 86.101562 206.699219 C 85.769531 206.699219 85.5 206.429688 85.5 206.101562 C 85.5 205.769531 85.769531 205.5 86.101562 205.5 C 86.429688 205.5 86.699219 205.769531 86.699219 206.101562 Z M 86.699219 206.101562 "/>
<path style="fill:none;stroke-width:0.3;stroke-linecap:round;stroke-linejoin:round;stroke:rgb(0%,0%,0%);stroke-opacity:1;stroke-miterlimit:4;" d="M 27.299479 68.299479 C 28.145833 67.845052 29.19401 68.054688 29.799479 68.799479 M 34.799479 69.10026 C 34.799479 69.10026 34.10026 70.10026 32.200521 69.299479 C 32.429688 68.8125 32.903646 68.485677 33.441406 68.44401 C 33.979167 68.402344 34.498698 68.653646 34.799479 69.10026 Z M 34.799479 69.10026 " transform="matrix(3,0,0,3,0,0)"/>
<path style=" stroke:none;fill-rule:nonzero;fill:rgb(0%,0%,0%);fill-opacity:1;" d="M 102.601562 207.300781 C 102.601562 206.304688 101.792969 205.5 100.800781 205.5 C 99.804688 205.5 99 206.304688 99 207.300781 C 99 208.292969 99.804688 209.101562 100.800781 209.101562 C 101.792969 209.101562 102.601562 208.292969 102.601562 207.300781 Z M 102.601562 207.300781 "/>
<path style=" stroke:none;fill-rule:nonzero;fill:rgb(100%,100%,100%);fill-opacity:1;" d="M 101.398438 206.101562 C 101.398438 206.429688 101.132812 206.699219 100.800781 206.699219 C 100.46875 206.699219 100.199219 206.429688 100.199219 206.101562 C 100.199219 205.769531 100.46875 205.5 100.800781 205.5 C 101.132812 205.5 101.398438 205.769531 101.398438 206.101562 Z M 101.398438 206.101562 "/>
<path style="fill:none;stroke-width:0.3;stroke-linecap:round;stroke-linejoin:round;stroke:rgb(0%,0%,0%);stroke-opacity:1;stroke-miterlimit:4;" d="M 35 68.39974 C 34.154948 67.945312 33.105469 68.154948 32.5 68.89974 M 27.299479 67.200521 C 28.233073 67.14974 29.167969 67.14974 30.10026 67.200521 C 30.514323 67.361979 30.790365 67.75651 30.799479 68.200521 C 30.852865 68.63151 30.852865 69.067708 30.799479 69.5 " transform="matrix(3,0,0,3,0,0)"/>
<path style="fill:none;stroke-width:0.3;stroke-linecap:round;stroke-linejoin:round;stroke:rgb(0%,0%,0%);stroke-opacity:1;stroke-miterlimit:4;" d="M 34.60026 67.299479 C 33.808594 67.130208 32.990885 67.130208 32.200521 67.299479 C 31.799479 67.39974 31.799479 67.60026 31.799479 67.799479 C 31.714844 68.563802 31.68099 69.332031 31.700521 70.10026 M 30.10026 70.89974 L 30.799479 71.39974 C 30.954427 71.565104 31.200521 71.606771 31.39974 71.5 C 31.605469 71.268229 31.891927 71.125 32.200521 71.10026 C 32.5 71 32.299479 70.60026 32.299479 70.60026 M 31.5 72.39974 C 31.4375 72.510417 31.325521 72.584635 31.200521 72.60026 L 30.799479 72.39974 L 30.10026 72.60026 L 29.39974 72.799479 C 30.472656 73.144531 31.626302 73.144531 32.700521 72.799479 L 32 72.5 Z M 31.5 72.39974 " transform="matrix(3,0,0,3,0,0)"/>
<path style="fill:none;stroke-width:0.3;stroke-linecap:round;stroke-linejoin:round;stroke:rgb(0%,0%,0%);stroke-opacity:1;stroke-miterlimit:4;" d="M 32.39974 72.89974 C 32.39974 72.89974 31.89974 73.799479 31.200521 73.89974 C 30.800781 73.928385 30.417969 73.735677 30.200521 73.39974 C 30.028646 73.173177 29.826823 72.971354 29.60026 72.799479 " transform="matrix(3,0,0,3,0,0)"/>
<path style=" stroke:none;fill-rule:nonzero;fill:rgb(98.431373%,76.078431%,9.803922%);fill-opacity:1;" d="M 111.601562 176.398438 C 111.601562 178.886719 109.585938 180.898438 107.101562 180.898438 C 104.613281 180.898438 102.601562 178.886719 102.601562 176.398438 C 102.601562 173.914062 104.613281 171.898438 107.101562 171.898438 C 109.585938 171.898438 111.601562 173.914062 111.601562 176.398438 Z M 111.601562 176.398438 "/>
<path style=" stroke:none;fill-rule:nonzero;fill:rgb(98.431373%,76.078431%,9.803922%);fill-opacity:1;" d="M 131.101562 196.5 C 131.101562 198.984375 129.085938 201 126.601562 201 C 124.113281 201 122.101562 198.984375 122.101562 196.5 C 122.101562 194.015625 124.113281 192 126.601562 192 C 129.085938 192 131.101562 194.015625 131.101562 196.5 Z M 131.101562 196.5 "/>
<path style=" stroke:none;fill-rule:nonzero;fill:rgb(98.431373%,76.078431%,9.803922%);fill-opacity:1;" d="M 131.101562 223.199219 C 131.101562 225.683594 129.085938 227.699219 126.601562 227.699219 C 124.113281 227.699219 122.101562 225.683594 122.101562 223.199219 C 122.101562 220.714844 124.113281 218.699219 126.601562 218.699219 C 129.085938 218.699219 131.101562 220.714844 131.101562 223.199219 Z M 131.101562 223.199219 "/>
<path style=" stroke:none;fill-rule:nonzero;fill:rgb(98.431373%,76.078431%,9.803922%);fill-opacity:1;" d="M 111.601562 243.300781 C 111.601562 245.785156 109.585938 247.800781 107.101562 247.800781 C 104.613281 247.800781 102.601562 245.785156 102.601562 243.300781 C 102.601562 240.816406 104.613281 238.800781 107.101562 238.800781 C 109.585938 238.800781 111.601562 240.816406 111.601562 243.300781 Z M 111.601562 243.300781 "/>
<path style=" stroke:none;fill-rule:nonzero;fill:rgb(98.431373%,76.078431%,9.803922%);fill-opacity:1;" d="M 83.699219 243.300781 C 83.699219 245.785156 81.683594 247.800781 79.199219 247.800781 C 76.714844 247.800781 74.699219 245.785156 74.699219 243.300781 C 74.699219 240.816406 76.714844 238.800781 79.199219 238.800781 C 81.683594 238.800781 83.699219 240.816406 83.699219 243.300781 Z M 83.699219 243.300781 "/>
<path style=" stroke:none;fill-rule:nonzero;fill:rgb(98.431373%,76.078431%,9.803922%);fill-opacity:1;" d="M 64.800781 223.199219 C 64.800781 225.683594 62.785156 227.699219 60.300781 227.699219 C 57.816406 227.699219 55.800781 225.683594 55.800781 223.199219 C 55.800781 220.714844 57.816406 218.699219 60.300781 218.699219 C 62.785156 218.699219 64.800781 220.714844 64.800781 223.199219 Z M 64.800781 223.199219 "/>
<path style=" stroke:none;fill-rule:nonzero;fill:rgb(98.431373%,76.078431%,9.803922%);fill-opacity:1;" d="M 64.800781 196.199219 C 64.800781 198.683594 62.785156 200.699219 60.300781 200.699219 C 57.816406 200.699219 55.800781 198.683594 55.800781 196.199219 C 55.800781 193.714844 57.816406 191.699219 60.300781 191.699219 C 62.785156 191.699219 64.800781 193.714844 64.800781 196.199219 Z M 64.800781 196.199219 "/>
<path style=" stroke:none;fill-rule:nonzero;fill:rgb(98.431373%,76.078431%,9.803922%);fill-opacity:1;" d="M 83.699219 176.398438 C 83.699219 178.886719 81.683594 180.898438 79.199219 180.898438 C 76.714844 180.898438 74.699219 178.886719 74.699219 176.398438 C 74.699219 173.914062 76.714844 171.898438 79.199219 171.898438 C 81.683594 171.898438 83.699219 173.914062 83.699219 176.398438 Z M 83.699219 176.398438 "/>
</g>
</svg>
