<?xml version="1.0" encoding="UTF-8"?>
<svg xmlns="http://www.w3.org/2000/svg" xmlns:xlink="http://www.w3.org/1999/xlink" width="261px" height="420px" viewBox="0 0 261 426" version="1.1">
<g id="surface1">
<path style=" stroke:none;fill-rule:nonzero;fill:rgb(100%,100%,100%);fill-opacity:1;" d="M 18 0 L 243 0 C 252.941406 0 261 8.058594 261 18 L 261 402 C 261 411.941406 252.941406 420 243 420 L 18 420 C 8.058594 420 0 411.941406 0 402 L 0 18 C 0 8.058594 8.058594 0 18 0 Z M 18 0 "/>
<path style=" stroke:none;fill-rule:nonzero;fill:rgb(0%,0%,0%);fill-opacity:1;" d="M 213.898438 84.300781 C 213.898438 102.527344 199.125 117.300781 180.898438 117.300781 C 162.675781 117.300781 147.898438 102.527344 147.898438 84.300781 C 147.898438 66.074219 162.675781 51.300781 180.898438 51.300781 C 199.125 51.300781 213.898438 66.074219 213.898438 84.300781 Z M 213.898438 84.300781 "/>
<path style="fill:none;stroke-width:0.6;stroke-linecap:butt;stroke-linejoin:miter;stroke:rgb(0%,0%,0%);stroke-opacity:1;stroke-miterlimit:10;" d="M 72.60026 28.10026 C 72.60026 34.893229 67.09375 40.39974 60.299479 40.39974 C 53.50651 40.39974 48 34.893229 48 28.10026 C 48 21.307292 53.50651 15.799479 60.299479 15.799479 C 67.09375 15.799479 72.60026 21.307292 72.60026 28.10026 Z M 72.60026 28.10026 " transform="matrix(3,0,0,3,0,0)"/>
<path style=" stroke:none;fill-rule:nonzero;fill:rgb(98.431373%,76.078431%,9.803922%);fill-opacity:1;" d="M 173.699219 67.199219 L 180.898438 53.398438 L 188.101562 67.199219 L 202.800781 62.398438 L 198 77.101562 L 211.800781 84.300781 L 198 91.5 L 202.800781 106.199219 L 188.101562 101.398438 L 180.898438 115.199219 L 173.699219 101.398438 L 159 106.199219 L 163.800781 91.5 L 150 84.300781 L 163.800781 77.101562 L 159 62.398438 Z M 173.699219 67.199219 "/>
<path style="fill:none;stroke-width:0.3;stroke-linecap:butt;stroke-linejoin:miter;stroke:rgb(0%,0%,0%);stroke-opacity:1;stroke-miterlimit:10;" d="M 66.39974 28.10026 C 66.39974 31.46875 63.669271 34.200521 60.299479 34.200521 C 56.93099 34.200521 54.200521 31.46875 54.200521 28.10026 C 54.200521 24.730469 56.93099 22 60.299479 22 C 63.669271 22 66.39974 24.730469 66.39974 28.10026 Z M 66.39974 28.10026 " transform="matrix(3,0,0,3,0,0)"/>
<path style="fill:none;stroke-width:0.6;stroke-linecap:butt;stroke-linejoin:miter;stroke:rgb(0%,0%,0%);stroke-opacity:1;stroke-miterlimit:10;" d="M 65.39974 28.10026 C 65.39974 30.916667 63.117188 33.200521 60.299479 33.200521 C 57.483073 33.200521 55.200521 30.916667 55.200521 28.10026 C 55.200521 25.283854 57.483073 23 60.299479 23 C 63.117188 23 65.39974 25.283854 65.39974 28.10026 Z M 65.39974 28.10026 " transform="matrix(3,0,0,3,0,0)"/>
<path style="fill:none;stroke-width:0.3;stroke-linecap:round;stroke-linejoin:round;stroke:rgb(0%,0%,0%);stroke-opacity:1;stroke-miterlimit:4;" d="M 56.89974 27.10026 C 56.89974 27.10026 57.60026 28 59.299479 27.200521 C 59.032552 26.809896 58.597656 26.56901 58.125 26.549479 C 57.652344 26.529948 57.199219 26.733073 56.89974 27.10026 Z M 56.89974 27.10026 " transform="matrix(3,0,0,3,0,0)"/>
<path style=" stroke:none;fill-rule:nonzero;fill:rgb(0%,0%,0%);fill-opacity:1;" d="M 175.5 81.300781 C 175.5 80.472656 174.828125 79.800781 174 79.800781 C 173.171875 79.800781 172.5 80.472656 172.5 81.300781 C 172.5 82.128906 173.171875 82.800781 174 82.800781 C 174.828125 82.800781 175.5 82.128906 175.5 81.300781 Z M 175.5 81.300781 "/>
<path style=" stroke:none;fill-rule:nonzero;fill:rgb(100%,100%,100%);fill-opacity:1;" d="M 174.601562 80.398438 C 174.601562 80.730469 174.332031 81 174 81 C 173.667969 81 173.398438 80.730469 173.398438 80.398438 C 173.398438 80.070312 173.667969 79.800781 174 79.800781 C 174.332031 79.800781 174.601562 80.070312 174.601562 80.398438 Z M 174.601562 80.398438 "/>
<path style="fill:none;stroke-width:0.3;stroke-linecap:round;stroke-linejoin:round;stroke:rgb(0%,0%,0%);stroke-opacity:1;stroke-miterlimit:4;" d="M 56.700521 26.5 C 57.460938 26.050781 58.434896 26.220052 59 26.89974 M 63.700521 27.200521 C 63.700521 27.200521 63 28.10026 61.200521 27.299479 C 61.460938 26.869792 61.920573 26.597656 62.423177 26.578125 C 62.925781 26.558594 63.40625 26.791667 63.700521 27.200521 Z M 63.700521 27.200521 " transform="matrix(3,0,0,3,0,0)"/>
<path style=" stroke:none;fill-rule:nonzero;fill:rgb(0%,0%,0%);fill-opacity:1;" d="M 189 81.300781 C 189 80.472656 188.328125 79.800781 187.5 79.800781 C 186.671875 79.800781 186 80.472656 186 81.300781 C 186 82.128906 186.671875 82.800781 187.5 82.800781 C 188.328125 82.800781 189 82.128906 189 81.300781 Z M 189 81.300781 "/>
<path style=" stroke:none;fill-rule:nonzero;fill:rgb(100%,100%,100%);fill-opacity:1;" d="M 188.398438 80.398438 C 188.398438 80.730469 188.132812 81 187.800781 81 C 187.46875 81 187.199219 80.730469 187.199219 80.398438 C 187.199219 80.070312 187.46875 79.800781 187.800781 79.800781 C 188.132812 79.800781 188.398438 80.070312 188.398438 80.398438 Z M 188.398438 80.398438 "/>
<path style="fill:none;stroke-width:0.3;stroke-linecap:round;stroke-linejoin:round;stroke:rgb(0%,0%,0%);stroke-opacity:1;stroke-miterlimit:4;" d="M 63.89974 26.5 C 63.109375 26.114583 62.158854 26.321615 61.60026 27 M 56.700521 25.39974 L 59.299479 25.39974 C 59.682292 25.545573 59.953125 25.893229 60 26.299479 C 60 26.700521 59.89974 27.60026 59.89974 27.60026 " transform="matrix(3,0,0,3,0,0)"/>
<path style="fill:none;stroke-width:0.3;stroke-linecap:round;stroke-linejoin:round;stroke:rgb(0%,0%,0%);stroke-opacity:1;stroke-miterlimit:4;" d="M 63.5 25.5 C 62.746094 25.325521 61.966146 25.291667 61.200521 25.39974 C 60.799479 25.60026 60.89974 25.799479 60.799479 26 L 60.799479 28.10026 M 59.299479 28.799479 C 59.528646 28.929688 59.731771 29.098958 59.89974 29.299479 C 60 29.5 60.39974 29.5 60.60026 29.39974 C 60.744792 29.14974 61.011719 28.997396 61.299479 29 C 61.5 28.89974 61.299479 28.5 61.299479 28.5 M 60.60026 30.200521 C 60.53776 30.309896 60.425781 30.384115 60.299479 30.39974 C 60.200521 30.39974 60.10026 30.200521 59.89974 30.200521 C 59.700521 30.200521 59.60026 30.39974 59.299479 30.39974 L 58.60026 30.60026 C 59.614583 30.876302 60.684896 30.876302 61.700521 30.60026 L 61.10026 30.299479 Z M 60.60026 30.200521 " transform="matrix(3,0,0,3,0,0)"/>
<path style="fill:none;stroke-width:0.3;stroke-linecap:round;stroke-linejoin:round;stroke:rgb(0%,0%,0%);stroke-opacity:1;stroke-miterlimit:4;" d="M 61.5 30.700521 C 61.5 30.700521 61 31.60026 60.299479 31.60026 C 59.917969 31.674479 59.539062 31.463542 59.39974 31.10026 L 58.89974 30.60026 " transform="matrix(3,0,0,3,0,0)"/>
<path style=" stroke:none;fill-rule:nonzero;fill:rgb(98.431373%,76.078431%,9.803922%);fill-opacity:1;" d="M 194.398438 58.800781 C 194.398438 60.621094 192.921875 62.101562 191.101562 62.101562 C 189.277344 62.101562 187.800781 60.621094 187.800781 58.800781 C 187.800781 56.976562 189.277344 55.5 191.101562 55.5 C 192.921875 55.5 194.398438 56.976562 194.398438 58.800781 Z M 194.398438 58.800781 "/>
<path style=" stroke:none;fill-rule:nonzero;fill:rgb(98.431373%,76.078431%,9.803922%);fill-opacity:1;" d="M 209.398438 74.101562 C 209.398438 75.921875 207.921875 77.398438 206.101562 77.398438 C 204.277344 77.398438 202.800781 75.921875 202.800781 74.101562 C 202.800781 72.277344 204.277344 70.800781 206.101562 70.800781 C 207.921875 70.800781 209.398438 72.277344 209.398438 74.101562 Z M 209.398438 74.101562 "/>
<path style=" stroke:none;fill-rule:nonzero;fill:rgb(98.431373%,76.078431%,9.803922%);fill-opacity:1;" d="M 209.398438 94.199219 C 209.398438 96.023438 207.921875 97.5 206.101562 97.5 C 204.277344 97.5 202.800781 96.023438 202.800781 94.199219 C 202.800781 92.378906 204.277344 90.898438 206.101562 90.898438 C 207.921875 90.898438 209.398438 92.378906 209.398438 94.199219 Z M 209.398438 94.199219 "/>
<path style=" stroke:none;fill-rule:nonzero;fill:rgb(98.431373%,76.078431%,9.803922%);fill-opacity:1;" d="M 194.398438 109.5 C 194.398438 111.324219 192.921875 112.800781 191.101562 112.800781 C 189.277344 112.800781 187.800781 111.324219 187.800781 109.5 C 187.800781 107.675781 189.277344 106.199219 191.101562 106.199219 C 192.921875 106.199219 194.398438 107.675781 194.398438 109.5 Z M 194.398438 109.5 "/>
<path style=" stroke:none;fill-rule:nonzero;fill:rgb(98.431373%,76.078431%,9.803922%);fill-opacity:1;" d="M 173.101562 109.5 C 173.101562 111.324219 171.621094 112.800781 169.800781 112.800781 C 167.976562 112.800781 166.5 111.324219 166.5 109.5 C 166.5 107.675781 167.976562 106.199219 169.800781 106.199219 C 171.621094 106.199219 173.101562 107.675781 173.101562 109.5 Z M 173.101562 109.5 "/>
<path style=" stroke:none;fill-rule:nonzero;fill:rgb(98.431373%,76.078431%,9.803922%);fill-opacity:1;" d="M 159 94.199219 C 159 96.023438 157.523438 97.5 155.699219 97.5 C 153.878906 97.5 152.398438 96.023438 152.398438 94.199219 C 152.398438 92.378906 153.878906 90.898438 155.699219 90.898438 C 157.523438 90.898438 159 92.378906 159 94.199219 Z M 159 94.199219 "/>
<path style=" stroke:none;fill-rule:nonzero;fill:rgb(98.431373%,76.078431%,9.803922%);fill-opacity:1;" d="M 159 73.800781 C 159 75.621094 157.523438 77.101562 155.699219 77.101562 C 153.878906 77.101562 152.398438 75.621094 152.398438 73.800781 C 152.398438 71.976562 153.878906 70.5 155.699219 70.5 C 157.523438 70.5 159 71.976562 159 73.800781 Z M 159 73.800781 "/>
<path style=" stroke:none;fill-rule:nonzero;fill:rgb(98.431373%,76.078431%,9.803922%);fill-opacity:1;" d="M 173.101562 58.800781 C 173.101562 60.621094 171.621094 62.101562 169.800781 62.101562 C 167.976562 62.101562 166.5 60.621094 166.5 58.800781 C 166.5 56.976562 167.976562 55.5 169.800781 55.5 C 171.621094 55.5 173.101562 56.976562 173.101562 58.800781 Z M 173.101562 58.800781 "/>
<path style=" stroke:none;fill-rule:nonzero;fill:rgb(0%,0%,0%);fill-opacity:1;" d="M 113.101562 84.300781 C 113.101562 102.527344 98.324219 117.300781 80.101562 117.300781 C 61.875 117.300781 47.101562 102.527344 47.101562 84.300781 C 47.101562 66.074219 61.875 51.300781 80.101562 51.300781 C 98.324219 51.300781 113.101562 66.074219 113.101562 84.300781 Z M 113.101562 84.300781 "/>
<path style="fill:none;stroke-width:0.6;stroke-linecap:butt;stroke-linejoin:miter;stroke:rgb(0%,0%,0%);stroke-opacity:1;stroke-miterlimit:10;" d="M 39 28.10026 C 39 34.893229 33.49349 40.39974 26.700521 40.39974 C 19.90625 40.39974 14.39974 34.893229 14.39974 28.10026 C 14.39974 21.307292 19.90625 15.799479 26.700521 15.799479 C 33.49349 15.799479 39 21.307292 39 28.10026 Z M 39 28.10026 " transform="matrix(3,0,0,3,0,0)"/>
<path style=" stroke:none;fill-rule:nonzero;fill:rgb(98.431373%,76.078431%,9.803922%);fill-opacity:1;" d="M 72.898438 67.199219 L 80.101562 53.398438 L 87.300781 67.199219 L 102 62.398438 L 97.199219 77.101562 L 111 84.300781 L 97.199219 91.5 L 102 106.199219 L 87.300781 101.398438 L 80.101562 115.199219 L 72.898438 101.398438 L 58.199219 106.199219 L 63 91.5 L 49.199219 84.300781 L 63 77.101562 L 58.199219 62.398438 Z M 72.898438 67.199219 "/>
<path style="fill:none;stroke-width:0.3;stroke-linecap:butt;stroke-linejoin:miter;stroke:rgb(0%,0%,0%);stroke-opacity:1;stroke-miterlimit:10;" d="M 32.799479 28.10026 C 32.799479 31.46875 30.06901 34.200521 26.700521 34.200521 C 23.330729 34.200521 20.60026 31.46875 20.60026 28.10026 C 20.60026 24.730469 23.330729 22 26.700521 22 C 30.06901 22 32.799479 24.730469 32.799479 28.10026 Z M 32.799479 28.10026 " transform="matrix(3,0,0,3,0,0)"/>
<path style="fill:none;stroke-width:0.6;stroke-linecap:butt;stroke-linejoin:miter;stroke:rgb(0%,0%,0%);stroke-opacity:1;stroke-miterlimit:10;" d="M 31.799479 28.10026 C 31.799479 30.916667 29.516927 33.200521 26.700521 33.200521 C 23.882812 33.200521 21.60026 30.916667 21.60026 28.10026 C 21.60026 25.283854 23.882812 23 26.700521 23 C 29.516927 23 31.799479 25.283854 31.799479 28.10026 Z M 31.799479 28.10026 " transform="matrix(3,0,0,3,0,0)"/>
<path style="fill:none;stroke-width:0.3;stroke-linecap:round;stroke-linejoin:round;stroke:rgb(0%,0%,0%);stroke-opacity:1;stroke-miterlimit:4;" d="M 23.299479 27.10026 C 23.299479 27.10026 24 28 25.700521 27.200521 C 25.432292 26.809896 24.997396 26.56901 24.52474 26.549479 C 24.052083 26.529948 23.598958 26.733073 23.299479 27.10026 Z M 23.299479 27.10026 " transform="matrix(3,0,0,3,0,0)"/>
<path style=" stroke:none;fill-rule:nonzero;fill:rgb(0%,0%,0%);fill-opacity:1;" d="M 75 81.300781 C 75 80.472656 74.328125 79.800781 73.5 79.800781 C 72.671875 79.800781 72 80.472656 72 81.300781 C 72 82.128906 72.671875 82.800781 73.5 82.800781 C 74.328125 82.800781 75 82.128906 75 81.300781 Z M 75 81.300781 "/>
<path style=" stroke:none;fill-rule:nonzero;fill:rgb(100%,100%,100%);fill-opacity:1;" d="M 73.800781 80.398438 C 73.800781 80.730469 73.53125 81 73.199219 81 C 72.867188 81 72.601562 80.730469 72.601562 80.398438 C 72.601562 80.070312 72.867188 79.800781 73.199219 79.800781 C 73.53125 79.800781 73.800781 80.070312 73.800781 80.398438 Z M 73.800781 80.398438 "/>
<path style="fill:none;stroke-width:0.3;stroke-linecap:round;stroke-linejoin:round;stroke:rgb(0%,0%,0%);stroke-opacity:1;stroke-miterlimit:4;" d="M 23.10026 26.5 C 23.860677 26.050781 24.835938 26.220052 25.39974 26.89974 M 30.10026 27.200521 C 30.10026 27.200521 29.39974 28.10026 27.700521 27.299479 C 27.934896 26.867188 28.380208 26.589844 28.871094 26.570312 C 29.363281 26.549479 29.829427 26.789062 30.10026 27.200521 Z M 30.10026 27.200521 " transform="matrix(3,0,0,3,0,0)"/>
<path style=" stroke:none;fill-rule:nonzero;fill:rgb(0%,0%,0%);fill-opacity:1;" d="M 88.199219 81.300781 C 88.199219 80.472656 87.527344 79.800781 86.699219 79.800781 C 85.871094 79.800781 85.199219 80.472656 85.199219 81.300781 C 85.199219 82.128906 85.871094 82.800781 86.699219 82.800781 C 87.527344 82.800781 88.199219 82.128906 88.199219 81.300781 Z M 88.199219 81.300781 "/>
<path style=" stroke:none;fill-rule:nonzero;fill:rgb(100%,100%,100%);fill-opacity:1;" d="M 87.601562 80.398438 C 87.601562 80.730469 87.332031 81 87 81 C 86.667969 81 86.398438 80.730469 86.398438 80.398438 C 86.398438 80.070312 86.667969 79.800781 87 79.800781 C 87.332031 79.800781 87.601562 80.070312 87.601562 80.398438 Z M 87.601562 80.398438 "/>
<path style="fill:none;stroke-width:0.3;stroke-linecap:round;stroke-linejoin:round;stroke:rgb(0%,0%,0%);stroke-opacity:1;stroke-miterlimit:4;" d="M 30.299479 26.5 C 29.510417 26.114583 28.558594 26.321615 28 27 M 23.10026 25.39974 L 25.799479 25.39974 C 26.143229 25.574219 26.371094 25.915365 26.39974 26.299479 L 26.39974 27.60026 " transform="matrix(3,0,0,3,0,0)"/>
<path style="fill:none;stroke-width:0.3;stroke-linecap:round;stroke-linejoin:round;stroke:rgb(0%,0%,0%);stroke-opacity:1;stroke-miterlimit:4;" d="M 29.89974 25.5 C 29.179688 25.329427 28.433594 25.295573 27.700521 25.39974 C 27.299479 25.60026 27.299479 25.799479 27.299479 26 C 27.21224 26.696615 27.178385 27.398438 27.200521 28.10026 M 25.700521 28.799479 C 25.928385 28.929688 26.13151 29.098958 26.299479 29.299479 C 26.39974 29.5 26.799479 29.5 27 29.39974 C 27.144531 29.14974 27.411458 28.997396 27.700521 29 C 28 28.89974 27.700521 28.5 27.700521 28.5 M 27.10026 30.200521 L 26.700521 30.39974 L 26.299479 30.200521 L 25.799479 30.39974 L 25 30.60026 C 26.014323 30.876302 27.084635 30.876302 28.10026 30.60026 L 27.5 30.299479 Z M 27.10026 30.200521 " transform="matrix(3,0,0,3,0,0)"/>
<path style="fill:none;stroke-width:0.3;stroke-linecap:round;stroke-linejoin:round;stroke:rgb(0%,0%,0%);stroke-opacity:1;stroke-miterlimit:4;" d="M 27.89974 30.700521 C 27.89974 30.700521 27.39974 31.60026 26.700521 31.60026 C 26.31901 31.674479 25.938802 31.463542 25.799479 31.10026 L 25.299479 30.60026 " transform="matrix(3,0,0,3,0,0)"/>
<path style=" stroke:none;fill-rule:nonzero;fill:rgb(98.431373%,76.078431%,9.803922%);fill-opacity:1;" d="M 93.601562 58.800781 C 93.601562 60.621094 92.121094 62.101562 90.300781 62.101562 C 88.476562 62.101562 87 60.621094 87 58.800781 C 87 56.976562 88.476562 55.5 90.300781 55.5 C 92.121094 55.5 93.601562 56.976562 93.601562 58.800781 Z M 93.601562 58.800781 "/>
<path style=" stroke:none;fill-rule:nonzero;fill:rgb(98.431373%,76.078431%,9.803922%);fill-opacity:1;" d="M 108.601562 74.101562 C 108.601562 75.921875 107.121094 77.398438 105.300781 77.398438 C 103.476562 77.398438 102 75.921875 102 74.101562 C 102 72.277344 103.476562 70.800781 105.300781 70.800781 C 107.121094 70.800781 108.601562 72.277344 108.601562 74.101562 Z M 108.601562 74.101562 "/>
<path style=" stroke:none;fill-rule:nonzero;fill:rgb(98.431373%,76.078431%,9.803922%);fill-opacity:1;" d="M 108.601562 94.199219 C 108.601562 96.023438 107.121094 97.5 105.300781 97.5 C 103.476562 97.5 102 96.023438 102 94.199219 C 102 92.378906 103.476562 90.898438 105.300781 90.898438 C 107.121094 90.898438 108.601562 92.378906 108.601562 94.199219 Z M 108.601562 94.199219 "/>
<path style=" stroke:none;fill-rule:nonzero;fill:rgb(98.431373%,76.078431%,9.803922%);fill-opacity:1;" d="M 93.601562 109.5 C 93.601562 111.324219 92.121094 112.800781 90.300781 112.800781 C 88.476562 112.800781 87 111.324219 87 109.5 C 87 107.675781 88.476562 106.199219 90.300781 106.199219 C 92.121094 106.199219 93.601562 107.675781 93.601562 109.5 Z M 93.601562 109.5 "/>
<path style=" stroke:none;fill-rule:nonzero;fill:rgb(98.431373%,76.078431%,9.803922%);fill-opacity:1;" d="M 72.601562 109.5 C 72.601562 111.324219 71.121094 112.800781 69.300781 112.800781 C 67.476562 112.800781 66 111.324219 66 109.5 C 66 107.675781 67.476562 106.199219 69.300781 106.199219 C 71.121094 106.199219 72.601562 107.675781 72.601562 109.5 Z M 72.601562 109.5 "/>
<path style=" stroke:none;fill-rule:nonzero;fill:rgb(98.431373%,76.078431%,9.803922%);fill-opacity:1;" d="M 58.199219 94.199219 C 58.199219 96.023438 56.722656 97.5 54.898438 97.5 C 53.078125 97.5 51.601562 96.023438 51.601562 94.199219 C 51.601562 92.378906 53.078125 90.898438 54.898438 90.898438 C 56.722656 90.898438 58.199219 92.378906 58.199219 94.199219 Z M 58.199219 94.199219 "/>
<path style=" stroke:none;fill-rule:nonzero;fill:rgb(98.431373%,76.078431%,9.803922%);fill-opacity:1;" d="M 58.199219 73.800781 C 58.199219 75.621094 56.722656 77.101562 54.898438 77.101562 C 53.078125 77.101562 51.601562 75.621094 51.601562 73.800781 C 51.601562 71.976562 53.078125 70.5 54.898438 70.5 C 56.722656 70.5 58.199219 71.976562 58.199219 73.800781 Z M 58.199219 73.800781 "/>
<path style=" stroke:none;fill-rule:nonzero;fill:rgb(98.431373%,76.078431%,9.803922%);fill-opacity:1;" d="M 72.601562 58.800781 C 72.601562 60.621094 71.121094 62.101562 69.300781 62.101562 C 67.476562 62.101562 66 60.621094 66 58.800781 C 66 56.976562 67.476562 55.5 69.300781 55.5 C 71.121094 55.5 72.601562 56.976562 72.601562 58.800781 Z M 72.601562 58.800781 "/>
<path style=" stroke:none;fill-rule:nonzero;fill:rgb(0%,0%,0%);fill-opacity:1;" d="M 213.898438 335.699219 C 213.898438 353.925781 199.125 368.699219 180.898438 368.699219 C 162.675781 368.699219 147.898438 353.925781 147.898438 335.699219 C 147.898438 317.472656 162.675781 302.699219 180.898438 302.699219 C 199.125 302.699219 213.898438 317.472656 213.898438 335.699219 Z M 213.898438 335.699219 "/>
<path style="fill:none;stroke-width:0.6;stroke-linecap:butt;stroke-linejoin:miter;stroke:rgb(0%,0%,0%);stroke-opacity:1;stroke-miterlimit:10;" d="M 72.60026 111.89974 C 72.60026 118.692708 67.09375 124.200521 60.299479 124.200521 C 53.50651 124.200521 48 118.692708 48 111.89974 C 48 105.106771 53.50651 99.60026 60.299479 99.60026 C 67.09375 99.60026 72.60026 105.106771 72.60026 111.89974 Z M 72.60026 111.89974 " transform="matrix(3,0,0,3,0,0)"/>
<path style=" stroke:none;fill-rule:nonzero;fill:rgb(98.431373%,76.078431%,9.803922%);fill-opacity:1;" d="M 173.699219 318.601562 L 180.898438 304.800781 L 188.101562 318.601562 L 202.800781 313.800781 L 198 328.5 L 211.800781 335.699219 L 198 342.898438 L 202.800781 357.601562 L 188.101562 352.800781 L 180.898438 366.601562 L 173.699219 352.800781 L 159 357.601562 L 163.800781 342.898438 L 150 335.699219 L 163.800781 328.5 L 159 313.800781 Z M 173.699219 318.601562 "/>
<path style="fill:none;stroke-width:0.3;stroke-linecap:butt;stroke-linejoin:miter;stroke:rgb(0%,0%,0%);stroke-opacity:1;stroke-miterlimit:10;" d="M 66.39974 111.89974 C 66.39974 115.269531 63.669271 118 60.299479 118 C 56.93099 118 54.200521 115.269531 54.200521 111.89974 C 54.200521 108.53125 56.93099 105.799479 60.299479 105.799479 C 63.669271 105.799479 66.39974 108.53125 66.39974 111.89974 Z M 66.39974 111.89974 " transform="matrix(3,0,0,3,0,0)"/>
<path style="fill:none;stroke-width:0.6;stroke-linecap:butt;stroke-linejoin:miter;stroke:rgb(0%,0%,0%);stroke-opacity:1;stroke-miterlimit:10;" d="M 65.39974 111.89974 C 65.39974 114.716146 63.117188 117 60.299479 117 C 57.483073 117 55.200521 114.716146 55.200521 111.89974 C 55.200521 109.083333 57.483073 106.799479 60.299479 106.799479 C 63.117188 106.799479 65.39974 109.083333 65.39974 111.89974 Z M 65.39974 111.89974 " transform="matrix(3,0,0,3,0,0)"/>
<path style="fill:none;stroke-width:0.3;stroke-linecap:round;stroke-linejoin:round;stroke:rgb(0%,0%,0%);stroke-opacity:1;stroke-miterlimit:4;" d="M 56.89974 110.89974 C 56.89974 110.89974 57.60026 111.89974 59.299479 111.10026 C 59.084635 110.654948 58.64974 110.358073 58.157552 110.316406 C 57.664062 110.276042 57.186198 110.497396 56.89974 110.89974 Z M 56.89974 110.89974 " transform="matrix(3,0,0,3,0,0)"/>
<path style=" stroke:none;fill-rule:nonzero;fill:rgb(0%,0%,0%);fill-opacity:1;" d="M 175.5 332.699219 C 175.5 331.871094 174.828125 331.199219 174 331.199219 C 173.171875 331.199219 172.5 331.871094 172.5 332.699219 C 172.5 333.527344 173.171875 334.199219 174 334.199219 C 174.828125 334.199219 175.5 333.527344 175.5 332.699219 Z M 175.5 332.699219 "/>
<path style=" stroke:none;fill-rule:nonzero;fill:rgb(100%,100%,100%);fill-opacity:1;" d="M 174.601562 331.800781 C 174.601562 332.132812 174.332031 332.398438 174 332.398438 C 173.667969 332.398438 173.398438 332.132812 173.398438 331.800781 C 173.398438 331.46875 173.667969 331.199219 174 331.199219 C 174.332031 331.199219 174.601562 331.46875 174.601562 331.800781 Z M 174.601562 331.800781 "/>
<path style="fill:none;stroke-width:0.3;stroke-linecap:round;stroke-linejoin:round;stroke:rgb(0%,0%,0%);stroke-opacity:1;stroke-miterlimit:4;" d="M 56.700521 110.299479 C 57.460938 109.85026 58.434896 110.019531 59 110.700521 M 63.700521 111 C 63.700521 111 63 111.89974 61.200521 111.10026 C 61.488281 110.707031 61.938802 110.467448 62.425781 110.447917 C 62.91276 110.428385 63.38151 110.63151 63.700521 111 Z M 63.700521 111 " transform="matrix(3,0,0,3,0,0)"/>
<path style=" stroke:none;fill-rule:nonzero;fill:rgb(0%,0%,0%);fill-opacity:1;" d="M 189 333 C 189 332.171875 188.328125 331.5 187.5 331.5 C 186.671875 331.5 186 332.171875 186 333 C 186 333.828125 186.671875 334.5 187.5 334.5 C 188.328125 334.5 189 333.828125 189 333 Z M 189 333 "/>
<path style=" stroke:none;fill-rule:nonzero;fill:rgb(100%,100%,100%);fill-opacity:1;" d="M 188.398438 332.101562 C 188.398438 332.429688 188.132812 332.699219 187.800781 332.699219 C 187.46875 332.699219 187.199219 332.429688 187.199219 332.101562 C 187.199219 331.769531 187.46875 331.5 187.800781 331.5 C 188.132812 331.5 188.398438 331.769531 188.398438 332.101562 Z M 188.398438 332.101562 "/>
<path style="fill:none;stroke-width:0.3;stroke-linecap:round;stroke-linejoin:round;stroke:rgb(0%,0%,0%);stroke-opacity:1;stroke-miterlimit:4;" d="M 63.89974 110.39974 C 63.139323 109.950521 62.164062 110.119792 61.60026 110.799479 M 56.700521 109.200521 C 57.566406 109.14974 58.433594 109.14974 59.299479 109.200521 C 59.713542 109.361979 59.989583 109.75651 60 110.200521 C 60 110.5 59.89974 111.39974 59.89974 111.39974 " transform="matrix(3,0,0,3,0,0)"/>
<path style="fill:none;stroke-width:0.3;stroke-linecap:round;stroke-linejoin:round;stroke:rgb(0%,0%,0%);stroke-opacity:1;stroke-miterlimit:4;" d="M 63.5 109.299479 C 62.738281 109.184896 61.96224 109.184896 61.200521 109.299479 C 60.799479 109.39974 60.89974 109.60026 60.799479 109.799479 L 60.799479 112 M 59.299479 112.60026 C 59.528646 112.729167 59.731771 112.898438 59.89974 113.10026 C 60 113.299479 60.39974 113.299479 60.60026 113.200521 L 61.299479 112.799479 C 61.5 112.799479 61.299479 112.39974 61.299479 112.39974 M 60.60026 114.10026 C 60.53776 114.210938 60.425781 114.285156 60.299479 114.299479 C 60.200521 114.299479 60.10026 114 59.89974 114 L 59.299479 114.299479 L 58.60026 114.299479 C 60.799479 114.799479 61.700521 114.299479 61.700521 114.299479 L 61.10026 114.10026 C 60.89974 114.10026 60.799479 114 60.60026 114.10026 Z M 60.60026 114.10026 " transform="matrix(3,0,0,3,0,0)"/>
<path style="fill:none;stroke-width:0.3;stroke-linecap:round;stroke-linejoin:round;stroke:rgb(0%,0%,0%);stroke-opacity:1;stroke-miterlimit:4;" d="M 61.5 114.5 C 61.5 114.5 61 115.39974 60.299479 115.5 C 59.936198 115.492188 59.598958 115.30599 59.39974 115 C 59.264323 114.804688 59.095052 114.635417 58.89974 114.5 " transform="matrix(3,0,0,3,0,0)"/>
<path style=" stroke:none;fill-rule:nonzero;fill:rgb(98.431373%,76.078431%,9.803922%);fill-opacity:1;" d="M 194.398438 310.199219 C 194.398438 312.023438 192.921875 313.5 191.101562 313.5 C 189.277344 313.5 187.800781 312.023438 187.800781 310.199219 C 187.800781 308.378906 189.277344 306.898438 191.101562 306.898438 C 192.921875 306.898438 194.398438 308.378906 194.398438 310.199219 Z M 194.398438 310.199219 "/>
<path style=" stroke:none;fill-rule:nonzero;fill:rgb(98.431373%,76.078431%,9.803922%);fill-opacity:1;" d="M 209.398438 325.5 C 209.398438 327.324219 207.921875 328.800781 206.101562 328.800781 C 204.277344 328.800781 202.800781 327.324219 202.800781 325.5 C 202.800781 323.675781 204.277344 322.199219 206.101562 322.199219 C 207.921875 322.199219 209.398438 323.675781 209.398438 325.5 Z M 209.398438 325.5 "/>
<path style=" stroke:none;fill-rule:nonzero;fill:rgb(98.431373%,76.078431%,9.803922%);fill-opacity:1;" d="M 209.398438 345.898438 C 209.398438 347.722656 207.921875 349.199219 206.101562 349.199219 C 204.277344 349.199219 202.800781 347.722656 202.800781 345.898438 C 202.800781 344.078125 204.277344 342.601562 206.101562 342.601562 C 207.921875 342.601562 209.398438 344.078125 209.398438 345.898438 Z M 209.398438 345.898438 "/>
<path style=" stroke:none;fill-rule:nonzero;fill:rgb(98.431373%,76.078431%,9.803922%);fill-opacity:1;" d="M 194.398438 360.898438 C 194.398438 362.722656 192.921875 364.199219 191.101562 364.199219 C 189.277344 364.199219 187.800781 362.722656 187.800781 360.898438 C 187.800781 359.078125 189.277344 357.601562 191.101562 357.601562 C 192.921875 357.601562 194.398438 359.078125 194.398438 360.898438 Z M 194.398438 360.898438 "/>
<path style=" stroke:none;fill-rule:nonzero;fill:rgb(98.431373%,76.078431%,9.803922%);fill-opacity:1;" d="M 173.101562 360.898438 C 173.101562 362.722656 171.621094 364.199219 169.800781 364.199219 C 167.976562 364.199219 166.5 362.722656 166.5 360.898438 C 166.5 359.078125 167.976562 357.601562 169.800781 357.601562 C 171.621094 357.601562 173.101562 359.078125 173.101562 360.898438 Z M 173.101562 360.898438 "/>
<path style=" stroke:none;fill-rule:nonzero;fill:rgb(98.431373%,76.078431%,9.803922%);fill-opacity:1;" d="M 159 345.898438 C 159 347.722656 157.523438 349.199219 155.699219 349.199219 C 153.878906 349.199219 152.398438 347.722656 152.398438 345.898438 C 152.398438 344.078125 153.878906 342.601562 155.699219 342.601562 C 157.523438 342.601562 159 344.078125 159 345.898438 Z M 159 345.898438 "/>
<path style=" stroke:none;fill-rule:nonzero;fill:rgb(98.431373%,76.078431%,9.803922%);fill-opacity:1;" d="M 159 325.5 C 159 327.324219 157.523438 328.800781 155.699219 328.800781 C 153.878906 328.800781 152.398438 327.324219 152.398438 325.5 C 152.398438 323.675781 153.878906 322.199219 155.699219 322.199219 C 157.523438 322.199219 159 323.675781 159 325.5 Z M 159 325.5 "/>
<path style=" stroke:none;fill-rule:nonzero;fill:rgb(98.431373%,76.078431%,9.803922%);fill-opacity:1;" d="M 173.101562 310.199219 C 173.101562 312.023438 171.621094 313.5 169.800781 313.5 C 167.976562 313.5 166.5 312.023438 166.5 310.199219 C 166.5 308.378906 167.976562 306.898438 169.800781 306.898438 C 171.621094 306.898438 173.101562 308.378906 173.101562 310.199219 Z M 173.101562 310.199219 "/>
<path style=" stroke:none;fill-rule:nonzero;fill:rgb(0%,0%,0%);fill-opacity:1;" d="M 113.101562 335.699219 C 113.101562 353.925781 98.324219 368.699219 80.101562 368.699219 C 61.875 368.699219 47.101562 353.925781 47.101562 335.699219 C 47.101562 317.472656 61.875 302.699219 80.101562 302.699219 C 98.324219 302.699219 113.101562 317.472656 113.101562 335.699219 Z M 113.101562 335.699219 "/>
<path style="fill:none;stroke-width:0.6;stroke-linecap:butt;stroke-linejoin:miter;stroke:rgb(0%,0%,0%);stroke-opacity:1;stroke-miterlimit:10;" d="M 39 111.89974 C 39 118.692708 33.49349 124.200521 26.700521 124.200521 C 19.90625 124.200521 14.39974 118.692708 14.39974 111.89974 C 14.39974 105.106771 19.90625 99.60026 26.700521 99.60026 C 33.49349 99.60026 39 105.106771 39 111.89974 Z M 39 111.89974 " transform="matrix(3,0,0,3,0,0)"/>
<path style=" stroke:none;fill-rule:nonzero;fill:rgb(98.431373%,76.078431%,9.803922%);fill-opacity:1;" d="M 72.898438 318.601562 L 80.101562 304.800781 L 87.300781 318.601562 L 102 313.800781 L 97.199219 328.5 L 111 335.699219 L 97.199219 342.898438 L 102 357.601562 L 87.300781 352.800781 L 80.101562 366.601562 L 72.898438 352.800781 L 58.199219 357.601562 L 63 342.898438 L 49.199219 335.699219 L 63 328.5 L 58.199219 313.800781 Z M 72.898438 318.601562 "/>
<path style="fill:none;stroke-width:0.3;stroke-linecap:butt;stroke-linejoin:miter;stroke:rgb(0%,0%,0%);stroke-opacity:1;stroke-miterlimit:10;" d="M 32.799479 111.89974 C 32.799479 115.269531 30.06901 118 26.700521 118 C 23.330729 118 20.60026 115.269531 20.60026 111.89974 C 20.60026 108.53125 23.330729 105.799479 26.700521 105.799479 C 30.06901 105.799479 32.799479 108.53125 32.799479 111.89974 Z M 32.799479 111.89974 " transform="matrix(3,0,0,3,0,0)"/>
<path style="fill:none;stroke-width:0.6;stroke-linecap:butt;stroke-linejoin:miter;stroke:rgb(0%,0%,0%);stroke-opacity:1;stroke-miterlimit:10;" d="M 31.799479 111.89974 C 31.799479 114.716146 29.516927 117 26.700521 117 C 23.882812 117 21.60026 114.716146 21.60026 111.89974 C 21.60026 109.083333 23.882812 106.799479 26.700521 106.799479 C 29.516927 106.799479 31.799479 109.083333 31.799479 111.89974 Z M 31.799479 111.89974 " transform="matrix(3,0,0,3,0,0)"/>
<path style="fill:none;stroke-width:0.3;stroke-linecap:round;stroke-linejoin:round;stroke:rgb(0%,0%,0%);stroke-opacity:1;stroke-miterlimit:4;" d="M 23.299479 110.89974 C 23.299479 110.89974 24 111.89974 25.700521 111.10026 C 25.484375 110.654948 25.049479 110.358073 24.557292 110.316406 C 24.063802 110.276042 23.58724 110.497396 23.299479 110.89974 Z M 23.299479 110.89974 " transform="matrix(3,0,0,3,0,0)"/>
<path style=" stroke:none;fill-rule:nonzero;fill:rgb(0%,0%,0%);fill-opacity:1;" d="M 75 332.699219 C 75 331.871094 74.328125 331.199219 73.5 331.199219 C 72.671875 331.199219 72 331.871094 72 332.699219 C 72 333.527344 72.671875 334.199219 73.5 334.199219 C 74.328125 334.199219 75 333.527344 75 332.699219 Z M 75 332.699219 "/>
<path style=" stroke:none;fill-rule:nonzero;fill:rgb(100%,100%,100%);fill-opacity:1;" d="M 73.800781 331.800781 C 73.800781 332.132812 73.53125 332.398438 73.199219 332.398438 C 72.867188 332.398438 72.601562 332.132812 72.601562 331.800781 C 72.601562 331.46875 72.867188 331.199219 73.199219 331.199219 C 73.53125 331.199219 73.800781 331.46875 73.800781 331.800781 Z M 73.800781 331.800781 "/>
<path style="fill:none;stroke-width:0.3;stroke-linecap:round;stroke-linejoin:round;stroke:rgb(0%,0%,0%);stroke-opacity:1;stroke-miterlimit:4;" d="M 23.10026 110.299479 C 23.860677 109.85026 24.835938 110.019531 25.39974 110.700521 M 30.10026 111 C 30.10026 111 29.39974 111.89974 27.700521 111.10026 C 27.967448 110.709635 28.402344 110.46875 28.875 110.449219 C 29.347656 110.429688 29.800781 110.634115 30.10026 111 Z M 30.10026 111 " transform="matrix(3,0,0,3,0,0)"/>
<path style=" stroke:none;fill-rule:nonzero;fill:rgb(0%,0%,0%);fill-opacity:1;" d="M 88.199219 333 C 88.199219 332.171875 87.527344 331.5 86.699219 331.5 C 85.871094 331.5 85.199219 332.171875 85.199219 333 C 85.199219 333.828125 85.871094 334.5 86.699219 334.5 C 87.527344 334.5 88.199219 333.828125 88.199219 333 Z M 88.199219 333 "/>
<path style=" stroke:none;fill-rule:nonzero;fill:rgb(100%,100%,100%);fill-opacity:1;" d="M 87.601562 332.101562 C 87.601562 332.429688 87.332031 332.699219 87 332.699219 C 86.667969 332.699219 86.398438 332.429688 86.398438 332.101562 C 86.398438 331.769531 86.667969 331.5 87 331.5 C 87.332031 331.5 87.601562 331.769531 87.601562 332.101562 Z M 87.601562 332.101562 "/>
<path style="fill:none;stroke-width:0.3;stroke-linecap:round;stroke-linejoin:round;stroke:rgb(0%,0%,0%);stroke-opacity:1;stroke-miterlimit:4;" d="M 30.299479 110.39974 C 29.539062 109.950521 28.565104 110.119792 28 110.799479 M 23.10026 109.200521 C 23.998698 109.14974 24.901042 109.14974 25.799479 109.200521 C 26.158854 109.407552 26.386719 109.785156 26.39974 110.200521 L 26.39974 111.39974 " transform="matrix(3,0,0,3,0,0)"/>
<path style="fill:none;stroke-width:0.3;stroke-linecap:round;stroke-linejoin:round;stroke:rgb(0%,0%,0%);stroke-opacity:1;stroke-miterlimit:4;" d="M 29.89974 109.299479 C 29.170573 109.1875 28.428385 109.1875 27.700521 109.299479 C 27.299479 109.39974 27.299479 109.60026 27.299479 109.799479 C 27.21224 110.529948 27.178385 111.265625 27.200521 112 M 25.700521 112.60026 C 25.928385 112.729167 26.13151 112.898438 26.299479 113.10026 C 26.39974 113.299479 26.799479 113.299479 27 113.200521 L 27.700521 112.799479 C 28 112.799479 27.700521 112.39974 27.700521 112.39974 M 27.10026 114.10026 L 26.700521 114.299479 C 26.60026 114.299479 26.5 114 26.299479 114 L 25.799479 114.299479 L 25 114.299479 C 27.200521 114.799479 28.10026 114.299479 28.10026 114.299479 L 27.5 114.10026 C 27.299479 114.10026 27.200521 114 27.10026 114.10026 Z M 27.10026 114.10026 " transform="matrix(3,0,0,3,0,0)"/>
<path style="fill:none;stroke-width:0.3;stroke-linecap:round;stroke-linejoin:round;stroke:rgb(0%,0%,0%);stroke-opacity:1;stroke-miterlimit:4;" d="M 27.89974 114.5 C 27.89974 114.5 27.39974 115.39974 26.700521 115.5 C 26.335938 115.492188 25.998698 115.30599 25.799479 115 L 25.299479 114.5 " transform="matrix(3,0,0,3,0,0)"/>
<path style=" stroke:none;fill-rule:nonzero;fill:rgb(98.431373%,76.078431%,9.803922%);fill-opacity:1;" d="M 93.601562 310.199219 C 93.601562 312.023438 92.121094 313.5 90.300781 313.5 C 88.476562 313.5 87 312.023438 87 310.199219 C 87 308.378906 88.476562 306.898438 90.300781 306.898438 C 92.121094 306.898438 93.601562 308.378906 93.601562 310.199219 Z M 93.601562 310.199219 "/>
<path style=" stroke:none;fill-rule:nonzero;fill:rgb(98.431373%,76.078431%,9.803922%);fill-opacity:1;" d="M 108.601562 325.5 C 108.601562 327.324219 107.121094 328.800781 105.300781 328.800781 C 103.476562 328.800781 102 327.324219 102 325.5 C 102 323.675781 103.476562 322.199219 105.300781 322.199219 C 107.121094 322.199219 108.601562 323.675781 108.601562 325.5 Z M 108.601562 325.5 "/>
<path style=" stroke:none;fill-rule:nonzero;fill:rgb(98.431373%,76.078431%,9.803922%);fill-opacity:1;" d="M 108.601562 345.898438 C 108.601562 347.722656 107.121094 349.199219 105.300781 349.199219 C 103.476562 349.199219 102 347.722656 102 345.898438 C 102 344.078125 103.476562 342.601562 105.300781 342.601562 C 107.121094 342.601562 108.601562 344.078125 108.601562 345.898438 Z M 108.601562 345.898438 "/>
<path style=" stroke:none;fill-rule:nonzero;fill:rgb(98.431373%,76.078431%,9.803922%);fill-opacity:1;" d="M 93.601562 360.898438 C 93.601562 362.722656 92.121094 364.199219 90.300781 364.199219 C 88.476562 364.199219 87 362.722656 87 360.898438 C 87 359.078125 88.476562 357.601562 90.300781 357.601562 C 92.121094 357.601562 93.601562 359.078125 93.601562 360.898438 Z M 93.601562 360.898438 "/>
<path style=" stroke:none;fill-rule:nonzero;fill:rgb(98.431373%,76.078431%,9.803922%);fill-opacity:1;" d="M 72.601562 360.898438 C 72.601562 362.722656 71.121094 364.199219 69.300781 364.199219 C 67.476562 364.199219 66 362.722656 66 360.898438 C 66 359.078125 67.476562 357.601562 69.300781 357.601562 C 71.121094 357.601562 72.601562 359.078125 72.601562 360.898438 Z M 72.601562 360.898438 "/>
<path style=" stroke:none;fill-rule:nonzero;fill:rgb(98.431373%,76.078431%,9.803922%);fill-opacity:1;" d="M 58.199219 345.898438 C 58.199219 347.722656 56.722656 349.199219 54.898438 349.199219 C 53.078125 349.199219 51.601562 347.722656 51.601562 345.898438 C 51.601562 344.078125 53.078125 342.601562 54.898438 342.601562 C 56.722656 342.601562 58.199219 344.078125 58.199219 345.898438 Z M 58.199219 345.898438 "/>
<path style=" stroke:none;fill-rule:nonzero;fill:rgb(98.431373%,76.078431%,9.803922%);fill-opacity:1;" d="M 58.199219 325.5 C 58.199219 327.324219 56.722656 328.800781 54.898438 328.800781 C 53.078125 328.800781 51.601562 327.324219 51.601562 325.5 C 51.601562 323.675781 53.078125 322.199219 54.898438 322.199219 C 56.722656 322.199219 58.199219 323.675781 58.199219 325.5 Z M 58.199219 325.5 "/>
<path style=" stroke:none;fill-rule:nonzero;fill:rgb(98.431373%,76.078431%,9.803922%);fill-opacity:1;" d="M 72.601562 310.199219 C 72.601562 312.023438 71.121094 313.5 69.300781 313.5 C 67.476562 313.5 66 312.023438 66 310.199219 C 66 308.378906 67.476562 306.898438 69.300781 306.898438 C 71.121094 306.898438 72.601562 308.378906 72.601562 310.199219 Z M 72.601562 310.199219 "/>
<path style="fill-rule:nonzero;fill:rgb(0%,0%,0%);fill-opacity:1;stroke-width:0.1;stroke-linecap:butt;stroke-linejoin:miter;stroke:rgb(0%,0%,0%);stroke-opacity:1;stroke-miterlimit:10;" d="M 36.60026 73.89974 C 36.789062 74.16276 36.893229 74.476562 36.89974 74.799479 C 36.89974 74.855469 36.855469 74.89974 36.799479 74.89974 L 36.700521 74.89974 C 36.60026 74.89974 36.60026 74.89974 36.60026 74.799479 C 36.579427 74.55599 36.511719 74.317708 36.39974 74.10026 C 35.977865 73.705729 35.322917 73.705729 34.89974 74.10026 C 34.535156 74.481771 34.492188 75.070312 34.799479 75.5 L 35.39974 75.89974 L 35.799479 75.5 L 35.5 75.200521 L 35.700521 75.200521 L 36.10026 75.60026 L 35.5 76.200521 L 35.39974 76.200521 C 35.095052 76.102865 34.820312 75.93099 34.60026 75.700521 C 34.191406 75.154948 34.233073 74.395833 34.700521 73.89974 C 35.236979 73.404948 36.063802 73.404948 36.60026 73.89974 Z M 38.39974 75.299479 C 38.709635 75.46875 38.9375 75.755208 39.03125 76.09375 C 39.125 76.433594 39.078125 76.796875 38.89974 77.10026 C 38.552083 77.6875 37.809896 77.904948 37.200521 77.60026 C 36.880208 77.471354 36.630208 77.210938 36.515625 76.885417 C 36.401042 76.559896 36.43099 76.200521 36.60026 75.89974 C 36.951823 75.261719 37.735677 75.001302 38.39974 75.299479 Z M 37.299479 77.39974 C 37.536458 77.541667 37.821615 77.578125 38.085938 77.502604 C 38.351562 77.427083 38.572917 77.244792 38.700521 77 C 39.002604 76.47526 38.824219 75.804688 38.299479 75.5 C 37.77474 75.278646 37.166667 75.496094 36.89974 76 C 36.759115 76.236979 36.721354 76.520833 36.798177 76.786458 C 36.873698 77.050781 37.054688 77.273438 37.299479 77.39974 Z M 39.89974 76.10026 L 40.10026 76.10026 L 39.60026 78.299479 L 40.60026 78.5 L 40.5 78.5 L 39.299479 78.200521 Z M 43.299479 76.5 C 43.626302 76.492188 43.94401 76.597656 44.200521 76.799479 L 44 76.799479 C 43.796875 76.641927 43.554688 76.53776 43.299479 76.5 C 42.747396 76.5 42.299479 76.947917 42.299479 77.5 C 42.272135 77.765625 42.351562 78.03125 42.520833 78.238281 C 42.690104 78.44401 42.934896 78.574219 43.200521 78.60026 L 43.89974 78.39974 L 44 78.39974 L 44 78.60026 C 43.779948 78.867188 43.446615 79.015625 43.10026 79 C 42.460938 78.901042 41.992188 78.346354 42 77.700521 C 41.998698 77.363281 42.139323 77.041667 42.385417 76.813802 C 42.632812 76.585938 42.964844 76.471354 43.299479 76.5 Z M 44.5 79 L 45.299479 76.39974 L 45.5 76.39974 L 46.799479 78.700521 C 46.89974 78.700521 46.799479 78.799479 46.799479 78.799479 L 46.60026 78.799479 L 46.299479 78.200521 L 45 78.39974 L 44.799479 79 Z M 46.10026 78 L 45.5 76.89974 L 45.10026 78.10026 Z M 46.799479 76.299479 L 47.700521 76 C 48.113281 75.867188 48.557292 76.089844 48.700521 76.5 C 48.807292 76.833333 48.686198 77.197917 48.39974 77.39974 L 49.200521 78.10026 L 48.89974 78.10026 L 48.200521 77.299479 L 47.5 77.5 L 47.799479 78.39974 L 47.5 78.39974 Z M 48.10026 77.200521 C 48.239583 77.15625 48.354167 77.054688 48.411458 76.919271 C 48.470052 76.785156 48.464844 76.63151 48.39974 76.5 C 48.39974 76.200521 48.10026 76.10026 47.799479 76.200521 L 47.10026 76.39974 L 47.39974 77.39974 Z M 48.799479 75.60026 L 48.89974 75.60026 L 49.5 75.200521 C 50.080729 74.791667 50.882812 74.924479 51.299479 75.5 C 51.481771 75.776042 51.542969 76.114583 51.467448 76.436198 C 51.390625 76.757812 51.186198 77.033854 50.89974 77.200521 L 50.299479 77.700521 L 50.200521 77.700521 Z M 50.799479 77 C 51.269531 76.669271 51.38151 76.019531 51.049479 75.549479 C 50.71875 75.080729 50.06901 74.96875 49.60026 75.299479 L 49.200521 75.60026 L 50.299479 77.299479 Z M 52.299479 75.5 C 52.53776 75.509115 52.764323 75.395833 52.89974 75.200521 C 53.10026 75 53.10026 74.700521 52.89974 74.60026 C 52.700521 74.5 52.5 74.5 52.10026 74.700521 C 51.700521 74.89974 51.39974 75 51.10026 74.799479 C 50.966146 74.667969 50.889323 74.488281 50.889323 74.299479 C 50.889323 74.111979 50.966146 73.932292 51.10026 73.799479 C 51.223958 73.619792 51.397135 73.480469 51.60026 73.39974 L 51.700521 73.39974 L 51.700521 73.60026 L 51.200521 73.799479 C 51.033854 74.020833 51.079427 74.334635 51.299479 74.5 C 51.39974 74.60026 51.700521 74.60026 52 74.39974 C 52.299479 74.200521 52.700521 74 53.10026 74.299479 C 53.5 74.60026 53.39974 74.89974 53.10026 75.299479 C 52.915365 75.503906 52.669271 75.644531 52.39974 75.700521 Z M 52.299479 75.5 " transform="matrix(3,0,0,3,0,0)"/>
<path style="fill-rule:nonzero;fill:rgb(98.431373%,76.078431%,9.803922%);fill-opacity:1;stroke-width:0.4;stroke-linecap:round;stroke-linejoin:round;stroke:rgb(0%,0%,0%);stroke-opacity:1;stroke-miterlimit:4;" d="M 45.299479 70.39974 L 43.5 69.5 L 41.799479 70.39974 L 42.10026 68.39974 L 40.60026 67 L 42.60026 66.700521 L 43.5 65 L 44.39974 66.700521 L 46.39974 67 L 44.89974 68.39974 Z M 45.299479 70.39974 " transform="matrix(3,0,0,3,0,0)"/>
<path style=" stroke:none;fill-rule:nonzero;fill:rgb(98.431373%,76.078431%,9.803922%);fill-opacity:1;" d="M 116.101562 183 L 144.898438 183 L 144.898438 187.5 L 116.101562 187.5 Z M 116.101562 183 "/>
<path style="fill:none;stroke-width:0.4;stroke-linecap:butt;stroke-linejoin:miter;stroke:rgb(0%,0%,0%);stroke-opacity:1;stroke-miterlimit:10;" d="M 37.10026 69.700521 L 35.39974 69.700521 C 35.289062 69.700521 35.200521 69.610677 35.200521 69.5 L 35.799479 68.5 L 35.200521 67.60026 C 35.200521 67.39974 35.299479 67.299479 35.39974 67.299479 L 37.10026 67.299479 C 37.200521 67.299479 37.299479 67.39974 37.299479 67.60026 L 37.299479 69.5 C 37.299479 69.610677 37.210938 69.700521 37.10026 69.700521 Z M 37.10026 69.700521 " transform="matrix(3,0,0,3,0,0)"/>
<path style="fill-rule:nonzero;fill:rgb(100%,100%,100%);fill-opacity:1;stroke-width:0.4;stroke-linecap:butt;stroke-linejoin:miter;stroke:rgb(0%,0%,0%);stroke-opacity:1;stroke-miterlimit:10;" d="M 38.700521 68.799479 L 37.10026 68.799479 C 36.989583 68.799479 36.89974 68.710938 36.89974 68.60026 L 36.89974 66.60026 L 37.10026 66.39974 L 38.700521 66.39974 " transform="matrix(3,0,0,3,0,0)"/>
<path style="fill:none;stroke-width:0.4;stroke-linecap:butt;stroke-linejoin:miter;stroke:rgb(0%,0%,0%);stroke-opacity:1;stroke-miterlimit:10;" d="M 49.89974 69.700521 L 51.60026 69.700521 C 51.710938 69.700521 51.799479 69.610677 51.799479 69.5 L 51.200521 68.5 L 51.799479 67.60026 C 51.799479 67.39974 51.700521 67.299479 51.60026 67.299479 L 49.89974 67.299479 C 49.799479 67.299479 49.700521 67.39974 49.700521 67.60026 L 49.700521 69.5 C 49.700521 69.610677 49.789062 69.700521 49.89974 69.700521 Z M 49.89974 69.700521 " transform="matrix(3,0,0,3,0,0)"/>
<path style="fill-rule:nonzero;fill:rgb(100%,100%,100%);fill-opacity:1;stroke-width:0.4;stroke-linecap:butt;stroke-linejoin:miter;stroke:rgb(0%,0%,0%);stroke-opacity:1;stroke-miterlimit:10;" d="M 48.299479 68.799479 L 49.89974 68.799479 C 50.010417 68.799479 50.10026 68.710938 50.10026 68.60026 L 50.10026 66.60026 L 49.89974 66.39974 L 48.299479 66.39974 " transform="matrix(3,0,0,3,0,0)"/>
<path style="fill:none;stroke-width:0.4;stroke-linecap:butt;stroke-linejoin:miter;stroke:rgb(0%,0%,0%);stroke-opacity:1;stroke-miterlimit:10;" d="M 48.299479 64.700521 L 48.299479 61.39974 C 48.299479 61.179688 48.121094 61 47.89974 61 L 39.10026 61 C 38.878906 61 38.700521 61.179688 38.700521 61.39974 L 38.700521 69.39974 C 38.671875 70.68099 39.169271 71.917969 40.075521 72.824219 C 40.981771 73.730469 42.21875 74.227865 43.5 74.200521 C 44.790365 74.226562 46.036458 73.733073 46.958333 72.829427 C 47.88151 71.927083 48.39974 70.690104 48.39974 69.39974 Z M 38.799479 62.5 L 48.299479 62.5 " transform="matrix(3,0,0,3,0,0)"/>
</g>
</svg>
