<?xml version="1.0" encoding="UTF-8"?>
<svg xmlns="http://www.w3.org/2000/svg" xmlns:xlink="http://www.w3.org/1999/xlink" width="261px" height="420px" viewBox="0 0 261 426" version="1.1">
<g id="surface1">
<path style=" stroke:none;fill-rule:nonzero;fill:rgb(100%,100%,100%);fill-opacity:1;" d="M 20.078125 0 L 240.921875 0 C 252.011719 0 261 8.058594 261 18 L 261 402 C 261 411.941406 252.011719 420 240.921875 420 L 20.078125 420 C 8.988281 420 0 411.941406 0 402 L 0 18 C 0 8.058594 8.988281 0 20.078125 0 Z M 20.078125 0 "/>
<path style=" stroke:none;fill-rule:nonzero;fill:rgb(19.607843%,34.117647%,13.72549%);fill-opacity:1;" d="M 116.445312 134.398438 L 116.445312 141.300781 C 111.425781 156.898438 94.695312 162 86.332031 162.898438 C 82.984375 163.5 84.992188 170.398438 91.683594 172.800781 L 91.683594 178.5 L 165.96875 178.5 L 165.96875 173.398438 C 175.339844 172.5 178.683594 163.5 174.667969 162.898438 C 170.652344 162.300781 149.574219 156.898438 144.554688 141.300781 L 144.554688 134.398438 L 136.1875 134.398438 L 136.1875 141.300781 C 138.195312 147 136.523438 149.699219 134.851562 138.300781 L 126.148438 138.300781 C 124.476562 149.699219 122.804688 147 124.8125 141.300781 L 124.8125 134.398438 Z M 116.445312 134.398438 "/>
<path style="fill:none;stroke-width:0.4;stroke-linecap:round;stroke-linejoin:round;stroke:rgb(0%,0%,0%);stroke-opacity:1;stroke-miterlimit:4;" d="M 31.100305 57.39974 C 32.75449 57.653646 34.426185 57.786458 36.100216 57.799479 M 32.5 56.39974 L 34.900144 56.60026 M 47.00009 57.39974 C 45.344738 57.653646 43.67421 57.786458 42.00018 57.799479 M 45.300377 56.39974 C 44.577766 56.561198 43.838811 56.627604 43.099856 56.60026 M 33.599677 55.200521 L 34.700521 55.200521 M 44.400323 55.299479 L 43.299479 55.299479 " transform="matrix(3.346154,0,0,3,0,0)"/>
<path style="fill-rule:nonzero;fill:rgb(23.529412%,42.745098%,23.921569%);fill-opacity:1;stroke-width:0.4;stroke-linecap:round;stroke-linejoin:round;stroke:rgb(0%,0%,0%);stroke-opacity:1;stroke-miterlimit:4;" d="M 34.799749 44.799479 L 34.799749 47.10026 C 33.299659 52.299479 28.299749 54 25.800377 54.299479 C 23.299838 54.60026 26 58.799479 30.299479 57.60026 C 34.600126 56.39974 36.400233 49.89974 37.300287 47.10026 L 37.300287 44.799479 Z M 40.699713 44.799479 L 40.699713 47.10026 C 41.599767 49.89974 43.399874 56.39974 47.700521 57.60026 C 52 58.799479 53.600485 54.5 52.199623 54.299479 C 50.799928 54.10026 44.700341 52.299479 43.200251 47.10026 L 43.200251 44.799479 Z M 40.699713 44.799479 " transform="matrix(3.346154,0,0,3,0,0)"/>
<path style="fill-rule:nonzero;fill:rgb(19.607843%,34.117647%,13.72549%);fill-opacity:1;stroke-width:0.4;stroke-linecap:round;stroke-linejoin:round;stroke:rgb(0%,0%,0%);stroke-opacity:1;stroke-miterlimit:4;" d="M 34.799749 44.799479 L 34.799749 47.10026 C 33.299659 52.299479 28.299749 54 25.800377 54.299479 C 23.299838 54.60026 26 58.799479 30.299479 57.60026 C 34.600126 56.39974 36.400233 49.89974 37.300287 47.10026 L 37.300287 44.799479 Z M 40.699713 44.799479 L 40.699713 47.10026 C 41.599767 49.89974 43.399874 56.39974 47.700521 57.60026 C 52 58.799479 53.600485 54.5 52.199623 54.299479 C 50.799928 54.10026 44.700341 52.299479 43.200251 47.10026 L 43.200251 44.799479 Z M 40.699713 44.799479 " transform="matrix(3.346154,0,0,3,0,0)"/>
<path style="fill-rule:nonzero;fill:rgb(19.607843%,34.117647%,13.72549%);fill-opacity:1;stroke-width:0.4;stroke-linecap:round;stroke-linejoin:round;stroke:rgb(0%,0%,0%);stroke-opacity:1;stroke-miterlimit:4;" d="M 37.600305 45 C 36.899874 49.799479 34.00009 52.60026 34.499731 56.200521 C 34.700521 57.5 36.400233 58.39974 39 58.39974 C 41.599767 58.39974 43.299479 57.5 43.500269 56.200521 C 43.99991 52.60026 41.100126 49.799479 40.399695 45 Z M 37.600305 45 " transform="matrix(3.346154,0,0,3,0,0)"/>
<path style="fill-rule:nonzero;fill:rgb(5.098039%,22.745098%,7.058824%);fill-opacity:1;stroke-width:0.4;stroke-linecap:round;stroke-linejoin:round;stroke:rgb(0%,0%,0%);stroke-opacity:1;stroke-miterlimit:4;" d="M 38.299569 46.700521 C 37.999551 50.200521 36.599856 52.299479 36.799479 54.89974 C 36.899874 55.89974 37.799928 56.5 39 56.5 C 40.200072 56.5 41.100126 55.89974 41.200521 54.89974 C 41.500539 52.299479 40.099677 50.200521 39.700431 46.700521 Z M 38.299569 46.700521 " transform="matrix(3.346154,0,0,3,0,0)"/>
<path style="fill-rule:nonzero;fill:rgb(99.607843%,74.901961%,6.27451%);fill-opacity:1;stroke-width:0.4;stroke-linecap:round;stroke-linejoin:round;stroke:rgb(0%,0%,0%);stroke-opacity:1;stroke-miterlimit:4;" d="M 38.599587 41.60026 C 37.149695 41.492188 35.818876 42.40625 35.399784 43.799479 C 35.099767 44.799479 35.699802 46 36.700251 45.89974 C 37.699533 45.799479 37.300287 45.799479 37.399515 46.200521 C 37.49991 46.60026 40.300467 47.10026 40.800108 45.799479 C 41.800557 46.299479 42.900233 45.200521 42.699443 44.10026 C 42.405262 42.748698 41.275233 41.740885 39.900054 41.60026 Z M 35.600575 42 C 33.899695 42 31.899964 42.700521 31.199533 44.39974 C 30.500269 46.10026 30.800287 46.200521 31.700341 46.299479 C 32.600395 46.39974 32.699623 45.39974 33.200431 45.89974 C 33.700072 46.39974 34.900144 46.5 35.000539 45.60026 C 34.860453 44.421875 35.265535 43.24349 36.100216 42.39974 C 36.299838 42.10026 35.899425 41.89974 35.600575 42 Z M 41.899784 42.10026 C 41.800557 42.60026 42.399425 42.89974 42.600216 43.39974 C 42.799838 43.89974 42.699443 45.200521 43.099856 46 C 43.500269 46.799479 44.400323 46.200521 44.899964 45.799479 C 45.399605 45.39974 45.800018 46.5 46.400054 46.299479 C 47.00009 46.10026 47.100485 44.89974 46.800467 44.299479 C 45.822198 42.630208 43.903017 41.75 42.00018 42.10026 Z M 41.899784 42.10026 " transform="matrix(3.346154,0,0,3,0,0)"/>
<path style=" stroke:none;fill-rule:nonzero;fill:rgb(19.607843%,34.117647%,13.72549%);fill-opacity:1;" d="M 87.335938 75.300781 C 77.296875 76.800781 65.585938 84.300781 65.585938 95.398438 C 65.585938 106.5 73.28125 117 87 122.699219 C 100.71875 128.398438 115.777344 129.601562 130.835938 129.601562 C 145.890625 129.601562 161.621094 128.101562 174.335938 122.699219 C 187.050781 117.300781 195.75 108.898438 195.75 95.398438 C 195.75 81.898438 184.375 76.800781 174 75.300781 Z M 87.335938 75.300781 "/>
<path style=" stroke:none;fill-rule:nonzero;fill:rgb(5.098039%,22.745098%,7.058824%);fill-opacity:1;" d="M 104.066406 75.898438 C 104.066406 75.898438 88.339844 115.5 137.863281 129.898438 C 137.863281 130.199219 91.351562 131.101562 76.625 116.699219 C 61.902344 102.300781 64.582031 90.601562 71.941406 83.101562 C 79.304688 75.601562 93.359375 74.101562 104.066406 75.898438 Z M 104.066406 75.898438 "/>
<path style="fill:none;stroke-width:0.4;stroke-linecap:round;stroke-linejoin:round;stroke:rgb(0%,0%,0%);stroke-opacity:1;stroke-miterlimit:4;" d="M 26.100395 25.10026 C 23.100216 25.60026 19.600395 28.10026 19.600395 31.799479 C 19.600395 35.5 22.600575 39.200521 26.700431 41.10026 C 30.800287 43 34.600126 43.200521 39.100395 43.200521 C 43.433728 43.308594 47.73671 42.455729 51.699982 40.700521 C 55.799838 38.799479 58.5 36.299479 58.5 31.799479 C 58.5 27.299479 55.100575 25.60026 52 25.10026 Z M 26.100395 25.10026 " transform="matrix(3.346154,0,0,3,0,0)"/>
<path style="fill-rule:nonzero;fill:rgb(81.568627%,60.784314%,2.745098%);fill-opacity:1;stroke-width:0.4;stroke-linecap:round;stroke-linejoin:round;stroke:rgb(0%,0%,0%);stroke-opacity:1;stroke-miterlimit:4;" d="M 20.899695 18.60026 L 57.100305 18.299479 L 54.599767 25.89974 L 39.100395 28.10026 L 23.499461 25.799479 Z M 20.899695 18.60026 " transform="matrix(3.346154,0,0,3,0,0)"/>
<path style="fill-rule:nonzero;fill:rgb(99.607843%,74.901961%,6.27451%);fill-opacity:1;stroke-width:0.3;stroke-linecap:round;stroke-linejoin:round;stroke:rgb(0%,0%,0%);stroke-opacity:1;stroke-miterlimit:4;" d="M 26.799659 24.200521 C 25.917116 24.585938 24.928341 24.65625 24.000269 24.39974 C 23.194774 23.886719 22.59357 23.109375 22.300557 22.200521 C 23.1831 21.813802 24.171875 21.74349 25.099946 22 C 25.905442 22.513021 26.506645 23.291667 26.799659 24.200521 Z M 26.799659 24.200521 " transform="matrix(3.346154,0,0,3,0,0)"/>
<path style="fill:none;stroke-width:0.3;stroke-linecap:round;stroke-linejoin:round;stroke:rgb(0%,0%,0%);stroke-opacity:1;stroke-miterlimit:4;" d="M 26.799659 24.200521 L 24.300287 23.10026 " transform="matrix(3.346154,0,0,3,0,0)"/>
<path style="fill-rule:nonzero;fill:rgb(99.607843%,74.901961%,6.27451%);fill-opacity:1;stroke-width:0.3;stroke-linecap:round;stroke-linejoin:round;stroke:rgb(0%,0%,0%);stroke-opacity:1;stroke-miterlimit:4;" d="M 29.799838 24.5 C 29.016523 25.058594 28.055765 25.307292 27.099677 25.200521 C 26.198455 24.885417 25.448994 24.242188 24.999551 23.39974 C 25.774695 22.822917 26.743624 22.571615 27.699713 22.700521 C 28.600934 23.014323 29.350395 23.657552 29.799838 24.5 Z M 29.799838 24.5 " transform="matrix(3.346154,0,0,3,0,0)"/>
<path style="fill:none;stroke-width:0.3;stroke-linecap:round;stroke-linejoin:round;stroke:rgb(0%,0%,0%);stroke-opacity:1;stroke-miterlimit:4;" d="M 29.799838 24.5 L 27.099677 23.89974 " transform="matrix(3.346154,0,0,3,0,0)"/>
<path style="fill-rule:nonzero;fill:rgb(99.607843%,74.901961%,6.27451%);fill-opacity:1;stroke-width:0.3;stroke-linecap:round;stroke-linejoin:round;stroke:rgb(0%,0%,0%);stroke-opacity:1;stroke-miterlimit:4;" d="M 32.600395 25 C 31.81708 25.558594 30.855154 25.807292 29.900233 25.700521 C 29.00018 25.4375 28.243714 24.825521 27.800108 24 C 28.523886 23.393229 29.461297 23.105469 30.399874 23.200521 C 31.338452 23.492188 32.127604 24.138021 32.600395 25 Z M 32.600395 25 " transform="matrix(3.346154,0,0,3,0,0)"/>
<path style="fill:none;stroke-width:0.3;stroke-linecap:round;stroke-linejoin:round;stroke:rgb(0%,0%,0%);stroke-opacity:1;stroke-miterlimit:4;" d="M 32.600395 25 L 29.900233 24.39974 " transform="matrix(3.346154,0,0,3,0,0)"/>
<path style="fill-rule:nonzero;fill:rgb(99.607843%,74.901961%,6.27451%);fill-opacity:1;stroke-width:0.3;stroke-linecap:round;stroke-linejoin:round;stroke:rgb(0%,0%,0%);stroke-opacity:1;stroke-miterlimit:4;" d="M 51.399964 24.200521 C 52.24982 24.59375 53.22342 24.628906 54.100126 24.299479 C 54.938308 23.824219 55.551185 23.03125 55.799838 22.10026 C 54.916128 21.700521 53.909842 21.665365 53.000449 22 C 52.206627 22.503906 51.634608 23.290365 51.399964 24.200521 Z M 51.399964 24.200521 " transform="matrix(3.346154,0,0,3,0,0)"/>
<path style="fill:none;stroke-width:0.3;stroke-linecap:round;stroke-linejoin:round;stroke:rgb(0%,0%,0%);stroke-opacity:1;stroke-miterlimit:4;" d="M 51.399964 24.200521 L 53.800108 23 " transform="matrix(3.346154,0,0,3,0,0)"/>
<path style="fill-rule:nonzero;fill:rgb(99.607843%,74.901961%,6.27451%);fill-opacity:1;stroke-width:0.3;stroke-linecap:round;stroke-linejoin:round;stroke:rgb(0%,0%,0%);stroke-opacity:1;stroke-miterlimit:4;" d="M 48.399784 24.5 C 49.143409 25.061198 50.074982 25.311198 50.999551 25.200521 C 51.917116 24.914062 52.677083 24.263021 53.099677 23.39974 C 52.356052 22.838542 51.424479 22.588542 50.49991 22.700521 C 49.582346 22.985677 48.823545 23.636719 48.399784 24.5 Z M 48.399784 24.5 " transform="matrix(3.346154,0,0,3,0,0)"/>
<path style="fill:none;stroke-width:0.3;stroke-linecap:round;stroke-linejoin:round;stroke:rgb(0%,0%,0%);stroke-opacity:1;stroke-miterlimit:4;" d="M 48.399784 24.5 L 50.999551 23.89974 " transform="matrix(3.346154,0,0,3,0,0)"/>
<path style="fill-rule:nonzero;fill:rgb(99.607843%,74.901961%,6.27451%);fill-opacity:1;stroke-width:0.3;stroke-linecap:round;stroke-linejoin:round;stroke:rgb(0%,0%,0%);stroke-opacity:1;stroke-miterlimit:4;" d="M 35.699802 25.39974 C 34.953843 25.96224 34.033944 26.244792 33.100036 26.200521 C 32.177802 25.93099 31.392152 25.324219 30.899515 24.5 C 31.653646 23.877604 32.628412 23.588542 33.599677 23.700521 C 34.499731 23.96224 35.256196 24.575521 35.699802 25.39974 Z M 35.699802 25.39974 " transform="matrix(3.346154,0,0,3,0,0)"/>
<path style="fill:none;stroke-width:0.3;stroke-linecap:round;stroke-linejoin:round;stroke:rgb(0%,0%,0%);stroke-opacity:1;stroke-miterlimit:4;" d="M 35.699802 25.39974 L 33.100036 24.89974 " transform="matrix(3.346154,0,0,3,0,0)"/>
<path style="fill-rule:nonzero;fill:rgb(99.607843%,74.901961%,6.27451%);fill-opacity:1;stroke-width:0.3;stroke-linecap:round;stroke-linejoin:round;stroke:rgb(0%,0%,0%);stroke-opacity:1;stroke-miterlimit:4;" d="M 38.800377 25.39974 C 38.131466 26.063802 37.240751 26.455729 36.299838 26.5 C 35.351922 26.352865 34.495061 25.852865 33.899695 25.10026 C 34.603628 24.414062 35.521193 23.990885 36.499461 23.89974 C 37.426365 24.096354 38.247037 24.630208 38.800377 25.39974 Z M 38.800377 25.39974 " transform="matrix(3.346154,0,0,3,0,0)"/>
<path style="fill:none;stroke-width:0.3;stroke-linecap:round;stroke-linejoin:round;stroke:rgb(0%,0%,0%);stroke-opacity:1;stroke-miterlimit:4;" d="M 38.800377 25.39974 L 36.100216 25.200521 " transform="matrix(3.346154,0,0,3,0,0)"/>
<path style="fill-rule:nonzero;fill:rgb(99.607843%,74.901961%,6.27451%);fill-opacity:1;stroke-width:0.3;stroke-linecap:round;stroke-linejoin:round;stroke:rgb(0%,0%,0%);stroke-opacity:1;stroke-miterlimit:4;" d="M 45.300377 25.10026 C 46.044001 25.661458 46.975575 25.911458 47.900144 25.799479 C 48.838721 25.507812 49.626706 24.861979 50.099497 24 C 49.317349 23.441406 48.355424 23.192708 47.400503 23.299479 C 46.499282 23.614583 45.748653 24.257812 45.300377 25.10026 Z M 45.300377 25.10026 " transform="matrix(3.346154,0,0,3,0,0)"/>
<path style="fill:none;stroke-width:0.3;stroke-linecap:round;stroke-linejoin:round;stroke:rgb(0%,0%,0%);stroke-opacity:1;stroke-miterlimit:4;" d="M 45.300377 25.10026 L 47.900144 24.5 " transform="matrix(3.346154,0,0,3,0,0)"/>
<path style="fill-rule:nonzero;fill:rgb(99.607843%,74.901961%,6.27451%);fill-opacity:1;stroke-width:0.3;stroke-linecap:round;stroke-linejoin:round;stroke:rgb(0%,0%,0%);stroke-opacity:1;stroke-miterlimit:4;" d="M 42.00018 25.299479 C 42.75431 25.929688 43.71857 26.251302 44.700341 26.200521 C 45.601562 25.893229 46.375539 25.294271 46.899695 24.5 C 46.132723 23.894531 45.177802 23.576823 44.199533 23.60026 C 43.298312 23.907552 42.524335 24.505208 42.00018 25.299479 Z M 42.00018 25.299479 " transform="matrix(3.346154,0,0,3,0,0)"/>
<path style="fill:none;stroke-width:0.3;stroke-linecap:round;stroke-linejoin:round;stroke:rgb(0%,0%,0%);stroke-opacity:1;stroke-miterlimit:4;" d="M 42.00018 25.299479 L 44.700341 24.799479 " transform="matrix(3.346154,0,0,3,0,0)"/>
<path style="fill-rule:nonzero;fill:rgb(99.607843%,74.901961%,6.27451%);fill-opacity:1;stroke-width:0.3;stroke-linecap:round;stroke-linejoin:round;stroke:rgb(0%,0%,0%);stroke-opacity:1;stroke-miterlimit:4;" d="M 38.899605 25.299479 C 39.598869 25.977865 40.52694 26.371094 41.500539 26.39974 C 42.426275 26.269531 43.258621 25.763021 43.800287 25 C 43.150054 24.309896 42.247665 23.91276 41.299749 23.89974 C 40.364673 24.080729 39.518319 24.574219 38.899605 25.299479 Z M 38.899605 25.299479 " transform="matrix(3.346154,0,0,3,0,0)"/>
<path style="fill:none;stroke-width:0.3;stroke-linecap:round;stroke-linejoin:round;stroke:rgb(0%,0%,0%);stroke-opacity:1;stroke-miterlimit:4;" d="M 38.899605 25.299479 L 41.599767 25.10026 " transform="matrix(3.346154,0,0,3,0,0)"/>
<path style="fill-rule:nonzero;fill:rgb(0%,39.607843%,71.764706%);fill-opacity:1;stroke-width:0.4;stroke-linecap:round;stroke-linejoin:round;stroke:rgb(0%,0%,0%);stroke-opacity:1;stroke-miterlimit:4;" d="M 41.299749 27.5 L 40.800108 27.5 L 35.899425 23.5 C 35.709142 23.30599 35.709142 22.994792 35.899425 22.799479 C 36.159752 22.582031 36.54032 22.582031 36.799479 22.799479 L 41.599767 26.700521 C 41.725844 26.794271 41.800557 26.942708 41.800557 27.10026 C 41.800557 27.257812 41.725844 27.404948 41.599767 27.5 Z M 41.299749 27.5 " transform="matrix(3.346154,0,0,3,0,0)"/>
<path style="fill-rule:nonzero;fill:rgb(0%,39.607843%,71.764706%);fill-opacity:1;stroke-width:0.4;stroke-linecap:round;stroke-linejoin:round;stroke:rgb(0%,0%,0%);stroke-opacity:1;stroke-miterlimit:4;" d="M 36.599856 27.700521 L 36.199443 27.700521 C 36.009159 27.505208 36.009159 27.19401 36.199443 27 L 40.600485 23.299479 C 40.860812 23.082031 41.240212 23.082031 41.500539 23.299479 C 41.703664 23.527344 41.703664 23.872396 41.500539 24.10026 L 37.099497 27.700521 C 36.899874 27.700521 36.799479 27.799479 36.599856 27.700521 Z M 36.599856 27.700521 " transform="matrix(3.346154,0,0,3,0,0)"/>
<path style=" stroke:none;fill-rule:nonzero;fill:rgb(100%,0%,0%);fill-opacity:1;" d="M 191.066406 54.898438 C 191.066406 63.898438 163.960938 71.398438 130.5 71.398438 C 97.039062 71.398438 69.933594 63.898438 69.933594 54.898438 C 69.933594 45.601562 97.039062 38.101562 130.5 38.101562 C 163.960938 38.101562 191.066406 45.601562 191.066406 54.898438 Z M 191.066406 54.898438 "/>
<path style=" stroke:none;fill-rule:nonzero;fill:rgb(59.607843%,3.137255%,1.960784%);fill-opacity:1;" d="M 86.664062 51 C 86.664062 51 133.175781 66.898438 173.332031 50.699219 C 173.664062 51 176.675781 49.5 178.015625 53.101562 C 179.355469 56.699219 169.316406 63.300781 141.542969 63.300781 C 113.769531 63.300781 95.699219 62.101562 89.675781 59.699219 C 83.652344 57.300781 78.300781 54.898438 86.664062 51 Z M 86.664062 51 "/>
<path style="fill:none;stroke-width:0.4;stroke-linecap:round;stroke-linejoin:round;stroke:rgb(0%,0%,0%);stroke-opacity:1;stroke-miterlimit:4;" d="M 57.100305 18.299479 C 57.100305 21.299479 48.99982 23.799479 39 23.799479 C 29.00018 23.799479 20.899695 21.299479 20.899695 18.299479 C 20.899695 15.200521 29.00018 12.700521 39 12.700521 C 48.99982 12.700521 57.100305 15.200521 57.100305 18.299479 Z M 57.100305 18.299479 " transform="matrix(3.346154,0,0,3,0,0)"/>
<path style="fill:none;stroke-width:0.4;stroke-linecap:round;stroke-linejoin:round;stroke:rgb(0%,0%,0%);stroke-opacity:1;stroke-miterlimit:4;" d="M 52.100395 17 C 52.799659 17.39974 53.200072 17.799479 53.200072 18.200521 C 53.200072 19.799479 46.800467 21.200521 39 21.200521 C 31.199533 21.200521 24.799928 19.799479 24.799928 18.200521 C 24.799928 17.799479 25.200341 17.39974 25.899605 17 M 20.599677 30.700521 C 18.100305 30.799479 19.399605 43.799479 39 43.200521 L 39.100395 43.200521 C 58.800018 43.799479 60.00009 30.799479 57.599946 30.700521 L 57.299928 30.700521 C 56.800287 30.799479 56.500269 31.299479 56.299479 32 C 56.157058 31.527344 55.688937 31.229167 55.199802 31.299479 C 54.400144 31.5 54.200521 32.200521 53.999731 33.200521 C 53.953035 32.80599 53.741739 32.450521 53.417205 32.221354 C 53.092672 31.992188 52.686422 31.91276 52.300018 32 C 51.399964 32.200521 51.099946 33 50.799928 34.10026 C 50.774246 33.648438 50.569953 33.226562 50.232579 32.925781 C 49.894037 32.626302 49.451598 32.472656 48.99982 32.5 C 47.882633 32.369792 46.84833 33.102865 46.599677 34.200521 C 46.365032 33.238281 45.489494 32.571615 44.499551 32.60026 C 43.152389 32.584635 42.00018 33.566406 41.800557 34.89974 C 41.77254 33.408854 40.540948 32.222656 39.050198 32.25 C 37.558279 32.277344 36.372216 33.509115 36.400233 35 C 35.899425 33.60026 35.200162 32.60026 33.599677 32.60026 C 32.620241 32.536458 31.752874 33.230469 31.599946 34.200521 C 31.273078 33.113281 30.230603 32.404948 29.100575 32.5 C 28.632453 32.472656 28.173671 32.639323 27.832795 32.960938 C 27.491918 33.282552 27.2993 33.731771 27.300467 34.200521 C 27.000449 33.10026 26.700431 32.299479 25.800377 32.10026 C 25.420977 31.964844 24.999551 32.029948 24.67852 32.270833 C 24.356322 32.511719 24.176545 32.898438 24.199892 33.299479 C 24.000269 32.299479 23.700251 31.60026 22.899425 31.39974 C 22.410291 31.329427 21.943337 31.626302 21.799749 32.10026 C 21.600126 31.39974 21.400503 30.89974 20.800467 30.799479 Z M 20.599677 30.700521 " transform="matrix(3.346154,0,0,3,0,0)"/>
<path style="fill-rule:nonzero;fill:rgb(100%,0%,0%);fill-opacity:1;stroke-width:0.4;stroke-linecap:round;stroke-linejoin:round;stroke:rgb(0%,0%,0%);stroke-opacity:1;stroke-miterlimit:4;" d="M 20.800467 30.799479 C 17.99991 29.89974 18.700341 43.89974 39.100395 43.200521 C 17.800287 41.39974 23.899874 31.700521 20.800467 30.799479 Z M 20.800467 30.799479 " transform="matrix(3.346154,0,0,3,0,0)"/>
<path style="fill-rule:nonzero;fill:rgb(100%,0%,0%);fill-opacity:1;stroke-width:0.4;stroke-linecap:round;stroke-linejoin:round;stroke:rgb(0%,0%,0%);stroke-opacity:1;stroke-miterlimit:4;" d="M 22.899425 31.39974 C 19.900413 30.60026 21.100485 43.299479 39.100395 43.200521 C 20.700072 41.60026 26.100395 32.299479 22.899425 31.39974 Z M 22.899425 31.39974 " transform="matrix(3.346154,0,0,3,0,0)"/>
<path style="fill-rule:nonzero;fill:rgb(100%,0%,0%);fill-opacity:1;stroke-width:0.4;stroke-linecap:round;stroke-linejoin:round;stroke:rgb(0%,0%,0%);stroke-opacity:1;stroke-miterlimit:4;" d="M 25.800377 32.10026 C 22.000539 31.200521 24.099497 43.299479 39.100395 43.200521 C 24.49991 39.89974 29.00018 32.799479 25.800377 32.10026 Z M 25.800377 32.10026 " transform="matrix(3.346154,0,0,3,0,0)"/>
<path style="fill-rule:nonzero;fill:rgb(100%,0%,0%);fill-opacity:1;stroke-width:0.4;stroke-linecap:round;stroke-linejoin:round;stroke:rgb(0%,0%,0%);stroke-opacity:1;stroke-miterlimit:4;" d="M 29.100575 32.5 C 25.099946 32.5 27.300467 41.39974 39.100395 43.200521 C 29.900233 39.5 33.599677 32.5 29.100575 32.5 Z M 29.100575 32.5 " transform="matrix(3.346154,0,0,3,0,0)"/>
<path style="fill-rule:nonzero;fill:rgb(100%,0%,0%);fill-opacity:1;stroke-width:0.4;stroke-linecap:round;stroke-linejoin:round;stroke:rgb(0%,0%,0%);stroke-opacity:1;stroke-miterlimit:4;" d="M 33.599677 32.60026 C 29.600216 32.60026 31.199533 41.10026 39.100395 43.200521 C 35.899425 39.60026 37.900323 32.60026 33.599677 32.60026 Z M 33.599677 32.60026 " transform="matrix(3.346154,0,0,3,0,0)"/>
<path style="fill-rule:nonzero;fill:rgb(100%,0%,0%);fill-opacity:1;stroke-width:0.4;stroke-linecap:round;stroke-linejoin:round;stroke:rgb(0%,0%,0%);stroke-opacity:1;stroke-miterlimit:4;" d="M 57.299928 30.799479 C 60.100485 29.89974 59.400054 43.89974 39 43.200521 C 60.300108 41.39974 54.200521 31.700521 57.299928 30.799479 Z M 57.299928 30.799479 " transform="matrix(3.346154,0,0,3,0,0)"/>
<path style="fill-rule:nonzero;fill:rgb(100%,0%,0%);fill-opacity:1;stroke-width:0.4;stroke-linecap:round;stroke-linejoin:round;stroke:rgb(0%,0%,0%);stroke-opacity:1;stroke-miterlimit:4;" d="M 55.199802 31.39974 C 58.199982 30.60026 56.99991 43.299479 39 43.200521 C 57.400323 41.60026 52.100395 32.299479 55.199802 31.39974 Z M 55.199802 31.39974 " transform="matrix(3.346154,0,0,3,0,0)"/>
<path style="fill-rule:nonzero;fill:rgb(100%,0%,0%);fill-opacity:1;stroke-width:0.4;stroke-linecap:round;stroke-linejoin:round;stroke:rgb(0%,0%,0%);stroke-opacity:1;stroke-miterlimit:4;" d="M 52.300018 32.10026 C 56.099856 31.200521 53.999731 43.299479 39 43.200521 C 53.600485 39.89974 49.199443 32.799479 52.300018 32.10026 Z M 52.300018 32.10026 " transform="matrix(3.346154,0,0,3,0,0)"/>
<path style="fill-rule:nonzero;fill:rgb(100%,0%,0%);fill-opacity:1;stroke-width:0.4;stroke-linecap:round;stroke-linejoin:round;stroke:rgb(0%,0%,0%);stroke-opacity:1;stroke-miterlimit:4;" d="M 48.99982 32.5 C 53.000449 32.5 50.900323 41.39974 39 43.200521 C 48.300557 39.5 44.499551 32.5 48.99982 32.5 Z M 48.99982 32.5 " transform="matrix(3.346154,0,0,3,0,0)"/>
<path style="fill-rule:nonzero;fill:rgb(100%,0%,0%);fill-opacity:1;stroke-width:0.4;stroke-linecap:round;stroke-linejoin:round;stroke:rgb(0%,0%,0%);stroke-opacity:1;stroke-miterlimit:4;" d="M 44.499551 32.60026 C 48.50018 32.60026 47.00009 41.10026 39 43.200521 C 42.199802 39.60026 40.200072 32.60026 44.499551 32.60026 Z M 44.499551 32.60026 " transform="matrix(3.346154,0,0,3,0,0)"/>
<path style="fill-rule:nonzero;fill:rgb(100%,0%,0%);fill-opacity:1;stroke-width:0.4;stroke-linecap:round;stroke-linejoin:round;stroke:rgb(0%,0%,0%);stroke-opacity:1;stroke-miterlimit:4;" d="M 39.100395 32.60026 C 35.099767 32.60026 35.50018 39.60026 39.100395 43.200521 C 42.699443 39.60026 43.099856 32.60026 39.100395 32.60026 Z M 39.100395 32.60026 " transform="matrix(3.346154,0,0,3,0,0)"/>
<path style=" stroke:none;fill-rule:nonzero;fill:rgb(0%,39.607843%,71.764706%);fill-opacity:1;" d="M 134.179688 198.898438 C 114.214844 199.035156 94.277344 197.527344 74.621094 194.398438 C 70.8125 193.949219 67.625 191.589844 66.410156 188.324219 C 65.195312 185.058594 66.164062 181.457031 68.90625 179.046875 C 71.652344 176.640625 75.6875 175.84375 79.304688 177 C 89.34375 179.101562 142.546875 184.800781 181.363281 177 C 183.980469 176.464844 186.730469 176.894531 188.996094 178.191406 C 191.257812 179.488281 192.847656 181.542969 193.40625 183.898438 C 194.667969 188.699219 191.386719 193.515625 186.046875 194.699219 C 168.976562 197.761719 151.585938 199.167969 134.179688 198.898438 Z M 134.179688 198.898438 "/>
<path style=" stroke:none;fill-rule:nonzero;fill:rgb(19.607843%,34.117647%,13.72549%);fill-opacity:1;" d="M 193.40625 182.699219 C 193.742188 183.300781 193.40625 183.300781 193.40625 183.898438 C 194.667969 188.699219 191.386719 193.515625 186.046875 194.699219 C 168.976562 197.761719 151.585938 199.167969 134.179688 198.898438 C 114.214844 199.035156 94.277344 197.527344 74.621094 194.398438 C 69.28125 193.214844 65.996094 188.398438 67.257812 183.601562 C 67.59375 183 67.257812 183.300781 67.59375 182.699219 L 85.996094 185.398438 L 112.765625 187.5 L 131.839844 188.101562 L 148.902344 188.101562 L 171.65625 186.601562 Z M 193.40625 182.699219 "/>
<path style="fill:none;stroke-width:0.4;stroke-linecap:round;stroke-linejoin:round;stroke:rgb(0%,0%,0%);stroke-opacity:1;stroke-miterlimit:4;" d="M 40.099677 66.299479 C 34.133172 66.345052 28.174838 65.842448 22.300557 64.799479 C 21.162356 64.64974 20.20977 63.863281 19.846713 62.77474 C 19.483657 61.686198 19.773168 60.485677 20.592672 59.682292 C 21.413344 58.880208 22.619253 58.614583 23.700251 59 C 26.700431 59.700521 42.600216 61.60026 54.200521 59 C 54.982669 58.821615 55.804508 58.964844 56.481591 59.397135 C 57.157507 59.829427 57.632633 60.514323 57.799569 61.299479 C 58.176634 62.89974 57.196031 64.505208 55.600216 64.89974 C 50.498743 65.920573 45.301545 66.389323 40.099677 66.299479 Z M 40.099677 66.299479 " transform="matrix(3.346154,0,0,3,0,0)"/>
<path style="fill-rule:nonzero;fill:rgb(59.607843%,3.137255%,1.960784%);fill-opacity:1;stroke-width:0.4;stroke-linecap:round;stroke-linejoin:round;stroke:rgb(0%,0%,0%);stroke-opacity:1;stroke-miterlimit:4;" d="M 39.100395 34.60026 C 36.599856 34.60026 36.899874 40.200521 39.100395 43 C 41.400144 40.200521 41.599767 34.60026 39.100395 34.60026 Z M 39.100395 34.60026 " transform="matrix(3.346154,0,0,3,0,0)"/>
<path style="fill-rule:nonzero;fill:rgb(99.607843%,74.901961%,6.27451%);fill-opacity:1;stroke-width:0.4;stroke-linecap:round;stroke-linejoin:round;stroke:rgb(0%,0%,0%);stroke-opacity:1;stroke-miterlimit:4;" d="M 23.100216 24.5 C 22.646103 24.479167 22.235183 24.766927 22.099767 25.200521 C 22.04023 25.427083 22.083423 25.669271 22.21884 25.861979 C 22.353089 26.054688 22.565553 26.178385 22.800198 26.200521 C 26.700431 27.60026 33.200431 28.39974 38.800377 28.39974 L 39.400413 28.39974 C 45.000359 28.39974 51.399964 27.60026 55.399425 26.200521 C 55.858208 26.10026 56.162895 25.665365 56.099856 25.200521 C 55.925916 24.751302 55.479975 24.467448 55.00018 24.5 L 54.599767 24.5 C 51.099946 25.700521 44.499551 26.5 39.100395 26.5 C 33.700072 26.5 27.000449 25.700521 23.599856 24.5 Z M 23.799479 57.299479 C 23.561333 57.272135 23.320851 57.341146 23.132902 57.490885 C 22.944953 57.641927 22.824713 57.860677 22.800198 58.10026 C 22.77218 58.338542 22.841056 58.579427 22.991649 58.766927 C 23.141074 58.954427 23.360542 59.075521 23.599856 59.10026 C 28.727011 59.907552 33.910201 60.308594 39.100395 60.299479 C 44.289422 60.299479 49.471444 59.898438 54.599767 59.10026 C 55.072557 59.003906 55.409932 58.583333 55.399425 58.10026 C 55.27218 57.647135 54.8706 57.325521 54.400144 57.299479 L 54.200521 57.299479 C 49.206448 58.104167 44.157507 58.505208 39.100395 58.5 C 34.009429 58.501302 28.926634 58.10026 23.899874 57.299479 Z M 23.799479 57.299479 " transform="matrix(3.346154,0,0,3,0,0)"/>
<path style="fill-rule:nonzero;fill:rgb(99.607843%,74.901961%,6.27451%);fill-opacity:1;stroke-width:0.4;stroke-linecap:round;stroke-linejoin:round;stroke:rgb(0%,0%,0%);stroke-opacity:1;stroke-miterlimit:4;" d="M 20.299659 28.10026 C 20.299659 29.75651 18.957166 31.10026 17.299479 31.10026 C 15.64296 31.10026 14.300467 29.75651 14.300467 28.10026 C 14.300467 26.442708 15.64296 25.10026 17.299479 25.10026 C 18.957166 25.10026 20.299659 26.442708 20.299659 28.10026 Z M 20.299659 28.10026 " transform="matrix(3.346154,0,0,3,0,0)"/>
<path style="fill:none;stroke-width:0.4;stroke-linecap:round;stroke-linejoin:round;stroke:rgb(0%,0%,0%);stroke-opacity:1;stroke-miterlimit:4;" d="M 17.200251 29.200521 C 16.592044 29.200521 16.100575 28.707031 16.100575 28.10026 C 16.100575 27.492188 16.592044 27 17.200251 27 " transform="matrix(3.346154,0,0,3,0,0)"/>
<path style="fill-rule:nonzero;fill:rgb(99.607843%,74.901961%,6.27451%);fill-opacity:1;stroke-width:0.4;stroke-linecap:round;stroke-linejoin:round;stroke:rgb(0%,0%,0%);stroke-opacity:1;stroke-miterlimit:4;" d="M 63.699533 28.10026 C 63.699533 29.75651 62.35704 31.10026 60.700521 31.10026 C 59.042834 31.10026 57.700341 29.75651 57.700341 28.10026 C 57.700341 26.442708 59.042834 25.10026 60.700521 25.10026 C 62.35704 25.10026 63.699533 26.442708 63.699533 28.10026 Z M 63.699533 28.10026 " transform="matrix(3.346154,0,0,3,0,0)"/>
<path style="fill:none;stroke-width:0.4;stroke-linecap:round;stroke-linejoin:round;stroke:rgb(0%,0%,0%);stroke-opacity:1;stroke-miterlimit:4;" d="M 60.499731 29.200521 C 59.89269 29.200521 59.400054 28.707031 59.400054 28.10026 C 59.400054 27.492188 59.89269 27 60.499731 27 " transform="matrix(3.346154,0,0,3,0,0)"/>
<path style=" stroke:none;fill-rule:nonzero;fill:rgb(99.607843%,74.901961%,6.27451%);fill-opacity:1;" d="M 135.519531 196.800781 C 113.667969 196.9375 91.839844 195.429688 70.269531 192.300781 C 69.820312 192.226562 69.425781 191.996094 69.171875 191.65625 C 68.917969 191.316406 68.832031 190.898438 68.929688 190.5 C 69.226562 189.742188 70.046875 189.253906 70.9375 189.300781 C 83.320312 191.699219 143.882812 198 189.058594 189.898438 C 190.0625 189.601562 191.066406 190.199219 191.066406 190.800781 C 191.328125 191.195312 191.3125 191.695312 191.027344 192.078125 C 190.742188 192.460938 190.238281 192.664062 189.726562 192.601562 C 171.867188 195.671875 153.703125 197.078125 135.519531 196.800781 Z M 135.519531 196.800781 "/>
<path style="fill-rule:nonzero;fill:rgb(99.607843%,74.901961%,6.27451%);fill-opacity:1;stroke-width:0.3;stroke-linecap:round;stroke-linejoin:round;stroke:rgb(0%,0%,0%);stroke-opacity:1;stroke-miterlimit:4;" d="M 22.800198 63.10026 C 22.800198 63.707031 22.307561 64.200521 21.700521 64.200521 C 21.092313 64.200521 20.599677 63.707031 20.599677 63.10026 C 20.599677 62.492188 21.092313 62 21.700521 62 C 22.307561 62 22.800198 62.492188 22.800198 63.10026 Z M 22.800198 63.10026 " transform="matrix(3.346154,0,0,3,0,0)"/>
<path style=" stroke:none;fill-rule:nonzero;fill:rgb(0%,0%,0%);fill-opacity:1;" d="M 73.949219 189.300781 C 73.949219 189.960938 73.351562 190.5 72.613281 190.5 C 71.871094 190.5 71.273438 189.960938 71.273438 189.300781 C 71.273438 188.636719 71.871094 188.101562 72.613281 188.101562 C 73.351562 188.101562 73.949219 188.636719 73.949219 189.300781 Z M 73.949219 189.300781 "/>
<path style="fill-rule:nonzero;fill:rgb(99.607843%,74.901961%,6.27451%);fill-opacity:1;stroke-width:0.4;stroke-linecap:round;stroke-linejoin:round;stroke:rgb(0%,0%,0%);stroke-opacity:1;stroke-miterlimit:4;" d="M 40.600485 66.799479 C 34.036279 66.838542 27.481412 66.33724 21.00009 65.299479 C 20.765445 65.188802 20.612518 64.958333 20.599677 64.700521 C 20.700072 64.39974 21.00009 64.200521 21.199713 64.299479 C 24.900323 65.10026 43.099856 67.10026 56.699892 64.39974 C 56.832974 64.371094 56.971893 64.397135 57.085129 64.472656 C 57.198366 64.548177 57.275413 64.666667 57.299928 64.799479 C 57.400323 65.10026 57.199533 65.299479 56.899515 65.39974 C 51.52254 66.375 46.065014 66.84375 40.600485 66.799479 Z M 40.600485 66.799479 " transform="matrix(3.346154,0,0,3,0,0)"/>
<path style="fill-rule:nonzero;fill:rgb(99.607843%,74.901961%,6.27451%);fill-opacity:1;stroke-width:0.3;stroke-linecap:round;stroke-linejoin:round;stroke:rgb(0%,0%,0%);stroke-opacity:1;stroke-miterlimit:4;" d="M 24.999551 63.5 C 24.999551 64.108073 24.508082 64.60026 23.899874 64.60026 C 23.292834 64.60026 22.800198 64.108073 22.800198 63.5 C 22.800198 62.891927 23.292834 62.39974 23.899874 62.39974 C 24.508082 62.39974 24.999551 62.891927 24.999551 63.5 Z M 24.999551 63.5 " transform="matrix(3.346154,0,0,3,0,0)"/>
<path style=" stroke:none;fill-rule:nonzero;fill:rgb(0%,0%,0%);fill-opacity:1;" d="M 81.3125 190.5 C 81.3125 191.164062 80.710938 191.699219 79.972656 191.699219 C 79.234375 191.699219 78.632812 191.164062 78.632812 190.5 C 78.632812 189.835938 79.234375 189.300781 79.972656 189.300781 C 80.710938 189.300781 81.3125 189.835938 81.3125 190.5 Z M 81.3125 190.5 "/>
<path style="fill-rule:nonzero;fill:rgb(99.607843%,74.901961%,6.27451%);fill-opacity:1;stroke-width:0.3;stroke-linecap:round;stroke-linejoin:round;stroke:rgb(0%,0%,0%);stroke-opacity:1;stroke-miterlimit:4;" d="M 27.399695 63.700521 C 27.399695 64.307292 26.907058 64.799479 26.300018 64.799479 C 25.692978 64.799479 25.200341 64.307292 25.200341 63.700521 C 25.200341 63.092448 25.692978 62.60026 26.300018 62.60026 C 26.907058 62.60026 27.399695 63.092448 27.399695 63.700521 Z M 27.399695 63.700521 " transform="matrix(3.346154,0,0,3,0,0)"/>
<path style=" stroke:none;fill-rule:nonzero;fill:rgb(0%,0%,0%);fill-opacity:1;" d="M 89.34375 191.101562 C 89.34375 191.761719 88.742188 192.300781 88.003906 192.300781 C 87.265625 192.300781 86.664062 191.761719 86.664062 191.101562 C 86.664062 190.4375 87.265625 189.898438 88.003906 189.898438 C 88.742188 189.898438 89.34375 190.4375 89.34375 191.101562 Z M 89.34375 191.101562 "/>
<path style="fill-rule:nonzero;fill:rgb(99.607843%,74.901961%,6.27451%);fill-opacity:1;stroke-width:0.3;stroke-linecap:round;stroke-linejoin:round;stroke:rgb(0%,0%,0%);stroke-opacity:1;stroke-miterlimit:4;" d="M 29.600216 63.89974 C 29.600216 64.507812 29.107579 65 28.500539 65 C 27.892331 65 27.399695 64.507812 27.399695 63.89974 C 27.399695 63.292969 27.892331 62.799479 28.500539 62.799479 C 29.107579 62.799479 29.600216 63.292969 29.600216 63.89974 Z M 29.600216 63.89974 " transform="matrix(3.346154,0,0,3,0,0)"/>
<path style=" stroke:none;fill-rule:nonzero;fill:rgb(0%,0%,0%);fill-opacity:1;" d="M 96.703125 191.699219 C 96.703125 192.363281 96.105469 192.898438 95.367188 192.898438 C 94.625 192.898438 94.027344 192.363281 94.027344 191.699219 C 94.027344 191.039062 94.625 190.5 95.367188 190.5 C 96.105469 190.5 96.703125 191.039062 96.703125 191.699219 Z M 96.703125 191.699219 "/>
<path style="fill-rule:nonzero;fill:rgb(99.607843%,74.901961%,6.27451%);fill-opacity:1;stroke-width:0.3;stroke-linecap:round;stroke-linejoin:round;stroke:rgb(0%,0%,0%);stroke-opacity:1;stroke-miterlimit:4;" d="M 32.000359 64.200521 C 32.000359 64.807292 31.507723 65.299479 30.899515 65.299479 C 30.292475 65.299479 29.799838 64.807292 29.799838 64.200521 C 29.799838 63.592448 30.292475 63.10026 30.899515 63.10026 C 31.507723 63.10026 32.000359 63.592448 32.000359 64.200521 Z M 32.000359 64.200521 " transform="matrix(3.346154,0,0,3,0,0)"/>
<path style=" stroke:none;fill-rule:nonzero;fill:rgb(0%,0%,0%);fill-opacity:1;" d="M 104.734375 192.601562 C 104.734375 193.261719 104.136719 193.800781 103.394531 193.800781 C 102.65625 193.800781 102.058594 193.261719 102.058594 192.601562 C 102.058594 191.9375 102.65625 191.398438 103.394531 191.398438 C 104.136719 191.398438 104.734375 191.9375 104.734375 192.601562 Z M 104.734375 192.601562 "/>
<path style="fill-rule:nonzero;fill:rgb(99.607843%,74.901961%,6.27451%);fill-opacity:1;stroke-width:0.3;stroke-linecap:round;stroke-linejoin:round;stroke:rgb(0%,0%,0%);stroke-opacity:1;stroke-miterlimit:4;" d="M 34.300108 64.299479 C 34.300108 64.907552 33.807471 65.39974 33.200431 65.39974 C 32.592223 65.39974 32.099587 64.907552 32.099587 64.299479 C 32.099587 63.692708 32.592223 63.200521 33.200431 63.200521 C 33.807471 63.200521 34.300108 63.692708 34.300108 64.299479 Z M 34.300108 64.299479 " transform="matrix(3.346154,0,0,3,0,0)"/>
<path style=" stroke:none;fill-rule:nonzero;fill:rgb(0%,0%,0%);fill-opacity:1;" d="M 112.429688 192.898438 C 112.429688 193.5625 111.832031 194.101562 111.09375 194.101562 C 110.351562 194.101562 109.753906 193.5625 109.753906 192.898438 C 109.753906 192.238281 110.351562 191.699219 111.09375 191.699219 C 111.832031 191.699219 112.429688 192.238281 112.429688 192.898438 Z M 112.429688 192.898438 "/>
<path style="fill-rule:nonzero;fill:rgb(99.607843%,74.901961%,6.27451%);fill-opacity:1;stroke-width:0.3;stroke-linecap:round;stroke-linejoin:round;stroke:rgb(0%,0%,0%);stroke-opacity:1;stroke-miterlimit:4;" d="M 36.599856 64.39974 C 36.599856 65.007812 36.10722 65.5 35.50018 65.5 C 34.891972 65.5 34.400503 65.007812 34.400503 64.39974 C 34.400503 63.792969 34.891972 63.299479 35.50018 63.299479 C 36.10722 63.299479 36.599856 63.792969 36.599856 64.39974 Z M 36.599856 64.39974 " transform="matrix(3.346154,0,0,3,0,0)"/>
<path style=" stroke:none;fill-rule:nonzero;fill:rgb(0%,0%,0%);fill-opacity:1;" d="M 120.125 193.199219 C 120.125 193.863281 119.527344 194.398438 118.789062 194.398438 C 118.050781 194.398438 117.449219 193.863281 117.449219 193.199219 C 117.449219 192.539062 118.050781 192 118.789062 192 C 119.527344 192 120.125 192.539062 120.125 193.199219 Z M 120.125 193.199219 "/>
<path style="fill-rule:nonzero;fill:rgb(99.607843%,74.901961%,6.27451%);fill-opacity:1;stroke-width:0.3;stroke-linecap:round;stroke-linejoin:round;stroke:rgb(0%,0%,0%);stroke-opacity:1;stroke-miterlimit:4;" d="M 39 64.39974 C 39 65.007812 38.507364 65.5 37.900323 65.5 C 37.292116 65.5 36.799479 65.007812 36.799479 64.39974 C 36.799479 63.792969 37.292116 63.299479 37.900323 63.299479 C 38.507364 63.299479 39 63.792969 39 64.39974 Z M 39 64.39974 " transform="matrix(3.346154,0,0,3,0,0)"/>
<path style=" stroke:none;fill-rule:nonzero;fill:rgb(0%,0%,0%);fill-opacity:1;" d="M 128.15625 193.199219 C 128.15625 193.863281 127.558594 194.398438 126.820312 194.398438 C 126.078125 194.398438 125.480469 193.863281 125.480469 193.199219 C 125.480469 192.539062 126.078125 192 126.820312 192 C 127.558594 192 128.15625 192.539062 128.15625 193.199219 Z M 128.15625 193.199219 "/>
<path style="fill-rule:nonzero;fill:rgb(99.607843%,74.901961%,6.27451%);fill-opacity:1;stroke-width:0.3;stroke-linecap:round;stroke-linejoin:round;stroke:rgb(0%,0%,0%);stroke-opacity:1;stroke-miterlimit:4;" d="M 41.299749 64.5 C 41.299749 65.108073 40.807112 65.60026 40.200072 65.60026 C 39.593032 65.60026 39.100395 65.108073 39.100395 64.5 C 39.100395 63.891927 39.593032 63.39974 40.200072 63.39974 C 40.807112 63.39974 41.299749 63.891927 41.299749 64.5 Z M 41.299749 64.5 " transform="matrix(3.346154,0,0,3,0,0)"/>
<path style=" stroke:none;fill-rule:nonzero;fill:rgb(0%,0%,0%);fill-opacity:1;" d="M 135.855469 193.5 C 135.855469 194.164062 135.253906 194.699219 134.515625 194.699219 C 133.777344 194.699219 133.175781 194.164062 133.175781 193.5 C 133.175781 192.835938 133.777344 192.300781 134.515625 192.300781 C 135.253906 192.300781 135.855469 192.835938 135.855469 193.5 Z M 135.855469 193.5 "/>
<path style="fill-rule:nonzero;fill:rgb(99.607843%,74.901961%,6.27451%);fill-opacity:1;stroke-width:0.3;stroke-linecap:round;stroke-linejoin:round;stroke:rgb(0%,0%,0%);stroke-opacity:1;stroke-miterlimit:4;" d="M 43.599497 64.39974 C 43.599497 65.007812 43.108028 65.5 42.49982 65.5 C 41.89278 65.5 41.400144 65.007812 41.400144 64.39974 C 41.400144 63.792969 41.89278 63.299479 42.49982 63.299479 C 43.108028 63.299479 43.599497 63.792969 43.599497 64.39974 Z M 43.599497 64.39974 " transform="matrix(3.346154,0,0,3,0,0)"/>
<path style=" stroke:none;fill-rule:nonzero;fill:rgb(0%,0%,0%);fill-opacity:1;" d="M 143.550781 193.199219 C 143.550781 193.863281 142.949219 194.398438 142.210938 194.398438 C 141.472656 194.398438 140.875 193.863281 140.875 193.199219 C 140.875 192.539062 141.472656 192 142.210938 192 C 142.949219 192 143.550781 192.539062 143.550781 193.199219 Z M 143.550781 193.199219 "/>
<path style="fill-rule:nonzero;fill:rgb(99.607843%,74.901961%,6.27451%);fill-opacity:1;stroke-width:0.3;stroke-linecap:round;stroke-linejoin:round;stroke:rgb(0%,0%,0%);stroke-opacity:1;stroke-miterlimit:4;" d="M 57.199533 63.299479 C 57.199533 63.907552 56.708064 64.39974 56.099856 64.39974 C 55.492816 64.39974 55.00018 63.907552 55.00018 63.299479 C 55.00018 62.692708 55.492816 62.200521 56.099856 62.200521 C 56.708064 62.200521 57.199533 62.692708 57.199533 63.299479 Z M 57.199533 63.299479 " transform="matrix(3.346154,0,0,3,0,0)"/>
<path style=" stroke:none;fill-rule:nonzero;fill:rgb(0%,0%,0%);fill-opacity:1;" d="M 189.058594 189.898438 C 189.058594 190.5625 188.457031 191.101562 187.71875 191.101562 C 186.980469 191.101562 186.378906 190.5625 186.378906 189.898438 C 186.378906 189.238281 186.980469 188.699219 187.71875 188.699219 C 188.457031 188.699219 189.058594 189.238281 189.058594 189.898438 Z M 189.058594 189.898438 "/>
<path style="fill-rule:nonzero;fill:rgb(99.607843%,74.901961%,6.27451%);fill-opacity:1;stroke-width:0.3;stroke-linecap:round;stroke-linejoin:round;stroke:rgb(0%,0%,0%);stroke-opacity:1;stroke-miterlimit:4;" d="M 55.00018 63.60026 C 55.00018 64.207031 54.507543 64.700521 53.900503 64.700521 C 53.292295 64.700521 52.799659 64.207031 52.799659 63.60026 C 52.799659 62.992188 53.292295 62.5 53.900503 62.5 C 54.507543 62.5 55.00018 62.992188 55.00018 63.60026 Z M 55.00018 63.60026 " transform="matrix(3.346154,0,0,3,0,0)"/>
<path style=" stroke:none;fill-rule:nonzero;fill:rgb(0%,0%,0%);fill-opacity:1;" d="M 181.695312 190.800781 C 181.695312 191.460938 181.097656 192 180.359375 192 C 179.617188 192 179.019531 191.460938 179.019531 190.800781 C 179.019531 190.136719 179.617188 189.601562 180.359375 189.601562 C 181.097656 189.601562 181.695312 190.136719 181.695312 190.800781 Z M 181.695312 190.800781 "/>
<path style="fill-rule:nonzero;fill:rgb(99.607843%,74.901961%,6.27451%);fill-opacity:1;stroke-width:0.3;stroke-linecap:round;stroke-linejoin:round;stroke:rgb(0%,0%,0%);stroke-opacity:1;stroke-miterlimit:4;" d="M 52.700431 63.89974 C 52.700431 64.507812 52.207795 65 51.599587 65 C 50.992547 65 50.49991 64.507812 50.49991 63.89974 C 50.49991 63.292969 50.992547 62.799479 51.599587 62.799479 C 52.207795 62.799479 52.700431 63.292969 52.700431 63.89974 Z M 52.700431 63.89974 " transform="matrix(3.346154,0,0,3,0,0)"/>
<path style=" stroke:none;fill-rule:nonzero;fill:rgb(0%,0%,0%);fill-opacity:1;" d="M 174 191.699219 C 174 192.363281 173.402344 192.898438 172.660156 192.898438 C 171.921875 192.898438 171.324219 192.363281 171.324219 191.699219 C 171.324219 191.039062 171.921875 190.5 172.660156 190.5 C 173.402344 190.5 174 191.039062 174 191.699219 Z M 174 191.699219 "/>
<path style="fill-rule:nonzero;fill:rgb(99.607843%,74.901961%,6.27451%);fill-opacity:1;stroke-width:0.3;stroke-linecap:round;stroke-linejoin:round;stroke:rgb(0%,0%,0%);stroke-opacity:1;stroke-miterlimit:4;" d="M 50.300287 64.200521 C 50.300287 64.807292 49.807651 65.299479 49.199443 65.299479 C 48.592403 65.299479 48.099767 64.807292 48.099767 64.200521 C 48.099767 63.592448 48.592403 63.10026 49.199443 63.10026 C 49.807651 63.10026 50.300287 63.592448 50.300287 64.200521 Z M 50.300287 64.200521 " transform="matrix(3.346154,0,0,3,0,0)"/>
<path style=" stroke:none;fill-rule:nonzero;fill:rgb(0%,0%,0%);fill-opacity:1;" d="M 165.96875 192.601562 C 165.96875 193.261719 165.371094 193.800781 164.628906 193.800781 C 163.890625 193.800781 163.292969 193.261719 163.292969 192.601562 C 163.292969 191.9375 163.890625 191.398438 164.628906 191.398438 C 165.371094 191.398438 165.96875 191.9375 165.96875 192.601562 Z M 165.96875 192.601562 "/>
<path style="fill-rule:nonzero;fill:rgb(99.607843%,74.901961%,6.27451%);fill-opacity:1;stroke-width:0.3;stroke-linecap:round;stroke-linejoin:round;stroke:rgb(0%,0%,0%);stroke-opacity:1;stroke-miterlimit:4;" d="M 48.099767 64.299479 C 48.099767 64.907552 47.60713 65.39974 47.00009 65.39974 C 46.39305 65.39974 45.900413 64.907552 45.900413 64.299479 C 45.900413 63.692708 46.39305 63.200521 47.00009 63.200521 C 47.60713 63.200521 48.099767 63.692708 48.099767 64.299479 Z M 48.099767 64.299479 " transform="matrix(3.346154,0,0,3,0,0)"/>
<path style=" stroke:none;fill-rule:nonzero;fill:rgb(0%,0%,0%);fill-opacity:1;" d="M 158.609375 192.898438 C 158.609375 193.5625 158.007812 194.101562 157.269531 194.101562 C 156.53125 194.101562 155.929688 193.5625 155.929688 192.898438 C 155.929688 192.238281 156.53125 191.699219 157.269531 191.699219 C 158.007812 191.699219 158.609375 192.238281 158.609375 192.898438 Z M 158.609375 192.898438 "/>
<path style="fill-rule:nonzero;fill:rgb(99.607843%,74.901961%,6.27451%);fill-opacity:1;stroke-width:0.3;stroke-linecap:round;stroke-linejoin:round;stroke:rgb(0%,0%,0%);stroke-opacity:1;stroke-miterlimit:4;" d="M 45.900413 64.39974 C 45.900413 65.007812 45.407777 65.5 44.799569 65.5 C 44.192529 65.5 43.699892 65.007812 43.699892 64.39974 C 43.699892 63.792969 44.192529 63.299479 44.799569 63.299479 C 45.407777 63.299479 45.900413 63.792969 45.900413 64.39974 Z M 45.900413 64.39974 " transform="matrix(3.346154,0,0,3,0,0)"/>
<path style=" stroke:none;fill-rule:nonzero;fill:rgb(0%,0%,0%);fill-opacity:1;" d="M 151.246094 193.199219 C 151.246094 193.863281 150.648438 194.398438 149.90625 194.398438 C 149.167969 194.398438 148.570312 193.863281 148.570312 193.199219 C 148.570312 192.539062 149.167969 192 149.90625 192 C 150.648438 192 151.246094 192.539062 151.246094 193.199219 Z M 151.246094 193.199219 "/>
<path style="fill:none;stroke-width:0.4;stroke-linecap:round;stroke-linejoin:round;stroke:rgb(0%,0%,0%);stroke-opacity:1;stroke-miterlimit:4;" d="M 57.400323 61.10026 C 39.700431 64.89974 20.400054 61 20.400054 61 " transform="matrix(3.346154,0,0,3,0,0)"/>
<path style=" stroke:none;fill-rule:nonzero;fill:rgb(19.607843%,34.117647%,13.72549%);fill-opacity:1;" d="M 116.445312 315.898438 L 116.445312 322.800781 C 111.425781 338.398438 94.695312 343.5 86.332031 344.398438 C 82.984375 345 84.992188 351.898438 91.683594 354.300781 L 91.683594 360 L 165.96875 360 L 165.96875 354.898438 C 175.339844 354 178.683594 345 174.667969 344.398438 C 170.652344 343.800781 149.574219 338.398438 144.554688 322.800781 L 144.554688 315.898438 L 136.1875 315.898438 L 136.1875 322.800781 C 138.195312 328.5 136.523438 331.199219 134.851562 319.800781 L 126.148438 319.800781 C 124.476562 331.199219 122.804688 328.5 124.8125 322.800781 L 124.8125 315.898438 Z M 116.445312 315.898438 "/>
<path style="fill:none;stroke-width:0.4;stroke-linecap:round;stroke-linejoin:round;stroke:rgb(0%,0%,0%);stroke-opacity:1;stroke-miterlimit:4;" d="M 31.100305 117.89974 C 32.75449 118.153646 34.426185 118.286458 36.100216 118.299479 M 32.5 116.89974 L 34.900144 117.10026 M 47.00009 117.89974 C 45.344738 118.153646 43.67421 118.286458 42.00018 118.299479 M 45.300377 116.89974 C 44.577766 117.061198 43.838811 117.127604 43.099856 117.10026 M 33.599677 115.700521 L 34.700521 115.700521 M 44.400323 115.799479 L 43.299479 115.799479 " transform="matrix(3.346154,0,0,3,0,0)"/>
<path style="fill-rule:nonzero;fill:rgb(23.529412%,42.745098%,23.921569%);fill-opacity:1;stroke-width:0.4;stroke-linecap:round;stroke-linejoin:round;stroke:rgb(0%,0%,0%);stroke-opacity:1;stroke-miterlimit:4;" d="M 34.799749 105.299479 L 34.799749 107.60026 C 33.299659 112.799479 28.299749 114.5 25.800377 114.799479 C 23.299838 115.10026 26 119.299479 30.299479 118.10026 C 34.600126 116.89974 36.400233 110.39974 37.300287 107.60026 L 37.300287 105.299479 Z M 40.699713 105.299479 L 40.699713 107.60026 C 41.599767 110.39974 43.399874 116.89974 47.700521 118.10026 C 52 119.299479 53.600485 115 52.199623 114.799479 C 50.799928 114.60026 44.700341 112.799479 43.200251 107.60026 L 43.200251 105.299479 Z M 40.699713 105.299479 " transform="matrix(3.346154,0,0,3,0,0)"/>
<path style="fill-rule:nonzero;fill:rgb(19.607843%,34.117647%,13.72549%);fill-opacity:1;stroke-width:0.4;stroke-linecap:round;stroke-linejoin:round;stroke:rgb(0%,0%,0%);stroke-opacity:1;stroke-miterlimit:4;" d="M 34.799749 105.299479 L 34.799749 107.60026 C 33.299659 112.799479 28.299749 114.5 25.800377 114.799479 C 23.299838 115.10026 26 119.299479 30.299479 118.10026 C 34.600126 116.89974 36.400233 110.39974 37.300287 107.60026 L 37.300287 105.299479 Z M 40.699713 105.299479 L 40.699713 107.60026 C 41.599767 110.39974 43.399874 116.89974 47.700521 118.10026 C 52 119.299479 53.600485 115 52.199623 114.799479 C 50.799928 114.60026 44.700341 112.799479 43.200251 107.60026 L 43.200251 105.299479 Z M 40.699713 105.299479 " transform="matrix(3.346154,0,0,3,0,0)"/>
<path style="fill-rule:nonzero;fill:rgb(19.607843%,34.117647%,13.72549%);fill-opacity:1;stroke-width:0.4;stroke-linecap:round;stroke-linejoin:round;stroke:rgb(0%,0%,0%);stroke-opacity:1;stroke-miterlimit:4;" d="M 37.600305 105.5 C 36.899874 110.299479 34.00009 113.10026 34.499731 116.700521 C 34.700521 118 36.400233 118.89974 39 118.89974 C 41.599767 118.89974 43.299479 118 43.500269 116.700521 C 43.99991 113.10026 41.100126 110.299479 40.399695 105.5 Z M 37.600305 105.5 " transform="matrix(3.346154,0,0,3,0,0)"/>
<path style="fill-rule:nonzero;fill:rgb(5.098039%,22.745098%,7.058824%);fill-opacity:1;stroke-width:0.4;stroke-linecap:round;stroke-linejoin:round;stroke:rgb(0%,0%,0%);stroke-opacity:1;stroke-miterlimit:4;" d="M 38.299569 107.200521 C 37.999551 110.700521 36.599856 112.799479 36.799479 115.39974 C 36.899874 116.39974 37.799928 117 39 117 C 40.200072 117 41.100126 116.39974 41.200521 115.39974 C 41.500539 112.799479 40.099677 110.700521 39.700431 107.200521 Z M 38.299569 107.200521 " transform="matrix(3.346154,0,0,3,0,0)"/>
<path style="fill-rule:nonzero;fill:rgb(99.607843%,74.901961%,6.27451%);fill-opacity:1;stroke-width:0.4;stroke-linecap:round;stroke-linejoin:round;stroke:rgb(0%,0%,0%);stroke-opacity:1;stroke-miterlimit:4;" d="M 38.599587 102.10026 C 37.149695 101.992188 35.818876 102.90625 35.399784 104.299479 C 35.099767 105.299479 35.699802 106.5 36.700251 106.39974 C 37.699533 106.299479 37.300287 106.299479 37.399515 106.700521 C 37.49991 107.10026 40.300467 107.60026 40.800108 106.299479 C 41.800557 106.799479 42.900233 105.700521 42.699443 104.60026 C 42.405262 103.248698 41.275233 102.240885 39.900054 102.10026 Z M 35.600575 102.5 C 33.899695 102.5 31.899964 103.200521 31.199533 104.89974 C 30.500269 106.60026 30.800287 106.700521 31.700341 106.799479 C 32.600395 106.89974 32.699623 105.89974 33.200431 106.39974 C 33.700072 106.89974 34.900144 107 35.000539 106.10026 C 34.860453 104.921875 35.265535 103.74349 36.100216 102.89974 C 36.299838 102.60026 35.899425 102.39974 35.600575 102.5 Z M 41.899784 102.60026 C 41.800557 103.10026 42.399425 103.39974 42.600216 103.89974 C 42.799838 104.39974 42.699443 105.700521 43.099856 106.5 C 43.500269 107.299479 44.400323 106.700521 44.899964 106.299479 C 45.399605 105.89974 45.800018 107 46.400054 106.799479 C 47.00009 106.60026 47.100485 105.39974 46.800467 104.799479 C 45.822198 103.130208 43.903017 102.25 42.00018 102.60026 Z M 41.899784 102.60026 " transform="matrix(3.346154,0,0,3,0,0)"/>
<path style=" stroke:none;fill-rule:nonzero;fill:rgb(19.607843%,34.117647%,13.72549%);fill-opacity:1;" d="M 87.335938 256.800781 C 77.296875 258.300781 65.585938 265.800781 65.585938 276.898438 C 65.585938 288 73.28125 298.5 87 304.199219 C 100.71875 309.898438 115.777344 311.101562 130.835938 311.101562 C 145.890625 311.101562 161.621094 309.601562 174.335938 304.199219 C 187.050781 298.800781 195.75 290.398438 195.75 276.898438 C 195.75 263.398438 184.375 258.300781 174 256.800781 Z M 87.335938 256.800781 "/>
<path style=" stroke:none;fill-rule:nonzero;fill:rgb(5.098039%,22.745098%,7.058824%);fill-opacity:1;" d="M 104.066406 257.398438 C 104.066406 257.398438 88.339844 297 137.863281 311.398438 C 137.863281 311.699219 91.351562 312.601562 76.625 298.199219 C 61.902344 283.800781 64.582031 272.101562 71.941406 264.601562 C 79.304688 257.101562 93.359375 255.601562 104.066406 257.398438 Z M 104.066406 257.398438 "/>
<path style="fill:none;stroke-width:0.4;stroke-linecap:round;stroke-linejoin:round;stroke:rgb(0%,0%,0%);stroke-opacity:1;stroke-miterlimit:4;" d="M 26.100395 85.60026 C 23.100216 86.10026 19.600395 88.60026 19.600395 92.299479 C 19.600395 96 22.600575 99.700521 26.700431 101.60026 C 30.800287 103.5 34.600126 103.700521 39.100395 103.700521 C 43.433728 103.808594 47.73671 102.955729 51.699982 101.200521 C 55.799838 99.299479 58.5 96.799479 58.5 92.299479 C 58.5 87.799479 55.100575 86.10026 52 85.60026 Z M 26.100395 85.60026 " transform="matrix(3.346154,0,0,3,0,0)"/>
<path style="fill-rule:nonzero;fill:rgb(81.568627%,60.784314%,2.745098%);fill-opacity:1;stroke-width:0.4;stroke-linecap:round;stroke-linejoin:round;stroke:rgb(0%,0%,0%);stroke-opacity:1;stroke-miterlimit:4;" d="M 20.899695 79.10026 L 57.100305 78.799479 L 54.599767 86.39974 L 39.100395 88.60026 L 23.499461 86.299479 Z M 20.899695 79.10026 " transform="matrix(3.346154,0,0,3,0,0)"/>
<path style="fill-rule:nonzero;fill:rgb(99.607843%,74.901961%,6.27451%);fill-opacity:1;stroke-width:0.3;stroke-linecap:round;stroke-linejoin:round;stroke:rgb(0%,0%,0%);stroke-opacity:1;stroke-miterlimit:4;" d="M 26.799659 84.700521 C 25.917116 85.085938 24.928341 85.15625 24.000269 84.89974 C 23.194774 84.386719 22.59357 83.609375 22.300557 82.700521 C 23.1831 82.313802 24.171875 82.24349 25.099946 82.5 C 25.905442 83.013021 26.506645 83.791667 26.799659 84.700521 Z M 26.799659 84.700521 " transform="matrix(3.346154,0,0,3,0,0)"/>
<path style="fill:none;stroke-width:0.3;stroke-linecap:round;stroke-linejoin:round;stroke:rgb(0%,0%,0%);stroke-opacity:1;stroke-miterlimit:4;" d="M 26.799659 84.700521 L 24.300287 83.60026 " transform="matrix(3.346154,0,0,3,0,0)"/>
<path style="fill-rule:nonzero;fill:rgb(99.607843%,74.901961%,6.27451%);fill-opacity:1;stroke-width:0.3;stroke-linecap:round;stroke-linejoin:round;stroke:rgb(0%,0%,0%);stroke-opacity:1;stroke-miterlimit:4;" d="M 29.799838 85 C 29.016523 85.558594 28.055765 85.807292 27.099677 85.700521 C 26.198455 85.385417 25.448994 84.742188 24.999551 83.89974 C 25.774695 83.322917 26.743624 83.071615 27.699713 83.200521 C 28.600934 83.514323 29.350395 84.157552 29.799838 85 Z M 29.799838 85 " transform="matrix(3.346154,0,0,3,0,0)"/>
<path style="fill:none;stroke-width:0.3;stroke-linecap:round;stroke-linejoin:round;stroke:rgb(0%,0%,0%);stroke-opacity:1;stroke-miterlimit:4;" d="M 29.799838 85 L 27.099677 84.39974 " transform="matrix(3.346154,0,0,3,0,0)"/>
<path style="fill-rule:nonzero;fill:rgb(99.607843%,74.901961%,6.27451%);fill-opacity:1;stroke-width:0.3;stroke-linecap:round;stroke-linejoin:round;stroke:rgb(0%,0%,0%);stroke-opacity:1;stroke-miterlimit:4;" d="M 32.600395 85.5 C 31.81708 86.058594 30.855154 86.307292 29.900233 86.200521 C 29.00018 85.9375 28.243714 85.325521 27.800108 84.5 C 28.523886 83.893229 29.461297 83.605469 30.399874 83.700521 C 31.338452 83.992188 32.127604 84.638021 32.600395 85.5 Z M 32.600395 85.5 " transform="matrix(3.346154,0,0,3,0,0)"/>
<path style="fill:none;stroke-width:0.3;stroke-linecap:round;stroke-linejoin:round;stroke:rgb(0%,0%,0%);stroke-opacity:1;stroke-miterlimit:4;" d="M 32.600395 85.5 L 29.900233 84.89974 " transform="matrix(3.346154,0,0,3,0,0)"/>
<path style="fill-rule:nonzero;fill:rgb(99.607843%,74.901961%,6.27451%);fill-opacity:1;stroke-width:0.3;stroke-linecap:round;stroke-linejoin:round;stroke:rgb(0%,0%,0%);stroke-opacity:1;stroke-miterlimit:4;" d="M 51.399964 84.700521 C 52.24982 85.09375 53.22342 85.128906 54.100126 84.799479 C 54.938308 84.324219 55.551185 83.53125 55.799838 82.60026 C 54.916128 82.200521 53.909842 82.165365 53.000449 82.5 C 52.206627 83.003906 51.634608 83.790365 51.399964 84.700521 Z M 51.399964 84.700521 " transform="matrix(3.346154,0,0,3,0,0)"/>
<path style="fill:none;stroke-width:0.3;stroke-linecap:round;stroke-linejoin:round;stroke:rgb(0%,0%,0%);stroke-opacity:1;stroke-miterlimit:4;" d="M 51.399964 84.700521 L 53.800108 83.5 " transform="matrix(3.346154,0,0,3,0,0)"/>
<path style="fill-rule:nonzero;fill:rgb(99.607843%,74.901961%,6.27451%);fill-opacity:1;stroke-width:0.3;stroke-linecap:round;stroke-linejoin:round;stroke:rgb(0%,0%,0%);stroke-opacity:1;stroke-miterlimit:4;" d="M 48.399784 85 C 49.143409 85.561198 50.074982 85.811198 50.999551 85.700521 C 51.917116 85.414062 52.677083 84.763021 53.099677 83.89974 C 52.356052 83.338542 51.424479 83.088542 50.49991 83.200521 C 49.582346 83.485677 48.823545 84.136719 48.399784 85 Z M 48.399784 85 " transform="matrix(3.346154,0,0,3,0,0)"/>
<path style="fill:none;stroke-width:0.3;stroke-linecap:round;stroke-linejoin:round;stroke:rgb(0%,0%,0%);stroke-opacity:1;stroke-miterlimit:4;" d="M 48.399784 85 L 50.999551 84.39974 " transform="matrix(3.346154,0,0,3,0,0)"/>
<path style="fill-rule:nonzero;fill:rgb(99.607843%,74.901961%,6.27451%);fill-opacity:1;stroke-width:0.3;stroke-linecap:round;stroke-linejoin:round;stroke:rgb(0%,0%,0%);stroke-opacity:1;stroke-miterlimit:4;" d="M 35.699802 85.89974 C 34.953843 86.46224 34.033944 86.744792 33.100036 86.700521 C 32.177802 86.43099 31.392152 85.824219 30.899515 85 C 31.653646 84.377604 32.628412 84.088542 33.599677 84.200521 C 34.499731 84.46224 35.256196 85.075521 35.699802 85.89974 Z M 35.699802 85.89974 " transform="matrix(3.346154,0,0,3,0,0)"/>
<path style="fill:none;stroke-width:0.3;stroke-linecap:round;stroke-linejoin:round;stroke:rgb(0%,0%,0%);stroke-opacity:1;stroke-miterlimit:4;" d="M 35.699802 85.89974 L 33.100036 85.39974 " transform="matrix(3.346154,0,0,3,0,0)"/>
<path style="fill-rule:nonzero;fill:rgb(99.607843%,74.901961%,6.27451%);fill-opacity:1;stroke-width:0.3;stroke-linecap:round;stroke-linejoin:round;stroke:rgb(0%,0%,0%);stroke-opacity:1;stroke-miterlimit:4;" d="M 38.800377 85.89974 C 38.131466 86.563802 37.240751 86.955729 36.299838 87 C 35.351922 86.852865 34.495061 86.352865 33.899695 85.60026 C 34.603628 84.914062 35.521193 84.490885 36.499461 84.39974 C 37.426365 84.596354 38.247037 85.130208 38.800377 85.89974 Z M 38.800377 85.89974 " transform="matrix(3.346154,0,0,3,0,0)"/>
<path style="fill:none;stroke-width:0.3;stroke-linecap:round;stroke-linejoin:round;stroke:rgb(0%,0%,0%);stroke-opacity:1;stroke-miterlimit:4;" d="M 38.800377 85.89974 L 36.100216 85.700521 " transform="matrix(3.346154,0,0,3,0,0)"/>
<path style="fill-rule:nonzero;fill:rgb(99.607843%,74.901961%,6.27451%);fill-opacity:1;stroke-width:0.3;stroke-linecap:round;stroke-linejoin:round;stroke:rgb(0%,0%,0%);stroke-opacity:1;stroke-miterlimit:4;" d="M 45.300377 85.60026 C 46.044001 86.161458 46.975575 86.411458 47.900144 86.299479 C 48.838721 86.007812 49.626706 85.361979 50.099497 84.5 C 49.317349 83.941406 48.355424 83.692708 47.400503 83.799479 C 46.499282 84.114583 45.748653 84.757812 45.300377 85.60026 Z M 45.300377 85.60026 " transform="matrix(3.346154,0,0,3,0,0)"/>
<path style="fill:none;stroke-width:0.3;stroke-linecap:round;stroke-linejoin:round;stroke:rgb(0%,0%,0%);stroke-opacity:1;stroke-miterlimit:4;" d="M 45.300377 85.60026 L 47.900144 85 " transform="matrix(3.346154,0,0,3,0,0)"/>
<path style="fill-rule:nonzero;fill:rgb(99.607843%,74.901961%,6.27451%);fill-opacity:1;stroke-width:0.3;stroke-linecap:round;stroke-linejoin:round;stroke:rgb(0%,0%,0%);stroke-opacity:1;stroke-miterlimit:4;" d="M 42.00018 85.799479 C 42.75431 86.429688 43.71857 86.751302 44.700341 86.700521 C 45.601562 86.393229 46.375539 85.794271 46.899695 85 C 46.132723 84.394531 45.177802 84.076823 44.199533 84.10026 C 43.298312 84.407552 42.524335 85.005208 42.00018 85.799479 Z M 42.00018 85.799479 " transform="matrix(3.346154,0,0,3,0,0)"/>
<path style="fill:none;stroke-width:0.3;stroke-linecap:round;stroke-linejoin:round;stroke:rgb(0%,0%,0%);stroke-opacity:1;stroke-miterlimit:4;" d="M 42.00018 85.799479 L 44.700341 85.299479 " transform="matrix(3.346154,0,0,3,0,0)"/>
<path style="fill-rule:nonzero;fill:rgb(99.607843%,74.901961%,6.27451%);fill-opacity:1;stroke-width:0.3;stroke-linecap:round;stroke-linejoin:round;stroke:rgb(0%,0%,0%);stroke-opacity:1;stroke-miterlimit:4;" d="M 38.899605 85.799479 C 39.598869 86.477865 40.52694 86.871094 41.500539 86.89974 C 42.426275 86.769531 43.258621 86.263021 43.800287 85.5 C 43.150054 84.809896 42.247665 84.41276 41.299749 84.39974 C 40.364673 84.580729 39.518319 85.074219 38.899605 85.799479 Z M 38.899605 85.799479 " transform="matrix(3.346154,0,0,3,0,0)"/>
<path style="fill:none;stroke-width:0.3;stroke-linecap:round;stroke-linejoin:round;stroke:rgb(0%,0%,0%);stroke-opacity:1;stroke-miterlimit:4;" d="M 38.899605 85.799479 L 41.599767 85.60026 " transform="matrix(3.346154,0,0,3,0,0)"/>
<path style="fill-rule:nonzero;fill:rgb(0%,39.607843%,71.764706%);fill-opacity:1;stroke-width:0.4;stroke-linecap:round;stroke-linejoin:round;stroke:rgb(0%,0%,0%);stroke-opacity:1;stroke-miterlimit:4;" d="M 41.299749 88 L 40.800108 88 L 35.899425 84 C 35.709142 83.80599 35.709142 83.494792 35.899425 83.299479 C 36.159752 83.082031 36.54032 83.082031 36.799479 83.299479 L 41.599767 87.200521 C 41.725844 87.294271 41.800557 87.442708 41.800557 87.60026 C 41.800557 87.757812 41.725844 87.904948 41.599767 88 Z M 41.299749 88 " transform="matrix(3.346154,0,0,3,0,0)"/>
<path style="fill-rule:nonzero;fill:rgb(0%,39.607843%,71.764706%);fill-opacity:1;stroke-width:0.4;stroke-linecap:round;stroke-linejoin:round;stroke:rgb(0%,0%,0%);stroke-opacity:1;stroke-miterlimit:4;" d="M 36.599856 88.200521 L 36.199443 88.200521 C 36.009159 88.005208 36.009159 87.69401 36.199443 87.5 L 40.600485 83.799479 C 40.860812 83.582031 41.240212 83.582031 41.500539 83.799479 C 41.703664 84.027344 41.703664 84.372396 41.500539 84.60026 L 37.099497 88.200521 C 36.899874 88.200521 36.799479 88.299479 36.599856 88.200521 Z M 36.599856 88.200521 " transform="matrix(3.346154,0,0,3,0,0)"/>
<path style=" stroke:none;fill-rule:nonzero;fill:rgb(100%,0%,0%);fill-opacity:1;" d="M 191.066406 236.398438 C 191.066406 245.398438 163.960938 252.898438 130.5 252.898438 C 97.039062 252.898438 69.933594 245.398438 69.933594 236.398438 C 69.933594 227.101562 97.039062 219.601562 130.5 219.601562 C 163.960938 219.601562 191.066406 227.101562 191.066406 236.398438 Z M 191.066406 236.398438 "/>
<path style=" stroke:none;fill-rule:nonzero;fill:rgb(59.607843%,3.137255%,1.960784%);fill-opacity:1;" d="M 86.664062 232.5 C 86.664062 232.5 133.175781 248.398438 173.332031 232.199219 C 173.664062 232.5 176.675781 231 178.015625 234.601562 C 179.355469 238.199219 169.316406 244.800781 141.542969 244.800781 C 113.769531 244.800781 95.699219 243.601562 89.675781 241.199219 C 83.652344 238.800781 78.300781 236.398438 86.664062 232.5 Z M 86.664062 232.5 "/>
<path style="fill:none;stroke-width:0.4;stroke-linecap:round;stroke-linejoin:round;stroke:rgb(0%,0%,0%);stroke-opacity:1;stroke-miterlimit:4;" d="M 57.100305 78.799479 C 57.100305 81.799479 48.99982 84.299479 39 84.299479 C 29.00018 84.299479 20.899695 81.799479 20.899695 78.799479 C 20.899695 75.700521 29.00018 73.200521 39 73.200521 C 48.99982 73.200521 57.100305 75.700521 57.100305 78.799479 Z M 57.100305 78.799479 " transform="matrix(3.346154,0,0,3,0,0)"/>
<path style="fill:none;stroke-width:0.4;stroke-linecap:round;stroke-linejoin:round;stroke:rgb(0%,0%,0%);stroke-opacity:1;stroke-miterlimit:4;" d="M 52.100395 77.5 C 52.799659 77.89974 53.200072 78.299479 53.200072 78.700521 C 53.200072 80.299479 46.800467 81.700521 39 81.700521 C 31.199533 81.700521 24.799928 80.299479 24.799928 78.700521 C 24.799928 78.299479 25.200341 77.89974 25.899605 77.5 M 20.599677 91.200521 C 18.100305 91.299479 19.399605 104.299479 39 103.700521 L 39.100395 103.700521 C 58.800018 104.299479 60.00009 91.299479 57.599946 91.200521 L 57.299928 91.200521 C 56.800287 91.299479 56.500269 91.799479 56.299479 92.5 C 56.157058 92.027344 55.688937 91.729167 55.199802 91.799479 C 54.400144 92 54.200521 92.700521 53.999731 93.700521 C 53.953035 93.30599 53.741739 92.950521 53.417205 92.721354 C 53.092672 92.492188 52.686422 92.41276 52.300018 92.5 C 51.399964 92.700521 51.099946 93.5 50.799928 94.60026 C 50.774246 94.148438 50.569953 93.726562 50.232579 93.425781 C 49.894037 93.126302 49.451598 92.972656 48.99982 93 C 47.882633 92.869792 46.84833 93.602865 46.599677 94.700521 C 46.365032 93.738281 45.489494 93.071615 44.499551 93.10026 C 43.152389 93.084635 42.00018 94.066406 41.800557 95.39974 C 41.77254 93.908854 40.540948 92.722656 39.050198 92.75 C 37.558279 92.777344 36.372216 94.009115 36.400233 95.5 C 35.899425 94.10026 35.200162 93.10026 33.599677 93.10026 C 32.620241 93.036458 31.752874 93.730469 31.599946 94.700521 C 31.273078 93.613281 30.230603 92.904948 29.100575 93 C 28.632453 92.972656 28.173671 93.139323 27.832795 93.460938 C 27.491918 93.782552 27.2993 94.231771 27.300467 94.700521 C 27.000449 93.60026 26.700431 92.799479 25.800377 92.60026 C 25.420977 92.464844 24.999551 92.529948 24.67852 92.770833 C 24.356322 93.011719 24.176545 93.398438 24.199892 93.799479 C 24.000269 92.799479 23.700251 92.10026 22.899425 91.89974 C 22.410291 91.829427 21.943337 92.126302 21.799749 92.60026 C 21.600126 91.89974 21.400503 91.39974 20.800467 91.299479 Z M 20.599677 91.200521 " transform="matrix(3.346154,0,0,3,0,0)"/>
<path style="fill-rule:nonzero;fill:rgb(100%,0%,0%);fill-opacity:1;stroke-width:0.4;stroke-linecap:round;stroke-linejoin:round;stroke:rgb(0%,0%,0%);stroke-opacity:1;stroke-miterlimit:4;" d="M 20.800467 91.299479 C 17.99991 90.39974 18.700341 104.39974 39.100395 103.700521 C 17.800287 101.89974 23.899874 92.200521 20.800467 91.299479 Z M 20.800467 91.299479 " transform="matrix(3.346154,0,0,3,0,0)"/>
<path style="fill-rule:nonzero;fill:rgb(100%,0%,0%);fill-opacity:1;stroke-width:0.4;stroke-linecap:round;stroke-linejoin:round;stroke:rgb(0%,0%,0%);stroke-opacity:1;stroke-miterlimit:4;" d="M 22.899425 91.89974 C 19.900413 91.10026 21.100485 103.799479 39.100395 103.700521 C 20.700072 102.10026 26.100395 92.799479 22.899425 91.89974 Z M 22.899425 91.89974 " transform="matrix(3.346154,0,0,3,0,0)"/>
<path style="fill-rule:nonzero;fill:rgb(100%,0%,0%);fill-opacity:1;stroke-width:0.4;stroke-linecap:round;stroke-linejoin:round;stroke:rgb(0%,0%,0%);stroke-opacity:1;stroke-miterlimit:4;" d="M 25.800377 92.60026 C 22.000539 91.700521 24.099497 103.799479 39.100395 103.700521 C 24.49991 100.39974 29.00018 93.299479 25.800377 92.60026 Z M 25.800377 92.60026 " transform="matrix(3.346154,0,0,3,0,0)"/>
<path style="fill-rule:nonzero;fill:rgb(100%,0%,0%);fill-opacity:1;stroke-width:0.4;stroke-linecap:round;stroke-linejoin:round;stroke:rgb(0%,0%,0%);stroke-opacity:1;stroke-miterlimit:4;" d="M 29.100575 93 C 25.099946 93 27.300467 101.89974 39.100395 103.700521 C 29.900233 100 33.599677 93 29.100575 93 Z M 29.100575 93 " transform="matrix(3.346154,0,0,3,0,0)"/>
<path style="fill-rule:nonzero;fill:rgb(100%,0%,0%);fill-opacity:1;stroke-width:0.4;stroke-linecap:round;stroke-linejoin:round;stroke:rgb(0%,0%,0%);stroke-opacity:1;stroke-miterlimit:4;" d="M 33.599677 93.10026 C 29.600216 93.10026 31.199533 101.60026 39.100395 103.700521 C 35.899425 100.10026 37.900323 93.10026 33.599677 93.10026 Z M 33.599677 93.10026 " transform="matrix(3.346154,0,0,3,0,0)"/>
<path style="fill-rule:nonzero;fill:rgb(100%,0%,0%);fill-opacity:1;stroke-width:0.4;stroke-linecap:round;stroke-linejoin:round;stroke:rgb(0%,0%,0%);stroke-opacity:1;stroke-miterlimit:4;" d="M 57.299928 91.299479 C 60.100485 90.39974 59.400054 104.39974 39 103.700521 C 60.300108 101.89974 54.200521 92.200521 57.299928 91.299479 Z M 57.299928 91.299479 " transform="matrix(3.346154,0,0,3,0,0)"/>
<path style="fill-rule:nonzero;fill:rgb(100%,0%,0%);fill-opacity:1;stroke-width:0.4;stroke-linecap:round;stroke-linejoin:round;stroke:rgb(0%,0%,0%);stroke-opacity:1;stroke-miterlimit:4;" d="M 55.199802 91.89974 C 58.199982 91.10026 56.99991 103.799479 39 103.700521 C 57.400323 102.10026 52.100395 92.799479 55.199802 91.89974 Z M 55.199802 91.89974 " transform="matrix(3.346154,0,0,3,0,0)"/>
<path style="fill-rule:nonzero;fill:rgb(100%,0%,0%);fill-opacity:1;stroke-width:0.4;stroke-linecap:round;stroke-linejoin:round;stroke:rgb(0%,0%,0%);stroke-opacity:1;stroke-miterlimit:4;" d="M 52.300018 92.60026 C 56.099856 91.700521 53.999731 103.799479 39 103.700521 C 53.600485 100.39974 49.199443 93.299479 52.300018 92.60026 Z M 52.300018 92.60026 " transform="matrix(3.346154,0,0,3,0,0)"/>
<path style="fill-rule:nonzero;fill:rgb(100%,0%,0%);fill-opacity:1;stroke-width:0.4;stroke-linecap:round;stroke-linejoin:round;stroke:rgb(0%,0%,0%);stroke-opacity:1;stroke-miterlimit:4;" d="M 48.99982 93 C 53.000449 93 50.900323 101.89974 39 103.700521 C 48.300557 100 44.499551 93 48.99982 93 Z M 48.99982 93 " transform="matrix(3.346154,0,0,3,0,0)"/>
<path style="fill-rule:nonzero;fill:rgb(100%,0%,0%);fill-opacity:1;stroke-width:0.4;stroke-linecap:round;stroke-linejoin:round;stroke:rgb(0%,0%,0%);stroke-opacity:1;stroke-miterlimit:4;" d="M 44.499551 93.10026 C 48.50018 93.10026 47.00009 101.60026 39 103.700521 C 42.199802 100.10026 40.200072 93.10026 44.499551 93.10026 Z M 44.499551 93.10026 " transform="matrix(3.346154,0,0,3,0,0)"/>
<path style="fill-rule:nonzero;fill:rgb(100%,0%,0%);fill-opacity:1;stroke-width:0.4;stroke-linecap:round;stroke-linejoin:round;stroke:rgb(0%,0%,0%);stroke-opacity:1;stroke-miterlimit:4;" d="M 39.100395 93.10026 C 35.099767 93.10026 35.50018 100.10026 39.100395 103.700521 C 42.699443 100.10026 43.099856 93.10026 39.100395 93.10026 Z M 39.100395 93.10026 " transform="matrix(3.346154,0,0,3,0,0)"/>
<path style=" stroke:none;fill-rule:nonzero;fill:rgb(0%,39.607843%,71.764706%);fill-opacity:1;" d="M 134.179688 380.398438 C 114.214844 380.535156 94.277344 379.027344 74.621094 375.898438 C 70.8125 375.449219 67.625 373.089844 66.410156 369.824219 C 65.195312 366.558594 66.164062 362.957031 68.90625 360.546875 C 71.652344 358.140625 75.6875 357.34375 79.304688 358.5 C 89.34375 360.601562 142.546875 366.300781 181.363281 358.5 C 183.980469 357.964844 186.730469 358.394531 188.996094 359.691406 C 191.257812 360.988281 192.847656 363.042969 193.40625 365.398438 C 194.667969 370.199219 191.386719 375.015625 186.046875 376.199219 C 168.976562 379.261719 151.585938 380.667969 134.179688 380.398438 Z M 134.179688 380.398438 "/>
<path style=" stroke:none;fill-rule:nonzero;fill:rgb(19.607843%,34.117647%,13.72549%);fill-opacity:1;" d="M 193.40625 364.199219 C 193.742188 364.800781 193.40625 364.800781 193.40625 365.398438 C 194.667969 370.199219 191.386719 375.015625 186.046875 376.199219 C 168.976562 379.261719 151.585938 380.667969 134.179688 380.398438 C 114.214844 380.535156 94.277344 379.027344 74.621094 375.898438 C 69.28125 374.714844 65.996094 369.898438 67.257812 365.101562 C 67.59375 364.5 67.257812 364.800781 67.59375 364.199219 L 85.996094 366.898438 L 112.765625 369 L 131.839844 369.601562 L 148.902344 369.601562 L 171.65625 368.101562 Z M 193.40625 364.199219 "/>
<path style="fill:none;stroke-width:0.4;stroke-linecap:round;stroke-linejoin:round;stroke:rgb(0%,0%,0%);stroke-opacity:1;stroke-miterlimit:4;" d="M 40.099677 126.799479 C 34.133172 126.845052 28.174838 126.342448 22.300557 125.299479 C 21.162356 125.14974 20.20977 124.363281 19.846713 123.27474 C 19.483657 122.186198 19.773168 120.985677 20.592672 120.182292 C 21.413344 119.380208 22.619253 119.114583 23.700251 119.5 C 26.700431 120.200521 42.600216 122.10026 54.200521 119.5 C 54.982669 119.321615 55.804508 119.464844 56.481591 119.897135 C 57.157507 120.329427 57.632633 121.014323 57.799569 121.799479 C 58.176634 123.39974 57.196031 125.005208 55.600216 125.39974 C 50.498743 126.420573 45.301545 126.889323 40.099677 126.799479 Z M 40.099677 126.799479 " transform="matrix(3.346154,0,0,3,0,0)"/>
<path style="fill-rule:nonzero;fill:rgb(59.607843%,3.137255%,1.960784%);fill-opacity:1;stroke-width:0.4;stroke-linecap:round;stroke-linejoin:round;stroke:rgb(0%,0%,0%);stroke-opacity:1;stroke-miterlimit:4;" d="M 39.100395 95.10026 C 36.599856 95.10026 36.899874 100.700521 39.100395 103.5 C 41.400144 100.700521 41.599767 95.10026 39.100395 95.10026 Z M 39.100395 95.10026 " transform="matrix(3.346154,0,0,3,0,0)"/>
<path style="fill-rule:nonzero;fill:rgb(99.607843%,74.901961%,6.27451%);fill-opacity:1;stroke-width:0.4;stroke-linecap:round;stroke-linejoin:round;stroke:rgb(0%,0%,0%);stroke-opacity:1;stroke-miterlimit:4;" d="M 23.100216 85 C 22.646103 84.979167 22.235183 85.266927 22.099767 85.700521 C 22.04023 85.927083 22.083423 86.169271 22.21884 86.361979 C 22.353089 86.554688 22.565553 86.678385 22.800198 86.700521 C 26.700431 88.10026 33.200431 88.89974 38.800377 88.89974 L 39.400413 88.89974 C 45.000359 88.89974 51.399964 88.10026 55.399425 86.700521 C 55.858208 86.60026 56.162895 86.165365 56.099856 85.700521 C 55.925916 85.251302 55.479975 84.967448 55.00018 85 L 54.599767 85 C 51.099946 86.200521 44.499551 87 39.100395 87 C 33.700072 87 27.000449 86.200521 23.599856 85 Z M 23.799479 117.799479 C 23.561333 117.772135 23.320851 117.841146 23.132902 117.990885 C 22.944953 118.141927 22.824713 118.360677 22.800198 118.60026 C 22.77218 118.838542 22.841056 119.079427 22.991649 119.266927 C 23.141074 119.454427 23.360542 119.575521 23.599856 119.60026 C 28.727011 120.407552 33.910201 120.808594 39.100395 120.799479 C 44.289422 120.799479 49.471444 120.398438 54.599767 119.60026 C 55.072557 119.503906 55.409932 119.083333 55.399425 118.60026 C 55.27218 118.147135 54.8706 117.825521 54.400144 117.799479 L 54.200521 117.799479 C 49.206448 118.604167 44.157507 119.005208 39.100395 119 C 34.009429 119.001302 28.926634 118.60026 23.899874 117.799479 Z M 23.799479 117.799479 " transform="matrix(3.346154,0,0,3,0,0)"/>
<path style="fill-rule:nonzero;fill:rgb(99.607843%,74.901961%,6.27451%);fill-opacity:1;stroke-width:0.4;stroke-linecap:round;stroke-linejoin:round;stroke:rgb(0%,0%,0%);stroke-opacity:1;stroke-miterlimit:4;" d="M 20.299659 88.60026 C 20.299659 90.25651 18.957166 91.60026 17.299479 91.60026 C 15.64296 91.60026 14.300467 90.25651 14.300467 88.60026 C 14.300467 86.942708 15.64296 85.60026 17.299479 85.60026 C 18.957166 85.60026 20.299659 86.942708 20.299659 88.60026 Z M 20.299659 88.60026 " transform="matrix(3.346154,0,0,3,0,0)"/>
<path style="fill:none;stroke-width:0.4;stroke-linecap:round;stroke-linejoin:round;stroke:rgb(0%,0%,0%);stroke-opacity:1;stroke-miterlimit:4;" d="M 17.200251 89.700521 C 16.592044 89.700521 16.100575 89.207031 16.100575 88.60026 C 16.100575 87.992188 16.592044 87.5 17.200251 87.5 " transform="matrix(3.346154,0,0,3,0,0)"/>
<path style="fill-rule:nonzero;fill:rgb(99.607843%,74.901961%,6.27451%);fill-opacity:1;stroke-width:0.4;stroke-linecap:round;stroke-linejoin:round;stroke:rgb(0%,0%,0%);stroke-opacity:1;stroke-miterlimit:4;" d="M 63.699533 88.60026 C 63.699533 90.25651 62.35704 91.60026 60.700521 91.60026 C 59.042834 91.60026 57.700341 90.25651 57.700341 88.60026 C 57.700341 86.942708 59.042834 85.60026 60.700521 85.60026 C 62.35704 85.60026 63.699533 86.942708 63.699533 88.60026 Z M 63.699533 88.60026 " transform="matrix(3.346154,0,0,3,0,0)"/>
<path style="fill:none;stroke-width:0.4;stroke-linecap:round;stroke-linejoin:round;stroke:rgb(0%,0%,0%);stroke-opacity:1;stroke-miterlimit:4;" d="M 60.499731 89.700521 C 59.89269 89.700521 59.400054 89.207031 59.400054 88.60026 C 59.400054 87.992188 59.89269 87.5 60.499731 87.5 " transform="matrix(3.346154,0,0,3,0,0)"/>
<path style=" stroke:none;fill-rule:nonzero;fill:rgb(99.607843%,74.901961%,6.27451%);fill-opacity:1;" d="M 135.519531 378.300781 C 113.667969 378.4375 91.839844 376.929688 70.269531 373.800781 C 69.820312 373.726562 69.425781 373.496094 69.171875 373.15625 C 68.917969 372.816406 68.832031 372.398438 68.929688 372 C 69.226562 371.242188 70.046875 370.753906 70.9375 370.800781 C 83.320312 373.199219 143.882812 379.5 189.058594 371.398438 C 190.0625 371.101562 191.066406 371.699219 191.066406 372.300781 C 191.328125 372.695312 191.3125 373.195312 191.027344 373.578125 C 190.742188 373.960938 190.238281 374.164062 189.726562 374.101562 C 171.867188 377.171875 153.703125 378.578125 135.519531 378.300781 Z M 135.519531 378.300781 "/>
<path style="fill-rule:nonzero;fill:rgb(99.607843%,74.901961%,6.27451%);fill-opacity:1;stroke-width:0.3;stroke-linecap:round;stroke-linejoin:round;stroke:rgb(0%,0%,0%);stroke-opacity:1;stroke-miterlimit:4;" d="M 22.800198 123.60026 C 22.800198 124.207031 22.307561 124.700521 21.700521 124.700521 C 21.092313 124.700521 20.599677 124.207031 20.599677 123.60026 C 20.599677 122.992188 21.092313 122.5 21.700521 122.5 C 22.307561 122.5 22.800198 122.992188 22.800198 123.60026 Z M 22.800198 123.60026 " transform="matrix(3.346154,0,0,3,0,0)"/>
<path style=" stroke:none;fill-rule:nonzero;fill:rgb(0%,0%,0%);fill-opacity:1;" d="M 73.949219 370.800781 C 73.949219 371.460938 73.351562 372 72.613281 372 C 71.871094 372 71.273438 371.460938 71.273438 370.800781 C 71.273438 370.136719 71.871094 369.601562 72.613281 369.601562 C 73.351562 369.601562 73.949219 370.136719 73.949219 370.800781 Z M 73.949219 370.800781 "/>
<path style="fill-rule:nonzero;fill:rgb(99.607843%,74.901961%,6.27451%);fill-opacity:1;stroke-width:0.4;stroke-linecap:round;stroke-linejoin:round;stroke:rgb(0%,0%,0%);stroke-opacity:1;stroke-miterlimit:4;" d="M 40.600485 127.299479 C 34.036279 127.338542 27.481412 126.83724 21.00009 125.799479 C 20.765445 125.688802 20.612518 125.458333 20.599677 125.200521 C 20.700072 124.89974 21.00009 124.700521 21.199713 124.799479 C 24.900323 125.60026 43.099856 127.60026 56.699892 124.89974 C 56.832974 124.871094 56.971893 124.897135 57.085129 124.972656 C 57.198366 125.048177 57.275413 125.166667 57.299928 125.299479 C 57.400323 125.60026 57.199533 125.799479 56.899515 125.89974 C 51.52254 126.875 46.065014 127.34375 40.600485 127.299479 Z M 40.600485 127.299479 " transform="matrix(3.346154,0,0,3,0,0)"/>
<path style="fill-rule:nonzero;fill:rgb(99.607843%,74.901961%,6.27451%);fill-opacity:1;stroke-width:0.3;stroke-linecap:round;stroke-linejoin:round;stroke:rgb(0%,0%,0%);stroke-opacity:1;stroke-miterlimit:4;" d="M 24.999551 124 C 24.999551 124.608073 24.508082 125.10026 23.899874 125.10026 C 23.292834 125.10026 22.800198 124.608073 22.800198 124 C 22.800198 123.391927 23.292834 122.89974 23.899874 122.89974 C 24.508082 122.89974 24.999551 123.391927 24.999551 124 Z M 24.999551 124 " transform="matrix(3.346154,0,0,3,0,0)"/>
<path style=" stroke:none;fill-rule:nonzero;fill:rgb(0%,0%,0%);fill-opacity:1;" d="M 81.3125 372 C 81.3125 372.664062 80.710938 373.199219 79.972656 373.199219 C 79.234375 373.199219 78.632812 372.664062 78.632812 372 C 78.632812 371.335938 79.234375 370.800781 79.972656 370.800781 C 80.710938 370.800781 81.3125 371.335938 81.3125 372 Z M 81.3125 372 "/>
<path style="fill-rule:nonzero;fill:rgb(99.607843%,74.901961%,6.27451%);fill-opacity:1;stroke-width:0.3;stroke-linecap:round;stroke-linejoin:round;stroke:rgb(0%,0%,0%);stroke-opacity:1;stroke-miterlimit:4;" d="M 27.399695 124.200521 C 27.399695 124.807292 26.907058 125.299479 26.300018 125.299479 C 25.692978 125.299479 25.200341 124.807292 25.200341 124.200521 C 25.200341 123.592448 25.692978 123.10026 26.300018 123.10026 C 26.907058 123.10026 27.399695 123.592448 27.399695 124.200521 Z M 27.399695 124.200521 " transform="matrix(3.346154,0,0,3,0,0)"/>
<path style=" stroke:none;fill-rule:nonzero;fill:rgb(0%,0%,0%);fill-opacity:1;" d="M 89.34375 372.601562 C 89.34375 373.261719 88.742188 373.800781 88.003906 373.800781 C 87.265625 373.800781 86.664062 373.261719 86.664062 372.601562 C 86.664062 371.9375 87.265625 371.398438 88.003906 371.398438 C 88.742188 371.398438 89.34375 371.9375 89.34375 372.601562 Z M 89.34375 372.601562 "/>
<path style="fill-rule:nonzero;fill:rgb(99.607843%,74.901961%,6.27451%);fill-opacity:1;stroke-width:0.3;stroke-linecap:round;stroke-linejoin:round;stroke:rgb(0%,0%,0%);stroke-opacity:1;stroke-miterlimit:4;" d="M 29.600216 124.39974 C 29.600216 125.007812 29.107579 125.5 28.500539 125.5 C 27.892331 125.5 27.399695 125.007812 27.399695 124.39974 C 27.399695 123.792969 27.892331 123.299479 28.500539 123.299479 C 29.107579 123.299479 29.600216 123.792969 29.600216 124.39974 Z M 29.600216 124.39974 " transform="matrix(3.346154,0,0,3,0,0)"/>
<path style=" stroke:none;fill-rule:nonzero;fill:rgb(0%,0%,0%);fill-opacity:1;" d="M 96.703125 373.199219 C 96.703125 373.863281 96.105469 374.398438 95.367188 374.398438 C 94.625 374.398438 94.027344 373.863281 94.027344 373.199219 C 94.027344 372.539062 94.625 372 95.367188 372 C 96.105469 372 96.703125 372.539062 96.703125 373.199219 Z M 96.703125 373.199219 "/>
<path style="fill-rule:nonzero;fill:rgb(99.607843%,74.901961%,6.27451%);fill-opacity:1;stroke-width:0.3;stroke-linecap:round;stroke-linejoin:round;stroke:rgb(0%,0%,0%);stroke-opacity:1;stroke-miterlimit:4;" d="M 32.000359 124.700521 C 32.000359 125.307292 31.507723 125.799479 30.899515 125.799479 C 30.292475 125.799479 29.799838 125.307292 29.799838 124.700521 C 29.799838 124.092448 30.292475 123.60026 30.899515 123.60026 C 31.507723 123.60026 32.000359 124.092448 32.000359 124.700521 Z M 32.000359 124.700521 " transform="matrix(3.346154,0,0,3,0,0)"/>
<path style=" stroke:none;fill-rule:nonzero;fill:rgb(0%,0%,0%);fill-opacity:1;" d="M 104.734375 374.101562 C 104.734375 374.761719 104.136719 375.300781 103.394531 375.300781 C 102.65625 375.300781 102.058594 374.761719 102.058594 374.101562 C 102.058594 373.4375 102.65625 372.898438 103.394531 372.898438 C 104.136719 372.898438 104.734375 373.4375 104.734375 374.101562 Z M 104.734375 374.101562 "/>
<path style="fill-rule:nonzero;fill:rgb(99.607843%,74.901961%,6.27451%);fill-opacity:1;stroke-width:0.3;stroke-linecap:round;stroke-linejoin:round;stroke:rgb(0%,0%,0%);stroke-opacity:1;stroke-miterlimit:4;" d="M 34.300108 124.799479 C 34.300108 125.407552 33.807471 125.89974 33.200431 125.89974 C 32.592223 125.89974 32.099587 125.407552 32.099587 124.799479 C 32.099587 124.192708 32.592223 123.700521 33.200431 123.700521 C 33.807471 123.700521 34.300108 124.192708 34.300108 124.799479 Z M 34.300108 124.799479 " transform="matrix(3.346154,0,0,3,0,0)"/>
<path style=" stroke:none;fill-rule:nonzero;fill:rgb(0%,0%,0%);fill-opacity:1;" d="M 112.429688 374.398438 C 112.429688 375.0625 111.832031 375.601562 111.09375 375.601562 C 110.351562 375.601562 109.753906 375.0625 109.753906 374.398438 C 109.753906 373.738281 110.351562 373.199219 111.09375 373.199219 C 111.832031 373.199219 112.429688 373.738281 112.429688 374.398438 Z M 112.429688 374.398438 "/>
<path style="fill-rule:nonzero;fill:rgb(99.607843%,74.901961%,6.27451%);fill-opacity:1;stroke-width:0.3;stroke-linecap:round;stroke-linejoin:round;stroke:rgb(0%,0%,0%);stroke-opacity:1;stroke-miterlimit:4;" d="M 36.599856 124.89974 C 36.599856 125.507812 36.10722 126 35.50018 126 C 34.891972 126 34.400503 125.507812 34.400503 124.89974 C 34.400503 124.292969 34.891972 123.799479 35.50018 123.799479 C 36.10722 123.799479 36.599856 124.292969 36.599856 124.89974 Z M 36.599856 124.89974 " transform="matrix(3.346154,0,0,3,0,0)"/>
<path style=" stroke:none;fill-rule:nonzero;fill:rgb(0%,0%,0%);fill-opacity:1;" d="M 120.125 374.699219 C 120.125 375.363281 119.527344 375.898438 118.789062 375.898438 C 118.050781 375.898438 117.449219 375.363281 117.449219 374.699219 C 117.449219 374.039062 118.050781 373.5 118.789062 373.5 C 119.527344 373.5 120.125 374.039062 120.125 374.699219 Z M 120.125 374.699219 "/>
<path style="fill-rule:nonzero;fill:rgb(99.607843%,74.901961%,6.27451%);fill-opacity:1;stroke-width:0.3;stroke-linecap:round;stroke-linejoin:round;stroke:rgb(0%,0%,0%);stroke-opacity:1;stroke-miterlimit:4;" d="M 39 124.89974 C 39 125.507812 38.507364 126 37.900323 126 C 37.292116 126 36.799479 125.507812 36.799479 124.89974 C 36.799479 124.292969 37.292116 123.799479 37.900323 123.799479 C 38.507364 123.799479 39 124.292969 39 124.89974 Z M 39 124.89974 " transform="matrix(3.346154,0,0,3,0,0)"/>
<path style=" stroke:none;fill-rule:nonzero;fill:rgb(0%,0%,0%);fill-opacity:1;" d="M 128.15625 374.699219 C 128.15625 375.363281 127.558594 375.898438 126.820312 375.898438 C 126.078125 375.898438 125.480469 375.363281 125.480469 374.699219 C 125.480469 374.039062 126.078125 373.5 126.820312 373.5 C 127.558594 373.5 128.15625 374.039062 128.15625 374.699219 Z M 128.15625 374.699219 "/>
<path style="fill-rule:nonzero;fill:rgb(99.607843%,74.901961%,6.27451%);fill-opacity:1;stroke-width:0.3;stroke-linecap:round;stroke-linejoin:round;stroke:rgb(0%,0%,0%);stroke-opacity:1;stroke-miterlimit:4;" d="M 41.299749 125 C 41.299749 125.608073 40.807112 126.10026 40.200072 126.10026 C 39.593032 126.10026 39.100395 125.608073 39.100395 125 C 39.100395 124.391927 39.593032 123.89974 40.200072 123.89974 C 40.807112 123.89974 41.299749 124.391927 41.299749 125 Z M 41.299749 125 " transform="matrix(3.346154,0,0,3,0,0)"/>
<path style=" stroke:none;fill-rule:nonzero;fill:rgb(0%,0%,0%);fill-opacity:1;" d="M 135.855469 375 C 135.855469 375.664062 135.253906 376.199219 134.515625 376.199219 C 133.777344 376.199219 133.175781 375.664062 133.175781 375 C 133.175781 374.335938 133.777344 373.800781 134.515625 373.800781 C 135.253906 373.800781 135.855469 374.335938 135.855469 375 Z M 135.855469 375 "/>
<path style="fill-rule:nonzero;fill:rgb(99.607843%,74.901961%,6.27451%);fill-opacity:1;stroke-width:0.3;stroke-linecap:round;stroke-linejoin:round;stroke:rgb(0%,0%,0%);stroke-opacity:1;stroke-miterlimit:4;" d="M 43.599497 124.89974 C 43.599497 125.507812 43.108028 126 42.49982 126 C 41.89278 126 41.400144 125.507812 41.400144 124.89974 C 41.400144 124.292969 41.89278 123.799479 42.49982 123.799479 C 43.108028 123.799479 43.599497 124.292969 43.599497 124.89974 Z M 43.599497 124.89974 " transform="matrix(3.346154,0,0,3,0,0)"/>
<path style=" stroke:none;fill-rule:nonzero;fill:rgb(0%,0%,0%);fill-opacity:1;" d="M 143.550781 374.699219 C 143.550781 375.363281 142.949219 375.898438 142.210938 375.898438 C 141.472656 375.898438 140.875 375.363281 140.875 374.699219 C 140.875 374.039062 141.472656 373.5 142.210938 373.5 C 142.949219 373.5 143.550781 374.039062 143.550781 374.699219 Z M 143.550781 374.699219 "/>
<path style="fill-rule:nonzero;fill:rgb(99.607843%,74.901961%,6.27451%);fill-opacity:1;stroke-width:0.3;stroke-linecap:round;stroke-linejoin:round;stroke:rgb(0%,0%,0%);stroke-opacity:1;stroke-miterlimit:4;" d="M 57.199533 123.799479 C 57.199533 124.407552 56.708064 124.89974 56.099856 124.89974 C 55.492816 124.89974 55.00018 124.407552 55.00018 123.799479 C 55.00018 123.192708 55.492816 122.700521 56.099856 122.700521 C 56.708064 122.700521 57.199533 123.192708 57.199533 123.799479 Z M 57.199533 123.799479 " transform="matrix(3.346154,0,0,3,0,0)"/>
<path style=" stroke:none;fill-rule:nonzero;fill:rgb(0%,0%,0%);fill-opacity:1;" d="M 189.058594 371.398438 C 189.058594 372.0625 188.457031 372.601562 187.71875 372.601562 C 186.980469 372.601562 186.378906 372.0625 186.378906 371.398438 C 186.378906 370.738281 186.980469 370.199219 187.71875 370.199219 C 188.457031 370.199219 189.058594 370.738281 189.058594 371.398438 Z M 189.058594 371.398438 "/>
<path style="fill-rule:nonzero;fill:rgb(99.607843%,74.901961%,6.27451%);fill-opacity:1;stroke-width:0.3;stroke-linecap:round;stroke-linejoin:round;stroke:rgb(0%,0%,0%);stroke-opacity:1;stroke-miterlimit:4;" d="M 55.00018 124.10026 C 55.00018 124.707031 54.507543 125.200521 53.900503 125.200521 C 53.292295 125.200521 52.799659 124.707031 52.799659 124.10026 C 52.799659 123.492188 53.292295 123 53.900503 123 C 54.507543 123 55.00018 123.492188 55.00018 124.10026 Z M 55.00018 124.10026 " transform="matrix(3.346154,0,0,3,0,0)"/>
<path style=" stroke:none;fill-rule:nonzero;fill:rgb(0%,0%,0%);fill-opacity:1;" d="M 181.695312 372.300781 C 181.695312 372.960938 181.097656 373.5 180.359375 373.5 C 179.617188 373.5 179.019531 372.960938 179.019531 372.300781 C 179.019531 371.636719 179.617188 371.101562 180.359375 371.101562 C 181.097656 371.101562 181.695312 371.636719 181.695312 372.300781 Z M 181.695312 372.300781 "/>
<path style="fill-rule:nonzero;fill:rgb(99.607843%,74.901961%,6.27451%);fill-opacity:1;stroke-width:0.3;stroke-linecap:round;stroke-linejoin:round;stroke:rgb(0%,0%,0%);stroke-opacity:1;stroke-miterlimit:4;" d="M 52.700431 124.39974 C 52.700431 125.007812 52.207795 125.5 51.599587 125.5 C 50.992547 125.5 50.49991 125.007812 50.49991 124.39974 C 50.49991 123.792969 50.992547 123.299479 51.599587 123.299479 C 52.207795 123.299479 52.700431 123.792969 52.700431 124.39974 Z M 52.700431 124.39974 " transform="matrix(3.346154,0,0,3,0,0)"/>
<path style=" stroke:none;fill-rule:nonzero;fill:rgb(0%,0%,0%);fill-opacity:1;" d="M 174 373.199219 C 174 373.863281 173.402344 374.398438 172.660156 374.398438 C 171.921875 374.398438 171.324219 373.863281 171.324219 373.199219 C 171.324219 372.539062 171.921875 372 172.660156 372 C 173.402344 372 174 372.539062 174 373.199219 Z M 174 373.199219 "/>
<path style="fill-rule:nonzero;fill:rgb(99.607843%,74.901961%,6.27451%);fill-opacity:1;stroke-width:0.3;stroke-linecap:round;stroke-linejoin:round;stroke:rgb(0%,0%,0%);stroke-opacity:1;stroke-miterlimit:4;" d="M 50.300287 124.700521 C 50.300287 125.307292 49.807651 125.799479 49.199443 125.799479 C 48.592403 125.799479 48.099767 125.307292 48.099767 124.700521 C 48.099767 124.092448 48.592403 123.60026 49.199443 123.60026 C 49.807651 123.60026 50.300287 124.092448 50.300287 124.700521 Z M 50.300287 124.700521 " transform="matrix(3.346154,0,0,3,0,0)"/>
<path style=" stroke:none;fill-rule:nonzero;fill:rgb(0%,0%,0%);fill-opacity:1;" d="M 165.96875 374.101562 C 165.96875 374.761719 165.371094 375.300781 164.628906 375.300781 C 163.890625 375.300781 163.292969 374.761719 163.292969 374.101562 C 163.292969 373.4375 163.890625 372.898438 164.628906 372.898438 C 165.371094 372.898438 165.96875 373.4375 165.96875 374.101562 Z M 165.96875 374.101562 "/>
<path style="fill-rule:nonzero;fill:rgb(99.607843%,74.901961%,6.27451%);fill-opacity:1;stroke-width:0.3;stroke-linecap:round;stroke-linejoin:round;stroke:rgb(0%,0%,0%);stroke-opacity:1;stroke-miterlimit:4;" d="M 48.099767 124.799479 C 48.099767 125.407552 47.60713 125.89974 47.00009 125.89974 C 46.39305 125.89974 45.900413 125.407552 45.900413 124.799479 C 45.900413 124.192708 46.39305 123.700521 47.00009 123.700521 C 47.60713 123.700521 48.099767 124.192708 48.099767 124.799479 Z M 48.099767 124.799479 " transform="matrix(3.346154,0,0,3,0,0)"/>
<path style=" stroke:none;fill-rule:nonzero;fill:rgb(0%,0%,0%);fill-opacity:1;" d="M 158.609375 374.398438 C 158.609375 375.0625 158.007812 375.601562 157.269531 375.601562 C 156.53125 375.601562 155.929688 375.0625 155.929688 374.398438 C 155.929688 373.738281 156.53125 373.199219 157.269531 373.199219 C 158.007812 373.199219 158.609375 373.738281 158.609375 374.398438 Z M 158.609375 374.398438 "/>
<path style="fill-rule:nonzero;fill:rgb(99.607843%,74.901961%,6.27451%);fill-opacity:1;stroke-width:0.3;stroke-linecap:round;stroke-linejoin:round;stroke:rgb(0%,0%,0%);stroke-opacity:1;stroke-miterlimit:4;" d="M 45.900413 124.89974 C 45.900413 125.507812 45.407777 126 44.799569 126 C 44.192529 126 43.699892 125.507812 43.699892 124.89974 C 43.699892 124.292969 44.192529 123.799479 44.799569 123.799479 C 45.407777 123.799479 45.900413 124.292969 45.900413 124.89974 Z M 45.900413 124.89974 " transform="matrix(3.346154,0,0,3,0,0)"/>
<path style=" stroke:none;fill-rule:nonzero;fill:rgb(0%,0%,0%);fill-opacity:1;" d="M 151.246094 374.699219 C 151.246094 375.363281 150.648438 375.898438 149.90625 375.898438 C 149.167969 375.898438 148.570312 375.363281 148.570312 374.699219 C 148.570312 374.039062 149.167969 373.5 149.90625 373.5 C 150.648438 373.5 151.246094 374.039062 151.246094 374.699219 Z M 151.246094 374.699219 "/>
<path style="fill:none;stroke-width:0.4;stroke-linecap:round;stroke-linejoin:round;stroke:rgb(0%,0%,0%);stroke-opacity:1;stroke-miterlimit:4;" d="M 57.400323 121.60026 C 39.700431 125.39974 20.400054 121.5 20.400054 121.5 M 8.00009 7.89974 L 69.99991 7.89974 L 69.99991 132.209635 L 8.00009 132.209635 Z M 8.00009 7.89974 " transform="matrix(3.346154,0,0,3,0,0)"/>
</g>
</svg>
