<?xml version="1.0" encoding="UTF-8"?>
<svg xmlns="http://www.w3.org/2000/svg" xmlns:xlink="http://www.w3.org/1999/xlink" width="261px" height="420px" viewBox="0 0 261 420" version="1.1">
<defs>
<filter id="alpha" filterUnits="objectBoundingBox" x="0%" y="0%" width="100%" height="100%">
  <feColorMatrix type="matrix" in="SourceGraphic" values="0 0 0 0 1 0 0 0 0 1 0 0 0 0 1 0 0 0 1 0"/>
</filter>
<mask id="mask0">
  <g filter="url(#alpha)">
<rect x="0" y="0" width="261" height="420" style="fill:rgb(0%,0%,0%);fill-opacity:0.501961;stroke:none;"/>
  </g>
</mask>
<clipPath id="clip1">
  <rect x="0" y="0" width="261" height="420"/>
</clipPath>
<g id="surface5" clip-path="url(#clip1)">
<path style=" stroke:none;fill-rule:nonzero;fill:rgb(100%,100%,100%);fill-opacity:1;" d="M 73.617188 186.601562 C 73.617188 186.601562 63.910156 184.5 60.230469 189 C 59.890625 193.679688 61.566406 198.296875 64.914062 201.898438 C 64.914062 201.898438 68.929688 196.800781 74.285156 198 C 74.285156 198 70.9375 191.398438 73.617188 186.601562 Z M 73.617188 186.601562 "/>
</g>
<mask id="mask1">
  <g filter="url(#alpha)">
<rect x="0" y="0" width="261" height="420" style="fill:rgb(0%,0%,0%);fill-opacity:0.501961;stroke:none;"/>
  </g>
</mask>
<clipPath id="clip2">
  <rect x="0" y="0" width="261" height="420"/>
</clipPath>
<g id="surface8" clip-path="url(#clip2)">
<path style=" stroke:none;fill-rule:nonzero;fill:rgb(100%,100%,100%);fill-opacity:1;" d="M 98.042969 205.199219 C 103.03125 206.777344 106.804688 210.496094 108.082031 215.101562 L 100.050781 219.898438 C 100.050781 219.898438 96.371094 212.699219 90.347656 210.898438 C 90.347656 210.898438 95.367188 205.5 98.042969 205.199219 Z M 98.042969 205.199219 "/>
</g>
<mask id="mask2">
  <g filter="url(#alpha)">
<rect x="0" y="0" width="261" height="420" style="fill:rgb(0%,0%,0%);fill-opacity:0.501961;stroke:none;"/>
  </g>
</mask>
<clipPath id="clip3">
  <rect x="0" y="0" width="261" height="420"/>
</clipPath>
<g id="surface11" clip-path="url(#clip3)">
<path style=" stroke:none;fill-rule:nonzero;fill:rgb(100%,100%,100%);fill-opacity:1;" d="M 205.789062 188.101562 L 191.066406 190.5 L 189.058594 195 L 200.433594 201 C 200.433594 201 205.789062 192 205.789062 188.101562 Z M 205.789062 188.101562 "/>
</g>
<mask id="mask3">
  <g filter="url(#alpha)">
<rect x="0" y="0" width="261" height="420" style="fill:rgb(0%,0%,0%);fill-opacity:0.501961;stroke:none;"/>
  </g>
</mask>
<clipPath id="clip4">
  <rect x="0" y="0" width="261" height="420"/>
</clipPath>
<g id="surface14" clip-path="url(#clip4)">
<path style=" stroke:none;fill-rule:nonzero;fill:rgb(100%,100%,100%);fill-opacity:1;" d="M 181.363281 180.898438 C 181.871094 185.40625 180.433594 189.914062 177.347656 193.5 L 180.691406 198.601562 C 180.691406 198.601562 183.371094 187.800781 188.054688 186 C 192.738281 184.199219 184.039062 181.5 181.363281 180.898438 Z M 181.363281 180.898438 "/>
</g>
<mask id="mask4">
  <g filter="url(#alpha)">
<rect x="0" y="0" width="261" height="420" style="fill:rgb(0%,0%,0%);fill-opacity:0.501961;stroke:none;"/>
  </g>
</mask>
<clipPath id="clip5">
  <rect x="0" y="0" width="261" height="420"/>
</clipPath>
<g id="surface17" clip-path="url(#clip5)">
<path style=" stroke:none;fill-rule:nonzero;fill:rgb(100%,100%,100%);fill-opacity:1;" d="M 93.359375 171.898438 C 93.359375 171.898438 95.367188 182.398438 91.351562 184.5 L 108.414062 188.101562 C 108.414062 188.101562 107.078125 179.699219 112.097656 175.800781 C 117.117188 171.898438 96.703125 174 93.359375 171.898438 Z M 93.359375 171.898438 "/>
</g>
<mask id="mask5">
  <g filter="url(#alpha)">
<rect x="0" y="0" width="261" height="420" style="fill:rgb(0%,0%,0%);fill-opacity:0.501961;stroke:none;"/>
  </g>
</mask>
<clipPath id="clip6">
  <rect x="0" y="0" width="261" height="420"/>
</clipPath>
<g id="surface20" clip-path="url(#clip6)">
<path style=" stroke:none;fill-rule:nonzero;fill:rgb(100%,100%,100%);fill-opacity:1;" d="M 178.015625 162.898438 C 178.015625 162.898438 180.691406 170.398438 175.671875 174.300781 C 179.257812 175.234375 183.03125 175.4375 186.714844 174.898438 C 186.714844 174.898438 184.375 165.898438 187.382812 163.199219 C 190.394531 160.5 180.691406 164.398438 178.015625 162.898438 Z M 178.015625 162.898438 "/>
</g>
<mask id="mask6">
  <g filter="url(#alpha)">
<rect x="0" y="0" width="261" height="420" style="fill:rgb(0%,0%,0%);fill-opacity:0.501961;stroke:none;"/>
  </g>
</mask>
<clipPath id="clip7">
  <rect x="0" y="0" width="261" height="420"/>
</clipPath>
<g id="surface23" clip-path="url(#clip7)">
<path style=" stroke:none;fill-rule:nonzero;fill:rgb(100%,100%,100%);fill-opacity:1;" d="M 153.921875 265.199219 C 155.914062 268.75 157.050781 272.632812 157.269531 276.601562 L 167.640625 274.800781 C 167.640625 274.800781 165.632812 265.5 167.640625 263.398438 C 169.648438 261.300781 155.929688 266.699219 153.921875 265.199219 Z M 153.921875 265.199219 "/>
</g>
<mask id="mask7">
  <g filter="url(#alpha)">
<rect x="0" y="0" width="261" height="420" style="fill:rgb(0%,0%,0%);fill-opacity:0.501961;stroke:none;"/>
  </g>
</mask>
<clipPath id="clip8">
  <rect x="0" y="0" width="261" height="420"/>
</clipPath>
<g id="surface26" clip-path="url(#clip8)">
<path style=" stroke:none;fill-rule:nonzero;fill:rgb(100%,100%,100%);fill-opacity:1;" d="M 126.820312 215.398438 C 126.820312 215.398438 132.171875 217.5 132.171875 225 L 142.546875 224.398438 L 149.238281 222.898438 C 149.238281 222.898438 148.234375 214.800781 143.214844 213 L 133.847656 214.199219 Z M 126.820312 215.398438 "/>
</g>
<mask id="mask8">
  <g filter="url(#alpha)">
<rect x="0" y="0" width="261" height="420" style="fill:rgb(0%,0%,0%);fill-opacity:0.501961;stroke:none;"/>
  </g>
</mask>
<clipPath id="clip9">
  <rect x="0" y="0" width="261" height="420"/>
</clipPath>
<g id="surface29" clip-path="url(#clip9)">
<path style=" stroke:none;fill-rule:nonzero;fill:rgb(100%,100%,100%);fill-opacity:1;" d="M 94.027344 243.898438 C 92.109375 247.402344 92.109375 251.5 94.027344 255 C 94.027344 255 100.71875 252.300781 103.0625 254.101562 C 102.691406 250.949219 103.515625 247.777344 105.402344 245.101562 C 105.402344 245.101562 96.703125 243 94.027344 243.898438 Z M 94.027344 243.898438 "/>
</g>
</defs>
<g id="surface1">
<path style=" stroke:none;fill-rule:nonzero;fill:rgb(100%,100%,100%);fill-opacity:1;" d="M 20.078125 0 L 240.921875 0 C 252.011719 0 261 8.058594 261 18 L 261 402 C 261 411.941406 252.011719 420 240.921875 420 L 20.078125 420 C 8.988281 420 0 411.941406 0 402 L 0 18 C 0 8.058594 8.988281 0 20.078125 0 Z M 20.078125 0 "/>
<path style="fill-rule:nonzero;fill:rgb(0%,30.196078%,63.137255%);fill-opacity:1;stroke-width:0.4;stroke-linecap:round;stroke-linejoin:round;stroke:rgb(0%,0%,0%);stroke-opacity:1;stroke-miterlimit:4;" d="M 32.800018 78.10026 C 32.941272 79.105469 33.580999 79.970052 34.499731 80.39974 C 35.99982 81 37.49991 75.799479 36.899874 75.299479 C 36.299838 74.799479 33.100036 76.799479 32.800018 78.10026 Z M 32.800018 78.10026 " transform="matrix(3.346154,0,0,3,0,0)"/>
<path style=" stroke:none;fill-rule:nonzero;fill:rgb(100%,0%,0%);fill-opacity:1;" d="M 83.652344 223.5 C 63.242188 222.898438 65.25 203.101562 64.914062 202.5 C 61.382812 198.871094 59.6875 194.089844 60.230469 189.300781 C 60.898438 178.5 71.273438 176.398438 76.625 175.199219 L 84.992188 180 C 83.988281 180.300781 73.28125 185.101562 72.945312 189.300781 C 72.355469 192.460938 73.199219 195.699219 75.289062 198.300781 C 76.652344 200.625 77.449219 203.179688 77.628906 205.800781 C 79.195312 210.617188 83.550781 214.292969 89.007812 215.398438 Z M 83.652344 223.5 "/>
<use xlink:href="#surface5" mask="url(#mask0)"/>
<path style="fill:none;stroke-width:0.4;stroke-linecap:round;stroke-linejoin:round;stroke:rgb(0%,0%,0%);stroke-opacity:1;stroke-miterlimit:4;" d="M 24.999551 74.5 C 18.899964 74.299479 19.5 67.700521 19.399605 67.5 C 18.344289 66.290365 17.837644 64.696615 17.99991 63.10026 C 18.199533 59.5 21.300108 58.799479 22.899425 58.39974 L 25.399964 60 C 25.099946 60.10026 21.900144 61.700521 21.799749 63.10026 C 21.623473 64.153646 21.875629 65.233073 22.50018 66.10026 C 22.907597 66.875 23.145744 67.726562 23.199443 68.60026 C 23.667565 70.205729 24.969199 71.43099 26.600036 71.799479 Z M 24.999551 74.5 " transform="matrix(3.346154,0,0,3,0,0)"/>
<path style=" stroke:none;fill-rule:nonzero;fill:rgb(0%,39.607843%,71.764706%);fill-opacity:1;" d="M 70.605469 218.398438 C 70.605469 218.398438 85.660156 221.101562 90.011719 211.800781 C 94.363281 202.5 108.082031 201.601562 109.417969 201 L 114.773438 212.101562 C 109.351562 214.148438 104.28125 216.875 99.714844 220.199219 C 87.335938 231 71.273438 219.601562 70.605469 218.398438 Z M 70.605469 218.398438 "/>
<use xlink:href="#surface8" mask="url(#mask1)"/>
<path style="fill:none;stroke-width:0.4;stroke-linecap:round;stroke-linejoin:round;stroke:rgb(0%,0%,0%);stroke-opacity:1;stroke-miterlimit:4;" d="M 21.100485 72.799479 C 21.100485 72.799479 25.599587 73.700521 26.900054 70.60026 C 28.200521 67.5 32.300377 67.200521 32.699623 67 L 34.300108 70.700521 C 32.679777 71.382812 31.164511 72.291667 29.799838 73.39974 C 26.100395 77 21.300108 73.200521 21.100485 72.799479 Z M 21.100485 72.799479 " transform="matrix(3.346154,0,0,3,0,0)"/>
<path style=" stroke:none;fill-rule:nonzero;fill:rgb(0%,39.607843%,71.764706%);fill-opacity:1;" d="M 200.101562 201.601562 L 188.722656 195 C 192.402344 190.199219 195.082031 176.699219 195.082031 173.699219 L 207.796875 178.5 C 207.460938 180 205.789062 193.199219 200.101562 201.601562 Z M 200.101562 201.601562 "/>
<use xlink:href="#surface11" mask="url(#mask2)"/>
<path style="fill:none;stroke-width:0.4;stroke-linecap:round;stroke-linejoin:round;stroke:rgb(0%,0%,0%);stroke-opacity:1;stroke-miterlimit:4;" d="M 59.800467 67.200521 L 56.399874 65 C 57.499551 63.39974 58.300377 58.89974 58.300377 57.89974 L 62.100216 59.700521 C 61.99982 60.200521 61.50018 64.39974 59.800467 67.200521 Z M 59.800467 67.200521 " transform="matrix(3.346154,0,0,3,0,0)"/>
<path style=" stroke:none;fill-rule:nonzero;fill:rgb(100%,0%,0%);fill-opacity:1;" d="M 177.011719 193.5 C 175.359375 191.539062 172.992188 190.15625 170.320312 189.601562 L 173.664062 177.898438 C 174.667969 178.199219 185.042969 180.601562 189.058594 188.101562 C 191.964844 193.058594 195.945312 197.441406 200.769531 201 C 200.769531 201 189.058594 211.800781 177.011719 193.5 Z M 177.011719 193.5 "/>
<use xlink:href="#surface14" mask="url(#mask3)"/>
<path style="fill-rule:nonzero;fill:rgb(0%,30.196078%,63.137255%);fill-opacity:1;stroke-width:0.4;stroke-linecap:round;stroke-linejoin:round;stroke:rgb(0%,0%,0%);stroke-opacity:1;stroke-miterlimit:4;" d="M 49.299838 65.799479 C 49.599856 65.89974 50.999551 66.5 50.799928 67.700521 C 50.600305 68.89974 48.099767 70.200521 47.300108 69.89974 C 46.500449 69.60026 48.000539 65.700521 48.000539 65.700521 Z M 49.299838 65.799479 " transform="matrix(3.346154,0,0,3,0,0)"/>
<path style=" stroke:none;fill-rule:nonzero;fill:rgb(19.607843%,34.117647%,13.72549%);fill-opacity:1;" d="M 108.75 59.398438 C 107.210938 65.292969 106.761719 71.375 107.410156 77.398438 C 108.082031 88.199219 110.757812 110.699219 111.761719 117 C 112.765625 123.300781 118.121094 138 119.125 143.398438 C 120.125 148.800781 122.132812 268.5 122.132812 270 C 122.132812 271.5 121.464844 306.601562 122.46875 312.300781 C 123.40625 316.003906 123.054688 319.878906 121.464844 323.398438 C 120.460938 327.601562 123.136719 333.300781 124.140625 336 C 125.144531 338.699219 124.8125 355.5 124.8125 360.601562 C 124.8125 365.699219 124.8125 371.398438 126.484375 371.699219 C 128.15625 372 140.203125 361.199219 140.875 358.800781 C 141.542969 356.398438 141.875 336.898438 142.210938 329.699219 C 142.546875 322.5 140.875 316.5 141.875 314.398438 C 144.273438 309.078125 145.082031 303.289062 144.21875 297.601562 C 143.078125 291.855469 142.519531 286.035156 142.546875 280.199219 C 142.878906 276.898438 145.222656 260.398438 145.222656 257.398438 C 145.222656 254.398438 147.898438 152.101562 148.234375 148.5 C 148.570312 144.898438 148.234375 131.398438 148.570312 128.699219 C 148.753906 123.828125 150.003906 119.039062 152.25 114.601562 C 154.925781 109.5 159.945312 99 159.945312 93.898438 C 159.945312 90.578125 159.609375 87.265625 158.941406 84 C 158.609375 81.898438 156.601562 80.398438 157.605469 77.398438 C 158.609375 74.398438 162.289062 68.101562 162.289062 60.898438 C 162.289062 53.699219 111.761719 53.101562 108.75 59.398438 Z M 108.75 59.398438 "/>
<path style=" stroke:none;fill-rule:nonzero;fill:rgb(5.098039%,22.745098%,7.058824%);fill-opacity:1;" d="M 133.511719 366.898438 C 136.203125 364.382812 138.667969 361.671875 140.875 358.800781 C 141.542969 356.398438 141.875 336.898438 142.210938 329.699219 C 142.546875 322.5 140.875 316.5 141.875 314.398438 C 144.273438 309.078125 145.082031 303.289062 144.21875 297.601562 C 143.078125 291.855469 142.519531 286.035156 142.546875 280.199219 C 142.878906 276.898438 145.222656 260.398438 145.222656 257.398438 C 145.222656 254.398438 147.898438 152.101562 148.234375 148.5 C 148.570312 144.898438 148.234375 131.398438 148.570312 128.699219 C 148.753906 123.828125 150.003906 119.039062 152.25 114.601562 C 154.925781 109.5 159.945312 99 159.945312 93.898438 C 159.945312 90.578125 159.609375 87.265625 158.941406 84 C 158.609375 81.898438 156.601562 80.398438 157.605469 77.398438 C 158.609375 74.398438 162.289062 68.101562 162.289062 60.898438 C 162.289062 53.699219 148.570312 55.199219 134.851562 54.898438 C 134.851562 54.898438 131.839844 98.101562 135.855469 112.199219 C 139.871094 126.300781 135.183594 162.300781 134.851562 169.199219 C 134.515625 176.101562 130.5 217.199219 132.507812 231.601562 C 134.515625 246 133.511719 290.699219 131.503906 298.5 C 129.496094 306.300781 128.828125 372 133.511719 366.898438 Z M 133.511719 366.898438 "/>
<path style="fill:none;stroke-width:0.4;stroke-linecap:round;stroke-linejoin:round;stroke:rgb(0%,0%,0%);stroke-opacity:1;stroke-miterlimit:4;" d="M 32.5 19.799479 C 32.04005 21.764323 31.905801 23.791667 32.099587 25.799479 C 32.300377 29.39974 33.100036 36.89974 33.400054 39 C 33.700072 41.10026 35.300557 46 35.600575 47.799479 C 35.899425 49.60026 36.499461 89.5 36.499461 90 C 36.499461 90.5 36.299838 102.200521 36.599856 104.10026 C 36.880029 105.334635 36.774964 106.626302 36.299838 107.799479 C 35.99982 109.200521 36.799479 111.10026 37.099497 112 C 37.399515 112.89974 37.300287 118.5 37.300287 120.200521 C 37.300287 121.89974 37.300287 123.799479 37.799928 123.89974 C 38.299569 124 41.899784 120.39974 42.100575 119.60026 C 42.300198 118.799479 42.399425 112.299479 42.49982 109.89974 C 42.600216 107.5 42.100575 105.5 42.399425 104.799479 C 43.1162 103.026042 43.357848 101.096354 43.099856 99.200521 C 42.75898 97.285156 42.592044 95.345052 42.600216 93.39974 C 42.699443 92.299479 43.399874 86.799479 43.399874 85.799479 C 43.399874 84.799479 44.199533 50.700521 44.299928 49.5 C 44.400323 48.299479 44.299928 43.799479 44.400323 42.89974 C 44.45519 41.276042 44.828754 39.679688 45.5 38.200521 C 46.299659 36.5 47.799749 33 47.799749 31.299479 C 47.799749 30.192708 47.699353 29.088542 47.499731 28 C 47.400503 27.299479 46.800467 26.799479 47.100485 25.799479 C 47.400503 24.799479 48.50018 22.700521 48.50018 20.299479 C 48.50018 17.89974 33.400054 17.700521 32.5 19.799479 Z M 32.5 19.799479 " transform="matrix(3.346154,0,0,3,0,0)"/>
<path style=" stroke:none;fill-rule:nonzero;fill:rgb(99.607843%,74.901961%,6.27451%);fill-opacity:1;" d="M 121.800781 71.699219 C 121.800781 71.699219 122.804688 71.101562 123.472656 80.398438 C 124.140625 89.699219 127.488281 89.101562 128.828125 93.898438 C 130.164062 98.699219 128.15625 105.300781 130.5 106.5 C 132.84375 107.699219 134.515625 99.601562 137.527344 96.300781 C 141.644531 92.417969 143.921875 87.257812 143.882812 81.898438 C 144.21875 75.601562 143.550781 71.398438 144.21875 71.101562 "/>
<path style=" stroke:none;fill-rule:nonzero;fill:rgb(81.568627%,60.784314%,2.745098%);fill-opacity:1;" d="M 135.183594 72.601562 C 135.949219 77.472656 136.394531 82.382812 136.523438 87.300781 C 136.191406 91.835938 135.519531 96.34375 134.515625 100.800781 C 134.515625 100.800781 142.546875 90.601562 143.214844 87.300781 C 143.804688 83.121094 143.914062 78.898438 143.550781 74.699219 L 144.21875 71.101562 Z M 135.183594 72.601562 "/>
<path style="fill:none;stroke-width:0.4;stroke-linecap:round;stroke-linejoin:round;stroke:rgb(0%,0%,0%);stroke-opacity:1;stroke-miterlimit:4;" d="M 36.400233 23.89974 C 36.400233 23.89974 36.700251 23.700521 36.899874 26.799479 C 37.099497 29.89974 38.099946 29.700521 38.500359 31.299479 C 38.899605 32.89974 38.299569 35.10026 39 35.5 C 39.700431 35.89974 40.200072 33.200521 41.100126 32.10026 C 42.33055 30.80599 43.011135 29.085938 42.999461 27.299479 C 43.099856 25.200521 42.900233 23.799479 43.099856 23.700521 " transform="matrix(3.346154,0,0,3,0,0)"/>
<path style="fill-rule:nonzero;fill:rgb(59.607843%,3.137255%,1.960784%);fill-opacity:1;stroke-width:0.4;stroke-linecap:round;stroke-linejoin:round;stroke:rgb(0%,0%,0%);stroke-opacity:1;stroke-miterlimit:4;" d="M 42.600216 56.299479 L 43.299479 59.299479 L 45.399605 56.10026 C 44.462195 56.074219 43.524784 56.140625 42.600216 56.299479 Z M 42.600216 56.299479 " transform="matrix(3.346154,0,0,3,0,0)"/>
<path style=" stroke:none;fill-rule:nonzero;fill:rgb(19.607843%,34.117647%,13.72549%);fill-opacity:1;" d="M 174 62.101562 C 174 62.101562 166.972656 78.300781 167.308594 87 C 167.640625 95.699219 167.640625 105.601562 163.960938 110.699219 C 158.929688 117.859375 155.835938 125.976562 154.925781 134.398438 C 153.28125 146.984375 150.480469 159.425781 146.5625 171.601562 C 144.21875 178.199219 139.199219 198 137.191406 202.800781 C 135.183594 207.601562 112.097656 243 111.09375 245.101562 C 110.089844 247.199219 103.394531 261.601562 101.386719 266.101562 C 99.378906 270.601562 97.375 269.398438 94.695312 279.601562 C 92.019531 289.800781 77.628906 315.300781 74.621094 319.199219 C 71.609375 323.101562 67.59375 336.601562 64.246094 342.300781 C 60.898438 348 57.21875 357.898438 55.546875 360.601562 C 53.875 363.300781 52.871094 366.898438 59.894531 365.398438 C 66.921875 363.898438 71.273438 363.601562 75.289062 357 C 79.304688 350.398438 84.65625 338.101562 87 335.101562 C 89.460938 331.757812 92.140625 328.554688 95.03125 325.5 C 97.707031 322.5 98.710938 319.5 96.703125 318.898438 L 94.695312 318.898438 C 95.300781 315.953125 96.675781 313.175781 98.710938 310.800781 C 101.378906 307.09375 103.40625 303.046875 104.734375 298.800781 C 106.742188 294.300781 116.445312 282.898438 118.789062 276.601562 C 121.128906 270.300781 134.851562 244.199219 136.859375 242.699219 C 143.089844 235.609375 148.683594 228.085938 153.589844 220.199219 C 156.601562 215.101562 168.3125 195.601562 168.980469 193.5 C 169.648438 191.398438 176.675781 171.300781 178.015625 169.199219 C 180.378906 165.421875 183.066406 161.808594 186.046875 158.398438 C 191.007812 152.566406 194.957031 146.09375 197.757812 139.199219 C 202.109375 129.300781 201.773438 127.5 204.449219 126 C 207.125 124.5 214.488281 122.398438 216.160156 116.398438 C 217.835938 110.398438 218.503906 111.601562 219.171875 109.199219 C 219.265625 105.957031 218.8125 102.722656 217.835938 99.601562 C 217.566406 96.230469 218.136719 92.847656 219.507812 89.699219 C 221.292969 86.113281 222.207031 82.226562 222.183594 78.300781 C 222.539062 74.121094 221.492188 69.941406 219.171875 66.300781 C 216.832031 63.601562 183.371094 54.601562 174 62.101562 Z M 174 62.101562 "/>
<path style=" stroke:none;fill-rule:nonzero;fill:rgb(99.607843%,74.901961%,6.27451%);fill-opacity:1;" d="M 173.332031 127.199219 C 173.332031 127.199219 177.011719 137.398438 174.335938 144.601562 C 171.65625 151.800781 161.285156 171.601562 159.277344 176.101562 C 157.269531 180.601562 152.25 188.398438 151.582031 186.601562 C 150.910156 184.800781 163.292969 161.101562 164.296875 154.199219 C 165.300781 147.300781 168.3125 119.699219 173.332031 127.199219 Z M 173.332031 127.199219 "/>
<path style=" stroke:none;fill-rule:nonzero;fill:rgb(5.098039%,22.745098%,7.058824%);fill-opacity:1;" d="M 201.105469 60.601562 C 206.125 53.699219 218.167969 64.800781 219.171875 66 C 221.492188 69.640625 222.539062 73.820312 222.183594 78 C 222.207031 81.925781 221.292969 85.8125 219.507812 89.398438 C 218.136719 92.546875 217.566406 95.929688 217.835938 99.300781 C 218.8125 102.421875 219.265625 105.65625 219.171875 108.898438 C 218.503906 111.300781 218.167969 110.101562 216.160156 116.101562 C 214.152344 122.101562 207.460938 124.199219 204.449219 125.699219 C 201.4375 127.199219 202.109375 129 197.757812 138.898438 C 194.957031 145.792969 191.007812 152.265625 186.046875 158.101562 C 183.066406 161.511719 180.378906 165.121094 178.015625 168.898438 C 176.675781 171 169.648438 191.101562 168.980469 193.199219 C 168.3125 195.300781 156.601562 214.800781 153.589844 219.898438 C 148.683594 227.785156 143.089844 235.308594 136.859375 242.398438 C 134.851562 243.898438 121.128906 270 118.789062 276.300781 C 116.445312 282.601562 106.742188 294 104.734375 298.5 C 103.40625 302.746094 101.378906 306.792969 98.710938 310.5 C 96.675781 312.875 95.300781 315.652344 94.695312 318.601562 L 96.703125 318.601562 C 98.710938 319.199219 97.707031 322.199219 95.03125 325.199219 C 92.140625 328.253906 89.460938 331.457031 87 334.800781 C 84.65625 337.800781 79.636719 350.101562 75.289062 356.699219 C 70.9375 363.300781 66.921875 363.300781 59.894531 365.101562 C 59.894531 365.101562 56.882812 366 64.582031 355.800781 C 73.066406 344.21875 80.773438 332.199219 87.667969 319.800781 C 90.011719 314.101562 101.386719 286.800781 103.730469 283.5 C 106.074219 280.199219 119.792969 249.300781 121.800781 246.601562 C 123.808594 243.898438 143.882812 218.101562 146.894531 210.300781 C 151.179688 199.917969 156.207031 189.796875 161.953125 180 C 164.964844 175.5 189.390625 133.199219 192.070312 123.300781 C 194.746094 113.398438 198.425781 97.5 201.773438 91.199219 C 205.121094 84.898438 199.429688 63 201.105469 60.601562 Z M 201.105469 60.601562 "/>
<path style="fill:none;stroke-width:0.4;stroke-linecap:round;stroke-linejoin:round;stroke:rgb(0%,0%,0%);stroke-opacity:1;stroke-miterlimit:4;" d="M 52.300018 20.700521 C 52.300018 20.700521 49.899874 26.10026 50.000269 29 C 50.099497 31.89974 50.099497 35.200521 48.99982 36.89974 C 47.496228 39.286458 46.571659 41.992188 46.299659 44.799479 C 45.80819 48.994792 44.971175 53.141927 43.800287 57.200521 C 43.099856 59.39974 41.599767 66 40.999731 67.60026 C 40.399695 69.200521 33.500449 81 33.200431 81.700521 C 32.900413 82.39974 30.899515 87.200521 30.299479 88.700521 C 29.699443 90.200521 29.100575 89.799479 28.299749 93.200521 C 27.50009 96.60026 23.199443 105.10026 22.300557 106.39974 C 21.400503 107.700521 20.200431 112.200521 19.199982 114.10026 C 18.199533 116 17.099856 119.299479 16.600216 120.200521 C 16.100575 121.10026 15.800557 122.299479 17.899515 121.799479 C 19.999641 121.299479 21.300108 121.200521 22.50018 119 C 23.700251 116.799479 25.299569 112.700521 26 111.700521 C 26.735453 110.585938 27.536279 109.518229 28.400144 108.5 C 29.199802 107.5 29.49982 106.5 28.899784 106.299479 L 28.299749 106.299479 C 28.480693 105.317708 28.891613 104.391927 29.49982 103.60026 C 30.297144 102.364583 30.903017 101.015625 31.299928 99.60026 C 31.899964 98.10026 34.799749 94.299479 35.50018 92.200521 C 36.199443 90.10026 40.300467 81.39974 40.900503 80.89974 C 42.762482 78.536458 44.434177 76.028646 45.900413 73.39974 C 46.800467 71.700521 50.300287 65.200521 50.49991 64.5 C 50.699533 63.799479 52.799659 57.10026 53.200072 56.39974 C 53.90634 55.140625 54.709501 53.936198 55.600216 52.799479 C 57.082795 50.855469 58.263021 48.697917 59.100036 46.39974 C 60.400503 43.10026 60.300108 42.5 61.099767 42 C 61.899425 41.5 64.099946 40.799479 64.599587 38.799479 C 65.100395 36.799479 65.300018 37.200521 65.499641 36.39974 C 65.527658 35.31901 65.392241 34.240885 65.100395 33.200521 C 65.019846 32.076823 65.190284 30.949219 65.600036 29.89974 C 66.133531 28.704427 66.406699 27.408854 66.399695 26.10026 C 66.505927 24.707031 66.193068 23.313802 65.499641 22.10026 C 64.800377 21.200521 55.100575 18.10026 52.300018 20.700521 Z M 52.300018 20.700521 " transform="matrix(3.346154,0,0,3,0,0)"/>
<path style=" stroke:none;fill-rule:nonzero;fill:rgb(19.607843%,34.117647%,13.72549%);fill-opacity:1;" d="M 39.148438 72 C 39.148438 72 36.808594 85.5 43.835938 95.398438 C 50.863281 105.300781 61.234375 121.5 62.238281 124.199219 C 63.242188 126.898438 58.890625 123 58.558594 126.898438 C 58.222656 130.800781 66.253906 144.898438 68.261719 145.800781 C 70.269531 146.699219 70.269531 142.199219 70.269531 142.199219 C 70.269531 142.199219 101.386719 187.5 105.738281 194.398438 C 110.089844 201.300781 125.144531 234.601562 129.160156 239.398438 C 133.8125 244.742188 138.058594 250.351562 141.875 256.199219 C 143.214844 258.601562 150.910156 281.398438 152.585938 284.101562 C 154.257812 286.800781 163.292969 305.398438 167.308594 314.101562 C 171.324219 322.800781 177.347656 333.300781 179.6875 337.800781 C 182.03125 342.300781 183.371094 347.398438 186.378906 349.5 C 187.089844 352.378906 188.097656 355.191406 189.390625 357.898438 C 191.398438 360.898438 209.804688 365.101562 209.804688 365.101562 C 209.804688 365.101562 204.449219 348.300781 200.769531 343.800781 C 197.089844 339.300781 184.375 315 182.367188 308.699219 C 180.359375 302.398438 171.992188 285 170.652344 282 C 169.316406 279 161.953125 265.5 160.949219 259.199219 C 160.117188 254.4375 158.054688 249.917969 154.925781 246 C 153.589844 244.199219 140.539062 209.398438 137.191406 202.800781 C 131.226562 191.269531 125.976562 179.449219 121.464844 167.398438 C 118.425781 156.363281 114.511719 145.535156 109.753906 135 C 107.078125 130.5 98.710938 95.398438 97.039062 90.601562 C 95.367188 85.800781 90.347656 70.5 87.335938 69.601562 C 84.324219 68.699219 39.148438 72 39.148438 72 Z M 39.148438 72 "/>
<path style=" stroke:none;fill-rule:nonzero;fill:rgb(99.607843%,74.901961%,6.27451%);fill-opacity:1;" d="M 62.238281 84 L 90.011719 73.199219 L 98.042969 96.898438 L 104.066406 117.601562 L 106.40625 125.101562 C 103.871094 123.492188 101.710938 121.453125 100.050781 119.101562 C 98.042969 115.800781 97.039062 111.601562 93.691406 108.601562 C 90.347656 105.601562 89.675781 107.398438 88.003906 105.601562 C 86.332031 103.800781 88.339844 99.601562 85.660156 97.5 C 82.984375 95.398438 83.652344 92.101562 80.640625 89.398438 C 77.628906 86.699219 71.609375 88.5 66.253906 87.601562 C 60.898438 86.699219 62.238281 84 62.238281 84 "/>
<path style=" stroke:none;fill-rule:nonzero;fill:rgb(81.568627%,60.784314%,2.745098%);fill-opacity:1;" d="M 76.960938 79.5 C 76.960938 79.5 81.980469 89.699219 87 90.898438 C 92.019531 92.101562 92.6875 101.699219 99.378906 101.398438 C 97.992188 95.015625 96.203125 88.707031 94.027344 82.5 L 89.34375 72.300781 L 76.292969 77.699219 Z M 76.960938 79.5 "/>
<path style=" stroke:none;fill-rule:nonzero;fill:rgb(5.098039%,22.745098%,7.058824%);fill-opacity:1;" d="M 196.753906 361.5 C 197.757812 364.800781 190.394531 359.101562 189.390625 357.898438 C 188.097656 355.191406 187.089844 352.378906 186.378906 349.5 C 183.371094 347.398438 182.367188 342.300781 179.6875 337.800781 C 177.011719 333.300781 170.988281 322.5 167.308594 314.101562 C 163.625 305.699219 153.921875 286.5 152.585938 284.101562 C 151.246094 281.699219 143.214844 258.601562 141.875 256.199219 C 138.058594 250.351562 133.8125 244.742188 129.160156 239.398438 C 125.144531 234.601562 109.753906 201.601562 105.738281 194.398438 C 101.722656 187.199219 70.269531 142.199219 70.269531 142.199219 C 70.269531 142.199219 70.269531 146.699219 68.261719 145.800781 C 66.253906 144.898438 57.886719 130.5 58.558594 126.898438 C 59.226562 123.300781 62.238281 124.199219 62.238281 124.199219 C 62.238281 124.199219 50.527344 105.601562 43.835938 95.398438 C 37.140625 85.199219 39.148438 72 39.148438 72 L 46.511719 72 C 46.511719 72 41.828125 80.398438 49.859375 92.699219 C 57.886719 105 68.929688 119.398438 69.265625 126 C 69.601562 132.601562 66.253906 132.898438 70.269531 136.5 C 74.285156 140.101562 105.738281 175.800781 109.085938 185.101562 C 112.429688 194.398438 138.867188 247.5 140.539062 249.601562 C 142.210938 251.699219 159.945312 282.898438 161.621094 289.199219 C 163.292969 295.5 171.324219 321.300781 175.671875 323.699219 C 180.023438 326.101562 195.75 357 196.753906 361.5 Z M 196.753906 361.5 "/>
<path style="fill:none;stroke-width:0.4;stroke-linecap:round;stroke-linejoin:round;stroke:rgb(0%,0%,0%);stroke-opacity:1;stroke-miterlimit:4;" d="M 11.799928 23.799479 C 11.799928 23.799479 11.000269 28.5 13.100395 31.799479 C 15.200521 35.10026 18.299928 40.5 18.599946 41.39974 C 18.899964 42.299479 17.599497 41 17.500269 42.299479 C 17.399874 43.60026 19.800018 48.299479 20.400054 48.60026 C 21.00009 48.89974 21.00009 47.39974 21.00009 47.39974 C 21.00009 47.39974 30.299479 62.5 31.599946 64.799479 C 32.900413 67.10026 37.399515 78.200521 38.599587 79.799479 C 39.989943 81.580729 41.25889 83.450521 42.399425 85.39974 C 42.799838 86.200521 45.099587 93.799479 45.600395 94.700521 C 46.100036 95.60026 48.800198 101.799479 50.000269 104.700521 C 51.200341 107.60026 53.000449 111.10026 53.699713 112.60026 C 54.400144 114.10026 54.800557 115.799479 55.699443 116.5 C 55.911907 117.459635 56.213093 118.397135 56.599497 119.299479 C 57.199533 120.299479 62.700251 121.700521 62.700251 121.700521 C 62.700251 121.700521 61.099767 116.10026 60.00009 114.60026 C 58.900413 113.10026 55.100575 105 54.500539 102.89974 C 53.900503 100.799479 51.399964 95 50.999551 94 C 50.600305 93 48.399784 88.5 48.099767 86.39974 C 47.851114 84.8125 47.234734 83.30599 46.299659 82 C 45.900413 81.39974 42.00018 69.799479 40.999731 67.60026 C 39.217134 63.75651 37.648168 59.816406 36.299838 55.799479 C 35.391613 52.121094 34.221893 48.511719 32.800018 45 C 32.000359 43.5 29.49982 31.799479 29.00018 30.200521 C 28.500539 28.60026 27.000449 23.5 26.100395 23.200521 C 25.200341 22.89974 11.799928 23.799479 11.799928 23.799479 Z M 11.799928 23.799479 " transform="matrix(3.346154,0,0,3,0,0)"/>
<path style=" stroke:none;fill-rule:nonzero;fill:rgb(99.607843%,74.901961%,6.27451%);fill-opacity:1;" d="M 181.695312 79.199219 C 183.359375 82.292969 184.269531 85.667969 184.375 89.101562 C 185.042969 95.398438 184.375 108.601562 184.375 110.398438 C 184.375 112.199219 185.375 109.199219 187.71875 106.5 C 190.0625 103.800781 192.402344 104.101562 192.070312 99.300781 C 191.734375 94.5 190.394531 94.5 192.070312 92.699219 C 193.742188 90.898438 194.410156 90.601562 194.410156 88.5 C 194.410156 86.398438 197.421875 84.898438 200.769531 84.601562 C 204.117188 84.300781 207.796875 82.5 207.796875 81.601562 "/>
<path style="fill:none;stroke-width:0.4;stroke-linecap:round;stroke-linejoin:round;stroke:rgb(0%,0%,0%);stroke-opacity:1;stroke-miterlimit:4;" d="M 54.299749 26.39974 C 54.797055 27.43099 55.069055 28.55599 55.100575 29.700521 C 55.300198 31.799479 55.100575 36.200521 55.100575 36.799479 C 55.100575 37.39974 55.399425 36.39974 56.099856 35.5 C 56.800287 34.60026 57.499551 34.700521 57.400323 33.10026 C 57.299928 31.5 56.899515 31.5 57.400323 30.89974 C 57.899964 30.299479 58.099587 30.200521 58.099587 29.5 C 58.099587 28.799479 58.999641 28.299479 60.00009 28.200521 C 61.000539 28.10026 62.100216 27.5 62.100216 27.200521 M 18.599946 28 C 18.599946 28 18.299928 28.799479 19.800018 29.200521 C 21.300108 29.60026 23.199443 28.89974 24.099497 29.799479 C 24.999551 30.700521 24.900323 31.700521 25.599587 32.5 C 26.300018 33.299479 25.800377 34.700521 26.300018 35.200521 C 26.799659 35.700521 27.000449 35.299479 27.999731 36.200521 C 29.00018 37.10026 29.300198 38.60026 29.900233 39.700521 C 30.396372 40.484375 31.041936 41.164062 31.799569 41.700521 " transform="matrix(3.346154,0,0,3,0,0)"/>
<path style=" stroke:none;fill-rule:nonzero;fill:rgb(99.607843%,74.901961%,6.27451%);fill-opacity:1;" d="M 53.539062 61.199219 C 51.398438 60.867188 49.195312 61.074219 47.179688 61.800781 C 41.988281 63.488281 38.984375 68.359375 40.152344 73.199219 C 41.492188 78 45.171875 80.101562 51.867188 81 C 58.558594 81.898438 57.886719 84.898438 63.578125 83.699219 C 69.265625 82.5 71.273438 79.5 75.625 79.5 C 79.972656 79.5 88.671875 77.398438 89.007812 74.699219 C 89.34375 72 88.671875 69.300781 84.65625 68.101562 C 81.152344 67.296875 77.777344 66.085938 74.621094 64.5 C 71.941406 63 62.574219 56.101562 53.539062 61.199219 Z M 53.539062 61.199219 "/>
<path style=" stroke:none;fill-rule:nonzero;fill:rgb(81.568627%,60.784314%,2.745098%);fill-opacity:1;" d="M 57.21875 60.300781 C 57.21875 60.300781 67.925781 64.5 67.59375 69 C 66.472656 74.171875 64.675781 79.207031 62.238281 84 C 62.238281 84 70.605469 80.398438 73.949219 79.5 C 77.296875 78.601562 85.996094 78 88.003906 75.898438 C 90.011719 73.800781 89.675781 69.300781 87 68.699219 L 74.621094 64.5 C 73.949219 64.5 69.265625 61.5 67.925781 60.898438 L 59.5625 59.101562 Z M 57.21875 60.300781 "/>
<path style="fill:none;stroke-width:0.4;stroke-linecap:round;stroke-linejoin:round;stroke:rgb(0%,0%,0%);stroke-opacity:1;stroke-miterlimit:4;" d="M 16.00018 20.39974 C 15.360453 20.289062 14.702047 20.358073 14.099677 20.60026 C 12.548222 21.16276 11.650503 22.786458 11.999551 24.39974 C 12.399964 26 13.499641 26.700521 15.500539 27 C 17.500269 27.299479 17.299479 28.299479 19.000359 27.89974 C 20.700072 27.5 21.300108 26.5 22.600575 26.5 C 23.899874 26.5 26.499641 25.799479 26.600036 24.89974 C 26.700431 24 26.499641 23.10026 25.299569 22.700521 C 24.252425 22.432292 23.243804 22.028646 22.300557 21.5 C 21.499731 21 18.700341 18.700521 16.00018 20.39974 Z M 16.00018 20.39974 " transform="matrix(3.346154,0,0,3,0,0)"/>
<path style=" stroke:none;fill-rule:nonzero;fill:rgb(99.607843%,74.901961%,6.27451%);fill-opacity:1;" d="M 109.085938 61.199219 C 109.085938 61.199219 107.410156 68.398438 120.796875 71.398438 C 134.179688 74.398438 139.871094 71.101562 146.226562 71.101562 C 152.585938 71.101562 156.601562 70.199219 159.613281 66.898438 C 162.625 63.601562 164.296875 53.699219 154.257812 50.699219 C 144.21875 47.699219 136.523438 45.601562 128.492188 48 C 120.460938 50.398438 115.441406 54.898438 112.765625 55.5 C 110.089844 56.101562 109.417969 59.699219 109.085938 61.199219 Z M 109.085938 61.199219 "/>
<path style=" stroke:none;fill-rule:nonzero;fill:rgb(81.568627%,60.784314%,2.745098%);fill-opacity:1;" d="M 188.054688 81.601562 C 187.410156 85.976562 187.1875 90.390625 187.382812 94.800781 C 188.054688 97.5 195.082031 82.199219 195.082031 82.199219 Z M 132.84375 47.398438 C 132.84375 47.398438 148.234375 55.5 137.527344 72 L 151.914062 70.800781 L 157.9375 68.398438 L 161.953125 61.800781 L 160.949219 55.800781 L 155.597656 51 L 143.882812 47.699219 L 135.519531 46.800781 Z M 132.84375 47.398438 "/>
<path style="fill:none;stroke-width:0.4;stroke-linecap:round;stroke-linejoin:round;stroke:rgb(0%,0%,0%);stroke-opacity:1;stroke-miterlimit:4;" d="M 32.600395 20.39974 C 32.600395 20.39974 32.099587 22.799479 36.100216 23.799479 C 40.099677 24.799479 41.800557 23.700521 43.699892 23.700521 C 45.600395 23.700521 46.800467 23.39974 47.700521 22.299479 C 48.600575 21.200521 49.100216 17.89974 46.100036 16.89974 C 43.099856 15.89974 40.800108 15.200521 38.399964 16 C 35.99982 16.799479 34.499731 18.299479 33.700072 18.5 C 32.900413 18.700521 32.699623 19.89974 32.600395 20.39974 Z M 32.600395 20.39974 " transform="matrix(3.346154,0,0,3,0,0)"/>
<path style=" stroke:none;fill-rule:nonzero;fill:rgb(99.607843%,74.901961%,6.27451%);fill-opacity:1;" d="M 188.386719 51.898438 C 186.652344 53.914062 184.339844 55.46875 181.695312 56.398438 C 176.714844 58.210938 173.605469 62.695312 174 67.5 C 174 73.5 179.355469 80.699219 192.402344 81.898438 C 205.453125 83.101562 209.132812 81 213.820312 77.699219 C 218.503906 74.398438 221.515625 67.199219 216.160156 63.601562 C 211.78125 60.667969 207.847656 57.238281 204.449219 53.398438 C 203.113281 51.300781 194.078125 47.398438 188.386719 51.898438 Z M 188.386719 51.898438 "/>
<path style=" stroke:none;fill-rule:nonzero;fill:rgb(81.568627%,60.784314%,2.745098%);fill-opacity:1;" d="M 200.101562 51.601562 C 200.101562 51.601562 205.453125 59.398438 201.4375 66.601562 C 196.832031 73.289062 188.789062 77.460938 180.023438 77.699219 C 187 81.613281 195.292969 83.207031 203.445312 82.199219 C 210.527344 81.6875 216.582031 77.4375 218.839844 71.398438 C 218.839844 71.398438 219.507812 65.398438 217.5 64.5 C 215.492188 63.601562 210.472656 59.398438 208.464844 57.898438 C 206.703125 56.320312 205.234375 54.496094 204.117188 52.5 C 204.117188 52.5 201.105469 51.300781 200.101562 51.601562 Z M 200.101562 51.601562 "/>
<path style="fill:none;stroke-width:0.4;stroke-linecap:round;stroke-linejoin:round;stroke:rgb(0%,0%,0%);stroke-opacity:1;stroke-miterlimit:4;" d="M 56.299479 17.299479 C 55.78116 17.971354 55.090068 18.489583 54.299749 18.799479 C 52.811333 19.403646 51.882094 20.898438 52 22.5 C 52 24.5 53.600485 26.89974 57.499551 27.299479 C 61.399784 27.700521 62.499461 27 63.900323 25.89974 C 65.300018 24.799479 66.200072 22.39974 64.599587 21.200521 C 63.290948 20.222656 62.115392 19.079427 61.099767 17.799479 C 60.700521 17.10026 58.000359 15.799479 56.299479 17.299479 Z M 24.799928 24.200521 C 23.315014 24.420573 21.88847 24.93099 20.599677 25.700521 C 19.099587 26.700521 18.599946 27.299479 16.999461 26.5 C 15.400144 25.700521 12.899605 25.200521 12.800377 24.10026 C 12.699982 23 13.499641 21 14.999731 21.299479 C 16.49982 21.60026 18.100305 21 19.000359 21.200521 C 19.893409 21.3125 20.731591 21.696615 21.400503 22.299479 C 22.200162 23.200521 22.800198 23.799479 21.700521 24.200521 " transform="matrix(3.346154,0,0,3,0,0)"/>
<path style="fill:none;stroke-width:0.4;stroke-linecap:round;stroke-linejoin:round;stroke:rgb(0%,0%,0%);stroke-opacity:1;stroke-miterlimit:4;" d="M 19.5 22.5 C 18.71435 22.042969 17.786279 21.901042 16.900233 22.10026 C 15.299749 22.299479 14.50009 22.60026 14.600485 23.60026 C 14.699713 24.60026 15.200521 25.200521 16.799838 25.299479 C 18.400323 25.39974 19.600395 25 19.999641 24.60026 " transform="matrix(3.346154,0,0,3,0,0)"/>
<path style="fill:none;stroke-width:0.4;stroke-linecap:round;stroke-linejoin:round;stroke:rgb(0%,0%,0%);stroke-opacity:1;stroke-miterlimit:4;" d="M 16.799838 22.89974 C 17.353179 22.678385 17.976562 22.714844 18.499551 23 C 19.300377 23.60026 18.799569 24 18.199533 24.200521 C 17.599497 24.39974 16.300198 24 16.300198 23.799479 M 37.600305 23.200521 C 37.600305 23.200521 35.099767 22.299479 34.700521 21.700521 C 34.430855 21.200521 34.385327 20.610677 34.576778 20.076823 C 34.767062 19.542969 35.175647 19.115885 35.699802 18.89974 C 37.199892 18.200521 38.899605 17.200521 40.399695 17.200521 C 41.899784 17.200521 45.000359 17.299479 45.900413 18.200521 C 46.800467 19.10026 48.300557 20.200521 46.800467 21.5 C 45.300377 22.799479 44.700341 22.799479 44.100305 22.799479 " transform="matrix(3.346154,0,0,3,0,0)"/>
<path style=" stroke:none;fill-rule:nonzero;fill:rgb(99.607843%,74.901961%,6.27451%);fill-opacity:1;" d="M 104.398438 275.101562 C 101.5625 282.285156 98.207031 289.300781 94.363281 296.101562 C 89.675781 303.601562 81.980469 323.101562 79.636719 327 C 77.296875 330.898438 88.339844 319.800781 94.695312 309.601562 C 100.800781 299.230469 105.839844 288.386719 109.753906 277.199219 C 111.425781 270.601562 114.105469 263.398438 104.398438 275.101562 Z M 104.398438 275.101562 "/>
<path style="fill:none;stroke-width:0.4;stroke-linecap:round;stroke-linejoin:round;stroke:rgb(0%,0%,0%);stroke-opacity:1;stroke-miterlimit:4;" d="M 38.099946 18.700521 C 37.399515 18.89974 35.099767 20.299479 36.100216 21.299479 C 37.394846 22.279948 38.975485 22.807292 40.600485 22.799479 C 41.749192 22.601562 42.86171 22.230469 43.899515 21.700521 C 44.899964 20.89974 46.299659 19.799479 45.300377 19.200521 C 44.220546 18.742188 43.070672 18.471354 41.899784 18.39974 " transform="matrix(3.346154,0,0,3,0,0)"/>
<path style="fill:none;stroke-width:0.4;stroke-linecap:round;stroke-linejoin:round;stroke:rgb(0%,0%,0%);stroke-opacity:1;stroke-miterlimit:4;" d="M 37.900323 20.700521 C 38.46884 19.755208 39.497306 19.183594 40.600485 19.200521 C 42.00018 19.200521 43.200251 19 43.299479 19.799479 C 43.399874 20.60026 42.100575 21 41.200521 20.799479 C 40.300467 20.60026 40.399695 20.10026 40.600485 20 M 62.599856 24.799479 C 61.553879 25.542969 60.280262 25.897135 58.999641 25.799479 C 56.599497 25.700521 55.49982 26.10026 54.500539 24.5 C 53.50009 22.89974 52.400413 21.89974 53.699713 21 C 55.00018 20.10026 56.200251 19 57.499551 18.799479 C 58.603897 18.572917 59.753772 18.78776 60.700521 19.39974 C 61.574892 20.009115 62.380388 20.713542 63.099497 21.5 " transform="matrix(3.346154,0,0,3,0,0)"/>
<path style="fill:none;stroke-width:0.4;stroke-linecap:round;stroke-linejoin:round;stroke:rgb(0%,0%,0%);stroke-opacity:1;stroke-miterlimit:4;" d="M 55.799838 20.89974 C 56.524784 20.548177 57.301096 20.311198 58.099587 20.200521 C 59.200431 20.200521 60.900144 21.200521 61.600575 21.5 C 62.299838 21.799479 63.300287 22.700521 62.799479 23.5 C 62.299838 24.299479 60.799749 24.299479 59.200431 24.299479 C 57.599946 24.299479 56.99991 24.799479 55.799838 23.799479 C 54.599767 22.799479 54.599767 22 54.599767 22 " transform="matrix(3.346154,0,0,3,0,0)"/>
<path style="fill:none;stroke-width:0.4;stroke-linecap:round;stroke-linejoin:round;stroke:rgb(0%,0%,0%);stroke-opacity:1;stroke-miterlimit:4;" d="M 59.299659 21.5 C 59.299659 21.5 58.900413 21.200521 57.400323 21.5 C 55.900233 21.799479 56.099856 22.89974 57.100305 23.10026 C 58.099587 23.299479 58.999641 23.299479 59.200431 22.799479 C 59.400054 22.299479 58.600395 21.89974 58.300377 22.10026 " transform="matrix(3.346154,0,0,3,0,0)"/>
<path style=" stroke:none;fill-rule:nonzero;fill:rgb(81.568627%,60.784314%,2.745098%);fill-opacity:1;" d="M 65.585938 102 C 65.585938 102 64.582031 109.800781 68.597656 113.398438 C 72.613281 117 73.617188 129.601562 76.292969 134.398438 C 78.96875 139.199219 90.347656 149.398438 93.359375 154.5 C 96.371094 159.601562 90.679688 147.300781 89.675781 140.398438 C 88.671875 133.5 84.65625 119.398438 79.636719 113.101562 C 75.414062 109 72.316406 104.066406 70.605469 98.699219 C 69.601562 95.101562 65.25 92.101562 65.585938 102 Z M 65.585938 102 "/>
<path style="fill:none;stroke-width:0.4;stroke-linecap:round;stroke-linejoin:round;stroke:rgb(0%,0%,0%);stroke-opacity:1;stroke-miterlimit:4;" d="M 52.199623 59.299479 C 54.025413 59.821615 55.571031 61.044271 56.500269 62.700521 C 57.368804 64.352865 58.558369 65.813802 60.00009 67 C 60.00009 67 56.500269 70.60026 52.900054 64.5 C 52.40625 63.846354 51.698815 63.385417 50.900323 63.200521 " transform="matrix(3.346154,0,0,3,0,0)"/>
<path style=" stroke:none;fill-rule:nonzero;fill:rgb(0%,39.607843%,71.764706%);fill-opacity:1;" d="M 117.449219 188.699219 C 102.726562 188.398438 87 183.300781 83.320312 180.300781 C 79.636719 177.300781 68.261719 178.199219 65.917969 178.5 C 63.578125 178.800781 78.300781 160.5 91.683594 171 C 100.21875 174.148438 109.253906 176.070312 118.453125 176.699219 C 139.199219 178.199219 133.175781 193.5 133.175781 194.101562 C 128.429688 191.308594 123.0625 189.464844 117.449219 188.699219 Z M 117.449219 188.699219 "/>
<use xlink:href="#surface17" mask="url(#mask4)"/>
<path style="fill:none;stroke-width:0.4;stroke-linecap:round;stroke-linejoin:round;stroke:rgb(0%,0%,0%);stroke-opacity:1;stroke-miterlimit:4;" d="M 35.099767 62.89974 C 30.699892 62.799479 26 61.10026 24.900323 60.10026 C 23.799479 59.10026 20.200431 59.60026 19.600395 59.799479 C 19.000359 60 23.400233 53.5 27.399695 57 C 29.950431 58.049479 32.650593 58.690104 35.399784 58.89974 C 41.599767 59.39974 39.799659 64.5 39.799659 64.700521 C 38.381286 63.769531 36.777299 63.154948 35.099767 62.89974 Z M 35.099767 62.89974 " transform="matrix(3.346154,0,0,3,0,0)"/>
<path style=" stroke:none;fill-rule:nonzero;fill:rgb(100%,0%,0%);fill-opacity:1;" d="M 191.734375 174.300781 L 183.035156 175.5 C 177.765625 175.191406 172.578125 174.179688 167.640625 172.5 C 164.882812 170.964844 161.96875 169.65625 158.941406 168.601562 C 154.257812 167.398438 142.546875 168.898438 142.546875 168.898438 C 142.546875 168.898438 150.910156 156 161.285156 158.101562 C 164.941406 158.832031 168.523438 159.835938 171.992188 161.101562 C 175.425781 162.324219 179.027344 163.132812 182.699219 163.5 L 184.707031 163.5 C 191.066406 163.199219 203.78125 160.5 207.796875 179.699219 C 207.796875 179.398438 198.425781 174 191.734375 174.300781 Z M 191.734375 174.300781 "/>
<use xlink:href="#surface20" mask="url(#mask5)"/>
<path style="fill:none;stroke-width:0.4;stroke-linecap:round;stroke-linejoin:round;stroke:rgb(0%,0%,0%);stroke-opacity:1;stroke-miterlimit:4;" d="M 57.299928 58.10026 L 54.700162 58.5 C 53.125359 58.397135 51.575072 58.059896 50.099497 57.5 C 49.275323 56.988281 48.404454 56.552083 47.499731 56.200521 C 46.100036 55.799479 42.600216 56.299479 42.600216 56.299479 C 42.600216 56.299479 45.099587 52 48.200162 52.700521 C 49.292834 52.94401 50.363326 53.278646 51.399964 53.700521 C 52.426096 54.108073 53.502425 54.377604 54.599767 54.5 L 55.199802 54.5 C 57.100305 54.39974 60.900144 53.5 62.100216 59.89974 C 62.100216 59.799479 59.299659 58 57.299928 58.10026 Z M 57.299928 58.10026 " transform="matrix(3.346154,0,0,3,0,0)"/>
<path style=" stroke:none;fill-rule:nonzero;fill:rgb(0%,39.607843%,71.764706%);fill-opacity:1;" d="M 194.078125 282.601562 C 187.382812 279 174.335938 272.398438 168.980469 274.5 C 163.625 276.601562 137.527344 278.398438 141.542969 256.800781 L 144.886719 264.300781 C 149.238281 265.199219 160.617188 265.5 164.296875 264 C 175.339844 259.800781 196.085938 268.800781 199.429688 270.898438 L 191.734375 274.800781 Z M 194.078125 282.601562 "/>
<use xlink:href="#surface23" mask="url(#mask6)"/>
<path style="fill:none;stroke-width:0.4;stroke-linecap:round;stroke-linejoin:round;stroke:rgb(0%,0%,0%);stroke-opacity:1;stroke-miterlimit:4;" d="M 58.000359 94.200521 C 55.999461 93 52.100395 90.799479 50.49991 91.5 C 48.899425 92.200521 41.100126 92.60026 42.399425 85.39974 L 43.299479 88 C 44.599946 88.39974 48.000539 88.5 49.100216 88 C 52.400413 86.60026 58.600395 89.60026 59.599677 90.299479 L 57.299928 91.60026 Z M 58.000359 94.200521 " transform="matrix(3.346154,0,0,3,0,0)"/>
<path style=" stroke:none;fill-rule:nonzero;fill:rgb(0%,39.607843%,71.764706%);fill-opacity:1;" d="M 91.683594 278.101562 C 84.992188 276.601562 79.636719 268.800781 76.960938 265.5 L 85.996094 258.601562 C 88.871094 262.261719 92.117188 265.679688 95.699219 268.800781 L 89.007812 268.800781 Z M 91.683594 278.101562 "/>
<path style="fill:none;stroke-width:0.4;stroke-linecap:round;stroke-linejoin:round;stroke:rgb(0%,0%,0%);stroke-opacity:1;stroke-miterlimit:4;" d="M 27.399695 92.700521 C 25.399964 92.200521 23.700251 89.60026 22.899425 88.5 L 25.699982 86.200521 C 26.559177 87.420573 27.529274 88.559896 28.599767 89.60026 L 26.600036 89.60026 Z M 27.399695 92.700521 " transform="matrix(3.346154,0,0,3,0,0)"/>
<path style=" stroke:none;fill-rule:nonzero;fill:rgb(0%,39.607843%,71.764706%);fill-opacity:1;" d="M 110.421875 236.101562 C 110.421875 236.101562 100.050781 217.199219 137.191406 213.601562 L 142.546875 213 C 153.589844 211.5 169.984375 202.5 169.984375 202.5 C 167.527344 213.609375 157.675781 222.199219 145.222656 224.101562 L 135.183594 224.699219 C 122.804688 225.898438 112.765625 230.398438 110.421875 236.101562 Z M 110.421875 236.101562 "/>
<use xlink:href="#surface26" mask="url(#mask7)"/>
<path style="fill:none;stroke-width:0.4;stroke-linecap:round;stroke-linejoin:round;stroke:rgb(0%,0%,0%);stroke-opacity:1;stroke-miterlimit:4;" d="M 32.999641 78.700521 C 32.999641 78.700521 29.900233 72.39974 40.999731 71.200521 L 42.600216 71 C 45.900413 70.5 50.799928 67.5 50.799928 67.5 C 50.065643 71.203125 47.121498 74.066406 43.399874 74.700521 L 40.399695 74.89974 C 36.700251 75.299479 33.700072 76.799479 32.999641 78.700521 Z M 32.999641 78.700521 " transform="matrix(3.346154,0,0,3,0,0)"/>
<path style=" stroke:none;fill-rule:nonzero;fill:rgb(100%,0%,0%);fill-opacity:1;" d="M 125.480469 263.699219 C 119.792969 263.699219 110.421875 258.601562 103.0625 254.398438 C 95.699219 250.199219 76.625 265.5 76.625 265.5 C 79.972656 250.800781 83.320312 249.898438 87.335938 246.898438 C 91.351562 243.898438 99.714844 241.199219 112.097656 248.398438 C 118.0625 251.511719 124.964844 252.875 131.839844 252.300781 L 134.179688 247.800781 C 133.847656 247.800781 141.542969 264.300781 125.480469 263.699219 Z M 125.480469 263.699219 "/>
<use xlink:href="#surface29" mask="url(#mask8)"/>
<path style="fill:none;stroke-width:0.4;stroke-linecap:round;stroke-linejoin:round;stroke:rgb(0%,0%,0%);stroke-opacity:1;stroke-miterlimit:4;" d="M 37.49991 87.89974 C 35.800198 87.89974 32.999641 86.200521 30.800287 84.799479 C 28.599767 83.39974 22.800198 88.39974 22.800198 88.39974 C 23.499461 84 24.49991 83.299479 25.899605 82.299479 C 28.316092 80.979167 31.277748 81.173177 33.500449 82.799479 C 35.176814 83.826823 37.141523 84.282552 39.100395 84.10026 L 40.000449 82.39974 C 39.900054 82.39974 42.300198 88.10026 37.49991 87.89974 Z M 37.49991 87.89974 " transform="matrix(3.346154,0,0,3,0,0)"/>
<path style="fill-rule:nonzero;fill:rgb(81.568627%,60.784314%,2.745098%);fill-opacity:1;stroke-width:0.4;stroke-linecap:round;stroke-linejoin:round;stroke:rgb(0%,0%,0%);stroke-opacity:1;stroke-miterlimit:4;" d="M 38.099946 124.39974 C 38.099946 124.39974 41.200521 123.200521 41.700162 122.39974 C 42.199802 121.60026 43.099856 119.700521 42.300198 119.200521 C 41.500539 118.700521 38.500359 121 38.200341 121.700521 C 37.900323 122.39974 36.899874 124.200521 38.099946 124.39974 Z M 38.099946 124.39974 " transform="matrix(3.346154,0,0,3,0,0)"/>
<path style="fill-rule:nonzero;fill:rgb(59.607843%,3.137255%,1.960784%);fill-opacity:1;stroke-width:0.4;stroke-linecap:round;stroke-linejoin:round;stroke:rgb(0%,0%,0%);stroke-opacity:1;stroke-miterlimit:4;" d="M 56.599497 119 C 56.599497 119 59.800467 119.10026 60.799749 119.700521 C 61.883082 120.479167 62.716595 121.55599 63.199892 122.799479 C 63.49991 124 62.400233 123.89974 61.600575 123.60026 C 60.106322 122.83724 58.669271 121.96875 57.299928 121 C 56.800287 120.5 55.900233 120 56.599497 119 Z M 56.599497 119 " transform="matrix(3.346154,0,0,3,0,0)"/>
<path style="fill:none;stroke-width:0.4;stroke-linecap:round;stroke-linejoin:round;stroke:rgb(0%,0%,0%);stroke-opacity:1;stroke-miterlimit:4;" d="M 41.100126 120.700521 C 41.100126 120.700521 40.300467 120.60026 39.300018 121.700521 C 38.299569 122.799479 37.999551 123.5 39.900054 122.299479 M 57.799569 120.10026 C 58.965787 120.201823 60.110991 120.471354 61.200162 120.89974 C 61.800198 121.39974 62.700251 123.39974 61.800198 122.89974 C 61.11144 122.516927 60.500898 122.007812 60.00009 121.39974 " transform="matrix(3.346154,0,0,3,0,0)"/>
<path style=" stroke:none;fill-rule:nonzero;fill:rgb(59.607843%,3.137255%,1.960784%);fill-opacity:1;" d="M 89.675781 126.300781 L 98.042969 148.800781 C 101.054688 156.300781 104.734375 170.699219 104.734375 170.699219 C 100.703125 165.601562 97.015625 160.292969 93.691406 154.800781 C 90.011719 147.898438 87.667969 131.699219 86.332031 127.800781 L 82.984375 117.898438 C 85.519531 120.492188 87.761719 123.308594 89.675781 126.300781 Z M 131.503906 275.398438 C 129.714844 282.929688 128.375 290.542969 127.488281 298.199219 C 127.488281 303.601562 129.160156 312 129.160156 317.101562 C 129.160156 322.199219 127.824219 333.601562 129.832031 333.601562 C 131.839844 333.601562 131.503906 317.398438 132.171875 311.398438 C 133.101562 304.53125 133.546875 297.617188 133.511719 290.699219 C 133.511719 285.300781 134.179688 276.601562 133.847656 273 C 133.511719 269.398438 131.503906 275.398438 131.503906 275.398438 Z M 140.203125 112.199219 C 139.535156 118.199219 141.875 128.398438 141.542969 136.5 C 141.207031 144.601562 137.863281 165.601562 134.851562 167.101562 C 131.839844 168.601562 134.851562 154.199219 135.183594 148.800781 C 135.519531 143.398438 131.503906 127.5 132.507812 120.898438 C 133.910156 113.769531 136.269531 106.820312 139.535156 100.199219 C 141.207031 96.898438 141.542969 102 140.203125 112.199219 Z M 158.941406 175.199219 C 155.683594 179.027344 153.085938 183.277344 151.246094 187.800781 C 148.902344 193.800781 143.550781 201 146.5625 200.101562 C 149.574219 199.199219 151.582031 192.898438 154.925781 188.101562 C 158.273438 183.300781 161.621094 179.398438 161.621094 176.699219 C 161.621094 174 160.28125 173.398438 158.941406 175.199219 Z M 158.941406 175.199219 "/>
<path style="fill:none;stroke-width:0.4;stroke-linecap:round;stroke-linejoin:round;stroke:rgb(0%,0%,0%);stroke-opacity:1;stroke-miterlimit:4;" d="M 8.00009 7.89974 L 69.99991 7.89974 L 69.99991 132.209635 L 8.00009 132.209635 Z M 8.00009 7.89974 " transform="matrix(3.346154,0,0,3,0,0)"/>
</g>
</svg>
