<?xml version="1.0" encoding="UTF-8"?>
<svg xmlns="http://www.w3.org/2000/svg" xmlns:xlink="http://www.w3.org/1999/xlink" width="261px" height="420px" viewBox="0 0 261 420" version="1.1">
<g id="surface1">
<path style=" stroke:none;fill-rule:nonzero;fill:rgb(100%,100%,100%);fill-opacity:1;" d="M 20.078125 0 L 240.921875 0 C 252.011719 0 261 8.058594 261 18 L 261 402 C 261 411.941406 252.011719 420 240.921875 420 L 20.078125 420 C 8.988281 420 0 411.941406 0 402 L 0 18 C 0 8.058594 8.988281 0 20.078125 0 Z M 20.078125 0 "/>
<path style=" stroke:none;fill-rule:nonzero;fill:rgb(19.607843%,34.117647%,13.72549%);fill-opacity:1;" d="M 137.527344 381.898438 C 137.527344 381.898438 147.230469 349.800781 149.90625 336.300781 C 152.585938 322.800781 151.914062 324.601562 156.265625 308.101562 C 160.617188 291.601562 162.957031 258.300781 168.3125 245.398438 C 173.664062 232.5 179.355469 214.5 194.746094 220.199219 C 210.136719 225.898438 226.199219 239.398438 221.851562 254.398438 C 217.5 269.398438 203.78125 291.601562 202.109375 300.898438 C 200.433594 310.199219 187.050781 323.398438 184.707031 327.300781 C 182.367188 331.199219 168.980469 354 164.964844 363.300781 C 162.5 370.183594 159.246094 376.816406 155.261719 383.101562 C 153.589844 385.800781 144.886719 388.800781 137.527344 381.898438 Z M 137.527344 381.898438 "/>
<path style=" stroke:none;fill-rule:nonzero;fill:rgb(5.098039%,22.745098%,7.058824%);fill-opacity:1;" d="M 148.570312 386.101562 C 151.582031 384.898438 154.257812 384.601562 155.261719 383.101562 C 159.246094 376.816406 162.5 370.183594 164.964844 363.300781 C 168.980469 354 182.03125 331.199219 184.707031 327.300781 C 187.382812 323.398438 200.433594 309.898438 202.109375 300.898438 C 203.78125 291.898438 217.164062 269.699219 221.851562 254.398438 C 223.347656 248.992188 222.382812 243.273438 219.171875 238.5 C 219.171875 238.5 221.179688 243.601562 213.148438 260.398438 C 206.828125 272.753906 201.460938 285.484375 197.089844 298.5 C 196.085938 303.300781 194.746094 313.5 189.390625 316.5 C 184.039062 319.5 173.664062 334.800781 171.324219 341.699219 C 168.980469 348.601562 158.609375 374.398438 154.257812 377.699219 C 149.90625 381 145.890625 387.300781 148.570312 386.101562 Z M 189.390625 219.300781 C 178.015625 219 173.332031 234.300781 168.3125 245.398438 C 163.292969 256.5 160.617188 291.300781 156.265625 308.101562 C 151.914062 324.898438 152.917969 323.101562 149.90625 336.300781 C 146.894531 349.5 137.527344 381.898438 137.527344 381.898438 L 140.539062 384.300781 C 140.539062 384.300781 146.226562 382.5 150.578125 365.699219 C 154.925781 348.898438 163.292969 338.398438 163.625 330 C 163.960938 321.601562 166.636719 308.398438 171.324219 303 C 176.007812 297.601562 183.035156 289.800781 182.03125 287.398438 C 181.027344 285 178.683594 290.101562 175.339844 288.898438 C 171.992188 287.699219 172.328125 277.199219 176.007812 272.101562 C 179.6875 267 179.019531 263.699219 181.363281 255.601562 C 183.703125 247.5 187.050781 247.5 186.714844 240.898438 C 187.160156 233.660156 188.054688 226.449219 189.390625 219.300781 Z M 189.390625 219.300781 "/>
<path style="fill:none;stroke-width:0.4;stroke-linecap:round;stroke-linejoin:round;stroke:rgb(0%,0%,0%);stroke-opacity:1;stroke-miterlimit:4;" d="M 41.100126 127.299479 C 41.100126 127.299479 43.99991 116.60026 44.799569 112.10026 C 45.600395 107.60026 45.399605 108.200521 46.700072 102.700521 C 48.000539 97.200521 48.699802 86.10026 50.300287 81.799479 C 51.899605 77.5 53.600485 71.5 58.199982 73.39974 C 62.799479 75.299479 67.599767 79.799479 66.300467 84.799479 C 65 89.799479 60.900144 97.200521 60.400503 100.299479 C 59.899695 103.39974 55.900233 107.799479 55.199802 109.10026 C 54.500539 110.39974 50.49991 118 49.299838 121.10026 C 48.563218 123.394531 47.590787 125.605469 46.400054 127.700521 C 45.900413 128.60026 43.299479 129.60026 41.100126 127.299479 Z M 41.100126 127.299479 " transform="matrix(3.346154,0,0,3,0,0)"/>
<path style="fill-rule:nonzero;fill:rgb(59.607843%,3.137255%,1.960784%);fill-opacity:1;stroke-width:0.4;stroke-linecap:round;stroke-linejoin:round;stroke:rgb(0%,0%,0%);stroke-opacity:1;stroke-miterlimit:4;" d="M 41.100126 127.299479 C 42.014188 126.671875 43.091685 126.324219 44.199533 126.299479 C 45.5 126.39974 46.899695 127.700521 45.999641 128.39974 C 45.099587 129.10026 41.400144 129.10026 41.100126 127.299479 Z M 56.399874 106.60026 C 56.52245 105.338542 56.89718 104.114583 57.499551 103 C 58.300377 101.89974 60.199713 100.89974 60.600126 101.299479 C 61.000539 101.700521 60.300108 104.200521 59.400054 105.299479 C 58.936602 105.996094 58.32139 106.578125 57.599946 107 C 56.99991 107.39974 56.299479 107.89974 56.399874 106.60026 Z M 56.399874 106.60026 " transform="matrix(3.346154,0,0,3,0,0)"/>
<path style=" stroke:none;fill-rule:nonzero;fill:rgb(81.568627%,60.784314%,2.745098%);fill-opacity:1;" d="M 184.707031 284.398438 C 187.375 281.390625 189.3125 277.917969 190.394531 274.199219 C 192.402344 268.5 191.398438 263.699219 193.742188 264.601562 C 196.085938 265.5 195.75 265.199219 198.09375 261.601562 C 200.433594 258 199.097656 255.898438 201.4375 253.800781 C 203.78125 251.699219 205.789062 253.199219 206.457031 250.800781 C 207.125 248.398438 198.425781 240.300781 196.085938 241.199219 C 193.742188 242.101562 190.730469 242.398438 191.398438 246.601562 C 192.070312 250.800781 190.0625 250.5 191.398438 254.101562 C 192.738281 257.699219 193.40625 258 190.730469 260.699219 C 188.054688 263.398438 186.378906 262.5 187.050781 266.699219 C 187.71875 270.898438 183.703125 280.800781 183.371094 282.898438 C 183.035156 285 183.703125 286.199219 184.707031 284.398438 Z M 182.699219 306 C 182.996094 303.851562 183.554688 301.738281 184.375 299.699219 C 185.710938 296.101562 189.726562 294.601562 191.066406 291.300781 C 192.402344 288 195.75 287.101562 193.074219 292.199219 C 190.394531 297.300781 188.386719 297.898438 187.382812 300.898438 C 186.378906 303.898438 183.703125 309 182.699219 306 Z M 182.699219 306 "/>
<path style="fill-rule:nonzero;fill:rgb(59.607843%,3.137255%,1.960784%);fill-opacity:1;stroke-width:0.4;stroke-linecap:round;stroke-linejoin:round;stroke:rgb(0%,0%,0%);stroke-opacity:1;stroke-miterlimit:4;" d="M 66.399695 80 C 66.399695 80 67.400144 82.299479 63.999551 82 C 60.600126 81.700521 59.100036 81.39974 58.699623 79.89974 C 58.300377 78.39974 58.300377 78.10026 56.800287 77.10026 C 55.300198 76.10026 53.999731 74.200521 55.999461 73 C 58.000359 71.799479 65.700431 76.799479 66.399695 80 Z M 66.399695 80 " transform="matrix(3.346154,0,0,3,0,0)"/>
<path style="fill:none;stroke-width:0.4;stroke-linecap:round;stroke-linejoin:round;stroke:rgb(0%,0%,0%);stroke-opacity:1;stroke-miterlimit:4;" d="M 57.100305 74.299479 C 57.100305 74.299479 55.699443 74.10026 56.399874 75.10026 C 57.100305 76.10026 57.700341 75.39974 58.5 76.60026 C 59.299659 77.799479 59.400054 79.200521 60.499731 79.89974 C 61.600575 80.60026 63.600305 81.60026 64.200341 80.89974 C 64.800377 80.200521 65 79.5 63.600305 78.5 C 62.199443 77.5 61.99982 76.89974 61.000539 76.200521 C 60.28143 75.697917 59.463093 75.356771 58.600395 75.200521 " transform="matrix(3.346154,0,0,3,0,0)"/>
<path style="fill:none;stroke-width:0.4;stroke-linecap:round;stroke-linejoin:round;stroke:rgb(0%,0%,0%);stroke-opacity:1;stroke-miterlimit:4;" d="M 60.799749 78.89974 C 60.891972 78.28776 60.70986 77.665365 60.300108 77.200521 C 59.700072 76.5 59.500449 75.799479 61.600575 77.700521 C 63.699533 79.60026 63.199892 80.5 62.499461 79.799479 " transform="matrix(3.346154,0,0,3,0,0)"/>
<path style=" stroke:none;fill-rule:nonzero;fill:rgb(19.607843%,34.117647%,13.72549%);fill-opacity:1;" d="M 83.988281 219.898438 C 83.988281 219.898438 94.695312 245.101562 95.699219 260.699219 C 96.703125 276.300781 99.046875 284.699219 101.386719 288.300781 C 103.730469 291.898438 106.074219 296.699219 106.40625 311.101562 C 106.40625 311.101562 107.410156 330.300781 109.085938 338.699219 C 110.757812 347.101562 116.113281 373.800781 115.441406 377.699219 C 114.773438 381.601562 104.398438 387.898438 101.386719 383.699219 C 98.375 379.5 90.011719 356.101562 86.664062 349.800781 C 83.320312 343.5 72.277344 313.800781 69.265625 309.300781 C 66.253906 304.800781 56.550781 290.398438 56.214844 282.601562 C 55.878906 274.800781 51.195312 266.398438 47.851562 258.898438 C 44.503906 251.398438 41.828125 246.300781 42.832031 241.800781 C 43.835938 237.300781 70.605469 214.800781 83.988281 219.898438 Z M 83.988281 219.898438 "/>
<path style=" stroke:none;fill-rule:nonzero;fill:rgb(5.098039%,22.745098%,7.058824%);fill-opacity:1;" d="M 57.21875 228.300781 C 51.53125 236.101562 43.164062 240 42.832031 241.800781 C 42.496094 243.601562 44.839844 251.398438 47.851562 258.898438 C 50.863281 266.398438 55.546875 274.5 56.214844 282.601562 C 56.882812 290.699219 66.253906 304.800781 69.265625 309.300781 C 72.277344 313.800781 83.320312 343.5 86.664062 349.800781 C 90.011719 356.101562 98.042969 379.5 101.386719 383.699219 C 104.734375 387.898438 106.074219 387 107.078125 384.601562 C 107.898438 380.34375 107.316406 375.964844 105.402344 372 C 102.726562 368.398438 92.019531 351.898438 91.683594 343.199219 C 91.351562 334.5 79.972656 306.300781 76.960938 303.601562 C 73.949219 300.898438 62.238281 290.398438 62.90625 283.199219 C 63.578125 276 68.597656 280.5 70.605469 276.300781 C 72.613281 272.101562 61.570312 244.199219 60.566406 239.699219 C 59.5625 235.199219 58.890625 226.199219 57.21875 228.300781 Z M 57.21875 228.300781 "/>
<path style=" stroke:none;fill-rule:nonzero;fill:rgb(59.607843%,3.137255%,1.960784%);fill-opacity:1;" d="M 45.171875 251.398438 C 45.171875 251.398438 53.875 249.898438 56.214844 254.699219 C 57.003906 257.753906 58.886719 260.492188 61.570312 262.5 C 63.910156 264.300781 61.570312 265.5 62.90625 271.199219 C 64.246094 276.898438 64.582031 282 65.917969 285.300781 C 67.257812 288.601562 66.921875 292.800781 64.914062 291.601562 C 62.90625 290.398438 62.90625 286.199219 61.234375 281.101562 C 60.820312 278.21875 59.277344 275.5625 56.882812 273.601562 C 54.660156 271.601562 52.847656 269.265625 51.53125 266.699219 "/>
<path style=" stroke:none;fill-rule:nonzero;fill:rgb(5.098039%,22.745098%,7.058824%);fill-opacity:1;" d="M 113.433594 380.699219 C 114.773438 381.601562 115.109375 378.601562 115.441406 377.699219 C 115.777344 376.800781 110.757812 346.800781 109.085938 338.699219 C 107.410156 330.601562 106.40625 311.101562 106.40625 311.101562 C 106.074219 296.699219 103.730469 292.199219 101.386719 288.300781 C 99.046875 284.398438 96.371094 276 95.699219 260.699219 C 95.03125 245.398438 83.988281 219.898438 83.988281 219.898438 C 80.59375 218.945312 76.9375 219.050781 73.617188 220.199219 C 73.617188 220.199219 72.945312 220.199219 77.628906 229.199219 C 82.316406 238.199219 91.351562 255.300781 91.015625 262.800781 C 90.679688 270.300781 101.722656 294 101.054688 301.199219 C 100.382812 308.398438 104.734375 332.699219 105.070312 337.800781 C 105.402344 342.898438 110.757812 364.199219 111.09375 368.101562 C 111.425781 372 111.761719 379.800781 113.433594 380.699219 Z M 113.433594 380.699219 "/>
<path style="fill:none;stroke-width:0.4;stroke-linecap:round;stroke-linejoin:round;stroke:rgb(0%,0%,0%);stroke-opacity:1;stroke-miterlimit:4;" d="M 25.099946 73.299479 C 25.099946 73.299479 28.299749 81.700521 28.599767 86.89974 C 28.899784 92.10026 29.600216 94.89974 30.299479 96.10026 C 30.99991 97.299479 31.700341 98.89974 31.799569 103.700521 C 31.799569 103.700521 32.099587 110.10026 32.600395 112.89974 C 33.100036 115.700521 34.700521 124.60026 34.499731 125.89974 C 34.300108 127.200521 31.199533 129.299479 30.299479 127.89974 C 29.399425 126.5 26.900054 118.700521 25.899605 116.60026 C 24.900323 114.5 21.600126 104.60026 20.700072 103.10026 C 19.800018 101.60026 16.900233 96.799479 16.799838 94.200521 C 16.699443 91.60026 15.299749 88.799479 14.300467 86.299479 C 13.300018 83.799479 12.500359 82.10026 12.800377 80.60026 C 13.100395 79.10026 21.100485 71.60026 25.099946 73.299479 Z M 25.099946 73.299479 " transform="matrix(3.346154,0,0,3,0,0)"/>
<path style="fill-rule:nonzero;fill:rgb(59.607843%,3.137255%,1.960784%);fill-opacity:1;stroke-width:0.4;stroke-linecap:round;stroke-linejoin:round;stroke:rgb(0%,0%,0%);stroke-opacity:1;stroke-miterlimit:4;" d="M 34.499731 125.299479 C 33.417565 125.154948 32.323725 125.483073 31.499551 126.200521 C 30.599497 127.10026 30.200251 127 30.299479 127.89974 C 30.399874 128.799479 32.699623 128.89974 33.599677 127.799479 C 34.375988 127.223958 34.730873 126.238281 34.499731 125.299479 Z M 34.499731 125.299479 " transform="matrix(3.346154,0,0,3,0,0)"/>
<path style=" stroke:none;fill-rule:nonzero;fill:rgb(81.568627%,60.784314%,2.745098%);fill-opacity:1;" d="M 72.277344 262.5 C 70.117188 264.476562 69.234375 267.304688 69.933594 270 C 70.9375 275.699219 70.605469 277.800781 71.273438 283.199219 C 72.171875 287.167969 72.84375 291.171875 73.28125 295.199219 C 73.28125 299.398438 75.289062 302.398438 73.28125 301.199219 C 71.273438 300 69.601562 294.898438 67.257812 288.898438 C 64.914062 282.898438 63.578125 278.699219 61.902344 274.800781 C 60.230469 270.898438 58.890625 268.800781 61.902344 266.699219 C 64.914062 264.601562 64.914062 263.398438 66.921875 261.898438 C 68.929688 260.398438 70.605469 258 72.277344 262.5 Z M 89.34375 325.199219 C 90.011719 327.273438 90.90625 329.285156 92.019531 331.199219 C 94.222656 335.179688 96.125 339.289062 97.707031 343.5 C 99.046875 346.5 102.058594 350.101562 99.046875 351.601562 C 96.035156 353.101562 95.699219 352.5 93.691406 345.601562 C 91.683594 338.699219 91.683594 337.199219 89.007812 332.699219 C 86.332031 328.199219 83.652344 327.300781 85.660156 324.300781 C 87.667969 321.300781 89.34375 325.199219 89.34375 325.199219 Z M 89.34375 325.199219 "/>
<path style="fill-rule:nonzero;fill:rgb(99.607843%,74.901961%,6.27451%);fill-opacity:1;stroke-width:0.4;stroke-linecap:round;stroke-linejoin:round;stroke:rgb(0%,0%,0%);stroke-opacity:1;stroke-miterlimit:4;" d="M 23.799479 71.700521 C 24.000269 71.799479 25.500359 72.200521 25.399964 75.10026 C 25.299569 78 21.700521 80.10026 20.500449 81.60026 C 19.300377 83.10026 15.899784 82.89974 14.900503 82.299479 C 13.900054 81.700521 11.49991 81.60026 13.199623 78.5 C 14.900503 75.39974 17.099856 72.60026 19.399605 72.10026 C 21.700521 71.60026 22.899425 71.200521 23.799479 71.700521 Z M 23.799479 71.700521 " transform="matrix(3.346154,0,0,3,0,0)"/>
<path style="fill:none;stroke-width:0.4;stroke-linecap:round;stroke-linejoin:round;stroke:rgb(0%,0%,0%);stroke-opacity:1;stroke-miterlimit:4;" d="M 20.200431 73.10026 C 20.200431 73.10026 22.399784 72 23.499461 73.5 C 24.600305 75 23.100216 77.10026 22.000539 78.5 C 21.095815 79.615885 19.972791 80.535156 18.700341 81.200521 " transform="matrix(3.346154,0,0,3,0,0)"/>
<path style="fill:none;stroke-width:0.4;stroke-linecap:round;stroke-linejoin:round;stroke:rgb(0%,0%,0%);stroke-opacity:1;stroke-miterlimit:4;" d="M 21.00009 78.39974 C 21.00009 78.39974 22.600575 76.89974 22.50018 75.60026 C 22.399784 74.299479 22.399784 73.60026 21.300108 74.10026 C 20.304328 74.539062 19.265356 74.875 18.199533 75.10026 C 17.300647 75.60026 16.622396 76.421875 16.300198 77.39974 C 15.800557 78.5 14.300467 78.60026 14.999731 79.60026 C 15.700162 80.60026 15.899784 80.39974 16.49982 81 C 16.725126 81.390625 17.150054 81.622396 17.599497 81.60026 " transform="matrix(3.346154,0,0,3,0,0)"/>
<path style="fill:none;stroke-width:0.4;stroke-linecap:round;stroke-linejoin:round;stroke:rgb(0%,0%,0%);stroke-opacity:1;stroke-miterlimit:4;" d="M 19.5 76.10026 C 20.400054 76 21.499731 76.200521 20.500449 77.700521 C 19.5 79.200521 19.399605 80.200521 18.299928 80.39974 C 17.200251 80.60026 15.700162 80.10026 16.399425 79.200521 C 17.099856 78.299479 17.800287 78.700521 18.599946 78 " transform="matrix(3.346154,0,0,3,0,0)"/>
<path style=" stroke:none;fill-rule:nonzero;fill:rgb(19.607843%,34.117647%,13.72549%);fill-opacity:1;" d="M 143.550781 178.5 C 145.222656 173.398438 147.566406 158.101562 149.90625 150 C 152.25 141.898438 158.273438 130.800781 158.273438 126.300781 C 158.273438 121.800781 154.925781 119.398438 156.265625 111.898438 C 157.605469 104.398438 161.953125 72.601562 163.625 64.800781 C 165.300781 57 171.65625 38.101562 179.6875 35.398438 C 187.71875 32.699219 212.480469 46.5 214.824219 57.601562 C 217.164062 68.699219 212.816406 79.199219 207.796875 93.898438 C 202.777344 108.601562 202.441406 109.800781 201.4375 114 C 200.433594 118.199219 187.050781 137.101562 180.023438 149.398438 C 172.996094 161.699219 165.96875 180.601562 162.625 187.800781 C 159.277344 195 157.9375 202.5 154.59375 201.898438 C 151.246094 201.300781 142.878906 196.800781 141.542969 193.199219 C 140.203125 189.601562 143.550781 178.5 143.550781 178.5 Z M 143.550781 178.5 "/>
<path style=" stroke:none;fill-rule:nonzero;fill:rgb(5.098039%,22.745098%,7.058824%);fill-opacity:1;" d="M 150.910156 200.699219 C 152.039062 201.3125 153.289062 201.71875 154.59375 201.898438 C 157.9375 202.5 158.941406 195 162.625 187.800781 C 166.304688 180.601562 172.660156 161.699219 180.023438 149.398438 C 187.382812 137.101562 200.433594 118.5 201.4375 114 C 202.441406 109.5 202.777344 108.898438 207.796875 93.898438 C 212.816406 78.898438 220.175781 69.601562 217.835938 58.199219 L 214.488281 56.398438 C 214.488281 56.398438 210.136719 57.601562 208.464844 67.199219 C 206.792969 76.800781 202.777344 98.101562 198.761719 105.300781 C 194.746094 112.5 198.09375 112.5 197.089844 116.398438 C 195.730469 121.136719 193.214844 125.542969 189.726562 129.300781 C 186.378906 131.699219 170.652344 151.800781 167.976562 160.199219 C 165.300781 168.601562 159.613281 187.199219 155.929688 191.101562 C 153.355469 193.855469 151.625 197.164062 150.910156 200.699219 Z M 184.707031 35.398438 C 183.105469 34.78125 181.289062 34.78125 179.6875 35.398438 C 171.65625 38.101562 165.632812 57 163.625 64.800781 C 161.621094 72.601562 157.605469 104.699219 156.265625 111.898438 C 154.925781 119.101562 157.9375 121.800781 158.273438 126.300781 C 158.609375 130.800781 152.585938 141.898438 149.90625 150 C 147.230469 158.101562 145.222656 173.398438 143.550781 178.5 C 143.550781 178.5 140.203125 189.898438 141.542969 193.199219 C 141.972656 194.226562 142.660156 195.148438 143.550781 195.898438 C 143.550781 195.898438 147.898438 197.398438 147.898438 190.199219 C 147.898438 183 159.945312 157.199219 161.285156 149.398438 C 162.625 141.601562 176.34375 118.800781 177.347656 108.300781 C 178.351562 97.800781 174.667969 90.898438 176.34375 78.601562 C 178.015625 66.300781 178.683594 64.5 182.367188 57.898438 C 186.046875 51.300781 189.726562 37.199219 184.707031 35.398438 Z M 184.707031 35.398438 "/>
<path style="fill:none;stroke-width:0.4;stroke-linecap:round;stroke-linejoin:round;stroke:rgb(0%,0%,0%);stroke-opacity:1;stroke-miterlimit:4;" d="M 42.900233 59.5 C 43.399874 57.799479 44.100305 52.700521 44.799569 50 C 45.5 47.299479 47.300108 43.60026 47.300108 42.10026 C 47.300108 40.60026 46.299659 39.799479 46.700072 37.299479 C 47.100485 34.799479 48.399784 24.200521 48.899425 21.60026 C 49.400233 19 51.299569 12.700521 53.699713 11.799479 C 56.099856 10.89974 64.399964 15.5 65.100395 19.299479 C 65.799659 23.10026 63.600305 26.39974 62.100216 31.299479 C 60.600126 36.200521 60.499731 36.60026 60.199713 38 C 59.899695 39.39974 55.900233 45.700521 53.800108 49.799479 C 51.699982 53.89974 49.599856 60.200521 48.600575 62.60026 C 47.600126 65 47.199713 67.5 46.200431 67.299479 C 45.199982 67.10026 42.699443 65.60026 42.300198 64.39974 C 41.899784 63.200521 42.900233 59.5 42.900233 59.5 Z M 42.900233 59.5 " transform="matrix(3.346154,0,0,3,0,0)"/>
<path style="fill-rule:nonzero;fill:rgb(99.607843%,74.901961%,6.27451%);fill-opacity:1;stroke-width:0.4;stroke-linecap:round;stroke-linejoin:round;stroke:rgb(0%,0%,0%);stroke-opacity:1;stroke-miterlimit:4;" d="M 56.699892 44.60026 C 56.697557 43.53776 56.900682 42.484375 57.299928 41.5 C 58.099587 39.5 60.199713 36.89974 60.900144 37.5 C 61.600575 38.10026 60.300108 41.60026 59.500449 42.700521 C 58.699623 43.799479 57.100305 45.60026 56.699892 44.60026 Z M 56.699892 44.60026 " transform="matrix(3.346154,0,0,3,0,0)"/>
<path style=" stroke:none;fill-rule:nonzero;fill:rgb(81.568627%,60.784314%,2.745098%);fill-opacity:1;" d="M 158.273438 166.5 C 159.589844 163.667969 160.710938 160.761719 161.621094 157.800781 C 163 152.691406 164.789062 147.679688 166.972656 142.800781 C 169.316406 138.300781 169.984375 131.398438 171.65625 129.898438 C 173.332031 128.398438 177.679688 126.300781 175.003906 134.101562 C 172.328125 141.898438 168.980469 142.800781 167.640625 148.800781 C 166.304688 154.800781 165.632812 162.300781 164.628906 166.800781 C 163.625 171.300781 161.953125 174.898438 159.613281 173.699219 C 157.269531 172.5 157.269531 169.5 158.273438 166.5 Z M 199.765625 62.101562 C 197.839844 66.300781 196.707031 70.761719 196.417969 75.300781 C 195.414062 83.101562 197.421875 87.601562 191.734375 91.800781 C 186.046875 96 182.699219 99.898438 181.363281 93.898438 C 180.023438 87.898438 181.027344 84.601562 182.03125 78 C 183.035156 71.398438 182.367188 64.800781 184.707031 61.199219 C 187.050781 57.601562 188.722656 54 192.070312 53.699219 C 195.414062 53.398438 199.765625 62.101562 199.765625 62.101562 Z M 199.765625 62.101562 "/>
<path style="fill-rule:nonzero;fill:rgb(59.607843%,3.137255%,1.960784%);fill-opacity:1;stroke-width:0.4;stroke-linecap:round;stroke-linejoin:round;stroke:rgb(0%,0%,0%);stroke-opacity:1;stroke-miterlimit:4;" d="M 64.599587 19.89974 C 63.718211 19.671875 62.797144 19.638021 61.899425 19.799479 C 59.899695 19.89974 59.400054 20.799479 58.000359 19.60026 C 56.599497 18.39974 56.699892 16.60026 55.399425 15.299479 C 54.100126 14 52.400413 13.39974 53.699713 11.799479 C 55.00018 10.200521 58.600395 11.799479 60.799749 13.5 C 63.000269 15.200521 67.100126 19.60026 64.599587 19.89974 Z M 64.599587 19.89974 " transform="matrix(3.346154,0,0,3,0,0)"/>
<path style="fill:none;stroke-width:0.4;stroke-linecap:round;stroke-linejoin:round;stroke:rgb(0%,0%,0%);stroke-opacity:1;stroke-miterlimit:4;" d="M 62.700251 17.89974 C 62.400233 18.700521 62.899874 18.89974 61.200162 18.60026 C 59.500449 18.299479 59.899695 18.5 58.600395 17.299479 C 57.299928 16.10026 56.699892 14.89974 55.999461 14.200521 C 55.300198 13.5 54.500539 12.5 55.49982 12.700521 C 56.500269 12.89974 57.199533 13.700521 58.000359 13.799479 " transform="matrix(3.346154,0,0,3,0,0)"/>
<path style="fill:none;stroke-width:0.4;stroke-linecap:round;stroke-linejoin:round;stroke:rgb(0%,0%,0%);stroke-opacity:1;stroke-miterlimit:4;" d="M 61.50018 17.200521 C 60.799749 17.5 60.799749 18.200521 59.899695 17.200521 C 59.3125 16.458333 58.641254 15.78776 57.899964 15.200521 C 57.299928 14.700521 57.400323 14.299479 58.300377 14.60026 C 59.082525 14.632812 59.842493 14.875 60.499731 15.299479 C 61.300557 15.89974 61.300557 17.39974 60.600126 16.700521 " transform="matrix(3.346154,0,0,3,0,0)"/>
<path style=" stroke:none;fill-rule:nonzero;fill:rgb(19.607843%,34.117647%,13.72549%);fill-opacity:1;" d="M 39.148438 49.199219 C 39.148438 49.199219 41.15625 56.101562 43.164062 63.898438 C 44.984375 71.515625 48.636719 78.683594 53.875 84.898438 C 61.175781 96.097656 67.121094 107.964844 71.609375 120.300781 C 72.945312 126.898438 84.65625 152.398438 87.667969 160.199219 C 90.679688 168 102.058594 193.199219 104.398438 195.601562 C 106.742188 198 119.457031 203.101562 119.457031 195 C 119.457031 186.898438 115.441406 167.398438 114.4375 161.398438 C 113.433594 155.398438 106.074219 122.101562 105.738281 114.898438 C 105.402344 107.699219 103.0625 105.601562 106.40625 104.699219 C 109.753906 103.800781 114.105469 103.199219 112.429688 97.800781 C 110.757812 92.398438 107.746094 85.199219 104.066406 84 C 100.382812 82.800781 99.378906 81.601562 98.375 79.800781 C 97.375 78 95.03125 63.300781 94.027344 60.898438 C 93.023438 58.5 92.6875 42.898438 79.636719 41.101562 C 66.589844 39.300781 55.210938 37.800781 47.851562 41.398438 C 40.488281 45 39.484375 46.5 39.148438 49.199219 Z M 39.148438 49.199219 "/>
<path style=" stroke:none;fill-rule:nonzero;fill:rgb(5.098039%,22.745098%,7.058824%);fill-opacity:1;" d="M 68.261719 39.601562 L 79.636719 41.101562 C 92.6875 42.898438 93.359375 58.199219 94.027344 60.898438 C 94.695312 63.601562 97.039062 78.300781 98.375 79.800781 C 99.714844 81.300781 100.382812 82.5 104.066406 84 C 107.746094 85.5 110.757812 92.398438 112.429688 97.800781 C 114.105469 103.199219 109.753906 104.101562 106.40625 104.699219 C 103.0625 105.300781 105.070312 107.398438 105.738281 114.898438 C 106.40625 122.398438 113.769531 155.398438 114.4375 161.398438 C 115.109375 167.398438 119.457031 186.898438 119.457031 195 C 119.566406 196.519531 118.8125 197.988281 117.449219 198.898438 C 112.777344 196.105469 109.714844 191.605469 109.085938 186.601562 C 108.414062 178.199219 104.398438 167.699219 99.378906 150 C 94.363281 132.300781 84.65625 97.800781 80.308594 90 C 75.957031 82.199219 71.609375 68.101562 69.265625 62.398438 C 66.921875 56.699219 61.902344 39 68.261719 39.601562 Z M 106.40625 197.101562 C 105.402344 197.398438 104.734375 196.199219 104.398438 195.601562 C 104.066406 195 90.347656 168.300781 87.667969 160.199219 C 84.992188 152.101562 72.945312 126.898438 71.609375 120.300781 C 67.121094 107.964844 61.175781 96.097656 53.875 84.898438 C 48.636719 78.683594 44.984375 71.515625 43.164062 63.898438 C 41.15625 56.101562 39.148438 49.199219 39.148438 49.199219 C 39.148438 49.199219 40.488281 45.300781 46.511719 42.300781 C 47.234375 46.648438 48.242188 50.957031 49.523438 55.199219 C 51.53125 63.601562 55.210938 79.199219 58.558594 83.101562 C 61.902344 87 75.957031 100.199219 77.296875 113.398438 C 78.632812 126.601562 86.332031 142.5 88.339844 149.101562 C 90.347656 155.699219 97.707031 178.800781 100.71875 182.398438 C 103.730469 186 109.085938 196.800781 106.40625 197.101562 Z M 106.40625 197.101562 "/>
<path style="fill:none;stroke-width:0.4;stroke-linecap:round;stroke-linejoin:round;stroke:rgb(0%,0%,0%);stroke-opacity:1;stroke-miterlimit:4;" d="M 11.699533 16.39974 C 11.699533 16.39974 12.299569 18.700521 12.899605 21.299479 C 13.443606 23.838542 14.535111 26.227865 16.100575 28.299479 C 18.282417 32.032552 20.059177 35.988281 21.400503 40.10026 C 21.799749 42.299479 25.299569 50.799479 26.199623 53.39974 C 27.099677 56 30.500269 64.39974 31.199533 65.200521 C 31.899964 66 35.699802 67.700521 35.699802 65 C 35.699802 62.299479 34.499731 55.799479 34.199713 53.799479 C 33.899695 51.799479 31.700341 40.700521 31.599946 38.299479 C 31.499551 35.89974 30.800287 35.200521 31.799569 34.89974 C 32.800018 34.60026 34.100485 34.39974 33.599677 32.60026 C 33.100036 30.799479 32.199982 28.39974 31.100305 28 C 29.999461 27.60026 29.699443 27.200521 29.399425 26.60026 C 29.100575 26 28.400144 21.10026 28.100126 20.299479 C 27.800108 19.5 27.699713 14.299479 23.799479 13.700521 C 19.900413 13.10026 16.49982 12.60026 14.300467 13.799479 C 12.099946 15 11.399515 14.799479 11.699533 16.39974 Z M 11.699533 16.39974 " transform="matrix(3.346154,0,0,3,0,0)"/>
<path style="fill-rule:nonzero;fill:rgb(59.607843%,3.137255%,1.960784%);fill-opacity:1;stroke-width:0.4;stroke-linecap:round;stroke-linejoin:round;stroke:rgb(0%,0%,0%);stroke-opacity:1;stroke-miterlimit:4;" d="M 19.900413 36.89974 C 19.621408 37.960938 19.691451 39.082031 20.100036 40.10026 C 20.700072 41.60026 22.399784 41.89974 22.50018 40.60026 C 22.456986 39.184896 21.966685 37.81901 21.100485 36.700521 C 20.708244 36.445312 20.18759 36.532552 19.900413 36.89974 Z M 19.900413 36.89974 " transform="matrix(3.346154,0,0,3,0,0)"/>
<path style="fill-rule:nonzero;fill:rgb(99.607843%,74.901961%,6.27451%);fill-opacity:1;stroke-width:0.4;stroke-linecap:round;stroke-linejoin:round;stroke:rgb(0%,0%,0%);stroke-opacity:1;stroke-miterlimit:4;" d="M 31.299928 28.299479 C 31.2544 29.480469 31.389817 30.660156 31.700341 31.799479 C 32.300377 33.39974 33.100036 34.5 33.400054 34.39974 C 33.700072 34.299479 34.400503 33.799479 33.500449 31.60026 C 32.600395 29.39974 31.799569 27.299479 31.299928 28.299479 Z M 31.299928 28.299479 " transform="matrix(3.346154,0,0,3,0,0)"/>
<path style="fill-rule:nonzero;fill:rgb(59.607843%,3.137255%,1.960784%);fill-opacity:1;stroke-width:0.4;stroke-linecap:round;stroke-linejoin:round;stroke:rgb(0%,0%,0%);stroke-opacity:1;stroke-miterlimit:4;" d="M 35.699802 65.5 C 35.50018 64.700521 34.900144 64.60026 33.299659 64.200521 C 31.700341 63.799479 30.599497 63.799479 30.599497 64.5 C 30.599497 65.200521 31.899964 66.39974 33.200431 66.700521 C 34.499731 67 36.100216 67.200521 35.699802 65.5 Z M 35.699802 65.5 " transform="matrix(3.346154,0,0,3,0,0)"/>
<path style=" stroke:none;fill-rule:nonzero;fill:rgb(81.568627%,60.784314%,2.745098%);fill-opacity:1;" d="M 75.289062 72.898438 C 74.621094 74.101562 73.617188 77.398438 71.609375 75.601562 C 69.601562 73.800781 67.59375 75 68.597656 78.300781 C 69.601562 81.601562 70.605469 82.5 74.285156 87 C 77.539062 91.222656 79.707031 96.039062 80.640625 101.101562 C 81.722656 104.617188 83.414062 107.957031 85.660156 111 C 87.832031 115.621094 89.40625 120.453125 90.347656 125.398438 C 91.015625 128.101562 91.683594 135 93.359375 137.101562 C 95.03125 139.199219 97.039062 142.800781 97.039062 138 C 97.039062 133.199219 93.023438 121.5 91.683594 117 C 90.347656 112.5 90.679688 108.898438 92.019531 111 C 93.382812 113.371094 94.394531 115.894531 95.03125 118.5 C 96.371094 121.800781 100.050781 121.5 97.707031 116.101562 C 95.367188 110.699219 91.683594 98.699219 90.679688 95.398438 C 89.675781 92.101562 87.335938 87 85.996094 88.5 C 84.65625 90 85.996094 97.5 83.988281 94.5 C 81.980469 91.5 81.980469 82.5 80.308594 78 C 78.632812 73.5 76.625 70.199219 75.289062 72.898438 Z M 75.289062 72.898438 "/>
<path style="fill-rule:nonzero;fill:rgb(99.607843%,74.901961%,6.27451%);fill-opacity:1;stroke-width:0.4;stroke-linecap:round;stroke-linejoin:round;stroke:rgb(0%,0%,0%);stroke-opacity:1;stroke-miterlimit:4;" d="M 11.49991 14.60026 C 11.49991 14.60026 11.199892 15.299479 12.800377 16.89974 C 14.212913 18.488281 16.279185 19.33724 18.400323 19.200521 C 21.100485 19.10026 23.100216 18.89974 23.499461 18 C 23.899874 17.10026 23.599856 16.700521 24.300287 16.60026 C 24.999551 16.5 25.899605 16.299479 25.899605 15.200521 C 25.899605 14.10026 25.299569 13.5 23.299838 12.60026 C 21.300108 11.700521 21.400503 11.799479 19.199982 11.700521 C 16.999461 11.60026 16.799838 11.299479 15.100126 12.200521 C 13.400413 13.10026 11.699533 13 11.49991 14.60026 Z M 11.49991 14.60026 " transform="matrix(3.346154,0,0,3,0,0)"/>
<path style="fill:none;stroke-width:0.4;stroke-linecap:round;stroke-linejoin:round;stroke:rgb(0%,0%,0%);stroke-opacity:1;stroke-miterlimit:4;" d="M 24.300287 15 C 23.772629 14.022135 22.870241 13.300781 21.799749 13 C 20.200431 12.799479 19.199982 12.5 17.699892 13 C 16.199802 13.5 14.200072 13.5 13.900054 14.5 C 13.600036 15.5 14.099677 15.89974 14.800108 16.799479 C 15.500539 17.700521 16.49982 18.10026 18.599946 18 C 20.700072 17.89974 22.99982 17.10026 22.99982 16.799479 " transform="matrix(3.346154,0,0,3,0,0)"/>
<path style="fill:none;stroke-width:0.4;stroke-linecap:round;stroke-linejoin:round;stroke:rgb(0%,0%,0%);stroke-opacity:1;stroke-miterlimit:4;" d="M 16.100575 14.60026 C 17.232938 14.238281 18.41083 14.036458 19.600395 14 C 20.700072 14.10026 21.700521 13.799479 22.300557 14.5 C 22.899425 15.200521 22.399784 16.200521 21.100485 16.39974 C 19.800018 16.60026 19.199982 16.200521 17.99991 16.39974 C 17.253951 16.453125 16.50449 16.351562 15.800557 16.10026 " transform="matrix(3.346154,0,0,3,0,0)"/>
<path style="fill:none;stroke-width:0.4;stroke-linecap:round;stroke-linejoin:round;stroke:rgb(0%,0%,0%);stroke-opacity:1;stroke-miterlimit:4;" d="M 20.200431 14.799479 C 19.256017 14.729167 18.306932 14.830729 17.399874 15.10026 C 16.799838 15.5 17.399874 15.200521 18.599946 15.5 C 19.800018 15.799479 20.800467 16 20.800467 15.60026 " transform="matrix(3.346154,0,0,3,0,0)"/>
<path style="fill:none;stroke-width:0.4;stroke-linecap:round;stroke-linejoin:round;stroke:rgb(0%,0%,0%);stroke-opacity:1;stroke-miterlimit:4;" d="M 8.00009 7.89974 L 69.99991 7.89974 L 69.99991 132.209635 L 8.00009 132.209635 Z M 8.00009 7.89974 " transform="matrix(3.346154,0,0,3,0,0)"/>
</g>
</svg>
