<?xml version="1.0" encoding="UTF-8"?>
<svg xmlns="http://www.w3.org/2000/svg" xmlns:xlink="http://www.w3.org/1999/xlink" width="261px" height="420px" viewBox="0 0 261 420" version="1.1">
<g id="surface1">
<path style=" stroke:none;fill-rule:nonzero;fill:rgb(100%,100%,100%);fill-opacity:1;" d="M 20.078125 0 L 240.921875 0 C 252.011719 0 261 8.058594 261 18 L 261 402 C 261 411.941406 252.011719 420 240.921875 420 L 20.078125 420 C 8.988281 420 0 411.941406 0 402 L 0 18 C 0 8.058594 8.988281 0 20.078125 0 Z M 20.078125 0 "/>
<path style=" stroke:none;fill-rule:nonzero;fill:rgb(19.607843%,34.117647%,13.72549%);fill-opacity:1;" d="M 94.695312 386.699219 C 94.695312 386.699219 84.65625 360.898438 79.636719 350.699219 C 74.621094 340.5 74.621094 341.699219 68.929688 328.800781 C 63.242188 315.898438 46.847656 292.199219 44.167969 281.101562 C 41.492188 270 35.804688 255.300781 52.199219 252.300781 C 68.597656 249.300781 89.675781 250.800781 94.363281 262.800781 C 99.046875 274.800781 100.050781 296.101562 103.730469 303 C 107.410156 309.898438 103.730469 324.898438 103.730469 328.800781 C 103.730469 332.699219 105.738281 353.699219 107.746094 361.800781 C 109.257812 367.613281 110.152344 373.539062 110.421875 379.5 C 110.421875 382.199219 104.734375 388.199219 94.695312 386.699219 Z M 94.695312 386.699219 "/>
<path style=" stroke:none;fill-rule:nonzero;fill:rgb(5.098039%,22.745098%,7.058824%);fill-opacity:1;" d="M 106.40625 384.601562 C 108.414062 382.5 110.421875 381 110.421875 379.5 C 110.152344 373.539062 109.257812 367.613281 107.746094 361.800781 C 105.738281 353.699219 104.066406 332.699219 103.730469 328.800781 C 103.394531 324.898438 107.410156 309.898438 103.730469 303 C 100.050781 296.101562 99.046875 275.101562 94.363281 262.800781 C 92.171875 258.355469 88.066406 254.890625 82.984375 253.199219 C 82.984375 253.199219 88.003906 255.898438 90.347656 270.898438 C 91.972656 281.984375 94.660156 292.925781 98.375 303.601562 C 99.714844 307.5 104.734375 315 101.722656 319.199219 C 98.710938 323.398438 98.710938 339 100.71875 344.699219 C 102.726562 350.398438 108.414062 372.300781 106.40625 376.199219 C 104.398438 380.101562 104.734375 386.699219 106.40625 384.601562 Z M 47.179688 253.800781 C 37.140625 258.898438 41.828125 271.5 44.167969 281.101562 C 46.511719 290.699219 63.242188 315.601562 68.929688 328.800781 C 74.621094 342 74.621094 340.5 79.636719 350.699219 C 84.65625 360.898438 94.695312 386.699219 94.695312 386.699219 L 98.710938 386.699219 C 98.710938 386.699219 102.390625 383.101562 96.703125 369.601562 C 91.015625 356.101562 92.019531 345.601562 87.667969 339.601562 C 83.320312 333.601562 77.964844 324 78.96875 318 C 79.972656 312 81.3125 303.898438 78.96875 303 C 76.625 302.101562 77.964844 306.300781 74.285156 306.898438 C 70.605469 307.5 65.25 300.300781 65.585938 295.199219 C 65.917969 290.101562 63.578125 288.601562 60.566406 282 C 57.554688 275.398438 60.898438 274.199219 57.21875 269.699219 C 53.40625 264.648438 50.050781 259.332031 47.179688 253.800781 Z M 47.179688 253.800781 "/>
<path style="fill:none;stroke-width:0.4;stroke-linecap:round;stroke-linejoin:round;stroke:rgb(0%,0%,0%);stroke-opacity:1;stroke-miterlimit:4;" d="M 28.299749 128.89974 C 28.299749 128.89974 25.299569 120.299479 23.799479 116.89974 C 22.300557 113.5 22.300557 113.89974 20.599677 109.60026 C 18.899964 105.299479 14.000449 97.39974 13.199623 93.700521 C 12.399964 90 10.700251 85.10026 15.599767 84.10026 C 20.500449 83.10026 26.799659 83.60026 28.200521 87.60026 C 29.600216 91.60026 29.900233 98.700521 30.99991 101 C 32.099587 103.299479 30.99991 108.299479 30.99991 109.60026 C 30.99991 110.89974 31.599946 117.89974 32.199982 120.60026 C 32.65176 122.53776 32.919091 124.513021 32.999641 126.5 C 32.999641 127.39974 31.299928 129.39974 28.299749 128.89974 Z M 28.299749 128.89974 " transform="matrix(3.346154,0,0,3,0,0)"/>
<path style="fill-rule:nonzero;fill:rgb(59.607843%,3.137255%,1.960784%);fill-opacity:1;stroke-width:0.4;stroke-linecap:round;stroke-linejoin:round;stroke:rgb(0%,0%,0%);stroke-opacity:1;stroke-miterlimit:4;" d="M 28.299749 129 C 28.7632 128.046875 29.492816 127.248698 30.399874 126.700521 C 31.599946 126.10026 33.400054 126.200521 32.999641 127.200521 C 32.600395 128.200521 29.399425 130 28.299749 129 Z M 28.299749 129 " transform="matrix(3.346154,0,0,3,0,0)"/>
<path style="fill-rule:nonzero;fill:rgb(99.607843%,74.901961%,6.27451%);fill-opacity:1;stroke-width:0.4;stroke-linecap:round;stroke-linejoin:round;stroke:rgb(0%,0%,0%);stroke-opacity:1;stroke-miterlimit:4;" d="M 30.800287 107.299479 C 30.248114 106.393229 29.938757 105.360677 29.900233 104.299479 C 29.999461 103.200521 31.100305 101.5 31.700341 101.5 C 32.300377 101.5 32.900413 103.700521 32.699623 104.799479 C 32.654095 105.549479 32.412446 106.273438 32.000359 106.89974 C 31.700341 107.5 31.400323 108.200521 30.800287 107.299479 Z M 30.800287 107.299479 " transform="matrix(3.346154,0,0,3,0,0)"/>
<path style=" stroke:none;fill-rule:nonzero;fill:rgb(81.568627%,60.784314%,2.745098%);fill-opacity:1;" d="M 79.972656 300 C 80.324219 296.773438 79.980469 293.511719 78.96875 290.398438 C 77.296875 285.601562 73.949219 282.898438 76.292969 282.300781 C 78.632812 281.699219 78.300781 282 78.300781 278.398438 C 78.300781 274.800781 75.957031 274.199219 76.960938 271.800781 C 77.964844 269.398438 79.972656 269.398438 79.304688 267.601562 C 78.632812 265.800781 66.589844 264 65.25 265.800781 C 63.910156 267.601562 61.234375 268.800781 64.246094 271.5 C 67.257812 274.199219 65.25 274.5 68.261719 276.300781 C 71.273438 278.101562 72.277344 278.398438 71.273438 281.398438 C 70.269531 284.398438 68.929688 284.398438 71.941406 286.800781 C 74.953125 289.199219 76.960938 297.898438 77.964844 299.398438 C 78.96875 300.898438 79.972656 301.5 79.972656 300 Z M 90.347656 315.300781 C 89.207031 313.75 88.410156 312.019531 88.003906 310.199219 C 87.335938 307.199219 89.675781 304.5 89.34375 301.5 C 89.007812 298.5 90.679688 296.699219 91.351562 301.199219 C 92.019531 305.699219 90.679688 307.199219 91.351562 309.898438 C 92.019531 312.601562 92.6875 316.800781 90.347656 315.300781 Z M 90.347656 315.300781 "/>
<path style="fill-rule:nonzero;fill:rgb(59.607843%,3.137255%,1.960784%);fill-opacity:1;stroke-width:0.4;stroke-linecap:round;stroke-linejoin:round;stroke:rgb(0%,0%,0%);stroke-opacity:1;stroke-miterlimit:4;" d="M 26 84.89974 C 26 84.89974 28.100126 86.200521 25.200341 87.799479 C 22.300557 89.39974 20.700072 90 19.600395 89 C 18.803071 88.08724 17.600665 87.635417 16.399425 87.799479 C 14.600485 87.700521 12.500359 87 13.600036 84.89974 C 14.699713 82.799479 23.700251 82.700521 26 84.89974 Z M 26 84.89974 " transform="matrix(3.346154,0,0,3,0,0)"/>
<path style="fill:none;stroke-width:0.4;stroke-linecap:round;stroke-linejoin:round;stroke:rgb(0%,0%,0%);stroke-opacity:1;stroke-miterlimit:4;" d="M 15.200521 85.39974 C 15.200521 85.39974 13.900054 86 14.999731 86.39974 C 16.100575 86.799479 16.199802 85.89974 17.599497 86.5 C 19.000359 87.10026 19.800018 88 21.00009 88 C 22.200162 88 24.49991 87.700521 24.699533 86.799479 C 24.900323 85.89974 24.600305 85.200521 22.899425 85.200521 C 21.199713 85.200521 20.700072 84.799479 19.5 84.700521 C 18.590607 84.729167 17.70106 84.96875 16.900233 85.39974 " transform="matrix(3.346154,0,0,3,0,0)"/>
<path style="fill:none;stroke-width:0.4;stroke-linecap:round;stroke-linejoin:round;stroke:rgb(0%,0%,0%);stroke-opacity:1;stroke-miterlimit:4;" d="M 20.800467 87 C 20.529634 86.496094 20.056843 86.13151 19.5 86 C 18.499551 85.700521 17.899515 85.299479 20.800467 85.60026 C 23.700251 85.89974 23.599856 87 22.699802 86.89974 " transform="matrix(3.346154,0,0,3,0,0)"/>
<path style=" stroke:none;fill-rule:nonzero;fill:rgb(19.607843%,34.117647%,13.72549%);fill-opacity:1;" d="M 147.566406 381 C 148.164062 373.660156 149.738281 366.40625 152.25 359.398438 C 156.265625 350.699219 160.28125 328.5 160.617188 323.699219 C 160.949219 318.898438 165.632812 289.800781 167.976562 279.300781 C 170.320312 268.800781 170.988281 260.101562 181.695312 256.199219 C 192.402344 252.300781 223.859375 259.800781 218.503906 273.601562 C 212.445312 288.902344 204.59375 303.582031 195.082031 317.398438 C 189.058594 325.800781 171.324219 361.800781 167.640625 369.898438 C 163.960938 378 161.621094 387.300781 155.261719 387.300781 C 153.261719 387.574219 151.226562 387.023438 149.734375 385.800781 C 148.238281 384.578125 147.441406 382.8125 147.566406 381 Z M 147.566406 381 "/>
<path style=" stroke:none;fill-rule:nonzero;fill:rgb(5.098039%,22.745098%,7.058824%);fill-opacity:1;" d="M 155.261719 387.300781 C 161.621094 386.699219 164.296875 377.699219 167.640625 369.898438 C 170.988281 362.101562 189.058594 325.800781 195.082031 317.398438 C 199.460938 311.242188 203.375 304.828125 206.792969 298.199219 C 203.558594 298.316406 200.75 300.234375 199.765625 303 C 195.980469 310.453125 191.265625 317.5 185.710938 324 C 181.027344 329.101562 173.332031 346.199219 171.324219 351.300781 C 169.316406 356.398438 160.28125 370.199219 158.609375 375 C 156.933594 379.800781 151.582031 387.601562 155.261719 387.300781 Z M 195.75 255.601562 C 192.402344 251.398438 184.707031 255 181.695312 256.199219 C 170.988281 260.101562 169.984375 269.101562 167.976562 279.300781 C 165.96875 289.5 161.285156 318.898438 160.617188 323.699219 C 159.945312 328.5 156.265625 350.699219 152.25 359.398438 C 149.738281 366.40625 148.164062 373.660156 147.566406 381 C 147.707031 382.792969 148.53125 384.488281 149.90625 385.800781 C 151.902344 382.679688 153.476562 379.355469 154.59375 375.898438 C 156.265625 370.199219 168.644531 334.5 170.652344 329.398438 C 173.457031 319.492188 174.917969 309.320312 175.003906 299.101562 C 174.335938 294 176.34375 276.300781 180.359375 277.199219 C 184.375 278.101562 200.433594 261.898438 195.75 255.601562 Z M 195.75 255.601562 "/>
<path style="fill:none;stroke-width:0.4;stroke-linecap:round;stroke-linejoin:round;stroke:rgb(0%,0%,0%);stroke-opacity:1;stroke-miterlimit:4;" d="M 44.100305 127 C 44.278915 124.553385 44.749371 122.135417 45.5 119.799479 C 46.700072 116.89974 47.900144 109.5 48.000539 107.89974 C 48.099767 106.299479 49.499461 96.60026 50.199892 93.10026 C 50.900323 89.60026 51.099946 86.700521 54.299749 85.39974 C 57.499551 84.10026 66.900503 86.60026 65.300018 91.200521 C 63.489404 96.300781 61.14296 101.19401 58.300377 105.799479 C 56.500269 108.60026 51.200341 120.60026 50.099497 123.299479 C 48.99982 126 48.300557 129.10026 46.400054 129.10026 C 45.802353 129.191406 45.194145 129.007812 44.748204 128.60026 C 44.301096 128.192708 44.062949 127.604167 44.100305 127 Z M 44.100305 127 " transform="matrix(3.346154,0,0,3,0,0)"/>
<path style="fill-rule:nonzero;fill:rgb(59.607843%,3.137255%,1.960784%);fill-opacity:1;stroke-width:0.4;stroke-linecap:round;stroke-linejoin:round;stroke:rgb(0%,0%,0%);stroke-opacity:1;stroke-miterlimit:4;" d="M 47.600126 106.60026 C 47.256915 105.957031 47.117996 105.223958 47.199713 104.5 C 47.499731 103.5 47.700521 101.89974 48.300557 101.799479 C 48.899425 101.700521 49.400233 103 49.199443 104 C 48.976473 104.924479 48.675287 105.826823 48.300557 106.700521 C 48.000539 107.10026 47.799749 106.89974 47.600126 106.60026 Z M 47.600126 106.60026 " transform="matrix(3.346154,0,0,3,0,0)"/>
<path style=" stroke:none;fill-rule:nonzero;fill:rgb(81.568627%,60.784314%,2.745098%);fill-opacity:1;" d="M 187.382812 274.800781 C 186.484375 276.695312 186.027344 278.738281 186.046875 280.800781 C 185.710938 285 188.054688 288 187.382812 291.601562 C 186.714844 295.199219 183.371094 296.398438 184.375 299.101562 C 185.042969 303.980469 185.042969 308.917969 184.375 313.800781 C 183.703125 317.101562 186.046875 319.800781 187.71875 317.398438 C 189.390625 315 186.714844 313.800781 191.066406 310.5 C 195.414062 307.199219 198.09375 307.5 199.429688 303.898438 C 200.769531 300.300781 204.117188 296.699219 201.105469 296.101562 C 198.09375 295.5 196.085938 296.398438 194.078125 300.601562 C 192.070312 304.800781 189.726562 308.699219 188.722656 306.300781 C 187.738281 302.851562 188.605469 299.191406 191.066406 296.398438 C 193.554688 292.589844 194.71875 288.203125 194.410156 283.800781 C 194.410156 280.5 198.09375 277.199219 196.417969 274.800781 C 195.582031 273.246094 193.824219 272.261719 191.902344 272.261719 C 189.976562 272.261719 188.222656 273.246094 187.382812 274.800781 Z M 187.382812 274.800781 "/>
<path style="fill-rule:nonzero;fill:rgb(59.607843%,3.137255%,1.960784%);fill-opacity:1;stroke-width:0.4;stroke-linecap:round;stroke-linejoin:round;stroke:rgb(0%,0%,0%);stroke-opacity:1;stroke-miterlimit:4;" d="M 55.00018 91.39974 C 54.599767 91 52.600036 90.10026 52 89.200521 C 51.399964 88.299479 51.800377 86.89974 53.200072 85.5 C 55.059716 83.938802 57.498384 83.247396 59.899695 83.60026 C 61.800198 84.10026 64.699982 85.799479 65.300018 87.799479 C 65.900054 89.799479 66.099677 90.60026 64.399964 91.10026 C 62.700251 91.60026 61.399784 92.39974 59.700072 92.299479 C 58.000359 92.200521 55.399425 91.799479 55.00018 91.39974 Z M 55.00018 91.39974 " transform="matrix(3.346154,0,0,3,0,0)"/>
<path style="fill:none;stroke-width:0.4;stroke-linecap:round;stroke-linejoin:round;stroke:rgb(0%,0%,0%);stroke-opacity:1;stroke-miterlimit:4;" d="M 63.399515 90 C 62.487787 90.139323 61.585399 90.338542 60.700521 90.60026 C 59.400054 90.89974 56.800287 91.5 55.900233 90.5 C 55.278017 89.726562 54.574084 89.022135 53.800108 88.39974 C 52.900054 87.799479 52.799659 86.799479 53.900503 86.60026 C 55.00018 86.39974 54.800557 86.299479 55.699443 85.60026 C 56.619343 84.688802 57.975844 84.378906 59.200431 84.799479 C 61.300557 85.299479 62.400233 85.60026 63.000269 86.5 C 63.600305 87.39974 64.500359 88 63.799928 88.5 " transform="matrix(3.346154,0,0,3,0,0)"/>
<path style="fill:none;stroke-width:0.4;stroke-linecap:round;stroke-linejoin:round;stroke:rgb(0%,0%,0%);stroke-opacity:1;stroke-miterlimit:4;" d="M 61.300557 89.39974 C 61.300557 89.39974 63.399515 88.700521 62.299838 87.799479 C 61.200162 86.89974 60.400503 86.10026 58.800018 86.299479 C 57.199533 86.5 56.599497 86.200521 55.699443 86.89974 C 54.800557 87.60026 55.49982 87.89974 56.200251 88.700521 C 56.782777 89.449219 57.653646 89.920573 58.600395 90 " transform="matrix(3.346154,0,0,3,0,0)"/>
<path style="fill:none;stroke-width:0.4;stroke-linecap:round;stroke-linejoin:round;stroke:rgb(0%,0%,0%);stroke-opacity:1;stroke-miterlimit:4;" d="M 57.299928 88 C 57.899964 88.39974 58.099587 89.10026 59.100036 89.10026 C 60.100485 89.10026 61.99982 89 60.499731 88.10026 C 59.805136 87.520833 58.881735 87.299479 58.000359 87.5 " transform="matrix(3.346154,0,0,3,0,0)"/>
<path style=" stroke:none;fill-rule:nonzero;fill:rgb(19.607843%,34.117647%,13.72549%);fill-opacity:1;" d="M 171.65625 168 C 167.289062 160.488281 164.351562 152.378906 162.957031 144 C 161.285156 132.300781 156.933594 128.398438 156.601562 123 C 156.265625 117.601562 159.277344 118.5 158.273438 113.699219 C 157.269531 108.898438 155.597656 98.101562 152.917969 94.800781 C 149.613281 91.546875 148.027344 87.175781 148.570312 82.800781 C 149.238281 77.398438 145.222656 68.101562 144.554688 62.398438 C 143.882812 56.699219 139.535156 47.101562 139.199219 42 C 138.867188 36.898438 142.878906 30.898438 149.238281 36 C 155.597656 41.101562 170.320312 75.601562 174.335938 82.199219 C 177.019531 87.03125 180.777344 91.320312 185.375 94.800781 C 189.058594 97.199219 191.066406 103.5 192.070312 108.300781 C 193.074219 113.101562 198.761719 120.898438 201.105469 124.800781 C 203.445312 128.699219 211.476562 140.398438 211.476562 145.800781 C 211.476562 151.199219 182.03125 172.5 171.65625 168 Z M 171.65625 168 "/>
<path style=" stroke:none;fill-rule:nonzero;fill:rgb(5.098039%,22.745098%,7.058824%);fill-opacity:1;" d="M 199.765625 158.101562 C 206.011719 156.398438 210.582031 151.597656 211.476562 145.800781 C 211.476562 140.398438 203.445312 128.699219 201.105469 124.800781 C 198.761719 120.898438 192.738281 113.398438 192.070312 108.300781 C 191.398438 103.199219 189.058594 97.199219 185.375 94.800781 C 180.777344 91.320312 177.019531 87.03125 174.335938 82.199219 C 170.320312 75.601562 155.597656 41.398438 149.238281 36 C 148.398438 35.273438 147.359375 34.753906 146.226562 34.5 C 146.226562 34.5 144.554688 33.601562 151.246094 46.800781 C 157.9375 60 163.292969 70.199219 165.632812 78.601562 C 167.976562 87 178.015625 106.5 179.355469 113.699219 C 180.691406 120.898438 190.0625 160.199219 199.765625 158.101562 Z M 139.871094 39 C 139.199219 39.601562 139.199219 41.101562 139.199219 42 C 139.199219 42.898438 143.550781 56.398438 144.554688 62.398438 C 145.558594 68.398438 149.238281 77.398438 148.570312 82.800781 C 148.027344 87.175781 149.613281 91.546875 152.917969 94.800781 C 155.597656 98.101562 157.605469 109.199219 158.273438 113.699219 C 158.941406 118.199219 155.929688 117.601562 156.601562 123 C 157.269531 128.398438 161.285156 132.300781 162.957031 144 C 162.957031 144 165.96875 147 165.632812 142.199219 C 165.300781 137.398438 159.945312 114.601562 160.617188 108.898438 C 161.285156 103.199219 151.914062 85.800781 152.585938 81.300781 C 153.253906 76.800781 150.910156 59.699219 148.570312 54.601562 C 146.226562 49.5 141.207031 36.898438 139.871094 39 Z M 139.871094 39 "/>
<path style="fill:none;stroke-width:0.4;stroke-linecap:round;stroke-linejoin:round;stroke:rgb(0%,0%,0%);stroke-opacity:1;stroke-miterlimit:4;" d="M 51.299569 56 C 49.994432 53.496094 49.116559 50.792969 48.699802 48 C 48.200162 44.10026 46.899695 42.799479 46.800467 41 C 46.700072 39.200521 47.600126 39.5 47.300108 37.89974 C 47.00009 36.299479 46.500449 32.700521 45.699623 31.60026 C 44.712015 30.515625 44.238057 29.058594 44.400323 27.60026 C 44.599946 25.799479 43.399874 22.700521 43.200251 20.799479 C 42.999461 18.89974 41.700162 15.700521 41.599767 14 C 41.500539 12.299479 42.699443 10.299479 44.599946 12 C 46.500449 13.700521 50.900323 25.200521 52.100395 27.39974 C 52.902389 29.010417 54.025413 30.440104 55.399425 31.60026 C 56.500269 32.39974 57.100305 34.5 57.400323 36.10026 C 57.700341 37.700521 59.400054 40.299479 60.100485 41.60026 C 60.799749 42.89974 63.199892 46.799479 63.199892 48.60026 C 63.199892 50.39974 54.400144 57.5 51.299569 56 Z M 51.299569 56 " transform="matrix(3.346154,0,0,3,0,0)"/>
<path style=" stroke:none;fill-rule:nonzero;fill:rgb(81.568627%,60.784314%,2.745098%);fill-opacity:1;" d="M 183.035156 147.300781 C 181.199219 144.261719 178.953125 141.441406 176.34375 138.898438 C 173.332031 136.800781 171.992188 131.398438 170.988281 129.300781 C 169.984375 127.199219 168.980469 125.101562 167.308594 125.101562 C 165.632812 125.101562 167.976562 132.898438 168.644531 136.5 C 169.316406 140.101562 170.988281 142.800781 168.980469 141.300781 C 166.972656 139.800781 164.964844 138.601562 165.96875 143.101562 C 166.972656 147.601562 168.644531 158.398438 171.65625 160.199219 M 161.953125 83.101562 L 161.953125 82.5 C 161.632812 80.839844 161.070312 79.226562 160.28125 77.699219 C 158.941406 74.101562 157.269531 72.601562 157.269531 70.199219 C 157.269531 67.800781 158.609375 65.699219 160.617188 70.199219 C 162.625 74.699219 160.949219 74.398438 163.625 78.601562 C 166.304688 82.800781 168.3125 85.5 166.304688 86.101562 C 164.296875 86.699219 161.953125 83.101562 161.953125 83.101562 Z M 161.953125 83.101562 "/>
<path style="fill-rule:nonzero;fill:rgb(59.607843%,3.137255%,1.960784%);fill-opacity:1;stroke-width:0.4;stroke-linecap:round;stroke-linejoin:round;stroke:rgb(0%,0%,0%);stroke-opacity:1;stroke-miterlimit:4;" d="M 56.599497 58.10026 L 53.300467 57.10026 C 51.800377 56.700521 50.099497 56.5 51.299569 53.39974 C 52.499641 50.299479 55.999461 48 57.599946 48.10026 C 59.200431 48.200521 61.600575 46.89974 62.599856 47.799479 C 63.810435 49.058594 64.090607 50.94401 63.300287 52.5 C 62.499461 54.5 61.899425 55.89974 60.400503 56.60026 C 58.900413 57.299479 57.299928 58.200521 56.599497 58.10026 Z M 56.599497 58.10026 " transform="matrix(3.346154,0,0,3,0,0)"/>
<path style="fill:none;stroke-width:0.4;stroke-linecap:round;stroke-linejoin:round;stroke:rgb(0%,0%,0%);stroke-opacity:1;stroke-miterlimit:4;" d="M 61.200162 49.39974 C 60.217223 49.096354 59.16074 49.13151 58.199982 49.5 C 56.299479 50 56.599497 50 55.00018 51.5 C 53.399695 53 52.600036 53.200521 52.700431 54.299479 C 52.799659 55.39974 53.200072 56.299479 54.599767 56.10026 C 55.999461 55.89974 55.900233 56.299479 57.199533 56.10026 C 58.09842 56.08724 58.957615 55.729167 59.599677 55.10026 C 60.395833 54.483073 61.044899 53.697917 61.50018 52.799479 " transform="matrix(3.346154,0,0,3,0,0)"/>
<path style="fill:none;stroke-width:0.4;stroke-linecap:round;stroke-linejoin:round;stroke:rgb(0%,0%,0%);stroke-opacity:1;stroke-miterlimit:4;" d="M 54.400144 55 C 55.300198 54.799479 56.599497 55.299479 57.799569 54.700521 C 58.802353 54.277344 59.693068 53.626302 60.400503 52.799479 C 61.200162 52 62.400233 51.299479 61.399784 50.799479 C 60.400503 50.299479 60.00009 49.39974 58.699623 50.60026 C 57.878951 51.311198 56.971893 51.916667 55.999461 52.39974 " transform="matrix(3.346154,0,0,3,0,0)"/>
<path style="fill:none;stroke-width:0.4;stroke-linecap:round;stroke-linejoin:round;stroke:rgb(0%,0%,0%);stroke-opacity:1;stroke-miterlimit:4;" d="M 59.100036 52.60026 C 59.100036 52.60026 57.199533 54.200521 56.399874 54.10026 C 55.600216 54 54.200521 54.200521 55.00018 53.60026 C 55.799838 53 56.899515 53.299479 57.499551 52.700521 " transform="matrix(3.346154,0,0,3,0,0)"/>
<path style=" stroke:none;fill-rule:nonzero;fill:rgb(19.607843%,34.117647%,13.72549%);fill-opacity:1;" d="M 88.671875 172.5 L 93.023438 160.199219 C 95.394531 154.035156 96.082031 147.453125 95.03125 141 C 93.691406 133.800781 96.371094 113.699219 98.375 108.300781 C 100.382812 102.898438 104.398438 80.398438 106.074219 73.5 C 107.746094 66.601562 110.757812 44.101562 110.089844 41.398438 C 109.417969 38.699219 101.054688 29.699219 96.703125 35.398438 C 92.355469 41.101562 85.328125 56.398438 82.984375 61.199219 C 80.640625 66 69.265625 92.699219 65.917969 98.101562 C 62.574219 103.5 62.90625 105.601562 59.894531 104.699219 C 56.882812 103.800781 52.535156 102.601562 50.863281 107.101562 C 49.1875 111.601562 48.519531 117.898438 50.863281 120.601562 C 52.582031 121.871094 53.667969 123.707031 53.875 125.699219 C 53.875 127.199219 47.851562 138.898438 47.179688 141 C 46.511719 143.101562 38.816406 154.199219 49.1875 161.101562 C 59.5625 168 68.597656 173.699219 76.960938 174 C 85.328125 174.300781 87 174.300781 88.671875 172.5 Z M 88.671875 172.5 "/>
<path style=" stroke:none;fill-rule:nonzero;fill:rgb(5.098039%,22.745098%,7.058824%);fill-opacity:1;" d="M 58.222656 166.800781 C 55.058594 165.105469 52.039062 163.199219 49.1875 161.101562 C 38.816406 154.199219 46.511719 143.101562 47.179688 141 C 47.851562 138.898438 53.875 127.199219 53.875 125.699219 C 53.667969 123.707031 52.582031 121.871094 50.863281 120.601562 C 48.519531 117.898438 49.523438 111.601562 50.863281 107.101562 C 52.199219 102.601562 56.550781 103.800781 59.894531 104.699219 C 63.242188 105.601562 62.574219 103.199219 65.917969 98.101562 C 69.265625 93 80.640625 65.699219 82.984375 61.199219 C 85.328125 56.699219 92.355469 41.101562 96.703125 35.398438 C 97.710938 34.332031 99.164062 33.679688 100.71875 33.601562 C 103.273438 37.351562 103.402344 42.039062 101.054688 45.898438 C 97.375 52.199219 95.03125 61.199219 90.011719 75.898438 C 84.992188 90.601562 74.953125 119.101562 74.621094 126 C 74.285156 132.898438 70.605469 145.199219 69.601562 150.300781 C 68.597656 155.398438 63.242188 169.800781 58.222656 166.800781 Z M 109.085938 39.300781 C 110.089844 39.601562 110.089844 40.800781 110.089844 41.398438 C 110.089844 42 107.746094 66.601562 106.074219 73.5 C 104.398438 80.398438 100.71875 103.199219 98.375 108.300781 C 96.035156 113.398438 93.691406 133.800781 95.03125 141 C 96.082031 147.453125 95.394531 154.035156 93.023438 160.199219 L 88.671875 172.5 C 87 174.300781 85.328125 174.601562 78.632812 174.300781 C 78.632812 174.300781 80.308594 170.699219 82.984375 163.800781 C 85.660156 156.898438 90.679688 144.601562 90.011719 140.101562 C 89.34375 135.601562 83.988281 120.601562 89.675781 111 C 95.367188 101.398438 97.375 86.398438 99.378906 81 C 101.386719 75.601562 106.742188 56.101562 106.074219 52.199219 C 105.402344 48.300781 106.742188 38.398438 109.085938 39.300781 Z M 109.085938 39.300781 "/>
<path style="fill:none;stroke-width:0.4;stroke-linecap:round;stroke-linejoin:round;stroke:rgb(0%,0%,0%);stroke-opacity:1;stroke-miterlimit:4;" d="M 26.499641 57.5 L 27.800108 53.39974 C 28.50871 51.345052 28.71417 49.151042 28.400144 47 C 27.999731 44.60026 28.800557 37.89974 29.399425 36.10026 C 29.999461 34.299479 31.199533 26.799479 31.700341 24.5 C 32.199982 22.200521 33.100036 14.700521 32.900413 13.799479 C 32.699623 12.89974 30.200251 9.89974 28.899784 11.799479 C 27.600485 13.700521 25.500359 18.799479 24.799928 20.39974 C 24.099497 22 20.700072 30.89974 19.699623 32.700521 C 18.700341 34.5 18.799569 35.200521 17.899515 34.89974 C 16.999461 34.60026 15.700162 34.200521 15.200521 35.700521 C 14.699713 37.200521 14.50009 39.299479 15.200521 40.200521 C 15.71417 40.623698 16.038703 41.235677 16.100575 41.89974 C 16.100575 42.39974 14.300467 46.299479 14.099677 47 C 13.900054 47.700521 11.600305 51.39974 14.699713 53.700521 C 17.800287 56 20.500449 57.89974 22.99982 58 C 25.500359 58.10026 26 58.700521 26.499641 57.5 Z M 26.499641 57.5 " transform="matrix(3.346154,0,0,3,0,0)"/>
<path style="fill-rule:nonzero;fill:rgb(99.607843%,74.901961%,6.27451%);fill-opacity:1;stroke-width:0.4;stroke-linecap:round;stroke-linejoin:round;stroke:rgb(0%,0%,0%);stroke-opacity:1;stroke-miterlimit:4;" d="M 29.199802 39.10026 C 29.924749 38.523438 30.420887 37.708333 30.599497 36.799479 C 30.699892 35.39974 29.399425 34.39974 28.700162 35.299479 C 27.999731 36.200521 27.699713 38.10026 28.100126 38.700521 C 28.341774 39.05599 28.785381 39.217448 29.199802 39.10026 Z M 29.199802 39.10026 " transform="matrix(3.346154,0,0,3,0,0)"/>
<path style="fill-rule:nonzero;fill:rgb(59.607843%,3.137255%,1.960784%);fill-opacity:1;stroke-width:0.4;stroke-linecap:round;stroke-linejoin:round;stroke:rgb(0%,0%,0%);stroke-opacity:1;stroke-miterlimit:4;" d="M 15.200521 39.799479 C 15.811063 39.033854 16.253502 38.148438 16.49982 37.200521 C 16.799838 35.799479 16.49982 34.60026 16.199802 34.5 C 15.899784 34.39974 15.100126 34.5 14.800108 36.5 C 14.50009 38.5 14.200072 40.299479 15.200521 39.799479 Z M 29.199802 11.5 C 29.00018 12.10026 29.399425 12.5 30.699892 13.5 C 32.000359 14.5 32.800018 15.10026 33.100036 14.60026 C 33.400054 14.10026 32.800018 12.60026 31.899964 11.700521 C 30.99991 10.799479 29.600216 10.10026 29.199802 11.5 Z M 29.199802 11.5 " transform="matrix(3.346154,0,0,3,0,0)"/>
<path style=" stroke:none;fill-rule:nonzero;fill:rgb(81.568627%,60.784314%,2.745098%);fill-opacity:1;" d="M 69.933594 140.398438 C 70.9375 139.800781 73.617188 138 74.621094 140.101562 C 75.625 142.199219 77.628906 142.199219 78.300781 139.5 C 79.15625 136.753906 79.15625 133.847656 78.300781 131.101562 C 77.648438 126.714844 78.339844 122.257812 80.308594 118.199219 C 81.203125 115.273438 81.542969 112.230469 81.3125 109.199219 C 81.871094 104.996094 82.996094 100.863281 84.65625 96.898438 C 85.660156 94.800781 89.007812 89.398438 88.671875 87.300781 C 88.339844 85.199219 88.339844 81.898438 85.996094 85.199219 C 83.652344 88.5 80.308594 98.699219 78.96875 102.300781 C 77.628906 105.898438 75.957031 108.300781 75.625 106.199219 C 75.664062 103.949219 76.117188 101.71875 76.960938 99.601562 C 77.628906 96.898438 74.285156 95.398438 73.28125 100.5 C 72.277344 105.601562 69.601562 115.199219 68.597656 117.898438 C 67.59375 120.601562 66.921875 125.398438 68.929688 124.800781 C 70.9375 124.199219 73.949219 118.5 73.617188 121.5 C 73.28125 124.5 69.265625 130.800781 68.261719 134.699219 C 67.257812 138.601562 67.257812 141.898438 69.933594 140.398438 Z M 69.933594 140.398438 "/>
<path style="fill-rule:nonzero;fill:rgb(59.607843%,3.137255%,1.960784%);fill-opacity:1;stroke-width:0.4;stroke-linecap:round;stroke-linejoin:round;stroke:rgb(0%,0%,0%);stroke-opacity:1;stroke-miterlimit:4;" d="M 25.800377 58.799479 C 25.800377 58.799479 26.400413 58.39974 25.899605 56.200521 C 25.445492 54.127604 24.088991 52.367188 22.200162 51.39974 C 19.900413 50.10026 17.99991 49.200521 17.299479 49.799479 C 16.600216 50.39974 16.49982 50.799479 15.899784 50.60026 C 15.299749 50.39974 14.300467 49.89974 13.700431 50.89974 C 13.100395 51.89974 13.400413 52.60026 14.600485 54.5 C 15.800557 56.39974 15.800557 56.10026 17.699892 57.299479 C 19.600395 58.5 19.5 58.799479 21.499731 59 C 23.499461 59.200521 24.799928 60.10026 25.800377 58.799479 Z M 25.800377 58.799479 " transform="matrix(3.346154,0,0,3,0,0)"/>
<path style="fill:none;stroke-width:0.4;stroke-linecap:round;stroke-linejoin:round;stroke:rgb(0%,0%,0%);stroke-opacity:1;stroke-miterlimit:4;" d="M 14.999731 51.89974 C 14.956537 53.00651 15.352281 54.083333 16.100575 54.89974 C 17.115032 55.877604 18.348958 56.598958 19.699623 57 C 21.199713 57.299479 22.899425 58.39974 23.599856 57.700521 C 24.300287 57 24.199892 56.39974 24.000269 55.200521 C 23.799479 54 23.299838 53.299479 21.400503 52.299479 C 19.5 51.299479 17.200251 50.799479 17.099856 51 " transform="matrix(3.346154,0,0,3,0,0)"/>
<path style="fill:none;stroke-width:0.4;stroke-linecap:round;stroke-linejoin:round;stroke:rgb(0%,0%,0%);stroke-opacity:1;stroke-miterlimit:4;" d="M 21.900144 56.5 C 20.694235 56.233073 19.544361 55.759115 18.499551 55.10026 C 17.599497 54.5 16.600216 54.200521 16.49982 53.299479 C 16.399425 52.39974 17.299479 51.89974 18.499551 52.299479 C 19.699623 52.700521 19.999641 53.5 21.100485 54 C 21.777568 54.313802 22.389278 54.755208 22.899425 55.299479 " transform="matrix(3.346154,0,0,3,0,0)"/>
<path style="fill:none;stroke-width:0.4;stroke-linecap:round;stroke-linejoin:round;stroke:rgb(0%,0%,0%);stroke-opacity:1;stroke-miterlimit:4;" d="M 18.400323 54.200521 C 19.197647 54.734375 20.075521 55.139323 21.00009 55.39974 C 21.700521 55.299479 21.100485 55.299479 20.200431 54.5 C 19.300377 53.700521 18.599946 52.799479 18.299928 53.200521 " transform="matrix(3.346154,0,0,3,0,0)"/>
<path style=" stroke:none;fill-rule:nonzero;fill:rgb(19.607843%,34.117647%,13.72549%);fill-opacity:1;" d="M 214.152344 234 L 197.757812 234.898438 C 189.464844 235.664062 181.089844 234.632812 173.332031 231.898438 C 159.78125 228.742188 145.839844 227.128906 131.839844 227.101562 C 124.8125 227.699219 95.699219 225.300781 86.664062 225 C 72.871094 224.4375 59.128906 223.132812 45.507812 221.101562 C 42.496094 219.898438 33.796875 210.300781 42.160156 207.898438 C 50.527344 205.5 71.273438 203.101562 77.628906 202.199219 C 83.988281 201.300781 120.460938 198 128.15625 196.199219 C 135.855469 194.398438 138.53125 195.601562 138.195312 192.601562 C 137.863281 189.601562 137.527344 185.699219 143.550781 185.398438 C 149.574219 185.101562 157.9375 186 160.28125 188.699219 C 161.601562 190.5625 163.617188 191.945312 165.96875 192.601562 C 167.976562 192.898438 183.703125 190.5 186.714844 190.5 C 189.726562 190.5 205.453125 186.601562 211.140625 197.101562 C 216.832031 207.601562 221.179688 217.199219 219.507812 224.398438 C 217.835938 231.601562 216.832031 233.101562 214.152344 234 Z M 214.152344 234 "/>
<path style=" stroke:none;fill-rule:nonzero;fill:rgb(5.098039%,22.745098%,7.058824%);fill-opacity:1;" d="M 215.828125 206.398438 C 214.488281 203.398438 212.816406 200.398438 211.140625 197.101562 C 205.453125 186.601562 189.726562 190.5 186.714844 190.5 C 183.703125 190.5 167.976562 192.898438 165.96875 192.601562 C 163.617188 191.945312 161.601562 190.5625 160.28125 188.699219 C 157.9375 186 149.574219 185.398438 143.550781 185.398438 C 137.527344 185.398438 137.863281 189.601562 138.195312 192.601562 C 138.53125 195.601562 135.855469 194.398438 128.15625 196.199219 C 120.460938 198 83.988281 201.300781 77.628906 202.199219 C 71.273438 203.101562 50.191406 205.5 42.160156 207.898438 C 39.820312 208.5 38.816406 209.398438 38.480469 210.898438 C 42.691406 213.972656 48.222656 215.183594 53.539062 214.199219 C 62.574219 212.398438 74.285156 212.699219 94.027344 211.800781 C 113.769531 210.898438 151.582031 209.398438 160.617188 210.601562 C 169.648438 211.800781 185.710938 211.800781 192.070312 212.101562 C 198.425781 212.398438 218.167969 211.5 215.828125 206.398438 Z M 43.5 219.601562 C 43.5 220.5 44.839844 220.800781 45.507812 221.101562 C 59.128906 223.132812 72.871094 224.4375 86.664062 225 C 95.699219 225.300781 124.8125 227.699219 131.839844 227.101562 C 145.839844 227.128906 159.78125 228.742188 173.332031 231.898438 C 181.089844 234.632812 189.464844 235.664062 197.757812 234.898438 L 214.152344 234 C 216.832031 233.101562 217.835938 231.601562 219.171875 225.898438 L 205.121094 227.101562 C 195.75 227.699219 179.019531 229.199219 174 227.398438 C 168.980469 225.601562 151.246094 217.5 137.527344 220.199219 C 123.808594 222.898438 105.070312 220.800781 97.707031 221.101562 C 90.347656 221.398438 64.582031 221.699219 60.230469 220.199219 C 55.878906 218.699219 43.164062 217.199219 43.5 219.601562 Z M 43.5 219.601562 "/>
<path style="fill:none;stroke-width:0.4;stroke-linecap:round;stroke-linejoin:round;stroke:rgb(0%,0%,0%);stroke-opacity:1;stroke-miterlimit:4;" d="M 63.999551 78 L 59.100036 78.299479 C 56.621677 78.554688 54.118804 78.210938 51.800377 77.299479 C 47.750718 76.247396 43.584321 75.709635 39.400413 75.700521 C 37.300287 75.89974 28.599767 75.10026 25.899605 75 C 21.777568 74.8125 17.670708 74.377604 13.600036 73.700521 C 12.699982 73.299479 10.100216 70.10026 12.599587 69.299479 C 15.100126 68.5 21.300108 67.700521 23.199443 67.39974 C 25.099946 67.10026 35.99982 66 38.299569 65.39974 C 40.600485 64.799479 41.400144 65.200521 41.299749 64.200521 C 41.200521 63.200521 41.100126 61.89974 42.900233 61.799479 C 44.700341 61.700521 47.199713 62 47.900144 62.89974 C 48.29472 63.520833 48.897091 63.981771 49.599856 64.200521 C 50.199892 64.299479 54.899784 63.5 55.799838 63.5 C 56.699892 63.5 61.399784 62.200521 63.099497 65.700521 C 64.800377 69.200521 66.099677 72.39974 65.600036 74.799479 C 65.100395 77.200521 65.499641 77.89974 63.999551 78 Z M 63.999551 78 " transform="matrix(3.346154,0,0,3,0,0)"/>
<path style="fill-rule:nonzero;fill:rgb(99.607843%,74.901961%,6.27451%);fill-opacity:1;stroke-width:0.4;stroke-linecap:round;stroke-linejoin:round;stroke:rgb(0%,0%,0%);stroke-opacity:1;stroke-miterlimit:4;" d="M 42.900233 76.200521 C 42.010686 76.778646 40.96004 77.058594 39.900054 77 C 38.299569 76.799479 37.49991 75.200521 38.699982 74.799479 C 39.900054 74.39974 42.100575 74.5 42.600216 75 C 42.936422 75.300781 43.055496 75.776042 42.900233 76.200521 Z M 42.900233 76.200521 " transform="matrix(3.346154,0,0,3,0,0)"/>
<path style="fill-rule:nonzero;fill:rgb(59.607843%,3.137255%,1.960784%);fill-opacity:1;stroke-width:0.4;stroke-linecap:round;stroke-linejoin:round;stroke:rgb(0%,0%,0%);stroke-opacity:1;stroke-miterlimit:4;" d="M 47.499731 62.799479 C 46.449084 63.21224 45.328394 63.415365 44.199533 63.39974 C 42.600216 63.299479 41.299749 62.799479 41.299749 62.5 C 41.299749 62.200521 41.599767 61.39974 43.899515 61.700521 C 46.200431 62 48.300557 62 47.499731 62.799479 Z M 12.099946 69.39974 C 12.800377 69.39974 13.199623 69.89974 13.900054 71.39974 C 14.600485 72.89974 15.100126 73.799479 14.399695 74 C 13.700431 74.200521 12.299569 73.299479 11.600305 72.10026 C 10.899874 70.89974 10.400233 69.5 12.099946 69.39974 Z M 65.700431 77.700521 C 65.700431 77.700521 65.100395 78.200521 63.199892 77.200521 C 61.2632 76.268229 59.862338 74.498698 59.400054 72.39974 C 58.699623 69.89974 58.300377 67.799479 58.999641 67.299479 C 59.700072 66.799479 60.199713 66.799479 60.100485 66.10026 C 60.00009 65.39974 59.899695 64.39974 61.000539 64.10026 C 62.100216 63.799479 62.700251 64.200521 64.200341 65.799479 C 65.700431 67.39974 65.499641 67.39974 66.200072 69.5 C 66.900503 71.60026 67.200521 71.700521 66.900503 73.60026 C 66.600485 75.5 67.200521 77.10026 65.700431 77.700521 Z M 65.700431 77.700521 " transform="matrix(3.346154,0,0,3,0,0)"/>
<path style="fill:none;stroke-width:0.4;stroke-linecap:round;stroke-linejoin:round;stroke:rgb(0%,0%,0%);stroke-opacity:1;stroke-miterlimit:4;" d="M 61.699802 65.60026 C 62.739943 65.842448 63.639996 66.490885 64.200341 67.39974 C 64.926455 68.576823 65.339709 69.919271 65.400413 71.299479 C 65.300018 72.89974 66.000449 74.799479 65.100395 75.299479 C 64.200341 75.799479 63.699533 75.60026 62.700251 75.200521 C 61.699802 74.799479 60.900144 74 60.400503 71.89974 C 59.899695 69.799479 60.00009 67.5 60.300108 67.299479 " transform="matrix(3.346154,0,0,3,0,0)"/>
<path style="fill:none;stroke-width:0.4;stroke-linecap:round;stroke-linejoin:round;stroke:rgb(0%,0%,0%);stroke-opacity:1;stroke-miterlimit:4;" d="M 64.399964 73.299479 C 64.423312 72.114583 64.254041 70.932292 63.900323 69.799479 C 63.49991 68.700521 63.49991 67.700521 62.700251 67.299479 C 61.899425 66.89974 61.099767 67.799479 61.200162 69 C 61.300557 70.200521 61.99982 70.799479 62.199443 72 C 62.318517 72.717448 62.591685 73.39974 63.000269 74 " transform="matrix(3.346154,0,0,3,0,0)"/>
<path style="fill:none;stroke-width:0.4;stroke-linecap:round;stroke-linejoin:round;stroke:rgb(0%,0%,0%);stroke-opacity:1;stroke-miterlimit:4;" d="M 63.000269 69.5 C 63.000269 69.5 63.799928 71.5 63.49991 72.200521 C 63.199892 72.89974 63.399515 72.299479 62.899874 71.200521 C 62.400233 70.10026 61.699802 69.299479 62.100216 69.10026 " transform="matrix(3.346154,0,0,3,0,0)"/>
<path style=" stroke:none;fill-rule:nonzero;fill:rgb(81.568627%,60.784314%,2.745098%);fill-opacity:1;" d="M 114.773438 212.398438 C 121.097656 213.128906 127.480469 213.328125 133.847656 213 C 143.214844 212.398438 148.234375 210.601562 155.929688 212.398438 C 163.625 214.199219 179.6875 217.5 183.035156 216.300781 C 186.378906 215.101562 197.421875 208.199219 189.058594 208.199219 C 181.449219 208.484375 173.824219 208.082031 166.304688 207 C 157.96875 204.695312 149.167969 204.082031 140.539062 205.199219 C 130.019531 206.605469 119.382812 207.207031 108.75 207 C 100.71875 207 89.675781 206.699219 87.667969 208.5 C 85.660156 210.300781 94.695312 212.699219 101.054688 212.398438 C 107.410156 212.101562 113.769531 210.300781 114.773438 212.398438 Z M 114.773438 212.398438 "/>
<path style="fill:none;stroke-width:0.4;stroke-linecap:round;stroke-linejoin:round;stroke:rgb(0%,0%,0%);stroke-opacity:1;stroke-miterlimit:4;" d="M 8.00009 7.89974 L 69.99991 7.89974 L 69.99991 132.209635 L 8.00009 132.209635 Z M 8.00009 7.89974 " transform="matrix(3.346154,0,0,3,0,0)"/>
</g>
</svg>
