<svg xmlns="http://www.w3.org/2000/svg" viewBox="0 0 100 100" height="100" width="100">
  <defs>
    <pattern height="100" id="diamond-cubes-1" patternContentUnits="userSpaceOnUse" patternUnits="userSpaceOnUse" width="100">
      <polygon points="12.5,0 25,25 12.5,50 0,25" style="fill:white;stroke:black;stroke-width:1"/>
      <polygon points="12.5,50 25,75 12.5,100 0,75" style="fill:white;stroke:black;stroke-width:1"/>
      <polygon points="62.5,-25 75,0 62.5,25 50,0" style="fill:white;stroke:black;stroke-width:1"/>
      <polygon points="62.5,25 75,50 62.5,75 50,50" style="fill:white;stroke:black;stroke-width:1"/>
      <polygon points="62.5,75 75,100 62.5,125 50,100" style="fill:white;stroke:black;stroke-width:1"/>
      <polygon points="12.5,0 50,0 62.5,25 25,25" style="fill:silver;stroke:black;stroke-width:1"/>
      <polygon points="12.5,50 50,50 62.5,75 25,75" style="fill:silver;stroke:black;stroke-width:1"/>
      <polygon points="62.5,25 100,25 112.5,50 75,50" style="fill:silver;stroke:black;stroke-width:1"/>
      <polygon points="62.5,75 100,75 112.5,100 75,100" style="fill:silver;stroke:black;stroke-width:1"/>
      <polygon points="-37.5,25 0,25 12.5,50 -25,50" style="fill:silver;stroke:black;stroke-width:1"/>
      <polygon points="-37.5,75 0,75 12.5,100 -25,100" style="fill:silver;stroke:black;stroke-width:1"/>
      <polygon points="12.5,50 50,50 62.5,25 25,25" style="fill:black;stroke:black;stroke-width:1"/>
      <polygon points="12.5,100 50,100 62.5,75 25,75" style="fill:black;stroke:black;stroke-width:1"/>
      <polygon points="62.5,25 100,25 112.5,0 75,0" style="fill:black;stroke:black;stroke-width:1"/>
      <polygon points="62.5,75 100,75 112.5,50 75,50" style="fill:black;stroke:black;stroke-width:1"/>
      <polygon points="-37.5,25 0,25 12.5,0 -25,0" style="fill:black;stroke:black;stroke-width:1"/>
      <polygon points="-37.5,75 0,75 12.5,50 -25,50" style="fill:black;stroke:black;stroke-width:1"/>
    </pattern>
  </defs>
  <rect fill="url(#diamond-cubes-1)" height="100" width="100" x="0" y="0"/>
</svg>
