<svg xmlns="http://www.w3.org/2000/svg" viewBox="0 0 78 140">
  <rect width="78" height="140" rx="6" ry="6" fill="#fff"/>
  <path d="M70.1 106.1a5.9 5.9 0 0 0-2.2-1.5 14.9 14.9 0 0 1-3.1-1.8 11.3 11.3 0 0 0-3.7 1 22.7 22.7 0 0 1-7.5 1.4c-1.7-.2-2.5.6-3.8.4s-1.3-1-2.4-1.1-3.6.8-4.9.8l-.2 4.9 27.7 1.6z" fill="#966e14"/>
  <path d="M70 105.9a5.7 5.7 0 0 0-2.1-1.3 14.9 14.9 0 0 1-3.1-1.8 11.3 11.3 0 0 0-3.7 1 22.7 22.7 0 0 1-7.5 1.4c-1.7-.2-2.5.6-3.8.4s-1.3-1-2.4-1.1-3.6.8-4.9.8" fill="none" stroke="#000" stroke-linecap="round" stroke-linejoin="round" stroke-width=".4"/>
  <path d="M69.6 111.6c-3.3.4-11.5-1.4-21.9-3.6s-39.9-1.6-39.9-1.6l.2 8.5h62z" fill="#0d3a12"/>
  <path d="M8.1 106.4s29.2-.6 39.6 1.6 18.6 4 21.9 3.6" fill="none" stroke="#000" stroke-linecap="round" stroke-linejoin="round" stroke-width=".4"/>
  <path d="M70 110.6c-3.9 2.5-28.7 2.4-37 1.2s-25.2.8-25.2.8v8.2l62-.6z" fill="#325723"/>
  <path d="M8.1 112.6s16.7-1.9 24.9-.8 33 1.3 37-1.2" fill="none" stroke="#000" stroke-linecap="round" stroke-linejoin="round" stroke-width=".4"/>
  <path d="M70 117a29.8 29.8 0 0 0-10.7-2.1c-6.7-.1-13.2 2.1-17 1.6s-30.8.4-34.3 1.4v14.3h62.1z" fill="#d09b07"/>
  <path d="M70 117a29.8 29.8 0 0 0-10.7-2.1c-6.7-.1-13.4 2.1-17.2 1.6s-30.6.4-34.1 1.4" fill="none" stroke="#000" stroke-linecap="round" stroke-linejoin="round" stroke-width=".4"/>
  <path d="M46.5 118.1c0 .2-.4.4-.8.4s-.8-.2-.8-.4.4-.6.9-.6a.7.7 0 0 1 .7.6z" fill="#febf10" stroke="#000" stroke-linecap="round" stroke-linejoin="round" stroke-width=".4"/>
  <path d="M45.8 118.8c0 .4-.5.7-1.1.7s-1-.1-1-.4a1 1 0 0 1 1-.8c.6 0 1.1.2 1.1.5zm-21.1 6.7c0 .6-.8 1.2-1.8 1.2s-1.7-.2-1.7-.8a1.7 1.7 0 0 1 1.7-1.4c1 0 1.8.4 1.8 1z" fill="#febf10" stroke="#000" stroke-linecap="round" stroke-linejoin="round" stroke-width=".4"/>
  <path d="M27.8 125.1c0 .6-.8 1.2-1.8 1.2s-1.7-.2-1.7-.9.8-1.3 1.7-1.3 1.8.3 1.8 1zm37.1-16.3a.6.6 0 0 0-.9 0 2.3 2.3 0 0 1-1.8.9 5.2 5.2 0 0 1-3.2-1.4 5.1 5.1 0 0 0-1.2-2.3c-2.2-2.2-3.8-4-3-7l.3-1a4.5 4.5 0 0 0 2.4.7 3.8 3.8 0 0 0 2.3-.8.7.7 0 0 0-.7-1.1 3.1 3.1 0 0 1-3.7-.2c.2-1.9.2-3.9-.7-5.2a3.1 3.1 0 0 0-1.6-1.4 8 8 0 0 0 3.6-3.5.6.6 0 0 0-.4-.8.6.6 0 0 0-.8.3c-1 2.3-4.3 3.5-4.4 3.5a7.2 7.2 0 0 1-3.3-3 .6.6 0 0 0-.9-.3.6.6 0 0 0-.3.8 7.7 7.7 0 0 0 5.5 4.1 1.8 1.8 0 0 1 1.5 1 3.7 3.7 0 0 1 .6 2.3 4.3 4.3 0 0 1-3.8 2.7.7.7 0 1 0 .1 1.3A5.6 5.6 0 0 0 54 97c-.1.5-.3 1.1-.4 1.7-1 3.6.9 5.9 3.3 8.3a3.1 3.1 0 0 1 .9 2.6c-.1 1.7-1.6 3.7-4 5.2a3.2 3.2 0 0 0-1.7 2.9c.1 2.3 3.1 4 3.4 4.2h.3a.6.6 0 0 0 .6-.3.7.7 0 0 0-.2-.9c-.8-.4-2.8-1.8-2.8-3.2s.4-1.1 1.2-1.7c2.5-1.7 4.2-3.9 4.5-5.9a6.3 6.3 0 0 0 3 1h.1a3.5 3.5 0 0 0 2.7-1.3.6.6 0 0 0 0-.8zm-4-47.3c-2.3-.7-1.7-3.4-1.7-3.6a9.3 9.3 0 0 0 .8-6.8c-1.6-6.6-9.4-6.1-9.5-6.1a.7.7 0 0 0-.6.7.9.9 0 0 0 .7.6c.3 0 6.8-.4 8.1 5.1 1 3.9-.8 6.3-2 8.1a6.3 6.3 0 0 0-1.3 2.6c0 .3.3.7.6.7h.1a.6.6 0 0 0 .6-.6 4.8 4.8 0 0 1 1.1-1.9l.2-.3a3.4 3.4 0 0 0 2.5 2.7h.2a.6.6 0 0 0 .6-.5.7.7 0 0 0-.4-.7z" fill="#febf10" stroke="#000" stroke-linecap="round" stroke-linejoin="round" stroke-width=".4"/>
  <path d="M16.2 122.8a4.7 4.7 0 0 1-2.2-1.9 4.7 4.7 0 0 1 2.9-.3 4.7 4.7 0 0 1 2.3 1.9 4.9 4.9 0 0 1-3 .3z" fill="#325723" stroke="#000" stroke-linecap="round" stroke-linejoin="round" stroke-width=".4"/>
  <path d="M18.1 125.8a7.3 7.3 0 0 1-5-.5 7.4 7.4 0 0 1 3.8-3.2 7.6 7.6 0 0 1 5.1.5 7.9 7.9 0 0 1-3.9 3.2z" fill="#325723"/>
  <path d="M15.6 124.6a8.3 8.3 0 0 1 2.8-2.7 3.9 3.9 0 0 0-1.5.2 7.4 7.4 0 0 0-3.8 3.2 7.3 7.3 0 0 0 5 .5 3.1 3.1 0 0 0 1-.5 7.8 7.8 0 0 1-3.5-.7z" fill="#0d3a12"/>
  <path d="M18.1 125.8a7.3 7.3 0 0 1-5-.5 7.4 7.4 0 0 1 3.8-3.2 7.6 7.6 0 0 1 5.1.5 7.9 7.9 0 0 1-3.9 3.2z" fill="none" stroke="#000" stroke-linecap="round" stroke-linejoin="round" stroke-width=".4"/>
  <path d="M16.7 110.8a7.6 7.6 0 0 1-4.2-2.5 7.3 7.3 0 0 1 4.7-1.2 7.5 7.5 0 0 1 4.2 2.6 7.5 7.5 0 0 1-4.7 1.1z" fill="#325723" stroke="#000" stroke-linecap="round" stroke-linejoin="round" stroke-width=".4"/>
  <path d="M25 108.3a7.9 7.9 0 0 1 3.1-4 8.1 8.1 0 0 1 .7 5 8.4 8.4 0 0 1-3.1 4 7.6 7.6 0 0 1-.7-5z" fill="#325723"/>
  <path d="M27.3 106.8a8 8 0 0 1 .9 3.8l.6-1.3a8.1 8.1 0 0 0-.7-5 7.9 7.9 0 0 0-3.1 4c-.1.3-.1.7-.2 1.1a9.6 9.6 0 0 1 2.5-2.6z" fill="#0d3a12"/>
  <path d="M25 108.3a7.9 7.9 0 0 1 3.1-4 8.1 8.1 0 0 1 .7 5 8.4 8.4 0 0 1-3.1 4 7.6 7.6 0 0 1-.7-5z" fill="none" stroke="#000" stroke-linecap="round" stroke-linejoin="round" stroke-width=".4"/>
  <path d="M55 83.8a3.9 3.9 0 0 1 1.1-2.4 4.2 4.2 0 0 1 1 2.5 4.6 4.6 0 0 1-1.1 2.4 4.2 4.2 0 0 1-1-2.5z" fill="#325723"/>
  <path d="M56 82.8a4.4 4.4 0 0 1 .9 1.8 1.9 1.9 0 0 0 .2-.7 4.2 4.2 0 0 0-1-2.5 3.9 3.9 0 0 0-1.1 2.4 1.3 1.3 0 0 0 .1.6 3.7 3.7 0 0 1 .9-1.6z" fill="#0d3a12"/>
  <path d="M55 83.8a3.9 3.9 0 0 1 1.1-2.4 4.2 4.2 0 0 1 1 2.5 4.6 4.6 0 0 1-1.1 2.4 4.2 4.2 0 0 1-1-2.5z" fill="none" stroke="#000" stroke-linecap="round" stroke-linejoin="round" stroke-width=".4"/>
  <path d="M60.6 94.5a4.1 4.1 0 0 1-.9 2.6 4.3 4.3 0 0 1-1.3-2.5 5.1 5.1 0 0 1 1-2.7 4.5 4.5 0 0 1 1.2 2.6z" fill="#325723"/>
  <path d="M59.7 95.7a4.5 4.5 0 0 1-1.2-1.9c0 .2-.1.5-.1.8a4.3 4.3 0 0 0 1.3 2.5 4.1 4.1 0 0 0 .9-2.6 1.5 1.5 0 0 0-.1-.7 5 5 0 0 1-.8 1.9z" fill="#0d3a12"/>
  <path d="M60.6 94.5a4.1 4.1 0 0 1-.9 2.6 4.3 4.3 0 0 1-1.3-2.5 5.1 5.1 0 0 1 1-2.7 4.5 4.5 0 0 1 1.2 2.6z" fill="none" stroke="#000" stroke-linecap="round" stroke-linejoin="round" stroke-width=".4"/>
  <path d="M19.5 47.9a6.8 6.8 0 0 1-3.1-3.3 7.1 7.1 0 0 1 4.5.1 6.8 6.8 0 0 1 3.1 3.2 6.8 6.8 0 0 1-4.5 0zm38.4 34.7a6.2 6.2 0 0 1 3.9-1.3A6.2 6.2 0 0 1 60 85a6.6 6.6 0 0 1-3.9 1.4 6.3 6.3 0 0 1 1.8-3.8zm-37.4 41.1a5.6 5.6 0 0 1 1.5-3.2 5.1 5.1 0 0 1 1.3 3.3 5.4 5.4 0 0 1-1.5 3.3 5.8 5.8 0 0 1-1.3-3.4zm-5.3-29a4.6 4.6 0 0 1 2.4 1.9 4.8 4.8 0 0 1-3.1.4 5.1 5.1 0 0 1-2.4-2 4.6 4.6 0 0 1 3.1-.3z" fill="#325723" stroke="#000" stroke-linecap="round" stroke-linejoin="round" stroke-width=".4"/>
  <path d="M24.7 44.3a5.2 5.2 0 0 1-.7 3.5 5.8 5.8 0 0 1-2-3 5.2 5.2 0 0 1 .7-3.5 5.8 5.8 0 0 1 2 3z" fill="#325723"/>
  <path d="M23.7 46a6.6 6.6 0 0 1-1.8-2.2 3.4 3.4 0 0 0 .1 1 5.8 5.8 0 0 0 2 3 5.2 5.2 0 0 0 .7-3.5 1.3 1.3 0 0 0-.3-.8 5.1 5.1 0 0 1-.7 2.5z" fill="#0d3a12"/>
  <path d="M24.7 44.3a5.2 5.2 0 0 1-.7 3.5 5.8 5.8 0 0 1-2-3 5.2 5.2 0 0 1 .7-3.5 5.8 5.8 0 0 1 2 3z" fill="none" stroke="#000" stroke-linecap="round" stroke-linejoin="round" stroke-width=".4"/>
  <path d="M58 53.5a3.7 3.7 0 0 1-2 1.3 4 4 0 0 1 .6-2.3 3.7 3.7 0 0 1 2-1.3 3.8 3.8 0 0 1-.6 2.3zM48.5 100a4.2 4.2 0 0 1 2.3-2.1 4 4 0 0 1-2.4 5.2 4.5 4.5 0 0 1 .1-3.1z" fill="#325723" stroke="#000" stroke-linecap="round" stroke-linejoin="round" stroke-width=".4"/>
  <path d="M61.7 48a5.7 5.7 0 0 1-3.7-.5 6.3 6.3 0 0 1 3-2.2 5.4 5.4 0 0 1 3.6.5 5.2 5.2 0 0 1-2.9 2.2z" fill="#325723"/>
  <path d="M59.9 47.1a6.6 6.6 0 0 1 2.1-1.9h-1a6.3 6.3 0 0 0-3 2.2 5.7 5.7 0 0 0 3.7.5 1.1 1.1 0 0 0 .7-.3 6.3 6.3 0 0 1-2.5-.5z" fill="#0d3a12"/>
  <path d="M61.7 48a5.7 5.7 0 0 1-3.7-.5 6.3 6.3 0 0 1 3-2.2 5.4 5.4 0 0 1 3.6.5 5.2 5.2 0 0 1-2.9 2.2z" fill="none" stroke="#000" stroke-linecap="round" stroke-linejoin="round" stroke-width=".4"/>
  <path d="M58.2 88.8a4.6 4.6 0 0 1-2.1-2.3 4.4 4.4 0 0 1 3.1.1 5.2 5.2 0 0 1 2.1 2.3 5.2 5.2 0 0 1-3.1-.1z" fill="#325723" stroke="#000" stroke-linecap="round" stroke-linejoin="round" stroke-width=".4"/>
  <path d="M18.3 114.8a7.8 7.8 0 0 1-5 .5 7.7 7.7 0 0 1 3.1-3.9 7.8 7.8 0 0 1 5.1-.6 7.6 7.6 0 0 1-3.2 4z" fill="#325723"/>
  <path d="M15.6 114.1a9.7 9.7 0 0 1 2.2-3.3l-1.4.6a7.7 7.7 0 0 0-3.1 3.9 7.8 7.8 0 0 0 5-.5 2.2 2.2 0 0 0 .9-.7 9.4 9.4 0 0 1-3.6 0z" fill="#0d3a12"/>
  <path d="M18.3 114.8a7.8 7.8 0 0 1-5 .5 7.7 7.7 0 0 1 3.1-3.9 7.8 7.8 0 0 1 5.1-.6 7.6 7.6 0 0 1-3.2 4z" fill="none" stroke="#000" stroke-linecap="round" stroke-linejoin="round" stroke-width=".4"/>
  <path d="M47.1 95.9a6 6 0 0 1-1.3-3.9 6.9 6.9 0 0 1 3.7 1.8 6.2 6.2 0 0 1 1.3 3.9 6.2 6.2 0 0 1-3.7-1.8z" fill="#325723" stroke="#000" stroke-linecap="round" stroke-linejoin="round" stroke-width=".4"/>
  <path d="M57.4 116.9a6.3 6.3 0 0 1 3.9.5 6.1 6.1 0 0 1-3.1 2.4 5.6 5.6 0 0 1-3.9-.5 5.6 5.6 0 0 1 3.1-2.4z" fill="#325723"/>
  <path d="M59.3 117.9A6.6 6.6 0 0 1 57 120l1.2-.2a6.1 6.1 0 0 0 3.1-2.4 6.3 6.3 0 0 0-3.9-.5l-.9.3a6.6 6.6 0 0 1 2.8.7z" fill="#0d3a12"/>
  <path d="M57.4 116.9a6.3 6.3 0 0 1 3.9.5 6.1 6.1 0 0 1-3.1 2.4 5.6 5.6 0 0 1-3.9-.5 5.6 5.6 0 0 1 3.1-2.4z" fill="none" stroke="#000" stroke-linecap="round" stroke-linejoin="round" stroke-width=".4"/>
  <path d="M63 96.2a4.8 4.8 0 0 1-3.1.8 5 5 0 0 1 1.6-2.8 5.5 5.5 0 0 1 3.2-.7 5 5 0 0 1-1.7 2.7z" fill="#325723" stroke="#000" stroke-linecap="round" stroke-linejoin="round" stroke-width=".4"/>
  <path d="M47.6 99.3a4.8 4.8 0 0 1-3.2-1.2 4.4 4.4 0 0 1 6.2-.2 5.2 5.2 0 0 1-3 1.4z" fill="#325723"/>
  <path d="M46.2 98.1a4.7 4.7 0 0 1 2.3-1.3h-1a4.7 4.7 0 0 0-3.1 1.4 4.8 4.8 0 0 0 3.2 1.2h.7a5.6 5.6 0 0 1-2.1-1.3z" fill="#0d3a12"/>
  <path d="M47.6 99.3a4.8 4.8 0 0 1-3.2-1.2 4.4 4.4 0 0 1 6.2-.2 5.2 5.2 0 0 1-3 1.4z" fill="none" stroke="#000" stroke-linecap="round" stroke-linejoin="round" stroke-width=".4"/>
  <path d="M17.7 105.7a7.7 7.7 0 0 1 2-4.7 7.9 7.9 0 0 1 1.9 4.7 7.7 7.7 0 0 1-2 4.7 7.9 7.9 0 0 1-1.9-4.7z" fill="#325723" stroke="#000" stroke-linecap="round" stroke-linejoin="round" stroke-width=".4"/>
  <path d="M63.1 98a5.3 5.3 0 0 1 1.8 2.9 5 5 0 0 1-3.3-.7 5.8 5.8 0 0 1-1.8-3 5.4 5.4 0 0 1 3.3.8z" fill="#325723"/>
  <path d="M63.5 99.8a6.1 6.1 0 0 1-2.7-.3l.8.7a5 5 0 0 0 3.3.7 5.3 5.3 0 0 0-1.8-2.9l-.7-.4a6.5 6.5 0 0 1 1.1 2.2z" fill="#0d3a12"/>
  <path d="M63.1 98a5.3 5.3 0 0 1 1.8 2.9 5 5 0 0 1-3.3-.7 5.8 5.8 0 0 1-1.8-3 5.4 5.4 0 0 1 3.3.8z" fill="none" stroke="#000" stroke-linecap="round" stroke-linejoin="round" stroke-width=".4"/>
  <path d="M16.9 92.2a6.3 6.3 0 0 1 1 4.1 6.4 6.4 0 0 1-3.6-2.1 6.8 6.8 0 0 1-1.1-4.1 6.5 6.5 0 0 1 3.7 2.1z" fill="#325723"/>
  <path d="M16.6 94.5a7 7 0 0 1-2.9-1.4 3 3 0 0 0 .6 1.1 6.4 6.4 0 0 0 3.6 2.1 6.3 6.3 0 0 0-1-4.1l-.7-.7a6.6 6.6 0 0 1 .4 3z" fill="#0d3a12"/>
  <path d="M16.9 92.2a6.3 6.3 0 0 1 1 4.1 6.4 6.4 0 0 1-3.6-2.1 6.8 6.8 0 0 1-1.1-4.1 6.5 6.5 0 0 1 3.7 2.1z" fill="none" stroke="#000" stroke-linecap="round" stroke-linejoin="round" stroke-width=".4"/>
  <path d="M56.3 124.2a6 6 0 0 1-2.1 2.7 5.5 5.5 0 0 1-.5-3.4 5.4 5.4 0 0 1 2.1-2.6 5.1 5.1 0 0 1 .5 3.3z" fill="#325723"/>
  <path d="M54.7 125.2a6.5 6.5 0 0 1-.6-2.6l-.4.9a5.5 5.5 0 0 0 .5 3.4 6 6 0 0 0 2.1-2.7 2.2 2.2 0 0 1 .1-.8 7.1 7.1 0 0 1-1.7 1.8z" fill="#0d3a12"/>
  <path d="M56.3 124.2a6 6 0 0 1-2.1 2.7 5.5 5.5 0 0 1-.5-3.4 5.4 5.4 0 0 1 2.1-2.6 5.1 5.1 0 0 1 .5 3.3z" fill="none" stroke="#000" stroke-linecap="round" stroke-linejoin="round" stroke-width=".4"/>
  <path d="M58 124.4a6.2 6.2 0 0 1-2.3-3.5 6.7 6.7 0 0 1 4.1.9 6 6 0 0 1 2.2 3.4 6 6 0 0 1-4-.8zm-26.2-60a5.3 5.3 0 0 1-3.5.8 5.7 5.7 0 0 1 2-3 5.3 5.3 0 0 1 3.5-.8 5.7 5.7 0 0 1-2 3z" fill="#325723" stroke="#000" stroke-linecap="round" stroke-linejoin="round" stroke-width=".4"/>
  <path d="M19.8 49.3a6.2 6.2 0 0 1 3.8-1 5.7 5.7 0 0 1-1.9 3.4 5.8 5.8 0 0 1-3.7 1 6.2 6.2 0 0 1 1.8-3.4z" fill="#325723"/>
  <path d="M22 49.5a7.6 7.6 0 0 1-1.3 2.8l1-.6a5.7 5.7 0 0 0 1.9-3.4 6.2 6.2 0 0 0-3.8 1l-.6.7a6.7 6.7 0 0 1 2.8-.5z" fill="#0d3a12"/>
  <path d="M19.8 49.3a6.2 6.2 0 0 1 3.8-1 5.7 5.7 0 0 1-1.9 3.4 5.8 5.8 0 0 1-3.7 1 6.2 6.2 0 0 1 1.8-3.4z" fill="none" stroke="#000" stroke-linecap="round" stroke-linejoin="round" stroke-width=".4"/>
  <path d="M49.3 51.4c3.5-12.2 12.2-16.7 12.2-16.7l.2-4.9a6.2 6.2 0 0 0-2.7.7h-.5c.6-1.7 6.5-9.4 6.5-9.4l-25.5-6.6s-2.8 7.3-3 10.9-1.1 4.4-2 2.4a9.1 9.1 0 0 0-2.6-3.4c-.3-.1-4.8 6.7-4.8 6.7a38.4 38.4 0 0 0 2.1 5.2c1 1.9 1.7 4 1 5.9s-4.2 7-4.8 9.6-1.5 7.3-2.2 7-5.4-3.9-6.1-3.9-.9 7.9-.9 7.9a9.3 9.3 0 0 0 2.9 3.4 9.9 9.9 0 0 1 4.8 7.6c.5 4.1 1.2 8.2-1.5 6.7s-5.3-3.7-6.3-3.7-.3 8.1-.3 8.1a23.2 23.2 0 0 0 2.8 3.8c1.8 2 3.2 4.1 2.8 10.1s-1.4 12-1.4 13.5 22.2 1.7 22.2 1.7 2.2-9.3 1.5-12.8-2.5-7.6 1.6-11.4S55.8 80 58 77.7a16.2 16.2 0 0 0 3.5-5.1c.1-.6-6.1-1.8-6.8-1.8s-1.9 1.8-3.5 2.9-7.4 6.8-8.3 7.5a22.6 22.6 0 0 1 .8-6.5c.8-2.7 1.1-13.8 4.9-15.4a32.3 32.3 0 0 0 4.6-2.1l-.4-7a6.3 6.3 0 0 0-2.8.9z" fill="#0d3a12"/>
  <path d="M29.9 30.9s2.9 1.8 3.3 4.5.4 6.9.6 8.5-2.5 4.7-2.1 5.7 1.4-.2 1.7.5-2.1 4.1-2.9 5.3-2.3 4.9-1.6 9.7a12 12 0 0 0-5.6-4.2L19 59.4a21 21 0 0 1-.4 2.6c-.3.6 1.2-.7 3.8 1.8s2.6 2.6 3.7 3.2.5 1.6.7 2.6 2 4 2.2 5-1.6 3.5-.9 5.6a7.7 7.7 0 0 1 .1 5.2c-.5 2 1.8 5.2 1 6.4s-1.8.6-1.9-1.2-2.2-6.6-4.6-8.2a27.3 27.3 0 0 0-5.2-2.6l.3 2.8-.5 1.8a3 3 0 0 1 2.5.5c1.3.9 1.4 3.4 3.2 4.2s1.4 7.2 1.1 8.5a5.1 5.1 0 0 0 .4 3.2c.4 1.2 1 3.6.2 4.6a14.4 14.4 0 0 0-1.6 5.4c.1 1 11.2-5.1 14.5-14.1s2.6-13.6 1.3-15.7-2.1-6.4-1.6-7.6 4.7-9.3 5.5-15a39.3 39.3 0 0 1 2.5-9.5c.7-2.3 2.1-6.7 4.5-9.7s3-8.2 1-10a7.1 7.1 0 0 0-8.1-.5c-2.5 1.6-3.5 4.7-4.2 8.7s-.6 6-1.5 5.8-.4-4-.4-4.7-1.3-8.9-2.9-9.9-1.9-.6-1.9-.6a3.8 3.8 0 0 1-1.9 2.9z" fill="#980805"/>
  <path d="M32.5 24.8l1.7 2.6 1.1 1.5a31.9 31.9 0 0 1 1.3 5 26.3 26.3 0 0 1-.1 7 3.5 3.5 0 0 0 .1 2 8.2 8.2 0 0 1-1-2.3c-.8-1.9-1.3-3.1-1.1-4.8s.5-2.5-.2-3.6a12.6 12.6 0 0 0-3.2-2.4zm13.4 2.8s-3.4-.3-5.4 1.5-2.9 6-2.3 9.5c0 0 4-10 7.7-11zm14.6 5.6s.2.6-2.3 1a6.8 6.8 0 0 1-4.1-.3s3-3.7 6.9-4zM20.7 60s4.2.6 6.3 3.1a2.7 2.7 0 0 1-2.5.1c-1.5-.6-3.8-3.2-3.8-3.2zm28.2-1s-2.3-.1-3.4 1.3-2.3 7.3-1.4 10.6l.9-5 1.1-3.3 1.1-2.1zm-9.4 24.3a14.4 14.4 0 0 1-.9 4.9c-1 3-.3 5-1.6 7.7s-4 7.9-4.5 7.7 0-1 1.1-5.2 1.8-8 1.3-8.2-.2 2.1-1.5 4.9-2.2 7.8-2.8 8.1-1-.1-.6-1 1.1-3.4.5-3.6-.4 1.5-1.5 2.8-2.8 4.2-2.4 5.5 3.6 3.5 4.9 1.6a25.4 25.4 0 0 1 2.8-4.2 16.3 16.3 0 0 0 3.3-5.9c.9-2.5 1.4-4.3 2-3.7s-.1 2.1.9 2.1.3-4.7 1.5-6.2-.1-5.7-.8-8-1.1-2.8-1.4-2.2a8.4 8.4 0 0 0-.3 2.9z" fill="#325723"/>
  <path d="M41.5 29.9s-1 7-.7 10.1.6 8.5 1.9 6.6 1.8-4.5 3-4.5.1 2.5-.3 3.8-2.1 5.2-2.4 6.1-.8 6.4-1.4 6.7.3-3.1.1-3.9-1-1.6-1.1-.2-.5 6.5-1.5 8.6-3.1 8-3.8 9.7-1.8 3.5-1.9 2.7 2.7-7.4 2.5-10.2a18.8 18.8 0 0 1 1.1-7.6c.8-1.8 1.7-6.9 1.3-9a62.3 62.3 0 0 1 0-10.6c.3-1.4 1.1-7.2 3.2-8.3z" fill="#d09b07"/>
  <path d="M55 72.6s-2.3 3.2-4.1 4.3a26.3 26.3 0 0 0-6.4 6.9 20 20 0 0 1-3.1 3.8s-.4 1.4.9.5 2.2-1 3.5-1.9a13.8 13.8 0 0 0 3.2-4.3c.9-1.8 3.1-2.8 3.9-3.2s4.4-2.9 4.7-4.8z" fill="#980805"/>
  <path d="M47.7 52.5c1.3-1.3 5.1-2.3 5.1-2.3l.4 7a32.3 32.3 0 0 1-4.6 2.1c-3.8 1.6-4.1 12.7-4.9 15.4a22.6 22.6 0 0 0-.8 6.5c.9-.7 6.6-6.4 8.3-7.5s2.7-2.8 3.5-2.9 6.9 1.2 6.8 1.8a16.2 16.2 0 0 1-3.5 5.1c-2.2 2.3-8.5 8.4-12.7 12.1s-2.4 8-1.6 11.4-1.5 12.8-1.5 12.8-22.2-.1-22.2-1.7 1.1-7.5 1.4-13.5-1-8.1-2.8-10.1a23.2 23.2 0 0 1-2.8-3.8s-.7-8.1.3-8.1 3.7 2.2 6.3 3.7 2-2.6 1.5-6.7a9.9 9.9 0 0 0-4.8-7.6 9.3 9.3 0 0 1-2.9-3.4s.1-7.9.9-7.9 5.3 3.7 6.1 3.9 1.6-4.4 2.2-7 4-7.8 4.8-9.6 0-4-1-5.9a38.4 38.4 0 0 1-2.1-5.2s4.5-6.8 4.8-6.7a9.1 9.1 0 0 1 2.6 3.4c.9 2 1.7 1.2 2-2.4s3-10.9 3-10.9L65 21.1s-5.9 7.7-6.5 9.4" fill="none" stroke="#000" stroke-linecap="round" stroke-linejoin="round" stroke-width=".4"/>
  <path d="M53.9 34.2a10.2 10.2 0 0 1 7.8-4.4l-.2 4.9s-8.7 4.5-12.2 16.7" fill="none" stroke="#000" stroke-linecap="round" stroke-linejoin="round" stroke-width=".4"/>
  <path d="M32 24.1s-1-.3-2.4 1.1-2.6 3-2.6 4.4-.4 2 2.1 1.5 3-4 3.1-4.9.3-1.6-.2-2.1zM16.1 54.7a20.3 20.3 0 0 0-1.4 4.3c-.2 1.9.3 4.9 2.1 4.4s2.4-2.6 2.2-4-1-5.8-2.9-4.7zm.6 23.4a1.2 1.2 0 0 0-1.2-1.4c-1.4 0-2 3.2-2 3.9s.1 1.8.8 2.2-.1 3.1 2.1 2.4 1.2-5.9.3-7.1zm38.6-8.2s-1.3.5-1.2 1.5 2.5 2.6 4.9 2.4 3.2-.7 3-1.5a3.5 3.5 0 0 0-3.1-2.2c-1.6-.1-3.2-.7-3.6-.2zm-3.1-19.8s-1.5 2-1.1 3.3.9 1.9 1.2 2.9 1.3 1.6 1.9.5.3-4-.1-5.1-1-2.1-1.9-1.6zm10-20.5s-.8-.4-1.4.7a4.3 4.3 0 0 0 .1 3.2c.2.7.3 1.9 1.4 1s.5-4.3-.1-4.9z" fill="#febf10" stroke="#000" stroke-linecap="round" stroke-linejoin="round" stroke-width=".4"/>
  <path d="M41.5 13s-2.2.5-2.2 2a7.9 7.9 0 0 0 3.4 6.4 28 28 0 0 0 7.1 3.8c1.5.6 2.8 0 4.6 0a31 31 0 0 0 8.1-2 8.7 8.7 0 0 0 3.4-2.6c.4-.8 1.1-3.5.2-5.2a9.7 9.7 0 0 0-2.3-2.6c-1.3-1.3-2.8-1.4-4-1.7s-4.8-1.7-7.1-.3c0 0-3.1-1.6-5.7 0 0 0-2.6 0-3.8 1a8 8 0 0 1-1.7 1.2z" fill="#febf10"/>
  <path d="M52 25.4l2.4-.2a31 31 0 0 0 8.1-2 8.7 8.7 0 0 0 3.4-2.6c.4-.8 1.1-3.5.2-5.2a9.7 9.7 0 0 0-2.3-2.6c-1.3-1.3-2.8-1.4-4-1.7s-4.8-1.7-7.1-.3a7.7 7.7 0 0 0-3.1-.7s3.1 1 4.5 3 2.5 4.4 1.4 5.7-3.5 6.6-3.5 6.6z" fill="#d09b07"/>
  <path d="M41.5 13s-2.2.5-2.2 2a7.9 7.9 0 0 0 3.4 6.4 28 28 0 0 0 7.1 3.8c1.5.6 2.8 0 4.6 0a31 31 0 0 0 8.1-2 8.7 8.7 0 0 0 3.4-2.6c.4-.8 1.1-3.5.2-5.2a9.7 9.7 0 0 0-2.3-2.6c-1.3-1.3-2.8-1.4-4-1.7s-4.8-1.7-7.1-.3c0 0-3.1-1.6-5.7 0 0 0-2.6 0-3.8 1a8 8 0 0 1-1.7 1.2z" fill="none" stroke="#000" stroke-linecap="round" stroke-linejoin="round" stroke-width=".4"/>
  <path d="M40.9 16.1a3.6 3.6 0 0 1 2.7-2.9c2.7-.9 3.4-.8 3.9-1.2a9.8 9.8 0 0 1 5.4-.5" fill="none" stroke="#000" stroke-linecap="round" stroke-linejoin="round" stroke-width=".4"/>
  <path d="M42.3 17.4s-.1-1.6 2.2-2.8 2-1.3 3.8-1.4H50s3-1.2 5-.6a6.9 6.9 0 0 0 3.6.3c.8-.1 2 .4 2 .7m1.5 0s1.9.9 2 2.2a23.3 23.3 0 0 1-.3 3c.1 1.1-2.5 3.3-3 3.7m3.8-7.3s.5.5.4 2.4a7.3 7.3 0 0 1-1.4 4M42.9 19s1.6 2.6 3.4 3.2 2.5.5 3.9 1 5.4 1.2 6.4.8 2.4-.2 2.7-.5" fill="none" stroke="#000" stroke-linecap="round" stroke-linejoin="round" stroke-width=".4"/>
  <path d="M46.5 14.5s-2.2 1.2-2.4 2.2.4 3.4 1.9 3.7a7.9 7.9 0 0 1 3.2 1.2c.9.5 4.3 1.8 6.6 1.3a9.8 9.8 0 0 0 4.3-1.8 16.6 16.6 0 0 0 1.9-1.9c.4-.4 1.2-2.5 0-3.2a12.8 12.8 0 0 0-2.9-1.4 9.1 9.1 0 0 0-3.5-.9 11.3 11.3 0 0 1-3-.3c-1.3-.1-1.9.4-3.1.6a11.8 11.8 0 0 0-2 .5" fill="none" stroke="#000" stroke-linecap="round" stroke-linejoin="round" stroke-width=".4"/>
  <path d="M45.9 17.4s1.1 2.5 3.2 3 3.5 1.2 5 1 2.5-.6 3.5-.8 2.5-.7 2.8-1.8a5.1 5.1 0 0 0-.8-2.8m-1.5-.2a4.1 4.1 0 0 0-3.3-1.2 15.1 15.1 0 0 0-4.4.5c-1.3.4-3.6.6-3.9 1.6" fill="none" stroke="#000" stroke-linecap="round" stroke-linejoin="round" stroke-width=".4"/>
  <path d="M54.3 15.4l-3.2.5c-1.3.2-3.6.5-3.7 1.3s.9 1 .9 1a1.4 1.4 0 0 0 1.1 1.2 22.4 22.4 0 0 0 2.9.8 6.5 6.5 0 0 0 2.9-.4s3.1 0 3.4-1.7-.4-1.3-1.3-1.7a4.9 4.9 0 0 1-1.6-.8" fill="none" stroke="#000" stroke-linecap="round" stroke-linejoin="round" stroke-width=".4"/>
  <path d="M53.6 17a4.4 4.4 0 0 1 1.9.4c.5.4.2 1.7-1 1.7a9.1 9.1 0 0 1-3.5-.6c-.9-.4-.8-1.4.2-1.7m-19.9 9.6s0-1.6-.8-1.2a10.2 10.2 0 0 0-2.5 3.6c0 .4 0 1.6 1 1a4.6 4.6 0 0 0 1.6-1.9" fill="none" stroke="#000" stroke-linecap="round" stroke-linejoin="round" stroke-width=".4"/>
  <path d="M27.4 30.1a1.9 1.9 0 0 0 2.8-.3c1.3-1.7 1.1-2.4 1.1-2.4m30.9 3.5s-.6-.8-.9-.3.2 4.1.8 3.3 0-2.4 0-2.4m-8.4 20.8s-.6-1.7-1.3-.9.2 5.2 1 4.7.1-2.6.1-2.6m-36.4 3s-.3-1.1-.7-.6-.3 3-.7 3.9.9 4.2 1.6 2.3a7.8 7.8 0 0 0 .4-4m-.9-.2a6.4 6.4 0 0 1 .2 3m43.7 11.7s-.6.5-2.4.2-2.4-.7-2.7-1.2.1-1.1 1.3-1a7.2 7.2 0 0 1 2.7.6m-2.9 0a3.2 3.2 0 0 0 2.6 1M16.5 82s.3-2.3-.2-3.2-1.3-.9-1.7.3.5 2.7.6 3.8 1 1.7 1.4.9m-.9-4.4a1.2 1.2 0 0 0-.3 1.2" fill="none" stroke="#000" stroke-linecap="round" stroke-linejoin="round" stroke-width=".4"/>
  <path d="M49.5 34.4s.7-3.3-.8-4.3-4 1.3-5.1 2-.9 4.1-1.1 5-1.1 4.3 1.7 1.8 4.5-2.8 5.3-4.5z" fill="#325723" stroke="#000" stroke-linecap="round" stroke-linejoin="round" stroke-width=".4"/>
  <path d="M47.8 32.2s1-1.4-.7-1-2 2-2.6 3.4-1.5 3.5-.7 3a12.5 12.5 0 0 0 2.9-2.5c.9-1.2 1-2.5.2-2.1s-.9 1.4-1.3 1.8" fill="none" stroke="#000" stroke-linecap="round" stroke-linejoin="round" stroke-width=".4"/>
  <path d="M20 109.9a7.7 7.7 0 0 1-2.9-9.2c1-3 3.6-5.6 6.2-8.1.8-.4 3.2-1.2 4.7-.4a.6.6 0 0 0 .9-.3.7.7 0 0 0-.3-.9 5.3 5.3 0 0 0-3.3-.3c2.4-2.3 4.5-4.7 5.4-7.5a8.5 8.5 0 0 0 .4-1.7c.1-.1 4-4.7 8.7-4.9a7.4 7.4 0 0 1 5.4 2.2l.9-.9a8.9 8.9 0 0 0-6.4-2.6c-3.6.2-6.7 2.6-8.4 4.1.3-6.4-2.4-14.3-4.9-18.7s-3.1-8.1-2-10.7a4.2 4.2 0 0 1 2.8-2.7l.8-1.6a6.8 6.8 0 0 0-4.8 3.8c-1.9 4.3 1.1 10.1 2.1 11.8 2.8 5 6.1 15.3 4.2 21.5-1 3-3.7 5.6-6.6 8.4s-5.9 5.6-7.1 9.1c-2.3 7 4 11 4 11.1" fill="#febf10"/>
  <path d="M28.3 45.5a7.3 7.3 0 0 0-5.1 4c-1.9 4.3 1.1 10.1 2.1 11.8 2.8 5 6.1 15.3 4.2 21.5-1 3-3.7 5.6-6.6 8.4s-5.9 5.6-7.1 9.1c-2.3 7 4.1 11.1 4.2 11.2" fill="none" stroke="#000" stroke-linecap="round" stroke-linejoin="round" stroke-width=".4"/>
  <path d="M19 117.1a6.8 6.8 0 0 1-3-3.4 7.1 7.1 0 0 1 4.5.3 6.8 6.8 0 0 1 3 3.4 6.4 6.4 0 0 1-4.5-.3z" fill="#325723" stroke="#000" stroke-linecap="round" stroke-linejoin="round" stroke-width=".4"/>
  <path d="M46.3 78a9.7 9.7 0 0 0-6.6-2.7c-3.6.2-6.7 2.6-8.4 4.1.3-6.4-2.4-14.3-4.9-18.7s-3.1-8.1-2-10.7a4.8 4.8 0 0 1 3-2.7" fill="none" stroke="#000" stroke-linecap="round" stroke-linejoin="round" stroke-width=".4"/>
  <path d="M20.2 110c-.2-.2-5.2-3.3-3.1-9.3 1-3 3.6-5.6 6.2-8.1.8-.4 3.2-1.2 4.7-.4a.6.6 0 0 0 .9-.3.7.7 0 0 0-.3-.9 5.3 5.3 0 0 0-3.3-.3c2.4-2.3 4.5-4.7 5.4-7.5a8.5 8.5 0 0 0 .4-1.7c.1-.1 4-4.7 8.7-4.9a7.9 7.9 0 0 1 5.5 2.3" fill="none" stroke="#000" stroke-linecap="round" stroke-linejoin="round" stroke-width=".4"/>
  <path d="M34.6 118.5a5.8 5.8 0 0 1-1.2-3.4 5.8 5.8 0 0 1 3.3 1.5 5.3 5.3 0 0 1 1.2 3.5 5.8 5.8 0 0 1-3.3-1.6z" fill="#325723"/>
  <path d="M34.7 116.5a7.1 7.1 0 0 1 2.6 1 2.4 2.4 0 0 0-.6-.9 5.8 5.8 0 0 0-3.3-1.5 5.8 5.8 0 0 0 1.2 3.4l.6.6a5.8 5.8 0 0 1-.5-2.6z" fill="#0d3a12"/>
  <path d="M34.6 118.5a5.8 5.8 0 0 1-1.2-3.4 5.8 5.8 0 0 1 3.3 1.5 5.3 5.3 0 0 1 1.2 3.5 5.8 5.8 0 0 1-3.3-1.6z" fill="none" stroke="#000" stroke-linecap="round" stroke-linejoin="round" stroke-width=".4"/>
  <path d="M24.1 121.9a5.5 5.5 0 0 1-.2-3.6 5.8 5.8 0 0 1 2.7 2.5 5.2 5.2 0 0 1 .1 3.6 5.3 5.3 0 0 1-2.6-2.5zm-3.3-3.5a6.8 6.8 0 0 1-4.5-.7A7.1 7.1 0 0 1 20 115a7 7 0 0 1 4.5.8 6.7 6.7 0 0 1-3.7 2.6z" fill="#325723" stroke="#000" stroke-linecap="round" stroke-linejoin="round" stroke-width=".4"/>
  <path d="M23.2 120.8a7.7 7.7 0 0 1-4.5 2 7.9 7.9 0 0 1 1.7-4.7 8.1 8.1 0 0 1 4.6-2 7.4 7.4 0 0 1-1.8 4.7zm22-4.1a6.7 6.7 0 0 1-4.5-1.4 7.9 7.9 0 0 1 4.2-2.2 7.3 7.3 0 0 1 4.4 1.4 6.8 6.8 0 0 1-4.1 2.2z" fill="#325723" stroke="#000" stroke-linecap="round" stroke-linejoin="round" stroke-width=".4"/>
  <path d="M36.9 116.9a7.3 7.3 0 0 1-3.9-2.4 7.3 7.3 0 0 1 4.4-1.1 7.3 7.3 0 0 1 3.9 2.4 6.8 6.8 0 0 1-4.4 1.1zM21.1 115a5.5 5.5 0 0 1-2.2-2.9 5.9 5.9 0 0 1 3.6.5 5.1 5.1 0 0 1 2.1 2.9 5.6 5.6 0 0 1-3.5-.5zm19.8-.8a7 7 0 0 1-3.9-2 6.9 6.9 0 0 1 4.2-1.3A6.4 6.4 0 0 1 45 113a6.1 6.1 0 0 1-4.1 1.2z" fill="#325723" stroke="#000" stroke-linecap="round" stroke-linejoin="round" stroke-width=".4"/>
  <path d="M41.4 114.2a6.3 6.3 0 0 1 1.8 3.5 5.9 5.9 0 0 1-3.7-1.2 5.8 5.8 0 0 1-1.9-3.5 6.3 6.3 0 0 1 3.8 1.2z" fill="#325723"/>
  <path d="M41.7 116.3a6.6 6.6 0 0 1-3-.6 2 2 0 0 0 .8.8 5.9 5.9 0 0 0 3.7 1.2 6.3 6.3 0 0 0-1.8-3.5l-.8-.5a6.3 6.3 0 0 1 1.1 2.6z" fill="#0d3a12"/>
  <path d="M41.4 114.2a6.3 6.3 0 0 1 1.8 3.5 5.9 5.9 0 0 1-3.7-1.2 5.8 5.8 0 0 1-1.9-3.5 6.3 6.3 0 0 1 3.8 1.2z" fill="none" stroke="#000" stroke-linecap="round" stroke-linejoin="round" stroke-width=".4"/>
  <path d="M35.7 109.9a7.1 7.1 0 0 1 5-.5 7.5 7.5 0 0 1-3.2 3.9 7.8 7.8 0 0 1-5 .5 7.5 7.5 0 0 1 3.2-3.9z" fill="#325723"/>
  <path d="M38.3 110.5a7.6 7.6 0 0 1-2.2 3.3l1.4-.5a7.5 7.5 0 0 0 3.2-3.9 7.1 7.1 0 0 0-5 .5 3.3 3.3 0 0 0-1 .6 9.2 9.2 0 0 1 3.6 0z" fill="#0d3a12"/>
  <path d="M35.7 109.9a7.1 7.1 0 0 1 5-.5 7.5 7.5 0 0 1-3.2 3.9 7.8 7.8 0 0 1-5 .5 7.5 7.5 0 0 1 3.2-3.9z" fill="none" stroke="#000" stroke-linecap="round" stroke-linejoin="round" stroke-width=".4"/>
  <circle cx="28.2" cy="114.9" r="4.8" fill="red" stroke="#000" stroke-linecap="round" stroke-linejoin="round" stroke-width=".4"/>
  <circle cx="28.7" cy="116.5" r="4.6" fill="red" stroke="#000" stroke-linecap="round" stroke-linejoin="round" stroke-width=".4"/>
  <circle cx="30.3" cy="115.3" r="4.3" fill="red" stroke="#000" stroke-linecap="round" stroke-linejoin="round" stroke-width=".4"/>
  <circle cx="28.8" cy="115.5" r="3.9" fill="red" stroke="#000" stroke-linecap="round" stroke-linejoin="round" stroke-width=".4"/>
  <circle cx="28.6" cy="115.2" r="2.6" fill="red" stroke="#000" stroke-linecap="round" stroke-linejoin="round" stroke-width=".4"/>
  <circle cx="28.8" cy="116.1" r="2.5" fill="red" stroke="#000" stroke-linecap="round" stroke-linejoin="round" stroke-width=".4"/>
  <circle cx="29.7" cy="115.4" r="2.3" fill="red" stroke="#000" stroke-linecap="round" stroke-linejoin="round" stroke-width=".4"/>
  <circle cx="28.9" cy="115.6" r="2.1" fill="red" stroke="#000" stroke-linecap="round" stroke-linejoin="round" stroke-width=".4"/>
  <path d="M31 67.4a4.2 4.2 0 0 1-2.3-1.9 4.2 4.2 0 0 1 3-.3 4.2 4.2 0 0 1 2.3 1.9 4.2 4.2 0 0 1-3 .3z" fill="#325723"/>
  <path d="M30.2 66a5.2 5.2 0 0 1 2.3-.4l-.8-.4a4.2 4.2 0 0 0-3 .3 4.2 4.2 0 0 0 2.3 1.9h.7a4.5 4.5 0 0 1-1.5-1.4z" fill="#0d3a12"/>
  <path d="M31 67.4a4.2 4.2 0 0 1-2.3-1.9 4.2 4.2 0 0 1 3-.3 4.2 4.2 0 0 1 2.3 1.9 4.2 4.2 0 0 1-3 .3z" fill="none" stroke="#000" stroke-linecap="round" stroke-linejoin="round" stroke-width=".4"/>
  <path d="M28 74.3a4.6 4.6 0 0 1-2.6 1.5 4.2 4.2 0 0 1 .8-2.9 4 4 0 0 1 2.6-1.5 4.2 4.2 0 0 1-.8 2.9z" fill="#325723" stroke="#000" stroke-linecap="round" stroke-linejoin="round" stroke-width=".4"/>
  <path d="M25.5 69.3a6.3 6.3 0 0 1 3.5 1.8 5.7 5.7 0 0 1-3.7 1.2 5.8 5.8 0 0 1-3.5-1.7 6.1 6.1 0 0 1 3.7-1.3z" fill="#325723"/>
  <path d="M27 70.9a6.7 6.7 0 0 1-2.8 1.2l1.1.2a5.7 5.7 0 0 0 3.7-1.2 6.3 6.3 0 0 0-3.5-1.8h-.9a7.2 7.2 0 0 1 2.4 1.6z" fill="#0d3a12"/>
  <path d="M25.5 69.3a6.3 6.3 0 0 1 3.5 1.8 5.7 5.7 0 0 1-3.7 1.2 5.8 5.8 0 0 1-3.5-1.7 6.1 6.1 0 0 1 3.7-1.3z" fill="none" stroke="#000" stroke-linecap="round" stroke-linejoin="round" stroke-width=".4"/>
  <path d="M25 84.5a5.6 5.6 0 0 1-2.2-2.6 5.6 5.6 0 0 1 3.5.3 5.6 5.6 0 0 1 2.2 2.6 5.6 5.6 0 0 1-3.5-.3z" fill="#325723" stroke="#000" stroke-linecap="round" stroke-linejoin="round" stroke-width=".4"/>
  <path d="M25.4 86.8a4.8 4.8 0 0 1-3.3-.9 5.1 5.1 0 0 1 2.9-1.6 5 5 0 0 1 3.3.8 5 5 0 0 1-2.9 1.7z" fill="#325723"/>
  <path d="M23.9 85.8a4.5 4.5 0 0 1 2.1-1.5h-1a5.1 5.1 0 0 0-2.9 1.6 4.8 4.8 0 0 0 3.3.9l.7-.2a5.1 5.1 0 0 1-2.2-.8z" fill="#0d3a12"/>
  <path d="M25.4 86.8a4.8 4.8 0 0 1-3.3-.9 5.1 5.1 0 0 1 2.9-1.6 5 5 0 0 1 3.3.8 5 5 0 0 1-2.9 1.7z" fill="none" stroke="#000" stroke-linecap="round" stroke-linejoin="round" stroke-width=".4"/>
  <path d="M34.2 83.6a6.3 6.3 0 0 1-1.3-3.7 5.8 5.8 0 0 1 3.6 1.6 6.3 6.3 0 0 1 1.3 3.7 5.8 5.8 0 0 1-3.6-1.6zM46 74.9a5 5 0 0 1-3.2.8 5.4 5.4 0 0 1 1.7-2.8 4.8 4.8 0 0 1 3.1-.8 5 5 0 0 1-1.6 2.8z" fill="#325723" stroke="#000" stroke-linecap="round" stroke-linejoin="round" stroke-width=".4"/>
  <path d="M40.5 120.1c0 .2-.4.4-.8.4s-.8-.2-.8-.4.4-.6.9-.6a.7.7 0 0 1 .7.6z" fill="#febf10" stroke="#000" stroke-linecap="round" stroke-linejoin="round" stroke-width=".4"/>
  <path d="M42.9 120c0 .5-.7.9-1.4.9s-1.3-.2-1.3-.7a1.3 1.3 0 0 1 1.3-1c.7 0 1.4.3 1.4.8zm-3 1.5c0 .4-.6.5-1.1.5s-.9-.2-.9-.7a.9.9 0 0 1 1-.8 1.1 1.1 0 0 1 1 1zM26.3 127c0 .5-.7.6-1.3.6s-1.1-.2-1.1-.8.5-.9 1.2-.9a1.3 1.3 0 0 1 1.2 1.1zm2.4-.3c0 .3-.5.6-1.1.6s-1.1-.3-1.1-.6.6-.9 1.2-.9a1 1 0 0 1 1 .9z" fill="#febf10" stroke="#000" stroke-linecap="round" stroke-linejoin="round" stroke-width=".4"/>
  <path d="M27.8 127.8c0 .5-.6.9-1.4.9s-1.3-.2-1.3-.7a1.2 1.2 0 0 1 1.3-1c.8 0 1.4.3 1.4.8zm-8.1 1.5c0 .4-.5.7-1 .7s-1.1-.1-1.1-.5.5-.8 1.1-.8 1 .2 1 .6zm-4.9-10.1c0 .4-.5.8-1.1.8s-1.1-.2-1.1-.6.5-.8 1.1-.8 1.1.2 1.1.6zm26.9 2.1c0 .3-.4.5-.9.5s-.9-.2-.9-.5.5-.7 1-.7a.8.8 0 0 1 .8.7zm2.8-1.6c0 .3-.4.5-.8.5s-.8-.2-.8-.5.5-.6.9-.6a.8.8 0 0 1 .7.6z" fill="#febf10" stroke="#000" stroke-linecap="round" stroke-linejoin="round" stroke-width=".4"/>
  <path d="M46.4 120.3c0 .4-.6.5-1.2.5s-.9-.2-.9-.6a.9.9 0 0 1 1-.8 1.1 1.1 0 0 1 1.1.9z" fill="#febf10" stroke="#000" stroke-linecap="round" stroke-linejoin="round" stroke-width=".4"/>
  <path d="M44.6 121c0 .4-.5.7-1.2.7s-1.2-.3-1.2-.7.7-.9 1.3-.9a1 1 0 0 1 1.1.9zm3.8-1.8c0 .2-.3.4-.8.4s-.8-.2-.8-.4.5-.6.9-.6a.7.7 0 0 1 .7.6zm17.9 5.7c0 .4-.5.6-1 .6s-1-.2-1-.6.5-.7 1.1-.7a.8.8 0 0 1 .9.7z" fill="#febf10" stroke="#000" stroke-linecap="round" stroke-linejoin="round" stroke-width=".4"/>
  <path d="M65.4 125.9c0 .5-.6.9-1.3.9s-1.4-.1-1.4-.6.6-1 1.4-1 1.3.2 1.3.7zm-3.8 1.5c0 .6-.7 1.2-1.7 1.2s-1.7-.2-1.7-.8a1.6 1.6 0 0 1 1.7-1.4c1 0 1.7.4 1.7 1zm-3.8 1.9c0 .6-.7.7-1.4.7s-1.2-.3-1.2-.8a1.2 1.2 0 0 1 1.3-1.1 1.3 1.3 0 0 1 1.3 1.2z" fill="#febf10" stroke="#000" stroke-linecap="round" stroke-linejoin="round" stroke-width=".4"/>
  <path d="M58.5 127.5c0 .4-.4.6-1 .6s-1-.2-1-.6.6-.7 1.1-.7a.8.8 0 0 1 .9.7z" fill="#febf10" stroke="#000" stroke-linecap="round" stroke-linejoin="round" stroke-width=".4"/>
  <path d="M59.3 128.6c0 .3-.4.6-1 .6s-1-.3-1-.6.6-.8 1.1-.8a.9.9 0 0 1 .9.8zm4.5-1.5c0 .3-.5.6-1.1.6s-1-.3-1-.6.6-.8 1.2-.8a.9.9 0 0 1 .9.8z" fill="#febf10" stroke="#000" stroke-linecap="round" stroke-linejoin="round" stroke-width=".4"/>
  <path d="M66.2 127.8c0 .6-.7.7-1.5.7s-1.1-.3-1.1-.9a1.1 1.1 0 0 1 1.2-1 1.3 1.3 0 0 1 1.4 1.2z" fill="#febf10" stroke="#000" stroke-linecap="round" stroke-linejoin="round" stroke-width=".4"/>
  <path d="M63.9 128.5c0 .5-.7.9-1.5.9s-1.6-.4-1.6-.9.9-1.2 1.7-1.2a1.3 1.3 0 0 1 1.4 1.2zm4.9-2.1c0 .3-.4.6-1 .6s-1-.3-1-.6.6-.8 1.1-.8a.8.8 0 0 1 .9.8z" fill="#febf10" stroke="#000" stroke-linecap="round" stroke-linejoin="round" stroke-width=".4"/>
  <path d="M66.3 129.3c0 .5-.7.9-1.6.9s-1.6-.4-1.6-.9.9-1.2 1.8-1.2a1.4 1.4 0 0 1 1.4 1.2zm-3.2-6.1c0 .3.4.5.7.5s.7-.2.7-.5a.9.9 0 0 0-.7-.6.8.8 0 0 0-.7.6zM59 130c0 .3.3.5.7.5s.7-.2.7-.5a.9.9 0 0 0-.8-.6.7.7 0 0 0-.6.6z" fill="#febf10" stroke="#000" stroke-linecap="round" stroke-linejoin="round" stroke-width=".4"/>
  <path d="M30.5 127a2.6 2.6 0 0 1 .5-2l14-3.3v1.7l-2.9 2.3h-3.3l-5.6 1.8z" fill="#966e14"/>
  <path d="M45 121.7a12.9 12.9 0 0 0-4.8-.1s-7-1.1-8.2.9-1 2.5-1 2.5 4 .2 4.6-.3a12.7 12.7 0 0 1 3.3-.9s-2.4 2.8-3.8 2.5a3.4 3.4 0 0 0-2.4.4l-2.2.3a2.8 2.8 0 0 0 2.8 1.1c1.9-.2 3.2 0 4.2-.5l2.1-1.2s1.1 2.4 2.7 1.6 4.3-1.5 4.3-1.5l1-1.1 1-.2s-.7-2.6-3.1-1.9-2.6 1.2-2.6 1.2H40l2.9-1.2.4-.9z" fill="#febf10"/>
  <path d="M45 121.7a12.9 12.9 0 0 0-4.8-.1s-7-1.1-8.2.9-1 2.5-1 2.5 4 .2 4.6-.3a12.7 12.7 0 0 1 3.3-.9s-2.4 2.8-3.8 2.5a3.4 3.4 0 0 0-2.4.4l-2.2.3a2.8 2.8 0 0 0 2.8 1.1c1.9-.2 3.2 0 4.2-.5l2.1-1.2s1.1 2.4 2.7 1.6 4.3-1.5 4.3-1.5l1-1.1 1-.2s-.7-2.6-3.1-1.9-2.6 1.2-2.6 1.2H40l2.9-1.2.4-.9zM31 125a2.6 2.6 0 0 0-.5 2m14.5-5.3v1.7" fill="none" stroke="#000" stroke-linecap="round" stroke-linejoin="round" stroke-width=".4"/>
  <path d="M42.9 128.4a1.7 1.7 0 0 1-1.9 1.4c-1 0-1.9-.2-1.9-1a1.9 1.9 0 0 1 1.9-1.6c1.1 0 1.9.4 1.9 1.2z" fill="#febf10" stroke="#000" stroke-linecap="round" stroke-linejoin="round" stroke-width=".4"/>
  <path d="M41.6 130.2c0 .7-1.2.9-2.4.9s-2-.4-2-1.2 1-1.4 2.2-1.4a2.1 2.1 0 0 1 2.2 1.7z" fill="#febf10" stroke="#000" stroke-linecap="round" stroke-linejoin="round" stroke-width=".4"/>
  <path d="M39.3 127.9c0 .5-.5.8-1.1.8s-1.1-.3-1.1-.8.6-.9 1.2-.9a.9.9 0 0 1 1 .9z" fill="#febf10" stroke="#000" stroke-linecap="round" stroke-linejoin="round" stroke-width=".4"/>
  <path fill="none" stroke="#000" stroke-linecap="round" stroke-linejoin="round" stroke-width=".4" d="M8 7.9h62v124.31H8z"/>
</svg>
