<svg xmlns="http://www.w3.org/2000/svg" viewBox="0 0 78 140">
  <rect width="78" height="140" rx="6" ry="6" fill="#fff"/>
  <path d="M61.9 65c.5-1.4 3.8-4.4 3.9-7.3s-1.1-4.3-2.1-4.1l-1.3.6a76.6 76.6 0 0 0 0-14.5c-.7-7.6 1-9.3 2-13.2s.1-5.4-.7-7-19.4-5.8-19.4-5.8-3.3 2-3.6 5.2c-.5 4.7 1 17.6 3.5 23.2 0 0-3-.7-3.4-.4s1.6 10 1.9 10.5a22.7 22.7 0 0 0 3 2.7s.2 13.5.1 17.2.6 10.1 0 10.9-1.8-.4-2.1-.5-2.5 7.5-2.5 7.5a5 5 0 0 1 2.3 1.4c.9 1 3.5 12 2.4 19.7s-2.2 15.8-1.5 16.8 13.9-5.8 14.8-6.9.3-7.5.3-8.3a7.2 7.2 0 0 1 1.7-4.5c1.3-1.3.6-7.5.6-9s-1.1-15.2-.1-18.3-.3-14.5.2-15.9z" fill="#325723"/>
  <path d="M57.7 62.7s-1.9.8-2.7 6.8.5 15 .5 19.5-1.6 13.1-2 17.4.8 9.7 2.4 9.7.5-11.5 1.5-14.9 3-21.6 2.5-26.8-1-12.2-2.2-11.7z" fill="#980805"/>
  <path d="M58.9 27.4S55.8 38 55.5 47s.9 10.6.9 10.6l6.3-3.7s.2-10 0-12.8-.8-8.2.3-10.6a16.7 16.7 0 0 0 1.8-8.3l-.5-1.1s.7 3-1.1 4.5a10.8 10.8 0 0 1-4.3 1.8zm6.9 29.5s-7.5 3.3-8.9 6.3-1.1 16.2-.4 20.4.7 13.3-.7 16.6-1.9 14.5.1 18.9l2.3-.4 1.5.9v-7l.6-3.5s1.9-3.4 1.7-5.7l-.7-17.2.5-6.3.4-8.8-.3-6.2 3-4.2.9-2.6zm-21-6.5s3.7 1.3 3.7 7.1-1.8 18.4-1.8 21.5-.7 3.6-.7 3.6L45.7 70V54.9l-1.8-1.4-1.4-1.3zm-.3 36.8s4.7 2.5 3.8 13.7-2.5 19.7-2.6 21a14.7 14.7 0 0 0 0 3.1l-1.3 2.6a24.2 24.2 0 0 1 .3-8.5 107.3 107.3 0 0 0 1.5-12.2l-.8-8.5-1.2-5.7L43 91l-1.3-1z" fill="#0d3a12"/>
  <path d="M58.7 56.5a45.2 45.2 0 0 1 5-2.9c1-.2 2.2 1.3 2.1 4.1s-3.4 5.9-3.9 7.3.8 12.7-.2 15.9.1 16.8.1 18.3.7 7.7-.6 9a7.2 7.2 0 0 0-1.7 4.5c0 .8.5 7.2-.3 8.3s-14 7.9-14.8 6.9.4-9 1.5-16.8-1.5-18.7-2.4-19.7a5 5 0 0 0-2.3-1.4s2-7.5 2.3-7.4 1.7 1.1 2.3.4-.1-7.1 0-10.9-.1-17.2-.1-17.2a22.7 22.7 0 0 1-3-2.7c-.3-.5-2.4-9.8-2-10.2s3.5.1 3.5.1c-2.5-5.6-3.9-18.1-3.5-22.8a8 8 0 0 1 3.3-5.4s18.8 4 19.7 5.6 1.7 3.1.7 7-2.7 5.6-2 13.2a71.5 71.5 0 0 1 0 14.3" fill="none" stroke="#000" stroke-linecap="round" stroke-linejoin="round" stroke-width=".4"/>
  <path d="M34.5 103c-.3.1-5 3.9-5 3.9l.6-9.1.4 8.2s-.1-10.4-.1-14.3l.2-2.8c.5-3.4 1.8-9.6 1.6-11.4a41.3 41.3 0 0 1-.7-5.2l.2-2.5a2.6 2.6 0 0 1 1.8-2.4c3.3-.9 3-2.3 3-2.3s-1.5-8.2-2.2-8.2a5.8 5.8 0 0 0-1.9.8v-.2a51.1 51.1 0 0 1 0-10.4c.6-5.4 2.8-6.2 3-10.1s-.4-14.3-.1-17.1a9.2 9.2 0 0 0-1.4-5.4c-.2-.6-18 3-18 3s-4 4.2-3.4 15.9 3.2 23.8 2.5 27.7.2 16.3.5 19.8l1 8.7a9.9 9.9 0 0 0-1.5-2.4c-.5-.2-2.5 5.4-2.5 5.4a3.7 3.7 0 0 0 1 2.4c1 1 1.9 2 1.8 3.6s-1 10.8-.5 14.9a62.8 62.8 0 0 1 .1 9.7c0 .7 14.3 3.5 14.3 3.5a45.7 45.7 0 0 0 .3-7.6 6.3 6.3 0 0 1 3.9-6.2c1.4-.8 3.5-2.4 3.6-4.2s-2.1-5.8-2.5-5.7z" fill="#325723"/>
  <path d="M16.4 23a29.6 29.6 0 0 0 .4 13.6c2 7.1 2.2 20.1 1.5 26.6s.5 18.8-.8 20.7-1.7-20-1.7-20L15 44.6l-1.7-18.1s2-10.4 3.1-3.5z" fill="#980805"/>
  <path d="M15.3 21.7s-2.4 3.4-.4 11.4 2.9 21.1 1.9 25.6 1 18.9.9 23.5a27.9 27.9 0 0 1-1.2 7.5L15 72.4s-.5-9.8 0-11.2-.8-12.5-.8-12.5-2.9-17.3-1.7-22.7a26.7 26.7 0 0 1 3.4-8.4l.3 3.6zm14.5 2.5s-.6 6.3-2 16-2.8 17.7-2.4 19.9.1 1.5.1 1.5l6.9-4s-.6-9.2-.1-10.7 2.9-7.3 3.1-9.2-.1-16.1-.1-16.1a20.7 20.7 0 0 0-.1-4.2 9.2 9.2 0 0 0-.9-2.3zm3.5 37.9s-5 1.8-6.1 3.5.8 12.9 0 17.8-1 11.5-.2 13.7c0 0-3.5 7.9-1 13l4.7-4.1s-.5-13.8-.3-15 1.9-11.8 1.8-13.5-.9-6.8-.5-8a2.8 2.8 0 0 1 2.2-2.4c1.1-.1 2.6-1.7 2.6-1.7l-1-3.2zm.9 46.3s-4.2 2.5-6.4 3.5-2.5 11.6-2.5 11.6l3.9 2.9s.2-10 1-10.9a27.5 27.5 0 0 1 4.5-3.5 18.2 18.2 0 0 0 2.1-2.3zm-20-16.7s4.3.5 4 7.3-2.7 17-2.2 19.7a26 26 0 0 1 .5 3.7l-1.7.8s.1-8.8 0-11.2.5-12.6.5-12.6l-.3-2.5-1.6-2-.9-2.2z" fill="#0d3a12"/>
  <path d="M29.5 106.9s4.9-3.9 5.3-4 2.4 4.1 2.2 5.8-2.2 3.4-3.6 4.2a6.3 6.3 0 0 0-3.9 6.2 53.4 53.4 0 0 1-.2 7.6S15 124.2 15 123.5a72.3 72.3 0 0 0-.2-10c-.5-4.1.4-13.3.5-14.9s-.8-2.6-1.8-3.6a3.7 3.7 0 0 1-1-2.4s2-5.6 2.5-5.4a9.9 9.9 0 0 1 1.5 2.4l-1-8.7c-.3-3.5-1.1-15.9-.5-19.8S13.2 45 12.5 33.4s3.9-16.2 3.9-16.2 17.3-3.3 17.5-2.7a9.2 9.2 0 0 1 1.4 5.4c-.3 2.8.4 13.2.1 17.1s-2.4 4.7-3 10.1a51.1 51.1 0 0 0 0 10.4" fill="none" stroke="#000" stroke-linecap="round" stroke-linejoin="round" stroke-width=".4"/>
  <path d="M27.9 60.4s6-3.5 6.8-3.5 1.8 8.2 1.8 8.2.3 1.4-3 2.3-1.6 7.8-1.3 10.1-1.8 11-1.8 13.1.1 15.4.1 15.4" fill="none" stroke="#000" stroke-linecap="round" stroke-linejoin="round" stroke-width=".4"/>
  <path d="M63.6 100.8s-1.1-.4-2.7 1.2-3 3.4-3 5.1-.5 2.2 2.4 1.7 3.5-4.6 3.5-5.7.3-1.8-.2-2.3z" fill="#febf10" stroke="#000" stroke-linecap="round" stroke-linejoin="round" stroke-width=".4"/>
  <path d="M62.8 103.4s0-1.9-.9-1.3a10.1 10.1 0 0 0-2.9 4c0 .5 0 1.9 1.2 1.1a5.7 5.7 0 0 0 1.8-2.1" fill="none" stroke="#000" stroke-linecap="round" stroke-linejoin="round" stroke-width=".4"/>
  <path d="M58.4 107.6a2.1 2.1 0 0 0 3.2-.4c1.4-1.9 1.2-2.7 1.2-2.7" fill="none" stroke="#000" stroke-linecap="round" stroke-linejoin="round" stroke-width=".4"/>
  <path d="M15.1 87.3s-.6-.6-1.5.4a5 5 0 0 0-1.1 3.5c0 .9-.4 2.2 1 1.5s2-4.5 1.6-5.4z" fill="#febf10" stroke="#000" stroke-linecap="round" stroke-linejoin="round" stroke-width=".4"/>
  <path d="M14.7 88.7s-.3-1.1-.8-.5-1.2 4.5-.4 3.9.8-2.7.8-2.7" fill="none" stroke="#000" stroke-linecap="round" stroke-linejoin="round" stroke-width=".4"/>
  <path d="M36.4 110.2s1.5-2.1 1-3.4-.9-1.9-1.2-2.9-1.3-1.6-1.9-.5-.2 4.1.1 5.1 1.1 2.1 2 1.7z" fill="#febf10" stroke="#000" stroke-linecap="round" stroke-linejoin="round" stroke-width=".4"/>
  <path d="M34.9 107.9s.5 1.8 1.3.9-.3-5.1-1.1-4.7 0 2.6 0 2.6" fill="none" stroke="#000" stroke-linecap="round" stroke-linejoin="round" stroke-width=".4"/>
  <path d="M43.2 82.5a16.1 16.1 0 0 0-2.3 3.4c-.8 1.7-1.1 4.4.6 4.5s2.8-1.7 3-3 .7-5.3-1.3-4.9z" fill="#febf10" stroke="#000" stroke-linecap="round" stroke-linejoin="round" stroke-width=".4"/>
  <path d="M43.6 84.4s0-1-.4-.7-1.1 2.5-1.7 3.2-.3 3.9.8 2.5a7.5 7.5 0 0 0 1.4-3.5m-.8-.3a5.2 5.2 0 0 1-.6 2.6" fill="none" stroke="#000" stroke-linecap="round" stroke-linejoin="round" stroke-width=".4"/>
  <path d="M36.3 57.7s-.9-1.3-1.8-.8-1.5 3.5-.5 5.9 1.9 3.1 2.6 2.6 1.5-2.3.9-4-.6-3.5-1.2-3.7z" fill="#febf10" stroke="#000" stroke-linecap="round" stroke-linejoin="round" stroke-width=".4"/>
  <path d="M35.8 64.2s-.7-.4-1-2.5-.3-2.7 0-3.2 1.1-.2 1.5 1a9.8 9.8 0 0 1 .4 3m-1.1-2.9a3.4 3.4 0 0 0 .1 3" fill="none" stroke="#000" stroke-linecap="round" stroke-linejoin="round" stroke-width=".4"/>
  <path d="M42.6 43.3s-.1-1.8-1.5-1.5-1.5 4.3-1.3 5.1.6 2.3 1.4 2.6.5 3.9 2.7 2.5-.1-7.4-1.3-8.7z" fill="#febf10" stroke="#000" stroke-linecap="round" stroke-linejoin="round" stroke-width=".4"/>
  <path d="M43.2 48.1s-.1-2.9-.9-3.9-1.5-.9-1.6.6 1.1 3.3 1.4 4.6 1.4 1.9 1.7.9m-1.9-5.2a1.5 1.5 0 0 0-.1 1.5" fill="none" stroke="#000" stroke-linecap="round" stroke-linejoin="round" stroke-width=".4"/>
  <path d="M20.7 13.9c-1.9.8-4.7 2.8-5.1 5.3s-.3 5.5 3.1 6.5 4.5.1 5 1.2 1.5 7.1 1.9 6.6-.2-6.5 1.7-7.5 5-2.8 6.5-6.2-.1-6.8-2.1-7.7c-4.6-2.1-9.2 1-11 1.8z" fill="#febf10"/>
  <path d="M23.2 12.7s9.1 3 7 11.4c0 0 4.1-3.1 4.2-6.6s-1.6-5.1-4.3-6-6.9 1.2-6.9 1.2z" fill="#d09b07"/>
  <path d="M20.7 13.9c-1.9.8-4.7 2.8-5.1 5.3s-.3 5.5 3.1 6.5 4.5.1 5 1.2 1.5 7.1 1.9 6.6-.2-6.5 1.7-7.5 5-2.8 6.5-6.2-.1-6.8-2.1-7.7c-4.6-2.1-9.2 1-11 1.8z" fill="none" stroke="#000" stroke-linecap="round" stroke-linejoin="round" stroke-width=".4"/>
  <path d="M43.7 13.9s-4 4 .6 7.7a27.5 27.5 0 0 0 10.9 5s.6-.3.7 1-.4 3 0 3.3 1.2-2.9 1.7-3.2 5.1-.8 6.2-2.9.3-8-1.5-9.3-7.4-4.3-11.9-3.9a11.5 11.5 0 0 0-6.7 2.3z" fill="#febf10"/>
  <path d="M53 11.8s9.7 6.6 5.5 15.6c0 0 4.5-.9 5.3-2.6s.7-6.6-1-8.8-8.7-4.1-9.8-4.2z" fill="#d09b07"/>
  <path d="M43.7 13.9s-4 4 .6 7.7a27.5 27.5 0 0 0 10.9 5s.6-.3.7 1-.4 3 0 3.3 1.2-2.9 1.7-3.2 5.1-.8 6.2-2.9.3-8-1.5-9.3-7.4-4.3-11.9-3.9a11.5 11.5 0 0 0-6.7 2.3zM29.3 13a7.4 7.4 0 0 0-6.6 1 14.7 14.7 0 0 0-5.3 5c-.7 1.1-.8 4.8 2.1 5.6s6.1-.5 7.7-.6 4.9-2.4 5.4-3.9" fill="none" stroke="#000" stroke-linecap="round" stroke-linejoin="round" stroke-width=".4"/>
  <path d="M18.7 19.1s2-3.1 4.1-4 4.9-1.6 6.1-1.2 3.1 1.4 3 3.2-.7 4.4-2.9 4.8-4.2 1.6-5.9 1.8a4.1 4.1 0 0 1-3.9-1.3" fill="none" stroke="#000" stroke-linecap="round" stroke-linejoin="round" stroke-width=".4"/>
  <path d="M23.2 16.1a16.3 16.3 0 0 0-3 3c-.5 1.2-.7 3.2 1.6 3a22.2 22.2 0 0 0 4.3-.7c1.2-.2 3.6-1.1 4-2.3s.2-2.3-.5-2.7" fill="none" stroke="#000" stroke-linecap="round" stroke-linejoin="round" stroke-width=".4"/>
  <path d="M21.9 19.5s1.1-2.5 2.8-2.9 3.7-.3 4.1.6-.6 2.8-2.5 3.2" fill="none" stroke="#000" stroke-linecap="round" stroke-linejoin="round" stroke-width=".4"/>
  <path d="M24.7 18.1s-1.7 1.2-1.6 1.7 2.1 0 2.8-.5.9-1.1.3-1.4-1.3-.5-1.5.2zm19.6-3.4s-2.2 5.8 3.4 7.6 8 2.8 9.9 2.8 5.5-.5 5.7-2.9-2.1-7.1-7.1-8.1l-5-1" fill="none" stroke="#000" stroke-linecap="round" stroke-linejoin="round" stroke-width=".4"/>
  <path d="M59.2 17.9s-5.5-3.3-8.6-3.3-4.3.2-4.9 2.2 1.5 4.3 5 5.2 6.8 2.4 8.8 1.6 1.6-2.2 1.6-2.2" fill="none" stroke="#000" stroke-linecap="round" stroke-linejoin="round" stroke-width=".4"/>
  <path d="M48.3 16.6s4.3-.6 6.9.6 4 3.4 3.4 4.1-6.4.2-8.8-1.4-2.3-2.3-2.3-2.3" fill="none" stroke="#000" stroke-linecap="round" stroke-linejoin="round" stroke-width=".4"/>
  <path d="M50.2 18.1s3-.4 4.4.2.1 1.2.1 1.7-1.5.7-4.5-1.9z" fill="none" stroke="#000" stroke-linecap="round" stroke-linejoin="round" stroke-width=".4"/>
  <path d="M29.3 126.7s-3.4-4-7.3-4.8-6.8.8-6.9 1.7 1.5 2.6 4 3.6 1.7 1 4.3.8 5.6-.6 5.9-1.3z" fill="#febf10" stroke="#000" stroke-linecap="round" stroke-linejoin="round" stroke-width=".4"/>
  <path d="M18.2 122.5s-2.7 1.4-1 2.4 4.2 2.3 5.3 2.3 3.8-.2 4-.7-1.1-2.1-2.5-2.6" fill="none" stroke="#000" stroke-linecap="round" stroke-linejoin="round" stroke-width=".4"/>
  <path d="M19 124.7s-1.5-1-.7-1.3 1-.2 2.7.3 3.4.7 3.8 1.5-1.9 1.9-3 .8a14.5 14.5 0 0 0-1.8-1.7" fill="none" stroke="#000" stroke-linecap="round" stroke-linejoin="round" stroke-width=".4"/>
  <path d="M50.3 120.7a11.2 11.2 0 0 0-.3-1.9c-.3-.6-.2 1.3-.7 2.2s-2.3 2.4-3.1 3.4-3 4.8-.5 4.2 6-2.6 7.5-2.8 5.7-2.1 6.1-3.9.6-2.7-1.1-3-2.9.5-3.6.2-.8-.7-.6-1.2 0-1-.3-1.7-.2.3-.5 1.3.2 1.7 0 2.1-2.9 1.1-2.9 1.1z" fill="#febf10" stroke="#000" stroke-linecap="round" stroke-linejoin="round" stroke-width=".4"/>
  <path d="M49.7 122.4s-4.3 4.1-3.7 4.5 4.3-1.2 5.2-1.7a27 27 0 0 1 3.8-1.5c.8-.2 3.2-1.3 3.2-2.3s-1.5-1.5-2.5-1.4" fill="none" stroke="#000" stroke-linecap="round" stroke-linejoin="round" stroke-width=".4"/>
  <path d="M48.7 124.5a22.6 22.6 0 0 0 2.7-2 5.7 5.7 0 0 1 2.2-1.5c.8-.1 3.2-.5 2.9.5s-2 1.5-3.2 1.7a10.7 10.7 0 0 0-3 1.2" fill="none" stroke="#000" stroke-linecap="round" stroke-linejoin="round" stroke-width=".4"/>
  <path d="M21.7 61a112.8 112.8 0 0 1 1 11.6c-.2 3.4.1 7.7 1.6 6.7s.5-4.3 1.2-5.3-1.2-2.5-1-3.7-1-7.5-2.8-9.3zm.6 36.5s2 7.3.5 8.1-.5-8.1-.5-8.1zm29.4-13c-.4-.8.1 9.1-.5 9.6a4.2 4.2 0 0 0-1.4 2.5c-.3 1.4.4 8.7 2.5 6.7s.9-6.3 1-8.5-1.3-9.5-1.6-10.3z" fill="#d09b07" stroke="#000" stroke-linecap="round" stroke-linejoin="round" stroke-width=".4"/>
  <path fill="none" stroke="#000" stroke-linecap="round" stroke-linejoin="round" stroke-width=".4" d="M8 7.9h62v124.31H8z"/>
</svg>
