<svg xmlns="http://www.w3.org/2000/svg" viewBox="0 0 78 140">
  <rect width="78" height="140" rx="6" ry="6" fill="#fff"/>
  <path d="M32.8 78.1a3 3 0 0 0 1.7 2.3c1.5.6 3-4.6 2.4-5.1s-3.8 1.5-4.1 2.8z" fill="#004da1" stroke="#000" stroke-linecap="round" stroke-linejoin="round" stroke-width=".4"/>
  <path d="M25 74.5c-6.1-.2-5.5-6.8-5.6-7a5.8 5.8 0 0 1-1.4-4.4c.2-3.6 3.3-4.3 4.9-4.7l2.5 1.6c-.3.1-3.5 1.7-3.6 3.1a4 4 0 0 0 .7 3 6.2 6.2 0 0 1 .7 2.5 4.6 4.6 0 0 0 3.4 3.2z" fill="red"/>
  <path d="M22 62.2s-2.9-.7-4 .8a6.1 6.1 0 0 0 1.4 4.3s1.2-1.7 2.8-1.3c0 0-1-2.2-.2-3.8z" fill="#fff" opacity=".5"/>
  <path d="M25 74.5c-6.1-.2-5.5-6.8-5.6-7a5.8 5.8 0 0 1-1.4-4.4c.2-3.6 3.3-4.3 4.9-4.7l2.5 1.6c-.3.1-3.5 1.7-3.6 3.1a4 4 0 0 0 .7 3 6.2 6.2 0 0 1 .7 2.5 4.6 4.6 0 0 0 3.4 3.2z" fill="none" stroke="#000" stroke-linecap="round" stroke-linejoin="round" stroke-width=".4"/>
  <path d="M21.1 72.8s4.5.9 5.8-2.2 5.4-3.4 5.8-3.6l1.6 3.7a18.6 18.6 0 0 0-4.5 2.7c-3.7 3.6-8.5-.2-8.7-.6z" fill="#0065b7"/>
  <path d="M29.3 68.4a4.7 4.7 0 0 1 3 3.3l-2.4 1.6s-1.1-2.4-2.9-3c0 0 1.5-1.8 2.3-1.9z" fill="#fff" opacity=".5"/>
  <path d="M21.1 72.8s4.5.9 5.8-2.2 5.4-3.4 5.8-3.6l1.6 3.7a18.6 18.6 0 0 0-4.5 2.7c-3.7 3.6-8.5-.2-8.7-.6z" fill="none" stroke="#000" stroke-linecap="round" stroke-linejoin="round" stroke-width=".4"/>
  <path d="M59.8 67.2L56.4 65c1.1-1.6 1.9-6.1 1.9-7.1l3.8 1.6c-.1.5-.6 4.9-2.3 7.7z" fill="#0065b7"/>
  <path d="M61.5 62.7l-4.4.8-.6 1.5 3.4 2s1.6-3 1.6-4.3z" fill="#fff" opacity=".5"/>
  <path d="M59.8 67.2L56.4 65c1.1-1.6 1.9-6.1 1.9-7.1l3.8 1.8c-.1.5-.6 4.7-2.3 7.5z" fill="none" stroke="#000" stroke-linecap="round" stroke-linejoin="round" stroke-width=".4"/>
  <path d="M52.9 64.5a3.5 3.5 0 0 0-2-1.3l1-3.9c.3.1 3.4.9 4.6 3.4A14 14 0 0 0 60 67s-3.5 3.6-7.1-2.5z" fill="red"/>
  <path d="M54.2 60.3a5.9 5.9 0 0 1-1.2 4.2l1 1.7s.8-3.6 2.2-4.2-1.2-1.5-2-1.7z" fill="#fff" opacity=".5"/>
  <path d="M49.3 65.8c.3.1 1.7.7 1.5 1.9s-2.7 2.5-3.5 2.2.7-4.2.7-4.2z" fill="#004da1" stroke="#000" stroke-linecap="round" stroke-linejoin="round" stroke-width=".4"/>
  <path d="M32.5 19.8a18.5 18.5 0 0 0-.4 6c.2 3.6 1 11.1 1.3 13.2s1.9 7 2.2 8.8.9 41.7.9 42.2-.2 12.2.1 14.1a6.2 6.2 0 0 1-.3 3.7c-.3 1.4.5 3.3.8 4.2s.2 6.5.2 8.2 0 3.6.5 3.7 4.1-3.5 4.3-4.3.3-7.3.4-9.7-.4-4.4-.1-5.1a11 11 0 0 0 .7-5.6 32.3 32.3 0 0 1-.5-5.8c.1-1.1.8-6.6.8-7.6s.8-35.1.9-36.3 0-5.7.1-6.6a12.4 12.4 0 0 1 1.1-4.7c.8-1.7 2.3-5.2 2.3-6.9a18.3 18.3 0 0 0-.3-3.3c-.1-.7-.7-1.2-.4-2.2s1.4-3.1 1.4-5.5-15.1-2.6-16-.5z" fill="#325723"/>
  <path d="M39.9 122.3a21.6 21.6 0 0 0 2.2-2.7c.2-.8.3-7.3.4-9.7s-.4-4.4-.1-5.1a11 11 0 0 0 .7-5.6 32.3 32.3 0 0 1-.5-5.8c.1-1.1.8-6.6.8-7.6s.8-35.1.9-36.3 0-5.7.1-6.6a12.4 12.4 0 0 1 1.1-4.7c.8-1.7 2.3-5.2 2.3-6.9a18.3 18.3 0 0 0-.3-3.3c-.1-.7-.7-1.2-.4-2.2s1.4-3.1 1.4-5.5-4.1-1.9-8.2-2c0 0-.9 14.4.3 19.1s-.2 16.7-.3 19-1.3 16-.7 20.8.3 19.7-.3 22.3-.8 24.5.6 22.8z" fill="#0d3a12"/>
  <path d="M32.5 19.8a18.5 18.5 0 0 0-.4 6c.2 3.6 1 11.1 1.3 13.2s1.9 7 2.2 8.8.9 41.7.9 42.2-.2 12.2.1 14.1a6.2 6.2 0 0 1-.3 3.7c-.3 1.4.5 3.3.8 4.2s.2 6.5.2 8.2 0 3.6.5 3.7 4.1-3.5 4.3-4.3.3-7.3.4-9.7-.4-4.4-.1-5.1a11 11 0 0 0 .7-5.6 32.3 32.3 0 0 1-.5-5.8c.1-1.1.8-6.6.8-7.6s.8-35.1.9-36.3 0-5.7.1-6.6a12.4 12.4 0 0 1 1.1-4.7c.8-1.7 2.3-5.2 2.3-6.9a18.3 18.3 0 0 0-.3-3.3c-.1-.7-.7-1.2-.4-2.2s1.4-3.1 1.4-5.5-15.1-2.6-16-.5z" fill="none" stroke="#000" stroke-linecap="round" stroke-linejoin="round" stroke-width=".4"/>
  <path d="M36.4 23.9s.3-.2.5 2.9 1.2 2.9 1.6 4.5-.2 3.8.5 4.2 1.2-2.3 2.1-3.4a6.9 6.9 0 0 0 1.9-4.8c.1-2.1-.1-3.5.1-3.6" fill="#febf10"/>
  <path d="M40.4 24.2a42.4 42.4 0 0 1 .4 4.9 33.9 33.9 0 0 1-.6 4.5s2.4-3.4 2.6-4.5a20.7 20.7 0 0 0 .1-4.2l.2-1.2z" fill="#d09b07"/>
  <path d="M36.4 23.9s.3-.2.5 2.9 1.2 2.9 1.6 4.5-.2 3.8.5 4.2 1.2-2.3 2.1-3.4a6.9 6.9 0 0 0 1.9-4.8c.1-2.1-.1-3.5.1-3.6" fill="none" stroke="#000" stroke-linecap="round" stroke-linejoin="round" stroke-width=".4"/>
  <path d="M42.6 56.3l.7 3 2.1-3.2a14.2 14.2 0 0 0-2.8.2z" fill="#980805" stroke="#000" stroke-linecap="round" stroke-linejoin="round" stroke-width=".4"/>
  <path d="M52 20.7s-2.1 5.4-2 8.3.1 6.2-1 7.9a18.1 18.1 0 0 0-2.7 7.9 77.1 77.1 0 0 1-2.5 12.4c-.7 2.2-2.2 8.8-2.8 10.4S33.5 81 33.2 81.7s-2.3 5.5-2.9 7-1.2 1.1-2 4.5-5.1 11.9-6 13.2-2.1 5.8-3.1 7.7-2.1 5.2-2.6 6.1-.8 2.1 1.3 1.6 3.4-.6 4.6-2.8 2.8-6.3 3.5-7.3a33.3 33.3 0 0 1 2.4-3.2c.8-1 1.1-2 .5-2.2h-.6a6.3 6.3 0 0 1 1.2-2.7 14.7 14.7 0 0 0 1.8-4c.6-1.5 3.5-5.3 4.2-7.4s4.8-10.8 5.4-11.3a56.9 56.9 0 0 0 5-7.5c.9-1.7 4.4-8.2 4.6-8.9s2.3-7.4 2.7-8.1a28.2 28.2 0 0 1 2.4-3.6 24.2 24.2 0 0 0 3.5-6.4c1.3-3.3 1.2-3.9 2-4.4s3-1.2 3.5-3.2.7-1.6.9-2.4a10.8 10.8 0 0 0-.4-3.2 7.6 7.6 0 0 1 .5-3.3 9.2 9.2 0 0 0 .8-3.8 7 7 0 0 0-.9-4c-.7-.9-10.7-3.9-13.5-1.4z" fill="#325723"/>
  <path d="M51.8 42.4s1.1 3.4.3 5.8-3.9 9-4.5 10.5-2.1 4.1-2.3 3.5 3.5-8.5 3.8-10.8 1.2-11.5 2.7-9z" fill="#febf10"/>
  <path d="M60.1 20.2c1.5-2.3 5.1 1.4 5.4 1.8a7 7 0 0 1 .9 4 9.2 9.2 0 0 1-.8 3.8 7.6 7.6 0 0 0-.5 3.3 10.8 10.8 0 0 1 .4 3.2c-.2.8-.3.4-.9 2.4s-2.6 2.7-3.5 3.2-.7 1.1-2 4.4a24.2 24.2 0 0 1-3.5 6.4 28.2 28.2 0 0 0-2.4 3.6c-.4.7-2.5 7.4-2.7 8.1s-3.7 7.2-4.6 8.9a56.9 56.9 0 0 1-5 7.5c-.6.5-4.7 9.2-5.4 11.3s-3.6 5.9-4.2 7.4a14.7 14.7 0 0 1-1.8 4 6.3 6.3 0 0 0-1.2 2.7h.6c.6.2.3 1.2-.5 2.2a33.3 33.3 0 0 0-2.4 3.2c-.7 1-2.2 5.1-3.5 7.3s-2.5 2.2-4.6 2.8c0 0-.9.3 1.4-3.1a116.7 116.7 0 0 0 6.9-12c.7-1.9 4.1-11 4.8-12.1s4.8-11.4 5.4-12.3 6.6-9.5 7.5-12.1A85.2 85.2 0 0 1 48.4 60c.9-1.5 8.2-15.6 9-18.9s1.9-8.6 2.9-10.7-.7-9.4-.2-10.2z" fill="#0d3a12"/>
  <path d="M52.3 20.7S49.9 26.1 50 29s.1 6.2-1 7.9a18.1 18.1 0 0 0-2.7 7.9 77.1 77.1 0 0 1-2.5 12.4c-.7 2.2-2.2 8.8-2.8 10.4S33.5 81 33.2 81.7s-2.3 5.5-2.9 7-1.2 1.1-2 4.5-5.1 11.9-6 13.2-2.1 5.8-3.1 7.7-2.1 5.2-2.6 6.1-.8 2.1 1.3 1.6 3.4-.6 4.6-2.8 2.8-6.3 3.5-7.3a33.3 33.3 0 0 1 2.4-3.2c.8-1 1.1-2 .5-2.2h-.6a6.3 6.3 0 0 1 1.2-2.7 14.7 14.7 0 0 0 1.8-4c.6-1.5 3.5-5.3 4.2-7.4s4.8-10.8 5.4-11.3a56.9 56.9 0 0 0 5-7.5c.9-1.7 4.4-8.2 4.6-8.9s2.3-7.4 2.7-8.1a28.2 28.2 0 0 1 2.4-3.6 24.2 24.2 0 0 0 3.5-6.4c1.3-3.3 1.2-3.9 2-4.4s3-1.2 3.5-3.2.7-1.6.9-2.4a10.8 10.8 0 0 0-.4-3.2 7.6 7.6 0 0 1 .5-3.3 9.2 9.2 0 0 0 .8-3.8 7 7 0 0 0-.9-4c-.7-.9-10.4-4-13.2-1.4z" fill="none" stroke="#000" stroke-linecap="round" stroke-linejoin="round" stroke-width=".4"/>
  <path d="M11.7 24s-.7 4.5 1.4 7.8 5.2 8.7 5.5 9.6-1-.4-1.1.9 2.3 6 2.9 6.3.6-1.2.6-1.2 9.3 15.1 10.6 17.4 5.8 13.4 7 15a50.9 50.9 0 0 1 3.8 5.6c.4.8 2.7 8.4 3.2 9.3s3.2 7.1 4.4 10 3 6.4 3.7 7.9 1.1 3.2 2 3.9a15.7 15.7 0 0 0 .9 2.8c.6 1 6.1 2.4 6.1 2.4s-1.6-5.6-2.7-7.1-4.9-9.6-5.5-11.7S51.4 95 51 94s-2.6-5.5-2.9-7.6a10.3 10.3 0 0 0-1.8-4.4c-.4-.6-4.3-12.2-5.3-14.4a114.8 114.8 0 0 1-4.7-11.8A79.6 79.6 0 0 0 32.8 45c-.8-1.5-3.3-13.2-3.8-14.8s-2-6.7-2.9-7-14.4.8-14.4.8z" fill="#325723"/>
  <path d="M18.6 28l8.3-3.6 2.4 7.9 1.8 6.9.7 2.5a7.1 7.1 0 0 1-1.9-2c-.6-1.1-.9-2.5-1.9-3.5s-1.2-.4-1.7-1 .1-2-.7-2.7-.6-1.8-1.5-2.7-2.7-.3-4.3-.6-1.2-1.2-1.2-1.2" fill="#febf10"/>
  <path d="M23 26.5s1.5 3.4 3 3.8 1.7 3.6 3.7 3.5a58.2 58.2 0 0 0-1.6-6.3l-1.4-3.4-3.9 1.8z" fill="#d09b07"/>
  <path d="M58.8 120.5c.3 1.1-1.9-.8-2.2-1.2a15.7 15.7 0 0 1-.9-2.8c-.9-.7-1.2-2.4-2-3.9s-2.6-5.1-3.7-7.9-4-9.2-4.4-10-2.8-8.5-3.2-9.3a50.9 50.9 0 0 0-3.8-5.6c-1.2-1.6-5.8-12.6-7-15S21 47.4 21 47.4s0 1.5-.6 1.2-3.1-5.1-2.9-6.3 1.1-.9 1.1-.9-3.5-6.2-5.5-9.6-1.4-7.8-1.4-7.8h2.2s-1.4 2.8 1 6.9 5.7 8.9 5.8 11.1-.9 2.3.3 3.5 10.6 13.1 11.6 16.2 8.9 20.8 9.4 21.5 5.8 11.1 6.3 13.2 2.9 10.7 4.2 11.5 6 11.1 6.3 12.6z" fill="#0d3a12"/>
  <path d="M11.8 23.8s-.8 4.7 1.3 8 5.2 8.7 5.5 9.6-1-.4-1.1.9 2.3 6 2.9 6.3.6-1.2.6-1.2 9.3 15.1 10.6 17.4 5.8 13.4 7 15a50.9 50.9 0 0 1 3.8 5.6c.4.8 2.7 8.4 3.2 9.3s3.2 7.1 4.4 10 3 6.4 3.7 7.9 1.1 3.2 2 3.9a15.7 15.7 0 0 0 .9 2.8c.6 1 6.1 2.4 6.1 2.4s-1.6-5.6-2.7-7.1-4.9-9.6-5.5-11.7S51.4 95 51 94s-2.6-5.5-2.9-7.6a10.3 10.3 0 0 0-1.8-4.4c-.4-.6-4.3-12.2-5.3-14.4a114.8 114.8 0 0 1-4.7-11.8A79.6 79.6 0 0 0 32.8 45c-.8-1.5-3.3-13.2-3.8-14.8s-2-6.7-2.9-7-14.3.6-14.3.6z" fill="none" stroke="#000" stroke-linecap="round" stroke-linejoin="round" stroke-width=".4"/>
  <path d="M54.3 26.4a8.1 8.1 0 0 1 .8 3.3c.2 2.1 0 6.5 0 7.1s.3-.4 1-1.3 1.4-.8 1.3-2.4-.5-1.6 0-2.2.7-.7.7-1.4.9-1.2 1.9-1.3 2.1-.7 2.1-1" fill="#febf10"/>
  <path d="M54.3 26.4a8.1 8.1 0 0 1 .8 3.3c.2 2.1 0 6.5 0 7.1s.3-.4 1-1.3 1.4-.8 1.3-2.4-.5-1.6 0-2.2.7-.7.7-1.4.9-1.2 1.9-1.3 2.1-.7 2.1-1m-43.5.8s-.3.8 1.2 1.2 3.4-.3 4.3.6.8 1.9 1.5 2.7.2 2.2.7 2.7.7.1 1.7 1 1.3 2.4 1.9 3.5a7.1 7.1 0 0 0 1.9 2" fill="none" stroke="#000" stroke-linecap="round" stroke-linejoin="round" stroke-width=".4"/>
  <path d="M16 20.4a3.5 3.5 0 0 0-1.9.2 3.3 3.3 0 0 0-2.1 3.8c.4 1.6 1.5 2.3 3.5 2.6s1.8 1.3 3.5.9 2.3-1.4 3.6-1.4 3.9-.7 4-1.6-.1-1.8-1.3-2.2a12.4 12.4 0 0 1-3-1.2c-.8-.5-3.6-2.8-6.3-1.1z" fill="#febf10"/>
  <path d="M17.1 20.1s3.2 1.4 3.1 2.9a22.3 22.3 0 0 1-1.6 5s2.5-1.2 3.5-1.5 3.6-.5 4.2-1.2.5-2.2-.3-2.4l-3.7-1.4c-.2 0-1.6-1-2-1.2l-2.5-.6z" fill="#d09b07"/>
  <path d="M16 20.4a3.5 3.5 0 0 0-1.9.2 3.3 3.3 0 0 0-2.1 3.8c.4 1.6 1.5 2.3 3.5 2.6s1.8 1.3 3.5.9 2.3-1.4 3.6-1.4 3.9-.7 4-1.6-.1-1.8-1.3-2.2a12.4 12.4 0 0 1-3-1.2c-.8-.5-3.6-2.8-6.3-1.1z" fill="none" stroke="#000" stroke-linecap="round" stroke-linejoin="round" stroke-width=".4"/>
  <path d="M32.6 20.4s-.5 2.4 3.5 3.4 5.7-.1 7.6-.1 3.1-.3 4-1.4 1.4-4.4-1.6-5.4-5.3-1.7-7.7-.9-3.9 2.3-4.7 2.5-1 1.4-1.1 1.9z" fill="#febf10"/>
  <path d="M56.2 27.2a25.7 25.7 0 0 0-.2 4.4c.2.9 2.3-4.2 2.3-4.2zM39.7 15.8s4.6 2.7 1.4 8.2l4.3-.4 1.8-.8 1.2-2.2-.3-2-1.6-1.6-3.5-1.1-2.5-.3z" fill="#d09b07"/>
  <path d="M32.6 20.4s-.5 2.4 3.5 3.4 5.7-.1 7.6-.1 3.1-.3 4-1.4 1.4-4.4-1.6-5.4-5.3-1.7-7.7-.9-3.9 2.3-4.7 2.5-1 1.4-1.1 1.9z" fill="none" stroke="#000" stroke-linecap="round" stroke-linejoin="round" stroke-width=".4"/>
  <path d="M56.3 17.3a4.7 4.7 0 0 1-2 1.5 3.7 3.7 0 0 0-2.3 3.7c0 2 1.6 4.4 5.5 4.8s5-.3 6.4-1.4 2.3-3.5.7-4.7a18.9 18.9 0 0 1-3.5-3.4c-.4-.7-3.1-2-4.8-.5z" fill="#febf10"/>
  <path d="M59.8 17.2s1.6 2.6.4 5a7.8 7.8 0 0 1-6.4 3.7 10.5 10.5 0 0 0 7 1.5 5.3 5.3 0 0 0 4.6-3.6s.2-2-.4-2.3-2.1-1.7-2.7-2.2a7 7 0 0 1-1.3-1.8s-.9-.4-1.2-.3z" fill="#d09b07"/>
  <path d="M56.3 17.3a4.7 4.7 0 0 1-2 1.5 3.7 3.7 0 0 0-2.3 3.7c0 2 1.6 4.4 5.5 4.8s5-.3 6.4-1.4 2.3-3.5.7-4.7a18.9 18.9 0 0 1-3.5-3.4c-.4-.7-3.1-2-4.8-.5zm-31.5 6.9a11.5 11.5 0 0 0-4.2 1.5c-1.5 1-2 1.6-3.6.8s-4.1-1.3-4.2-2.4.7-3.1 2.2-2.8 3.1-.3 4-.1a4.4 4.4 0 0 1 2.4 1.1c.8.9 1.4 1.5.3 1.9" fill="none" stroke="#000" stroke-linecap="round" stroke-linejoin="round" stroke-width=".4"/>
  <path d="M19.5 22.5a3.6 3.6 0 0 0-2.6-.4c-1.6.2-2.4.5-2.3 1.5s.6 1.6 2.2 1.7 2.8-.3 3.2-.7" fill="none" stroke="#000" stroke-linecap="round" stroke-linejoin="round" stroke-width=".4"/>
  <path d="M16.8 22.9a2 2 0 0 1 1.7.1c.8.6.3 1-.3 1.2s-1.9-.2-1.9-.4m21.3-.6s-2.5-.9-2.9-1.5a2 2 0 0 1 1-2.8c1.5-.7 3.2-1.7 4.7-1.7s4.6.1 5.5 1 2.4 2 .9 3.3-2.1 1.3-2.7 1.3" fill="none" stroke="#000" stroke-linecap="round" stroke-linejoin="round" stroke-width=".4"/>
  <path d="M31.2 91.7a59 59 0 0 1-3 7c-1.4 2.5-3.7 9-4.4 10.3s2.6-2.4 4.5-5.8a64.5 64.5 0 0 0 4.5-10.8c.5-2.2 1.3-4.6-1.6-.7z" fill="#febf10"/>
  <path d="M38.1 18.7c-.7.2-3 1.6-2 2.6a7.4 7.4 0 0 0 4.5 1.5 11.6 11.6 0 0 0 3.3-1.1c1-.8 2.4-1.9 1.4-2.5a10.3 10.3 0 0 0-3.4-.8" fill="none" stroke="#000" stroke-linecap="round" stroke-linejoin="round" stroke-width=".4"/>
  <path d="M37.9 20.7a3.1 3.1 0 0 1 2.7-1.5c1.4 0 2.6-.2 2.7.6s-1.2 1.2-2.1 1-.8-.7-.6-.8m22 4.8a5.5 5.5 0 0 1-3.6 1c-2.4-.1-3.5.3-4.5-1.3s-2.1-2.6-.8-3.5 2.5-2 3.8-2.2a4.3 4.3 0 0 1 3.2.6 14.4 14.4 0 0 1 2.4 2.1" fill="none" stroke="#000" stroke-linecap="round" stroke-linejoin="round" stroke-width=".4"/>
  <path d="M55.8 20.9a7.7 7.7 0 0 1 2.3-.7c1.1 0 2.8 1 3.5 1.3s1.7 1.2 1.2 2-2 .8-3.6.8-2.2.5-3.4-.5-1.2-1.8-1.2-1.8" fill="none" stroke="#000" stroke-linecap="round" stroke-linejoin="round" stroke-width=".4"/>
  <path d="M59.3 21.5s-.4-.3-1.9 0-1.3 1.4-.3 1.6 1.9.2 2.1-.3-.6-.9-.9-.7" fill="none" stroke="#000" stroke-linecap="round" stroke-linejoin="round" stroke-width=".4"/>
  <path d="M19.6 34s-.3 2.6.9 3.8 1.5 5.4 2.3 7 4.2 5 5.1 6.7-.8-2.4-1.1-4.7-1.5-7-3-9.1a11.9 11.9 0 0 1-2.7-4.8c-.3-1.2-1.6-2.2-1.5 1.1z" fill="#d09b07"/>
  <path d="M52.2 59.3a7.2 7.2 0 0 1 4.3 3.4A14 14 0 0 0 60 67s-3.5 3.6-7.1-2.5a3.5 3.5 0 0 0-2-1.3" fill="none" stroke="#000" stroke-linecap="round" stroke-linejoin="round" stroke-width=".4"/>
  <path d="M35.1 62.9c-4.4-.1-9.1-1.8-10.2-2.8s-4.5-.7-5.2-.6 3.7-6 7.7-2.5a26.3 26.3 0 0 0 8 1.9c6.2.5 4.4 5.6 4.4 5.8a11.8 11.8 0 0 0-4.7-1.8z" fill="#0065b7"/>
  <path d="M27.9 57.3s.6 3.5-.6 4.2l5.1 1.2s-.4-2.8 1.1-4.1-4.6-.6-5.6-1.3z" fill="#fff" opacity=".5"/>
  <path d="M35.1 62.9c-4.4-.1-9.1-1.8-10.2-2.8s-4.7-.5-5.3-.3 3.8-6.3 7.8-2.8a26.3 26.3 0 0 0 8 1.9c6.2.5 4.4 5.6 4.4 5.8a11.8 11.8 0 0 0-4.7-1.8z" fill="none" stroke="#000" stroke-linecap="round" stroke-linejoin="round" stroke-width=".4"/>
  <path d="M57.3 58.1l-2.6.4a15.9 15.9 0 0 1-4.6-1 15.8 15.8 0 0 0-2.6-1.3c-1.4-.4-4.9.1-4.9.1s2.5-4.3 5.6-3.6a20.2 20.2 0 0 1 3.2 1 12.4 12.4 0 0 0 3.2.8h.6c1.9-.1 5.7-1 6.9 5.4 0-.1-2.8-1.9-4.8-1.8z" fill="red"/>
  <path d="M53.2 54.3s.8 2.5-.7 3.8a7.5 7.5 0 0 0 3.3.2s-.7-3 .2-3.9-2 .4-2.8-.1z" fill="#fff" opacity=".5"/>
  <path d="M57.3 58.1l-2.6.4a15.9 15.9 0 0 1-4.6-1 15.8 15.8 0 0 0-2.6-1.3c-1.4-.4-4.9.1-4.9.1s2.5-4.3 5.6-3.6a20.2 20.2 0 0 1 3.2 1 12.4 12.4 0 0 0 3.2.8h.6c1.9-.1 5.7-1 6.9 5.4 0-.1-2.8-1.9-4.8-1.8z" fill="none" stroke="#000" stroke-linecap="round" stroke-linejoin="round" stroke-width=".4"/>
  <path d="M58 94.2c-2-1.2-5.9-3.4-7.5-2.7s-9.4 1.3-8.2-5.9l1 2.5c1.3.3 4.7.4 5.8-.1 3.3-1.4 9.5 1.6 10.5 2.3l-2.3 1.3z" fill="#0065b7"/>
  <path d="M46 88.4a9.5 9.5 0 0 1 1 3.8l3.1-.6s-.6-3.1 0-3.8-3.5 1.1-4.1.6z" fill="#fff" opacity=".5"/>
  <path d="M58 94.2c-2-1.2-5.9-3.4-7.5-2.7s-9.4 1.1-8.1-6.1l.9 2.6c1.3.4 4.7.5 5.8 0 3.3-1.4 9.5 1.6 10.5 2.3l-2.3 1.3z" fill="none" stroke="#000" stroke-linecap="round" stroke-linejoin="round" stroke-width=".4"/>
  <path d="M27.4 92.7c-2-.5-3.6-3.1-4.4-4.2l2.7-2.3a24 24 0 0 0 2.9 3.4h-2z" fill="#0065b7"/>
  <path d="M27.4 92.7c-2-.5-3.7-3.1-4.5-4.2l2.8-2.3a24 24 0 0 0 2.9 3.4h-2z" fill="none" stroke="#000" stroke-linecap="round" stroke-linejoin="round" stroke-width=".4"/>
  <path d="M33 78.7s-3.1-6.3 8-7.5l1.6-.2c3.3-.5 8.2-3.5 8.2-3.5a9.1 9.1 0 0 1-7.4 7.2l-3 .2c-3.7.4-6.7 1.9-7.4 3.8z" fill="#0065b7"/>
  <path d="M37.9 71.8s1.6.7 1.6 3.2l3.1-.2 2-.5s-.3-2.7-1.8-3.3l-2.8.4z" fill="#fff" opacity=".5"/>
  <path d="M33 78.7s-3.1-6.3 8-7.5l1.6-.2c3.3-.5 8.2-3.5 8.2-3.5a9.1 9.1 0 0 1-7.4 7.2l-3 .2c-3.7.4-6.7 1.9-7.4 3.8z" fill="none" stroke="#000" stroke-linecap="round" stroke-linejoin="round" stroke-width=".4"/>
  <path d="M37.5 87.9c-1.7 0-4.5-1.7-6.7-3.1s-7.9 3.7-7.9 3.7c1-4.9 2-5.2 3.2-6.2s3.7-1.9 7.4.5a9.9 9.9 0 0 0 5.9 1.3l.7-1.5c-.1 0 2.2 5.5-2.6 5.3z" fill="red"/>
  <path d="M28.1 81.3a4.2 4.2 0 0 0 0 3.7s2-.9 2.7-.3a4.7 4.7 0 0 1 .7-3s-2.6-.7-3.4-.4z" fill="#fff" opacity=".5"/>
  <path d="M37.5 87.9c-1.7 0-4.5-1.7-6.7-3.1s-8 3.6-8 3.6c.7-4.4 1.7-5.1 3.1-6.1a7.1 7.1 0 0 1 7.6.5 9.1 9.1 0 0 0 5.6 1.3l.9-1.7c-.1 0 2.3 5.7-2.5 5.5z" fill="none" stroke="#000" stroke-linecap="round" stroke-linejoin="round" stroke-width=".4"/>
  <path d="M38.1 124.4s3.1-1.2 3.6-2 1.4-2.7.6-3.2-3.8 1.8-4.1 2.5-1.3 2.5-.1 2.7z" fill="#d09b07" stroke="#000" stroke-linecap="round" stroke-linejoin="round" stroke-width=".4"/>
  <path d="M56.6 119s3.2.1 4.2.7a6.9 6.9 0 0 1 2.4 3.1c.3 1.2-.8 1.1-1.6.8a35 35 0 0 1-4.3-2.6c-.5-.5-1.4-1-.7-2z" fill="#980805" stroke="#000" stroke-linecap="round" stroke-linejoin="round" stroke-width=".4"/>
  <path d="M41.1 120.7s-.8-.1-1.8 1-1.3 1.8.6.6m17.9-2.2a12.2 12.2 0 0 1 3.4.8c.6.5 1.5 2.5.6 2a6.3 6.3 0 0 1-1.8-1.5" fill="none" stroke="#000" stroke-linecap="round" stroke-linejoin="round" stroke-width=".4"/>
  <path d="M26.8 42.1l2.5 7.5c.9 2.5 2 7.3 2 7.3a51.9 51.9 0 0 1-3.3-5.3c-1.1-2.3-1.8-7.7-2.2-9l-1-3.3a17.3 17.3 0 0 1 2 2.8zm12.5 49.7a72.5 72.5 0 0 0-1.2 7.6c0 1.8.5 4.6.5 6.3s-.4 5.5.2 5.5.5-5.4.7-7.4a55.3 55.3 0 0 0 .4-6.9c0-1.8.2-4.7.1-5.9s-.7.8-.7.8zm2.6-54.4c-.2 2 .5 5.4.4 8.1s-1.1 9.7-2 10.2 0-4.3.1-6.1-1.1-7.1-.8-9.3a29.9 29.9 0 0 1 2.1-6.9c.5-1.1.6.6.2 4zm5.6 21a15.9 15.9 0 0 0-2.3 4.2c-.7 2-2.3 4.4-1.4 4.1s1.5-2.4 2.5-4 2-2.9 2-3.8-.4-1.1-.8-.5z" fill="#980805"/>
  <path fill="none" stroke="#000" stroke-linecap="round" stroke-linejoin="round" stroke-width=".4" d="M8 7.9h62v124.31H8z"/>
</svg>
