<svg xmlns="http://www.w3.org/2000/svg" viewBox="0 0 78 140">
  <rect width="78" height="140" rx="6" ry="6" fill="#fff"/>
  <path d="M41.1 127.3s2.9-10.7 3.7-15.2.6-3.9 1.9-9.4 2-16.6 3.6-20.9 3.3-10.3 7.9-8.4 9.4 6.4 8.1 11.4-5.4 12.4-5.9 15.5-4.5 7.5-5.2 8.8-4.7 8.9-5.9 12a35 35 0 0 1-2.9 6.6c-.5.9-3.1 1.9-5.3-.4z" fill="#325723"/>
  <path d="M44.4 128.7c.9-.4 1.7-.5 2-1a35 35 0 0 0 2.9-6.6c1.2-3.1 5.1-10.7 5.9-12s4.7-5.8 5.2-8.8 4.5-10.4 5.9-15.5a7 7 0 0 0-.8-5.3s.6 1.7-1.8 7.3a98.9 98.9 0 0 0-4.8 12.7c-.3 1.6-.7 5-2.3 6s-4.7 6.1-5.4 8.4-3.8 10.9-5.1 12-2.5 3.2-1.7 2.8zm12.2-55.6c-3.4-.1-4.8 5-6.3 8.7s-2.3 15.3-3.6 20.9-1 5-1.9 9.4-3.7 15.2-3.7 15.2l.9.8s1.7-.6 3-6.2 3.8-9.1 3.9-11.9.9-7.2 2.3-9 3.5-4.4 3.2-5.2-1 .9-2 .5-.9-3.9.2-5.6.9-2.8 1.6-5.5 1.7-2.7 1.6-4.9a65.1 65.1 0 0 1 .8-7.2z" fill="#0d3a12"/>
  <path d="M41.1 127.3s2.9-10.7 3.7-15.2.6-3.9 1.9-9.4 2-16.6 3.6-20.9 3.3-10.3 7.9-8.4 9.4 6.4 8.1 11.4-5.4 12.4-5.9 15.5-4.5 7.5-5.2 8.8-4.7 8.9-5.9 12a35 35 0 0 1-2.9 6.6c-.5.9-3.1 1.9-5.3-.4z" fill="none" stroke="#000" stroke-linecap="round" stroke-linejoin="round" stroke-width=".4"/>
  <path d="M41.1 127.3a5.7 5.7 0 0 1 3.1-1c1.3.1 2.7 1.4 1.8 2.1s-4.6.7-4.9-1.1zm15.3-20.7a9.5 9.5 0 0 1 1.1-3.6c.8-1.1 2.7-2.1 3.1-1.7s-.3 2.9-1.2 4a5.5 5.5 0 0 1-1.8 1.7c-.6.4-1.3.9-1.2-.4z" fill="#980805" stroke="#000" stroke-linecap="round" stroke-linejoin="round" stroke-width=".4"/>
  <path d="M55.2 94.8a9.2 9.2 0 0 0 1.7-3.4c.6-1.9.3-3.5 1-3.2s.6.2 1.3-1 .3-1.9 1-2.6 1.3-.2 1.5-1-2.4-3.5-3.1-3.2-1.6.4-1.4 1.8-.4 1.3 0 2.5.6 1.3-.2 2.2-1.3.6-1.1 2-1 4.7-1.1 5.4.1 1.1.4.5zm-.6 7.2a9.7 9.7 0 0 1 .5-2.1c.4-1.2 1.6-1.7 2-2.8s1.4-1.4.6.3-1.4 1.9-1.7 2.9-1.1 2.7-1.4 1.7z" fill="#d09b07"/>
  <path d="M66.4 80s1 2.3-2.4 2-4.9-.6-5.3-2.1-.4-1.8-1.9-2.8S54 74.2 56 73s9.7 3.8 10.4 7z" fill="#980805" stroke="#000" stroke-linecap="round" stroke-linejoin="round" stroke-width=".4"/>
  <path d="M57.1 74.3s-1.4-.2-.7.8 1.3.3 2.1 1.5.9 2.6 2 3.3 3.1 1.7 3.7 1 .8-1.4-.6-2.4-1.6-1.6-2.6-2.3a6.1 6.1 0 0 0-2.4-1" fill="none" stroke="#000" stroke-linecap="round" stroke-linejoin="round" stroke-width=".4"/>
  <path d="M60.8 78.9a2.1 2.1 0 0 0-.5-1.7c-.6-.7-.8-1.4 1.3.5s1.6 2.8.9 2.1" fill="none" stroke="#000" stroke-linecap="round" stroke-linejoin="round" stroke-width=".4"/>
  <path d="M25.1 73.3s3.2 8.4 3.5 13.6 1 8 1.7 9.2 1.4 2.8 1.5 7.6c0 0 .3 6.4.8 9.2s2.1 11.7 1.9 13-3.3 3.4-4.2 2-3.4-9.2-4.4-11.3-4.3-12-5.2-13.5-3.8-6.3-3.9-8.9-1.5-5.4-2.5-7.9-1.8-4.2-1.5-5.7 8.3-9 12.3-7.3z" fill="#325723"/>
  <path d="M17.1 76.1c-1.7 2.6-4.2 3.9-4.3 4.5s.6 3.2 1.5 5.7 2.3 5.2 2.5 7.9 3 7.4 3.9 8.9 4.2 11.4 5.2 13.5 3.4 9.9 4.4 11.3 1.4 1.1 1.7.3a7.4 7.4 0 0 0-.5-4.2c-.8-1.2-4-6.7-4.1-9.6s-3.5-12.3-4.4-13.2-4.4-4.4-4.2-6.8 1.7-.9 2.3-2.3-2.7-10.7-3-12.2-.5-4.5-1-3.8z" fill="#0d3a12"/>
  <path d="M13.5 83.8s2.6-.5 3.3 1.1a4.8 4.8 0 0 0 1.6 2.6c.7.6 0 1 .4 2.9s.5 3.6.9 4.7.3 2.5-.3 2.1-.6-1.8-1.1-3.5a4.1 4.1 0 0 0-1.3-2.5 8 8 0 0 1-1.6-2.3" fill="#980805"/>
  <path d="M33.9 126.9c.4.3.5-.7.6-1s-1.4-10.3-1.9-13-.8-9.2-.8-9.2c-.1-4.8-.8-6.3-1.5-7.6s-1.5-4.1-1.7-9.2-3.5-13.6-3.5-13.6a4.7 4.7 0 0 0-3.1.1s-.2 0 1.2 3 4.1 8.7 4 11.2 3.2 10.4 3 12.8 1.1 10.5 1.2 12.2 1.7 8.8 1.8 10.1.2 3.9.7 4.2z" fill="#0d3a12"/>
  <path d="M25.1 73.3s3.2 8.4 3.5 13.6 1 8 1.7 9.2 1.4 2.8 1.5 7.6c0 0 .3 6.4.8 9.2s2.1 11.7 1.9 13-3.3 3.4-4.2 2-3.4-9.2-4.4-11.3-4.3-12-5.2-13.5-3.8-6.3-3.9-8.9-1.5-5.4-2.5-7.9-1.8-4.2-1.5-5.7 8.3-9 12.3-7.3z" fill="none" stroke="#000" stroke-linecap="round" stroke-linejoin="round" stroke-width=".4"/>
  <path d="M34.5 125.3a3.8 3.8 0 0 0-3 .9c-.9.9-1.3.8-1.2 1.7s2.4 1 3.3-.1a2.4 2.4 0 0 0 .9-2.5z" fill="#980805" stroke="#000" stroke-linecap="round" stroke-linejoin="round" stroke-width=".4"/>
  <path d="M21.6 87.5a2.7 2.7 0 0 0-.7 2.5c.3 1.9.2 2.6.4 4.4a39.2 39.2 0 0 1 .6 4c0 1.4.6 2.4 0 2s-1.1-2.1-1.8-4.1-1.1-3.4-1.6-4.7-.9-2 0-2.7.9-1.1 1.5-1.6 1.1-1.3 1.6.2zm5.1 20.9a10.9 10.9 0 0 0 .8 2 32.7 32.7 0 0 1 1.7 4.1c.4 1 1.3 2.2.4 2.7s-1 .3-1.6-2-.6-2.8-1.4-4.3-1.6-1.8-1-2.8 1.1.3 1.1.3z" fill="#d09b07"/>
  <path d="M23.8 71.7c.2.1 1.7.5 1.6 3.4s-3.7 5-4.9 6.5-4.6 1.3-5.6.7-3.4-.7-1.7-3.8 3.9-5.9 6.2-6.4 3.5-.9 4.4-.4z" fill="#febf10" stroke="#000" stroke-linecap="round" stroke-linejoin="round" stroke-width=".4"/>
  <path d="M20.2 73.1s2.2-1.1 3.3.4-.4 3.6-1.5 5a10.5 10.5 0 0 1-3.3 2.7" fill="none" stroke="#000" stroke-linecap="round" stroke-linejoin="round" stroke-width=".4"/>
  <path d="M21 78.4s1.6-1.5 1.5-2.8-.1-2-1.2-1.5a15.8 15.8 0 0 1-3.1 1 4.1 4.1 0 0 0-1.9 2.3c-.5 1.1-2 1.2-1.3 2.2s.9.8 1.5 1.4a1.2 1.2 0 0 0 1.1.6" fill="none" stroke="#000" stroke-linecap="round" stroke-linejoin="round" stroke-width=".4"/>
  <path d="M19.5 76.1c.9-.1 2 .1 1 1.6s-1.1 2.5-2.2 2.7-2.6-.3-1.9-1.2 1.4-.5 2.2-1.2" fill="none" stroke="#000" stroke-linecap="round" stroke-linejoin="round" stroke-width=".4"/>
  <path d="M42.9 59.5c.5-1.7 1.2-6.8 1.9-9.5s2.5-6.4 2.5-7.9-1-2.3-.6-4.8 1.7-13.1 2.2-15.7 2.4-8.9 4.8-9.8 9.8 3.7 10.5 7.4-.6 7.2-2.1 12.1-1.6 5.3-1.9 6.7-4.3 7.7-6.4 11.8-4.2 10.4-5.2 12.8-1.4 4.9-2.4 4.7-3.5-1.7-3.9-2.9.6-4.9.6-4.9z" fill="#325723"/>
  <path d="M45.1 66.9a3 3 0 0 0 1.1.4c1 .2 1.3-2.3 2.4-4.7s3-8.7 5.2-12.8 6.1-10.3 6.4-11.8.4-1.7 1.9-6.7 3.7-8.1 3-11.9l-1-.6s-1.3.4-1.8 3.6-1.7 10.3-2.9 12.7-.2 2.4-.5 3.7a11 11 0 0 1-2.2 4.3c-1 .8-5.7 7.5-6.5 10.3s-2.5 9-3.6 10.3a6.9 6.9 0 0 0-1.5 3.2zm10.1-55.1a1.9 1.9 0 0 0-1.5 0c-2.4.9-4.2 7.2-4.8 9.8s-1.8 13.3-2.2 15.7.5 3.3.6 4.8-1.7 5.2-2.5 7.9-1.4 7.8-1.9 9.5c0 0-1 3.8-.6 4.9a2.4 2.4 0 0 0 .6.9s1.3.5 1.3-1.9 3.6-11 4-13.6 4.5-10.2 4.8-13.7-.8-5.8-.3-9.9.7-4.7 1.8-6.9 2.2-6.9.7-7.5z" fill="#0d3a12"/>
  <path d="M42.9 59.5c.5-1.7 1.2-6.8 1.9-9.5s2.5-6.4 2.5-7.9-1-2.3-.6-4.8 1.7-13.1 2.2-15.7 2.4-8.9 4.8-9.8 10.7 3.7 11.4 7.5-1.5 7.1-3 12-1.6 5.3-1.9 6.7-4.3 7.7-6.4 11.8-4.2 10.4-5.2 12.8-1.4 4.9-2.4 4.7-3.5-1.7-3.9-2.9.6-4.9.6-4.9z" fill="none" stroke="#000" stroke-linecap="round" stroke-linejoin="round" stroke-width=".4"/>
  <path d="M56.7 44.6a8.2 8.2 0 0 1 .6-3.1c.8-2 2.9-4.6 3.6-4s-.6 4.1-1.4 5.2-2.4 2.9-2.8 1.9z" fill="#febf10" stroke="#000" stroke-linecap="round" stroke-linejoin="round" stroke-width=".4"/>
  <path d="M47.3 55.5a24.3 24.3 0 0 0 1-2.9 36.6 36.6 0 0 1 1.6-5c.7-1.5.9-3.8 1.4-4.3s1.8-1.2 1 1.4-1.8 2.9-2.2 4.9-.6 4.5-.9 6-.8 2.7-1.5 2.3-.7-1.4-.4-2.4zm12.4-34.8a13.6 13.6 0 0 0-1 4.4c-.3 2.6.3 4.1-1.4 5.5s-2.7 2.7-3.1.7-.1-3.1.2-5.3.1-4.4.8-5.6 1.2-2.4 2.2-2.5 2.3 2.8 2.3 2.8z" fill="#d09b07"/>
  <path d="M64.6 19.9a6.3 6.3 0 0 0-2.7-.1c-2 .1-2.5 1-3.9-.2s-1.3-3-2.6-4.3-3-1.9-1.7-3.5 4.9 0 7.1 1.7 6.3 6.1 3.8 6.4z" fill="#980805" stroke="#000" stroke-linecap="round" stroke-linejoin="round" stroke-width=".4"/>
  <path d="M62.7 17.9c-.3.8.2 1-1.5.7s-1.3-.1-2.6-1.3-1.9-2.4-2.6-3.1-1.5-1.7-.5-1.5 1.7 1 2.5 1.1" fill="none" stroke="#000" stroke-linecap="round" stroke-linejoin="round" stroke-width=".4"/>
  <path d="M61.5 17.2c-.7.3-.7 1-1.6 0a12.3 12.3 0 0 0-2-2c-.6-.5-.5-.9.4-.6a4.4 4.4 0 0 1 2.2.7c.8.6.8 2.1.1 1.4" fill="none" stroke="#000" stroke-linecap="round" stroke-linejoin="round" stroke-width=".4"/>
  <path d="M11.7 16.4s.6 2.3 1.2 4.9a17.8 17.8 0 0 0 3.2 7 60.6 60.6 0 0 1 5.3 11.8c.4 2.2 3.9 10.7 4.8 13.3s4.3 11 5 11.8 4.5 2.5 4.5-.2-1.2-9.2-1.5-11.2-2.5-13.1-2.6-15.5-.8-3.1.2-3.4 2.3-.5 1.8-2.3-1.4-4.2-2.5-4.6-1.4-.8-1.7-1.4-1-5.5-1.3-6.3-.4-6-4.3-6.6-7.3-1.1-9.5.1-2.5 1.7-2.6 2.6z" fill="#325723"/>
  <path d="M20.4 13.2l3.4.5c3.9.6 4.1 5.7 4.3 6.6s.9 5.8 1.3 6.3.6.9 1.7 1.4 2 2.8 2.5 4.6-.8 2.1-1.8 2.3-.4.9-.2 3.4 2.4 13.5 2.6 15.5 1.5 8.5 1.5 11.2a1.5 1.5 0 0 1-.6 1.3 5.7 5.7 0 0 1-2.5-4.1c-.2-2.8-1.4-6.3-2.9-12.2S25.3 32.6 24 30s-2.6-7.3-3.3-9.2-2.2-7.8-.3-7.6zm11.4 52.5c-.3.1-.5-.3-.6-.5s-4.2-9.1-5-11.8-4.4-11.1-4.8-13.3a60.6 60.6 0 0 0-5.3-11.8 17.8 17.8 0 0 1-3.2-7c-.6-2.6-1.2-4.9-1.2-4.9s.4-1.3 2.2-2.3a37.7 37.7 0 0 0 .9 4.3c.6 2.8 1.7 8 2.7 9.3s5.2 5.7 5.6 10.1 2.7 9.7 3.3 11.9 2.8 9.9 3.7 11.1 2.5 4.8 1.7 4.9z" fill="#0d3a12"/>
  <path d="M11.7 16.4s.6 2.3 1.2 4.9a17.8 17.8 0 0 0 3.2 7 60.6 60.6 0 0 1 5.3 11.8c.4 2.2 3.9 10.7 4.8 13.3s4.3 11 5 11.8 4.5 2.5 4.5-.2-1.2-9.2-1.5-11.2-2.5-13.1-2.6-15.5-.8-3.1.2-3.4 2.3-.5 1.8-2.3-1.4-4.2-2.5-4.6-1.4-.8-1.7-1.4-1-5.5-1.3-6.3-.4-6-4.3-6.6-7.3-1.1-9.5.1-2.9 1-2.6 2.6z" fill="none" stroke="#000" stroke-linecap="round" stroke-linejoin="round" stroke-width=".4"/>
  <path d="M19.9 36.9a5.1 5.1 0 0 0 .2 3.2c.6 1.5 2.3 1.8 2.4.5a6.7 6.7 0 0 0-1.4-3.9.9.9 0 0 0-1.2.2z" fill="#980805" stroke="#000" stroke-linecap="round" stroke-linejoin="round" stroke-width=".4"/>
  <path d="M31.3 28.3a11.6 11.6 0 0 0 .4 3.5c.6 1.6 1.4 2.7 1.7 2.6s1-.6.1-2.8-1.7-4.3-2.2-3.3z" fill="#febf10" stroke="#000" stroke-linecap="round" stroke-linejoin="round" stroke-width=".4"/>
  <path d="M35.7 65.5c-.2-.8-.8-.9-2.4-1.3s-2.7-.4-2.7.3 1.3 1.9 2.6 2.2 2.9.5 2.5-1.2z" fill="#980805" stroke="#000" stroke-linecap="round" stroke-linejoin="round" stroke-width=".4"/>
  <path d="M22.5 24.3c-.2.4-.5 1.5-1.1.9s-1.2-.2-.9.9.6 1.4 1.7 2.9a11.6 11.6 0 0 1 1.9 4.7 11.5 11.5 0 0 0 1.5 3.3 21.8 21.8 0 0 1 1.4 4.8c.2.9.4 3.2.9 3.9s1.1 1.9 1.1.3-1.2-5.5-1.6-7-.3-2.7.1-2a10.2 10.2 0 0 1 .9 2.5c.4 1.1 1.5 1 .8-.8s-1.8-5.8-2.1-6.9-1-2.8-1.4-2.3 0 3-.6 2-.6-4-1.1-5.5-1.1-2.6-1.5-1.7z" fill="#d09b07"/>
  <path d="M11.5 14.6s-.3.7 1.3 2.3a6.9 6.9 0 0 0 5.6 2.3c2.7-.1 4.7-.3 5.1-1.2s.1-1.3.8-1.4 1.6-.3 1.6-1.4-.6-1.7-2.6-2.6-1.9-.8-4.1-.9-2.4-.4-4.1.5-3.4.8-3.6 2.4z" fill="#febf10" stroke="#000" stroke-linecap="round" stroke-linejoin="round" stroke-width=".4"/>
  <path d="M24.3 15a4.1 4.1 0 0 0-2.5-2c-1.6-.2-2.6-.5-4.1 0s-3.5.5-3.8 1.5.2 1.4.9 2.3 1.7 1.3 3.8 1.2 4.4-.9 4.4-1.2" fill="none" stroke="#000" stroke-linecap="round" stroke-linejoin="round" stroke-width=".4"/>
  <path d="M16.1 14.6a12.8 12.8 0 0 1 3.5-.6c1.1.1 2.1-.2 2.7.5s.1 1.7-1.2 1.9-1.9-.2-3.1 0a5.4 5.4 0 0 1-2.2-.3" fill="none" stroke="#000" stroke-linecap="round" stroke-linejoin="round" stroke-width=".4"/>
  <path d="M20.2 14.8a7.8 7.8 0 0 0-2.8.3c-.6.4 0 .1 1.2.4s2.2.5 2.2.1" fill="none" stroke="#000" stroke-linecap="round" stroke-linejoin="round" stroke-width=".4"/>
  <path fill="none" stroke="#000" stroke-linecap="round" stroke-linejoin="round" stroke-width=".4" d="M8 7.9h62v124.31H8z"/>
</svg>
