<svg xmlns="http://www.w3.org/2000/svg" viewBox="0 0 78 140">
  <rect width="78" height="140" rx="6" ry="6" fill="#fff"/>
  <path d="M28.3 128.9s-3-8.6-4.5-12-1.5-3-3.2-7.3-6.6-12.2-7.4-15.9-2.5-8.6 2.4-9.6 11.2-.5 12.6 3.5S29.9 98.7 31 101s0 7.3 0 8.6.6 8.3 1.2 11a31.7 31.7 0 0 1 .8 5.9c0 .9-1.7 2.9-4.7 2.4z" fill="#325723"/>
  <path d="M31.8 128.2c.6-.7 1.2-1.2 1.2-1.7a31.7 31.7 0 0 0-.8-5.9c-.6-2.7-1.1-9.7-1.2-11s1.1-6.3 0-8.6-1.4-9.3-2.8-13.4a6 6 0 0 0-3.4-3.2s1.5.9 2.2 5.9a65.1 65.1 0 0 0 2.4 10.9c.4 1.3 1.9 3.8 1 5.2s-.9 6.6-.3 8.5 2.3 9.2 1.7 10.5-.5 3.5 0 2.8zM14.1 84.6c-3 1.7-1.6 5.9-.9 9.1s5.7 11.5 7.4 15.9 1.7 3.9 3.2 7.3 4.5 12 4.5 12h1.2s1.1-1.2-.6-5.7-1.4-8-2.7-10-2.9-5.2-2.6-7.2.7-4.7 0-5-.3 1.1-1.4 1.3-2.7-2.2-2.6-3.9-.6-2.2-1.5-4.4.1-2.6-1-4.1a38.3 38.3 0 0 1-3-5.3z" fill="#0d3a12"/>
  <path d="M28.3 128.9s-3-8.6-4.5-12-1.5-3-3.2-7.3-6.6-12.2-7.4-15.9-2.5-8.6 2.4-9.6 11.2-.5 12.6 3.5S29.9 98.7 31 101s0 7.3 0 8.6.6 8.3 1.2 11a31.7 31.7 0 0 1 .8 5.9c0 .9-1.7 2.9-4.7 2.4z" fill="none" stroke="#000" stroke-linecap="round" stroke-linejoin="round" stroke-width=".4"/>
  <path d="M28.3 129a5.5 5.5 0 0 1 2.1-2.3c1.2-.6 3-.5 2.6.5s-3.6 2.8-4.7 1.8z" fill="#980805" stroke="#000" stroke-linecap="round" stroke-linejoin="round" stroke-width=".4"/>
  <path d="M30.8 107.3a6.2 6.2 0 0 1-.9-3c.1-1.1 1.2-2.8 1.8-2.8s1.2 2.2 1 3.3a4.3 4.3 0 0 1-.7 2.1c-.3.6-.6 1.3-1.2.4z" fill="#febf10" stroke="#000" stroke-linecap="round" stroke-linejoin="round" stroke-width=".4"/>
  <path d="M23.9 100a8.5 8.5 0 0 0-.3-3.2c-.5-1.6-1.5-2.5-.8-2.7s.6-.1.6-1.3-.7-1.4-.4-2.2.9-.8.7-1.4-3.8-1.2-4.2-.6-1.2 1-.3 1.9.3 1 1.2 1.6 1.2.7.9 1.7-.7 1 .2 1.8 1.5 3.7 1.8 4.2.6.7.6.2zm3.1 5.1a4.8 4.8 0 0 1-.7-1.7c-.2-1 .5-1.9.4-2.9s.4-1.6.6-.1-.2 2 0 2.9.4 2.3-.3 1.8z" fill="#d09b07"/>
  <path d="M26 84.9s2.1 1.3-.8 2.9-4.5 2.2-5.6 1.2a3.6 3.6 0 0 0-3.2-1.2c-1.8-.1-3.9-.8-2.8-2.9s10.1-2.2 12.4 0z" fill="#980805" stroke="#000" stroke-linecap="round" stroke-linejoin="round" stroke-width=".4"/>
  <path d="M15.2 85.4s-1.3.6-.2 1 1.2-.5 2.6.1S19.8 88 21 88s3.5-.3 3.7-1.2-.1-1.6-1.8-1.6-2.2-.4-3.4-.5a5.9 5.9 0 0 0-2.6.7" fill="none" stroke="#000" stroke-linecap="round" stroke-linejoin="round" stroke-width=".4"/>
  <path d="M20.8 87a2 2 0 0 0-1.3-1c-1-.3-1.6-.7 1.3-.4s2.8 1.4 1.9 1.3" fill="none" stroke="#000" stroke-linecap="round" stroke-linejoin="round" stroke-width=".4"/>
  <path d="M44.1 127a30.9 30.9 0 0 1 1.4-7.2c1.2-2.9 2.4-10.3 2.5-11.9s1.5-11.3 2.2-14.8.9-6.4 4.1-7.7 12.6 1.2 11 5.8a76.6 76.6 0 0 1-7 14.6c-1.8 2.8-7.1 14.8-8.2 17.5s-1.8 5.8-3.7 5.8a2 2 0 0 1-2.3-2.1z" fill="#325723"/>
  <path d="M46.4 129.1c1.9-.2 2.7-3.2 3.7-5.8s6.4-14.7 8.2-17.5a54.2 54.2 0 0 0 3.5-6.4 2.3 2.3 0 0 0-2.1 1.6 36.1 36.1 0 0 1-4.2 7c-1.4 1.7-3.7 7.4-4.3 9.1s-3.3 6.3-3.8 7.9-2.1 4.2-1 4.1zm12.1-43.9c-1-1.4-3.3-.2-4.2.2-3.2 1.3-3.5 4.3-4.1 7.7s-2 13.2-2.2 14.8-1.3 9-2.5 11.9a30.9 30.9 0 0 0-1.4 7.2 2.6 2.6 0 0 0 .7 1.6 15.1 15.1 0 0 0 1.4-3.3c.5-1.9 4.2-13.8 4.8-15.5a42.4 42.4 0 0 0 1.3-10.1c-.2-1.7.4-7.6 1.6-7.3s6-5.1 4.6-7.2z" fill="#0d3a12"/>
  <path d="M44.1 127a30.9 30.9 0 0 1 1.4-7.2c1.2-2.9 2.4-10.3 2.5-11.9s1.5-11.3 2.2-14.8.9-6.4 4.1-7.7 12.6 1.2 11 5.8a76.6 76.6 0 0 1-7 14.6c-1.8 2.8-7.1 14.8-8.2 17.5s-1.8 5.8-3.7 5.8a2 2 0 0 1-2.3-2.1z" fill="none" stroke="#000" stroke-linecap="round" stroke-linejoin="round" stroke-width=".4"/>
  <path d="M47.6 106.6a3.6 3.6 0 0 1-.4-2.1c.3-1 .5-2.6 1.1-2.7s1.1 1.2.9 2.2a16.8 16.8 0 0 1-.9 2.7c-.3.4-.5.2-.7-.1z" fill="#980805" stroke="#000" stroke-linecap="round" stroke-linejoin="round" stroke-width=".4"/>
  <path d="M56 91.6a5 5 0 0 0-.4 2c-.1 1.4.6 2.4.4 3.6s-1.2 1.6-.9 2.5a20.1 20.1 0 0 1 0 4.9c-.2 1.1.5 2 1 1.2s-.3-1.2 1-2.3 2.1-1 2.5-2.2 1.4-2.4.5-2.6-1.5.1-2.1 1.5-1.3 2.7-1.6 1.9a3.8 3.8 0 0 1 .7-3.3 7.4 7.4 0 0 0 1-4.2c0-1.1 1.1-2.2.6-3a1.5 1.5 0 0 0-2.7 0z" fill="#d09b07"/>
  <path d="M55 91.4c-.4-.4-2.4-1.3-3-2.2s-.2-2.3 1.2-3.7a8.5 8.5 0 0 1 6.7-1.9c1.9.5 4.8 2.2 5.4 4.2s.8 2.8-.9 3.3-3 1.3-4.7 1.2-4.3-.5-4.7-.9z" fill="#980805" stroke="#000" stroke-linecap="round" stroke-linejoin="round" stroke-width=".4"/>
  <path d="M63.4 90a20.4 20.4 0 0 0-2.7.6c-1.3.3-3.9.9-4.8-.1a13.7 13.7 0 0 0-2.1-2.1c-.9-.6-1-1.6.1-1.8s.9-.3 1.8-1a3.4 3.4 0 0 1 3.5-.8c2.1.5 3.2.8 3.8 1.7s1.5 1.5.8 2" fill="none" stroke="#000" stroke-linecap="round" stroke-linejoin="round" stroke-width=".4"/>
  <path d="M61.3 89.4s2.1-.7 1-1.6-1.9-1.7-3.5-1.5-2.2-.1-3.1.6-.2 1 .5 1.8a3.4 3.4 0 0 0 2.4 1.3" fill="none" stroke="#000" stroke-linecap="round" stroke-linejoin="round" stroke-width=".4"/>
  <path d="M57.3 88c.6.4.8 1.1 1.8 1.1s2.9-.1 1.4-1a2.9 2.9 0 0 0-2.5-.6" fill="none" stroke="#000" stroke-linecap="round" stroke-linejoin="round" stroke-width=".4"/>
  <path d="M51.3 56a25.4 25.4 0 0 1-2.6-8c-.5-3.9-1.8-5.2-1.9-7s.8-1.5.5-3.1-.8-5.2-1.6-6.3a5.1 5.1 0 0 1-1.3-4c.2-1.8-1-4.9-1.2-6.8s-1.5-5.1-1.6-6.8 1.1-3.7 3-2 6.3 13.2 7.5 15.4a13.2 13.2 0 0 0 3.3 4.2c1.1.8 1.7 2.9 2 4.5s2 4.2 2.7 5.5 3.1 5.2 3.1 7-8.8 8.9-11.9 7.4z" fill="#325723"/>
  <path d="M59.7 52.7a5 5 0 0 0 3.5-4.1c0-1.8-2.4-5.7-3.1-7s-2.5-3.8-2.7-5.5-.9-3.7-2-4.5a13.2 13.2 0 0 1-3.3-4.2c-1.2-2.2-5.6-13.6-7.5-15.4a2 2 0 0 0-.9-.5s-.5-.3 1.5 4.1 3.6 7.8 4.3 10.6 3.7 9.3 4.1 11.7 3.2 15.5 6.1 14.8zM41.8 13c-.2.2-.2.7-.2 1s1.3 4.8 1.6 6.8 1.4 5 1.2 6.8a5.1 5.1 0 0 0 1.3 4c.8 1.1 1.4 4.8 1.6 6.3s-.7 1.3-.5 3.1 1.4 3.1 1.9 7c0 0 .9 1 .8-.6s-1.7-9.2-1.5-11.1-2.6-7.7-2.4-9.2-.5-7.2-1.2-8.9-2.2-5.9-2.6-5.2z" fill="#0d3a12"/>
  <path d="M51.3 56a25.4 25.4 0 0 1-2.6-8c-.5-3.9-1.8-5.2-1.9-7s.8-1.5.5-3.1-.8-5.2-1.6-6.3a5.1 5.1 0 0 1-1.3-4c.2-1.8-1-4.9-1.2-6.8s-1.5-5.1-1.6-6.8 1.1-3.7 3-2 6.3 13.2 7.5 15.4a13.2 13.2 0 0 0 3.3 4.2c1.1.8 1.7 2.9 2 4.5s2 4.2 2.7 5.5 3.1 5.2 3.1 7-8.8 8.9-11.9 7.4z" fill="none" stroke="#000" stroke-linecap="round" stroke-linejoin="round" stroke-width=".4"/>
  <path d="M54.7 49.1a13.9 13.9 0 0 0-2-2.8c-.9-.7-1.3-2.5-1.6-3.2s-.6-1.4-1.1-1.4.2 2.6.4 3.8.7 2.1.1 1.6-1.2-.9-.9.6.8 5.1 1.7 5.7m-2.9-25.7v-.2a6.4 6.4 0 0 0-.5-1.6c-.4-1.2-.9-1.7-.9-2.5s.4-1.5 1 0 .1 1.4.9 2.8 1.4 2.3.8 2.5-1.3-1-1.3-1z" fill="#d09b07"/>
  <path d="M56.6 58.1l-3.3-1c-1.5-.4-3.2-.6-2-3.7s4.7-5.4 6.3-5.3 4-1.2 5-.3a4.1 4.1 0 0 1 .7 4.7c-.8 2-1.4 3.4-2.9 4.1s-3.1 1.6-3.8 1.5z" fill="#980805" stroke="#000" stroke-linecap="round" stroke-linejoin="round" stroke-width=".4"/>
  <path d="M61.2 49.4a4.6 4.6 0 0 0-3 .1c-1.9.5-1.6.5-3.2 2s-2.4 1.7-2.3 2.8.5 2 1.9 1.8 1.3.2 2.6 0a3.5 3.5 0 0 0 2.4-1 6.8 6.8 0 0 0 1.9-2.3" fill="none" stroke="#000" stroke-linecap="round" stroke-linejoin="round" stroke-width=".4"/>
  <path d="M54.4 55c.9-.2 2.2.3 3.4-.3a7 7 0 0 0 2.6-1.9c.8-.8 2-1.5 1-2s-1.4-1.4-2.7-.2a12.9 12.9 0 0 1-2.7 1.8" fill="none" stroke="#000" stroke-linecap="round" stroke-linejoin="round" stroke-width=".4"/>
  <path d="M59.1 52.6s-1.9 1.6-2.7 1.5-2.2.1-1.4-.5 1.9-.3 2.5-.9" fill="none" stroke="#000" stroke-linecap="round" stroke-linejoin="round" stroke-width=".4"/>
  <path d="M26.5 57.5l1.3-4.1a13.6 13.6 0 0 0 .6-6.4c-.4-2.4.4-9.1 1-10.9s1.8-9.3 2.3-11.6 1.4-9.8 1.2-10.7-2.7-3.9-4-2-3.4 7-4.1 8.6-4.1 10.5-5.1 12.3-.9 2.5-1.8 2.2-2.2-.7-2.7.8-.7 3.6 0 4.5a2.5 2.5 0 0 1 .9 1.7c0 .5-1.8 4.4-2 5.1s-2.5 4.4.6 6.7 5.8 4.2 8.3 4.3 3 .1 3.5-.5z" fill="#325723"/>
  <path d="M17.4 55.6a22.2 22.2 0 0 1-2.7-1.9c-3.1-2.3-.8-6-.6-6.7s2-4.6 2-5.1a2.5 2.5 0 0 0-.9-1.7c-.7-.9-.4-3 0-4.5s1.7-1.1 2.7-.8.8-.5 1.8-2.2 4.4-10.8 5.1-12.3 2.8-6.7 4.1-8.6a1.7 1.7 0 0 1 1.2-.6 4.1 4.1 0 0 1 .1 4.1c-1.1 2.1-1.8 5.1-3.3 10S22.4 39.7 22.3 42s-1.2 6.4-1.5 8.1-1.9 6.5-3.4 5.5zm15.2-42.5c.3.1.3.5.3.7s-.7 8.4-1.2 10.7-1.6 9.9-2.3 11.6-1.4 8.5-1 10.9a13.6 13.6 0 0 1-.6 6.4l-1.3 4.1c-.5.6-1 .7-3 .6 0 0 .5-1.2 1.3-3.5s2.3-6.4 2.1-7.9-1.8-6.5-.1-9.7 2.3-8.2 2.9-10 2.2-8.3 2-9.6.2-4.6.9-4.3z" fill="#0d3a12"/>
  <path d="M26.5 57.5l1.3-4.1a13.6 13.6 0 0 0 .6-6.4c-.4-2.4.4-9.1 1-10.9s1.8-9.3 2.3-11.6 1.4-9.8 1.2-10.7-2.7-3.9-4-2-3.4 7-4.1 8.6-4.1 10.5-5.1 12.3-.9 2.5-1.8 2.2-2.2-.7-2.7.8-.7 3.6 0 4.5a2.5 2.5 0 0 1 .9 1.7c0 .5-1.8 4.4-2 5.1s-2.5 4.4.6 6.7 5.8 4.2 8.3 4.3 3 .7 3.5-.5z" fill="none" stroke="#000" stroke-linecap="round" stroke-linejoin="round" stroke-width=".4"/>
  <path d="M29.2 39.1a3.9 3.9 0 0 0 1.4-2.3c.1-1.4-1.2-2.4-1.9-1.5s-1 2.8-.6 3.4a1 1 0 0 0 1.1.4z" fill="#febf10" stroke="#000" stroke-linecap="round" stroke-linejoin="round" stroke-width=".4"/>
  <path d="M15.2 39.8a7 7 0 0 0 1.3-2.6c.3-1.4 0-2.6-.3-2.7s-1.1 0-1.4 2-.6 3.8.4 3.3zm14-28.3c-.2.6.2 1 1.5 2s2.1 1.6 2.4 1.1-.3-2-1.2-2.9-2.3-1.6-2.7-.2z" fill="#980805" stroke="#000" stroke-linecap="round" stroke-linejoin="round" stroke-width=".4"/>
  <path d="M20.9 46.8c.3-.2 1.1-.8 1.4-.1s.9.7 1.1-.2a5.2 5.2 0 0 0 0-2.8 8.1 8.1 0 0 1 .6-4.3 9 9 0 0 0 .3-3 17.6 17.6 0 0 1 1-4.1c.3-.7 1.3-2.5 1.2-3.2s-.1-1.8-.8-.7-1.7 4.5-2.1 5.7-.9 2-1 1.3a6.9 6.9 0 0 1 .4-2.2c.2-.9-.8-1.4-1.1.3s-1.1 4.9-1.4 5.8-.5 2.5.1 2.3 1.5-2.1 1.4-1.1-1.3 3.1-1.6 4.4-.3 2.4.5 1.9z" fill="#d09b07"/>
  <path d="M25.8 58.8s.6-.4.1-2.6a7.1 7.1 0 0 0-3.7-4.8c-2.3-1.3-4.2-2.2-4.9-1.6s-.8 1-1.4.8-1.6-.7-2.2.3-.3 1.7.9 3.6 1.2 1.6 3.1 2.8 1.8 1.5 3.8 1.7 3.3 1.1 4.3-.2z" fill="#980805" stroke="#000" stroke-linecap="round" stroke-linejoin="round" stroke-width=".4"/>
  <path d="M15 51.9a4.2 4.2 0 0 0 1.1 3 8.8 8.8 0 0 0 3.6 2.1c1.5.3 3.2 1.4 3.9.7s.6-1.3.4-2.5-.7-1.9-2.6-2.9-4.2-1.5-4.3-1.3" fill="none" stroke="#000" stroke-linecap="round" stroke-linejoin="round" stroke-width=".4"/>
  <path d="M21.9 56.5a10.7 10.7 0 0 1-3.4-1.4c-.9-.6-1.9-.9-2-1.8s.8-1.4 2-1 1.5 1.2 2.6 1.7a5.8 5.8 0 0 1 1.8 1.3" fill="none" stroke="#000" stroke-linecap="round" stroke-linejoin="round" stroke-width=".4"/>
  <path d="M18.4 54.2a9.1 9.1 0 0 0 2.6 1.2c.7-.1.1-.1-.8-.9s-1.6-1.7-1.9-1.3" fill="none" stroke="#000" stroke-linecap="round" stroke-linejoin="round" stroke-width=".4"/>
  <path d="M64 78l-4.9.3a15.6 15.6 0 0 1-7.3-1 49.7 49.7 0 0 0-12.4-1.6c-2.1.2-10.8-.6-13.5-.7a103.5 103.5 0 0 1-12.3-1.3c-.9-.4-3.5-3.6-1-4.4s8.7-1.6 10.6-1.9 12.8-1.4 15.1-2 3.1-.2 3-1.2-.2-2.3 1.6-2.4 4.3.2 5 1.1a3.1 3.1 0 0 0 1.7 1.3c.6.1 5.3-.7 6.2-.7s5.6-1.3 7.3 2.2 3 6.7 2.5 9.1-.8 2.9-1.6 3.2z" fill="#325723"/>
  <path d="M64.5 68.8c-.4-1-.9-2-1.4-3.1-1.7-3.5-6.4-2.2-7.3-2.2s-5.6.8-6.2.7a3.1 3.1 0 0 1-1.7-1.3c-.7-.9-3.2-1.1-5-1.1s-1.7 1.4-1.6 2.4-.7.6-3 1.2-13.2 1.7-15.1 2-8.2 1.1-10.6 1.9c-.7.2-1 .5-1.1 1a5.4 5.4 0 0 0 4.5 1.1c2.7-.6 6.2-.5 12.1-.8s17.2-.8 19.9-.4 7.5.4 9.4.5 7.8-.2 7.1-1.9zM13 73.2c0 .3.4.4.6.5A103.5 103.5 0 0 0 25.9 75c2.7.1 11.4.9 13.5.7a49.7 49.7 0 0 1 12.4 1.6 15.6 15.6 0 0 0 7.3 1L64 78c.8-.3 1.1-.8 1.5-2.7l-4.2.4c-2.8.2-7.8.7-9.3.1s-6.8-3.3-10.9-2.4-9.7.2-11.9.3-9.9.2-11.2-.3-5.1-1-5-.2z" fill="#0d3a12"/>
  <path d="M64 78l-4.9.3a15.6 15.6 0 0 1-7.3-1 49.7 49.7 0 0 0-12.4-1.6c-2.1.2-10.8-.6-13.5-.7a103.5 103.5 0 0 1-12.3-1.3c-.9-.4-3.5-3.6-1-4.4s8.7-1.6 10.6-1.9 12.8-1.4 15.1-2 3.1-.2 3-1.2-.2-2.3 1.6-2.4 4.3.2 5 1.1a3.1 3.1 0 0 0 1.7 1.3c.6.1 5.3-.7 6.2-.7s5.6-1.3 7.3 2.2 3 6.7 2.5 9.1-.1 3.1-1.6 3.2z" fill="none" stroke="#000" stroke-linecap="round" stroke-linejoin="round" stroke-width=".4"/>
  <path d="M42.9 76.2a5 5 0 0 1-3 .8c-1.6-.2-2.4-1.8-1.2-2.2s3.4-.3 3.9.2a1.1 1.1 0 0 1 .3 1.2z" fill="#febf10" stroke="#000" stroke-linecap="round" stroke-linejoin="round" stroke-width=".4"/>
  <path d="M47.5 62.8a8.7 8.7 0 0 1-3.3.6c-1.6-.1-2.9-.6-2.9-.9s.3-1.1 2.6-.8 4.4.3 3.6 1.1zm-35.4 6.6c.7 0 1.1.5 1.8 2s1.2 2.4.5 2.6-2.1-.7-2.8-1.9-1.2-2.6.5-2.7zm53.6 8.3s-.6.5-2.5-.5a7 7 0 0 1-3.8-4.8c-.7-2.5-1.1-4.6-.4-5.1s1.2-.5 1.1-1.2-.2-1.7.9-2 1.7.1 3.2 1.7 1.3 1.6 2 3.7 1 2.2.7 4.1.3 3.5-1.2 4.1z" fill="#980805" stroke="#000" stroke-linecap="round" stroke-linejoin="round" stroke-width=".4"/>
  <path d="M61.7 65.6a4 4 0 0 1 2.5 1.8 8.1 8.1 0 0 1 1.2 3.9c-.1 1.6.6 3.5-.3 4s-1.4.3-2.4-.1-1.8-1.2-2.3-3.3-.4-4.4-.1-4.6" fill="none" stroke="#000" stroke-linecap="round" stroke-linejoin="round" stroke-width=".4"/>
  <path d="M64.4 73.3a11 11 0 0 0-.5-3.5c-.4-1.1-.4-2.1-1.2-2.5s-1.6.5-1.5 1.7.8 1.8 1 3a5 5 0 0 0 .8 2" fill="none" stroke="#000" stroke-linecap="round" stroke-linejoin="round" stroke-width=".4"/>
  <path d="M63 69.5s.8 2 .5 2.7-.1.1-.6-1-1.2-1.9-.8-2.1" fill="none" stroke="#000" stroke-linecap="round" stroke-linejoin="round" stroke-width=".4"/>
  <path d="M34.3 70.8a30.8 30.8 0 0 0 5.7.2c2.8-.2 4.3-.8 6.6-.2s7.1 1.7 8.1 1.3 4.3-2.7 1.8-2.7a34 34 0 0 1-6.8-.4 17.6 17.6 0 0 0-7.7-.6 56.1 56.1 0 0 1-9.5.6c-2.4 0-5.7-.1-6.3.5s2.1 1.4 4 1.3 3.8-.7 4.1 0z" fill="#d09b07"/>
  <path fill="none" stroke="#000" stroke-linecap="round" stroke-linejoin="round" stroke-width=".4" d="M8 7.9h62v124.31H8z"/>
</svg>
