<svg xmlns="http://www.w3.org/2000/svg" viewBox="0 0 78 140">
  <rect width="78" height="140" rx="6" ry="6" fill="#fff"/>
  <path d="M49.9 80.9s-.2 2-.3 4.3a12 12 0 0 0 1 6.4 39.4 39.4 0 0 1 1.6 10.9c-.2 1.9.6 9.6.7 11.9a79.8 79.8 0 0 0 1.3 10.8c.4.8 3.6 3.1 4.4.9s1.6-7.7 1.9-9.3 1.4-11.3 2-13.3.2-2.7 1.2-2.6 2.3.1 2.4-1.5-.2-3.7-1.1-4.3a3.2 3.2 0 0 1-1.3-1.5c-.1-.5.7-4.7.7-5.5s1.3-4.9-2.2-6.4-6.7-2.6-9.1-2.2-2.9.7-3.2 1.4zm-16.5 3c.2 1.5-.3 6-.2 8.5s1 5.9.6 7.2-1.4 1.7-1.6 3.9-1.3 11.5-1.4 13.8.4 8 2.4 9.3 10.5-1.2 12-4.3 1-6.2.7-10.7a54.3 54.3 0 0 1-.4-6c0-1.4-2.4-7.4-3.6-11.3s-1.8-9.6-2.2-11.9-.2-4.4-1.3-4.5-3.8.9-4.4 1.7-.6 4.3-.6 4.3zm-21.5-.8a27.9 27.9 0 0 0 .8 8.3c1.1 3.7.4 5.4 1 7s1.4 1.1 1.8 2.6 1.3 5 1 6.3a5.1 5.1 0 0 0 .5 4.1c.9 1.6 1 4.9 1.6 6.7s.6 5.2 1.3 6.7 2.4 3 3.4.6.4-14.3.7-16.8a11.3 11.3 0 0 1 1.3-5.1c.7-1.2.4-3.3-.1-4.9s.2-4.6.4-6 .6-5.9 0-7.6-11.5-4.5-13.7-1.9zm43.1-69a30.4 30.4 0 0 0-.8 7.3A64.8 64.8 0 0 1 53 33.5c-.4 1.6-2 11.3-2.4 14.7s-1 6.4 1.5 8.7 12.5 2.6 12.3-2.2a87 87 0 0 0-2.2-16.1c-1-3.2-2.4-16.3-2.6-19.1s.1-6.1-1.8-6.7-2.4.6-2.8 1.3zm-23.4.5s-.9 7.3.3 11.5 1.1 6.5.8 7.7-.6 2.4.6 6.3c0 0 1.4 5.1 1.7 7.3s1.1 9.8 1.6 10.7 4.1 2 4.6.7.9-8 1.2-9.9.9-10.4 1.4-11.8 1.9-5.7 1.4-7.9 0-4.5.2-6.7.7-3.7 0-4.8-10.4-5.3-13.8-3.1zM16 13.5s-.3 9.5-.7 13.3-.5 3.4-.8 8.2-2.7 14.1-2.3 18 .2 9.3 5.2 8.8 10.8-3 10.9-7.5-1.7-11.4-1.3-14-2.2-7.3-2.6-8.5a108.3 108.3 0 0 1-2.2-11.3 37.2 37.2 0 0 0-1-6.1c-.3-.9-2.5-2.3-5.2-.9z" fill="#325723"/>
  <path d="M19.5 13.1c.8.6 1.6.9 1.7 1.3a37.2 37.2 0 0 1 1 6.1 108.3 108.3 0 0 0 2.2 11.3c.4 1.2 2.9 5.8 2.6 8.5s1.4 9.6 1.3 14a5.9 5.9 0 0 1-2.2 4.3s1.1-1.4.3-6.5a62.5 62.5 0 0 1-1-11.5c0-1.4.7-4.4-.6-5.5s-2.9-6.2-2.9-8.3-.5-9.8-1.5-11-1.5-3.2-.9-2.7zm-3.7 48.6c-3.4-.7-3.3-5.3-3.6-8.7s2-13.1 2.3-18 .4-4.4.8-8.2.7-13.3.7-13.3l1.1-.5s1.4.9 1.2 5.8 1.1 8.4.4 10.8-1.2 6.1-.3 7.9 2 4.4 1.5 5-.6-1-1.7-.9-1.9 3-1.3 4.6 0 2.6-.1 5 .9 2.6.2 4.4a50.7 50.7 0 0 0-1.2 6.1zM40 15.1c2.4 1.7 5.1 2.1 5.4 2.6s.3 2.6 0 4.8-.8 4.6-.2 6.7-.9 6.6-1.4 7.9-1 10-1.4 11.8-.6 8.6-1.2 9.9-1 1.1-1.5.6A4.8 4.8 0 0 1 39 56c.4-1.1 2-6.2 1.4-8.5s.1-10.4.7-11.3 3.1-4.4 2.3-6.4-2-.3-2.9-1.2-.3-9.1-.4-10.4-.7-3.6-.1-3.1zm-2.5 43.7c-.3.4-.7-.4-.9-.7s-1.4-8.4-1.6-10.7-1.7-7.3-1.7-7.3c-1.2-3.9-.9-5.2-.6-6.3s.3-3.6-.8-7.7-.3-11.5-.3-11.5a6.7 6.7 0 0 1 3-.6s.2 0-.3 2.7-1.6 7.7-.9 9.6-.3 8.9.5 10.8 1.8 8.5 2.1 9.9.8 7.3 1 8.3.9 3.2.5 3.5zm20.3-46c1.8.8 1.6 3.9 1.8 6.7s1.6 15.9 2.6 19.1a65.8 65.8 0 0 1 1.4 7.2 2.4 2.4 0 0 1-1.6-2.2 39 39 0 0 0-1.8-7.9c-.8-2-1.3-8.2-1.4-10s-1.3-7-1.2-8.7-.8-4.6.2-4.2zm-1.7 45.5c-1.3 1.1-3.2-.7-4-1.4-2.5-2.3-2-5.1-1.5-8.7s2-13.1 2.4-14.7a64.8 64.8 0 0 0 1.2-12.1 30.4 30.4 0 0 1 .8-7.3c.2-.4.5-1.1 1.2-1.3a14.4 14.4 0 0 1 .3 3.6c-.1 1.9-.1 14.4-.1 16.2s-1 8.4-1.8 10-1.9 7.4-.7 7.5 4.2 6.6 2.2 8.2zM20.8 82.8a4.8 4.8 0 0 1 4.8 2.2c.6 1.7.1 6.1 0 7.6s-.8 4.5-.4 6 .8 3.7.1 4.9a11.3 11.3 0 0 0-1.3 5.1c-.3 2.5.3 14.5-.7 16.8a1.9 1.9 0 0 1-.5.9s-.4.5-.4-4.3.2-8.5-.3-11.2-.3-10-1-12.3-3.2-15.2-.3-15.7zm-.4 42.9a1.6 1.6 0 0 1-.5-.9c-.7-1.5-.8-4.9-1.3-6.7s-.7-5.1-1.6-6.7a5.1 5.1 0 0 1-.5-4.1c.3-1.3-.6-4.8-1-6.3s-1.1-.9-1.8-2.6.1-3.3-1-7c0 0 .4-1.3 1 .2s2.2 9 3.1 10.6.6 8 1.4 9.2 2.5 6.7 2.5 8.5.3 6.2-.3 5.8zm16.9-47.6l1.1-.2c1.1.1.8 2.3 1.3 4.5s1 8 2.2 11.9 3.6 9.9 3.6 11.3a54.3 54.3 0 0 0 .4 6c.3 4.5 1.7 7.7.2 10.7-.1.2-1.1.3-1.1.4s-1.2-.6-1-3.5.7-9 .1-11.3.3-2.1.3-3.2a8.2 8.2 0 0 0-1.2-4.1c-.8-.9-3.8-7.5-4-10s-.3-8.2-1.2-9.5a5.8 5.8 0 0 1-.7-3zm-2.5 48.8a2.6 2.6 0 0 1-1.6-.3c-2-1.3-2.5-7-2.4-9.3s1.2-11.6 1.4-13.8 1.2-2.7 1.6-3.9-.4-4.8-.6-7.2.4-7 .2-8.5c0 0 0-3.4.6-4.3l.8-.6s1.4-.2.8 1.8 1.1 10.1.8 12.4 2.1 9.6 1.6 12.6-2.1 4.8-2.5 8.4-.3 4 .3 6.1.6 6.3-1 6.6zm24.3-46.4l3.1 1.2c3.5 1.5 2.2 5.7 2.2 6.4s-.8 5-.7 5.5a3.2 3.2 0 0 0 1.3 1.5c.9.6 1.1 2.8 1.1 4.3s-1.4 1.5-2.4 1.5-.6.6-1.2 2.6-1.7 11.6-2 13.3-1.1 7.1-1.9 9.3a1.2 1.2 0 0 1-1 .9 4.2 4.2 0 0 1-1.1-3.9c.6-2.3.5-5.4.8-10.6s.8-15.2.4-17.5-.4-6.6-.5-8.2.2-6.9 1.9-6.3zm-4.4 45.3c-.3-.1-.4-.5-.5-.6a79.8 79.8 0 0 1-1.3-10.8c-.1-2.3-.9-10-.7-11.9a39.4 39.4 0 0 0-1.6-10.9 12 12 0 0 1-1-6.4c.1-2.3.3-4.3.3-4.3s.8-.9 2.7-1.3c0 0-.2 1.3-.4 3.7s-.7 6.9-.1 8.2 3.3 5.9 2.4 9.5-.2 8.6-.3 10.5-.2 8.7.3 9.8 1 4.6.2 4.5z" fill="#0d3a12"/>
  <path d="M16 13.5s-.3 9.5-.7 13.3-.5 3.4-.8 8.2-2.7 14.1-2.3 18 .2 9.3 5.2 8.8 10.8-3 10.9-7.5-1.7-11.4-1.3-14-2.2-7.3-2.6-8.5a108.3 108.3 0 0 1-2.2-11.3 37.2 37.2 0 0 0-1-6.1c-.3-.9-2.5-2.3-5.2-.9zm15.6 1.1s-.9 7.3.3 11.5 1.1 6.5.8 7.7-.6 2.4.6 6.3c0 0 1.4 5.1 1.7 7.3s1.1 9.8 1.6 10.7 4.1 2 4.6.7.9-8 1.2-9.9.9-10.4 1.4-11.8 1.9-5.7 1.4-7.9 0-4.5.2-6.7.7-3.7 0-4.8-10.4-5.3-13.8-3.1zm23.4-.5a30.4 30.4 0 0 0-.8 7.3A64.8 64.8 0 0 1 53 33.5c-.4 1.6-2 11.3-2.4 14.7s-1 6.4 1.5 8.7 12.5 2.6 12.3-2.2a87 87 0 0 0-2.2-16.1c-1-3.2-2.4-16.3-2.6-19.1s.1-6.1-1.8-6.7-2.4.6-2.8 1.3zm-43.1 69a27.9 27.9 0 0 0 .8 8.3c1.1 3.7.4 5.4 1 7s1.4 1.1 1.8 2.6 1.3 5 1 6.3a5.1 5.1 0 0 0 .5 4.1c.9 1.6 1 4.9 1.6 6.7s.6 5.2 1.3 6.7 2.4 3 3.4.6.4-14.3.7-16.8a11.3 11.3 0 0 1 1.3-5.1c.7-1.2.4-3.3-.1-4.9s.2-4.6.4-6 .6-5.9 0-7.6-11.5-4.5-13.7-1.9zm21.5.8c.2 1.5-.3 6-.2 8.5s1 5.9.6 7.2-1.4 1.7-1.6 3.9-1.3 11.5-1.4 13.8.4 8 2.4 9.3 11.4-1.1 12.9-4.1.1-6.4-.2-10.9a54.3 54.3 0 0 1-.4-6c0-1.4-2.4-7.4-3.6-11.3s-1.8-9.6-2.2-11.9-.2-4.4-1.3-4.5-3.8.9-4.4 1.7-.6 4.3-.6 4.3zm16.5-3s-.2 2-.3 4.3a12 12 0 0 0 1 6.4 39.4 39.4 0 0 1 1.6 10.9c-.2 1.9.6 9.6.7 11.9a79.8 79.8 0 0 0 1.3 10.8c.4.8 3.6 3.1 4.4.9s1.6-7.7 1.9-9.3 1.4-11.3 2-13.3.2-2.7 1.2-2.6 2.3.1 2.4-1.5-.2-3.7-1.1-4.3a3.2 3.2 0 0 1-1.3-1.5c-.1-.5.7-4.7.7-5.5s1.3-4.9-2.2-6.4-6.7-2.6-9.1-2.2-3.1.1-3.2 1.4z" fill="none" stroke="#000" stroke-linecap="round" stroke-linejoin="round" stroke-width=".4"/>
  <path d="M16 13.4a6.1 6.1 0 0 0 2.7 1.7c1.3.1 3-.5 2.3-1.3s-4.3-1.7-5-.4zm20.4 44.3a4.7 4.7 0 0 1 3.2.1c1.1.4 1.5.3 1.6 1s-2 1.3-3.2.7-1.6-1.2-1.6-1.8zm.8 19.7a5.4 5.4 0 0 0-2.5 1c-1 .8-1.5 2.2.2 2s4.2-1.3 4.1-2.1-1.1-1.1-1.8-.9z" fill="#980805" stroke="#000" stroke-linecap="round" stroke-linejoin="round" stroke-width=".4"/>
  <path d="M43.5 99.3a6.5 6.5 0 0 0 0 2.8c.3 1.8 1.7 4.4 2.6 4.1s.3-3.6-.2-4.7-1.7-2.9-2.4-2.2zm8.2.2a4 4 0 0 0-.8 2.6c.2 1.4 1.8 2.1 2.2 1a3.9 3.9 0 0 0-.2-3.4 1.1 1.1 0 0 0-1.2-.2z" fill="#febf10" stroke="#000" stroke-linecap="round" stroke-linejoin="round" stroke-width=".4"/>
  <path d="M65.1 95.4a6.9 6.9 0 0 0-.6 2.9c.1 1.5.6 2.5.9 2.5s1.1-.2.8-2.2-.3-3.9-1.1-3.2z" fill="#980805" stroke="#000" stroke-linecap="round" stroke-linejoin="round" stroke-width=".4"/>
  <path d="M24.9 34.1a6.6 6.6 0 0 0 0 3.2c.5 1.1 2 2.4 2.6 2.2s.4-2.5-.1-3.6a5.6 5.6 0 0 0-1.2-1.8c-.5-.5-1-1.1-1.3 0z" fill="#febf10" stroke="#000" stroke-linecap="round" stroke-linejoin="round" stroke-width=".4"/>
  <path d="M52.2 34.6a3.1 3.1 0 0 0-1 1.9c-.1 1-.3 2.6.2 2.9s1.4-.8 1.5-1.8a12.8 12.8 0 0 0 0-2.8c-.2-.6-.5-.4-.7-.2zm6.3 91.9c0-.6-.5-.9-2-1.6s-2.4-1-2.6-.4.7 1.8 1.9 2.4 2.6 1.1 2.7-.4z" fill="#980805" stroke="#000" stroke-linecap="round" stroke-linejoin="round" stroke-width=".4"/>
  <path d="M20.5 43.5a7.9 7.9 0 0 1 .7 3.2c0 1.7-.7 2.9 0 2.9s.6 0 1 1.2-.3 1.6.2 2.3 1.2.5 1.2 1.1-3.4 2.4-3.9 1.9-1.4-.7-.8-1.8 0-1.1.7-2 .9-1 .3-1.9-1-.8-.4-1.8.3-4.2.4-4.8.5-.8.6-.3z" fill="#d09b07" stroke="#000" stroke-linecap="round" stroke-linejoin="round" stroke-width=".4"/>
  <path d="M31.7 25.2s1.7-.3 2.3 1 .7 1.7 1.4 2.2 0 .8.3 2.4.3 3 .6 4 .2 2-.4 1.6-.5-1.5-.9-2.9a3.3 3.3 0 0 0-1.2-2.1 4.9 4.9 0 0 1-1.1-1.5" fill="none" stroke="#000" stroke-linecap="round" stroke-linejoin="round" stroke-width=".4"/>
  <path d="M17.7 88a12.3 12.3 0 0 1-.7 3.2c-.5 1-.2 2.9-.2 3.6s.1 1.5-.4 1.8-.8-2.5-1.2-3.7-.2-2.1-.5-1.5-.7 1.3-1.1-.2-1.2-4.9-.7-5.7" fill="#d09b07" stroke="#000" stroke-linecap="round" stroke-linejoin="round" stroke-width=".4"/>
  <path d="M21.9 37.5a5.8 5.8 0 0 0-.1 1.8c.1 1.1 1.1 1.8 1.2 2.8s.9 1.5.6-.1-.8-1.9-.9-2.8-.2-2.5-.8-1.7zM36.1 21a2 2 0 0 1 1.3 1.8c.3 1.5.5 2.1.8 3.6a22.9 22.9 0 0 0 .6 3.2c.3 1.1 0 2.1.5 1.6s.5-1.9.6-3.6.1-2.9.2-4.1.4-1.7-.7-2.1-1.1-.7-1.8-.9-1.4-.8-1.5.5zm3.3 21.6a11.1 11.1 0 0 1-.2 1.8c-.2 1.1-.5 2.7-.6 3.6s-.5 2 .4 2.2 1.1 0 1.1-2a13.5 13.5 0 0 1 .1-3.6c.4-1.4 1.1-1.8.3-2.4s-1.1.4-1.1.4zm16.3 8.9a3.8 3.8 0 0 1 .2-2c.3-1.5 1.2-2.2 1.4-3.3s-.6-2-.1-2.8a16.6 16.6 0 0 0 1.5-4.6c.2-1 1.1-1.8 1.4-.9s-.7 1.1.3 2.6S62 42 62 43.3s.6 2.7-.2 2.6-1.4-.5-1.7-2-.4-3-.9-2.3a4.2 4.2 0 0 0-.3 3.4c.5 1.3 0 3.2-.3 4.2s.4 2.4-.4 3.1a1.5 1.5 0 0 1-2.5-.8zM57.9 90c-.3.3-.9 1-1.3.5s-1.1-.5-1.1.4.1 1.3.7 2.8a7.7 7.7 0 0 1 .5 4.3 8 8 0 0 0 .4 3 14.8 14.8 0 0 1 0 4.2c-.1.8-.6 2.8-.3 3.4s.5 1.8.9.5.5-4.7.6-6 .4-2.3.7-1.6a7.5 7.5 0 0 1 .1 2.2c0 1 1.1 1.2 1-.5s-.1-5 0-6-.2-2.5-.7-2.2-.9 2.4-1.1 1.4.6-3.3.6-4.7-.3-2.4-1-1.7zm-21-1.8s.2 1.3.3 2.7.1 3.2.4 4.6.1 3.3.5 3.9 1.4 1.3 1.3-1.1-1.2-2.8-1.2-4.5.5-4 .5-5.3-.1-2.4-.9-2.3-.9 1.1-.9 2zm4.2 32a13.7 13.7 0 0 1 0-3.9c.3-2.3 1.2-3.5-.1-5s-2-2.8-2.9-1.2-.7 2.6-1 4.6-.8 3.7-.4 4.8.6 2.3 1.6 2.6 2.8-1.9 2.8-1.9zm-20.5-10.4a5.4 5.4 0 0 1 .2 1.7 9.4 9.4 0 0 0 .2 2.6c.4.7 1 1.2.9-.4s-.5-1.3-.4-2.9.4-2.6-.2-2.6-.7 1.6-.7 1.6z" fill="#d09b07"/>
  <path d="M27.1 57.8s1.6-2-1.7-2.7-4.9-.8-5.7.6-1 1.5-2.6 2.2-3.5 1.9-1.9 3.7 10.4-1 11.9-3.8z" fill="#980805" stroke="#000" stroke-linecap="round" stroke-linejoin="round" stroke-width=".4"/>
  <path d="M16.6 60.6s-1.4-.2-.5-.9 1.3.1 2.5-.9 1.6-2.2 2.8-2.6 3.4-.8 3.8 0 .4 1.7-1.2 2.2-2 1.1-3.1 1.5a5.3 5.3 0 0 1-2.7.2" fill="none" stroke="#000" stroke-linecap="round" stroke-linejoin="round" stroke-width=".4"/>
  <path d="M21.4 57.2a1.9 1.9 0 0 1-.9 1.5c-.9.5-1.3 1.2 1.4-.1s2.2-2.2 1.4-1.8" fill="none" stroke="#000" stroke-linecap="round" stroke-linejoin="round" stroke-width=".4"/>
  <path d="M54.6 51.4c-.4.2-2.7.4-3.5 1.2s-.9 2.1 0 3.8a8.5 8.5 0 0 0 5.8 3.8c2 .2 5.3-.6 6.5-2.3s1.6-2.5.1-3.4-2.4-2.1-4.1-2.6-4.2-.8-4.8-.5z" fill="#980805" stroke="#000" stroke-linecap="round" stroke-linejoin="round" stroke-width=".4"/>
  <path d="M62.2 55.2a23.7 23.7 0 0 1-2.4-1.3c-1.1-.8-3.4-2.1-4.6-1.4a11.2 11.2 0 0 1-2.6 1.4c-1 .2-1.4 1.2-.5 1.7s.8.6 1.5 1.5a3.3 3.3 0 0 0 3.1 1.8c2.1.2 3.2.2 4.1-.5s1.9-1 1.3-1.6" fill="none" stroke="#000" stroke-linecap="round" stroke-linejoin="round" stroke-width=".4"/>
  <path d="M60 55.2s1.8 1.2.5 1.8-2.3 1-3.8.4-2.1-.6-2.8-1.5.2-1.1 1-1.6a3.7 3.7 0 0 1 2.8-.5" fill="none" stroke="#000" stroke-linecap="round" stroke-linejoin="round" stroke-width=".4"/>
  <path d="M55.8 55.3c.7-.2 1.1-.8 2.1-.5s2.7 1 1 1.4a3.2 3.2 0 0 1-2.6-.3" fill="none" stroke="#000" stroke-linecap="round" stroke-linejoin="round" stroke-width=".4"/>
  <path d="M32.4 13.1c-.1.1-1.5.7-.7 3s5 3.1 6.5 4 4.8.1 5.6-.6 3.1-1.3.7-3.4-5.4-3.8-7.8-3.7-3.6 0-4.3.7z" fill="#980805" stroke="#000" stroke-linecap="round" stroke-linejoin="round" stroke-width=".4"/>
  <path d="M36.2 13.4s-2.3-.4-3 1 1.4 2.7 2.7 3.7a12.9 12.9 0 0 0 4 1.3" fill="none" stroke="#000" stroke-linecap="round" stroke-linejoin="round" stroke-width=".4"/>
  <path d="M36.9 17.8s-2-.9-2.2-1.9-.4-1.7.8-1.5 2.3 0 3.2.1a4.9 4.9 0 0 1 2.5 1.4c.8.8 2.2.5 1.8 1.5s-.6.8-1 1.4a1.6 1.6 0 0 1-1 .7" fill="none" stroke="#000" stroke-linecap="round" stroke-linejoin="round" stroke-width=".4"/>
  <path d="M37.7 15.6c-.9.1-1.9.5-.5 1.5s1.7 1.7 2.9 1.6 2.4-.8 1.5-1.4-1.5-.1-2.5-.4" fill="none" stroke="#000" stroke-linecap="round" stroke-linejoin="round" stroke-width=".4"/>
  <path d="M15.9 79.1l-2.7 2.2c-1.1.9-2.6 1.8-.3 4.1s6.4 3 7.8 2.4 4-.6 4.6-1.8a4 4 0 0 0-1.2-4.6c-1.5-1.4-2.6-2.5-4.3-2.5s-3.4-.1-3.9.2z" fill="#980805" stroke="#000" stroke-linecap="round" stroke-linejoin="round" stroke-width=".4"/>
  <path d="M23.4 85.1a4.3 4.3 0 0 1-2.7 1.1c-1.9.3-1.6.2-3.7-.5s-2.8-.6-3.2-1.6-.3-2 1-2.3 1.1-.8 2.3-1.1 1.5-.5 2.6-.1a6.1 6.1 0 0 1 2.6 1.3" fill="none" stroke="#000" stroke-linecap="round" stroke-linejoin="round" stroke-width=".4"/>
  <path d="M15.1 82.8c.8-.2 1.8-1.1 3.1-1.1a6.2 6.2 0 0 1 3.1.7c1.1.4 2.5.5 1.8 1.4s-.7 1.8-2.4 1.3a8.4 8.4 0 0 0-3.1-.6" fill="none" stroke="#000" stroke-linecap="round" stroke-linejoin="round" stroke-width=".4"/>
  <path d="M20.2 83.1s-2.3-.7-3-.3-2 .8-1 1 1.8-.5 2.6-.2" fill="none" stroke="#000" stroke-linecap="round" stroke-linejoin="round" stroke-width=".4"/>
  <path d="M45.7 121.1a7 7 0 0 1-2.6-.5c-2-.6-2.2-1.5-3.9-.7s-1.9 2.6-3.5 3.6-3.3 1.2-2.5 3 4.8 1.1 7.4-.1 7.5-4.5 5.1-5.3z" fill="#980805" stroke="#000" stroke-linecap="round" stroke-linejoin="round" stroke-width=".4"/>
  <path d="M43.4 122.6c-.1-.8.5-.9-1.3-1s-1.3-.2-2.9.6a25.2 25.2 0 0 0-3.1 2.5c-.9.5-1.9 1.3-.9 1.4s1.9-.6 2.7-.6" fill="none" stroke="#000" stroke-linecap="round" stroke-linejoin="round" stroke-width=".4"/>
  <path d="M42.1 123.1c-.6-.5-.5-1.2-1.6-.4a10.9 10.9 0 0 1-2.4 1.4c-.7.4-.7.8.3.8a4.7 4.7 0 0 0 2.3-.3c.9-.4 1.2-1.8.4-1.3" fill="none" stroke="#000" stroke-linecap="round" stroke-linejoin="round" stroke-width=".4"/>
  <path d="M50.2 79.4s-.5.6.5 2.6a7 7 0 0 0 4.8 3.8c2.5.8 4.6 1.1 5.1.4s.5-1.2 1.2-1.1 1.7.2 2-.9-.1-1.8-1.7-3.3-1.6-1.3-3.7-2-2.2-1-4.1-.7-3.5-.3-4.1 1.2z" fill="#980805" stroke="#000" stroke-linecap="round" stroke-linejoin="round" stroke-width=".4"/>
  <path d="M62.3 83.5a4.1 4.1 0 0 0-1.8-2.6 7 7 0 0 0-3.9-1.1c-1.6 0-3.5-.7-4 .2s-.3 1.4.1 2.5 1.2 1.7 3.3 2.3 4.4.4 4.6.1" fill="none" stroke="#000" stroke-linecap="round" stroke-linejoin="round" stroke-width=".4"/>
  <path d="M54.6 80.8a14.5 14.5 0 0 1 3.5.4c1.1.4 2.1.5 2.5 1.3s-.5 1.6-1.7 1.5-1.8-.8-3-1a4.4 4.4 0 0 1-2-.9" fill="none" stroke="#000" stroke-linecap="round" stroke-linejoin="round" stroke-width=".4"/>
  <path d="M58.4 82.1a7.6 7.6 0 0 0-2.7-.5c-.7.3-.1.2 1 .7s1.9 1.2 2.1.8" fill="none" stroke="#000" stroke-linecap="round" stroke-linejoin="round" stroke-width=".4"/>
  <path fill="none" stroke="#000" stroke-linecap="round" stroke-linejoin="round" stroke-width=".4" d="M8 7.9h62v124.31H8z"/>
</svg>
