<svg xmlns="http://www.w3.org/2000/svg" viewBox="0 0 78 140">
  <rect width="78" height="140" rx="6" ry="6" fill="#fff"/>
  <path d="M53.5 128.6s-.2-9.1-.6-12.8-.6-3.3-.9-8-2.6-13.6-2.3-17.3.2-9 5.3-8.5 10.7 2.9 10.8 7.2-1.6 11-1.3 13.6-2.2 7-2.5 8.2a95.6 95.6 0 0 0-2.3 10.9 27.8 27.8 0 0 1-.9 5.8c-.3.9-2.5 2.3-5.3.9z" fill="#325723"/>
  <path d="M57.1 129c.7-.6 1.5-.8 1.7-1.3a27.8 27.8 0 0 0 .9-5.8A95.6 95.6 0 0 1 62 111c.3-1.2 2.9-5.7 2.5-8.2s1.5-9.3 1.3-13.6a5.5 5.5 0 0 0-2.2-4.1s1.1 1.3.3 6.3a67.9 67.9 0 0 0-1 11.1c.1 1.3.7 4.2-.6 5.3s-2.8 5.9-2.8 7.9-.6 9.5-1.5 10.7-1.6 3.1-.9 2.6zm-3.8-46.9c-3.3.7-3.2 5.1-3.6 8.4s2 12.7 2.3 17.3.5 4.3.9 8 .6 12.8.6 12.8l1.2.4s1.4-.8 1.1-5.5 1.1-8.2.4-10.4-1.1-5.9-.3-7.6 2.1-4.3 1.6-4.9-.7 1-1.8.9-1.9-2.9-1.3-4.5.1-2.4-.1-4.7.9-2.5.3-4.3a38.8 38.8 0 0 1-1.3-5.9z" fill="#0d3a12"/>
  <path d="M53.5 128.6s-.2-9.1-.6-12.8-.6-3.3-.9-8-2.6-13.6-2.3-17.3.2-9 5.3-8.5 10.7 2.9 10.8 7.2-1.6 11-1.3 13.6-2.2 7-2.5 8.2a95.6 95.6 0 0 0-2.3 10.9 27.8 27.8 0 0 1-.9 5.8c-.3.9-2.5 2.3-5.3.9z" fill="none" stroke="#000" stroke-linecap="round" stroke-linejoin="round" stroke-width=".4"/>
  <path d="M53.5 128.7a6.2 6.2 0 0 1 2.7-1.6c1.3-.2 3 .5 2.3 1.3s-4.2 1.6-5 .3z" fill="#980805" stroke="#000" stroke-linecap="round" stroke-linejoin="round" stroke-width=".4"/>
  <path d="M62.4 108.8a7 7 0 0 1 .1-3.2c.4-1.1 2-2.3 2.5-2.1s.5 2.4 0 3.5a5.6 5.6 0 0 1-1.3 1.8c-.5.5-1 1-1.3 0z" fill="#febf10" stroke="#000" stroke-linecap="round" stroke-linejoin="round" stroke-width=".4"/>
  <path d="M58 99.7a7.7 7.7 0 0 0 .7-3.1c0-1.7-.7-2.8.1-2.8s.6 0 .9-1.1-.2-1.6.3-2.3 1.1-.4 1.1-1.1-3.3-2.2-3.8-1.8-1.4.7-.9 1.7 0 1.1.7 2 .9.9.4 1.8-1.1.8-.5 1.8.4 4 .5 4.6.4.7.5.3zm1.4 5.8a5.8 5.8 0 0 1-.1-1.8c.1-1 1.1-1.7 1.2-2.7s.9-1.4.6.1-.7 1.8-.8 2.7-.3 2.4-.9 1.7z" fill="#d09b07"/>
  <path d="M64.6 85.9s1.6 1.9-1.7 2.6-4.9.7-5.7-.6a3.6 3.6 0 0 0-2.6-2.1c-1.7-.6-3.5-1.9-1.9-3.6s10.4.9 11.9 3.7z" fill="#980805" stroke="#000" stroke-linecap="round" stroke-linejoin="round" stroke-width=".4"/>
  <path d="M54.1 83.1s-1.4.3-.5 1 1.4-.1 2.5.9 1.6 2.1 2.8 2.4 3.5.8 3.9 0 .4-1.6-1.3-2.1-2-1.1-3.1-1.5a6.3 6.3 0 0 0-2.6-.2" fill="none" stroke="#000" stroke-linecap="round" stroke-linejoin="round" stroke-width=".4"/>
  <path d="M59 86.4a2.2 2.2 0 0 0-1-1.4c-.8-.5-1.2-1.1 1.4.1s2.3 2.1 1.5 1.7" fill="none" stroke="#000" stroke-linecap="round" stroke-linejoin="round" stroke-width=".4"/>
  <path d="M18.4 128a34.4 34.4 0 0 1-.9-7.4c.2-3.1-.8-10.5-1.1-12s-2-11.3-2.5-14.8-1-6.3 1.6-8.6 12.4-2.6 12.3 2.2a78.8 78.8 0 0 1-2.3 16.1c-.9 3.1-2.3 16.3-2.5 19.1s0 6.1-1.8 6.7a2.1 2.1 0 0 1-2.8-1.3z" fill="#325723"/>
  <path d="M21.2 129.3c1.8-.8 1.6-3.9 1.8-6.7s1.6-16 2.5-19.1a51 51 0 0 0 1.4-7.2 2.3 2.3 0 0 0-1.5 2.2 39.4 39.4 0 0 1-1.9 7.9c-.8 2-1.3 8.2-1.4 10s-1.2 7-1.1 8.7-.9 4.6.2 4.2zm-1.7-45.6c-1.4-1-3.2.8-4 1.5-2.6 2.3-2 5.1-1.6 8.6s2.1 13.2 2.5 14.8 1.3 8.9 1.1 12a34.4 34.4 0 0 0 .9 7.4 2.5 2.5 0 0 0 1.2 1.3 14.4 14.4 0 0 0 .3-3.6c-.1-2-.2-14.5-.1-16.2a42 42 0 0 0-1.8-10c-.8-1.6-2-7.4-.8-7.5s4.2-6.7 2.3-8.3z" fill="#0d3a12"/>
  <path d="M18.4 128a34.4 34.4 0 0 1-.9-7.4c.2-3.1-.8-10.5-1.1-12s-2-11.3-2.5-14.8-1-6.3 1.6-8.6 12.4-2.6 12.3 2.2a78.8 78.8 0 0 1-2.3 16.1c-.9 3.1-2.3 16.3-2.5 19.1s0 6.1-1.8 6.7a2.1 2.1 0 0 1-2.8-1.3z" fill="none" stroke="#000" stroke-linecap="round" stroke-linejoin="round" stroke-width=".4"/>
  <path d="M15.5 107.5a3.7 3.7 0 0 1-1-1.9c0-1-.3-2.6.3-3s1.4.9 1.4 1.9a8.6 8.6 0 0 1 0 2.8c-.2.5-.4.4-.7.2z" fill="#980805" stroke="#000" stroke-linecap="round" stroke-linejoin="round" stroke-width=".4"/>
  <path d="M19 90.6a6.1 6.1 0 0 0 .2 2c.3 1.4 1.3 2.2 1.5 3.3s-.6 1.9-.1 2.8a21.6 21.6 0 0 1 1.5 4.5c.2 1.1 1 1.8 1.3 1s-.6-1.1.3-2.6 1.7-1.5 1.7-2.8.6-2.7-.3-2.6-1.4.5-1.6 2-.5 3-.9 2.3a3.8 3.8 0 0 1-.4-3.4 6.6 6.6 0 0 0-.3-4.2c-.3-1.1.4-2.4-.3-3.1a1.5 1.5 0 0 0-2.6.8z" fill="#d09b07"/>
  <path d="M18 90.7c-.5-.2-2.7-.4-3.5-1.2s-1-2.1 0-3.9a9 9 0 0 1 5.8-3.8c2-.1 5.2.7 6.4 2.4s1.7 2.4.2 3.4-2.5 2.1-4.1 2.5-4.3.9-4.8.6z" fill="#980805" stroke="#000" stroke-linecap="round" stroke-linejoin="round" stroke-width=".4"/>
  <path d="M25.6 86.9a23.7 23.7 0 0 0-2.4 1.3c-1.2.8-3.5 2.1-4.7 1.4a9.5 9.5 0 0 0-2.6-1.4c-1-.2-1.4-1.2-.4-1.7s.7-.6 1.4-1.5a3.5 3.5 0 0 1 3.1-1.9c2.2-.1 3.3-.1 4.2.5s1.8 1 1.3 1.7" fill="none" stroke="#000" stroke-linecap="round" stroke-linejoin="round" stroke-width=".4"/>
  <path d="M23.4 86.9s1.8-1.3.5-1.8-2.4-1-3.8-.4-2.1.6-2.8 1.5.2 1.1 1 1.6a3.5 3.5 0 0 0 2.7.5" fill="none" stroke="#000" stroke-linecap="round" stroke-linejoin="round" stroke-width=".4"/>
  <path d="M19.2 86.8c.7.2 1.1.8 2 .5s2.7-1 1-1.4a3.1 3.1 0 0 0-2.5.2" fill="none" stroke="#000" stroke-linecap="round" stroke-linejoin="round" stroke-width=".4"/>
  <path d="M46.4 127.4s.9-7.3-.3-11.4-1.1-6.5-.8-7.7.6-2.5-.6-6.3c0 0-1.4-5.1-1.7-7.4s-1.1-9.7-1.6-10.6-4.1-2-4.6-.7-.9 8-1.2 9.8-.9 10.5-1.4 11.9-1.9 5.7-1.4 7.8 0 4.6-.2 6.8-.7 3.7 0 4.8 10.4 5.3 13.8 3z" fill="#325723"/>
  <path d="M38 127c-2.4-1.7-5.1-2.1-5.4-2.6s-.3-2.6 0-4.8.8-4.6.2-6.8.9-6.5 1.4-7.8 1-10 1.4-11.9.6-8.5 1.2-9.8 1-1.2 1.5-.6a4.8 4.8 0 0 1 .7 3.4c-.4 1.1-2 6.1-1.4 8.5s-.1 10.4-.7 11.3-3.1 4.4-2.3 6.3 2 .4 2.9 1.3.3 9.1.4 10.3.7 3.7.1 3.2zm2.5-43.7c.3-.4.7.4.9.7s1.4 8.4 1.6 10.6 1.7 7.4 1.7 7.4c1.2 3.8.9 5.2.6 6.3s-.3 3.6.8 7.7.3 11.4.3 11.4a5.6 5.6 0 0 1-3 .7s-.2 0 .3-2.7 1.6-7.7.9-9.7.3-8.9-.5-10.7-1.8-8.5-2.1-9.9-.8-7.4-1-8.4-.9-3.1-.5-3.4z" fill="#0d3a12"/>
  <path d="M46.4 127.4s.9-7.3-.3-11.4-1.1-6.5-.8-7.7.6-2.5-.6-6.3c0 0-1.4-5.1-1.7-7.4s-1.1-9.7-1.6-10.6-4.1-2-4.6-.7-.9 8-1.2 9.8-.9 10.5-1.4 11.9-1.9 5.7-1.4 7.8 0 4.6-.2 6.8-.7 3.7 0 4.8 10.4 5.3 13.8 3z" fill="none" stroke="#000" stroke-linecap="round" stroke-linejoin="round" stroke-width=".4"/>
  <path d="M41.6 84.4a4.7 4.7 0 0 1-3.2-.1c-1.1-.5-1.5-.3-1.6-1.1s2-1.2 3.2-.6 1.6 1.1 1.6 1.8z" fill="#980805" stroke="#000" stroke-linecap="round" stroke-linejoin="round" stroke-width=".4"/>
  <path d="M46.3 116.9a2.3 2.3 0 0 1-2.3-1.1 4.9 4.9 0 0 0-1.4-2.2c-.8-.5 0-.8-.3-2.3s-.3-3-.6-4-.2-2 .4-1.7.5 1.5.9 3 .5 1.4 1.2 2a5 5 0 0 1 1.1 1.6" fill="none" stroke="#000" stroke-linecap="round" stroke-linejoin="round" stroke-width=".4"/>
  <path d="M41.9 121.1a2.3 2.3 0 0 1-1.3-1.9c-.3-1.5-.5-2-.8-3.5a18.4 18.4 0 0 0-.6-3.2c-.3-1.1 0-2.1-.5-1.7s-.5 1.9-.6 3.7-.1 2.9-.2 4.1-.4 1.7.7 2.1 1.1.7 1.8.9 1.4.8 1.5-.5zm-3.3-21.6a11.1 11.1 0 0 1 .2-1.8c.2-1.2.5-2.7.6-3.6s.5-2.1-.4-2.3-1.1.1-1.1 2 .2 2.4-.1 3.7-1.1 1.7-.3 2.4 1.1-.4 1.1-.4z" fill="#d09b07"/>
  <path d="M45.6 129c.1-.1 1.5-.7.7-3s-5-3.2-6.5-4-4.8-.1-5.6.6-3.1 1.3-.7 3.4 5.4 3.8 7.8 3.7 3.6-.1 4.3-.7z" fill="#980805" stroke="#000" stroke-linecap="round" stroke-linejoin="round" stroke-width=".4"/>
  <path d="M41.8 128.7s2.3.4 3-1-1.4-2.7-2.7-3.7a14.3 14.3 0 0 0-4-1.4" fill="none" stroke="#000" stroke-linecap="round" stroke-linejoin="round" stroke-width=".4"/>
  <path d="M41.1 124.3s2 .9 2.2 1.9.4 1.6-.8 1.4h-3.2a4.4 4.4 0 0 1-2.5-1.5c-.8-.7-2.2-.5-1.8-1.4s.6-.8 1-1.4a1.2 1.2 0 0 1 1-.7" fill="none" stroke="#000" stroke-linecap="round" stroke-linejoin="round" stroke-width=".4"/>
  <path d="M40.3 126.5c.9-.1 1.9-.5.5-1.5s-1.7-1.7-2.9-1.6-2.4.7-1.5 1.4 1.5 0 2.5.4" fill="none" stroke="#000" stroke-linecap="round" stroke-linejoin="round" stroke-width=".4"/>
  <path d="M66.1 54.8a27.9 27.9 0 0 0-.8-8.3c-1.1-3.7-.4-5.3-1-7s-1.4-1.1-1.8-2.6-1.3-5-1-6.3a5.1 5.1 0 0 0-.5-4.1c-.9-1.6-1-4.9-1.6-6.7s-.6-5.2-1.3-6.7-2.4-2.9-3.4-.6-.4 14.3-.7 16.8a11.3 11.3 0 0 1-1.3 5.1c-.7 1.2-.4 3.3.1 4.9s-.2 4.6-.4 6-.6 5.9 0 7.6 11.5 4.5 13.7 1.9z" fill="#325723"/>
  <path d="M57.2 55.1a4.8 4.8 0 0 1-4.8-2.2c-.6-1.7-.1-6.1 0-7.6s.8-4.5.4-6-.8-3.7-.1-4.9a11.3 11.3 0 0 0 1.3-5.1c.3-2.5-.3-14.5.7-16.8a1.9 1.9 0 0 1 .5-.9s.4-.4.4 4.3-.2 8.5.3 11.3.3 9.9 1 12.2 3.2 15.2.3 15.7zm.4-42.9a1.6 1.6 0 0 1 .5.9c.7 1.5.8 4.9 1.3 6.7s.7 5.1 1.6 6.7a5.1 5.1 0 0 1 .5 4.1c-.3 1.3.6 4.8 1 6.3s1.1.9 1.8 2.6-.1 3.3 1 7c0 0-.4 1.3-1-.2s-2.2-9-3.1-10.6-.6-8-1.4-9.2-2.5-6.7-2.5-8.5-.3-6.2.3-5.8z" fill="#0d3a12"/>
  <path d="M66.1 54.8a27.9 27.9 0 0 0-.8-8.3c-1.1-3.7-.4-5.3-1-7s-1.4-1.1-1.8-2.6-1.3-5-1-6.3a5.1 5.1 0 0 0-.5-4.1c-.9-1.6-1-4.9-1.6-6.7s-.6-5.2-1.3-6.7-2.4-2.9-3.4-.6-.4 14.3-.7 16.8a11.3 11.3 0 0 1-1.3 5.1c-.7 1.2-.4 3.3.1 4.9s-.2 4.6-.4 6-.6 5.9 0 7.6 11.5 4.5 13.7 1.9z" fill="none" stroke="#000" stroke-linecap="round" stroke-linejoin="round" stroke-width=".4"/>
  <path d="M60.3 49.9a12.3 12.3 0 0 1 .7-3.2c.5-1 .2-2.9.2-3.6s-.1-1.5.4-1.8.8 2.5 1.2 3.7.2 2.1.5 1.5.7-1.3 1.1.2 1.2 4.9.7 5.7m-7.7-24.2V28a5.4 5.4 0 0 1-.2-1.7 9.4 9.4 0 0 0-.2-2.6c-.4-.7-1-1.2-.9.4s.5 1.3.4 2.9-.4 2.6.2 2.6.7-1.4.7-1.4z" fill="#d09b07"/>
  <path d="M62.1 58.8l2.7-2.2c1.1-.9 2.6-1.8.3-4.1s-6.4-3-7.8-2.3-4 .5-4.6 1.7a4 4 0 0 0 1.2 4.6c1.5 1.4 2.6 2.5 4.3 2.5s3.4.2 3.9-.2z" fill="#980805" stroke="#000" stroke-linecap="round" stroke-linejoin="round" stroke-width=".4"/>
  <path d="M54.6 52.8a4.3 4.3 0 0 1 2.7-1.1c1.9-.3 1.6-.2 3.7.5s2.8.6 3.2 1.6.3 2-1 2.4-1.1.7-2.3 1-1.5.5-2.6.1a6.1 6.1 0 0 1-2.6-1.3" fill="none" stroke="#000" stroke-linecap="round" stroke-linejoin="round" stroke-width=".4"/>
  <path d="M62.9 55.1c-.8.2-1.8 1.1-3.1 1.1a6.2 6.2 0 0 1-3.1-.7c-1.1-.4-2.5-.5-1.8-1.4s.7-1.8 2.4-1.3a8.4 8.4 0 0 0 3.1.6" fill="none" stroke="#000" stroke-linecap="round" stroke-linejoin="round" stroke-width=".4"/>
  <path d="M57.8 54.8s2.3.7 3 .4 2-.9 1-1-1.8.4-2.6.1" fill="none" stroke="#000" stroke-linecap="round" stroke-linejoin="round" stroke-width=".4"/>
  <path d="M33.8 53.5c.2-1.5-.3-5.9-.1-8.4s.9-5.8.5-7.1-1.4-1.7-1.6-3.9-1.3-11.3-1.4-13.6.4-7.9 2.5-9.2 10.4 1.2 11.9 4.2 1.1 6.2.7 10.6a54.3 54.3 0 0 0-.4 6c0 1.3-2.4 7.3-3.6 11.1s-1.8 9.5-2.2 11.8-.2 4.4-1.3 4.4-3.8-.8-4.4-1.6-.6-4.3-.6-4.3z" fill="#325723"/>
  <path d="M37.7 59.3h1.1c1.1 0 .9-2.2 1.3-4.4s1-7.9 2.2-11.8 3.6-9.8 3.6-11.1a54.3 54.3 0 0 1 .4-6c.4-4.4 1.7-7.6.2-10.6-.1-.1-1-.2-1.1-.4s-1.2.7-1 3.5.7 9 .1 11.2.3 2 .3 3.2a8.1 8.1 0 0 1-1.2 4c-.8.9-3.8 7.4-4 9.9s-.3 8.1-1.2 9.4a5.8 5.8 0 0 0-.7 3.1zM35.2 11a2.1 2.1 0 0 0-1.5.3c-2.1 1.3-2.5 6.9-2.5 9.2s1.2 11.5 1.4 13.6 1.2 2.7 1.6 3.9-.4 4.7-.5 7.1.3 6.9.1 8.4 0 3.4.6 4.3l.8.6s1.4.1.8-1.8 1.1-10 .8-12.3 2.1-9.4 1.6-12.4-2.1-4.8-2.5-8.3-.3-4 .3-6.1.6-6.2-1-6.5z" fill="#0d3a12"/>
  <path d="M33.8 53.5c.2-1.5-.3-5.9-.1-8.4s.9-5.8.5-7.1-1.4-1.7-1.6-3.9-1.3-11.3-1.4-13.6.4-7.9 2.5-9.2 11.3 1.1 12.8 4.1.2 6.3-.2 10.7a54.3 54.3 0 0 0-.4 6c0 1.3-2.4 7.3-3.6 11.1s-1.8 9.5-2.2 11.8-.2 4.4-1.3 4.4-3.8-.8-4.4-1.6-.6-4.3-.6-4.3z" fill="none" stroke="#000" stroke-linecap="round" stroke-linejoin="round" stroke-width=".4"/>
  <path d="M43.9 38.3a6.2 6.2 0 0 1 0-2.7c.3-1.8 1.8-4.4 2.6-4.1s.3 3.6-.2 4.6-1.7 2.9-2.4 2.2z" fill="#febf10" stroke="#000" stroke-linecap="round" stroke-linejoin="round" stroke-width=".4"/>
  <path d="M37.3 49.3s.2-1.3.3-2.7.1-3.2.4-4.5.1-3.3.5-3.9 1.4-1.3 1.3 1.1-1.2 2.7-1.2 4.4.5 4 .5 5.3-.1 2.4-.9 2.2-.9-1-.9-1.9zm4.3-31.7a11.5 11.5 0 0 0-.1 3.9c.3 2.3 1.2 3.4-.1 4.9s-2 2.8-2.9 1.2-.7-2.6-.9-4.5-.9-3.7-.5-4.8.6-2.3 1.6-2.6 2.9 1.9 2.9 1.9z" fill="#d09b07"/>
  <path d="M46.1 16.8a5.3 5.3 0 0 0-2.6.4c-2 .6-2.2 1.6-3.8.7s-2-2.5-3.5-3.5-3.4-1.2-2.5-3 4.7-1.1 7.3.1 7.5 4.4 5.1 5.3z" fill="#980805" stroke="#000" stroke-linecap="round" stroke-linejoin="round" stroke-width=".4"/>
  <path d="M43.8 15.2c-.1.9.5 1-1.3 1s-1.3.2-2.8-.6a21.7 21.7 0 0 1-3.2-2.4c-.8-.6-1.9-1.3-.8-1.4s1.8.6 2.6.6" fill="none" stroke="#000" stroke-linecap="round" stroke-linejoin="round" stroke-width=".4"/>
  <path d="M42.5 14.8c-.6.5-.5 1.2-1.6.4a20.6 20.6 0 0 0-2.4-1.5c-.7-.3-.7-.7.3-.7a4.6 4.6 0 0 1 2.3.3c.9.3 1.2 1.7.4 1.2" fill="none" stroke="#000" stroke-linecap="round" stroke-linejoin="round" stroke-width=".4"/>
  <path d="M28.1 56.6s.2-2 .3-4.2a12 12 0 0 0-1-6.4 38.2 38.2 0 0 1-1.6-10.8c.2-1.8-.6-9.5-.7-11.8a78.1 78.1 0 0 0-1.3-10.7c-.4-.8-3.6-3.1-4.4-.9s-1.6 7.6-1.9 9.3-1.4 11.1-2 13.1-.2 2.7-1.2 2.6-2.3-.1-2.4 1.5.2 3.7 1.1 4.3a2.8 2.8 0 0 1 1.3 1.5c.1.5-.7 4.6-.7 5.4s-1.3 4.9 2.2 6.4 6.7 2.6 9.1 2.1 2.9-.6 3.2-1.4z" fill="#325723"/>
  <path d="M18.9 57.1l-3.1-1.2c-3.5-1.5-2.2-5.7-2.2-6.4s.8-4.9.7-5.4a2.8 2.8 0 0 0-1.3-1.5c-.9-.6-1.1-2.8-1.1-4.3s1.4-1.5 2.4-1.5.6-.6 1.2-2.6 1.7-11.4 2-13.1 1.1-7.2 1.9-9.3a1.2 1.2 0 0 1 1-.9 4.2 4.2 0 0 1 1.1 3.9c-.6 2.3-.5 5.4-.8 10.5s-.8 15-.4 17.4.4 6.5.5 8.1-.2 6.9-1.9 6.3zm4.4-45c.3.1.4.5.5.6a78.1 78.1 0 0 1 1.3 10.7c.1 2.3.9 10 .7 11.8A38.2 38.2 0 0 0 27.4 46a12 12 0 0 1 1 6.4c-.1 2.2-.3 4.2-.3 4.2s-.8 1-2.7 1.4c0 0 .2-1.4.4-3.8s.7-6.7.1-8.1-3.3-5.8-2.4-9.4.2-8.5.3-10.4.2-8.6-.3-9.8-1-4.5-.2-4.4z" fill="#0d3a12"/>
  <path d="M28.1 56.6s.2-2 .3-4.2a12 12 0 0 0-1-6.4 38.2 38.2 0 0 1-1.6-10.8c.2-1.8-.6-9.5-.7-11.8a78.1 78.1 0 0 0-1.3-10.7c-.4-.8-3.6-3.1-4.4-.9s-1.6 7.6-1.9 9.3-1.4 11.1-2 13.1-.2 2.7-1.2 2.6-2.3-.1-2.4 1.5.2 3.7 1.1 4.3a2.8 2.8 0 0 1 1.3 1.5c.1.5-.7 4.6-.7 5.4s-1.3 4.9 2.2 6.4 6.7 2.6 9.1 2.1 3.1 0 3.2-1.4z" fill="none" stroke="#000" stroke-linecap="round" stroke-linejoin="round" stroke-width=".4"/>
  <path d="M26.3 38.2a3.7 3.7 0 0 0 .8-2.6c-.2-1.4-1.8-2.1-2.2-1a3.9 3.9 0 0 0 .2 3.4 1.1 1.1 0 0 0 1.2.2z" fill="#febf10" stroke="#000" stroke-linecap="round" stroke-linejoin="round" stroke-width=".4"/>
  <path d="M12.9 42.3a6.9 6.9 0 0 0 .6-2.9c-.1-1.5-.6-2.5-.9-2.5s-1.1.2-.8 2.2.3 3.8 1.1 3.2zm6.6-30.9c0 .6.5.9 2 1.6s2.4 1 2.6.4-.7-1.8-1.9-2.4-2.6-1.1-2.7.4z" fill="#980805" stroke="#000" stroke-linecap="round" stroke-linejoin="round" stroke-width=".4"/>
  <path d="M20.1 47.6c.3-.3.9-1 1.3-.4s1.1.5 1.1-.5-.1-1.3-.7-2.7a7.7 7.7 0 0 1-.5-4.3 8 8 0 0 0-.4-3 14.8 14.8 0 0 1 0-4.2c.1-.8.6-2.7.3-3.4s-.5-1.7-.9-.5-.5 4.8-.6 6-.4 2.3-.7 1.6a7.5 7.5 0 0 1-.1-2.2c0-1-1.1-1.2-1 .5s.1 5 0 6 .2 2.5.7 2.2.9-2.4 1.1-1.4-.6 3.3-.6 4.6.3 2.4 1 1.7z" fill="#d09b07"/>
  <path d="M27.8 58.1s.5-.6-.5-2.5a7 7 0 0 0-4.8-3.8c-2.5-.8-4.6-1.1-5.1-.4s-.5 1.2-1.2 1.1-1.7-.2-2 .9.1 1.7 1.7 3.2 1.6 1.3 3.7 2 2.2 1.1 4.1.7 3.5.3 4.1-1.2z" fill="#980805" stroke="#000" stroke-linecap="round" stroke-linejoin="round" stroke-width=".4"/>
  <path d="M15.7 54.1a4 4 0 0 0 1.8 2.5c1.4.7 2.4 1.3 3.9 1.2s3.5.6 4-.3.3-1.4-.1-2.4-1.2-1.8-3.3-2.3a10.5 10.5 0 0 0-4.6-.2" fill="none" stroke="#000" stroke-linecap="round" stroke-linejoin="round" stroke-width=".4"/>
  <path d="M23.4 56.8a11 11 0 0 1-3.5-.5c-1.1-.4-2.1-.4-2.5-1.2s.5-1.6 1.7-1.5 1.8.8 3 1a5 5 0 0 1 2 .8" fill="none" stroke="#000" stroke-linecap="round" stroke-linejoin="round" stroke-width=".4"/>
  <path d="M19.6 55.4s2 .8 2.7.5.1-.1-1-.6-1.9-1.2-2.1-.9" fill="none" stroke="#000" stroke-linecap="round" stroke-linejoin="round" stroke-width=".4"/>
  <path d="M64 78l-4.9.3a15.6 15.6 0 0 1-7.3-1 49.7 49.7 0 0 0-12.4-1.6c-2.1.2-10.8-.6-13.5-.7a103.5 103.5 0 0 1-12.3-1.3c-.9-.4-3.5-3.6-1-4.4s8.7-1.6 10.6-1.9 12.8-1.4 15.1-2 3.1-.2 3-1.2-.2-2.3 1.6-2.4 4.3.2 5 1.1a3.1 3.1 0 0 0 1.7 1.3c.6.1 5.3-.7 6.2-.7s5.6-1.3 7.3 2.2 3 6.7 2.5 9.1-.8 2.9-1.6 3.2z" fill="#325723"/>
  <path d="M64.5 68.8c-.4-1-.9-2-1.4-3.1-1.7-3.5-6.4-2.2-7.3-2.2s-5.6.8-6.2.7a3.1 3.1 0 0 1-1.7-1.3c-.7-.9-3.2-1.1-5-1.1s-1.7 1.4-1.6 2.4-.7.6-3 1.2-13.2 1.7-15.1 2-8.2 1.1-10.6 1.9c-.7.2-1 .5-1.1 1a5.4 5.4 0 0 0 4.5 1.1c2.7-.6 6.2-.5 12.1-.8s17.2-.8 19.9-.4 7.5.4 9.4.5 7.8-.2 7.1-1.9zM13 73.2c0 .3.4.4.6.5A103.5 103.5 0 0 0 25.9 75c2.7.1 11.4.9 13.5.7a49.7 49.7 0 0 1 12.4 1.6 15.6 15.6 0 0 0 7.3 1L64 78c.8-.3 1.1-.8 1.5-2.7l-4.2.4c-2.8.2-7.8.7-9.3.1s-6.8-3.3-10.9-2.4-9.7.2-11.9.3-9.9.2-11.2-.3-5.1-1-5-.2z" fill="#0d3a12"/>
  <path d="M64 78l-4.9.3a15.6 15.6 0 0 1-7.3-1 49.7 49.7 0 0 0-12.4-1.6c-2.1.2-10.8-.6-13.5-.7a103.5 103.5 0 0 1-12.3-1.3c-.9-.4-3.5-3.6-1-4.4s8.7-1.6 10.6-1.9 12.8-1.4 15.1-2 3.1-.2 3-1.2-.2-2.3 1.6-2.4 4.3.2 5 1.1a3.1 3.1 0 0 0 1.7 1.3c.6.1 5.3-.7 6.2-.7s5.6-1.3 7.3 2.2 3 6.7 2.5 9.1-.1 3.1-1.6 3.2z" fill="none" stroke="#000" stroke-linecap="round" stroke-linejoin="round" stroke-width=".4"/>
  <path d="M42.9 76.2a5 5 0 0 1-3 .8c-1.6-.2-2.4-1.8-1.2-2.2s3.4-.3 3.9.2a1.1 1.1 0 0 1 .3 1.2z" fill="#febf10" stroke="#000" stroke-linecap="round" stroke-linejoin="round" stroke-width=".4"/>
  <path d="M47.5 62.8a8.7 8.7 0 0 1-3.3.6c-1.6-.1-2.9-.6-2.9-.9s.3-1.1 2.6-.8 4.4.3 3.6 1.1zm-35.4 6.6c.7 0 1.1.5 1.8 2s1.2 2.4.5 2.6-2.1-.7-2.8-1.9-1.2-2.6.5-2.7zm53.6 8.3s-.6.5-2.5-.5a7 7 0 0 1-3.8-4.8c-.7-2.5-1.1-4.6-.4-5.1s1.2-.5 1.1-1.2-.2-1.7.9-2 1.7.1 3.2 1.7 1.3 1.6 2 3.7 1 2.2.7 4.1.3 3.5-1.2 4.1z" fill="#980805" stroke="#000" stroke-linecap="round" stroke-linejoin="round" stroke-width=".4"/>
  <path d="M61.7 65.6a4 4 0 0 1 2.5 1.8 8.1 8.1 0 0 1 1.2 3.9c-.1 1.6.6 3.5-.3 4s-1.4.3-2.4-.1-1.8-1.2-2.3-3.3-.4-4.4-.1-4.6" fill="none" stroke="#000" stroke-linecap="round" stroke-linejoin="round" stroke-width=".4"/>
  <path d="M64.4 73.3a11 11 0 0 0-.5-3.5c-.4-1.1-.4-2.1-1.2-2.5s-1.6.5-1.5 1.7.8 1.8 1 3a5 5 0 0 0 .8 2" fill="none" stroke="#000" stroke-linecap="round" stroke-linejoin="round" stroke-width=".4"/>
  <path d="M63 69.5s.8 2 .5 2.7-.1.1-.6-1-1.2-1.9-.8-2.1" fill="none" stroke="#000" stroke-linecap="round" stroke-linejoin="round" stroke-width=".4"/>
  <path d="M34.3 70.8a30.8 30.8 0 0 0 5.7.2c2.8-.2 4.3-.8 6.6-.2s7.1 1.7 8.1 1.3 4.3-2.7 1.8-2.7a34 34 0 0 1-6.8-.4 17.6 17.6 0 0 0-7.7-.6 56.1 56.1 0 0 1-9.5.6c-2.4 0-5.7-.1-6.3.5s2.1 1.4 4 1.3 3.8-.7 4.1 0z" fill="#d09b07"/>
  <path fill="none" stroke="#000" stroke-linecap="round" stroke-linejoin="round" stroke-width=".4" d="M8 7.9h62v124.31H8z"/>
</svg>
