<svg xmlns="http://www.w3.org/2000/svg" viewBox="0 0 78 140">
  <rect width="78" height="140" rx="6" ry="6" fill="#fff"/>
  <path d="M41.9 29a16.4 16.4 0 0 0 1.6 2.6c.7.8-.6 4.3-.6 4.3l-4.5 1.4-4.8-2.2-1.4-2.2 1.7-.8.6-2 4.9-1.2z" fill="#f3bc84"/>
  <path d="M38.9 29.3s.3 4.2-.7 5.5 4.1-2 4.1-2l.3-1.5-.9-1.3-.3-1.3z" fill="#c69c6d"/>
  <path fill="red" d="M28.8 58.7l-4.6 7.2-.1 4.1 28-.1-2.3-9.7-1.8-1.8-19.2.3zm-3.9-10.8s1.4 3.9 2.1 4.6a11.2 11.2 0 0 0 1.5 4.3l14.4 1.3 5.5-1.8a11.4 11.4 0 0 1 1.8-2.9c.7-.4 6.7-11 4.8-13.5s-29.8-1.4-29.8-1.4z"/>
  <path d="M50.8 46.4s-4.1 6.2-5 10.5l2.6-.6 2-3.4 1-6.2zm-6 13s2.2 4.2 1.9 7.2l2.5-1 1.2-4-2.1-3.1z" fill="#980805"/>
  <path d="M24.9 47.9s1.4 3.9 2.1 4.6a11.2 11.2 0 0 0 1.5 4.3l14.4 1.3 5.5-1.8a11.4 11.4 0 0 1 1.8-2.9c.7-.4 6.7-11 4.8-13.5s-29.8-1.4-29.8-1.4z" fill="none" stroke="#000" stroke-linecap="round" stroke-linejoin="round" stroke-width=".4"/>
  <path d="M62 54.3a4.2 4.2 0 0 0-4.3 2.1 5.5 5.5 0 0 0-.5 1.4l4.4 5a6.2 6.2 0 0 0 5.1-4.2c.5-2-2.7-5.7-2.7-5.7-.3-1.6-2.8-5.2-2.8-5.2s-5.1-.2-6.7 2.7c0 0 .7 4.7 3 6.4" fill="red"/>
  <path d="M59.2 48.5s2.9 3 2.1 5.8c0 0-.4-.2-.7 2s2.2 5.1 4.2 5c0 0 2.1-1.6 2-3.4s-2.9-5.1-2.9-5.1l-1.7-3.6-.9-1.4s-1.9.3-2.1.7z" fill="#980805"/>
  <path d="M18.2 51.2l.6-.2a6.3 6.3 0 0 0 1.8-1.1s-.9-6.3-6.2-5.6a37.4 37.4 0 0 0-3.7 4.8c-.9 1.8-2.2 3.6-1 4.8s3.8 4.1 5.4 4.7a18.1 18.1 0 0 1 3.5 2.3s3.9-2.6 4.1-4.1a13.2 13.2 0 0 0-2.3-2.5 5.9 5.9 0 0 0-3.6-3.7" fill="red"/>
  <path d="M19 48.2a8 8 0 0 0-2 2.4l1.2.8 2-1.2-.9-2.1z" fill="#980805"/>
  <path d="M16.7 50.8s-1.2 2.9.6 4.3a23.3 23.3 0 0 0 5.1 2.6v-1.3l-2.2-2.2-.9-1.8-1.6-1.4-.8-.4z" fill="#980805"/>
  <path d="M62 54.3a4.2 4.2 0 0 0-4.3 2.1 5.5 5.5 0 0 0-.5 1.4l4.4 5a6.2 6.2 0 0 0 5.1-4.2c.5-2-2.7-5.7-2.7-5.7-.3-1.6-2.8-5.2-2.8-5.2s-5.1-.2-6.7 2.7c0 0 .7 4.7 3 6.4m-39.3-5.6l.6-.2a6.3 6.3 0 0 0 1.8-1.1s-.9-6.3-6.2-5.6a37.4 37.4 0 0 0-3.7 4.8c-.9 1.8-2.2 3.6-1 4.8s3.8 4.1 5.4 4.7a18.1 18.1 0 0 1 3.5 2.3s3.9-2.6 4.1-4.1a13.2 13.2 0 0 0-2.3-2.5 5.9 5.9 0 0 0-3.6-3.7" fill="none" stroke="#000" stroke-linecap="round" stroke-linejoin="round" stroke-width=".4"/>
  <path d="M53.1 33s5.9 2.6 7.5 6a4.2 4.2 0 0 1 1.5 4 4.5 4.5 0 0 1-.6 2.6s.4 1.4-.3 2.1-3.7.1-5.3 2.7c0 0-4.7-6.2-5.5-8.2a6 6 0 0 1-1.1-3.9s.1-5.9 3.8-5.3z" fill="#325723"/>
  <path d="M57.3 40s2.6 4.2 2.4 8.1l1.5-.4.5-1.4-.2-.7.7-1.7v-2.8l-1-1.7-.6-.6-.8-1.2h-.5z" fill="#0d3a12"/>
  <path d="M53.1 33s5.9 2.6 7.5 6a4.2 4.2 0 0 1 1.5 4 4.5 4.5 0 0 1-.6 2.6s.4 1.4-.3 2.1-3.7.1-5.3 2.7c0 0-4.7-6.2-5.5-8.2a6 6 0 0 1-1.1-3.9s.1-5.9 3.8-5.3z" fill="none" stroke="#000" stroke-linecap="round" stroke-linejoin="round" stroke-width=".4"/>
  <path d="M53.1 33s5.9 2.6 7.5 6a4.2 4.2 0 0 1 1.5 4 4.5 4.5 0 0 1-.6 2.6s.4 1.4-.3 2.1-3.7.1-5.3 2.7c0 0-4.7-6.2-5.5-8.2a6 6 0 0 1-1.1-3.9s.1-5.9 3.8-5.3z" fill="none" stroke="#000" stroke-linecap="round" stroke-linejoin="round" stroke-width=".4"/>
  <path d="M25.4 35s-5.1-1.6-8.1 1.4-3.9 4-3.8 5.7a2.8 2.8 0 0 0 1.3 2.4 10.1 10.1 0 0 1 5.6 5.8 5.9 5.9 0 0 0 4.1-1.7 6.9 6.9 0 0 0 3.9-4.1s1.4-8.4-3-9.5z" fill="#325723"/>
  <path d="M27.5 39.5S29.1 52 33 57h8.9s5.1-10.2 5.5-15.5c0 0 3.8-4 4.3-8.2v-.4h-3.4l-21.5 4.6z" fill="#f2f2f2" stroke="#000" stroke-linecap="round" stroke-linejoin="round" stroke-width=".4"/>
  <path d="M26.5 37.9s-1.6 1.1-2.4 4.3-4.7 5.9-4.7 5.9l1 2.2 3-.9 1.1-.8 2.8-2 1.2-2.3.2-4.2-1.9-2.6z" fill="#0d3a12"/>
  <path d="M25.4 35s-5.1-1.6-8.1 1.4-3.9 4-3.8 5.7a2.8 2.8 0 0 0 1.3 2.4 10.1 10.1 0 0 1 5.6 5.8 5.9 5.9 0 0 0 4.1-1.7 6.9 6.9 0 0 0 3.9-4.1s1.4-8.4-3-9.5z" fill="none" stroke="#000" stroke-linecap="round" stroke-linejoin="round" stroke-width=".4"/>
  <path d="M40.5 70l2.1-1.6c.1-.1.1-.2.2-.4a.8.8 0 0 0-.2-.4l-2.1-1.8 1.8-2.4a.5.5 0 0 0 0-.7l-3.4-2.8a.4.4 0 0 0-.7.1.6.6 0 0 0 .1.7l3 2.4-1.8 2.4a.5.5 0 0 0 0 .7l2 1.8-2.6 2" fill="#febf10" stroke="#000" stroke-linecap="round" stroke-linejoin="round" stroke-width=".4"/>
  <circle cx="43.4" cy="61.2" r=".8" fill="#325723" stroke="#000" stroke-linecap="round" stroke-linejoin="round" stroke-width=".4"/>
  <circle cx="43.9" cy="68.4" r=".8" fill="#325723" stroke="#000" stroke-linecap="round" stroke-linejoin="round" stroke-width=".4"/>
  <circle cx="42.8" cy="65.4" r=".8" fill="#325723" stroke="#000" stroke-linecap="round" stroke-linejoin="round" stroke-width=".4"/>
  <path d="M34.5 70l-2.1-1.6a.5.5 0 0 1-.2-.4.8.8 0 0 1 .2-.4l2-1.8-1.8-2.4a.6.6 0 0 1 .1-.7l3.3-2.8c.3-.2.6-.2.7.1a.5.5 0 0 1 0 .7l-3 2.4 1.8 2.4a.5.5 0 0 1-.1.7L33.5 68l2.5 2" fill="#febf10" stroke="#000" stroke-linecap="round" stroke-linejoin="round" stroke-width=".4"/>
  <path fill="#325723" d="M41.2 54.9l-7.9.2V38.2h8.9l-1 16.7z"/>
  <path fill="#febf10" stroke="#000" stroke-linecap="round" stroke-linejoin="round" stroke-width=".4" d="M37.9 44.1l-3.2-2.3 3.4-2 3.2 2.3-3.4 2z"/>
  <path fill="red" stroke="#000" stroke-linecap="round" stroke-linejoin="round" stroke-width=".4" d="M38 43l-1.5-1.1 1.6-.9 1.4 1-1.5 1z"/>
  <path fill="#febf10" stroke="#000" stroke-linecap="round" stroke-linejoin="round" stroke-width=".4" d="M37.7 48.6l-3.2-2.3 3.4-2 3.2 2.3-3.4 2z"/>
  <path fill="red" stroke="#000" stroke-linecap="round" stroke-linejoin="round" stroke-width=".4" d="M37.8 47.5l-1.5-1.1 1.6-.9 1.4 1-1.5 1z"/>
  <path fill="#febf10" stroke="#000" stroke-linecap="round" stroke-linejoin="round" stroke-width=".4" d="M37.6 53.2l-3.3-2.3 3.4-2 3.2 2.3-3.3 2z"/>
  <path fill="red" stroke="#000" stroke-linecap="round" stroke-linejoin="round" stroke-width=".4" d="M37.6 52l-1.5-1 1.6-1 1.5 1.1-1.6.9z"/>
  <path d="M30.1 33.3L25.4 35a16.7 16.7 0 0 0 3.9 6.2c.1 3 1.5 10.2 5.4 18.1l3.7-2.2a40.1 40.1 0 0 1-4.1-17v-1.5l-1.2-.7a10.6 10.6 0 0 1-3-4.6z" fill="#febf10" stroke="#000" stroke-linecap="round" stroke-linejoin="round" stroke-width=".4"/>
  <path d="M45 31.8c0 .1-.7 4.7-2.3 5.8l-1 .7v1.2c-.1.1-1 10.9-5.1 17.6l2.8 2.3c3.9-6.5 6.8-15.3 7.1-18.4 3-2.8 3.6-8.1 3.6-8.1a13.6 13.6 0 0 1-4.7-1.1s-.3-.1-.4 0z" fill="#febf10" stroke="#000" stroke-linecap="round" stroke-linejoin="round" stroke-width=".4"/>
  <path d="M38 39.7h-.4c-5.9-.3-7.4-6-7.6-6.3l2.3-.6s1.9 4.1 5.4 4.2 5.6-4.3 5.7-5.8l2.1.7c-.3 2.7-2.5 7.7-7.5 7.8z" fill="#f2f2f2"/>
  <path d="M30.5 34.1l.9.2v1.2c-.1.1 0 .3.1.4a.4.4 0 0 0 .4.2H33v1.3a.4.4 0 0 0 .2.4.4.4 0 0 0 .5.1l1.4-.4.4 1.4a.3.3 0 0 0 .3.3.4.4 0 0 0 .5-.1l1-.9.9 1.3.4.2h.1a.5.5 0 0 0 .4-.3l.7-1.4 1.6.6h.5a.8.8 0 0 0 .2-.4l.2-1.6h1.6a.8.8 0 0 0 .2-.4v-1.8l.9-.5a.6.6 0 0 0 .3-.6l-.3-1.5-.4-.2-.4.3.2 1.3-.9.5a.5.5 0 0 0-.3.5v1.3h-1.5c-.2 0-.5.2-.5.4l-.2 1.6-1.4-.6h-.4a.3.3 0 0 0-.3.3l-.5 1-.7-1a.5.5 0 0 0-.4-.2c-.1-.1-.3 0-.4.1l-.9.7-.3-1.1c-.1-.1-.2-.3-.3-.3a.3.3 0 0 0-.4 0l-1.2.3v-1.1a.8.8 0 0 0-.2-.4c-.1-.1-.3-.2-.4-.1h-1l.2-1c.1-.2.1-.3 0-.4a.5.5 0 0 0-.4-.2l-1.3-.3-.6.2z" fill="red"/>
  <path d="M44.8 31.8l.3 1.5a.6.6 0 0 1-.3.6l-.9.5V36a.8.8 0 0 1-.2.4h-1.6l-.2 1.6a.8.8 0 0 1-.2.4h-.5l-1.6-.6-.7 1.4a.5.5 0 0 1-.4.3h-.1l-.4-.2-.9-1.3-1 .9a.4.4 0 0 1-.5.1.3.3 0 0 1-.3-.3l-.4-1.4-1.4.4a.4.4 0 0 1-.5-.1.4.4 0 0 1-.2-.4V36h-1a.4.4 0 0 1-.4-.2c-.1-.1-.2-.3-.1-.4v-1.1l-.9-.2" fill="none" stroke="#000" stroke-linecap="round" stroke-linejoin="round" stroke-width=".4"/>
  <path d="M30.7 33.2l1.3.3a.5.5 0 0 1 .4.2c.1.1.1.2 0 .4l-.2 1h1.1c.1-.1.3 0 .4.1a.8.8 0 0 1 .2.4v1.1l1.2-.3a.3.3 0 0 1 .4 0c.1 0 .2.2.3.3l.3 1.1.9-.7c.1-.1.3-.2.4-.1a.5.5 0 0 1 .4.2l.7 1 .5-1a.3.3 0 0 1 .3-.3h.4l1.4.6.2-1.5c0-.2.3-.4.5-.4H43v-1.4a.5.5 0 0 1 .3-.5l.9-.5-.2-1.3" fill="none" stroke="#000" stroke-linecap="round" stroke-linejoin="round" stroke-width=".4"/>
  <path d="M38 39.7h-.4c-5.9-.3-7.4-6-7.6-6.3l2.3-.6s1.9 4.1 5.4 4.2 5.6-4.3 5.7-5.8l2 .7c-.2 2.7-2.4 7.7-7.4 7.8z" fill="none" stroke="#000" stroke-linecap="round" stroke-linejoin="round" stroke-width=".4"/>
  <path d="M37.9 37h-.3c-3.6-.2-5.6-4.1-5.7-4.2l1.7-.7c.1 0 1.7 2.7 4.1 2.9s4.8-2.6 5.3-4.1l1.3.5c-.6 1.9-2.8 5.6-6.4 5.6z" fill="#febf10"/>
  <path d="M22.8 64.2s-5-2.8-3.8-3.3 4.1-4.4 4.1-4.4 3.4 2.8 3.5 4.2a8.8 8.8 0 0 1-3.8 3.5z" fill="#febf10" stroke="#000" stroke-linecap="round" stroke-linejoin="round" stroke-width=".4"/>
  <path d="M18.3 61.5l-.2-.3a.7.7 0 0 1 .3-.6 5.7 5.7 0 0 0 3.9-4.3c.1-.3.3-.5.6-.4s.4.3.4.5a6.6 6.6 0 0 1-4.5 5.1.4.4 0 0 1-.5 0z" fill="#325723" stroke="#000" stroke-linecap="round" stroke-linejoin="round" stroke-width=".4"/>
  <circle cx="24.5" cy="59.1" r=".4" fill="#325723" stroke="#000" stroke-linecap="round" stroke-linejoin="round" stroke-width=".3"/>
  <circle cx="23.6" cy="60.2" r=".4" fill="#325723" stroke="#000" stroke-linecap="round" stroke-linejoin="round" stroke-width=".3"/>
  <circle cx="22.5" cy="61.1" r=".4" fill="#325723" stroke="#000" stroke-linecap="round" stroke-linejoin="round" stroke-width=".3"/>
  <circle cx="21.3" cy="62" r=".4" fill="#325723" stroke="#000" stroke-linecap="round" stroke-linejoin="round" stroke-width=".3"/>
  <path d="M54.6 60.4a7.6 7.6 0 0 1 3.1-2.1c1.5-.4 3.7 5 3.7 5s-2.6 1.8-3.9 1.7-.9-3.8-2.9-4.6z" fill="#febf10" stroke="#000" stroke-linecap="round" stroke-linejoin="round" stroke-width=".4"/>
  <path d="M61.7 63.6h-.3c-.2 0-.5-.2-.5-.4-.7-3.7-3.4-4.6-3.5-4.6a.7.7 0 0 1-.4-.6.6.6 0 0 1 .7-.3 6.7 6.7 0 0 1 4.1 5.4.4.4 0 0 1-.1.5z" fill="#325723" stroke="#000" stroke-linecap="round" stroke-linejoin="round" stroke-width=".4"/>
  <circle cx="56.7" cy="59.8" r=".4" fill="#325723" stroke="#000" stroke-linecap="round" stroke-linejoin="round" stroke-width=".3"/>
  <circle cx="57.7" cy="60.9" r=".4" fill="#325723" stroke="#000" stroke-linecap="round" stroke-linejoin="round" stroke-width=".3"/>
  <circle cx="58.5" cy="62.1" r=".4" fill="#325723" stroke="#000" stroke-linecap="round" stroke-linejoin="round" stroke-width=".3"/>
  <circle cx="59.3" cy="63.4" r=".4" fill="#325723" stroke="#000" stroke-linecap="round" stroke-linejoin="round" stroke-width=".3"/>
  <path d="M37.9 37h-.3c-3.6-.2-5.6-4.1-5.7-4.2l1.7-.7c.1 0 1.7 2.7 4.1 2.9s4.8-2.6 5.3-4.1l1.3.5c-.6 1.9-2.8 5.6-6.4 5.6z" fill="none" stroke="#000" stroke-linecap="round" stroke-linejoin="round" stroke-width=".4"/>
  <path d="M29.5 34.6c.7 1.5 1.9 3.4 3.1 4.1l.7.5v.9a41.5 41.5 0 0 0 3.8 16.6l-1.9 1.2c-3.5-7.3-4.8-14-4.9-16.7a.9.9 0 0 0-.3-.7 14.5 14.5 0 0 1-3.3-4.9l2.8-1" fill="#d09b07" stroke="#000" stroke-linecap="round" stroke-linejoin="round" stroke-width=".4"/>
  <path d="M29.2 37s-.2.7.5.6 1-.7.3-1.6a1.3 1.3 0 0 0-2.1 1.1 2.8 2.8 0 0 0 3.1 2.4 1.6 1.6 0 0 1 2 2c-.3 1-1.6 1-1.8.3s.1-1.1.7-.9" fill="none" stroke="#000" stroke-linecap="round" stroke-linejoin="round" stroke-width=".4"/>
  <path d="M46.2 33.2l2.6.6a11.1 11.1 0 0 1-3.1 6.5 1.6 1.6 0 0 0-.3.6c-.3 2.5-3 10.8-6.4 17.1l-1.1-1.2c3.8-7 4.6-17.1 4.7-17.2v-.8l.6-.4c1.7-1 2.7-3.8 2.9-5.2" fill="#d09b07" stroke="#000" stroke-linecap="round" stroke-linejoin="round" stroke-width=".4"/>
  <path d="M32.9 48.4s.4-.5-.3-.8-1.2.3-.7 1.4 1.5.9 2-.2-.3-2.7-1.8-3.4a1.8 1.8 0 0 1-.8-2.6.9.9 0 0 1 1.6.4c0 .7-.6 1-1.1.6m2 6.6s-.4.5.3.7.7-.3.5-.9a.9.9 0 0 0-1.7.1 2.2 2.2 0 0 0 1.7 2.8c1.3.4 1.4 1.9.7 2.3s-1.3.2-1.3-.4.4-.9.9-.5m5.8-1.6s-.2-.6.2-.7.8.2.3 1.1-1 .6-1.3-.2a3 3 0 0 1 2-3.1c1.5-.5 1.6-3 1.4-3.5s-1.7-.3-1.8.4 1 1.3 1.1.8m1.6-7.6a.6.6 0 0 1-.4.9c-.5.2-1.4-.3-1-1.4a1.4 1.4 0 0 1 2.4.1c.5 1.4-.3 2.7-1.8 3.4a1.7 1.7 0 0 0-.8 2.6.9.9 0 0 0 1.6-.4c0-.8-.6-1.1-1.1-.6m2.8-6s-.4-.5.3-.7.7.3.5 1a.9.9 0 0 1-1.7-.1 2.2 2.2 0 0 1 1.7-2.9 1.3 1.3 0 0 0 .7-2.3.9.9 0 0 0-1.4.5c0 .6.5.8.9.5" fill="none" stroke="#000" stroke-linecap="round" stroke-linejoin="round" stroke-width=".4"/>
  <path d="M36.8 60.1a33.4 33.4 0 0 1-7.8-.7 1.5 1.5 0 1 1 .7-2.9 49.3 49.3 0 0 0 17.4-.4 1.5 1.5 0 0 1 1.7 1.2 1.6 1.6 0 0 1-1.2 1.8 67.5 67.5 0 0 1-10.8 1z" fill="#0065b7" stroke="#000" stroke-linecap="round" stroke-linejoin="round" stroke-width=".4"/>
  <path fill="#febf10" stroke="#000" stroke-linecap="round" stroke-linejoin="round" stroke-width=".4" d="M35.1 60.7l-1.5-2.5 1.5-2.4h5.1l1.5 2.4-1.5 2.5h-5.1z"/>
  <path fill="#d09b07" stroke="#000" stroke-linecap="round" stroke-linejoin="round" stroke-width=".4" d="M35.7 60l-1.1-1.7 1.1-1.8h3.8l1.2 1.8-1.2 1.7h-3.8z"/>
  <circle cx="37.7" cy="58.3" r="1.5" fill="#0065b7" stroke="#000" stroke-linecap="round" stroke-linejoin="round" stroke-width=".4"/>
  <circle cx="27.9" cy="48" r=".7" fill="#0d3a12" stroke="#000" stroke-linecap="round" stroke-linejoin="round" stroke-width=".4"/>
  <circle cx="28.5" cy="50" r=".7" fill="#0d3a12" stroke="#000" stroke-linecap="round" stroke-linejoin="round" stroke-width=".4"/>
  <circle cx="29.1" cy="52" r=".7" fill="#0d3a12" stroke="#000" stroke-linecap="round" stroke-linejoin="round" stroke-width=".4"/>
  <path d="M26.7 61.5l-2.8 2.8a4.2 4.2 0 0 0-.5 2.3l.3 1.1-.2-.6v-.5s-1.8-.3-2.2 0-.3.5.4.7h.1c-.4 0-1-.4-1.5-.4s-.3.8.4 1.1h-.5c-.4-.2-1.2.1 0 .9a4.1 4.1 0 0 0 2.9.6l.2.2c-.5.2-1 .4-1 .6h2.2l3-6.1c.2-2.4-.8-2.7-.8-2.7zm-5.1 6.6H23a3.3 3.3 0 0 1-1.4 0z" fill="#f3bc84"/>
  <circle cx="29.9" cy="53.9" r=".7" fill="#0d3a12" stroke="#000" stroke-linecap="round" stroke-linejoin="round" stroke-width=".4"/>
  <circle cx="30.9" cy="55.9" r=".7" fill="#0d3a12" stroke="#000" stroke-linecap="round" stroke-linejoin="round" stroke-width=".4"/>
  <circle cx="47.6" cy="46.9" r=".7" fill="#0d3a12" stroke="#000" stroke-linecap="round" stroke-linejoin="round" stroke-width=".4"/>
  <circle cx="48.3" cy="44.7" r=".7" fill="#0d3a12" stroke="#000" stroke-linecap="round" stroke-linejoin="round" stroke-width=".4"/>
  <circle cx="48.9" cy="42.6" r=".7" fill="#0d3a12" stroke="#000" stroke-linecap="round" stroke-linejoin="round" stroke-width=".4"/>
  <circle cx="47" cy="49" r=".7" fill="#0d3a12" stroke="#000" stroke-linecap="round" stroke-linejoin="round" stroke-width=".4"/>
  <circle cx="46.2" cy="51" r=".7" fill="#0d3a12" stroke="#000" stroke-linecap="round" stroke-linejoin="round" stroke-width=".4"/>
  <circle cx="45.4" cy="53.1" r=".7" fill="#0d3a12" stroke="#000" stroke-linecap="round" stroke-linejoin="round" stroke-width=".4"/>
  <circle cx="44.4" cy="55.3" r=".7" fill="#0d3a12" stroke="#000" stroke-linecap="round" stroke-linejoin="round" stroke-width=".4"/>
  <path d="M60 11.4s-.8-.9-3.1.8-3.7 1.5-4.4 4.4-.2 8.6-.5 10-1 2-.8 3-.3 17.8-.7 19.5-1.1 11.3-1.1 11.6-.7 8.3-.7 8.3l4.9-4.9s2.8-15.2 3.4-17 3.3-12.6 3.9-13.4a3.9 3.9 0 0 0 .6-2.5c0-.8 3.1-10.8 3.3-12.4a6.1 6.1 0 0 0-1.1-4.3c-.9-.9-2.7-3.3-3.7-3.1z" fill="#856353"/>
  <path d="M52.1 65.6l1.5-1.5s2.8-15.2 3.4-17 3.3-12.6 3.9-13.4a3.9 3.9 0 0 0 .6-2.5c0-.8 3.1-10.8 3.3-12.4a6.1 6.1 0 0 0-1.1-4.3l-1.6-1.8s-1.1-.9-.9.6.7 2.3.7 3.6-1.5 5.9-2.2 9.7-1.7 9.1-2.3 12-2.5 10.7-2.9 12.6-3.7 11.9-2.4 14.4z" fill="#534741"/>
  <path d="M60 11.4s-.8-.9-3.1.8-3.7 1.5-4.4 4.4-.2 8.6-.5 10-1 2-.8 3-.3 17.8-.7 19.5-1.1 11.3-1.1 11.6-.7 8.3-.7 8.3l4.9-4.9s2.8-15.2 3.4-17 3.3-12.6 3.9-13.4a3.9 3.9 0 0 0 .6-2.5c0-.8 3.1-10.8 3.3-12.4a6.1 6.1 0 0 0-1.1-4.3c-.9-.9-2.7-3.3-3.7-3.1z" fill="none" stroke="#000" stroke-linecap="round" stroke-linejoin="round" stroke-width=".4"/>
  <path d="M67.4 21.2c-.2.3-.6-.1-.6-.2a.5.5 0 0 0-.8 0c-.3.4-.8 1.1-1.1.9s-.3-.3-.3-.3c0 .4-.2.7-.5.7s-.7-.2-.7-.5v-.2h.1a.7.7 0 0 0 .6-.7c-.1-.3-.4-.6-.7-.5a.5.5 0 0 0-.5.6.4.4 0 0 0 .1.3.6.6 0 0 1-.6.3 1.1 1.1 0 0 1-1.3-1.1V20h.2a.6.6 0 0 0 .7-.3.6.6 0 0 0-.4-.7l.2-.3a.4.4 0 0 0-.4-.6.5.5 0 0 0-.7.3.4.4 0 0 0 .1.3h-.1a.6.6 0 0 0-.7.4c-.1.2.1.5.4.6h.1a1.8 1.8 0 0 1-1.4.8 1.7 1.7 0 0 1-1.3-.7.6.6 0 0 0 .5-.6.9.9 0 0 0-.7-.6c-.3.1-.6.4-.5.7a.5.5 0 0 0 .2.4l-.6.4a1.4 1.4 0 0 1-1.4-1.2v-.3h.2a.6.6 0 0 0 .6-.5.6.6 0 0 0-.5-.6.1.1 0 0 1-.1.1.5.5 0 0 0 .2-.4.5.5 0 0 0-.5-.5.6.6 0 0 0-.6.5.4.4 0 0 0 .1.3h-.1a.6.6 0 0 0-.6.5.5.5 0 0 0 .5.5c.1.1.2 0 .3 0v.5a1.3 1.3 0 0 1-1.1 1.2c-.5 0-.6-.1-.7-.4a.5.5 0 0 0 .3-.5c0-.4-.3-.6-.7-.6a.8.8 0 0 0-.5.7.7.7 0 0 0 .4.5.7.7 0 0 1-.6.7.7.7 0 0 1-.7-.6.5.5 0 0 1 .3-.5v-.6l-.3-.2c-.2 0-.2-.2-.5-.4s-.7.1-.9.2-.8-.6-1-.7-1.2-.2-1.2.4.7.4.9.4h.3l2.6 2.6 13 2.6 1.7-1.4s.5.3.7-.1.6-.5.9-.4 1.1.2 1-.5-1.1-.4-1.3-.2z" fill="#febf10" stroke="#000" stroke-linecap="round" stroke-linejoin="round" stroke-width=".4"/>
  <path d="M52 23.2l-.4-1.8c.3 0 7-1.3 12.7 2.3l-.9 1.5c-5.1-3.2-11.3-2-11.4-2z" fill="red" stroke="#000" stroke-linecap="round" stroke-linejoin="round" stroke-width=".4"/>
  <path d="M51.3 21.9a.2.2 0 0 1-.2-.2.3.3 0 0 1 .3-.5 18.8 18.8 0 0 1 13.3 2.3.4.4 0 0 1 .2.5c-.2.2-.4.3-.6.2a19.3 19.3 0 0 0-12.7-2.3.2.2 0 0 1-.3 0z" fill="#febf10" stroke="#000" stroke-linecap="round" stroke-linejoin="round" stroke-width=".4"/>
  <path d="M51.7 23.6c-.1 0-.2-.1-.2-.3s.1-.4.3-.4 5.1-1.3 11.8 1.9a.5.5 0 0 1 .2.6.4.4 0 0 1-.5.2c-6.4-3.2-11.3-2-11.3-2z" fill="#febf10" stroke="#000" stroke-linecap="round" stroke-linejoin="round" stroke-width=".4"/>
  <path d="M56.6 28.7s-1.6-1.3-2.2.1-.4 8.3-1.3 10-1.4 10-1.4 11.3-.2 1.1-.2 2.9a33.5 33.5 0 0 1-1 6.1c-.3.7-.9 4-.3 4.8s1.3-2.3 2-4.3 2.2-6.2 2.1-8.1.6-9.4 1.4-11.1 1.9-10.5.9-11.7z" fill="#a77e6a"/>
  <path d="M54.2 60.9a14.2 14.2 0 0 0-3.7 2.2 19.4 19.4 0 0 0-2.9 2.9l-1.5 1c-.7.5-1.2.9-1.1 1.4s1 .3 1.3 0l.3-.5a4.4 4.4 0 0 0-.7 2h6.8a8.2 8.2 0 0 0 1.1-2.8 2.4 2.4 0 0 1 1.2-1.6 12.4 12.4 0 0 1 1.9-.7 4.8 4.8 0 0 0-2.7-3.9z" fill="#f3bc84"/>
  <path d="M54.2 60.9a14.2 14.2 0 0 0-3.7 2.2c-2.1 1.7-3 2.8-3.5 3.9a7.7 7.7 0 0 0-1.1 2.8" fill="none" stroke="#000" stroke-linecap="round" stroke-linejoin="round" stroke-width=".4"/>
  <path d="M47.5 66.1l-1.4.9c-.7.5-1.2.9-1.1 1.4s1 .3 1.3 0m1.4.4a4.1 4.1 0 0 0-.2 1m9.4-5a12.4 12.4 0 0 0-1.9.7 2.4 2.4 0 0 0-1.2 1.7 7.2 7.2 0 0 1-1.2 2.7m-28.9-2a9.7 9.7 0 0 1-3.1.1c-.7-.3-.9-1.1-.4-1.1s1.1.4 1.5.4l1.8-.2m3.2-5.6s.9.1.6 2.4" fill="none" stroke="#000" stroke-linecap="round" stroke-linejoin="round" stroke-width=".4"/>
  <path d="M23.9 64.3a4.2 4.2 0 0 0-.5 2.3c.2 1 .7 2.1.3 2.6a4.2 4.2 0 0 1-1.4.8" fill="none" stroke="#000" stroke-linecap="round" stroke-linejoin="round" stroke-width=".4"/>
  <path d="M23.4 66.6s-1.8-.3-2.2 0-.3.5.4.7a6.1 6.1 0 0 0 1.9-.2m-.4 2.5a6.5 6.5 0 0 1-3-.8c-1.2-.8-.4-1.1 0-.9s2.6.5 3.4 0" fill="none" stroke="#000" stroke-linecap="round" stroke-linejoin="round" stroke-width=".4"/>
  <path d="M57.8 65.5h-.2a.5.5 0 0 1-.6-.4c-.6-3.2-2.6-4.4-2.7-4.4a.5.5 0 0 1 .5-.9A7.5 7.5 0 0 1 58 65c0 .2 0 .4-.2.5zm-35.3-.8l-.2-.2a.5.5 0 0 1 .3-.7 6.6 6.6 0 0 0 3.7-3.6c0-.3.3-.4.6-.4s.4.4.3.6a7.2 7.2 0 0 1-4.2 4.3z" fill="#325723" stroke="#000" stroke-linecap="round" stroke-linejoin="round" stroke-width=".4"/>
  <path d="M28.4 61.5L24.6 70" fill="#febf10" stroke="#000" stroke-linecap="round" stroke-linejoin="round" stroke-width=".4"/>
  <path fill="none" stroke="#000" stroke-linecap="round" stroke-linejoin="round" stroke-width=".4" d="M28.3 59.2l-1.4 2.3"/>
  <circle cx="31.6" cy="61.2" r=".8" fill="#325723" stroke="#000" stroke-linecap="round" stroke-linejoin="round" stroke-width=".4"/>
  <circle cx="31.1" cy="68.4" r=".8" fill="#325723" stroke="#000" stroke-linecap="round" stroke-linejoin="round" stroke-width=".4"/>
  <circle cx="32.2" cy="65.4" r=".8" fill="#325723" stroke="#000" stroke-linecap="round" stroke-linejoin="round" stroke-width=".4"/>
  <path fill="#325723" stroke="#000" stroke-linecap="round" stroke-linejoin="round" stroke-width=".4" d="M37.5 60.8v9.1"/>
  <path d="M44.8 59.7a15.7 15.7 0 0 1 2 6.8" fill="none" stroke="#000" stroke-linecap="round" stroke-linejoin="round" stroke-width=".4"/>
  <path d="M46.5 59.3s1.2 3 1.6 4.2m.3-4.8l.9 1.1" fill="#325723" stroke="#000" stroke-linecap="round" stroke-linejoin="round" stroke-width=".4"/>
  <path d="M34.4 30.2a4.1 4.1 0 0 1-.8 1.9" fill="none" stroke="#000" stroke-linecap="round" stroke-linejoin="round" stroke-width=".4"/>
  <path d="M29.5 30.2a1 1 0 0 1-.2-.9 8.3 8.3 0 0 0 .5-4.2 8.8 8.8 0 0 1 .3-3.1 5.5 5.5 0 0 1 2.5-3.5.7.7 0 0 1 .7 1.3c-.1 0-1.1.7-1.8 2.7a7.1 7.1 0 0 0-.2 2.5 10.3 10.3 0 0 1-.6 4.9 1 1 0 0 1-1 .4z" fill="#856353" stroke="#000" stroke-linecap="round" stroke-linejoin="round" stroke-width=".4"/>
  <path d="M32.8 30.6a1 1 0 0 1-.5-.8 9.1 9.1 0 0 0-.4-4.3 7 7 0 0 1-.5-3 6.8 6.8 0 0 1 1.6-4.1.8.8 0 1 1 1 1.2 5.1 5.1 0 0 0-1.1 3 6.9 6.9 0 0 0 .4 2.5 9.9 9.9 0 0 1 .5 4.9.6.6 0 0 1-.8.6z" fill="#856353" stroke="#000" stroke-linecap="round" stroke-linejoin="round" stroke-width=".4"/>
  <path d="M31.5 30.6a.8.8 0 0 1-.5-.8 8.6 8.6 0 0 0-.4-4.2 7.2 7.2 0 0 1-.5-3.1 6 6 0 0 1 1.6-4 .6.6 0 0 1 1 .1.7.7 0 0 1 0 1 5.6 5.6 0 0 0-1.1 3.1 6.4 6.4 0 0 0 .4 2.4 9.9 9.9 0 0 1 .5 4.9.8.8 0 0 1-.8.7z" fill="#856353" stroke="#000" stroke-linecap="round" stroke-linejoin="round" stroke-width=".4"/>
  <path d="M31.8 18.8a31.7 31.7 0 0 1 .4 5.3 7 7 0 0 0 1.3 5.1c1.3 2 3.7 1.2 7.1-.4s2-9 1-9.7-5.9-3-9.8-.3z" fill="#f3bc84"/>
  <path d="M39.3 17.3s-.4 4.1.1 5.9.1 5.8-2.2 6.8c.1 0 2.4-.4 3.1-1.3s2.4-3.3 2.1-4.9a44.5 44.5 0 0 1-.7-4.8l-1.1-1.4z" fill="#c69c6d"/>
  <path d="M31.9 18.9a32.7 32.7 0 0 1 .3 5.2 7 7 0 0 0 1.3 5.1c1.3 2 3.7 1.2 7.1-.4s2-9.7 1.1-10.4a9.7 9.7 0 0 0-9.8.5z" fill="none" stroke="#000" stroke-linecap="round" stroke-linejoin="round" stroke-width=".4"/>
  <path d="M40.4 21c-.2-.6-1.9-1.6-3.6-.1m-4-1.4s2.3.1 2.6 1.9a5.5 5.5 0 0 1-.9 3.2c-.2.3.3 1.1.3 1.1m1.5-.8s.4.6 0 .8-.7-.1-.9-.2h-.3m.2.4l.1-.4m-.7 0l-.4.3" fill="none" stroke="#000" stroke-linecap="round" stroke-linejoin="round" stroke-width=".3"/>
  <path d="M35 26.8h.7c.2 0 1.1.9 1.1.9l-2.7-.4 2.7.4s-1.9 1.4-2.9-.4z" fill="red"/>
  <path d="M37.2 27.5a12.3 12.3 0 0 1-3.5-.3m3.1.5s-1.9 1.4-2.9-.4" fill="none" stroke="#000" stroke-linecap="round" stroke-linejoin="round" stroke-width=".3"/>
  <path d="M34 27.1l1-.3h.7a5.2 5.2 0 0 1 1.1.7" fill="none" stroke="#000" stroke-linecap="round" stroke-linejoin="round" stroke-width=".3"/>
  <path d="M46 31.1a.7.7 0 0 0 .4-.8 9 9 0 0 1-.1-4.3 8 8 0 0 0 0-3.1 6.4 6.4 0 0 0-2.1-3.8.8.8 0 0 0-1 .2.7.7 0 0 0 .2 1.1 5.3 5.3 0 0 1 1.5 2.8 7.5 7.5 0 0 1-.1 2.6 10.2 10.2 0 0 0 .1 4.9.9.9 0 0 0 1 .5z" fill="#856353" stroke="#000" stroke-linecap="round" stroke-linejoin="round" stroke-width=".4"/>
  <path d="M44.1 31.3a.8.8 0 0 0 .5-.7 7.9 7.9 0 0 1 .9-4.2 9.9 9.9 0 0 0 .8-3 6.6 6.6 0 0 0-1.2-4.1.8.8 0 0 0-1.1-.1.8.8 0 0 0 0 1.1 5.2 5.2 0 0 1 .8 3.1 9.5 9.5 0 0 1-.7 2.4 9.8 9.8 0 0 0-1 4.8.9.9 0 0 0 .8.8z" fill="#856353" stroke="#000" stroke-linecap="round" stroke-linejoin="round" stroke-width=".4"/>
  <path d="M42.8 31.1a.8.8 0 0 0 .5-.7 7.9 7.9 0 0 1 .9-4.2 7.8 7.8 0 0 0 .7-3 6.2 6.2 0 0 0-1.1-4.1.7.7 0 1 0-1.1 1 4.8 4.8 0 0 1 .7 3.1 6.5 6.5 0 0 1-.6 2.4 9.8 9.8 0 0 0-1 4.8.8.8 0 0 0 .8.8z" fill="#856353" stroke="#000" stroke-linecap="round" stroke-linejoin="round" stroke-width=".4"/>
  <path d="M41.5 30.6a.8.8 0 0 0 .6-.8 8.7 8.7 0 0 1 .8-4.1 7 7 0 0 0 .8-3 5.8 5.8 0 0 0-1.2-4.2.7.7 0 0 0-1.1 1 4.3 4.3 0 0 1 .8 3.2 6.5 6.5 0 0 1-.6 2.4 9.8 9.8 0 0 0-1 4.8.7.7 0 0 0 .7.7z" fill="#856353" stroke="#000" stroke-linecap="round" stroke-linejoin="round" stroke-width=".4"/>
  <path d="M40.4 30.3c.3-.1.6-.4.5-.7a9 9 0 0 1 .9-4.2 6.6 6.6 0 0 0 .8-3c0-2.7-1.1-4.1-1.2-4.1s-1.5-.9-1.8-.6.3.9.7 1.6a5.2 5.2 0 0 1 .8 3.1 5.1 5.1 0 0 1-.7 2.4 11.1 11.1 0 0 0-1 4.8c.1.4.4.8.8.8z" fill="#856353" stroke="#000" stroke-linecap="round" stroke-linejoin="round" stroke-width=".4"/>
  <path d="M39.8 22.2a3.5 3.5 0 0 1-1.8.5 1.5 1.5 0 0 1-1-.6 2 2 0 0 1 2.8.1z" fill="#fff"/>
  <path d="M39.6 21.9l-1.2-.2a2.8 2.8 0 0 0-1.4.4 2.1 2.1 0 0 0 1.3.6 2.7 2.7 0 0 0 1.5-.6m-2.9 0a1.8 1.8 0 0 1 2.9 0" fill="none" stroke="#000" stroke-linecap="round" stroke-linejoin="round" stroke-width=".3"/>
  <ellipse cx="38.2" cy="22.2" rx=".5" ry=".7" transform="rotate(-89.1 38.17 22.18)"/>
  <circle cx="38" cy="22" r=".2" fill="#fff"/>
  <path d="M35.2 22.1a2.4 2.4 0 0 1-1.7.2c-.8-.2-.9-.7-.9-.7a1.8 1.8 0 0 1 1.6-.2c.9.3 1 .7 1 .7z" fill="#fff"/>
  <path d="M35.1 21.8a3 3 0 0 0-1.1-.3 2.4 2.4 0 0 0-1.3.2 1.7 1.7 0 0 0 1.1.7 2.2 2.2 0 0 0 1.4-.4m-2.6-.3a1.5 1.5 0 0 1 2.6.3" fill="none" stroke="#000" stroke-linecap="round" stroke-linejoin="round" stroke-width=".3"/>
  <ellipse cx="33.8" cy="21.9" rx=".5" ry=".6" transform="rotate(-81.8 33.78 21.89)"/>
  <ellipse cx="33.6" cy="21.7" rx=".2" ry=".2" transform="rotate(-81.8 33.66 21.68)" fill="#fff"/>
  <path d="M33.9 11.4a12.4 12.4 0 0 0-13-.3c-7.1 3.9-4 9.1-2.4 8.9s4.4-2.3 5.7-5 7.1-4.3 9.3-3" fill="#febf10" stroke="#000" stroke-linecap="round" stroke-linejoin="round" stroke-width=".4"/>
  <path d="M32.5 11.4a12.3 12.3 0 0 0-10.5.8c-5.4 3-5.2 10-1.4 11.5s4.9-1.9 4.5-4.6 2-7.6 6.3-6.7" fill="#0065b7"/>
  <path d="M31.2 12s-6-.4-8.2 3.2.2 8.3 1.7 7.1a3 3 0 0 0 .5-2.3c-.2-1.6-.4-4 1.4-5.8a6.8 6.8 0 0 1 4.6-2.2z" fill="#004da1"/>
  <path d="M32.5 11.4a12.3 12.3 0 0 0-10.5.8c-5.4 3-5.2 10-1.4 11.5s4.9-1.9 4.5-4.6 2-7.6 6.3-6.7m.1-.5s-8.6-2.3-10.4 5.9" fill="none" stroke="#000" stroke-linecap="round" stroke-linejoin="round" stroke-width=".4"/>
  <path d="M37.3 11.7a12.8 12.8 0 0 1 4.9-.7c1.7.1 2.2 1.9 3.5 3.5a1.6 1.6 0 0 1-.4 2.5l-15.7.5s-2.4-1.7-.7-3.3a10.6 10.6 0 0 0 2.1-2.4c.4-.3 2.9-1.5 4.9-.7l.7.4z" fill="red"/>
  <path d="M37.4 12l2.3 1.6a1.4 1.4 0 0 1-.4 2.4c-1.5 1.1 5.9 1.4 5.9 1.4l1-1.6-1-1.9-1.4-2.1-1.3-.8h-2.6l-2.1.3s-.7.1-.4.7z" fill="#980805"/>
  <path d="M37.3 11.7a12.8 12.8 0 0 1 4.9-.7c1.7.1 2.2 1.9 3.5 3.5a1.6 1.6 0 0 1-.4 2.5l-15.7.5s-2.4-1.7-.7-3.3a10.6 10.6 0 0 0 2.1-2.4c.4-.3 2.9-1.5 4.9-.7l.7.4z" fill="none" stroke="#000" stroke-linecap="round" stroke-linejoin="round" stroke-width=".4"/>
  <path d="M38.8 12.9c-1.2-.6-.8-.8-2.1-1.4m-6 7.8a7 7 0 0 0-1.3-1.8 2.1 2.1 0 0 1 1.3-.9l.5.9h.5l-.2-.9.8-.3.3.8.7-.2v-1.4l2-.4.3 1.1.9-.2v-.7h.7v.7h.9v-1h2v1h.8v-.7H42v.7h.6l.2-.8 1.8.5-.3.9.5.2.3-.7.7.4a10.5 10.5 0 0 1-1.3 1.9 15.8 15.8 0 0 0-13.8.9z" fill="#febf10" stroke="#000" stroke-linecap="round" stroke-linejoin="round" stroke-width=".4"/>
  <path d="M30.8 20a.4.4 0 0 1-.4-.2.6.6 0 0 1 .1-.7 14.8 14.8 0 0 1 14.1-.8.4.4 0 0 1 .3.6.5.5 0 0 1-.7.3 14.2 14.2 0 0 0-13.1.7z" fill="#febf10" stroke="#000" stroke-linecap="round" stroke-linejoin="round" stroke-width=".4"/>
  <path d="M35.9 111.1a17.3 17.3 0 0 0-1.6-2.5c-.7-.8.6-4.3.6-4.3l4.5-1.5 4.9 2.3 1.3 2.2-1.6.7-.7 2.1-4.8 1.2z" fill="#f3bc84"/>
  <path d="M38.9 110.9s-.2-4.3.7-5.6-4 2-4 2l-.4 1.6.9 1.3.3 1.2z" fill="#c69c6d"/>
  <path fill="red" d="M49 81.4l4.6-7.2.1-4.1-28 .1 2.4 9.8 1.7 1.7 19.2-.3zm3.9 10.8s-1.4-3.9-2.1-4.5a12 12 0 0 0-1.5-4.4L34.9 82l-5.4 1.8a12.8 12.8 0 0 1-1.8 2.9c-.7.5-6.7 11.1-4.9 13.5s29.8 1.5 29.8 1.5z"/>
  <path d="M27 93.8s4.1-6.2 5.1-10.6l-2.6.6-2 3.5-1.1 6.1zm6-13.1s-2.1-4.2-1.9-7.2l-2.5 1.1-1.1 4 2.1 3.1z" fill="#980805"/>
  <path d="M52.9 92.2s-1.4-3.9-2.1-4.5a12 12 0 0 0-1.5-4.4L34.9 82l-5.4 1.8a12.8 12.8 0 0 1-1.8 2.9c-.7.5-6.7 11.1-4.9 13.5s29.8 1.5 29.8 1.5z" fill="none" stroke="#000" stroke-linecap="round" stroke-linejoin="round" stroke-width=".4"/>
  <path d="M15.8 85.8a4.1 4.1 0 0 0 4.3-2.1 3.5 3.5 0 0 0 .6-1.4l-4.5-4.9a6.2 6.2 0 0 0-5.1 4.2c-.4 1.9 2.7 5.6 2.7 5.6.4 1.6 2.8 5.3 2.8 5.3s5.1.2 6.7-2.7c0 0-.6-4.7-3-6.4" fill="red"/>
  <path d="M18.7 91.7s-2.9-3-2.1-5.8c0 0 .3.2.6-2.1s-2.2-5-4.2-4.9c0 0-2.1 1.5-1.9 3.3s2.8 5.2 2.8 5.2l1.7 3.5 1 1.4s1.9-.2 2.1-.6z" fill="#980805"/>
  <path d="M59.6 89H59a6.3 6.3 0 0 0-1.8 1.1s.9 6.3 6.3 5.7a34.1 34.1 0 0 0 3.6-4.8c.9-1.8 2.2-3.5 1-4.7s-3.8-4.1-5.4-4.8a14.2 14.2 0 0 1-3.5-2.3s-3.9 2.7-4 4.2a9.7 9.7 0 0 0 2.2 2.4 5.7 5.7 0 0 0 3.6 3.7" fill="red"/>
  <path d="M58.8 92a9.7 9.7 0 0 0 2-2.5l-1.1-.8-2.1 1.3 1 2z" fill="#980805"/>
  <path d="M61.1 89.4s1.2-3-.6-4.4a23.5 23.5 0 0 0-5-2.6v1.4l2.1 2.1 1 1.8 1.6 1.4.8.5z" fill="#980805"/>
  <path d="M15.8 85.8a4.1 4.1 0 0 0 4.3-2.1 3.5 3.5 0 0 0 .6-1.4l-4.5-4.9a6.2 6.2 0 0 0-5.1 4.2c-.4 1.9 2.7 5.6 2.7 5.6.4 1.6 2.8 5.3 2.8 5.3s5.1.2 6.7-2.7c0 0-.6-4.7-3-6.4M59.6 89H59a6.3 6.3 0 0 0-1.8 1.1s.9 6.3 6.3 5.7a34.1 34.1 0 0 0 3.6-4.8c.9-1.8 2.2-3.5 1-4.7s-3.8-4.1-5.4-4.8a14.2 14.2 0 0 1-3.5-2.3s-3.9 2.7-4 4.2a9.7 9.7 0 0 0 2.2 2.4 5.7 5.7 0 0 0 3.6 3.7" fill="none" stroke="#000" stroke-linecap="round" stroke-linejoin="round" stroke-width=".4"/>
  <path d="M24.7 107.2s-5.9-2.6-7.5-6a4.2 4.2 0 0 1-1.5-4 5.9 5.9 0 0 1 .6-2.7 2.2 2.2 0 0 1 .3-2c.7-.7 3.7-.2 5.4-2.8 0 0 4.6 6.3 5.4 8.3a5.6 5.6 0 0 1 1.1 3.8s-.1 5.9-3.8 5.4z" fill="#325723"/>
  <path d="M20.5 100.1s-2.6-4.1-2.4-8l-1.5.4-.5 1.4.2.6-.6 1.7V99l1.1 1.7.5.7.8 1.1.5.2z" fill="#0d3a12"/>
  <path d="M24.7 107.2s-5.9-2.6-7.5-6a4.2 4.2 0 0 1-1.5-4 5.9 5.9 0 0 1 .6-2.7 2.2 2.2 0 0 1 .3-2c.7-.7 3.7-.2 5.4-2.8 0 0 4.6 6.3 5.4 8.3a5.6 5.6 0 0 1 1.1 3.8s-.1 5.9-3.8 5.4z" fill="none" stroke="#000" stroke-linecap="round" stroke-linejoin="round" stroke-width=".4"/>
  <path d="M24.7 107.2s-5.9-2.6-7.5-6a4.2 4.2 0 0 1-1.5-4 5.9 5.9 0 0 1 .6-2.7 2.2 2.2 0 0 1 .3-2c.7-.7 3.7-.2 5.4-2.8 0 0 4.6 6.3 5.4 8.3a5.6 5.6 0 0 1 1.1 3.8s-.1 5.9-3.8 5.4z" fill="none" stroke="#000" stroke-linecap="round" stroke-linejoin="round" stroke-width=".4"/>
  <path d="M52.4 105.1s5.1 1.6 8.1-1.4 4-3.9 3.8-5.6a2.5 2.5 0 0 0-1.3-2.4 10.1 10.1 0 0 1-5.6-5.8 6.1 6.1 0 0 0-4.1 1.6 6.9 6.9 0 0 0-3.9 4.2s-1.4 8.4 3 9.4z" fill="#325723"/>
  <path d="M50.3 100.6s-1.6-12.4-5.5-17.5H36s-5.2 10.2-5.6 15.5c0 0-3.7 3.9-4.3 8.2v.4h2.3l22.6-4.5z" fill="#f2f2f2" stroke="#000" stroke-linecap="round" stroke-linejoin="round" stroke-width=".4"/>
  <path d="M51.3 102.3s1.7-1.1 2.4-4.3 4.7-6 4.7-6l-1-2.1-3 .8-1.1.8-2.8 2-1.2 2.4-.2 4.2 1.9 2.6z" fill="#0d3a12"/>
  <path d="M52.4 105.1s5.1 1.6 8.1-1.4 4-3.9 3.8-5.6a2.5 2.5 0 0 0-1.3-2.4 10.1 10.1 0 0 1-5.6-5.8 6.1 6.1 0 0 0-4.1 1.6 6.9 6.9 0 0 0-3.9 4.2s-1.4 8.4 3 9.4z" fill="none" stroke="#000" stroke-linecap="round" stroke-linejoin="round" stroke-width=".4"/>
  <path d="M37.4 70.1l-2.1 1.7-.2.3c0 .2 0 .3.1.4l2.1 1.9-1.8 2.4a.5.5 0 0 0 .1.7l3.3 2.8a.6.6 0 0 0 .7-.1.5.5 0 0 0-.1-.7L36.6 77l1.8-2.4c.1-.2.1-.5-.1-.6l-1.9-1.8 2.5-2" fill="#febf10" stroke="#000" stroke-linecap="round" stroke-linejoin="round" stroke-width=".4"/>
  <circle cx="34.4" cy="79" r=".8" fill="#325723" stroke="#000" stroke-linecap="round" stroke-linejoin="round" stroke-width=".4"/>
  <circle cx="33.9" cy="71.7" r=".8" fill="#325723" stroke="#000" stroke-linecap="round" stroke-linejoin="round" stroke-width=".4"/>
  <circle cx="35.1" cy="74.7" r=".8" fill="#325723" stroke="#000" stroke-linecap="round" stroke-linejoin="round" stroke-width=".4"/>
  <path d="M43.3 70.1l2.1 1.7.2.3a.5.5 0 0 1-.2.4l-2 1.9 1.8 2.4a.6.6 0 0 1-.1.7l-3.3 2.8a.6.6 0 0 1-.7-.1.4.4 0 0 1 .1-.7l2.9-2.5-1.8-2.4c-.1-.2-.1-.5.1-.6l1.9-1.8-2.5-2" fill="#febf10" stroke="#000" stroke-linecap="round" stroke-linejoin="round" stroke-width=".4"/>
  <path fill="#325723" d="M36.6 85.3l7.9-.3v17h-8.9l1-16.7z"/>
  <path fill="#febf10" stroke="#000" stroke-linecap="round" stroke-linejoin="round" stroke-width=".4" d="M39.9 96l3.2 2.3-3.4 2-3.2-2.3 3.4-2z"/>
  <path fill="red" stroke="#000" stroke-linecap="round" stroke-linejoin="round" stroke-width=".4" d="M39.9 97.2l1.4 1-1.5 1-1.5-1.1 1.6-.9z"/>
  <path fill="#febf10" stroke="#000" stroke-linecap="round" stroke-linejoin="round" stroke-width=".4" d="M40.1 91.5l3.2 2.3-3.4 2-3.2-2.3 3.4-2z"/>
  <path fill="red" stroke="#000" stroke-linecap="round" stroke-linejoin="round" stroke-width=".4" d="M40 92.7l1.5 1-1.5 1-1.5-1.1 1.5-.9z"/>
  <path fill="#febf10" stroke="#000" stroke-linecap="round" stroke-linejoin="round" stroke-width=".4" d="M40.3 87l3.2 2.3-3.4 2-3.2-2.3 3.4-2z"/>
  <path fill="red" stroke="#000" stroke-linecap="round" stroke-linejoin="round" stroke-width=".4" d="M40.2 88.2l1.5 1-1.6.9-1.4-1 1.5-.9z"/>
  <path d="M47.7 106.8l4.7-1.7a16.9 16.9 0 0 0-3.9-6.2c-.1-2.9-1.5-10.2-5.4-18L39.4 83a40.6 40.6 0 0 1 4.1 17.1v1.4l1.2.8c1.2.7 2.5 3.1 3 4.5z" fill="#febf10" stroke="#000" stroke-linecap="round" stroke-linejoin="round" stroke-width=".4"/>
  <path d="M32.8 108.4c0-.1.7-4.8 2.3-5.8l1.1-.7v-1.2c0-.1.9-10.9 5-17.7l-2.8-2.3c-3.9 6.5-6.7 15.3-7.1 18.5-3 2.7-3.5 8-3.5 8.1a13.3 13.3 0 0 1 4.6 1.1z" fill="#febf10" stroke="#000" stroke-linecap="round" stroke-linejoin="round" stroke-width=".4"/>
  <path d="M39.8 100.5h.4c5.9.4 7.5 6.1 7.6 6.3l-2.3.7c0-.1-1.9-4.1-5.4-4.3s-5.5 4.4-5.7 5.9l-2.1-.8c.3-2.8 2.5-7.8 7.5-7.8z" fill="#f2f2f2"/>
  <path d="M47.4 106h-1l.2-1.2a.7.7 0 0 0-.1-.5c-.2-.1-.3-.2-.5-.1h-1.1V103a.4.4 0 0 0-.2-.5.4.4 0 0 0-.5 0l-1.4.4-.3-1.4a.8.8 0 0 0-.4-.4h-.5l-1 .9-.9-1.2c-.1-.2-.2-.3-.4-.3a.9.9 0 0 0-.5.3l-.6 1.5-1.7-.6a.3.3 0 0 0-.4 0c-.2.1-.3.2-.3.4l-.2 1.6h-1.1a.5.5 0 0 0-.4.2c-.1.1-.2.2-.1.4v1.5l-.9.6c-.2.1-.4.3-.3.5l.2 1.5.4.3.4-.4-.2-1.2.9-.5c.2-.1.4-.3.3-.5v-1.4H36a.5.5 0 0 0 .5-.5l.2-1.4 1.5.5h.4l.2-.3.6-1 .7 1 .3.2h.4l.9-.8.4 1.1a.5.5 0 0 0 .2.4c.2 0 .3.1.5 0l1.1-.3v1c-.1.2 0 .3.1.5h1.5l-.2 1a.6.6 0 0 0 .1.4l.3.2 1.3.3.6-.2z" fill="red"/>
  <path d="M33 108.3l-.2-1.5c-.1-.2.1-.4.3-.5l.9-.6v-1.5c-.1-.2 0-.3.1-.4a.5.5 0 0 1 .4-.2h1.2l.2-1.6c0-.2.1-.3.3-.4a.3.3 0 0 1 .4 0l1.7.6.6-1.5a.9.9 0 0 1 .5-.3c.2 0 .3.1.4.3l.9 1.2 1-.9h.5a.8.8 0 0 1 .4.4l.3 1.4 1.4-.4a.4.4 0 0 1 .5 0 .4.4 0 0 1 .2.5v1.2h1c.2-.1.3 0 .5.1a.7.7 0 0 1 .1.5l-.2 1.2h1" fill="none" stroke="#000" stroke-linecap="round" stroke-linejoin="round" stroke-width=".4"/>
  <path d="M47.1 107l-1.3-.3-.3-.2a.6.6 0 0 1-.1-.4l.2-1h-1.5c-.1-.2-.2-.3-.1-.5v-1l-1.1.3c-.2.1-.3 0-.5 0a.5.5 0 0 1-.2-.4l-.4-1.1-.9.8h-.4l-.3-.2-.7-1-.6 1-.2.3h-.4l-1.5-.5-.2 1.4a.5.5 0 0 1-.5.5h-1.2v1.3c.1.2-.1.4-.3.5l-.9.5.2 1.2" fill="none" stroke="#000" stroke-linecap="round" stroke-linejoin="round" stroke-width=".4"/>
  <path d="M39.8 100.5h.4c5.9.4 7.5 6.1 7.6 6.3l-2.3.7c0-.1-1.9-4.1-5.4-4.3s-5.5 4.4-5.7 5.9l-2-.7c.3-2.8 2.4-7.9 7.4-7.9z" fill="none" stroke="#000" stroke-linecap="round" stroke-linejoin="round" stroke-width=".4"/>
  <path d="M39.9 103.2h.3c3.6.2 5.6 4 5.7 4.2l-1.7.7s-1.6-2.8-4.1-2.9-4.8 2.6-5.3 4l-1.3-.5c.7-1.8 2.8-5.5 6.4-5.5z" fill="#febf10"/>
  <path d="M55.1 76s4.9 2.7 3.7 3.2-4.1 4.5-4.1 4.5-3.3-2.9-3.5-4.2a8.7 8.7 0 0 1 3.9-3.5z" fill="#febf10" stroke="#000" stroke-linecap="round" stroke-linejoin="round" stroke-width=".4"/>
  <path d="M59.5 78.7a.2.2 0 0 1 .2.2.6.6 0 0 1-.3.7 5.5 5.5 0 0 0-3.9 4.2.5.5 0 0 1-.5.5.6.6 0 0 1-.5-.6 6.7 6.7 0 0 1 4.5-5.1z" fill="#325723" stroke="#000" stroke-linecap="round" stroke-linejoin="round" stroke-width=".4"/>
  <circle cx="53.3" cy="81.1" r=".4" fill="#325723" stroke="#000" stroke-linecap="round" stroke-linejoin="round" stroke-width=".3"/>
  <circle cx="54.2" cy="80" r=".4" fill="#325723" stroke="#000" stroke-linecap="round" stroke-linejoin="round" stroke-width=".3"/>
  <circle cx="55.4" cy="79" r=".4" fill="#325723" stroke="#000" stroke-linecap="round" stroke-linejoin="round" stroke-width=".3"/>
  <circle cx="56.5" cy="78.1" r=".4" fill="#325723" stroke="#000" stroke-linecap="round" stroke-linejoin="round" stroke-width=".3"/>
  <path d="M23.2 79.7a8.8 8.8 0 0 1-3 2.2c-1.5.4-3.7-5-3.7-5s2.5-1.9 3.9-1.7.8 3.8 2.8 4.5z" fill="#febf10" stroke="#000" stroke-linecap="round" stroke-linejoin="round" stroke-width=".4"/>
  <path d="M16.2 76.6h.2c.3-.1.5.1.6.4a5.7 5.7 0 0 0 3.5 4.6c.2.1.4.4.3.6a.4.4 0 0 1-.6.3 6.3 6.3 0 0 1-4.2-5.4c0-.2 0-.4.2-.5z" fill="#325723" stroke="#000" stroke-linecap="round" stroke-linejoin="round" stroke-width=".4"/>
  <circle cx="21.1" cy="80.3" r=".4" fill="#325723" stroke="#000" stroke-linecap="round" stroke-linejoin="round" stroke-width=".3"/>
  <circle cx="20.1" cy="79.2" r=".4" fill="#325723" stroke="#000" stroke-linecap="round" stroke-linejoin="round" stroke-width=".3"/>
  <circle cx="19.3" cy="78" r=".4" fill="#325723" stroke="#000" stroke-linecap="round" stroke-linejoin="round" stroke-width=".3"/>
  <circle cx="18.5" cy="76.7" r=".4" fill="#325723" stroke="#000" stroke-linecap="round" stroke-linejoin="round" stroke-width=".3"/>
  <path d="M39.9 103.2h.3c3.6.2 5.6 4 5.7 4.2l-1.7.7s-1.6-2.8-4.1-2.9-4.8 2.6-5.3 4l-1.3-.5c.7-1.8 2.8-5.5 6.4-5.5z" fill="none" stroke="#000" stroke-linecap="round" stroke-linejoin="round" stroke-width=".4"/>
  <path d="M48.3 105.6a11 11 0 0 0-3-4.2l-.8-.4v-.9a40.9 40.9 0 0 0-3.8-16.6l2-1.3c3.4 7.4 4.7 14.1 4.8 16.7a1.2 1.2 0 0 0 .4.8 13.8 13.8 0 0 1 3.2 4.8l-2.8 1.1" fill="#d09b07" stroke="#000" stroke-linecap="round" stroke-linejoin="round" stroke-width=".4"/>
  <path d="M48.6 103.2s.2-.7-.5-.7-1 .8-.3 1.7A1.4 1.4 0 0 0 50 103a2.7 2.7 0 0 0-3.2-2.3 1.8 1.8 0 0 1-2-2.1 1.1 1.1 0 0 1 1.9-.3c.3.7-.1 1.2-.7 1" fill="none" stroke="#000" stroke-linecap="round" stroke-linejoin="round" stroke-width=".4"/>
  <path d="M31.7 107l-2.7-.7c.3-1.5 1-4.5 3.1-6.4a.9.9 0 0 0 .3-.6c.3-2.6 3-10.8 6.5-17.2l1 1.3c-3.8 7-4.6 17.1-4.6 17.2v.7l-.6.4c-1.6 1.1-2.6 3.9-2.9 5.2" fill="#d09b07" stroke="#000" stroke-linecap="round" stroke-linejoin="round" stroke-width=".4"/>
  <path d="M45 91.7s-.5.6.2.8 1.2-.3.8-1.3a1.1 1.1 0 0 0-2.1.2 2.7 2.7 0 0 0 1.8 3.3 1.8 1.8 0 0 1 .8 2.7c-.6.5-1.5.3-1.5-.5s.5-1 1-.6m-1.9-6.6a.5.5 0 0 0-.3-.7c-.5-.1-.8.3-.6 1a.9.9 0 0 0 1.7-.1 2.2 2.2 0 0 0-1.7-2.9 1.3 1.3 0 0 1-.7-2.2c.5-.4 1.3-.3 1.4.4s-.5.8-.9.5m-5.9 1.6s.2.6-.2.7-.8-.2-.3-1.2a.7.7 0 0 1 1.3.3 3.1 3.1 0 0 1-1.9 3.1c-1.6.5-1.7 3-1.4 3.5s1.6.2 1.7-.5-1-1.2-1.1-.7m-1.5 7.6s-.4-.8.3-1 1.4.4 1 1.5a1.4 1.4 0 0 1-2.4-.2 2.7 2.7 0 0 1 1.8-3.3 1.8 1.8 0 0 0 .8-2.7c-.6-.4-1.5-.2-1.5.5s.5 1 1 .6m-2.7 5.9a.5.5 0 0 1-.3.7c-.5.2-.8-.3-.6-.9a.9.9 0 0 1 1.7.1 2.1 2.1 0 0 1-1.6 2.8 1.4 1.4 0 0 0-.8 2.3c.6.4 1.4.2 1.4-.4s-.5-.9-.9-.5" fill="none" stroke="#000" stroke-linecap="round" stroke-linejoin="round" stroke-width=".4"/>
  <path d="M41.1 80.1a46.2 46.2 0 0 1 7.7.6 1.5 1.5 0 0 1 1.1 1.8 1.5 1.5 0 0 1-1.8 1.2c-.1-.1-7.1-1.5-17.4.3a1.4 1.4 0 0 1-1.7-1.2 1.4 1.4 0 0 1 1.2-1.7 57.8 57.8 0 0 1 10.9-1z" fill="#0065b7" stroke="#000" stroke-linecap="round" stroke-linejoin="round" stroke-width=".4"/>
  <path fill="#febf10" stroke="#000" stroke-linecap="round" stroke-linejoin="round" stroke-width=".4" d="M42.7 79.4l1.6 2.5-1.6 2.5h-5.1l-1.5-2.5 1.5-2.5h5.1z"/>
  <path fill="#d09b07" stroke="#000" stroke-linecap="round" stroke-linejoin="round" stroke-width=".4" d="M42.1 80.1l1.2 1.8-1.2 1.7h-3.8l-1.2-1.7 1.2-1.8h3.8z"/>
  <circle cx="40.2" cy="81.9" r="1.5" fill="#0065b7" stroke="#000" stroke-linecap="round" stroke-linejoin="round" stroke-width=".4"/>
  <circle cx="49.9" cy="92.2" r=".7" fill="#0d3a12" stroke="#000" stroke-linecap="round" stroke-linejoin="round" stroke-width=".4"/>
  <circle cx="49.3" cy="90.2" r=".7" fill="#0d3a12" stroke="#000" stroke-linecap="round" stroke-linejoin="round" stroke-width=".4"/>
  <circle cx="48.8" cy="88.1" r=".7" fill="#0d3a12" stroke="#000" stroke-linecap="round" stroke-linejoin="round" stroke-width=".4"/>
  <path d="M51.1 78.7l2.9-2.9a4.1 4.1 0 0 0 .4-2.2l-.3-1.2h.1v.7h.1v.5a8 8 0 0 0 2.2 0c.4-.3.4-.5-.4-.7H56c.4 0 1 .4 1.5.4s.3-.7-.4-1l.5.2c.5.2 1.3-.1 0-1a5.8 5.8 0 0 0-2.9-.6h-.1l1-.6h-2.2L50.5 76c-.3 2.3.6 2.7.6 2.7zm5.1-6.7z" fill="#f3bc84"/>
  <circle cx="48" cy="86.2" r=".7" fill="#0d3a12" stroke="#000" stroke-linecap="round" stroke-linejoin="round" stroke-width=".4"/>
  <circle cx="47" cy="84.3" r=".7" fill="#0d3a12" stroke="#000" stroke-linecap="round" stroke-linejoin="round" stroke-width=".4"/>
  <circle cx="30.2" cy="93.3" r=".7" fill="#0d3a12" stroke="#000" stroke-linecap="round" stroke-linejoin="round" stroke-width=".4"/>
  <circle cx="29.5" cy="95.4" r=".7" fill="#0d3a12" stroke="#000" stroke-linecap="round" stroke-linejoin="round" stroke-width=".4"/>
  <circle cx="28.9" cy="97.6" r=".7" fill="#0d3a12" stroke="#000" stroke-linecap="round" stroke-linejoin="round" stroke-width=".4"/>
  <circle cx="30.8" cy="91.2" r=".7" fill="#0d3a12" stroke="#000" stroke-linecap="round" stroke-linejoin="round" stroke-width=".4"/>
  <circle cx="31.6" cy="89.1" r=".7" fill="#0d3a12" stroke="#000" stroke-linecap="round" stroke-linejoin="round" stroke-width=".4"/>
  <circle cx="32.4" cy="87" r=".7" fill="#0d3a12" stroke="#000" stroke-linecap="round" stroke-linejoin="round" stroke-width=".4"/>
  <circle cx="33.4" cy="84.9" r=".7" fill="#0d3a12" stroke="#000" stroke-linecap="round" stroke-linejoin="round" stroke-width=".4"/>
  <path d="M17.8 128.7s.8 1 3.1-.7 3.8-1.5 4.4-4.5.2-8.5.5-10 1-2 .9-3 .3-17.8.6-19.5 1.2-11.2 1.2-11.5.6-8.3.6-8.3L24.2 76s-2.8 15.2-3.4 17.1-3.3 12.6-3.8 13.4a3.5 3.5 0 0 0-.7 2.5c0 .8-3.1 10.8-3.3 12.3a5.9 5.9 0 0 0 1.2 4.4c.8.9 2.6 3.3 3.6 3z" fill="#856353"/>
  <path d="M25.7 74.6L24.2 76s-2.8 15.2-3.4 17.1-3.3 12.6-3.8 13.4a3.5 3.5 0 0 0-.7 2.5c0 .8-3.1 10.8-3.3 12.3a5.9 5.9 0 0 0 1.2 4.4 22.1 22.1 0 0 0 1.6 1.7s1 1 .8-.5a25.8 25.8 0 0 1-.6-3.7c0-1.4 1.5-5.9 2.2-9.7s1.6-9 2.2-12 2.5-10.7 2.9-12.5 3.7-11.9 2.4-14.4z" fill="#534741"/>
  <path d="M17.8 128.7s.8 1 3.1-.7 3.8-1.5 4.4-4.5.2-8.5.5-10 1-2 .9-3 .3-17.8.6-19.5 1.2-11.2 1.2-11.5.6-8.3.6-8.3L24.2 76s-2.8 15.2-3.4 17.1-3.3 12.6-3.8 13.4a3.5 3.5 0 0 0-.7 2.5c0 .8-3.1 10.8-3.3 12.3a5.9 5.9 0 0 0 1.2 4.4c.8.9 2.6 3.3 3.6 3z" fill="none" stroke="#000" stroke-linecap="round" stroke-linejoin="round" stroke-width=".4"/>
  <path d="M10.4 118.9c.2-.2.6.1.7.2s.3.5.7 0 .8-1 1.1-.9.3.4.3.4a.6.6 0 0 1 .6-.6c.3-.1.6.1.7.5h-.2a.5.5 0 0 0-.5.7.6.6 0 0 0 .6.5.6.6 0 0 0 .6-.6.5.5 0 0 0-.2-.4l.6-.3a1.4 1.4 0 0 1 1.4 1.2c0 .1-.1.4-.1.6l-.2-.2a.6.6 0 1 0-.3 1.1h.1a.2.2 0 0 0-.2.2.5.5 0 0 0 .3.7.6.6 0 0 0 .7-.4v-.3a.5.5 0 0 0 .7-.3.6.6 0 0 0-.3-.7h-.2a1.8 1.8 0 0 1 1.4-.8 1.3 1.3 0 0 1 1.3.7c-.3 0-.4.3-.4.6a.6.6 0 0 0 .6.5.6.6 0 0 0 .6-.6.9.9 0 0 0-.3-.5 1.5 1.5 0 0 1 .7-.3 1.1 1.1 0 0 1 1.3 1.1v.3h-.2a.6.6 0 0 0-.1 1.1h.1a.4.4 0 0 0-.1.3.5.5 0 0 0 .5.6.5.5 0 0 0 .5-.5.4.4 0 0 0-.1-.3h.1a.6.6 0 0 0 .1-1.1H23v-.3a1.2 1.2 0 0 1 1.2-1.2c.4 0 .5.1.6.3a.6.6 0 0 0-.3.6c.1.3.4.6.7.5a.5.5 0 0 0 .5-.6.5.5 0 0 0-.4-.5.7.7 0 0 1 .7-.7.6.6 0 0 1 .6.5 1.1 1.1 0 0 1-.2.6h-.1v.5h.3c.2.1.2.2.4.5s.7-.1.9-.2.8.5 1 .7 1.3.2 1.2-.5-.6-.4-.8-.3a.5.5 0 0 1-.4 0l-2.4-2.3-13-2.7-1.8 1.4s-.5-.3-.6.2a.7.7 0 0 1-.9.4c-.3-.1-1.2-.2-1.1.4s1.1.5 1.3.2z" fill="#febf10" stroke="#000" stroke-linecap="round" stroke-linejoin="round" stroke-width=".4"/>
  <path d="M25.8 116.9l.4 1.8a18.5 18.5 0 0 1-12.7-2.2l.9-1.5a16.6 16.6 0 0 0 11.4 1.9z" fill="red" stroke="#000" stroke-linecap="round" stroke-linejoin="round" stroke-width=".4"/>
  <path d="M26.5 118.2l.3.3a.5.5 0 0 1-.3.5 19.8 19.8 0 0 1-13.4-2.3c-.2-.1-.2-.4-.1-.6s.3-.2.5-.1a19.1 19.1 0 0 0 12.8 2.2z" fill="#febf10" stroke="#000" stroke-linecap="round" stroke-linejoin="round" stroke-width=".4"/>
  <path d="M26.1 116.6l.2.2a.3.3 0 0 1-.3.5c-.2.1-5.1 1.3-11.8-2a.4.4 0 0 1-.2-.5.4.4 0 0 1 .6-.2c6.4 3.1 11.2 1.9 11.2 1.9z" fill="#febf10" stroke="#000" stroke-linecap="round" stroke-linejoin="round" stroke-width=".4"/>
  <path d="M21.2 111.5s1.6 1.2 2.2-.2.4-8.3 1.3-9.9 1.5-10.1 1.5-11.3.1-1.1.1-2.9a33.3 33.3 0 0 1 1-6.2c.3-.7.9-4 .3-4.8s-1.3 2.3-1.9 4.3-2.2 6.2-2.2 8.2-.6 9.3-1.4 11-1.9 10.5-.9 11.8z" fill="#a77e6a"/>
  <path d="M23.6 79.3a15 15 0 0 0 3.7-2.3 16.8 16.8 0 0 0 3-2.9l1.4-.9c.8-.5 1.3-1 1.1-1.4s-.9-.3-1.2-.1l-.3.6a5.6 5.6 0 0 0 .6-2.1h-6.8A8.6 8.6 0 0 0 24 73a2.6 2.6 0 0 1-1.2 1.7l-1.8.6a4.9 4.9 0 0 0 2.6 4z" fill="#f3bc84"/>
  <path d="M23.6 79.3a15 15 0 0 0 3.7-2.3 12.1 12.1 0 0 0 3.5-3.8 8.1 8.1 0 0 0 1.1-2.9" fill="none" stroke="#000" stroke-linecap="round" stroke-linejoin="round" stroke-width=".4"/>
  <path d="M30.3 74.1l1.4-.9c.8-.5 1.3-1 1.1-1.4s-.9-.3-1.2-.1m-1.5-.4a4.1 4.1 0 0 0 .2-1m-9.3 5l1.8-.6A2.6 2.6 0 0 0 24 73a9.9 9.9 0 0 1 1.2-2.8m28.9 2s2.4-.4 3.1 0 .9 1 .4 1-1.1-.4-1.5-.4l-1.8.3m-3.2 5.6s-.9-.2-.6-2.5" fill="none" stroke="#000" stroke-linecap="round" stroke-linejoin="round" stroke-width=".4"/>
  <path d="M54 75.8a4.1 4.1 0 0 0 .4-2.2c-.2-1-.7-2.1-.2-2.6s1.2-.7 1.4-.9" fill="none" stroke="#000" stroke-linecap="round" stroke-linejoin="round" stroke-width=".4"/>
  <path d="M54.4 73.6a8 8 0 0 0 2.2 0c.4-.3.4-.5-.4-.7a4.8 4.8 0 0 0-1.9.1m.4-2.4a5.7 5.7 0 0 1 3 .7c1.3.9.5 1.2 0 1a6.3 6.3 0 0 0-3.4-.1" fill="none" stroke="#000" stroke-linecap="round" stroke-linejoin="round" stroke-width=".4"/>
  <path d="M20 74.7h.2a.4.4 0 0 1 .6.4 6.4 6.4 0 0 0 2.7 4.4c.3.1.4.4.2.6s-.4.4-.6.2-2.6-1.3-3.3-5.1a.8.8 0 0 1 .2-.5zm35.4.8c0 .1.1.1.1.2a.6.6 0 0 1-.2.7c-3.1 1.3-3.7 3.5-3.7 3.6s-.4.4-.6.3a.4.4 0 0 1-.4-.6c0-.1.8-2.7 4.3-4.3z" fill="#325723" stroke="#000" stroke-linecap="round" stroke-linejoin="round" stroke-width=".4"/>
  <path d="M49.4 78.7s3.4-7.3 3.9-8.5" fill="#febf10" stroke="#000" stroke-linecap="round" stroke-linejoin="round" stroke-width=".4"/>
  <path fill="none" stroke="#000" stroke-linecap="round" stroke-linejoin="round" stroke-width=".4" d="M49.5 80.9l1.5-2.2"/>
  <circle cx="46.3" cy="79" r=".8" fill="#325723" stroke="#000" stroke-linecap="round" stroke-linejoin="round" stroke-width=".4"/>
  <circle cx="46.8" cy="71.7" r=".8" fill="#325723" stroke="#000" stroke-linecap="round" stroke-linejoin="round" stroke-width=".4"/>
  <circle cx="45.6" cy="74.7" r=".8" fill="#325723" stroke="#000" stroke-linecap="round" stroke-linejoin="round" stroke-width=".4"/>
  <path fill="#325723" stroke="#000" stroke-linecap="round" stroke-linejoin="round" stroke-width=".4" d="M40.4 79.4v-9.2"/>
  <path d="M33 80.5a15.7 15.7 0 0 1-2-6.8" fill="none" stroke="#000" stroke-linecap="round" stroke-linejoin="round" stroke-width=".4"/>
  <path d="M31.3 80.8l-1.6-4.1m-.2 4.8l-1-1.2" fill="#325723" stroke="#000" stroke-linecap="round" stroke-linejoin="round" stroke-width=".4"/>
  <path d="M43.4 110a3.7 3.7 0 0 1 .8-1.9" fill="none" stroke="#000" stroke-linecap="round" stroke-linejoin="round" stroke-width=".4"/>
  <path d="M48.3 110a.7.7 0 0 1 .3.8 7.9 7.9 0 0 0-.6 4.3 6.4 6.4 0 0 1-.3 3 6.6 6.6 0 0 1-2.4 3.6.7.7 0 0 1-1-.3.8.8 0 0 1 .2-1 4.7 4.7 0 0 0 1.8-2.7 5.4 5.4 0 0 0 .2-2.5 9.4 9.4 0 0 1 .7-4.9.6.6 0 0 1 .9-.4z" fill="#856353" stroke="#000" stroke-linecap="round" stroke-linejoin="round" stroke-width=".4"/>
  <path d="M45 109.6a.7.7 0 0 1 .5.8 8.6 8.6 0 0 0 .4 4.2 7.5 7.5 0 0 1 .5 3.1c-.2 2.7-1.5 4-1.6 4a.7.7 0 0 1-1 0 .8.8 0 0 1 0-1.1c.1 0 1-.9 1.1-3a5.1 5.1 0 0 0-.4-2.5 9.9 9.9 0 0 1-.5-4.9.8.8 0 0 1 .9-.6z" fill="#856353" stroke="#000" stroke-linecap="round" stroke-linejoin="round" stroke-width=".4"/>
  <path d="M46.4 109.6a.6.6 0 0 1 .4.7 7.8 7.8 0 0 0 .5 4.3 9.1 9.1 0 0 1 .4 3 6.1 6.1 0 0 1-1.6 4.1.8.8 0 0 1-1-.1.7.7 0 0 1 0-1 4.6 4.6 0 0 0 1.1-3.1 5.5 5.5 0 0 0-.4-2.5 9.9 9.9 0 0 1-.5-4.9.8.8 0 0 1 .9-.6z" fill="#856353" stroke="#000" stroke-linecap="round" stroke-linejoin="round" stroke-width=".4"/>
  <path d="M46.1 121.3a28.2 28.2 0 0 1-.5-5.2 6.8 6.8 0 0 0-1.2-5.1c-1.4-2-3.7-1.2-7.1.4s-2 8.9-1.1 9.6 6 3.1 9.9.3z" fill="#f3bc84"/>
  <path d="M38.6 122.8s.3-4.1-.2-5.8-.1-5.8 2.2-6.8a6.1 6.1 0 0 0-3.1 1.2c-1 1.2-2.4 3.3-2 4.9s.6 4.8.6 4.8l1.2 1.5z" fill="#c69c6d"/>
  <path d="M45.9 121.3a32.7 32.7 0 0 1-.3-5.2 6.8 6.8 0 0 0-1.2-5.1c-1.4-2-3.7-1.2-7.1.4s-2.1 9.7-1.2 10.4 6 2.2 9.8-.5z" fill="none" stroke="#000" stroke-linecap="round" stroke-linejoin="round" stroke-width=".4"/>
  <path d="M37.4 119.2a2.4 2.4 0 0 0 3.7 0m3.9 1.4s-2.3 0-2.6-1.8a4.7 4.7 0 0 1 1-3.2c.1-.3-.4-1.2-.4-1.2m-1.5.9s-.3-.7 0-.9.7.1 1 .2l.2.2m-.2-.6v.4m.7 0l.3-.2" fill="none" stroke="#000" stroke-linecap="round" stroke-linejoin="round" stroke-width=".3"/>
  <path d="M42.9 113.4l-.4-.2a.4.4 0 0 1-.3.2 6.2 6.2 0 0 1-1.2-.9l2.7.3-2.6-.3s1.8-1.5 2.8.4h.1z" fill="red"/>
  <path d="M40.6 112.7a13 13 0 0 1 3.6.3m-3.1-.5s1.8-1.5 2.8.4" fill="none" stroke="#000" stroke-linecap="round" stroke-linejoin="round" stroke-width=".3"/>
  <path d="M43.9 113l-1 .4-.4-.2a.4.4 0 0 1-.3.2 5.2 5.2 0 0 1-1.1-.7" fill="none" stroke="#000" stroke-linecap="round" stroke-linejoin="round" stroke-width=".3"/>
  <path d="M31.8 109a1.1 1.1 0 0 0-.4.9 7.7 7.7 0 0 1 .2 4.2 8 8 0 0 0-.1 3.1 6.6 6.6 0 0 0 2.1 3.8.7.7 0 0 0 1.1-.2.8.8 0 0 0-.2-1 4.6 4.6 0 0 1-1.5-2.9 5.3 5.3 0 0 1 .1-2.5 10.4 10.4 0 0 0-.2-4.9.7.7 0 0 0-.9-.5z" fill="#856353" stroke="#000" stroke-linecap="round" stroke-linejoin="round" stroke-width=".4"/>
  <path d="M33.8 108.8a.8.8 0 0 0-.6.8 8.4 8.4 0 0 1-.8 4.1 7 7 0 0 0-.8 3 5.8 5.8 0 0 0 1.2 4.2.8.8 0 0 0 1 .1.9.9 0 0 0 .1-1.1 4.2 4.2 0 0 1-.8-3.1 6.6 6.6 0 0 1 .6-2.5 9.5 9.5 0 0 0 1-4.8.7.7 0 0 0-.8-.7z" fill="#856353" stroke="#000" stroke-linecap="round" stroke-linejoin="round" stroke-width=".4"/>
  <path d="M35.1 109a.8.8 0 0 0-.6.8 8.7 8.7 0 0 1-.8 4.1 7 7 0 0 0-.8 3 5.8 5.8 0 0 0 1.2 4.2.7.7 0 0 0 1 0 .8.8 0 0 0 .1-1 4.3 4.3 0 0 1-.8-3.2 6.5 6.5 0 0 1 .6-2.4 9.8 9.8 0 0 0 1-4.8.7.7 0 0 0-.8-.7z" fill="#856353" stroke="#000" stroke-linecap="round" stroke-linejoin="round" stroke-width=".4"/>
  <path d="M36.3 109.6a.8.8 0 0 0-.5.7 9 9 0 0 1-.9 4.2 7.7 7.7 0 0 0-.8 3c0 2.7 1.1 4.1 1.2 4.1a.7.7 0 1 0 1.1-1 5.2 5.2 0 0 1-.8-3.1 5.1 5.1 0 0 1 .7-2.4 11.1 11.1 0 0 0 1-4.8c-.1-.4-.4-.8-.8-.8z" fill="#856353" stroke="#000" stroke-linecap="round" stroke-linejoin="round" stroke-width=".4"/>
  <path d="M37.4 109.8a.8.8 0 0 0-.5.8 7.3 7.3 0 0 1-.9 4.1 8.8 8.8 0 0 0-.7 3 6.7 6.7 0 0 0 1.1 4.2c.3.3 1.5.9 1.8.6s-.2-.9-.7-1.6a5.1 5.1 0 0 1-.7-3.1 6.6 6.6 0 0 1 .6-2.5 9.5 9.5 0 0 0 1-4.8.8.8 0 0 0-.8-.7z" fill="#856353" stroke="#000" stroke-linecap="round" stroke-linejoin="round" stroke-width=".4"/>
  <path d="M38.1 118a2.4 2.4 0 0 1 1.7-.5 1.5 1.5 0 0 1 1 .6 1.8 1.8 0 0 1-1.6.4c-.9-.1-1.1-.5-1.1-.5z" fill="#fff"/>
  <path d="M38.2 118.2a4 4 0 0 0 1.3.3 3.3 3.3 0 0 0 1.4-.4 1.9 1.9 0 0 0-2.8 0m2.8 0a1.7 1.7 0 0 1-2.9 0" fill="none" stroke="#000" stroke-linecap="round" stroke-linejoin="round" stroke-width=".3"/>
  <ellipse cx="39.6" cy="118" rx=".5" ry=".7" transform="rotate(-89.1 39.58 117.98)"/>
  <circle cx="39.8" cy="118.2" r=".2" fill="#fff"/>
  <path d="M42.6 118.1a3.1 3.1 0 0 1 1.8-.3 1.8 1.8 0 0 1 .9.7 2.2 2.2 0 0 1-1.6.3c-.9-.3-1.1-.7-1.1-.7z" fill="#fff"/>
  <path d="M42.7 118.3l1.1.4a3 3 0 0 0 1.4-.2 2.2 2.2 0 0 0-1.2-.7 2.5 2.5 0 0 0-1.4.3m2.6.4a1.5 1.5 0 0 1-2.6-.3" fill="none" stroke="#000" stroke-linecap="round" stroke-linejoin="round" stroke-width=".3"/>
  <ellipse cx="44" cy="118.3" rx=".5" ry=".6" transform="rotate(-81.8 44.05 118.27)"/>
  <ellipse cx="44.2" cy="118.5" rx=".2" ry=".2" transform="rotate(-81.8 44.28 118.47)" fill="#fff"/>
  <path d="M43.9 128.8a12.7 12.7 0 0 0 13 .3c7.1-3.9 4.1-9.1 2.4-8.9s-4.4 2.3-5.6 5-7.2 4.2-9.4 3" fill="#febf10" stroke="#000" stroke-linecap="round" stroke-linejoin="round" stroke-width=".4"/>
  <path d="M45.3 128.8a12.7 12.7 0 0 0 10.5-.8c5.5-3.1 5.3-10 1.5-11.5s-5 1.8-4.5 4.6-2 7.6-6.4 6.7" fill="#0065b7"/>
  <path d="M46.6 128.1s6 .4 8.2-3.1-.2-8.3-1.6-7.1a3.3 3.3 0 0 0-.6 2.3c.2 1.5.5 3.9-1.3 5.8s-4.3 2.3-4.7 2.1z" fill="#004da1"/>
  <path d="M45.3 128.8a12.7 12.7 0 0 0 10.5-.8c5.5-3.1 5.3-10 1.5-11.5s-5 1.8-4.5 4.6-2 7.6-6.4 6.7m-.1.5s8.6 2.2 10.5-5.9" fill="none" stroke="#000" stroke-linecap="round" stroke-linejoin="round" stroke-width=".4"/>
  <path d="M40.6 128.5a13.4 13.4 0 0 1-5 .7c-1.7-.2-2.1-2-3.4-3.6a1.4 1.4 0 0 1 .4-2.4l15.7-.6s2.3 1.8.6 3.4a17.6 17.6 0 0 0-2.1 2.3 5.2 5.2 0 0 1-4.8.7l-.8-.3z" fill="red"/>
  <path d="M40.4 128.2a19.6 19.6 0 0 1-2.2-1.6 1.6 1.6 0 0 1 .3-2.5c1.6-1-5.8-1.3-5.8-1.3l-1 1.6 1 1.9 1.4 2.1 1.2.7h2.6l2.1-.4s.7 0 .4-.5z" fill="#980805"/>
  <path d="M40.6 128.5a13.4 13.4 0 0 1-5 .7c-1.7-.2-2.1-2-3.4-3.6a1.4 1.4 0 0 1 .4-2.4l15.7-.6s2.3 1.8.6 3.4a17.6 17.6 0 0 0-2.1 2.3 5.2 5.2 0 0 1-4.8.7l-.8-.3z" fill="none" stroke="#000" stroke-linecap="round" stroke-linejoin="round" stroke-width=".4"/>
  <path d="M39 127.3c1.2.5.8.7 2.1 1.4m6-7.9a10.8 10.8 0 0 0 1.3 1.9 1.7 1.7 0 0 1-1.2.8l-.6-.9-.5.2.2.9-.8.2-.3-.7-.7.2.2 1.2-2.1.5-.3-1.1h-.9v.8h-.8v-.8h-.8v1h-2v-1.1H37v.7h-1v-.7l-.7-.2-.2.9-1.8-.5.3-.9-.5-.2-.3.7-.7-.5a11.3 11.3 0 0 1 1.4-1.9 15.6 15.6 0 0 0 13.6-.5z" fill="#febf10" stroke="#000" stroke-linecap="round" stroke-linejoin="round" stroke-width=".4"/>
  <path d="M47 120.1a.5.5 0 0 1 .4.2.5.5 0 0 1-.1.7c-.2.2-6 4.4-14.1.9a.5.5 0 0 1-.3-.7.6.6 0 0 1 .7-.3c7.6 3.3 13.1-.6 13.1-.7z" fill="#febf10" stroke="#000" stroke-linecap="round" stroke-linejoin="round" stroke-width=".4"/>
  <path fill="none" stroke="#000" stroke-linecap="round" stroke-linejoin="round" stroke-width=".4" d="M8 7.9h62v124.31H8zM8.1 70H70"/>
</svg>
