<svg xmlns="http://www.w3.org/2000/svg" viewBox="0 0 78 140">
  <rect width="78" height="140" rx="6" ry="6" fill="#fff"/>
  <path d="M32.9 19.3v.2l-2.1 1.7c-.2.1 0 .7.7 1.1s-1.2 3-.9 3.8 5.5 3.3 6.4 3.5l-2.7-13.5a4.2 4.2 0 0 0-1.4 3.2z" fill="#f3bc84"/>
  <path d="M34.3 16.1a4.2 4.2 0 0 0-1.4 3.2c-.1 1.8-.9 1.6-1.3 2.7s-1.3 3.2-1 4.1 2.5 2 3.4 2.3" fill="none" stroke="#000" stroke-linecap="round" stroke-linejoin="round" stroke-width=".4"/>
  <path d="M32.9 19.5l-2.1 1.7c-.2.1 0 .7.7 1.1" fill="none" stroke="#000" stroke-linecap="round" stroke-linejoin="round" stroke-width=".4"/>
  <path fill="#f3bc84" d="M33.4 27.7l-.1 1.4 2.8.9 3.2.3 1.6-.3-.1-1.4-7.4-1.2v.3z"/>
  <path d="M46.3 29.4a.8.8 0 0 0 .3-.9 8.2 8.2 0 0 1 .1-4.2 7.7 7.7 0 0 0 .2-3.1 6.5 6.5 0 0 0-2-3.9.7.7 0 0 0-1 .2.7.7 0 0 0 .1 1 5.7 5.7 0 0 1 1.2 5.5 11.2 11.2 0 0 0 0 4.9.7.7 0 0 0 .9.5zM32.8 28a.7.7 0 0 1-.1-.9 8.4 8.4 0 0 0 1.2-4.1 9.2 9.2 0 0 1 .7-3 6.9 6.9 0 0 1 3-3.1.9.9 0 0 1 1 .5.8.8 0 0 1-.5.9 4.7 4.7 0 0 0-2.1 2.4 5.4 5.4 0 0 0-.6 2.5 9.6 9.6 0 0 1-1.4 4.7.8.8 0 0 1-1 .2z" fill="#856353" stroke="#000" stroke-linecap="round" stroke-linejoin="round" stroke-width=".4"/>
  <path d="M45 29.9a.8.8 0 0 0 .4-.9 8.2 8.2 0 0 1 .1-4.2 7.7 7.7 0 0 0 .2-3.1 6.5 6.5 0 0 0-2-3.9c-.3-.2-1.6-.5-1.9-.2s.4.9 1 1.4a5.3 5.3 0 0 1 1.4 3 7.1 7.1 0 0 1-.2 2.5 8.8 8.8 0 0 0 0 4.9c0 .4.5.6.9.5zm-11-1.4a1 1 0 0 1-.1-.9 9 9 0 0 0 1.2-4.1 7.1 7.1 0 0 1 .8-3c1.2-2.5 2.9-3.1 3-3.1a.6.6 0 0 1 .9.4.7.7 0 0 1-.4 1c-.1 0-1.2.5-2.2 2.4a7.1 7.1 0 0 0-.6 2.4 9.3 9.3 0 0 1-1.4 4.7.7.7 0 0 1-1 .3z" fill="#856353" stroke="#000" stroke-linecap="round" stroke-linejoin="round" stroke-width=".4"/>
  <path d="M43.5 30.1a.8.8 0 0 0 .4-.9 8 8 0 0 1 .2-4.2 6.1 6.1 0 0 0 .3-3.1 6.2 6.2 0 0 0-1.7-3.9.8.8 0 0 0-1.1.1.7.7 0 0 0 .1 1 4.9 4.9 0 0 1 1.3 3 6.6 6.6 0 0 1-.3 2.5 10.6 10.6 0 0 0-.3 4.9.8.8 0 0 0 .9.6zm-8.2-1.3a.6.6 0 0 1-.1-.9 8.4 8.4 0 0 0 1.2-4.1 7.2 7.2 0 0 1 .7-3 6 6 0 0 1 3-3.1.9.9 0 0 1 1 .5.8.8 0 0 1-.5.9c-.1 0-1.2.5-2.2 2.4a5.3 5.3 0 0 0-.5 2.5 12.5 12.5 0 0 1-1.4 4.7.9.9 0 0 1-1.1.2z" fill="#856353" stroke="#000" stroke-linecap="round" stroke-linejoin="round" stroke-width=".4"/>
  <path d="M36.5 29a.6.6 0 0 1-.1-.9 8.4 8.4 0 0 0 1.2-4 6.6 6.6 0 0 1 .7-3 6.5 6.5 0 0 1 3-3.2c.4-.1 1.7 0 1.9.3s-.7.8-1.4 1.1a5.9 5.9 0 0 0-2.2 2.4 5.6 5.6 0 0 0-.5 2.5 10.8 10.8 0 0 1-1.4 4.7.9.9 0 0 1-1.1.3c0-.1-.1-.1-.1-.2z" fill="#856353" stroke="#000" stroke-linecap="round" stroke-linejoin="round" stroke-width=".4"/>
  <path d="M38 29.5a.9.9 0 0 1-.2-.9 7.6 7.6 0 0 0 .9-4.1 8.6 8.6 0 0 1 .5-3c1.1-2.6 2.7-3.4 2.8-3.4a.8.8 0 0 1 .6 1.4 4.9 4.9 0 0 0-2 2.5 7.3 7.3 0 0 0-.4 2.5 9.8 9.8 0 0 1-1 4.8.9.9 0 0 1-1 .4z" fill="#856353" stroke="#000" stroke-linecap="round" stroke-linejoin="round" stroke-width=".4"/>
  <path d="M42 30.1a1 1 0 0 0 .5-.8 9.3 9.3 0 0 1 .3-4.3 5.8 5.8 0 0 0 .4-3 5.9 5.9 0 0 0-1.6-4 .8.8 0 0 0-1.1 0 .9.9 0 0 0 .1 1.1 5.1 5.1 0 0 1 1.1 3 6.9 6.9 0 0 1-.3 2.5 9 9 0 0 0-.4 4.9.6.6 0 0 0 .8.6z" fill="#856353" stroke="#000" stroke-linecap="round" stroke-linejoin="round" stroke-width=".4"/>
  <path d="M39.4 29.8a.6.6 0 0 1-.2-.9 8.9 8.9 0 0 0 .8-4.1 7.2 7.2 0 0 1 .5-3.1 6.2 6.2 0 0 1 2.7-3.4.8.8 0 0 1 1 .4.7.7 0 0 1-.4 1 5.1 5.1 0 0 0-1.9 2.6 5.3 5.3 0 0 0-.4 2.5 10 10 0 0 1-1 4.8.7.7 0 0 1-.9.3z" fill="#856353" stroke="#000" stroke-linecap="round" stroke-linejoin="round" stroke-width=".4"/>
  <path d="M42.3 11.6s.9-2.6 6.1-2.1 6.4 3.7 7.3 5.8-10.7 4.4-13.4-3.7z" fill="#0065b7"/>
  <path d="M42.3 11.6s.9-2.6 6.1-2.1 6.4 3.7 7.3 5.8-10.7 4.4-13.4-3.7z" fill="none" stroke="#000" stroke-linecap="round" stroke-linejoin="round" stroke-width=".4"/>
  <path d="M56.6 15.4c9.1.4 6.6 8.6-.2 8.7s-8-6.7-8-6.7l-4.4-4 .3-.8s7.7-4.2 13.1 4" fill="red"/>
  <path d="M44.3 13.5s4 .3 5.1 1.6 2.5 6.1 5.7 6.8a10.7 10.7 0 0 0 7-1.2c.1-.1-2.6 4.9-7.8 3.1a9.2 9.2 0 0 1-5.9-6.7z" fill="#980805"/>
  <path d="M56.6 15.4c9.1.4 6.6 8.6-.2 8.7s-8-6.7-8-6.7l-4.4-4 .3-.8s7.7-4.2 13.1 4" fill="none" stroke="#000" stroke-linecap="round" stroke-linejoin="round" stroke-width=".4"/>
  <path d="M44.5 13s5-.1 7.4 2.5 4.3 4.5 6.4 4" fill="none" stroke="#000" stroke-linecap="round" stroke-linejoin="round" stroke-width=".4"/>
  <path d="M49.1 18.9a7.2 7.2 0 0 1-7.3 7c-4 0-7.6-5.3-7.6-9.1s3.1-5.6 7.1-5.6a8.2 8.2 0 0 1 7.8 7.7z" fill="#004da1"/>
  <path d="M56.1 28.5A15 15 0 0 0 43.9 32l-.3 1.6 2.3 1.9 10.2-2.9z" fill="#856353" stroke="#000" stroke-linecap="round" stroke-linejoin="round" stroke-width=".4"/>
  <path d="M63 41.3a6.2 6.2 0 0 0 .4-2.7c-.1-1.7-3.7-5.2-3.7-5.2s-.7-.9-5.4-.8a16 16 0 0 0-7.8 2l-5.2 26 11.5 9.3h7.7c-.5-1.7-3.5-4.3-4.2-5.3a8 8 0 0 1-1.1-5.8 11.3 11.3 0 0 0-.1-6.6 34.6 34.6 0 0 1-1.1-3.4l.6.4c2.9 2.1 6 5 6 5.9s.7 3.4 2.5 3.6a3.7 3.7 0 0 0 2.9-.8s2.1.2 2-3c1.5-.9 1.5-3.8 1-4.5s-3.5-5-4-5.6-1.6-2.8-1.6-2.8z" fill="#a77e6a"/>
  <path d="M61.7 53.4a15.6 15.6 0 0 0-3.4-7.6c-2.7-3.1-5.3-6.2-6-5.4s.5 6.7-.2 8.2-2.3 10.6-.4 15.6 1.9 5.9 1.9 5.9h6s.9.1.8-.4a23.7 23.7 0 0 0-2-2.7L56 64.4l-1-4 .7-4.6-.4-2.9-1.2-3.5s-.2-.7.6-.1l3.3 2.5 1.7 2.2z" fill="#856353"/>
  <path d="M60.1 28.2a4.1 4.1 0 0 1 2.3-1.3c1.1-.1-.4 2.2-.4 2.2" fill="#a77e6a" stroke="#000" stroke-linecap="round" stroke-linejoin="round" stroke-width=".4"/>
  <path d="M62.3 39.9s2.2 4.2 2.7 4.9 3.5 5 4 5.6a4.1 4.1 0 0 1-.6 4.3c-1.3 1.1-2.3 1.6-3.1 1.3s-2.9-1.2-3.3-1.8" fill="none" stroke="#000" stroke-linecap="round" stroke-linejoin="round" stroke-width=".4"/>
  <path d="M50.6 40.2s.7 6.7 3.7 8.8 6.3 5.2 6.3 6.1.7 3.4 2.5 3.6a3.7 3.7 0 0 0 2.9-.8" fill="none" stroke="#000" stroke-linecap="round" stroke-linejoin="round" stroke-width=".4"/>
  <path d="M62.4 54.8a5.8 5.8 0 0 1 .9 1.5 2.7 2.7 0 0 0 3.4 1.3c1.9-.4 1.3-2.4 1.3-2.4" fill="none" stroke="#000" stroke-linecap="round" stroke-linejoin="round" stroke-width=".4"/>
  <path d="M66.6 51.8s-1.5-.5-2.1.5.6 1.2 1 .7.4-1.2 1.1-1.2z" fill="#856353" stroke="#000" stroke-linecap="round" stroke-linejoin="round" stroke-width=".4"/>
  <path d="M54 48.8a34.6 34.6 0 0 0 1.1 3.4 11.3 11.3 0 0 1 .1 6.6 8 8 0 0 0 1.1 5.8c.7 1 3.7 3.6 4.2 5.3m-14-35.3a16 16 0 0 1 7.8-2c4.7-.1 5.4.8 5.4.8s3.6 3.5 3.7 5.2a6.2 6.2 0 0 1-.4 2.7" fill="none" stroke="#000" stroke-linecap="round" stroke-linejoin="round" stroke-width=".4"/>
  <path d="M59.1 28.5a5.2 5.2 0 0 1 6.1 2.4c2.1 3.7 2.8 3.7 2.8 3.7a3.2 3.2 0 0 1-3.2-.6c-1.3-1.3-2.9-3.9-6-3.2" fill="#856353" stroke="#000" stroke-linecap="round" stroke-linejoin="round" stroke-width=".4"/>
  <path d="M58.1 30a5.1 5.1 0 0 1 6 2.4c2.1 3.7 2.9 3.7 2.9 3.7a3.2 3.2 0 0 1-3.2-.6c-1.4-1.3-3-3.9-6.1-3.2" fill="#856353" stroke="#000" stroke-linecap="round" stroke-linejoin="round" stroke-width=".4"/>
  <path d="M56 30.4a5.2 5.2 0 0 1 6.1 2.4c2 3.7 2.8 3.8 2.8 3.8a3.4 3.4 0 0 1-3.2-.7c-1.4-1.3-2.9-3.9-6.1-3.1" fill="#856353" stroke="#000" stroke-linecap="round" stroke-linejoin="round" stroke-width=".4"/>
  <path d="M59.6 60.4a.6.6 0 0 1-.2-1.2c.3-.1.4-.2.4-.3s-.4-.8-.6-1.2a2.7 2.7 0 0 1-.8-1.6c-.2-1.7 2.5-2.6 3.1-2.8a.6.6 0 1 1 .3 1.1c-1.1.4-2.3 1.1-2.3 1.5a5.2 5.2 0 0 0 .7 1.2c.5.7 1 1.4.7 2.2a1.6 1.6 0 0 1-1.1 1zM58.4 54h-.1c-.3 0-.5-.3-.5-.7s-1.2-5.2-3.9-9.8c-1.7-3-1.3-7.3-1.3-7.5a.5.5 0 0 1 .7-.5.6.6 0 0 1 .5.6c0 .1-.4 4.1 1.2 6.8 2.8 4.8 4.1 8.3 4 10.5a.6.6 0 0 1-.6.6z" fill="#0065b7" stroke="#000" stroke-linecap="round" stroke-linejoin="round" stroke-width=".4"/>
  <path d="M47.3 56.8s2.7 5.6 12 2.4a6.2 6.2 0 0 1-.2 2.9l-1-.5-.7 1.4-1-.8-.8 1.2-1-.9-1.2.7-.9-1-1.2.8-.8-1.2-1.2.4-.6-1.3-1 .4-.3-1.2-1.3.4-.3-1.1-1.5.4.5-3.2zm5.3-20.6c-.3 0-.5-.3-.6-.6-.2-2.5 2.2-4.5 2.3-4.6a.6.6 0 1 1 .8 1s-2 1.7-1.9 3.5-.2.6-.5.7zm2.3 18.4a18.6 18.6 0 0 1-4.8-.5.5.5 0 0 1-.5-.7.6.6 0 0 1 .8-.4c3.5.9 8.9.2 10.6 0-.2-3.1-2-5.4-4.6-8.3s-3.5-8.1-3.5-8.3.1-.6.5-.7a.6.6 0 0 1 .6.5c.1.1.9 4.9 3.3 7.7s4.9 5.8 4.9 9.6a.6.6 0 0 1-.5.6 55.7 55.7 0 0 1-6.8.5z" fill="#0065b7" stroke="#000" stroke-linecap="round" stroke-linejoin="round" stroke-width=".4"/>
  <path d="M53.4 48.9a.8.8 0 0 1-.6-.4c-1.8-4.3-.9-12.2-.9-12.6a.8.8 0 0 1 .7-.5c.3 0 .5.3.5.7s-.9 7.9.8 11.9a.6.6 0 0 1-.3.8z" fill="#0065b7" stroke="#000" stroke-linecap="round" stroke-linejoin="round" stroke-width=".4"/>
  <path d="M54.5 34.4s-1-4.3 3.8-7.6c0 0 .7-.4.8.3s0 3.1.2 4a3.5 3.5 0 0 1 .4 1.8" fill="#a77e6a" stroke="#000" stroke-linecap="round" stroke-linejoin="round" stroke-width=".4"/>
  <path d="M57.9 28.2s-2.6 2.2-2.3 4.9" fill="none" stroke="#000" stroke-linecap="round" stroke-linejoin="round" stroke-width=".4"/>
  <path d="M53 36.8a.8.8 0 0 1-.7-.5.7.7 0 0 1 .5-.9l6.8-2.5a.7.7 0 0 1 .9.5.6.6 0 0 1-.4.9l-6.8 2.5z" fill="#0065b7" stroke="#000" stroke-linecap="round" stroke-linejoin="round" stroke-width=".4"/>
  <path fill="red" stroke="#000" stroke-linecap="round" stroke-linejoin="round" stroke-width=".4" d="M51.39 36.06l1.56-1.55 1.51 1.53-1.56 1.55z"/>
  <path d="M52.38 36.07l.64-.64.6.61-.64.64z"/>
  <path d="M56.8 40.8s.1.9.3 1l1.4.6.4-1.1z" fill="#fff"/>
  <path d="M55.8 39.1s3.4-.5 4.5 1.8h-.7" fill="none" stroke="#000" stroke-linecap="round" stroke-linejoin="round" stroke-width=".4"/>
  <path d="M57 40.1s2.5 0 2.5 1.2l-2.7-.6" fill="none" stroke="#000" stroke-linecap="round" stroke-linejoin="round" stroke-width=".3"/>
  <ellipse cx="58.5" cy="41.7" rx=".7" ry=".8" transform="rotate(-78.4 58.55 41.73)"/>
  <circle cx="58.3" cy="41.5" r=".2" fill="#fff"/>
  <path d="M56.9 41.7a3 3 0 0 0 2 .7" fill="none" stroke="#000" stroke-linecap="round" stroke-linejoin="round" stroke-width=".3"/>
  <path d="M63.3 39.7a.8.8 0 0 0-.5.2" fill="none" stroke="#000" stroke-linecap="round" stroke-linejoin="round" stroke-width=".4"/>
  <path d="M49 63.2a69.4 69.4 0 0 1 5.8 7L34.9 70l-.6-1.5 7.9-2.4 5.6-3.1.5-.3z" fill="#325723"/>
  <path fill="#0d3a12" d="M49.4 63.8l4.6 5.1.6 1.2-6.8-.1-3.9-5.2 4.3-2 1.2 1z"/>
  <path d="M39.9 70a3.3 3.3 0 0 1 2.3-1.8 11.1 11.1 0 0 0 4.7-3.1 3.5 3.5 0 0 1 2.9-.9l-.9-1-5.4 2.7-3.2 1.6-1.9.4-3.8.9.6 1.2z" fill="#febf10"/>
  <path d="M46.9 35.4a20.8 20.8 0 0 1-2.4 6.7 17.3 17.3 0 0 0-2.5 8.5c-.1 1.3 1.9 5.6 2.3 6.7s.8 2.6.8 2.6L32 66.1l-8.9-12.7-1.7-8.9a10.3 10.3 0 0 0 1.8-3.6c.2-1.5 1.6-6.3 1.4-7.9a19.9 19.9 0 0 0-.4-2.9 8.4 8.4 0 0 1 6.3-1.3c3.6.6 14.9 3.9 16.4 6.6z" fill="red"/>
  <path d="M39.7 36.9s-4.6 12.7 2.5 24.7l2.8-2.2s-4.1-9.3-3-12.3 3.6-8.2 3.6-8.2l1-3.5z" fill="#980805"/>
  <path d="M46.9 35.4a20.8 20.8 0 0 1-2.4 6.7 17.3 17.3 0 0 0-2.5 8.5c-.1 1.3 1.9 5.6 2.3 6.7s.7 2.5.7 2.5l-13 6.3-8.9-12.7-1.7-8.9a10.3 10.3 0 0 0 1.8-3.6c.2-1.5 1.6-6.3 1.4-7.9a19.9 19.9 0 0 0-.4-2.9 8.4 8.4 0 0 1 6.3-1.3c3.6.6 14.9 3.9 16.4 6.6z" fill="none" stroke="#000" stroke-linecap="round" stroke-linejoin="round" stroke-width=".4"/>
  <circle cx="36.4" cy="57.1" r="1.5" fill="#0d3a12" stroke="#000" stroke-linecap="round" stroke-linejoin="round" stroke-width=".4"/>
  <circle cx="30.5" cy="56.8" r="1.2" fill="#0d3a12" stroke="#000" stroke-linecap="round" stroke-linejoin="round" stroke-width=".4"/>
  <ellipse cx="30.5" cy="31.4" rx="1.4" ry="1.2" transform="rotate(-54.3 30.45 31.38)" fill="#f2f2f2" stroke="#000" stroke-linecap="round" stroke-linejoin="round" stroke-width=".4"/>
  <ellipse cx="30.8" cy="31" rx=".8" ry=".7" transform="rotate(-54.3 30.75 31.04)" fill="#febf10" stroke="#000" stroke-linecap="round" stroke-linejoin="round" stroke-width=".4"/>
  <ellipse cx="32.7" cy="32.5" rx="1.4" ry="1.2" transform="rotate(-64.2 32.78 32.56)" fill="#f2f2f2" stroke="#000" stroke-linecap="round" stroke-linejoin="round" stroke-width=".4"/>
  <ellipse cx="32.9" cy="32.2" rx=".8" ry=".7" transform="rotate(-64.2 32.95 32.11)" fill="#febf10" stroke="#000" stroke-linecap="round" stroke-linejoin="round" stroke-width=".4"/>
  <ellipse cx="35.2" cy="33.3" rx="1.4" ry="1.2" transform="rotate(-72.1 35.11 33.33)" fill="#f2f2f2" stroke="#000" stroke-linecap="round" stroke-linejoin="round" stroke-width=".4"/>
  <ellipse cx="35.3" cy="32.9" rx=".8" ry=".7" transform="rotate(-72.1 35.22 32.89)" fill="#febf10" stroke="#000" stroke-linecap="round" stroke-linejoin="round" stroke-width=".4"/>
  <ellipse cx="28.6" cy="29.8" rx="1.2" ry="1" transform="rotate(-27.7 28.57 29.85)" fill="#f2f2f2" stroke="#000" stroke-linecap="round" stroke-linejoin="round" stroke-width=".4"/>
  <ellipse cx="29" cy="29.7" rx=".7" ry=".6" transform="rotate(-27.7 29.02 29.74)" fill="#febf10" stroke="#000" stroke-linecap="round" stroke-linejoin="round" stroke-width=".4"/>
  <path d="M28.9 28.8l4.3.2c.2.1 2.7 1.8 7.5 1l2.6 1.6c-10 3.6-14.2-2.7-14.4-2.8z" fill="#f2f2f2" stroke="#000" stroke-linecap="round" stroke-linejoin="round" stroke-width=".4"/>
  <path d="M42.4 31.1a18.2 18.2 0 0 1-4.3.9 10.9 10.9 0 0 1-8.2-3.1m2.2.1c.1.2 3.6 3 9.2 1.5" fill="none" stroke="#000" stroke-linecap="round" stroke-linejoin="round" stroke-width=".4"/>
  <path d="M40.6 25.2c6.5-7.1 2.3-13 2.3-13s-1.7-1 .6-.7a6.2 6.2 0 0 1 3.7 2.7s2 5.8-3.1 11.3c0 0-2.6 1-3.5-.3z" fill="#d09b07"/>
  <path d="M42.9 12.2s4.2 5.9-2.3 13" fill="none" stroke="#000" stroke-linecap="round" stroke-linejoin="round" stroke-width=".4"/>
  <path d="M39.3 25.1c-5.4-10.3 1.2-13.9 1.2-13.9s3-.2 4.1.9-6.7 4.4-3.5 13.7a4.2 4.2 0 0 1-1.8-.7z" fill="#febf10"/>
  <path d="M24.4 49.6l-1.6 4.7a45.3 45.3 0 0 0 12.6 2 26.5 26.5 0 0 0 7.9-1.1l-1.5-4.8a19.4 19.4 0 0 1-6.4.9 41.8 41.8 0 0 1-11-1.7z" fill="#325723" stroke="#000" stroke-linecap="round" stroke-linejoin="round" stroke-width=".4"/>
  <path d="M42.9 54.2a34.7 34.7 0 0 1-7.5 1.1 45.9 45.9 0 0 1-11.3-1.6m1-2.9a40.4 40.4 0 0 0 10.3 1.5 17.6 17.6 0 0 0 6.6-1" fill="none" stroke="#000" stroke-linecap="round" stroke-linejoin="round" stroke-width=".4"/>
  <path fill="#febf10" stroke="#000" stroke-linecap="round" stroke-linejoin="round" stroke-width=".4" d="M33.8 55.2L32 53.5l-2 1.4-1.5-1.9-2 1.2-1.8-3.2.9-.5 1.3 2.3 1.8-1.1 1.5 1.8 1.9-1.3 1.8 1.8 2-1.6 2.1 1.4 1.7-1.8 3.5 1.8-.5.9-2.8-1.5-1.8 1.9-2.1-1.5-2.2 1.6z"/>
  <path d="M41.3 30.4c-.5.2-10.8 4.6-22.1 18.6l4.3 5.2a74.6 74.6 0 0 1 23.4-18.8 11.4 11.4 0 0 0-5.6-5z" fill="#febf10"/>
  <path d="M46.1 34.2C43 35.7 31 43 22.8 52.8L20 49.4c9.1-10.9 19.3-16.8 22.5-18.3 1.5.2 3.6 3.1 3.6 3.1z" fill="#d09b07"/>
  <path d="M41.3 30.4c-.5.2-10.8 4.6-22.1 18.6l4.3 5.2a74.6 74.6 0 0 1 23.4-18.8 11.4 11.4 0 0 0-5.6-5z" fill="none" stroke="#000" stroke-linecap="round" stroke-linejoin="round" stroke-width=".4"/>
  <path d="M46.1 34.2C43 35.7 31 43 22.8 52.8L20 49.4c9.1-10.9 19.3-16.8 22.5-18.3" fill="none" stroke="#000" stroke-linecap="round" stroke-linejoin="round" stroke-width=".4"/>
  <path d="M29.7 43.4c-3.4 2.4-2.6 3.8-2.6 3.8l-.8-1.4a1.7 1.7 0 0 1-1.5-.7c2.6.3 4.2-2.4 4.2-2.4l1.3-.7.4.6z" fill="#325723" stroke="#000" stroke-linecap="round" stroke-linejoin="round" stroke-width=".3"/>
  <path fill="#f2f2f2" stroke="#000" stroke-linecap="round" stroke-linejoin="round" stroke-width=".3" d="M32.8 42.4l-1.9-.9-.3-2 2.7-2.1 2.2 2.9-2.7 2.1z"/>
  <path fill="red" stroke="#000" stroke-linecap="round" stroke-linejoin="round" stroke-width=".3" d="M33.2 41.3l-1.8-.2.3-1.8 1.5-1.1-.2.8.9.1-.1 1 .9.1-1.5 1.1z"/>
  <path fill="#febf10" stroke="#000" stroke-linecap="round" stroke-linejoin="round" stroke-width=".3" d="M34.9 36.6l2.5-2.3-.5 1.4 1.5-.4-.8 1.4 1.5-.3-.8 1.3h1.5l-3.1 1.6"/>
  <ellipse cx="35.8" cy="38" rx=".5" ry="1.6" transform="rotate(-34.2 35.84 37.9)" fill="#febf10" stroke="#000" stroke-linecap="round" stroke-linejoin="round" stroke-width=".3"/>
  <path d="M35.5 36.1a3.9 3.9 0 0 1 1.9 2.8" fill="#febf10" stroke="#000" stroke-linecap="round" stroke-linejoin="round" stroke-width=".3"/>
  <path d="M40.1 33.7a2.3 2.3 0 0 1 0-1.2s.9 0 1.2.3.2.9-.1 1.1a.9.9 0 0 1-1.1-.2z" fill="#325723"/>
  <path d="M40.6 33.9c-.2-.2 0-.8 0-.8s.6 0 .8.2a.5.5 0 0 1-.1.8c-.2.2-.5.1-.7-.2z" fill="#0d3a12"/>
  <path d="M40.1 33.7a2.3 2.3 0 0 1 0-1.2s.9 0 1.2.3.2.9-.1 1.1a.9.9 0 0 1-1.1-.2z" fill="none" stroke="#000" stroke-linecap="round" stroke-linejoin="round" stroke-width=".3"/>
  <path d="M41.6 32.9c.2-.4 1-.6 1-.6s.4.8.2 1.2a.7.7 0 0 1-1 .4.8.8 0 0 1-.2-1z" fill="#325723"/>
  <path d="M43 34c.4.1.6 1 .6 1a2.1 2.1 0 0 1-1.1.3.9.9 0 0 1-.5-1 .8.8 0 0 1 1-.3z" fill="#325723"/>
  <path d="M41.5 33.4a1.4 1.4 0 0 1 .8-.4 2 2 0 0 1 .1.9c-.2.2-.5.4-.8.2a.5.5 0 0 1-.1-.7z" fill="#0d3a12"/>
  <path d="M42.4 34c.3.1.5.7.5.7s-.5.3-.8.2a.5.5 0 1 1 .3-.9z" fill="#0d3a12"/>
  <path d="M42.3 35.5c0 .4-.6 1-.6 1s-.7-.4-.8-.9a.9.9 0 0 1 .6-.9.8.8 0 0 1 .8.8z" fill="#325723"/>
  <path d="M42.1 35c0 .3-.5.7-.5.7s-.5-.4-.5-.7a.5.5 0 1 1 1 0z" fill="#0d3a12"/>
  <path d="M40.6 35.4c-.4.2-1.1-.2-1.1-.2s.1-.9.5-1.1a.7.7 0 0 1 1 .3.7.7 0 0 1-.4 1z" fill="#325723"/>
  <path d="M41.6 32.9c.2-.4 1-.6 1-.6s.4.8.2 1.2a.7.7 0 0 1-1 .4.8.8 0 0 1-.2-1z" fill="none" stroke="#000" stroke-linecap="round" stroke-linejoin="round" stroke-width=".3"/>
  <path d="M41 35c-.3.1-.8-.2-.8-.2s.2-.6.5-.7a.5.5 0 0 1 .7.3c.1.2-.1.5-.4.6z" fill="#0d3a12"/>
  <path d="M43 34c.4.1.6 1 .6 1a2.1 2.1 0 0 1-1.1.3.9.9 0 0 1-.5-1 .8.8 0 0 1 1-.3z" fill="none" stroke="#000" stroke-linecap="round" stroke-linejoin="round" stroke-width=".3"/>
  <path d="M42.3 35.5c0 .4-.6 1-.6 1s-.7-.4-.8-.9a.9.9 0 0 1 .6-.9.8.8 0 0 1 .8.8z" fill="none" stroke="#000" stroke-linecap="round" stroke-linejoin="round" stroke-width=".3"/>
  <path d="M40.6 35.4c-.4.2-1.1-.2-1.1-.2s.1-.9.5-1.1a.7.7 0 0 1 1 .3.7.7 0 0 1-.4 1z" fill="none" stroke="#000" stroke-linecap="round" stroke-linejoin="round" stroke-width=".3"/>
  <circle cx="41.5" cy="34.3" r=".7" fill="red" stroke="#000" stroke-linecap="round" stroke-linejoin="round" stroke-width=".3"/>
  <circle cx="41.5" cy="34.3" r=".3" fill="#980805" stroke="#000" stroke-linecap="round" stroke-linejoin="round" stroke-width=".3"/>
  <path d="M29.2 42.8a3 3 0 0 1-1.9-.4 2.8 2.8 0 0 1 1.6-1.1 3.1 3.1 0 0 1 1.9.3 2.8 2.8 0 0 1-1.6 1.2z" fill="#325723" stroke="#000" stroke-linecap="round" stroke-linejoin="round" stroke-width=".3"/>
  <path d="M29.6 43.1a3.3 3.3 0 0 1 1.4-1.4 3 3 0 0 1 0 2 2.9 2.9 0 0 1-1.4 1.4 3 3 0 0 1 0-2z" fill="#325723" stroke="#000" stroke-linecap="round" stroke-linejoin="round" stroke-width=".3"/>
  <path d="M20.7 57a54.7 54.7 0 0 1-2-7.5 106.8 106.8 0 0 0-2.6-10.8c-.4-.8-2.8-3.8-3-5.4a11.3 11.3 0 0 0-1.5-3.9c-.8-1.1-1-2.5-2.3-8.3s-.1-10.2 3.7-9.9 4.6 6.1 4.6 6.1a6.2 6.2 0 0 1 1.4 1.9c.4 1 .3 3.5.8 4.5s.6 3.7.6 5.5 1.2 6 1.5 7.6-.3 7.8 0 8.7a74.7 74.7 0 0 1 1.6 10c0 1.3-2.8 1.5-2.8 1.5z" fill="#a77e6a"/>
  <path d="M22.5 56.6c.6.1 1-.6 1-1.1a74.7 74.7 0 0 0-1.6-10c-.3-.9.4-7.2 0-8.7s-1.5-5.9-1.5-7.6-.1-4.5-.6-5.5-.4-3.5-.8-4.5a6.2 6.2 0 0 0-1.4-1.9s-.8-5.9-4.6-6.1c0 0-.9.6.2 3s2 13.3 2.5 15.5 3.8 15.8 4.3 17.7 1 5.3 1.4 6.8.2 2.2 1.1 2.4z" fill="#534741"/>
  <path d="M13 13s-2.7.1-2.1 2.7l2.2 9.5c.7 3 1.1 7.4 1.9 8.4a19.1 19.1 0 0 1 2.5 5.6c.3 1.5 2.9 12 3.7 12.7s.3-3.7-.4-6.7-.5-5.4-1-7.5a79.1 79.1 0 0 0-2.9-8.6c-.9-2.2-1.1-8-1.8-9.8s-.5-5.7-2.1-6.3z" fill="#856353"/>
  <path d="M20.7 57a54.7 54.7 0 0 1-2-7.5 106.8 106.8 0 0 0-2.6-10.8c-.4-.8-2.8-3.8-3-5.4a11.3 11.3 0 0 0-1.5-3.9c-.8-1.1-1-2.5-2.3-8.3s-.1-10.2 3.7-9.9 4.6 6.1 4.6 6.1a6.2 6.2 0 0 1 1.4 1.9c.4 1 .3 3.5.8 4.5s.6 3.7.6 5.5 1.2 6 1.5 7.6-.3 7.8 0 8.7a74.7 74.7 0 0 1 1.6 10c0 1.3-2.8 1.5-2.8 1.5z" fill="none" stroke="#000" stroke-linecap="round" stroke-linejoin="round" stroke-width=".4"/>
  <circle cx="37.4" cy="60.6" r=".7" fill="#febf10" stroke="#000" stroke-linecap="round" stroke-linejoin="round" stroke-width=".4"/>
  <circle cx="43.5" cy="58.2" r=".6" fill="#febf10" stroke="#000" stroke-linecap="round" stroke-linejoin="round" stroke-width=".4"/>
  <path d="M41.1 60.5a1 1 0 0 0 .4-1.2c-.2-.8-.5-1.8-.1-2.3s-.4-.1-.7.8-.3-.5-.9-.9a1.8 1.8 0 0 0-.2 1.5c0-.1-.6-.3-1.1-.3a3.5 3.5 0 0 1 .9 1.2c.2.7.6 1.6 1.7 1.2z" fill="#febf10" stroke="#000" stroke-linecap="round" stroke-linejoin="round" stroke-width=".4"/>
  <path d="M45 59.5c-.1.1-2.3.9-5.5 2.7-1.5.8-7.1 1.8-8.9 2l.5 5c.6-.1 8.1-.9 11-2.5s6.8-3.4 6.9-3.5l-4-3.7z" fill="#325723"/>
  <path d="M47.8 62.4l-6.3 3.2c-2 1.1-6.7 1.9-9.4 2.3l-.2-2.6c2.4-.4 6.7-1.2 8.2-2.1s4.2-2.2 5.7-2.8" fill="#febf10"/>
  <path d="M45 59.5c-.1.1-2.3.9-5.5 2.7-1.5.8-7.1 1.8-8.9 2l.5 5c.6-.1 8.1-.9 11-2.5s6.8-3.4 6.9-3.5l-4-3.7z" fill="none" stroke="#000" stroke-linecap="round" stroke-linejoin="round" stroke-width=".4"/>
  <path d="M47.8 62.4l-6.3 3.2c-2 1.1-6.7 1.9-9.4 2.3l-.2-2.6c2.4-.4 6.7-1.2 8.2-2.1s4.2-2.2 5.7-2.8" fill="none" stroke="#000" stroke-linecap="round" stroke-linejoin="round" stroke-width=".4"/>
  <path d="M35.2 69.9c-2.4-2.7-1.3-9.8-1.3-9.8a5.2 5.2 0 0 0-3.3-1.4 8.6 8.6 0 0 0-1.9.2c-.6-2.3-3-6-6.1-6h-.3c-3.3.2-4.4 4.5-4.4 4.5l.9 12.2" fill="#0065b7" stroke="#000" stroke-linecap="round" stroke-linejoin="round" stroke-width=".4"/>
  <path d="M49.8 64.2a3.5 3.5 0 0 0-2.9.9 11.1 11.1 0 0 1-4.7 3.1 3.3 3.3 0 0 0-2.3 1.8" fill="none" stroke="#000" stroke-linecap="round" stroke-linejoin="round" stroke-width=".4"/>
  <path d="M21.9 54h-.3c-3.2.2-4.3 4.6-4.3 4.6l-1.3-.2c-4.8 0-2.7 6.9-2.7 6.9l1.3 3.5L34.3 70c-2.5-2.8-1.6-9.4-1.6-9.4a4.1 4.1 0 0 0-2.7-1 3.9 3.9 0 0 0-1.9.5c-.6-2.4-3.1-6.1-6.2-6.1z" fill="#febf10" stroke="#000" stroke-linecap="round" stroke-linejoin="round" stroke-width=".4"/>
  <path d="M21.8 56c-2.1 0-3.1 4.9-3.1 4.9a5.9 5.9 0 0 0-2.6-.9 1.4 1.4 0 0 0-1.4 1.1c-.7 2.6 1.3 5.8 1.3 5.8l15 .7a17.7 17.7 0 0 1-.4-5.9h-.4a8 8 0 0 0-3.5 1.4S25 56 21.9 56h-.1z" fill="#0065b7" stroke="#000" stroke-linecap="round" stroke-linejoin="round" stroke-width=".4"/>
  <path d="M22.2 57.8c1.4.1 2.4 2.9 3.1 5.7l.5 2.1 1.8-1.3 1.4-.8c0 .8 0 2.4.1 3.3l-12.2-1.4c-.5-1-1.4-3.1-.8-3.6s3.4 2.1 3.4 2.1 1-6.3 2.7-6.1z" fill="red" stroke="#000" stroke-linecap="round" stroke-linejoin="round" stroke-width=".4"/>
  <path d="M8.6 70s8.5-14 25.4 0" fill="#a77e6a"/>
  <path d="M24.4 64.5s1.3 3.3-1.3 5.5h10.5v-.5s-5.9-4.6-9.2-5z" fill="#856353"/>
  <ellipse cx="22.3" cy="61.3" rx="1.1" ry="2" fill="#325723" stroke="#000" stroke-linecap="round" stroke-linejoin="round" stroke-width=".4"/>
  <path d="M24 64.5s-4.8 1.8-6.4 5.5h-1.1a11.1 11.1 0 0 1 2.6-3.2l-.3-1.3c-2.3.6-5.1 4.5-5.1 4.5h-1.4c2.3-4 7.6-6.2 7.6-6.2a7.9 7.9 0 0 1 4.1.7z" fill="#0065b7"/>
  <path d="M19.9 63.8S14.6 66 12.3 70M24 64.5s-4.8 1.8-6.4 5.5m-3.9-.1s2.8-3.9 5.1-4.5l.3 1.3a11.1 11.1 0 0 0-2.6 3.2m-7.7 0S17.1 56 34 70" fill="none" stroke="#000" stroke-linecap="round" stroke-linejoin="round" stroke-width=".4"/>
  <path d="M46.9 35.4a10.9 10.9 0 0 1 1.7 9.2s5.1 4.3.6 10.9-8.9-2-7.8-6.2 4.4-9.9 4.4-11.3.8-2.8 1.1-2.6z" fill="#0065b7"/>
  <path d="M43.9 55.4c.4 2.1 2.7 3.9 5.3.1 4.5-6.6-.6-10.9-.6-10.9s-5.7 2.6-4.7 10.8z" fill="#004da1"/>
  <path d="M46.9 35.4a10.9 10.9 0 0 1 1.7 9.2s5.1 4.3.6 10.9-8.9-2-7.8-6.2 4.4-9.9 4.4-11.3.8-2.8 1.1-2.6z" fill="none" stroke="#000" stroke-linecap="round" stroke-linejoin="round" stroke-width=".4"/>
  <path d="M15 37.5c-2.7 2.1-4.1 4-3.7 8.2s2.6 4.2 4 3.9 6.1-3.3 8.4-9.4.5-10.1.5-10.1a26 26 0 0 0-8 11.7l.3-1.5a11.5 11.5 0 0 0-.5-1.5c-.4-.6-.6-1.1-1-1.3z" fill="#0065b7"/>
  <path d="M21.1 33.2s-.3 10.9-4.3 15.7c0 0 7.5-5.9 8-12.7s-.8-5.8-.8-5.8z" fill="#004da1"/>
  <path d="M16.2 41.8a26 26 0 0 1 8-11.7s1.8 4-.5 10.1-7.1 9-8.4 9.4-3.7.3-4-3.9.5-5.9 3.8-8.3M49 63.2a60.2 60.2 0 0 1 5.6 6.7M40.5 11.2s-6.6 3.6-1.2 13.9m5.3-13s-6.7 4.4-3.5 13.7m6.1-11.6s2 5.8-3.1 11.3" fill="none" stroke="#000" stroke-linecap="round" stroke-linejoin="round" stroke-width=".4"/>
  <path d="M49.1 18.9a7.2 7.2 0 0 1-7.3 7c-4 0-7.6-5.3-7.6-9.1s3.1-5.6 7.1-5.6a8.2 8.2 0 0 1 7.8 7.7z" fill="none" stroke="#000" stroke-linecap="round" stroke-linejoin="round" stroke-width=".4"/>
  <circle cx="45.6" cy="15" r="1.3" fill="#febf10" stroke="#000" stroke-linecap="round" stroke-linejoin="round" stroke-width=".4"/>
  <path d="M45.6 14.3a.6.6 0 0 1 .7.6c.1.4-.2.7-.6.8" fill="#febf10" stroke="#000" stroke-linecap="round" stroke-linejoin="round" stroke-width=".3"/>
  <circle cx="45.9" cy="18" r="1.3" fill="#febf10" stroke="#000" stroke-linecap="round" stroke-linejoin="round" stroke-width=".4"/>
  <path d="M46.1 17.3a.7.7 0 0 1-.4 1.4" fill="#febf10" stroke="#000" stroke-linecap="round" stroke-linejoin="round" stroke-width=".3"/>
  <circle cx="45.2" cy="21" r="1.3" fill="#febf10" stroke="#000" stroke-linecap="round" stroke-linejoin="round" stroke-width=".4"/>
  <path d="M45.5 20.3a.7.7 0 0 1 .3.9.6.6 0 0 1-.9.4" fill="#febf10" stroke="#000" stroke-linecap="round" stroke-linejoin="round" stroke-width=".3"/>
  <circle cx="43.8" cy="23.6" r="1.3" fill="#febf10" stroke="#000" stroke-linecap="round" stroke-linejoin="round" stroke-width=".4"/>
  <path d="M44.1 23a.7.7 0 0 1 .3 1 .8.8 0 0 1-1 .2" fill="#febf10" stroke="#000" stroke-linecap="round" stroke-linejoin="round" stroke-width=".3"/>
  <path fill="none" stroke="#000" stroke-linecap="round" stroke-linejoin="round" stroke-width=".4" d="M33.3 28.3l-.1.7m7.6 1v-.7"/>
  <path d="M45.1 120.9v-.2l2.1-1.7c.2-.2 0-.7-.7-1.2s1.2-2.9.9-3.7-4.6-3-5.4-3.2l1.7 13.1a4.1 4.1 0 0 0 1.4-3.1z" fill="#f3bc84"/>
  <path d="M43.7 124a4.1 4.1 0 0 0 1.4-3.1c.1-1.8.9-1.6 1.3-2.8s1.3-3.2 1-4-2.5-2.1-3.4-2.3" fill="none" stroke="#000" stroke-linecap="round" stroke-linejoin="round" stroke-width=".4"/>
  <path d="M45.1 120.7l2.1-1.7c.2-.2 0-.7-.7-1.2" fill="none" stroke="#000" stroke-linecap="round" stroke-linejoin="round" stroke-width=".4"/>
  <path fill="#f3bc84" d="M44.6 112.5l.1-1.4-2.8-1-3.2-.2-1.6.2.1 1.5 7.4 1.2v-.3z"/>
  <path d="M31.7 110.8a.7.7 0 0 0-.3.8 8.6 8.6 0 0 1-.1 4.3 7.7 7.7 0 0 0-.2 3.1c.5 2.7 1.9 3.8 2 3.8a.7.7 0 0 0 1-.1.8.8 0 0 0-.1-1.1c-.1 0-1-.8-1.4-2.9a5.2 5.2 0 0 1 .2-2.5 11.3 11.3 0 0 0 0-4.9.8.8 0 0 0-.9-.6zm13.5 1.3a.8.8 0 0 1 .1.9 9 9 0 0 0-1.2 4.1 8.7 8.7 0 0 1-.7 3 6.2 6.2 0 0 1-3 3.1.7.7 0 0 1-1-.4.9.9 0 0 1 .5-1 4.7 4.7 0 0 0 2.1-2.4 5 5 0 0 0 .6-2.4 9.3 9.3 0 0 1 1.4-4.7.7.7 0 0 1 1-.3z" fill="#856353" stroke="#000" stroke-linecap="round" stroke-linejoin="round" stroke-width=".4"/>
  <path d="M33 110.3a.7.7 0 0 0-.4.8 8.6 8.6 0 0 1-.1 4.3 7.2 7.2 0 0 0-.2 3c.5 2.8 1.9 3.9 2 3.9s1.6.6 1.9.3-.4-.9-1-1.5-1-.8-1.4-2.9a6.9 6.9 0 0 1 .2-2.5 8.9 8.9 0 0 0 0-4.9.7.7 0 0 0-.9-.6zm11 1.4a.9.9 0 0 1 .1.9 8.4 8.4 0 0 0-1.2 4.1 7.5 7.5 0 0 1-.8 3 6 6 0 0 1-3 3.1.7.7 0 0 1-.9-.5.6.6 0 0 1 .4-.9c.1 0 1.2-.5 2.2-2.4a7.1 7.1 0 0 0 .6-2.5 9.6 9.6 0 0 1 1.4-4.7.8.8 0 0 1 1-.2z" fill="#856353" stroke="#000" stroke-linecap="round" stroke-linejoin="round" stroke-width=".4"/>
  <path d="M34.5 110.1a.7.7 0 0 0-.4.8 7.9 7.9 0 0 1-.2 4.2 6.3 6.3 0 0 0-.3 3.1 6.7 6.7 0 0 0 1.7 4 .9.9 0 0 0 1.1-.1.8.8 0 0 0-.1-1.1c-.1 0-1-.9-1.3-3a7.2 7.2 0 0 1 .3-2.5 10.4 10.4 0 0 0 .3-4.9.9.9 0 0 0-.9-.6zm8.2 1.2a.6.6 0 0 1 .1.9 9 9 0 0 0-1.2 4.1 6.9 6.9 0 0 1-.7 3c-1.2 2.5-2.9 3.1-3 3.1a.7.7 0 0 1-1-.4.9.9 0 0 1 .5-1c.1 0 1.2-.5 2.2-2.4a4.9 4.9 0 0 0 .5-2.4 12 12 0 0 1 1.4-4.7.8.8 0 0 1 1.1-.3z" fill="#856353" stroke="#000" stroke-linecap="round" stroke-linejoin="round" stroke-width=".4"/>
  <path d="M41.5 111.1a.6.6 0 0 1 .1.9 8.4 8.4 0 0 0-1.2 4.1 7.2 7.2 0 0 1-.7 3c-1.2 2.5-2.9 3.1-3 3.1s-1.7.1-1.9-.3.7-.7 1.4-1.1a5.4 5.4 0 0 0 2.7-4.8 10.5 10.5 0 0 1 1.4-4.7.8.8 0 0 1 1.1-.3z" fill="#856353" stroke="#000" stroke-linecap="round" stroke-linejoin="round" stroke-width=".4"/>
  <path d="M40 110.6a1 1 0 0 1 .2.9 8.2 8.2 0 0 0-.9 4.2 8.6 8.6 0 0 1-.5 3c-1.1 2.6-2.7 3.3-2.8 3.3a.8.8 0 0 1-1-.3.7.7 0 0 1 .4-1 5.6 5.6 0 0 0 2-2.6 6.9 6.9 0 0 0 .4-2.5 10 10 0 0 1 1-4.8.8.8 0 0 1 1-.3z" fill="#856353" stroke="#000" stroke-linecap="round" stroke-linejoin="round" stroke-width=".4"/>
  <path d="M36 110.1a.9.9 0 0 0-.5.8 8.8 8.8 0 0 1-.3 4.2 6.2 6.2 0 0 0-.4 3.1 6.7 6.7 0 0 0 1.6 4 .8.8 0 0 0 1.1-.1.8.8 0 0 0-.1-1 6.2 6.2 0 0 1-1.1-3.1 6.3 6.3 0 0 1 .3-2.4 9.2 9.2 0 0 0 .4-4.9.8.8 0 0 0-.8-.7z" fill="#856353" stroke="#000" stroke-linecap="round" stroke-linejoin="round" stroke-width=".4"/>
  <path d="M38.6 110.3a.7.7 0 0 1 .2.9 9 9 0 0 0-.8 4.2 6.8 6.8 0 0 1-.5 3c-1 2.6-2.6 3.4-2.7 3.4a.8.8 0 0 1-1-.3.7.7 0 0 1 .4-1 6.8 6.8 0 0 0 1.9-2.6 5.5 5.5 0 0 0 .4-2.5 9.8 9.8 0 0 1 1-4.8.6.6 0 0 1 .9-.4z" fill="#856353" stroke="#000" stroke-linecap="round" stroke-linejoin="round" stroke-width=".4"/>
  <path d="M35.7 128.5s-.9 2.7-6.1 2.2-6.4-3.8-7.3-5.9 10.7-4.3 13.4 3.7z" fill="#0065b7"/>
  <path d="M35.7 128.5s-.9 2.7-6.1 2.2-6.4-3.8-7.3-5.9 10.7-4.3 13.4 3.7z" fill="none" stroke="#000" stroke-linecap="round" stroke-linejoin="round" stroke-width=".4"/>
  <path d="M21.4 124.8c-9.1-.4-6.6-8.6.2-8.7s8 6.6 8 6.6l4.4 4-.3.9s-7.7 4.1-13.1-4" fill="red"/>
  <path d="M33.7 126.6s-4-.3-5.1-1.6-2.5-6-5.7-6.8a11.4 11.4 0 0 0-7 1.2c-.1.2 2.6-4.9 7.8-3.1a9.2 9.2 0 0 1 5.9 6.7z" fill="#980805"/>
  <path d="M21.4 124.8c-9.1-.4-6.6-8.6.2-8.7s8 6.6 8 6.6l4.4 4-.3.9s-7.7 4.1-13.1-4" fill="none" stroke="#000" stroke-linecap="round" stroke-linejoin="round" stroke-width=".4"/>
  <path d="M33.5 127.1s-5 .2-7.4-2.5-4.3-4.5-6.4-3.9" fill="none" stroke="#000" stroke-linecap="round" stroke-linejoin="round" stroke-width=".4"/>
  <path d="M28.9 121.2a7.1 7.1 0 0 1 7.3-6.9c4 0 7.6 5.2 7.6 9.1s-3.1 5.6-7.1 5.6-7.8-4-7.8-7.8z" fill="#004da1"/>
  <path d="M21.9 111.7a14.9 14.9 0 0 0 12.2-3.6l.3-1.5-2.3-1.9-10.2 2.9z" fill="#856353" stroke="#000" stroke-linecap="round" stroke-linejoin="round" stroke-width=".4"/>
  <path d="M15 98.9a6.2 6.2 0 0 0-.4 2.7c.1 1.6 3.7 5.1 3.7 5.1s.7 1 5.4.9a17.3 17.3 0 0 0 7.8-2l5.2-26.1-11.5-9.2h-7.7c.5 1.8 3.5 4.3 4.2 5.3a8.1 8.1 0 0 1 1.1 5.8 11.3 11.3 0 0 0 .1 6.6c.6 1.6 1.1 3.5 1.1 3.5l-.6-.5c-2.9-2-6-5-6-5.8s-.7-3.4-2.5-3.6a3.9 3.9 0 0 0-2.9.7s-2.1-.2-2 3c-1.5 1-1.5 3.9-1 4.5s3.5 5 4 5.7 1.6 2.8 1.6 2.8z" fill="#a77e6a"/>
  <path d="M16.3 86.8a15.9 15.9 0 0 0 3.4 7.6c2.7 3.1 5.3 6.1 6 5.4s-.5-6.7.2-8.2 2.3-10.6.4-15.6-1.9-6-1.9-6h-6s-.9-.1-.8.3a18.7 18.7 0 0 0 2 2.8l2.4 2.6 1 4.1-.7 4.6.4 2.8 1.2 3.5s.2.8-.6.1L20 88.3l-1.7-2.1z" fill="#856353"/>
  <path d="M17.9 111.9a4.7 4.7 0 0 1-2.3 1.4c-1.1 0 .4-2.3.4-2.3" fill="#a77e6a" stroke="#000" stroke-linecap="round" stroke-linejoin="round" stroke-width=".4"/>
  <path d="M15.7 100.3s-2.2-4.2-2.7-4.9-3.5-5.1-4-5.7-.6-3.2.6-4.2 2.3-1.7 3.1-1.3a12.8 12.8 0 0 1 3.3 1.7" fill="none" stroke="#000" stroke-linecap="round" stroke-linejoin="round" stroke-width=".4"/>
  <path d="M27.4 100s-.7-6.8-3.7-8.8-6.3-5.2-6.3-6.1-.7-3.4-2.5-3.6a3.9 3.9 0 0 0-2.9.7" fill="none" stroke="#000" stroke-linecap="round" stroke-linejoin="round" stroke-width=".4"/>
  <path d="M15.6 85.4a5.4 5.4 0 0 1-.9-1.6c-.3-.8-1.5-1.7-3.4-1.3A1.9 1.9 0 0 0 10 85" fill="none" stroke="#000" stroke-linecap="round" stroke-linejoin="round" stroke-width=".4"/>
  <path d="M11.4 88.3s1.5.5 2.1-.5-.6-1.1-1-.6-.4 1.1-1.1 1.1z" fill="#856353" stroke="#000" stroke-linecap="round" stroke-linejoin="round" stroke-width=".4"/>
  <path d="M24 91.4s-.5-1.9-1.1-3.5a11.3 11.3 0 0 1-.1-6.6 8.1 8.1 0 0 0-1.1-5.8c-.7-1-3.7-3.5-4.2-5.3m14 35.4a17.3 17.3 0 0 1-7.8 2c-4.7.1-5.4-.9-5.4-.9s-3.6-3.5-3.7-5.1a6.2 6.2 0 0 1 .4-2.7" fill="none" stroke="#000" stroke-linecap="round" stroke-linejoin="round" stroke-width=".4"/>
  <path d="M18.9 111.7a5.2 5.2 0 0 1-6.1-2.4c-2.1-3.7-2.8-3.8-2.8-3.8a3.1 3.1 0 0 1 3.2.7c1.3 1.3 2.9 3.9 6 3.1" fill="#856353" stroke="#000" stroke-linecap="round" stroke-linejoin="round" stroke-width=".4"/>
  <path d="M19.9 110.2a5.1 5.1 0 0 1-6-2.4c-2.1-3.7-2.9-3.8-2.9-3.8a3.1 3.1 0 0 1 3.2.7c1.4 1.3 3 3.9 6.1 3.1" fill="#856353" stroke="#000" stroke-linecap="round" stroke-linejoin="round" stroke-width=".4"/>
  <path d="M22 109.7a5.2 5.2 0 0 1-6.1-2.4c-2-3.6-2.8-3.7-2.8-3.7a3.2 3.2 0 0 1 3.2.6c1.4 1.3 2.9 4 6.1 3.2" fill="#856353" stroke="#000" stroke-linecap="round" stroke-linejoin="round" stroke-width=".4"/>
  <path d="M18.4 79.8a.7.7 0 0 1 .6.4.7.7 0 0 1-.4.8l-.4.2c-.1.3.4.9.6 1.2a3 3 0 0 1 .8 1.7c.2 1.6-2.5 2.6-3.1 2.8a.6.6 0 0 1-.7-.4.6.6 0 0 1 .4-.8c1.1-.3 2.3-1.1 2.3-1.5a4.9 4.9 0 0 0-.7-1.1c-.5-.7-1-1.4-.7-2.2s.5-.8 1.1-1.1zm1.2 6.4h.1a.6.6 0 0 1 .5.6q-.1 3 3.9 9.9c1.7 3 1.3 7.3 1.3 7.5s-.3.5-.7.5-.5-.3-.5-.7.4-4.1-1.2-6.7c-2.8-4.9-4.1-8.3-4-10.6a.6.6 0 0 1 .6-.5z" fill="#0065b7" stroke="#000" stroke-linecap="round" stroke-linejoin="round" stroke-width=".4"/>
  <path d="M30.7 83.4s-2.7-5.7-12-2.4a6.2 6.2 0 0 1 .2-2.9l1 .4.7-1.3 1 .8.8-1.3 1 1 1.2-.7.9.9 1.2-.7.8 1.1 1.2-.4.6 1.3 1-.4.3 1.2 1.3-.3.3 1 1.5-.4-.5 3.3zM25.4 104a.6.6 0 0 1 .6.5c.2 2.5-2.2 4.5-2.3 4.6a.6.6 0 0 1-.9-.1.6.6 0 0 1 .1-.8s2-1.7 1.9-3.6a.5.5 0 0 1 .5-.6z" fill="#0065b7" stroke="#000" stroke-linecap="round" stroke-linejoin="round" stroke-width=".4"/>
  <path d="M23.1 85.5a18.6 18.6 0 0 1 4.8.5c.4.1.6.4.5.7a.6.6 0 0 1-.8.5c-3.5-.9-8.9-.3-10.6 0 .2 3.1 2 5.4 4.6 8.2s3.5 8.1 3.5 8.3a.5.5 0 0 1-.5.7.5.5 0 0 1-.6-.5c-.1 0-.9-4.8-3.3-7.7s-4.9-5.8-4.9-9.5a.6.6 0 0 1 .5-.6 34.8 34.8 0 0 1 6.8-.6z" fill="#0065b7" stroke="#000" stroke-linecap="round" stroke-linejoin="round" stroke-width=".4"/>
  <path d="M24.6 91.3a.6.6 0 0 1 .6.4c1.8 4.3.9 12.2.9 12.5a.7.7 0 0 1-.7.6.8.8 0 0 1-.5-.7c0-.1.9-8-.8-12a.5.5 0 0 1 .3-.7z" fill="#0065b7" stroke="#000" stroke-linecap="round" stroke-linejoin="round" stroke-width=".4"/>
  <path d="M23.5 105.8s1 4.3-3.8 7.5c0 0-.7.5-.8-.2s0-3.2-.2-4a3.8 3.8 0 0 1-.4-1.9" fill="#a77e6a" stroke="#000" stroke-linecap="round" stroke-linejoin="round" stroke-width=".4"/>
  <path d="M20.1 112s2.6-2.3 2.3-5" fill="none" stroke="#000" stroke-linecap="round" stroke-linejoin="round" stroke-width=".4"/>
  <path d="M25 103.3a.8.8 0 0 1 .7.5.8.8 0 0 1-.5 1l-6.8 2.4a.6.6 0 0 1-.9-.4.7.7 0 0 1 .4-1l6.8-2.4z" fill="#0065b7" stroke="#000" stroke-linecap="round" stroke-linejoin="round" stroke-width=".4"/>
  <path fill="red" stroke="#000" stroke-linecap="round" stroke-linejoin="round" stroke-width=".4" d="M26.46 103.95l-1.56 1.56-1.51-1.53 1.56-1.55z"/>
  <path d="M25.54 104.02l-.63.64-.61-.61.64-.64z"/>
  <path d="M21.2 99.3a2.6 2.6 0 0 0-.3-1l-1.4-.5-.4 1.1z" fill="#fff"/>
  <path d="M22.2 101.1s-3.4.4-4.5-1.8h.7" fill="none" stroke="#000" stroke-linecap="round" stroke-linejoin="round" stroke-width=".4"/>
  <path d="M21 100s-2.5.1-2.5-1.2l2.7.7" fill="none" stroke="#000" stroke-linecap="round" stroke-linejoin="round" stroke-width=".3"/>
  <ellipse cx="19.5" cy="98.4" rx=".7" ry=".8" transform="rotate(-78.4 19.45 98.45)"/>
  <circle cx="19.7" cy="98.6" r=".2" fill="#fff"/>
  <path d="M21.1 98.5a2.5 2.5 0 0 0-2-.7" fill="none" stroke="#000" stroke-linecap="round" stroke-linejoin="round" stroke-width=".3"/>
  <path d="M14.7 100.5a.8.8 0 0 0 .5-.2" fill="none" stroke="#000" stroke-linecap="round" stroke-linejoin="round" stroke-width=".4"/>
  <path d="M29 76.9a77.5 77.5 0 0 1-5.8-6.9h19.9l.6 1.6-7.9 2.4-5.6 3.2-.5.3z" fill="#325723"/>
  <path fill="#0d3a12" d="M28.6 76.4L24 71.2l-.6-1.2 6.9.2 3.8 5.2-4.3 2-1.2-1z"/>
  <path d="M38.1 70.1a3.1 3.1 0 0 1-2.3 1.8 11.3 11.3 0 0 0-4.7 3.2 3.7 3.7 0 0 1-2.9.8l.9 1 5.4-2.6 3.2-1.6 1.9-.5 3.8-.8-.6-1.2z" fill="#febf10"/>
  <path d="M31.1 104.8a20.8 20.8 0 0 1 2.4-6.7 17.6 17.6 0 0 0 2.5-8.5c.1-1.3-1.9-5.7-2.3-6.8s-.8-2.6-.8-2.6L46 74l8.9 12.8 1.7 8.9a10.3 10.3 0 0 0-1.8 3.6c-.2 1.5-1.6 6.3-1.4 7.9a19.9 19.9 0 0 0 .4 2.8 8.2 8.2 0 0 1-6.3 1.4c-3.6-.7-14.9-4-16.4-6.6z" fill="red"/>
  <path d="M38.3 103.3s4.6-12.7-2.5-24.8L33 80.7s4.1 9.4 3 12.4-3.6 8.1-3.6 8.1l-1 3.6z" fill="#980805"/>
  <path d="M31.1 104.8a20.8 20.8 0 0 1 2.4-6.7 17.6 17.6 0 0 0 2.5-8.5c.1-1.3-1.9-5.6-2.3-6.8s-.7-2.4-.7-2.4L46 74l8.9 12.8 1.7 8.9a10.3 10.3 0 0 0-1.8 3.6c-.2 1.5-1.6 6.3-1.4 7.9a19.9 19.9 0 0 0 .4 2.8 8.2 8.2 0 0 1-6.3 1.4c-3.6-.7-14.9-4-16.4-6.6z" fill="none" stroke="#000" stroke-linecap="round" stroke-linejoin="round" stroke-width=".4"/>
  <circle cx="41.6" cy="83.1" r="1.5" fill="#0d3a12" stroke="#000" stroke-linecap="round" stroke-linejoin="round" stroke-width=".4"/>
  <circle cx="47.5" cy="83.4" r="1.2" fill="#0d3a12" stroke="#000" stroke-linecap="round" stroke-linejoin="round" stroke-width=".4"/>
  <ellipse cx="47.5" cy="108.8" rx="1.4" ry="1.2" transform="rotate(-54.3 47.45 108.69)" fill="#f2f2f2" stroke="#000" stroke-linecap="round" stroke-linejoin="round" stroke-width=".4"/>
  <ellipse cx="47.2" cy="109.1" rx=".8" ry=".7" transform="rotate(-54.3 47.16 109.03)" fill="#febf10" stroke="#000" stroke-linecap="round" stroke-linejoin="round" stroke-width=".4"/>
  <ellipse cx="45.3" cy="107.6" rx="1.4" ry="1.2" transform="rotate(-64.2 45.25 107.58)" fill="#f2f2f2" stroke="#000" stroke-linecap="round" stroke-linejoin="round" stroke-width=".4"/>
  <ellipse cx="45.1" cy="108" rx=".8" ry=".7" transform="rotate(-64.2 45 107.98)" fill="#febf10" stroke="#000" stroke-linecap="round" stroke-linejoin="round" stroke-width=".4"/>
  <ellipse cx="42.8" cy="106.9" rx="1.4" ry="1.2" transform="rotate(-72.1 42.8 106.8)" fill="#f2f2f2" stroke="#000" stroke-linecap="round" stroke-linejoin="round" stroke-width=".4"/>
  <ellipse cx="42.7" cy="107.3" rx=".8" ry=".7" transform="rotate(-72 42.86 107.44)" fill="#febf10" stroke="#000" stroke-linecap="round" stroke-linejoin="round" stroke-width=".4"/>
  <ellipse cx="49.4" cy="110.3" rx="1.2" ry="1" transform="rotate(-27.7 49.55 110.53)" fill="#f2f2f2" stroke="#000" stroke-linecap="round" stroke-linejoin="round" stroke-width=".4"/>
  <ellipse cx="49" cy="110.5" rx=".7" ry=".6" transform="rotate(-27.7 49.1 110.63)" fill="#febf10" stroke="#000" stroke-linecap="round" stroke-linejoin="round" stroke-width=".4"/>
  <path d="M49.1 111.4l-4.3-.2c-.2-.2-2.7-1.8-7.5-1.1l-2.6-1.5c10-3.7 14.2 2.7 14.4 2.8z" fill="#f2f2f2" stroke="#000" stroke-linecap="round" stroke-linejoin="round" stroke-width=".4"/>
  <path d="M35.6 109.1a18.1 18.1 0 0 1 4.3-1 10.8 10.8 0 0 1 8.2 3.2m-2.2-.2c-.1-.1-3.6-2.9-9.2-1.4" fill="none" stroke="#000" stroke-linecap="round" stroke-linejoin="round" stroke-width=".4"/>
  <path d="M37.4 115c-6.5 7.1-2.3 12.9-2.3 12.9s1.7 1.1-.6.7a6.2 6.2 0 0 1-3.7-2.7s-2-5.7 3.1-11.2c0 0 2.6-1 3.5.3z" fill="#d09b07"/>
  <path d="M35.1 127.9s-4.2-5.8 2.3-12.9" fill="none" stroke="#000" stroke-linecap="round" stroke-linejoin="round" stroke-width=".4"/>
  <path d="M38.7 115c5.4 10.4-1.2 13.9-1.2 13.9s-3 .3-4.1-.9 6.7-4.3 3.5-13.6a3.6 3.6 0 0 1 1.8.6z" fill="#febf10"/>
  <path d="M53.6 90.6l1.6-4.7a40 40 0 0 0-12.6-2.1 23.7 23.7 0 0 0-7.9 1.2l1.5 4.7a22.5 22.5 0 0 1 6.4-.9 39.7 39.7 0 0 1 11 1.8z" fill="#325723" stroke="#000" stroke-linecap="round" stroke-linejoin="round" stroke-width=".4"/>
  <path d="M35.1 86a29.4 29.4 0 0 1 7.5-1.2 40.6 40.6 0 0 1 11.3 1.7m-1 2.8a40.4 40.4 0 0 0-10.3-1.5 19.9 19.9 0 0 0-6.6 1" fill="none" stroke="#000" stroke-linecap="round" stroke-linejoin="round" stroke-width=".4"/>
  <path fill="#febf10" stroke="#000" stroke-linecap="round" stroke-linejoin="round" stroke-width=".4" d="M44.2 84.9l1.8 1.8 2-1.5 1.5 2 2-1.2 1.8 3.2-.9.5-1.3-2.4-1.8 1.1-1.5-1.8-1.9 1.4-1.8-1.9-2 1.7-2.1-1.4-1.7 1.7-3.5-1.7.5-.9 2.8 1.5 1.8-2 2.1 1.6 2.2-1.7z"/>
  <path d="M36.7 109.7c.5-.2 10.8-4.5 22.1-18.5l-4.3-5.3a77.6 77.6 0 0 1-23.4 18.9 11.5 11.5 0 0 0 5.6 4.9z" fill="#febf10"/>
  <path d="M31.9 105.9c3.1-1.4 15.1-8.8 23.3-18.5l2.8 3.4c-9.1 10.8-19.3 16.8-22.5 18.2-1.5-.2-3.6-3.1-3.6-3.1z" fill="#d09b07"/>
  <path d="M36.7 109.7c.5-.2 10.8-4.5 22.1-18.5l-4.3-5.3a77.6 77.6 0 0 1-23.4 18.9 11.5 11.5 0 0 0 5.6 4.9z" fill="none" stroke="#000" stroke-linecap="round" stroke-linejoin="round" stroke-width=".4"/>
  <path d="M31.9 105.9c3.1-1.4 15.1-8.8 23.3-18.5l2.8 3.4c-9.1 10.8-19.3 16.8-22.5 18.2" fill="none" stroke="#000" stroke-linecap="round" stroke-linejoin="round" stroke-width=".4"/>
  <path d="M48.3 96.7c3.4-2.3 2.6-3.8 2.6-3.8l.8 1.4a1.7 1.7 0 0 1 1.5.8c-2.6-.4-4.2 2.4-4.2 2.4l-1.3.6-.4-.5z" fill="#325723" stroke="#000" stroke-linecap="round" stroke-linejoin="round" stroke-width=".3"/>
  <path fill="#f2f2f2" stroke="#000" stroke-linecap="round" stroke-linejoin="round" stroke-width=".3" d="M45.2 97.8l1.9.8.3 2-2.7 2.1-2.2-2.8 2.7-2.1z"/>
  <path fill="red" stroke="#000" stroke-linecap="round" stroke-linejoin="round" stroke-width=".3" d="M44.8 98.8l1.8.2-.3 1.8-1.5 1.2.2-.9-.9-.1.1-.9-.9-.1 1.5-1.2z"/>
  <path fill="#febf10" stroke="#000" stroke-linecap="round" stroke-linejoin="round" stroke-width=".3" d="M43.1 103.5l-2.5 2.3.5-1.3-1.5.4.8-1.5-1.5.3.8-1.2h-1.5l3.1-1.7"/>
  <ellipse cx="42.2" cy="102.2" rx=".5" ry="1.6" transform="rotate(-34.2 42.24 102.13)" fill="#febf10" stroke="#000" stroke-linecap="round" stroke-linejoin="round" stroke-width=".3"/>
  <path d="M42.5 104a3.6 3.6 0 0 1-1.9-2.7" fill="#febf10" stroke="#000" stroke-linecap="round" stroke-linejoin="round" stroke-width=".3"/>
  <path d="M37.9 106.5c.2.3 0 1.2 0 1.2s-.9 0-1.2-.4a.8.8 0 0 1 .1-1 .7.7 0 0 1 1.1.2z" fill="#325723"/>
  <path d="M37.4 106.2c.2.3 0 .9 0 .9s-.6 0-.8-.3a.5.5 0 0 1 .1-.8.7.7 0 0 1 .7.2z" fill="#0d3a12"/>
  <path d="M37.9 106.5c.2.3 0 1.2 0 1.2s-.9 0-1.2-.4a.8.8 0 0 1 .1-1 .7.7 0 0 1 1.1.2z" fill="none" stroke="#000" stroke-linecap="round" stroke-linejoin="round" stroke-width=".3"/>
  <path d="M36.4 107.3c-.2.4-1 .5-1 .5s-.4-.7-.2-1.1a.7.7 0 0 1 1-.4c.3.1.4.6.2 1z" fill="#325723"/>
  <path d="M35 106.2c-.4-.2-.6-1-.6-1s.7-.5 1.1-.3a.7.7 0 1 1-.5 1.3z" fill="#325723"/>
  <path d="M36.5 106.8c-.2.3-.8.3-.8.3a1.5 1.5 0 0 1-.1-.8.7.7 0 0 1 .8-.3.6.6 0 0 1 .1.8z" fill="#0d3a12"/>
  <path d="M35.6 106.2a1.9 1.9 0 0 1-.5-.8s.5-.3.8-.2.5.5.4.7a.5.5 0 0 1-.7.3z" fill="#0d3a12"/>
  <path d="M35.7 104.7c0-.5.6-1 .6-1s.7.4.8.8-.2.9-.6.9a.7.7 0 0 1-.8-.7z" fill="#325723"/>
  <path d="M35.9 105.2c0-.3.5-.7.5-.7s.5.3.5.6a.6.6 0 0 1-.5.6.5.5 0 0 1-.5-.5z" fill="#0d3a12"/>
  <path d="M37.4 104.8c.4-.2 1.1.2 1.1.2s-.1.8-.5 1a.7.7 0 0 1-1-.3c-.2-.3 0-.7.4-.9z" fill="#325723"/>
  <path d="M36.4 107.3c-.2.4-1 .5-1 .5s-.4-.7-.2-1.1a.7.7 0 0 1 1-.4c.3.1.4.6.2 1z" fill="none" stroke="#000" stroke-linecap="round" stroke-linejoin="round" stroke-width=".3"/>
  <path d="M37 105.1c.3-.1.8.3.8.3s-.2.6-.5.7a.5.5 0 0 1-.7-.3.6.6 0 0 1 .4-.7z" fill="#0d3a12"/>
  <path d="M35 106.2c-.4-.2-.6-1-.6-1s.7-.5 1.1-.3a.7.7 0 1 1-.5 1.3z" fill="none" stroke="#000" stroke-linecap="round" stroke-linejoin="round" stroke-width=".3"/>
  <path d="M35.7 104.7c0-.5.6-1 .6-1s.7.4.8.8-.2.9-.6.9a.7.7 0 0 1-.8-.7zm1.7.1c.4-.2 1.1.2 1.1.2s-.1.8-.5 1a.7.7 0 0 1-1-.3c-.2-.3 0-.7.4-.9z" fill="none" stroke="#000" stroke-linecap="round" stroke-linejoin="round" stroke-width=".3"/>
  <circle cx="36.5" cy="105.9" r=".7" fill="red" stroke="#000" stroke-linecap="round" stroke-linejoin="round" stroke-width=".3"/>
  <circle cx="36.5" cy="105.9" r=".3" fill="#980805" stroke="#000" stroke-linecap="round" stroke-linejoin="round" stroke-width=".3"/>
  <path d="M48.8 97.4a3.3 3.3 0 0 1 1.9.3 3.3 3.3 0 0 1-1.6 1.2 2.8 2.8 0 0 1-1.9-.4 2.8 2.8 0 0 1 1.6-1.1z" fill="#325723" stroke="#000" stroke-linecap="round" stroke-linejoin="round" stroke-width=".3"/>
  <path d="M48.4 97a3.3 3.3 0 0 1-1.4 1.4 2.7 2.7 0 0 1 0-1.9 2.8 2.8 0 0 1 1.4-1.5 3 3 0 0 1 0 2z" fill="#325723" stroke="#000" stroke-linecap="round" stroke-linejoin="round" stroke-width=".3"/>
  <path d="M57.3 83.2a54.7 54.7 0 0 1 2 7.5c.1 1 2.2 10 2.6 10.8s2.8 3.7 3 5.3a9.9 9.9 0 0 0 1.5 3.9c.8 1.1 1 2.5 2.3 8.4s.1 10.1-3.7 9.9-4.6-6.2-4.6-6.2a6.2 6.2 0 0 1-1.4-1.9c-.4-1-.3-3.4-.8-4.4s-.6-3.8-.6-5.5-1.2-6-1.5-7.6.3-7.8 0-8.7a80.2 80.2 0 0 1-1.6-10c0-1.3 2.8-1.5 2.8-1.5z" fill="#a77e6a"/>
  <path d="M55.5 83.6c-.6-.1-1 .6-1 1.1a80.2 80.2 0 0 0 1.6 10c.3.9-.4 7.1 0 8.7s1.5 5.8 1.5 7.6.1 4.5.6 5.5.4 3.4.8 4.4a6.2 6.2 0 0 0 1.4 1.9s.8 5.9 4.6 6.2c0 0 .9-.6-.2-3s-2-13.3-2.5-15.5-3.8-15.8-4.3-17.8-1-5.2-1.4-6.8-.2-2.1-1.1-2.3z" fill="#534741"/>
  <path d="M65 127.2s2.7-.1 2.1-2.7-1.5-6.6-2.2-9.6-1.1-7.3-1.9-8.3a19.1 19.1 0 0 1-2.5-5.6c-.3-1.5-2.9-12.1-3.7-12.8s-.3 3.7.4 6.8.5 5.3 1 7.4a80.6 80.6 0 0 0 2.9 8.7c.9 2.1 1.1 8 1.8 9.7s.5 5.8 2.1 6.4z" fill="#856353"/>
  <path d="M57.3 83.2a54.7 54.7 0 0 1 2 7.5c.1 1 2.2 10 2.6 10.8s2.8 3.7 3 5.3a9.9 9.9 0 0 0 1.5 3.9c.8 1.1 1 2.5 2.3 8.4s.1 10.1-3.7 9.9-4.6-6.2-4.6-6.2a6.2 6.2 0 0 1-1.4-1.9c-.4-1-.3-3.4-.8-4.4s-.6-3.8-.6-5.5-1.2-6-1.5-7.6.3-7.8 0-8.7a80.2 80.2 0 0 1-1.6-10c0-1.3 2.8-1.5 2.8-1.5z" fill="none" stroke="#000" stroke-linecap="round" stroke-linejoin="round" stroke-width=".4"/>
  <circle cx="40.6" cy="79.6" r=".7" fill="#febf10" stroke="#000" stroke-linecap="round" stroke-linejoin="round" stroke-width=".4"/>
  <circle cx="34.5" cy="82" r=".6" fill="#febf10" stroke="#000" stroke-linecap="round" stroke-linejoin="round" stroke-width=".4"/>
  <path d="M36.9 79.6a1 1 0 0 0-.4 1.2c.2.9.5 1.8.1 2.4s.4.1.7-.8a3.9 3.9 0 0 0 .9.8 1.6 1.6 0 0 0 .2-1.4l1.1.3c0-.1-.7-.6-.9-1.3s-.6-1.5-1.7-1.2z" fill="#febf10" stroke="#000" stroke-linecap="round" stroke-linejoin="round" stroke-width=".4"/>
  <path d="M33 80.7c.1-.1 2.3-1 5.5-2.7 1.5-.9 7.1-1.9 8.9-2.1l-.5-4.9c-.6 0-8.1.8-11 2.5s-6.8 3.4-6.9 3.4l4 3.8z" fill="#325723"/>
  <path d="M30.2 77.8l6.3-3.3c2-1.1 6.7-1.9 9.4-2.2l.2 2.6c-2.4.4-6.7 1.2-8.2 2a59.7 59.7 0 0 1-5.7 2.8" fill="#febf10"/>
  <path d="M33 80.7c.1-.1 2.3-1 5.5-2.7 1.5-.9 7.1-1.9 8.9-2.1l-.5-4.9c-.6 0-8.1.8-11 2.5s-6.8 3.4-6.9 3.4l4 3.8z" fill="none" stroke="#000" stroke-linecap="round" stroke-linejoin="round" stroke-width=".4"/>
  <path d="M30.2 77.8l6.3-3.3c2-1.1 6.7-1.9 9.4-2.2l.2 2.6c-2.4.4-6.7 1.2-8.2 2a59.7 59.7 0 0 1-5.7 2.8" fill="none" stroke="#000" stroke-linecap="round" stroke-linejoin="round" stroke-width=".4"/>
  <path d="M42.8 70.2c2.4 2.8 1.3 9.9 1.3 9.9a5.8 5.8 0 0 0 3.3 1.4 5.9 5.9 0 0 0 1.9-.3c.6 2.4 3 6.1 6.1 6.1h.3c3.3-.3 4.4-4.6 4.4-4.6l-.9-12.1" fill="#0065b7" stroke="#000" stroke-linecap="round" stroke-linejoin="round" stroke-width=".4"/>
  <path d="M28.2 75.9a3.7 3.7 0 0 0 2.9-.8 11.3 11.3 0 0 1 4.7-3.2 3.1 3.1 0 0 0 2.3-1.8" fill="none" stroke="#000" stroke-linecap="round" stroke-linejoin="round" stroke-width=".4"/>
  <path d="M56.1 86.2h.3c3.2-.3 4.3-4.6 4.3-4.6H62c4.8 0 2.7-6.9 2.7-6.9l-1.3-3.5-19.7-1c2.5 2.7 1.6 9.4 1.6 9.4a4.6 4.6 0 0 0 2.7.9 4.6 4.6 0 0 0 1.9-.4c.6 2.4 3.1 6.1 6.2 6.1z" fill="#febf10" stroke="#000" stroke-linecap="round" stroke-linejoin="round" stroke-width=".4"/>
  <path d="M56.2 84.2c2.1 0 3.1-4.9 3.1-4.9a5.9 5.9 0 0 0 2.6.9 1.4 1.4 0 0 0 1.4-1.1c.7-2.6-1.3-5.8-1.3-5.8l-15-.8a18 18 0 0 1 .4 5.9h.4a8 8 0 0 0 3.5-1.4s1.7 7.1 4.8 7.1h.1z" fill="#0065b7" stroke="#000" stroke-linecap="round" stroke-linejoin="round" stroke-width=".4"/>
  <path d="M55.8 82.3c-1.4 0-2.4-2.8-3.1-5.6l-.5-2.1-1.8 1.2-1.4.8c0-.7 0-2.4-.1-3.3l12.2 1.4c.5 1 1.4 3.1.8 3.7s-3.4-2.1-3.4-2.1-1 6.2-2.7 6z" fill="red" stroke="#000" stroke-linecap="round" stroke-linejoin="round" stroke-width=".4"/>
  <path d="M69.4 70.2s-8.5 13.9-25.4 0" fill="#a77e6a"/>
  <path d="M53.6 75.6a4.9 4.9 0 0 1 1.3-5.4H44.4v.5s5.9 4.6 9.2 4.9z" fill="#856353"/>
  <ellipse cx="55.7" cy="78.8" rx="1.1" ry="2" fill="#325723" stroke="#000" stroke-linecap="round" stroke-linejoin="round" stroke-width=".4"/>
  <path d="M54 75.7s4.8-1.8 6.4-5.5h1.1a10.7 10.7 0 0 1-2.6 3.3l.3 1.3c2.3-.6 5.1-4.6 5.1-4.6h1.4c-2.3 4.1-7.6 6.2-7.6 6.2a7.2 7.2 0 0 1-4.1-.7z" fill="#0065b7"/>
  <path d="M58.1 76.3s5.3-2.1 7.6-6.2M54 75.7s4.8-1.8 6.4-5.5" fill="none" stroke="#000" stroke-linecap="round" stroke-linejoin="round" stroke-width=".4"/>
  <path d="M64.3 70s-2.8 4.2-5.1 4.8l-.3-1.3a10.7 10.7 0 0 0 2.6-3.3m7.8 0s-8.4 13.9-25.3 0" fill="none" stroke="#000" stroke-linecap="round" stroke-linejoin="round" stroke-width=".4"/>
  <path d="M31.1 104.8a11.2 11.2 0 0 1-1.7-9.3s-5.1-4.2-.6-10.8 8.9 2 7.8 6.1-4.4 9.9-4.4 11.4-.8 2.8-1.1 2.6z" fill="#0065b7"/>
  <path d="M34.1 84.7c-.4-2-2.7-3.9-5.3 0-4.5 6.6.6 10.8.6 10.8s5.7-2.5 4.7-10.8z" fill="#004da1"/>
  <path d="M31.1 104.8a11.2 11.2 0 0 1-1.7-9.3s-5.1-4.2-.6-10.8 8.9 2 7.8 6.1-4.4 9.9-4.4 11.4-.8 2.8-1.1 2.6z" fill="none" stroke="#000" stroke-linecap="round" stroke-linejoin="round" stroke-width=".4"/>
  <path d="M63 102.6c2.7-2 4.1-3.9 3.7-8.1s-2.6-4.2-4-3.9-6.1 3.3-8.4 9.4-.5 10-.5 10a25.3 25.3 0 0 0 8-11.6l-.3 1.4a7.9 7.9 0 0 0 .5 1.5c.4.7.6 1.1 1 1.3z" fill="#0065b7"/>
  <path d="M56.9 107s.3-10.9 4.3-15.7c0 0-7.5 5.9-8 12.7s.8 5.8.8 5.8z" fill="#004da1"/>
  <path d="M61.8 98.4a25.3 25.3 0 0 1-8 11.6s-1.8-4 .5-10.1 7.1-9 8.4-9.3 3.7-.3 4 3.9-.5 5.9-3.8 8.3M29 76.9a51.7 51.7 0 0 1-5.6-6.7m14.1 58.7s6.6-3.5 1.2-13.9m-5.3 13s6.7-4.3 3.5-13.6m-6.1 11.5s-2-5.7 3.1-11.2" fill="none" stroke="#000" stroke-linecap="round" stroke-linejoin="round" stroke-width=".4"/>
  <path d="M28.9 121.2a7.1 7.1 0 0 1 7.3-6.9c4 0 7.6 5.2 7.6 9.1s-3.1 5.6-7.1 5.6-7.8-4-7.8-7.8z" fill="none" stroke="#000" stroke-linecap="round" stroke-linejoin="round" stroke-width=".4"/>
  <circle cx="32.4" cy="125.2" r="1.3" fill="#febf10" stroke="#000" stroke-linecap="round" stroke-linejoin="round" stroke-width=".4"/>
  <path d="M32.4 125.9a.7.7 0 0 1-.7-.6.6.6 0 0 1 .6-.8" fill="#febf10" stroke="#000" stroke-linecap="round" stroke-linejoin="round" stroke-width=".3"/>
  <circle cx="32.1" cy="122.2" r="1.3" fill="#febf10" stroke="#000" stroke-linecap="round" stroke-linejoin="round" stroke-width=".4"/>
  <path d="M31.9 122.8a.7.7 0 0 1-.5-.8.7.7 0 0 1 .9-.5" fill="#febf10" stroke="#000" stroke-linecap="round" stroke-linejoin="round" stroke-width=".3"/>
  <circle cx="32.8" cy="119.2" r="1.3" fill="#febf10" stroke="#000" stroke-linecap="round" stroke-linejoin="round" stroke-width=".4"/>
  <path d="M32.5 119.8a.6.6 0 0 1-.3-.9.7.7 0 0 1 .9-.4" fill="#febf10" stroke="#000" stroke-linecap="round" stroke-linejoin="round" stroke-width=".3"/>
  <circle cx="34.2" cy="116.5" r="1.3" fill="#febf10" stroke="#000" stroke-linecap="round" stroke-linejoin="round" stroke-width=".4"/>
  <path d="M33.9 117.1a.7.7 0 0 1-.3-1 .8.8 0 0 1 1-.2" fill="#febf10" stroke="#000" stroke-linecap="round" stroke-linejoin="round" stroke-width=".3"/>
  <path fill="none" stroke="#000" stroke-linecap="round" stroke-linejoin="round" stroke-width=".4" d="M44.7 111.9l.1-.7m-7.6-1v.7M8 7.9h62v124.31H8zM8.1 70H70"/>
</svg>
