<svg xmlns="http://www.w3.org/2000/svg" viewBox="0 0 78 140">
  <rect width="78" height="140" rx="6" ry="6" fill="#fff"/>
  <path d="M37.7 34.6c.5-3.6-.5-4.6-.5-4.6l8-1.1 4 2.3v1.6L43.7 35h-4.9z" fill="#f3bc84"/>
  <path d="M40.7 30.1a6.7 6.7 0 0 1 1.6 4.7s5.3-.9 6.6-2.7l-2.4-3.7z" fill="#c69c6d"/>
  <path fill="#980805" d="M37.2 32l-2.4 2 2.7 1.1.3-1.2-.2-2.1-.4.2zM17.1 56.6L16.3 70l6.7.1 3.3-10.8-9.2-2.7zm51.1 13.6s-1-1.4-1-5.4-1.8-10-1.8-10l-13.5-5.2L47.2 70z"/>
  <path d="M65.4 54.8s1.8 6.1 1.8 10 .9 5.2.9 5.2" fill="none" stroke="#000" stroke-linecap="round" stroke-linejoin="round" stroke-width=".4"/>
  <path d="M25.1 61.2l-2.3 8.7h26l2-3.8c2.6-4.1 3-12 3-12l-3.9-13.6-22.3 11z" fill="#325723"/>
  <path d="M46.5 44.5s1.3 17.3-4.2 25.3l6.5.2s4-6.6 4.5-10.8 1.1-14.1 1.1-14.1L51 40z" fill="#0d3a12"/>
  <path d="M66.1 57.1a84.3 84.3 0 0 0-3-8.4s-.5-1.6-1.5-5.9a8.7 8.7 0 0 0-8.8-6s-2.1 0-2.7 3.5a18.9 18.9 0 0 0 .7 8.5c.5 1.6 3.5 6.1 3.8 6.5l3.3 4.7a19.2 19.2 0 0 0-.1 7.6l-.5 2.4h7l.8-2.7c.8-2.7 1.5-7.9 1-10.2z" fill="#0065b7"/>
  <path d="M51.8 39.2s6.9 4.1 8.5 9.2 3.6 8.6 4.1 10.7.2 9.4.2 9.4 2.1-8.5 1.8-10.7-3.1-8.6-3.1-8.6l-2-7s-2.1-4.3-5.8-5-3.9.4-3.7 2z" fill="#004da1"/>
  <path d="M49.2 70l1.6-3.8c-12.7-.9-25.2-10.6-25.3-10.7l-2.4 3.1c.4.4 10.1 8.8 22.1 11.4" fill="#0065b7"/>
  <path d="M25.7 56.9C28.6 59 39.6 66 50.3 67.3l-1 2.2c-11.6-1.1-22.1-8.6-24.9-11l1.3-1.6" fill="#856353"/>
  <path d="M49.2 70l1.6-3.8c-12.7-.9-25.2-10.6-25.3-10.7l-2.4 3.1c.4.4 10.5 8.8 22.5 11.4" fill="none" stroke="#000" stroke-linecap="round" stroke-linejoin="round" stroke-width=".4"/>
  <path d="M49.3 69.5h-.4c-11.4-1.3-21.7-8.7-24.5-11l1.3-1.6m0 0C28.6 59 39.6 66 50.3 67.3" fill="none" stroke="#000" stroke-linecap="round" stroke-linejoin="round" stroke-width=".4"/>
  <circle cx="36.8" cy="36.8" r=".9" fill="#febf10" stroke="#000" stroke-linecap="round" stroke-linejoin="round" stroke-width=".4"/>
  <circle cx="38.8" cy="37.1" r=".9" fill="#febf10" stroke="#000" stroke-linecap="round" stroke-linejoin="round" stroke-width=".4"/>
  <circle cx="40.8" cy="37.1" r=".9" fill="#febf10" stroke="#000" stroke-linecap="round" stroke-linejoin="round" stroke-width=".4"/>
  <circle cx="42.9" cy="36.9" r=".9" fill="#febf10" stroke="#000" stroke-linecap="round" stroke-linejoin="round" stroke-width=".4"/>
  <path d="M64.3 70l.8-2.7c.8-2.7 1.5-7.9 1-10.2a84.3 84.3 0 0 0-3-8.4s-.5-1.6-1.5-5.9a8.7 8.7 0 0 0-8.8-6s-2.1 0-2.7 3.5a18.9 18.9 0 0 0 .7 8.5c.5 1.6 3.5 6.1 3.8 6.5L58 60" fill="none" stroke="#000" stroke-linecap="round" stroke-linejoin="round" stroke-width=".4"/>
  <path d="M16.5 55.3s2.2 5.5 4.2 6.2a5.5 5.5 0 0 0 4.8-.7c.7-.6 2.1-8.8 2.1-8.8l-4.6-.7-2.1 3-1.7-.7-2.8.5z" fill="#0065b7"/>
  <circle cx="44.9" cy="36.5" r=".9" fill="#febf10" stroke="#000" stroke-linecap="round" stroke-linejoin="round" stroke-width=".4"/>
  <path d="M16.5 55.3s2.2 5.5 4.2 6.2a5.5 5.5 0 0 0 4.8-.7c.7-.6 2.1-8.8 2.1-8.8l-4.6-.7-2.1 3-1.7-.7-2.8.5z" fill="none" stroke="#000" stroke-linecap="round" stroke-linejoin="round" stroke-width=".4"/>
  <circle cx="46.7" cy="35.8" r=".9" fill="#febf10" stroke="#000" stroke-linecap="round" stroke-linejoin="round" stroke-width=".4"/>
  <circle cx="48.3" cy="34.8" r=".9" fill="#febf10" stroke="#000" stroke-linecap="round" stroke-linejoin="round" stroke-width=".4"/>
  <path d="M40.6 36a17 17 0 0 1-6-1.1.5.5 0 0 1-.3-.7c.2-.2.4-.4.7-.2s7.7 3.3 14.3-2.1a.5.5 0 0 1 .7.1.6.6 0 0 1-.1.7 14.3 14.3 0 0 1-9.3 3.3z" fill="#0065b7" stroke="#000" stroke-linecap="round" stroke-linejoin="round" stroke-width=".4"/>
  <circle cx="34.9" cy="36.1" r=".9" fill="#febf10" stroke="#000" stroke-linecap="round" stroke-linejoin="round" stroke-width=".4"/>
  <path d="M49 35.2s-5.2 4.7-14.4 2.3a14 14 0 0 1-1.2-1.8h.3c.8-.8 4-3.1 4-3.1v-1.3s-6.8 1.6-9.2 5.1h.1c-1.2.2-2.7 1.1-3.9 3.5h.2c0 .1 0 .1-.1.2-4.1-.1-11.4 2.1-13 17.6 0 0-3.1 3.9-1.7 12.3h7.2s.8-7.9.2-12.2c-.1-.5-1.4-2.1-1.3-2.5 1.2-3.1 9.4-3 12.9-3.4a34.3 34.3 0 0 0 23.7-13.8z" fill="red"/>
  <path d="M49.7 37.7s-6.1 4.2-11.2 5.7-10.3-.1-12.7 2.4l-2.7.7.8 5.7s7.9-.4 13.1-2.3a37.2 37.2 0 0 0 13.2-8.7 17.7 17.7 0 0 0 2.2-3z" fill="#980805"/>
  <path d="M37.7 31.3s-6.8 1.6-9.2 5.1m2 .1s-3.4-1.4-5.8 3.4" fill="none" stroke="#000" stroke-linecap="round" stroke-linejoin="round" stroke-width=".4"/>
  <path d="M27.7 40.4s-13.6-4.6-15.9 17.2c0 0-3.1 3.9-1.7 12.3" fill="none" stroke="#000" stroke-linecap="round" stroke-linejoin="round" stroke-width=".4"/>
  <path d="M12 69.9s1.4-5.7 1.3-8.5c0 0 .2 6.9.8 8.5" fill="#980805" stroke="#000" stroke-linecap="round" stroke-linejoin="round" stroke-width=".4"/>
  <path d="M17.3 69.9s.9-7.7.3-12.1c0-.4-1.2-2.3-1.1-2.6 1-3.3 9.3-2.9 12.6-3.4a35.1 35.1 0 0 0 23.7-13.7L49 35.2s-5.2 4.7-14.4 2.3m-.9-1.9c.8-.8 4-3.1 4-3.1M33 35a26.1 26.1 0 0 0 2 3.1" fill="none" stroke="#000" stroke-linecap="round" stroke-linejoin="round" stroke-width=".4"/>
  <path d="M48.3 37a40.6 40.6 0 0 0-5.8 2.1c-2.8 1.3-9.4 3.5-10.5-.7m17.2-.3s-10.2 6.7-15.4 6m16.3-5.6a32.2 32.2 0 0 1-3.6 3.9m-23.1 4.2s2.6-1.6 9 0 8.6-.2 8.6-.2" fill="none" stroke="#000" stroke-linecap="round" stroke-linejoin="round" stroke-width=".4"/>
  <path d="M49.1 30.5a11.7 11.7 0 0 1 8 4 7.7 7.7 0 0 1 4.2 7s.1.4-1.3-1.6-5-3.1-6.5-3L49 34.4z" fill="red"/>
  <path d="M49.1 32.3s6.5.9 9.7 6.3l2.5 2.9s.5-3.6-2.2-5.6l-2.3-1.5a9.2 9.2 0 0 0-3.1-2.5c-1.8-.8-3.7-1.5-5.1-1.3s.5 1.7.5 1.7z" fill="#980805"/>
  <path d="M49.1 30.5a11.7 11.7 0 0 1 8 4 7.7 7.7 0 0 1 4.2 7s.1.4-1.3-1.6-5-3.1-6.5-3L49 34.4z" fill="none" stroke="#000" stroke-linecap="round" stroke-linejoin="round" stroke-width=".4"/>
  <path d="M20.2 50.2c-2.4 1.9-5.8 1-5.8 1s1.5 3.9 2 4a11.8 11.8 0 0 0 4-.5c1.7-.7-.2-4.5-.2-4.5z" fill="#febf10" stroke="#000" stroke-linecap="round" stroke-linejoin="round" stroke-width=".4"/>
  <path d="M18 54.5l-.4-.2-.9-1.1-.7 1.5-.6-1.2.7-1.4.4-.3.4.2.9 1 .3-1c.1-.2.2-.3.4-.3a.4.4 0 0 1 .5.1l.6.7.8-1.8.5 1.2-.6 1.7c-.1.2-.2.3-.4.3s-.3 0-.4-.1l-.7-.7-.3 1a.8.8 0 0 1-.4.4z" fill="#325723" stroke="#000" stroke-linecap="round" stroke-linejoin="round" stroke-width=".4"/>
  <path d="M59.1 55.8s-2.5 6-1.3 11.8m.5-1.9l-1 4.3" fill="none" stroke="#000" stroke-linecap="round" stroke-linejoin="round" stroke-width=".4"/>
  <ellipse cx="51" cy="36.5" rx="2.3" ry="3" transform="rotate(-64.8 51.02 36.47)" fill="#febf10" stroke="#000" stroke-linecap="round" stroke-linejoin="round" stroke-width=".4"/>
  <ellipse cx="51" cy="36.5" rx="1.7" ry="2.2" transform="rotate(-64.8 51.02 36.47)" fill="#004da1" stroke="#000" stroke-linecap="round" stroke-linejoin="round" stroke-width=".3"/>
  <path fill="#febf10" stroke="#000" stroke-linecap="round" stroke-linejoin="round" stroke-width=".3" d="M51.6 35.3l.1.9.9.6-1 .2-.1.8-.7-.8h-1.1l.5-.7-.4-.8 1 .3.8-.5z"/>
  <path d="M53.8 54.2s-.4 7.9-3 12m-25.7-5l-2.2 8.7" fill="none" stroke="#000" stroke-linecap="round" stroke-linejoin="round" stroke-width=".4"/>
  <path d="M50.9 48.4a23.7 23.7 0 0 0 10.5-6s1.9 2.1 1.7 6.3a24.5 24.5 0 0 1-9.5 5.2s-2.6-3-2.7-5.5z" fill="red"/>
  <path d="M52.3 52v-2.5a.8.8 0 0 1 .4-.7.6.6 0 0 1 .7.1l1.7.9.2-1.7a.9.9 0 0 1 .4-.6.8.8 0 0 1 .7 0l1.7.9.2-1.9a1 1 0 0 1 .4-.5.5.5 0 0 1 .6-.1l1.7.6v-1.8a6.6 6.6 0 0 0-.1-1.3c0-.6.5-.1.7-.1s.9.9.9 1.4v2.9a.6.6 0 0 1-.3.6.6.6 0 0 1-.7.1l-1.9-.7-.2 2-.4.6h-.7l-1.7-.9-.3 1.9a1 1 0 0 1-.4.5h-.7l-1.5-.9c0 1.4-.1 2.4-.1 2.5s-.1.2-.4.2" fill="#0065b7" stroke="#000" stroke-linecap="round" stroke-linejoin="round" stroke-width=".4"/>
  <path fill="#febf10" d="M51 48.4l2.7-.9 3.1-1.6 3.3-2.1 1.2-1.3.7.9-1.4 1.2-2.1 1.7-2 1-2.2.9-2.1.9-1.1.3-.1-1zm2.1 4.6l1.7-.6 2.6-1.1 2.2-1.2 2-1.4 1.5-1.2.1.9-.1.5-2.6 1.9-2.9 1.6-2.4 1-1.7.6-.4-.6V53z"/>
  <path d="M50.9 48.4a23.7 23.7 0 0 0 10.5-6s1.9 2.1 1.7 6.3a24.5 24.5 0 0 1-9.5 5.2s-2.6-3-2.7-5.5m.2 1.1s7.6-2.4 10.8-6.1M53 53.1s7.2-2.6 10.1-5.7" fill="none" stroke="#000" stroke-linecap="round" stroke-linejoin="round" stroke-width=".4"/>
  <path d="M16.1 14.1s-2.4.5-3.2 3.9c0 0-1.9 1.4 0 6.6 0 0-.9 1.8.7 5.3a40.6 40.6 0 0 1 2.9 8c.3 1.3 1.6 5.3 1.6 5.3s2.4 8.2 2.5 10.2a6.6 6.6 0 0 0 .7 3.4c.3 1.1 1.6 7.8 2.5 9s2 1 1.7-1.6-1.9-14.2-1.9-15.1-.8-10.9-.6-12 .5-4.9.6-6a39.7 39.7 0 0 0 .3-7 13.8 13.8 0 0 0-1.8-6.1s-1.5-4.6-6-3.9z" fill="#a77e6a"/>
  <path d="M23.9 66c.4.8 1.9.6 1.6-1.8S23.6 50 23.6 49.1s-.8-10.9-.6-12 .5-4.9.6-6a39.7 39.7 0 0 0 .3-7 13.8 13.8 0 0 0-1.8-6.1s-1-3.2-4-3.8c0 0-1.5 0-.5 1.5s2.3 2 2.4 2.9a18.5 18.5 0 0 0 0 5.5c.4 3.3.4 7.1.9 8.5s1 1.7.6 3.1a18.5 18.5 0 0 0-.4 7.4c.4 2.8.8 5.4.8 6.5a59.2 59.2 0 0 0 .9 8.3 50.6 50.6 0 0 1 1 5.8c.1 1.1-.4 1.1.1 2.3z" fill="#856353"/>
  <path d="M16.1 14.1s-2.4.5-3.2 3.9c0 0-1.9 1.4 0 6.6 0 0-.9 1.8.7 5.3a40.6 40.6 0 0 1 2.9 8c.3 1.3 1.6 5.3 1.6 5.3s2.4 8.2 2.5 10.2a6.6 6.6 0 0 0 .7 3.4c.3 1.1 1.6 7.8 2.5 9s2 1 1.7-1.6-1.9-14.2-1.9-15.1-.8-10.9-.6-12 .5-4.9.6-6a39.7 39.7 0 0 0 .3-7 13.8 13.8 0 0 0-1.8-6.1s-1.5-4.6-6-3.9z" fill="none" stroke="#000" stroke-linecap="round" stroke-linejoin="round" stroke-width=".4"/>
  <path d="M16.4 21.3a5.5 5.5 0 0 0-1.1 4.3c.6 2.3 2.7 8.3 2.9 8.9s.7 4.4 1.6 4.3.7-3 0-5.4-1.5-5.2-1.2-6.4.9-8.1-2.2-5.7zM21 49.7s1.1 6.7 1.4 8 1.3 7.1 1.4 7.6.9 1.1.5-1.6-1.7-10.5-1.7-12-.4-3.6-1-3.7-.6.7-.6 1.7z" fill="#c69c6d"/>
  <path d="M47.6 50.3a63.2 63.2 0 0 1-2 14.9M44.7 46a68.4 68.4 0 0 1 0 11.8m-7.5 4.5a28 28 0 0 0 2.5-9.1" fill="none" stroke="#000" stroke-linecap="round" stroke-linejoin="round" stroke-width=".4"/>
  <path d="M21.5 46.3c.5-.1 1.3.1 1.4-.1s.2-.8-.4-.9a4.5 4.5 0 0 0-3.4 1l.2-.2c.7-1 2.7-1 3.2-1.1s.5-.4.3-.6l-.6-.3s.4-.9-1.1-1.2a6.9 6.9 0 0 0-3.2.3l-.4-1.1a10.2 10.2 0 0 0-2.5 3.7 6.9 6.9 0 0 0 0 5.3s2.9.6 4.8-.8l-.4-1.4.3-.2A4.8 4.8 0 0 0 22 48c.9-.6 1-1.2.7-1.3a4 4 0 0 0-1.6.6c-.4.3-1.3.4-1.3.2s1.3-1.1 1.7-1.2zm-2.7-1.8l-.3.2v-.2zm.2 1.9z" fill="#f3bc84"/>
  <path d="M15 51.2a6.7 6.7 0 0 1 0-5.4 10.6 10.6 0 0 1 2.6-3.8m-.4 1.5s2.5-1 3.9-.6 1.1 1.2 1.1 1.2m-3.7 6.4v-.8s.7.1.9-.9A7.2 7.2 0 0 0 22 48c.9-.6.9-1.2.6-1.2l-1.5.5c-.4.2-1.4.4-1.3.2s1.3-.9 1.7-1l1.2-.3a.5.5 0 0 0-.2-.9 4.9 4.9 0 0 0-3.5 1" fill="none" stroke="#000" stroke-linecap="round" stroke-linejoin="round" stroke-width=".4"/>
  <path d="M18.3 44.8a3.3 3.3 0 0 1 2.2-.8 3.1 3.1 0 0 1 2.2.4c.3.2.3.5-.2.6s-2.6.3-3.4 1.2M37.2 30s1 1 .5 4.6" fill="none" stroke="#000" stroke-linecap="round" stroke-linejoin="round" stroke-width=".4"/>
  <path d="M32.1 29.7a.7.7 0 0 1-.2-.9 9 9 0 0 0 .8-4.2 7.2 7.2 0 0 1 .5-3.1c1.1-2.6 2.7-3.4 2.8-3.4a.7.7 0 0 1 1 .4.8.8 0 0 1-.4 1c-.1 0-1.2.6-2 2.6a7.2 7.2 0 0 0-.3 2.5 10.4 10.4 0 0 1-1.1 4.9.7.7 0 0 1-1 .3.1.1 0 0 1-.1-.1z" fill="#856353" stroke="#000" stroke-linecap="round" stroke-linejoin="round" stroke-width=".4"/>
  <path d="M34.4 30.2a.7.7 0 0 1-.4-.8 8.3 8.3 0 0 0-.2-4.3 7.7 7.7 0 0 1-.2-3.1 6.2 6.2 0 0 1 1.9-4 .8.8 0 0 1 1 .1.8.8 0 0 1-.1 1.1 5.6 5.6 0 0 0-1.3 3 5.8 5.8 0 0 0 .2 2.6 10.6 10.6 0 0 1 .2 4.9.8.8 0 0 1-.9.6c-.1 0-.2 0-.2-.1z" fill="#856353" stroke="#000" stroke-linecap="round" stroke-linejoin="round" stroke-width=".4"/>
  <path d="M35.3 18.3a53.4 53.4 0 0 1-.5 5.6 7.3 7.3 0 0 0 .9 5.3c1.2 2.1 3.7 1.4 7.2.1s2.7-8.9 1.8-9.7-5.3-3.8-9.4-1.3z" fill="#f3bc84"/>
  <path d="M41.8 19.3s1.8 8.2-1.6 10.7l2-.4 3.2-6-.6-3.8z" fill="#c69c6d"/>
  <path d="M35.3 18.2a54.9 54.9 0 0 1-.5 5.7 7.3 7.3 0 0 0 .9 5.3c1.2 2.1 3.7 1.4 7.2.1s2.7-8.9 1.8-9.7-5.3-3.9-9.4-1.4z" fill="none" stroke="#000" stroke-linecap="round" stroke-linejoin="round" stroke-width=".4"/>
  <path d="M43 21.5a2.4 2.4 0 0 0-3.7-.4M35.2 20s2.5-.6 2.8 1.5-1.5 2.8-1.6 3.5.7.7.7.7m1.5-.7s.3.7 0 .9a1.3 1.3 0 0 1-1-.3h-.1m.1.4v-.4m-.7 0l-.3.2" fill="none" stroke="#000" stroke-linecap="round" stroke-linejoin="round" stroke-width=".3"/>
  <path d="M37 26.9a.4.4 0 0 1 .3.2.7.7 0 0 1 .4-.2l1 1-2.4-.4 2.4.4s-1.7 1.4-2.6-.5H36z" fill="red"/>
  <path d="M39.1 27.7a12.2 12.2 0 0 1-3.3-.4m2.9.6s-1.7 1.4-2.6-.5" fill="none" stroke="#000" stroke-linecap="round" stroke-linejoin="round" stroke-width=".3"/>
  <path d="M36.1 27.3l.9-.4a.4.4 0 0 1 .3.2.7.7 0 0 1 .4-.2l1 .8" fill="none" stroke="#000" stroke-linecap="round" stroke-linejoin="round" stroke-width=".3"/>
  <path d="M48.9 32.1a.8.8 0 0 0 .3-.9 9.5 9.5 0 0 1-.4-4.2 7 7 0 0 0-.1-3.2 6.7 6.7 0 0 0-2.3-3.7.8.8 0 0 0-1.1.3.7.7 0 0 0 .3 1 6.2 6.2 0 0 1 1.7 2.8 7.6 7.6 0 0 1 0 2.6 10 10 0 0 0 .5 4.9.7.7 0 0 0 .9.5c.1 0 .2 0 .2-.1z" fill="#856353" stroke="#000" stroke-linecap="round" stroke-linejoin="round" stroke-width=".4"/>
  <path d="M46.9 32.5c.4-.2.6-.5.5-.8a9.8 9.8 0 0 1 .7-4.3 9 9 0 0 0 .6-3.1 6.3 6.3 0 0 0-1.4-4.1.8.8 0 1 0-1.1 1.1 5.2 5.2 0 0 1 1 3.1 7.1 7.1 0 0 1-.6 2.5 10.8 10.8 0 0 0-.7 4.9.8.8 0 0 0 .8.7z" fill="#856353" stroke="#000" stroke-linecap="round" stroke-linejoin="round" stroke-width=".4"/>
  <path d="M45.4 32a.7.7 0 0 0 .6-.7 8 8 0 0 1 1.2-4.1 11.7 11.7 0 0 0 1-3 7.1 7.1 0 0 0-.9-4.3.8.8 0 0 0-1.1-.1.7.7 0 0 0-.1 1 5.9 5.9 0 0 1 .5 3.3 5.3 5.3 0 0 1-.8 2.4 9.9 9.9 0 0 0-1.3 4.8.8.8 0 0 0 .7.8z" fill="#856353" stroke="#000" stroke-linecap="round" stroke-linejoin="round" stroke-width=".4"/>
  <path d="M44.2 31.4a.9.9 0 0 0 .6-.7 8.8 8.8 0 0 1 1.1-4.2 7.6 7.6 0 0 0 1.1-2.9 6.8 6.8 0 0 0-.9-4.3.8.8 0 0 0-1.1-.2.8.8 0 0 0-.1 1.1 5.4 5.4 0 0 1 .5 3.2 6.2 6.2 0 0 1-.8 2.4 9.5 9.5 0 0 0-1.3 4.8.7.7 0 0 0 .7.8z" fill="#856353" stroke="#000" stroke-linecap="round" stroke-linejoin="round" stroke-width=".4"/>
  <path d="M43.1 31c.3 0 .5-.3.6-.7a8.1 8.1 0 0 1 1.1-4.1 6.7 6.7 0 0 0 1-3 5.8 5.8 0 0 0-.9-4.3c-.2-.3-1.4-1-1.7-.7s.1.9.5 1.6a4.6 4.6 0 0 1 .6 3.3 6.8 6.8 0 0 1-.8 2.4 9.8 9.8 0 0 0-1.4 4.8c0 .4.3.7.8.8z" fill="#856353" stroke="#000" stroke-linecap="round" stroke-linejoin="round" stroke-width=".4"/>
  <path d="M42.2 22.5a2.9 2.9 0 0 1-1.8.4c-.8-.2-.9-.6-.9-.6a1.8 1.8 0 0 1 1.6-.4c.9.2 1.1.6 1.1.6z" fill="#fff"/>
  <path d="M42.1 22.3l-1.2-.4a4.3 4.3 0 0 0-1.5.3 2.1 2.1 0 0 0 1.3.7 2.2 2.2 0 0 0 1.5-.5m-2.8-.2a1.7 1.7 0 0 1 2.9.2" fill="none" stroke="#000" stroke-linecap="round" stroke-linejoin="round" stroke-width=".3"/>
  <ellipse cx="40.6" cy="22.4" rx=".5" ry=".7" transform="rotate(-85 40.68 22.42)"/>
  <circle cx="40.4" cy="22.2" r=".2" fill="#fff"/>
  <path d="M37.8 22.2a2.7 2.7 0 0 1-1.7.4 1.8 1.8 0 0 1-1-.7 2.2 2.2 0 0 1 1.6-.3c.9.2 1.1.6 1.1.6z" fill="#fff"/>
  <path d="M37.6 22a3 3 0 0 0-1.1-.3 2.1 2.1 0 0 0-1.3.3 2.4 2.4 0 0 0 1.2.6 2.1 2.1 0 0 0 1.4-.5m-2.6-.2a1.5 1.5 0 0 1 2.6.2" fill="none" stroke="#000" stroke-linecap="round" stroke-linejoin="round" stroke-width=".3"/>
  <ellipse cx="36.3" cy="22.1" rx=".5" ry=".6" transform="matrix(.09 -1 1 .09 11.2 56.42)"/>
  <ellipse cx="36.2" cy="21.9" rx=".2" ry=".2" transform="rotate(-85.1 36.16 21.95)" fill="#fff"/>
  <path d="M48.1 20.5a25.9 25.9 0 0 0-13.2-2.6v-1.4a26.1 26.1 0 0 1 13.9 2.6z" fill="#325723" stroke="#000" stroke-linecap="round" stroke-linejoin="round" stroke-width=".4"/>
  <path d="M47.6 12.1a7.9 7.9 0 0 0-2.2 2.6l-1.2-.4a6.5 6.5 0 0 0 .2 2.6c0 .1.4.2.8.3l2.3.7a4.3 4.3 0 0 0 1.8-2l-1.3-.4a9 9 0 0 0-.4-3.4z" fill="#d09b07" stroke="#000" stroke-linecap="round" stroke-linejoin="round" stroke-width=".4"/>
  <path d="M45.1 17.1a19.6 19.6 0 0 1-.3-2l.9.3a12.1 12.1 0 0 1 1.5-2.2 5.8 5.8 0 0 1 .1 2.7l1.1.3a6.9 6.9 0 0 1-1.5 1.4" fill="#980805" stroke="#000" stroke-linecap="round" stroke-linejoin="round" stroke-width=".4"/>
  <ellipse cx="46.4" cy="15.9" rx=".8" ry=".4" transform="rotate(-72.2 46.4 15.88)" fill="#d09b07" stroke="#000" stroke-linecap="round" stroke-linejoin="round" stroke-width=".3"/>
  <path d="M38.5 10.2a7.9 7.9 0 0 0-1.4 3.1h-1.3a5.3 5.3 0 0 0 1 2.5H40a4.8 4.8 0 0 0 1.2-2.4h-1.4a7.7 7.7 0 0 0-1.3-3.1z" fill="#d09b07" stroke="#000" stroke-linecap="round" stroke-linejoin="round" stroke-width=".4"/>
  <path d="M37.4 15.7c-.2-.5-.7-1.5-.8-1.9h1a8.5 8.5 0 0 1 .9-2.4 6.1 6.1 0 0 1 .7 2.5h1.2a12.5 12.5 0 0 1-1.1 1.8" fill="#980805" stroke="#000" stroke-linecap="round" stroke-linejoin="round" stroke-width=".4"/>
  <ellipse cx="38.4" cy="14.2" rx=".8" ry=".4" transform="rotate(-88 38.37 14.14)" fill="#d09b07" stroke="#000" stroke-linecap="round" stroke-linejoin="round" stroke-width=".3"/>
  <path d="M43.2 10.4a8.3 8.3 0 0 0-2 3l-1.4-.2a6.2 6.2 0 0 0 .6 2.8l.9.2 2.6.5a5.8 5.8 0 0 0 1.7-2.4l-1.5-.3a9.3 9.3 0 0 0-.9-3.6z" fill="#febf10" stroke="#000" stroke-linecap="round" stroke-linejoin="round" stroke-width=".4"/>
  <path d="M41.2 16.1a12.8 12.8 0 0 1-.7-2.1l1.1.2a8.6 8.6 0 0 1 1.4-2.5 9 9 0 0 1 .4 2.8l1.2.2a10.5 10.5 0 0 1-1.4 1.7" fill="red" stroke="#000" stroke-linecap="round" stroke-linejoin="round" stroke-width=".4"/>
  <ellipse cx="42.4" cy="14.6" rx=".9" ry=".5" transform="rotate(-79.1 42.4 14.64)" fill="#febf10" stroke="#000" stroke-linecap="round" stroke-linejoin="round" stroke-width=".3"/>
  <path d="M35.4 15.9l1.5-.4a4.1 4.1 0 0 0 .4-2.6l-1.3.4a8.6 8.6 0 0 0-2.1-2.5z" fill="#febf10"/>
  <path d="M35.4 15.9l-1.2-4a5.8 5.8 0 0 1 1.5 2l1-.2a7.4 7.4 0 0 1-.4 1.8z" fill="red"/>
  <path d="M34.8 13.7c.2-.1.5.2.6.6s0 .8-.2.9" fill="#febf10" stroke="#000" stroke-linecap="round" stroke-linejoin="round" stroke-width=".3"/>
  <path d="M35.4 15.9l1.5-.4a4.1 4.1 0 0 0 .4-2.6l-1.3.4a8.6 8.6 0 0 0-2.1-2.5z" fill="none" stroke="#000" stroke-linecap="round" stroke-linejoin="round" stroke-width=".4"/>
  <path d="M34.2 11.9a5.8 5.8 0 0 1 1.5 2l1-.2a7.4 7.4 0 0 1-.4 1.8" fill="none" stroke="#000" stroke-linecap="round" stroke-linejoin="round" stroke-width=".4"/>
  <path d="M51.9 14.4a7.4 7.4 0 0 0-2.9 1.5l-1-.8a4.8 4.8 0 0 0-.6 2.5l1.3 1z" fill="#febf10"/>
  <path d="M48 17.9a9.5 9.5 0 0 1 .3-1.9l.8.7a5.6 5.6 0 0 1 2.1-1.4l-2.5 3.3z" fill="red"/>
  <path d="M50.1 16.7c-.2-.1-.6.1-.8.4s-.4.7-.2.9" fill="#febf10" stroke="#000" stroke-linecap="round" stroke-linejoin="round" stroke-width=".3"/>
  <path d="M51.9 14.4a7.4 7.4 0 0 0-2.9 1.5l-1-.8a4.8 4.8 0 0 0-.6 2.5l1.3 1z" fill="none" stroke="#000" stroke-linecap="round" stroke-linejoin="round" stroke-width=".4"/>
  <path d="M48 17.9a9.5 9.5 0 0 1 .3-1.9l.8.7a5.6 5.6 0 0 1 2.1-1.4" fill="none" stroke="#000" stroke-linecap="round" stroke-linejoin="round" stroke-width=".4"/>
  <path d="M48.9 19.2h-.2A25.2 25.2 0 0 0 35 16.6c-.3 0-.6-.2-.6-.4s.1-.6.4-.6 6.6-1 14.3 2.7a.5.5 0 0 1 .3.7z" fill="#febf10" stroke="#000" stroke-linecap="round" stroke-linejoin="round" stroke-width=".4"/>
  <circle cx="33.7" cy="10.3" r=".9" fill="#febf10" stroke="#000" stroke-linecap="round" stroke-linejoin="round" stroke-width=".4"/>
  <circle cx="43.3" cy="10" r=".9" fill="#febf10" stroke="#000" stroke-linecap="round" stroke-linejoin="round" stroke-width=".4"/>
  <circle cx="52.3" cy="13.9" r=".9" fill="#febf10" stroke="#000" stroke-linecap="round" stroke-linejoin="round" stroke-width=".4"/>
  <path d="M47.9 21.4h-.3C42.3 18.5 35 19 34.9 19a.5.5 0 0 1-.5-.5.5.5 0 0 1 .5-.5c.3 0 7.7-.6 13.2 2.6a.5.5 0 0 1 .2.6.5.5 0 0 1-.4.2z" fill="#febf10" stroke="#000" stroke-linecap="round" stroke-linejoin="round" stroke-width=".4"/>
  <path fill="none" stroke="#000" stroke-linecap="round" stroke-linejoin="round" stroke-width=".4" d="M26.2 59.9l2.1-1.1v2.5l2.2-1.1-.4 2.3 2.2-1.3-.2 2.4 2-1.3-.1 2.4 2.1-1.5-.2 2.4L38 64l.1 2.8 3.2-1.3.5 2.3.7.3 1.9-1.7.1 2.1 2-1.6.3 2.3 1.7-1.8.7 1.9"/>
  <rect x="38.5" y="63.7" width="4.6" height="5.56" rx="1.5" ry="1.5" transform="rotate(23.3 40.8 66.67)" fill="#febf10" stroke="#000" stroke-linecap="round" stroke-linejoin="round" stroke-width=".4"/>
  <rect x="39.3" y="64.7" width="3" height="3.62" rx="1" ry="1" transform="rotate(23.3 40.8 66.67)" fill="#febf10" stroke="#000" stroke-linecap="round" stroke-linejoin="round" stroke-width=".4"/>
  <path fill="red" stroke="#000" stroke-linecap="round" stroke-linejoin="round" stroke-width=".4" d="M42.7 67.3l-1.1.2-1.2.1.5-1.1.4-1 .7.9.7.9z"/>
  <path d="M40.3 105.5c-.5 3.6.5 4.7.5 4.7l-8.1 1-4-2.3v-1.6l5.4-2.2H39z" fill="#f3bc84"/>
  <path d="M37.2 110a6.7 6.7 0 0 1-1.6-4.7s-5.2.9-6.6 2.7l2.5 3.7z" fill="#c69c6d"/>
  <path fill="#980805" d="M40.8 108.2l2.3-2-2.6-1.2-.3 1.3.1 2 .5-.1zm20-24.7l.8-13.4L55 70l-3.3 10.8 9.1 2.7zM9.7 70s1 1.4 1 5.3 1.8 10.1 1.8 10.1L26 90.5l4.7-20.4z"/>
  <path d="M12.5 85.4s-1.8-6.2-1.8-10.1-.8-5.1-.8-5.1" fill="none" stroke="#000" stroke-linecap="round" stroke-linejoin="round" stroke-width=".4"/>
  <path d="M52.8 79s1.3-5.1 2.3-8.8h-26l-2 3.8c-2.6 4.1-3 12-3 12L28 99.6l22.3-11z" fill="#325723"/>
  <path d="M31.4 95.6s-1.3-17.3 4.2-25.3l-6.5-.2s-4 6.6-4.5 10.8S23.5 95 23.5 95l3.4 5.1z" fill="#0d3a12"/>
  <path d="M11.8 83.1a80.1 80.1 0 0 0 3 8.3s.5 1.7 1.5 6a8.5 8.5 0 0 0 8.8 5.9s2.1.1 2.7-3.5a17.6 17.6 0 0 0-.7-8.5c-.5-1.6-3.5-6.1-3.8-6.5L20 80.2a19.3 19.3 0 0 0 .1-7.6l.5-2.4h-7l-.8 2.7c-.8 2.6-1.5 7.8-1 10.2z" fill="#0065b7"/>
  <path d="M26.1 100.9s-6.9-4.1-8.5-9.2S14 83.1 13.5 81s-.2-9.4-.2-9.4-2.1 8.5-1.8 10.7 3.1 8.7 3.1 8.7l2 7s2.1 4.3 5.8 5 3.9-.5 3.7-2.1z" fill="#004da1"/>
  <path d="M28.7 70.1l-1.6 3.8c12.8 1 25.2 10.6 25.3 10.7l2.4-3.1c-.4-.4-10.1-8.7-22.1-11.3" fill="#0065b7"/>
  <path d="M52.2 83.2c-2.9-2.1-13.9-9.1-24.6-10.4l1-2.2c11.6 1.1 22.1 8.7 24.9 11l-1.3 1.6" fill="#856353"/>
  <path d="M28.7 70.1l-1.6 3.8c12.8 1 25.2 10.6 25.3 10.7l2.4-3.1c-.4-.4-10.6-8.9-22.6-11.5" fill="none" stroke="#000" stroke-linecap="round" stroke-linejoin="round" stroke-width=".4"/>
  <path d="M28.6 70.6h.4c11.4 1.3 21.8 8.7 24.5 11l-1.3 1.6m0 0c-2.9-2.1-13.9-9.1-24.6-10.4" fill="none" stroke="#000" stroke-linecap="round" stroke-linejoin="round" stroke-width=".4"/>
  <circle cx="41.1" cy="103.3" r=".9" fill="#febf10" stroke="#000" stroke-linecap="round" stroke-linejoin="round" stroke-width=".4"/>
  <circle cx="39.1" cy="103" r=".9" fill="#febf10" stroke="#000" stroke-linecap="round" stroke-linejoin="round" stroke-width=".4"/>
  <circle cx="37.1" cy="103" r=".9" fill="#febf10" stroke="#000" stroke-linecap="round" stroke-linejoin="round" stroke-width=".4"/>
  <circle cx="35" cy="103.2" r=".9" fill="#febf10" stroke="#000" stroke-linecap="round" stroke-linejoin="round" stroke-width=".4"/>
  <path d="M13.6 70.1l-.8 2.7c-.8 2.7-1.5 7.9-1 10.3a80.1 80.1 0 0 0 3 8.3s.5 1.7 1.5 6a8.5 8.5 0 0 0 8.8 5.9s2.1.1 2.7-3.5a17.6 17.6 0 0 0-.7-8.5c-.5-1.6-3.5-6.1-3.8-6.5L20 80.1" fill="none" stroke="#000" stroke-linecap="round" stroke-linejoin="round" stroke-width=".4"/>
  <path d="M61.5 84.8s-2.3-5.5-4.3-6.2a5.8 5.8 0 0 0-4.8.7c-.7.7-2.1 8.8-2.1 8.8l4.6.7 2.1-3 1.7.7 2.8-.5z" fill="#0065b7"/>
  <circle cx="33" cy="103.6" r=".9" fill="#febf10" stroke="#000" stroke-linecap="round" stroke-linejoin="round" stroke-width=".4"/>
  <path d="M61.5 84.8s-2.3-5.5-4.3-6.2a5.8 5.8 0 0 0-4.8.7c-.7.7-2.1 8.8-2.1 8.8l4.6.7 2.1-3 1.7.7 2.8-.5z" fill="none" stroke="#000" stroke-linecap="round" stroke-linejoin="round" stroke-width=".4"/>
  <circle cx="31.2" cy="104.3" r=".9" fill="#febf10" stroke="#000" stroke-linecap="round" stroke-linejoin="round" stroke-width=".4"/>
  <circle cx="29.6" cy="105.3" r=".9" fill="#febf10" stroke="#000" stroke-linecap="round" stroke-linejoin="round" stroke-width=".4"/>
  <path d="M37.3 104.1a13.3 13.3 0 0 1 6 1.2.4.4 0 0 1 .3.6.5.5 0 0 1-.7.3c-.1-.1-7.7-3.4-14.2 2a.6.6 0 0 1-.8 0 .8.8 0 0 1 .1-.8 14.3 14.3 0 0 1 9.3-3.3z" fill="#0065b7" stroke="#000" stroke-linecap="round" stroke-linejoin="round" stroke-width=".4"/>
  <circle cx="43" cy="104" r=".9" fill="#febf10" stroke="#000" stroke-linecap="round" stroke-linejoin="round" stroke-width=".4"/>
  <path d="M29 104.9s5.1-4.7 14.3-2.3h.1l1.1 1.9h-.3a29.5 29.5 0 0 1-4 3.1v1.2s6.8-1.6 9.3-5.1h-.2c1.2-.2 2.7-1 3.9-3.5H53a.3.3 0 0 0 .1-.2c4.1.1 11.4-2.1 13-17.6 0 0 3.1-3.9 1.7-12.3h-7.2s-.7 7.9-.2 12.3c.1.5 1.4 2.1 1.3 2.5-1.2 3.1-9.4 2.9-12.9 3.3A34.5 34.5 0 0 0 25.1 102z" fill="red"/>
  <path d="M28.3 102.5s6-4.3 11.1-5.8 10.3.1 12.8-2.4l2.6-.7L54 88s-7.9.3-13.1 2.2A37.1 37.1 0 0 0 27.7 99a17.7 17.7 0 0 0-2.2 3z" fill="#980805"/>
  <path d="M40.2 108.8s6.8-1.6 9.3-5.1m-2.1-.1s3.4 1.4 5.8-3.4" fill="none" stroke="#000" stroke-linecap="round" stroke-linejoin="round" stroke-width=".4"/>
  <path d="M50.2 99.7s13.6 4.7 15.9-17.2c0 0 3.1-3.9 1.7-12.3" fill="none" stroke="#000" stroke-linecap="round" stroke-linejoin="round" stroke-width=".4"/>
  <path d="M65.9 70.2s-1.4 5.7-1.3 8.5c0 0-.2-6.9-.8-8.5" fill="#980805" stroke="#000" stroke-linecap="round" stroke-linejoin="round" stroke-width=".4"/>
  <path d="M60.6 70.2s-.9 7.7-.3 12.1c0 .4 1.2 2.3 1.1 2.7-1 3.2-9.3 2.8-12.6 3.3a35.4 35.4 0 0 0-23.7 13.8l3.9 2.8s5.1-4.7 14.3-2.3m.9 1.9a29.5 29.5 0 0 1-4 3.1m4.8-2.5s-1.2-2-2-3" fill="none" stroke="#000" stroke-linecap="round" stroke-linejoin="round" stroke-width=".4"/>
  <path d="M29.6 103.1a40.6 40.6 0 0 0 5.8-2.1c2.8-1.3 9.4-3.4 10.5.7m-17.2.4s10.2-6.7 15.4-6m-16.3 5.5a27.9 27.9 0 0 1 3.7-3.9m23-4.2s-2.6 1.6-9 0-8.6.2-8.6.2" fill="none" stroke="#000" stroke-linecap="round" stroke-linejoin="round" stroke-width=".4"/>
  <path d="M28.8 109.6a11.7 11.7 0 0 1-8-4 7.7 7.7 0 0 1-4.2-7s-.1-.4 1.3 1.6 5 3.2 6.6 3l4.4 2.5z" fill="red"/>
  <path d="M28.8 107.8s-6.5-.9-9.7-6.2l-2.5-3s-.5 3.6 2.2 5.6l2.3 1.5a9.2 9.2 0 0 0 3.1 2.5 9.6 9.6 0 0 0 5.1 1.3c1.3-.2-.5-1.7-.5-1.7z" fill="#980805"/>
  <path d="M28.8 109.6a11.7 11.7 0 0 1-8-4 7.7 7.7 0 0 1-4.2-7s-.1-.4 1.3 1.6 5 3.2 6.6 3l4.4 2.5z" fill="none" stroke="#000" stroke-linecap="round" stroke-linejoin="round" stroke-width=".4"/>
  <path d="M57.7 89.9c2.4-1.9 5.8-1 5.8-1S62 85 61.5 85a8.1 8.1 0 0 0-4 .5c-1.7.6.2 4.4.2 4.4z" fill="#febf10" stroke="#000" stroke-linecap="round" stroke-linejoin="round" stroke-width=".4"/>
  <path d="M59.9 85.7h.4l.9 1.1.8-1.4.6 1.1-.8 1.5-.4.3-.4-.2-.9-1-.3 1a.8.8 0 0 1-.4.4l-.5-.2-.6-.7-.8 1.9-.4-1.3.5-1.7c.1-.1.2-.3.4-.3h.4l.7.7.3-1c.1-.2.2-.3.4-.3z" fill="#325723" stroke="#000" stroke-linecap="round" stroke-linejoin="round" stroke-width=".4"/>
  <path d="M18.8 84.4s2.5-6.1 1.3-11.8m-.5 1.8l1-4.2" fill="none" stroke="#000" stroke-linecap="round" stroke-linejoin="round" stroke-width=".4"/>
  <ellipse cx="26.9" cy="103.6" rx="2.3" ry="3" transform="rotate(-64.8 26.95 103.64)" fill="#febf10" stroke="#000" stroke-linecap="round" stroke-linejoin="round" stroke-width=".4"/>
  <ellipse cx="26.9" cy="103.6" rx="1.7" ry="2.2" transform="rotate(-64.8 26.95 103.64)" fill="#004da1" stroke="#000" stroke-linecap="round" stroke-linejoin="round" stroke-width=".3"/>
  <path fill="#febf10" stroke="#000" stroke-linecap="round" stroke-linejoin="round" stroke-width=".3" d="M26.4 104.8l-.2-.9-.9-.6 1-.2.2-.8.7.8h1l-.5.7.4.9-1-.4-.7.5z"/>
  <path d="M24.1 85.9s.4-7.9 3-12M52.8 79s1.2-4.9 2.2-8.8" fill="none" stroke="#000" stroke-linecap="round" stroke-linejoin="round" stroke-width=".4"/>
  <path d="M27 91.7a22.3 22.3 0 0 0-10.4 6s-2-2.1-1.8-6.3a25.9 25.9 0 0 1 9.5-5.2s2.6 3 2.7 5.5z" fill="red"/>
  <path d="M25.7 88.1a15.6 15.6 0 0 0-.1 2.5.8.8 0 0 1-.4.7.9.9 0 0 1-.7 0l-1.7-1-.2 1.8a1 1 0 0 1-.4.5.9.9 0 0 1-.7 0l-1.7-.8-.2 1.8a.9.9 0 0 1-.4.6h-.6l-1.7-.6v1.8c0 .2.1.9.1 1.4s-.5 0-.7 0-.9-.9-.9-1.3v-3a.7.7 0 0 1 .3-.6.6.6 0 0 1 .7-.1l1.9.7.3-2a.5.5 0 0 1 .4-.5.4.4 0 0 1 .6 0l1.7.8.3-1.9a.8.8 0 0 1 .5-.5.8.8 0 0 1 .7 0l1.4.9c0-1.4.1-2.4.1-2.5s.2-.1.5-.1" fill="#0065b7" stroke="#000" stroke-linecap="round" stroke-linejoin="round" stroke-width=".4"/>
  <path fill="#febf10" d="M27 91.7l-2.8.9-3 1.6-3.3 2.1-1.3 1.3-.7-.8 1.4-1.2 2.1-1.7 2-1.1 2.2-.9 2.2-.9 1-.3.2 1zm-2.1-4.6l-1.8.7-2.5 1.1-2.2 1.1-2 1.4-1.5 1.3-.1-.9v-.5l2.6-2 2.9-1.6 2.5-1 1.6-.6.4.7.1.3z"/>
  <path d="M27 91.7a22.3 22.3 0 0 0-10.4 6s-2-2.1-1.8-6.3a25.9 25.9 0 0 1 9.5-5.2s2.6 3 2.7 5.5m-.1-1.1S19.2 93 16 96.7m8.9-9.7s-7.2 2.7-10.1 5.7" fill="none" stroke="#000" stroke-linecap="round" stroke-linejoin="round" stroke-width=".4"/>
  <path d="M61.8 126s2.4-.4 3.2-3.9c0 0 1.9-1.4 0-6.6 0 0 .9-1.8-.7-5.3a40.6 40.6 0 0 1-2.9-8c-.3-1.3-1.6-5.3-1.6-5.3s-2.4-8.2-2.5-10.2a6.9 6.9 0 0 0-.7-3.4c-.3-1.1-1.6-7.7-2.5-8.9s-2-1-1.6 1.5 1.8 14.2 1.8 15.1.8 10.9.6 12a60 60 0 0 0-.6 6.1 39.3 39.3 0 0 0-.3 7 13.5 13.5 0 0 0 1.8 6s1.5 4.6 6 3.9z" fill="#a77e6a"/>
  <path d="M54 74.2c-.4-.9-1.8-.7-1.5 1.7s1.8 14.2 1.8 15.1.8 10.9.6 12a60 60 0 0 0-.6 6.1 39.3 39.3 0 0 0-.3 7 13.5 13.5 0 0 0 1.8 6s1 3.2 4 3.9c0 0 1.5-.1.5-1.6s-2.3-2-2.3-2.9a30.4 30.4 0 0 0 0-5.5c-.5-3.3-.5-7.1-1-8.4s-1-1.8-.6-3.2a18 18 0 0 0 .4-7.3c-.4-2.9-.8-5.5-.8-6.5a58.9 58.9 0 0 0-.9-8.4 50.6 50.6 0 0 1-1-5.8c-.1-1 .4-1.1-.1-2.2z" fill="#856353"/>
  <path d="M61.8 126s2.4-.4 3.2-3.9c0 0 1.9-1.4 0-6.6 0 0 .9-1.8-.7-5.3a40.6 40.6 0 0 1-2.9-8c-.3-1.3-1.6-5.3-1.6-5.3s-2.4-8.2-2.5-10.2a6.9 6.9 0 0 0-.7-3.4c-.3-1.1-1.6-7.7-2.5-8.9s-2-1-1.6 1.5 1.8 14.2 1.8 15.1.8 10.9.6 12a60 60 0 0 0-.6 6.1 39.3 39.3 0 0 0-.3 7 13.5 13.5 0 0 0 1.8 6s1.5 4.6 6 3.9z" fill="none" stroke="#000" stroke-linecap="round" stroke-linejoin="round" stroke-width=".4"/>
  <path d="M61.5 118.8a5.4 5.4 0 0 0 1.1-4.2c-.6-2.4-2.6-8.4-2.9-9s-.7-4.4-1.6-4.2-.6 2.9 0 5.3 1.5 5.2 1.2 6.4-.8 8.1 2.2 5.7zM57 90.4s-1.2-6.7-1.5-8-1.3-7.1-1.4-7.6-.9-1.1-.5 1.6 1.7 10.5 1.7 12 .4 3.6 1 3.7.7-.7.7-1.7z" fill="#c69c6d"/>
  <path d="M30.3 89.8a62.1 62.1 0 0 1 2-14.8m.9 19.1a67.4 67.4 0 0 1 0-11.7m7.5-4.6a28.1 28.1 0 0 0-2.5 9.2" fill="none" stroke="#000" stroke-linecap="round" stroke-linejoin="round" stroke-width=".4"/>
  <path d="M56.4 93.8c-.5.2-1.2-.1-1.4.2s-.2.7.5.8a4.3 4.3 0 0 0 3.3-.9l-.2.2c-.7.9-2.7.9-3.2 1s-.4.4-.2.6l.5.3s-.4.9 1.1 1.2a6.9 6.9 0 0 0 3.2-.3l.4 1.1a10.2 10.2 0 0 0 2.5-3.7 6.4 6.4 0 0 0 0-5.3s-2.9-.6-4.8.8l.4 1.4-.3.2a6.8 6.8 0 0 0-2.3.7c-.9.6-1 1.3-.7 1.3a2.7 2.7 0 0 0 1.6-.6c.4-.3 1.4-.4 1.3-.1a4.5 4.5 0 0 1-1.7 1.1zm2.7 1.8c.2 0 .3-.1.3-.2v.2zm-.2-1.9z" fill="#f3bc84"/>
  <path d="M63 88.9a6.9 6.9 0 0 1-.1 5.4 10.6 10.6 0 0 1-2.6 3.8m.4-1.4s-2.5.9-3.9.5-1.1-1.2-1.1-1.2m3.7-6.3v.7s-.7 0-.9.9a7.2 7.2 0 0 0-2.7.8c-.9.6-.9 1.2-.6 1.2s1.1-.3 1.5-.5 1.4-.4 1.3-.1-1.2.8-1.7 1l-1.2.3c-.3.1-.4.7.3.8a4.3 4.3 0 0 0 3.4-1" fill="none" stroke="#000" stroke-linecap="round" stroke-linejoin="round" stroke-width=".4"/>
  <path d="M59.6 95.3a3.6 3.6 0 0 1-2.1.9 3.7 3.7 0 0 1-2.3-.5c-.2-.2-.3-.5.2-.6s2.7-.2 3.4-1.2m-18 16.3s-1-1.1-.5-4.7" fill="none" stroke="#000" stroke-linecap="round" stroke-linejoin="round" stroke-width=".4"/>
  <path d="M45.9 110.4a.7.7 0 0 1 .1.9 9 9 0 0 0-.8 4.2 7 7 0 0 1-.5 3.1 5.7 5.7 0 0 1-2.8 3.4.8.8 0 0 1-1-.3c-.1-.4 0-.9.4-1a5.5 5.5 0 0 0 2-2.7 5.3 5.3 0 0 0 .4-2.5 9.8 9.8 0 0 1 1-4.8.7.7 0 0 1 1-.4z" fill="#856353" stroke="#000" stroke-linecap="round" stroke-linejoin="round" stroke-width=".4"/>
  <path d="M43.5 109.9a.7.7 0 0 1 .4.8 8.3 8.3 0 0 0 .2 4.3 7.9 7.9 0 0 1 .2 3.1c-.4 2.8-1.8 4-1.9 4a.7.7 0 0 1-1-.1.8.8 0 0 1 .1-1.1c.1 0 1-.9 1.3-3a5.2 5.2 0 0 0-.2-2.5 10.1 10.1 0 0 1-.1-5 .7.7 0 0 1 .9-.6z" fill="#856353" stroke="#000" stroke-linecap="round" stroke-linejoin="round" stroke-width=".4"/>
  <path d="M42.6 121.8a53.4 53.4 0 0 1 .5-5.6 7.1 7.1 0 0 0-.9-5.2c-1.2-2.1-3.7-1.5-7.2-.2s-2.7 9-1.8 9.7 5.3 3.8 9.4 1.3z" fill="#f3bc84"/>
  <path d="M36.1 120.9s-1.8-8.2 1.6-10.7l-2 .3-3.2 6 .6 3.8z" fill="#c69c6d"/>
  <path d="M42.6 121.9a54.9 54.9 0 0 1 .5-5.7 7.1 7.1 0 0 0-.9-5.2c-1.2-2.1-3.7-1.5-7.2-.2s-2.7 9-1.8 9.7 5.3 3.9 9.4 1.4z" fill="none" stroke="#000" stroke-linecap="round" stroke-linejoin="round" stroke-width=".4"/>
  <path d="M34.9 118.7a2.4 2.4 0 0 0 3.7.3m4.1 1.2s-2.5.5-2.7-1.5 1.4-2.9 1.5-3.6-.7-.7-.7-.7m-1.5.7s-.3-.7 0-.9a1.3 1.3 0 0 1 1 .3h.1m0-.4l-.1.4m.7 0l.3-.2" fill="none" stroke="#000" stroke-linecap="round" stroke-linejoin="round" stroke-width=".3"/>
  <path d="M40.9 113.2a.4.4 0 0 1-.3-.2l-.4.2a9.4 9.4 0 0 1-1-1l2.5.5-2.4-.5a1.5 1.5 0 0 1 2.5.5h.1a4.6 4.6 0 0 1-1 .5z" fill="red"/>
  <path d="M38.9 112.4a9.4 9.4 0 0 1 3.2.5m-2.8-.7a1.5 1.5 0 0 1 2.5.5" fill="none" stroke="#000" stroke-linecap="round" stroke-linejoin="round" stroke-width=".3"/>
  <path d="M41.8 112.9l-.9.3a.4.4 0 0 1-.3-.2l-.4.2-1-.8" fill="none" stroke="#000" stroke-linecap="round" stroke-linejoin="round" stroke-width=".3"/>
  <path d="M29 108a.8.8 0 0 0-.3.9 9.8 9.8 0 0 1 .4 4.3 8.2 8.2 0 0 0 .1 3.1 6.3 6.3 0 0 0 2.3 3.7.9.9 0 0 0 1.1-.2.8.8 0 0 0-.3-1.1 4.6 4.6 0 0 1-1.6-2.8 5.7 5.7 0 0 1-.1-2.6 10.1 10.1 0 0 0-.5-4.9.7.7 0 0 0-.9-.5z" fill="#856353" stroke="#000" stroke-linecap="round" stroke-linejoin="round" stroke-width=".4"/>
  <path d="M31 107.7a.7.7 0 0 0-.5.8 7.2 7.2 0 0 1-.7 4.2 9 9 0 0 0-.6 3.1c.1 2.8 1.4 4.1 1.5 4.1a.7.7 0 0 0 1-1 5.3 5.3 0 0 1-.9-3.2 5.6 5.6 0 0 1 .5-2.5 10.5 10.5 0 0 0 .7-4.9.8.8 0 0 0-.8-.7z" fill="#856353" stroke="#000" stroke-linecap="round" stroke-linejoin="round" stroke-width=".4"/>
  <path d="M32.5 108.1a.9.9 0 0 0-.6.7 8.8 8.8 0 0 1-1.1 4.2 6.2 6.2 0 0 0-1 2.9 6.4 6.4 0 0 0 .8 4.3.8.8 0 0 0 1.1.1.7.7 0 0 0 .1-1 5.6 5.6 0 0 1-.5-3.2 6.7 6.7 0 0 1 .8-2.5 8.8 8.8 0 0 0 1.3-4.7.7.7 0 0 0-.7-.8z" fill="#856353" stroke="#000" stroke-linecap="round" stroke-linejoin="round" stroke-width=".4"/>
  <path d="M33.7 108.7a1 1 0 0 0-.6.8 8.1 8.1 0 0 1-1.1 4.1 7.5 7.5 0 0 0-.2 7.3.8.8 0 0 0 1.1.1.9.9 0 0 0 .2-1.1c-.1 0-.8-1.1-.6-3.2a6.8 6.8 0 0 1 .8-2.4 9.8 9.8 0 0 0 1.4-4.8.9.9 0 0 0-.8-.8z" fill="#856353" stroke="#000" stroke-linecap="round" stroke-linejoin="round" stroke-width=".4"/>
  <path d="M34.9 109.1a.7.7 0 0 0-.6.7 9.1 9.1 0 0 1-1.2 4.1 8.8 8.8 0 0 0-1 3 5.8 5.8 0 0 0 .9 4.3c.2.3 1.4 1 1.7.8s-.1-1-.5-1.7a4.5 4.5 0 0 1-.6-3.2 6.7 6.7 0 0 1 .8-2.5 9.7 9.7 0 0 0 1.4-4.7.7.7 0 0 0-.8-.8z" fill="#856353" stroke="#000" stroke-linecap="round" stroke-linejoin="round" stroke-width=".4"/>
  <path d="M35.7 117.6a2.9 2.9 0 0 1 1.8-.4 1.4 1.4 0 0 1 1 .7 2.3 2.3 0 0 1-1.7.3c-.9-.2-1.1-.6-1.1-.6z" fill="#fff"/>
  <path d="M35.8 117.9a4 4 0 0 0 1.3.3 4.1 4.1 0 0 0 1.4-.3 1.9 1.9 0 0 0-2.8-.2m2.8.2a1.7 1.7 0 0 1-2.8-.2" fill="none" stroke="#000" stroke-linecap="round" stroke-linejoin="round" stroke-width=".3"/>
  <ellipse cx="37.3" cy="117.7" rx=".5" ry=".7" transform="rotate(-85 37.36 117.75)"/>
  <circle cx="37.5" cy="117.9" r=".2" fill="#fff"/>
  <path d="M40.1 117.9a2.5 2.5 0 0 1 1.8-.3 1.4 1.4 0 0 1 .9.6 1.6 1.6 0 0 1-1.6.3c-.9-.2-1.1-.6-1.1-.6z" fill="#fff"/>
  <path d="M40.3 118.2l1.1.3a3.3 3.3 0 0 0 1.3-.3 2.2 2.2 0 0 0-1.2-.7 2.8 2.8 0 0 0-1.4.5m2.6.2a1.5 1.5 0 0 1-2.6-.2" fill="none" stroke="#000" stroke-linecap="round" stroke-linejoin="round" stroke-width=".3"/>
  <ellipse cx="41.6" cy="118" rx=".5" ry=".6" transform="rotate(-85.1 41.52 118)"/>
  <ellipse cx="41.8" cy="118.2" rx=".2" ry=".2" transform="rotate(-85.1 41.74 118.2)" fill="#fff"/>
  <path d="M29.9 119.7a26.2 26.2 0 0 0 13.1 2.5l.2 1.5a26.9 26.9 0 0 1-14-2.7z" fill="#325723" stroke="#000" stroke-linecap="round" stroke-linejoin="round" stroke-width=".4"/>
  <path d="M30.3 128a8.3 8.3 0 0 0 2.2-2.5l1.2.4a5.3 5.3 0 0 0-.2-2.7l-.8-.3-2.3-.7a4.3 4.3 0 0 0-1.8 2l1.3.4a8.6 8.6 0 0 0 .4 3.4z" fill="#d09b07" stroke="#000" stroke-linecap="round" stroke-linejoin="round" stroke-width=".4"/>
  <path d="M32.8 123a17.7 17.7 0 0 1 .3 2.1l-.9-.3a11.3 11.3 0 0 1-1.5 2.1 7.2 7.2 0 0 1-.1-2.6l-1.1-.4a10.3 10.3 0 0 1 1.5-1.4" fill="#980805" stroke="#000" stroke-linecap="round" stroke-linejoin="round" stroke-width=".4"/>
  <ellipse cx="31.5" cy="124.2" rx=".8" ry=".4" transform="rotate(-72.2 31.54 124.25)" fill="#d09b07" stroke="#000" stroke-linecap="round" stroke-linejoin="round" stroke-width=".3"/>
  <path d="M39.4 129.9a8 8 0 0 0 1.4-3h1.3a5.7 5.7 0 0 0-1-2.5h-3.2a4.8 4.8 0 0 0-1.2 2.4h1.4a7.7 7.7 0 0 0 1.3 3.1z" fill="#d09b07" stroke="#000" stroke-linecap="round" stroke-linejoin="round" stroke-width=".4"/>
  <path d="M40.5 124.5l.8 1.8h-.9c-.2.7-.7 1.9-.9 2.4a7.1 7.1 0 0 1-.8-2.5h-1.2c.2-.3.7-1.3 1.1-1.8" fill="#980805" stroke="#000" stroke-linecap="round" stroke-linejoin="round" stroke-width=".4"/>
  <ellipse cx="39.5" cy="126" rx=".8" ry=".4" transform="rotate(-88 39.56 125.96)" fill="#d09b07" stroke="#000" stroke-linecap="round" stroke-linejoin="round" stroke-width=".3"/>
  <path d="M34.7 129.7a7.3 7.3 0 0 0 2-3l1.4.3a6.5 6.5 0 0 0-.6-2.9l-.9-.2-2.5-.5a4.8 4.8 0 0 0-1.7 2.4l1.4.3a9.3 9.3 0 0 0 .9 3.6z" fill="#febf10" stroke="#000" stroke-linecap="round" stroke-linejoin="round" stroke-width=".4"/>
  <path d="M36.8 124c.2.6.5 1.8.6 2.2l-1.1-.2a9.2 9.2 0 0 1-1.3 2.4 6.4 6.4 0 0 1-.4-2.8l-1.3-.2a10.7 10.7 0 0 1 1.5-1.7" fill="red" stroke="#000" stroke-linecap="round" stroke-linejoin="round" stroke-width=".4"/>
  <ellipse cx="35.5" cy="125.5" rx=".9" ry=".5" transform="rotate(-79.1 35.5 125.46)" fill="#febf10" stroke="#000" stroke-linecap="round" stroke-linejoin="round" stroke-width=".3"/>
  <path d="M42.5 124.2l-1.5.5a4.8 4.8 0 0 0-.4 2.5l1.3-.3a9.2 9.2 0 0 0 2.1 2.4z" fill="#febf10"/>
  <path d="M42.6 124.3l1.1 3.9a7.7 7.7 0 0 1-1.5-2l-1 .3a16.2 16.2 0 0 1 .4-1.9z" fill="red"/>
  <path d="M43.2 126.4c-.3.1-.5-.2-.7-.6s0-.8.2-.8" fill="#febf10" stroke="#000" stroke-linecap="round" stroke-linejoin="round" stroke-width=".3"/>
  <path d="M42.5 124.2l-1.5.5a4.8 4.8 0 0 0-.4 2.5l1.3-.3a9.2 9.2 0 0 0 2.1 2.4z" fill="none" stroke="#000" stroke-linecap="round" stroke-linejoin="round" stroke-width=".4"/>
  <path d="M43.7 128.2a7.7 7.7 0 0 1-1.5-2l-1 .3a16.2 16.2 0 0 1 .4-1.9" fill="none" stroke="#000" stroke-linecap="round" stroke-linejoin="round" stroke-width=".4"/>
  <path d="M26 125.8a8.4 8.4 0 0 0 2.9-1.6l1 .8a4.4 4.4 0 0 0 .6-2.5l-1.3-1z" fill="#febf10"/>
  <path d="M29.9 122.2a10.1 10.1 0 0 1-.2 1.9l-.9-.6a6.4 6.4 0 0 1-2.1 1.4l2.5-3.3z" fill="red"/>
  <path d="M27.9 123.4c.1.1.5 0 .8-.4s.3-.7.1-.8" fill="#febf10" stroke="#000" stroke-linecap="round" stroke-linejoin="round" stroke-width=".3"/>
  <path d="M26 125.8a8.4 8.4 0 0 0 2.9-1.6l1 .8a4.4 4.4 0 0 0 .6-2.5l-1.3-1z" fill="none" stroke="#000" stroke-linecap="round" stroke-linejoin="round" stroke-width=".4"/>
  <path d="M29.9 122.2a10.1 10.1 0 0 1-.2 1.9l-.9-.6a6.4 6.4 0 0 1-2.1 1.4" fill="none" stroke="#000" stroke-linecap="round" stroke-linejoin="round" stroke-width=".4"/>
  <path d="M29 120.9h.2a25.9 25.9 0 0 0 13.7 2.7.4.4 0 0 1 .6.4c.1.2-.1.5-.4.5s-6.6 1-14.3-2.7a.4.4 0 0 1-.3-.6.5.5 0 0 1 .5-.3z" fill="#febf10" stroke="#000" stroke-linecap="round" stroke-linejoin="round" stroke-width=".4"/>
  <circle cx="44.2" cy="129.8" r=".9" fill="#febf10" stroke="#000" stroke-linecap="round" stroke-linejoin="round" stroke-width=".4"/>
  <circle cx="34.6" cy="130.1" r=".9" fill="#febf10" stroke="#000" stroke-linecap="round" stroke-linejoin="round" stroke-width=".4"/>
  <circle cx="25.6" cy="126.2" r=".9" fill="#febf10" stroke="#000" stroke-linecap="round" stroke-linejoin="round" stroke-width=".4"/>
  <path d="M30.1 118.7h.2c5.3 3 12.6 2.5 12.7 2.4a.5.5 0 0 1 .5.5.5.5 0 0 1-.5.5c-.3.1-7.7.6-13.2-2.5a.7.7 0 0 1-.2-.7.5.5 0 0 1 .5-.2z" fill="#febf10" stroke="#000" stroke-linecap="round" stroke-linejoin="round" stroke-width=".4"/>
  <path fill="none" stroke="#000" stroke-linecap="round" stroke-linejoin="round" stroke-width=".4" d="M51.7 80.3l-2.1 1v-2.5l-2.2 1.1.4-2.3-2.2 1.3.2-2.4-2 1.4.1-2.5-2.1 1.5.2-2.3-2.1 1.5-.1-2.7-3.2 1.3-.5-2.4-.7-.2-1.9 1.7-.1-2.2-1.9 1.7-.4-2.4-1.7 1.9-.7-2"/>
  <rect x="34.8" y="70.8" width="4.6" height="5.56" rx="1.5" ry="1.5" transform="rotate(-156.7 37.13 73.66)" fill="#febf10" stroke="#000" stroke-linecap="round" stroke-linejoin="round" stroke-width=".4"/>
  <rect x="35.6" y="71.8" width="3" height="3.62" rx="1" ry="1" transform="rotate(-156.7 37.13 73.66)" fill="#febf10" stroke="#000" stroke-linecap="round" stroke-linejoin="round" stroke-width=".4"/>
  <path fill="red" stroke="#000" stroke-linecap="round" stroke-linejoin="round" stroke-width=".4" d="M35.2 72.8l1.1-.2 1.2-.1-.4 1.1-.5 1.1-.7-1-.7-.9z"/>
  <path fill="none" stroke="#000" stroke-linecap="round" stroke-linejoin="round" stroke-width=".4" d="M8 7.9h62v124.31H8zM8.1 70H70"/>
</svg>
