<?xml version="1.0" encoding="UTF-8"?>
<svg xmlns="http://www.w3.org/2000/svg" xmlns:xlink="http://www.w3.org/1999/xlink" width="261px" height="420px" viewBox="0 0 261 420" version="1.1">
<g id="surface1">
<path style=" stroke:none;fill-rule:nonzero;fill:rgb(100%,100%,100%);fill-opacity:1;" d="M 20.078125 0 L 240.921875 0 C 252.011719 0 261 8.058594 261 18 L 261 402 C 261 411.941406 252.011719 420 240.921875 420 L 20.078125 420 C 8.988281 420 0 411.941406 0 402 L 0 18 C 0 8.058594 8.988281 0 20.078125 0 Z M 20.078125 0 "/>
<path style=" stroke:none;fill-rule:nonzero;fill:rgb(0%,39.607843%,71.764706%);fill-opacity:1;" d="M 82.984375 373.5 L 74.285156 385.800781 L 65.585938 373.5 L 62.238281 132.601562 L 86.332031 132.601562 Z M 82.984375 373.5 "/>
<path style=" stroke:none;fill-rule:nonzero;fill:rgb(0%,30.196078%,63.137255%);fill-opacity:1;" d="M 82.984375 373.5 L 74.285156 385.800781 L 73.949219 132.601562 L 86.332031 132.601562 Z M 82.984375 373.5 "/>
<path style="fill:none;stroke-width:0.4;stroke-linecap:round;stroke-linejoin:round;stroke:rgb(0%,0%,0%);stroke-opacity:1;stroke-miterlimit:4;" d="M 24.799928 124.5 L 22.200162 128.60026 L 19.600395 124.5 L 18.599946 44.200521 L 25.800377 44.200521 Z M 24.799928 124.5 " transform="matrix(3.346154,0,0,3,0,0)"/>
<path style="fill:none;stroke-width:0.4;stroke-linecap:round;stroke-linejoin:round;stroke:rgb(0%,0%,0%);stroke-opacity:1;stroke-miterlimit:4;" d="M 22.200162 128.60026 L 22.200162 44.299479 " transform="matrix(3.346154,0,0,3,0,0)"/>
<path style=" stroke:none;fill-rule:nonzero;fill:rgb(0%,0%,0%);fill-opacity:1;" d="M 74.285156 146.699219 C 69.933594 141 57.886719 136.5 57.886719 124.800781 C 57.886719 118.800781 60.898438 114 65.917969 114 C 70.9375 114 69.601562 112.5 74.285156 112.5 C 78.96875 112.5 78.96875 114 82.648438 114 C 86.332031 114 90.347656 118.800781 90.347656 124.800781 C 90.347656 136.5 78.300781 141 74.285156 146.699219 Z M 74.285156 146.699219 "/>
<path style="fill-rule:nonzero;fill:rgb(100%,0%,0%);fill-opacity:1;stroke-width:0.55;stroke-linecap:round;stroke-linejoin:round;stroke:rgb(0%,0%,0%);stroke-opacity:1;stroke-miterlimit:4;" d="M 24.000269 42.700521 C 24.000269 41.10026 23.199443 39.89974 22.200162 39.89974 C 21.199713 39.89974 20.400054 41.10026 20.400054 42.700521 C 20.400054 44.200521 21.199713 45.5 22.200162 45.5 C 23.199443 45.5 24.000269 44.200521 24.000269 42.700521 Z M 24.000269 42.700521 " transform="matrix(3.346154,0,0,3,0,0)"/>
<path style="fill:none;stroke-width:0.3;stroke-linecap:round;stroke-linejoin:round;stroke:rgb(0%,0%,0%);stroke-opacity:1;stroke-miterlimit:4;" d="M 22.000539 43.700521 C 22.699802 43.89974 22.600575 41.299479 22.099767 41.5 M 21.700521 44.10026 C 21.700521 44.39974 22.099767 44.60026 22.399784 44.5 C 22.948455 44.070312 23.248473 43.395833 23.199443 42.700521 C 23.199443 41.799479 22.899425 40.700521 22.200162 40.799479 " transform="matrix(3.346154,0,0,3,0,0)"/>
<path style=" stroke:none;fill-rule:nonzero;fill:rgb(99.607843%,74.901961%,6.27451%);fill-opacity:1;" d="M 74.285156 142.5 C 71.273438 139.800781 61.570312 134.398438 61.570312 124.800781 C 61.570312 120.300781 63.910156 116.101562 67.59375 116.101562 C 68.699219 116.101562 69.601562 116.90625 69.601562 117.898438 C 69.601562 118.800781 68.929688 119.398438 67.59375 119.398438 C 66.253906 119.398438 64.914062 123 64.914062 125.398438 C 64.914062 132.300781 71.609375 137.398438 74.285156 139.800781 C 76.625 137.398438 83.320312 132.300781 83.320312 125.398438 C 83.320312 123 82.316406 119.398438 80.640625 119.398438 C 79.71875 119.398438 78.96875 118.726562 78.96875 117.898438 C 78.957031 117.011719 79.664062 116.246094 80.640625 116.101562 C 84.324219 116.101562 86.664062 120.300781 86.664062 124.800781 C 86.664062 134.398438 77.296875 139.800781 74.285156 142.5 Z M 74.285156 120 C 72.277344 120 70.9375 119.101562 70.9375 117.898438 C 71.023438 117.183594 71.421875 116.523438 72.050781 116.074219 C 72.679688 115.621094 73.484375 115.414062 74.285156 115.5 C 75.898438 115.472656 77.308594 116.480469 77.628906 117.898438 C 77.628906 119.101562 75.957031 120 74.285156 120 Z M 74.285156 120 "/>
<path style="fill-rule:nonzero;fill:rgb(99.607843%,74.901961%,6.27451%);fill-opacity:1;stroke-width:0.4;stroke-linecap:butt;stroke-linejoin:miter;stroke:rgb(0%,0%,0%);stroke-opacity:1;stroke-miterlimit:4;" d="M 17.99991 41.799479 C 18.027927 40.83724 17.657866 39.904948 16.976114 39.223958 C 16.295528 38.542969 15.362787 38.171875 14.399695 38.200521 C 12.411638 38.200521 10.799479 39.811198 10.799479 41.799479 C 10.772629 42.763021 11.14269 43.695312 11.823276 44.376302 C 12.505029 45.057292 13.436602 45.428385 14.399695 45.39974 C 15.362787 45.428385 16.295528 45.057292 16.976114 44.376302 C 17.657866 43.695312 18.027927 42.763021 17.99991 41.799479 Z M 33.599677 41.799479 C 33.303161 40.014323 31.759878 38.705729 29.950431 38.705729 C 28.140984 38.705729 26.596534 40.014323 26.300018 41.799479 C 26.270833 42.78125 26.653736 43.729167 27.357669 44.414062 C 28.061602 45.098958 29.020025 45.457031 29.999461 45.39974 C 31.988685 45.39974 33.599677 43.78776 33.599677 41.799479 Z M 33.599677 41.799479 " transform="matrix(3.346154,0,0,3,0,0)"/>
<path style="fill-rule:nonzero;fill:rgb(19.607843%,34.117647%,13.72549%);fill-opacity:1;stroke-width:0.42;stroke-linecap:butt;stroke-linejoin:miter;stroke:rgb(0%,0%,0%);stroke-opacity:1;stroke-miterlimit:4;" d="M 14.399695 44.299479 C 14.126527 44.332031 13.852191 44.238281 13.657238 44.042969 C 13.462284 43.847656 13.367726 43.574219 13.400413 43.299479 C 13.371228 43.018229 13.464619 42.736979 13.654903 42.527344 C 13.845187 42.317708 14.11602 42.199219 14.399695 42.200521 C 15.007902 42.200521 15.500539 42.692708 15.500539 43.299479 C 15.501706 43.583333 15.382633 43.854167 15.172504 44.045573 C 14.962374 44.235677 14.682202 44.328125 14.399695 44.299479 Z M 14.399695 41.39974 C 14.11602 41.401042 13.845187 41.282552 13.654903 41.072917 C 13.464619 40.863281 13.371228 40.582031 13.400413 40.299479 C 13.367726 40.026042 13.462284 39.752604 13.657238 39.557292 C 13.852191 39.361979 14.126527 39.266927 14.399695 39.299479 C 14.682202 39.272135 14.962374 39.364583 15.172504 39.554688 C 15.382633 39.746094 15.501706 40.016927 15.500539 40.299479 C 15.500539 40.907552 15.007902 41.39974 14.399695 41.39974 Z M 14.399695 41.39974 " transform="matrix(3.346154,0,0,3,0,0)"/>
<path style="fill-rule:nonzero;fill:rgb(19.607843%,34.117647%,13.72549%);fill-opacity:1;stroke-width:0.42;stroke-linecap:butt;stroke-linejoin:miter;stroke:rgb(0%,0%,0%);stroke-opacity:1;stroke-miterlimit:4;" d="M 11.900323 41.799479 C 11.897989 41.229167 12.332256 40.751302 12.899605 40.700521 C 13.507812 40.700521 14.000449 41.192708 14.000449 41.799479 C 14.000449 42.407552 13.507812 42.89974 12.899605 42.89974 C 12.332256 42.847656 11.897989 42.371094 11.900323 41.799479 Z M 14.800108 41.799479 C 14.846803 41.213542 15.31259 40.747396 15.899784 40.700521 C 16.507992 40.700521 16.999461 41.192708 16.999461 41.799479 C 16.999461 42.407552 16.507992 42.89974 15.899784 42.89974 C 15.292744 42.89974 14.800108 42.407552 14.800108 41.799479 Z M 14.800108 41.799479 " transform="matrix(3.346154,0,0,3,0,0)"/>
<path style="fill-rule:nonzero;fill:rgb(19.607843%,34.117647%,13.72549%);fill-opacity:1;stroke-width:0.3;stroke-linecap:butt;stroke-linejoin:miter;stroke:rgb(0%,0%,0%);stroke-opacity:1;stroke-miterlimit:4;" d="M 15.500539 41.799479 C 15.500539 41.192708 15.007902 40.700521 14.399695 40.700521 C 13.799659 40.799479 13.300018 41.200521 13.400413 41.799479 C 13.371228 42.082031 13.464619 42.363281 13.654903 42.572917 C 13.845187 42.782552 14.11602 42.901042 14.399695 42.89974 C 15.007902 42.89974 15.500539 42.407552 15.500539 41.799479 Z M 15.500539 41.799479 " transform="matrix(3.346154,0,0,3,0,0)"/>
<path style="fill-rule:nonzero;fill:rgb(19.607843%,34.117647%,13.72549%);fill-opacity:1;stroke-width:0.42;stroke-linecap:butt;stroke-linejoin:miter;stroke:rgb(0%,0%,0%);stroke-opacity:1;stroke-miterlimit:4;" d="M 29.999461 44.299479 C 29.718121 44.328125 29.436782 44.235677 29.22782 44.045573 C 29.01769 43.854167 28.898617 43.583333 28.899784 43.299479 C 28.89745 42.729167 29.331717 42.251302 29.900233 42.200521 C 30.507274 42.200521 30.99991 42.692708 30.99991 43.299479 C 31.032597 43.574219 30.938039 43.847656 30.743085 44.042969 C 30.548132 44.238281 30.273797 44.332031 29.999461 44.299479 Z M 29.999461 41.39974 C 29.392421 41.39974 28.899784 40.907552 28.899784 40.299479 C 28.94648 39.768229 29.367906 39.346354 29.900233 39.299479 C 30.34384 39.139323 30.841146 39.28125 31.135327 39.651042 C 31.429508 40.020833 31.454023 40.53776 31.196031 40.933594 C 30.939206 41.329427 30.457076 41.516927 29.999461 41.39974 Z M 29.999461 41.39974 " transform="matrix(3.346154,0,0,3,0,0)"/>
<path style="fill-rule:nonzero;fill:rgb(19.607843%,34.117647%,13.72549%);fill-opacity:1;stroke-width:0.42;stroke-linecap:butt;stroke-linejoin:miter;stroke:rgb(0%,0%,0%);stroke-opacity:1;stroke-miterlimit:4;" d="M 27.399695 41.799479 C 27.447557 41.213542 27.913344 40.747396 28.500539 40.700521 C 29.107579 40.700521 29.600216 41.192708 29.600216 41.799479 C 29.600216 42.407552 29.107579 42.89974 28.500539 42.89974 C 27.892331 42.89974 27.399695 42.407552 27.399695 41.799479 Z M 30.399874 41.799479 C 30.39754 41.229167 30.831807 40.751302 31.400323 40.700521 C 32.007364 40.700521 32.5 41.192708 32.5 41.799479 C 32.5 42.407552 32.007364 42.89974 31.400323 42.89974 C 30.831807 42.847656 30.39754 42.371094 30.399874 41.799479 Z M 30.399874 41.799479 " transform="matrix(3.346154,0,0,3,0,0)"/>
<path style="fill-rule:nonzero;fill:rgb(19.607843%,34.117647%,13.72549%);fill-opacity:1;stroke-width:0.3;stroke-linecap:butt;stroke-linejoin:miter;stroke:rgb(0%,0%,0%);stroke-opacity:1;stroke-miterlimit:4;" d="M 30.99991 41.799479 C 30.99991 41.192708 30.507274 40.700521 29.900233 40.700521 C 29.35273 40.791667 28.938308 41.246094 28.899784 41.799479 C 28.899784 42.407552 29.392421 42.89974 29.999461 42.89974 C 30.283136 42.901042 30.553969 42.782552 30.74542 42.572917 C 30.935704 42.363281 31.027927 42.082031 30.99991 41.799479 Z M 30.99991 41.799479 " transform="matrix(3.346154,0,0,3,0,0)"/>
<path style=" stroke:none;fill-rule:nonzero;fill:rgb(99.607843%,74.901961%,6.27451%);fill-opacity:1;" d="M 86.332031 83.101562 C 86.332031 65.371094 80.9375 51 74.285156 51 C 67.632812 51 62.238281 65.371094 62.238281 83.101562 C 62.238281 100.828125 67.632812 115.199219 74.285156 115.199219 C 80.9375 115.199219 86.332031 100.828125 86.332031 83.101562 Z M 86.332031 83.101562 "/>
<path style=" stroke:none;fill-rule:nonzero;fill:rgb(81.568627%,60.784314%,2.745098%);fill-opacity:1;" d="M 74.285156 51.300781 C 80.976562 51.300781 86.332031 65.699219 86.332031 83.101562 C 86.332031 100.5 80.976562 115.199219 74.285156 115.199219 "/>
<path style="fill:none;stroke-width:0.4;stroke-linecap:round;stroke-linejoin:round;stroke:rgb(0%,0%,0%);stroke-opacity:1;stroke-miterlimit:4;" d="M 25.800377 27.700521 C 25.800377 21.790365 24.188218 17 22.200162 17 C 20.212105 17 18.599946 21.790365 18.599946 27.700521 C 18.599946 33.609375 20.212105 38.39974 22.200162 38.39974 C 24.188218 38.39974 25.800377 33.609375 25.800377 27.700521 Z M 25.800377 27.700521 " transform="matrix(3.346154,0,0,3,0,0)"/>
<path style="fill-rule:nonzero;fill:rgb(99.607843%,74.901961%,6.27451%);fill-opacity:1;stroke-width:0.3;stroke-linecap:round;stroke-linejoin:round;stroke:rgb(0%,0%,0%);stroke-opacity:1;stroke-miterlimit:4;" d="M 19.199811 21.100172 L 26.60006 21.100643 C 26.875926 21.099632 27.100277 21.309883 27.100046 21.569301 C 27.100735 21.829642 26.876825 22.039904 26.600039 22.039992 L 19.199791 22.039522 C 18.923924 22.040533 18.7004 21.829458 18.700631 21.57004 C 18.699942 21.309699 18.923852 21.099437 19.199811 21.100172 Z M 19.199811 21.100172 " transform="matrix(2.370214,2.117615,-2.361955,2.12502,72.94718,-29.40233)"/>
<path style="fill-rule:nonzero;fill:rgb(99.607843%,74.901961%,6.27451%);fill-opacity:1;stroke-width:0.3;stroke-linecap:round;stroke-linejoin:round;stroke:rgb(0%,0%,0%);stroke-opacity:1;stroke-miterlimit:4;" d="M 17.800475 23.999837 L 26.99983 23.999732 C 27.275789 24.000468 27.50014 24.210719 27.499909 24.470137 C 27.499679 24.729556 27.275769 24.939818 27.000729 24.940005 L 17.799628 24.94001 C 17.523669 24.939275 17.300238 24.729946 17.299549 24.469606 C 17.29978 24.210187 17.523689 23.999925 17.800475 23.999837 Z M 17.800475 23.999837 " transform="matrix(2.370214,2.117615,-2.361955,2.12502,79.640126,-26.104825)"/>
<path style="fill-rule:nonzero;fill:rgb(100%,0%,0%);fill-opacity:1;stroke-width:0.3;stroke-linecap:round;stroke-linejoin:round;stroke:rgb(0%,0%,0%);stroke-opacity:1;stroke-miterlimit:4;" d="M 20.400054 20.200521 C 20.400054 20.53125 20.131555 20.799479 19.800018 20.799479 C 19.468481 20.799479 19.199982 20.53125 19.199982 20.200521 C 19.199982 19.86849 19.468481 19.60026 19.800018 19.60026 C 20.131555 19.60026 20.400054 19.86849 20.400054 20.200521 Z M 20.400054 20.200521 " transform="matrix(3.346154,0,0,3,0,0)"/>
<path style="fill-rule:nonzero;fill:rgb(100%,0%,0%);fill-opacity:1;stroke-width:0.3;stroke-linecap:round;stroke-linejoin:round;stroke:rgb(0%,0%,0%);stroke-opacity:1;stroke-miterlimit:4;" d="M 21.400503 21.10026 C 21.400503 21.43099 21.130837 21.700521 20.800467 21.700521 C 20.46893 21.700521 20.200431 21.43099 20.200431 21.10026 C 20.200431 20.768229 20.46893 20.5 20.800467 20.5 C 21.130837 20.5 21.400503 20.768229 21.400503 21.10026 Z M 21.400503 21.10026 " transform="matrix(3.346154,0,0,3,0,0)"/>
<path style="fill-rule:nonzero;fill:rgb(100%,0%,0%);fill-opacity:1;stroke-width:0.3;stroke-linecap:round;stroke-linejoin:round;stroke:rgb(0%,0%,0%);stroke-opacity:1;stroke-miterlimit:4;" d="M 22.300557 22.10026 C 22.300557 22.43099 22.030891 22.700521 21.700521 22.700521 C 21.368983 22.700521 21.100485 22.43099 21.100485 22.10026 C 21.100485 21.768229 21.368983 21.5 21.700521 21.5 C 22.030891 21.5 22.300557 21.768229 22.300557 22.10026 Z M 22.300557 22.10026 " transform="matrix(3.346154,0,0,3,0,0)"/>
<path style="fill-rule:nonzero;fill:rgb(100%,0%,0%);fill-opacity:1;stroke-width:0.3;stroke-linecap:round;stroke-linejoin:round;stroke:rgb(0%,0%,0%);stroke-opacity:1;stroke-miterlimit:4;" d="M 23.299838 23 C 23.299838 23.330729 23.03134 23.60026 22.699802 23.60026 C 22.368265 23.60026 22.099767 23.330729 22.099767 23 C 22.099767 22.669271 22.368265 22.39974 22.699802 22.39974 C 23.03134 22.39974 23.299838 22.669271 23.299838 23 Z M 23.299838 23 " transform="matrix(3.346154,0,0,3,0,0)"/>
<path style="fill-rule:nonzero;fill:rgb(100%,0%,0%);fill-opacity:1;stroke-width:0.3;stroke-linecap:round;stroke-linejoin:round;stroke:rgb(0%,0%,0%);stroke-opacity:1;stroke-miterlimit:4;" d="M 24.199892 24 C 24.199892 24.330729 23.931394 24.60026 23.599856 24.60026 C 23.268319 24.60026 22.99982 24.330729 22.99982 24 C 22.99982 23.669271 23.268319 23.39974 23.599856 23.39974 C 23.931394 23.39974 24.199892 23.669271 24.199892 24 Z M 24.199892 24 " transform="matrix(3.346154,0,0,3,0,0)"/>
<path style="fill-rule:nonzero;fill:rgb(100%,0%,0%);fill-opacity:1;stroke-width:0.3;stroke-linecap:round;stroke-linejoin:round;stroke:rgb(0%,0%,0%);stroke-opacity:1;stroke-miterlimit:4;" d="M 25.200341 24.89974 C 25.200341 25.231771 24.931843 25.5 24.600305 25.5 C 24.268768 25.5 24.000269 25.231771 24.000269 24.89974 C 24.000269 24.56901 24.268768 24.299479 24.600305 24.299479 C 24.931843 24.299479 25.200341 24.56901 25.200341 24.89974 Z M 25.200341 24.89974 " transform="matrix(3.346154,0,0,3,0,0)"/>
<path style="fill-rule:nonzero;fill:rgb(100%,0%,0%);fill-opacity:1;stroke-width:0.3;stroke-linecap:round;stroke-linejoin:round;stroke:rgb(0%,0%,0%);stroke-opacity:1;stroke-miterlimit:4;" d="M 26.100395 25.89974 C 26.100395 26.231771 25.831897 26.5 25.500359 26.5 C 25.168822 26.5 24.900323 26.231771 24.900323 25.89974 C 24.900323 25.56901 25.168822 25.299479 25.500359 25.299479 C 25.831897 25.299479 26.100395 25.56901 26.100395 25.89974 Z M 26.100395 25.89974 " transform="matrix(3.346154,0,0,3,0,0)"/>
<path style="fill-rule:nonzero;fill:rgb(99.607843%,74.901961%,6.27451%);fill-opacity:1;stroke-width:0.3;stroke-linecap:round;stroke-linejoin:round;stroke:rgb(0%,0%,0%);stroke-opacity:1;stroke-miterlimit:4;" d="M 17.500357 30.99968 L 25.899865 31.000688 C 26.175731 30.999678 26.400082 31.209928 26.399851 31.469347 C 26.40054 31.729688 26.17663 31.93995 25.899844 31.940038 L 17.49951 31.939854 C 17.22447 31.940041 17.00012 31.72979 17.00035 31.470372 C 16.999662 31.210031 17.223571 30.999769 17.500357 30.99968 Z M 17.500357 30.99968 " transform="matrix(-2.370214,-2.117615,2.361955,-2.12502,49.529278,207.348002)"/>
<path style="fill-rule:nonzero;fill:rgb(99.607843%,74.901961%,6.27451%);fill-opacity:1;stroke-width:0.3;stroke-linecap:round;stroke-linejoin:round;stroke:rgb(0%,0%,0%);stroke-opacity:1;stroke-miterlimit:4;" d="M 17.500205 28.099842 L 26.699561 28.099738 C 26.976346 28.099649 27.19987 28.310724 27.19964 28.570143 C 27.199409 28.829561 26.975499 29.039823 26.70046 29.04001 L 17.499358 29.040016 C 17.224319 29.040202 16.999968 28.829952 17.000199 28.570533 C 16.99951 28.310192 17.22342 28.09993 17.500205 28.099842 Z M 17.500205 28.099842 " transform="matrix(-2.370214,-2.117615,2.361955,-2.12502,58.8743,193.169842)"/>
<path style="fill-rule:nonzero;fill:rgb(100%,0%,0%);fill-opacity:1;stroke-width:0.3;stroke-linecap:round;stroke-linejoin:round;stroke:rgb(0%,0%,0%);stroke-opacity:1;stroke-miterlimit:4;" d="M 25.299569 32.89974 C 25.299569 33.231771 25.03107 33.5 24.699533 33.5 C 24.369163 33.5 24.099497 33.231771 24.099497 32.89974 C 24.099497 32.56901 24.369163 32.299479 24.699533 32.299479 C 25.03107 32.299479 25.299569 32.56901 25.299569 32.89974 Z M 25.299569 32.89974 " transform="matrix(3.346154,0,0,3,0,0)"/>
<path style="fill-rule:nonzero;fill:rgb(100%,0%,0%);fill-opacity:1;stroke-width:0.3;stroke-linecap:round;stroke-linejoin:round;stroke:rgb(0%,0%,0%);stroke-opacity:1;stroke-miterlimit:4;" d="M 24.300287 31.89974 C 24.300287 32.231771 24.031789 32.5 23.700251 32.5 C 23.368714 32.5 23.100216 32.231771 23.100216 31.89974 C 23.100216 31.56901 23.368714 31.299479 23.700251 31.299479 C 24.031789 31.299479 24.300287 31.56901 24.300287 31.89974 Z M 24.300287 31.89974 " transform="matrix(3.346154,0,0,3,0,0)"/>
<path style="fill-rule:nonzero;fill:rgb(100%,0%,0%);fill-opacity:1;stroke-width:0.3;stroke-linecap:round;stroke-linejoin:round;stroke:rgb(0%,0%,0%);stroke-opacity:1;stroke-miterlimit:4;" d="M 23.400233 31 C 23.400233 31.330729 23.131735 31.60026 22.800198 31.60026 C 22.46866 31.60026 22.200162 31.330729 22.200162 31 C 22.200162 30.669271 22.46866 30.39974 22.800198 30.39974 C 23.131735 30.39974 23.400233 30.669271 23.400233 31 Z M 23.400233 31 " transform="matrix(3.346154,0,0,3,0,0)"/>
<path style="fill-rule:nonzero;fill:rgb(100%,0%,0%);fill-opacity:1;stroke-width:0.3;stroke-linecap:round;stroke-linejoin:round;stroke:rgb(0%,0%,0%);stroke-opacity:1;stroke-miterlimit:4;" d="M 22.399784 30 C 22.399784 30.330729 22.131286 30.60026 21.799749 30.60026 C 21.468211 30.60026 21.199713 30.330729 21.199713 30 C 21.199713 29.669271 21.468211 29.39974 21.799749 29.39974 C 22.131286 29.39974 22.399784 29.669271 22.399784 30 Z M 22.399784 30 " transform="matrix(3.346154,0,0,3,0,0)"/>
<path style="fill-rule:nonzero;fill:rgb(100%,0%,0%);fill-opacity:1;stroke-width:0.3;stroke-linecap:round;stroke-linejoin:round;stroke:rgb(0%,0%,0%);stroke-opacity:1;stroke-miterlimit:4;" d="M 21.400503 29.10026 C 21.400503 29.43099 21.130837 29.700521 20.800467 29.700521 C 20.46893 29.700521 20.200431 29.43099 20.200431 29.10026 C 20.200431 28.768229 20.46893 28.5 20.800467 28.5 C 21.130837 28.5 21.400503 28.768229 21.400503 29.10026 Z M 21.400503 29.10026 " transform="matrix(3.346154,0,0,3,0,0)"/>
<path style="fill-rule:nonzero;fill:rgb(100%,0%,0%);fill-opacity:1;stroke-width:0.3;stroke-linecap:round;stroke-linejoin:round;stroke:rgb(0%,0%,0%);stroke-opacity:1;stroke-miterlimit:4;" d="M 20.500449 28.10026 C 20.500449 28.43099 20.23195 28.700521 19.900413 28.700521 C 19.568876 28.700521 19.300377 28.43099 19.300377 28.10026 C 19.300377 27.768229 19.568876 27.5 19.900413 27.5 C 20.23195 27.5 20.500449 27.768229 20.500449 28.10026 Z M 20.500449 28.10026 " transform="matrix(3.346154,0,0,3,0,0)"/>
<path style="fill-rule:nonzero;fill:rgb(100%,0%,0%);fill-opacity:1;stroke-width:0.3;stroke-linecap:round;stroke-linejoin:round;stroke:rgb(0%,0%,0%);stroke-opacity:1;stroke-miterlimit:4;" d="M 19.5 27.200521 C 19.5 27.53125 19.231501 27.799479 18.899964 27.799479 C 18.568427 27.799479 18.299928 27.53125 18.299928 27.200521 C 18.299928 26.86849 18.568427 26.60026 18.899964 26.60026 C 19.231501 26.60026 19.5 26.86849 19.5 27.200521 Z M 19.5 27.200521 " transform="matrix(3.346154,0,0,3,0,0)"/>
<path style="fill-rule:nonzero;fill:rgb(0%,39.607843%,71.764706%);fill-opacity:1;stroke-width:0.4;stroke-linecap:round;stroke-linejoin:round;stroke:rgb(0%,0%,0%);stroke-opacity:1;stroke-miterlimit:4;" d="M 23.799479 16.700521 C 23.799479 17.583333 23.083872 18.299479 22.200162 18.299479 C 21.316451 18.299479 20.599677 17.583333 20.599677 16.700521 C 20.599677 15.816406 21.316451 15.10026 22.200162 15.10026 C 23.083872 15.10026 23.799479 15.816406 23.799479 16.700521 Z M 23.799479 16.700521 " transform="matrix(3.346154,0,0,3,0,0)"/>
<path style="fill-rule:nonzero;fill:rgb(100%,0%,0%);fill-opacity:1;stroke-width:0.4;stroke-linecap:round;stroke-linejoin:round;stroke:rgb(0%,0%,0%);stroke-opacity:1;stroke-miterlimit:4;" d="M 23.700251 13 C 23.700251 12.171875 23.029005 11.5 22.200162 11.5 C 21.371318 11.5 20.700072 12.171875 20.700072 13 C 20.700072 13.828125 21.371318 14.5 22.200162 14.5 C 23.029005 14.5 23.700251 13.828125 23.700251 13 Z M 23.700251 13 " transform="matrix(3.346154,0,0,3,0,0)"/>
<path style="fill-rule:nonzero;fill:rgb(100%,0%,0%);fill-opacity:1;stroke-width:0.4;stroke-linecap:round;stroke-linejoin:round;stroke:rgb(0%,0%,0%);stroke-opacity:1;stroke-miterlimit:4;" d="M 21.600126 14.799479 C 21.600126 13.89974 21.100485 13.200521 20.599677 13.299479 C 20.100036 13.39974 19.699623 14 19.699623 14.799479 C 19.699623 15.60026 20.200431 16.39974 20.700072 16.299479 C 21.199713 16.200521 21.600126 15.60026 21.600126 14.799479 Z M 24.699533 14.799479 C 24.699533 13.89974 24.199892 13.200521 23.700251 13.200521 C 23.199443 13.200521 22.800198 13.89974 22.800198 14.799479 C 22.800198 15.700521 23.199443 16.299479 23.700251 16.299479 C 24.199892 16.299479 24.699533 15.60026 24.699533 14.799479 Z M 24.699533 14.799479 " transform="matrix(3.346154,0,0,3,0,0)"/>
<path style="fill:none;stroke-width:0.4;stroke-linecap:round;stroke-linejoin:round;stroke:rgb(0%,0%,0%);stroke-opacity:1;stroke-miterlimit:4;" d="M 21.900144 12.10026 C 22.181483 12.041667 22.47333 12.106771 22.703305 12.278646 C 22.933279 12.451823 23.076868 12.713542 23.100216 13 M 23.799479 15.700521 C 24.199892 15.166667 24.199892 14.433594 23.799479 13.89974 " transform="matrix(3.346154,0,0,3,0,0)"/>
<path style="fill-rule:nonzero;fill:rgb(59.607843%,3.137255%,1.960784%);fill-opacity:1;stroke-width:0.4;stroke-linecap:round;stroke-linejoin:round;stroke:rgb(0%,0%,0%);stroke-opacity:1;stroke-miterlimit:4;" d="M 23.100216 14.5 C 23.100216 13.60026 22.699802 12.89974 22.200162 12.89974 C 21.700521 12.89974 21.199713 13.60026 21.199713 14.5 C 21.199713 15.39974 21.700521 16 22.200162 16 C 22.699802 16 23.100216 15.299479 23.100216 14.5 Z M 23.100216 14.5 " transform="matrix(3.346154,0,0,3,0,0)"/>
<path style="fill:none;stroke-width:0.4;stroke-linecap:round;stroke-linejoin:round;stroke:rgb(0%,0%,0%);stroke-opacity:1;stroke-miterlimit:4;" d="M 22.300557 15.39974 C 22.601742 14.838542 22.601742 14.161458 22.300557 13.60026 " transform="matrix(3.346154,0,0,3,0,0)"/>
<path style="fill-rule:nonzero;fill:rgb(99.607843%,74.901961%,6.27451%);fill-opacity:1;stroke-width:0.4;stroke-linecap:round;stroke-linejoin:round;stroke:rgb(0%,0%,0%);stroke-opacity:1;stroke-miterlimit:4;" d="M 22.200162 37.200521 C 20.914871 36.21224 19.319055 35.714844 17.699892 35.799479 C 15.872935 35.8125 14.099677 35.174479 12.699982 34 C 12.699982 34 13.600036 37.60026 15.500539 38.10026 C 17.399874 38.60026 17.99991 37.60026 17.99991 37.60026 C 17.99991 37.60026 18.199533 38.700521 20.200431 38.700521 C 22.200162 38.700521 22.200162 37.200521 22.200162 37.200521 Z M 22.200162 37.200521 C 23.485453 36.21224 25.081268 35.714844 26.700431 35.799479 C 28.527389 35.8125 30.299479 35.174479 31.700341 34 C 31.700341 34 30.800287 37.60026 28.800557 38.10026 C 26.799659 38.60026 26.300018 37.60026 26.300018 37.60026 C 26.300018 37.60026 26.100395 38.700521 24.199892 38.700521 C 22.300557 38.700521 22.200162 37.200521 22.200162 37.200521 Z M 22.200162 37.200521 " transform="matrix(3.346154,0,0,3,0,0)"/>
<path style=" stroke:none;fill-rule:nonzero;fill:rgb(0%,39.607843%,71.764706%);fill-opacity:1;" d="M 195.414062 373.5 L 186.714844 385.800781 L 178.015625 373.5 L 174.667969 132.601562 L 198.761719 132.601562 Z M 195.414062 373.5 "/>
<path style=" stroke:none;fill-rule:nonzero;fill:rgb(0%,30.196078%,63.137255%);fill-opacity:1;" d="M 195.414062 373.5 L 186.714844 385.800781 L 186.378906 132.601562 L 198.761719 132.601562 Z M 195.414062 373.5 "/>
<path style="fill:none;stroke-width:0.4;stroke-linecap:round;stroke-linejoin:round;stroke:rgb(0%,0%,0%);stroke-opacity:1;stroke-miterlimit:4;" d="M 58.399605 124.5 L 55.799838 128.60026 L 53.200072 124.5 L 52.199623 44.200521 L 59.400054 44.200521 Z M 58.399605 124.5 " transform="matrix(3.346154,0,0,3,0,0)"/>
<path style="fill:none;stroke-width:0.4;stroke-linecap:round;stroke-linejoin:round;stroke:rgb(0%,0%,0%);stroke-opacity:1;stroke-miterlimit:4;" d="M 55.799838 128.60026 L 55.799838 44.299479 " transform="matrix(3.346154,0,0,3,0,0)"/>
<path style=" stroke:none;fill-rule:nonzero;fill:rgb(0%,0%,0%);fill-opacity:1;" d="M 186.714844 146.699219 C 182.367188 141 170.320312 136.5 170.320312 124.800781 C 170.320312 118.800781 173.332031 114 178.015625 114 C 182.699219 114 182.03125 112.5 186.714844 112.5 C 191.398438 112.5 191.398438 114 195.082031 114 C 198.761719 114 202.777344 118.800781 202.777344 124.800781 C 202.777344 136.5 190.730469 141 186.714844 146.699219 Z M 186.714844 146.699219 "/>
<path style="fill-rule:nonzero;fill:rgb(100%,0%,0%);fill-opacity:1;stroke-width:0.55;stroke-linecap:round;stroke-linejoin:round;stroke:rgb(0%,0%,0%);stroke-opacity:1;stroke-miterlimit:4;" d="M 57.499551 42.700521 C 57.499551 41.10026 56.699892 39.89974 55.799838 39.89974 C 54.899784 39.89974 53.999731 41.10026 53.999731 42.700521 C 53.999731 44.200521 54.800557 45.5 55.799838 45.5 C 56.800287 45.5 57.499551 44.200521 57.499551 42.700521 Z M 57.499551 42.700521 " transform="matrix(3.346154,0,0,3,0,0)"/>
<path style="fill:none;stroke-width:0.3;stroke-linecap:round;stroke-linejoin:round;stroke:rgb(0%,0%,0%);stroke-opacity:1;stroke-miterlimit:4;" d="M 55.600216 43.700521 C 56.299479 43.89974 56.200251 41.299479 55.600216 41.5 M 55.300198 44.10026 C 55.300198 44.39974 55.600216 44.60026 55.999461 44.5 C 56.527119 44.059896 56.790948 43.380208 56.699892 42.700521 C 56.699892 41.799479 56.500269 40.700521 55.799838 40.799479 " transform="matrix(3.346154,0,0,3,0,0)"/>
<path style=" stroke:none;fill-rule:nonzero;fill:rgb(99.607843%,74.901961%,6.27451%);fill-opacity:1;" d="M 186.714844 142.5 C 183.703125 139.800781 174 134.398438 174 124.800781 C 174 120.300781 176.34375 116.101562 180.023438 116.101562 C 181.132812 116.101562 182.03125 116.90625 182.03125 117.898438 C 181.867188 118.777344 181.011719 119.414062 180.023438 119.398438 C 178.683594 119.398438 177.347656 123 177.347656 125.398438 C 177.347656 132.300781 184.039062 137.398438 186.714844 139.800781 C 189.058594 137.398438 195.75 132.300781 195.75 125.398438 C 195.75 123 194.746094 119.398438 193.074219 119.398438 C 192.082031 119.414062 191.230469 118.777344 191.066406 117.898438 C 191.066406 116.90625 191.964844 116.101562 193.074219 116.101562 C 196.753906 116.101562 199.097656 120.300781 199.097656 124.800781 C 199.097656 134.398438 189.390625 139.800781 186.714844 142.5 Z M 186.714844 120 C 184.707031 120 183.371094 119.101562 183.371094 117.898438 C 183.453125 117.183594 183.855469 116.523438 184.484375 116.074219 C 185.113281 115.621094 185.914062 115.414062 186.714844 115.5 C 188.332031 115.472656 189.738281 116.480469 190.0625 117.898438 C 190.0625 119.101562 188.386719 120 186.714844 120 Z M 186.714844 120 "/>
<path style="fill-rule:nonzero;fill:rgb(99.607843%,74.901961%,6.27451%);fill-opacity:1;stroke-width:0.4;stroke-linecap:butt;stroke-linejoin:miter;stroke:rgb(0%,0%,0%);stroke-opacity:1;stroke-miterlimit:4;" d="M 51.599587 41.799479 C 51.629939 40.81901 51.245869 39.869792 50.541936 39.186198 C 49.83917 38.501302 48.87958 38.143229 47.900144 38.200521 C 45.912087 38.200521 44.299928 39.811198 44.299928 41.799479 C 44.596444 43.584635 46.140894 44.893229 47.950341 44.893229 C 49.759788 44.893229 51.303071 43.584635 51.599587 41.799479 Z M 67.200521 41.799479 C 67.145654 39.795573 65.505478 38.199219 63.49991 38.200521 C 61.511853 38.200521 59.899695 39.811198 59.899695 41.799479 C 59.87051 42.78125 60.25458 43.729167 60.957346 44.414062 C 61.661279 45.098958 62.619702 45.457031 63.600305 45.39974 C 65.588362 45.39974 67.200521 43.78776 67.200521 41.799479 Z M 67.200521 41.799479 " transform="matrix(3.346154,0,0,3,0,0)"/>
<path style="fill-rule:nonzero;fill:rgb(19.607843%,34.117647%,13.72549%);fill-opacity:1;stroke-width:0.42;stroke-linecap:butt;stroke-linejoin:miter;stroke:rgb(0%,0%,0%);stroke-opacity:1;stroke-miterlimit:4;" d="M 48.000539 44.299479 C 47.718032 44.328125 47.436692 44.235677 47.22773 44.045573 C 47.017601 43.854167 46.898527 43.583333 46.899695 43.299479 C 46.899695 42.692708 47.392331 42.200521 48.000539 42.200521 C 48.283046 42.199219 48.553879 42.317708 48.74533 42.527344 C 48.935614 42.736979 49.027838 43.018229 48.99982 43.299479 C 49.032507 43.574219 48.937949 43.847656 48.742996 44.042969 C 48.548042 44.238281 48.273707 44.332031 48.000539 44.299479 Z M 48.000539 41.39974 C 47.392331 41.39974 46.899695 40.907552 46.899695 40.299479 C 46.952227 39.731771 47.429687 39.298177 48.000539 39.299479 C 48.273707 39.266927 48.548042 39.361979 48.742996 39.557292 C 48.937949 39.752604 49.032507 40.026042 48.99982 40.299479 C 49.027838 40.582031 48.935614 40.863281 48.74533 41.072917 C 48.553879 41.282552 48.283046 41.401042 48.000539 41.39974 Z M 48.000539 41.39974 " transform="matrix(3.346154,0,0,3,0,0)"/>
<path style="fill-rule:nonzero;fill:rgb(19.607843%,34.117647%,13.72549%);fill-opacity:1;stroke-width:0.42;stroke-linecap:butt;stroke-linejoin:miter;stroke:rgb(0%,0%,0%);stroke-opacity:1;stroke-miterlimit:4;" d="M 45.399605 41.799479 C 45.447468 41.213542 45.913254 40.747396 46.500449 40.700521 C 47.107489 40.700521 47.600126 41.192708 47.600126 41.799479 C 47.600126 42.407552 47.107489 42.89974 46.500449 42.89974 C 45.913254 42.852865 45.447468 42.386719 45.399605 41.799479 Z M 48.399784 41.799479 C 48.438308 41.246094 48.85273 40.791667 49.400233 40.700521 C 50.007274 40.700521 50.49991 41.192708 50.49991 41.799479 C 50.527927 42.082031 50.435704 42.363281 50.24542 42.572917 C 50.053969 42.782552 49.783136 42.901042 49.499461 42.89974 C 48.892421 42.89974 48.399784 42.407552 48.399784 41.799479 Z M 48.399784 41.799479 " transform="matrix(3.346154,0,0,3,0,0)"/>
<path style="fill-rule:nonzero;fill:rgb(19.607843%,34.117647%,13.72549%);fill-opacity:1;stroke-width:0.3;stroke-linecap:butt;stroke-linejoin:miter;stroke:rgb(0%,0%,0%);stroke-opacity:1;stroke-miterlimit:4;" d="M 48.99982 41.799479 C 49.027838 41.518229 48.935614 41.236979 48.74533 41.027344 C 48.553879 40.817708 48.283046 40.699219 48.000539 40.700521 C 47.413344 40.747396 46.947557 41.213542 46.899695 41.799479 C 46.899695 42.407552 47.392331 42.89974 48.000539 42.89974 C 48.283046 42.901042 48.553879 42.782552 48.74533 42.572917 C 48.935614 42.363281 49.027838 42.082031 48.99982 41.799479 Z M 48.99982 41.799479 " transform="matrix(3.346154,0,0,3,0,0)"/>
<path style="fill-rule:nonzero;fill:rgb(19.607843%,34.117647%,13.72549%);fill-opacity:1;stroke-width:0.42;stroke-linecap:butt;stroke-linejoin:miter;stroke:rgb(0%,0%,0%);stroke-opacity:1;stroke-miterlimit:4;" d="M 63.49991 44.299479 C 62.947737 44.299479 62.499461 43.852865 62.499461 43.299479 C 62.471444 43.018229 62.564835 42.736979 62.755119 42.527344 C 62.945402 42.317708 63.216236 42.199219 63.49991 42.200521 C 64.10695 42.200521 64.599587 42.692708 64.599587 43.299479 C 64.601922 43.583333 64.482848 43.854167 64.272719 44.045573 C 64.06259 44.235677 63.782417 44.328125 63.49991 44.299479 Z M 63.49991 41.39974 C 62.931394 41.347656 62.497126 40.871094 62.499461 40.299479 C 62.499461 39.747396 62.947737 39.299479 63.49991 39.299479 C 63.782417 39.272135 64.06259 39.364583 64.272719 39.554688 C 64.482848 39.746094 64.601922 40.016927 64.599587 40.299479 C 64.599587 40.907552 64.10695 41.39974 63.49991 41.39974 Z M 63.49991 41.39974 " transform="matrix(3.346154,0,0,3,0,0)"/>
<path style="fill-rule:nonzero;fill:rgb(19.607843%,34.117647%,13.72549%);fill-opacity:1;stroke-width:0.42;stroke-linecap:butt;stroke-linejoin:miter;stroke:rgb(0%,0%,0%);stroke-opacity:1;stroke-miterlimit:4;" d="M 61.000539 41.799479 C 61.039062 41.246094 61.452317 40.791667 61.99982 40.700521 C 62.608028 40.700521 63.099497 41.192708 63.099497 41.799479 C 63.101832 42.371094 62.668732 42.847656 62.100216 42.89974 C 61.492008 42.89974 61.000539 42.407552 61.000539 41.799479 Z M 63.900323 41.799479 C 63.947019 41.213542 64.412805 40.747396 65 40.700521 C 65.60704 40.700521 66.099677 41.192708 66.099677 41.799479 C 66.099677 42.407552 65.60704 42.89974 65 42.89974 C 64.412805 42.852865 63.947019 42.386719 63.900323 41.799479 Z M 63.900323 41.799479 " transform="matrix(3.346154,0,0,3,0,0)"/>
<path style="fill-rule:nonzero;fill:rgb(19.607843%,34.117647%,13.72549%);fill-opacity:1;stroke-width:0.3;stroke-linecap:butt;stroke-linejoin:miter;stroke:rgb(0%,0%,0%);stroke-opacity:1;stroke-miterlimit:4;" d="M 64.599587 41.799479 C 64.599587 41.192708 64.10695 40.700521 63.49991 40.700521 C 62.931394 40.751302 62.497126 41.229167 62.499461 41.799479 C 62.497126 42.371094 62.931394 42.847656 63.49991 42.89974 C 64.10695 42.89974 64.599587 42.407552 64.599587 41.799479 Z M 64.599587 41.799479 " transform="matrix(3.346154,0,0,3,0,0)"/>
<path style=" stroke:none;fill-rule:nonzero;fill:rgb(99.607843%,74.901961%,6.27451%);fill-opacity:1;" d="M 198.425781 83.101562 C 198.425781 65.371094 193.035156 51 186.378906 51 C 179.726562 51 174.335938 65.371094 174.335938 83.101562 C 174.335938 100.828125 179.726562 115.199219 186.378906 115.199219 C 193.035156 115.199219 198.425781 100.828125 198.425781 83.101562 Z M 198.425781 83.101562 "/>
<path style=" stroke:none;fill-rule:nonzero;fill:rgb(81.568627%,60.784314%,2.745098%);fill-opacity:1;" d="M 186.378906 51.300781 C 193.074219 51.300781 198.761719 65.699219 198.761719 83.101562 C 198.761719 100.5 193.074219 115.199219 186.378906 115.199219 "/>
<path style="fill:none;stroke-width:0.4;stroke-linecap:round;stroke-linejoin:round;stroke:rgb(0%,0%,0%);stroke-opacity:1;stroke-miterlimit:4;" d="M 59.299659 27.700521 C 59.299659 21.790365 57.688667 17 55.699443 17 C 53.711386 17 52.100395 21.790365 52.100395 27.700521 C 52.100395 33.609375 53.711386 38.39974 55.699443 38.39974 C 57.688667 38.39974 59.299659 33.609375 59.299659 27.700521 Z M 59.299659 27.700521 " transform="matrix(3.346154,0,0,3,0,0)"/>
<path style="fill-rule:nonzero;fill:rgb(99.607843%,74.901961%,6.27451%);fill-opacity:1;stroke-width:0.3;stroke-linecap:round;stroke-linejoin:round;stroke:rgb(0%,0%,0%);stroke-opacity:1;stroke-miterlimit:4;" d="M 52.700219 21.100002 L 60.099549 21.09955 C 60.376335 21.099462 60.599858 21.310536 60.599628 21.569955 C 60.599397 21.829373 60.376407 22.040558 60.100448 22.039822 L 52.699372 22.040176 C 52.424333 22.040363 52.199982 21.830112 52.200213 21.570693 C 52.199524 21.310352 52.423434 21.10009 52.700219 21.100002 Z M 52.700219 21.100002 " transform="matrix(2.370214,2.117615,-2.361955,2.12502,105.742857,-100.503082)"/>
<path style="fill-rule:nonzero;fill:rgb(99.607843%,74.901961%,6.27451%);fill-opacity:1;stroke-width:0.3;stroke-linecap:round;stroke-linejoin:round;stroke:rgb(0%,0%,0%);stroke-opacity:1;stroke-miterlimit:4;" d="M 51.399964 23.999779 L 60.600238 24.000597 C 60.876105 23.999587 61.099629 24.210661 61.099398 24.47008 C 61.099168 24.729498 60.876177 24.940683 60.600218 24.939947 L 51.400863 24.940051 C 51.124077 24.94014 50.899727 24.729889 50.899957 24.470471 C 50.900188 24.211052 51.123178 23.999868 51.399964 23.999779 Z M 51.399964 23.999779 " transform="matrix(2.370214,2.117615,-2.361955,2.12502,112.103571,-97.204694)"/>
<path style="fill-rule:nonzero;fill:rgb(100%,0%,0%);fill-opacity:1;stroke-width:0.3;stroke-linecap:round;stroke-linejoin:round;stroke:rgb(0%,0%,0%);stroke-opacity:1;stroke-miterlimit:4;" d="M 53.999731 20.200521 C 53.999731 20.53125 53.731232 20.799479 53.399695 20.799479 C 53.068157 20.799479 52.799659 20.53125 52.799659 20.200521 C 52.799659 19.86849 53.068157 19.60026 53.399695 19.60026 C 53.731232 19.60026 53.999731 19.86849 53.999731 20.200521 Z M 53.999731 20.200521 " transform="matrix(3.346154,0,0,3,0,0)"/>
<path style="fill-rule:nonzero;fill:rgb(100%,0%,0%);fill-opacity:1;stroke-width:0.3;stroke-linecap:round;stroke-linejoin:round;stroke:rgb(0%,0%,0%);stroke-opacity:1;stroke-miterlimit:4;" d="M 54.899784 21.10026 C 54.899784 21.43099 54.631286 21.700521 54.299749 21.700521 C 53.968211 21.700521 53.699713 21.43099 53.699713 21.10026 C 53.699713 20.768229 53.968211 20.5 54.299749 20.5 C 54.631286 20.5 54.899784 20.768229 54.899784 21.10026 Z M 54.899784 21.10026 " transform="matrix(3.346154,0,0,3,0,0)"/>
<path style="fill-rule:nonzero;fill:rgb(100%,0%,0%);fill-opacity:1;stroke-width:0.3;stroke-linecap:round;stroke-linejoin:round;stroke:rgb(0%,0%,0%);stroke-opacity:1;stroke-miterlimit:4;" d="M 55.900233 22.10026 C 55.900233 22.43099 55.631735 22.700521 55.300198 22.700521 C 54.96866 22.700521 54.700162 22.43099 54.700162 22.10026 C 54.700162 21.768229 54.96866 21.5 55.300198 21.5 C 55.631735 21.5 55.900233 21.768229 55.900233 22.10026 Z M 55.900233 22.10026 " transform="matrix(3.346154,0,0,3,0,0)"/>
<path style="fill-rule:nonzero;fill:rgb(100%,0%,0%);fill-opacity:1;stroke-width:0.3;stroke-linecap:round;stroke-linejoin:round;stroke:rgb(0%,0%,0%);stroke-opacity:1;stroke-miterlimit:4;" d="M 56.800287 23 C 56.800287 23.330729 56.531789 23.60026 56.200251 23.60026 C 55.868714 23.60026 55.600216 23.330729 55.600216 23 C 55.600216 22.669271 55.868714 22.39974 56.200251 22.39974 C 56.531789 22.39974 56.800287 22.669271 56.800287 23 Z M 56.800287 23 " transform="matrix(3.346154,0,0,3,0,0)"/>
<path style="fill-rule:nonzero;fill:rgb(100%,0%,0%);fill-opacity:1;stroke-width:0.3;stroke-linecap:round;stroke-linejoin:round;stroke:rgb(0%,0%,0%);stroke-opacity:1;stroke-miterlimit:4;" d="M 57.799569 24 C 57.799569 24.330729 57.53107 24.60026 57.199533 24.60026 C 56.869163 24.60026 56.599497 24.330729 56.599497 24 C 56.599497 23.669271 56.869163 23.39974 57.199533 23.39974 C 57.53107 23.39974 57.799569 23.669271 57.799569 24 Z M 57.799569 24 " transform="matrix(3.346154,0,0,3,0,0)"/>
<path style="fill-rule:nonzero;fill:rgb(100%,0%,0%);fill-opacity:1;stroke-width:0.3;stroke-linecap:round;stroke-linejoin:round;stroke:rgb(0%,0%,0%);stroke-opacity:1;stroke-miterlimit:4;" d="M 58.800018 24.89974 C 58.800018 25.231771 58.531519 25.5 58.199982 25.5 C 57.868445 25.5 57.599946 25.231771 57.599946 24.89974 C 57.599946 24.56901 57.868445 24.299479 58.199982 24.299479 C 58.531519 24.299479 58.800018 24.56901 58.800018 24.89974 Z M 58.800018 24.89974 " transform="matrix(3.346154,0,0,3,0,0)"/>
<path style="fill-rule:nonzero;fill:rgb(100%,0%,0%);fill-opacity:1;stroke-width:0.3;stroke-linecap:round;stroke-linejoin:round;stroke:rgb(0%,0%,0%);stroke-opacity:1;stroke-miterlimit:4;" d="M 59.700072 25.89974 C 59.700072 26.231771 59.431573 26.5 59.100036 26.5 C 58.768499 26.5 58.5 26.231771 58.5 25.89974 C 58.5 25.56901 58.768499 25.299479 59.100036 25.299479 C 59.431573 25.299479 59.700072 25.56901 59.700072 25.89974 Z M 59.700072 25.89974 " transform="matrix(3.346154,0,0,3,0,0)"/>
<path style="fill-rule:nonzero;fill:rgb(99.607843%,74.901961%,6.27451%);fill-opacity:1;stroke-width:0.3;stroke-linecap:round;stroke-linejoin:round;stroke:rgb(0%,0%,0%);stroke-opacity:1;stroke-miterlimit:4;" d="M 51.100357 31.000551 L 59.499772 30.999812 C 59.776558 30.999724 60.000081 31.210799 59.999851 31.470217 C 59.99962 31.729636 59.775711 31.939898 59.500671 31.940085 L 51.100337 31.939901 C 50.823551 31.939989 50.600027 31.728914 50.600258 31.469496 C 50.599661 31.210901 50.824398 30.999815 51.100357 31.000551 Z M 51.100357 31.000551 " transform="matrix(-2.370214,-2.117615,2.361955,-2.12502,241.256258,278.372799)"/>
<path style="fill-rule:nonzero;fill:rgb(99.607843%,74.901961%,6.27451%);fill-opacity:1;stroke-width:0.3;stroke-linecap:round;stroke-linejoin:round;stroke:rgb(0%,0%,0%);stroke-opacity:1;stroke-miterlimit:4;" d="M 51.100341 28.099954 L 60.299696 28.09985 C 60.576482 28.099762 60.800006 28.310837 60.799775 28.570255 C 60.799545 28.829674 60.575635 29.039936 60.300595 29.040122 L 51.099494 29.040128 C 50.824454 29.040315 50.600104 28.830064 50.599415 28.569723 C 50.599646 28.310305 50.823555 28.100043 51.100341 28.099954 Z M 51.100341 28.099954 " transform="matrix(-2.370214,-2.117615,2.361955,-2.12502,250.611204,264.318316)"/>
<path style="fill-rule:nonzero;fill:rgb(100%,0%,0%);fill-opacity:1;stroke-width:0.3;stroke-linecap:round;stroke-linejoin:round;stroke:rgb(0%,0%,0%);stroke-opacity:1;stroke-miterlimit:4;" d="M 58.800018 32.89974 C 58.800018 33.231771 58.531519 33.5 58.199982 33.5 C 57.868445 33.5 57.599946 33.231771 57.599946 32.89974 C 57.599946 32.56901 57.868445 32.299479 58.199982 32.299479 C 58.531519 32.299479 58.800018 32.56901 58.800018 32.89974 Z M 58.800018 32.89974 " transform="matrix(3.346154,0,0,3,0,0)"/>
<path style="fill-rule:nonzero;fill:rgb(100%,0%,0%);fill-opacity:1;stroke-width:0.3;stroke-linecap:round;stroke-linejoin:round;stroke:rgb(0%,0%,0%);stroke-opacity:1;stroke-miterlimit:4;" d="M 57.899964 31.89974 C 57.899964 32.231771 57.631466 32.5 57.299928 32.5 C 56.968391 32.5 56.699892 32.231771 56.699892 31.89974 C 56.699892 31.56901 56.968391 31.299479 57.299928 31.299479 C 57.631466 31.299479 57.899964 31.56901 57.899964 31.89974 Z M 57.899964 31.89974 " transform="matrix(3.346154,0,0,3,0,0)"/>
<path style="fill-rule:nonzero;fill:rgb(100%,0%,0%);fill-opacity:1;stroke-width:0.3;stroke-linecap:round;stroke-linejoin:round;stroke:rgb(0%,0%,0%);stroke-opacity:1;stroke-miterlimit:4;" d="M 56.899515 31 C 56.899515 31.330729 56.631017 31.60026 56.299479 31.60026 C 55.969109 31.60026 55.699443 31.330729 55.699443 31 C 55.699443 30.669271 55.969109 30.39974 56.299479 30.39974 C 56.631017 30.39974 56.899515 30.669271 56.899515 31 Z M 56.899515 31 " transform="matrix(3.346154,0,0,3,0,0)"/>
<path style="fill-rule:nonzero;fill:rgb(100%,0%,0%);fill-opacity:1;stroke-width:0.3;stroke-linecap:round;stroke-linejoin:round;stroke:rgb(0%,0%,0%);stroke-opacity:1;stroke-miterlimit:4;" d="M 55.999461 30 C 55.999461 30.330729 55.730963 30.60026 55.399425 30.60026 C 55.069055 30.60026 54.800557 30.330729 54.800557 30 C 54.800557 29.669271 55.069055 29.39974 55.399425 29.39974 C 55.730963 29.39974 55.999461 29.669271 55.999461 30 Z M 55.999461 30 " transform="matrix(3.346154,0,0,3,0,0)"/>
<path style="fill-rule:nonzero;fill:rgb(100%,0%,0%);fill-opacity:1;stroke-width:0.3;stroke-linecap:round;stroke-linejoin:round;stroke:rgb(0%,0%,0%);stroke-opacity:1;stroke-miterlimit:4;" d="M 55.00018 29.10026 C 55.00018 29.43099 54.731681 29.700521 54.400144 29.700521 C 54.068606 29.700521 53.800108 29.43099 53.800108 29.10026 C 53.800108 28.768229 54.068606 28.5 54.400144 28.5 C 54.731681 28.5 55.00018 28.768229 55.00018 29.10026 Z M 55.00018 29.10026 " transform="matrix(3.346154,0,0,3,0,0)"/>
<path style="fill-rule:nonzero;fill:rgb(100%,0%,0%);fill-opacity:1;stroke-width:0.3;stroke-linecap:round;stroke-linejoin:round;stroke:rgb(0%,0%,0%);stroke-opacity:1;stroke-miterlimit:4;" d="M 54.100126 28.10026 C 54.100126 28.43099 53.831627 28.700521 53.50009 28.700521 C 53.168552 28.700521 52.900054 28.43099 52.900054 28.10026 C 52.900054 27.768229 53.168552 27.5 53.50009 27.5 C 53.831627 27.5 54.100126 27.768229 54.100126 28.10026 Z M 54.100126 28.10026 " transform="matrix(3.346154,0,0,3,0,0)"/>
<path style="fill-rule:nonzero;fill:rgb(100%,0%,0%);fill-opacity:1;stroke-width:0.3;stroke-linecap:round;stroke-linejoin:round;stroke:rgb(0%,0%,0%);stroke-opacity:1;stroke-miterlimit:4;" d="M 53.099677 27.200521 C 53.099677 27.53125 52.831178 27.799479 52.499641 27.799479 C 52.168103 27.799479 51.899605 27.53125 51.899605 27.200521 C 51.899605 26.86849 52.168103 26.60026 52.499641 26.60026 C 52.831178 26.60026 53.099677 26.86849 53.099677 27.200521 Z M 53.099677 27.200521 " transform="matrix(3.346154,0,0,3,0,0)"/>
<path style="fill-rule:nonzero;fill:rgb(0%,39.607843%,71.764706%);fill-opacity:1;stroke-width:0.4;stroke-linecap:round;stroke-linejoin:round;stroke:rgb(0%,0%,0%);stroke-opacity:1;stroke-miterlimit:4;" d="M 57.400323 16.700521 C 57.400323 17.583333 56.683549 18.299479 55.799838 18.299479 C 54.916128 18.299479 54.200521 17.583333 54.200521 16.700521 C 54.200521 15.816406 54.916128 15.10026 55.799838 15.10026 C 56.683549 15.10026 57.400323 15.816406 57.400323 16.700521 Z M 57.400323 16.700521 " transform="matrix(3.346154,0,0,3,0,0)"/>
<path style="fill-rule:nonzero;fill:rgb(100%,0%,0%);fill-opacity:1;stroke-width:0.4;stroke-linecap:round;stroke-linejoin:round;stroke:rgb(0%,0%,0%);stroke-opacity:1;stroke-miterlimit:4;" d="M 57.299928 13 C 57.301096 12.153646 56.643858 11.453125 55.799838 11.39974 C 54.916128 11.39974 54.200521 12.115885 54.200521 13 C 54.253053 13.84375 54.953484 14.501302 55.799838 14.5 C 56.628682 14.5 57.299928 13.828125 57.299928 13 Z M 57.299928 13 " transform="matrix(3.346154,0,0,3,0,0)"/>
<path style="fill-rule:nonzero;fill:rgb(100%,0%,0%);fill-opacity:1;stroke-width:0.4;stroke-linecap:round;stroke-linejoin:round;stroke:rgb(0%,0%,0%);stroke-opacity:1;stroke-miterlimit:4;" d="M 55.199802 14.799479 C 55.199802 13.89974 54.700162 13.200521 54.200521 13.299479 C 53.699713 13.39974 53.300467 14 53.300467 14.799479 C 53.300467 15.60026 53.800108 16.39974 54.299749 16.299479 C 54.800557 16.200521 55.199802 15.60026 55.199802 14.799479 Z M 58.199982 14.799479 C 58.199982 13.89974 57.799569 13.200521 57.299928 13.200521 C 56.800287 13.200521 56.299479 13.89974 56.299479 14.799479 C 56.299479 15.700521 56.800287 16.299479 57.299928 16.299479 C 57.799569 16.299479 58.199982 15.60026 58.199982 14.799479 Z M 58.199982 14.799479 " transform="matrix(3.346154,0,0,3,0,0)"/>
<path style="fill:none;stroke-width:0.4;stroke-linecap:round;stroke-linejoin:round;stroke:rgb(0%,0%,0%);stroke-opacity:1;stroke-miterlimit:4;" d="M 55.49982 12.10026 C 55.78116 12.041667 56.073006 12.106771 56.302981 12.278646 C 56.532956 12.451823 56.677712 12.713542 56.699892 13 M 57.400323 15.700521 C 57.799569 15.166667 57.799569 14.433594 57.400323 13.89974 " transform="matrix(3.346154,0,0,3,0,0)"/>
<path style="fill-rule:nonzero;fill:rgb(59.607843%,3.137255%,1.960784%);fill-opacity:1;stroke-width:0.4;stroke-linecap:round;stroke-linejoin:round;stroke:rgb(0%,0%,0%);stroke-opacity:1;stroke-miterlimit:4;" d="M 56.699892 14.5 C 56.699892 13.60026 56.299479 12.89974 55.799838 12.89974 C 55.300198 12.89974 54.800557 13.60026 54.800557 14.5 C 54.800557 15.39974 55.199802 16 55.799838 16 C 56.399874 16 56.699892 15.299479 56.699892 14.5 Z M 56.699892 14.5 " transform="matrix(3.346154,0,0,3,0,0)"/>
<path style="fill:none;stroke-width:0.4;stroke-linecap:round;stroke-linejoin:round;stroke:rgb(0%,0%,0%);stroke-opacity:1;stroke-miterlimit:4;" d="M 55.799838 15.39974 C 56.200251 14.867188 56.200251 14.132812 55.799838 13.60026 " transform="matrix(3.346154,0,0,3,0,0)"/>
<path style="fill-rule:nonzero;fill:rgb(99.607843%,74.901961%,6.27451%);fill-opacity:1;stroke-width:0.4;stroke-linecap:round;stroke-linejoin:round;stroke:rgb(0%,0%,0%);stroke-opacity:1;stroke-miterlimit:4;" d="M 55.699443 37.200521 C 54.428161 36.186198 52.821839 35.6875 51.200341 35.799479 C 49.404903 35.796875 47.669001 35.160156 46.299659 34 C 46.299659 34 47.199713 37.60026 49.100216 38.10026 C 50.999551 38.60026 51.599587 37.60026 51.599587 37.60026 C 51.599587 37.60026 51.800377 38.700521 53.800108 38.700521 C 55.799838 38.700521 55.699443 37.200521 55.699443 37.200521 Z M 55.799838 37.200521 C 57.072288 36.186198 58.677443 35.6875 60.300108 35.799479 C 62.094379 35.796875 63.83028 35.160156 65.199623 34 C 65.199623 34 64.299569 37.60026 62.400233 38.10026 C 60.499731 38.60026 59.899695 37.60026 59.899695 37.60026 C 59.899695 37.60026 59.700072 38.700521 57.700341 38.700521 C 55.699443 38.700521 55.799838 37.200521 55.799838 37.200521 Z M 55.799838 37.200521 " transform="matrix(3.346154,0,0,3,0,0)"/>
<path style=" stroke:none;fill-rule:nonzero;fill:rgb(0%,39.607843%,71.764706%);fill-opacity:1;" d="M 139.199219 46.5 L 130.5 34.199219 L 121.800781 46.5 L 118.453125 287.398438 L 142.546875 287.398438 Z M 139.199219 46.5 "/>
<path style=" stroke:none;fill-rule:nonzero;fill:rgb(0%,30.196078%,63.137255%);fill-opacity:1;" d="M 139.199219 46.5 L 130.5 34.199219 L 130.5 287.398438 L 142.546875 287.398438 Z M 139.199219 46.5 "/>
<path style="fill:none;stroke-width:0.4;stroke-linecap:round;stroke-linejoin:round;stroke:rgb(0%,0%,0%);stroke-opacity:1;stroke-miterlimit:4;" d="M 41.599767 15.5 L 39 11.39974 L 36.400233 15.5 L 35.399784 95.799479 L 42.600216 95.799479 Z M 41.599767 15.5 " transform="matrix(3.346154,0,0,3,0,0)"/>
<path style="fill:none;stroke-width:0.4;stroke-linecap:round;stroke-linejoin:round;stroke:rgb(0%,0%,0%);stroke-opacity:1;stroke-miterlimit:4;" d="M 39 11.39974 L 39 95.700521 " transform="matrix(3.346154,0,0,3,0,0)"/>
<path style=" stroke:none;fill-rule:nonzero;fill:rgb(0%,0%,0%);fill-opacity:1;" d="M 130.5 273.300781 C 134.515625 279 146.894531 283.5 146.894531 295.199219 C 146.894531 301.199219 143.550781 306 138.867188 306 C 134.179688 306 134.851562 307.5 130.5 307.5 C 126.148438 307.5 125.816406 306 122.132812 306 C 118.453125 306 114.105469 301.199219 114.105469 295.199219 C 114.105469 283.5 126.484375 279 130.5 273.300781 Z M 130.5 273.300781 "/>
<path style="fill-rule:nonzero;fill:rgb(100%,0%,0%);fill-opacity:1;stroke-width:0.55;stroke-linecap:round;stroke-linejoin:round;stroke:rgb(0%,0%,0%);stroke-opacity:1;stroke-miterlimit:4;" d="M 37.199892 97.299479 C 37.199892 98.89974 37.999551 100.10026 39 100.10026 C 40.000449 100.10026 40.800108 98.89974 40.800108 97.299479 C 40.800108 95.799479 40.000449 94.5 39 94.5 C 37.999551 94.5 37.199892 95.799479 37.199892 97.299479 Z M 37.199892 97.299479 " transform="matrix(3.346154,0,0,3,0,0)"/>
<path style="fill:none;stroke-width:0.3;stroke-linecap:round;stroke-linejoin:round;stroke:rgb(0%,0%,0%);stroke-opacity:1;stroke-miterlimit:4;" d="M 39.199623 96.299479 C 38.500359 96.10026 38.599587 98.700521 39.100395 98.5 M 39.499641 95.89974 C 39.403915 95.606771 39.101562 95.433594 38.800377 95.5 C 38.250539 95.929688 37.951688 96.604167 37.999551 97.299479 C 37.999551 98.200521 38.299569 99.299479 39 99.200521 " transform="matrix(3.346154,0,0,3,0,0)"/>
<path style=" stroke:none;fill-rule:nonzero;fill:rgb(99.607843%,74.901961%,6.27451%);fill-opacity:1;" d="M 130.5 277.5 C 133.511719 280.199219 143.214844 285.601562 143.214844 295.199219 C 143.214844 299.699219 140.875 303.898438 137.191406 303.898438 C 136.082031 303.898438 135.183594 303.09375 135.183594 302.101562 C 135.183594 301.199219 135.855469 300.601562 137.191406 300.601562 C 138.53125 300.601562 139.871094 297 139.871094 294.601562 C 139.871094 292.199219 132.84375 282.601562 130.5 280.199219 C 128.15625 282.601562 121.128906 287.699219 121.128906 294.601562 C 121.128906 301.5 122.46875 300.601562 123.808594 300.601562 C 125.144531 300.601562 125.816406 301.199219 125.816406 302.101562 C 125.816406 303.09375 124.917969 303.898438 123.808594 303.898438 C 120.125 303.898438 117.785156 299.699219 117.785156 295.199219 C 117.785156 285.601562 127.488281 280.199219 130.5 277.5 Z M 130.5 300 C 132.507812 300 133.847656 300.898438 133.847656 302.101562 C 133.847656 303.757812 132.347656 305.101562 130.5 305.101562 C 128.652344 305.101562 127.152344 303.757812 127.152344 302.101562 C 127.152344 300.898438 128.492188 300 130.5 300 Z M 130.5 300 "/>
<path style="fill-rule:nonzero;fill:rgb(99.607843%,74.901961%,6.27451%);fill-opacity:1;stroke-width:0.4;stroke-linecap:butt;stroke-linejoin:miter;stroke:rgb(0%,0%,0%);stroke-opacity:1;stroke-miterlimit:4;" d="M 43.099856 98.200521 C 43.154723 100.204427 44.794899 101.800781 46.800467 101.799479 C 48.788524 101.799479 50.399515 100.188802 50.399515 98.200521 C 50.429867 97.21875 50.045797 96.270833 49.341864 95.585938 C 48.639098 94.901042 47.679508 94.542969 46.700072 94.60026 C 44.712015 94.60026 43.099856 96.21224 43.099856 98.200521 Z M 27.600485 98.200521 C 27.570133 99.18099 27.954203 100.130208 28.658136 100.813802 C 29.360902 101.498698 30.320492 101.856771 31.299928 101.799479 C 33.287985 101.799479 34.900144 100.188802 34.900144 98.200521 C 34.603628 96.415365 33.059177 95.106771 31.249731 95.106771 C 29.440284 95.106771 27.897001 96.415365 27.600485 98.200521 Z M 27.600485 98.200521 " transform="matrix(3.346154,0,0,3,0,0)"/>
<path style="fill-rule:nonzero;fill:rgb(19.607843%,34.117647%,13.72549%);fill-opacity:1;stroke-width:0.42;stroke-linecap:butt;stroke-linejoin:miter;stroke:rgb(0%,0%,0%);stroke-opacity:1;stroke-miterlimit:4;" d="M 46.800467 95.700521 C 47.35264 95.700521 47.799749 96.147135 47.799749 96.700521 C 47.828933 96.981771 47.735542 97.263021 47.545259 97.472656 C 47.353807 97.682292 47.082974 97.800781 46.800467 97.799479 C 46.192259 97.799479 45.699623 97.307292 45.699623 96.700521 C 45.698455 96.416667 45.817529 96.145833 46.027658 95.954427 C 46.23662 95.764323 46.51796 95.671875 46.800467 95.700521 Z M 46.800467 98.60026 C 47.367816 98.652344 47.802083 99.128906 47.799749 99.700521 C 47.799749 100.252604 47.35264 100.700521 46.800467 100.700521 C 46.51796 100.727865 46.23662 100.635417 46.027658 100.445312 C 45.817529 100.253906 45.698455 99.983073 45.699623 99.700521 C 45.699623 99.092448 46.192259 98.60026 46.800467 98.60026 Z M 46.800467 98.60026 " transform="matrix(3.346154,0,0,3,0,0)"/>
<path style="fill-rule:nonzero;fill:rgb(19.607843%,34.117647%,13.72549%);fill-opacity:1;stroke-width:0.42;stroke-linecap:butt;stroke-linejoin:miter;stroke:rgb(0%,0%,0%);stroke-opacity:1;stroke-miterlimit:4;" d="M 49.299838 98.200521 C 49.261315 98.753906 48.84806 99.208333 48.300557 99.299479 C 47.692349 99.299479 47.199713 98.807292 47.199713 98.200521 C 47.197378 97.628906 47.631645 97.152344 48.200162 97.10026 C 48.807202 97.10026 49.299838 97.592448 49.299838 98.200521 Z M 46.400054 98.200521 C 46.400054 98.807292 45.907417 99.299479 45.300377 99.299479 C 44.69217 99.299479 44.199533 98.807292 44.199533 98.200521 C 44.199533 97.592448 44.69217 97.10026 45.300377 97.10026 C 45.907417 97.10026 46.400054 97.592448 46.400054 98.200521 Z M 46.400054 98.200521 " transform="matrix(3.346154,0,0,3,0,0)"/>
<path style="fill-rule:nonzero;fill:rgb(19.607843%,34.117647%,13.72549%);fill-opacity:1;stroke-width:0.3;stroke-linecap:butt;stroke-linejoin:miter;stroke:rgb(0%,0%,0%);stroke-opacity:1;stroke-miterlimit:4;" d="M 45.699623 98.200521 C 45.699623 98.807292 46.192259 99.299479 46.800467 99.299479 C 47.367816 99.248698 47.802083 98.770833 47.799749 98.200521 C 47.802083 97.628906 47.367816 97.152344 46.800467 97.10026 C 46.192259 97.10026 45.699623 97.592448 45.699623 98.200521 Z M 45.699623 98.200521 " transform="matrix(3.346154,0,0,3,0,0)"/>
<path style="fill-rule:nonzero;fill:rgb(19.607843%,34.117647%,13.72549%);fill-opacity:1;stroke-width:0.42;stroke-linecap:butt;stroke-linejoin:miter;stroke:rgb(0%,0%,0%);stroke-opacity:1;stroke-miterlimit:4;" d="M 31.199533 95.700521 C 31.48204 95.671875 31.76338 95.764323 31.972342 95.954427 C 32.182471 96.145833 32.301545 96.416667 32.300377 96.700521 C 32.300377 97.307292 31.807741 97.799479 31.199533 97.799479 C 30.632184 97.748698 30.197917 97.270833 30.200251 96.700521 C 30.167565 96.425781 30.262123 96.152344 30.457076 95.957031 C 30.652029 95.761719 30.926365 95.667969 31.199533 95.700521 Z M 31.199533 98.60026 C 31.807741 98.60026 32.300377 99.092448 32.300377 99.700521 C 32.247845 100.268229 31.770384 100.701823 31.199533 100.700521 C 30.64736 100.700521 30.200251 100.252604 30.200251 99.700521 C 30.171067 99.417969 30.264458 99.136719 30.454741 98.927083 C 30.646193 98.717448 30.917026 98.598958 31.199533 98.60026 Z M 31.199533 98.60026 " transform="matrix(3.346154,0,0,3,0,0)"/>
<path style="fill-rule:nonzero;fill:rgb(19.607843%,34.117647%,13.72549%);fill-opacity:1;stroke-width:0.42;stroke-linecap:butt;stroke-linejoin:miter;stroke:rgb(0%,0%,0%);stroke-opacity:1;stroke-miterlimit:4;" d="M 33.800467 98.200521 C 33.752604 98.786458 33.286818 99.252604 32.699623 99.299479 C 32.092583 99.299479 31.599946 98.807292 31.599946 98.200521 C 31.599946 97.592448 32.092583 97.10026 32.699623 97.10026 C 33.286818 97.147135 33.752604 97.613281 33.800467 98.200521 Z M 30.800287 98.200521 C 30.761764 98.753906 30.347342 99.208333 29.799838 99.299479 C 29.192798 99.299479 28.700162 98.807292 28.700162 98.200521 C 28.697827 97.628906 29.132094 97.152344 29.699443 97.10026 C 30.307651 97.10026 30.800287 97.592448 30.800287 98.200521 Z M 30.800287 98.200521 " transform="matrix(3.346154,0,0,3,0,0)"/>
<path style="fill-rule:nonzero;fill:rgb(19.607843%,34.117647%,13.72549%);fill-opacity:1;stroke-width:0.3;stroke-linecap:butt;stroke-linejoin:miter;stroke:rgb(0%,0%,0%);stroke-opacity:1;stroke-miterlimit:4;" d="M 30.200251 98.200521 C 30.197917 98.770833 30.632184 99.248698 31.199533 99.299479 C 31.786728 99.252604 32.252514 98.786458 32.300377 98.200521 C 32.300377 97.592448 31.807741 97.10026 31.199533 97.10026 C 30.917026 97.098958 30.646193 97.217448 30.454741 97.427083 C 30.264458 97.636719 30.171067 97.917969 30.200251 98.200521 Z M 30.200251 98.200521 " transform="matrix(3.346154,0,0,3,0,0)"/>
<path style=" stroke:none;fill-rule:nonzero;fill:rgb(99.607843%,74.901961%,6.27451%);fill-opacity:1;" d="M 142.546875 336.898438 C 142.546875 319.171875 137.152344 304.800781 130.5 304.800781 C 123.847656 304.800781 118.453125 319.171875 118.453125 336.898438 C 118.453125 354.628906 123.847656 369 130.5 369 C 137.152344 369 142.546875 354.628906 142.546875 336.898438 Z M 142.546875 336.898438 "/>
<path style=" stroke:none;fill-rule:nonzero;fill:rgb(81.568627%,60.784314%,2.745098%);fill-opacity:1;" d="M 130.5 368.699219 C 137.191406 368.699219 142.546875 354.300781 142.546875 336.898438 C 142.546875 319.5 137.191406 304.800781 130.5 304.800781 "/>
<path style="fill:none;stroke-width:0.4;stroke-linecap:round;stroke-linejoin:round;stroke:rgb(0%,0%,0%);stroke-opacity:1;stroke-miterlimit:4;" d="M 42.600216 112.299479 C 42.600216 106.390625 40.988057 101.60026 39 101.60026 C 37.011943 101.60026 35.399784 106.390625 35.399784 112.299479 C 35.399784 118.209635 37.011943 123 39 123 C 40.988057 123 42.600216 118.209635 42.600216 112.299479 Z M 42.600216 112.299479 " transform="matrix(3.346154,0,0,3,0,0)"/>
<path style="fill-rule:nonzero;fill:rgb(99.607843%,74.901961%,6.27451%);fill-opacity:1;stroke-width:0.3;stroke-linecap:round;stroke-linejoin:round;stroke:rgb(0%,0%,0%);stroke-opacity:1;stroke-miterlimit:4;" d="M 34.699499 118.000257 L 42.100575 117.999903 C 42.375614 117.999716 42.599965 118.209967 42.599735 118.469385 C 42.600423 118.729726 42.376513 118.939988 42.099728 118.940077 L 34.699479 118.939606 C 34.424439 118.939793 34.200089 118.729542 34.200319 118.470124 C 34.20055 118.210705 34.423541 117.999521 34.699499 118.000257 Z M 34.699499 118.000257 " transform="matrix(-2.370214,-2.117615,2.361955,-2.12502,-60.255102,688.498643)"/>
<path style="fill-rule:nonzero;fill:rgb(99.607843%,74.901961%,6.27451%);fill-opacity:1;stroke-width:0.3;stroke-linecap:round;stroke-linejoin:round;stroke:rgb(0%,0%,0%);stroke-opacity:1;stroke-miterlimit:4;" d="M 34.200701 115.100165 L 43.400057 115.10006 C 43.676842 115.099972 43.899447 115.310124 43.900135 115.570465 C 43.899905 115.829884 43.675995 116.040146 43.400036 116.03941 L 34.199854 116.040338 C 33.923895 116.039603 33.699545 115.829352 33.699775 115.569934 C 33.700006 115.310515 33.923916 115.100253 34.200701 115.100165 Z M 34.200701 115.100165 " transform="matrix(-2.370214,-2.117615,2.361955,-2.12502,-50.876536,674.39291)"/>
<path style="fill-rule:nonzero;fill:rgb(100%,0%,0%);fill-opacity:1;stroke-width:0.3;stroke-linecap:round;stroke-linejoin:round;stroke:rgb(0%,0%,0%);stroke-opacity:1;stroke-miterlimit:4;" d="M 42.00018 119.799479 C 42.00018 120.13151 41.731681 120.39974 41.400144 120.39974 C 41.068606 120.39974 40.800108 120.13151 40.800108 119.799479 C 40.800108 119.46875 41.068606 119.200521 41.400144 119.200521 C 41.731681 119.200521 42.00018 119.46875 42.00018 119.799479 Z M 42.00018 119.799479 " transform="matrix(3.346154,0,0,3,0,0)"/>
<path style="fill-rule:nonzero;fill:rgb(100%,0%,0%);fill-opacity:1;stroke-width:0.3;stroke-linecap:round;stroke-linejoin:round;stroke:rgb(0%,0%,0%);stroke-opacity:1;stroke-miterlimit:4;" d="M 40.999731 118.89974 C 40.999731 119.231771 40.731232 119.5 40.399695 119.5 C 40.068157 119.5 39.799659 119.231771 39.799659 118.89974 C 39.799659 118.56901 40.068157 118.299479 40.399695 118.299479 C 40.731232 118.299479 40.999731 118.56901 40.999731 118.89974 Z M 40.999731 118.89974 " transform="matrix(3.346154,0,0,3,0,0)"/>
<path style="fill-rule:nonzero;fill:rgb(100%,0%,0%);fill-opacity:1;stroke-width:0.3;stroke-linecap:round;stroke-linejoin:round;stroke:rgb(0%,0%,0%);stroke-opacity:1;stroke-miterlimit:4;" d="M 40.099677 117.89974 C 40.099677 118.231771 39.831178 118.5 39.499641 118.5 C 39.168103 118.5 38.899605 118.231771 38.899605 117.89974 C 38.899605 117.56901 39.168103 117.299479 39.499641 117.299479 C 39.831178 117.299479 40.099677 117.56901 40.099677 117.89974 Z M 40.099677 117.89974 " transform="matrix(3.346154,0,0,3,0,0)"/>
<path style="fill-rule:nonzero;fill:rgb(100%,0%,0%);fill-opacity:1;stroke-width:0.3;stroke-linecap:round;stroke-linejoin:round;stroke:rgb(0%,0%,0%);stroke-opacity:1;stroke-miterlimit:4;" d="M 39.100395 117 C 39.100395 117.330729 38.831897 117.60026 38.500359 117.60026 C 38.168822 117.60026 37.900323 117.330729 37.900323 117 C 37.900323 116.669271 38.168822 116.39974 38.500359 116.39974 C 38.831897 116.39974 39.100395 116.669271 39.100395 117 Z M 39.100395 117 " transform="matrix(3.346154,0,0,3,0,0)"/>
<path style="fill-rule:nonzero;fill:rgb(100%,0%,0%);fill-opacity:1;stroke-width:0.3;stroke-linecap:round;stroke-linejoin:round;stroke:rgb(0%,0%,0%);stroke-opacity:1;stroke-miterlimit:4;" d="M 38.200341 116 C 38.200341 116.330729 37.931843 116.60026 37.600305 116.60026 C 37.268768 116.60026 37.000269 116.330729 37.000269 116 C 37.000269 115.669271 37.268768 115.39974 37.600305 115.39974 C 37.931843 115.39974 38.200341 115.669271 38.200341 116 Z M 38.200341 116 " transform="matrix(3.346154,0,0,3,0,0)"/>
<path style="fill-rule:nonzero;fill:rgb(100%,0%,0%);fill-opacity:1;stroke-width:0.3;stroke-linecap:round;stroke-linejoin:round;stroke:rgb(0%,0%,0%);stroke-opacity:1;stroke-miterlimit:4;" d="M 37.199892 115.10026 C 37.199892 115.43099 36.931394 115.700521 36.599856 115.700521 C 36.268319 115.700521 35.99982 115.43099 35.99982 115.10026 C 35.99982 114.768229 36.268319 114.5 36.599856 114.5 C 36.931394 114.5 37.199892 114.768229 37.199892 115.10026 Z M 37.199892 115.10026 " transform="matrix(3.346154,0,0,3,0,0)"/>
<path style="fill-rule:nonzero;fill:rgb(100%,0%,0%);fill-opacity:1;stroke-width:0.3;stroke-linecap:round;stroke-linejoin:round;stroke:rgb(0%,0%,0%);stroke-opacity:1;stroke-miterlimit:4;" d="M 36.199443 114.10026 C 36.199443 114.43099 35.930945 114.700521 35.600575 114.700521 C 35.269037 114.700521 35.000539 114.43099 35.000539 114.10026 C 35.000539 113.768229 35.269037 113.5 35.600575 113.5 C 35.930945 113.5 36.199443 113.768229 36.199443 114.10026 Z M 36.199443 114.10026 " transform="matrix(3.346154,0,0,3,0,0)"/>
<path style="fill-rule:nonzero;fill:rgb(99.607843%,74.901961%,6.27451%);fill-opacity:1;stroke-width:0.3;stroke-linecap:round;stroke-linejoin:round;stroke:rgb(0%,0%,0%);stroke-opacity:1;stroke-miterlimit:4;" d="M 35.299221 107.999937 L 43.699555 108.000121 C 43.976341 108.000033 44.199864 108.211107 44.200461 108.469702 C 44.20023 108.72912 43.97632 108.939382 43.700454 108.940393 L 35.300119 108.940209 C 35.023334 108.940298 34.79981 108.729223 34.800041 108.469804 C 34.800271 108.210386 35.024181 108.000124 35.299221 107.999937 Z M 35.299221 107.999937 " transform="matrix(2.370214,2.117615,-2.361955,2.12502,294.463331,11.107253)"/>
<path style="fill-rule:nonzero;fill:rgb(99.607843%,74.901961%,6.27451%);fill-opacity:1;stroke-width:0.3;stroke-linecap:round;stroke-linejoin:round;stroke:rgb(0%,0%,0%);stroke-opacity:1;stroke-miterlimit:4;" d="M 34.500082 110.999553 L 43.700357 111.000371 C 43.976223 110.999361 44.199747 111.210435 44.199516 111.469854 C 44.200205 111.730195 43.976295 111.940457 43.700336 111.939721 L 34.500154 111.940649 C 34.224195 111.939914 33.999845 111.729663 34.000075 111.470245 C 34.000306 111.210826 34.223297 110.999642 34.500082 110.999553 Z M 34.500082 110.999553 " transform="matrix(2.370214,2.117615,-2.361955,2.12502,301.157261,14.70262)"/>
<path style="fill-rule:nonzero;fill:rgb(100%,0%,0%);fill-opacity:1;stroke-width:0.3;stroke-linecap:round;stroke-linejoin:round;stroke:rgb(0%,0%,0%);stroke-opacity:1;stroke-miterlimit:4;" d="M 37.099497 107.10026 C 37.099497 107.43099 36.830999 107.700521 36.499461 107.700521 C 36.169091 107.700521 35.899425 107.43099 35.899425 107.10026 C 35.899425 106.768229 36.169091 106.5 36.499461 106.5 C 36.830999 106.5 37.099497 106.768229 37.099497 107.10026 Z M 37.099497 107.10026 " transform="matrix(3.346154,0,0,3,0,0)"/>
<path style="fill-rule:nonzero;fill:rgb(100%,0%,0%);fill-opacity:1;stroke-width:0.3;stroke-linecap:round;stroke-linejoin:round;stroke:rgb(0%,0%,0%);stroke-opacity:1;stroke-miterlimit:4;" d="M 38.099946 108.10026 C 38.099946 108.43099 37.831448 108.700521 37.49991 108.700521 C 37.168373 108.700521 36.899874 108.43099 36.899874 108.10026 C 36.899874 107.768229 37.168373 107.5 37.49991 107.5 C 37.831448 107.5 38.099946 107.768229 38.099946 108.10026 Z M 38.099946 108.10026 " transform="matrix(3.346154,0,0,3,0,0)"/>
<path style="fill-rule:nonzero;fill:rgb(100%,0%,0%);fill-opacity:1;stroke-width:0.3;stroke-linecap:round;stroke-linejoin:round;stroke:rgb(0%,0%,0%);stroke-opacity:1;stroke-miterlimit:4;" d="M 39 109 C 39 109.330729 38.731501 109.60026 38.399964 109.60026 C 38.068427 109.60026 37.799928 109.330729 37.799928 109 C 37.799928 108.669271 38.068427 108.39974 38.399964 108.39974 C 38.731501 108.39974 39 108.669271 39 109 Z M 39 109 " transform="matrix(3.346154,0,0,3,0,0)"/>
<path style="fill-rule:nonzero;fill:rgb(100%,0%,0%);fill-opacity:1;stroke-width:0.3;stroke-linecap:round;stroke-linejoin:round;stroke:rgb(0%,0%,0%);stroke-opacity:1;stroke-miterlimit:4;" d="M 40.000449 110 C 40.000449 110.330729 39.73195 110.60026 39.400413 110.60026 C 39.068876 110.60026 38.800377 110.330729 38.800377 110 C 38.800377 109.669271 39.068876 109.39974 39.400413 109.39974 C 39.73195 109.39974 40.000449 109.669271 40.000449 110 Z M 40.000449 110 " transform="matrix(3.346154,0,0,3,0,0)"/>
<path style="fill-rule:nonzero;fill:rgb(100%,0%,0%);fill-opacity:1;stroke-width:0.3;stroke-linecap:round;stroke-linejoin:round;stroke:rgb(0%,0%,0%);stroke-opacity:1;stroke-miterlimit:4;" d="M 40.900503 110.89974 C 40.900503 111.231771 40.630837 111.5 40.300467 111.5 C 39.96893 111.5 39.700431 111.231771 39.700431 110.89974 C 39.700431 110.56901 39.96893 110.299479 40.300467 110.299479 C 40.630837 110.299479 40.900503 110.56901 40.900503 110.89974 Z M 40.900503 110.89974 " transform="matrix(3.346154,0,0,3,0,0)"/>
<path style="fill-rule:nonzero;fill:rgb(100%,0%,0%);fill-opacity:1;stroke-width:0.3;stroke-linecap:round;stroke-linejoin:round;stroke:rgb(0%,0%,0%);stroke-opacity:1;stroke-miterlimit:4;" d="M 41.899784 111.89974 C 41.899784 112.231771 41.631286 112.5 41.299749 112.5 C 40.968211 112.5 40.699713 112.231771 40.699713 111.89974 C 40.699713 111.56901 40.968211 111.299479 41.299749 111.299479 C 41.631286 111.299479 41.899784 111.56901 41.899784 111.89974 Z M 41.899784 111.89974 " transform="matrix(3.346154,0,0,3,0,0)"/>
<path style="fill-rule:nonzero;fill:rgb(100%,0%,0%);fill-opacity:1;stroke-width:0.3;stroke-linecap:round;stroke-linejoin:round;stroke:rgb(0%,0%,0%);stroke-opacity:1;stroke-miterlimit:4;" d="M 42.799838 112.799479 C 42.799838 113.13151 42.53134 113.39974 42.199802 113.39974 C 41.868265 113.39974 41.599767 113.13151 41.599767 112.799479 C 41.599767 112.46875 41.868265 112.200521 42.199802 112.200521 C 42.53134 112.200521 42.799838 112.46875 42.799838 112.799479 Z M 42.799838 112.799479 " transform="matrix(3.346154,0,0,3,0,0)"/>
<path style="fill-rule:nonzero;fill:rgb(0%,39.607843%,71.764706%);fill-opacity:1;stroke-width:0.4;stroke-linecap:round;stroke-linejoin:round;stroke:rgb(0%,0%,0%);stroke-opacity:1;stroke-miterlimit:4;" d="M 40.600485 123.299479 C 40.600485 124.183594 39.88371 124.89974 39 124.89974 C 38.11629 124.89974 37.399515 124.183594 37.399515 123.299479 C 37.399515 122.416667 38.11629 121.700521 39 121.700521 C 39.88371 121.700521 40.600485 122.416667 40.600485 123.299479 Z M 40.600485 123.299479 " transform="matrix(3.346154,0,0,3,0,0)"/>
<path style="fill-rule:nonzero;fill:rgb(100%,0%,0%);fill-opacity:1;stroke-width:0.4;stroke-linecap:round;stroke-linejoin:round;stroke:rgb(0%,0%,0%);stroke-opacity:1;stroke-miterlimit:4;" d="M 37.49991 127 C 37.49991 127.828125 38.171157 128.5 39 128.5 C 39.828843 128.5 40.50009 127.828125 40.50009 127 C 40.50009 126.171875 39.828843 125.5 39 125.5 C 38.171157 125.5 37.49991 126.171875 37.49991 127 Z M 37.49991 127 " transform="matrix(3.346154,0,0,3,0,0)"/>
<path style="fill-rule:nonzero;fill:rgb(100%,0%,0%);fill-opacity:1;stroke-width:0.4;stroke-linecap:round;stroke-linejoin:round;stroke:rgb(0%,0%,0%);stroke-opacity:1;stroke-miterlimit:4;" d="M 39.600036 125.200521 C 39.600036 126.10026 40.000449 126.799479 40.600485 126.700521 C 41.200521 126.60026 41.500539 126 41.500539 125.200521 C 41.500539 124.39974 40.999731 123.60026 40.50009 123.700521 C 40.000449 123.799479 39.600036 124.39974 39.600036 125.200521 Z M 36.499461 125.200521 C 36.499461 126.10026 37.000269 126.799479 37.49991 126.799479 C 37.999551 126.799479 38.399964 126.10026 38.399964 125.200521 C 38.399964 124.299479 37.999551 123.700521 37.49991 123.700521 C 37.000269 123.700521 36.499461 124.39974 36.499461 125.200521 Z M 36.499461 125.200521 " transform="matrix(3.346154,0,0,3,0,0)"/>
<path style="fill:none;stroke-width:0.4;stroke-linecap:round;stroke-linejoin:round;stroke:rgb(0%,0%,0%);stroke-opacity:1;stroke-miterlimit:4;" d="M 39.300018 127.89974 C 39.018678 127.958333 38.726832 127.893229 38.496857 127.721354 C 38.266882 127.548177 38.123294 127.286458 38.099946 127 M 37.399515 124.299479 C 37.000269 124.833333 37.000269 125.566406 37.399515 126.10026 " transform="matrix(3.346154,0,0,3,0,0)"/>
<path style="fill-rule:nonzero;fill:rgb(59.607843%,3.137255%,1.960784%);fill-opacity:1;stroke-width:0.4;stroke-linecap:round;stroke-linejoin:round;stroke:rgb(0%,0%,0%);stroke-opacity:1;stroke-miterlimit:4;" d="M 38.099946 125.5 C 38.099946 126.39974 38.500359 127.10026 39 127.10026 C 39.499641 127.10026 39.900054 126.39974 39.900054 125.5 C 39.900054 124.60026 39.499641 124 39 124 C 38.500359 124 38.099946 124.700521 38.099946 125.5 Z M 38.099946 125.5 " transform="matrix(3.346154,0,0,3,0,0)"/>
<path style="fill:none;stroke-width:0.4;stroke-linecap:round;stroke-linejoin:round;stroke:rgb(0%,0%,0%);stroke-opacity:1;stroke-miterlimit:4;" d="M 38.899605 124.60026 C 38.556394 125.151042 38.556394 125.848958 38.899605 126.39974 " transform="matrix(3.346154,0,0,3,0,0)"/>
<path style="fill-rule:nonzero;fill:rgb(99.607843%,74.901961%,6.27451%);fill-opacity:1;stroke-width:0.4;stroke-linecap:round;stroke-linejoin:round;stroke:rgb(0%,0%,0%);stroke-opacity:1;stroke-miterlimit:4;" d="M 39 102.799479 C 40.285291 103.78776 41.881106 104.285156 43.500269 104.200521 C 45.327227 104.1875 47.099318 104.825521 48.50018 106 C 48.50018 106 47.600126 102.39974 45.699623 101.89974 C 43.800287 101.39974 43.200251 102.39974 43.200251 102.39974 C 43.200251 102.39974 42.999461 101.299479 40.999731 101.299479 C 39 101.299479 39 102.799479 39 102.799479 Z M 39 102.799479 C 37.714709 103.78776 36.118894 104.285156 34.499731 104.200521 C 32.672773 104.1875 30.900682 104.825521 29.49982 106 C 29.49982 106 30.399874 102.39974 32.300377 101.89974 C 34.199713 101.39974 34.799749 102.39974 34.799749 102.39974 C 34.799749 102.39974 35.000539 101.299479 37.000269 101.299479 C 39 101.299479 39 102.799479 39 102.799479 Z M 39 102.799479 " transform="matrix(3.346154,0,0,3,0,0)"/>
<path style="fill:none;stroke-width:0.4;stroke-linecap:round;stroke-linejoin:round;stroke:rgb(0%,0%,0%);stroke-opacity:1;stroke-miterlimit:4;" d="M 8.00009 7.89974 L 69.99991 7.89974 L 69.99991 132.209635 L 8.00009 132.209635 Z M 8.00009 7.89974 " transform="matrix(3.346154,0,0,3,0,0)"/>
</g>
</svg>
