<?xml version="1.0" encoding="UTF-8"?>
<svg xmlns="http://www.w3.org/2000/svg" xmlns:xlink="http://www.w3.org/1999/xlink" width="261px" height="420px" viewBox="0 0 261 426" version="1.1">
<g id="surface1">
<path style=" stroke:none;fill-rule:nonzero;fill:rgb(100%,100%,100%);fill-opacity:1;" d="M 18 0 L 243 0 C 252.941406 0 261 8.175781 261 18.257812 L 261 407.742188 C 261 417.824219 252.941406 426 243 426 L 18 426 C 8.058594 426 0 417.824219 0 407.742188 L 0 18.257812 C 0 8.175781 8.058594 0 18 0 Z M 18 0 "/>
<path style=" stroke:none;fill-rule:nonzero;fill:rgb(19.607843%,34.117647%,13.72549%);fill-opacity:1;" d="M 85.199219 194.132812 C 83.78125 198.679688 80.9375 202.636719 77.101562 205.390625 C 74.851562 201.210938 74.011719 196.40625 74.699219 191.699219 C 76.121094 187.152344 78.964844 183.199219 82.800781 180.441406 C 85.089844 184.605469 85.933594 189.425781 85.199219 194.132812 Z M 85.199219 194.132812 "/>
<path style=" stroke:none;fill-rule:nonzero;fill:rgb(5.098039%,22.745098%,7.058824%);fill-opacity:1;" d="M 78.898438 198.394531 C 77.210938 195.101562 76.285156 191.457031 76.203125 187.742188 C 75.597656 188.960938 75.300781 190.175781 74.699219 191.699219 C 74.011719 196.40625 74.851562 201.210938 77.101562 205.390625 C 80.9375 202.636719 83.78125 198.679688 85.199219 194.132812 C 85.445312 193.140625 85.550781 192.117188 85.5 191.089844 C 83.878906 194.003906 81.621094 196.5 78.898438 198.394531 Z M 78.898438 198.394531 "/>
<path style="fill:none;stroke-width:0.4;stroke-linecap:round;stroke-linejoin:round;stroke:rgb(0%,0%,0%);stroke-opacity:1;stroke-miterlimit:4;" d="M 28.399736 63.799513 C 27.927079 65.293791 26.979163 66.594224 25.700517 67.499263 C 24.950517 66.126941 24.670569 64.546652 24.899736 62.99974 C 25.373694 61.505462 26.321611 60.206313 27.600257 59.29999 C 28.363277 60.668461 28.644527 62.252601 28.399736 63.799513 Z M 28.399736 63.799513 " transform="matrix(3,0,0,3.042857,0,0)"/>
<path style="fill-rule:nonzero;fill:rgb(19.607843%,34.117647%,13.72549%);fill-opacity:1;stroke-width:0.4;stroke-linecap:round;stroke-linejoin:round;stroke:rgb(0%,0%,0%);stroke-opacity:1;stroke-miterlimit:4;" d="M 25.401038 66.099982 C 26.466142 67.250217 27.102861 68.734225 27.199215 70.300393 C 25.658851 70.258029 24.17708 69.694466 22.999997 68.699564 C 21.933591 67.549329 21.298174 66.065321 21.199216 64.500437 C 22.731768 64.585164 24.199215 65.143593 25.401038 66.099982 Z M 25.401038 66.099982 " transform="matrix(3,0,0,3.042857,0,0)"/>
<path style=" stroke:none;fill-rule:nonzero;fill:rgb(19.607843%,34.117647%,13.72549%);fill-opacity:1;" d="M 74.398438 212.695312 C 77.90625 212.519531 81.371094 213.476562 84.300781 215.433594 C 82.074219 218.125 79 219.953125 75.597656 220.609375 C 72.1875 220.804688 68.808594 219.84375 66 217.867188 C 68.226562 215.332031 71.15625 213.53125 74.398438 212.695312 Z M 74.398438 212.695312 "/>
<path style=" stroke:none;fill-rule:nonzero;fill:rgb(5.098039%,22.745098%,7.058824%);fill-opacity:1;" d="M 78.898438 216.042969 C 77.1875 218.050781 75.027344 219.613281 72.597656 220.609375 L 75.597656 220.609375 C 79 219.953125 82.074219 218.125 84.300781 215.433594 C 81.371094 213.476562 77.90625 212.519531 74.398438 212.695312 L 72.300781 213.304688 C 74.65625 213.769531 76.898438 214.699219 78.898438 216.042969 Z M 78.898438 216.042969 "/>
<path style="fill:none;stroke-width:0.4;stroke-linecap:round;stroke-linejoin:round;stroke:rgb(0%,0%,0%);stroke-opacity:1;stroke-miterlimit:4;" d="M 24.799476 69.899865 C 25.968746 69.842096 27.123694 70.156614 28.100256 70.799769 C 27.358069 71.684269 26.33333 72.285061 25.199215 72.50073 C 24.062497 72.564918 22.936195 72.249117 21.999997 71.599542 C 22.742184 70.766392 23.718747 70.174586 24.799476 69.899865 Z M 24.799476 69.899865 " transform="matrix(3,0,0,3.042857,0,0)"/>
<path style=" stroke:none;fill-rule:nonzero;fill:rgb(19.607843%,34.117647%,13.72549%);fill-opacity:1;" d="M 98.402344 223.34375 C 101.183594 221.25 104.535156 220.082031 108 220 C 107.558594 223.46875 105.972656 226.683594 103.5 229.125 C 100.925781 231.390625 97.605469 232.589844 94.199219 232.476562 C 94.605469 229.054688 96.074219 225.855469 98.402344 223.34375 Z M 98.402344 223.34375 "/>
<path style=" stroke:none;fill-rule:nonzero;fill:rgb(5.098039%,22.745098%,7.058824%);fill-opacity:1;" d="M 104.101562 223.34375 C 103.652344 226.070312 102.628906 228.667969 101.101562 230.953125 C 102.019531 230.523438 102.832031 229.898438 103.5 229.125 C 105.972656 226.683594 107.558594 223.46875 108 220 C 104.535156 220.082031 101.183594 221.25 98.402344 223.34375 L 96.898438 225.171875 C 99.148438 224.0625 101.601562 223.441406 104.101562 223.34375 Z M 104.101562 223.34375 "/>
<path style="fill:none;stroke-width:0.4;stroke-linecap:round;stroke-linejoin:round;stroke:rgb(0%,0%,0%);stroke-opacity:1;stroke-miterlimit:4;" d="M 32.800777 73.399351 C 33.72786 72.711264 34.845047 72.327425 35.999995 72.300466 C 35.85286 73.440431 35.324214 74.496952 34.499995 75.299292 C 33.641922 76.043864 32.535152 76.437973 31.399735 76.400745 C 31.535152 75.276185 32.024735 74.224799 32.800777 73.399351 Z M 32.800777 73.399351 " transform="matrix(3,0,0,3.042857,0,0)"/>
<path style="fill-rule:nonzero;fill:rgb(19.607843%,34.117647%,13.72549%);fill-opacity:1;stroke-width:0.4;stroke-linecap:round;stroke-linejoin:round;stroke:rgb(0%,0%,0%);stroke-opacity:1;stroke-miterlimit:4;" d="M 28.499996 72.199051 C 29.828121 71.742038 31.272131 71.742038 32.598954 72.199051 C 32.029943 73.460971 31.04036 74.485399 29.800777 75.100312 C 28.489579 75.622796 27.035152 75.658741 25.700517 75.200444 C 26.259111 73.90643 27.248694 72.847341 28.499996 72.199051 Z M 36.299474 69.999997 C 37.343745 70.839566 38.080724 71.998786 38.399734 73.300503 C 37.048172 73.454552 35.682287 73.174696 34.499995 72.50073 C 33.488277 71.649608 32.785152 70.490387 32.499995 69.200224 C 33.820308 69.052594 35.151037 69.333734 36.299474 69.999997 Z M 36.299474 69.999997 " transform="matrix(3,0,0,3.042857,0,0)"/>
<path style=" stroke:none;fill-rule:nonzero;fill:rgb(19.607843%,34.117647%,13.72549%);fill-opacity:1;" d="M 118.5 207.523438 C 121.957031 209.082031 124.804688 211.753906 126.601562 215.132812 C 123.046875 216.527344 119.125 216.636719 115.5 215.433594 C 112.105469 213.902344 109.34375 211.207031 107.703125 207.824219 C 111.183594 206.605469 114.953125 206.5 118.5 207.523438 Z M 118.5 207.523438 "/>
<path style=" stroke:none;fill-rule:nonzero;fill:rgb(5.098039%,22.745098%,7.058824%);fill-opacity:1;" d="M 121.199219 213 C 118.503906 213.941406 115.632812 214.253906 112.800781 213.914062 L 115.5 215.433594 C 119.125 216.636719 123.046875 216.527344 126.601562 215.132812 C 124.804688 211.753906 121.957031 209.082031 118.5 207.523438 L 116.097656 206.914062 C 118.207031 208.550781 119.945312 210.625 121.199219 213 Z M 121.199219 213 "/>
<path style="fill:none;stroke-width:0.4;stroke-linecap:round;stroke-linejoin:round;stroke:rgb(0%,0%,0%);stroke-opacity:1;stroke-miterlimit:4;" d="M 39.499994 68.200188 C 40.652338 68.712402 41.601557 69.590483 42.200515 70.700921 C 41.015619 71.159218 39.708328 71.195163 38.499995 70.799769 C 37.368484 70.296542 36.447912 69.410758 35.901037 68.299036 C 37.061193 67.898508 38.317703 67.863847 39.499994 68.200188 Z M 39.499994 68.200188 " transform="matrix(3,0,0,3.042857,0,0)"/>
<path style="fill-rule:nonzero;fill:rgb(19.607843%,34.117647%,13.72549%);fill-opacity:1;stroke-width:0.4;stroke-linecap:round;stroke-linejoin:round;stroke:rgb(0%,0%,0%);stroke-opacity:1;stroke-miterlimit:4;" d="M 40.299474 75.00018 C 39.398432 76.069539 38.166661 76.808976 36.800776 77.100385 C 36.645828 75.703672 36.962234 74.295405 37.699213 73.100239 C 38.58463 72.012908 39.824213 71.26962 41.200515 71.000034 C 41.355463 72.396747 41.036453 73.803731 40.299474 75.00018 Z M 49.600253 66.800907 C 49.024733 67.759864 48.144525 68.4993 47.098952 68.899828 C 46.372389 66.66483 47.575514 64.259093 49.799472 63.500401 C 50.07942 64.594151 50.01041 65.748237 49.600253 66.800907 Z M 49.600253 66.800907 " transform="matrix(3,0,0,3.042857,0,0)"/>
<path style=" stroke:none;fill-rule:nonzero;fill:rgb(19.607843%,34.117647%,13.72549%);fill-opacity:1;" d="M 164.101562 197.480469 C 160.546875 200.515625 156.132812 202.328125 151.5 202.65625 C 151.792969 197.886719 153.699219 193.375 156.898438 189.875 C 160.546875 186.796875 165.066406 184.984375 169.800781 184.699219 C 169.332031 189.480469 167.332031 193.96875 164.101562 197.480469 Z M 164.101562 197.480469 "/>
<path style=" stroke:none;fill-rule:nonzero;fill:rgb(5.098039%,22.745098%,7.058824%);fill-opacity:1;" d="M 156.597656 197.785156 C 156.902344 194.078125 158.140625 190.515625 160.203125 187.441406 L 156.898438 189.875 C 153.699219 193.375 151.792969 197.886719 151.5 202.65625 C 156.132812 202.328125 160.546875 200.515625 164.101562 197.480469 C 164.953125 196.820312 165.664062 195.992188 166.199219 195.046875 C 163.203125 196.570312 159.941406 197.496094 156.597656 197.785156 Z M 156.597656 197.785156 "/>
<path style="fill:none;stroke-width:0.4;stroke-linecap:round;stroke-linejoin:round;stroke:rgb(0%,0%,0%);stroke-opacity:1;stroke-miterlimit:4;" d="M 54.700513 64.899682 C 53.515618 65.897151 52.044264 66.492808 50.499993 66.600643 C 50.597649 65.033191 51.233066 63.550467 52.299472 62.400232 C 53.515618 61.388642 55.022128 60.792984 56.600253 60.699271 C 56.444003 62.270574 55.777336 63.745596 54.700513 64.899682 Z M 54.700513 64.899682 " transform="matrix(3,0,0,3.042857,0,0)"/>
<path style="fill-rule:nonzero;fill:rgb(19.607843%,34.117647%,13.72549%);fill-opacity:1;stroke-width:0.4;stroke-linecap:round;stroke-linejoin:round;stroke:rgb(0%,0%,0%);stroke-opacity:1;stroke-miterlimit:4;" d="M 51.499993 68.400452 C 50.519524 68.266942 49.626295 67.767566 48.999993 67.001171 C 49.799472 66.469701 50.740878 66.191128 51.700514 66.198831 C 52.653638 66.406797 53.524732 66.89462 54.199211 67.600679 C 53.421868 68.17708 52.466138 68.459504 51.499993 68.400452 Z M 51.499993 68.400452 " transform="matrix(3,0,0,3.042857,0,0)"/>
<path style=" stroke:none;fill-rule:nonzero;fill:rgb(19.607843%,34.117647%,13.72549%);fill-opacity:1;" d="M 147.296875 218.175781 C 144.945312 216.542969 143.160156 214.199219 142.199219 211.476562 C 144.921875 210.8125 147.789062 211.140625 150.296875 212.390625 C 152.753906 213.914062 154.566406 216.296875 155.398438 219.085938 C 152.671875 219.578125 149.855469 219.261719 147.296875 218.175781 Z M 147.296875 218.175781 "/>
<path style=" stroke:none;fill-rule:nonzero;fill:rgb(5.098039%,22.745098%,7.058824%);fill-opacity:1;" d="M 145.800781 213.609375 C 147.996094 213.265625 150.238281 213.367188 152.398438 213.914062 C 151.828125 213.242188 151.109375 212.71875 150.296875 212.390625 C 147.789062 211.140625 144.921875 210.8125 142.199219 211.476562 C 143.160156 214.199219 144.945312 216.542969 147.296875 218.175781 L 149.101562 218.78125 C 147.589844 217.363281 146.457031 215.585938 145.800781 213.609375 Z M 145.800781 213.609375 "/>
<path style="fill:none;stroke-width:0.4;stroke-linecap:round;stroke-linejoin:round;stroke:rgb(0%,0%,0%);stroke-opacity:1;stroke-miterlimit:4;" d="M 49.098951 71.700958 C 48.315097 71.164353 47.720045 70.394106 47.399733 69.499337 C 48.307285 69.2811 49.263014 69.388935 50.098951 69.799733 C 50.917962 70.300393 51.522128 71.083477 51.799472 72.00007 C 50.890618 72.161822 49.951816 72.057839 49.098951 71.700958 Z M 49.098951 71.700958 " transform="matrix(3,0,0,3.042857,0,0)"/>
<path style=" stroke:none;fill-rule:nonzero;fill:rgb(19.607843%,34.117647%,13.72549%);fill-opacity:1;" d="M 183.601562 210.261719 C 179.460938 208.089844 176.179688 204.542969 174.300781 200.21875 C 178.816406 198.851562 183.644531 198.957031 188.101562 200.523438 C 192.21875 202.867188 195.480469 206.492188 197.402344 210.867188 C 192.859375 212.226562 188.007812 212.015625 183.601562 210.261719 Z M 183.601562 210.261719 "/>
<path style=" stroke:none;fill-rule:nonzero;fill:rgb(5.098039%,22.745098%,7.058824%);fill-opacity:1;" d="M 180.597656 203.265625 C 184.136719 202.371094 187.820312 202.265625 191.402344 202.957031 L 188.101562 200.523438 C 183.644531 198.957031 178.816406 198.851562 174.300781 200.21875 C 176.179688 204.542969 179.460938 208.089844 183.601562 210.261719 L 186.601562 211.476562 C 184.074219 209.179688 182.035156 206.382812 180.597656 203.265625 Z M 180.597656 203.265625 "/>
<path style="fill:none;stroke-width:0.4;stroke-linecap:round;stroke-linejoin:round;stroke:rgb(0%,0%,0%);stroke-opacity:1;stroke-miterlimit:4;" d="M 61.200512 69.100092 C 59.820304 68.386331 58.726554 67.220691 58.100252 65.799586 C 59.60546 65.350276 61.214835 65.384937 62.700512 65.899718 C 64.072908 66.669965 65.160147 67.861279 65.800772 69.299073 C 64.286449 69.745816 62.669262 69.676493 61.200512 69.100092 Z M 61.200512 69.100092 " transform="matrix(3,0,0,3.042857,0,0)"/>
<path style="fill-rule:nonzero;fill:rgb(19.607843%,34.117647%,13.72549%);fill-opacity:1;stroke-width:0.4;stroke-linecap:round;stroke-linejoin:round;stroke:rgb(0%,0%,0%);stroke-opacity:1;stroke-miterlimit:4;" d="M 55.999992 68.699564 C 55.450513 67.912629 55.201815 66.954956 55.299471 65.99985 C 56.225253 66.146197 57.071607 66.604494 57.700513 67.300283 C 58.261711 68.084651 58.544263 69.035905 58.499992 69.999997 C 57.544263 69.860069 56.664055 69.401772 55.999992 68.699564 Z M 55.999992 68.699564 " transform="matrix(3,0,0,3.042857,0,0)"/>
<path style="fill-rule:nonzero;fill:rgb(19.607843%,34.117647%,13.72549%);fill-opacity:1;stroke-width:0.4;stroke-linecap:round;stroke-linejoin:round;stroke:rgb(0%,0%,0%);stroke-opacity:1;stroke-miterlimit:4;" d="M 56.999992 63.200005 C 58.425773 62.890622 59.916658 63.103724 61.200512 63.799513 C 60.369783 65.004949 59.179679 65.915123 57.800773 66.400379 C 56.371086 66.653276 54.899732 66.442742 53.600253 65.799586 C 54.428378 64.595434 55.619784 63.683976 56.999992 63.200005 Z M 56.999992 63.200005 " transform="matrix(3,0,0,3.042857,0,0)"/>
<path style=" stroke:none;fill-rule:nonzero;fill:rgb(19.607843%,34.117647%,13.72549%);fill-opacity:1;" d="M 177.898438 234.300781 C 180.207031 231.714844 183.246094 229.90625 186.601562 229.125 C 186.886719 232.648438 186.042969 236.167969 184.199219 239.167969 C 181.890625 241.757812 178.851562 243.5625 175.5 244.339844 C 175.214844 240.816406 176.058594 237.296875 177.898438 234.300781 Z M 177.898438 234.300781 "/>
<path style=" stroke:none;fill-rule:nonzero;fill:rgb(5.098039%,22.745098%,7.058824%);fill-opacity:1;" d="M 183.300781 233.386719 C 183.609375 235.988281 183.195312 238.621094 182.101562 240.992188 C 183 240.691406 183.601562 239.777344 184.199219 239.167969 C 186.042969 236.167969 186.886719 232.648438 186.601562 229.125 C 183.246094 229.90625 180.207031 231.714844 177.898438 234.300781 L 177 236.429688 C 178.816406 234.894531 180.984375 233.847656 183.300781 233.386719 Z M 183.300781 233.386719 "/>
<path style="fill:none;stroke-width:0.4;stroke-linecap:round;stroke-linejoin:round;stroke:rgb(0%,0%,0%);stroke-opacity:1;stroke-miterlimit:4;" d="M 59.299471 77.000253 C 60.069002 76.150415 61.082023 75.556041 62.200512 75.299292 C 62.295564 76.45723 62.014314 77.613883 61.399731 78.599798 C 60.6302 79.450921 59.617179 80.044011 58.499992 80.299476 C 58.40494 79.141538 58.68619 77.984885 59.299471 77.000253 Z M 59.299471 77.000253 " transform="matrix(3,0,0,3.042857,0,0)"/>
<path style="fill-rule:nonzero;fill:rgb(19.607843%,34.117647%,13.72549%);fill-opacity:1;stroke-width:0.4;stroke-linecap:round;stroke-linejoin:round;stroke:rgb(0%,0%,0%);stroke-opacity:1;stroke-miterlimit:4;" d="M 64.901033 74.799916 C 65.076814 76.185076 64.795564 77.589492 64.100251 78.800063 C 62.976554 77.996439 62.164054 76.832083 61.800773 75.499557 C 61.545564 74.092573 61.79296 72.641942 62.499991 71.399278 C 63.656241 72.233712 64.501293 73.431445 64.901033 74.799916 Z M 64.901033 74.799916 " transform="matrix(3,0,0,3.042857,0,0)"/>
<path style=" stroke:none;fill-rule:nonzero;fill:rgb(99.607843%,74.901961%,6.27451%);fill-opacity:1;" d="M 81 204.785156 C 79.5 202.65625 81 197.480469 81 197.480469 C 81 197.480469 86.402344 197.175781 88.199219 199.609375 C 89.523438 200.878906 89.96875 202.832031 89.316406 204.558594 C 88.667969 206.289062 87.054688 207.445312 85.230469 207.492188 C 83.410156 207.542969 81.738281 206.476562 81 204.785156 Z M 81 204.785156 "/>
<path style=" stroke:none;fill-rule:nonzero;fill:rgb(81.568627%,60.784314%,2.745098%);fill-opacity:1;" d="M 84 206.609375 C 82.800781 205.089844 84 201.132812 84 201.132812 C 84 201.132812 87.898438 201.132812 89.101562 202.65625 C 90.28125 204.210938 90.152344 206.417969 88.800781 207.824219 C 87.117188 208.636719 85.109375 208.125 84 206.609375 Z M 84 206.609375 "/>
<path style="fill:none;stroke-width:0.4;stroke-linecap:round;stroke-linejoin:round;stroke:rgb(0%,0%,0%);stroke-opacity:1;stroke-miterlimit:4;" d="M 26.999996 67.300283 C 26.499996 66.600643 26.999996 64.899682 26.999996 64.899682 C 26.999996 64.899682 28.800777 64.79955 29.399735 65.599322 C 29.841142 66.016539 29.989579 66.658411 29.772131 67.225826 C 29.555985 67.794525 29.018225 68.174513 28.410152 68.189918 C 27.803382 68.206606 27.24609 67.856144 26.999996 67.300283 Z M 26.999996 67.300283 " transform="matrix(3,0,0,3.042857,0,0)"/>
<path style=" stroke:none;fill-rule:nonzero;fill:rgb(99.607843%,74.901961%,6.27451%);fill-opacity:1;" d="M 90.300781 199.609375 C 91.5 197.175781 96.601562 196.265625 96.601562 196.265625 C 96.601562 196.265625 99.300781 201.132812 98.101562 203.566406 C 97.632812 204.785156 96.703125 205.761719 95.519531 206.277344 C 94.332031 206.792969 92.992188 206.804688 91.800781 206.308594 C 89.570312 204.875 88.898438 201.878906 90.300781 199.609375 Z M 90.300781 199.609375 "/>
<path style=" stroke:none;fill-rule:nonzero;fill:rgb(99.607843%,74.901961%,6.27451%);fill-opacity:1;" d="M 99.300781 206.914062 C 102 207.824219 103.199219 213.304688 103.199219 213.304688 C 103.199219 213.304688 98.699219 216.042969 96 215.132812 C 93.539062 214.261719 92.203125 211.5625 93 209.042969 C 93.515625 207.871094 94.488281 206.980469 95.6875 206.570312 C 96.882812 206.164062 98.195312 206.292969 99.300781 206.914062 Z M 99.300781 206.914062 "/>
<path style=" stroke:none;fill-rule:nonzero;fill:rgb(81.568627%,60.784314%,2.745098%);fill-opacity:1;" d="M 89.699219 202.957031 C 90.597656 201.132812 94.5 200.828125 94.5 200.828125 C 94.5 200.828125 96.300781 204.480469 95.101562 206 C 94.273438 207.515625 92.390625 208.058594 90.898438 207.21875 C 89.40625 206.375 88.871094 204.472656 89.699219 202.957031 Z M 89.699219 202.957031 "/>
<path style=" stroke:none;fill-rule:nonzero;fill:rgb(81.568627%,60.784314%,2.745098%);fill-opacity:1;" d="M 95.402344 206.914062 C 97.5 207.824219 98.402344 211.476562 98.402344 211.476562 C 98.402344 211.476562 95.101562 213.609375 93.300781 213 C 91.90625 212.910156 90.71875 211.9375 90.339844 210.578125 C 89.957031 209.214844 90.460938 207.757812 91.597656 206.933594 C 92.734375 206.113281 94.253906 206.101562 95.402344 206.914062 Z M 95.402344 206.914062 "/>
<path style=" stroke:none;fill-rule:nonzero;fill:rgb(99.607843%,74.901961%,6.27451%);fill-opacity:1;" d="M 94.800781 216.347656 C 95.101562 219.085938 90.898438 222.734375 90.898438 222.734375 C 90.898438 222.734375 86.402344 220.300781 86.101562 217.257812 C 85.835938 216.046875 86.070312 214.777344 86.75 213.746094 C 87.425781 212.710938 88.496094 212.003906 89.699219 211.78125 C 90.972656 211.699219 92.230469 212.136719 93.183594 212.988281 C 94.140625 213.847656 94.722656 215.054688 94.800781 216.347656 Z M 94.800781 216.347656 "/>
<path style=" stroke:none;fill-rule:nonzero;fill:rgb(81.568627%,60.784314%,2.745098%);fill-opacity:1;" d="M 93.597656 213.304688 C 93.597656 215.433594 90.597656 217.867188 90.597656 217.867188 C 90.597656 217.867188 87.300781 215.738281 87.300781 213.609375 C 87.128906 212.671875 87.355469 211.703125 87.929688 210.949219 C 88.5 210.195312 89.363281 209.722656 90.300781 209.652344 C 92.109375 209.933594 93.480469 211.453125 93.597656 213.304688 Z M 93.597656 213.304688 "/>
<path style=" stroke:none;fill-rule:nonzero;fill:rgb(99.607843%,74.901961%,6.27451%);fill-opacity:1;" d="M 84.300781 215.738281 C 81.597656 216.957031 76.800781 214.523438 76.800781 214.523438 C 76.800781 214.523438 77.699219 209.042969 80.402344 207.824219 C 82.648438 206.660156 85.398438 207.460938 86.699219 209.652344 C 87.199219 210.78125 87.222656 212.066406 86.769531 213.210938 C 86.316406 214.359375 85.425781 215.269531 84.300781 215.738281 Z M 84.300781 215.738281 "/>
<path style="fill:none;stroke-width:0.4;stroke-linecap:round;stroke-linejoin:round;stroke:rgb(0%,0%,0%);stroke-opacity:1;stroke-miterlimit:4;" d="M 30.100256 65.599322 C 30.499996 64.79955 32.200516 64.500437 32.200516 64.500437 C 32.200516 64.500437 33.100256 66.099982 32.700516 66.899755 C 32.544266 67.300283 32.23437 67.621219 31.839839 67.790673 C 31.444006 67.960128 30.997392 67.963979 30.600256 67.800943 C 29.856767 67.329809 29.632808 66.345178 30.100256 65.599322 Z M 30.100256 65.599322 " transform="matrix(3,0,0,3.042857,0,0)"/>
<path style=" stroke:none;fill-rule:nonzero;fill:rgb(81.568627%,60.784314%,2.745098%);fill-opacity:1;" d="M 86.402344 213.609375 C 84.300781 214.21875 81.300781 211.78125 81.300781 211.78125 C 81.300781 211.78125 82.5 208.132812 84.300781 207.523438 C 86.101562 206.914062 88.199219 207.523438 88.800781 209.347656 C 89.074219 210.238281 88.96875 211.199219 88.515625 212.011719 C 88.058594 212.816406 87.292969 213.398438 86.402344 213.609375 Z M 86.402344 213.609375 "/>
<path style="fill:none;stroke-width:0.4;stroke-linecap:round;stroke-linejoin:round;stroke:rgb(0%,0%,0%);stroke-opacity:1;stroke-miterlimit:4;" d="M 33.100256 67.999924 C 33.999995 68.299036 34.399735 70.100129 34.399735 70.100129 C 34.399735 70.100129 32.899735 71.000034 31.999996 70.700921 C 31.179683 70.414646 30.734371 69.527579 30.999996 68.699564 C 31.171871 68.314441 31.496089 68.021747 31.895829 67.886954 C 32.294266 67.753445 32.731766 67.795808 33.100256 67.999924 Z M 33.100256 67.999924 " transform="matrix(3,0,0,3.042857,0,0)"/>
<path style="fill:none;stroke-width:0.4;stroke-linecap:round;stroke-linejoin:round;stroke:rgb(0%,0%,0%);stroke-opacity:1;stroke-miterlimit:4;" d="M 31.600256 71.100166 C 31.700516 72.00007 30.299475 73.199087 30.299475 73.199087 C 30.299475 73.199087 28.800777 72.399315 28.700517 71.399278 C 28.611975 71.001317 28.6901 70.5841 28.916663 70.245192 C 29.141923 69.905 29.498694 69.672642 29.899735 69.599469 C 30.324215 69.57251 30.743485 69.716289 31.061194 69.996146 C 31.380204 70.278569 31.574214 70.675246 31.600256 71.100166 Z M 31.600256 71.100166 " transform="matrix(3,0,0,3.042857,0,0)"/>
<path style="fill:none;stroke-width:0.4;stroke-linecap:round;stroke-linejoin:round;stroke:rgb(0%,0%,0%);stroke-opacity:1;stroke-miterlimit:4;" d="M 28.100256 70.899902 C 27.199215 71.30043 25.600257 70.500657 25.600257 70.500657 C 25.600257 70.500657 25.899736 68.699564 26.800778 68.299036 C 27.549475 67.91648 28.466142 68.179648 28.899736 68.899828 C 29.066402 69.27083 29.074215 69.693182 28.923173 70.069319 C 28.772131 70.44674 28.475256 70.745852 28.100256 70.899902 Z M 28.100256 70.899902 " transform="matrix(3,0,0,3.042857,0,0)"/>
<path style="fill-rule:nonzero;fill:rgb(100%,0%,0%);fill-opacity:1;stroke-width:0.4;stroke-linecap:round;stroke-linejoin:round;stroke:rgb(0%,0%,0%);stroke-opacity:1;stroke-miterlimit:4;" d="M 31.299475 68.600716 C 31.299475 69.427447 30.628902 70.100129 29.800777 70.100129 C 28.97135 70.100129 28.299475 69.427447 28.299475 68.600716 C 28.299475 67.771417 28.97135 67.100019 29.800777 67.100019 C 30.628902 67.100019 31.299475 67.771417 31.299475 68.600716 Z M 31.299475 68.600716 " transform="matrix(3,0,0,3.042857,0,0)"/>
<path style="fill-rule:nonzero;fill:rgb(59.607843%,3.137255%,1.960784%);fill-opacity:1;stroke-width:0.4;stroke-linecap:round;stroke-linejoin:round;stroke:rgb(0%,0%,0%);stroke-opacity:1;stroke-miterlimit:4;" d="M 30.399735 68.600716 C 30.399735 68.931922 30.131506 69.200224 29.800777 69.200224 C 29.468746 69.200224 29.199215 68.931922 29.199215 68.600716 C 29.199215 68.268226 29.468746 67.999924 29.800777 67.999924 C 30.131506 67.999924 30.399735 68.268226 30.399735 68.600716 Z M 30.399735 68.600716 " transform="matrix(3,0,0,3.042857,0,0)"/>
<path style=" stroke:none;fill-rule:nonzero;fill:rgb(99.607843%,74.901961%,6.27451%);fill-opacity:1;" d="M 127.800781 208.132812 C 126.902344 205.390625 129.902344 200.828125 129.902344 200.828125 C 129.902344 200.828125 135.300781 202.351562 136.199219 205.089844 C 137.257812 207.527344 136.191406 210.371094 133.800781 211.476562 C 131.25 212.089844 128.65625 210.644531 127.800781 208.132812 Z M 127.800781 208.132812 "/>
<path style=" stroke:none;fill-rule:nonzero;fill:rgb(81.568627%,60.784314%,2.745098%);fill-opacity:1;" d="M 130.199219 210.566406 C 129.300781 208.742188 131.699219 205.390625 131.699219 205.390625 C 131.699219 205.390625 135.300781 206.308594 136.199219 208.433594 C 136.851562 210.199219 136.074219 212.179688 134.398438 213 C 133.527344 213.277344 132.570312 213.175781 131.773438 212.710938 C 130.980469 212.25 130.410156 211.472656 130.199219 210.566406 Z M 130.199219 210.566406 "/>
<path style="fill:none;stroke-width:0.4;stroke-linecap:round;stroke-linejoin:round;stroke:rgb(0%,0%,0%);stroke-opacity:1;stroke-miterlimit:4;" d="M 42.600254 68.400452 C 42.300775 67.499263 43.300775 65.99985 43.300775 65.99985 C 43.300775 65.99985 45.100254 66.500511 45.399733 67.400415 C 45.752598 68.201471 45.397129 69.136037 44.600254 69.499337 C 43.749994 69.700885 42.885411 69.225899 42.600254 68.400452 Z M 42.600254 68.400452 " transform="matrix(3,0,0,3.042857,0,0)"/>
<path style=" stroke:none;fill-rule:nonzero;fill:rgb(99.607843%,74.901961%,6.27451%);fill-opacity:1;" d="M 138 205.699219 C 140.101562 203.566406 145.199219 204.480469 145.199219 204.480469 C 145.199219 204.480469 146.398438 209.652344 144.296875 211.78125 C 143.535156 212.800781 142.386719 213.441406 141.128906 213.558594 C 139.875 213.671875 138.632812 213.25 137.699219 212.390625 C 136.027344 210.433594 136.160156 207.492188 138 205.699219 Z M 138 205.699219 "/>
<path style=" stroke:none;fill-rule:nonzero;fill:rgb(99.607843%,74.901961%,6.27451%);fill-opacity:1;" d="M 144.902344 215.132812 C 147 216.957031 146.699219 222.433594 146.699219 222.433594 C 146.699219 222.433594 141.601562 223.953125 139.5 222.125 C 138.40625 221.449219 137.65625 220.332031 137.425781 219.054688 C 137.195312 217.777344 137.511719 216.460938 138.300781 215.433594 C 140.070312 213.570312 142.972656 213.433594 144.902344 215.132812 Z M 144.902344 215.132812 "/>
<path style=" stroke:none;fill-rule:nonzero;fill:rgb(81.568627%,60.784314%,2.745098%);fill-opacity:1;" d="M 136.800781 208.742188 C 138 207.21875 141.902344 208.132812 141.902344 208.132812 C 141.902344 208.132812 142.5 211.78125 141 213.304688 C 140.417969 214.015625 139.574219 214.453125 138.664062 214.511719 C 137.757812 214.566406 136.867188 214.242188 136.199219 213.609375 C 135.609375 212.894531 135.339844 211.964844 135.453125 211.039062 C 135.570312 210.117188 136.054688 209.285156 136.800781 208.742188 Z M 136.800781 208.742188 "/>
<path style=" stroke:none;fill-rule:nonzero;fill:rgb(81.568627%,60.784314%,2.745098%);fill-opacity:1;" d="M 141 214.21875 C 142.800781 215.433594 142.5 219.390625 142.5 219.390625 C 142.5 219.390625 138.902344 220.609375 137.097656 219.390625 C 135.710938 218.183594 135.339844 216.15625 136.199219 214.523438 C 136.78125 213.808594 137.625 213.375 138.535156 213.316406 C 139.445312 213.257812 140.335938 213.582031 141 214.21875 Z M 141 214.21875 "/>
<path style=" stroke:none;fill-rule:nonzero;fill:rgb(99.607843%,74.901961%,6.27451%);fill-opacity:1;" d="M 137.699219 223.042969 C 137.398438 225.78125 132.300781 228.214844 132.300781 228.214844 C 132.300781 228.214844 128.699219 224.257812 129 221.519531 C 129.148438 220.226562 129.804688 219.042969 130.820312 218.242188 C 131.835938 217.441406 133.125 217.085938 134.398438 217.257812 C 135.617188 217.542969 136.664062 218.324219 137.289062 219.421875 C 137.914062 220.515625 138.0625 221.832031 137.699219 223.042969 Z M 137.699219 223.042969 "/>
<path style=" stroke:none;fill-rule:nonzero;fill:rgb(81.568627%,60.784314%,2.745098%);fill-opacity:1;" d="M 137.398438 219.691406 C 137.097656 221.824219 133.5 223.34375 133.5 223.34375 C 133.5 223.34375 130.800781 220.300781 131.398438 218.175781 C 131.449219 217.234375 131.925781 216.367188 132.6875 215.835938 C 133.453125 215.300781 134.414062 215.148438 135.300781 215.433594 C 136.191406 215.628906 136.953125 216.222656 137.363281 217.050781 C 137.773438 217.878906 137.785156 218.851562 137.398438 219.691406 Z M 137.398438 219.691406 "/>
<path style=" stroke:none;fill-rule:nonzero;fill:rgb(99.607843%,74.901961%,6.27451%);fill-opacity:1;" d="M 127.800781 219.390625 C 125.097656 220 121.199219 216.042969 121.199219 216.042969 C 121.199219 216.042969 123.601562 211.175781 126.300781 210.867188 C 128.617188 210.449219 130.835938 212.019531 131.25 214.367188 C 131.664062 216.722656 130.121094 218.96875 127.800781 219.390625 Z M 127.800781 219.390625 "/>
<path style="fill:none;stroke-width:0.4;stroke-linecap:round;stroke-linejoin:round;stroke:rgb(0%,0%,0%);stroke-opacity:1;stroke-miterlimit:4;" d="M 45.999994 67.600679 C 46.700514 66.899755 48.399733 67.200151 48.399733 67.200151 C 48.399733 67.200151 48.799472 68.899828 48.098952 69.599469 C 47.845045 69.934526 47.462233 70.14506 47.042962 70.183572 C 46.624993 70.220801 46.210931 70.082157 45.899733 69.799733 C 45.342442 69.156577 45.386712 68.189918 45.999994 67.600679 Z M 45.999994 67.600679 " transform="matrix(3,0,0,3.042857,0,0)"/>
<path style=" stroke:none;fill-rule:nonzero;fill:rgb(81.568627%,60.784314%,2.745098%);fill-opacity:1;" d="M 130.5 217.867188 C 128.398438 217.867188 126 214.824219 126 214.824219 C 126 214.824219 128.398438 211.476562 130.199219 211.476562 C 132 211.476562 134.097656 212.695312 134.097656 214.523438 C 134.101562 215.464844 133.714844 216.363281 133.027344 217.003906 C 132.34375 217.636719 131.425781 217.957031 130.5 217.867188 Z M 130.5 217.867188 "/>
<path style="fill:none;stroke-width:0.4;stroke-linecap:round;stroke-linejoin:round;stroke:rgb(0%,0%,0%);stroke-opacity:1;stroke-miterlimit:4;" d="M 48.300774 70.700921 C 48.999993 71.30043 48.899733 73.100239 48.899733 73.100239 C 48.899733 73.100239 47.200514 73.600899 46.499994 72.998823 C 46.13541 72.776735 45.88541 72.409585 45.808587 71.9898 C 45.731764 71.570016 45.837233 71.137394 46.100254 70.799769 C 46.690098 70.187424 47.657545 70.142493 48.300774 70.700921 Z M 48.300774 70.700921 " transform="matrix(3,0,0,3.042857,0,0)"/>
<path style="fill:none;stroke-width:0.4;stroke-linecap:round;stroke-linejoin:round;stroke:rgb(0%,0%,0%);stroke-opacity:1;stroke-miterlimit:4;" d="M 45.899733 73.300503 C 45.799473 74.200408 44.100254 75.00018 44.100254 75.00018 C 44.100254 75.00018 42.899734 73.699747 42.999994 72.799843 C 43.049473 72.374923 43.268223 71.985949 43.606765 71.722781 C 43.945306 71.459614 44.374994 71.342793 44.799473 71.399278 C 45.205723 71.492991 45.554681 71.74974 45.763014 72.110472 C 45.971348 72.469921 46.020827 72.902542 45.899733 73.300503 Z M 42.600254 72.100202 C 41.699213 72.300466 40.399734 71.000034 40.399734 71.000034 C 40.399734 71.000034 41.200515 69.400488 42.100255 69.299073 C 42.87239 69.161712 43.611973 69.677777 43.749994 70.449307 C 43.888015 71.223405 43.373692 71.961558 42.600254 72.100202 Z M 42.600254 72.100202 " transform="matrix(3,0,0,3.042857,0,0)"/>
<path style="fill-rule:nonzero;fill:rgb(100%,0%,0%);fill-opacity:1;stroke-width:0.4;stroke-linecap:round;stroke-linejoin:round;stroke:rgb(0%,0%,0%);stroke-opacity:1;stroke-miterlimit:4;" d="M 46.399733 70.400525 C 46.399733 71.22854 45.727858 71.899938 44.899733 71.899938 C 44.071608 71.899938 43.399734 71.22854 43.399734 70.400525 C 43.399734 69.571226 44.071608 68.899828 44.899733 68.899828 C 45.727858 68.899828 46.399733 69.571226 46.399733 70.400525 Z M 46.399733 70.400525 " transform="matrix(3,0,0,3.042857,0,0)"/>
<path style="fill-rule:nonzero;fill:rgb(59.607843%,3.137255%,1.960784%);fill-opacity:1;stroke-width:0.4;stroke-linecap:round;stroke-linejoin:round;stroke:rgb(0%,0%,0%);stroke-opacity:1;stroke-miterlimit:4;" d="M 45.499994 70.400525 C 45.499994 70.731731 45.230462 71.000034 44.899733 71.000034 C 44.567702 71.000034 44.300775 70.731731 44.300775 70.400525 C 44.300775 70.068035 44.567702 69.799733 44.899733 69.799733 C 45.230462 69.799733 45.499994 70.068035 45.499994 70.400525 Z M 45.499994 70.400525 " transform="matrix(3,0,0,3.042857,0,0)"/>
<path style=" stroke:none;fill-rule:nonzero;fill:rgb(99.607843%,74.901961%,6.27451%);fill-opacity:1;" d="M 168.300781 219.390625 C 165.898438 218.175781 165.597656 212.695312 165.597656 212.695312 C 165.597656 212.695312 170.402344 210.261719 172.800781 211.78125 C 174.582031 212.347656 175.835938 213.96875 175.953125 215.855469 C 176.066406 217.742188 175.023438 219.511719 173.324219 220.292969 C 171.628906 221.078125 169.628906 220.71875 168.300781 219.390625 Z M 168.300781 219.390625 "/>
<path style=" stroke:none;fill-rule:nonzero;fill:rgb(81.568627%,60.784314%,2.745098%);fill-opacity:1;" d="M 171.597656 220 C 169.800781 218.78125 169.5 215.132812 169.5 215.132812 C 169.5 215.132812 173.101562 213.304688 174.898438 214.21875 C 176.003906 214.769531 176.707031 215.902344 176.734375 217.148438 C 176.757812 218.394531 176.097656 219.554688 175.019531 220.152344 C 173.941406 220.75 172.621094 220.691406 171.597656 220 Z M 171.597656 220 "/>
<path style="fill:none;stroke-width:0.4;stroke-linecap:round;stroke-linejoin:round;stroke:rgb(0%,0%,0%);stroke-opacity:1;stroke-miterlimit:4;" d="M 56.100253 72.100202 C 55.299471 71.700958 55.199211 69.899865 55.199211 69.899865 C 55.199211 69.899865 56.800773 69.100092 57.600252 69.599469 C 58.194002 69.785612 58.611971 70.318365 58.651033 70.938414 C 58.688794 71.558462 58.341138 72.139998 57.774732 72.396747 C 57.209627 72.65478 56.542961 72.536675 56.100253 72.100202 Z M 56.100253 72.100202 " transform="matrix(3,0,0,3.042857,0,0)"/>
<path style=" stroke:none;fill-rule:nonzero;fill:rgb(99.607843%,74.901961%,6.27451%);fill-opacity:1;" d="M 174.597656 211.175781 C 174.898438 208.132812 179.402344 205.390625 179.402344 205.390625 C 179.402344 205.390625 183.601562 208.742188 183.300781 211.476562 C 183.488281 212.761719 183.085938 214.066406 182.207031 215.015625 C 181.335938 215.964844 180.078125 216.453125 178.800781 216.347656 C 176.265625 216.027344 174.421875 213.753906 174.597656 211.175781 Z M 174.597656 211.175781 "/>
<path style=" stroke:none;fill-rule:nonzero;fill:rgb(99.607843%,74.901961%,6.27451%);fill-opacity:1;" d="M 186 213.914062 C 188.699219 213.914062 192 218.175781 192 218.175781 C 192 218.175781 189 222.734375 186 222.734375 C 183.453125 222.917969 181.214844 221.046875 180.898438 218.476562 C 181.207031 215.859375 183.402344 213.894531 186 213.914062 Z M 186 213.914062 "/>
<path style=" stroke:none;fill-rule:nonzero;fill:rgb(81.568627%,60.784314%,2.745098%);fill-opacity:1;" d="M 175.5 214.21875 C 175.800781 212.085938 179.101562 210.261719 179.101562 210.261719 C 179.101562 210.261719 182.101562 213 181.800781 214.824219 C 181.5 216.652344 180 218.476562 178.199219 218.175781 C 177.273438 218.125 176.421875 217.640625 175.894531 216.863281 C 175.367188 216.089844 175.21875 215.113281 175.5 214.21875 Z M 175.5 214.21875 "/>
<path style=" stroke:none;fill-rule:nonzero;fill:rgb(81.568627%,60.784314%,2.745098%);fill-opacity:1;" d="M 182.402344 215.433594 C 184.5 215.433594 186.898438 218.78125 186.898438 218.78125 C 186.898438 218.78125 184.796875 221.824219 182.699219 222.125 C 181.742188 222.214844 180.796875 221.90625 180.0625 221.277344 C 179.332031 220.648438 178.875 219.75 178.800781 218.78125 C 179.074219 216.949219 180.574219 215.554688 182.402344 215.433594 Z M 182.402344 215.433594 "/>
<path style=" stroke:none;fill-rule:nonzero;fill:rgb(99.607843%,74.901961%,6.27451%);fill-opacity:1;" d="M 185.402344 224.566406 C 186.898438 227 184.5 231.867188 184.5 231.867188 C 184.5 231.867188 179.101562 231.257812 177.898438 228.824219 C 176.441406 226.628906 176.972656 223.660156 179.101562 222.125 C 181.503906 221.058594 184.308594 222.140625 185.402344 224.566406 Z M 185.402344 224.566406 "/>
<path style=" stroke:none;fill-rule:nonzero;fill:rgb(81.568627%,60.784314%,2.745098%);fill-opacity:1;" d="M 183 222.125 C 183.898438 223.953125 182.101562 227.605469 182.101562 227.605469 C 182.101562 227.605469 178.199219 227 177.300781 224.867188 C 176.394531 223.269531 176.929688 221.230469 178.5 220.300781 C 179.332031 219.902344 180.289062 219.871094 181.144531 220.21875 C 182 220.566406 182.671875 221.257812 183 222.125 Z M 183 222.125 "/>
<path style=" stroke:none;fill-rule:nonzero;fill:rgb(99.607843%,74.901961%,6.27451%);fill-opacity:1;" d="M 175.5 228.214844 C 173.699219 230.34375 168.300781 230.039062 168.300781 230.039062 C 168.300781 230.039062 167.101562 224.566406 168.898438 222.433594 C 170.5 220.378906 173.414062 219.972656 175.5 221.519531 C 177.253906 223.398438 177.253906 226.339844 175.5 228.214844 Z M 175.5 228.214844 "/>
<path style="fill:none;stroke-width:0.4;stroke-linecap:round;stroke-linejoin:round;stroke:rgb(0%,0%,0%);stroke-opacity:1;stroke-miterlimit:4;" d="M 58.199211 69.400488 C 58.299471 68.400452 59.800773 67.499263 59.800773 67.499263 C 59.800773 67.499263 61.200512 68.600716 61.100252 69.499337 C 61.162752 69.921689 61.028637 70.350459 60.735669 70.662409 C 60.445304 70.974359 60.026033 71.134827 59.600252 71.100166 C 58.7552 70.994899 58.140617 70.24776 58.199211 69.400488 Z M 58.199211 69.400488 " transform="matrix(3,0,0,3.042857,0,0)"/>
<path style=" stroke:none;fill-rule:nonzero;fill:rgb(81.568627%,60.784314%,2.745098%);fill-opacity:1;" d="M 176.699219 225.476562 C 175.199219 226.691406 171.300781 225.78125 171.300781 225.78125 C 171.300781 225.78125 171 221.824219 172.5 220.609375 C 173.066406 219.84375 173.957031 219.390625 174.898438 219.390625 C 175.84375 219.390625 176.734375 219.84375 177.300781 220.609375 C 177.890625 221.320312 178.164062 222.25 178.046875 223.175781 C 177.933594 224.097656 177.445312 224.933594 176.699219 225.476562 Z M 176.699219 225.476562 "/>
<path style="fill:none;stroke-width:0.4;stroke-linecap:round;stroke-linejoin:round;stroke:rgb(0%,0%,0%);stroke-opacity:1;stroke-miterlimit:4;" d="M 61.999991 70.300393 C 62.899731 70.300393 63.999991 71.700958 63.999991 71.700958 C 63.999991 71.700958 62.999991 73.199087 61.999991 73.199087 C 61.151033 73.259423 60.404939 72.64451 60.299471 71.799806 C 60.402335 70.939698 61.134106 70.293974 61.999991 70.300393 Z M 61.999991 70.300393 " transform="matrix(3,0,0,3.042857,0,0)"/>
<path style="fill:none;stroke-width:0.4;stroke-linecap:round;stroke-linejoin:round;stroke:rgb(0%,0%,0%);stroke-opacity:1;stroke-miterlimit:4;" d="M 61.800773 73.801163 C 62.29947 74.600936 61.499991 76.200481 61.499991 76.200481 C 61.499991 76.200481 59.700512 76.000217 59.299471 75.200444 C 58.813794 74.47898 58.990877 73.503335 59.700512 72.998823 C 60.501294 72.648361 61.436189 73.003958 61.800773 73.801163 Z M 61.800773 73.801163 " transform="matrix(3,0,0,3.042857,0,0)"/>
<path style="fill:none;stroke-width:0.4;stroke-linecap:round;stroke-linejoin:round;stroke:rgb(0%,0%,0%);stroke-opacity:1;stroke-miterlimit:4;" d="M 58.499992 75.00018 C 57.899731 75.699821 56.100253 75.599689 56.100253 75.599689 C 56.100253 75.599689 55.700513 73.801163 56.299471 73.100239 C 56.833325 72.424989 57.804679 72.29148 58.499992 72.799843 C 59.084627 73.417324 59.084627 74.383983 58.499992 75.00018 Z M 58.499992 75.00018 " transform="matrix(3,0,0,3.042857,0,0)"/>
<path style="fill-rule:nonzero;fill:rgb(100%,0%,0%);fill-opacity:1;stroke-width:0.4;stroke-linecap:round;stroke-linejoin:round;stroke:rgb(0%,0%,0%);stroke-opacity:1;stroke-miterlimit:4;" d="M 60.700512 72.199051 C 60.700512 73.028349 60.028637 73.699747 59.19921 73.699747 C 58.371086 73.699747 57.700513 73.028349 57.700513 72.199051 C 57.700513 71.372319 58.371086 70.700921 59.19921 70.700921 C 60.028637 70.700921 60.700512 71.372319 60.700512 72.199051 Z M 60.700512 72.199051 " transform="matrix(3,0,0,3.042857,0,0)"/>
<path style="fill-rule:nonzero;fill:rgb(59.607843%,3.137255%,1.960784%);fill-opacity:1;stroke-width:0.4;stroke-linecap:round;stroke-linejoin:round;stroke:rgb(0%,0%,0%);stroke-opacity:1;stroke-miterlimit:4;" d="M 59.800773 72.199051 C 59.800773 72.53154 59.531242 72.799843 59.19921 72.799843 C 58.868481 72.799843 58.600252 72.53154 58.600252 72.199051 C 58.600252 71.869128 58.868481 71.599542 59.19921 71.599542 C 59.531242 71.599542 59.800773 71.869128 59.800773 72.199051 Z M 59.800773 72.199051 " transform="matrix(3,0,0,3.042857,0,0)"/>
<path style=" stroke:none;fill-rule:nonzero;fill:rgb(0%,39.607843%,71.764706%);fill-opacity:1;" d="M 116.703125 164.007812 L 113.097656 177.398438 L 100.5 172.226562 L 64.800781 98.285156 L 81.300781 90.066406 Z M 116.703125 164.007812 "/>
<path style=" stroke:none;fill-rule:nonzero;fill:rgb(0%,30.196078%,63.137255%);fill-opacity:1;" d="M 116.703125 164.007812 L 113.097656 177.398438 L 72.898438 94.328125 L 81.300781 90.066406 Z M 116.703125 164.007812 "/>
<path style="fill:none;stroke-width:0.4;stroke-linecap:round;stroke-linejoin:round;stroke:rgb(0%,0%,0%);stroke-opacity:1;stroke-miterlimit:4;" d="M 38.901036 53.899279 L 37.699213 58.299953 L 33.499995 56.600276 L 21.600257 32.300285 L 27.100257 29.599287 Z M 38.901036 53.899279 " transform="matrix(3,0,0,3.042857,0,0)"/>
<path style="fill-rule:nonzero;fill:rgb(0%,39.607843%,71.764706%);fill-opacity:1;stroke-width:0.4;stroke-linecap:round;stroke-linejoin:round;stroke:rgb(0%,0%,0%);stroke-opacity:1;stroke-miterlimit:4;" d="M 37.699213 58.299953 L 24.401038 31.099984 " transform="matrix(3,0,0,3.042857,0,0)"/>
<path style="fill-rule:nonzero;fill:rgb(99.607843%,74.901961%,6.27451%);fill-opacity:1;stroke-width:0.4;stroke-linecap:round;stroke-linejoin:round;stroke:rgb(0%,0%,0%);stroke-opacity:1;stroke-miterlimit:4;" d="M 24.429684 31.250182 L 28.1901 32.600681 L 26.850257 36.329957 L 23.089841 34.970472 Z M 24.429684 31.250182 " transform="matrix(3,0,0,3.042857,0,0)"/>
<path style=" stroke:none;fill-rule:nonzero;fill:rgb(0%,0%,0%);fill-opacity:1;" d="M 72.179688 92.410156 L 83.460938 96.519531 L 79.4375 107.867188 L 68.128906 103.730469 Z M 72.179688 92.410156 "/>
<path style="fill-rule:nonzero;fill:rgb(99.607843%,74.901961%,6.27451%);fill-opacity:1;stroke-width:0.4;stroke-linecap:round;stroke-linejoin:round;stroke:rgb(0%,0%,0%);stroke-opacity:1;stroke-miterlimit:4;" d="M 24.700517 24.8995 C 26.800778 29.300175 26.899736 32.600681 25.499996 33.299038 C 24.100257 33.999962 21.600257 31.800908 19.499997 27.400234 C 18.239581 24.509242 17.822914 21.319138 18.300779 18.200923 C 21.028643 19.776077 23.251299 22.102222 24.700517 24.8995 Z M 24.700517 24.8995 " transform="matrix(3,0,0,3.042857,0,0)"/>
<path style="fill:none;stroke-width:0.4;stroke-linecap:round;stroke-linejoin:round;stroke:rgb(0%,0%,0%);stroke-opacity:1;stroke-miterlimit:4;" d="M 20.600258 29.400307 C 20.839841 27.902177 21.312497 26.451547 21.999997 25.099764 C 22.526039 24.085606 22.735674 22.935372 22.600257 21.799258 M 20.999997 20.099581 C 20.906247 20.998202 20.669268 21.876283 20.300778 22.700446 C 19.776039 23.831425 19.341143 25.000916 18.999997 26.199933 M 22.300778 31.899757 C 22.401039 30.599324 22.799476 29.700703 23.799476 27.400234 C 24.186195 26.446412 24.38932 25.428403 24.401038 24.400124 " transform="matrix(3,0,0,3.042857,0,0)"/>
<path style="fill:none;stroke-width:0.4;stroke-linecap:round;stroke-linejoin:round;stroke:rgb(0%,0%,0%);stroke-opacity:1;stroke-miterlimit:4;" d="M 22.600257 21.799258 C 22.735674 22.935372 22.526039 24.085606 21.999997 25.099764 C 21.312497 26.451547 20.839841 27.902177 20.600258 29.400307 M 23.999997 33.600717 C 24.236976 32.306703 24.675778 31.05762 25.299476 29.899683 C 25.548174 29.283486 25.748694 28.646749 25.899736 27.999742 M 24.401038 24.400124 C 24.38932 25.428403 24.186195 26.446412 23.799476 27.400234 C 22.799476 29.700703 22.401039 30.599324 22.300778 31.899757 " transform="matrix(3,0,0,3.042857,0,0)"/>
<path style="fill-rule:nonzero;fill:rgb(99.607843%,74.901961%,6.27451%);fill-opacity:1;stroke-width:0.4;stroke-linecap:round;stroke-linejoin:round;stroke:rgb(0%,0%,0%);stroke-opacity:1;stroke-miterlimit:4;" d="M 31.999996 29.400307 C 31.999996 31.22194 30.522131 32.699529 28.700517 32.699529 C 26.876298 32.699529 25.401038 31.22194 25.401038 29.400307 C 25.401038 27.57739 26.876298 26.099801 28.700517 26.099801 C 30.522131 26.099801 31.999996 27.57739 31.999996 29.400307 Z M 31.999996 29.400307 " transform="matrix(3,0,0,3.042857,0,0)"/>
<path style="fill-rule:nonzero;fill:rgb(99.607843%,74.901961%,6.27451%);fill-opacity:1;stroke-width:0.4;stroke-linecap:round;stroke-linejoin:round;stroke:rgb(0%,0%,0%);stroke-opacity:1;stroke-miterlimit:4;" d="M 30.999996 29.400307 C 30.999996 30.671213 29.97135 31.699492 28.700517 31.699492 C 27.429684 31.699492 26.399736 30.671213 26.399736 29.400307 C 26.399736 28.1294 27.429684 27.099837 28.700517 27.099837 C 29.97135 27.099837 30.999996 28.1294 30.999996 29.400307 Z M 30.999996 29.400307 " transform="matrix(3,0,0,3.042857,0,0)"/>
<path style=" stroke:none;fill-rule:nonzero;fill:rgb(81.568627%,60.784314%,2.745098%);fill-opacity:1;" d="M 90 89.460938 C 90 91.644531 88.253906 93.417969 86.101562 93.417969 C 83.945312 93.417969 82.199219 91.644531 82.199219 89.460938 C 82.199219 87.277344 83.945312 85.503906 86.101562 85.503906 C 88.253906 85.503906 90 87.277344 90 89.460938 Z M 90 89.460938 "/>
<path style="fill-rule:nonzero;fill:rgb(99.607843%,74.901961%,6.27451%);fill-opacity:1;stroke-width:0.4;stroke-linecap:round;stroke-linejoin:round;stroke:rgb(0%,0%,0%);stroke-opacity:1;stroke-miterlimit:4;" d="M 23.700518 33.200189 C 23.700518 35.023106 22.222653 36.500695 20.399737 36.500695 C 18.57682 36.500695 17.100258 35.023106 17.100258 33.200189 C 17.100258 31.377273 18.57682 29.899683 20.399737 29.899683 C 22.222653 29.899683 23.700518 31.377273 23.700518 33.200189 Z M 23.700518 33.200189 " transform="matrix(3,0,0,3.042857,0,0)"/>
<path style="fill-rule:nonzero;fill:rgb(99.607843%,74.901961%,6.27451%);fill-opacity:1;stroke-width:0.4;stroke-linecap:round;stroke-linejoin:round;stroke:rgb(0%,0%,0%);stroke-opacity:1;stroke-miterlimit:4;" d="M 22.700518 33.200189 C 22.700518 34.469812 21.67057 35.500659 20.399737 35.500659 C 19.130206 35.500659 18.098956 34.469812 18.098956 33.200189 C 18.098956 31.929283 19.130206 30.89972 20.399737 30.89972 C 21.67057 30.89972 22.700518 31.929283 22.700518 33.200189 Z M 22.700518 33.200189 " transform="matrix(3,0,0,3.042857,0,0)"/>
<path style=" stroke:none;fill-rule:nonzero;fill:rgb(81.568627%,60.784314%,2.745098%);fill-opacity:1;" d="M 65.101562 101.023438 C 65.101562 103.207031 63.351562 104.976562 61.199219 104.976562 C 59.046875 104.976562 57.296875 103.207031 57.296875 101.023438 C 57.296875 98.835938 59.046875 97.066406 61.199219 97.066406 C 63.351562 97.066406 65.101562 98.835938 65.101562 101.023438 Z M 65.101562 101.023438 "/>
<path style="fill-rule:nonzero;fill:rgb(99.607843%,74.901961%,6.27451%);fill-opacity:1;stroke-width:0.4;stroke-linecap:round;stroke-linejoin:round;stroke:rgb(0%,0%,0%);stroke-opacity:1;stroke-miterlimit:4;" d="M 18.800887 17.299424 C 18.800159 16.527269 18.397648 15.899461 17.89927 15.900459 C 17.403164 15.899687 16.999965 16.52717 17.000694 17.299325 C 17.000329 18.073804 17.402209 18.699896 17.90004 18.70006 C 18.397871 18.700224 18.799345 18.073349 18.800887 17.299424 Z M 18.800887 17.299424 " transform="matrix(2.714481,-1.295586,1.277338,2.753259,-17.100616,28.29476)"/>
<path style="fill-rule:nonzero;fill:rgb(99.607843%,74.901961%,6.27451%);fill-opacity:1;stroke-width:0.4;stroke-linecap:round;stroke-linejoin:round;stroke:rgb(0%,0%,0%);stroke-opacity:1;stroke-miterlimit:4;" d="M 18.49996 19.600142 C 18.500405 19.103781 17.873298 18.699441 17.100152 18.700251 C 16.327553 18.699899 15.700469 19.102852 15.700655 19.600929 C 15.699032 20.096735 16.326686 20.499914 17.099285 20.500266 C 17.87361 20.50001 18.499515 20.096503 18.49996 19.600142 Z M 18.49996 19.600142 " transform="matrix(2.714481,-1.295586,1.277338,2.753259,-20.105361,27.683693)"/>
<path style="fill-rule:nonzero;fill:rgb(99.607843%,74.901961%,6.27451%);fill-opacity:1;stroke-width:0.4;stroke-linecap:round;stroke-linejoin:round;stroke:rgb(0%,0%,0%);stroke-opacity:1;stroke-miterlimit:4;" d="M 21.700358 18.000275 C 21.699625 17.50336 21.072518 17.09902 20.299372 17.09983 C 19.526772 17.099478 18.899689 17.502431 18.899875 18.000508 C 18.89943 18.496869 19.526537 18.901209 20.299684 18.900399 C 21.073461 18.901306 21.699913 18.496636 21.700358 18.000275 Z M 21.700358 18.000275 " transform="matrix(2.714481,-1.295586,1.277338,2.753259,-17.100775,31.64118)"/>
<path style="fill-rule:nonzero;fill:rgb(99.607843%,74.901961%,6.27451%);fill-opacity:1;stroke-width:0.4;stroke-linecap:round;stroke-linejoin:round;stroke:rgb(0%,0%,0%);stroke-opacity:1;stroke-miterlimit:4;" d="M 19.700518 18.89928 C 19.700518 19.452574 19.251299 19.899317 18.700518 19.899317 C 18.148435 19.899317 17.700518 19.452574 17.700518 18.89928 C 17.700518 18.34727 18.148435 17.900527 18.700518 17.900527 C 19.251299 17.900527 19.700518 18.34727 19.700518 18.89928 Z M 19.700518 18.89928 " transform="matrix(3,0,0,3.042857,0,0)"/>
<path style=" stroke:none;fill-rule:nonzero;fill:rgb(81.568627%,60.784314%,2.745098%);fill-opacity:1;" d="M 55.199219 55.683594 L 54.296875 56.597656 C 54.777344 56.40625 55.308594 56.429688 55.765625 56.660156 C 56.226562 56.890625 56.5625 57.3125 56.699219 57.816406 C 57.019531 58.382812 57.019531 59.074219 56.699219 59.640625 C 56.867188 59.640625 57 59.503906 57 59.335938 C 57.882812 59.179688 58.570312 58.46875 58.710938 57.570312 C 58.851562 56.667969 58.414062 55.78125 57.621094 55.355469 C 56.828125 54.929688 55.855469 55.058594 55.199219 55.683594 Z M 55.199219 55.683594 "/>
<path style="fill-rule:nonzero;fill:rgb(99.607843%,74.901961%,6.27451%);fill-opacity:1;stroke-width:0.4;stroke-linecap:round;stroke-linejoin:round;stroke:rgb(0%,0%,0%);stroke-opacity:1;stroke-miterlimit:4;" d="M 24.899736 28.799515 C 24.899736 29.684014 24.18359 30.39906 23.299476 30.39906 C 22.416664 30.39906 21.700518 29.684014 21.700518 28.799515 C 21.700518 27.916299 22.416664 27.199969 23.299476 27.199969 C 24.18359 27.199969 24.899736 27.916299 24.899736 28.799515 Z M 24.899736 28.799515 " transform="matrix(3,0,0,3.042857,0,0)"/>
<path style=" stroke:none;fill-rule:nonzero;fill:rgb(0%,0%,0%);fill-opacity:1;" d="M 72.898438 87.632812 C 72.898438 89.316406 71.558594 90.675781 69.898438 90.675781 C 68.242188 90.675781 66.902344 89.316406 66.902344 87.632812 C 66.902344 85.953125 68.242188 84.589844 69.898438 84.589844 C 71.558594 84.589844 72.898438 85.953125 72.898438 87.632812 Z M 72.898438 87.632812 "/>
<path style="fill-rule:nonzero;fill:rgb(99.607843%,74.901961%,6.27451%);fill-opacity:1;stroke-width:0.4;stroke-linecap:round;stroke-linejoin:round;stroke:rgb(0%,0%,0%);stroke-opacity:1;stroke-miterlimit:4;" d="M 23.600257 32.499265 C 23.600257 33.383765 22.884111 34.100094 21.999997 34.100094 C 21.117185 34.100094 20.399737 33.383765 20.399737 32.499265 C 20.399737 31.617333 21.117185 30.89972 21.999997 30.89972 C 22.884111 30.89972 23.600257 31.617333 23.600257 32.499265 Z M 23.600257 32.499265 " transform="matrix(3,0,0,3.042857,0,0)"/>
<path style=" stroke:none;fill-rule:nonzero;fill:rgb(0%,0%,0%);fill-opacity:1;" d="M 69 98.890625 C 69 100.574219 67.65625 101.933594 66 101.933594 C 64.34375 101.933594 63 100.574219 63 98.890625 C 63 97.210938 64.34375 95.851562 66 95.851562 C 67.65625 95.851562 69 97.210938 69 98.890625 Z M 69 98.890625 "/>
<path style="fill-rule:nonzero;fill:rgb(99.607843%,74.901961%,6.27451%);fill-opacity:1;stroke-width:0.4;stroke-linecap:round;stroke-linejoin:round;stroke:rgb(0%,0%,0%);stroke-opacity:1;stroke-miterlimit:4;" d="M 28.700517 29.999815 C 28.700517 30.884315 27.984371 31.600644 27.100257 31.600644 C 26.216142 31.600644 25.499996 30.884315 25.499996 29.999815 C 25.499996 29.116599 26.216142 28.40027 27.100257 28.40027 C 27.984371 28.40027 28.700517 29.116599 28.700517 29.999815 Z M 28.700517 29.999815 " transform="matrix(3,0,0,3.042857,0,0)"/>
<path style=" stroke:none;fill-rule:nonzero;fill:rgb(0%,0%,0%);fill-opacity:1;" d="M 84.300781 91.285156 C 84.300781 92.964844 82.957031 94.328125 81.300781 94.328125 C 79.644531 94.328125 78.300781 92.964844 78.300781 91.285156 C 78.300781 89.605469 79.644531 88.242188 81.300781 88.242188 C 82.957031 88.242188 84.300781 89.605469 84.300781 91.285156 Z M 84.300781 91.285156 "/>
<path style="fill-rule:nonzero;fill:rgb(99.607843%,74.901961%,6.27451%);fill-opacity:1;stroke-width:0.4;stroke-linecap:round;stroke-linejoin:round;stroke:rgb(0%,0%,0%);stroke-opacity:1;stroke-miterlimit:4;" d="M 27.199215 31.300248 C 27.199215 32.790675 25.990882 33.999962 24.499997 33.999962 C 23.007809 33.999962 21.799476 32.790675 21.799476 31.300248 C 21.799476 29.808537 23.007809 28.599251 24.499997 28.599251 C 25.990882 28.599251 27.199215 29.808537 27.199215 31.300248 Z M 27.199215 31.300248 " transform="matrix(3,0,0,3.042857,0,0)"/>
<path style=" stroke:none;fill-rule:nonzero;fill:rgb(0%,39.607843%,71.764706%);fill-opacity:1;" d="M 160.5 253.773438 L 147.902344 248.601562 L 144.296875 261.992188 L 179.699219 335.933594 L 196.199219 327.714844 Z M 160.5 253.773438 "/>
<path style=" stroke:none;fill-rule:nonzero;fill:rgb(0%,30.196078%,63.137255%);fill-opacity:1;" d="M 160.5 253.773438 L 147.902344 248.601562 L 187.796875 331.671875 L 196.199219 327.714844 Z M 160.5 253.773438 "/>
<path style="fill:none;stroke-width:0.4;stroke-linecap:round;stroke-linejoin:round;stroke:rgb(0%,0%,0%);stroke-opacity:1;stroke-miterlimit:4;" d="M 53.499993 83.399718 L 49.300774 81.70004 L 48.098952 86.100715 L 59.899731 110.400707 L 65.39973 107.699709 Z M 53.499993 83.399718 " transform="matrix(3,0,0,3.042857,0,0)"/>
<path style="fill-rule:nonzero;fill:rgb(0%,39.607843%,71.764706%);fill-opacity:1;stroke-width:0.4;stroke-linecap:round;stroke-linejoin:round;stroke:rgb(0%,0%,0%);stroke-opacity:1;stroke-miterlimit:4;" d="M 49.300774 81.70004 L 62.59895 108.90001 " transform="matrix(3,0,0,3.042857,0,0)"/>
<path style="fill-rule:nonzero;fill:rgb(99.607843%,74.901961%,6.27451%);fill-opacity:1;stroke-width:0.4;stroke-linecap:round;stroke-linejoin:round;stroke:rgb(0%,0%,0%);stroke-opacity:1;stroke-miterlimit:4;" d="M 62.59895 108.67022 L 58.839836 107.319721 L 60.180981 103.589161 L 63.940095 104.949929 Z M 62.59895 108.67022 " transform="matrix(3,0,0,3.042857,0,0)"/>
<path style=" stroke:none;fill-rule:nonzero;fill:rgb(0%,0%,0%);fill-opacity:1;" d="M 188.910156 333.679688 L 177.628906 329.570312 L 181.648438 318.222656 L 192.929688 322.359375 Z M 188.910156 333.679688 "/>
<path style="fill-rule:nonzero;fill:rgb(99.607843%,74.901961%,6.27451%);fill-opacity:1;stroke-width:0.4;stroke-linecap:round;stroke-linejoin:round;stroke:rgb(0%,0%,0%);stroke-opacity:1;stroke-miterlimit:4;" d="M 62.29947 115.100494 C 60.19921 110.699819 60.100252 107.399313 61.499991 106.700956 C 62.899731 106.000032 65.39973 108.199086 67.499991 112.59976 C 68.760407 115.490752 69.177074 118.680856 68.699209 121.79907 C 65.971345 120.223916 63.748689 117.897772 62.29947 115.100494 Z M 62.29947 115.100494 " transform="matrix(3,0,0,3.042857,0,0)"/>
<path style="fill:none;stroke-width:0.4;stroke-linecap:round;stroke-linejoin:round;stroke:rgb(0%,0%,0%);stroke-opacity:1;stroke-miterlimit:4;" d="M 66.39973 110.599687 C 66.160147 112.097816 65.687491 113.548447 64.999991 114.90023 C 64.473949 115.914388 64.264314 117.064622 64.399731 118.200736 M 65.999991 119.900413 C 66.093741 119.001792 66.33072 118.123711 66.699209 117.299547 C 67.223949 116.168569 67.658845 114.999078 67.99999 113.800061 M 64.69921 108.100237 C 64.598949 109.40067 64.200512 110.299291 63.200512 112.59976 C 62.813793 113.553582 62.610668 114.571591 62.59895 115.59987 " transform="matrix(3,0,0,3.042857,0,0)"/>
<path style="fill:none;stroke-width:0.4;stroke-linecap:round;stroke-linejoin:round;stroke:rgb(0%,0%,0%);stroke-opacity:1;stroke-miterlimit:4;" d="M 64.399731 118.200736 C 64.264314 117.064622 64.473949 115.914388 64.999991 114.90023 C 65.687491 113.548447 66.160147 112.097816 66.39973 110.599687 M 62.999991 106.399276 C 62.763012 107.69329 62.32421 108.942373 61.700512 110.100311 C 61.451814 110.716508 61.251294 111.353245 61.100252 112.000252 M 62.59895 115.59987 C 62.610668 114.571591 62.813793 113.553582 63.200512 112.59976 C 64.200512 110.299291 64.598949 109.40067 64.69921 108.100237 " transform="matrix(3,0,0,3.042857,0,0)"/>
<path style="fill-rule:nonzero;fill:rgb(99.607843%,74.901961%,6.27451%);fill-opacity:1;stroke-width:0.4;stroke-linecap:round;stroke-linejoin:round;stroke:rgb(0%,0%,0%);stroke-opacity:1;stroke-miterlimit:4;" d="M 61.59895 110.599687 C 61.59895 112.422604 60.12369 113.900193 58.299471 113.900193 C 56.477857 113.900193 54.999992 112.422604 54.999992 110.599687 C 54.999992 108.778054 56.477857 107.300465 58.299471 107.300465 C 60.12369 107.300465 61.59895 108.778054 61.59895 110.599687 Z M 61.59895 110.599687 " transform="matrix(3,0,0,3.042857,0,0)"/>
<path style="fill-rule:nonzero;fill:rgb(99.607843%,74.901961%,6.27451%);fill-opacity:1;stroke-width:0.4;stroke-linecap:round;stroke-linejoin:round;stroke:rgb(0%,0%,0%);stroke-opacity:1;stroke-miterlimit:4;" d="M 60.600252 110.599687 C 60.600252 111.870594 59.570304 112.900156 58.299471 112.900156 C 57.028638 112.900156 55.999992 111.870594 55.999992 110.599687 C 55.999992 109.330064 57.028638 108.300501 58.299471 108.300501 C 59.570304 108.300501 60.600252 109.330064 60.600252 110.599687 Z M 60.600252 110.599687 " transform="matrix(3,0,0,3.042857,0,0)"/>
<path style=" stroke:none;fill-rule:nonzero;fill:rgb(81.568627%,60.784314%,2.745098%);fill-opacity:1;" d="M 178.800781 336.539062 C 178.800781 338.722656 177.054688 340.496094 174.898438 340.496094 C 172.746094 340.496094 171 338.722656 171 336.539062 C 171 334.355469 172.746094 332.582031 174.898438 332.582031 C 177.054688 332.582031 178.800781 334.355469 178.800781 336.539062 Z M 178.800781 336.539062 "/>
<path style="fill-rule:nonzero;fill:rgb(99.607843%,74.901961%,6.27451%);fill-opacity:1;stroke-width:0.4;stroke-linecap:round;stroke-linejoin:round;stroke:rgb(0%,0%,0%);stroke-opacity:1;stroke-miterlimit:4;" d="M 69.89973 106.799805 C 69.89973 108.622721 68.423168 110.100311 66.600251 110.100311 C 64.777335 110.100311 63.29947 108.622721 63.29947 106.799805 C 63.29947 104.976888 64.777335 103.499299 66.600251 103.499299 C 68.423168 103.499299 69.89973 104.976888 69.89973 106.799805 Z M 69.89973 106.799805 " transform="matrix(3,0,0,3.042857,0,0)"/>
<path style="fill-rule:nonzero;fill:rgb(99.607843%,74.901961%,6.27451%);fill-opacity:1;stroke-width:0.4;stroke-linecap:round;stroke-linejoin:round;stroke:rgb(0%,0%,0%);stroke-opacity:1;stroke-miterlimit:4;" d="M 68.901032 106.799805 C 68.901032 108.070711 67.869782 109.100274 66.600251 109.100274 C 65.329418 109.100274 64.29947 108.070711 64.29947 106.799805 C 64.29947 105.530182 65.329418 104.499335 66.600251 104.499335 C 67.869782 104.499335 68.901032 105.530182 68.901032 106.799805 Z M 68.901032 106.799805 " transform="matrix(3,0,0,3.042857,0,0)"/>
<path style=" stroke:none;fill-rule:nonzero;fill:rgb(81.568627%,60.784314%,2.745098%);fill-opacity:1;" d="M 203.703125 324.976562 C 203.703125 327.164062 201.953125 328.933594 199.800781 328.933594 C 197.648438 328.933594 195.898438 327.164062 195.898438 324.976562 C 195.898438 322.792969 197.648438 321.023438 199.800781 321.023438 C 201.953125 321.023438 203.703125 322.792969 203.703125 324.976562 Z M 203.703125 324.976562 "/>
<path style="fill-rule:nonzero;fill:rgb(99.607843%,74.901961%,6.27451%);fill-opacity:1;stroke-width:0.4;stroke-linecap:round;stroke-linejoin:round;stroke:rgb(0%,0%,0%);stroke-opacity:1;stroke-miterlimit:4;" d="M 69.999214 122.700675 C 69.999579 121.926197 69.597699 121.300104 69.101047 121.300495 C 68.602037 121.299776 68.200563 121.926652 68.199021 122.700576 C 68.200928 123.473285 68.60226 124.100539 69.09946 124.098987 C 69.597922 124.100867 69.999943 123.47283 69.999214 122.700675 Z M 69.999214 122.700675 " transform="matrix(2.714481,-1.295586,1.277338,2.753259,-137.108955,125.355363)"/>
<path style="fill-rule:nonzero;fill:rgb(99.607843%,74.901961%,6.27451%);fill-opacity:1;stroke-width:0.4;stroke-linecap:round;stroke-linejoin:round;stroke:rgb(0%,0%,0%);stroke-opacity:1;stroke-miterlimit:4;" d="M 71.299745 120.400259 C 71.300736 119.902737 70.673714 119.501274 69.899936 119.500368 C 69.12679 119.501178 68.500253 119.902969 68.500986 120.399885 C 68.499994 120.897407 69.12647 121.300031 69.899616 121.299222 C 70.673394 121.300128 71.2993 120.89662 71.299745 120.400259 Z M 71.299745 120.400259 " transform="matrix(2.714481,-1.295586,1.277338,2.753259,-134.103156,125.666921)"/>
<path style="fill-rule:nonzero;fill:rgb(99.607843%,74.901961%,6.27451%);fill-opacity:1;stroke-width:0.4;stroke-linecap:round;stroke-linejoin:round;stroke:rgb(0%,0%,0%);stroke-opacity:1;stroke-miterlimit:4;" d="M 68.100427 121.999892 C 68.099694 121.502976 67.473218 121.100353 66.700619 121.100001 C 65.927473 121.10081 65.300935 121.502602 65.299944 122.000125 C 65.299499 122.496486 65.926606 122.900826 66.699752 122.900016 C 67.47353 122.900922 68.099435 122.497415 68.100427 121.999892 Z M 68.100427 121.999892 " transform="matrix(2.714481,-1.295586,1.277338,2.753259,-136.797877,122.020071)"/>
<path style="fill-rule:nonzero;fill:rgb(99.607843%,74.901961%,6.27451%);fill-opacity:1;stroke-width:0.4;stroke-linecap:round;stroke-linejoin:round;stroke:rgb(0%,0%,0%);stroke-opacity:1;stroke-miterlimit:4;" d="M 69.299469 121.100714 C 69.299469 121.652724 68.851553 122.099466 68.29947 122.099466 C 67.748688 122.099466 67.29947 121.652724 67.29947 121.100714 C 67.29947 120.54742 67.748688 120.100677 68.29947 120.100677 C 68.851553 120.100677 69.299469 120.54742 69.299469 121.100714 Z M 69.299469 121.100714 " transform="matrix(3,0,0,3.042857,0,0)"/>
<path style=" stroke:none;fill-rule:nonzero;fill:rgb(81.568627%,60.784314%,2.745098%);fill-opacity:1;" d="M 205.800781 370.316406 L 206.703125 369.402344 C 206.222656 369.59375 205.691406 369.570312 205.234375 369.339844 C 204.773438 369.109375 204.4375 368.6875 204.300781 368.183594 C 203.980469 367.617188 203.980469 366.925781 204.300781 366.359375 L 204 366.359375 C 203.117188 366.515625 202.429688 367.230469 202.289062 368.125 C 202.148438 369.023438 202.585938 369.914062 203.378906 370.339844 C 204.171875 370.765625 205.144531 370.632812 205.800781 370.011719 Z M 205.800781 370.316406 "/>
<path style="fill-rule:nonzero;fill:rgb(99.607843%,74.901961%,6.27451%);fill-opacity:1;stroke-width:0.4;stroke-linecap:round;stroke-linejoin:round;stroke:rgb(0%,0%,0%);stroke-opacity:1;stroke-miterlimit:4;" d="M 65.29947 111.200479 C 65.29947 112.083695 64.583324 112.800024 63.700512 112.800024 C 62.816397 112.800024 62.100252 112.083695 62.100252 111.200479 C 62.100252 110.31598 62.816397 109.600934 63.700512 109.600934 C 64.583324 109.600934 65.29947 110.31598 65.29947 111.200479 Z M 65.29947 111.200479 " transform="matrix(3,0,0,3.042857,0,0)"/>
<path style=" stroke:none;fill-rule:nonzero;fill:rgb(0%,0%,0%);fill-opacity:1;" d="M 194.097656 338.367188 C 194.097656 340.046875 192.757812 341.410156 191.101562 341.410156 C 189.441406 341.410156 188.101562 340.046875 188.101562 338.367188 C 188.101562 336.683594 189.441406 335.324219 191.101562 335.324219 C 192.757812 335.324219 194.097656 336.683594 194.097656 338.367188 Z M 194.097656 338.367188 "/>
<path style="fill-rule:nonzero;fill:rgb(99.607843%,74.901961%,6.27451%);fill-opacity:1;stroke-width:0.4;stroke-linecap:round;stroke-linejoin:round;stroke:rgb(0%,0%,0%);stroke-opacity:1;stroke-miterlimit:4;" d="M 66.600251 107.500729 C 66.600251 108.382661 65.882803 109.100274 64.999991 109.100274 C 64.115876 109.100274 63.399731 108.382661 63.399731 107.500729 C 63.399731 106.616229 64.115876 105.8999 64.999991 105.8999 C 65.882803 105.8999 66.600251 106.616229 66.600251 107.500729 Z M 66.600251 107.500729 " transform="matrix(3,0,0,3.042857,0,0)"/>
<path style=" stroke:none;fill-rule:nonzero;fill:rgb(0%,0%,0%);fill-opacity:1;" d="M 198 327.109375 C 198 328.789062 196.65625 330.148438 195 330.148438 C 193.34375 330.148438 192 328.789062 192 327.109375 C 192 325.425781 193.34375 324.066406 195 324.066406 C 196.65625 324.066406 198 325.425781 198 327.109375 Z M 198 327.109375 "/>
<path style="fill-rule:nonzero;fill:rgb(99.607843%,74.901961%,6.27451%);fill-opacity:1;stroke-width:0.4;stroke-linecap:round;stroke-linejoin:round;stroke:rgb(0%,0%,0%);stroke-opacity:1;stroke-miterlimit:4;" d="M 61.499991 110.000179 C 61.499991 110.883394 60.783846 111.599724 59.899731 111.599724 C 59.015617 111.599724 58.299471 110.883394 58.299471 110.000179 C 58.299471 109.115679 59.015617 108.39935 59.899731 108.39935 C 60.783846 108.39935 61.499991 109.115679 61.499991 110.000179 Z M 61.499991 110.000179 " transform="matrix(3,0,0,3.042857,0,0)"/>
<path style=" stroke:none;fill-rule:nonzero;fill:rgb(0%,0%,0%);fill-opacity:1;" d="M 182.699219 334.714844 C 182.699219 336.394531 181.355469 337.757812 179.699219 337.757812 C 178.042969 337.757812 176.699219 336.394531 176.699219 334.714844 C 176.699219 333.035156 178.042969 331.671875 179.699219 331.671875 C 181.355469 331.671875 182.699219 333.035156 182.699219 334.714844 Z M 182.699219 334.714844 "/>
<path style="fill-rule:nonzero;fill:rgb(99.607843%,74.901961%,6.27451%);fill-opacity:1;stroke-width:0.4;stroke-linecap:round;stroke-linejoin:round;stroke:rgb(0%,0%,0%);stroke-opacity:1;stroke-miterlimit:4;" d="M 65.200512 108.699746 C 65.200512 110.191456 63.992179 111.400743 62.499991 111.400743 C 61.009106 111.400743 59.800773 110.191456 59.800773 108.699746 C 59.800773 107.209319 61.009106 106.000032 62.499991 106.000032 C 63.992179 106.000032 65.200512 107.209319 65.200512 108.699746 Z M 65.200512 108.699746 " transform="matrix(3,0,0,3.042857,0,0)"/>
<path style=" stroke:none;fill-rule:nonzero;fill:rgb(0%,39.607843%,71.764706%);fill-opacity:1;" d="M 159.300781 171.617188 L 146.699219 176.789062 L 143.101562 163.402344 L 179.402344 89.765625 L 195.601562 98.285156 Z M 159.300781 171.617188 "/>
<path style=" stroke:none;fill-rule:nonzero;fill:rgb(0%,30.196078%,63.137255%);fill-opacity:1;" d="M 159.300781 171.617188 L 146.699219 176.789062 L 187.5 94.023438 L 195.601562 98.285156 Z M 159.300781 171.617188 "/>
<path style="fill:none;stroke-width:0.4;stroke-linecap:round;stroke-linejoin:round;stroke:rgb(0%,0%,0%);stroke-opacity:1;stroke-miterlimit:4;" d="M 53.100253 56.400012 L 48.899733 58.099689 L 47.700514 53.700298 L 59.800773 29.500439 L 65.200512 32.300285 Z M 53.100253 56.400012 " transform="matrix(3,0,0,3.042857,0,0)"/>
<path style="fill-rule:nonzero;fill:rgb(0%,39.607843%,71.764706%);fill-opacity:1;stroke-width:0.4;stroke-linecap:round;stroke-linejoin:round;stroke:rgb(0%,0%,0%);stroke-opacity:1;stroke-miterlimit:4;" d="M 48.899733 58.099689 L 62.499991 30.999852 " transform="matrix(3,0,0,3.042857,0,0)"/>
<path style="fill-rule:nonzero;fill:rgb(99.607843%,74.901961%,6.27451%);fill-opacity:1;stroke-width:0.4;stroke-linecap:round;stroke-linejoin:round;stroke:rgb(0%,0%,0%);stroke-opacity:1;stroke-miterlimit:4;" d="M 62.371085 31.239912 L 63.589835 35.050064 L 59.809887 36.249081 L 58.600252 32.450483 Z M 62.371085 31.239912 " transform="matrix(3,0,0,3.042857,0,0)"/>
<path style=" stroke:none;fill-rule:nonzero;fill:rgb(0%,0%,0%);fill-opacity:1;" d="M 188.339844 92.320312 L 191.972656 103.914062 L 180.660156 107.566406 L 177.03125 96 Z M 188.339844 92.320312 "/>
<path style="fill-rule:nonzero;fill:rgb(99.607843%,74.901961%,6.27451%);fill-opacity:1;stroke-width:0.4;stroke-linecap:round;stroke-linejoin:round;stroke:rgb(0%,0%,0%);stroke-opacity:1;stroke-miterlimit:4;" d="M 67.499991 27.499082 C 65.29947 31.800908 62.700512 33.89983 61.299471 33.200189 C 59.899731 32.499265 60.19921 29.200043 62.399731 24.8995 C 63.914054 22.107357 66.207022 19.81459 68.99999 18.299772 C 69.351553 21.446229 68.832022 24.62863 67.499991 27.499082 Z M 67.499991 27.499082 " transform="matrix(3,0,0,3.042857,0,0)"/>
<path style="fill:none;stroke-width:0.4;stroke-linecap:round;stroke-linejoin:round;stroke:rgb(0%,0%,0%);stroke-opacity:1;stroke-miterlimit:4;" d="M 61.399731 26.999705 C 62.499991 26.300065 63.399731 26.099801 65.69921 25.500292 C 66.786449 25.194761 67.804678 24.686399 68.699209 23.999595 M 68.99999 21.600278 C 68.279938 22.121478 67.464834 22.496331 66.600251 22.700446 C 65.376293 22.98287 64.173168 23.351305 62.999991 23.799331 M 60.499992 29.899683 C 61.59895 29.099911 62.499991 28.90093 64.901033 28.300138 C 65.941397 28.094739 66.910147 27.609484 67.699209 26.899573 " transform="matrix(3,0,0,3.042857,0,0)"/>
<path style="fill:none;stroke-width:0.4;stroke-linecap:round;stroke-linejoin:round;stroke:rgb(0%,0%,0%);stroke-opacity:1;stroke-miterlimit:4;" d="M 68.699209 23.999595 C 67.804678 24.686399 66.786449 25.194761 65.69921 25.500292 C 63.399731 26.099801 62.499991 26.300065 61.399731 26.999705 M 60.19921 32.200153 C 61.408846 31.636589 62.687491 31.234777 63.999991 30.999852 L 65.800772 30.300211 M 67.699209 26.899573 C 66.910147 27.609484 65.941397 28.094739 64.901033 28.300138 C 62.499991 28.90093 61.59895 29.099911 60.499992 29.899683 " transform="matrix(3,0,0,3.042857,0,0)"/>
<path style="fill-rule:nonzero;fill:rgb(99.607843%,74.901961%,6.27451%);fill-opacity:1;stroke-width:0.4;stroke-linecap:round;stroke-linejoin:round;stroke:rgb(0%,0%,0%);stroke-opacity:1;stroke-miterlimit:4;" d="M 69.699209 33.299038 C 69.699209 35.121954 68.222647 36.599544 66.39973 36.599544 C 64.578116 36.599544 63.100252 35.121954 63.100252 33.299038 C 63.100252 31.477405 64.578116 29.999815 66.39973 29.999815 C 68.222647 29.999815 69.699209 31.477405 69.699209 33.299038 Z M 69.699209 33.299038 " transform="matrix(3,0,0,3.042857,0,0)"/>
<path style="fill-rule:nonzero;fill:rgb(99.607843%,74.901961%,6.27451%);fill-opacity:1;stroke-width:0.4;stroke-linecap:round;stroke-linejoin:round;stroke:rgb(0%,0%,0%);stroke-opacity:1;stroke-miterlimit:4;" d="M 68.699209 33.299038 C 68.699209 34.571228 67.670563 35.599507 66.39973 35.599507 C 65.128897 35.599507 64.100251 34.571228 64.100251 33.299038 C 64.100251 32.029415 65.128897 30.999852 66.39973 30.999852 C 67.670563 30.999852 68.699209 32.029415 68.699209 33.299038 Z M 68.699209 33.299038 " transform="matrix(3,0,0,3.042857,0,0)"/>
<path style=" stroke:none;fill-rule:nonzero;fill:rgb(81.568627%,60.784314%,2.745098%);fill-opacity:1;" d="M 203.097656 101.324219 C 203.097656 103.511719 201.355469 105.28125 199.199219 105.28125 C 197.046875 105.28125 195.300781 103.511719 195.300781 101.324219 C 195.300781 99.144531 197.046875 97.375 199.199219 97.375 C 201.355469 97.375 203.097656 99.144531 203.097656 101.324219 Z M 203.097656 101.324219 "/>
<path style="fill-rule:nonzero;fill:rgb(99.607843%,74.901961%,6.27451%);fill-opacity:1;stroke-width:0.4;stroke-linecap:round;stroke-linejoin:round;stroke:rgb(0%,0%,0%);stroke-opacity:1;stroke-miterlimit:4;" d="M 61.59895 29.099911 C 61.59895 30.922827 60.12369 32.400417 58.299471 32.400417 C 56.477857 32.400417 54.999992 30.922827 54.999992 29.099911 C 54.999992 27.278278 56.477857 25.800688 58.299471 25.800688 C 60.12369 25.800688 61.59895 27.278278 61.59895 29.099911 Z M 61.59895 29.099911 " transform="matrix(3,0,0,3.042857,0,0)"/>
<path style="fill-rule:nonzero;fill:rgb(99.607843%,74.901961%,6.27451%);fill-opacity:1;stroke-width:0.4;stroke-linecap:round;stroke-linejoin:round;stroke:rgb(0%,0%,0%);stroke-opacity:1;stroke-miterlimit:4;" d="M 60.600252 29.099911 C 60.600252 30.370817 59.570304 31.40038 58.299471 31.40038 C 57.028638 31.40038 55.999992 30.370817 55.999992 29.099911 C 55.999992 27.829004 57.028638 26.800725 58.299471 26.800725 C 59.570304 26.800725 60.600252 27.829004 60.600252 29.099911 Z M 60.600252 29.099911 " transform="matrix(3,0,0,3.042857,0,0)"/>
<path style=" stroke:none;fill-rule:nonzero;fill:rgb(81.568627%,60.784314%,2.745098%);fill-opacity:1;" d="M 178.800781 88.546875 C 178.800781 90.730469 177.054688 92.5 174.898438 92.5 C 172.746094 92.5 171 90.730469 171 88.546875 C 171 86.363281 172.746094 84.589844 174.898438 84.589844 C 177.054688 84.589844 178.800781 86.363281 178.800781 88.546875 Z M 178.800781 88.546875 "/>
<path style="fill-rule:nonzero;fill:rgb(99.607843%,74.901961%,6.27451%);fill-opacity:1;stroke-width:0.4;stroke-linecap:round;stroke-linejoin:round;stroke:rgb(0%,0%,0%);stroke-opacity:1;stroke-miterlimit:4;" d="M 70.899969 17.499594 C 70.900573 17.002548 70.273542 16.599398 69.500799 16.599682 C 68.726317 16.599397 68.099806 17.003355 68.100342 17.499811 C 68.099738 17.996857 68.726769 18.400007 69.499513 18.399723 C 70.272853 18.400597 70.901103 17.997207 70.899969 17.499594 Z M 70.899969 17.499594 " transform="matrix(1.375949,-2.703935,2.665852,1.395605,66.309557,216.657485)"/>
<path style="fill-rule:nonzero;fill:rgb(99.607843%,74.901961%,6.27451%);fill-opacity:1;stroke-width:0.4;stroke-linecap:round;stroke-linejoin:round;stroke:rgb(0%,0%,0%);stroke-opacity:1;stroke-miterlimit:4;" d="M 68.000423 18.199884 C 67.999951 17.426454 67.596805 16.799317 67.099875 16.799376 C 66.601804 16.800024 66.20054 17.42767 66.199274 18.200532 C 66.200888 18.973373 66.604033 19.60051 67.100964 19.600451 C 67.596156 19.599824 67.999158 18.972746 68.000423 18.199884 Z M 68.000423 18.199884 " transform="matrix(1.375949,-2.703935,2.665852,1.395605,60.600281,211.472785)"/>
<path style="fill-rule:nonzero;fill:rgb(99.607843%,74.901961%,6.27451%);fill-opacity:1;stroke-width:0.4;stroke-linecap:round;stroke-linejoin:round;stroke:rgb(0%,0%,0%);stroke-opacity:1;stroke-miterlimit:4;" d="M 71.199512 19.799706 C 71.199636 19.027433 70.796491 18.400296 70.300701 18.399766 C 69.803771 18.399825 69.399628 19.027492 69.400644 19.799176 C 69.399976 20.573195 69.802524 21.199175 70.299455 21.199116 C 70.796982 21.200214 71.199984 20.573136 71.199512 19.799706 Z M 71.199512 19.799706 " transform="matrix(1.375949,-2.703935,2.665852,1.395605,61.515643,222.733943)"/>
<path style="fill-rule:nonzero;fill:rgb(99.607843%,74.901961%,6.27451%);fill-opacity:1;stroke-width:0.4;stroke-linecap:round;stroke-linejoin:round;stroke:rgb(0%,0%,0%);stroke-opacity:1;stroke-miterlimit:4;" d="M 69.600251 19.099544 C 69.600251 19.652838 69.152334 20.099581 68.600251 20.099581 C 68.048168 20.099581 67.600251 19.652838 67.600251 19.099544 C 67.600251 18.548818 68.048168 18.099508 68.600251 18.099508 C 69.152334 18.099508 69.600251 18.548818 69.600251 19.099544 Z M 69.600251 19.099544 " transform="matrix(3,0,0,3.042857,0,0)"/>
<path style=" stroke:none;fill-rule:nonzero;fill:rgb(81.568627%,60.784314%,2.745098%);fill-opacity:1;" d="M 206.703125 56.292969 L 205.5 56.292969 C 206.347656 56.925781 206.601562 58.097656 206.097656 59.03125 C 205.84375 59.628906 205.238281 59.996094 204.601562 59.941406 L 204.898438 59.941406 C 205.898438 60.398438 207.070312 60 207.601562 59.03125 C 207.910156 58.5625 207.988281 57.976562 207.8125 57.4375 C 207.636719 56.902344 207.222656 56.480469 206.703125 56.292969 Z M 206.703125 56.292969 "/>
<path style="fill-rule:nonzero;fill:rgb(99.607843%,74.901961%,6.27451%);fill-opacity:1;stroke-width:0.4;stroke-linecap:round;stroke-linejoin:round;stroke:rgb(0%,0%,0%);stroke-opacity:1;stroke-miterlimit:4;" d="M 65.200512 28.700666 C 65.200512 29.583882 64.484366 30.300211 63.598949 30.300211 C 62.716137 30.300211 61.999991 29.583882 61.999991 28.700666 C 61.999991 27.816167 62.716137 27.099837 63.598949 27.099837 C 64.484366 27.099837 65.200512 27.816167 65.200512 28.700666 Z M 65.200512 28.700666 " transform="matrix(3,0,0,3.042857,0,0)"/>
<path style=" stroke:none;fill-rule:nonzero;fill:rgb(0%,0%,0%);fill-opacity:1;" d="M 193.796875 87.332031 C 193.796875 89.007812 192.457031 90.375 190.796875 90.375 C 189.144531 90.375 187.796875 89.007812 187.796875 87.332031 C 187.796875 85.648438 189.144531 84.285156 190.796875 84.285156 C 192.457031 84.285156 193.796875 85.648438 193.796875 87.332031 Z M 193.796875 87.332031 "/>
<path style="fill-rule:nonzero;fill:rgb(99.607843%,74.901961%,6.27451%);fill-opacity:1;stroke-width:0.4;stroke-linecap:round;stroke-linejoin:round;stroke:rgb(0%,0%,0%);stroke-opacity:1;stroke-miterlimit:4;" d="M 61.499991 29.999815 C 61.499991 30.884315 60.783846 31.600644 59.899731 31.600644 C 59.015617 31.600644 58.299471 30.884315 58.299471 29.999815 C 58.299471 29.116599 59.015617 28.40027 59.899731 28.40027 C 60.783846 28.40027 61.499991 29.116599 61.499991 29.999815 Z M 61.499991 29.999815 " transform="matrix(3,0,0,3.042857,0,0)"/>
<path style=" stroke:none;fill-rule:nonzero;fill:rgb(0%,0%,0%);fill-opacity:1;" d="M 182.699219 91.285156 C 182.699219 92.964844 181.355469 94.328125 179.699219 94.328125 C 178.042969 94.328125 176.699219 92.964844 176.699219 91.285156 C 176.699219 89.605469 178.042969 88.242188 179.699219 88.242188 C 181.355469 88.242188 182.699219 89.605469 182.699219 91.285156 Z M 182.699219 91.285156 "/>
<path style="fill-rule:nonzero;fill:rgb(99.607843%,74.901961%,6.27451%);fill-opacity:1;stroke-width:0.4;stroke-linecap:round;stroke-linejoin:round;stroke:rgb(0%,0%,0%);stroke-opacity:1;stroke-miterlimit:4;" d="M 66.600251 32.499265 C 66.600251 33.383765 65.882803 34.100094 64.999991 34.100094 C 64.115876 34.100094 63.399731 33.383765 63.399731 32.499265 C 63.399731 31.617333 64.115876 30.89972 64.999991 30.89972 C 65.882803 30.89972 66.600251 31.617333 66.600251 32.499265 Z M 66.600251 32.499265 " transform="matrix(3,0,0,3.042857,0,0)"/>
<path style=" stroke:none;fill-rule:nonzero;fill:rgb(0%,0%,0%);fill-opacity:1;" d="M 198 98.890625 C 198 100.574219 196.65625 101.933594 195 101.933594 C 193.34375 101.933594 192 100.574219 192 98.890625 C 192 97.210938 193.34375 95.851562 195 95.851562 C 196.65625 95.851562 198 97.210938 198 98.890625 Z M 198 98.890625 "/>
<path style="fill-rule:nonzero;fill:rgb(99.607843%,74.901961%,6.27451%);fill-opacity:1;stroke-width:0.4;stroke-linecap:round;stroke-linejoin:round;stroke:rgb(0%,0%,0%);stroke-opacity:1;stroke-miterlimit:4;" d="M 64.999991 31.198832 C 64.999991 32.691827 63.790356 33.89983 62.29947 33.89983 C 60.808585 33.89983 59.600252 32.691827 59.600252 31.198832 C 59.600252 29.708405 60.808585 28.500402 62.29947 28.500402 C 63.790356 28.500402 64.999991 29.708405 64.999991 31.198832 Z M 64.999991 31.198832 " transform="matrix(3,0,0,3.042857,0,0)"/>
<path style=" stroke:none;fill-rule:nonzero;fill:rgb(0%,39.607843%,71.764706%);fill-opacity:1;" d="M 117.898438 262.597656 L 114.300781 249.210938 L 101.699219 254.382812 L 65.398438 327.714844 L 81.597656 336.234375 Z M 117.898438 262.597656 "/>
<path style=" stroke:none;fill-rule:nonzero;fill:rgb(0%,30.196078%,63.137255%);fill-opacity:1;" d="M 117.898438 262.597656 L 114.300781 249.210938 L 73.5 331.976562 L 81.597656 336.234375 Z M 117.898438 262.597656 "/>
<path style="fill:none;stroke-width:0.4;stroke-linecap:round;stroke-linejoin:round;stroke:rgb(0%,0%,0%);stroke-opacity:1;stroke-miterlimit:4;" d="M 39.299474 86.299695 L 38.100255 81.900305 L 33.899735 83.599982 L 21.799476 107.699709 L 27.199215 110.499555 Z M 39.299474 86.299695 " transform="matrix(3,0,0,3.042857,0,0)"/>
<path style="fill-rule:nonzero;fill:rgb(0%,39.607843%,71.764706%);fill-opacity:1;stroke-width:0.4;stroke-linecap:round;stroke-linejoin:round;stroke:rgb(0%,0%,0%);stroke-opacity:1;stroke-miterlimit:4;" d="M 38.100255 81.900305 L 24.499997 109.000142 " transform="matrix(3,0,0,3.042857,0,0)"/>
<path style="fill-rule:nonzero;fill:rgb(99.607843%,74.901961%,6.27451%);fill-opacity:1;stroke-width:0.4;stroke-linecap:round;stroke-linejoin:round;stroke:rgb(0%,0%,0%);stroke-opacity:1;stroke-miterlimit:4;" d="M 24.669267 108.729272 L 23.450518 104.910133 L 27.220048 103.709833 L 28.4401 107.519985 Z M 24.669267 108.729272 " transform="matrix(3,0,0,3.042857,0,0)"/>
<path style=" stroke:none;fill-rule:nonzero;fill:rgb(0%,0%,0%);fill-opacity:1;" d="M 72.511719 333.800781 L 68.847656 322.207031 L 80.1875 318.558594 L 83.820312 330.121094 Z M 72.511719 333.800781 "/>
<path style="fill-rule:nonzero;fill:rgb(99.607843%,74.901961%,6.27451%);fill-opacity:1;stroke-width:0.4;stroke-linecap:round;stroke-linejoin:round;stroke:rgb(0%,0%,0%);stroke-opacity:1;stroke-miterlimit:4;" d="M 19.499997 112.500912 C 21.700518 108.199086 24.299476 106.100164 25.700517 106.799805 C 27.100257 107.500729 26.800778 110.799951 24.600257 115.100494 C 23.085934 117.892637 20.792966 120.185404 17.999997 121.700222 C 17.648435 118.553765 18.167966 115.371364 19.499997 112.500912 Z M 19.499997 112.500912 " transform="matrix(3,0,0,3.042857,0,0)"/>
<path style="fill:none;stroke-width:0.4;stroke-linecap:round;stroke-linejoin:round;stroke:rgb(0%,0%,0%);stroke-opacity:1;stroke-miterlimit:4;" d="M 25.600257 113.000288 C 24.499997 113.699929 23.600257 113.900193 21.300778 114.499702 C 20.213539 114.805233 19.19531 115.313595 18.300779 116.000398 M 17.999997 118.399716 C 18.720049 117.878516 19.535154 117.503663 20.399737 117.299547 C 21.623695 117.017124 22.82682 116.648689 23.999997 116.200662 M 26.499996 110.100311 C 25.401038 110.900083 24.499997 111.099063 22.098955 111.699856 C 21.058591 111.905255 20.089841 112.39051 19.300779 113.100421 " transform="matrix(3,0,0,3.042857,0,0)"/>
<path style="fill:none;stroke-width:0.4;stroke-linecap:round;stroke-linejoin:round;stroke:rgb(0%,0%,0%);stroke-opacity:1;stroke-miterlimit:4;" d="M 18.300779 116.000398 C 19.19531 115.313595 20.213539 114.805233 21.300778 114.499702 C 23.600257 113.900193 24.499997 113.699929 25.600257 113.000288 M 26.800778 107.799841 C 25.591142 108.363405 24.312497 108.765217 22.999997 109.000142 L 21.199216 109.699782 M 19.300779 113.100421 C 20.089841 112.39051 21.058591 111.905255 22.098955 111.699856 C 24.499997 111.099063 25.401038 110.900083 26.499996 110.100311 " transform="matrix(3,0,0,3.042857,0,0)"/>
<path style="fill-rule:nonzero;fill:rgb(99.607843%,74.901961%,6.27451%);fill-opacity:1;stroke-width:0.4;stroke-linecap:round;stroke-linejoin:round;stroke:rgb(0%,0%,0%);stroke-opacity:1;stroke-miterlimit:4;" d="M 23.899736 106.700956 C 23.899736 108.522589 22.421872 110.000179 20.600258 110.000179 C 18.777341 110.000179 17.300779 108.522589 17.300779 106.700956 C 17.300779 104.87804 18.777341 103.40045 20.600258 103.40045 C 22.421872 103.40045 23.899736 104.87804 23.899736 106.700956 Z M 23.899736 106.700956 " transform="matrix(3,0,0,3.042857,0,0)"/>
<path style="fill-rule:nonzero;fill:rgb(99.607843%,74.901961%,6.27451%);fill-opacity:1;stroke-width:0.4;stroke-linecap:round;stroke-linejoin:round;stroke:rgb(0%,0%,0%);stroke-opacity:1;stroke-miterlimit:4;" d="M 22.899736 106.700956 C 22.899736 107.970579 21.871091 109.000142 20.600258 109.000142 C 19.329424 109.000142 18.300779 107.970579 18.300779 106.700956 C 18.300779 105.428766 19.329424 104.400487 20.600258 104.400487 C 21.871091 104.400487 22.899736 105.428766 22.899736 106.700956 Z M 22.899736 106.700956 " transform="matrix(3,0,0,3.042857,0,0)"/>
<path style=" stroke:none;fill-rule:nonzero;fill:rgb(81.568627%,60.784314%,2.745098%);fill-opacity:1;" d="M 65.699219 324.675781 C 65.699219 326.855469 63.953125 328.625 61.800781 328.625 C 59.644531 328.625 57.902344 326.855469 57.902344 324.675781 C 57.902344 322.488281 59.644531 320.71875 61.800781 320.71875 C 63.953125 320.71875 65.699219 322.488281 65.699219 324.675781 Z M 65.699219 324.675781 "/>
<path style="fill-rule:nonzero;fill:rgb(99.607843%,74.901961%,6.27451%);fill-opacity:1;stroke-width:0.4;stroke-linecap:round;stroke-linejoin:round;stroke:rgb(0%,0%,0%);stroke-opacity:1;stroke-miterlimit:4;" d="M 31.999996 110.900083 C 31.999996 112.721716 30.522131 114.199305 28.700517 114.199305 C 26.876298 114.199305 25.401038 112.721716 25.401038 110.900083 C 25.401038 109.077167 26.876298 107.599577 28.700517 107.599577 C 30.522131 107.599577 31.999996 109.077167 31.999996 110.900083 Z M 31.999996 110.900083 " transform="matrix(3,0,0,3.042857,0,0)"/>
<path style="fill-rule:nonzero;fill:rgb(99.607843%,74.901961%,6.27451%);fill-opacity:1;stroke-width:0.4;stroke-linecap:round;stroke-linejoin:round;stroke:rgb(0%,0%,0%);stroke-opacity:1;stroke-miterlimit:4;" d="M 30.999996 110.900083 C 30.999996 112.17099 29.97135 113.199269 28.700517 113.199269 C 27.429684 113.199269 26.399736 112.17099 26.399736 110.900083 C 26.399736 109.629177 27.429684 108.600898 28.700517 108.600898 C 29.97135 108.600898 30.999996 109.629177 30.999996 110.900083 Z M 30.999996 110.900083 " transform="matrix(3,0,0,3.042857,0,0)"/>
<path style=" stroke:none;fill-rule:nonzero;fill:rgb(81.568627%,60.784314%,2.745098%);fill-opacity:1;" d="M 90 337.453125 C 90 339.636719 88.253906 341.410156 86.101562 341.410156 C 83.945312 341.410156 82.199219 339.636719 82.199219 337.453125 C 82.199219 335.269531 83.945312 333.5 86.101562 333.5 C 88.253906 333.5 90 335.269531 90 337.453125 Z M 90 337.453125 "/>
<path style="fill-rule:nonzero;fill:rgb(99.607843%,74.901961%,6.27451%);fill-opacity:1;stroke-width:0.4;stroke-linecap:round;stroke-linejoin:round;stroke:rgb(0%,0%,0%);stroke-opacity:1;stroke-miterlimit:4;" d="M 18.900461 122.499767 C 18.899327 122.002153 18.274034 121.599572 17.499553 121.599287 C 16.72681 121.59957 16.099701 122.002371 16.099694 122.500574 C 16.100231 122.997031 16.726664 123.399023 17.500005 123.399897 C 18.273345 123.400771 18.900454 122.99797 18.900461 122.499767 Z M 18.900461 122.499767 " transform="matrix(1.375949,-2.703935,2.665852,1.395605,-298.193429,249.210743)"/>
<path style="fill-rule:nonzero;fill:rgb(99.607843%,74.901961%,6.27451%);fill-opacity:1;stroke-width:0.4;stroke-linecap:round;stroke-linejoin:round;stroke:rgb(0%,0%,0%);stroke-opacity:1;stroke-miterlimit:4;" d="M 20.799692 121.799794 C 20.80036 121.025775 20.397811 120.399795 19.89974 120.400443 C 19.40281 120.400502 19.000352 121.025834 18.999683 121.799853 C 18.999015 122.573871 19.403301 123.20042 19.900232 123.200361 C 20.397162 123.200302 20.800164 122.573224 20.799692 121.799794 Z M 20.799692 121.799794 " transform="matrix(1.375949,-2.703935,2.665852,1.395605,-292.487523,254.694118)"/>
<path style="fill-rule:nonzero;fill:rgb(99.607843%,74.901961%,6.27451%);fill-opacity:1;stroke-width:0.4;stroke-linecap:round;stroke-linejoin:round;stroke:rgb(0%,0%,0%);stroke-opacity:1;stroke-miterlimit:4;" d="M 17.600159 120.200403 C 17.599687 119.426973 17.196541 118.799836 16.699611 118.799895 C 16.20268 118.799954 15.799679 119.427032 15.800151 120.200462 C 15.800027 120.972735 16.203172 121.599872 16.700103 121.599813 C 17.195892 121.600343 17.600632 120.973833 17.600159 120.200403 Z M 17.600159 120.200403 " transform="matrix(1.375949,-2.703935,2.665852,1.395605,-293.399515,243.134284)"/>
<path style="fill-rule:nonzero;fill:rgb(99.607843%,74.901961%,6.27451%);fill-opacity:1;stroke-width:0.4;stroke-linecap:round;stroke-linejoin:round;stroke:rgb(0%,0%,0%);stroke-opacity:1;stroke-miterlimit:4;" d="M 19.399737 120.90045 C 19.399737 121.452459 18.95182 121.900486 18.399737 121.900486 C 17.847654 121.900486 17.399737 121.452459 17.399737 120.90045 C 17.399737 120.347156 17.847654 119.900413 18.399737 119.900413 C 18.95182 119.900413 19.399737 120.347156 19.399737 120.90045 Z M 19.399737 120.90045 " transform="matrix(3,0,0,3.042857,0,0)"/>
<path style=" stroke:none;fill-rule:nonzero;fill:rgb(81.568627%,60.784314%,2.745098%);fill-opacity:1;" d="M 54.296875 369.707031 L 55.5 369.707031 C 54.652344 369.074219 54.398438 367.902344 54.902344 366.96875 C 55.15625 366.371094 55.761719 366.003906 56.398438 366.058594 L 56.101562 366.058594 C 55.101562 365.601562 53.929688 366 53.398438 366.96875 C 53.089844 367.4375 53.011719 368.023438 53.1875 368.5625 C 53.363281 369.097656 53.777344 369.519531 54.296875 369.707031 Z M 54.296875 369.707031 "/>
<path style="fill-rule:nonzero;fill:rgb(99.607843%,74.901961%,6.27451%);fill-opacity:1;stroke-width:0.4;stroke-linecap:round;stroke-linejoin:round;stroke:rgb(0%,0%,0%);stroke-opacity:1;stroke-miterlimit:4;" d="M 24.999997 111.299328 C 24.999997 112.183827 24.283851 112.900156 23.401038 112.900156 C 22.515622 112.900156 21.799476 112.183827 21.799476 111.299328 C 21.799476 110.416112 22.515622 109.699782 23.401038 109.699782 C 24.283851 109.699782 24.999997 110.416112 24.999997 111.299328 Z M 24.999997 111.299328 " transform="matrix(3,0,0,3.042857,0,0)"/>
<path style=" stroke:none;fill-rule:nonzero;fill:rgb(0%,0%,0%);fill-opacity:1;" d="M 73.203125 338.667969 C 73.203125 340.351562 71.855469 341.714844 70.203125 341.714844 C 68.542969 341.714844 67.203125 340.351562 67.203125 338.667969 C 67.203125 336.992188 68.542969 335.625 70.203125 335.625 C 71.855469 335.625 73.203125 336.992188 73.203125 338.667969 Z M 73.203125 338.667969 "/>
<path style="fill-rule:nonzero;fill:rgb(99.607843%,74.901961%,6.27451%);fill-opacity:1;stroke-width:0.4;stroke-linecap:round;stroke-linejoin:round;stroke:rgb(0%,0%,0%);stroke-opacity:1;stroke-miterlimit:4;" d="M 28.700517 110.000179 C 28.700517 110.883394 27.984371 111.599724 27.100257 111.599724 C 26.216142 111.599724 25.499996 110.883394 25.499996 110.000179 C 25.499996 109.115679 26.216142 108.39935 27.100257 108.39935 C 27.984371 108.39935 28.700517 109.115679 28.700517 110.000179 Z M 28.700517 110.000179 " transform="matrix(3,0,0,3.042857,0,0)"/>
<path style=" stroke:none;fill-rule:nonzero;fill:rgb(0%,0%,0%);fill-opacity:1;" d="M 84.300781 334.714844 C 84.300781 336.394531 82.957031 337.757812 81.300781 337.757812 C 79.644531 337.757812 78.300781 336.394531 78.300781 334.714844 C 78.300781 333.035156 79.644531 331.671875 81.300781 331.671875 C 82.957031 331.671875 84.300781 333.035156 84.300781 334.714844 Z M 84.300781 334.714844 "/>
<path style="fill-rule:nonzero;fill:rgb(99.607843%,74.901961%,6.27451%);fill-opacity:1;stroke-width:0.4;stroke-linecap:round;stroke-linejoin:round;stroke:rgb(0%,0%,0%);stroke-opacity:1;stroke-miterlimit:4;" d="M 23.600257 107.500729 C 23.600257 108.382661 22.884111 109.100274 21.999997 109.100274 C 21.117185 109.100274 20.399737 108.382661 20.399737 107.500729 C 20.399737 106.616229 21.117185 105.8999 21.999997 105.8999 C 22.884111 105.8999 23.600257 106.616229 23.600257 107.500729 Z M 23.600257 107.500729 " transform="matrix(3,0,0,3.042857,0,0)"/>
<path style=" stroke:none;fill-rule:nonzero;fill:rgb(0%,0%,0%);fill-opacity:1;" d="M 69 327.109375 C 69 328.789062 67.65625 330.148438 66 330.148438 C 64.34375 330.148438 63 328.789062 63 327.109375 C 63 325.425781 64.34375 324.066406 66 324.066406 C 67.65625 324.066406 69 325.425781 69 327.109375 Z M 69 327.109375 "/>
<path style="fill-rule:nonzero;fill:rgb(99.607843%,74.901961%,6.27451%);fill-opacity:1;stroke-width:0.4;stroke-linecap:round;stroke-linejoin:round;stroke:rgb(0%,0%,0%);stroke-opacity:1;stroke-miterlimit:4;" d="M 27.399736 108.801162 C 27.399736 110.291588 26.191403 111.499592 24.700517 111.499592 C 23.209632 111.499592 21.999997 110.291588 21.999997 108.801162 C 21.999997 107.308167 23.209632 106.100164 24.700517 106.100164 C 26.191403 106.100164 27.399736 107.308167 27.399736 108.801162 Z M 27.399736 108.801162 " transform="matrix(3,0,0,3.042857,0,0)"/>
</g>
</svg>
