<?xml version="1.0" encoding="UTF-8"?>
<svg xmlns="http://www.w3.org/2000/svg" xmlns:xlink="http://www.w3.org/1999/xlink" width="261px" height="420px" viewBox="0 0 261 426" version="1.1">
<g id="surface1">
<path style=" stroke:none;fill-rule:nonzero;fill:rgb(100%,100%,100%);fill-opacity:1;" d="M 20.078125 0 L 240.921875 0 C 252.011719 0 261 8.058594 261 18 L 261 402 C 261 411.941406 252.011719 420 240.921875 420 L 20.078125 420 C 8.988281 420 0 411.941406 0 402 L 0 18 C 0 8.058594 8.988281 0 20.078125 0 Z M 20.078125 0 "/>
<path style=" stroke:none;fill-rule:nonzero;fill:rgb(19.607843%,34.117647%,13.72549%);fill-opacity:1;" d="M 207.125 195 C 208.800781 190.800781 219.84375 181.800781 220.175781 173.101562 C 220.511719 164.398438 216.496094 160.199219 213.148438 160.800781 L 208.800781 162.601562 C 210.335938 148.132812 210.335938 133.566406 208.800781 119.101562 C 206.457031 96.300781 212.144531 91.199219 215.492188 79.5 C 218.839844 67.800781 215.828125 63.300781 213.148438 58.5 C 210.472656 53.699219 148.234375 41.101562 148.234375 41.101562 C 148.234375 41.101562 137.191406 47.101562 136.1875 56.699219 C 134.515625 70.800781 139.535156 109.5 147.898438 126.300781 C 147.898438 126.300781 137.863281 124.199219 136.523438 125.101562 C 135.183594 126 141.875 155.101562 142.878906 156.601562 C 145.953125 159.5625 149.3125 162.273438 152.917969 164.699219 C 152.917969 164.699219 153.589844 205.199219 153.253906 216.300781 C 152.917969 227.398438 155.261719 246.601562 153.253906 249 C 151.246094 251.398438 147.230469 247.800781 146.226562 247.5 C 145.222656 247.199219 137.863281 270 137.863281 270 C 140.808594 270.742188 143.46875 272.195312 145.558594 274.199219 C 148.570312 277.199219 157.269531 310.199219 153.589844 333.300781 C 149.90625 356.398438 146.226562 380.699219 148.570312 383.699219 C 150.910156 386.699219 195.082031 366.300781 198.09375 363 C 201.105469 359.699219 199.097656 340.5 199.097656 338.101562 C 199.210938 333.148438 201.21875 328.382812 204.785156 324.601562 C 209.132812 320.699219 206.792969 302.101562 206.792969 297.601562 C 206.792969 293.101562 203.113281 252 206.457031 242.699219 C 209.804688 233.398438 205.453125 199.199219 207.125 195 Z M 207.125 195 "/>
<path style=" stroke:none;fill-rule:nonzero;fill:rgb(59.607843%,3.137255%,1.960784%);fill-opacity:1;" d="M 193.074219 188.101562 C 193.074219 188.101562 186.714844 190.5 184.039062 208.5 C 181.363281 226.5 185.710938 253.5 185.710938 267 C 185.710938 280.5 180.359375 306.300781 179.019531 319.199219 C 177.679688 332.101562 181.695312 348.300781 187.050781 348.300781 C 192.402344 348.300781 188.722656 313.800781 192.070312 303.601562 C 195.414062 293.398438 202.109375 238.800781 200.433594 223.199219 C 198.761719 207.601562 197.089844 186.601562 193.074219 188.101562 Z M 193.074219 188.101562 "/>
<path style=" stroke:none;fill-rule:nonzero;fill:rgb(5.098039%,22.745098%,7.058824%);fill-opacity:1;" d="M 197.089844 82.199219 C 197.089844 82.199219 186.714844 114 185.710938 141 C 184.707031 168 188.722656 172.800781 188.722656 172.800781 L 209.804688 161.699219 C 209.804688 161.699219 210.472656 131.699219 209.804688 123.300781 C 209.132812 114.898438 207.125 98.699219 210.808594 91.5 C 215.175781 83.804688 217.25 75.226562 216.832031 66.601562 L 215.15625 63.300781 C 215.15625 63.300781 217.5 72.300781 211.476562 76.800781 C 207.175781 79.519531 202.265625 81.359375 197.089844 82.199219 Z M 220.175781 170.699219 C 220.175781 170.699219 195.082031 180.601562 190.394531 189.601562 C 185.710938 198.601562 186.714844 238.199219 189.058594 250.800781 C 191.398438 263.398438 191.398438 290.699219 186.714844 300.601562 C 182.03125 310.5 180.359375 344.101562 187.050781 357.300781 L 194.746094 356.101562 L 199.765625 358.800781 L 199.765625 337.800781 L 201.773438 327.300781 C 201.773438 327.300781 208.128906 317.101562 207.460938 310.199219 L 205.121094 258.601562 L 206.792969 239.699219 L 208.128906 213.300781 L 207.125 194.699219 L 217.164062 182.101562 L 220.175781 174.300781 Z M 149.90625 151.199219 C 149.90625 151.199219 162.289062 155.101562 162.289062 172.5 C 162.289062 189.898438 156.265625 227.699219 156.265625 237 C 156.265625 246.300781 153.921875 247.800781 153.921875 247.800781 L 152.917969 210 L 152.917969 164.699219 L 146.894531 160.5 L 142.210938 156.601562 Z M 148.902344 261.601562 C 148.902344 261.601562 164.628906 269.101562 161.621094 302.699219 C 158.609375 336.300781 153.253906 361.800781 152.917969 365.699219 C 152.554688 368.792969 152.554688 371.910156 152.917969 375 L 148.570312 382.800781 C 147.222656 374.3125 147.5625 365.679688 149.574219 357.300781 C 152.023438 345.195312 153.699219 332.976562 154.59375 320.699219 L 151.914062 295.199219 L 147.898438 278.101562 L 143.882812 273 L 139.535156 270 Z M 148.902344 261.601562 "/>
<path style="fill:none;stroke-width:0.4;stroke-linecap:round;stroke-linejoin:round;stroke:rgb(0%,0%,0%);stroke-opacity:1;stroke-miterlimit:4;" d="M 58.699623 56.5 C 60.30361 55.427083 61.972971 54.459635 63.699533 53.60026 C 64.699982 53.39974 65.900054 54.89974 65.799659 57.700521 C 65.700431 60.5 62.400233 63.60026 61.899425 65 C 61.399784 66.39974 62.700251 77.700521 61.699802 80.89974 C 60.700521 84.10026 61.800198 97.700521 61.800198 99.200521 C 61.800198 100.700521 62.499461 106.89974 61.200162 108.200521 C 60.134339 109.460938 59.534303 111.049479 59.500449 112.700521 C 59.500449 113.5 60.00009 119.89974 59.200431 121 C 58.399605 122.10026 45.199982 128.89974 44.400323 127.89974 C 43.599497 126.89974 44.799569 118.89974 45.900413 111.10026 C 47.00009 103.299479 44.400323 92.39974 43.500269 91.39974 C 42.875718 90.731771 42.080729 90.247396 41.200521 90 C 41.200521 90 43.200251 82.5 43.500269 82.60026 C 43.800287 82.700521 45.199982 83.700521 45.800018 83 C 46.400054 82.299479 45.699623 75.89974 45.800018 72.10026 C 45.900413 68.299479 45.699623 54.89974 45.699623 54.89974 C 44.622126 54.091146 43.618175 53.1875 42.699443 52.200521 C 42.399425 51.700521 40.300467 42.39974 40.699713 42 C 41.100126 41.60026 44.199533 42.10026 44.199533 42.10026 C 41.700162 36.5 40.300467 24 40.699713 19.299479 C 41.011404 17.122396 42.204472 15.169271 43.99991 13.89974 C 43.99991 13.89974 62.799479 17.89974 63.699533 19.5 C 64.599587 21.10026 65.400413 22.60026 64.399964 26.5 C 63.399515 30.39974 61.699802 32.10026 62.400233 39.700521 C 62.877694 44.454427 62.877694 49.244792 62.400233 54 " transform="matrix(3.346154,0,0,3,0,0)"/>
<path style=" stroke:none;fill-rule:nonzero;fill:rgb(19.607843%,34.117647%,13.72549%);fill-opacity:1;" d="M 115.441406 309 C 114.4375 309.300781 98.710938 320.699219 98.710938 320.699219 L 100.71875 293.398438 L 102.058594 318 C 102.058594 318 101.722656 286.800781 101.722656 275.101562 L 102.390625 266.699219 C 104.066406 256.5 108.414062 237.898438 107.746094 232.5 C 106.597656 227.351562 105.816406 222.140625 105.402344 216.898438 L 106.074219 209.398438 C 106.179688 206.097656 108.589844 203.214844 112.097656 202.199219 C 123.136719 199.5 122.132812 195.300781 122.132812 195.300781 C 122.132812 195.300781 117.117188 170.699219 114.773438 170.699219 C 112.511719 171.152344 110.359375 171.964844 108.414062 173.101562 L 108.414062 172.5 C 107.230469 162.128906 107.230469 151.671875 108.414062 141.300781 C 110.421875 125.101562 117.785156 122.699219 118.453125 111 C 119.125 99.300781 117.117188 68.101562 118.121094 59.699219 C 118.464844 53.996094 116.828125 48.335938 113.433594 43.5 C 112.765625 41.699219 53.203125 52.5 53.203125 52.5 C 53.203125 52.5 39.820312 65.101562 41.828125 100.199219 C 43.835938 135.300781 52.535156 171.601562 50.191406 183.300781 C 47.851562 195 50.863281 232.199219 51.867188 242.699219 L 55.210938 268.800781 C 53.933594 266.195312 52.242188 263.773438 50.191406 261.601562 C 48.519531 261 41.828125 277.800781 41.828125 277.800781 C 41.933594 280.484375 43.121094 283.042969 45.171875 285 C 48.519531 288 51.53125 291 51.195312 295.800781 C 50.863281 300.601562 47.851562 328.199219 49.523438 340.5 C 50.472656 350.179688 50.582031 359.90625 49.859375 369.601562 C 49.859375 371.699219 97.707031 380.101562 97.707031 380.101562 C 98.75 372.539062 99.085938 364.910156 98.710938 357.300781 C 98.179688 349.238281 103.425781 341.761719 111.761719 338.699219 C 116.445312 336.300781 123.472656 331.5 123.808594 326.101562 C 124.140625 320.699219 116.78125 308.699219 115.441406 309 Z M 115.441406 309 "/>
<path style=" stroke:none;fill-rule:nonzero;fill:rgb(59.607843%,3.137255%,1.960784%);fill-opacity:1;" d="M 54.875 69 C 51.785156 82.507812 52.242188 96.476562 56.214844 109.800781 C 62.90625 131.101562 63.578125 170.101562 61.234375 189.601562 C 58.890625 209.101562 62.90625 246 58.558594 251.699219 C 54.207031 257.398438 52.871094 191.699219 52.871094 191.699219 L 50.191406 133.800781 L 44.503906 79.5 C 44.503906 79.5 51.195312 48.300781 54.875 69 Z M 54.875 69 "/>
<path style=" stroke:none;fill-rule:nonzero;fill:rgb(5.098039%,22.745098%,7.058824%);fill-opacity:1;" d="M 51.195312 65.101562 C 51.195312 65.101562 43.164062 75.300781 49.859375 99.300781 C 56.550781 123.300781 59.5625 162.601562 56.214844 176.101562 C 52.871094 189.601562 59.5625 232.800781 59.226562 246.601562 C 59.039062 254.230469 57.6875 261.800781 55.210938 269.101562 L 50.191406 217.199219 C 50.191406 217.199219 48.519531 187.800781 50.191406 183.601562 C 51.867188 179.398438 47.515625 146.101562 47.515625 146.101562 C 47.515625 146.101562 37.8125 94.199219 41.828125 78 C 43.988281 69.082031 47.835938 60.558594 53.203125 52.800781 L 54.207031 63.601562 Z M 99.714844 72.601562 C 99.714844 72.601562 97.707031 91.5 93.023438 120.601562 C 88.339844 149.699219 83.652344 173.699219 84.992188 180.300781 C 86.332031 186.898438 85.328125 184.800781 85.328125 184.800781 L 108.414062 172.800781 C 108.414062 172.800781 106.40625 145.199219 108.082031 140.699219 C 109.753906 136.199219 117.785156 118.800781 118.453125 113.101562 C 119.125 107.398438 118.121094 64.800781 118.121094 64.800781 C 118.484375 60.601562 118.371094 56.378906 117.785156 52.199219 C 117.132812 49.789062 116.117188 47.46875 114.773438 45.300781 Z M 111.425781 186.300781 C 111.425781 186.300781 94.695312 191.699219 91.015625 196.800781 C 87.335938 201.898438 93.691406 235.5 91.015625 250.199219 C 88.339844 264.898438 87.667969 284.699219 90.347656 291.300781 C 90.347656 291.300781 78.632812 315 87 330.300781 L 102.726562 318 C 102.726562 318 101.054688 276.601562 101.722656 273 C 102.390625 269.398438 108.082031 237.601562 107.746094 232.5 C 107.410156 227.398438 104.734375 212.101562 106.074219 208.5 C 106.558594 204.9375 109.515625 202.042969 113.433594 201.300781 C 117.117188 201 122.132812 196.199219 122.132812 196.199219 L 118.789062 186.601562 Z M 114.4375 325.199219 C 114.4375 325.199219 100.382812 332.699219 93.023438 335.699219 C 85.660156 338.699219 84.65625 370.5 84.65625 370.5 L 97.707031 379.199219 C 97.707031 379.199219 98.375 349.199219 101.054688 346.5 C 105.652344 342.542969 110.699219 339.023438 116.113281 336 C 118.667969 333.882812 121.019531 331.574219 123.136719 329.101562 Z M 47.515625 275.101562 C 47.515625 275.101562 61.902344 276.601562 60.898438 297 C 59.894531 317.398438 51.867188 348 53.539062 356.101562 C 54.390625 359.757812 54.953125 363.46875 55.210938 367.199219 L 49.523438 369.601562 C 49.523438 369.601562 49.859375 343.199219 49.523438 336 C 49.1875 328.800781 51.195312 298.199219 51.195312 298.199219 L 50.191406 290.699219 L 44.839844 284.699219 L 41.828125 278.101562 Z M 47.515625 275.101562 "/>
<path style="fill:none;stroke-width:0.4;stroke-linecap:round;stroke-linejoin:round;stroke:rgb(0%,0%,0%);stroke-opacity:1;stroke-miterlimit:4;" d="M 29.49982 106.89974 C 29.49982 106.89974 34.400503 103 34.799749 102.89974 C 35.200162 102.799479 37.199892 107 37.000269 108.700521 C 36.799479 110.39974 34.799749 112.10026 33.400054 112.89974 C 30.908854 113.920573 29.341056 116.41276 29.49982 119.10026 C 29.614224 121.635417 29.547683 124.174479 29.300198 126.700521 C 29.300198 126.700521 14.999731 124.200521 14.999731 123.5 C 15.164332 120.166667 15.097791 116.824219 14.800108 113.5 C 14.300467 109.39974 15.200521 100.200521 15.299749 98.60026 C 15.400144 97 14.50009 96 13.499641 95 C 12.886764 94.347656 12.531879 93.494792 12.500359 92.60026 C 12.500359 92.60026 14.50009 87 14.999731 87.200521 C 15.612608 87.924479 16.118085 88.731771 16.49982 89.60026 L 15.500539 80.89974 C 15.200521 77.39974 14.399695 65 14.999731 61.10026 C 15.599767 57.200521 13.199623 45 12.500359 33.39974 C 11.799928 21.799479 16.399425 17.200521 16.399425 17.200521 C 16.399425 17.200521 33.700072 13.89974 33.899695 14.5 C 34.914152 16.111979 35.403287 17.998698 35.300557 19.89974 C 35.000539 22.700521 35.699802 33.10026 35.399784 37 C 35.099767 40.89974 32.999641 41.700521 32.399605 47.10026 C 32.045887 50.557292 32.045887 54.042969 32.399605 57.5 " transform="matrix(3.346154,0,0,3,0,0)"/>
<path style="fill:none;stroke-width:0.4;stroke-linecap:round;stroke-linejoin:round;stroke:rgb(0%,0%,0%);stroke-opacity:1;stroke-miterlimit:4;" d="M 27.900503 60.39974 C 27.900503 60.39974 33.899695 56.89974 34.700521 56.89974 C 35.50018 56.89974 36.499461 65.10026 36.499461 65.10026 C 36.499461 65.10026 36.799479 66.5 33.500449 67.39974 C 30.200251 68.299479 31.899964 75.200521 32.199982 77.5 C 32.5 79.799479 30.399874 88.5 30.399874 90.60026 C 30.399874 92.700521 30.500269 106 30.500269 106 " transform="matrix(3.346154,0,0,3,0,0)"/>
<path style="fill-rule:nonzero;fill:rgb(99.607843%,74.901961%,6.27451%);fill-opacity:1;stroke-width:0.4;stroke-linecap:round;stroke-linejoin:round;stroke:rgb(0%,0%,0%);stroke-opacity:1;stroke-miterlimit:4;" d="M 63.600305 100.799479 C 63.600305 100.799479 62.499461 100.39974 60.900144 102 C 59.299659 103.60026 57.899964 105.39974 57.899964 107.10026 C 57.899964 108.799479 57.400323 109.299479 60.300108 108.799479 C 63.199892 108.299479 63.799928 104.200521 63.799928 103.10026 C 63.799928 102 64.099946 101.299479 63.600305 100.799479 Z M 63.600305 100.799479 " transform="matrix(3.346154,0,0,3,0,0)"/>
<path style="fill:none;stroke-width:0.4;stroke-linecap:round;stroke-linejoin:round;stroke:rgb(0%,0%,0%);stroke-opacity:1;stroke-miterlimit:4;" d="M 62.799479 103.39974 C 62.799479 103.39974 62.799479 101.5 61.899425 102.10026 C 60.617636 103.173177 59.62069 104.546875 58.999641 106.10026 C 58.999641 106.60026 58.999641 108 60.199713 107.200521 C 60.963182 106.658854 61.581897 105.9375 61.99982 105.10026 " transform="matrix(3.346154,0,0,3,0,0)"/>
<path style="fill:none;stroke-width:0.4;stroke-linecap:round;stroke-linejoin:round;stroke:rgb(0%,0%,0%);stroke-opacity:1;stroke-miterlimit:4;" d="M 58.399605 107.60026 C 58.854885 108.02474 59.475934 108.226562 60.093481 108.148438 C 60.711027 108.071615 61.2632 107.723958 61.600575 107.200521 C 63.000269 105.299479 62.799479 104.5 62.799479 104.5 " transform="matrix(3.346154,0,0,3,0,0)"/>
<path style="fill-rule:nonzero;fill:rgb(99.607843%,74.901961%,6.27451%);fill-opacity:1;stroke-width:0.4;stroke-linecap:round;stroke-linejoin:round;stroke:rgb(0%,0%,0%);stroke-opacity:1;stroke-miterlimit:4;" d="M 15.100126 87.299479 C 15.100126 87.299479 14.50009 86.700521 13.600036 87.700521 C 12.802712 88.684896 12.410471 89.936198 12.500359 91.200521 C 12.500359 92.10026 12.099946 93.39974 13.499641 92.700521 C 14.900503 92 15.500539 88.200521 15.100126 87.299479 Z M 15.100126 87.299479 " transform="matrix(3.346154,0,0,3,0,0)"/>
<path style="fill:none;stroke-width:0.4;stroke-linecap:round;stroke-linejoin:round;stroke:rgb(0%,0%,0%);stroke-opacity:1;stroke-miterlimit:4;" d="M 14.699713 88.700521 C 14.699713 88.700521 14.399695 87.60026 13.900054 88.200521 C 13.400413 88.799479 12.699982 92.700521 13.499641 92.10026 C 14.300467 91.5 14.300467 89.39974 14.300467 89.39974 " transform="matrix(3.346154,0,0,3,0,0)"/>
<path style="fill-rule:nonzero;fill:rgb(99.607843%,74.901961%,6.27451%);fill-opacity:1;stroke-width:0.4;stroke-linecap:round;stroke-linejoin:round;stroke:rgb(0%,0%,0%);stroke-opacity:1;stroke-miterlimit:4;" d="M 36.400233 110.200521 C 36.400233 110.200521 37.900323 108.10026 37.399515 106.799479 C 36.899874 105.5 36.499461 104.89974 36.199443 103.89974 C 35.899425 102.89974 34.900144 102.299479 34.300108 103.39974 C 33.700072 104.5 34.100485 107.5 34.400503 108.5 C 34.700521 109.5 35.50018 110.60026 36.400233 110.200521 Z M 36.400233 110.200521 " transform="matrix(3.346154,0,0,3,0,0)"/>
<path style="fill:none;stroke-width:0.4;stroke-linecap:round;stroke-linejoin:round;stroke:rgb(0%,0%,0%);stroke-opacity:1;stroke-miterlimit:4;" d="M 34.900144 107.89974 C 34.900144 107.89974 35.399784 109.700521 36.199443 108.799479 C 37.000269 107.89974 35.899425 103.700521 35.099767 104.10026 C 34.300108 104.5 35.099767 106.700521 35.099767 106.700521 " transform="matrix(3.346154,0,0,3,0,0)"/>
<path style="fill-rule:nonzero;fill:rgb(99.607843%,74.901961%,6.27451%);fill-opacity:1;stroke-width:0.4;stroke-linecap:round;stroke-linejoin:round;stroke:rgb(0%,0%,0%);stroke-opacity:1;stroke-miterlimit:4;" d="M 43.200251 82.5 C 42.290858 83.529948 41.51805 84.673177 40.900503 85.89974 C 40.099677 87.60026 39.799659 90.299479 41.500539 90.39974 C 43.200251 90.5 44.299928 88.700521 44.499551 87.39974 C 44.700341 86.10026 45.199982 82.10026 43.200251 82.5 Z M 43.200251 82.5 " transform="matrix(3.346154,0,0,3,0,0)"/>
<path style="fill:none;stroke-width:0.4;stroke-linecap:round;stroke-linejoin:round;stroke:rgb(0%,0%,0%);stroke-opacity:1;stroke-miterlimit:4;" d="M 43.599497 84.39974 C 43.599497 84.39974 43.599497 83.39974 43.200251 83.700521 C 42.799838 84 42.100575 86.200521 41.500539 86.89974 C 40.900503 87.60026 41.200521 90.799479 42.300198 89.39974 C 43.056663 88.371094 43.538793 87.166667 43.699892 85.89974 M 42.900233 85.60026 C 42.929418 86.503906 42.722791 87.39974 42.300198 88.200521 " transform="matrix(3.346154,0,0,3,0,0)"/>
<path style="fill-rule:nonzero;fill:rgb(99.607843%,74.901961%,6.27451%);fill-opacity:1;stroke-width:0.4;stroke-linecap:round;stroke-linejoin:round;stroke:rgb(0%,0%,0%);stroke-opacity:1;stroke-miterlimit:4;" d="M 36.299838 57.700521 C 36.299838 57.700521 35.399784 56.39974 34.499731 56.89974 C 33.599677 57.39974 32.999641 60.39974 34.00009 62.799479 C 35.000539 65.200521 35.899425 65.89974 36.599856 65.39974 C 37.300287 64.89974 38.099946 63.10026 37.49991 61.39974 C 36.899874 59.700521 36.899874 57.89974 36.299838 57.700521 Z M 36.299838 57.700521 " transform="matrix(3.346154,0,0,3,0,0)"/>
<path style="fill:none;stroke-width:0.4;stroke-linecap:round;stroke-linejoin:round;stroke:rgb(0%,0%,0%);stroke-opacity:1;stroke-miterlimit:4;" d="M 35.800198 64.200521 C 35.800198 64.200521 35.099767 63.799479 34.799749 61.700521 C 34.499731 59.60026 34.499731 59 34.799749 58.5 C 35.099767 58 35.899425 58.299479 36.299838 59.5 C 36.588182 60.472656 36.722432 61.485677 36.700251 62.5 M 35.600575 59.60026 C 35.166307 60.561198 35.203664 61.669271 35.699802 62.60026 " transform="matrix(3.346154,0,0,3,0,0)"/>
<path style="fill-rule:nonzero;fill:rgb(99.607843%,74.901961%,6.27451%);fill-opacity:1;stroke-width:0.4;stroke-linecap:round;stroke-linejoin:round;stroke:rgb(0%,0%,0%);stroke-opacity:1;stroke-miterlimit:4;" d="M 42.600216 43.299479 C 42.600216 43.299479 42.49982 41.5 41.100126 41.799479 C 39.700431 42.10026 39.600036 46.10026 39.799659 46.89974 C 40.000449 47.700521 40.399695 49.200521 41.200521 49.5 C 42.00018 49.799479 41.700162 53.39974 43.899515 52 C 46.100036 50.60026 43.800287 44.60026 42.600216 43.299479 Z M 42.600216 43.299479 " transform="matrix(3.346154,0,0,3,0,0)"/>
<path style="fill:none;stroke-width:0.4;stroke-linecap:round;stroke-linejoin:round;stroke:rgb(0%,0%,0%);stroke-opacity:1;stroke-miterlimit:4;" d="M 43.200251 48.10026 C 43.200251 48.10026 43.099856 45.200521 42.300198 44.200521 C 41.500539 43.200521 40.800108 43.299479 40.699713 44.799479 C 40.600485 46.299479 41.800557 48.10026 42.100575 49.39974 C 42.399425 50.700521 43.500269 51.299479 43.800287 50.299479 M 41.899784 45.10026 C 41.600934 45.545573 41.56241 46.11849 41.800557 46.60026 " transform="matrix(3.346154,0,0,3,0,0)"/>
<path style=" stroke:none;fill-rule:nonzero;fill:rgb(99.607843%,74.901961%,6.27451%);fill-opacity:1;" d="M 69.265625 41.699219 C 62.90625 44.101562 53.539062 50.101562 52.199219 57.601562 C 50.863281 65.101562 51.195312 74.101562 62.574219 77.101562 C 73.949219 80.101562 77.628906 77.398438 79.304688 80.699219 C 80.976562 84 84.324219 102 85.660156 100.5 C 87 99 84.992188 81 91.351562 78 C 97.707031 75 108.082031 69.601562 113.101562 59.398438 C 118.121094 49.199219 112.765625 39 106.074219 36.300781 C 90.679688 30 75.289062 39.300781 69.265625 41.699219 Z M 69.265625 41.699219 "/>
<path style=" stroke:none;fill-rule:nonzero;fill:rgb(81.568627%,60.784314%,2.745098%);fill-opacity:1;" d="M 77.628906 38.101562 C 77.628906 38.101562 108.082031 47.101562 101.054688 72.300781 C 101.054688 72.300781 114.773438 63 115.109375 52.5 C 115.441406 42 109.753906 37.199219 100.71875 34.5 C 91.683594 31.800781 77.628906 38.101562 77.628906 38.101562 Z M 77.628906 38.101562 "/>
<path style="fill:none;stroke-width:0.4;stroke-linecap:round;stroke-linejoin:round;stroke:rgb(0%,0%,0%);stroke-opacity:1;stroke-miterlimit:4;" d="M 20.700072 13.89974 C 18.799569 14.700521 16.00018 16.700521 15.599767 19.200521 C 15.200521 21.700521 15.299749 24.700521 18.700341 25.700521 C 22.099767 26.700521 23.199443 25.799479 23.700251 26.89974 C 24.199892 28 25.200341 34 25.599587 33.5 C 26 33 25.399964 27 27.300467 26 C 29.199802 25 32.300377 23.200521 33.800467 19.799479 C 35.300557 16.39974 33.700072 13 31.700341 12.10026 C 27.099677 10 22.50018 13.10026 20.700072 13.89974 Z M 20.700072 13.89974 " transform="matrix(3.346154,0,0,3,0,0)"/>
<path style=" stroke:none;fill-rule:nonzero;fill:rgb(99.607843%,74.901961%,6.27451%);fill-opacity:1;" d="M 146.226562 41.699219 C 146.226562 41.699219 132.84375 53.699219 148.234375 64.800781 C 159.011719 72.144531 171.46875 77.265625 184.707031 79.800781 C 184.707031 79.800781 186.714844 78.898438 187.050781 82.800781 C 187.382812 86.699219 185.710938 91.800781 187.050781 92.699219 C 188.386719 93.601562 191.066406 84 192.738281 83.101562 C 194.410156 82.199219 209.804688 80.699219 213.484375 74.398438 C 217.164062 68.101562 214.488281 50.398438 208.464844 46.5 C 202.441406 42.601562 183.703125 33.601562 168.644531 34.800781 C 160.550781 34.929688 152.703125 37.34375 146.226562 41.699219 Z M 146.226562 41.699219 "/>
<path style=" stroke:none;fill-rule:nonzero;fill:rgb(81.568627%,60.784314%,2.745098%);fill-opacity:1;" d="M 177.347656 35.398438 C 177.347656 35.398438 209.804688 55.199219 195.75 82.199219 C 195.75 82.199219 210.808594 79.5 213.484375 74.398438 C 216.160156 69.300781 215.828125 54.601562 210.136719 48 C 204.449219 41.398438 181.027344 35.699219 177.347656 35.398438 Z M 177.347656 35.398438 "/>
<path style="fill:none;stroke-width:0.4;stroke-linecap:round;stroke-linejoin:round;stroke:rgb(0%,0%,0%);stroke-opacity:1;stroke-miterlimit:4;" d="M 43.699892 13.89974 C 43.699892 13.89974 39.700431 17.89974 44.299928 21.60026 C 47.520744 24.048177 51.243534 25.755208 55.199802 26.60026 C 55.199802 26.60026 55.799838 26.299479 55.900233 27.60026 C 55.999461 28.89974 55.49982 30.60026 55.900233 30.89974 C 56.299479 31.200521 57.100305 28 57.599946 27.700521 C 58.099587 27.39974 62.700251 26.89974 63.799928 24.799479 C 64.899605 22.700521 64.099946 16.799479 62.299838 15.5 C 60.499731 14.200521 54.899784 11.200521 50.399515 11.60026 C 47.980693 11.643229 45.635417 12.447917 43.699892 13.89974 Z M 29.300198 13 C 27.065823 12.265625 24.616649 12.636719 22.699802 14 C 20.541307 15.195312 18.719019 16.915365 17.399874 19 C 16.699443 20.10026 16.600216 23.799479 19.5 24.60026 C 22.399784 25.39974 25.599587 24.10026 27.200072 24 C 28.800557 23.89974 32.099587 21.60026 32.600395 20.10026 " transform="matrix(3.346154,0,0,3,0,0)"/>
<path style="fill:none;stroke-width:0.4;stroke-linecap:round;stroke-linejoin:round;stroke:rgb(0%,0%,0%);stroke-opacity:1;stroke-miterlimit:4;" d="M 18.700341 19.10026 C 18.700341 19.10026 20.700072 16 22.800198 15.10026 C 24.900323 14.200521 27.699713 13.5 28.899784 13.89974 C 30.099856 14.299479 32.000359 15.299479 31.899964 17.10026 C 31.799569 18.89974 31.199533 21.5 29.00018 21.89974 C 26.799659 22.299479 24.799928 23.5 23.100216 23.700521 C 21.66083 23.997396 20.173581 23.501302 19.199982 22.39974 " transform="matrix(3.346154,0,0,3,0,0)"/>
<path style="fill:none;stroke-width:0.4;stroke-linecap:round;stroke-linejoin:round;stroke:rgb(0%,0%,0%);stroke-opacity:1;stroke-miterlimit:4;" d="M 23.199443 16.10026 C 22.074084 16.964844 21.065463 17.973958 20.200431 19.10026 C 19.699623 20.299479 19.5 22.299479 21.799749 22.10026 C 23.253143 22.007812 24.692529 21.773438 26.100395 21.39974 C 27.300467 21.200521 29.699443 20.299479 30.099856 19.10026 C 30.500269 17.89974 30.299479 16.799479 29.600216 16.39974 " transform="matrix(3.346154,0,0,3,0,0)"/>
<path style="fill:none;stroke-width:0.4;stroke-linecap:round;stroke-linejoin:round;stroke:rgb(0%,0%,0%);stroke-opacity:1;stroke-miterlimit:4;" d="M 21.900144 19.5 C 21.900144 19.5 22.99982 17 24.699533 16.60026 C 26.400413 16.200521 28.400144 16.299479 28.800557 17.200521 C 29.199802 18.10026 28.200521 20 26.300018 20.39974 " transform="matrix(3.346154,0,0,3,0,0)"/>
<path style="fill:none;stroke-width:0.4;stroke-linecap:round;stroke-linejoin:round;stroke:rgb(0%,0%,0%);stroke-opacity:1;stroke-miterlimit:4;" d="M 24.699533 18.10026 C 24.699533 18.10026 22.99982 19.299479 23.100216 19.799479 C 23.199443 20.299479 25.200341 19.799479 25.899605 19.299479 C 26.600036 18.799479 26.799659 18.200521 26.199623 17.89974 C 25.599587 17.60026 24.900323 17.39974 24.699533 18.10026 Z M 44.299928 14.700521 C 44.299928 14.700521 42.100575 20.5 47.700521 22.299479 C 53.300467 24.10026 55.699443 25.10026 57.599946 25.10026 C 59.500449 25.10026 63.099497 24.60026 63.300287 22.200521 C 63.49991 19.799479 61.200162 15.10026 56.200251 14.10026 L 51.200341 13.10026 " transform="matrix(3.346154,0,0,3,0,0)"/>
<path style="fill:none;stroke-width:0.4;stroke-linecap:round;stroke-linejoin:round;stroke:rgb(0%,0%,0%);stroke-opacity:1;stroke-miterlimit:4;" d="M 59.200431 17.89974 C 59.200431 17.89974 53.699713 14.60026 50.600305 14.60026 C 47.499731 14.60026 46.299659 14.799479 45.699623 16.799479 C 45.099587 18.799479 47.199713 21.10026 50.699533 22 C 54.200521 22.89974 57.499551 24.39974 59.500449 23.60026 C 61.50018 22.799479 61.099767 21.39974 61.099767 21.39974 " transform="matrix(3.346154,0,0,3,0,0)"/>
<path style="fill:none;stroke-width:0.4;stroke-linecap:round;stroke-linejoin:round;stroke:rgb(0%,0%,0%);stroke-opacity:1;stroke-miterlimit:4;" d="M 48.300557 16.60026 C 48.300557 16.60026 52.600036 16 55.199802 17.200521 C 57.799569 18.39974 59.200431 20.60026 58.600395 21.299479 C 58.000359 22 52.199623 21.5 49.799479 19.89974 C 47.400503 18.299479 47.499731 17.60026 47.499731 17.60026 " transform="matrix(3.346154,0,0,3,0,0)"/>
<path style="fill:none;stroke-width:0.4;stroke-linecap:round;stroke-linejoin:round;stroke:rgb(0%,0%,0%);stroke-opacity:1;stroke-miterlimit:4;" d="M 50.199892 18.10026 C 50.199892 18.10026 53.200072 17.700521 54.599767 18.299479 C 55.999461 18.89974 54.700162 19.5 54.700162 20 C 54.700162 20.5 53.200072 20.700521 50.199892 18.10026 Z M 50.199892 18.10026 " transform="matrix(3.346154,0,0,3,0,0)"/>
<path style="fill-rule:nonzero;fill:rgb(99.607843%,74.901961%,6.27451%);fill-opacity:1;stroke-width:0.4;stroke-linecap:round;stroke-linejoin:round;stroke:rgb(0%,0%,0%);stroke-opacity:1;stroke-miterlimit:4;" d="M 29.300198 126.700521 C 29.300198 126.700521 25.899605 122.700521 22.000539 121.89974 C 18.100305 121.10026 15.200521 122.700521 15.100126 123.60026 C 14.999731 124.5 16.600216 126.200521 19.099587 127.200521 C 21.600126 128.200521 20.800467 128.200521 23.400233 128 C 26 127.799479 29.00018 127.39974 29.300198 126.700521 Z M 29.300198 126.700521 " transform="matrix(3.346154,0,0,3,0,0)"/>
<path style="fill:none;stroke-width:0.4;stroke-linecap:round;stroke-linejoin:round;stroke:rgb(0%,0%,0%);stroke-opacity:1;stroke-miterlimit:4;" d="M 18.199533 122.5 C 18.199533 122.5 15.500539 123.89974 17.200251 124.89974 C 18.899964 125.89974 21.400503 127.200521 22.50018 127.200521 C 23.599856 127.200521 26.300018 127 26.499641 126.5 C 26.700431 126 25.399964 124.39974 24.000269 123.89974 " transform="matrix(3.346154,0,0,3,0,0)"/>
<path style="fill:none;stroke-width:0.4;stroke-linecap:round;stroke-linejoin:round;stroke:rgb(0%,0%,0%);stroke-opacity:1;stroke-miterlimit:4;" d="M 19.000359 124.700521 C 19.000359 124.700521 17.500269 123.700521 18.299928 123.39974 C 19.099587 123.10026 19.300377 123.200521 21.00009 123.700521 C 22.699802 124.200521 24.399515 124.39974 24.799928 125.200521 C 25.200341 126 22.899425 127.10026 21.799749 126 C 21.24991 125.382812 20.64754 124.813802 19.999641 124.299479 " transform="matrix(3.346154,0,0,3,0,0)"/>
<path style="fill-rule:nonzero;fill:rgb(99.607843%,74.901961%,6.27451%);fill-opacity:1;stroke-width:0.4;stroke-linecap:round;stroke-linejoin:round;stroke:rgb(0%,0%,0%);stroke-opacity:1;stroke-miterlimit:4;" d="M 50.300287 120.700521 C 50.254759 120.058594 50.154364 119.423177 50.000269 118.799479 C 49.700251 118.200521 49.799479 120.10026 49.299838 121 C 48.800198 121.89974 47.00009 123.39974 46.200431 124.39974 C 45.399605 125.39974 43.200251 129.200521 45.699623 128.60026 C 48.200162 128 51.699982 126 53.200072 125.799479 C 54.700162 125.60026 58.900413 123.700521 59.299659 121.89974 C 59.700072 120.10026 59.899695 119.200521 58.199982 118.89974 C 56.500269 118.60026 55.300198 119.39974 54.599767 119.10026 C 53.900503 118.799479 53.800108 118.39974 53.999731 117.89974 C 54.200521 117.39974 53.999731 116.89974 53.699713 116.200521 C 53.399695 115.5 53.50009 116.5 53.200072 117.5 C 52.900054 118.5 53.399695 119.200521 53.200072 119.60026 C 53.000449 120 50.300287 120.700521 50.300287 120.700521 Z M 50.300287 120.700521 " transform="matrix(3.346154,0,0,3,0,0)"/>
<path style="fill:none;stroke-width:0.4;stroke-linecap:round;stroke-linejoin:round;stroke:rgb(0%,0%,0%);stroke-opacity:1;stroke-miterlimit:4;" d="M 49.700251 122.39974 C 49.700251 122.39974 45.399605 126.5 45.999641 126.89974 C 46.599677 127.299479 50.300287 125.700521 51.200341 125.200521 C 52.427263 124.604167 53.697378 124.102865 55.00018 123.700521 C 55.799838 123.5 58.199982 122.39974 58.199982 121.39974 C 58.199982 120.39974 56.699892 119.89974 55.699443 120 " transform="matrix(3.346154,0,0,3,0,0)"/>
<path style="fill:none;stroke-width:0.4;stroke-linecap:round;stroke-linejoin:round;stroke:rgb(0%,0%,0%);stroke-opacity:1;stroke-miterlimit:4;" d="M 48.699802 124.5 C 49.648886 123.901042 50.551275 123.233073 51.399964 122.5 C 52.00467 121.833333 52.7588 121.31901 53.600485 121 C 54.400144 120.89974 56.800287 120.5 56.500269 121.5 C 56.200251 122.5 54.500539 123 53.300467 123.200521 C 52.245151 123.445312 51.233028 123.85026 50.300287 124.39974 " transform="matrix(3.346154,0,0,3,0,0)"/>
<path style="fill-rule:nonzero;fill:rgb(81.568627%,60.784314%,2.745098%);fill-opacity:1;stroke-width:0.4;stroke-linecap:round;stroke-linejoin:round;stroke:rgb(0%,0%,0%);stroke-opacity:1;stroke-miterlimit:4;" d="M 21.700521 61 C 22.232848 64.846354 22.566721 68.71875 22.699802 72.60026 C 22.50018 76 22.800198 80.299479 24.300287 79.299479 C 25.800377 78.299479 24.799928 75 25.500359 74 C 26.199623 73 24.300287 71.5 24.49991 70.299479 C 24.699533 69.10026 23.499461 62.799479 21.700521 61 Z M 22.300557 97.5 C 22.300557 97.5 24.300287 104.799479 22.800198 105.60026 C 21.300108 106.39974 22.300557 97.5 22.300557 97.5 Z M 51.699982 84.5 C 51.299569 83.700521 51.800377 93.60026 51.200341 94.10026 C 50.454382 94.74349 49.959411 95.628906 49.799479 96.60026 C 49.499461 98 50.199892 105.299479 52.300018 103.299479 C 54.400144 101.299479 53.200072 97 53.300467 94.799479 C 53.399695 92.60026 52 85.299479 51.699982 84.5 Z M 51.699982 84.5 " transform="matrix(3.346154,0,0,3,0,0)"/>
<path style="fill:none;stroke-width:0.4;stroke-linecap:round;stroke-linejoin:round;stroke:rgb(0%,0%,0%);stroke-opacity:1;stroke-miterlimit:4;" d="M 8.00009 7.89974 L 69.99991 7.89974 L 69.99991 132.209635 L 8.00009 132.209635 Z M 8.00009 7.89974 " transform="matrix(3.346154,0,0,3,0,0)"/>
</g>
</svg>
