<?xml version="1.0" encoding="UTF-8"?>
<svg xmlns="http://www.w3.org/2000/svg" xmlns:xlink="http://www.w3.org/1999/xlink" width="261px" height="420px" viewBox="0 0 261 426" version="1.1">
<g id="surface1">
<path style=" stroke:none;fill-rule:nonzero;fill:rgb(100%,100%,100%);fill-opacity:1;" d="M 20.078125 0 L 240.921875 0 C 252.011719 0 261 8.058594 261 18 L 261 402 C 261 411.941406 252.011719 420 240.921875 420 L 20.078125 420 C 8.988281 420 0 411.941406 0 402 L 0 18 C 0 8.058594 8.988281 0 20.078125 0 Z M 20.078125 0 "/>
<path style=" stroke:none;fill-rule:nonzero;fill:rgb(58.823529%,43.137255%,7.843137%);fill-opacity:1;" d="M 234.566406 318.300781 C 232.527344 316.316406 230.007812 314.777344 227.203125 313.800781 C 223.515625 312.378906 220.035156 310.566406 216.832031 308.398438 C 212.542969 308.761719 208.355469 309.773438 204.449219 311.398438 C 196.410156 314.058594 187.921875 315.480469 179.355469 315.601562 C 173.664062 315 170.988281 317.398438 166.636719 316.800781 C 162.289062 316.199219 162.289062 313.800781 158.609375 313.5 C 154.925781 313.199219 146.5625 315.898438 142.210938 315.898438 L 141.542969 330.601562 L 234.230469 335.398438 Z M 234.566406 318.300781 "/>
<path style="fill:none;stroke-width:0.4;stroke-linecap:round;stroke-linejoin:round;stroke:rgb(0%,0%,0%);stroke-opacity:1;stroke-miterlimit:4;" d="M 69.99991 105.89974 C 69.403376 105.31901 68.686602 104.875 67.899784 104.60026 C 66.797773 104.126302 65.757633 103.522135 64.800377 102.799479 C 63.518588 102.920573 62.267152 103.257812 61.099767 103.799479 C 58.697288 104.686198 56.16056 105.160156 53.600485 105.200521 C 51.899605 105 51.099946 105.799479 49.799479 105.60026 C 48.50018 105.39974 48.50018 104.60026 47.400503 104.5 C 46.299659 104.39974 43.800287 105.299479 42.49982 105.299479 " transform="matrix(3.346154,0,0,3,0,0)"/>
<path style=" stroke:none;fill-rule:nonzero;fill:rgb(5.098039%,22.745098%,7.058824%);fill-opacity:1;" d="M 232.890625 334.800781 C 221.851562 336 194.410156 330.601562 159.613281 324 C 124.8125 317.398438 26.101562 319.199219 26.101562 319.199219 L 26.769531 344.699219 L 234.230469 344.699219 Z M 232.890625 334.800781 "/>
<path style="fill:none;stroke-width:0.4;stroke-linecap:round;stroke-linejoin:round;stroke:rgb(0%,0%,0%);stroke-opacity:1;stroke-miterlimit:4;" d="M 8.100485 106.39974 C 8.100485 106.39974 37.300287 105.799479 47.700521 108 C 58.099587 110.200521 66.300467 112 69.599497 111.60026 " transform="matrix(3.346154,0,0,3,0,0)"/>
<path style=" stroke:none;fill-rule:nonzero;fill:rgb(19.607843%,34.117647%,13.72549%);fill-opacity:1;" d="M 234.230469 331.800781 C 221.179688 339.300781 138.195312 339 110.421875 335.398438 C 82.648438 331.800781 26.101562 337.800781 26.101562 337.800781 L 26.101562 362.398438 L 233.5625 360.601562 Z M 234.230469 331.800781 "/>
<path style="fill:none;stroke-width:0.4;stroke-linecap:round;stroke-linejoin:round;stroke:rgb(0%,0%,0%);stroke-opacity:1;stroke-miterlimit:4;" d="M 8.100485 112.60026 C 8.100485 112.60026 24.799928 110.700521 32.999641 111.799479 C 41.200521 112.89974 66.000449 113.10026 69.99991 110.60026 " transform="matrix(3.346154,0,0,3,0,0)"/>
<path style=" stroke:none;fill-rule:nonzero;fill:rgb(81.568627%,60.784314%,2.745098%);fill-opacity:1;" d="M 234.230469 351 C 222.828125 346.945312 210.691406 344.808594 198.425781 344.699219 C 176.007812 344.398438 154.257812 351 141.542969 349.5 C 128.828125 348 38.480469 350.699219 26.769531 353.699219 L 26.769531 396.601562 L 234.566406 396.601562 Z M 234.230469 351 "/>
<path style="fill:none;stroke-width:0.4;stroke-linecap:round;stroke-linejoin:round;stroke:rgb(0%,0%,0%);stroke-opacity:1;stroke-miterlimit:4;" d="M 69.99991 117 C 66.592313 115.648438 62.965248 114.936198 59.299659 114.89974 C 52.600036 114.799479 45.900413 117 42.100575 116.5 C 38.299569 116 11.49991 116.89974 8.00009 117.89974 " transform="matrix(3.346154,0,0,3,0,0)"/>
<path style="fill-rule:nonzero;fill:rgb(99.607843%,74.901961%,6.27451%);fill-opacity:1;stroke-width:0.4;stroke-linecap:round;stroke-linejoin:round;stroke:rgb(0%,0%,0%);stroke-opacity:1;stroke-miterlimit:4;" d="M 46.500449 118.10026 C 46.500449 118.299479 46.100036 118.5 45.699623 118.5 C 45.300377 118.5 44.899964 118.299479 44.899964 118.10026 C 44.899964 117.89974 45.300377 117.5 45.800018 117.5 C 46.150233 117.496094 46.450251 117.752604 46.500449 118.10026 Z M 46.500449 118.10026 " transform="matrix(3.346154,0,0,3,0,0)"/>
<path style="fill-rule:nonzero;fill:rgb(99.607843%,74.901961%,6.27451%);fill-opacity:1;stroke-width:0.4;stroke-linecap:round;stroke-linejoin:round;stroke:rgb(0%,0%,0%);stroke-opacity:1;stroke-miterlimit:4;" d="M 45.800018 118.799479 C 45.800018 119.200521 45.300377 119.5 44.700341 119.5 C 44.100305 119.5 43.699892 119.39974 43.699892 119.10026 C 43.796785 118.626302 44.217044 118.290365 44.700341 118.299479 C 45.300377 118.299479 45.800018 118.5 45.800018 118.799479 Z M 24.699533 125.5 C 24.699533 126.10026 23.899874 126.700521 22.899425 126.700521 C 21.900144 126.700521 21.199713 126.5 21.199713 125.89974 C 21.346803 125.079427 22.06708 124.486979 22.899425 124.5 C 23.899874 124.5 24.699533 124.89974 24.699533 125.5 Z M 24.699533 125.5 " transform="matrix(3.346154,0,0,3,0,0)"/>
<path style="fill-rule:nonzero;fill:rgb(99.607843%,74.901961%,6.27451%);fill-opacity:1;stroke-width:0.4;stroke-linecap:round;stroke-linejoin:round;stroke:rgb(0%,0%,0%);stroke-opacity:1;stroke-miterlimit:4;" d="M 27.800108 125.10026 C 27.800108 125.700521 27.000449 126.299479 26 126.299479 C 24.999551 126.299479 24.300287 126.10026 24.300287 125.39974 C 24.300287 124.700521 25.099946 124.10026 26 124.10026 C 26.900054 124.10026 27.800108 124.39974 27.800108 125.10026 Z M 64.899605 108.799479 C 64.786369 108.670573 64.621767 108.596354 64.450162 108.596354 C 64.277389 108.596354 64.113955 108.670573 63.999551 108.799479 C 63.569953 109.360677 62.906879 109.692708 62.199443 109.700521 C 61.004041 109.615885 59.872845 109.121094 58.999641 108.299479 C 58.804687 107.442708 58.391433 106.651042 57.799569 106 C 55.600216 103.799479 53.999731 102 54.800557 99 L 55.100575 98 C 55.817349 98.455729 56.649695 98.697917 57.499551 98.700521 C 58.334231 98.692708 59.142062 98.411458 59.800467 97.89974 C 59.969738 97.667969 59.980244 97.354167 59.824982 97.110677 C 59.670887 96.86849 59.382543 96.744792 59.100036 96.799479 C 57.958333 97.558594 56.453574 97.477865 55.399425 96.60026 C 55.600216 94.700521 55.600216 92.700521 54.700162 91.39974 C 54.348779 90.759115 53.78143 90.263021 53.099677 90 C 54.644127 89.25 55.907238 88.022135 56.699892 86.5 C 56.762931 86.341146 56.754759 86.16276 56.678879 86.010417 C 56.602999 85.858073 56.465248 85.744792 56.299479 85.700521 C 56.154723 85.632812 55.987787 85.626302 55.837195 85.682292 C 55.686602 85.739583 55.565194 85.852865 55.49982 86 C 54.500539 88.299479 51.200341 89.5 51.099946 89.5 C 49.710758 88.875 48.555047 87.824219 47.799749 86.5 C 47.739045 86.325521 47.600126 86.1875 47.423851 86.128906 C 47.247575 86.070312 47.05379 86.096354 46.899695 86.200521 C 46.753772 86.265625 46.639368 86.386719 46.582166 86.53776 C 46.526131 86.6875 46.531968 86.854167 46.599677 87 C 47.690014 89.152344 49.725934 90.670573 52.100395 91.10026 C 52.742457 91.140625 53.314476 91.522135 53.600485 92.10026 C 54.047593 92.779948 54.25889 93.588542 54.200521 94.39974 C 53.573635 95.967448 52.086386 97.02474 50.399515 97.10026 C 50.100665 97.009115 49.776131 97.127604 49.606861 97.390625 C 49.43759 97.654948 49.46444 97.998698 49.672234 98.233073 C 49.878861 98.46875 50.217403 98.536458 50.49991 98.39974 C 51.793373 98.351562 53.029634 97.856771 53.999731 97 C 53.900503 97.5 53.699713 98.10026 53.600485 98.700521 C 52.600036 102.299479 54.500539 104.60026 56.899515 107 C 57.58944 107.678385 57.922144 108.640625 57.799569 109.60026 C 57.700341 111.299479 56.200251 113.299479 53.800108 114.799479 C 52.730783 115.367188 52.072378 116.489583 52.100395 117.700521 C 52.199623 120 55.199802 121.700521 55.49982 121.89974 L 55.799838 121.89974 C 56.042654 121.93099 56.279634 121.8125 56.399874 121.60026 C 56.567978 121.291667 56.482759 120.907552 56.200251 120.700521 C 55.399425 120.299479 53.399695 118.89974 53.399695 117.5 C 53.399695 116.10026 53.800108 116.39974 54.599767 115.799479 C 57.100305 114.10026 58.800018 111.89974 59.100036 109.89974 C 59.998922 110.483073 61.030891 110.826823 62.100216 110.89974 L 62.199443 110.89974 C 63.248922 110.893229 64.240032 110.416667 64.899605 109.60026 C 65.103897 109.372396 65.103897 109.027344 64.899605 108.799479 Z M 60.900144 61.5 C 58.600395 60.799479 59.200431 58.10026 59.200431 57.89974 C 60.322288 55.817708 60.608297 53.385417 60.00009 51.10026 C 58.399605 44.5 50.600305 45 50.49991 45 C 50.153197 45.049479 49.896372 45.348958 49.899874 45.700521 C 50.004939 46.013021 50.274605 46.24349 50.600305 46.299479 C 50.900323 46.299479 57.400323 45.89974 58.699623 51.39974 C 59.700072 55.299479 57.899964 57.700521 56.699892 59.5 C 56.069504 60.253906 55.624731 61.143229 55.399425 62.10026 C 55.399425 62.39974 55.699443 62.799479 55.999461 62.799479 L 56.099856 62.799479 C 56.431394 62.799479 56.699892 62.53125 56.699892 62.200521 C 56.914691 61.489583 57.291756 60.839844 57.799569 60.299479 L 58.000359 60 C 58.232669 61.3125 59.20977 62.367188 60.499731 62.700521 L 60.700521 62.700521 C 60.995869 62.704427 61.250359 62.492188 61.300557 62.200521 C 61.327407 61.90625 61.167475 61.625 60.900144 61.5 Z M 60.900144 61.5 " transform="matrix(3.346154,0,0,3,0,0)"/>
<path style="fill-rule:nonzero;fill:rgb(19.607843%,34.117647%,13.72549%);fill-opacity:1;stroke-width:0.4;stroke-linecap:round;stroke-linejoin:round;stroke:rgb(0%,0%,0%);stroke-opacity:1;stroke-miterlimit:4;" d="M 16.199802 122.799479 C 15.284573 122.415365 14.514098 121.75 14.000449 120.89974 C 14.911009 120.494792 15.925467 120.390625 16.900233 120.60026 C 17.85282 120.966146 18.659483 121.634115 19.199982 122.5 C 18.256735 122.91276 17.207256 123.018229 16.199802 122.799479 Z M 16.199802 122.799479 " transform="matrix(3.346154,0,0,3,0,0)"/>
<path style=" stroke:none;fill-rule:nonzero;fill:rgb(19.607843%,34.117647%,13.72549%);fill-opacity:1;" d="M 60.566406 377.398438 C 54.964844 378.691406 49.039062 378.160156 43.835938 375.898438 C 46.710938 371.480469 51.203125 368.089844 56.550781 366.300781 C 62.261719 365.015625 68.292969 365.542969 73.617188 367.800781 C 70.550781 372.191406 65.96875 375.566406 60.566406 377.398438 Z M 60.566406 377.398438 "/>
<path style=" stroke:none;fill-rule:nonzero;fill:rgb(5.098039%,22.745098%,7.058824%);fill-opacity:1;" d="M 52.199219 373.800781 C 54.5625 370.472656 57.773438 367.695312 61.570312 365.699219 C 59.867188 365.605469 58.164062 365.808594 56.550781 366.300781 C 51.203125 368.089844 46.710938 371.480469 43.835938 375.898438 C 49.039062 378.160156 54.964844 378.691406 60.566406 377.398438 C 61.773438 377.085938 62.90625 376.578125 63.910156 375.898438 C 59.878906 376.019531 55.871094 375.300781 52.199219 373.800781 Z M 52.199219 373.800781 "/>
<path style="fill:none;stroke-width:0.4;stroke-linecap:round;stroke-linejoin:round;stroke:rgb(0%,0%,0%);stroke-opacity:1;stroke-miterlimit:4;" d="M 18.100305 125.799479 C 16.426275 126.230469 14.655352 126.053385 13.100395 125.299479 C 13.959591 123.826823 15.302083 122.696615 16.900233 122.10026 C 18.60695 121.671875 20.409393 121.847656 22.000539 122.60026 C 21.084142 124.063802 19.714799 125.188802 18.100305 125.799479 Z M 18.100305 125.799479 " transform="matrix(3.346154,0,0,3,0,0)"/>
<path style="fill-rule:nonzero;fill:rgb(19.607843%,34.117647%,13.72549%);fill-opacity:1;stroke-width:0.4;stroke-linecap:round;stroke-linejoin:round;stroke:rgb(0%,0%,0%);stroke-opacity:1;stroke-miterlimit:4;" d="M 16.699443 110.799479 C 15.062769 110.451823 13.586027 109.572917 12.500359 108.299479 C 13.88371 107.376302 15.542565 106.953125 17.200251 107.10026 C 18.853269 107.467448 20.333513 108.384115 21.400503 109.700521 C 19.997306 110.574219 18.345456 110.960938 16.699443 110.799479 Z M 16.699443 110.799479 " transform="matrix(3.346154,0,0,3,0,0)"/>
<path style=" stroke:none;fill-rule:nonzero;fill:rgb(19.607843%,34.117647%,13.72549%);fill-opacity:1;" d="M 83.652344 324.898438 C 85.550781 319.988281 89.195312 315.773438 94.027344 312.898438 C 96.570312 317.546875 97.390625 322.804688 96.371094 327.898438 C 94.371094 332.761719 90.746094 336.949219 85.996094 339.898438 C 83.332031 335.285156 82.503906 329.992188 83.652344 324.898438 Z M 83.652344 324.898438 "/>
<path style=" stroke:none;fill-rule:nonzero;fill:rgb(5.098039%,22.745098%,7.058824%);fill-opacity:1;" d="M 91.351562 320.398438 C 93.390625 323.917969 94.421875 327.835938 94.363281 331.800781 L 96.371094 327.898438 C 97.390625 322.804688 96.570312 317.546875 94.027344 312.898438 C 89.195312 315.773438 85.550781 319.988281 83.652344 324.898438 C 83.320312 325.800781 83.320312 327 82.984375 328.199219 C 85.199219 325.148438 88.035156 322.503906 91.351562 320.398438 Z M 91.351562 320.398438 "/>
<path style="fill:none;stroke-width:0.4;stroke-linecap:round;stroke-linejoin:round;stroke:rgb(0%,0%,0%);stroke-opacity:1;stroke-miterlimit:4;" d="M 24.999551 108.299479 C 25.5669 106.66276 26.65607 105.257812 28.100126 104.299479 C 28.860093 105.848958 29.105244 107.601562 28.800557 109.299479 C 28.202856 110.920573 27.119522 112.316406 25.699982 113.299479 C 24.903825 111.761719 24.65634 109.997396 24.999551 108.299479 Z M 24.999551 108.299479 " transform="matrix(3.346154,0,0,3,0,0)"/>
<path style=" stroke:none;fill-rule:nonzero;fill:rgb(19.607843%,34.117647%,13.72549%);fill-opacity:1;" d="M 184.039062 251.398438 C 184.292969 248.6875 185.597656 246.144531 187.71875 244.199219 C 189.722656 246.304688 190.898438 248.9375 191.066406 251.699219 C 190.648438 254.371094 189.371094 256.875 187.382812 258.898438 C 185.382812 256.796875 184.207031 254.160156 184.039062 251.398438 Z M 184.039062 251.398438 "/>
<path style=" stroke:none;fill-rule:nonzero;fill:rgb(5.098039%,22.745098%,7.058824%);fill-opacity:1;" d="M 187.382812 248.398438 C 188.839844 249.96875 189.871094 251.816406 190.394531 253.800781 C 190.769531 253.144531 190.996094 252.433594 191.066406 251.699219 C 190.898438 248.9375 189.722656 246.304688 187.71875 244.199219 C 185.597656 246.144531 184.292969 248.6875 184.039062 251.398438 C 183.988281 252.015625 184.105469 252.632812 184.375 253.199219 C 184.910156 251.398438 185.945312 249.746094 187.382812 248.398438 Z M 187.382812 248.398438 "/>
<path style="fill:none;stroke-width:0.4;stroke-linecap:round;stroke-linejoin:round;stroke:rgb(0%,0%,0%);stroke-opacity:1;stroke-miterlimit:4;" d="M 55.00018 83.799479 C 55.07606 82.895833 55.465966 82.048177 56.099856 81.39974 C 56.698725 82.101562 57.050108 82.979167 57.100305 83.89974 C 56.975395 84.790365 56.59366 85.625 55.999461 86.299479 C 55.40176 85.598958 55.050377 84.720052 55.00018 83.799479 Z M 55.00018 83.799479 " transform="matrix(3.346154,0,0,3,0,0)"/>
<path style=" stroke:none;fill-rule:nonzero;fill:rgb(19.607843%,34.117647%,13.72549%);fill-opacity:1;" d="M 202.777344 283.5 C 202.804688 286.332031 201.742188 289.089844 199.765625 291.300781 C 197.417969 289.308594 195.882812 286.667969 195.414062 283.800781 C 195.640625 280.867188 196.800781 278.054688 198.761719 275.699219 C 201.011719 277.839844 202.421875 280.578125 202.777344 283.5 Z M 202.777344 283.5 "/>
<path style=" stroke:none;fill-rule:nonzero;fill:rgb(5.098039%,22.745098%,7.058824%);fill-opacity:1;" d="M 199.765625 287.101562 C 197.910156 285.535156 196.527344 283.574219 195.75 281.398438 C 195.75 282 195.414062 282.898438 195.414062 283.800781 C 195.882812 286.667969 197.417969 289.308594 199.765625 291.300781 C 201.742188 289.089844 202.804688 286.332031 202.777344 283.5 C 202.855469 282.785156 202.738281 282.066406 202.441406 281.398438 C 202 283.445312 201.089844 285.386719 199.765625 287.101562 Z M 199.765625 287.101562 "/>
<path style="fill:none;stroke-width:0.4;stroke-linecap:round;stroke-linejoin:round;stroke:rgb(0%,0%,0%);stroke-opacity:1;stroke-miterlimit:4;" d="M 60.600126 94.5 C 60.608297 95.44401 60.290769 96.363281 59.700072 97.10026 C 58.998473 96.436198 58.539691 95.55599 58.399605 94.60026 C 58.467313 93.622396 58.814027 92.684896 59.400054 91.89974 C 60.072468 92.613281 60.493894 93.526042 60.600126 94.5 Z M 60.600126 94.5 " transform="matrix(3.346154,0,0,3,0,0)"/>
<path style="fill-rule:nonzero;fill:rgb(19.607843%,34.117647%,13.72549%);fill-opacity:1;stroke-width:0.4;stroke-linecap:round;stroke-linejoin:round;stroke:rgb(0%,0%,0%);stroke-opacity:1;stroke-miterlimit:4;" d="M 19.5 47.89974 C 18.120151 47.186198 17.026311 46.022135 16.399425 44.60026 C 17.871498 44.144531 19.45097 44.179688 20.899695 44.700521 C 22.2632 45.388021 23.355873 46.515625 24.000269 47.89974 C 22.543373 48.410156 20.956897 48.410156 19.5 47.89974 Z M 57.899964 82.60026 C 59.014817 81.735677 60.389996 81.277344 61.800198 81.299479 C 61.639098 82.701823 61.004041 84.007812 60.00009 85 C 58.88407 85.873698 57.517062 86.364583 56.099856 86.39974 C 56.246947 84.964844 56.882004 83.623698 57.899964 82.60026 Z M 20.500449 123.700521 C 20.641703 122.5 21.168193 121.376302 22.000539 120.5 C 22.814206 121.408854 23.275323 122.579427 23.299838 123.799479 C 23.194774 125.040365 22.664781 126.205729 21.799749 127.10026 C 21.012931 126.135417 20.557651 124.94401 20.500449 123.700521 Z M 15.200521 94.700521 C 16.193966 95.040365 17.04032 95.710938 17.599497 96.60026 C 16.639907 97.075521 15.549569 97.216146 14.50009 97 C 13.510147 96.60026 12.670797 95.901042 12.099946 95 C 13.066541 94.542969 14.162716 94.436198 15.200521 94.700521 Z M 15.200521 94.700521 " transform="matrix(3.346154,0,0,3,0,0)"/>
<path style=" stroke:none;fill-rule:nonzero;fill:rgb(19.607843%,34.117647%,13.72549%);fill-opacity:1;" d="M 82.648438 132.898438 C 83.277344 136.539062 82.445312 140.257812 80.308594 143.398438 C 77.066406 141.113281 74.722656 137.960938 73.617188 134.398438 C 72.988281 130.761719 73.820312 127.042969 75.957031 123.898438 C 79.199219 126.1875 81.542969 129.339844 82.648438 132.898438 Z M 82.648438 132.898438 "/>
<path style=" stroke:none;fill-rule:nonzero;fill:rgb(5.098039%,22.745098%,7.058824%);fill-opacity:1;" d="M 79.304688 138 C 76.785156 136.21875 74.730469 133.964844 73.28125 131.398438 C 73.226562 132.410156 73.339844 133.421875 73.617188 134.398438 C 74.722656 137.960938 77.066406 141.113281 80.308594 143.398438 C 82.445312 140.257812 83.277344 136.539062 82.648438 132.898438 C 82.625 132.019531 82.273438 131.175781 81.644531 130.5 C 81.601562 133.140625 80.792969 135.722656 79.304688 138 Z M 79.304688 138 "/>
<path style="fill:none;stroke-width:0.4;stroke-linecap:round;stroke-linejoin:round;stroke:rgb(0%,0%,0%);stroke-opacity:1;stroke-miterlimit:4;" d="M 24.699533 44.299479 C 24.887482 45.513021 24.638829 46.752604 24.000269 47.799479 C 23.03134 47.03776 22.330909 45.986979 22.000539 44.799479 C 21.81259 43.58724 22.061243 42.347656 22.699802 41.299479 C 23.668732 42.0625 24.369163 43.113281 24.699533 44.299479 Z M 24.699533 44.299479 " transform="matrix(3.346154,0,0,3,0,0)"/>
<path style="fill-rule:nonzero;fill:rgb(19.607843%,34.117647%,13.72549%);fill-opacity:1;stroke-width:0.4;stroke-linecap:round;stroke-linejoin:round;stroke:rgb(0%,0%,0%);stroke-opacity:1;stroke-miterlimit:4;" d="M 58.000359 53.5 C 57.494881 54.141927 56.792116 54.598958 55.999461 54.799479 C 55.962105 53.990885 56.171067 53.188802 56.599497 52.5 C 57.104975 51.858073 57.807741 51.401042 58.600395 51.200521 C 58.650593 52.011719 58.440463 52.817708 58.000359 53.5 Z M 48.50018 100 C 48.969468 99.03125 49.792475 98.279948 50.799928 97.89974 C 51.185165 98.907552 51.147809 100.027344 50.696031 101.00651 C 50.244253 101.984375 49.416577 102.739583 48.399784 103.10026 C 48.064745 102.08724 48.100934 100.988281 48.50018 100 Z M 48.50018 100 " transform="matrix(3.346154,0,0,3,0,0)"/>
<path style=" stroke:none;fill-rule:nonzero;fill:rgb(19.607843%,34.117647%,13.72549%);fill-opacity:1;" d="M 206.457031 144 C 202.261719 144.761719 197.898438 144.230469 194.078125 142.5 C 196.605469 139.445312 200.105469 137.144531 204.117188 135.898438 C 208.203125 135.136719 212.460938 135.667969 216.160156 137.398438 C 213.917969 140.578125 210.472656 142.921875 206.457031 144 Z M 206.457031 144 "/>
<path style=" stroke:none;fill-rule:nonzero;fill:rgb(5.098039%,22.745098%,7.058824%);fill-opacity:1;" d="M 200.433594 141.300781 C 202.289062 138.964844 204.6875 137.023438 207.460938 135.601562 L 204.117188 135.601562 C 200.105469 136.84375 196.605469 139.144531 194.078125 142.199219 C 197.898438 143.933594 202.261719 144.460938 206.457031 143.699219 C 207.332031 143.660156 208.164062 143.339844 208.800781 142.800781 C 205.925781 142.816406 203.078125 142.304688 200.433594 141.300781 Z M 200.433594 141.300781 "/>
<path style="fill:none;stroke-width:0.4;stroke-linecap:round;stroke-linejoin:round;stroke:rgb(0%,0%,0%);stroke-opacity:1;stroke-miterlimit:4;" d="M 61.699802 48 C 60.446031 48.253906 59.142062 48.076823 58.000359 47.5 C 58.755657 46.481771 59.801634 45.714844 61.000539 45.299479 C 62.221624 45.045573 63.494073 45.222656 64.599587 45.799479 C 63.929508 46.859375 62.899874 47.640625 61.699802 48 Z M 61.699802 48 " transform="matrix(3.346154,0,0,3,0,0)"/>
<path style="fill-rule:nonzero;fill:rgb(19.607843%,34.117647%,13.72549%);fill-opacity:1;stroke-width:0.4;stroke-linecap:round;stroke-linejoin:round;stroke:rgb(0%,0%,0%);stroke-opacity:1;stroke-miterlimit:4;" d="M 58.199982 88.799479 C 57.2544 88.300781 56.510776 87.486979 56.099856 86.5 C 57.110812 86.15625 58.212823 86.191406 59.200431 86.60026 C 60.117996 87.134115 60.851114 87.936198 61.300557 88.89974 C 60.280262 89.182292 59.199264 89.148438 58.199982 88.799479 Z M 58.199982 88.799479 " transform="matrix(3.346154,0,0,3,0,0)"/>
<path style=" stroke:none;fill-rule:nonzero;fill:rgb(19.607843%,34.117647%,13.72549%);fill-opacity:1;" d="M 61.234375 344.398438 C 55.996094 346.539062 50.113281 347.066406 44.503906 345.898438 C 46.417969 341.078125 50.070312 336.960938 54.875 334.199219 C 60.175781 331.890625 66.191406 331.257812 71.941406 332.398438 C 70.03125 337.390625 66.246094 341.632812 61.234375 344.398438 Z M 61.234375 344.398438 "/>
<path style=" stroke:none;fill-rule:nonzero;fill:rgb(5.098039%,22.745098%,7.058824%);fill-opacity:1;" d="M 52.199219 342.300781 C 53.867188 338.582031 56.375 335.210938 59.5625 332.398438 L 54.875 334.199219 C 50.070312 336.960938 46.417969 341.078125 44.503906 345.898438 C 50.113281 347.066406 55.996094 346.539062 61.234375 344.398438 C 62.425781 343.949219 63.464844 343.226562 64.246094 342.300781 C 60.269531 342.996094 56.179688 342.996094 52.199219 342.300781 Z M 52.199219 342.300781 "/>
<path style="fill:none;stroke-width:0.4;stroke-linecap:round;stroke-linejoin:round;stroke:rgb(0%,0%,0%);stroke-opacity:1;stroke-miterlimit:4;" d="M 18.299928 114.799479 C 16.734465 115.513021 14.976383 115.688802 13.300018 115.299479 C 13.872037 113.692708 14.963542 112.320312 16.399425 111.39974 C 17.983567 110.630208 19.78134 110.419271 21.499731 110.799479 C 20.928879 112.463542 19.797683 113.877604 18.299928 114.799479 Z M 18.299928 114.799479 " transform="matrix(3.346154,0,0,3,0,0)"/>
<path style="fill-rule:nonzero;fill:rgb(19.607843%,34.117647%,13.72549%);fill-opacity:1;stroke-width:0.4;stroke-linecap:round;stroke-linejoin:round;stroke:rgb(0%,0%,0%);stroke-opacity:1;stroke-miterlimit:4;" d="M 47.100485 95.89974 C 46.221444 94.794271 45.760327 93.41276 45.800018 92 C 47.188039 92.209635 48.477999 92.83724 49.499461 93.799479 C 50.364494 94.914062 50.823276 96.290365 50.799928 97.700521 C 49.397899 97.539062 48.092762 96.903646 47.100485 95.89974 Z M 47.100485 95.89974 " transform="matrix(3.346154,0,0,3,0,0)"/>
<path style=" stroke:none;fill-rule:nonzero;fill:rgb(19.607843%,34.117647%,13.72549%);fill-opacity:1;" d="M 192.070312 350.699219 C 196.484375 349.9375 201.058594 350.464844 205.121094 352.199219 C 202.640625 355.558594 198.992188 358.089844 194.746094 359.398438 C 190.335938 360.332031 185.699219 359.796875 181.695312 357.898438 C 184.074219 354.457031 187.757812 351.902344 192.070312 350.699219 Z M 192.070312 350.699219 "/>
<path style=" stroke:none;fill-rule:nonzero;fill:rgb(5.098039%,22.745098%,7.058824%);fill-opacity:1;" d="M 198.425781 353.699219 C 196.457031 356.320312 193.820312 358.480469 190.730469 360 L 194.746094 359.398438 C 198.992188 358.089844 202.640625 355.558594 205.121094 352.199219 C 201.058594 350.464844 196.484375 349.9375 192.070312 350.699219 L 189.058594 351.601562 C 192.316406 351.671875 195.515625 352.390625 198.425781 353.699219 Z M 198.425781 353.699219 "/>
<path style="fill:none;stroke-width:0.4;stroke-linecap:round;stroke-linejoin:round;stroke:rgb(0%,0%,0%);stroke-opacity:1;stroke-miterlimit:4;" d="M 57.400323 116.89974 C 58.719468 116.645833 60.086476 116.821615 61.300557 117.39974 C 60.559267 118.519531 59.46893 119.363281 58.199982 119.799479 C 56.882004 120.110677 55.496318 119.932292 54.299749 119.299479 C 55.010686 118.152344 56.11153 117.300781 57.400323 116.89974 Z M 57.400323 116.89974 " transform="matrix(3.346154,0,0,3,0,0)"/>
<path style="fill-rule:nonzero;fill:rgb(19.607843%,34.117647%,13.72549%);fill-opacity:1;stroke-width:0.4;stroke-linecap:round;stroke-linejoin:round;stroke:rgb(0%,0%,0%);stroke-opacity:1;stroke-miterlimit:4;" d="M 63.000269 96.200521 C 62.088542 96.813802 60.994702 97.096354 59.899695 97 C 60.109824 95.915365 60.672504 94.93099 61.50018 94.200521 C 62.470277 93.647135 63.587464 93.402344 64.699982 93.5 C 64.443157 94.561198 63.846624 95.510417 63.000269 96.200521 Z M 63.000269 96.200521 " transform="matrix(3.346154,0,0,3,0,0)"/>
<path style=" stroke:none;fill-rule:nonzero;fill:rgb(19.607843%,34.117647%,13.72549%);fill-opacity:1;" d="M 159.277344 297.898438 C 155.335938 297.917969 151.523438 296.636719 148.570312 294.300781 C 154.125 289.019531 163.390625 288.753906 169.316406 293.699219 C 166.570312 296.042969 163.042969 297.519531 159.277344 297.898438 Z M 159.277344 297.898438 "/>
<path style=" stroke:none;fill-rule:nonzero;fill:rgb(5.098039%,22.745098%,7.058824%);fill-opacity:1;" d="M 154.59375 294.300781 C 156.6875 292.367188 159.359375 291.011719 162.289062 290.398438 L 158.941406 290.398438 C 155.019531 290.589844 151.320312 292.089844 148.570312 294.601562 C 151.523438 296.9375 155.335938 298.21875 159.277344 298.199219 L 161.621094 298.199219 C 158.980469 297.386719 156.582031 296.050781 154.59375 294.300781 Z M 154.59375 294.300781 "/>
<path style="fill:none;stroke-width:0.4;stroke-linecap:round;stroke-linejoin:round;stroke:rgb(0%,0%,0%);stroke-opacity:1;stroke-miterlimit:4;" d="M 47.600126 99.299479 C 46.422234 99.30599 45.282866 98.878906 44.400323 98.10026 C 46.060345 96.339844 48.829382 96.251302 50.600305 97.89974 C 49.779634 98.68099 48.725485 99.173177 47.600126 99.299479 Z M 47.600126 99.299479 " transform="matrix(3.346154,0,0,3,0,0)"/>
<path style="fill-rule:nonzero;fill:rgb(19.607843%,34.117647%,13.72549%);fill-opacity:1;stroke-width:0.4;stroke-linecap:round;stroke-linejoin:round;stroke:rgb(0%,0%,0%);stroke-opacity:1;stroke-miterlimit:4;" d="M 17.699892 105.700521 C 17.811961 103.951823 18.518229 102.292969 19.699623 101 C 20.831986 102.315104 21.499731 103.967448 21.600126 105.700521 C 21.488057 107.449219 20.781789 109.106771 19.600395 110.39974 C 18.468032 109.084635 17.800287 107.432292 17.699892 105.700521 Z M 17.699892 105.700521 " transform="matrix(3.346154,0,0,3,0,0)"/>
<path style=" stroke:none;fill-rule:nonzero;fill:rgb(19.607843%,34.117647%,13.72549%);fill-opacity:1;" d="M 211.140625 294 C 214.164062 296.226562 216.28125 299.285156 217.164062 302.699219 C 213.324219 303.167969 209.421875 302.425781 206.125 300.601562 C 203.128906 298.226562 201.027344 295.085938 200.101562 291.601562 C 203.972656 291.316406 207.84375 292.15625 211.140625 294 Z M 211.140625 294 "/>
<path style=" stroke:none;fill-rule:nonzero;fill:rgb(5.098039%,22.745098%,7.058824%);fill-opacity:1;" d="M 212.480469 299.398438 C 209.433594 299.710938 206.34375 299.40625 203.445312 298.5 L 206.125 300.601562 C 209.421875 302.425781 213.324219 303.167969 217.164062 302.699219 C 216.28125 299.285156 214.164062 296.226562 211.140625 294 L 208.800781 292.800781 C 210.484375 294.769531 211.734375 297.011719 212.480469 299.398438 Z M 212.480469 299.398438 "/>
<path style="fill:none;stroke-width:0.4;stroke-linecap:round;stroke-linejoin:round;stroke:rgb(0%,0%,0%);stroke-opacity:1;stroke-miterlimit:4;" d="M 63.099497 98 C 64.003053 98.742188 64.635776 99.761719 64.899605 100.89974 C 63.752065 101.05599 62.585848 100.808594 61.600575 100.200521 C 60.70519 99.408854 60.077137 98.361979 59.800467 97.200521 C 60.957346 97.105469 62.114224 97.385417 63.099497 98 Z M 63.099497 98 " transform="matrix(3.346154,0,0,3,0,0)"/>
<path style=" stroke:none;fill-rule:nonzero;fill:rgb(19.607843%,34.117647%,13.72549%);fill-opacity:1;" d="M 56.550781 276.601562 C 59.210938 280.234375 60.390625 284.578125 59.894531 288.898438 C 55.210938 288.0625 50.96875 285.847656 47.851562 282.601562 C 45.191406 278.957031 43.902344 274.648438 44.167969 270.300781 C 48.96875 271.09375 53.328125 273.3125 56.550781 276.601562 Z M 56.550781 276.601562 "/>
<path style=" stroke:none;fill-rule:nonzero;fill:rgb(5.098039%,22.745098%,7.058824%);fill-opacity:1;" d="M 55.546875 283.5 C 51.992188 282.796875 48.667969 281.355469 45.84375 279.300781 C 46.246094 280.515625 46.929688 281.640625 47.851562 282.601562 C 50.96875 285.847656 55.210938 288.0625 59.894531 288.898438 C 60.390625 284.578125 59.210938 280.234375 56.550781 276.601562 L 54.207031 274.5 C 55.425781 277.367188 55.882812 280.449219 55.546875 283.5 Z M 55.546875 283.5 "/>
<path style="fill:none;stroke-width:0.4;stroke-linecap:round;stroke-linejoin:round;stroke:rgb(0%,0%,0%);stroke-opacity:1;stroke-miterlimit:4;" d="M 16.900233 92.200521 C 17.695223 93.411458 18.047773 94.859375 17.899515 96.299479 C 16.49982 96.020833 15.23204 95.282552 14.300467 94.200521 C 13.505478 92.985677 13.120241 91.549479 13.199623 90.10026 C 14.634339 90.364583 15.937141 91.104167 16.900233 92.200521 Z M 16.900233 92.200521 " transform="matrix(3.346154,0,0,3,0,0)"/>
<path style=" stroke:none;fill-rule:nonzero;fill:rgb(19.607843%,34.117647%,13.72549%);fill-opacity:1;" d="M 188.386719 372.601562 C 186.972656 375.855469 184.53125 378.667969 181.363281 380.699219 C 179.601562 377.546875 179.015625 373.972656 179.6875 370.5 C 181.050781 367.300781 183.511719 364.570312 186.714844 362.699219 C 188.496094 365.738281 189.085938 369.226562 188.386719 372.601562 Z M 188.386719 372.601562 "/>
<path style=" stroke:none;fill-rule:nonzero;fill:rgb(5.098039%,22.745098%,7.058824%);fill-opacity:1;" d="M 183.035156 375.601562 C 181.769531 373.152344 181.085938 370.496094 181.027344 367.800781 L 179.6875 370.5 C 179.015625 373.972656 179.601562 377.546875 181.363281 380.699219 C 184.53125 378.667969 186.972656 375.855469 188.386719 372.601562 C 188.335938 371.789062 188.449219 370.976562 188.722656 370.199219 C 187.195312 372.285156 185.269531 374.113281 183.035156 375.601562 Z M 183.035156 375.601562 "/>
<path style="fill:none;stroke-width:0.4;stroke-linecap:round;stroke-linejoin:round;stroke:rgb(0%,0%,0%);stroke-opacity:1;stroke-miterlimit:4;" d="M 56.299479 124.200521 C 55.876886 125.285156 55.14727 126.222656 54.200521 126.89974 C 53.67403 125.848958 53.498922 124.657552 53.699713 123.5 C 54.10713 122.433594 54.842583 121.523438 55.799838 120.89974 C 56.332166 121.91276 56.508441 123.075521 56.299479 124.200521 Z M 56.299479 124.200521 " transform="matrix(3.346154,0,0,3,0,0)"/>
<path style="fill-rule:nonzero;fill:rgb(19.607843%,34.117647%,13.72549%);fill-opacity:1;stroke-width:0.4;stroke-linecap:round;stroke-linejoin:round;stroke:rgb(0%,0%,0%);stroke-opacity:1;stroke-miterlimit:4;" d="M 58.000359 124.39974 C 56.850485 123.535156 56.037985 122.298177 55.699443 120.89974 C 57.128323 120.752604 58.565374 121.06901 59.800467 121.799479 C 60.904813 122.644531 61.682292 123.846354 61.99982 125.200521 C 60.614134 125.408854 59.199264 125.125 58.000359 124.39974 Z M 31.799569 64.39974 C 30.761764 65.065104 29.524335 65.348958 28.299749 65.200521 C 28.624282 64.010417 29.32588 62.957031 30.299479 62.200521 C 31.338452 61.533854 32.57588 61.251302 33.800467 61.39974 C 33.475934 62.589844 32.773168 63.643229 31.799569 64.39974 Z M 31.799569 64.39974 " transform="matrix(3.346154,0,0,3,0,0)"/>
<path style=" stroke:none;fill-rule:nonzero;fill:rgb(19.607843%,34.117647%,13.72549%);fill-opacity:1;" d="M 66.253906 147.898438 C 70.015625 145.691406 74.480469 144.636719 78.96875 144.898438 C 78.25 148.863281 76 152.476562 72.613281 155.101562 C 68.984375 157.328125 64.617188 158.386719 60.230469 158.101562 C 60.980469 154.214844 63.089844 150.640625 66.253906 147.898438 Z M 66.253906 147.898438 "/>
<path style=" stroke:none;fill-rule:nonzero;fill:rgb(5.098039%,22.745098%,7.058824%);fill-opacity:1;" d="M 73.617188 148.5 C 72.820312 151.539062 71.339844 154.394531 69.265625 156.898438 L 72.613281 155.101562 C 76 152.476562 78.25 148.863281 78.96875 144.898438 C 74.480469 144.636719 70.015625 145.691406 66.253906 147.898438 L 64.246094 150 C 67.214844 148.90625 70.410156 148.394531 73.617188 148.5 Z M 73.617188 148.5 "/>
<path style="fill:none;stroke-width:0.4;stroke-linecap:round;stroke-linejoin:round;stroke:rgb(0%,0%,0%);stroke-opacity:1;stroke-miterlimit:4;" d="M 19.800018 49.299479 C 20.92421 48.563802 22.258531 48.21224 23.599856 48.299479 C 23.385057 49.621094 22.712644 50.825521 21.700521 51.700521 C 20.61602 52.442708 19.310884 52.795573 17.99991 52.700521 C 18.224048 51.404948 18.854436 50.213542 19.800018 49.299479 Z M 19.800018 49.299479 " transform="matrix(3.346154,0,0,3,0,0)"/>
<path style=" stroke:none;fill-rule:nonzero;fill:rgb(5.098039%,22.745098%,7.058824%);fill-opacity:1;" d="M 164.964844 154.199219 C 176.675781 117.601562 205.789062 104.101562 205.789062 104.101562 L 206.457031 89.398438 C 203.308594 89.476562 200.21875 90.195312 197.421875 91.5 L 195.75 91.5 C 197.757812 86.398438 217.5 63.300781 217.5 63.300781 L 132.171875 43.5 C 132.171875 43.5 122.804688 65.398438 122.132812 76.199219 C 121.464844 87 118.453125 89.398438 115.441406 83.398438 C 113.488281 79.429688 110.503906 75.929688 106.742188 73.199219 C 105.738281 72.898438 90.679688 93.300781 90.679688 93.300781 C 92.597656 98.648438 94.945312 103.859375 97.707031 108.898438 C 101.054688 114.601562 103.394531 120.898438 101.054688 126.601562 C 98.710938 132.300781 87 147.601562 84.992188 155.398438 C 82.984375 163.199219 79.972656 177.300781 77.628906 176.398438 C 75.289062 175.5 59.5625 164.699219 57.21875 164.699219 C 54.875 164.699219 54.207031 188.398438 54.207031 188.398438 C 56.46875 192.457031 59.800781 195.957031 63.910156 198.601562 C 73.027344 203.457031 78.996094 211.933594 79.972656 221.398438 C 81.644531 233.699219 83.988281 246 74.953125 241.5 C 65.917969 237 57.21875 230.398438 53.875 230.398438 C 50.527344 230.398438 52.871094 254.699219 52.871094 254.699219 C 55.550781 258.777344 58.691406 262.59375 62.238281 266.101562 C 68.261719 272.101562 72.945312 278.398438 71.609375 296.398438 C 70.269531 314.398438 66.921875 332.398438 66.921875 336.898438 C 66.921875 341.398438 141.207031 342 141.207031 342 C 141.207031 342 148.570312 314.101562 146.226562 303.601562 C 143.882812 293.101562 137.863281 280.800781 151.582031 269.398438 C 165.300781 258 186.714844 240 194.078125 233.101562 C 199.039062 228.722656 203.015625 223.527344 205.789062 217.800781 C 206.125 216 185.375 212.398438 183.035156 212.398438 C 180.691406 212.398438 176.675781 217.800781 171.324219 221.101562 C 165.96875 224.398438 146.5625 241.5 143.550781 243.601562 C 143.382812 237.019531 144.285156 230.449219 146.226562 224.101562 C 148.902344 216 149.90625 182.699219 162.625 177.898438 C 167.929688 176.164062 173.074219 174.058594 178.015625 171.601562 L 176.675781 150.601562 C 173.359375 150.824219 170.148438 151.75 167.308594 153.300781 Z M 164.964844 154.199219 "/>
<path style=" stroke:none;fill-rule:nonzero;fill:rgb(59.607843%,3.137255%,1.960784%);fill-opacity:1;" d="M 100.050781 92.699219 C 100.050781 92.699219 109.753906 98.101562 111.09375 106.199219 C 112.429688 114.300781 112.429688 126.898438 113.101562 131.699219 C 113.769531 136.5 104.734375 145.800781 106.074219 148.800781 C 107.410156 151.800781 110.757812 148.199219 111.761719 150.300781 C 112.765625 152.398438 104.734375 162.601562 102.058594 166.199219 C 99.378906 169.800781 94.363281 180.898438 96.703125 195.300781 C 91.992188 189.523438 85.46875 185.136719 77.964844 182.699219 L 63.578125 178.199219 C 63.3125 180.824219 62.867188 183.425781 62.238281 186 C 61.234375 187.800781 66.253906 183.898438 74.953125 191.398438 C 83.652344 198.898438 83.652344 199.199219 87.335938 201 C 91.015625 202.800781 89.007812 205.800781 89.675781 208.800781 C 90.347656 211.800781 96.371094 220.800781 97.039062 223.800781 C 97.707031 226.800781 91.683594 234.300781 94.027344 240.601562 C 96.152344 245.609375 96.269531 251.121094 94.363281 256.199219 C 92.6875 262.199219 100.382812 271.800781 97.707031 275.398438 C 95.03125 279 91.683594 277.199219 91.351562 271.800781 C 91.015625 266.398438 83.988281 252 75.957031 247.199219 C 70.484375 244.050781 64.652344 241.4375 58.558594 239.398438 L 59.5625 247.800781 L 57.886719 253.199219 C 60.785156 252.558594 63.851562 253.109375 66.253906 254.699219 C 70.605469 257.398438 70.9375 264.898438 76.960938 267.300781 C 82.984375 269.699219 81.644531 288.898438 80.640625 292.800781 C 79.917969 296.046875 80.386719 299.414062 81.980469 302.398438 C 83.320312 306 85.328125 313.199219 82.648438 316.199219 C 79.695312 321.230469 77.875 326.738281 77.296875 332.398438 C 77.628906 335.398438 114.773438 317.101562 125.816406 290.101562 C 136.859375 263.101562 134.515625 249.300781 130.164062 243 C 125.816406 236.699219 123.136719 223.800781 124.8125 220.199219 C 126.484375 216.601562 140.539062 192.300781 143.214844 175.199219 C 144.664062 165.421875 147.472656 155.847656 151.582031 146.699219 C 153.921875 139.800781 158.609375 126.601562 166.636719 117.601562 C 174.667969 108.601562 176.675781 93 169.984375 87.601562 C 162.191406 82.0625 151.375 81.464844 142.878906 86.101562 C 134.515625 90.898438 131.167969 100.199219 128.828125 112.199219 C 126.484375 124.199219 126.820312 130.199219 123.808594 129.601562 C 120.796875 129 122.46875 117.601562 122.46875 115.5 C 122.46875 113.398438 118.121094 88.800781 112.765625 85.800781 C 107.410156 82.800781 106.40625 84 106.40625 84 C 105.972656 87.648438 103.605469 90.886719 100.050781 92.699219 Z M 100.050781 92.699219 "/>
<path style=" stroke:none;fill-rule:nonzero;fill:rgb(19.607843%,34.117647%,13.72549%);fill-opacity:1;" d="M 108.75 74.398438 L 114.4375 82.199219 L 118.121094 86.699219 C 120.019531 91.585938 121.472656 96.601562 122.46875 101.699219 C 123.402344 108.683594 123.289062 115.746094 122.132812 122.699219 C 121.59375 124.6875 121.707031 126.773438 122.46875 128.699219 C 120.964844 126.566406 119.835938 124.238281 119.125 121.800781 C 116.445312 116.101562 114.773438 112.5 115.441406 107.398438 C 116.113281 102.300781 117.117188 99.898438 114.773438 96.601562 C 111.652344 93.703125 108.039062 91.273438 104.066406 89.398438 Z M 153.589844 82.800781 C 153.589844 82.800781 142.210938 81.898438 135.519531 87.300781 C 128.828125 92.699219 125.816406 105.300781 127.824219 115.800781 C 127.824219 115.800781 141.207031 85.800781 153.589844 82.800781 Z M 202.441406 99.601562 C 202.441406 99.601562 203.113281 101.398438 194.746094 102.601562 C 190.179688 103.578125 185.386719 103.261719 181.027344 101.699219 C 181.027344 101.699219 191.066406 90.601562 204.117188 89.699219 Z M 69.265625 180 C 69.265625 180 83.320312 181.800781 90.347656 189.300781 C 87.78125 190.621094 84.65625 190.734375 81.980469 189.601562 C 76.960938 187.800781 69.265625 180 69.265625 180 Z M 163.625 177 C 163.625 177 155.929688 176.699219 152.25 180.898438 C 148.570312 185.101562 144.554688 202.800781 147.566406 212.699219 L 150.578125 197.699219 L 154.257812 187.800781 L 157.9375 181.5 Z M 132.171875 249.898438 C 132.128906 254.917969 131.109375 259.894531 129.160156 264.601562 C 125.816406 273.601562 128.15625 279.601562 123.808594 287.699219 C 119.457031 295.800781 110.421875 311.398438 108.75 310.800781 C 107.078125 310.199219 108.75 307.800781 112.429688 295.199219 C 116.113281 282.601562 118.453125 271.199219 116.78125 270.601562 C 115.109375 270 116.113281 276.898438 111.761719 285.300781 C 107.410156 293.699219 104.398438 308.699219 102.390625 309.601562 C 100.382812 310.5 99.046875 309.300781 100.382812 306.601562 C 101.722656 303.898438 104.066406 296.398438 102.058594 295.800781 C 100.050781 295.199219 100.71875 300.300781 97.039062 304.199219 C 93.359375 308.101562 87.667969 316.800781 89.007812 320.699219 C 90.347656 324.601562 101.054688 331.199219 105.402344 325.5 C 108.050781 321.03125 111.191406 316.8125 114.773438 312.898438 C 119.792969 307.757812 123.554688 301.726562 125.816406 295.199219 C 128.828125 287.699219 130.5 282.300781 132.507812 284.101562 C 134.515625 285.898438 132.171875 290.398438 135.519531 290.398438 C 138.867188 290.398438 136.523438 276.300781 140.539062 271.800781 C 144.554688 267.300781 140.203125 254.699219 137.863281 247.800781 C 135.519531 240.898438 134.179688 239.398438 133.175781 241.199219 C 132.277344 244.023438 131.941406 246.96875 132.171875 249.898438 Z M 132.171875 249.898438 "/>
<path style=" stroke:none;fill-rule:nonzero;fill:rgb(81.568627%,60.784314%,2.745098%);fill-opacity:1;" d="M 138.867188 89.699219 C 138.867188 89.699219 135.519531 110.699219 136.523438 120 C 137.527344 129.300781 138.53125 145.5 142.878906 139.800781 C 147.230469 134.101562 148.902344 126.300781 152.917969 126.300781 C 156.933594 126.300781 153.253906 133.800781 151.914062 137.699219 C 150.578125 141.601562 144.886719 153.300781 143.882812 156 C 142.878906 158.699219 141.207031 175.199219 139.199219 176.101562 C 137.191406 177 140.203125 166.800781 139.535156 164.398438 C 138.867188 162 136.1875 159.601562 135.855469 163.800781 C 135.519531 168 134.179688 183.300781 130.835938 189.601562 C 127.488281 195.898438 120.460938 213.601562 118.121094 218.699219 C 115.777344 223.800781 112.097656 229.199219 111.761719 226.800781 C 111.425781 224.398438 120.796875 204.601562 120.125 196.199219 C 119.589844 188.453125 120.84375 180.691406 123.808594 173.398438 C 126.484375 168 129.496094 152.699219 128.15625 146.398438 C 127.148438 135.820312 127.148438 125.179688 128.15625 114.601562 C 129.160156 110.398438 131.839844 93 138.867188 89.699219 Z M 138.867188 89.699219 "/>
<path style=" stroke:none;fill-rule:nonzero;fill:rgb(59.607843%,3.137255%,1.960784%);fill-opacity:1;" d="M 184.039062 217.800781 C 184.039062 217.800781 176.34375 227.398438 170.320312 230.699219 C 161.851562 236.390625 154.597656 243.402344 148.902344 251.398438 C 145.980469 255.566406 142.496094 259.394531 138.53125 262.800781 C 138.53125 262.800781 137.191406 267 141.542969 264.300781 C 145.890625 261.601562 148.902344 261.300781 153.253906 258.601562 C 157.730469 254.96875 161.367188 250.585938 163.960938 245.699219 C 166.972656 240.300781 174.335938 237.300781 177.011719 236.101562 C 179.6875 234.898438 191.734375 227.398438 192.738281 221.699219 Z M 184.039062 217.800781 "/>
<path style="fill:none;stroke-width:0.4;stroke-linecap:round;stroke-linejoin:round;stroke:rgb(0%,0%,0%);stroke-opacity:1;stroke-miterlimit:4;" d="M 47.700521 52.5 C 48.99982 51.200521 52.799659 50.200521 52.799659 50.200521 L 53.200072 57.200521 C 51.72333 58.019531 50.185884 58.721354 48.600575 59.299479 C 44.799569 60.89974 44.499551 72 43.699892 74.700521 C 43.119702 76.816406 42.850036 79.00651 42.900233 81.200521 C 43.800287 80.5 49.499461 74.799479 51.200341 73.700521 C 52.900054 72.60026 53.900503 70.89974 54.700162 70.799479 C 55.49982 70.700521 61.600575 72 61.50018 72.60026 C 60.671336 74.509115 59.482938 76.240885 58.000359 77.700521 C 55.799838 80 49.499461 86.10026 45.300377 89.799479 C 41.100126 93.5 42.900233 97.799479 43.699892 101.200521 C 44.499551 104.60026 42.199802 114 42.199802 114 C 42.199802 114 19.999641 113.89974 19.999641 112.299479 C 19.999641 110.700521 21.100485 104.799479 21.400503 98.799479 C 21.700521 92.799479 20.400054 90.700521 18.599946 88.700521 C 17.53996 87.53125 16.601383 86.259115 15.800557 84.89974 C 15.800557 84.89974 15.100126 76.799479 16.100575 76.799479 C 17.099856 76.799479 19.800018 79 22.399784 80.5 C 24.999551 82 24.399515 77.89974 23.899874 73.799479 C 23.608028 70.644531 21.824264 67.81901 19.099587 66.200521 C 17.871498 65.31901 16.875718 64.152344 16.199802 62.799479 C 16.199802 62.799479 16.300198 54.89974 17.099856 54.89974 C 17.899515 54.89974 22.399784 58.60026 23.199443 58.799479 C 24.000269 59 24.799928 54.39974 25.399964 51.799479 C 26 49.200521 29.399425 44 30.200251 42.200521 C 30.99991 40.39974 30.200251 38.200521 29.199802 36.299479 C 28.374461 34.619792 27.672863 32.882812 27.099677 31.10026 C 27.099677 31.10026 31.599946 24.299479 31.899964 24.39974 C 33.024156 25.309896 33.916038 26.476562 34.499731 27.799479 C 35.399784 29.799479 36.199443 29 36.499461 25.39974 C 36.799479 21.799479 39.499641 14.5 39.499641 14.5 L 65 21.10026 C 65 21.10026 59.100036 28.799479 58.5 30.5 " transform="matrix(3.346154,0,0,3,0,0)"/>
<path style="fill:none;stroke-width:0.4;stroke-linecap:round;stroke-linejoin:round;stroke:rgb(0%,0%,0%);stroke-opacity:1;stroke-miterlimit:4;" d="M 53.900503 34.200521 C 55.6831 31.609375 58.560704 29.985677 61.699802 29.799479 L 61.50018 34.700521 C 61.50018 34.700521 52.799659 39.200521 49.299838 51.39974 " transform="matrix(3.346154,0,0,3,0,0)"/>
<path style="fill-rule:nonzero;fill:rgb(99.607843%,74.901961%,6.27451%);fill-opacity:1;stroke-width:0.4;stroke-linecap:round;stroke-linejoin:round;stroke:rgb(0%,0%,0%);stroke-opacity:1;stroke-miterlimit:4;" d="M 32.000359 24.10026 C 32.000359 24.10026 30.99991 23.799479 29.600216 25.200521 C 28.200521 26.60026 27.000449 28.200521 27.000449 29.60026 C 27.000449 31 26.600036 31.60026 29.100575 31.10026 C 31.599946 30.60026 32.099587 27.10026 32.199982 26.200521 C 32.300377 25.299479 32.5 24.60026 32.000359 24.10026 Z M 16.100575 54.700521 C 15.474856 56.076823 15.005568 57.519531 14.699713 59 C 14.50009 60.89974 14.999731 63.89974 16.799838 63.39974 C 18.599946 62.89974 19.199982 60.799479 19.000359 59.39974 C 18.799569 58 17.99991 53.60026 16.100575 54.700521 Z M 16.699443 78.10026 C 16.75898 77.748698 16.659752 77.389323 16.427443 77.11849 C 16.1963 76.848958 15.856591 76.695312 15.500539 76.700521 C 14.099677 76.700521 13.499641 79.89974 13.499641 80.60026 C 13.499641 81.299479 13.600036 82.39974 14.300467 82.799479 C 14.999731 83.200521 14.200072 85.89974 16.399425 85.200521 C 18.599946 84.5 17.599497 79.299479 16.699443 78.10026 Z M 55.300198 69.89974 C 55.300198 69.89974 53.999731 70.39974 54.100126 71.39974 C 54.200521 72.39974 56.599497 74 58.999641 73.799479 C 61.399784 73.60026 62.199443 73.10026 61.99982 72.299479 C 61.489673 71.020833 60.27676 70.158854 58.900413 70.10026 C 57.299928 70 55.699443 69.39974 55.300198 69.89974 Z M 52.199623 50.10026 C 52.199623 50.10026 50.699533 52.10026 51.099946 53.39974 C 51.500359 54.700521 52 55.299479 52.300018 56.299479 C 52.600036 57.299479 53.600485 57.89974 54.200521 56.799479 C 54.800557 55.700521 54.500539 52.799479 54.100126 51.700521 C 53.699713 50.60026 53.099677 49.60026 52.199623 50.10026 Z M 62.199443 29.60026 C 62.199443 29.60026 61.399784 29.200521 60.799749 30.299479 C 60.420348 31.339844 60.456537 32.485677 60.900144 33.5 C 61.099767 34.200521 61.200162 35.39974 62.299838 34.5 C 63.399515 33.60026 62.799479 30.200521 62.199443 29.60026 Z M 62.199443 29.60026 " transform="matrix(3.346154,0,0,3,0,0)"/>
<path style=" stroke:none;fill-rule:nonzero;fill:rgb(99.607843%,74.901961%,6.27451%);fill-opacity:1;" d="M 138.867188 39 C 138.867188 39 131.503906 40.5 131.503906 45 C 131.605469 52.675781 135.84375 59.828125 142.878906 64.199219 C 150.144531 69.007812 158.148438 72.847656 166.636719 75.601562 C 171.65625 77.398438 176.007812 75.601562 182.03125 75.601562 C 191.324219 74.703125 200.441406 72.6875 209.132812 69.601562 C 213.59375 67.890625 217.503906 65.207031 220.511719 61.800781 C 221.851562 59.398438 224.191406 51.300781 221.179688 46.199219 C 219.160156 43.207031 216.550781 40.5625 213.484375 38.398438 C 209.132812 34.5 204.117188 34.199219 200.101562 33.300781 C 196.085938 32.398438 184.039062 28.199219 176.34375 32.398438 C 176.34375 32.398438 165.96875 27.601562 157.269531 32.398438 C 157.269531 32.398438 148.570312 32.398438 144.554688 35.398438 C 142.839844 36.816406 140.929688 38.027344 138.867188 39 Z M 138.867188 39 "/>
<path style=" stroke:none;fill-rule:nonzero;fill:rgb(81.568627%,60.784314%,2.745098%);fill-opacity:1;" d="M 174 76.199219 L 182.03125 75.601562 C 191.324219 74.703125 200.441406 72.6875 209.132812 69.601562 C 213.59375 67.890625 217.503906 65.207031 220.511719 61.800781 C 221.851562 59.398438 224.191406 51.300781 221.179688 46.199219 C 219.160156 43.207031 216.550781 40.5625 213.484375 38.398438 C 209.132812 34.5 204.117188 34.199219 200.101562 33.300781 C 196.085938 32.398438 184.039062 28.199219 176.34375 32.398438 C 173.085938 31.0625 169.550781 30.34375 165.96875 30.300781 C 165.96875 30.300781 176.34375 33.300781 181.027344 39.300781 C 185.710938 45.300781 189.390625 52.5 185.710938 56.398438 C 182.03125 60.300781 174 76.199219 174 76.199219 Z M 174 76.199219 "/>
<path style="fill:none;stroke-width:0.4;stroke-linecap:round;stroke-linejoin:round;stroke:rgb(0%,0%,0%);stroke-opacity:1;stroke-miterlimit:4;" d="M 41.500539 13 C 41.500539 13 39.300018 13.5 39.300018 15 C 39.33037 17.558594 40.596983 19.942708 42.699443 21.39974 C 44.870779 23.002604 47.262751 24.282552 49.799479 25.200521 C 51.299569 25.799479 52.600036 25.200521 54.400144 25.200521 C 57.177353 24.901042 59.902029 24.229167 62.499461 23.200521 C 63.832615 22.630208 65.001167 21.735677 65.900054 20.60026 C 66.300467 19.799479 66.999731 17.10026 66.099677 15.39974 C 65.496139 14.402344 64.716325 13.520833 63.799928 12.799479 C 62.499461 11.5 61.000539 11.39974 59.800467 11.10026 C 58.600395 10.799479 55.00018 9.39974 52.700431 10.799479 C 52.700431 10.799479 49.599856 9.200521 47.00009 10.799479 C 47.00009 10.799479 44.400323 10.799479 43.200251 11.799479 C 42.687769 12.272135 42.116918 12.675781 41.500539 13 Z M 41.500539 13 " transform="matrix(3.346154,0,0,3,0,0)"/>
<path style="fill:none;stroke-width:0.4;stroke-linecap:round;stroke-linejoin:round;stroke:rgb(0%,0%,0%);stroke-opacity:1;stroke-miterlimit:4;" d="M 40.900503 16.10026 C 41.138649 14.68099 42.20097 13.540365 43.599497 13.200521 C 46.299659 12.299479 47.00009 12.39974 47.499731 12 C 49.216954 11.328125 51.088272 11.154948 52.900054 11.5 " transform="matrix(3.346154,0,0,3,0,0)"/>
<path style="fill:none;stroke-width:0.4;stroke-linecap:round;stroke-linejoin:round;stroke:rgb(0%,0%,0%);stroke-opacity:1;stroke-miterlimit:4;" d="M 42.300198 17.39974 C 42.300198 17.39974 42.199802 15.799479 44.499551 14.60026 C 46.800467 13.39974 46.500449 13.299479 48.300557 13.200521 L 50.000269 13.200521 C 50.000269 13.200521 53.000449 12 55.00018 12.60026 C 56.152389 13.018229 57.394486 13.121094 58.600395 12.89974 C 59.400054 12.799479 60.600126 13.299479 60.600126 13.60026 M 62.100216 13.60026 C 62.100216 13.60026 63.999551 14.5 64.099946 15.799479 C 64.064925 16.80599 63.964529 17.807292 63.799928 18.799479 C 63.900323 19.89974 61.300557 22.10026 60.799749 22.5 M 64.599587 15.200521 C 64.599587 15.200521 65.100395 15.700521 65 17.60026 C 64.939296 19.042969 64.452496 20.434896 63.600305 21.60026 M 42.900233 19 C 42.900233 19 44.499551 21.60026 46.299659 22.200521 C 48.099767 22.799479 48.800198 22.700521 50.199892 23.200521 C 51.599587 23.700521 55.600216 24.39974 56.599497 24 C 57.599946 23.60026 58.999641 23.799479 59.299659 23.5 " transform="matrix(3.346154,0,0,3,0,0)"/>
<path style="fill:none;stroke-width:0.4;stroke-linecap:round;stroke-linejoin:round;stroke:rgb(0%,0%,0%);stroke-opacity:1;stroke-miterlimit:4;" d="M 46.500449 14.5 C 46.500449 14.5 44.299928 15.700521 44.100305 16.700521 C 43.899515 17.700521 44.499551 20.10026 45.999641 20.39974 C 47.141343 20.561198 48.234016 20.971354 49.199443 21.60026 C 50.099497 22.10026 53.50009 23.39974 55.799838 22.89974 C 57.35713 22.654948 58.832705 22.03776 60.100485 21.10026 C 60.783405 20.519531 61.41963 19.884115 61.99982 19.200521 C 62.400233 18.799479 63.199892 16.700521 61.99982 16 C 61.096264 15.41276 60.121498 14.942708 59.100036 14.60026 C 58.005029 14.06901 56.815463 13.763021 55.600216 13.700521 C 54.591595 13.734375 53.581807 13.634115 52.600036 13.39974 C 51.299569 13.299479 50.699533 13.799479 49.499461 14 C 48.820043 14.108073 48.151131 14.27474 47.499731 14.5 " transform="matrix(3.346154,0,0,3,0,0)"/>
<path style="fill:none;stroke-width:0.4;stroke-linecap:round;stroke-linejoin:round;stroke:rgb(0%,0%,0%);stroke-opacity:1;stroke-miterlimit:4;" d="M 45.900413 17.39974 C 45.900413 17.39974 47.00009 19.89974 49.100216 20.39974 C 51.200341 20.89974 52.600036 21.60026 54.100126 21.39974 C 55.600216 21.200521 56.599497 20.799479 57.599946 20.60026 C 58.600395 20.39974 60.100485 19.89974 60.400503 18.799479 C 60.411009 17.808594 60.133172 16.835938 59.599677 16 M 58.099587 15.799479 C 57.235722 14.925781 56.023976 14.484375 54.800557 14.60026 C 53.31681 14.549479 51.834231 14.717448 50.399515 15.10026 C 49.100216 15.5 46.800467 15.700521 46.500449 16.700521 " transform="matrix(3.346154,0,0,3,0,0)"/>
<path style="fill:none;stroke-width:0.4;stroke-linecap:round;stroke-linejoin:round;stroke:rgb(0%,0%,0%);stroke-opacity:1;stroke-miterlimit:4;" d="M 54.299749 15.39974 L 51.099946 15.89974 C 49.799479 16.10026 47.499731 16.39974 47.400503 17.200521 C 47.300108 18 48.300557 18.200521 48.300557 18.200521 C 48.372935 18.794271 48.814206 19.276042 49.400233 19.39974 C 50.34815 19.731771 51.31708 19.998698 52.300018 20.200521 C 53.284124 20.289062 54.276401 20.152344 55.199802 19.799479 C 55.199802 19.799479 58.300377 19.799479 58.600395 18.10026 C 58.900413 16.39974 58.199982 16.799479 57.299928 16.39974 C 56.722073 16.234375 56.179239 15.96224 55.699443 15.60026 " transform="matrix(3.346154,0,0,3,0,0)"/>
<path style="fill:none;stroke-width:0.4;stroke-linecap:round;stroke-linejoin:round;stroke:rgb(0%,0%,0%);stroke-opacity:1;stroke-miterlimit:4;" d="M 53.600485 17 C 54.255388 16.989583 54.904454 17.126302 55.49982 17.39974 C 55.999461 17.799479 55.699443 19.10026 54.500539 19.10026 C 53.305136 19.13151 52.115571 18.928385 50.999551 18.5 C 50.099497 18.10026 50.199892 17.10026 51.200341 16.799479 M 31.299928 26.39974 C 31.299928 26.39974 31.299928 24.799479 30.500269 25.200521 C 29.415769 26.204427 28.56241 27.433594 27.999731 28.799479 C 27.999731 29.200521 27.999731 30.39974 29.00018 29.799479 C 29.697108 29.325521 30.250449 28.667969 30.599497 27.89974 " transform="matrix(3.346154,0,0,3,0,0)"/>
<path style="fill:none;stroke-width:0.4;stroke-linecap:round;stroke-linejoin:round;stroke:rgb(0%,0%,0%);stroke-opacity:1;stroke-miterlimit:4;" d="M 27.399695 30.10026 C 27.800108 30.457031 28.333603 30.627604 28.86593 30.570312 C 29.399425 30.513021 29.88389 30.233073 30.200251 29.799479 C 31.499551 28.10026 31.299928 27.39974 31.299928 27.39974 M 62.199443 30.89974 C 62.199443 30.89974 61.600575 30.10026 61.300557 30.60026 C 61.000539 31.10026 61.50018 34.700521 62.100216 33.89974 C 62.700251 33.10026 62.100216 31.5 62.100216 31.5 M 53.699713 52.299479 C 53.699713 52.299479 53.099677 50.60026 52.400413 51.39974 C 51.699982 52.200521 52.600036 56.60026 53.399695 56.10026 C 54.200521 55.60026 53.50009 53.5 53.50009 53.5 M 17.099856 56.5 C 17.099856 56.5 16.799838 55.39974 16.399425 55.89974 C 16.00018 56.39974 16.100575 58.89974 15.700162 59.799479 C 15.299749 60.700521 16.600216 64 17.299479 62.10026 C 17.780442 60.824219 17.918193 59.445312 17.699892 58.10026 M 16.799838 57.89974 C 17.104526 58.869792 17.172234 59.898438 16.999461 60.89974 M 60.700521 72.60026 C 60.700521 72.60026 60.100485 73.10026 58.300377 72.799479 C 56.500269 72.5 55.900233 72.10026 55.600216 71.60026 C 55.300198 71.10026 55.699443 70.5 56.899515 70.60026 C 57.829921 70.623698 58.747486 70.826823 59.599677 71.200521 M 56.699892 71.200521 C 57.368804 71.91276 58.32606 72.28125 59.299659 72.200521 M 16.49982 82 C 16.49982 82 16.799838 79.700521 16.300198 78.799479 C 15.800557 77.89974 14.999731 77.89974 14.600485 79.10026 C 14.200072 80.299479 15.100126 81.799479 15.200521 82.89974 C 15.299749 84 16.199802 84.60026 16.600216 83.799479 M 15.700162 79.39974 C 15.386135 79.713542 15.270564 80.175781 15.400144 80.60026 " transform="matrix(3.346154,0,0,3,0,0)"/>
<path style="fill-rule:nonzero;fill:rgb(19.607843%,34.117647%,13.72549%);fill-opacity:1;stroke-width:0.4;stroke-linecap:round;stroke-linejoin:round;stroke:rgb(0%,0%,0%);stroke-opacity:1;stroke-miterlimit:4;" d="M 49.499461 34.39974 C 49.499461 34.39974 50.199892 31.10026 48.699802 30.10026 C 47.199713 29.10026 44.700341 31.39974 43.599497 32.10026 C 42.49982 32.799479 42.699443 36.200521 42.49982 37.10026 C 42.300198 38 41.400144 41.39974 44.199533 38.89974 C 47.00009 36.39974 48.699802 36.10026 49.499461 34.39974 Z M 49.499461 34.39974 " transform="matrix(3.346154,0,0,3,0,0)"/>
<path style="fill:none;stroke-width:0.4;stroke-linecap:round;stroke-linejoin:round;stroke:rgb(0%,0%,0%);stroke-opacity:1;stroke-miterlimit:4;" d="M 47.799749 32.200521 C 47.799749 32.200521 48.800198 30.799479 47.100485 31.200521 C 45.399605 31.60026 45.099587 33.200521 44.499551 34.60026 C 43.899515 36 42.999461 38.10026 43.800287 37.60026 C 44.889458 36.920573 45.867726 36.076823 46.700072 35.10026 C 47.600126 33.89974 47.700521 32.60026 46.899695 33 C 46.100036 33.39974 45.999641 34.39974 45.600395 34.799479 " transform="matrix(3.346154,0,0,3,0,0)"/>
<path style=" stroke:none;fill-rule:nonzero;fill:rgb(99.607843%,74.901961%,6.27451%);fill-opacity:1;" d="M 66.921875 329.699219 C 56.863281 323.679688 52.828125 312.203125 57.21875 302.101562 C 60.566406 293.101562 69.265625 285.300781 77.964844 277.800781 C 80.640625 276.601562 88.671875 274.199219 93.691406 276.601562 C 94.207031 276.910156 94.855469 276.988281 95.445312 276.8125 C 96.035156 276.636719 96.5 276.226562 96.703125 275.699219 C 97.203125 274.703125 96.765625 273.527344 95.699219 273 C 92.222656 271.648438 88.351562 271.335938 84.65625 272.101562 C 92.6875 265.199219 99.714844 258 102.726562 249.601562 C 103.367188 247.945312 103.816406 246.238281 104.066406 244.5 C 104.398438 244.199219 117.449219 230.398438 133.175781 229.800781 C 139.953125 229.691406 146.484375 232.074219 151.246094 236.398438 L 154.257812 233.699219 C 148.582031 228.621094 140.859375 225.808594 132.84375 225.898438 C 120.796875 226.5 110.421875 233.699219 104.734375 238.199219 C 105.738281 219 96.703125 195.300781 88.339844 182.101562 C 79.972656 168.898438 77.964844 157.800781 81.644531 150 C 83.101562 146.089844 86.601562 143.0625 91.015625 141.898438 L 93.691406 137.101562 C 86.625 138.402344 80.664062 142.632812 77.628906 148.5 C 71.273438 161.398438 81.3125 178.800781 84.65625 183.898438 C 94.027344 198.898438 105.070312 229.800781 98.710938 248.398438 C 95.367188 257.398438 86.332031 265.199219 76.625 273.601562 C 66.921875 282 56.882812 290.398438 52.871094 300.898438 C 45.171875 321.898438 66.253906 333.898438 66.253906 334.199219 "/>
<path style="fill:none;stroke-width:0.4;stroke-linecap:round;stroke-linejoin:round;stroke:rgb(0%,0%,0%);stroke-opacity:1;stroke-miterlimit:4;" d="M 28.299749 45.5 C 26.068876 45.963542 24.182381 47.44401 23.199443 49.5 C 21.300108 53.799479 24.300287 59.60026 25.299569 61.299479 C 28.100126 66.299479 31.400323 76.60026 29.49982 82.799479 C 28.500539 85.799479 25.800377 88.39974 22.899425 91.200521 C 19.999641 94 16.999461 96.799479 15.800557 100.299479 C 13.499641 107.299479 19.900413 111.39974 19.999641 111.5 " transform="matrix(3.346154,0,0,3,0,0)"/>
<path style="fill-rule:nonzero;fill:rgb(19.607843%,34.117647%,13.72549%);fill-opacity:1;stroke-width:0.4;stroke-linecap:round;stroke-linejoin:round;stroke:rgb(0%,0%,0%);stroke-opacity:1;stroke-miterlimit:4;" d="M 19.000359 117.10026 C 17.640356 116.34375 16.581537 115.143229 16.00018 113.700521 C 17.493265 113.308594 19.072737 113.414062 20.500449 114 C 21.859285 114.75651 22.918103 115.957031 23.499461 117.39974 C 22.01338 117.848958 20.414062 117.742188 19.000359 117.10026 Z M 19.000359 117.10026 " transform="matrix(3.346154,0,0,3,0,0)"/>
<path style="fill:none;stroke-width:0.4;stroke-linecap:round;stroke-linejoin:round;stroke:rgb(0%,0%,0%);stroke-opacity:1;stroke-miterlimit:4;" d="M 46.299659 78 C 44.522899 76.294271 42.162446 75.329427 39.700431 75.299479 C 36.100216 75.5 32.999641 77.89974 31.299928 79.39974 C 31.599946 73 28.899784 65.10026 26.400413 60.700521 C 23.899874 56.299479 23.299838 52.60026 24.399515 50 C 24.95519 48.703125 26.051365 47.714844 27.399695 47.299479 " transform="matrix(3.346154,0,0,3,0,0)"/>
<path style="fill:none;stroke-width:0.4;stroke-linecap:round;stroke-linejoin:round;stroke:rgb(0%,0%,0%);stroke-opacity:1;stroke-miterlimit:4;" d="M 20.200431 110 C 19.999641 109.799479 14.999731 106.700521 17.099856 100.700521 C 18.100305 97.700521 20.700072 95.10026 23.299838 92.60026 C 24.099497 92.200521 26.499641 91.39974 27.999731 92.200521 C 28.153825 92.303385 28.347611 92.329427 28.523886 92.270833 C 28.700162 92.21224 28.83908 92.075521 28.899784 91.89974 C 29.04921 91.567708 28.918463 91.175781 28.599767 91 C 27.560794 90.549479 26.403915 90.445312 25.299569 90.700521 C 27.699713 88.39974 29.799838 86 30.699892 83.200521 C 30.891343 82.648438 31.025593 82.079427 31.100305 81.5 C 31.199533 81.39974 35.099767 76.799479 39.799659 76.60026 C 41.863596 76.61849 43.837644 77.44401 45.300377 78.89974 " transform="matrix(3.346154,0,0,3,0,0)"/>
<path style=" stroke:none;fill-rule:nonzero;fill:rgb(19.607843%,34.117647%,13.72549%);fill-opacity:1;" d="M 115.777344 355.5 C 113.265625 352.570312 111.855469 348.996094 111.761719 345.300781 C 115.882812 345.703125 119.753906 347.28125 122.804688 349.800781 C 125.503906 352.753906 126.929688 356.480469 126.820312 360.300781 C 122.65625 359.8125 118.78125 358.128906 115.777344 355.5 Z M 115.777344 355.5 "/>
<path style=" stroke:none;fill-rule:nonzero;fill:rgb(5.098039%,22.745098%,7.058824%);fill-opacity:1;" d="M 116.113281 349.5 C 119.203125 349.976562 122.160156 350.996094 124.8125 352.5 C 124.378906 351.476562 123.695312 350.550781 122.804688 349.800781 C 119.753906 347.28125 115.882812 345.703125 111.761719 345.300781 C 111.855469 348.996094 113.265625 352.570312 115.777344 355.5 L 117.785156 357.300781 C 116.5625 354.851562 115.992188 352.179688 116.113281 349.5 Z M 116.113281 349.5 "/>
<path style="fill:none;stroke-width:0.4;stroke-linecap:round;stroke-linejoin:round;stroke:rgb(0%,0%,0%);stroke-opacity:1;stroke-miterlimit:4;" d="M 34.600126 118.5 C 33.849497 117.523438 33.428071 116.332031 33.400054 115.10026 C 34.631645 115.234375 35.788524 115.760417 36.700251 116.60026 C 37.506915 117.584635 37.93301 118.826823 37.900323 120.10026 C 36.655891 119.9375 35.497845 119.376302 34.600126 118.5 Z M 34.600126 118.5 " transform="matrix(3.346154,0,0,3,0,0)"/>
<path style="fill-rule:nonzero;fill:rgb(19.607843%,34.117647%,13.72549%);fill-opacity:1;stroke-width:0.4;stroke-linecap:round;stroke-linejoin:round;stroke:rgb(0%,0%,0%);stroke-opacity:1;stroke-miterlimit:4;" d="M 24.099497 121.89974 C 23.630208 120.75651 23.560165 119.488281 23.899874 118.299479 C 25.047414 118.817708 25.99533 119.695312 26.600036 120.799479 C 27.061153 121.949219 27.096175 123.226562 26.700431 124.39974 C 25.568068 123.895833 24.648168 123.011719 24.099497 121.89974 Z M 20.800467 118.39974 C 19.264188 118.691406 17.675377 118.44401 16.300198 117.700521 C 17.201419 116.415365 18.501886 115.466146 19.999641 115 C 21.547593 114.755208 23.131735 115.03776 24.49991 115.799479 C 23.605693 117.06901 22.297055 117.988281 20.800467 118.39974 Z M 20.800467 118.39974 " transform="matrix(3.346154,0,0,3,0,0)"/>
<path style="fill-rule:nonzero;fill:rgb(19.607843%,34.117647%,13.72549%);fill-opacity:1;stroke-width:0.4;stroke-linecap:round;stroke-linejoin:round;stroke:rgb(0%,0%,0%);stroke-opacity:1;stroke-miterlimit:4;" d="M 23.199443 120.799479 C 21.95968 121.941406 20.379041 122.644531 18.700341 122.799479 C 18.743534 121.091146 19.340068 119.441406 20.400054 118.10026 C 21.68301 116.963542 23.294001 116.263021 24.999551 116.10026 C 24.968032 117.829427 24.330639 119.492188 23.199443 120.799479 Z M 45.199982 116.700521 C 43.579652 116.794271 41.981501 116.295573 40.699713 115.299479 C 41.841415 114.153646 43.307651 113.385417 44.899964 113.10026 C 46.479436 113.078125 48.023886 113.56901 49.299838 114.5 C 48.234016 115.692708 46.782956 116.471354 45.199982 116.700521 Z M 45.199982 116.700521 " transform="matrix(3.346154,0,0,3,0,0)"/>
<path style="fill-rule:nonzero;fill:rgb(19.607843%,34.117647%,13.72549%);fill-opacity:1;stroke-width:0.4;stroke-linecap:round;stroke-linejoin:round;stroke:rgb(0%,0%,0%);stroke-opacity:1;stroke-miterlimit:4;" d="M 36.899874 116.89974 C 35.376437 116.539062 34.009429 115.697917 32.999641 114.5 C 34.312949 113.675781 35.853897 113.290365 37.399515 113.39974 C 38.92412 113.760417 40.291128 114.602865 41.299749 115.799479 C 40.002784 116.658854 38.448994 117.048177 36.899874 116.89974 Z M 21.100485 115 C 20.059177 114.311198 19.282866 113.28776 18.899964 112.10026 C 20.122216 111.884115 21.382992 112.058594 22.50018 112.60026 C 23.527478 113.28125 24.273437 114.311198 24.600305 115.5 C 23.409573 115.716146 22.181483 115.540365 21.100485 115 Z M 40.900503 114.200521 C 39.419091 113.967448 38.052083 113.266927 37.000269 112.200521 C 38.221354 111.320312 39.695761 110.863281 41.200521 110.89974 C 42.672593 111.135417 44.016254 111.878906 45.000359 113 C 43.822468 113.88151 42.366739 114.307292 40.900503 114.200521 Z M 40.900503 114.200521 " transform="matrix(3.346154,0,0,3,0,0)"/>
<path style=" stroke:none;fill-rule:nonzero;fill:rgb(19.607843%,34.117647%,13.72549%);fill-opacity:1;" d="M 138.53125 342.601562 C 141.738281 345.433594 143.847656 349.113281 144.554688 353.101562 C 140.089844 353.1875 135.726562 351.921875 132.171875 349.5 C 128.738281 346.78125 126.484375 343.0625 125.816406 339 C 130.375 338.933594 134.839844 340.199219 138.53125 342.601562 Z M 138.53125 342.601562 "/>
<path style=" stroke:none;fill-rule:nonzero;fill:rgb(5.098039%,22.745098%,7.058824%);fill-opacity:1;" d="M 139.535156 348.898438 C 136.078125 349.011719 132.640625 348.398438 129.496094 347.101562 C 130.113281 348.113281 131.042969 348.949219 132.171875 349.5 C 135.726562 351.921875 140.089844 353.1875 144.554688 353.101562 C 143.847656 349.113281 141.738281 345.433594 138.53125 342.601562 L 135.855469 341.101562 C 137.722656 343.417969 138.980469 346.082031 139.535156 348.898438 Z M 139.535156 348.898438 "/>
<path style="fill:none;stroke-width:0.4;stroke-linecap:round;stroke-linejoin:round;stroke:rgb(0%,0%,0%);stroke-opacity:1;stroke-miterlimit:4;" d="M 41.400144 114.200521 C 42.358567 115.144531 42.988955 116.371094 43.200251 117.700521 C 41.86593 117.729167 40.561961 117.307292 39.499641 116.5 C 38.473509 115.59375 37.799928 114.354167 37.600305 113 C 38.962644 112.977865 40.296965 113.39974 41.400144 114.200521 Z M 41.400144 114.200521 " transform="matrix(3.346154,0,0,3,0,0)"/>
<path style=" stroke:none;fill-rule:nonzero;fill:rgb(19.607843%,34.117647%,13.72549%);fill-opacity:1;" d="M 119.457031 329.699219 C 124.644531 327.386719 130.59375 326.855469 136.1875 328.199219 C 134.234375 333.089844 130.449219 337.226562 125.480469 339.898438 C 120.242188 342.039062 114.359375 342.566406 108.75 341.398438 C 110.707031 336.507812 114.488281 332.375 119.457031 329.699219 Z M 119.457031 329.699219 "/>
<path style=" stroke:none;fill-rule:nonzero;fill:rgb(5.098039%,22.745098%,7.058824%);fill-opacity:1;" d="M 128.15625 331.5 C 126.722656 335.324219 124.183594 338.742188 120.796875 341.398438 L 125.480469 339.898438 C 130.449219 337.226562 134.234375 333.089844 136.1875 328.199219 C 130.59375 326.855469 124.644531 327.386719 119.457031 329.699219 C 118.230469 330.117188 117.097656 330.726562 116.113281 331.5 C 120.085938 330.789062 124.179688 330.789062 128.15625 331.5 Z M 128.15625 331.5 "/>
<path style="fill:none;stroke-width:0.4;stroke-linecap:round;stroke-linejoin:round;stroke:rgb(0%,0%,0%);stroke-opacity:1;stroke-miterlimit:4;" d="M 35.699802 109.89974 C 37.25009 109.128906 39.028017 108.951823 40.699713 109.39974 C 40.11602 111.029948 38.984824 112.408854 37.49991 113.299479 C 35.934447 114.013021 34.176365 114.188802 32.5 113.799479 C 33.08486 112.169271 34.214889 110.791667 35.699802 109.89974 Z M 35.699802 109.89974 " transform="matrix(3.346154,0,0,3,0,0)"/>
<path style="fill-rule:nonzero;fill:rgb(100%,0%,0%);fill-opacity:1;stroke-width:0.4;stroke-linecap:round;stroke-linejoin:round;stroke:rgb(0%,0%,0%);stroke-opacity:1;stroke-miterlimit:4;" d="M 32.999641 114.89974 C 32.999641 117.550781 30.850485 119.700521 28.200521 119.700521 C 25.549389 119.700521 23.400233 117.550781 23.400233 114.89974 C 23.400233 112.248698 25.549389 110.10026 28.200521 110.10026 C 30.850485 110.10026 32.999641 112.248698 32.999641 114.89974 Z M 32.999641 114.89974 " transform="matrix(3.346154,0,0,3,0,0)"/>
<path style="fill-rule:nonzero;fill:rgb(100%,0%,0%);fill-opacity:1;stroke-width:0.4;stroke-linecap:round;stroke-linejoin:round;stroke:rgb(0%,0%,0%);stroke-opacity:1;stroke-miterlimit:4;" d="M 33.299659 116.5 C 33.299659 119.040365 31.240392 121.10026 28.700162 121.10026 C 26.159932 121.10026 24.099497 119.040365 24.099497 116.5 C 24.099497 113.959635 26.159932 111.89974 28.700162 111.89974 C 31.240392 111.89974 33.299659 113.959635 33.299659 116.5 Z M 33.299659 116.5 " transform="matrix(3.346154,0,0,3,0,0)"/>
<path style="fill-rule:nonzero;fill:rgb(100%,0%,0%);fill-opacity:1;stroke-width:0.4;stroke-linecap:round;stroke-linejoin:round;stroke:rgb(0%,0%,0%);stroke-opacity:1;stroke-miterlimit:4;" d="M 34.600126 115.299479 C 34.600126 117.674479 32.675108 119.60026 30.299479 119.60026 C 27.925018 119.60026 26 117.674479 26 115.299479 C 26 112.925781 27.925018 111 30.299479 111 C 32.675108 111 34.600126 112.925781 34.600126 115.299479 Z M 34.600126 115.299479 " transform="matrix(3.346154,0,0,3,0,0)"/>
<path style="fill-rule:nonzero;fill:rgb(100%,0%,0%);fill-opacity:1;stroke-width:0.4;stroke-linecap:round;stroke-linejoin:round;stroke:rgb(0%,0%,0%);stroke-opacity:1;stroke-miterlimit:4;" d="M 32.699623 115.5 C 32.699623 117.653646 30.954382 119.39974 28.800557 119.39974 C 26.645564 119.39974 24.900323 117.653646 24.900323 115.5 C 24.900323 113.346354 26.645564 111.60026 28.800557 111.60026 C 30.954382 111.60026 32.699623 113.346354 32.699623 115.5 Z M 32.699623 115.5 " transform="matrix(3.346154,0,0,3,0,0)"/>
<path style="fill-rule:nonzero;fill:rgb(100%,0%,0%);fill-opacity:1;stroke-width:0.4;stroke-linecap:round;stroke-linejoin:round;stroke:rgb(0%,0%,0%);stroke-opacity:1;stroke-miterlimit:4;" d="M 31.199533 115.200521 C 31.199533 116.635417 30.03565 117.799479 28.599767 117.799479 C 27.163883 117.799479 26 116.635417 26 115.200521 C 26 113.764323 27.163883 112.60026 28.599767 112.60026 C 30.03565 112.60026 31.199533 113.764323 31.199533 115.200521 Z M 31.199533 115.200521 " transform="matrix(3.346154,0,0,3,0,0)"/>
<path style="fill-rule:nonzero;fill:rgb(100%,0%,0%);fill-opacity:1;stroke-width:0.4;stroke-linecap:round;stroke-linejoin:round;stroke:rgb(0%,0%,0%);stroke-opacity:1;stroke-miterlimit:4;" d="M 31.299928 116.10026 C 31.299928 117.480469 30.180406 118.60026 28.800557 118.60026 C 27.41954 118.60026 26.300018 117.480469 26.300018 116.10026 C 26.300018 114.71875 27.41954 113.60026 28.800557 113.60026 C 30.180406 113.60026 31.299928 114.71875 31.299928 116.10026 Z M 31.299928 116.10026 " transform="matrix(3.346154,0,0,3,0,0)"/>
<path style="fill-rule:nonzero;fill:rgb(100%,0%,0%);fill-opacity:1;stroke-width:0.4;stroke-linecap:round;stroke-linejoin:round;stroke:rgb(0%,0%,0%);stroke-opacity:1;stroke-miterlimit:4;" d="M 32.000359 115.39974 C 32.000359 116.670573 30.970726 117.700521 29.699443 117.700521 C 28.429328 117.700521 27.399695 116.670573 27.399695 115.39974 C 27.399695 114.130208 28.429328 113.10026 29.699443 113.10026 C 30.970726 113.10026 32.000359 114.130208 32.000359 115.39974 Z M 32.000359 115.39974 " transform="matrix(3.346154,0,0,3,0,0)"/>
<path style="fill-rule:nonzero;fill:rgb(100%,0%,0%);fill-opacity:1;stroke-width:0.4;stroke-linecap:round;stroke-linejoin:round;stroke:rgb(0%,0%,0%);stroke-opacity:1;stroke-miterlimit:4;" d="M 30.99991 115.60026 C 30.99991 116.760417 30.060165 117.700521 28.899784 117.700521 C 27.740571 117.700521 26.799659 116.760417 26.799659 115.60026 C 26.799659 114.440104 27.740571 113.5 28.899784 113.5 C 30.060165 113.5 30.99991 114.440104 30.99991 115.60026 Z M 30.99991 115.60026 " transform="matrix(3.346154,0,0,3,0,0)"/>
<path style=" stroke:none;fill-rule:nonzero;fill:rgb(19.607843%,34.117647%,13.72549%);fill-opacity:1;" d="M 103.730469 202.199219 C 100.472656 201.207031 97.734375 199.179688 96.035156 196.5 C 99.140625 195.097656 102.71875 194.777344 106.074219 195.601562 C 109.328125 196.589844 112.066406 198.621094 113.769531 201.300781 C 110.664062 202.703125 107.085938 203.023438 103.730469 202.199219 Z M 103.730469 202.199219 "/>
<path style=" stroke:none;fill-rule:nonzero;fill:rgb(5.098039%,22.745098%,7.058824%);fill-opacity:1;" d="M 101.054688 198 C 103.484375 197.082031 106.117188 196.671875 108.75 196.800781 L 106.074219 195.601562 C 102.71875 194.777344 99.140625 195.097656 96.035156 196.5 C 97.734375 199.179688 100.472656 201.207031 103.730469 202.199219 L 106.074219 202.199219 C 104.0625 201.164062 102.34375 199.726562 101.054688 198 Z M 101.054688 198 "/>
<path style="fill:none;stroke-width:0.4;stroke-linecap:round;stroke-linejoin:round;stroke:rgb(0%,0%,0%);stroke-opacity:1;stroke-miterlimit:4;" d="M 30.99991 67.39974 C 30.026311 67.06901 29.207974 66.393229 28.700162 65.5 C 29.628233 65.032552 30.697557 64.925781 31.700341 65.200521 C 32.672773 65.529948 33.49111 66.207031 34.00009 67.10026 C 33.072019 67.567708 32.002694 67.674479 30.99991 67.39974 Z M 30.99991 67.39974 " transform="matrix(3.346154,0,0,3,0,0)"/>
<path style="fill-rule:nonzero;fill:rgb(19.607843%,34.117647%,13.72549%);fill-opacity:1;stroke-width:0.4;stroke-linecap:round;stroke-linejoin:round;stroke:rgb(0%,0%,0%);stroke-opacity:1;stroke-miterlimit:4;" d="M 27.999731 74.299479 C 27.324982 75.076823 26.409752 75.604167 25.399964 75.799479 C 25.299569 74.768229 25.584411 73.734375 26.199623 72.89974 C 26.83935 72.082031 27.770923 71.542969 28.800557 71.39974 C 28.900952 72.432292 28.61611 73.464844 27.999731 74.299479 Z M 27.999731 74.299479 " transform="matrix(3.346154,0,0,3,0,0)"/>
<path style=" stroke:none;fill-rule:nonzero;fill:rgb(19.607843%,34.117647%,13.72549%);fill-opacity:1;" d="M 85.328125 207.898438 C 89.773438 208.53125 93.878906 210.425781 97.039062 213.300781 C 93.511719 215.765625 89.128906 217.039062 84.65625 216.898438 C 80.214844 216.460938 76.078125 214.660156 72.945312 211.800781 C 76.480469 209.3125 80.832031 207.941406 85.328125 207.898438 Z M 85.328125 207.898438 "/>
<path style=" stroke:none;fill-rule:nonzero;fill:rgb(5.098039%,22.745098%,7.058824%);fill-opacity:1;" d="M 90.347656 212.699219 C 87.574219 214.527344 84.367188 215.761719 80.976562 216.300781 L 84.65625 216.898438 C 89.128906 217.039062 93.511719 215.765625 97.039062 213.300781 C 93.878906 210.425781 89.773438 208.53125 85.328125 207.898438 L 82.316406 207.898438 C 85.324219 208.996094 88.058594 210.628906 90.347656 212.699219 Z M 90.347656 212.699219 "/>
<path style="fill:none;stroke-width:0.4;stroke-linecap:round;stroke-linejoin:round;stroke:rgb(0%,0%,0%);stroke-opacity:1;stroke-miterlimit:4;" d="M 25.500359 69.299479 C 26.828843 69.510417 28.055765 70.141927 29.00018 71.10026 C 27.946031 71.921875 26.636225 72.346354 25.299569 72.299479 C 23.972252 72.153646 22.735991 71.553385 21.799749 70.60026 C 22.856232 69.770833 24.156699 69.313802 25.500359 69.299479 Z M 25.500359 69.299479 " transform="matrix(3.346154,0,0,3,0,0)"/>
<path style="fill-rule:nonzero;fill:rgb(19.607843%,34.117647%,13.72549%);fill-opacity:1;stroke-width:0.4;stroke-linecap:round;stroke-linejoin:round;stroke:rgb(0%,0%,0%);stroke-opacity:1;stroke-miterlimit:4;" d="M 24.999551 84.5 C 24.014278 83.882812 23.246139 82.973958 22.800198 81.89974 C 23.96875 81.622396 25.195672 81.726562 26.300018 82.200521 C 27.285291 82.817708 28.054598 83.726562 28.500539 84.799479 C 27.330819 85.078125 26.103897 84.972656 24.999551 84.5 Z M 24.999551 84.5 " transform="matrix(3.346154,0,0,3,0,0)"/>
<path style=" stroke:none;fill-rule:nonzero;fill:rgb(19.607843%,34.117647%,13.72549%);fill-opacity:1;" d="M 84.992188 260.398438 C 81.066406 260.746094 77.136719 259.785156 73.949219 257.699219 C 76.5 255.175781 79.914062 253.488281 83.652344 252.898438 C 87.535156 252.519531 91.441406 253.371094 94.695312 255.300781 C 92.214844 257.953125 88.785156 259.753906 84.992188 260.398438 Z M 84.992188 260.398438 "/>
<path style=" stroke:none;fill-rule:nonzero;fill:rgb(5.098039%,22.745098%,7.058824%);fill-opacity:1;" d="M 79.972656 257.398438 C 81.773438 255.316406 84.21875 253.753906 87 252.898438 L 83.652344 252.898438 C 79.914062 253.488281 76.5 255.175781 73.949219 257.699219 C 77.136719 259.785156 81.066406 260.746094 84.992188 260.398438 L 87.335938 259.800781 C 84.707031 259.523438 82.1875 258.699219 79.972656 257.398438 Z M 79.972656 257.398438 "/>
<path style="fill:none;stroke-width:0.4;stroke-linecap:round;stroke-linejoin:round;stroke:rgb(0%,0%,0%);stroke-opacity:1;stroke-miterlimit:4;" d="M 25.399964 86.799479 C 24.226742 86.915365 23.052353 86.595052 22.099767 85.89974 C 22.862069 85.058594 23.882364 84.496094 24.999551 84.299479 C 26.159932 84.173177 27.327317 84.457031 28.299749 85.10026 C 27.558459 85.984375 26.533495 86.584635 25.399964 86.799479 Z M 25.399964 86.799479 " transform="matrix(3.346154,0,0,3,0,0)"/>
<path style="fill-rule:nonzero;fill:rgb(19.607843%,34.117647%,13.72549%);fill-opacity:1;stroke-width:0.4;stroke-linecap:round;stroke-linejoin:round;stroke:rgb(0%,0%,0%);stroke-opacity:1;stroke-miterlimit:4;" d="M 34.199713 83.60026 C 33.38371 82.536458 32.92843 81.239583 32.900413 79.89974 C 34.24991 79.997396 35.523527 80.5625 36.499461 81.5 C 37.315463 82.563802 37.771911 83.859375 37.799928 85.200521 C 36.450431 85.102865 35.176814 84.536458 34.199713 83.60026 Z M 45.999641 74.89974 C 45.054059 75.520833 43.926365 75.803385 42.799838 75.700521 C 43.063667 74.613281 43.656699 73.635417 44.499551 72.89974 C 45.411279 72.286458 46.505119 72.003906 47.600126 72.10026 C 47.389996 73.184896 46.828484 74.169271 45.999641 74.89974 Z M 45.999641 74.89974 " transform="matrix(3.346154,0,0,3,0,0)"/>
<path style="fill-rule:nonzero;fill:rgb(99.607843%,74.901961%,6.27451%);fill-opacity:1;stroke-width:0.4;stroke-linecap:round;stroke-linejoin:round;stroke:rgb(0%,0%,0%);stroke-opacity:1;stroke-miterlimit:4;" d="M 40.50009 120.10026 C 40.50009 120.299479 40.099677 120.5 39.700431 120.5 C 39.300018 120.5 38.899605 120.299479 38.899605 120.10026 C 38.899605 119.89974 39.300018 119.5 39.799659 119.5 C 40.151042 119.496094 40.449892 119.752604 40.50009 120.10026 Z M 40.50009 120.10026 " transform="matrix(3.346154,0,0,3,0,0)"/>
<path style="fill-rule:nonzero;fill:rgb(99.607843%,74.901961%,6.27451%);fill-opacity:1;stroke-width:0.4;stroke-linecap:round;stroke-linejoin:round;stroke:rgb(0%,0%,0%);stroke-opacity:1;stroke-miterlimit:4;" d="M 42.900233 120 C 42.900233 120.5 42.199802 120.89974 41.500539 120.89974 C 40.800108 120.89974 40.200072 120.700521 40.200072 120.200521 C 40.341325 119.60026 40.884159 119.183594 41.500539 119.200521 C 42.199802 119.200521 42.900233 119.5 42.900233 120 Z M 39.900054 121.5 C 39.900054 121.89974 39.300018 122 38.800377 122 C 38.299569 122 37.900323 121.799479 37.900323 121.299479 C 37.924838 121.061198 38.045079 120.841146 38.233028 120.691406 C 38.420977 120.540365 38.661458 120.471354 38.899605 120.5 C 39.431932 120.546875 39.853358 120.96875 39.900054 121.5 Z M 26.300018 127 C 26.300018 127.5 25.599587 127.60026 24.999551 127.60026 C 24.399515 127.60026 23.899874 127.39974 23.899874 126.799479 C 23.899874 126.200521 24.399515 125.89974 25.099946 125.89974 C 25.708154 125.940104 26.207795 126.397135 26.300018 127 Z M 28.700162 126.700521 C 28.700162 127 28.200521 127.299479 27.600485 127.299479 C 27.000449 127.299479 26.499641 127 26.499641 126.700521 C 26.499641 126.39974 27.099677 125.799479 27.699713 125.799479 C 28.215697 125.796875 28.648797 126.1875 28.700162 126.700521 Z M 28.700162 126.700521 " transform="matrix(3.346154,0,0,3,0,0)"/>
<path style="fill-rule:nonzero;fill:rgb(99.607843%,74.901961%,6.27451%);fill-opacity:1;stroke-width:0.4;stroke-linecap:round;stroke-linejoin:round;stroke:rgb(0%,0%,0%);stroke-opacity:1;stroke-miterlimit:4;" d="M 27.800108 127.799479 C 27.800108 128.299479 27.200072 128.700521 26.400413 128.700521 C 25.599587 128.700521 25.099946 128.5 25.099946 128 C 25.202676 127.376302 25.771193 126.938802 26.400413 127 C 27.200072 127 27.800108 127.299479 27.800108 127.799479 Z M 19.699623 129.299479 C 19.699623 129.700521 19.199982 130 18.700341 130 C 18.199533 130 17.599497 129.89974 17.599497 129.5 C 17.599497 129.10026 18.100305 128.700521 18.700341 128.700521 C 19.300377 128.700521 19.699623 128.89974 19.699623 129.299479 Z M 14.800108 119.200521 C 14.800108 119.60026 14.300467 120 13.700431 120 C 13.100395 120 12.599587 119.799479 12.599587 119.39974 C 12.599587 119 13.100395 118.60026 13.700431 118.60026 C 14.300467 118.60026 14.800108 118.799479 14.800108 119.200521 Z M 41.700162 121.299479 C 41.700162 121.60026 41.299749 121.799479 40.800108 121.799479 C 40.300467 121.799479 39.900054 121.60026 39.900054 121.299479 C 39.900054 121 40.399695 120.60026 40.900503 120.60026 C 41.305585 120.596354 41.648797 120.897135 41.700162 121.299479 Z M 44.499551 119.700521 C 44.499551 120 44.100305 120.200521 43.699892 120.200521 C 43.299479 120.200521 42.900233 120 42.900233 119.700521 C 42.900233 119.39974 43.399874 119.10026 43.800287 119.10026 C 44.136494 119.13151 44.416667 119.372396 44.499551 119.700521 Z M 44.499551 119.700521 " transform="matrix(3.346154,0,0,3,0,0)"/>
<path style="fill-rule:nonzero;fill:rgb(99.607843%,74.901961%,6.27451%);fill-opacity:1;stroke-width:0.4;stroke-linecap:round;stroke-linejoin:round;stroke:rgb(0%,0%,0%);stroke-opacity:1;stroke-miterlimit:4;" d="M 46.400054 120.299479 C 46.400054 120.700521 45.800018 120.799479 45.199982 120.799479 C 44.599946 120.799479 44.299928 120.60026 44.299928 120.200521 C 44.325611 119.960938 44.444684 119.740885 44.632633 119.591146 C 44.820582 119.441406 45.061063 119.372396 45.300377 119.39974 C 45.837374 119.390625 46.301994 119.772135 46.400054 120.299479 Z M 46.400054 120.299479 " transform="matrix(3.346154,0,0,3,0,0)"/>
<path style="fill-rule:nonzero;fill:rgb(99.607843%,74.901961%,6.27451%);fill-opacity:1;stroke-width:0.4;stroke-linecap:round;stroke-linejoin:round;stroke:rgb(0%,0%,0%);stroke-opacity:1;stroke-miterlimit:4;" d="M 44.599946 121 C 44.599946 121.39974 44.100305 121.700521 43.399874 121.700521 C 42.699443 121.700521 42.199802 121.39974 42.199802 121 C 42.199802 120.60026 42.900233 120.10026 43.500269 120.10026 C 43.765266 120.071615 44.03143 120.151042 44.238057 120.320312 C 44.444684 120.489583 44.574264 120.734375 44.599946 121 Z M 48.399784 119.200521 C 48.399784 119.39974 48.099767 119.60026 47.600126 119.60026 C 47.100485 119.60026 46.800467 119.39974 46.800467 119.200521 C 46.800467 119 47.300108 118.60026 47.700521 118.60026 C 48.050736 118.596354 48.349587 118.852865 48.399784 119.200521 Z M 66.300467 124.89974 C 66.300467 125.299479 65.799659 125.5 65.300018 125.5 C 64.800377 125.5 64.299569 125.299479 64.299569 124.89974 C 64.299569 124.5 64.800377 124.200521 65.400413 124.200521 C 65.612877 124.171875 65.827676 124.230469 65.996947 124.361979 C 66.166218 124.49349 66.274784 124.6875 66.300467 124.89974 Z M 66.300467 124.89974 " transform="matrix(3.346154,0,0,3,0,0)"/>
<path style="fill-rule:nonzero;fill:rgb(99.607843%,74.901961%,6.27451%);fill-opacity:1;stroke-width:0.4;stroke-linecap:round;stroke-linejoin:round;stroke:rgb(0%,0%,0%);stroke-opacity:1;stroke-miterlimit:4;" d="M 65.400413 125.89974 C 65.400413 126.39974 64.800377 126.799479 64.099946 126.799479 C 63.399515 126.799479 62.700251 126.700521 62.700251 126.200521 C 62.700251 125.700521 63.300287 125.200521 64.099946 125.200521 C 64.899605 125.200521 65.400413 125.39974 65.400413 125.89974 Z M 61.600575 127.39974 C 61.600575 128 60.900144 128.60026 59.899695 128.60026 C 58.900413 128.60026 58.199982 128.39974 58.199982 127.799479 C 58.303879 126.955729 59.051006 126.339844 59.899695 126.39974 C 60.900144 126.39974 61.600575 126.799479 61.600575 127.39974 Z M 57.799569 129.299479 C 57.799569 129.89974 57.100305 130 56.399874 130 C 55.699443 130 55.199802 129.700521 55.199802 129.200521 C 55.225485 128.88151 55.377245 128.585938 55.621228 128.378906 C 55.865212 128.173177 56.181573 128.072917 56.500269 128.10026 C 57.180855 128.097656 57.748204 128.621094 57.799569 129.299479 Z M 57.799569 129.299479 " transform="matrix(3.346154,0,0,3,0,0)"/>
<path style="fill-rule:nonzero;fill:rgb(99.607843%,74.901961%,6.27451%);fill-opacity:1;stroke-width:0.4;stroke-linecap:round;stroke-linejoin:round;stroke:rgb(0%,0%,0%);stroke-opacity:1;stroke-miterlimit:4;" d="M 58.5 127.5 C 58.5 127.89974 58.099587 128.10026 57.499551 128.10026 C 56.899515 128.10026 56.500269 127.89974 56.500269 127.5 C 56.500269 127.10026 57.100305 126.799479 57.599946 126.799479 C 57.81241 126.772135 58.027209 126.829427 58.19648 126.960938 C 58.365751 127.09375 58.475485 127.28776 58.5 127.5 Z M 58.5 127.5 " transform="matrix(3.346154,0,0,3,0,0)"/>
<path style="fill-rule:nonzero;fill:rgb(99.607843%,74.901961%,6.27451%);fill-opacity:1;stroke-width:0.4;stroke-linecap:round;stroke-linejoin:round;stroke:rgb(0%,0%,0%);stroke-opacity:1;stroke-miterlimit:4;" d="M 59.299659 128.60026 C 59.299659 128.89974 58.900413 129.200521 58.300377 129.200521 C 57.700341 129.200521 57.299928 128.89974 57.299928 128.60026 C 57.299928 128.299479 57.899964 127.799479 58.399605 127.799479 C 58.860722 127.796875 59.248294 128.141927 59.299659 128.60026 Z M 63.799928 127.10026 C 63.799928 127.39974 63.300287 127.700521 62.700251 127.700521 C 62.100216 127.700521 61.699802 127.39974 61.699802 127.10026 C 61.699802 126.799479 62.299838 126.299479 62.899874 126.299479 C 63.360991 126.296875 63.748563 126.641927 63.799928 127.10026 Z M 63.799928 127.10026 " transform="matrix(3.346154,0,0,3,0,0)"/>
<path style="fill-rule:nonzero;fill:rgb(99.607843%,74.901961%,6.27451%);fill-opacity:1;stroke-width:0.4;stroke-linecap:round;stroke-linejoin:round;stroke:rgb(0%,0%,0%);stroke-opacity:1;stroke-miterlimit:4;" d="M 66.200072 127.799479 C 66.200072 128.39974 65.499641 128.5 64.699982 128.5 C 63.900323 128.5 63.600305 128.200521 63.600305 127.60026 C 63.62482 127.307292 63.766074 127.03776 63.991379 126.85026 C 64.216685 126.66276 64.508531 126.571615 64.800377 126.60026 C 65.144756 126.572917 65.4868 126.683594 65.749461 126.908854 C 66.012123 127.134115 66.174389 127.454427 66.200072 127.799479 Z M 66.200072 127.799479 " transform="matrix(3.346154,0,0,3,0,0)"/>
<path style="fill-rule:nonzero;fill:rgb(99.607843%,74.901961%,6.27451%);fill-opacity:1;stroke-width:0.4;stroke-linecap:round;stroke-linejoin:round;stroke:rgb(0%,0%,0%);stroke-opacity:1;stroke-miterlimit:4;" d="M 63.900323 128.5 C 63.900323 129 63.199892 129.39974 62.400233 129.39974 C 61.600575 129.39974 60.799749 129 60.799749 128.5 C 60.799749 128 61.699802 127.299479 62.499461 127.299479 C 62.845007 127.272135 63.187051 127.384115 63.449713 127.609375 C 63.712374 127.834635 63.874641 128.154948 63.900323 128.5 Z M 68.799838 126.39974 C 68.799838 126.700521 68.399425 127 67.800557 127 C 67.200521 127 66.800108 126.700521 66.800108 126.39974 C 66.800108 126.10026 67.400144 125.60026 67.899784 125.60026 C 68.128592 125.571615 68.358567 125.641927 68.53134 125.795573 C 68.704113 125.949219 68.802173 126.169271 68.799838 126.39974 Z M 68.799838 126.39974 " transform="matrix(3.346154,0,0,3,0,0)"/>
<path style="fill-rule:nonzero;fill:rgb(99.607843%,74.901961%,6.27451%);fill-opacity:1;stroke-width:0.4;stroke-linecap:round;stroke-linejoin:round;stroke:rgb(0%,0%,0%);stroke-opacity:1;stroke-miterlimit:4;" d="M 66.300467 129.299479 C 66.300467 129.799479 65.600036 130.200521 64.699982 130.200521 C 63.799928 130.200521 63.099497 129.799479 63.099497 129.299479 C 63.099497 128.799479 63.999551 128.10026 64.899605 128.10026 C 65.601203 128.092448 66.200072 128.605469 66.300467 129.299479 Z M 63.099497 123.200521 C 63.099497 123.5 63.49991 123.700521 63.799928 123.700521 C 64.099946 123.700521 64.500359 123.5 64.500359 123.200521 C 64.394127 122.886719 64.125629 122.65625 63.799928 122.60026 C 63.463721 122.63151 63.183549 122.872396 63.099497 123.200521 Z M 58.999641 130 C 58.999641 130.299479 59.299659 130.5 59.700072 130.5 C 60.100485 130.5 60.400503 130.299479 60.400503 130 C 60.279095 129.65625 59.963901 129.419271 59.599677 129.39974 C 59.287985 129.442708 59.041667 129.6875 58.999641 130 Z M 58.999641 130 " transform="matrix(3.346154,0,0,3,0,0)"/>
<path style=" stroke:none;fill-rule:nonzero;fill:rgb(58.823529%,43.137255%,7.843137%);fill-opacity:1;" d="M 102.058594 381 C 101.667969 378.878906 102.273438 376.707031 103.730469 375 L 150.578125 365.101562 L 150.578125 370.199219 L 140.875 377.101562 L 129.832031 377.101562 L 111.09375 382.5 Z M 102.058594 381 "/>
<path style=" stroke:none;fill-rule:nonzero;fill:rgb(99.607843%,74.901961%,6.27451%);fill-opacity:1;" d="M 150.578125 365.101562 C 145.292969 364.101562 139.84375 363.996094 134.515625 364.800781 C 134.515625 364.800781 111.09375 361.5 107.078125 367.5 C 103.0625 373.5 103.730469 375 103.730469 375 C 103.730469 375 117.117188 375.601562 119.125 374.101562 C 122.652344 372.757812 126.367188 371.847656 130.164062 371.398438 C 130.164062 371.398438 122.132812 379.800781 117.449219 378.898438 C 114.699219 378.398438 111.839844 378.824219 109.417969 380.101562 L 102.058594 381 C 104.199219 383.636719 107.855469 384.925781 111.425781 384.300781 C 117.785156 383.699219 122.132812 384.300781 125.480469 382.800781 L 132.507812 379.199219 C 132.507812 379.199219 136.1875 386.398438 141.542969 384 C 146.894531 381.601562 155.929688 379.5 155.929688 379.5 L 159.277344 376.199219 L 162.625 375.601562 C 162.625 375.601562 160.28125 367.800781 152.25 369.898438 C 144.21875 372 143.550781 373.5 143.550781 373.5 L 133.847656 373.5 L 143.550781 369.898438 L 144.886719 367.199219 Z M 150.578125 365.101562 "/>
<path style="fill:none;stroke-width:0.4;stroke-linecap:round;stroke-linejoin:round;stroke:rgb(0%,0%,0%);stroke-opacity:1;stroke-miterlimit:4;" d="M 45.000359 121.700521 C 43.420887 121.367188 41.792385 121.332031 40.200072 121.60026 C 40.200072 121.60026 33.200431 120.5 32.000359 122.5 C 30.800287 124.5 30.99991 125 30.99991 125 C 30.99991 125 35.000539 125.200521 35.600575 124.700521 C 36.654723 124.252604 37.764907 123.949219 38.899605 123.799479 C 38.899605 123.799479 36.499461 126.60026 35.099767 126.299479 C 34.277927 126.132812 33.423402 126.27474 32.699623 126.700521 L 30.500269 127 C 31.139996 127.878906 32.232669 128.308594 33.299659 128.10026 C 35.200162 127.89974 36.499461 128.10026 37.49991 127.60026 L 39.600036 126.39974 C 39.600036 126.39974 40.699713 128.799479 42.300198 128 C 43.899515 127.200521 46.599677 126.5 46.599677 126.5 L 47.600126 125.39974 L 48.600575 125.200521 C 48.600575 125.200521 47.900144 122.60026 45.5 123.299479 C 43.099856 124 42.900233 124.5 42.900233 124.5 L 40.000449 124.5 L 42.900233 123.299479 L 43.299479 122.39974 Z M 30.99991 125 C 30.564476 125.56901 30.383531 126.292969 30.500269 127 M 45.000359 121.700521 L 45.000359 123.39974 " transform="matrix(3.346154,0,0,3,0,0)"/>
<path style="fill-rule:nonzero;fill:rgb(99.607843%,74.901961%,6.27451%);fill-opacity:1;stroke-width:0.4;stroke-linecap:round;stroke-linejoin:round;stroke:rgb(0%,0%,0%);stroke-opacity:1;stroke-miterlimit:4;" d="M 42.900233 128.39974 C 42.746139 129.302083 41.906789 129.920573 40.999731 129.799479 C 40.000449 129.799479 39.100395 129.60026 39.100395 128.799479 C 39.248653 127.869792 40.057651 127.188802 40.999731 127.200521 C 42.100575 127.200521 42.900233 127.60026 42.900233 128.39974 Z M 42.900233 128.39974 " transform="matrix(3.346154,0,0,3,0,0)"/>
<path style="fill-rule:nonzero;fill:rgb(99.607843%,74.901961%,6.27451%);fill-opacity:1;stroke-width:0.4;stroke-linecap:round;stroke-linejoin:round;stroke:rgb(0%,0%,0%);stroke-opacity:1;stroke-miterlimit:4;" d="M 41.599767 130.200521 C 41.599767 130.89974 40.399695 131.10026 39.199623 131.10026 C 37.999551 131.10026 37.199892 130.700521 37.199892 129.89974 C 37.199892 129.10026 38.200341 128.5 39.400413 128.5 C 40.456897 128.43099 41.400144 129.160156 41.599767 130.200521 Z M 41.599767 130.200521 " transform="matrix(3.346154,0,0,3,0,0)"/>
<path style="fill-rule:nonzero;fill:rgb(99.607843%,74.901961%,6.27451%);fill-opacity:1;stroke-width:0.4;stroke-linecap:round;stroke-linejoin:round;stroke:rgb(0%,0%,0%);stroke-opacity:1;stroke-miterlimit:4;" d="M 39.300018 127.89974 C 39.300018 128.39974 38.800377 128.700521 38.200341 128.700521 C 37.600305 128.700521 37.099497 128.39974 37.099497 127.89974 C 37.099497 127.39974 37.699533 127 38.299569 127 C 38.555226 126.971354 38.810884 127.053385 39.002335 127.22526 C 39.192619 127.397135 39.301185 127.643229 39.300018 127.89974 Z M 39.300018 127.89974 " transform="matrix(3.346154,0,0,3,0,0)"/>
<path style="fill:none;stroke-width:0.4;stroke-linecap:round;stroke-linejoin:round;stroke:rgb(0%,0%,0%);stroke-opacity:1;stroke-miterlimit:4;" d="M 8.00009 7.89974 L 69.99991 7.89974 L 69.99991 132.209635 L 8.00009 132.209635 Z M 8.00009 7.89974 " transform="matrix(3.346154,0,0,3,0,0)"/>
</g>
</svg>
