<?xml version="1.0" encoding="UTF-8"?>
<svg xmlns="http://www.w3.org/2000/svg" xmlns:xlink="http://www.w3.org/1999/xlink" width="261px" height="420px" viewBox="0 0 261 426" version="1.1">
<g id="surface1">
<path style=" stroke:none;fill-rule:nonzero;fill:rgb(100%,100%,100%);fill-opacity:1;" d="M 20.078125 0 L 240.921875 0 C 252.011719 0 261 8.058594 261 18 L 261 402 C 261 411.941406 252.011719 420 240.921875 420 L 20.078125 420 C 8.988281 420 0 411.941406 0 402 L 0 18 C 0 8.058594 8.988281 0 20.078125 0 Z M 20.078125 0 "/>
<path style=" stroke:none;fill-rule:nonzero;fill:rgb(19.607843%,34.117647%,13.72549%);fill-opacity:1;" d="M 166.972656 242.699219 C 166.972656 242.699219 166.304688 248.699219 165.96875 255.601562 C 165.101562 262.152344 166.257812 268.796875 169.316406 274.800781 C 172.800781 285.421875 174.601562 296.429688 174.667969 307.5 C 174 313.199219 176.675781 336.300781 177.011719 343.199219 C 177.636719 354.074219 179.089844 364.902344 181.363281 375.601562 C 182.699219 378 193.40625 384.898438 196.085938 378.300781 C 198.761719 371.699219 201.4375 355.199219 202.441406 350.398438 C 203.445312 345.601562 207.125 316.5 209.132812 310.5 C 211.140625 304.5 209.804688 302.398438 213.148438 302.699219 C 216.496094 303 220.847656 303 221.179688 298.199219 C 221.515625 293.398438 220.511719 287.101562 217.5 285.300781 C 215.554688 284.25 214.03125 282.675781 213.148438 280.800781 C 212.816406 279.300781 215.492188 266.699219 215.492188 264.300781 C 215.492188 261.898438 219.84375 249.601562 208.128906 245.101562 C 196.417969 240.601562 185.710938 237.300781 177.679688 238.5 C 169.648438 239.699219 167.976562 240.601562 166.972656 242.699219 Z M 111.761719 251.699219 C 112.429688 256.199219 110.757812 269.699219 111.09375 277.199219 C 111.425781 284.699219 114.4375 294.898438 113.101562 298.800781 C 111.761719 302.699219 108.414062 303.898438 107.746094 310.5 C 107.078125 317.101562 103.394531 345 103.0625 351.898438 C 102.726562 358.800781 104.398438 375.898438 111.09375 379.800781 C 117.785156 383.699219 146.226562 376.199219 151.246094 366.898438 C 156.265625 357.601562 154.59375 348.300781 153.589844 334.800781 C 152.773438 328.828125 152.324219 322.816406 152.25 316.800781 C 152.25 312.601562 144.21875 294.601562 140.203125 282.898438 C 136.1875 271.199219 134.179688 254.101562 132.84375 247.199219 C 131.503906 240.300781 132.171875 234 128.492188 233.699219 C 124.8125 233.398438 115.777344 236.398438 113.769531 238.800781 C 111.761719 241.199219 111.761719 251.699219 111.761719 251.699219 Z M 39.820312 249.300781 C 39.316406 257.671875 40.21875 266.066406 42.496094 274.199219 C 46.175781 285.300781 43.835938 290.398438 45.84375 295.199219 C 47.851562 300 50.527344 298.5 51.867188 303 C 53.203125 307.5 56.214844 318 55.210938 321.898438 C 53.808594 326.027344 54.417969 330.496094 56.882812 334.199219 C 59.894531 339 60.230469 348.898438 62.238281 354.300781 C 64.246094 359.699219 64.246094 369.898438 66.589844 374.398438 C 68.929688 378.898438 74.621094 383.398438 77.964844 376.199219 C 81.3125 369 79.304688 333.300781 80.308594 325.800781 C 80.394531 320.464844 81.882812 315.222656 84.65625 310.5 C 87 306.898438 85.996094 300.601562 84.324219 295.800781 C 82.648438 291 84.992188 282 85.660156 277.800781 C 86.332031 273.601562 87.667969 260.101562 85.660156 255 C 83.652344 249.898438 47.179688 241.5 39.820312 249.300781 Z M 184.039062 42.300781 C 182.164062 49.476562 181.261719 56.828125 181.363281 64.199219 C 181.296875 76.386719 179.949219 88.539062 177.347656 100.5 C 176.007812 105.300781 170.652344 134.398438 169.316406 144.601562 C 167.976562 154.800781 165.96875 163.800781 174.335938 170.699219 C 182.699219 177.601562 216.160156 178.5 215.492188 164.101562 C 214.722656 147.828125 212.261719 131.660156 208.128906 115.800781 C 204.785156 106.199219 200.101562 66.898438 199.429688 58.5 C 198.761719 50.101562 199.765625 40.199219 193.40625 38.398438 C 187.050781 36.601562 185.375 40.199219 184.039062 42.300781 Z M 105.738281 43.800781 C 105.738281 43.800781 102.726562 65.699219 106.742188 78.300781 C 110.757812 90.898438 110.421875 97.800781 109.417969 101.398438 C 108.414062 105 107.410156 108.601562 111.425781 120.300781 C 111.425781 120.300781 116.113281 135.601562 117.117188 142.199219 C 118.121094 148.800781 120.796875 171.601562 122.46875 174.300781 C 124.140625 177 136.1875 180.300781 137.863281 176.398438 C 139.535156 172.5 140.875 152.398438 141.875 146.699219 C 142.878906 141 144.886719 115.5 146.5625 111.300781 C 148.234375 107.101562 152.917969 94.199219 151.246094 87.601562 C 149.574219 81 151.246094 74.101562 151.914062 67.5 C 152.585938 60.898438 154.257812 56.398438 151.914062 53.101562 C 149.574219 49.800781 117.117188 37.199219 105.738281 43.800781 Z M 53.539062 40.5 C 53.539062 40.5 52.535156 69 51.195312 80.398438 C 49.859375 91.800781 49.523438 90.601562 48.519531 105 C 47.515625 119.398438 39.484375 147.300781 40.824219 159 C 42.160156 170.699219 41.492188 186.898438 58.222656 185.398438 C 74.953125 183.898438 94.363281 176.398438 94.695312 162.898438 C 95.03125 149.398438 89.007812 128.699219 90.347656 120.898438 C 91.683594 113.101562 82.984375 99 81.644531 95.398438 C 78.523438 84.226562 76.066406 72.910156 74.285156 61.5 C 73.738281 55.328125 72.617188 49.207031 70.9375 43.199219 C 69.933594 40.5 62.574219 36.300781 53.539062 40.5 Z M 53.539062 40.5 "/>
<path style=" stroke:none;fill-rule:nonzero;fill:rgb(5.098039%,22.745098%,7.058824%);fill-opacity:1;" d="M 65.25 39.300781 C 67.925781 41.101562 70.605469 42 70.9375 43.199219 C 72.617188 49.207031 73.738281 55.328125 74.285156 61.5 C 76.066406 72.910156 78.523438 84.226562 81.644531 95.398438 C 82.984375 99 91.351562 112.800781 90.347656 120.898438 C 89.34375 129 95.03125 149.699219 94.695312 162.898438 C 94.40625 167.945312 91.730469 172.640625 87.335938 175.800781 C 87.335938 175.800781 91.015625 171.601562 88.339844 156.300781 C 86.039062 144.917969 84.917969 133.367188 84.992188 121.800781 C 84.992188 117.601562 87.335938 108.601562 82.984375 105.300781 C 78.632812 102 73.28125 86.699219 73.28125 80.398438 C 73.28125 74.101562 71.609375 51 68.261719 47.398438 C 64.914062 43.800781 63.242188 37.800781 65.25 39.300781 Z M 52.871094 185.101562 C 41.492188 183 41.828125 169.199219 40.824219 159 C 39.820312 148.800781 47.515625 119.699219 48.519531 105 C 49.523438 90.300781 49.859375 91.800781 51.195312 80.398438 C 52.535156 69 53.539062 40.5 53.539062 40.5 L 57.21875 39 C 57.21875 39 61.902344 41.699219 61.234375 56.398438 C 60.566406 71.101562 64.914062 81.601562 62.574219 88.800781 C 60.230469 96 58.558594 107.101562 61.570312 112.5 C 64.582031 117.898438 68.261719 125.699219 66.589844 127.5 C 64.914062 129.300781 64.582031 124.5 60.898438 124.800781 C 57.21875 125.101562 54.542969 133.800781 56.550781 138.601562 C 58.558594 143.398438 56.550781 146.398438 56.214844 153.601562 C 55.878906 160.800781 59.226562 161.398438 56.882812 166.800781 C 55.128906 172.820312 53.789062 178.933594 52.871094 185.101562 Z M 133.847656 45.300781 C 141.875 50.398438 150.910156 51.601562 151.914062 53.101562 C 152.917969 54.601562 152.917969 60.898438 151.914062 67.5 C 150.910156 74.101562 149.238281 81.300781 151.246094 87.601562 C 153.253906 93.898438 148.234375 107.398438 146.5625 111.300781 C 144.886719 115.199219 143.214844 141.300781 141.875 146.699219 C 140.539062 152.101562 139.871094 172.5 137.863281 176.398438 C 135.855469 180.300781 134.515625 179.699219 132.84375 178.199219 C 130.667969 175.179688 129.835938 171.542969 130.5 168 C 131.839844 164.699219 137.191406 149.398438 135.183594 142.5 C 133.175781 135.601562 135.519531 111.300781 137.527344 108.601562 C 139.535156 105.898438 147.898438 95.398438 145.222656 89.398438 C 142.546875 83.398438 138.53125 88.5 135.519531 85.800781 C 132.507812 83.101562 134.515625 58.5 134.179688 54.601562 C 133.847656 50.699219 131.839844 43.800781 133.847656 45.300781 Z M 125.480469 176.398438 C 124.476562 177.601562 123.136719 175.199219 122.46875 174.300781 C 121.800781 173.398438 117.785156 149.101562 117.117188 142.199219 C 116.445312 135.300781 111.425781 120.300781 111.425781 120.300781 C 107.410156 108.601562 108.414062 104.699219 109.417969 101.398438 C 110.421875 98.101562 110.421875 90.601562 106.742188 78.300781 C 103.0625 66 105.738281 43.800781 105.738281 43.800781 C 108.886719 42.515625 112.320312 41.898438 115.777344 42 C 115.777344 42 116.445312 42 114.773438 50.101562 C 113.101562 58.199219 109.417969 73.199219 111.761719 78.898438 C 114.105469 84.601562 110.757812 105.601562 113.433594 111.300781 C 116.113281 117 119.457031 136.800781 120.460938 141 C 121.464844 145.199219 123.136719 162.898438 123.808594 165.898438 C 124.476562 168.898438 126.820312 175.5 125.480469 176.398438 Z M 193.40625 38.398438 C 199.429688 40.800781 198.761719 50.101562 199.429688 58.5 C 200.101562 66.898438 204.785156 106.199219 208.128906 115.800781 C 210.140625 122.917969 211.703125 130.128906 212.816406 137.398438 C 209.679688 136.40625 207.550781 133.78125 207.460938 130.800781 C 206.378906 122.734375 204.359375 114.792969 201.4375 107.101562 C 198.761719 101.101562 197.089844 82.5 196.753906 77.101562 C 196.417969 71.699219 192.402344 56.101562 192.738281 51 C 193.074219 45.898438 190.0625 37.199219 193.40625 38.398438 Z M 187.71875 174.898438 C 183.371094 178.199219 177.011719 172.800781 174.335938 170.699219 C 165.96875 163.800781 167.640625 155.398438 169.316406 144.601562 C 170.988281 133.800781 176.007812 105.300781 177.347656 100.5 C 179.949219 88.539062 181.296875 76.386719 181.363281 64.199219 C 181.261719 56.828125 182.164062 49.476562 184.039062 42.300781 C 184.707031 41.101562 185.710938 39 188.054688 38.398438 C 188.894531 41.949219 189.230469 45.578125 189.058594 49.199219 C 188.722656 54.898438 188.722656 92.398438 188.722656 97.800781 C 188.722656 103.199219 185.375 123 182.699219 127.800781 C 180.023438 132.601562 176.34375 150 180.359375 150.300781 C 184.375 150.601562 194.410156 170.101562 187.71875 174.898438 Z M 69.601562 248.398438 C 75.945312 247.523438 82.257812 250.121094 85.660156 255 C 87.667969 260.101562 85.996094 273.300781 85.660156 277.800781 C 85.328125 282.300781 82.984375 291.300781 84.324219 295.800781 C 85.660156 300.300781 87 306.898438 84.65625 310.5 C 81.882812 315.222656 80.394531 320.464844 80.308594 325.800781 C 79.304688 333.300781 81.3125 369.300781 77.964844 376.199219 C 77.695312 377.222656 77.117188 378.15625 76.292969 378.898438 C 76.292969 378.898438 74.953125 380.398438 74.953125 366 C 74.953125 351.601562 75.625 340.5 73.949219 332.398438 C 72.277344 324.300781 72.945312 302.398438 70.605469 295.5 C 68.261719 288.601562 59.894531 249.898438 69.601562 248.398438 Z M 68.261719 377.101562 C 67.386719 376.390625 66.800781 375.441406 66.589844 374.398438 C 64.246094 369.898438 63.910156 359.699219 62.238281 354.300781 C 60.566406 348.898438 59.894531 339 56.882812 334.199219 C 54.417969 330.496094 53.808594 326.027344 55.210938 321.898438 C 56.214844 318 53.203125 307.5 51.867188 303 C 50.527344 298.5 48.183594 300.300781 45.84375 295.199219 C 43.5 290.101562 46.175781 285.300781 42.496094 274.199219 C 42.496094 274.199219 43.835938 270.300781 45.84375 274.800781 C 47.851562 279.300781 53.203125 301.800781 56.214844 306.601562 C 59.226562 311.398438 58.222656 330.601562 60.898438 334.199219 C 63.578125 337.800781 69.265625 354.300781 69.265625 359.699219 C 69.265625 365.101562 70.269531 378.300781 68.261719 377.101562 Z M 124.8125 234.300781 L 128.492188 233.699219 C 132.171875 234 131.167969 240.601562 132.84375 247.199219 C 134.515625 253.800781 136.1875 271.199219 140.203125 282.898438 C 144.21875 294.601562 152.25 312.601562 152.25 316.800781 C 152.324219 322.816406 152.773438 328.828125 153.589844 334.800781 C 154.59375 348.300781 159.277344 357.898438 154.257812 366.898438 C 153.921875 367.5 150.578125 367.800781 150.578125 368.101562 C 150.578125 368.398438 146.5625 366.300781 147.230469 357.601562 C 147.898438 348.898438 149.574219 330.601562 147.566406 323.699219 C 145.558594 316.800781 148.570312 317.398438 148.570312 314.101562 C 148.464844 309.753906 147.082031 305.511719 144.554688 301.800781 C 141.875 299.101562 131.839844 279.300781 131.167969 271.800781 C 130.5 264.300781 130.164062 247.199219 127.152344 243.300781 C 125.484375 240.542969 124.671875 237.433594 124.8125 234.300781 Z M 116.445312 380.699219 C 114.601562 380.921875 112.722656 380.605469 111.09375 379.800781 C 104.398438 375.898438 102.726562 358.800781 103.0625 351.898438 C 103.394531 345 107.078125 317.101562 107.746094 310.5 C 108.414062 303.898438 111.761719 302.398438 113.101562 298.800781 C 114.4375 295.199219 111.761719 284.398438 111.09375 277.199219 C 110.421875 270 112.429688 256.199219 111.761719 251.699219 C 111.761719 251.699219 111.761719 241.5 113.769531 238.800781 L 116.445312 237 C 116.445312 237 121.128906 236.398438 119.125 242.398438 C 117.117188 248.398438 122.804688 272.699219 121.800781 279.601562 C 120.796875 286.5 128.828125 308.398438 127.152344 317.398438 C 125.480469 326.398438 120.125 331.800781 118.789062 342.601562 C 117.449219 353.398438 117.785156 354.601562 119.792969 360.898438 C 121.800781 367.199219 121.800781 379.800781 116.445312 380.699219 Z M 197.757812 241.5 L 208.128906 245.101562 C 219.84375 249.601562 215.492188 262.199219 215.492188 264.300781 C 215.492188 266.398438 212.816406 279.300781 213.148438 280.800781 C 214.03125 282.675781 215.554688 284.25 217.5 285.300781 C 220.511719 287.101562 221.179688 293.699219 221.179688 298.199219 C 221.179688 302.699219 216.496094 302.699219 213.148438 302.699219 C 209.804688 302.699219 211.140625 304.5 209.132812 310.5 C 207.125 316.5 203.445312 345.300781 202.441406 350.398438 C 201.4375 355.5 198.761719 371.699219 196.085938 378.300781 C 195.691406 379.730469 194.363281 380.796875 192.738281 381 C 189.355469 377.921875 187.964844 373.507812 189.058594 369.300781 C 191.066406 362.398438 190.730469 353.101562 191.734375 337.5 C 192.738281 321.898438 194.410156 291.898438 193.074219 285 C 191.734375 278.101562 191.734375 265.199219 191.398438 260.398438 C 191.066406 255.601562 192.070312 239.699219 197.757812 241.5 Z M 183.035156 377.398438 C 182.03125 377.101562 181.695312 375.898438 181.363281 375.601562 C 179.089844 364.902344 177.636719 354.074219 177.011719 343.199219 C 176.675781 336.300781 174 313.199219 174.667969 307.5 C 174.601562 296.429688 172.800781 285.421875 169.316406 274.800781 C 166.257812 268.796875 165.101562 262.152344 165.96875 255.601562 C 166.304688 248.699219 166.972656 242.699219 166.972656 242.699219 C 166.972656 242.699219 169.648438 240 176.007812 238.800781 C 176.007812 238.800781 175.339844 242.699219 174.667969 249.898438 C 174 257.101562 172.328125 270.601562 174.335938 274.5 C 176.34375 278.398438 185.375 292.199219 182.367188 303 C 179.355469 313.800781 181.695312 328.800781 181.363281 334.5 C 181.027344 340.199219 180.691406 360.601562 182.367188 363.898438 C 184.039062 367.199219 185.710938 377.699219 183.035156 377.398438 Z M 183.035156 377.398438 "/>
<path style="fill:none;stroke-width:0.4;stroke-linecap:round;stroke-linejoin:round;stroke:rgb(0%,0%,0%);stroke-opacity:1;stroke-miterlimit:4;" d="M 16.00018 13.5 C 16.00018 13.5 15.700162 23 15.299749 26.799479 C 14.900503 30.60026 14.800108 30.200521 14.50009 35 C 14.200072 39.799479 11.799928 49.10026 12.200341 53 C 12.599587 56.89974 12.399964 62.299479 17.399874 61.799479 C 22.399784 61.299479 28.200521 58.799479 28.299749 54.299479 C 28.400144 49.799479 26.600036 42.89974 27.000449 40.299479 C 27.399695 37.700521 24.799928 33 24.399515 31.799479 C 23.466774 28.075521 22.732489 24.303385 22.200162 20.5 C 22.036728 18.442708 21.701688 16.402344 21.199713 14.39974 C 20.899695 13.5 18.700341 12.10026 16.00018 13.5 Z M 31.599946 14.60026 C 31.599946 14.60026 30.699892 21.89974 31.899964 26.10026 C 33.100036 30.299479 32.999641 32.60026 32.699623 33.799479 C 32.399605 35 32.099587 36.200521 33.299659 40.10026 C 33.299659 40.10026 34.700521 45.200521 35.000539 47.39974 C 35.300557 49.60026 36.100216 57.200521 36.599856 58.10026 C 37.099497 59 40.699713 60.10026 41.200521 58.799479 C 41.700162 57.5 42.100575 50.799479 42.399425 48.89974 C 42.699443 47 43.299479 38.5 43.800287 37.10026 C 44.299928 35.700521 45.699623 31.39974 45.199982 29.200521 C 44.700341 27 45.199982 24.700521 45.399605 22.5 C 45.600395 20.299479 46.100036 18.799479 45.399605 17.700521 C 44.700341 16.60026 35.000539 12.39974 31.599946 14.60026 Z M 55.00018 14.10026 C 54.439835 16.492188 54.170169 18.942708 54.200521 21.39974 C 54.180675 25.46224 53.777927 29.513021 53.000449 33.5 C 52.600036 35.10026 50.999551 44.799479 50.600305 48.200521 C 50.199892 51.60026 49.599856 54.60026 52.100395 56.89974 C 54.599767 59.200521 64.599587 59.5 64.399964 54.700521 C 64.169989 49.276042 63.434537 43.886719 62.199443 38.60026 C 61.200162 35.39974 59.800467 22.299479 59.599677 19.5 C 59.400054 16.700521 59.700072 13.39974 57.799569 12.799479 C 55.900233 12.200521 55.399425 13.39974 55.00018 14.10026 Z M 11.900323 83.10026 C 11.749731 85.890625 12.019397 88.688802 12.699982 91.39974 C 13.799659 95.10026 13.100395 96.799479 13.700431 98.39974 C 14.300467 100 15.100126 99.5 15.500539 101 C 15.899784 102.5 16.799838 106 16.49982 107.299479 C 16.080729 108.675781 16.262841 110.165365 16.999461 111.39974 C 17.899515 113 17.99991 116.299479 18.599946 118.10026 C 19.199982 119.89974 19.199982 123.299479 19.900413 124.799479 C 20.599677 126.299479 22.300557 127.799479 23.299838 125.39974 C 24.300287 123 23.700251 111.10026 24.000269 108.60026 C 24.025952 106.821615 24.470726 105.074219 25.299569 103.5 C 26 102.299479 25.699982 100.200521 25.200341 98.60026 C 24.699533 97 25.399964 94 25.599587 92.60026 C 25.800377 91.200521 26.199623 86.700521 25.599587 85 C 24.999551 83.299479 14.099677 80.5 11.900323 83.10026 Z M 33.400054 83.89974 C 33.599677 85.39974 33.100036 89.89974 33.200431 92.39974 C 33.299659 94.89974 34.199713 98.299479 33.800467 99.60026 C 33.400054 100.89974 32.399605 101.299479 32.199982 103.5 C 32.000359 105.700521 30.899515 115 30.800287 117.299479 C 30.699892 119.60026 31.199533 125.299479 33.200431 126.60026 C 35.200162 127.89974 44.599946 125.5 46.100036 122.5 C 47.600126 119.5 46.200431 116.10026 45.900413 111.60026 C 45.65643 109.609375 45.52218 107.605469 45.5 105.60026 C 45.5 104.200521 43.099856 98.200521 41.899784 94.299479 C 40.699713 90.39974 40.099677 84.700521 39.700431 82.39974 C 39.300018 80.10026 39.499641 78 38.399964 77.89974 C 37.300287 77.799479 34.600126 78.799479 34.00009 79.60026 C 33.400054 80.39974 33.400054 83.89974 33.400054 83.89974 Z M 49.899874 80.89974 C 49.899874 80.89974 49.700251 82.89974 49.599856 85.200521 C 49.340697 87.384115 49.686243 89.598958 50.600305 91.60026 C 51.641613 95.140625 52.179777 98.809896 52.199623 102.5 C 52 104.39974 52.799659 112.10026 52.900054 114.39974 C 53.086835 118.02474 53.521103 121.634115 54.200521 125.200521 C 54.599767 126 57.799569 128.299479 58.600395 126.10026 C 59.400054 123.89974 60.199713 118.39974 60.499731 116.799479 C 60.799749 115.200521 61.899425 105.5 62.499461 103.5 C 63.099497 101.5 62.700251 100.799479 63.699533 100.89974 C 64.699982 101 66.000449 101 66.099677 99.39974 C 66.200072 97.799479 65.900054 95.700521 65 95.10026 C 64.418642 94.75 63.963362 94.22526 63.699533 93.60026 C 63.600305 93.10026 64.399964 88.89974 64.399964 88.10026 C 64.399964 87.299479 65.700431 83.200521 62.199443 81.700521 C 58.699623 80.200521 55.49982 79.10026 53.099677 79.5 C 50.699533 79.89974 50.000269 79.60026 49.899874 80.89974 Z M 49.899874 80.89974 " transform="matrix(3.346154,0,0,3,0,0)"/>
<path style="fill-rule:nonzero;fill:rgb(59.607843%,3.137255%,1.960784%);fill-opacity:1;stroke-width:0.4;stroke-linecap:round;stroke-linejoin:round;stroke:rgb(0%,0%,0%);stroke-opacity:1;stroke-miterlimit:4;" d="M 16.00018 13.39974 C 16.733297 14.196615 17.664871 14.782552 18.700341 15.10026 C 19.999641 15.200521 21.700521 14.60026 21.00009 13.799479 C 20.299659 13 16.699443 12.10026 16.00018 13.39974 Z M 36.400233 57.700521 C 37.445043 57.358073 38.577407 57.393229 39.600036 57.799479 C 40.699713 58.200521 41.100126 58.10026 41.200521 58.799479 C 41.299749 59.5 39.199623 60.10026 37.999551 59.5 C 36.799479 58.89974 36.400233 58.299479 36.400233 57.700521 Z M 37.199892 77.39974 C 36.295169 77.516927 35.435973 77.860677 34.700521 78.39974 C 33.700072 79.200521 33.200431 80.60026 34.900144 80.39974 C 36.599856 80.200521 39.100395 79.10026 39 78.299479 C 38.899605 77.5 37.900323 77.200521 37.199892 77.39974 Z M 37.199892 77.39974 " transform="matrix(3.346154,0,0,3,0,0)"/>
<path style="fill-rule:nonzero;fill:rgb(99.607843%,74.901961%,6.27451%);fill-opacity:1;stroke-width:0.4;stroke-linecap:round;stroke-linejoin:round;stroke:rgb(0%,0%,0%);stroke-opacity:1;stroke-miterlimit:4;" d="M 43.500269 99.299479 C 43.297144 100.222656 43.297144 101.178385 43.500269 102.10026 C 43.800287 103.89974 45.199982 106.5 46.100036 106.200521 C 47.00009 105.89974 46.400054 102.60026 45.900413 101.5 C 45.399605 100.39974 44.199533 98.60026 43.500269 99.299479 Z M 51.699982 99.5 C 51.137302 100.246094 50.854795 101.166667 50.900323 102.10026 C 51.099946 103.5 52.700431 104.200521 53.099677 103.10026 C 53.557292 101.996094 53.483746 100.742188 52.900054 99.700521 C 52.576688 99.398438 52.103897 99.31901 51.699982 99.5 Z M 51.699982 99.5 " transform="matrix(3.346154,0,0,3,0,0)"/>
<path style="fill-rule:nonzero;fill:rgb(59.607843%,3.137255%,1.960784%);fill-opacity:1;stroke-width:0.4;stroke-linecap:round;stroke-linejoin:round;stroke:rgb(0%,0%,0%);stroke-opacity:1;stroke-miterlimit:4;" d="M 65.100395 95.39974 C 64.692978 96.311198 64.487518 97.300781 64.500359 98.299479 C 64.599587 99.799479 65.100395 100.799479 65.400413 100.799479 C 65.700431 100.799479 66.50009 100.60026 66.200072 98.60026 C 65.900054 96.60026 65.900054 94.700521 65.100395 95.39974 Z M 65.100395 95.39974 " transform="matrix(3.346154,0,0,3,0,0)"/>
<path style="fill-rule:nonzero;fill:rgb(99.607843%,74.901961%,6.27451%);fill-opacity:1;stroke-width:0.4;stroke-linecap:round;stroke-linejoin:round;stroke:rgb(0%,0%,0%);stroke-opacity:1;stroke-miterlimit:4;" d="M 24.900323 34.10026 C 24.637662 35.151042 24.637662 36.25 24.900323 37.299479 C 25.399964 38.39974 26.900054 39.700521 27.50009 39.5 C 28.100126 39.299479 27.900503 37 27.399695 35.89974 C 27.12069 35.227865 26.713272 34.615885 26.199623 34.10026 C 25.699982 33.60026 25.200341 33 24.900323 34.10026 Z M 24.900323 34.10026 " transform="matrix(3.346154,0,0,3,0,0)"/>
<path style="fill-rule:nonzero;fill:rgb(59.607843%,3.137255%,1.960784%);fill-opacity:1;stroke-width:0.4;stroke-linecap:round;stroke-linejoin:round;stroke:rgb(0%,0%,0%);stroke-opacity:1;stroke-miterlimit:4;" d="M 52.199623 34.60026 C 51.650952 35.09375 51.296067 35.768229 51.200341 36.5 C 51.099946 37.5 50.900323 39.10026 51.399964 39.39974 C 51.899605 39.700521 52.799659 38.60026 52.900054 37.60026 C 53.002784 36.669271 53.002784 35.730469 52.900054 34.799479 C 52.700431 34.200521 52.400413 34.39974 52.199623 34.60026 Z M 58.5 126.5 C 58.5 125.89974 58.000359 125.60026 56.500269 124.89974 C 55.00018 124.200521 54.100126 123.89974 53.900503 124.5 C 53.699713 125.10026 54.599767 126.299479 55.799838 126.89974 C 56.99991 127.5 58.399605 128 58.5 126.5 Z M 58.5 126.5 " transform="matrix(3.346154,0,0,3,0,0)"/>
<path style="fill-rule:nonzero;fill:rgb(81.568627%,60.784314%,2.745098%);fill-opacity:1;stroke-width:0.4;stroke-linecap:round;stroke-linejoin:round;stroke:rgb(0%,0%,0%);stroke-opacity:1;stroke-miterlimit:4;" d="M 20.500449 43.5 C 20.954562 44.50651 21.192708 45.596354 21.199713 46.700521 C 21.199713 48.39974 20.500449 49.60026 21.199713 49.60026 C 21.900144 49.60026 21.799749 49.60026 22.200162 50.799479 C 22.600575 52 21.900144 52.39974 22.399784 53.10026 C 22.899425 53.799479 23.599856 53.60026 23.599856 54.200521 C 23.599856 54.799479 20.200431 56.60026 19.699623 56.10026 C 19.199982 55.60026 18.299928 55.39974 18.899964 54.299479 C 19.5 53.200521 18.899964 53.200521 19.600395 52.299479 C 20.299659 51.39974 20.500449 51.299479 19.900413 50.39974 C 19.300377 49.5 18.899964 49.60026 19.5 48.60026 C 20.100036 47.60026 19.800018 44.39974 19.900413 43.799479 C 19.999641 43.200521 20.400054 43 20.500449 43.5 Z M 20.500449 43.5 " transform="matrix(3.346154,0,0,3,0,0)"/>
<path style="fill:none;stroke-width:0.4;stroke-linecap:round;stroke-linejoin:round;stroke:rgb(0%,0%,0%);stroke-opacity:1;stroke-miterlimit:4;" d="M 31.700341 25.200521 C 31.700341 25.200521 33.400054 24.89974 34.00009 26.200521 C 34.600126 27.5 34.700521 27.89974 35.399784 28.39974 C 36.100216 28.89974 35.399784 29.200521 35.699802 30.799479 C 35.99982 32.39974 35.99982 33.799479 36.299838 34.799479 C 36.599856 35.799479 36.499461 36.799479 35.899425 36.39974 C 35.300557 36 35.399784 34.89974 35.000539 33.5 C 34.880298 32.673177 34.451868 31.923177 33.800467 31.39974 C 33.340517 30.97526 32.966954 30.466146 32.699623 29.89974 " transform="matrix(3.346154,0,0,3,0,0)"/>
<path style="fill-rule:nonzero;fill:rgb(81.568627%,60.784314%,2.745098%);fill-opacity:1;stroke-width:0.4;stroke-linecap:round;stroke-linejoin:round;stroke:rgb(0%,0%,0%);stroke-opacity:1;stroke-miterlimit:4;" d="M 17.699892 88 C 17.610004 89.09375 17.375359 90.169271 16.999461 91.200521 C 16.49982 92.200521 16.799838 94.10026 16.799838 94.799479 C 16.799838 95.5 16.900233 96.299479 16.399425 96.60026 C 15.899784 96.89974 15.599767 94.10026 15.200521 92.89974 C 14.800108 91.700521 14.999731 90.799479 14.699713 91.39974 C 14.399695 92 14.000449 92.700521 13.600036 91.200521 C 13.199623 89.700521 12.399964 86.299479 12.899605 85.5 " transform="matrix(3.346154,0,0,3,0,0)"/>
<path style=" stroke:none;fill-rule:nonzero;fill:rgb(81.568627%,60.784314%,2.745098%);fill-opacity:1;" d="M 73.28125 112.5 C 72.855469 114.273438 72.742188 116.09375 72.945312 117.898438 C 73.28125 121.199219 76.625 123.300781 76.960938 126.300781 C 77.296875 129.300781 79.972656 130.800781 78.96875 126 C 77.964844 121.199219 76.292969 120.300781 75.957031 117.601562 C 75.625 114.898438 75.289062 110.101562 73.28125 112.5 Z M 120.796875 63 C 123.328125 63.847656 125.046875 65.976562 125.144531 68.398438 C 126.148438 72.898438 126.820312 74.699219 127.824219 79.199219 C 128.238281 82.4375 128.910156 85.648438 129.832031 88.800781 C 130.835938 92.101562 129.832031 95.101562 131.503906 93.601562 C 133.175781 92.101562 133.175781 87.898438 133.511719 82.800781 C 133.847656 77.699219 133.847656 74.101562 134.179688 70.5 C 134.515625 66.898438 135.519531 65.398438 131.839844 64.199219 C 128.15625 63 128.15625 62.101562 125.816406 61.5 C 123.472656 60.898438 121.128906 59.101562 120.796875 63 Z M 131.839844 127.800781 C 131.78125 129.613281 131.554688 131.417969 131.167969 133.199219 C 130.5 136.5 129.496094 141.300781 129.160156 144 C 128.828125 146.699219 127.488281 150 130.5 150.601562 C 133.511719 151.199219 134.179688 150.601562 134.179688 144.601562 C 133.753906 141.003906 133.867188 137.371094 134.515625 133.800781 C 135.855469 129.601562 138.195312 128.398438 135.519531 126.601562 C 132.84375 124.800781 131.839844 127.800781 131.839844 127.800781 Z M 186.378906 154.5 C 186 152.480469 186.230469 150.410156 187.050781 148.5 C 188.054688 144 191.066406 141.898438 191.734375 138.601562 C 192.402344 135.300781 189.726562 132.601562 191.398438 130.199219 C 193.816406 125.84375 195.507812 121.195312 196.417969 116.398438 C 197.089844 113.398438 200.101562 111 201.105469 113.699219 C 202.109375 116.398438 198.761719 117 202.109375 121.5 C 205.453125 126 207.460938 126 207.460938 129.898438 C 207.460938 133.800781 209.46875 138 206.792969 137.699219 C 204.117188 137.398438 202.109375 136.199219 201.105469 131.699219 C 200.101562 127.199219 199.765625 122.699219 198.09375 124.800781 C 196.164062 127.917969 195.796875 131.625 197.089844 135 C 198.761719 138.898438 197.089844 144.601562 196.085938 147.601562 C 195.082031 150.601562 197.421875 154.800781 194.746094 156.898438 C 193.417969 158.023438 191.511719 158.410156 189.773438 157.910156 C 188.035156 157.410156 186.734375 156.105469 186.378906 154.5 Z M 193.742188 270 C 192.738281 270.898438 190.730469 273 189.390625 271.5 C 188.054688 270 185.710938 270 185.710938 272.699219 C 185.710938 275.398438 186.046875 276.601562 188.054688 281.101562 C 189.976562 285.167969 190.558594 289.644531 189.726562 294 C 189.53125 297.050781 189.984375 300.105469 191.066406 303 C 191.734375 307.179688 191.734375 311.421875 191.066406 315.601562 C 190.730469 318 189.058594 324 190.0625 325.800781 C 191.066406 327.601562 191.734375 331.199219 193.074219 327.300781 C 194.410156 323.398438 194.746094 313.199219 195.082031 309.300781 C 195.414062 305.398438 196.417969 302.398438 197.421875 304.5 C 197.894531 306.671875 198.007812 308.898438 197.757812 311.101562 C 197.757812 314.101562 201.4375 314.699219 201.105469 309.601562 C 200.769531 304.5 200.769531 294.601562 201.105469 291.601562 C 201.4375 288.601562 200.433594 284.101562 198.761719 285 C 197.089844 285.898438 195.75 292.199219 195.082031 289.199219 C 194.410156 286.199219 197.089844 279.300781 197.089844 275.101562 C 197.089844 270.898438 196.085938 267.898438 193.742188 270 Z M 123.472656 264.601562 C 123.472656 264.601562 124.140625 268.5 124.476562 272.699219 C 124.8125 276.898438 124.8125 282.300781 125.816406 286.5 C 126.820312 290.699219 126.148438 296.398438 127.488281 298.199219 C 128.828125 300 132.171875 302.101562 131.839844 294.898438 C 131.503906 287.699219 127.824219 286.5 127.824219 281.398438 C 127.824219 276.300781 129.496094 269.398438 129.496094 265.5 C 129.496094 261.601562 129.160156 258.300781 126.484375 258.601562 C 123.808594 258.898438 123.472656 261.898438 123.472656 264.601562 Z M 137.527344 360.601562 C 136.90625 356.71875 136.90625 352.78125 137.527344 348.898438 C 138.53125 342 141.542969 338.398438 137.191406 333.898438 C 132.84375 329.398438 130.5 325.5 127.488281 330.300781 C 124.476562 335.101562 125.144531 338.101562 124.140625 344.101562 C 123.136719 350.101562 121.464844 355.199219 122.804688 358.5 C 124.140625 361.800781 124.8125 365.398438 128.15625 366.300781 C 131.503906 367.199219 137.527344 360.601562 137.527344 360.601562 Z M 68.929688 329.398438 C 69.453125 331.058594 69.679688 332.777344 69.601562 334.5 C 69.417969 337.117188 69.644531 339.742188 70.269531 342.300781 C 71.609375 344.398438 73.617188 345.898438 73.28125 341.101562 C 72.945312 336.300781 71.609375 337.199219 71.941406 332.398438 C 72.277344 327.601562 73.28125 324.601562 71.273438 324.601562 C 69.265625 324.601562 68.929688 329.398438 68.929688 329.398438 Z M 68.929688 329.398438 "/>
<path style="fill-rule:nonzero;fill:rgb(59.607843%,3.137255%,1.960784%);fill-opacity:1;stroke-width:0.4;stroke-linecap:round;stroke-linejoin:round;stroke:rgb(0%,0%,0%);stroke-opacity:1;stroke-miterlimit:4;" d="M 27.099677 57.799479 C 27.099677 57.799479 28.700162 55.799479 25.399964 55.10026 C 22.099767 54.39974 20.500449 54.299479 19.699623 55.700521 C 18.899964 57.10026 18.700341 57.200521 17.099856 57.89974 C 15.500539 58.60026 13.600036 59.799479 15.200521 61.60026 C 16.799838 63.39974 25.599587 60.60026 27.099677 57.799479 Z M 27.099677 57.799479 " transform="matrix(3.346154,0,0,3,0,0)"/>
<path style="fill:none;stroke-width:0.4;stroke-linecap:round;stroke-linejoin:round;stroke:rgb(0%,0%,0%);stroke-opacity:1;stroke-miterlimit:4;" d="M 16.600216 60.60026 C 16.600216 60.60026 15.200521 60.39974 16.100575 59.700521 C 16.999461 59 17.399874 59.799479 18.599946 58.799479 C 19.800018 57.799479 20.200431 56.60026 21.400503 56.200521 C 22.600575 55.799479 24.799928 55.39974 25.200341 56.200521 C 25.599587 57 25.599587 57.89974 24.000269 58.39974 C 22.399784 58.89974 22.000539 59.5 20.899695 59.89974 C 20.032328 60.199219 19.101922 60.268229 18.199533 60.10026 " transform="matrix(3.346154,0,0,3,0,0)"/>
<path style="fill:none;stroke-width:0.4;stroke-linecap:round;stroke-linejoin:round;stroke:rgb(0%,0%,0%);stroke-opacity:1;stroke-miterlimit:4;" d="M 21.400503 57.200521 C 21.361979 57.816406 21.025772 58.376302 20.500449 58.700521 C 19.600395 59.200521 19.199982 59.89974 21.900144 58.60026 C 24.600305 57.299479 24.099497 56.39974 23.299838 56.799479 " transform="matrix(3.346154,0,0,3,0,0)"/>
<path style="fill-rule:nonzero;fill:rgb(59.607843%,3.137255%,1.960784%);fill-opacity:1;stroke-width:0.4;stroke-linecap:round;stroke-linejoin:round;stroke:rgb(0%,0%,0%);stroke-opacity:1;stroke-miterlimit:4;" d="M 54.599767 51.39974 C 54.200521 51.60026 51.899605 51.799479 51.099946 52.60026 C 50.300287 53.39974 50.199892 54.700521 51.099946 56.39974 C 52.405083 58.433594 54.514547 59.815104 56.899515 60.200521 C 58.900413 60.39974 62.199443 59.60026 63.399515 57.89974 C 64.599587 56.200521 65 55.39974 63.49991 54.5 C 61.99982 53.60026 61.099767 52.39974 59.400054 51.89974 C 57.700341 51.39974 55.199802 51.10026 54.599767 51.39974 Z M 54.599767 51.39974 " transform="matrix(3.346154,0,0,3,0,0)"/>
<path style="fill:none;stroke-width:0.4;stroke-linecap:round;stroke-linejoin:round;stroke:rgb(0%,0%,0%);stroke-opacity:1;stroke-miterlimit:4;" d="M 62.199443 55.200521 C 61.375269 54.8125 60.574443 54.378906 59.800467 53.89974 C 58.699623 53.10026 56.399874 51.799479 55.199802 52.5 C 54.398976 53.079427 53.524605 53.550781 52.600036 53.89974 C 51.599587 54.10026 51.200341 55.10026 52.100395 55.60026 C 53.000449 56.10026 52.900054 56.200521 53.600485 57.10026 C 54.188847 58.257812 55.402927 58.96224 56.699892 58.89974 C 58.800018 59.10026 59.899695 59.10026 60.799749 58.39974 C 61.699802 57.700521 62.700251 57.39974 62.100216 56.799479 " transform="matrix(3.346154,0,0,3,0,0)"/>
<path style="fill:none;stroke-width:0.4;stroke-linecap:round;stroke-linejoin:round;stroke:rgb(0%,0%,0%);stroke-opacity:1;stroke-miterlimit:4;" d="M 60.00009 55.200521 C 60.00009 55.200521 61.800198 56.39974 60.499731 57 C 59.200431 57.60026 58.199982 58 56.699892 57.39974 C 55.199802 56.799479 54.599767 56.799479 53.900503 55.89974 C 53.200072 55 54.100126 54.799479 54.899784 54.299479 C 55.729795 53.766927 56.737249 53.58724 57.700341 53.799479 " transform="matrix(3.346154,0,0,3,0,0)"/>
<path style="fill:none;stroke-width:0.4;stroke-linecap:round;stroke-linejoin:round;stroke:rgb(0%,0%,0%);stroke-opacity:1;stroke-miterlimit:4;" d="M 55.799838 55.299479 C 56.500269 55.10026 56.899515 54.5 57.899964 54.799479 C 58.900413 55.10026 60.600126 55.799479 58.900413 56.200521 C 58.030711 56.47526 57.083962 56.365885 56.299479 55.89974 " transform="matrix(3.346154,0,0,3,0,0)"/>
<path style="fill-rule:nonzero;fill:rgb(59.607843%,3.137255%,1.960784%);fill-opacity:1;stroke-width:0.4;stroke-linecap:round;stroke-linejoin:round;stroke:rgb(0%,0%,0%);stroke-opacity:1;stroke-miterlimit:4;" d="M 32.399605 13.10026 C 32.300377 13.200521 30.899515 13.799479 31.700341 16.10026 C 32.5 18.39974 36.700251 19.200521 38.200341 20.10026 C 39.700431 21 42.999461 20.200521 43.800287 19.5 C 44.599946 18.799479 46.899695 18.200521 44.499551 16.10026 C 42.100575 14 39.100395 12.299479 36.700251 12.39974 C 34.300108 12.5 33.100036 12.39974 32.399605 13.10026 Z M 32.399605 13.10026 " transform="matrix(3.346154,0,0,3,0,0)"/>
<path style="fill:none;stroke-width:0.4;stroke-linecap:round;stroke-linejoin:round;stroke:rgb(0%,0%,0%);stroke-opacity:1;stroke-miterlimit:4;" d="M 36.199443 13.39974 C 36.199443 13.39974 33.899695 13 33.200431 14.39974 C 32.5 15.799479 34.600126 17.10026 35.899425 18.10026 C 37.153197 18.748698 38.505029 19.188802 39.900054 19.39974 " transform="matrix(3.346154,0,0,3,0,0)"/>
<path style="fill:none;stroke-width:0.4;stroke-linecap:round;stroke-linejoin:round;stroke:rgb(0%,0%,0%);stroke-opacity:1;stroke-miterlimit:4;" d="M 36.899874 17.799479 C 36.899874 17.799479 34.900144 16.89974 34.700521 15.89974 C 34.499731 14.89974 34.300108 14.200521 35.50018 14.39974 C 36.700251 14.60026 37.799928 14.39974 38.699982 14.5 C 39.653736 14.707031 40.524605 15.195312 41.200521 15.89974 C 42.00018 16.700521 43.399874 16.39974 42.999461 17.39974 C 42.600216 18.39974 42.399425 18.200521 42.00018 18.799479 C 41.77254 19.15625 41.412985 19.407552 40.999731 19.5 " transform="matrix(3.346154,0,0,3,0,0)"/>
<path style="fill:none;stroke-width:0.4;stroke-linecap:round;stroke-linejoin:round;stroke:rgb(0%,0%,0%);stroke-opacity:1;stroke-miterlimit:4;" d="M 37.699533 15.60026 C 36.799479 15.700521 35.800198 16.10026 37.199892 17.10026 C 38.599587 18.10026 38.899605 18.799479 40.099677 18.700521 C 41.299749 18.60026 42.49982 17.89974 41.599767 17.299479 C 40.699713 16.700521 40.099677 17.200521 39.100395 16.89974 " transform="matrix(3.346154,0,0,3,0,0)"/>
<path style="fill-rule:nonzero;fill:rgb(59.607843%,3.137255%,1.960784%);fill-opacity:1;stroke-width:0.4;stroke-linecap:round;stroke-linejoin:round;stroke:rgb(0%,0%,0%);stroke-opacity:1;stroke-miterlimit:4;" d="M 15.899784 79.10026 L 13.199623 81.299479 C 12.099946 82.200521 10.599856 83.10026 12.899605 85.39974 C 15.200521 87.700521 19.300377 88.39974 20.700072 87.799479 C 22.099767 87.200521 24.699533 87.200521 25.299569 86 C 25.953305 84.369792 25.466505 82.503906 24.099497 81.39974 C 22.600575 80 21.499731 78.89974 19.800018 78.89974 C 18.100305 78.89974 16.399425 78.799479 15.899784 79.10026 Z M 15.899784 79.10026 " transform="matrix(3.346154,0,0,3,0,0)"/>
<path style="fill:none;stroke-width:0.4;stroke-linecap:round;stroke-linejoin:round;stroke:rgb(0%,0%,0%);stroke-opacity:1;stroke-miterlimit:4;" d="M 23.400233 85.10026 C 22.655442 85.769531 21.700521 86.158854 20.700072 86.200521 C 18.799569 86.5 19.099587 86.39974 16.999461 85.700521 C 14.900503 85 14.200072 85.10026 13.799659 84.10026 C 13.400413 83.10026 13.499641 82.10026 14.800108 81.799479 C 16.100575 81.5 15.899784 81 17.099856 80.700521 C 18.299928 80.39974 18.599946 80.200521 19.699623 80.60026 C 20.659213 80.817708 21.551096 81.263021 22.300557 81.89974 " transform="matrix(3.346154,0,0,3,0,0)"/>
<path style="fill:none;stroke-width:0.4;stroke-linecap:round;stroke-linejoin:round;stroke:rgb(0%,0%,0%);stroke-opacity:1;stroke-miterlimit:4;" d="M 15.100126 82.799479 C 15.899784 82.60026 16.900233 81.700521 18.199533 81.700521 C 19.277029 81.660156 20.345187 81.901042 21.300108 82.39974 C 22.399784 82.799479 23.799479 82.89974 23.100216 83.799479 C 22.399784 84.700521 22.399784 85.60026 20.700072 85.10026 C 19.713631 84.705729 18.661818 84.502604 17.599497 84.5 " transform="matrix(3.346154,0,0,3,0,0)"/>
<path style="fill:none;stroke-width:0.4;stroke-linecap:round;stroke-linejoin:round;stroke:rgb(0%,0%,0%);stroke-opacity:1;stroke-miterlimit:4;" d="M 20.200431 83.10026 C 20.200431 83.10026 17.899515 82.39974 17.200251 82.799479 C 16.49982 83.200521 15.200521 83.60026 16.199802 83.799479 C 17.200251 84 17.99991 83.299479 18.799569 83.60026 " transform="matrix(3.346154,0,0,3,0,0)"/>
<path style="fill-rule:nonzero;fill:rgb(59.607843%,3.137255%,1.960784%);fill-opacity:1;stroke-width:0.4;stroke-linecap:round;stroke-linejoin:round;stroke:rgb(0%,0%,0%);stroke-opacity:1;stroke-miterlimit:4;" d="M 45.699623 121.10026 C 44.808908 121.10026 43.927532 120.93099 43.099856 120.60026 C 41.100126 120 40.900503 119.10026 39.199623 119.89974 C 37.49991 120.700521 37.300287 122.5 35.699802 123.5 C 34.100485 124.5 32.399605 124.700521 33.200431 126.5 C 34.00009 128.299479 37.999551 127.60026 40.600485 126.39974 C 43.200251 125.200521 48.099767 121.89974 45.699623 121.10026 Z M 45.699623 121.10026 " transform="matrix(3.346154,0,0,3,0,0)"/>
<path style="fill:none;stroke-width:0.4;stroke-linecap:round;stroke-linejoin:round;stroke:rgb(0%,0%,0%);stroke-opacity:1;stroke-miterlimit:4;" d="M 43.399874 122.60026 C 43.299479 121.799479 43.899515 121.700521 42.100575 121.60026 C 40.300467 121.5 40.800108 121.39974 39.199623 122.200521 C 38.102281 122.950521 37.065643 123.786458 36.100216 124.700521 C 35.200162 125.200521 34.199713 126 35.200162 126.10026 C 36.199443 126.200521 37.099497 125.5 37.900323 125.5 " transform="matrix(3.346154,0,0,3,0,0)"/>
<path style="fill:none;stroke-width:0.4;stroke-linecap:round;stroke-linejoin:round;stroke:rgb(0%,0%,0%);stroke-opacity:1;stroke-miterlimit:4;" d="M 42.100575 123.10026 C 41.500539 122.60026 41.599767 121.89974 40.50009 122.700521 C 39.76347 123.266927 38.956807 123.736979 38.099946 124.10026 C 37.399515 124.5 37.399515 124.89974 38.399964 124.89974 C 39.179777 124.99349 39.970097 124.890625 40.699713 124.60026 C 41.599767 124.200521 41.899784 122.799479 41.100126 123.299479 " transform="matrix(3.346154,0,0,3,0,0)"/>
<path style="fill-rule:nonzero;fill:rgb(59.607843%,3.137255%,1.960784%);fill-opacity:1;stroke-width:0.4;stroke-linecap:round;stroke-linejoin:round;stroke:rgb(0%,0%,0%);stroke-opacity:1;stroke-miterlimit:4;" d="M 50.199892 79.39974 C 50.199892 79.39974 49.700251 80 50.699533 82 C 51.632274 83.936198 53.402029 85.33724 55.49982 85.799479 C 58.000359 86.60026 60.100485 86.89974 60.600126 86.200521 C 61.099767 85.5 61.099767 85 61.800198 85.10026 C 62.499461 85.200521 63.49991 85.299479 63.799928 84.200521 C 64.099946 83.10026 63.699533 82.39974 62.100216 80.89974 C 60.499731 79.39974 60.499731 79.60026 58.399605 78.89974 C 56.299479 78.200521 56.200251 77.89974 54.299749 78.200521 C 52.400413 78.5 50.799928 77.89974 50.199892 79.39974 Z M 50.199892 79.39974 " transform="matrix(3.346154,0,0,3,0,0)"/>
<path style="fill:none;stroke-width:0.4;stroke-linecap:round;stroke-linejoin:round;stroke:rgb(0%,0%,0%);stroke-opacity:1;stroke-miterlimit:4;" d="M 62.299838 83.5 C 62.072198 82.427083 61.423132 81.490885 60.499731 80.89974 C 59.337015 80.15625 57.980514 79.77474 56.599497 79.799479 C 55.00018 79.799479 53.099677 79.10026 52.600036 80 C 52.100395 80.89974 52.300018 81.39974 52.700431 82.5 C 53.099677 83.60026 53.900503 84.200521 55.999461 84.799479 C 58.099587 85.39974 60.400503 85.200521 60.600126 84.89974 " transform="matrix(3.346154,0,0,3,0,0)"/>
<path style="fill:none;stroke-width:0.4;stroke-linecap:round;stroke-linejoin:round;stroke:rgb(0%,0%,0%);stroke-opacity:1;stroke-miterlimit:4;" d="M 54.599767 80.799479 C 55.778825 80.790365 56.954382 80.924479 58.099587 81.200521 C 59.200431 81.60026 60.199713 81.700521 60.600126 82.5 C 61.000539 83.299479 60.100485 84.10026 58.900413 84 C 57.700341 83.89974 57.100305 83.200521 55.900233 83 C 55.168283 82.873698 54.479526 82.563802 53.900503 82.10026 " transform="matrix(3.346154,0,0,3,0,0)"/>
<path style="fill:none;stroke-width:0.4;stroke-linecap:round;stroke-linejoin:round;stroke:rgb(0%,0%,0%);stroke-opacity:1;stroke-miterlimit:4;" d="M 58.399605 82.10026 C 57.538075 81.770833 56.622845 81.601562 55.699443 81.60026 C 55.00018 81.89974 55.600216 81.799479 56.699892 82.299479 C 57.799569 82.799479 58.600395 83.5 58.800018 83.10026 " transform="matrix(3.346154,0,0,3,0,0)"/>
<path style="fill:none;stroke-width:0.4;stroke-linecap:round;stroke-linejoin:round;stroke:rgb(0%,0%,0%);stroke-opacity:1;stroke-miterlimit:4;" d="M 8.00009 7.89974 L 69.99991 7.89974 L 69.99991 132.209635 L 8.00009 132.209635 Z M 8.00009 7.89974 " transform="matrix(3.346154,0,0,3,0,0)"/>
</g>
</svg>
