<?xml version="1.0" encoding="UTF-8"?>
<svg xmlns="http://www.w3.org/2000/svg" xmlns:xlink="http://www.w3.org/1999/xlink" width="261px" height="420px" viewBox="0 0 261 420" version="1.1">
<g id="surface1">
<path style=" stroke:none;fill-rule:nonzero;fill:rgb(100%,100%,100%);fill-opacity:1;" d="M 20.078125 0 L 240.921875 0 C 252.011719 0 261 8.058594 261 18 L 261 402 C 261 411.941406 252.011719 420 240.921875 420 L 20.078125 420 C 8.988281 420 0 411.941406 0 402 L 0 18 C 0 8.058594 8.988281 0 20.078125 0 Z M 20.078125 0 "/>
<path style=" stroke:none;fill-rule:nonzero;fill:rgb(19.607843%,34.117647%,13.72549%);fill-opacity:1;" d="M 179.019531 385.800781 C 179.019531 385.800781 178.351562 358.5 177.011719 347.398438 C 175.671875 336.300781 175.003906 337.5 174 323.398438 C 172.996094 309.300781 165.300781 282.601562 166.304688 271.5 C 167.308594 260.398438 166.972656 244.5 184.039062 246 C 201.105469 247.5 219.84375 254.699219 220.175781 267.601562 C 220.511719 280.5 214.824219 300.601562 215.828125 308.398438 C 216.832031 316.199219 208.464844 329.398438 207.460938 333 C 204.1875 343.757812 201.621094 354.675781 199.765625 365.699219 C 199.449219 371.578125 198.441406 377.410156 196.753906 383.101562 C 195.75 385.800781 188.386719 390 179.019531 385.800781 Z M 179.019531 385.800781 "/>
<path style=" stroke:none;fill-rule:nonzero;fill:rgb(5.098039%,22.745098%,7.058824%);fill-opacity:1;" d="M 191.066406 387 C 193.40625 385.199219 196.085938 384.601562 196.753906 383.101562 C 198.441406 377.410156 199.449219 371.578125 199.765625 365.699219 C 201.621094 354.675781 204.1875 343.757812 207.460938 333 C 208.464844 329.398438 217.164062 315.898438 215.828125 308.398438 C 214.488281 300.898438 220.847656 280.5 220.175781 267.601562 C 219.875 262.726562 217.179688 258.222656 212.816406 255.300781 C 212.816406 255.300781 216.496094 259.199219 213.820312 274.199219 C 211.6875 285.199219 210.570312 296.335938 210.472656 307.5 C 210.808594 311.398438 212.816406 320.101562 208.464844 323.398438 C 204.117188 326.699219 199.097656 341.101562 199.097656 347.101562 C 199.097656 353.101562 197.089844 375.601562 194.078125 379.199219 C 191.066406 382.800781 188.722656 388.5 191.066406 387 Z M 178.351562 246.300781 C 167.308594 248.398438 167.640625 261.601562 166.304688 271.5 C 164.964844 281.398438 172.996094 309.601562 174 323.398438 C 175.003906 337.199219 175.671875 336.300781 177.011719 347.398438 C 178.351562 358.5 179.019531 385.800781 179.019531 385.800781 L 183.035156 387 C 183.035156 387 187.71875 384.601562 186.714844 370.5 C 185.710938 356.398438 190.394531 345.898438 188.054688 339.300781 C 185.710938 332.699219 184.375 321.601562 187.050781 316.5 C 189.726562 311.398438 194.078125 303.601562 192.402344 301.800781 C 190.730469 300 190.0625 304.800781 186.378906 304.5 C 182.699219 304.199219 180.023438 295.800781 182.03125 291 C 184.039062 286.199219 182.367188 283.800781 181.695312 276.898438 C 181.027344 270 184.707031 269.398438 182.699219 264 C 180.738281 258.210938 179.285156 252.292969 178.351562 246.300781 Z M 178.351562 246.300781 "/>
<path style="fill:none;stroke-width:0.4;stroke-linecap:round;stroke-linejoin:round;stroke:rgb(0%,0%,0%);stroke-opacity:1;stroke-miterlimit:4;" d="M 53.50009 128.60026 C 53.50009 128.60026 53.300467 119.5 52.900054 115.799479 C 52.499641 112.10026 52.300018 112.5 52 107.799479 C 51.699982 103.10026 49.400233 94.200521 49.700251 90.5 C 50.000269 86.799479 49.899874 81.5 55.00018 82 C 60.100485 82.5 65.700431 84.89974 65.799659 89.200521 C 65.900054 93.5 64.200341 100.200521 64.500359 102.799479 C 64.800377 105.39974 62.299838 109.799479 61.99982 111 C 61.021552 114.585938 60.25458 118.22526 59.700072 121.89974 C 59.605514 123.859375 59.304328 125.803385 58.800018 127.700521 C 58.5 128.60026 56.299479 130 53.50009 128.60026 Z M 53.50009 128.60026 " transform="matrix(3.346154,0,0,3,0,0)"/>
<path style="fill-rule:nonzero;fill:rgb(59.607843%,3.137255%,1.960784%);fill-opacity:1;stroke-width:0.4;stroke-linecap:round;stroke-linejoin:round;stroke:rgb(0%,0%,0%);stroke-opacity:1;stroke-miterlimit:4;" d="M 53.50009 128.700521 C 54.248384 127.94401 55.177622 127.393229 56.200251 127.10026 C 57.499551 126.89974 59.200431 127.60026 58.5 128.39974 C 57.799569 129.200521 54.299749 130 53.50009 128.700521 Z M 53.50009 128.700521 " transform="matrix(3.346154,0,0,3,0,0)"/>
<path style="fill-rule:nonzero;fill:rgb(99.607843%,74.901961%,6.27451%);fill-opacity:1;stroke-width:0.4;stroke-linecap:round;stroke-linejoin:round;stroke:rgb(0%,0%,0%);stroke-opacity:1;stroke-miterlimit:4;" d="M 62.400233 108.799479 C 62.185435 107.739583 62.220456 106.644531 62.499461 105.60026 C 62.899874 104.5 64.500359 103.299479 65 103.5 C 65.499641 103.700521 65.499641 105.89974 65 107 C 64.690643 107.68099 64.249371 108.292969 63.699533 108.799479 C 63.199892 109.299479 62.700251 109.799479 62.400233 108.799479 Z M 62.400233 108.799479 " transform="matrix(3.346154,0,0,3,0,0)"/>
<path style=" stroke:none;fill-rule:nonzero;fill:rgb(81.568627%,60.784314%,2.745098%);fill-opacity:1;" d="M 194.078125 299.101562 C 195.570312 296.179688 196.367188 293.011719 196.417969 289.800781 C 196.417969 284.699219 194.078125 281.398438 196.753906 281.398438 C 199.429688 281.398438 198.761719 281.398438 199.765625 278.101562 C 200.769531 274.800781 199.097656 273.300781 200.769531 271.199219 C 202.441406 269.101562 204.449219 270 204.449219 267.898438 C 204.449219 265.800781 193.40625 261.300781 191.734375 262.5 C 190.0625 263.699219 187.050781 264.601562 188.722656 267.601562 C 190.394531 270.601562 188.722656 270.898438 191.066406 273.601562 C 193.40625 276.300781 194.078125 276.300781 192.402344 279 C 190.730469 281.699219 188.722656 281.398438 190.730469 284.398438 C 192.738281 287.398438 192.070312 296.398438 192.402344 298.199219 C 192.738281 300 193.742188 300.300781 194.078125 299.101562 Z M 198.761719 316.5 C 198.335938 314.726562 198.222656 312.90625 198.425781 311.101562 C 198.761719 308.101562 202.109375 306 202.441406 303 C 202.777344 300 205.453125 298.800781 204.449219 303.300781 C 203.445312 307.800781 202.109375 308.699219 201.773438 311.398438 C 201.4375 314.101562 200.769531 318.601562 198.761719 316.5 Z M 198.761719 316.5 "/>
<path style="fill-rule:nonzero;fill:rgb(59.607843%,3.137255%,1.960784%);fill-opacity:1;stroke-width:0.4;stroke-linecap:round;stroke-linejoin:round;stroke:rgb(0%,0%,0%);stroke-opacity:1;stroke-miterlimit:4;" d="M 64.599587 85.89974 C 64.599587 85.89974 66.200072 87.799479 62.899874 88.5 C 59.599677 89.200521 58.000359 89.200521 57.199533 87.89974 C 56.730244 86.815104 55.75898 86.03125 54.599767 85.799479 C 52.900054 85.200521 51.099946 83.89974 52.700431 82.200521 C 54.299749 80.5 63.099497 83.10026 64.599587 85.89974 Z M 64.599587 85.89974 " transform="matrix(3.346154,0,0,3,0,0)"/>
<path style="fill:none;stroke-width:0.4;stroke-linecap:round;stroke-linejoin:round;stroke:rgb(0%,0%,0%);stroke-opacity:1;stroke-miterlimit:4;" d="M 54.100126 83.10026 C 54.100126 83.10026 52.700431 83.39974 53.600485 84.10026 C 54.500539 84.799479 55.00018 84 56.099856 85 C 57.199533 86 57.700341 87.10026 58.900413 87.39974 C 60.100485 87.700521 62.400233 88.200521 62.799479 87.39974 C 63.199892 86.60026 63.199892 85.799479 61.50018 85.299479 C 59.800467 84.799479 59.500449 84.200521 58.399605 83.799479 C 57.556753 83.553385 56.670708 83.484375 55.799838 83.60026 " transform="matrix(3.346154,0,0,3,0,0)"/>
<path style="fill:none;stroke-width:0.4;stroke-linecap:round;stroke-linejoin:round;stroke:rgb(0%,0%,0%);stroke-opacity:1;stroke-miterlimit:4;" d="M 58.999641 86.39974 C 58.870061 85.816406 58.509339 85.311198 58.000359 85 C 57.199533 84.5 56.800287 83.89974 59.400054 85.10026 C 61.99982 86.299479 61.699802 87.200521 60.900144 86.799479 " transform="matrix(3.346154,0,0,3,0,0)"/>
<path style=" stroke:none;fill-rule:nonzero;fill:rgb(19.607843%,34.117647%,13.72549%);fill-opacity:1;" d="M 61.570312 384 C 59.671875 376.71875 58.660156 369.277344 58.558594 361.800781 C 59.226562 352.5 55.878906 330.300781 54.875 325.800781 C 53.875 321.300781 48.183594 291.898438 46.511719 281.398438 C 44.839844 270.898438 43.164062 262.5 51.867188 255.601562 C 60.566406 248.699219 93.359375 247.800781 93.023438 262.199219 C 92.324219 278.496094 89.742188 294.679688 85.328125 310.5 C 82.316406 319.800781 77.628906 359.398438 76.960938 367.800781 C 76.292969 376.199219 76.960938 386.101562 70.9375 387.898438 C 69.125 388.570312 67.082031 388.53125 65.300781 387.789062 C 63.523438 387.050781 62.167969 385.675781 61.570312 384 Z M 61.570312 384 "/>
<path style=" stroke:none;fill-rule:nonzero;fill:rgb(5.098039%,22.745098%,7.058824%);fill-opacity:1;" d="M 70.9375 387.898438 C 76.960938 385.5 76.292969 376.199219 76.960938 367.800781 C 77.628906 359.398438 82.316406 319.800781 85.328125 310.5 C 87.464844 303.410156 89.03125 296.191406 90.011719 288.898438 C 86.945312 289.917969 84.929688 292.566406 84.992188 295.5 C 83.789062 303.574219 81.660156 311.515625 78.632812 319.199219 C 75.957031 325.199219 74.285156 343.800781 73.949219 349.199219 C 73.617188 354.601562 69.933594 370.199219 70.269531 375.300781 C 70.605469 380.398438 67.257812 389.101562 70.9375 387.898438 Z M 65.25 251.101562 C 60.566406 248.101562 54.542969 253.5 51.867188 255.601562 C 43.164062 262.5 45.171875 270.898438 46.511719 281.398438 C 47.851562 291.898438 53.539062 321 54.875 325.800781 C 56.214844 330.601562 59.226562 352.5 58.558594 361.800781 C 58.660156 369.277344 59.671875 376.71875 61.570312 384 C 62.332031 385.695312 63.761719 387.082031 65.585938 387.898438 C 66.421875 384.351562 66.761719 380.722656 66.589844 377.101562 C 66.253906 371.101562 65.917969 333.601562 66.253906 328.5 C 65.609375 318.316406 63.585938 308.246094 60.230469 298.5 C 57.554688 293.699219 53.539062 276.300781 57.554688 276 C 61.570312 275.699219 71.609375 255.898438 65.25 251.101562 Z M 65.25 251.101562 "/>
<path style="fill:none;stroke-width:0.4;stroke-linecap:round;stroke-linejoin:round;stroke:rgb(0%,0%,0%);stroke-opacity:1;stroke-miterlimit:4;" d="M 18.400323 128 C 17.832974 125.572917 17.530621 123.092448 17.500269 120.60026 C 17.699892 117.5 16.699443 110.10026 16.399425 108.60026 C 16.100575 107.10026 14.399695 97.299479 13.900054 93.799479 C 13.400413 90.299479 12.899605 87.5 15.500539 85.200521 C 18.100305 82.89974 27.900503 82.60026 27.800108 87.39974 C 27.591146 92.832031 26.819504 98.226562 25.500359 103.5 C 24.600305 106.60026 23.199443 119.799479 22.99982 122.60026 C 22.800198 125.39974 22.99982 128.700521 21.199713 129.299479 C 20.658046 129.523438 20.047504 129.510417 19.515176 129.263021 C 18.984016 129.016927 18.578933 128.558594 18.400323 128 Z M 18.400323 128 " transform="matrix(3.346154,0,0,3,0,0)"/>
<path style="fill-rule:nonzero;fill:rgb(59.607843%,3.137255%,1.960784%);fill-opacity:1;stroke-width:0.4;stroke-linecap:round;stroke-linejoin:round;stroke:rgb(0%,0%,0%);stroke-opacity:1;stroke-miterlimit:4;" d="M 15.500539 107.5 C 14.985722 106.979167 14.637841 106.317708 14.50009 105.60026 C 14.50009 104.60026 14.200072 103 14.800108 102.60026 C 15.400144 102.200521 16.199802 103.5 16.199802 104.5 C 16.35273 105.427083 16.35273 106.372396 16.199802 107.299479 C 16.00018 107.799479 15.800557 107.700521 15.500539 107.5 Z M 15.500539 107.5 " transform="matrix(3.346154,0,0,3,0,0)"/>
<path style=" stroke:none;fill-rule:nonzero;fill:rgb(81.568627%,60.784314%,2.745098%);fill-opacity:1;" d="M 63.578125 271.800781 C 63.429688 273.820312 63.65625 275.847656 64.246094 277.800781 C 65.25 282 68.597656 284.398438 69.265625 287.699219 C 69.933594 291 67.257812 293.398438 68.929688 296.101562 C 71.152344 300.421875 72.835938 304.949219 73.949219 309.601562 C 74.621094 312.898438 77.296875 315 78.300781 312.601562 C 79.304688 310.199219 76.292969 309.300781 79.304688 304.800781 C 82.316406 300.300781 84.992188 300.300781 84.992188 296.398438 C 84.992188 292.5 87 288.300781 83.988281 288.601562 C 80.976562 288.898438 79.304688 290.101562 78.632812 294.601562 C 77.964844 299.101562 76.960938 303.601562 75.625 301.5 C 73.398438 298.484375 72.902344 294.699219 74.285156 291.300781 C 75.492188 287.113281 75.140625 282.6875 73.28125 278.699219 C 72.277344 275.398438 74.621094 271.5 72.277344 269.398438 C 70.96875 268.101562 68.941406 267.597656 67.074219 268.113281 C 65.207031 268.628906 63.84375 270.066406 63.578125 271.800781 Z M 63.578125 271.800781 "/>
<path style="fill-rule:nonzero;fill:rgb(59.607843%,3.137255%,1.960784%);fill-opacity:1;stroke-width:0.4;stroke-linecap:round;stroke-linejoin:round;stroke:rgb(0%,0%,0%);stroke-opacity:1;stroke-miterlimit:4;" d="M 17.99991 90.700521 C 17.500269 90.5 15.299749 90.299479 14.50009 89.5 C 13.700431 88.700521 13.499641 87.39974 14.50009 85.60026 C 15.84842 83.609375 17.936871 82.240885 20.299659 81.799479 C 22.300557 81.700521 25.500359 82.5 26.700431 84.200521 C 27.900503 85.89974 28.400144 86.60026 26.900054 87.60026 C 25.399964 88.60026 24.399515 89.700521 22.800198 90.10026 C 21.199713 90.5 18.499551 91 17.99991 90.700521 Z M 17.99991 90.700521 " transform="matrix(3.346154,0,0,3,0,0)"/>
<path style="fill:none;stroke-width:0.4;stroke-linecap:round;stroke-linejoin:round;stroke:rgb(0%,0%,0%);stroke-opacity:1;stroke-miterlimit:4;" d="M 25.599587 86.89974 C 24.775413 87.286458 23.974587 87.721354 23.199443 88.200521 C 22.000539 89 19.699623 90.299479 18.499551 89.60026 C 17.711566 89.001302 16.83486 88.528646 15.899784 88.200521 C 14.900503 88 14.50009 87 15.500539 86.5 C 16.49982 86 16.199802 85.89974 16.900233 85 C 17.497935 83.83724 18.693337 83.104167 19.999641 83.10026 C 22.200162 83 23.299838 83 24.199892 83.60026 C 25.099946 84.200521 26 84.60026 25.500359 85.299479 " transform="matrix(3.346154,0,0,3,0,0)"/>
<path style="fill:none;stroke-width:0.4;stroke-linecap:round;stroke-linejoin:round;stroke:rgb(0%,0%,0%);stroke-opacity:1;stroke-miterlimit:4;" d="M 23.400233 86.89974 C 23.400233 86.89974 25.200341 85.60026 23.899874 85.10026 C 22.600575 84.60026 21.499731 84.10026 20.100036 84.700521 C 18.700341 85.299479 17.99991 85.299479 17.299479 86.200521 C 16.600216 87.10026 17.500269 87.299479 18.299928 87.799479 C 19.09375 88.328125 20.069684 88.507812 21.00009 88.299479 " transform="matrix(3.346154,0,0,3,0,0)"/>
<path style="fill:none;stroke-width:0.4;stroke-linecap:round;stroke-linejoin:round;stroke:rgb(0%,0%,0%);stroke-opacity:1;stroke-miterlimit:4;" d="M 19.199982 86.799479 C 19.900413 87 20.299659 87.60026 21.199713 87.299479 C 22.099767 87 23.899874 86.299479 22.200162 85.89974 C 21.375988 85.611979 20.467762 85.683594 19.699623 86.10026 " transform="matrix(3.346154,0,0,3,0,0)"/>
<path style=" stroke:none;fill-rule:nonzero;fill:rgb(19.607843%,34.117647%,13.72549%);fill-opacity:1;" d="M 155.261719 382.199219 C 155.261719 382.199219 158.273438 360.300781 154.257812 348 C 150.242188 335.699219 150.578125 328.5 151.582031 324.898438 C 152.585938 321.300781 153.589844 317.398438 149.574219 306 C 149.574219 306 144.886719 290.699219 143.882812 283.800781 C 142.878906 276.898438 140.203125 254.699219 138.53125 252 C 136.859375 249.300781 124.8125 246 123.136719 249.898438 C 121.464844 253.800781 120.125 273.898438 119.125 279.300781 C 118.121094 284.699219 116.113281 310.800781 114.4375 315 C 112.765625 319.199219 108.082031 332.101562 109.753906 338.398438 C 111.425781 344.699219 109.753906 352.199219 109.085938 358.800781 C 108.414062 365.398438 106.742188 369.898438 109.085938 373.199219 C 111.425781 376.5 143.882812 389.101562 155.261719 382.199219 Z M 155.261719 382.199219 "/>
<path style=" stroke:none;fill-rule:nonzero;fill:rgb(5.098039%,22.745098%,7.058824%);fill-opacity:1;" d="M 127.152344 381 C 119.125 375.898438 110.089844 374.699219 109.085938 373.199219 C 108.082031 371.699219 108.082031 365.398438 109.085938 358.800781 C 110.089844 352.199219 111.761719 345 109.753906 338.398438 C 107.746094 331.800781 112.765625 318.898438 114.4375 315 C 116.113281 311.101562 117.785156 285 119.125 279.300781 C 120.460938 273.601562 121.128906 253.800781 123.136719 249.898438 C 125.144531 246 126.484375 246.300781 128.15625 248.101562 C 130.332031 251.117188 131.164062 254.757812 130.5 258.300781 C 129.160156 261.601562 123.808594 276.601562 125.816406 283.800781 C 127.824219 291 125.480469 315 123.472656 317.699219 C 121.464844 320.398438 113.101562 330.898438 115.777344 336.601562 C 118.453125 342.300781 122.46875 337.800781 125.480469 340.5 C 128.492188 343.199219 126.484375 367.800781 126.820312 371.398438 C 127.152344 375 129.160156 382.5 127.152344 381 Z M 135.519531 249.898438 C 136.523438 248.699219 137.863281 251.101562 138.53125 252 C 139.199219 252.898438 143.214844 277.199219 143.882812 283.800781 C 144.554688 290.398438 149.574219 306 149.574219 306 C 153.589844 317.398438 152.585938 321.601562 151.582031 324.898438 C 150.578125 328.199219 150.578125 335.699219 154.257812 348 C 157.9375 360.300781 155.261719 382.199219 155.261719 382.199219 C 152.199219 383.726562 148.722656 384.457031 145.222656 384.300781 C 145.222656 384.300781 144.554688 384.300781 146.226562 376.199219 C 147.898438 368.101562 151.582031 353.101562 149.238281 347.101562 C 146.894531 341.101562 150.242188 320.398438 147.566406 315 C 144.886719 309.601562 141.542969 289.5 140.539062 285.300781 C 139.535156 281.101562 137.863281 263.101562 137.191406 260.101562 C 136.523438 257.101562 134.179688 250.800781 135.519531 249.898438 Z M 135.519531 249.898438 "/>
<path style="fill:none;stroke-width:0.4;stroke-linecap:round;stroke-linejoin:round;stroke:rgb(0%,0%,0%);stroke-opacity:1;stroke-miterlimit:4;" d="M 46.400054 127.39974 C 46.400054 127.39974 47.300108 120.10026 46.100036 116 C 44.899964 111.89974 45.000359 109.5 45.300377 108.299479 C 45.600395 107.10026 45.900413 105.799479 44.700341 102 C 44.700341 102 43.299479 96.89974 42.999461 94.60026 C 42.699443 92.299479 41.899784 84.89974 41.400144 84 C 40.900503 83.10026 37.300287 82 36.799479 83.299479 C 36.299838 84.60026 35.899425 91.299479 35.600575 93.10026 C 35.300557 94.89974 34.700521 103.60026 34.199713 105 C 33.700072 106.39974 32.300377 110.700521 32.800018 112.799479 C 33.299659 114.89974 32.800018 117.39974 32.600395 119.60026 C 32.399605 121.799479 31.899964 123.299479 32.600395 124.39974 C 33.299659 125.5 42.999461 129.700521 46.400054 127.39974 Z M 46.400054 127.39974 " transform="matrix(3.346154,0,0,3,0,0)"/>
<path style="fill-rule:nonzero;fill:rgb(59.607843%,3.137255%,1.960784%);fill-opacity:1;stroke-width:0.4;stroke-linecap:round;stroke-linejoin:round;stroke:rgb(0%,0%,0%);stroke-opacity:1;stroke-miterlimit:4;" d="M 41.599767 84.39974 C 40.554957 84.742188 39.422593 84.707031 38.399964 84.299479 C 37.300287 83.799479 36.899874 84 36.799479 83.200521 C 36.700251 82.39974 38.800377 82 40.000449 82.60026 C 41.200521 83.200521 41.599767 83.700521 41.599767 84.39974 Z M 41.599767 84.39974 " transform="matrix(3.346154,0,0,3,0,0)"/>
<path style="fill:none;stroke-width:0.4;stroke-linecap:round;stroke-linejoin:round;stroke:rgb(0%,0%,0%);stroke-opacity:1;stroke-miterlimit:4;" d="M 46.299659 116.89974 C 45.382094 117.03125 44.475036 116.596354 43.99991 115.799479 C 43.740751 114.953125 43.256286 114.19401 42.600216 113.60026 C 41.800557 113.10026 42.600216 112.799479 42.300198 111.299479 C 42.00018 109.799479 42.00018 108.299479 41.700162 107.299479 C 41.400144 106.299479 41.500539 105.299479 42.100575 105.60026 C 42.699443 105.89974 42.600216 107.10026 42.999461 108.60026 C 43.399874 110.10026 43.500269 110 44.199533 110.60026 C 44.667654 111.05599 45.041218 111.60026 45.300377 112.200521 " transform="matrix(3.346154,0,0,3,0,0)"/>
<path style=" stroke:none;fill-rule:nonzero;fill:rgb(81.568627%,60.784314%,2.745098%);fill-opacity:1;" d="M 140.203125 363.300781 C 137.722656 362.234375 136.0625 360.0625 135.855469 357.601562 C 134.851562 353.101562 134.179688 351.601562 133.175781 347.101562 C 132.824219 343.851562 132.152344 340.640625 131.167969 337.5 C 130.164062 334.199219 131.167969 331.199219 129.496094 332.398438 C 127.824219 333.601562 127.824219 338.101562 127.488281 343.5 C 127.152344 348.898438 127.152344 352.199219 126.820312 355.800781 C 126.484375 359.398438 125.480469 360.898438 129.160156 362.101562 C 132.84375 363.300781 132.84375 364.199219 135.183594 364.800781 C 137.527344 365.398438 139.871094 367.199219 140.203125 363.300781 Z M 129.160156 298.5 C 129.21875 296.6875 129.445312 294.878906 129.832031 293.101562 C 130.5 289.5 131.503906 285 131.839844 282.300781 C 132.171875 279.601562 133.511719 276 130.5 275.398438 C 127.488281 274.800781 126.820312 275.699219 126.820312 281.398438 C 126.820312 287.101562 127.488281 288.601562 126.484375 292.5 C 125.480469 296.398438 122.804688 297.601562 125.480469 299.699219 C 128.15625 301.800781 129.160156 298.5 129.160156 298.5 Z M 129.160156 298.5 "/>
<path style="fill-rule:nonzero;fill:rgb(59.607843%,3.137255%,1.960784%);fill-opacity:1;stroke-width:0.4;stroke-linecap:round;stroke-linejoin:round;stroke:rgb(0%,0%,0%);stroke-opacity:1;stroke-miterlimit:4;" d="M 45.600395 129 C 45.699623 128.89974 47.100485 128.299479 46.299659 126 C 45.5 123.700521 41.299749 122.799479 39.799659 122 C 38.299569 121.200521 35.000539 121.89974 34.199713 122.60026 C 33.400054 123.299479 31.100305 123.89974 33.500449 126 C 35.899425 128.10026 38.899605 129.799479 41.299749 129.700521 C 43.699892 129.60026 44.899964 129.60026 45.600395 129 Z M 45.600395 129 " transform="matrix(3.346154,0,0,3,0,0)"/>
<path style="fill:none;stroke-width:0.4;stroke-linecap:round;stroke-linejoin:round;stroke:rgb(0%,0%,0%);stroke-opacity:1;stroke-miterlimit:4;" d="M 41.800557 128.700521 C 41.800557 128.700521 44.100305 129.10026 44.799569 127.700521 C 45.5 126.299479 43.399874 125 42.100575 124 C 40.843301 123.33724 39.494971 122.865885 38.099946 122.60026 " transform="matrix(3.346154,0,0,3,0,0)"/>
<path style="fill:none;stroke-width:0.4;stroke-linecap:round;stroke-linejoin:round;stroke:rgb(0%,0%,0%);stroke-opacity:1;stroke-miterlimit:4;" d="M 41.100126 124.299479 C 41.100126 124.299479 43.099856 125.200521 43.299479 126.200521 C 43.500269 127.200521 43.699892 127.799479 42.49982 127.60026 L 39.300018 127.60026 C 38.320582 127.398438 37.439206 126.869792 36.799479 126.10026 C 35.99982 125.39974 34.600126 125.60026 35.000539 124.700521 C 35.399784 123.799479 35.600575 123.89974 35.99982 123.299479 C 36.180765 122.902344 36.563667 122.634115 37.000269 122.60026 " transform="matrix(3.346154,0,0,3,0,0)"/>
<path style="fill:none;stroke-width:0.4;stroke-linecap:round;stroke-linejoin:round;stroke:rgb(0%,0%,0%);stroke-opacity:1;stroke-miterlimit:4;" d="M 40.300467 126.5 C 41.200521 126.39974 42.199802 126 40.800108 125 C 39.400413 124 39.100395 123.299479 37.900323 123.39974 C 36.700251 123.5 35.50018 124.10026 36.400233 124.799479 C 37.300287 125.5 37.900323 124.799479 38.899605 125.200521 " transform="matrix(3.346154,0,0,3,0,0)"/>
<path style=" stroke:none;fill-rule:nonzero;fill:rgb(19.607843%,34.117647%,13.72549%);fill-opacity:1;" d="M 221.179688 164.398438 C 221.683594 156.027344 220.78125 147.632812 218.503906 139.5 C 214.824219 128.398438 217.164062 123.601562 215.15625 118.5 C 213.148438 113.398438 210.472656 115.199219 209.132812 110.699219 C 207.796875 106.199219 204.785156 95.699219 205.789062 91.800781 C 207.191406 87.671875 206.582031 83.203125 204.117188 79.5 C 201.105469 74.699219 200.769531 64.800781 198.761719 59.398438 C 196.753906 54 196.753906 43.800781 194.410156 39.300781 C 192.070312 34.800781 186.378906 30.601562 183.035156 37.5 C 179.6875 44.398438 181.695312 80.398438 180.691406 87.898438 C 180.605469 93.234375 179.117188 98.476562 176.34375 103.199219 C 174 106.800781 175.003906 113.101562 176.675781 117.898438 C 178.351562 122.699219 176.007812 131.699219 175.339844 135.898438 C 174.667969 140.101562 173.332031 153.601562 175.339844 158.699219 C 177.347656 163.800781 213.820312 172.199219 221.179688 164.398438 Z M 221.179688 164.398438 "/>
<path style=" stroke:none;fill-rule:nonzero;fill:rgb(5.098039%,22.745098%,7.058824%);fill-opacity:1;" d="M 191.398438 165.300781 C 185.054688 166.175781 178.742188 163.578125 175.339844 158.699219 C 173.332031 153.601562 175.003906 140.398438 175.339844 135.898438 C 175.671875 131.398438 178.015625 122.398438 176.675781 117.898438 C 175.339844 113.398438 174 106.800781 176.34375 103.199219 C 179.117188 98.476562 180.605469 93.234375 180.691406 87.898438 C 181.695312 80.398438 179.6875 44.398438 183.035156 37.5 C 183.304688 36.480469 183.882812 35.542969 184.707031 34.800781 C 184.707031 34.800781 186.046875 33.601562 186.046875 47.699219 C 186.046875 61.800781 185.375 73.199219 187.050781 81.601562 C 188.722656 90 188.054688 111.300781 190.394531 118.199219 C 192.738281 125.101562 201.105469 163.800781 191.398438 165.300781 Z M 192.738281 36.601562 C 193.613281 37.308594 194.199219 38.257812 194.410156 39.300781 C 196.753906 43.800781 197.089844 54 198.761719 59.398438 C 200.433594 64.800781 201.105469 74.699219 204.117188 79.5 C 206.582031 83.203125 207.191406 87.671875 205.789062 91.800781 C 204.785156 95.699219 207.796875 106.199219 209.132812 110.699219 C 210.472656 115.199219 212.816406 113.398438 215.15625 118.5 C 217.5 123.601562 214.824219 128.398438 218.503906 139.5 C 218.503906 139.5 217.164062 143.398438 215.15625 138.898438 C 213.148438 134.398438 207.796875 111.898438 204.785156 107.101562 C 201.773438 102.300781 202.777344 83.101562 200.101562 79.5 C 197.421875 75.898438 191.734375 59.398438 191.734375 54 C 191.734375 48.601562 190.730469 35.398438 192.738281 36.601562 Z M 192.738281 36.601562 "/>
<path style="fill:none;stroke-width:0.4;stroke-linecap:round;stroke-linejoin:round;stroke:rgb(0%,0%,0%);stroke-opacity:1;stroke-miterlimit:4;" d="M 66.099677 54.799479 C 66.250269 52.009115 65.980603 49.210938 65.300018 46.5 C 64.200341 42.799479 64.899605 41.200521 64.299569 39.5 C 63.699533 37.799479 62.899874 38.39974 62.499461 36.89974 C 62.100216 35.39974 61.200162 31.89974 61.50018 30.60026 C 61.919271 29.223958 61.737159 27.734375 61.000539 26.5 C 60.100485 24.89974 60.00009 21.60026 59.400054 19.799479 C 58.800018 18 58.800018 14.60026 58.099587 13.10026 C 57.400323 11.60026 55.699443 10.200521 54.700162 12.5 C 53.699713 14.799479 54.299749 26.799479 53.999731 29.299479 C 53.974048 31.078125 53.529274 32.825521 52.700431 34.39974 C 52 35.60026 52.300018 37.700521 52.799659 39.299479 C 53.300467 40.89974 52.600036 43.89974 52.400413 45.299479 C 52.199623 46.700521 51.800377 51.200521 52.400413 52.89974 C 53.000449 54.60026 63.900323 57.39974 66.099677 54.799479 Z M 66.099677 54.799479 " transform="matrix(3.346154,0,0,3,0,0)"/>
<path style=" stroke:none;fill-rule:nonzero;fill:rgb(81.568627%,60.784314%,2.745098%);fill-opacity:1;" d="M 201.773438 149.699219 C 202.074219 146.421875 202.859375 143.191406 204.117188 140.101562 C 205.789062 137.101562 204.785156 131.398438 204.785156 129.300781 C 204.785156 127.199219 204.449219 124.800781 206.125 123.898438 C 207.796875 123 208.800781 131.398438 210.136719 135 C 211.476562 138.601562 210.808594 141.300781 211.8125 139.5 C 212.816406 137.699219 214.152344 135.601562 215.492188 140.101562 C 216.832031 144.601562 219.507812 154.800781 217.835938 157.199219 M 192.070312 84.601562 L 192.070312 84 C 191.546875 82.34375 191.320312 80.621094 191.398438 78.898438 C 191.582031 76.285156 191.355469 73.660156 190.730469 71.101562 C 189.390625 69 187.382812 67.5 187.71875 72.300781 C 188.054688 77.101562 189.390625 76.199219 189.058594 81 C 188.722656 85.800781 187.71875 88.800781 189.726562 88.800781 C 191.734375 88.800781 192.070312 84.601562 192.070312 84.601562 Z M 192.070312 84.601562 "/>
<path style="fill-rule:nonzero;fill:rgb(59.607843%,3.137255%,1.960784%);fill-opacity:1;stroke-width:0.4;stroke-linecap:round;stroke-linejoin:round;stroke:rgb(0%,0%,0%);stroke-opacity:1;stroke-miterlimit:4;" d="M 62.100216 58.799479 L 64.800377 56.60026 C 65.900054 55.700521 67.400144 54.799479 65.100395 52.5 C 62.799479 50.200521 58.699623 49.5 57.299928 50.200521 C 55.900233 50.89974 53.300467 50.700521 52.700431 51.89974 C 52.046695 53.529948 52.533495 55.395833 53.900503 56.5 C 55.399425 57.89974 56.500269 59 58.199982 59 C 59.899695 59 61.600575 59.200521 62.100216 58.799479 Z M 62.100216 58.799479 " transform="matrix(3.346154,0,0,3,0,0)"/>
<path style="fill:none;stroke-width:0.4;stroke-linecap:round;stroke-linejoin:round;stroke:rgb(0%,0%,0%);stroke-opacity:1;stroke-miterlimit:4;" d="M 54.599767 52.799479 C 55.344558 52.130208 56.299479 51.740885 57.299928 51.700521 C 59.200431 51.39974 58.900413 51.5 61.000539 52.200521 C 63.099497 52.89974 63.799928 52.799479 64.200341 53.799479 C 64.599587 54.799479 64.500359 55.799479 63.199892 56.200521 C 61.899425 56.60026 62.100216 56.89974 60.900144 57.200521 C 59.700072 57.5 59.400054 57.700521 58.300377 57.299479 C 57.340787 57.082031 56.448904 56.636719 55.699443 56 " transform="matrix(3.346154,0,0,3,0,0)"/>
<path style="fill:none;stroke-width:0.4;stroke-linecap:round;stroke-linejoin:round;stroke:rgb(0%,0%,0%);stroke-opacity:1;stroke-miterlimit:4;" d="M 62.899874 55.10026 C 62.100216 55.299479 61.099767 56.200521 59.800467 56.200521 C 58.722971 56.239583 57.654813 55.998698 56.699892 55.5 C 55.600216 55.10026 54.200521 55 54.899784 54.10026 C 55.600216 53.200521 55.600216 52.299479 57.299928 52.799479 C 58.286369 53.19401 59.338182 53.397135 60.400503 53.39974 " transform="matrix(3.346154,0,0,3,0,0)"/>
<path style="fill:none;stroke-width:0.4;stroke-linecap:round;stroke-linejoin:round;stroke:rgb(0%,0%,0%);stroke-opacity:1;stroke-miterlimit:4;" d="M 57.799569 54.799479 C 57.799569 54.799479 60.100485 55.5 60.799749 55.200521 C 61.50018 54.89974 62.799479 54.299479 61.800198 54.200521 C 60.799749 54.10026 60.00009 54.60026 59.200431 54.299479 " transform="matrix(3.346154,0,0,3,0,0)"/>
<path style=" stroke:none;fill-rule:nonzero;fill:rgb(19.607843%,34.117647%,13.72549%);fill-opacity:1;" d="M 113.101562 160.5 C 113.769531 156 112.097656 142.800781 112.765625 135.300781 C 113.433594 127.800781 115.777344 117.898438 114.4375 114 C 113.101562 110.101562 109.753906 108.898438 109.085938 102.300781 C 108.414062 95.699219 104.734375 68.398438 104.398438 61.5 C 104.066406 54.601562 105.738281 37.800781 112.765625 33.898438 C 119.792969 30 147.566406 37.5 152.585938 46.5 C 157.605469 55.5 156.265625 65.101562 154.925781 78.300781 C 154.109375 84.273438 153.664062 90.28125 153.589844 96.300781 C 153.589844 100.199219 145.558594 118.199219 141.542969 129.601562 C 137.527344 141 135.519531 158.101562 134.179688 165 C 132.84375 171.898438 133.511719 178.199219 129.832031 178.199219 C 126.148438 178.199219 117.117188 175.800781 115.109375 173.398438 C 113.101562 171 113.101562 160.5 113.101562 160.5 Z M 113.101562 160.5 "/>
<path style=" stroke:none;fill-rule:nonzero;fill:rgb(5.098039%,22.745098%,7.058824%);fill-opacity:1;" d="M 126.148438 177.898438 L 129.832031 177.898438 C 133.511719 177.898438 132.84375 171.300781 134.179688 164.699219 C 135.519531 158.101562 137.527344 141 141.542969 129.300781 C 145.558594 117.601562 153.589844 99.898438 153.589844 96 C 153.664062 89.984375 154.109375 83.972656 154.925781 78 C 156.265625 64.800781 160.617188 55.199219 155.597656 46.199219 C 155.261719 45.898438 152.25 45.601562 151.914062 45 C 151.582031 44.398438 147.898438 47.101562 148.570312 55.5 C 149.238281 63.898438 150.910156 82.5 148.902344 89.101562 C 146.894531 95.699219 149.90625 95.101562 149.90625 98.699219 C 149.761719 102.945312 148.378906 107.082031 145.890625 110.699219 C 143.214844 113.398438 133.175781 132.898438 132.507812 140.398438 C 131.839844 147.898438 131.503906 164.699219 128.492188 168.601562 C 126.761719 171.445312 125.949219 174.664062 126.148438 177.898438 Z M 117.785156 33 C 116.042969 32.722656 114.253906 33.042969 112.765625 33.898438 C 105.738281 37.800781 104.398438 54.601562 104.398438 61.5 C 104.398438 68.398438 108.414062 96 109.085938 102.300781 C 109.753906 108.601562 113.101562 110.398438 114.4375 114 C 115.777344 117.601562 113.101562 128.101562 112.765625 135.300781 C 112.429688 142.5 113.769531 156 113.101562 160.5 C 112.429688 165 113.101562 170.699219 115.109375 173.398438 L 117.785156 175.199219 C 117.785156 175.199219 122.46875 175.5 120.460938 169.800781 C 118.453125 164.101562 124.140625 139.800781 123.136719 132.898438 C 122.132812 126 130.164062 104.699219 128.492188 95.699219 C 126.820312 86.699219 121.464844 81.300781 120.125 70.800781 C 118.789062 60.300781 119.125 58.800781 121.128906 52.5 C 123.136719 46.199219 123.136719 33.898438 117.785156 33 Z M 117.785156 33 "/>
<path style="fill:none;stroke-width:0.4;stroke-linecap:round;stroke-linejoin:round;stroke:rgb(0%,0%,0%);stroke-opacity:1;stroke-miterlimit:4;" d="M 33.800467 53.5 C 34.00009 52 33.500449 47.60026 33.700072 45.10026 C 33.899695 42.60026 34.600126 39.299479 34.199713 38 C 33.800467 36.700521 32.800018 36.299479 32.600395 34.10026 C 32.399605 31.89974 31.299928 22.799479 31.199533 20.5 C 31.100305 18.200521 31.599946 12.60026 33.700072 11.299479 C 35.800198 10 45.000359 12.39974 46.500449 15.39974 C 48.000539 18.39974 46.700072 21.700521 46.299659 26.10026 C 46.055675 28.091146 45.922593 30.09375 45.900413 32.10026 C 45.900413 33.39974 43.500269 39.39974 42.300198 43.200521 C 41.100126 47 40.50009 52.700521 40.099677 55 C 39.700431 57.299479 39.900054 59.39974 38.800377 59.39974 C 37.699533 59.39974 35.000539 58.60026 34.400503 57.799479 C 33.800467 57 33.800467 53.5 33.800467 53.5 Z M 33.800467 53.5 " transform="matrix(3.346154,0,0,3,0,0)"/>
<path style="fill-rule:nonzero;fill:rgb(99.607843%,74.901961%,6.27451%);fill-opacity:1;stroke-width:0.4;stroke-linecap:round;stroke-linejoin:round;stroke:rgb(0%,0%,0%);stroke-opacity:1;stroke-miterlimit:4;" d="M 43.899515 38.299479 C 43.702227 37.411458 43.702227 36.489583 43.899515 35.60026 C 44.199533 33.799479 45.699623 31.200521 46.500449 31.5 C 47.300108 31.799479 46.800467 35.10026 46.299659 36.10026 C 45.800018 37.10026 44.599946 39 43.899515 38.299479 Z M 43.899515 38.299479 " transform="matrix(3.346154,0,0,3,0,0)"/>
<path style=" stroke:none;fill-rule:nonzero;fill:rgb(81.568627%,60.784314%,2.745098%);fill-opacity:1;" d="M 124.8125 147.898438 C 124.8125 147.898438 125.480469 144 125.816406 139.800781 C 126.148438 135.601562 126.148438 130.199219 127.152344 126.300781 C 128.15625 122.398438 127.488281 116.398438 128.828125 114.601562 C 130.164062 112.800781 133.511719 110.699219 133.175781 117.898438 C 132.84375 125.101562 129.160156 126 129.160156 131.101562 C 129.160156 136.199219 130.835938 143.101562 130.835938 147 C 130.835938 150.898438 130.5 154.199219 127.824219 153.601562 C 125.144531 153 124.8125 150.601562 124.8125 147.898438 Z M 139.199219 52.800781 C 138.347656 56.65625 138.234375 60.613281 138.867188 64.5 C 139.871094 71.398438 142.878906 74.699219 138.53125 79.199219 C 134.179688 83.699219 131.839844 87.601562 128.828125 82.800781 C 125.816406 78 126.484375 75 125.816406 69.300781 C 125.144531 63.601562 122.804688 58.199219 124.140625 54.898438 C 125.480469 51.601562 126.148438 48 129.496094 47.101562 C 132.84375 46.199219 139.199219 52.800781 139.199219 52.800781 Z M 139.199219 52.800781 "/>
<path style="fill-rule:nonzero;fill:rgb(59.607843%,3.137255%,1.960784%);fill-opacity:1;stroke-width:0.4;stroke-linecap:round;stroke-linejoin:round;stroke:rgb(0%,0%,0%);stroke-opacity:1;stroke-miterlimit:4;" d="M 46.100036 16.799479 C 45.213991 16.71224 44.319774 16.85026 43.500269 17.200521 C 41.500539 17.799479 41.299749 18.799479 39.700431 17.89974 C 38.099946 17 37.699533 15.39974 36.199443 14.39974 C 34.700521 13.39974 32.800018 13.200521 33.700072 11.39974 C 34.600126 9.60026 38.399964 10.299479 40.999731 11.5 C 43.599497 12.700521 48.50018 15.89974 46.100036 16.799479 Z M 46.100036 16.799479 " transform="matrix(3.346154,0,0,3,0,0)"/>
<path style="fill:none;stroke-width:0.4;stroke-linecap:round;stroke-linejoin:round;stroke:rgb(0%,0%,0%);stroke-opacity:1;stroke-miterlimit:4;" d="M 43.800287 15.200521 C 43.699892 16.10026 44.299928 16.200521 42.49982 16.200521 C 40.699713 16.200521 41.200521 16.39974 39.700431 15.60026 C 38.562231 14.89974 37.490571 14.096354 36.499461 13.200521 C 35.699802 12.60026 34.600126 11.89974 35.699802 11.799479 C 36.799479 11.700521 37.49991 12.39974 38.299569 12.39974 " transform="matrix(3.346154,0,0,3,0,0)"/>
<path style="fill:none;stroke-width:0.4;stroke-linecap:round;stroke-linejoin:round;stroke:rgb(0%,0%,0%);stroke-opacity:1;stroke-miterlimit:4;" d="M 42.49982 14.799479 C 41.899784 15.299479 42.00018 16 40.900503 15.200521 C 40.135866 14.645833 39.333872 14.144531 38.500359 13.700521 C 37.799928 13.39974 37.799928 13 38.800377 13 C 39.58019 12.902344 40.371677 13.005208 41.100126 13.299479 C 42.00018 13.60026 42.300198 15 41.500539 14.5 " transform="matrix(3.346154,0,0,3,0,0)"/>
<path style=" stroke:none;fill-rule:nonzero;fill:rgb(19.607843%,34.117647%,13.72549%);fill-opacity:1;" d="M 94.027344 169.800781 C 94.027344 169.800781 94.695312 163.800781 95.03125 157.199219 C 95.898438 150.644531 94.742188 144.003906 91.683594 138 C 88.179688 127.484375 86.375 116.574219 86.332031 105.601562 C 87 100.199219 84.324219 77.101562 83.988281 70.199219 C 83.363281 59.421875 81.910156 48.699219 79.636719 38.101562 C 78.300781 35.699219 67.59375 28.800781 64.914062 35.398438 C 62.238281 42 59.5625 58.199219 58.558594 63.300781 C 57.554688 68.398438 53.875 96.601562 51.867188 102.601562 C 49.859375 108.601562 51.195312 110.699219 47.851562 110.398438 C 44.503906 110.101562 40.152344 110.101562 39.820312 114.898438 C 39.484375 119.699219 40.488281 126 43.5 127.800781 C 45.515625 128.773438 47.0625 130.375 47.851562 132.300781 C 48.183594 133.800781 45.507812 146.101562 45.507812 148.5 C 45.507812 150.898438 41.15625 163.199219 52.871094 167.699219 C 64.582031 172.199219 75.289062 175.5 83.320312 174 C 91.351562 172.5 93.023438 172.199219 94.027344 169.800781 Z M 94.027344 169.800781 "/>
<path style=" stroke:none;fill-rule:nonzero;fill:rgb(5.098039%,22.745098%,7.058824%);fill-opacity:1;" d="M 63.242188 171.300781 L 52.871094 167.699219 C 41.15625 163.199219 45.507812 150.601562 45.507812 148.5 C 45.507812 146.398438 48.183594 133.800781 47.851562 132.300781 C 47.0625 130.375 45.515625 128.773438 43.5 127.800781 C 40.488281 126 39.820312 119.398438 39.820312 114.898438 C 39.820312 110.398438 44.503906 110.398438 47.851562 110.398438 C 51.195312 110.398438 49.859375 108.601562 51.867188 102.601562 C 53.875 96.601562 57.554688 68.398438 58.558594 63.300781 C 59.5625 58.199219 62.238281 41.699219 64.914062 35.398438 C 65.308594 33.972656 66.636719 32.902344 68.261719 32.699219 C 71.644531 35.777344 73.035156 40.191406 71.941406 44.398438 C 69.933594 51.300781 70.269531 60.601562 69.265625 75.898438 C 68.261719 91.199219 66.589844 120.898438 67.925781 128.101562 C 69.265625 135.300781 69.265625 147.601562 69.601562 152.398438 C 69.933594 157.199219 68.929688 173.101562 63.242188 171.300781 Z M 77.964844 36.300781 C 78.96875 36.601562 79.304688 37.800781 79.636719 38.101562 C 81.910156 48.699219 83.363281 59.421875 83.988281 70.199219 C 84.324219 77.101562 87 100.199219 86.332031 105.601562 C 86.375 116.574219 88.179688 127.484375 91.683594 138 C 94.742188 144.003906 95.898438 150.644531 95.03125 157.199219 C 94.695312 163.800781 94.027344 169.800781 94.027344 169.800781 C 94.027344 169.800781 91.351562 172.800781 84.992188 174 C 84.992188 174 85.660156 169.800781 86.332031 162.601562 C 87 155.398438 88.671875 142.5 86.664062 138.300781 C 84.65625 134.101562 75.625 120.898438 78.632812 110.101562 C 81.644531 99.300781 79.304688 84.601562 79.636719 78.898438 C 79.972656 73.199219 80.308594 53.101562 78.632812 49.5 C 76.960938 45.898438 75.289062 36 77.964844 36.300781 Z M 77.964844 36.300781 "/>
<path style="fill:none;stroke-width:0.4;stroke-linecap:round;stroke-linejoin:round;stroke:rgb(0%,0%,0%);stroke-opacity:1;stroke-miterlimit:4;" d="M 28.100126 56.60026 C 28.100126 56.60026 28.299749 54.60026 28.400144 52.39974 C 28.659303 50.214844 28.313757 48.001302 27.399695 46 C 26.35255 42.494792 25.813218 38.858073 25.800377 35.200521 C 26 33.39974 25.200341 25.700521 25.099946 23.39974 C 24.913165 19.807292 24.478897 16.233073 23.799479 12.700521 C 23.400233 11.89974 20.200431 9.60026 19.399605 11.799479 C 18.599946 14 17.800287 19.39974 17.500269 21.10026 C 17.200251 22.799479 16.100575 32.200521 15.500539 34.200521 C 14.900503 36.200521 15.299749 36.89974 14.300467 36.799479 C 13.300018 36.700521 11.999551 36.700521 11.900323 38.299479 C 11.799928 39.89974 12.099946 42 13 42.60026 C 13.602371 42.924479 14.064655 43.458333 14.300467 44.10026 C 14.399695 44.60026 13.600036 48.700521 13.600036 49.5 C 13.600036 50.299479 12.299569 54.39974 15.800557 55.89974 C 19.300377 57.39974 22.50018 58.5 24.900323 58 C 27.300467 57.5 27.999731 58 28.100126 56.60026 Z M 28.100126 56.60026 " transform="matrix(3.346154,0,0,3,0,0)"/>
<path style="fill-rule:nonzero;fill:rgb(99.607843%,74.901961%,6.27451%);fill-opacity:1;stroke-width:0.4;stroke-linecap:round;stroke-linejoin:round;stroke:rgb(0%,0%,0%);stroke-opacity:1;stroke-miterlimit:4;" d="M 26.300018 38.200521 C 26.887213 37.466146 27.173222 36.536458 27.099677 35.60026 C 26.900054 34.200521 25.299569 33.5 24.900323 34.60026 C 24.442708 35.704427 24.516254 36.957031 25.099946 38 C 25.423312 38.302083 25.896103 38.380208 26.300018 38.200521 Z M 26.300018 38.200521 " transform="matrix(3.346154,0,0,3,0,0)"/>
<path style="fill-rule:nonzero;fill:rgb(59.607843%,3.137255%,1.960784%);fill-opacity:1;stroke-width:0.4;stroke-linecap:round;stroke-linejoin:round;stroke:rgb(0%,0%,0%);stroke-opacity:1;stroke-miterlimit:4;" d="M 12.899605 42.299479 C 13.307022 41.388021 13.512482 40.398438 13.499641 39.39974 C 13.400413 37.89974 12.899605 36.89974 12.599587 36.89974 C 12.299569 36.89974 11.49991 37.10026 11.799928 39.10026 C 12.099946 41.10026 12.099946 42.89974 12.899605 42.299479 Z M 19.5 11.39974 C 19.5 12 19.999641 12.299479 21.499731 13 C 22.99982 13.700521 23.899874 14 24.099497 13.39974 C 24.300287 12.799479 23.400233 11.60026 22.200162 11 C 21.00009 10.39974 19.600395 9.89974 19.5 11.39974 Z M 19.5 11.39974 " transform="matrix(3.346154,0,0,3,0,0)"/>
<path style=" stroke:none;fill-rule:nonzero;fill:rgb(81.568627%,60.784314%,2.745098%);fill-opacity:1;" d="M 67.257812 142.800781 C 68.261719 141.898438 70.269531 139.800781 71.609375 141.601562 C 72.945312 143.398438 75.289062 143.101562 75.289062 140.101562 C 75.289062 137.101562 74.953125 136.199219 72.945312 132 C 71.023438 127.933594 70.441406 123.453125 71.273438 119.101562 C 71.46875 116.050781 71.015625 112.996094 69.933594 110.101562 C 69.265625 105.921875 69.265625 101.679688 69.933594 97.5 C 70.269531 95.101562 71.941406 89.398438 70.9375 87.300781 C 69.933594 85.199219 69.265625 82.199219 67.925781 85.800781 C 66.589844 89.398438 66.253906 100.199219 65.917969 103.800781 C 65.585938 107.398438 64.582031 110.699219 63.578125 108.601562 C 63.105469 106.425781 62.992188 104.203125 63.242188 102 C 63.242188 99 59.5625 98.398438 59.894531 103.5 C 60.230469 108.601562 60.230469 118.5 59.894531 121.5 C 59.5625 124.5 60.566406 129 62.238281 128.101562 C 63.910156 127.199219 65.25 120.898438 65.917969 123.898438 C 66.589844 126.898438 63.910156 133.800781 63.910156 137.699219 C 63.910156 141.601562 64.914062 144.898438 67.257812 142.800781 Z M 67.257812 142.800781 "/>
<path style="fill-rule:nonzero;fill:rgb(59.607843%,3.137255%,1.960784%);fill-opacity:1;stroke-width:0.4;stroke-linecap:round;stroke-linejoin:round;stroke:rgb(0%,0%,0%);stroke-opacity:1;stroke-miterlimit:4;" d="M 27.800108 58.10026 C 27.800108 58.10026 28.299749 57.5 27.300467 55.60026 C 26.367726 53.664062 24.597971 52.263021 22.50018 51.799479 C 19.999641 51 17.899515 50.700521 17.399874 51.39974 C 16.900233 52.10026 16.900233 52.60026 16.199802 52.5 C 15.500539 52.39974 14.50009 52.299479 14.200072 53.39974 C 13.900054 54.5 14.300467 55.10026 15.899784 56.60026 C 17.500269 58.10026 17.500269 57.89974 19.600395 58.60026 C 21.700521 59.299479 21.799749 59.700521 23.700251 59.299479 C 25.599587 58.89974 27.200072 59.60026 27.800108 58.10026 Z M 27.800108 58.10026 " transform="matrix(3.346154,0,0,3,0,0)"/>
<path style="fill:none;stroke-width:0.4;stroke-linecap:round;stroke-linejoin:round;stroke:rgb(0%,0%,0%);stroke-opacity:1;stroke-miterlimit:4;" d="M 15.700162 54.10026 C 15.94181 55.140625 16.590876 56.040365 17.500269 56.60026 C 18.899964 57.299479 19.900413 57.89974 21.400503 57.799479 C 22.899425 57.700521 24.900323 58.39974 25.399964 57.5 C 25.899605 56.60026 25.699982 56.10026 25.299569 55.10026 C 24.900323 54.10026 24.099497 53.299479 22.000539 52.799479 C 20.500449 52.393229 18.929149 52.325521 17.399874 52.60026 " transform="matrix(3.346154,0,0,3,0,0)"/>
<path style="fill:none;stroke-width:0.4;stroke-linecap:round;stroke-linejoin:round;stroke:rgb(0%,0%,0%);stroke-opacity:1;stroke-miterlimit:4;" d="M 23.400233 56.799479 C 22.21417 56.822917 21.031609 56.653646 19.900413 56.299479 C 18.799569 55.89974 17.800287 55.89974 17.399874 55.10026 C 16.999461 54.299479 17.899515 53.5 19.099587 53.60026 C 20.299659 53.700521 20.899695 54.39974 22.099767 54.60026 C 22.816541 54.71875 23.499461 54.990885 24.099497 55.39974 " transform="matrix(3.346154,0,0,3,0,0)"/>
<path style="fill:none;stroke-width:0.4;stroke-linecap:round;stroke-linejoin:round;stroke:rgb(0%,0%,0%);stroke-opacity:1;stroke-miterlimit:4;" d="M 19.600395 55.39974 C 19.600395 55.39974 21.600126 56.200521 22.300557 55.89974 C 22.99982 55.60026 22.399784 55.799479 21.300108 55.299479 C 20.200431 54.799479 19.399605 54.10026 19.199982 54.39974 " transform="matrix(3.346154,0,0,3,0,0)"/>
<path style=" stroke:none;fill-rule:nonzero;fill:rgb(19.607843%,34.117647%,13.72549%);fill-opacity:1;" d="M 214.152344 234 L 197.757812 234.898438 C 189.464844 235.664062 181.089844 234.632812 173.332031 231.898438 C 159.78125 228.742188 145.839844 227.128906 131.839844 227.101562 C 124.8125 227.699219 95.699219 225.300781 86.664062 225 C 72.871094 224.4375 59.128906 223.132812 45.507812 221.101562 C 42.496094 219.898438 33.796875 210.300781 42.160156 207.898438 C 50.527344 205.5 71.273438 203.101562 77.628906 202.199219 C 83.988281 201.300781 120.460938 198 128.15625 196.199219 C 135.855469 194.398438 138.53125 195.601562 138.195312 192.601562 C 137.863281 189.601562 137.527344 185.699219 143.550781 185.398438 C 149.574219 185.101562 157.9375 186 160.28125 188.699219 C 161.601562 190.5625 163.617188 191.945312 165.96875 192.601562 C 167.976562 192.898438 183.703125 190.5 186.714844 190.5 C 189.726562 190.5 205.453125 186.601562 211.140625 197.101562 C 216.832031 207.601562 221.179688 217.199219 219.507812 224.398438 C 217.835938 231.601562 216.832031 233.101562 214.152344 234 Z M 214.152344 234 "/>
<path style=" stroke:none;fill-rule:nonzero;fill:rgb(5.098039%,22.745098%,7.058824%);fill-opacity:1;" d="M 215.828125 206.398438 C 214.488281 203.398438 212.816406 200.398438 211.140625 197.101562 C 205.453125 186.601562 189.726562 190.5 186.714844 190.5 C 183.703125 190.5 167.976562 192.898438 165.96875 192.601562 C 163.617188 191.945312 161.601562 190.5625 160.28125 188.699219 C 157.9375 186 149.574219 185.398438 143.550781 185.398438 C 137.527344 185.398438 137.863281 189.601562 138.195312 192.601562 C 138.53125 195.601562 135.855469 194.398438 128.15625 196.199219 C 120.460938 198 83.988281 201.300781 77.628906 202.199219 C 71.273438 203.101562 50.191406 205.5 42.160156 207.898438 C 39.820312 208.5 38.816406 209.398438 38.480469 210.898438 C 42.691406 213.972656 48.222656 215.183594 53.539062 214.199219 C 62.574219 212.398438 74.285156 212.699219 94.027344 211.800781 C 113.769531 210.898438 151.582031 209.398438 160.617188 210.601562 C 169.648438 211.800781 185.710938 211.800781 192.070312 212.101562 C 198.425781 212.398438 218.167969 211.5 215.828125 206.398438 Z M 43.5 219.601562 C 43.5 220.5 44.839844 220.800781 45.507812 221.101562 C 59.128906 223.132812 72.871094 224.4375 86.664062 225 C 95.699219 225.300781 124.8125 227.699219 131.839844 227.101562 C 145.839844 227.128906 159.78125 228.742188 173.332031 231.898438 C 181.089844 234.632812 189.464844 235.664062 197.757812 234.898438 L 214.152344 234 C 216.832031 233.101562 217.835938 231.601562 219.171875 225.898438 L 205.121094 227.101562 C 195.75 227.699219 179.019531 229.199219 174 227.398438 C 168.980469 225.601562 151.246094 217.5 137.527344 220.199219 C 123.808594 222.898438 105.070312 220.800781 97.707031 221.101562 C 90.347656 221.398438 64.582031 221.699219 60.230469 220.199219 C 55.878906 218.699219 43.164062 217.199219 43.5 219.601562 Z M 43.5 219.601562 "/>
<path style="fill:none;stroke-width:0.4;stroke-linecap:round;stroke-linejoin:round;stroke:rgb(0%,0%,0%);stroke-opacity:1;stroke-miterlimit:4;" d="M 63.999551 78 L 59.100036 78.299479 C 56.621677 78.554688 54.118804 78.210938 51.800377 77.299479 C 47.750718 76.247396 43.584321 75.709635 39.400413 75.700521 C 37.300287 75.89974 28.599767 75.10026 25.899605 75 C 21.777568 74.8125 17.670708 74.377604 13.600036 73.700521 C 12.699982 73.299479 10.100216 70.10026 12.599587 69.299479 C 15.100126 68.5 21.300108 67.700521 23.199443 67.39974 C 25.099946 67.10026 35.99982 66 38.299569 65.39974 C 40.600485 64.799479 41.400144 65.200521 41.299749 64.200521 C 41.200521 63.200521 41.100126 61.89974 42.900233 61.799479 C 44.700341 61.700521 47.199713 62 47.900144 62.89974 C 48.29472 63.520833 48.897091 63.981771 49.599856 64.200521 C 50.199892 64.299479 54.899784 63.5 55.799838 63.5 C 56.699892 63.5 61.399784 62.200521 63.099497 65.700521 C 64.800377 69.200521 66.099677 72.39974 65.600036 74.799479 C 65.100395 77.200521 65.499641 77.89974 63.999551 78 Z M 63.999551 78 " transform="matrix(3.346154,0,0,3,0,0)"/>
<path style="fill-rule:nonzero;fill:rgb(99.607843%,74.901961%,6.27451%);fill-opacity:1;stroke-width:0.4;stroke-linecap:round;stroke-linejoin:round;stroke:rgb(0%,0%,0%);stroke-opacity:1;stroke-miterlimit:4;" d="M 42.900233 76.200521 C 42.010686 76.778646 40.96004 77.058594 39.900054 77 C 38.299569 76.799479 37.49991 75.200521 38.699982 74.799479 C 39.900054 74.39974 42.100575 74.5 42.600216 75 C 42.936422 75.300781 43.055496 75.776042 42.900233 76.200521 Z M 42.900233 76.200521 " transform="matrix(3.346154,0,0,3,0,0)"/>
<path style="fill-rule:nonzero;fill:rgb(59.607843%,3.137255%,1.960784%);fill-opacity:1;stroke-width:0.4;stroke-linecap:round;stroke-linejoin:round;stroke:rgb(0%,0%,0%);stroke-opacity:1;stroke-miterlimit:4;" d="M 47.499731 62.799479 C 46.449084 63.21224 45.328394 63.415365 44.199533 63.39974 C 42.600216 63.299479 41.299749 62.799479 41.299749 62.5 C 41.299749 62.200521 41.599767 61.39974 43.899515 61.700521 C 46.200431 62 48.300557 62 47.499731 62.799479 Z M 12.099946 69.39974 C 12.800377 69.39974 13.199623 69.89974 13.900054 71.39974 C 14.600485 72.89974 15.100126 73.799479 14.399695 74 C 13.700431 74.200521 12.299569 73.299479 11.600305 72.10026 C 10.899874 70.89974 10.400233 69.5 12.099946 69.39974 Z M 65.700431 77.700521 C 65.700431 77.700521 65.100395 78.200521 63.199892 77.200521 C 61.2632 76.268229 59.862338 74.498698 59.400054 72.39974 C 58.699623 69.89974 58.300377 67.799479 58.999641 67.299479 C 59.700072 66.799479 60.199713 66.799479 60.100485 66.10026 C 60.00009 65.39974 59.899695 64.39974 61.000539 64.10026 C 62.100216 63.799479 62.700251 64.200521 64.200341 65.799479 C 65.700431 67.39974 65.499641 67.39974 66.200072 69.5 C 66.900503 71.60026 67.200521 71.700521 66.900503 73.60026 C 66.600485 75.5 67.200521 77.10026 65.700431 77.700521 Z M 65.700431 77.700521 " transform="matrix(3.346154,0,0,3,0,0)"/>
<path style="fill:none;stroke-width:0.4;stroke-linecap:round;stroke-linejoin:round;stroke:rgb(0%,0%,0%);stroke-opacity:1;stroke-miterlimit:4;" d="M 61.699802 65.60026 C 62.739943 65.842448 63.639996 66.490885 64.200341 67.39974 C 64.926455 68.576823 65.339709 69.919271 65.400413 71.299479 C 65.300018 72.89974 66.000449 74.799479 65.100395 75.299479 C 64.200341 75.799479 63.699533 75.60026 62.700251 75.200521 C 61.699802 74.799479 60.900144 74 60.400503 71.89974 C 59.899695 69.799479 60.00009 67.5 60.300108 67.299479 " transform="matrix(3.346154,0,0,3,0,0)"/>
<path style="fill:none;stroke-width:0.4;stroke-linecap:round;stroke-linejoin:round;stroke:rgb(0%,0%,0%);stroke-opacity:1;stroke-miterlimit:4;" d="M 64.399964 73.299479 C 64.423312 72.114583 64.254041 70.932292 63.900323 69.799479 C 63.49991 68.700521 63.49991 67.700521 62.700251 67.299479 C 61.899425 66.89974 61.099767 67.799479 61.200162 69 C 61.300557 70.200521 61.99982 70.799479 62.199443 72 C 62.318517 72.717448 62.591685 73.39974 63.000269 74 " transform="matrix(3.346154,0,0,3,0,0)"/>
<path style="fill:none;stroke-width:0.4;stroke-linecap:round;stroke-linejoin:round;stroke:rgb(0%,0%,0%);stroke-opacity:1;stroke-miterlimit:4;" d="M 63.000269 69.5 C 63.000269 69.5 63.799928 71.5 63.49991 72.200521 C 63.199892 72.89974 63.399515 72.299479 62.899874 71.200521 C 62.400233 70.10026 61.699802 69.299479 62.100216 69.10026 " transform="matrix(3.346154,0,0,3,0,0)"/>
<path style=" stroke:none;fill-rule:nonzero;fill:rgb(81.568627%,60.784314%,2.745098%);fill-opacity:1;" d="M 114.773438 212.398438 C 121.097656 213.128906 127.480469 213.328125 133.847656 213 C 143.214844 212.398438 148.234375 210.601562 155.929688 212.398438 C 163.625 214.199219 179.6875 217.5 183.035156 216.300781 C 186.378906 215.101562 197.421875 208.199219 189.058594 208.199219 C 181.449219 208.484375 173.824219 208.082031 166.304688 207 C 157.96875 204.695312 149.167969 204.082031 140.539062 205.199219 C 130.019531 206.605469 119.382812 207.207031 108.75 207 C 100.71875 207 89.675781 206.699219 87.667969 208.5 C 85.660156 210.300781 94.695312 212.699219 101.054688 212.398438 C 107.410156 212.101562 113.769531 210.300781 114.773438 212.398438 Z M 114.773438 212.398438 "/>
<path style="fill:none;stroke-width:0.4;stroke-linecap:round;stroke-linejoin:round;stroke:rgb(0%,0%,0%);stroke-opacity:1;stroke-miterlimit:4;" d="M 8.00009 7.89974 L 69.99991 7.89974 L 69.99991 132.209635 L 8.00009 132.209635 Z M 8.00009 7.89974 " transform="matrix(3.346154,0,0,3,0,0)"/>
</g>
</svg>
