<svg xmlns="http://www.w3.org/2000/svg" viewBox="0 0 78 140">
  <rect width="78" height="140" rx="6" ry="6" fill="#fff"/>
  <path d="M51.2 79.5c1.2-.9 2-2.5 6.9-3.5 7.7-1.5 7.6-7.1 6.6-9.9s-7.1-4.2-6.5-2.6a3.1 3.1 0 0 1-2 4c-7.3 2.4-11.8 4.1-12.2 7s5.9 5.9 7.2 5z" fill="#325723"/>
  <path d="M51.2 79.5c1.2-.9 2-2.5 6.9-3.5 7.7-1.5 7.6-7.1 6.6-9.9s-7.1-4.2-6.5-2.6a3.1 3.1 0 0 1-2 4c-7.3 2.4-11.8 4.1-12.2 7s5.9 5.9 7.2 5z" fill="none" stroke="#000" stroke-linecap="round" stroke-linejoin="round" stroke-width=".4"/>
  <path d="M63.7 65.4a7.9 7.9 0 0 1 0 6.3c-.9 1.7-2.8 2.8-5.6 3.3a13.1 13.1 0 0 0-7.7 3.9m-5.5-3.5c.4-2.9 5.3-4.8 11.9-7a4.5 4.5 0 0 0 2.5-2.2 3.4 3.4 0 0 0 .3-2.4" fill="none" stroke="#000" stroke-linecap="round" stroke-linejoin="round" stroke-width=".4"/>
  <path d="M26.2 79.5c-1.2-.9-2-2.5-6.9-3.5-7.7-1.5-7.6-7.1-6.6-9.9s7.1-4.2 6.5-2.6a3.1 3.1 0 0 0 2 4c7.3 2.4 11.8 4.1 12.2 7s-5.9 5.9-7.2 5z" fill="#325723"/>
  <path d="M27.4 79.3a13 13 0 0 0-7.9-4.3c-2.7-.5-4.6-1.6-5.6-3.3s-.4-5.4 0-6.3m4.1-1.6a5 5 0 0 0 .3 2.4 4.5 4.5 0 0 0 2.5 2.2c6.6 2.2 11.5 4.4 11.9 7.3" fill="none" stroke="#000" stroke-linecap="round" stroke-linejoin="round" stroke-width=".4"/>
  <path d="M18.3 62.8c-1.6 0-4.9 1.3-5.6 3.3s-1.1 8.4 6.6 9.9c4.9 1 5.7 2.6 6.9 3.5l.7.2c2.1 0 6.8-2.6 6.5-5.2s-4.9-4.6-12.2-7a3.1 3.1 0 0 1-2-4c.1-.5-.2-.7-.9-.7z" fill="none" stroke="#000" stroke-linecap="round" stroke-linejoin="round" stroke-width=".4"/>
  <path fill="#0065b7" d="M56.5 15.5l-2.6-4.1-2.6 4.1-1 80.3h7.2l-1-80.3z"/>
  <path fill="#004da1" d="M56.5 15.5l-2.6-4.1v84.4h3.6l-1-80.3z"/>
  <path fill="none" stroke="#000" stroke-linecap="round" stroke-linejoin="round" stroke-width=".4" d="M56.5 15.5l-2.6-4.1-2.6 4.1-1 80.3h7.2l-1-80.3z"/>
  <path fill="#0065b7" stroke="#000" stroke-linecap="round" stroke-linejoin="round" stroke-width=".4" d="M53.9 11.4v84.3"/>
  <path d="M52.2 97.5c0 1.4.8 2.5 1.7 2.5s1.7-1.1 1.6-2.5-.7-2.5-1.6-2.5a2.3 2.3 0 0 0-1.7 2.5z" fill="none"/>
  <path d="M53.9 91.1c1.3 1.9 4.9 3.4 4.9 7.3 0 2-.9 3.6-2.4 3.6s-1.1.5-2.5.5-1.4-.5-2.5-.5-2.3-1.6-2.3-3.6c0-3.9 3.6-5.4 4.8-7.3z"/>
  <path d="M52.1 97.3c0 1.6.8 2.8 1.8 2.8s1.8-1.2 1.8-2.8c0-1.5-.8-2.8-1.8-2.8s-1.8 1.3-1.8 2.8z" fill="red" stroke="#000" stroke-linecap="round" stroke-linejoin="round" stroke-width=".55"/>
  <path d="M54.1 96.3c-.7-.2-.6 2.4-.1 2.2m.4-2.6c0-.3-.4-.5-.7-.4a2.1 2.1 0 0 0-.8 1.8c0 .9.3 2 1 1.9" fill="none" stroke="#000" stroke-linecap="round" stroke-linejoin="round" stroke-width=".3"/>
  <path d="M53.9 92.5c.9.9 3.8 2.7 3.8 5.9 0 1.5-.7 2.9-1.8 2.9a.6.6 0 0 1-.6-.6c0-.3.2-.5.6-.5s.8-1.2.8-2-2-4-2.8-4.8c-.7.8-2.7 2.5-2.7 4.8s.3 2 .8 2a.5.5 0 0 1 .5.5.6.6 0 0 1-.5.6c-1.1 0-1.8-1.4-1.8-2.9 0-3.2 2.8-5 3.7-5.9zm0 7.5c.6 0 1 .3 1 .7a.9.9 0 0 1-1 .8 1 1 0 0 1-1-.8c0-.4.5-.7 1-.7z" fill="#febf10"/>
  <path d="M58.1 98.2a3.5 3.5 0 0 0 3.6 3.6 3.6 3.6 0 0 0 3.6-3.6 3.5 3.5 0 0 0-3.6-3.6 3.5 3.5 0 0 0-3.6 3.6zm-15.6 0a3.7 3.7 0 0 0 7.3 0 3.5 3.5 0 0 0-3.7-3.6 3.6 3.6 0 0 0-3.6 3.6z" fill="#febf10" stroke="#000" stroke-width=".4"/>
  <path d="M61.7 95.7a1.1 1.1 0 0 1 1.1 1 1.1 1.1 0 1 1-2.2 0 1 1 0 0 1 1.1-1zm0 2.9a1.2 1.2 0 0 1 1.1 1.1 1.1 1.1 0 0 1-1.1 1 1 1 0 0 1-1.1-1 1.1 1.1 0 0 1 1.1-1.1z" fill="#325723" stroke="#000" stroke-width=".42"/>
  <path d="M64.2 98.2a1.1 1.1 0 0 1-1 1.1 1.1 1.1 0 0 1 0-2.2 1.1 1.1 0 0 1 1 1.1zm-2.9 0a1.2 1.2 0 0 1-1.1 1.1 1.1 1.1 0 0 1 0-2.2 1.1 1.1 0 0 1 1.1 1.1z" fill="#325723" stroke="#000" stroke-width=".42"/>
  <path d="M60.6 98.2a1.1 1.1 0 0 0 1.1 1.1 1.2 1.2 0 0 0 1.1-1.1 1.2 1.2 0 0 0-1.1-1.1 1.1 1.1 0 0 0-1.1 1.1z" fill="#325723" stroke="#000" stroke-width=".3"/>
  <path d="M46.1 95.7a1 1 0 0 1 1.1 1 1.1 1.1 0 0 1-1 1.1 1.1 1.1 0 0 1-1.1-1.1 1 1 0 0 1 1-1zm0 2.9a1.1 1.1 0 0 1 1.1 1.1 1.1 1.1 0 0 1-1 1 1 1 0 0 1-1.1-1 1.1 1.1 0 0 1 1-1.1z" fill="#325723" stroke="#000" stroke-width=".42"/>
  <path d="M48.7 98.2a1.2 1.2 0 0 1-1.1 1.1 1.1 1.1 0 0 1-1-1.1 1 1 0 0 1 1-1.1 1.1 1.1 0 0 1 1.1 1.1zm-3 0a1.1 1.1 0 0 1-1 1.1 1.1 1.1 0 0 1 0-2.2 1.1 1.1 0 0 1 1 1.1z" fill="#325723" stroke="#000" stroke-width=".42"/>
  <path d="M45.1 98.2a1.1 1.1 0 0 0 1.1 1.1 1.2 1.2 0 0 0 1-1.1 1.1 1.1 0 0 0-1.1-1.1 1.1 1.1 0 0 0-1 1.1z" fill="#325723" stroke="#000" stroke-width=".3"/>
  <ellipse cx="53.9" cy="112.3" rx="3.6" ry="10.7" fill="#febf10"/>
  <path d="M53.9 122.9c2 0 3.7-4.8 3.7-10.6s-1.7-10.7-3.7-10.7" fill="#d09b07"/>
  <ellipse cx="53.9" cy="112.3" rx="3.6" ry="10.7" fill="none" stroke="#000" stroke-linecap="round" stroke-linejoin="round" stroke-width=".4"/>
  <rect x="49.1" y="118" width="8.4" height=".94" rx=".5" ry=".5" transform="rotate(-135.1 53.33 118.45)" fill="#febf10" stroke="#000" stroke-linecap="round" stroke-linejoin="round" stroke-width=".3"/>
  <rect x="48.6" y="115.1" width="10.2" height=".94" rx=".5" ry=".5" transform="rotate(-135.1 53.76 115.52)" fill="#febf10" stroke="#000" stroke-linecap="round" stroke-linejoin="round" stroke-width=".3"/>
  <circle cx="56.3" cy="119.8" r=".6" fill="red" stroke="#000" stroke-linecap="round" stroke-linejoin="round" stroke-width=".3"/>
  <circle cx="55.3" cy="118.9" r=".6" fill="red" stroke="#000" stroke-linecap="round" stroke-linejoin="round" stroke-width=".3"/>
  <circle cx="54.4" cy="117.9" r=".6" fill="red" stroke="#000" stroke-linecap="round" stroke-linejoin="round" stroke-width=".3"/>
  <circle cx="53.4" cy="117" r=".6" fill="red" stroke="#000" stroke-linecap="round" stroke-linejoin="round" stroke-width=".3"/>
  <circle cx="52.5" cy="116" r=".6" fill="red" stroke="#000" stroke-linecap="round" stroke-linejoin="round" stroke-width=".3"/>
  <circle cx="51.5" cy="115.1" r=".6" fill="red" stroke="#000" stroke-linecap="round" stroke-linejoin="round" stroke-width=".3"/>
  <circle cx="50.6" cy="114.1" r=".6" fill="red" stroke="#000" stroke-linecap="round" stroke-linejoin="round" stroke-width=".3"/>
  <rect x="49.8" y="108" width="9.4" height=".94" rx=".5" ry=".5" transform="rotate(44.9 54.43 108.41)" fill="#febf10" stroke="#000" stroke-linecap="round" stroke-linejoin="round" stroke-width=".3"/>
  <rect x="48.9" y="111" width="10.2" height=".94" rx=".5" ry=".5" transform="rotate(44.9 54.05 111.26)" fill="#febf10" stroke="#000" stroke-linecap="round" stroke-linejoin="round" stroke-width=".3"/>
  <circle cx="51.4" cy="107.1" r=".6" fill="red" stroke="#000" stroke-linecap="round" stroke-linejoin="round" stroke-width=".3"/>
  <circle cx="52.4" cy="108.1" r=".6" fill="red" stroke="#000" stroke-linecap="round" stroke-linejoin="round" stroke-width=".3"/>
  <circle cx="53.4" cy="109" r=".6" fill="red" stroke="#000" stroke-linecap="round" stroke-linejoin="round" stroke-width=".3"/>
  <circle cx="54.3" cy="110" r=".6" fill="red" stroke="#000" stroke-linecap="round" stroke-linejoin="round" stroke-width=".3"/>
  <circle cx="55.3" cy="110.9" r=".6" fill="red" stroke="#000" stroke-linecap="round" stroke-linejoin="round" stroke-width=".3"/>
  <circle cx="56.2" cy="111.9" r=".6" fill="red" stroke="#000" stroke-linecap="round" stroke-linejoin="round" stroke-width=".3"/>
  <circle cx="57.2" cy="112.8" r=".6" fill="red" stroke="#000" stroke-linecap="round" stroke-linejoin="round" stroke-width=".3"/>
  <circle cx="53.9" cy="123.3" r="1.6" fill="#0065b7" stroke="#000" stroke-linecap="round" stroke-linejoin="round" stroke-width=".4"/>
  <path d="M52.4 127a1.6 1.6 0 0 0 1.5 1.6 1.5 1.5 0 0 0 1.5-1.6 1.5 1.5 0 0 0-1.5-1.5 1.5 1.5 0 0 0-1.5 1.5z" fill="red" stroke="#000" stroke-linecap="round" stroke-linejoin="round" stroke-width=".4"/>
  <path d="M54.5 125.2c0 .9.5 1.6 1 1.5s.9-.7.9-1.5-.5-1.6-1-1.5-.9.7-.9 1.5zm-3.1 0c0 .9.5 1.6 1 1.6s.9-.7.9-1.6-.4-1.5-.9-1.5-1 .7-1 1.5z" fill="red" stroke="#000" stroke-linecap="round" stroke-linejoin="round" stroke-width=".4"/>
  <path d="M54.2 127.9a1 1 0 0 1-1.2-.9m-.7-2.7a1.5 1.5 0 0 0 0 1.8" fill="none" stroke="#000" stroke-linecap="round" stroke-linejoin="round" stroke-width=".4"/>
  <path d="M53 125.5c0 .9.4 1.6.9 1.6s1-.7 1-1.6-.5-1.5-1-1.5-.9.7-.9 1.5z" fill="#980805" stroke="#000" stroke-linecap="round" stroke-linejoin="round" stroke-width=".4"/>
  <path d="M53.9 124.6a1.5 1.5 0 0 0 0 1.8" fill="none" stroke="#000" stroke-linecap="round" stroke-linejoin="round" stroke-width=".4"/>
  <path d="M54 102.8a6.5 6.5 0 0 0 4.5 1.4 7.6 7.6 0 0 1 4.9 1.8s-.9-3.6-2.8-4.1-2.5.5-2.5.5-.2-1.1-2.2-1.1-1.9 1.5-1.9 1.5zm-.1 0a6.5 6.5 0 0 1-4.5 1.4 7.3 7.3 0 0 0-4.9 1.8s.8-3.6 2.8-4.1 2.5.5 2.5.5.2-1.1 2.2-1.1 1.9 1.5 1.9 1.5z" fill="#febf10" stroke="#000" stroke-linecap="round" stroke-linejoin="round" stroke-width=".4"/>
  <path fill="#0065b7" d="M24.8 124.5l-2.6 4.1-2.6-4.1-1-80.3h7.2l-1 80.3z"/>
  <path fill="#004da1" d="M24.8 124.5l-2.6 4.1-.1-84.4h3.7l-1 80.3z"/>
  <path fill="none" stroke="#000" stroke-linecap="round" stroke-linejoin="round" stroke-width=".4" d="M24.8 124.5l-2.6 4.1-2.6-4.1-1-80.3h7.2l-1 80.3z"/>
  <path fill="#0065b7" stroke="#000" stroke-linecap="round" stroke-linejoin="round" stroke-width=".4" d="M22.2 128.6V44.3"/>
  <path d="M23.9 42.5c0-1.4-.8-2.5-1.7-2.5s-1.6 1.1-1.6 2.5.7 2.5 1.7 2.5 1.6-1.2 1.6-2.5z" fill="none"/>
  <path d="M22.2 48.9c-1.3-1.9-4.9-3.4-4.9-7.3 0-2 .9-3.6 2.4-3.6s1.1-.5 2.5-.5 1.4.5 2.5.5 2.3 1.6 2.3 3.6c0 3.9-3.6 5.4-4.8 7.3z"/>
  <path d="M24 42.7c0-1.6-.8-2.8-1.8-2.8s-1.8 1.2-1.8 2.8c0 1.5.8 2.8 1.8 2.8s1.8-1.3 1.8-2.8z" fill="red" stroke="#000" stroke-linecap="round" stroke-linejoin="round" stroke-width=".55"/>
  <path d="M22 43.7c.7.2.6-2.4.1-2.2m-.4 2.6c0 .3.4.5.7.4a2.1 2.1 0 0 0 .8-1.8c0-.9-.3-2-1-1.9" fill="none" stroke="#000" stroke-linecap="round" stroke-linejoin="round" stroke-width=".3"/>
  <path d="M22.2 47.5c-.9-.9-3.8-2.7-3.8-5.9 0-1.5.7-2.9 1.8-2.9a.6.6 0 0 1 .6.6c0 .3-.2.5-.6.5s-.8 1.2-.8 2c0 2.3 2 4 2.8 4.8.7-.8 2.7-2.5 2.7-4.8 0-.8-.3-2-.8-2a.5.5 0 0 1-.5-.5.6.6 0 0 1 .5-.6c1.1 0 1.8 1.4 1.8 2.9 0 3.2-2.8 5-3.7 5.9zm0-7.5c-.6 0-1-.3-1-.7a.9.9 0 0 1 1-.8 1 1 0 0 1 1 .8c0 .4-.5.7-1 .7z" fill="#febf10"/>
  <path d="M18 41.8a3.5 3.5 0 0 0-3.6-3.6 3.6 3.6 0 0 0-3.6 3.6 3.5 3.5 0 0 0 3.6 3.6 3.5 3.5 0 0 0 3.6-3.6zm15.6 0a3.7 3.7 0 0 0-7.3 0 3.5 3.5 0 0 0 3.7 3.6 3.6 3.6 0 0 0 3.6-3.6z" fill="#febf10" stroke="#000" stroke-width=".4"/>
  <path d="M14.4 44.3a.9.9 0 0 1-1-1 1 1 0 0 1 1-1.1 1.1 1.1 0 0 1 1.1 1.1 1 1 0 0 1-1.1 1zm0-2.9a1 1 0 0 1-1-1.1.9.9 0 0 1 1-1 1 1 0 0 1 1.1 1 1.1 1.1 0 0 1-1.1 1.1z" fill="#325723" stroke="#000" stroke-width=".42"/>
  <path d="M11.9 41.8a1.1 1.1 0 0 1 1-1.1 1.1 1.1 0 0 1 0 2.2 1.1 1.1 0 0 1-1-1.1zm2.9 0a1.2 1.2 0 0 1 1.1-1.1 1.1 1.1 0 0 1 0 2.2 1.1 1.1 0 0 1-1.1-1.1z" fill="#325723" stroke="#000" stroke-width=".42"/>
  <path d="M15.5 41.8a1.1 1.1 0 0 0-1.1-1.1c-.6.1-1.1.5-1 1.1a1 1 0 0 0 1 1.1 1.1 1.1 0 0 0 1.1-1.1z" fill="#325723" stroke="#000" stroke-width=".3"/>
  <path d="M30 44.3a1 1 0 0 1-1.1-1 1.1 1.1 0 0 1 1-1.1 1.1 1.1 0 0 1 1.1 1.1.9.9 0 0 1-1 1zm0-2.9a1.1 1.1 0 0 1-1.1-1.1 1.1 1.1 0 0 1 1-1 1.1 1.1 0 1 1 .1 2.1z" fill="#325723" stroke="#000" stroke-width=".42"/>
  <path d="M27.4 41.8a1.2 1.2 0 0 1 1.1-1.1 1.1 1.1 0 0 1 0 2.2 1.1 1.1 0 0 1-1.1-1.1zm3 0a1.1 1.1 0 0 1 1-1.1 1.1 1.1 0 1 1 0 2.2 1.1 1.1 0 0 1-1-1.1z" fill="#325723" stroke="#000" stroke-width=".42"/>
  <path d="M31 41.8a1.1 1.1 0 0 0-1.1-1.1 1.2 1.2 0 0 0-1 1.1 1.1 1.1 0 0 0 1.1 1.1 1 1 0 0 0 1-1.1z" fill="#325723" stroke="#000" stroke-width=".3"/>
  <ellipse cx="22.2" cy="27.7" rx="3.6" ry="10.7" fill="#febf10"/>
  <path d="M22.2 17.1c2 0 3.6 4.8 3.6 10.6s-1.6 10.7-3.6 10.7" fill="#d09b07"/>
  <ellipse cx="22.2" cy="27.7" rx="3.6" ry="10.7" fill="none" stroke="#000" stroke-linecap="round" stroke-linejoin="round" stroke-width=".4"/>
  <rect x="18.7" y="21.1" width="8.4" height=".94" rx=".5" ry=".5" transform="rotate(44.9 22.76 21.48)" fill="#febf10" stroke="#000" stroke-linecap="round" stroke-linejoin="round" stroke-width=".3"/>
  <rect x="17.3" y="24" width="10.2" height=".94" rx=".5" ry=".5" transform="rotate(44.9 22.43 24.45)" fill="#febf10" stroke="#000" stroke-linecap="round" stroke-linejoin="round" stroke-width=".3"/>
  <circle cx="19.8" cy="20.2" r=".6" fill="red" stroke="#000" stroke-linecap="round" stroke-linejoin="round" stroke-width=".3"/>
  <circle cx="20.8" cy="21.1" r=".6" fill="red" stroke="#000" stroke-linecap="round" stroke-linejoin="round" stroke-width=".3"/>
  <circle cx="21.7" cy="22.1" r=".6" fill="red" stroke="#000" stroke-linecap="round" stroke-linejoin="round" stroke-width=".3"/>
  <circle cx="22.7" cy="23" r=".6" fill="red" stroke="#000" stroke-linecap="round" stroke-linejoin="round" stroke-width=".3"/>
  <circle cx="23.6" cy="24" r=".6" fill="red" stroke="#000" stroke-linecap="round" stroke-linejoin="round" stroke-width=".3"/>
  <circle cx="24.6" cy="24.9" r=".6" fill="red" stroke="#000" stroke-linecap="round" stroke-linejoin="round" stroke-width=".3"/>
  <circle cx="25.5" cy="25.9" r=".6" fill="red" stroke="#000" stroke-linecap="round" stroke-linejoin="round" stroke-width=".3"/>
  <rect x="17" y="31" width="9.4" height=".94" rx=".5" ry=".5" transform="rotate(-135.1 21.68 31.5)" fill="#febf10" stroke="#000" stroke-linecap="round" stroke-linejoin="round" stroke-width=".3"/>
  <rect x="17" y="28.1" width="10.2" height=".94" rx=".5" ry=".5" transform="rotate(-135.1 22.1 28.56)" fill="#febf10" stroke="#000" stroke-linecap="round" stroke-linejoin="round" stroke-width=".3"/>
  <circle cx="24.7" cy="32.9" r=".6" fill="red" stroke="#000" stroke-linecap="round" stroke-linejoin="round" stroke-width=".3"/>
  <circle cx="23.7" cy="31.9" r=".6" fill="red" stroke="#000" stroke-linecap="round" stroke-linejoin="round" stroke-width=".3"/>
  <circle cx="22.8" cy="31" r=".6" fill="red" stroke="#000" stroke-linecap="round" stroke-linejoin="round" stroke-width=".3"/>
  <circle cx="21.8" cy="30" r=".6" fill="red" stroke="#000" stroke-linecap="round" stroke-linejoin="round" stroke-width=".3"/>
  <circle cx="20.8" cy="29.1" r=".6" fill="red" stroke="#000" stroke-linecap="round" stroke-linejoin="round" stroke-width=".3"/>
  <circle cx="19.9" cy="28.1" r=".6" fill="red" stroke="#000" stroke-linecap="round" stroke-linejoin="round" stroke-width=".3"/>
  <circle cx="18.9" cy="27.2" r=".6" fill="red" stroke="#000" stroke-linecap="round" stroke-linejoin="round" stroke-width=".3"/>
  <circle cx="22.2" cy="16.7" r="1.6" fill="#0065b7" stroke="#000" stroke-linecap="round" stroke-linejoin="round" stroke-width=".4"/>
  <path d="M23.7 13a1.5 1.5 0 1 0-3 0 1.5 1.5 0 1 0 3 0z" fill="red" stroke="#000" stroke-linecap="round" stroke-linejoin="round" stroke-width=".4"/>
  <path d="M21.6 14.8c0-.9-.5-1.6-1-1.5s-.9.7-.9 1.5.5 1.6 1 1.5.9-.7.9-1.5zm3.1 0c0-.9-.5-1.6-1-1.6s-.9.7-.9 1.6.4 1.5.9 1.5 1-.7 1-1.5z" fill="red" stroke="#000" stroke-linecap="round" stroke-linejoin="round" stroke-width=".4"/>
  <path d="M21.9 12.1a1 1 0 0 1 1.2.9m.7 2.7a1.5 1.5 0 0 0 0-1.8" fill="none" stroke="#000" stroke-linecap="round" stroke-linejoin="round" stroke-width=".4"/>
  <path d="M23.1 14.5c0-.9-.4-1.6-.9-1.6s-1 .7-1 1.6.5 1.5 1 1.5.9-.7.9-1.5z" fill="#980805" stroke="#000" stroke-linecap="round" stroke-linejoin="round" stroke-width=".4"/>
  <path d="M22.3 15.4a1.9 1.9 0 0 0 0-1.8" fill="none" stroke="#000" stroke-linecap="round" stroke-linejoin="round" stroke-width=".4"/>
  <path d="M22.2 37.2a6.8 6.8 0 0 0-4.5-1.4 7.7 7.7 0 0 1-5-1.8s.9 3.6 2.8 4.1 2.5-.5 2.5-.5.2 1.1 2.2 1.1 2-1.5 2-1.5zm0 0a6.8 6.8 0 0 1 4.5-1.4 7.7 7.7 0 0 0 5-1.8s-.9 3.6-2.9 4.1-2.5-.5-2.5-.5-.2 1.1-2.1 1.1-2-1.5-2-1.5z" fill="#febf10" stroke="#000" stroke-linecap="round" stroke-linejoin="round" stroke-width=".4"/>
  <path d="M69.1 90.7l-3.9-2.6 3-4.1c.1-.2-2.6 1.4-4.9.3s-3.4-4.2-9.6-4.7c-8.7-.7-9.5-5.7-9.6-5.5-1.8 2.9-.2 8.9.8 9.9s1.4 2.3 8.1 3.1 5.2 3.9 8 5.1 2.9.7 8.1-1.5z" fill="#febf10"/>
  <path d="M8.9 91.8l3.8-2.8-3.1-3.9c-.1-.2 2.6 1.2 4.9.1s3.2-4.3 9.5-5c8.6-1 9.3-6 9.4-5.8 1.8 2.8.5 8.9-.5 9.9s-1.4 2.3-8 3.4-5.1 4-7.9 5.3c-1.2.6-2.9.8-8.1-1.2z" fill="red"/>
  <path d="M33.4 74.4c-.1 0-1 4.9-9.4 5.8-6.3.7-6.8 3.7-9.5 5a3.9 3.9 0 0 1-1.8.4 8.3 8.3 0 0 1-3.1-.6l3.1 4-3.8 2.8c3.3 1.3 5.2 1.7 6.4 1.6A2.9 2.9 0 0 0 17 93c2.8-1.3 2-4.4 7.9-5.3s7-2.4 8-3.4 2.3-7.1.5-9.9z" fill="none" stroke="#000" stroke-linecap="round" stroke-linejoin="round" stroke-width=".4"/>
  <path d="M34 81.2c-1.6 2.8-3.7 4.6-9.3 5.5-4.1.7-5.3 2.4-6.3 3.7a4.8 4.8 0 0 1-1.8 1.7 2.3 2.3 0 0 1-1.3.3 10.5 10.5 0 0 1-4.3-.9l2.3-1.7a1 1 0 0 0 .4-.7.7.7 0 0 0-.2-.7l-1.4-1.8h.6a5.1 5.1 0 0 0 2.2-.5 10.3 10.3 0 0 0 2.6-1.9c1.3-1.3 2.7-2.6 6.6-3s7.6-2 9.9-5.4m10.1-1.7c-1.8 2.9-.2 8.9.8 9.9s1.4 2.3 8.1 3.1 5.2 3.9 8 5.1a4.3 4.3 0 0 0 1.7.4c1.3 0 3.1-.5 6.4-1.9l-3.9-2.6 3-4.1a9.9 9.9 0 0 1-3.1.7 3.9 3.9 0 0 1-1.8-.4c-2.8-1.2-3.4-4.2-9.6-4.7-8.5-.7-9.5-5.5-9.6-5.5z" fill="none" stroke="#000" stroke-linecap="round" stroke-linejoin="round" stroke-width=".4"/>
  <path d="M28.7 63.9c-8-3.1-15.8 2.1-15.9 2.1a13.4 13.4 0 0 0 .1-5.9c-.1-.7 7.1-8.1 18.5-4.3" fill="#febf10"/>
  <path d="M51.6 63.6h-.7c-3.1.8-13 3.9-22.2.2l2.7-8.1c6.9 2.2 13.5.2 16.4-.2" fill="#325723"/>
  <path d="M51.6 63.6c.9-.3 8.8-1.3 13.5 4 0 0-.3-.9 0-6.1.3-7.6-13.1-6.5-17.3-5.9z" fill="red"/>
  <path d="M13.2 60.9c.7-1.1 5.7-5.2 11.9-5.2M64.9 66c-3.3-3.1-8.3-3.7-10.6-3.7a12.3 12.3 0 0 0-2.9.3h-.7l-.7.2a44.4 44.4 0 0 1-11.5 1.8 25.8 25.8 0 0 1-9.4-1.6 16.2 16.2 0 0 0-5.8-1.1 26 26 0 0 0-10.2 2.7m12-8.9a20.9 20.9 0 0 1 6 1 21.3 21.3 0 0 0 7.2 1.1 40.3 40.3 0 0 0 8-.9l1.7-.3a29.4 29.4 0 0 1 5.8-.5c4.6 0 9.5 1.5 11.2 5.2" fill="none" stroke="#000" stroke-linecap="round" stroke-linejoin="round" stroke-width=".4"/>
  <path d="M25.1 54.7c-7.7 0-12.3 4.8-12.2 5.4a13.4 13.4 0 0 1-.1 5.9 21.7 21.7 0 0 1 10.5-3.1 15.1 15.1 0 0 1 5.4 1 26.8 26.8 0 0 0 9.8 1.8 47.4 47.4 0 0 0 12.4-2h.7a10.2 10.2 0 0 1 2.7-.3c3 0 7.6.7 10.8 4.3 0 0-.3-.9 0-6.1s-6-6.4-11.3-6.4a40.9 40.9 0 0 0-6 .5 50.7 50.7 0 0 1-9.5 1.2 21.7 21.7 0 0 1-6.9-1 19 19 0 0 0-6.3-1.1z" fill="none" stroke="#000" stroke-linecap="round" stroke-linejoin="round" stroke-width=".4"/>
  <ellipse cx="24.8" cy="83.6" rx="3.3" ry="1.6" transform="rotate(-12.5 24.58 83.55)" fill="#0065b7" stroke="#000" stroke-linecap="round" stroke-linejoin="round" stroke-width=".4"/>
  <path d="M26.7 83.2c.1.4-.6 1-1.7 1.2s-2 .1-2.1-.4" fill="#0065b7" stroke="#000" stroke-linecap="round" stroke-linejoin="round" stroke-width=".4"/>
  <ellipse cx="55" cy="83.9" rx="1.6" ry="3.3" transform="rotate(-76.8 54.92 83.9)" fill="#0065b7" stroke="#000" stroke-linecap="round" stroke-linejoin="round" stroke-width=".4"/>
  <path d="M56.9 84.4c-.1.4-1.1.6-2.1.3s-1.8-.8-1.7-1.2" fill="#0065b7" stroke="#000" stroke-linecap="round" stroke-linejoin="round" stroke-width=".4"/>
  <ellipse cx="38.8" cy="61" rx="1.6" ry="3.3" transform="rotate(-88.9 38.8 60.97)" fill="#0065b7" stroke="#000" stroke-linecap="round" stroke-linejoin="round" stroke-width=".4"/>
  <path d="M40.8 61c0 .5-.9.9-2 .8s-1.9-.4-1.9-.8" fill="#0065b7" stroke="#000" stroke-linecap="round" stroke-linejoin="round" stroke-width=".4"/>
  <ellipse cx="19.9" cy="59.5" rx="3.3" ry="1.6" transform="rotate(-12.5 19.82 59.46)" fill="#0065b7" stroke="#000" stroke-linecap="round" stroke-linejoin="round" stroke-width=".4"/>
  <path d="M21.8 59.1c.1.4-.7 1-1.7 1.2s-2 .1-2.1-.4" fill="#0065b7" stroke="#000" stroke-linecap="round" stroke-linejoin="round" stroke-width=".4"/>
  <ellipse cx="57.2" cy="59.7" rx="1.6" ry="3.3" transform="rotate(-79.6 57.23 59.68)" fill="#0065b7" stroke="#000" stroke-linecap="round" stroke-linejoin="round" stroke-width=".4"/>
  <path d="M59.2 60c-.1.5-1.1.7-2.1.5s-1.9-.7-1.8-1.2" fill="#0065b7" stroke="#000" stroke-linecap="round" stroke-linejoin="round" stroke-width=".4"/>
  <path d="M43.5 75.5c2.4 3.3 5.9 4.8 10.1 5.1a10 10 0 0 1 6.7 2.8 10.3 10.3 0 0 0 2.6 1.9 5.4 5.4 0 0 0 2.2.4h.6l-1.3 1.8a.7.7 0 0 0-.2.7 1 1 0 0 0 .4.7l2.4 1.6a14.1 14.1 0 0 1-4.3 1.1 2.3 2.3 0 0 1-1.3-.3 4.6 4.6 0 0 1-1.8-1.6c-1.1-1.4-2.4-3-6.5-3.6s-7.7-2.4-9.4-5.1" fill="none" stroke="#000" stroke-linecap="round" stroke-linejoin="round" stroke-width=".4"/>
  <path fill="none" stroke="#000" stroke-linecap="round" stroke-linejoin="round" stroke-width=".4" d="M8 7.9h62v124.31H8z"/>
</svg>
