<svg xmlns="http://www.w3.org/2000/svg" viewBox="0 0 78 140">
  <rect width="78" height="140" rx="6" ry="6" fill="#fff"/>
  <path fill="#0065b7" d="M24.8 124.5l-2.6 4.1-2.6-4.1-1-80.3h7.2l-1 80.3z"/>
  <path fill="#004da1" d="M24.8 124.5l-2.6 4.1-.1-84.4h3.7l-1 80.3z"/>
  <path fill="none" stroke="#000" stroke-linecap="round" stroke-linejoin="round" stroke-width=".4" d="M24.8 124.5l-2.6 4.1-2.6-4.1-1-80.3h7.2l-1 80.3z"/>
  <path fill="#0065b7" stroke="#000" stroke-linecap="round" stroke-linejoin="round" stroke-width=".4" d="M22.2 128.6V44.3"/>
  <path d="M23.9 42.5c0-1.4-.8-2.5-1.7-2.5s-1.6 1.1-1.6 2.5.7 2.5 1.7 2.5 1.6-1.2 1.6-2.5z" fill="none"/>
  <path d="M22.2 48.9c-1.3-1.9-4.9-3.4-4.9-7.3 0-2 .9-3.6 2.4-3.6s1.1-.5 2.5-.5 1.4.5 2.5.5 2.3 1.6 2.3 3.6c0 3.9-3.6 5.4-4.8 7.3z"/>
  <path d="M24 42.7c0-1.6-.8-2.8-1.8-2.8s-1.8 1.2-1.8 2.8c0 1.5.8 2.8 1.8 2.8s1.8-1.3 1.8-2.8z" fill="red" stroke="#000" stroke-linecap="round" stroke-linejoin="round" stroke-width=".55"/>
  <path d="M22 43.7c.7.2.6-2.4.1-2.2m-.4 2.6c0 .3.4.5.7.4a2.1 2.1 0 0 0 .8-1.8c0-.9-.3-2-1-1.9" fill="none" stroke="#000" stroke-linecap="round" stroke-linejoin="round" stroke-width=".3"/>
  <path d="M22.2 47.5c-.9-.9-3.8-2.7-3.8-5.9 0-1.5.7-2.9 1.8-2.9a.6.6 0 0 1 .6.6c0 .3-.2.5-.6.5s-.8 1.2-.8 2c0 2.3 2 4 2.8 4.8.7-.8 2.7-2.5 2.7-4.8 0-.8-.3-2-.8-2a.5.5 0 0 1-.5-.5.6.6 0 0 1 .5-.6c1.1 0 1.8 1.4 1.8 2.9 0 3.2-2.8 5-3.7 5.9zm0-7.5c-.6 0-1-.3-1-.7a.9.9 0 0 1 1-.8 1 1 0 0 1 1 .8c0 .4-.5.7-1 .7z" fill="#febf10"/>
  <path d="M18 41.8a3.5 3.5 0 0 0-3.6-3.6 3.6 3.6 0 0 0-3.6 3.6 3.5 3.5 0 0 0 3.6 3.6 3.5 3.5 0 0 0 3.6-3.6zm15.6 0a3.7 3.7 0 0 0-7.3 0 3.5 3.5 0 0 0 3.7 3.6 3.6 3.6 0 0 0 3.6-3.6z" fill="#febf10" stroke="#000" stroke-width=".4"/>
  <path d="M14.4 44.3a.9.9 0 0 1-1-1 1 1 0 0 1 1-1.1 1.1 1.1 0 0 1 1.1 1.1 1 1 0 0 1-1.1 1zm0-2.9a1 1 0 0 1-1-1.1.9.9 0 0 1 1-1 1 1 0 0 1 1.1 1 1.1 1.1 0 0 1-1.1 1.1z" fill="#325723" stroke="#000" stroke-width=".42"/>
  <path d="M11.9 41.8a1.1 1.1 0 0 1 1-1.1 1.1 1.1 0 0 1 0 2.2 1.1 1.1 0 0 1-1-1.1zm2.9 0a1.2 1.2 0 0 1 1.1-1.1 1.1 1.1 0 0 1 0 2.2 1.1 1.1 0 0 1-1.1-1.1z" fill="#325723" stroke="#000" stroke-width=".42"/>
  <path d="M15.5 41.8a1.1 1.1 0 0 0-1.1-1.1c-.6.1-1.1.5-1 1.1a1 1 0 0 0 1 1.1 1.1 1.1 0 0 0 1.1-1.1z" fill="#325723" stroke="#000" stroke-width=".3"/>
  <path d="M30 44.3a1 1 0 0 1-1.1-1 1.1 1.1 0 0 1 1-1.1 1.1 1.1 0 0 1 1.1 1.1.9.9 0 0 1-1 1zm0-2.9a1.1 1.1 0 0 1-1.1-1.1 1.1 1.1 0 0 1 1-1 1.1 1.1 0 1 1 .1 2.1z" fill="#325723" stroke="#000" stroke-width=".42"/>
  <path d="M27.4 41.8a1.2 1.2 0 0 1 1.1-1.1 1.1 1.1 0 0 1 0 2.2 1.1 1.1 0 0 1-1.1-1.1zm3 0a1.1 1.1 0 0 1 1-1.1 1.1 1.1 0 1 1 0 2.2 1.1 1.1 0 0 1-1-1.1z" fill="#325723" stroke="#000" stroke-width=".42"/>
  <path d="M31 41.8a1.1 1.1 0 0 0-1.1-1.1 1.2 1.2 0 0 0-1 1.1 1.1 1.1 0 0 0 1.1 1.1 1 1 0 0 0 1-1.1z" fill="#325723" stroke="#000" stroke-width=".3"/>
  <ellipse cx="22.2" cy="27.7" rx="3.6" ry="10.7" fill="#febf10"/>
  <path d="M22.2 17.1c2 0 3.6 4.8 3.6 10.6s-1.6 10.7-3.6 10.7" fill="#d09b07"/>
  <ellipse cx="22.2" cy="27.7" rx="3.6" ry="10.7" fill="none" stroke="#000" stroke-linecap="round" stroke-linejoin="round" stroke-width=".4"/>
  <rect x="18.7" y="21.1" width="8.4" height=".94" rx=".5" ry=".5" transform="rotate(44.9 22.76 21.48)" fill="#febf10" stroke="#000" stroke-linecap="round" stroke-linejoin="round" stroke-width=".3"/>
  <rect x="17.3" y="24" width="10.2" height=".94" rx=".5" ry=".5" transform="rotate(44.9 22.43 24.45)" fill="#febf10" stroke="#000" stroke-linecap="round" stroke-linejoin="round" stroke-width=".3"/>
  <circle cx="19.8" cy="20.2" r=".6" fill="red" stroke="#000" stroke-linecap="round" stroke-linejoin="round" stroke-width=".3"/>
  <circle cx="20.8" cy="21.1" r=".6" fill="red" stroke="#000" stroke-linecap="round" stroke-linejoin="round" stroke-width=".3"/>
  <circle cx="21.7" cy="22.1" r=".6" fill="red" stroke="#000" stroke-linecap="round" stroke-linejoin="round" stroke-width=".3"/>
  <circle cx="22.7" cy="23" r=".6" fill="red" stroke="#000" stroke-linecap="round" stroke-linejoin="round" stroke-width=".3"/>
  <circle cx="23.6" cy="24" r=".6" fill="red" stroke="#000" stroke-linecap="round" stroke-linejoin="round" stroke-width=".3"/>
  <circle cx="24.6" cy="24.9" r=".6" fill="red" stroke="#000" stroke-linecap="round" stroke-linejoin="round" stroke-width=".3"/>
  <circle cx="25.5" cy="25.9" r=".6" fill="red" stroke="#000" stroke-linecap="round" stroke-linejoin="round" stroke-width=".3"/>
  <rect x="17" y="31" width="9.4" height=".94" rx=".5" ry=".5" transform="rotate(-135.1 21.68 31.5)" fill="#febf10" stroke="#000" stroke-linecap="round" stroke-linejoin="round" stroke-width=".3"/>
  <rect x="17" y="28.1" width="10.2" height=".94" rx=".5" ry=".5" transform="rotate(-135.1 22.1 28.56)" fill="#febf10" stroke="#000" stroke-linecap="round" stroke-linejoin="round" stroke-width=".3"/>
  <circle cx="24.7" cy="32.9" r=".6" fill="red" stroke="#000" stroke-linecap="round" stroke-linejoin="round" stroke-width=".3"/>
  <circle cx="23.7" cy="31.9" r=".6" fill="red" stroke="#000" stroke-linecap="round" stroke-linejoin="round" stroke-width=".3"/>
  <circle cx="22.8" cy="31" r=".6" fill="red" stroke="#000" stroke-linecap="round" stroke-linejoin="round" stroke-width=".3"/>
  <circle cx="21.8" cy="30" r=".6" fill="red" stroke="#000" stroke-linecap="round" stroke-linejoin="round" stroke-width=".3"/>
  <circle cx="20.8" cy="29.1" r=".6" fill="red" stroke="#000" stroke-linecap="round" stroke-linejoin="round" stroke-width=".3"/>
  <circle cx="19.9" cy="28.1" r=".6" fill="red" stroke="#000" stroke-linecap="round" stroke-linejoin="round" stroke-width=".3"/>
  <circle cx="18.9" cy="27.2" r=".6" fill="red" stroke="#000" stroke-linecap="round" stroke-linejoin="round" stroke-width=".3"/>
  <circle cx="22.2" cy="16.7" r="1.6" fill="#0065b7" stroke="#000" stroke-linecap="round" stroke-linejoin="round" stroke-width=".4"/>
  <path d="M23.7 13a1.5 1.5 0 1 0-3 0 1.5 1.5 0 1 0 3 0z" fill="red" stroke="#000" stroke-linecap="round" stroke-linejoin="round" stroke-width=".4"/>
  <path d="M21.6 14.8c0-.9-.5-1.6-1-1.5s-.9.7-.9 1.5.5 1.6 1 1.5.9-.7.9-1.5zm3.1 0c0-.9-.5-1.6-1-1.6s-.9.7-.9 1.6.4 1.5.9 1.5 1-.7 1-1.5z" fill="red" stroke="#000" stroke-linecap="round" stroke-linejoin="round" stroke-width=".4"/>
  <path d="M21.9 12.1a1 1 0 0 1 1.2.9m.7 2.7a1.5 1.5 0 0 0 0-1.8" fill="none" stroke="#000" stroke-linecap="round" stroke-linejoin="round" stroke-width=".4"/>
  <path d="M23.1 14.5c0-.9-.4-1.6-.9-1.6s-1 .7-1 1.6.5 1.5 1 1.5.9-.7.9-1.5z" fill="#980805" stroke="#000" stroke-linecap="round" stroke-linejoin="round" stroke-width=".4"/>
  <path d="M22.3 15.4a1.9 1.9 0 0 0 0-1.8" fill="none" stroke="#000" stroke-linecap="round" stroke-linejoin="round" stroke-width=".4"/>
  <path d="M22.2 37.2a6.8 6.8 0 0 0-4.5-1.4 7.7 7.7 0 0 1-5-1.8s.9 3.6 2.8 4.1 2.5-.5 2.5-.5.2 1.1 2.2 1.1 2-1.5 2-1.5zm0 0a6.8 6.8 0 0 1 4.5-1.4 7.7 7.7 0 0 0 5-1.8s-.9 3.6-2.9 4.1-2.5-.5-2.5-.5-.2 1.1-2.1 1.1-2-1.5-2-1.5z" fill="#febf10" stroke="#000" stroke-linecap="round" stroke-linejoin="round" stroke-width=".4"/>
  <path fill="#0065b7" d="M58.4 124.5l-2.6 4.1-2.6-4.1-1-80.3h7.2l-1 80.3z"/>
  <path fill="#004da1" d="M58.4 124.5l-2.6 4.1-.1-84.4h3.7l-1 80.3z"/>
  <path fill="none" stroke="#000" stroke-linecap="round" stroke-linejoin="round" stroke-width=".4" d="M58.4 124.5l-2.6 4.1-2.6-4.1-1-80.3h7.2l-1 80.3z"/>
  <path fill="#0065b7" stroke="#000" stroke-linecap="round" stroke-linejoin="round" stroke-width=".4" d="M55.8 128.6V44.3"/>
  <path d="M57.5 42.5c-.1-1.4-.8-2.5-1.7-2.5s-1.7 1.1-1.7 2.5.8 2.5 1.7 2.5a2.4 2.4 0 0 0 1.7-2.5z" fill="none"/>
  <path d="M55.8 48.9c-1.3-1.9-4.9-3.4-4.9-7.3 0-2 .9-3.6 2.3-3.6s1.2-.5 2.6-.5 1.4.5 2.5.5 2.3 1.6 2.3 3.6c0 3.9-3.6 5.4-4.8 7.3z"/>
  <path d="M57.5 42.7c0-1.6-.8-2.8-1.7-2.8S54 41.1 54 42.7c0 1.5.8 2.8 1.8 2.8s1.7-1.3 1.7-2.8z" fill="red" stroke="#000" stroke-linecap="round" stroke-linejoin="round" stroke-width=".55"/>
  <path d="M55.6 43.7c.7.2.6-2.4 0-2.2m-.3 2.6c0 .3.3.5.7.4a2 2 0 0 0 .7-1.8c0-.9-.2-2-.9-1.9" fill="none" stroke="#000" stroke-linecap="round" stroke-linejoin="round" stroke-width=".3"/>
  <path d="M55.8 47.5c-.9-.9-3.8-2.7-3.8-5.9 0-1.5.7-2.9 1.8-2.9a.6.6 0 0 1 .6.6.6.6 0 0 1-.6.5c-.4 0-.8 1.2-.8 2 0 2.3 2 4 2.8 4.8.7-.8 2.7-2.5 2.7-4.8 0-.8-.3-2-.8-2a.6.6 0 0 1-.6-.5.6.6 0 0 1 .6-.6c1.1 0 1.8 1.4 1.8 2.9 0 3.2-2.9 5-3.7 5.9zm0-7.5c-.6 0-1-.3-1-.7a.9.9 0 0 1 1-.8 1 1 0 0 1 1 .8c0 .4-.5.7-1 .7z" fill="#febf10"/>
  <path d="M51.6 41.8a3.5 3.5 0 0 0-3.7-3.6 3.6 3.6 0 0 0-3.6 3.6 3.7 3.7 0 0 0 7.3 0zm15.6 0a3.7 3.7 0 0 0-3.7-3.6 3.6 3.6 0 0 0-3.6 3.6 3.5 3.5 0 0 0 3.7 3.6 3.6 3.6 0 0 0 3.6-3.6z" fill="#febf10" stroke="#000" stroke-width=".4"/>
  <path d="M48 44.3a1 1 0 0 1-1.1-1 1.1 1.1 0 0 1 1.1-1.1 1 1 0 0 1 1 1.1.9.9 0 0 1-1 1zm0-2.9a1.1 1.1 0 0 1-1.1-1.1 1.1 1.1 0 0 1 1.1-1 .9.9 0 0 1 1 1 1 1 0 0 1-1 1.1z" fill="#325723" stroke="#000" stroke-width=".42"/>
  <path d="M45.4 41.8a1.2 1.2 0 0 1 1.1-1.1 1.1 1.1 0 1 1 0 2.2 1.2 1.2 0 0 1-1.1-1.1zm3 0a1.2 1.2 0 0 1 1-1.1 1.1 1.1 0 0 1 1.1 1.1 1 1 0 0 1-1 1.1 1.1 1.1 0 0 1-1.1-1.1z" fill="#325723" stroke="#000" stroke-width=".42"/>
  <path d="M49 41.8a1 1 0 0 0-1-1.1 1.2 1.2 0 0 0-1.1 1.1 1.1 1.1 0 0 0 1.1 1.1 1 1 0 0 0 1-1.1z" fill="#325723" stroke="#000" stroke-width=".3"/>
  <path d="M63.5 44.3a1 1 0 0 1-1-1 1 1 0 0 1 1-1.1 1.1 1.1 0 0 1 1.1 1.1 1 1 0 0 1-1.1 1zm0-2.9a1.1 1.1 0 0 1-1-1.1 1 1 0 0 1 1-1 1 1 0 0 1 1.1 1 1.1 1.1 0 0 1-1.1 1.1z" fill="#325723" stroke="#000" stroke-width=".42"/>
  <path d="M61 41.8a1.2 1.2 0 0 1 1-1.1 1.1 1.1 0 0 1 1.1 1.1 1.1 1.1 0 0 1-1 1.1 1.1 1.1 0 0 1-1.1-1.1zm2.9 0a1.2 1.2 0 0 1 1.1-1.1 1.1 1.1 0 1 1 0 2.2 1.2 1.2 0 0 1-1.1-1.1z" fill="#325723" stroke="#000" stroke-width=".42"/>
  <path d="M64.6 41.8a1.1 1.1 0 0 0-1.1-1.1 1.1 1.1 0 0 0-1 1.1 1.1 1.1 0 0 0 1 1.1 1.1 1.1 0 0 0 1.1-1.1z" fill="#325723" stroke="#000" stroke-width=".3"/>
  <ellipse cx="55.7" cy="27.7" rx="3.6" ry="10.7" fill="#febf10"/>
  <path d="M55.7 17.1c2 0 3.7 4.8 3.7 10.6s-1.7 10.7-3.7 10.7" fill="#d09b07"/>
  <ellipse cx="55.7" cy="27.7" rx="3.6" ry="10.7" fill="none" stroke="#000" stroke-linecap="round" stroke-linejoin="round" stroke-width=".4"/>
  <rect x="52.2" y="21.1" width="8.4" height=".94" rx=".5" ry=".5" transform="rotate(44.9 56.34 21.49)" fill="#febf10" stroke="#000" stroke-linecap="round" stroke-linejoin="round" stroke-width=".3"/>
  <rect x="50.9" y="24" width="10.2" height=".94" rx=".5" ry=".5" transform="rotate(44.9 55.96 24.34)" fill="#febf10" stroke="#000" stroke-linecap="round" stroke-linejoin="round" stroke-width=".3"/>
  <circle cx="53.4" cy="20.2" r=".6" fill="red" stroke="#000" stroke-linecap="round" stroke-linejoin="round" stroke-width=".3"/>
  <circle cx="54.3" cy="21.1" r=".6" fill="red" stroke="#000" stroke-linecap="round" stroke-linejoin="round" stroke-width=".3"/>
  <circle cx="55.3" cy="22.1" r=".6" fill="red" stroke="#000" stroke-linecap="round" stroke-linejoin="round" stroke-width=".3"/>
  <circle cx="56.2" cy="23" r=".6" fill="red" stroke="#000" stroke-linecap="round" stroke-linejoin="round" stroke-width=".3"/>
  <circle cx="57.2" cy="24" r=".6" fill="red" stroke="#000" stroke-linecap="round" stroke-linejoin="round" stroke-width=".3"/>
  <circle cx="58.2" cy="24.9" r=".6" fill="red" stroke="#000" stroke-linecap="round" stroke-linejoin="round" stroke-width=".3"/>
  <circle cx="59.1" cy="25.9" r=".6" fill="red" stroke="#000" stroke-linecap="round" stroke-linejoin="round" stroke-width=".3"/>
  <rect x="50.6" y="31" width="9.4" height=".94" rx=".5" ry=".5" transform="rotate(-135.1 55.22 31.5)" fill="#febf10" stroke="#000" stroke-linecap="round" stroke-linejoin="round" stroke-width=".3"/>
  <rect x="50.6" y="28.1" width="10.2" height=".94" rx=".5" ry=".5" transform="rotate(-135.1 55.65 28.58)" fill="#febf10" stroke="#000" stroke-linecap="round" stroke-linejoin="round" stroke-width=".3"/>
  <circle cx="58.2" cy="32.9" r=".6" fill="red" stroke="#000" stroke-linecap="round" stroke-linejoin="round" stroke-width=".3"/>
  <circle cx="57.3" cy="31.9" r=".6" fill="red" stroke="#000" stroke-linecap="round" stroke-linejoin="round" stroke-width=".3"/>
  <circle cx="56.3" cy="31" r=".6" fill="red" stroke="#000" stroke-linecap="round" stroke-linejoin="round" stroke-width=".3"/>
  <circle cx="55.4" cy="30" r=".6" fill="red" stroke="#000" stroke-linecap="round" stroke-linejoin="round" stroke-width=".3"/>
  <circle cx="54.4" cy="29.1" r=".6" fill="red" stroke="#000" stroke-linecap="round" stroke-linejoin="round" stroke-width=".3"/>
  <circle cx="53.5" cy="28.1" r=".6" fill="red" stroke="#000" stroke-linecap="round" stroke-linejoin="round" stroke-width=".3"/>
  <circle cx="52.5" cy="27.2" r=".6" fill="red" stroke="#000" stroke-linecap="round" stroke-linejoin="round" stroke-width=".3"/>
  <circle cx="55.8" cy="16.7" r="1.6" fill="#0065b7" stroke="#000" stroke-linecap="round" stroke-linejoin="round" stroke-width=".4"/>
  <path d="M57.3 13a1.6 1.6 0 0 0-1.5-1.6 1.6 1.6 0 0 0-1.6 1.6 1.6 1.6 0 0 0 1.6 1.5 1.5 1.5 0 0 0 1.5-1.5z" fill="red" stroke="#000" stroke-linecap="round" stroke-linejoin="round" stroke-width=".4"/>
  <path d="M55.2 14.8c0-.9-.5-1.6-1-1.5s-.9.7-.9 1.5.5 1.6 1 1.5.9-.7.9-1.5zm3 0c0-.9-.4-1.6-.9-1.6s-1 .7-1 1.6.5 1.5 1 1.5.9-.7.9-1.5z" fill="red" stroke="#000" stroke-linecap="round" stroke-linejoin="round" stroke-width=".4"/>
  <path d="M55.5 12.1a1 1 0 0 1 1.2.9m.7 2.7a1.5 1.5 0 0 0 0-1.8" fill="none" stroke="#000" stroke-linecap="round" stroke-linejoin="round" stroke-width=".4"/>
  <path d="M56.7 14.5c0-.9-.4-1.6-.9-1.6s-1 .7-1 1.6.4 1.5 1 1.5.9-.7.9-1.5z" fill="#980805" stroke="#000" stroke-linecap="round" stroke-linejoin="round" stroke-width=".4"/>
  <path d="M55.8 15.4a1.5 1.5 0 0 0 0-1.8" fill="none" stroke="#000" stroke-linecap="round" stroke-linejoin="round" stroke-width=".4"/>
  <path d="M55.7 37.2a6.5 6.5 0 0 0-4.5-1.4 7.6 7.6 0 0 1-4.9-1.8s.9 3.6 2.8 4.1 2.5-.5 2.5-.5.2 1.1 2.2 1.1 1.9-1.5 1.9-1.5zm.1 0a6.5 6.5 0 0 1 4.5-1.4 7.6 7.6 0 0 0 4.9-1.8s-.9 3.6-2.8 4.1-2.5-.5-2.5-.5-.2 1.1-2.2 1.1-1.9-1.5-1.9-1.5z" fill="#febf10" stroke="#000" stroke-linecap="round" stroke-linejoin="round" stroke-width=".4"/>
  <path fill="#0065b7" d="M41.6 15.5L39 11.4l-2.6 4.1-1 80.3h7.2l-1-80.3z"/>
  <path fill="#004da1" d="M41.6 15.5L39 11.4v84.4h3.6l-1-80.3z"/>
  <path fill="none" stroke="#000" stroke-linecap="round" stroke-linejoin="round" stroke-width=".4" d="M41.6 15.5L39 11.4l-2.6 4.1-1 80.3h7.2l-1-80.3z"/>
  <path fill="#0065b7" stroke="#000" stroke-linecap="round" stroke-linejoin="round" stroke-width=".4" d="M39 11.4v84.3"/>
  <path d="M37.3 97.5c0 1.4.8 2.5 1.7 2.5s1.6-1.1 1.6-2.5-.8-2.5-1.7-2.5-1.6 1.2-1.6 2.5z" fill="none"/>
  <path d="M39 91.1c1.2 1.9 4.9 3.4 4.9 7.3 0 2-1 3.6-2.4 3.6s-1.2.5-2.5.5-1.4-.5-2.5-.5-2.4-1.6-2.4-3.6c0-3.9 3.7-5.4 4.9-7.3z"/>
  <path d="M37.2 97.3c0 1.6.8 2.8 1.8 2.8s1.8-1.2 1.8-2.8c0-1.5-.8-2.8-1.8-2.8s-1.8 1.3-1.8 2.8z" fill="red" stroke="#000" stroke-linecap="round" stroke-linejoin="round" stroke-width=".55"/>
  <path d="M39.2 96.3c-.7-.2-.6 2.4-.1 2.2m.4-2.6a.6.6 0 0 0-.7-.4 2.1 2.1 0 0 0-.8 1.8c0 .9.3 2 1 1.9" fill="none" stroke="#000" stroke-linecap="round" stroke-linejoin="round" stroke-width=".3"/>
  <path d="M39 92.5c.9.9 3.8 2.7 3.8 5.9 0 1.5-.7 2.9-1.8 2.9a.6.6 0 0 1-.6-.6c0-.3.2-.5.6-.5s.8-1.2.8-2-2.1-4-2.8-4.8c-.7.8-2.8 2.5-2.8 4.8s.4 2 .8 2 .6.2.6.5a.6.6 0 0 1-.6.6c-1.1 0-1.8-1.4-1.8-2.9 0-3.2 2.9-5 3.8-5.9zm0 7.5c.6 0 1 .3 1 .7a1 1 0 0 1-2 0c0-.4.4-.7 1-.7z" fill="#febf10"/>
  <path d="M43.1 98.2a3.7 3.7 0 0 0 3.7 3.6 3.6 3.6 0 0 0 3.6-3.6 3.5 3.5 0 0 0-3.7-3.6 3.6 3.6 0 0 0-3.6 3.6zm-15.5 0a3.5 3.5 0 0 0 3.7 3.6 3.6 3.6 0 0 0 3.6-3.6 3.7 3.7 0 0 0-7.3 0z" fill="#febf10" stroke="#000" stroke-width=".4"/>
  <path d="M46.8 95.7a1 1 0 0 1 1 1 1 1 0 0 1-1 1.1 1.1 1.1 0 0 1-1.1-1.1 1 1 0 0 1 1.1-1zm0 2.9a1.1 1.1 0 0 1 1 1.1 1 1 0 0 1-1 1 1 1 0 0 1-1.1-1 1.1 1.1 0 0 1 1.1-1.1z" fill="#325723" stroke="#000" stroke-width=".42"/>
  <path d="M49.3 98.2a1.2 1.2 0 0 1-1 1.1 1.1 1.1 0 0 1-1.1-1.1 1.1 1.1 0 0 1 1-1.1 1.1 1.1 0 0 1 1.1 1.1zm-2.9 0a1.1 1.1 0 0 1-2.2 0 1.1 1.1 0 1 1 2.2 0z" fill="#325723" stroke="#000" stroke-width=".42"/>
  <path d="M45.7 98.2a1.1 1.1 0 0 0 1.1 1.1 1.1 1.1 0 0 0 1-1.1 1.1 1.1 0 0 0-1-1.1 1.1 1.1 0 0 0-1.1 1.1z" fill="#325723" stroke="#000" stroke-width=".3"/>
  <path d="M31.2 95.7a1 1 0 0 1 1.1 1 1.1 1.1 0 0 1-1.1 1.1 1.1 1.1 0 0 1-1-1.1.9.9 0 0 1 1-1zm0 2.9a1.1 1.1 0 0 1 1.1 1.1 1.1 1.1 0 0 1-1.1 1 1 1 0 0 1-1-1 1 1 0 0 1 1-1.1z" fill="#325723" stroke="#000" stroke-width=".42"/>
  <path d="M33.8 98.2a1.2 1.2 0 0 1-1.1 1.1 1.1 1.1 0 0 1 0-2.2 1.2 1.2 0 0 1 1.1 1.1zm-3 0a1.2 1.2 0 0 1-1 1.1 1.1 1.1 0 0 1-1.1-1.1 1.1 1.1 0 0 1 1-1.1 1.1 1.1 0 0 1 1.1 1.1z" fill="#325723" stroke="#000" stroke-width=".42"/>
  <path d="M30.2 98.2a1.1 1.1 0 0 0 1 1.1 1.2 1.2 0 0 0 1.1-1.1 1.1 1.1 0 0 0-1.1-1.1 1 1 0 0 0-1 1.1z" fill="#325723" stroke="#000" stroke-width=".3"/>
  <ellipse cx="39" cy="112.3" rx="3.6" ry="10.7" fill="#febf10"/>
  <path d="M39 122.9c2 0 3.6-4.8 3.6-10.6S41 101.6 39 101.6" fill="#d09b07"/>
  <ellipse cx="39" cy="112.3" rx="3.6" ry="10.7" fill="none" stroke="#000" stroke-linecap="round" stroke-linejoin="round" stroke-width=".4"/>
  <rect x="34.2" y="118" width="8.4" height=".94" rx=".5" ry=".5" transform="rotate(-135.1 38.41 118.47)" fill="#febf10" stroke="#000" stroke-linecap="round" stroke-linejoin="round" stroke-width=".3"/>
  <rect x="33.7" y="115.1" width="10.2" height=".94" rx=".5" ry=".5" transform="rotate(-135.1 38.84 115.54)" fill="#febf10" stroke="#000" stroke-linecap="round" stroke-linejoin="round" stroke-width=".3"/>
  <circle cx="41.4" cy="119.8" r=".6" fill="red" stroke="#000" stroke-linecap="round" stroke-linejoin="round" stroke-width=".3"/>
  <circle cx="40.4" cy="118.9" r=".6" fill="red" stroke="#000" stroke-linecap="round" stroke-linejoin="round" stroke-width=".3"/>
  <circle cx="39.5" cy="117.9" r=".6" fill="red" stroke="#000" stroke-linecap="round" stroke-linejoin="round" stroke-width=".3"/>
  <circle cx="38.5" cy="117" r=".6" fill="red" stroke="#000" stroke-linecap="round" stroke-linejoin="round" stroke-width=".3"/>
  <circle cx="37.6" cy="116" r=".6" fill="red" stroke="#000" stroke-linecap="round" stroke-linejoin="round" stroke-width=".3"/>
  <circle cx="36.6" cy="115.1" r=".6" fill="red" stroke="#000" stroke-linecap="round" stroke-linejoin="round" stroke-width=".3"/>
  <circle cx="35.6" cy="114.1" r=".6" fill="red" stroke="#000" stroke-linecap="round" stroke-linejoin="round" stroke-width=".3"/>
  <rect x="34.8" y="108" width="9.4" height=".94" rx=".5" ry=".5" transform="rotate(44.9 39.52 108.34)" fill="#febf10" stroke="#000" stroke-linecap="round" stroke-linejoin="round" stroke-width=".3"/>
  <rect x="34" y="111" width="10.2" height=".94" rx=".5" ry=".5" transform="rotate(44.9 39.07 111.36)" fill="#febf10" stroke="#000" stroke-linecap="round" stroke-linejoin="round" stroke-width=".3"/>
  <circle cx="36.5" cy="107.1" r=".6" fill="red" stroke="#000" stroke-linecap="round" stroke-linejoin="round" stroke-width=".3"/>
  <circle cx="37.5" cy="108.1" r=".6" fill="red" stroke="#000" stroke-linecap="round" stroke-linejoin="round" stroke-width=".3"/>
  <circle cx="38.4" cy="109" r=".6" fill="red" stroke="#000" stroke-linecap="round" stroke-linejoin="round" stroke-width=".3"/>
  <circle cx="39.4" cy="110" r=".6" fill="red" stroke="#000" stroke-linecap="round" stroke-linejoin="round" stroke-width=".3"/>
  <circle cx="40.3" cy="110.9" r=".6" fill="red" stroke="#000" stroke-linecap="round" stroke-linejoin="round" stroke-width=".3"/>
  <circle cx="41.3" cy="111.9" r=".6" fill="red" stroke="#000" stroke-linecap="round" stroke-linejoin="round" stroke-width=".3"/>
  <circle cx="42.2" cy="112.8" r=".6" fill="red" stroke="#000" stroke-linecap="round" stroke-linejoin="round" stroke-width=".3"/>
  <circle cx="39" cy="123.3" r="1.6" fill="#0065b7" stroke="#000" stroke-linecap="round" stroke-linejoin="round" stroke-width=".4"/>
  <path d="M37.5 127a1.5 1.5 0 1 0 3 0 1.5 1.5 0 0 0-3 0z" fill="red" stroke="#000" stroke-linecap="round" stroke-linejoin="round" stroke-width=".4"/>
  <path d="M39.6 125.2c0 .9.4 1.6 1 1.5s.9-.7.9-1.5-.5-1.6-1-1.5-.9.7-.9 1.5zm-3.1 0c0 .9.5 1.6 1 1.6s.9-.7.9-1.6-.4-1.5-.9-1.5-1 .7-1 1.5z" fill="red" stroke="#000" stroke-linecap="round" stroke-linejoin="round" stroke-width=".4"/>
  <path d="M39.3 127.9a1 1 0 0 1-1.2-.9m-.7-2.7a1.5 1.5 0 0 0 0 1.8" fill="none" stroke="#000" stroke-linecap="round" stroke-linejoin="round" stroke-width=".4"/>
  <path d="M38.1 125.5c0 .9.4 1.6.9 1.6s.9-.7.9-1.6-.4-1.5-.9-1.5-.9.7-.9 1.5z" fill="#980805" stroke="#000" stroke-linecap="round" stroke-linejoin="round" stroke-width=".4"/>
  <path d="M38.9 124.6a1.7 1.7 0 0 0 0 1.8" fill="none" stroke="#000" stroke-linecap="round" stroke-linejoin="round" stroke-width=".4"/>
  <path d="M39 102.8a6.8 6.8 0 0 0 4.5 1.4 7.7 7.7 0 0 1 5 1.8s-.9-3.6-2.8-4.1-2.5.5-2.5.5-.2-1.1-2.2-1.1-2 1.5-2 1.5zm0 0a6.8 6.8 0 0 1-4.5 1.4 7.7 7.7 0 0 0-5 1.8s.9-3.6 2.8-4.1 2.5.5 2.5.5.2-1.1 2.2-1.1 2 1.5 2 1.5z" fill="#febf10" stroke="#000" stroke-linecap="round" stroke-linejoin="round" stroke-width=".4"/>
  <path fill="none" stroke="#000" stroke-linecap="round" stroke-linejoin="round" stroke-width=".4" d="M8 7.9h62v124.31H8z"/>
</svg>
