<svg xmlns="http://www.w3.org/2000/svg" viewBox="0 0 78 140">
  <rect width="78" height="140" rx="6" ry="6" fill="#fff"/>
  <path fill="#0065b7" d="M36.9 63.7l-.7 4.1-3.5-2.3-12.8-27.8 5.8-2.5 11.2 28.5z"/>
  <path fill="#004da1" d="M36.9 63.7l-.7 4.1-13.4-31.3 2.9-1.3 11.2 28.5z"/>
  <path fill="none" stroke="#000" stroke-linecap="round" stroke-linejoin="round" stroke-width=".4" d="M36.9 63.7l-.7 4.1-3.5-2.3-12.8-27.8 5.8-2.5 11.2 28.5z"/>
  <path fill="#0065b7" stroke="#000" stroke-linecap="round" stroke-linejoin="round" stroke-width=".4" d="M36.2 67.8L22.9 36.6"/>
  <path d="M23.5 34.7a1.8 1.8 0 0 0-2-1.3c-.6.3-.8 1.4-.4 2.3s1.3 1.6 2 1.3.9-1.3.4-2.3z" fill="none"/>
  <path d="M24.3 39.9c-1.5-1-4.6-1-5.8-3.8s-.5-2.9.6-3.4.7-.7 1.7-1.1 1.1-.1 1.9-.4 2.2.5 2.8 1.9-.9 5-1.2 6.8z"/>
  <path d="M23.6 34.8c-.4-1.1-1.4-1.8-2.1-1.5s-.9 1.5-.4 2.6c.4 1.1 1.4 1.8 2.1 1.5s.9-1.5.4-2.6z" fill="red" stroke="#000" stroke-linecap="round" stroke-linejoin="round" stroke-width=".55"/>
  <path d="M22.5 36.1c.6 0-.3-1.8-.6-1.6m.6 2.1c.1.2.4.2.6 0a1.5 1.5 0 0 0 0-1.5c-.3-.6-.9-1.4-1.3-1.1" fill="none" stroke="#000" stroke-linecap="round" stroke-linejoin="round" stroke-width=".3"/>
  <path d="M23.8 38.9c-.9-.4-3.5-.9-4.5-3.1s-.4-2.4.4-2.7a.4.4 0 0 1 .6.2.5.5 0 0 1-.2.6c-.4.2-.2 1.1 0 1.7s2.7 2.3 3.5 2.6 1.2-2.6.5-4.3-.9-1.3-1.2-1.2a.4.4 0 0 1-.6-.2.5.5 0 0 1 .2-.6c.8-.3 1.8.4 2.3 1.6s-.6 4.4-1 5.4zm-2.3-5.5c-.4.2-.8.1-.9-.2a.7.7 0 0 1 .5-.8c.4-.2.8-.1.9.2a.7.7 0 0 1-.5.8z" fill="#febf10"/>
  <path d="M19.1 36a2.9 2.9 0 0 0-3.8-1.5 2.9 2.9 0 0 0-1.5 3.8 3 3 0 0 0 3.8 1.5 2.9 2.9 0 0 0 1.5-3.8zm11.2-4.8a2.8 2.8 0 1 0-5.2 2.3 2.9 2.9 0 0 0 3.8 1.5 2.9 2.9 0 0 0 1.4-3.8z" fill="#febf10" stroke="#000" stroke-width=".4"/>
  <path d="M17.2 39a.7.7 0 0 1-1-.5.8.8 0 0 1 .4-1.1 1 1 0 0 1 1.1.5.8.8 0 0 1-.5 1.1zm-.9-2.2a.8.8 0 0 1-1.1-.4 1 1 0 0 1 .5-1.1.8.8 0 0 1 1.1.4.8.8 0 0 1-.5 1.1z" fill="#325723" stroke="#000" stroke-width=".42"/>
  <path d="M14.6 37.9a.9.9 0 1 1 1.6-.6 1 1 0 0 1-.5 1.1 1 1 0 0 1-1.1-.5zm2.2-.9a.8.8 0 0 1 .4-1.1.8.8 0 0 1 1.1.5.7.7 0 0 1-.4 1 .8.8 0 0 1-1.1-.4z" fill="#325723" stroke="#000" stroke-width=".42"/>
  <path d="M17.2 36.8a.8.8 0 0 0-1.5.7.8.8 0 1 0 1.5-.7z" fill="#325723" stroke="#000" stroke-width=".3"/>
  <path d="M28.5 34.2a.8.8 0 0 1-1.1-.4.8.8 0 0 1 .4-1.1.8.8 0 0 1 1.1.4.8.8 0 0 1-.4 1.1zm-.9-2.2a.8.8 0 1 1 .4-1.1.8.8 0 0 1-.4 1.1z" fill="#325723" stroke="#000" stroke-width=".42"/>
  <path d="M25.9 33.1a.8.8 0 0 1 .4-1.1.9.9 0 0 1 1.1.5.8.8 0 0 1-.4 1.1.8.8 0 0 1-1.1-.5zm2.1-.9a.8.8 0 0 1 .4-1.1.8.8 0 0 1 1.1.5.8.8 0 0 1-.4 1.1.9.9 0 0 1-1.1-.5z" fill="#325723" stroke="#000" stroke-width=".42"/>
  <path d="M28.5 32a.8.8 0 0 0-1.5.7.7.7 0 0 0 1 .4.8.8 0 0 0 .5-1.1z" fill="#325723" stroke="#000" stroke-width=".3"/>
  <ellipse cx="17.7" cy="24.6" rx="2.9" ry="8.4" transform="rotate(-23.1 17.68 24.51)" fill="#febf10"/>
  <path d="M14.5 16.9c1.4-.7 4.1 2.3 5.9 6.6s2.1 8.2.6 8.8" fill="#d09b07"/>
  <ellipse cx="17.7" cy="24.6" rx="2.9" ry="8.4" transform="rotate(-23.1 17.68 24.51)" fill="none" stroke="#000" stroke-linecap="round" stroke-linejoin="round" stroke-width=".4"/>
  <rect x="13" y="19.5" width="6.6" height=".74" rx=".4" ry=".4" transform="rotate(21.8 16.24 20.03)" fill="#febf10" stroke="#000" stroke-linecap="round" stroke-linejoin="round" stroke-width=".3"/>
  <rect x="12.9" y="21.8" width="8" height=".74" rx=".4" ry=".4" transform="rotate(21.6 16.9 22.3)" fill="#febf10" stroke="#000" stroke-linecap="round" stroke-linejoin="round" stroke-width=".3"/>
  <circle cx="13.7" cy="19.8" r=".5" fill="red" stroke="#000" stroke-linecap="round" stroke-linejoin="round" stroke-width=".3"/>
  <circle cx="14.7" cy="20.2" r=".5" fill="red" stroke="#000" stroke-linecap="round" stroke-linejoin="round" stroke-width=".3"/>
  <circle cx="15.7" cy="20.6" r=".5" fill="red" stroke="#000" stroke-linecap="round" stroke-linejoin="round" stroke-width=".3"/>
  <circle cx="16.7" cy="21" r=".5" fill="red" stroke="#000" stroke-linecap="round" stroke-linejoin="round" stroke-width=".3"/>
  <circle cx="17.6" cy="21.4" r=".5" fill="red" stroke="#000" stroke-linecap="round" stroke-linejoin="round" stroke-width=".3"/>
  <circle cx="18.6" cy="21.8" r=".5" fill="red" stroke="#000" stroke-linecap="round" stroke-linejoin="round" stroke-width=".3"/>
  <circle cx="19.6" cy="22.2" r=".5" fill="red" stroke="#000" stroke-linecap="round" stroke-linejoin="round" stroke-width=".3"/>
  <rect x="14.9" y="27.1" width="7.4" height=".74" rx=".4" ry=".4" transform="rotate(-158.2 18.56 27.44)" fill="#febf10" stroke="#000" stroke-linecap="round" stroke-linejoin="round" stroke-width=".3"/>
  <rect x="13.9" y="24.8" width="8" height=".74" rx=".4" ry=".4" transform="rotate(-158.2 17.92 25.22)" fill="#febf10" stroke="#000" stroke-linecap="round" stroke-linejoin="round" stroke-width=".3"/>
  <circle cx="21.1" cy="27.5" r=".5" fill="red" stroke="#000" stroke-linecap="round" stroke-linejoin="round" stroke-width=".3"/>
  <circle cx="20.1" cy="27.1" r=".5" fill="red" stroke="#000" stroke-linecap="round" stroke-linejoin="round" stroke-width=".3"/>
  <circle cx="19.2" cy="26.7" r=".5" fill="red" stroke="#000" stroke-linecap="round" stroke-linejoin="round" stroke-width=".3"/>
  <circle cx="18.2" cy="26.3" r=".5" fill="red" stroke="#000" stroke-linecap="round" stroke-linejoin="round" stroke-width=".3"/>
  <circle cx="17.2" cy="25.9" r=".5" fill="red" stroke="#000" stroke-linecap="round" stroke-linejoin="round" stroke-width=".3"/>
  <circle cx="16.2" cy="25.5" r=".5" fill="red" stroke="#000" stroke-linecap="round" stroke-linejoin="round" stroke-width=".3"/>
  <circle cx="15.2" cy="25.1" r=".5" fill="red" stroke="#000" stroke-linecap="round" stroke-linejoin="round" stroke-width=".3"/>
  <circle cx="14.3" cy="16.6" r="1.2" fill="#0065b7" stroke="#000" stroke-linecap="round" stroke-linejoin="round" stroke-width=".4"/>
  <path d="M14.3 13.4a1.2 1.2 0 0 0-1.6-.6 1.1 1.1 0 0 0-.6 1.5 1.4 1.4 0 0 0 1.6.7 1.2 1.2 0 0 0 .6-1.6z" fill="red" stroke="#000" stroke-linecap="round" stroke-linejoin="round" stroke-width=".4"/>
  <path d="M13.3 15.4c-.2-.6-.8-1-1.1-.8s-.5.8-.2 1.4.8.9 1.2.8a1.1 1.1 0 0 0 .1-1.4zm2.3-1c-.3-.6-.8-1-1.2-.8s-.5.8-.2 1.4.8 1 1.1.8.5-.8.3-1.4z" fill="red" stroke="#000" stroke-linecap="round" stroke-linejoin="round" stroke-width=".4"/>
  <path d="M12.7 13.3a.9.9 0 0 1 1.2.3m1.3 1.7c.2-.3-.2-1.1-.5-1.3" fill="none" stroke="#000" stroke-linecap="round" stroke-linejoin="round" stroke-width=".4"/>
  <path d="M14.4 14.7c-.3-.6-.8-1-1.2-.9s-.5.8-.2 1.5a1.1 1.1 0 0 0 1.1.8c.4-.2.5-.8.3-1.4z" fill="#980805" stroke="#000" stroke-linecap="round" stroke-linejoin="round" stroke-width=".4"/>
  <path d="M14 15.6a1.1 1.1 0 0 0-.6-1.3" fill="none" stroke="#000" stroke-linecap="round" stroke-linejoin="round" stroke-width=".4"/>
  <path d="M20.6 31.4a5.4 5.4 0 0 0-3.6.4 5.8 5.8 0 0 1-4.2.2s1.8 2.3 3.3 2.1 1.7-1.1 1.7-1.1.5.7 1.9.1.9-1.7.9-1.7zm.1 0a5.4 5.4 0 0 1 2.8-2.4 5.8 5.8 0 0 0 3-2.8s.5 2.8-.7 3.8-2 .4-2 .4.2.9-1.2 1.5-1.9-.5-1.9-.5z" fill="#febf10" stroke="#000" stroke-linecap="round" stroke-linejoin="round" stroke-width=".4"/>
  <path fill="#0065b7" d="M32.9 74.6l3.5-2.3.7 4.1-11.4 28.4-5.8-2.5 13-27.7z"/>
  <path fill="#004da1" d="M32.9 74.6l3.5-2.3-13.6 31.2-2.9-1.2 13-27.7z"/>
  <path fill="none" stroke="#000" stroke-linecap="round" stroke-linejoin="round" stroke-width=".4" d="M32.9 74.6l3.5-2.3.7 4.1-11.4 28.4-5.8-2.5 13-27.7z"/>
  <path fill="#0065b7" stroke="#000" stroke-linecap="round" stroke-linejoin="round" stroke-width=".4" d="M36.4 72.3l-13.6 31.1"/>
  <path d="M21 104.2c-.4 1-.2 2 .5 2.3s1.5-.3 1.9-1.3.2-2-.4-2.3a1.8 1.8 0 0 0-2 1.3z" fill="none"/>
  <path d="M24.3 100.1c.3 1.7 2.4 4 1.2 6.8s-1.8 2.3-2.8 1.9-1 0-2-.5-.9-.7-1.7-1.1-1.1-1.9-.5-3.3 4.3-2.8 5.8-3.8z"/>
  <path d="M21 104.1c-.5 1.1-.3 2.2.4 2.5s1.7-.3 2.2-1.4c.5-1.2.3-2.3-.4-2.6s-1.7.3-2.2 1.5z" fill="red" stroke="#000" stroke-linecap="round" stroke-linejoin="round" stroke-width=".55"/>
  <path d="M22.8 104c-.5-.5-1.2 1.5-.8 1.5m1.1-1.8c.1-.2-.1-.5-.4-.5a1.9 1.9 0 0 0-1.1 1.1c-.3.6-.4 1.5.1 1.6" fill="none" stroke="#000" stroke-linecap="round" stroke-linejoin="round" stroke-width=".3"/>
  <path d="M23.8 101.1c.4 1 1.9 3.2.9 5.4s-1.4 1.9-2.2 1.6a.4.4 0 0 1-.3-.6.5.5 0 0 1 .6-.2c.4.1 1-.6 1.2-1.2s-.2-3.5-.4-4.3-2.8.9-3.6 2.6-.3 1.5 0 1.6a.6.6 0 0 1 .3.6c-.1.2-.4.4-.6.3s-.9-1.6-.4-2.7 3.6-2.7 4.5-3.1zm-2.3 5.4a.8.8 0 0 1 .5.9.8.8 0 0 1-1 .2c-.4-.2-.6-.6-.5-.8s.6-.4 1-.3z" fill="#febf10"/>
  <path d="M25 106.6a2.9 2.9 0 0 0 5.3 2.2 3 3 0 0 0-1.5-3.8 2.9 2.9 0 0 0-3.8 1.6zm-11.2-4.9a2.9 2.9 0 0 0 5.3 2.2 2.9 2.9 0 0 0-1.5-3.7 2.8 2.8 0 0 0-3.8 1.5z" fill="#febf10" stroke="#000" stroke-width=".4"/>
  <path d="M28.4 105.8a.9.9 0 0 1-.6 1.6.9.9 0 1 1 .6-1.6zm-.9 2.2a.9.9 0 0 1 .5 1.1.8.8 0 0 1-1.1.4.8.8 0 0 1-.5-1.1.8.8 0 0 1 1.1-.4z" fill="#325723" stroke="#000" stroke-width=".42"/>
  <path d="M29.5 108.5a.8.8 0 0 1-1.1.4 1 1 0 0 1-.5-1.1.8.8 0 0 1 1.1-.4.8.8 0 0 1 .5 1.1zm-2.1-1a.9.9 0 1 1-1.6-.6.9.9 0 0 1 1.6.6z" fill="#325723" stroke="#000" stroke-width=".42"/>
  <path d="M26.9 107.4a.7.7 0 0 0 .4 1 .8.8 0 0 0 1.1-.4.8.8 0 0 0-.4-1.1.8.8 0 0 0-1.1.5z" fill="#325723" stroke="#000" stroke-width=".3"/>
  <path d="M17.2 101a.7.7 0 0 1 .5 1 .8.8 0 0 1-1.1.5 1 1 0 0 1-.5-1.1.8.8 0 0 1 1.1-.4zm-.9 2.1a.8.8 0 0 1 .4 1.1.7.7 0 0 1-1 .4.8.8 0 0 1-.5-1.1.8.8 0 0 1 1.1-.4z" fill="#325723" stroke="#000" stroke-width=".42"/>
  <path d="M18.3 103.6a.8.8 0 0 1-1.1.4.9.9 0 0 1-.5-1.1.8.8 0 0 1 1.1-.4.9.9 0 0 1 .5 1.1zm-2.2-1a.7.7 0 0 1-1 .5.8.8 0 0 1-.5-1.1.8.8 0 0 1 1.1-.4.7.7 0 0 1 .4 1z" fill="#325723" stroke="#000" stroke-width=".42"/>
  <path d="M15.7 102.5a.8.8 0 0 0 .4 1.1 1 1 0 0 0 1.1-.5.8.8 0 0 0-.4-1.1.8.8 0 0 0-1.1.5z" fill="#325723" stroke="#000" stroke-width=".3"/>
  <ellipse cx="17.6" cy="115.4" rx="8.4" ry="2.9" transform="rotate(-66.4 17.65 115.44)" fill="#febf10"/>
  <path d="M14.3 123.1c-1.5-.7-1.1-4.6.7-8.9s4.5-7.1 6-6.5" fill="#d09b07"/>
  <ellipse cx="17.6" cy="115.4" rx="8.4" ry="2.9" transform="rotate(-66.4 17.65 115.44)" fill="none" stroke="#000" stroke-linecap="round" stroke-linejoin="round" stroke-width=".4"/>
  <rect x="11.9" y="119.3" width="6.6" height=".74" rx=".4" ry=".4" transform="rotate(-111.6 15.17 119.65)" fill="#febf10" stroke="#000" stroke-linecap="round" stroke-linejoin="round" stroke-width=".3"/>
  <rect x="12.4" y="117.3" width="8" height=".74" rx=".4" ry=".4" transform="rotate(-111.6 16.42 117.63)" fill="#febf10" stroke="#000" stroke-linecap="round" stroke-linejoin="round" stroke-width=".3"/>
  <circle cx="16.9" cy="121.6" r=".5" fill="red" stroke="#000" stroke-linecap="round" stroke-linejoin="round" stroke-width=".3"/>
  <circle cx="16.6" cy="120.6" r=".5" fill="red" stroke="#000" stroke-linecap="round" stroke-linejoin="round" stroke-width=".3"/>
  <circle cx="16.2" cy="119.6" r=".5" fill="red" stroke="#000" stroke-linecap="round" stroke-linejoin="round" stroke-width=".3"/>
  <circle cx="15.8" cy="118.6" r=".5" fill="red" stroke="#000" stroke-linecap="round" stroke-linejoin="round" stroke-width=".3"/>
  <circle cx="15.4" cy="117.6" r=".5" fill="red" stroke="#000" stroke-linecap="round" stroke-linejoin="round" stroke-width=".3"/>
  <circle cx="15" cy="116.7" r=".5" fill="red" stroke="#000" stroke-linecap="round" stroke-linejoin="round" stroke-width=".3"/>
  <circle cx="14.6" cy="115.7" r=".5" fill="red" stroke="#000" stroke-linecap="round" stroke-linejoin="round" stroke-width=".3"/>
  <rect x="15.5" y="112.4" width="7.4" height=".74" rx=".4" ry=".4" transform="rotate(68.4 19.14 112.83)" fill="#febf10" stroke="#000" stroke-linecap="round" stroke-linejoin="round" stroke-width=".3"/>
  <rect x="14" y="114.4" width="8" height=".74" rx=".4" ry=".4" transform="rotate(68.4 17.92 114.84)" fill="#febf10" stroke="#000" stroke-linecap="round" stroke-linejoin="round" stroke-width=".3"/>
  <circle cx="17.5" cy="110.9" r=".5" fill="red" stroke="#000" stroke-linecap="round" stroke-linejoin="round" stroke-width=".3"/>
  <circle cx="17.8" cy="111.9" r=".5" fill="red" stroke="#000" stroke-linecap="round" stroke-linejoin="round" stroke-width=".3"/>
  <circle cx="18.2" cy="112.9" r=".5" fill="red" stroke="#000" stroke-linecap="round" stroke-linejoin="round" stroke-width=".3"/>
  <circle cx="18.6" cy="113.8" r=".5" fill="red" stroke="#000" stroke-linecap="round" stroke-linejoin="round" stroke-width=".3"/>
  <circle cx="19" cy="114.8" r=".5" fill="red" stroke="#000" stroke-linecap="round" stroke-linejoin="round" stroke-width=".3"/>
  <circle cx="19.4" cy="115.8" r=".5" fill="red" stroke="#000" stroke-linecap="round" stroke-linejoin="round" stroke-width=".3"/>
  <circle cx="19.8" cy="116.8" r=".5" fill="red" stroke="#000" stroke-linecap="round" stroke-linejoin="round" stroke-width=".3"/>
  <circle cx="14.1" cy="123.4" r="1.2" fill="#0065b7" stroke="#000" stroke-linecap="round" stroke-linejoin="round" stroke-width=".4"/>
  <path d="M11.9 125.6a1.1 1.1 0 0 0 .6 1.5 1.2 1.2 0 0 0 1.6-.6 1.3 1.3 0 0 0-.7-1.6 1.2 1.2 0 0 0-1.5.7z" fill="red" stroke="#000" stroke-linecap="round" stroke-linejoin="round" stroke-width=".4"/>
  <path d="M14 124.9c-.3.6-.2 1.3.2 1.4s.9-.2 1.1-.8.2-1.3-.2-1.4-.9.2-1.1.8zm-2.2-1c-.3.7-.2 1.3.2 1.5s.9-.2 1.1-.9.2-1.2-.2-1.4a1.1 1.1 0 0 0-1.1.8z" fill="red" stroke="#000" stroke-linecap="round" stroke-linejoin="round" stroke-width=".4"/>
  <path d="M12.9 126.7a.8.8 0 0 1-.6-1m.3-2.1c-.3.1-.7.9-.5 1.2" fill="none" stroke="#000" stroke-linecap="round" stroke-linejoin="round" stroke-width=".4"/>
  <path d="M12.8 124.6c-.3.7-.2 1.3.2 1.5s.9-.2 1.1-.9.2-1.2-.2-1.4a1.1 1.1 0 0 0-1.1.8z" fill="#980805" stroke="#000" stroke-linecap="round" stroke-linejoin="round" stroke-width=".4"/>
  <path d="M13.7 124.3c-.4.1-.7.9-.6 1.3" fill="none" stroke="#000" stroke-linecap="round" stroke-linejoin="round" stroke-width=".4"/>
  <path d="M20.6 108.6a5.4 5.4 0 0 0 2.8 2.4 5.8 5.8 0 0 1 3 2.9s.5-2.9-.7-3.9-2-.4-2-.4.2-.9-1.2-1.5-1.9.5-1.9.5zm0 0a5.4 5.4 0 0 1-3.7-.5 5.5 5.5 0 0 0-4.1-.2s1.7-2.3 3.3-2.1 1.6 1.2 1.6 1.2.5-.8 1.9-.1 1 1.7 1 1.7z" fill="#febf10" stroke="#000" stroke-linecap="round" stroke-linejoin="round" stroke-width=".4"/>
  <path fill="#0065b7" d="M41.1 76.3l.7-4.1 3.5 2.3 12.8 27.8-5.8 2.5-11.2-28.5z"/>
  <path fill="#004da1" d="M41.1 76.3l.7-4.1 13.4 31.3-2.9 1.3-11.2-28.5z"/>
  <path fill="none" stroke="#000" stroke-linecap="round" stroke-linejoin="round" stroke-width=".4" d="M41.1 76.3l.7-4.1 3.5 2.3 12.8 27.8-5.8 2.5-11.2-28.5z"/>
  <path fill="#0065b7" stroke="#000" stroke-linecap="round" stroke-linejoin="round" stroke-width=".4" d="M41.8 72.2l13.3 31.2"/>
  <path d="M54.5 105.3a1.8 1.8 0 0 0 2 1.3c.6-.3.8-1.4.4-2.3s-1.3-1.6-2-1.3-.9 1.3-.4 2.3z" fill="none"/>
  <path d="M53.7 100.1c1.5 1 4.6 1 5.8 3.8s.5 2.9-.6 3.4-.7.7-1.7 1.1-1.1.1-1.9.4-2.2-.5-2.8-1.9.9-5 1.2-6.8z"/>
  <path d="M54.4 105.2c.4 1.1 1.4 1.8 2.1 1.5s.9-1.5.4-2.6c-.4-1.1-1.4-1.8-2.1-1.5s-.9 1.5-.4 2.6z" fill="red" stroke="#000" stroke-linecap="round" stroke-linejoin="round" stroke-width=".55"/>
  <path d="M55.5 103.9c-.6 0 .3 1.8.6 1.6m-.6-2.1c-.1-.2-.4-.2-.6 0a1.5 1.5 0 0 0 0 1.5c.3.6.9 1.4 1.3 1.1" fill="none" stroke="#000" stroke-linecap="round" stroke-linejoin="round" stroke-width=".3"/>
  <path d="M54.2 101.1c.9.4 3.5.9 4.5 3.1s.4 2.4-.4 2.7a.4.4 0 0 1-.6-.2.5.5 0 0 1 .2-.6c.4-.2.2-1.1 0-1.7s-2.7-2.3-3.5-2.6-1.2 2.6-.5 4.3.9 1.3 1.2 1.2a.4.4 0 0 1 .6.2.5.5 0 0 1-.2.6c-.8.3-1.8-.4-2.3-1.6s.6-4.4 1-5.4zm2.3 5.5c.4-.2.8-.1.9.2a.7.7 0 0 1-.5.8c-.4.2-.8.1-.9-.2a.7.7 0 0 1 .5-.8z" fill="#febf10"/>
  <path d="M58.9 104a2.9 2.9 0 0 0 3.8 1.5 2.9 2.9 0 0 0 1.5-3.8 3 3 0 0 0-3.8-1.5 2.9 2.9 0 0 0-1.5 3.8zm-11.2 4.8a2.8 2.8 0 1 0 5.2-2.3 2.9 2.9 0 0 0-3.8-1.5 2.9 2.9 0 0 0-1.4 3.8z" fill="#febf10" stroke="#000" stroke-width=".4"/>
  <path d="M60.8 101a.7.7 0 0 1 1 .5.8.8 0 0 1-.4 1.1 1 1 0 0 1-1.1-.5.8.8 0 0 1 .5-1.1zm.9 2.2a.8.8 0 0 1 1.1.4 1 1 0 0 1-.5 1.1.8.8 0 0 1-1.1-.4.8.8 0 0 1 .5-1.1z" fill="#325723" stroke="#000" stroke-width=".42"/>
  <path d="M63.4 102.1a.9.9 0 1 1-1.6.6.9.9 0 1 1 1.6-.6zm-2.2.9a.8.8 0 0 1-.4 1.1.8.8 0 0 1-1.1-.5.7.7 0 0 1 .4-1 .8.8 0 0 1 1.1.4z" fill="#325723" stroke="#000" stroke-width=".42"/>
  <path d="M60.8 103.2a.8.8 0 0 0 1.5-.7.8.8 0 1 0-1.5.7z" fill="#325723" stroke="#000" stroke-width=".3"/>
  <path d="M49.5 105.8a.8.8 0 0 1 1.1.4.8.8 0 0 1-.4 1.1.8.8 0 0 1-1.1-.4.8.8 0 0 1 .4-1.1zm.9 2.2a.8.8 0 1 1-.4 1.1.8.8 0 0 1 .4-1.1z" fill="#325723" stroke="#000" stroke-width=".42"/>
  <path d="M52.1 106.9a.8.8 0 0 1-.4 1.1.9.9 0 0 1-1.1-.5.8.8 0 0 1 .4-1.1.8.8 0 0 1 1.1.5zm-2.1.9a.8.8 0 0 1-.4 1.1.8.8 0 0 1-1.1-.5.8.8 0 0 1 .4-1.1.9.9 0 0 1 1.1.5z" fill="#325723" stroke="#000" stroke-width=".42"/>
  <path d="M49.5 108a.8.8 0 0 0 1.5-.7.7.7 0 0 0-1-.4.8.8 0 0 0-.5 1.1z" fill="#325723" stroke="#000" stroke-width=".3"/>
  <ellipse cx="60.3" cy="115.4" rx="2.9" ry="8.4" transform="rotate(-23.1 60.05 115.24)" fill="#febf10"/>
  <path d="M63.5 123.1c-1.4.7-4.1-2.3-5.9-6.6s-2.1-8.2-.6-8.8" fill="#d09b07"/>
  <ellipse cx="60.3" cy="115.4" rx="2.9" ry="8.4" transform="rotate(-23.1 60.05 115.24)" fill="none" stroke="#000" stroke-linecap="round" stroke-linejoin="round" stroke-width=".4"/>
  <rect x="58.4" y="119.8" width="6.6" height=".74" rx=".4" ry=".4" transform="rotate(-158.2 61.66 120.15)" fill="#febf10" stroke="#000" stroke-linecap="round" stroke-linejoin="round" stroke-width=".3"/>
  <rect x="57.1" y="117.5" width="8" height=".74" rx=".4" ry=".4" transform="rotate(-158.2 61.07 117.87)" fill="#febf10" stroke="#000" stroke-linecap="round" stroke-linejoin="round" stroke-width=".3"/>
  <circle cx="64.3" cy="120.2" r=".5" fill="red" stroke="#000" stroke-linecap="round" stroke-linejoin="round" stroke-width=".3"/>
  <circle cx="63.3" cy="119.8" r=".5" fill="red" stroke="#000" stroke-linecap="round" stroke-linejoin="round" stroke-width=".3"/>
  <circle cx="62.3" cy="119.4" r=".5" fill="red" stroke="#000" stroke-linecap="round" stroke-linejoin="round" stroke-width=".3"/>
  <circle cx="61.3" cy="119" r=".5" fill="red" stroke="#000" stroke-linecap="round" stroke-linejoin="round" stroke-width=".3"/>
  <circle cx="60.4" cy="118.6" r=".5" fill="red" stroke="#000" stroke-linecap="round" stroke-linejoin="round" stroke-width=".3"/>
  <circle cx="59.4" cy="118.2" r=".5" fill="red" stroke="#000" stroke-linecap="round" stroke-linejoin="round" stroke-width=".3"/>
  <circle cx="58.4" cy="117.8" r=".5" fill="red" stroke="#000" stroke-linecap="round" stroke-linejoin="round" stroke-width=".3"/>
  <rect x="55.8" y="112.2" width="7.4" height=".74" rx=".4" ry=".4" transform="rotate(21.8 59.4 112.7)" fill="#febf10" stroke="#000" stroke-linecap="round" stroke-linejoin="round" stroke-width=".3"/>
  <rect x="56.1" y="114.4" width="8" height=".74" rx=".4" ry=".4" transform="rotate(21.8 60.06 114.72)" fill="#febf10" stroke="#000" stroke-linecap="round" stroke-linejoin="round" stroke-width=".3"/>
  <circle cx="56.9" cy="112.5" r=".5" fill="red" stroke="#000" stroke-linecap="round" stroke-linejoin="round" stroke-width=".3"/>
  <circle cx="57.9" cy="112.9" r=".5" fill="red" stroke="#000" stroke-linecap="round" stroke-linejoin="round" stroke-width=".3"/>
  <circle cx="58.8" cy="113.3" r=".5" fill="red" stroke="#000" stroke-linecap="round" stroke-linejoin="round" stroke-width=".3"/>
  <circle cx="59.8" cy="113.7" r=".5" fill="red" stroke="#000" stroke-linecap="round" stroke-linejoin="round" stroke-width=".3"/>
  <circle cx="60.8" cy="114.1" r=".5" fill="red" stroke="#000" stroke-linecap="round" stroke-linejoin="round" stroke-width=".3"/>
  <circle cx="61.8" cy="114.5" r=".5" fill="red" stroke="#000" stroke-linecap="round" stroke-linejoin="round" stroke-width=".3"/>
  <circle cx="62.8" cy="114.9" r=".5" fill="red" stroke="#000" stroke-linecap="round" stroke-linejoin="round" stroke-width=".3"/>
  <circle cx="63.7" cy="123.4" r="1.2" fill="#0065b7" stroke="#000" stroke-linecap="round" stroke-linejoin="round" stroke-width=".4"/>
  <path d="M63.7 126.6a1.2 1.2 0 0 0 1.6.6 1.1 1.1 0 0 0 .6-1.5 1.4 1.4 0 0 0-1.6-.7 1.2 1.2 0 0 0-.6 1.6z" fill="red" stroke="#000" stroke-linecap="round" stroke-linejoin="round" stroke-width=".4"/>
  <path d="M64.7 124.6c.2.6.8 1 1.1.8s.5-.8.2-1.4-.8-.9-1.2-.8a1.1 1.1 0 0 0-.1 1.4zm-2.3 1c.3.6.8 1 1.2.8s.5-.8.2-1.4-.8-1-1.1-.8-.5.8-.3 1.4z" fill="red" stroke="#000" stroke-linecap="round" stroke-linejoin="round" stroke-width=".4"/>
  <path d="M65.3 126.7a.9.9 0 0 1-1.2-.3m-1.3-1.7c-.2.3.2 1.1.5 1.3" fill="none" stroke="#000" stroke-linecap="round" stroke-linejoin="round" stroke-width=".4"/>
  <path d="M63.6 125.3c.3.6.8 1 1.2.9s.5-.8.2-1.5a1.1 1.1 0 0 0-1.1-.8c-.4.2-.5.8-.3 1.4z" fill="#980805" stroke="#000" stroke-linecap="round" stroke-linejoin="round" stroke-width=".4"/>
  <path d="M64 124.4a1.1 1.1 0 0 0 .6 1.3" fill="none" stroke="#000" stroke-linecap="round" stroke-linejoin="round" stroke-width=".4"/>
  <path d="M57.4 108.6a5.4 5.4 0 0 0 3.6-.4 5.8 5.8 0 0 1 4.2-.2s-1.8-2.3-3.3-2.1-1.7 1.1-1.7 1.1-.5-.7-1.9-.1-.9 1.7-.9 1.7zm-.1 0a5.4 5.4 0 0 1-2.8 2.4 5.8 5.8 0 0 0-3 2.8s-.5-2.8.7-3.8 2-.4 2-.4-.2-.9 1.2-1.5 1.9.5 1.9.5z" fill="#febf10" stroke="#000" stroke-linecap="round" stroke-linejoin="round" stroke-width=".4"/>
  <path fill="#0065b7" d="M45.1 65.4l-3.5 2.3-.7-4.1 11.4-28.4 5.8 2.5-13 27.7z"/>
  <path fill="#004da1" d="M45.1 65.4l-3.5 2.3 13.6-31.2 2.9 1.2-13 27.7z"/>
  <path fill="none" stroke="#000" stroke-linecap="round" stroke-linejoin="round" stroke-width=".4" d="M45.1 65.4l-3.5 2.3-.7-4.1 11.4-28.4 5.8 2.5-13 27.7z"/>
  <path fill="#0065b7" stroke="#000" stroke-linecap="round" stroke-linejoin="round" stroke-width=".4" d="M41.6 67.7l13.6-31.1"/>
  <path d="M57 35.8c.4-1 .2-2-.5-2.3s-1.5.3-1.9 1.3-.2 2 .4 2.3a1.8 1.8 0 0 0 2-1.3z" fill="none"/>
  <path d="M53.7 39.9c-.3-1.7-2.4-4-1.2-6.8s1.8-2.3 2.8-1.9 1 0 2 .5.9.7 1.7 1.1 1.1 1.9.5 3.3-4.3 2.8-5.8 3.8z"/>
  <path d="M57 35.9c.5-1.1.3-2.2-.4-2.5s-1.7.3-2.2 1.4c-.5 1.2-.3 2.3.4 2.6s1.7-.3 2.2-1.5z" fill="red" stroke="#000" stroke-linecap="round" stroke-linejoin="round" stroke-width=".55"/>
  <path d="M55.2 36c.5.5 1.2-1.5.8-1.5m-1.1 1.8c-.1.2.1.5.4.5a1.9 1.9 0 0 0 1.1-1.1c.3-.6.4-1.5-.1-1.6" fill="none" stroke="#000" stroke-linecap="round" stroke-linejoin="round" stroke-width=".3"/>
  <path d="M54.2 38.9c-.4-1-1.9-3.2-.9-5.4s1.4-1.9 2.2-1.6a.4.4 0 0 1 .3.6.5.5 0 0 1-.6.2c-.4-.1-1 .6-1.2 1.2s.2 3.5.4 4.3 2.8-.9 3.6-2.6.3-1.5 0-1.6a.6.6 0 0 1-.3-.6c.1-.2.4-.4.6-.3s.9 1.6.4 2.7-3.6 2.7-4.5 3.1zm2.3-5.4a.8.8 0 0 1-.5-.9.8.8 0 0 1 1-.2c.4.2.6.6.5.8s-.6.4-1 .3z" fill="#febf10"/>
  <path d="M53 33.4a2.9 2.9 0 0 0-5.3-2.2 3 3 0 0 0 1.5 3.8 2.9 2.9 0 0 0 3.8-1.6zm11.2 4.9a2.9 2.9 0 0 0-5.3-2.2 2.9 2.9 0 0 0 1.5 3.7 2.8 2.8 0 0 0 3.8-1.5z" fill="#febf10" stroke="#000" stroke-width=".4"/>
  <path d="M49.6 34.2a.9.9 0 0 1 .6-1.6.9.9 0 1 1-.6 1.6zm.9-2.2a.9.9 0 0 1-.5-1.1.8.8 0 0 1 1.1-.4.8.8 0 0 1 .5 1.1.8.8 0 0 1-1.1.4z" fill="#325723" stroke="#000" stroke-width=".42"/>
  <path d="M48.5 31.5a.8.8 0 0 1 1.1-.4 1 1 0 0 1 .5 1.1.8.8 0 0 1-1.1.4.8.8 0 0 1-.5-1.1zm2.1 1a.9.9 0 0 1 1.6.6.9.9 0 1 1-1.6-.6z" fill="#325723" stroke="#000" stroke-width=".42"/>
  <path d="M51.1 32.6a.7.7 0 0 0-.4-1 .8.8 0 0 0-1.1.4.8.8 0 0 0 .4 1.1.8.8 0 0 0 1.1-.5z" fill="#325723" stroke="#000" stroke-width=".3"/>
  <path d="M60.8 39a.7.7 0 0 1-.5-1 .8.8 0 0 1 1.1-.5 1 1 0 0 1 .5 1.1.8.8 0 0 1-1.1.4zm.9-2.1a.8.8 0 0 1-.4-1.1.7.7 0 0 1 1-.4.8.8 0 0 1 .5 1.1.8.8 0 0 1-1.1.4z" fill="#325723" stroke="#000" stroke-width=".42"/>
  <path d="M59.7 36.4a.8.8 0 0 1 1.1-.4.9.9 0 0 1 .5 1.1.8.8 0 0 1-1.1.4.9.9 0 0 1-.5-1.1zm2.2 1a.7.7 0 0 1 1-.5.8.8 0 0 1 .5 1.1.8.8 0 0 1-1.1.4.7.7 0 0 1-.4-1z" fill="#325723" stroke="#000" stroke-width=".42"/>
  <path d="M62.3 37.5a.8.8 0 0 0-.4-1.1 1 1 0 0 0-1.1.5.8.8 0 0 0 .4 1.1.8.8 0 0 0 1.1-.5z" fill="#325723" stroke="#000" stroke-width=".3"/>
  <ellipse cx="60.4" cy="24.6" rx="8.4" ry="2.9" transform="rotate(-66.4 60.41 24.58)" fill="#febf10"/>
  <path d="M63.7 16.9c1.5.7 1.1 4.6-.7 8.9s-4.5 7.1-6 6.5" fill="#d09b07"/>
  <ellipse cx="60.4" cy="24.6" rx="8.4" ry="2.9" transform="rotate(-66.4 60.41 24.58)" fill="none" stroke="#000" stroke-linecap="round" stroke-linejoin="round" stroke-width=".4"/>
  <rect x="59.5" y="20" width="6.6" height=".74" rx=".4" ry=".4" transform="rotate(68.4 62.78 20.36)" fill="#febf10" stroke="#000" stroke-linecap="round" stroke-linejoin="round" stroke-width=".3"/>
  <rect x="57.6" y="22" width="8" height=".74" rx=".4" ry=".4" transform="rotate(68.4 61.56 22.37)" fill="#febf10" stroke="#000" stroke-linecap="round" stroke-linejoin="round" stroke-width=".3"/>
  <circle cx="61.1" cy="18.4" r=".5" fill="red" stroke="#000" stroke-linecap="round" stroke-linejoin="round" stroke-width=".3"/>
  <circle cx="61.4" cy="19.4" r=".5" fill="red" stroke="#000" stroke-linecap="round" stroke-linejoin="round" stroke-width=".3"/>
  <circle cx="61.8" cy="20.4" r=".5" fill="red" stroke="#000" stroke-linecap="round" stroke-linejoin="round" stroke-width=".3"/>
  <circle cx="62.2" cy="21.4" r=".5" fill="red" stroke="#000" stroke-linecap="round" stroke-linejoin="round" stroke-width=".3"/>
  <circle cx="62.6" cy="22.4" r=".5" fill="red" stroke="#000" stroke-linecap="round" stroke-linejoin="round" stroke-width=".3"/>
  <circle cx="63" cy="23.3" r=".5" fill="red" stroke="#000" stroke-linecap="round" stroke-linejoin="round" stroke-width=".3"/>
  <circle cx="63.4" cy="24.3" r=".5" fill="red" stroke="#000" stroke-linecap="round" stroke-linejoin="round" stroke-width=".3"/>
  <rect x="55.1" y="26.8" width="7.4" height=".74" rx=".4" ry=".4" transform="rotate(-111.6 58.83 27.2)" fill="#febf10" stroke="#000" stroke-linecap="round" stroke-linejoin="round" stroke-width=".3"/>
  <rect x="56" y="24.8" width="8" height=".74" rx=".4" ry=".4" transform="rotate(-111.6 60.03 25.2)" fill="#febf10" stroke="#000" stroke-linecap="round" stroke-linejoin="round" stroke-width=".3"/>
  <circle cx="60.5" cy="29.1" r=".5" fill="red" stroke="#000" stroke-linecap="round" stroke-linejoin="round" stroke-width=".3"/>
  <circle cx="60.2" cy="28.1" r=".5" fill="red" stroke="#000" stroke-linecap="round" stroke-linejoin="round" stroke-width=".3"/>
  <circle cx="59.8" cy="27.1" r=".5" fill="red" stroke="#000" stroke-linecap="round" stroke-linejoin="round" stroke-width=".3"/>
  <circle cx="59.4" cy="26.2" r=".5" fill="red" stroke="#000" stroke-linecap="round" stroke-linejoin="round" stroke-width=".3"/>
  <circle cx="59" cy="25.2" r=".5" fill="red" stroke="#000" stroke-linecap="round" stroke-linejoin="round" stroke-width=".3"/>
  <circle cx="58.6" cy="24.2" r=".5" fill="red" stroke="#000" stroke-linecap="round" stroke-linejoin="round" stroke-width=".3"/>
  <circle cx="58.2" cy="23.2" r=".5" fill="red" stroke="#000" stroke-linecap="round" stroke-linejoin="round" stroke-width=".3"/>
  <circle cx="63.9" cy="16.6" r="1.2" fill="#0065b7" stroke="#000" stroke-linecap="round" stroke-linejoin="round" stroke-width=".4"/>
  <path d="M66.1 14.4a1.1 1.1 0 0 0-.6-1.5 1.2 1.2 0 0 0-1.6.6 1.3 1.3 0 0 0 .7 1.6 1.2 1.2 0 0 0 1.5-.7z" fill="red" stroke="#000" stroke-linecap="round" stroke-linejoin="round" stroke-width=".4"/>
  <path d="M64 15.1c.3-.6.2-1.3-.2-1.4s-.9.2-1.1.8-.2 1.3.2 1.4.9-.2 1.1-.8zm2.2 1c.3-.7.2-1.3-.2-1.5s-.9.2-1.1.9-.2 1.2.2 1.4a1.1 1.1 0 0 0 1.1-.8z" fill="red" stroke="#000" stroke-linecap="round" stroke-linejoin="round" stroke-width=".4"/>
  <path d="M65.1 13.3a.8.8 0 0 1 .6 1m-.3 2.1c.3-.1.7-.9.5-1.2" fill="none" stroke="#000" stroke-linecap="round" stroke-linejoin="round" stroke-width=".4"/>
  <path d="M65.2 15.4c.3-.7.2-1.3-.2-1.5s-.9.2-1.1.9-.2 1.2.2 1.4a1.1 1.1 0 0 0 1.1-.8z" fill="#980805" stroke="#000" stroke-linecap="round" stroke-linejoin="round" stroke-width=".4"/>
  <path d="M64.3 15.7c.4-.1.7-.9.6-1.3" fill="none" stroke="#000" stroke-linecap="round" stroke-linejoin="round" stroke-width=".4"/>
  <path d="M57.4 31.4a5.4 5.4 0 0 0-2.8-2.4 5.8 5.8 0 0 1-3-2.9s-.5 2.9.7 3.9 2 .4 2 .4-.2.9 1.2 1.5 1.9-.5 1.9-.5z" fill="#febf10" stroke="#000" stroke-linecap="round" stroke-linejoin="round" stroke-width=".4"/>
  <path d="M57.4 31.4a5.4 5.4 0 0 1 3.7.5 5.5 5.5 0 0 0 4.1.2s-1.7 2.3-3.3 2.1-1.6-1.2-1.6-1.2-.5.8-1.9.1-1-1.7-1-1.7z" fill="#febf10" stroke="#000" stroke-linecap="round" stroke-linejoin="round" stroke-width=".4"/>
  <path fill="none" stroke="#000" stroke-linecap="round" stroke-linejoin="round" stroke-width=".4" d="M8 7.9h62v124.31H8z"/>
</svg>
