<svg xmlns="http://www.w3.org/2000/svg" viewBox="0 0 78 140">
  <rect width="78" height="140" rx="6" ry="6" fill="#fff"/>
  <path d="M33.4 78.5a6.4 6.4 0 0 1-3.5-2.3 6.3 6.3 0 0 1 4.1-.9 6.4 6.4 0 0 1 3.6 2.3 6.5 6.5 0 0 1-4.2.9zm9.7-3.1a6.4 6.4 0 0 1 4.2.5 6.3 6.3 0 0 1-3.3 2.7 6.8 6.8 0 0 1-4.2-.6 6.9 6.9 0 0 1 3.3-2.6zm1.6-13.9a6.4 6.4 0 0 1 3.6 2.3 6.5 6.5 0 0 1-4.2.9 6.4 6.4 0 0 1-3.5-2.3 6.3 6.3 0 0 1 4.1-.9zm-9.6 3.1a6.4 6.4 0 0 1-4.2-.5 6.3 6.3 0 0 1 3.3-2.7 7 7 0 0 1 4.2.6 6.9 6.9 0 0 1-3.3 2.6z" fill="#325723" stroke="#000" stroke-linecap="round" stroke-linejoin="round" stroke-width=".4"/>
  <path d="M39.2 39.1c-3.4 0-6.1 1.7-6.1 3.8s2.7 3.7 6.1 3.7 6.1-1.6 6.1-3.7-2.8-3.8-6.1-3.8zm0 6.2c-2.5 0-4.5-1.1-4.5-2.5s2-2.6 4.5-2.6 4.4 1.1 4.4 2.6-2 2.5-4.4 2.5z" fill="red"/>
  <ellipse cx="39.2" cy="42.9" rx="6.1" ry="3.8" fill="none" stroke="#000" stroke-linecap="round" stroke-linejoin="round" stroke-width=".4"/>
  <ellipse cx="39.2" cy="42.8" rx="4.5" ry="2.6" fill="none" stroke="#000" stroke-linecap="round" stroke-linejoin="round" stroke-width=".4"/>
  <path d="M44.5 44.1c-.4 3.1 2.3 5.5 2.7 8.3a8.6 8.6 0 0 1-8 10.1 8.5 8.5 0 0 1-8.1-10.1c.5-2.9 2.7-3.9 2.5-8.4l3.6 1.4 2.4.4 3.3-.8z" fill="#325723"/>
  <path d="M39.2 62.5a8.6 8.6 0 0 0 8-10.1c-.4-2.8-3.1-5.2-2.7-8.3l-1.6.9-3.3.8z" fill="#0d3a12"/>
  <path d="M44.5 44.3c-.3 3 2.3 5.3 2.7 8.1a8.6 8.6 0 0 1-8 10.1 8.5 8.5 0 0 1-8.1-10.1c.5-2.9 2.6-3.8 2.5-8.3" fill="none" stroke="#000" stroke-linecap="round" stroke-linejoin="round" stroke-width=".4"/>
  <path d="M21.8 29.3c2.9 0 3.8 3.1 3.8 4.3.1 3.5-2.5 6-6.8 6a7.8 7.8 0 0 1-1.6-15.4l.2 1.1a3.2 3.2 0 0 0-1.8 2.1 5.3 5.3 0 0 0 .7 3.8 1.6 1.6 0 0 1-2.1-.8 4 4 0 0 0 2 3.8s-1.8 1.6-3.2-1.4c0 0-.2 3.9 3.5 3.2 0 0 .2.8-1 1.3a8.9 8.9 0 0 0 5 .3c2.4-.7 1.3-.2 1.8-.7a2.4 2.4 0 0 0-1-3.2s1.2-.6 2.3 1.6c0 0-.3-2.5-1.7-3.6s1-.2 1.4.1a3.1 3.1 0 0 0-1.9-1.5c-1.2-.3-.6-1.2-.3-1.2z" fill="#febf10" stroke="#000" stroke-linecap="round" stroke-linejoin="round" stroke-width=".4"/>
  <ellipse cx="39.5" cy="16.7" rx="3.1" ry="5.2" fill="red"/>
  <path d="M42.6 16.7a6.2 6.2 0 0 0-1-3.4l-.5-.2c-1.2 0-3.1 2.3-3.1 5.2a7.1 7.1 0 0 0 .8 3.4h.7c1.7.1 3.1-2.2 3.1-5z" fill="#980805"/>
  <ellipse cx="39.5" cy="16.7" rx="3.1" ry="5.2" fill="none" stroke="#000" stroke-linecap="round" stroke-linejoin="round" stroke-width=".4"/>
  <path d="M38 12.6s2.8 1.4 4.2 6.5M37.1 14a29 29 0 0 1 4.3 6.7" fill="none" stroke="#000" stroke-linecap="round" stroke-linejoin="round" stroke-width=".4"/>
  <path d="M36.5 15.6s2.8 3.5 3.6 6.1" fill="none" stroke="#000" stroke-linecap="round" stroke-linejoin="round" stroke-width=".3"/>
  <path d="M40.4 11.9s-2.2 1.4-3.8 6m4.8-4.6a29 29 0 0 0-4.3 6.7m5-5.3s-3 4-3.7 6.7" fill="none" stroke="#000" stroke-linecap="round" stroke-linejoin="round" stroke-width=".4"/>
  <path fill="#0065b7" d="M21.9 12.8L19.4 10l-2.5 2.8v31.8h5V12.8z"/>
  <path fill="#004da1" d="M21.9 12.8L19.4 10v34.6h2.5V12.8z"/>
  <path fill="none" stroke="#000" stroke-linecap="round" stroke-linejoin="round" stroke-width=".4" d="M21.9 12.8L19.4 10l-2.5 2.8v31.8h5V12.8z"/>
  <path fill="#0065b7" stroke="#000" stroke-linecap="round" stroke-linejoin="round" stroke-width=".4" d="M19.4 10v34.6"/>
  <path d="M19.4 42.3c-.6 0-1.1.7-1.1 1.6s.5 1.7 1.1 1.7 1.1-.7 1.1-1.7-.5-1.6-1.1-1.6z" fill="none"/>
  <path d="M22.6 44.5c0 1.3-.6 2.4-1.6 2.4s-.7.3-1.6.3-1-.3-1.7-.3-1.6-1.1-1.6-2.4 2.4-3.6 3.3-4.8c.8 1.2 3.2 2.2 3.2 4.8z"/>
  <path d="M20.5 43.8c0-1-.5-1.9-1.1-1.9s-1.2.9-1.2 1.9c0 1 .5 1.9 1.2 1.9s1.2-.9 1.1-1.9z" fill="red" stroke="#000" stroke-linecap="round" stroke-linejoin="round" stroke-width=".55"/>
  <path d="M19.3 44.6c.3.1.4-1.6-.1-1.4m.2 1.8c.4.1.6-.6.6-1.2s-.2-1.1-.5-1.2-.4.1-.5.2" fill="none" stroke="#000" stroke-linecap="round" stroke-linejoin="round" stroke-width=".3"/>
  <path d="M21.9 44.5c0 1-.5 2-1.2 2a.4.4 0 1 1 0-.8c.3 0 .5-.8.5-1.3a4.7 4.7 0 0 0-1.8-3.2c-.5.5-1.9 1.6-1.9 3.2s.3 1.3.6 1.3a.4.4 0 0 1 0 .8c-.8 0-1.2-1-1.2-2s1.9-3.3 2.5-3.9 2.5 1.8 2.5 3.9zM20 46.1a.6.6 0 0 1-.6.5.7.7 0 0 1-.7-.5c0-.3.3-.5.7-.5a.6.6 0 0 1 .6.5z" fill="#febf10"/>
  <path d="M16.6 44.4a2.4 2.4 0 0 0-2.4-2.4 2.3 2.3 0 0 0-2.4 2.4 2.4 2.4 0 0 0 2.4 2.4 2.4 2.4 0 0 0 2.4-2.4zm10.4 0a2.4 2.4 0 0 0-2.4-2.4 2.3 2.3 0 0 0-2.5 2.4 2.5 2.5 0 0 0 4.9 0z" fill="#febf10" stroke="#000" stroke-width=".4"/>
  <path d="M14.9 43.4a.7.7 0 1 1-.7-.7.7.7 0 0 1 .7.7zm0 2a.7.7 0 0 1-.7.7.8.8 0 0 1-.7-.7.7.7 0 0 1 1.4 0z" fill="#325723" stroke="#000" stroke-width=".42"/>
  <path d="M13.2 43.7a.7.7 0 1 1-.7.7.7.7 0 0 1 .7-.7zm2 0a.7.7 0 1 1-.7.7.7.7 0 0 1 .7-.7z" fill="#325723" stroke="#000" stroke-width=".42"/>
  <path d="M14.2 43.7a.7.7 0 0 0-.7.7.7.7 0 1 0 .7-.7z" fill="#325723" stroke="#000" stroke-width=".3"/>
  <path d="M25.3 43.4a.8.8 0 0 1-.8.7.7.7 0 0 1-.7-.7.8.8 0 0 1 .8-.7.8.8 0 0 1 .7.7zm0 2a.8.8 0 0 1-.8.7.8.8 0 0 1-.7-.7.8.8 0 0 1 .8-.7.8.8 0 0 1 .7.7z" fill="#325723" stroke="#000" stroke-width=".42"/>
  <path d="M23.6 43.7a.7.7 0 0 1 .7.7.8.8 0 0 1-.7.7.7.7 0 1 1 0-1.4zm1.9 0a.7.7 0 1 1-.7.7.7.7 0 0 1 .7-.7z" fill="#325723" stroke="#000" stroke-width=".42"/>
  <path d="M24.6 43.7a.8.8 0 0 0-.8.7.7.7 0 0 0 .7.7.8.8 0 0 0 .8-.7.8.8 0 0 0-.7-.7z" fill="#325723" stroke="#000" stroke-width=".3"/>
  <ellipse cx="19.4" cy="53.7" rx="2.4" ry="7.1" fill="#febf10"/>
  <path d="M19.4 60.8c1.3 0 2.4-3.1 2.4-7.1s-1.1-7-2.4-7" fill="#d09b07"/>
  <ellipse cx="19.4" cy="53.7" rx="2.4" ry="7.1" fill="none" stroke="#000" stroke-linecap="round" stroke-linejoin="round" stroke-width=".4"/>
  <rect x="17" y="57.6" width="5.6" height=".62" rx=".3" ry=".3" transform="rotate(-44.9 19.72 57.87)" fill="#febf10" stroke="#000" stroke-linecap="round" stroke-linejoin="round" stroke-width=".3"/>
  <rect x="16.1" y="55.6" width="6.8" height=".62" rx=".3" ry=".3" transform="rotate(-44.9 19.52 55.95)" fill="#febf10" stroke="#000" stroke-linecap="round" stroke-linejoin="round" stroke-width=".3"/>
  <circle cx="17.8" cy="58.8" r=".4" fill="red" stroke="#000" stroke-linecap="round" stroke-linejoin="round" stroke-width=".3"/>
  <circle cx="18.4" cy="58.2" r=".4" fill="red" stroke="#000" stroke-linecap="round" stroke-linejoin="round" stroke-width=".3"/>
  <circle cx="19.1" cy="57.5" r=".4" fill="red" stroke="#000" stroke-linecap="round" stroke-linejoin="round" stroke-width=".3"/>
  <circle cx="19.7" cy="56.9" r=".4" fill="red" stroke="#000" stroke-linecap="round" stroke-linejoin="round" stroke-width=".3"/>
  <circle cx="20.3" cy="56.3" r=".4" fill="red" stroke="#000" stroke-linecap="round" stroke-linejoin="round" stroke-width=".3"/>
  <circle cx="21" cy="55.6" r=".4" fill="red" stroke="#000" stroke-linecap="round" stroke-linejoin="round" stroke-width=".3"/>
  <circle cx="21.6" cy="55" r=".4" fill="red" stroke="#000" stroke-linecap="round" stroke-linejoin="round" stroke-width=".3"/>
  <rect x="15.9" y="50.9" width="6.2" height=".62" rx=".3" ry=".3" transform="rotate(135.1 19 51.22)" fill="#febf10" stroke="#000" stroke-linecap="round" stroke-linejoin="round" stroke-width=".3"/>
  <rect x="15.9" y="52.9" width="6.8" height=".62" rx=".3" ry=".3" transform="rotate(135.1 19.28 53.22)" fill="#febf10" stroke="#000" stroke-linecap="round" stroke-linejoin="round" stroke-width=".3"/>
  <circle cx="21" cy="50.3" r=".4" fill="red" stroke="#000" stroke-linecap="round" stroke-linejoin="round" stroke-width=".3"/>
  <circle cx="20.4" cy="51" r=".4" fill="red" stroke="#000" stroke-linecap="round" stroke-linejoin="round" stroke-width=".3"/>
  <circle cx="19.7" cy="51.6" r=".4" fill="red" stroke="#000" stroke-linecap="round" stroke-linejoin="round" stroke-width=".3"/>
  <circle cx="19.1" cy="52.2" r=".4" fill="red" stroke="#000" stroke-linecap="round" stroke-linejoin="round" stroke-width=".3"/>
  <circle cx="18.5" cy="52.9" r=".4" fill="red" stroke="#000" stroke-linecap="round" stroke-linejoin="round" stroke-width=".3"/>
  <circle cx="17.8" cy="53.5" r=".4" fill="red" stroke="#000" stroke-linecap="round" stroke-linejoin="round" stroke-width=".3"/>
  <circle cx="17.2" cy="54.1" r=".4" fill="red" stroke="#000" stroke-linecap="round" stroke-linejoin="round" stroke-width=".3"/>
  <circle cx="19.4" cy="61.1" r="1.1" fill="#0065b7" stroke="#000" stroke-linecap="round" stroke-linejoin="round" stroke-width=".4"/>
  <path d="M20.4 63.6a1 1 0 0 0-1-1 .9.9 0 0 0-1 1 .9.9 0 0 0 1 1 1 1 0 0 0 1-1z" fill="red" stroke="#000" stroke-linecap="round" stroke-linejoin="round" stroke-width=".4"/>
  <path d="M18.4 61.3c-.4 0-.7.5-.7 1.1s.3 1 .6 1 .7-.4.7-1a1.1 1.1 0 0 0-.6-1.1zm2 .1c-.4 0-.6.4-.6 1s.2 1 .6 1 .6-.4.6-1-.3-1-.6-1z" fill="red" stroke="#000" stroke-linecap="round" stroke-linejoin="round" stroke-width=".4"/>
  <path d="M19.4 61.6c-.4 0-.7.4-.7 1s.3 1 .7 1 .6-.4.6-1-.3-1-.6-1z" fill="#980805" stroke="#000" stroke-linecap="round" stroke-linejoin="round" stroke-width=".4"/>
  <path d="M19.3 47.5a4.2 4.2 0 0 1-2.9.9 4.9 4.9 0 0 0-3.3 1.2s.5-2.4 1.8-2.7 1.7.3 1.7.3.1-.8 1.5-.7 1.2 1 1.2 1zm.1 0a4.3 4.3 0 0 0 3 .9 5.2 5.2 0 0 1 3.3 1.2s-.6-2.4-1.9-2.7-1.7.3-1.7.3-.1-.8-1.4-.7-1.3 1-1.3 1zm16.5-1.8a1 1 0 0 1-1-.9c-.5-7.7-2.6-13.6-6.3-16.8a11.2 11.2 0 0 0-7.7-2.9 1 1 0 0 1-1.1-.9 1.2 1.2 0 0 1 .9-1.1 13.4 13.4 0 0 1 9.2 3.3c4.1 3.6 6.5 10 7 18.2a1 1 0 0 1-.9 1.1z" fill="#febf10" stroke="#000" stroke-linecap="round" stroke-linejoin="round" stroke-width=".4"/>
  <path d="M21 24s14.2 0 14.8 20.6" fill="none" stroke="#000" stroke-linecap="round" stroke-linejoin="round" stroke-width=".4"/>
  <path d="M28.3 22.4c-.6 1-1.7 1.1-3 .4a27.5 27.5 0 0 0-2.8-.9s.8-1.3 3.1-.4c.5.2 1.2.7 1.6.2s-.5-1.2-.9-1.5a2.6 2.6 0 0 1-1-2.9s1.6 1.7 2 2 1.7 2 1 3.1z" fill="red" stroke="#000" stroke-linecap="round" stroke-linejoin="round" stroke-width=".4"/>
  <circle cx="24.8" cy="20.1" r=".9" fill="#0065b7" stroke="#000" stroke-linecap="round" stroke-linejoin="round" stroke-width=".4"/>
  <path d="M41 33.4a.7.7 0 0 0 .6-.4c2.8-7.1 6.9-9.2 7-9.2a.5.5 0 0 0 .2-.8.6.6 0 0 0-.8-.3c-.1.1-4.6 2.3-7.5 9.8a.6.6 0 0 0 .3.8z" fill="red" stroke="#000" stroke-linecap="round" stroke-linejoin="round" stroke-width=".4"/>
  <circle cx="24.8" cy="20.1" r=".3"/>
  <path d="M37.3 33.4a.7.7 0 0 1-.6-.4c-2.8-7.1-6.9-9.2-7-9.2a.5.5 0 0 1-.2-.8.6.6 0 0 1 .8-.3c.1.1 4.6 2.3 7.5 9.8a.6.6 0 0 1-.3.8z" fill="red" stroke="#000" stroke-linecap="round" stroke-linejoin="round" stroke-width=".4"/>
  <path d="M39 22.8a2 2 0 0 0-1.9 1.8c-.2.8.1 1.8.8 1.7s.3-.1.4.3 1.6.7 1.9-.4c.6.5 1.2-.4 1.1-1.3s-.8-2-1.6-2zm-1.8.4a2.5 2.5 0 0 0-2.5 1.9c-.2.6-.3 1.5.3 1.5s.5-.7.8-.3 1 .5 1.1-.2a3.8 3.8 0 0 1 .6-2.6.2.2 0 0 0-.3-.3zm3.6 0c0 .5.3.7.5 1.1s0 1.4.2 2.1.8.2 1.1-.1.5.5.8.3.4-1.1.2-1.6a2.6 2.6 0 0 0-2.7-1.8z" fill="#325723" stroke="#000" stroke-linecap="round" stroke-linejoin="round" stroke-width=".4"/>
  <path d="M48.3 14.3a1.5 1.5 0 0 0-1 .3l-.2-1c-2.5.1-2.8 3.2-2.8 3.2a5.2 5.2 0 0 0-.8-2.7s-1 1-1.1 4.5c0 1.5-.5 1.4-.6 1.1s-.3-1.2-1-1.2-.6.3-.3 1.7 0 1.2-.2 1.3a1 1 0 0 1-.6.3c-.3 0-1.1-.2-.8-1.6s-.3-1.7-.3-1.7-.9 1-1 1.3-.5.4-.4-1.2-.3-2-.3-2l-.7.4c-.3-2.4-1.3-2.9-1.3-2.9a5.9 5.9 0 0 0-.9 2.7s-.3-3.1-2.8-3.2v1a2 2 0 0 0-1.1-.3 1.8 1.8 0 0 0-1.8 1.7 1.8 1.8 0 0 0 1.7 1.8 1 1 0 0 0 .8-1.5h.3a1.7 1.7 0 0 1 2.2.9c.7 1.6 1.1 6.2 6 6.1h.9c3.8-.5 4.2-4.5 4.9-6a1.7 1.7 0 0 1 2.2-.9h.2a1 1 0 0 0 .8 1.5 1.8 1.8 0 0 0 1.8-1.9 1.8 1.8 0 0 0-1.8-1.7z" fill="#febf10"/>
  <path d="M47.3 16.4a1.7 1.7 0 0 0-2.2.9c-.7 1.5-1.1 5.5-4.9 6h-.9c-4.9.1-5.3-4.5-6-6.1a1.7 1.7 0 0 0-2.2-.9" fill="none" stroke="#000" stroke-linecap="round" stroke-linejoin="round" stroke-width=".4"/>
  <path d="M48.5 16c-1.5-.4-1.5 1.8-.2 1.8a1.8 1.8 0 0 0 1.8-1.8 1.8 1.8 0 0 0-1.8-1.7 1.5 1.5 0 0 0-1 .3l-.2-1c-2.5.1-2.8 3.2-2.8 3.2a5.2 5.2 0 0 0-.8-2.7s-1 1-1.1 4.5c0 1.5-.5 1.4-.6 1.1s-.3-1.2-1-1.2-.6.3-.3 1.7 0 1.2-.2 1.3a1 1 0 0 1-.6.3c-.3 0-1.1-.2-.8-1.6s-.3-1.7-.3-1.7-.9 1-1 1.3-.5.4-.4-1.2-.3-2-.3-2l-.7.4c-.3-2.4-1.3-2.9-1.3-2.9a5.9 5.9 0 0 0-.9 2.7s-.3-3.1-2.8-3.2v1a2 2 0 0 0-1.1-.3 1.8 1.8 0 0 0-1.8 1.7 1.8 1.8 0 0 0 1.7 1.8c1.3 0 1.3-2.2-.2-1.8" fill="none" stroke="#000" stroke-linecap="round" stroke-linejoin="round" stroke-width=".4"/>
  <circle cx="29.4" cy="23" r="1" fill="#0065b7" stroke="#000" stroke-linecap="round" stroke-linejoin="round" stroke-width=".4"/>
  <circle cx="29.4" cy="23" r=".3"/>
  <circle cx="17.6" cy="24.6" r="1.1" fill="red" stroke="#000" stroke-linecap="round" stroke-linejoin="round" stroke-width=".4"/>
  <circle cx="17.6" cy="24.6" r=".3"/>
  <path fill="#0065b7" d="M41.6 31.7l-2.5-2.8-2.5 2.8v13.6h5V31.7z"/>
  <path fill="#004da1" d="M41.6 31.7l-2.5-2.8v16.4h2.5V31.7z"/>
  <path fill="none" stroke="#000" stroke-linecap="round" stroke-linejoin="round" stroke-width=".4" d="M41.6 31.7l-2.5-2.8-2.5 2.8v13.6h5V31.7z"/>
  <path fill="#0065b7" stroke="#000" stroke-linecap="round" stroke-linejoin="round" stroke-width=".4" d="M39.1 28.9v16.3"/>
  <path d="M41.6 51.4a3.9 3.9 0 0 1 2.6 1s-.4-2-1.5-2.2-1.3.2-1.3.2-.1-.6-1.2-.6h-.4v-1.1a.7.7 0 0 0-.6-.7c-.4 0-.6.3-.6.7v1.2h-.5c-1 0-1.1.6-1.1.6s-.3-.5-1.4-.2-1.5 2.2-1.5 2.2a4 4 0 0 1 2.7-1 4 4 0 0 0 1.8-.4v1.5a2 2 0 0 0-1.4 1.9 2 2 0 0 0 4 0 2 2 0 0 0-1.4-1.9V51a4 4 0 0 0 1.8.4zm14.9-22.1c-2.9 0-3.7 3.1-3.8 4.3-.1 3.5 2.5 6 6.8 6a7.8 7.8 0 0 0 1.6-15.4l-.2 1.1a3.2 3.2 0 0 1 1.8 2.1 5.3 5.3 0 0 1-.7 3.8 1.6 1.6 0 0 0 2.1-.8 4 4 0 0 1-2 3.8s1.8 1.6 3.2-1.4c0 0 .2 3.9-3.5 3.2 0 0-.2.8 1 1.3a8.9 8.9 0 0 1-5 .3c-2.4-.7-1.3-.2-1.8-.7a2.4 2.4 0 0 1 1-3.2s-1.2-.6-2.3 1.6c0 0 .3-2.5 1.7-3.6s-1-.2-1.4.1a3.1 3.1 0 0 1 1.9-1.5c1.2-.3.6-1.2.3-1.2z" fill="#febf10" stroke="#000" stroke-linecap="round" stroke-linejoin="round" stroke-width=".4"/>
  <path d="M38.9 67.7l1.1.9c1.5 1.1 3.4 2.5 3.4 4.7a4.1 4.1 0 0 1-4.1 4.2 1.4 1.4 0 0 1-1.5-1.4 1.6 1.6 0 0 1 1.4-1.6 1.2 1.2 0 0 0 1.2-1.2c0-.7-1.1-1.5-2.2-2.3S35 68.6 35 66.5a4.2 4.2 0 0 1 1.1-2.9 4 4 0 0 1 3.1-1.3 1.5 1.5 0 0 1 1.5 1.5 1.5 1.5 0 0 1-1.4 1.5 1.1 1.1 0 0 0-1 .4 1 1 0 0 0-.3.8c0 .4.4.8.9 1.2" fill="red" stroke="#000" stroke-linecap="round" stroke-linejoin="round" stroke-width=".4"/>
  <path fill="#0065b7" d="M61.4 12.8L58.9 10l-2.5 2.8v31.8h5V12.8z"/>
  <path fill="#004da1" d="M61.4 12.8L58.9 10v34.6h2.5V12.8z"/>
  <path fill="none" stroke="#000" stroke-linecap="round" stroke-linejoin="round" stroke-width=".4" d="M61.4 12.8L58.9 10l-2.5 2.8v31.8h5V12.8z"/>
  <path fill="#0065b7" stroke="#000" stroke-linecap="round" stroke-linejoin="round" stroke-width=".4" d="M58.9 10v34.6"/>
  <path d="M57.8 43.9c0 1 .5 1.7 1.1 1.7s1.1-.8 1.1-1.7-.5-1.6-1.1-1.6-1.1.7-1.1 1.6z" fill="none"/>
  <path d="M58.9 39.7c.9 1.2 3.3 2.2 3.3 4.8s-.6 2.4-1.6 2.4-.8.3-1.7.3-.9-.3-1.6-.3-1.6-1.1-1.6-2.4 2.4-3.6 3.2-4.8z"/>
  <path d="M57.8 43.8c0 1 .5 1.9 1.1 1.9s1.2-.9 1.2-1.9c0-1-.5-1.9-1.2-1.9s-1.1.9-1.1 1.9z" fill="red" stroke="#000" stroke-linecap="round" stroke-linejoin="round" stroke-width=".55"/>
  <path d="M59.1 43.2c-.5-.2-.4 1.5-.1 1.4m.3-1.8c-.1-.1-.3-.3-.5-.2s-.5.6-.5 1.2.2 1.3.6 1.2" fill="none" stroke="#000" stroke-linecap="round" stroke-linejoin="round" stroke-width=".3"/>
  <path d="M58.9 40.6c.6.6 2.5 1.8 2.5 3.9s-.4 2-1.2 2a.4.4 0 0 1 0-.8c.3 0 .6-.8.6-1.3s-1.4-2.7-1.9-3.2a4.7 4.7 0 0 0-1.8 3.2c0 .5.2 1.3.5 1.3a.4.4 0 0 1 0 .8c-.7 0-1.2-1-1.2-2s1.9-3.3 2.5-3.9zm0 5c.4 0 .7.2.7.5a.7.7 0 0 1-.7.5.6.6 0 0 1-.6-.5.6.6 0 0 1 .6-.5z" fill="#febf10"/>
  <path d="M61.7 44.4a2.4 2.4 0 0 0 2.4 2.4 2.4 2.4 0 0 0 2.4-2.4 2.3 2.3 0 0 0-2.4-2.4 2.4 2.4 0 0 0-2.4 2.4zm-10.4 0a2.5 2.5 0 0 0 4.9 0 2.3 2.3 0 0 0-2.5-2.4 2.4 2.4 0 0 0-2.4 2.4z" fill="#febf10" stroke="#000" stroke-width=".4"/>
  <path d="M64.1 42.7a.7.7 0 1 1-.7.7.7.7 0 0 1 .7-.7zm0 2a.7.7 0 0 1 .7.7.8.8 0 0 1-.7.7.7.7 0 0 1 0-1.4z" fill="#325723" stroke="#000" stroke-width=".42"/>
  <path d="M65.8 44.4a.7.7 0 1 1-.7-.7.7.7 0 0 1 .7.7zm-2 0a.7.7 0 1 1-.7-.7.7.7 0 0 1 .7.7z" fill="#325723" stroke="#000" stroke-width=".42"/>
  <path d="M63.4 44.4a.7.7 0 1 0 1.4 0 .7.7 0 1 0-1.4 0z" fill="#325723" stroke="#000" stroke-width=".3"/>
  <path d="M53.7 42.7a.8.8 0 0 1 .8.7.7.7 0 1 1-1.4 0 .6.6 0 0 1 .6-.7zm0 2a.8.8 0 0 1 .8.7.8.8 0 0 1-.7.7.7.7 0 0 1-.7-.7.6.6 0 0 1 .6-.7z" fill="#325723" stroke="#000" stroke-width=".42"/>
  <path d="M55.4 44.4a.7.7 0 0 1-.7.7.8.8 0 0 1-.7-.7.7.7 0 0 1 1.4 0zm-1.9 0a.7.7 0 1 1-.7-.7.7.7 0 0 1 .7.7z" fill="#325723" stroke="#000" stroke-width=".42"/>
  <path d="M53.1 44.4a.7.7 0 1 0 1.4 0 .8.8 0 0 0-.8-.7.6.6 0 0 0-.6.7z" fill="#325723" stroke="#000" stroke-width=".3"/>
  <ellipse cx="58.9" cy="53.7" rx="2.4" ry="7.1" fill="#febf10"/>
  <path d="M58.9 60.8c-1.3 0-2.4-3.1-2.4-7.1s1.1-7 2.4-7" fill="#d09b07"/>
  <ellipse cx="58.9" cy="53.7" rx="2.4" ry="7.1" fill="none" stroke="#000" stroke-linecap="round" stroke-linejoin="round" stroke-width=".4"/>
  <rect x="55.7" y="57.6" width="5.6" height=".62" rx=".3" ry=".3" transform="rotate(-135.1 58.51 57.89)" fill="#febf10" stroke="#000" stroke-linecap="round" stroke-linejoin="round" stroke-width=".3"/>
  <rect x="55.4" y="55.6" width="6.8" height=".62" rx=".3" ry=".3" transform="rotate(-135.1 58.82 55.95)" fill="#febf10" stroke="#000" stroke-linecap="round" stroke-linejoin="round" stroke-width=".3"/>
  <circle cx="60.5" cy="58.8" r=".4" fill="red" stroke="#000" stroke-linecap="round" stroke-linejoin="round" stroke-width=".3"/>
  <circle cx="59.9" cy="58.2" r=".4" fill="red" stroke="#000" stroke-linecap="round" stroke-linejoin="round" stroke-width=".3"/>
  <circle cx="59.2" cy="57.5" r=".4" fill="red" stroke="#000" stroke-linecap="round" stroke-linejoin="round" stroke-width=".3"/>
  <circle cx="58.6" cy="56.9" r=".4" fill="red" stroke="#000" stroke-linecap="round" stroke-linejoin="round" stroke-width=".3"/>
  <circle cx="58" cy="56.3" r=".4" fill="red" stroke="#000" stroke-linecap="round" stroke-linejoin="round" stroke-width=".3"/>
  <circle cx="57.3" cy="55.6" r=".4" fill="red" stroke="#000" stroke-linecap="round" stroke-linejoin="round" stroke-width=".3"/>
  <circle cx="56.7" cy="55" r=".4" fill="red" stroke="#000" stroke-linecap="round" stroke-linejoin="round" stroke-width=".3"/>
  <rect x="56.2" y="50.9" width="6.2" height=".62" rx=".3" ry=".3" transform="rotate(44.9 59.25 51.17)" fill="#febf10" stroke="#000" stroke-linecap="round" stroke-linejoin="round" stroke-width=".3"/>
  <rect x="55.6" y="52.9" width="6.8" height=".62" rx=".3" ry=".3" transform="rotate(44.9 58.93 53.14)" fill="#febf10" stroke="#000" stroke-linecap="round" stroke-linejoin="round" stroke-width=".3"/>
  <circle cx="57.3" cy="50.3" r=".4" fill="red" stroke="#000" stroke-linecap="round" stroke-linejoin="round" stroke-width=".3"/>
  <circle cx="57.9" cy="51" r=".4" fill="red" stroke="#000" stroke-linecap="round" stroke-linejoin="round" stroke-width=".3"/>
  <circle cx="58.6" cy="51.6" r=".4" fill="red" stroke="#000" stroke-linecap="round" stroke-linejoin="round" stroke-width=".3"/>
  <circle cx="59.2" cy="52.2" r=".4" fill="red" stroke="#000" stroke-linecap="round" stroke-linejoin="round" stroke-width=".3"/>
  <circle cx="59.8" cy="52.9" r=".4" fill="red" stroke="#000" stroke-linecap="round" stroke-linejoin="round" stroke-width=".3"/>
  <circle cx="60.5" cy="53.5" r=".4" fill="red" stroke="#000" stroke-linecap="round" stroke-linejoin="round" stroke-width=".3"/>
  <circle cx="61.1" cy="54.1" r=".4" fill="red" stroke="#000" stroke-linecap="round" stroke-linejoin="round" stroke-width=".3"/>
  <circle cx="58.9" cy="61.1" r="1.1" fill="#0065b7" stroke="#000" stroke-linecap="round" stroke-linejoin="round" stroke-width=".4"/>
  <path d="M57.9 63.6a1 1 0 0 0 1 1 .9.9 0 0 0 1-1 .9.9 0 0 0-1-1 1 1 0 0 0-1 1z" fill="red" stroke="#000" stroke-linecap="round" stroke-linejoin="round" stroke-width=".4"/>
  <path d="M59.3 62.4c0 .6.3 1 .7 1s.6-.5.6-1-.3-1.1-.7-1.1a1.1 1.1 0 0 0-.6 1.1zm-2 0c0 .6.3 1 .6 1s.7-.4.7-1-.3-1-.7-1-.6.4-.6 1z" fill="red" stroke="#000" stroke-linecap="round" stroke-linejoin="round" stroke-width=".4"/>
  <path d="M58.3 62.6c0 .6.3 1 .6 1s.7-.4.7-1-.3-1-.7-1-.6.4-.6 1z" fill="#980805" stroke="#000" stroke-linecap="round" stroke-linejoin="round" stroke-width=".4"/>
  <path d="M59 47.5a4.3 4.3 0 0 0 3 .9 4.8 4.8 0 0 1 3.2 1.2s-.5-2.4-1.8-2.7-1.7.3-1.7.3-.1-.8-1.5-.7-1.2 1-1.2 1zm-.1 0a4.3 4.3 0 0 1-3 .9 5.2 5.2 0 0 0-3.3 1.2s.6-2.4 1.9-2.7 1.7.3 1.7.3.1-.8 1.4-.7 1.3 1 1.3 1z" fill="#febf10" stroke="#000" stroke-linecap="round" stroke-linejoin="round" stroke-width=".4"/>
  <path fill="#0065b7" d="M65.5 72.6l2.8-2.5-2.8-2.5H29.6v5h35.9z"/>
  <path fill="#004da1" d="M65.5 72.6l2.8-2.5-38.7-.1v2.6h35.9z"/>
  <path fill="none" stroke="#000" stroke-linecap="round" stroke-linejoin="round" stroke-width=".4" d="M65.5 72.6l2.8-2.5-2.8-2.5H29.6v5h35.9z"/>
  <path fill="#0065b7" stroke="#000" stroke-linecap="round" stroke-linejoin="round" stroke-width=".4" d="M68.3 70.1H29.7"/>
  <path d="M30.3 69c-.9 0-1.6.5-1.6 1.1s.8 1.1 1.7 1.1 1.6-.5 1.6-1.1-.7-1.1-1.7-1.1z" fill="none"/>
  <path d="M34.6 70.1c-1.2.8-2.3 3.2-4.8 3.2s-2.5-.6-2.5-1.5-.3-.8-.3-1.7.3-.9.3-1.7 1.2-1.5 2.5-1.5 3.6 2.4 4.8 3.2z"/>
  <path d="M30.5 68.9c-1.1 0-1.9.6-1.9 1.2s.8 1.2 1.9 1.2c1 0 1.9-.5 1.9-1.2s-.9-1.2-1.9-1.2z" fill="red" stroke="#000" stroke-linecap="round" stroke-linejoin="round" stroke-width=".55"/>
  <path d="M31.1 70.2c.2-.5-1.5-.4-1.4 0m1.8.2a.3.3 0 0 0 .2-.4 1.4 1.4 0 0 0-1.2-.5c-.6 0-1.4.1-1.2.6" fill="none" stroke="#000" stroke-linecap="round" stroke-linejoin="round" stroke-width=".3"/>
  <path d="M33.7 70.1c-.6.6-1.8 2.5-3.9 2.5s-2-.5-2-1.2a.4.4 0 0 1 .8 0c0 .3.8.5 1.3.5s2.6-1.3 3.2-1.8-1.7-1.8-3.2-1.8-1.3.2-1.3.5a.4.4 0 0 1-.8 0c0-.7.9-1.2 2-1.2s3.3 1.9 3.9 2.5zm-5 0c0 .4-.2.7-.5.7s-.5-.3-.5-.7.2-.7.5-.7.5.3.5.7z" fill="#febf10"/>
  <path d="M29.9 72.9a2.4 2.4 0 0 0-2.4 2.4 2.4 2.4 0 0 0 2.4 2.4 2.4 2.4 0 0 0 0-4.8zm0-10.4a2.4 2.4 0 0 0-2.4 2.5 2.4 2.4 0 0 0 2.4 2.4 2.5 2.5 0 0 0 0-4.9z" fill="#febf10" stroke="#000" stroke-width=".4"/>
  <path d="M31.6 75.3a.7.7 0 1 1-.7-.7.7.7 0 0 1 .7.7zm-2 0a.7.7 0 1 1-.7-.7.7.7 0 0 1 .7.7z" fill="#325723" stroke="#000" stroke-width=".42"/>
  <path d="M29.9 77a.7.7 0 1 1 .7-.7.7.7 0 0 1-.7.7zm0-2a.7.7 0 1 1 .7-.7.7.7 0 0 1-.7.7z" fill="#325723" stroke="#000" stroke-width=".42"/>
  <path d="M29.9 74.6a.7.7 0 1 0 0 1.4.7.7 0 0 0 0-1.4z" fill="#325723" stroke="#000" stroke-width=".3"/>
  <path d="M31.6 64.9a.7.7 0 1 1-1.4 0 .8.8 0 0 1 .7-.7.7.7 0 0 1 .7.7zm-2 0a.7.7 0 1 1-1.4 0 .8.8 0 0 1 .7-.7.7.7 0 0 1 .7.7z" fill="#325723" stroke="#000" stroke-width=".42"/>
  <path d="M29.9 66.6a.7.7 0 1 1 .7-.7.7.7 0 0 1-.7.7zm0-1.9a.8.8 0 0 1-.7-.7.8.8 0 0 1 .7-.8.8.8 0 0 1 .7.7.8.8 0 0 1-.7.8z" fill="#325723" stroke="#000" stroke-width=".42"/>
  <path d="M29.9 64.2a.8.8 0 0 0-.7.7.7.7 0 0 0 .7.7.7.7 0 0 0 0-1.4z" fill="#325723" stroke="#000" stroke-width=".3"/>
  <ellipse cx="20.5" cy="70.1" rx="7.1" ry="2.4" fill="#febf10"/>
  <path d="M13.4 70.1c0-1.3 3.2-2.4 7.1-2.4s7.1 1.1 7.1 2.4" fill="#d09b07"/>
  <ellipse cx="20.5" cy="70.1" rx="7.1" ry="2.4" fill="none" stroke="#000" stroke-linecap="round" stroke-linejoin="round" stroke-width=".4"/>
  <rect x="13.6" y="69.4" width="5.6" height=".62" rx=".3" ry=".3" transform="rotate(-45.1 16.47 69.8)" fill="#febf10" stroke="#000" stroke-linecap="round" stroke-linejoin="round" stroke-width=".3"/>
  <rect x="15" y="69.7" width="6.8" height=".62" rx=".3" ry=".3" transform="rotate(-45.1 18.36 70.02)" fill="#febf10" stroke="#000" stroke-linecap="round" stroke-linejoin="round" stroke-width=".3"/>
  <circle cx="15.5" cy="71.7" r=".4" fill="red" stroke="#000" stroke-linecap="round" stroke-linejoin="round" stroke-width=".3"/>
  <circle cx="16.1" cy="71.1" r=".4" fill="red" stroke="#000" stroke-linecap="round" stroke-linejoin="round" stroke-width=".3"/>
  <circle cx="16.8" cy="70.4" r=".4" fill="red" stroke="#000" stroke-linecap="round" stroke-linejoin="round" stroke-width=".3"/>
  <circle cx="17.4" cy="69.8" r=".4" fill="red" stroke="#000" stroke-linecap="round" stroke-linejoin="round" stroke-width=".3"/>
  <circle cx="18" cy="69.2" r=".4" fill="red" stroke="#000" stroke-linecap="round" stroke-linejoin="round" stroke-width=".3"/>
  <circle cx="18.7" cy="68.5" r=".4" fill="red" stroke="#000" stroke-linecap="round" stroke-linejoin="round" stroke-width=".3"/>
  <circle cx="19.3" cy="67.9" r=".4" fill="red" stroke="#000" stroke-linecap="round" stroke-linejoin="round" stroke-width=".3"/>
  <rect x="19.9" y="70.1" width="6.2" height=".62" rx=".3" ry=".3" transform="rotate(134.9 23.1 70.44)" fill="#febf10" stroke="#000" stroke-linecap="round" stroke-linejoin="round" stroke-width=".3"/>
  <rect x="17.7" y="69.9" width="6.8" height=".62" rx=".3" ry=".3" transform="rotate(134.9 21.11 70.14)" fill="#febf10" stroke="#000" stroke-linecap="round" stroke-linejoin="round" stroke-width=".3"/>
  <circle cx="24" cy="68.5" r=".4" fill="red" stroke="#000" stroke-linecap="round" stroke-linejoin="round" stroke-width=".3"/>
  <circle cx="23.3" cy="69.1" r=".4" fill="red" stroke="#000" stroke-linecap="round" stroke-linejoin="round" stroke-width=".3"/>
  <circle cx="22.7" cy="69.7" r=".4" fill="red" stroke="#000" stroke-linecap="round" stroke-linejoin="round" stroke-width=".3"/>
  <circle cx="22.1" cy="70.4" r=".4" fill="red" stroke="#000" stroke-linecap="round" stroke-linejoin="round" stroke-width=".3"/>
  <circle cx="21.4" cy="71" r=".4" fill="red" stroke="#000" stroke-linecap="round" stroke-linejoin="round" stroke-width=".3"/>
  <circle cx="20.8" cy="71.6" r=".4" fill="red" stroke="#000" stroke-linecap="round" stroke-linejoin="round" stroke-width=".3"/>
  <circle cx="20.2" cy="72.3" r=".4" fill="red" stroke="#000" stroke-linecap="round" stroke-linejoin="round" stroke-width=".3"/>
  <circle cx="13.2" cy="70.1" r="1.1" fill="#0065b7" stroke="#000" stroke-linecap="round" stroke-linejoin="round" stroke-width=".4"/>
  <path d="M10.7 69.1a1 1 0 0 0-1 1 .9.9 0 0 0 1 1 1 1 0 0 0 1-1 1.1 1.1 0 0 0-1-1z" fill="red" stroke="#000" stroke-linecap="round" stroke-linejoin="round" stroke-width=".4"/>
  <path d="M11.9 70.5c-.6 0-1 .3-1 .7s.5.6 1 .6 1.1-.4 1-.7-.4-.6-1-.6zm0-2c-.6 0-1 .2-1 .6s.4.6 1 .6 1-.3 1-.6-.4-.6-1-.6z" fill="red" stroke="#000" stroke-linecap="round" stroke-linejoin="round" stroke-width=".4"/>
  <path d="M11.7 69.5c-.6 0-1 .3-1 .6s.4.6 1 .6 1-.2 1-.6-.4-.6-1-.6z" fill="#980805" stroke="#000" stroke-linecap="round" stroke-linejoin="round" stroke-width=".4"/>
  <path d="M26.8 70.1a4.7 4.7 0 0 0-.9 3 4.9 4.9 0 0 1-1.2 3.3s2.4-.6 2.7-1.9-.3-1.6-.3-1.6.8-.1.7-1.5-1-1.3-1-1.3zm0 0a4.7 4.7 0 0 1-.9-3 5.2 5.2 0 0 0-1.2-3.3s2.4.6 2.7 1.9-.3 1.6-.3 1.6.8.2.7 1.5-1 1.3-1 1.3zm15.6-24.4a1 1 0 0 0 1-.9c.5-7.7 2.6-13.6 6.3-16.8a11.3 11.3 0 0 1 7.7-2.9 1 1 0 0 0 1.1-.9 1.2 1.2 0 0 0-.9-1.1 13.4 13.4 0 0 0-9.2 3.3c-4.1 3.6-6.5 10-7 18.2a1 1 0 0 0 .9 1.1z" fill="#febf10" stroke="#000" stroke-linecap="round" stroke-linejoin="round" stroke-width=".4"/>
  <path d="M57.3 24s-14.2 0-14.8 20.6" fill="none" stroke="#000" stroke-linecap="round" stroke-linejoin="round" stroke-width=".4"/>
  <path d="M50 22.4c.6 1 1.7 1.1 3 .4a27.5 27.5 0 0 1 2.8-.9s-.8-1.3-3.1-.4c-.5.2-1.2.7-1.6.2s.5-1.2.9-1.5a2.6 2.6 0 0 0 1-2.9l-2 2c-1.3.9-1.7 2-1 3.1z" fill="red" stroke="#000" stroke-linecap="round" stroke-linejoin="round" stroke-width=".4"/>
  <circle cx="53.5" cy="20.1" r=".9" fill="#0065b7" stroke="#000" stroke-linecap="round" stroke-linejoin="round" stroke-width=".4"/>
  <circle cx="53.5" cy="20.1" r=".3"/>
  <circle cx="48.9" cy="23" r="1" fill="#0065b7" stroke="#000" stroke-linecap="round" stroke-linejoin="round" stroke-width=".4"/>
  <circle cx="48.9" cy="23" r=".3"/>
  <circle cx="60.7" cy="24.6" r="1.1" fill="red" stroke="#000" stroke-linecap="round" stroke-linejoin="round" stroke-width=".4"/>
  <circle cx="60.7" cy="24.6" r=".3"/>
  <path d="M43.6 42.8c0 1.4-2 2.5-4.4 2.5s-4.2-1-4.5-2.3h-1.6c.2 2 2.9 3.5 6.1 3.5s6.1-1.6 6.1-3.7h-1.7z" fill="red"/>
  <path d="M45.2 42.2c0 .2.1.5.1.7 0 2.1-2.8 3.7-6.1 3.7s-6.1-1.6-6.1-3.7v-.4" fill="none" stroke="#000" stroke-linecap="round" stroke-linejoin="round" stroke-width=".4"/>
  <path d="M43.6 42.8c0 1.4-2 2.5-4.4 2.5s-4.5-1.1-4.5-2.5" fill="none" stroke="#000" stroke-linecap="round" stroke-linejoin="round" stroke-width=".4"/>
  <path d="M39.5 67.7c.5-.4.9-.8.9-1.2a1 1 0 0 0-.3-.8 1.1 1.1 0 0 0-1-.4v-3a4 4 0 0 1 3.1 1.3 4.2 4.2 0 0 1 1.1 2.9c0 2.1-1.7 3.4-3.2 4.5S38 72.6 38 73.3a1.2 1.2 0 0 0 1.2 1.2l-.3 3.1a4.4 4.4 0 0 1-3.9-4.3c0-2.2 1.9-3.6 3.4-4.7l1.1-.9" fill="red"/>
  <path d="M39.1 65.3a1.1 1.1 0 0 1 1 .4 1 1 0 0 1 .3.8c0 .4-.4.8-.9 1.2" fill="none" stroke="#000" stroke-linecap="round" stroke-linejoin="round" stroke-width=".4"/>
  <path d="M39.2 74.5a1.2 1.2 0 0 1-1.2-1.2c0-.7 1.1-1.5 2.2-2.3s3.2-2.4 3.2-4.5a4.2 4.2 0 0 0-1.1-2.9 4 4 0 0 0-3.1-1.3" fill="none" stroke="#000" stroke-linecap="round" stroke-linejoin="round" stroke-width=".4"/>
  <path d="M39.5 67.7l-1.1.9c-1.5 1.1-3.4 2.5-3.4 4.7a4.3 4.3 0 0 0 4 4.2" fill="none" stroke="#000" stroke-linecap="round" stroke-linejoin="round" stroke-width=".4"/>
  <path d="M39 100.9c3.4 0 6.1-1.7 6.1-3.8s-2.7-3.7-6.1-3.7-6.1 1.6-6.1 3.7 2.7 3.8 6.1 3.8zm0-6.2c2.5 0 4.5 1.1 4.5 2.5s-2 2.6-4.5 2.6-4.5-1.1-4.5-2.6 2-2.5 4.5-2.5z" fill="red"/>
  <ellipse cx="39" cy="97.1" rx="6.1" ry="3.7" fill="none" stroke="#000" stroke-linecap="round" stroke-linejoin="round" stroke-width=".4"/>
  <ellipse cx="39" cy="97.2" rx="4.5" ry="2.6" fill="none" stroke="#000" stroke-linecap="round" stroke-linejoin="round" stroke-width=".4"/>
  <path d="M33.7 95.9c.4-3.1-2.3-5.5-2.8-8.3A8.7 8.7 0 0 1 39 77.5a8.5 8.5 0 0 1 8.1 10.1c-.5 2.9-2.7 3.9-2.5 8.4L41 94.6l-2.4-.4-3.3.8z" fill="#325723"/>
  <path d="M39.1 77.5A8.6 8.6 0 0 0 31 87.6c.5 2.8 3.1 5.2 2.7 8.3l1.6-.9 3.4-.8z" fill="#0d3a12"/>
  <path d="M33.7 95.7c.3-3-2.3-5.3-2.8-8.1A8.7 8.7 0 0 1 39 77.5a8.5 8.5 0 0 1 8.1 10.1c-.5 2.9-2.7 3.8-2.5 8.3" fill="none" stroke="#000" stroke-linecap="round" stroke-linejoin="round" stroke-width=".4"/>
  <path d="M56.4 110.7c-2.9 0-3.8-3.1-3.8-4.3-.1-3.5 2.5-6 6.8-6a7.8 7.8 0 0 1 1.6 15.4l-.2-1.1a3.2 3.2 0 0 0 1.8-2.1 5.3 5.3 0 0 0-.7-3.8 1.6 1.6 0 0 1 2.1.8 4 4 0 0 0-2-3.8s1.8-1.6 3.2 1.4c0 0 .2-3.9-3.5-3.2 0 0-.2-.8 1-1.3a8.9 8.9 0 0 0-5-.3c-2.4.7-1.3.2-1.8.7a2.3 2.3 0 0 0 1 3.2s-1.2.6-2.3-1.6c0 0 .3 2.5 1.7 3.6s-1 .2-1.4-.1a3.1 3.1 0 0 0 1.9 1.5c1.1.3.6 1.2.3 1.2z" fill="#febf10" stroke="#000" stroke-linecap="round" stroke-linejoin="round" stroke-width=".4"/>
  <ellipse cx="38.7" cy="123.3" rx="3.1" ry="5.2" fill="red"/>
  <path d="M35.6 123.3a6.2 6.2 0 0 0 1 3.4l.5.2c1.2 0 3.1-2.3 3.1-5.2a7.1 7.1 0 0 0-.8-3.4h-.7c-1.7-.1-3.1 2.2-3.1 5z" fill="#980805"/>
  <ellipse cx="38.7" cy="123.3" rx="3.1" ry="5.2" fill="none" stroke="#000" stroke-linecap="round" stroke-linejoin="round" stroke-width=".4"/>
  <path d="M40.2 127.4s-2.8-1.4-4.2-6.5m5 5.1a30.1 30.1 0 0 1-4.2-6.7" fill="none" stroke="#000" stroke-linecap="round" stroke-linejoin="round" stroke-width=".4"/>
  <path d="M41.7 124.4s-2.8-3.5-3.6-6.1" fill="none" stroke="#000" stroke-linecap="round" stroke-linejoin="round" stroke-width=".3"/>
  <path d="M37.8 128.1s2.2-1.4 3.8-6m-4.8 4.6a29 29 0 0 0 4.3-6.7m-5.1 5.3s3-4 3.8-6.7" fill="none" stroke="#000" stroke-linecap="round" stroke-linejoin="round" stroke-width=".4"/>
  <path fill="#0065b7" d="M56.4 127.2l2.5 2.8 2.5-2.8V95.4h-5v31.8z"/>
  <path fill="#004da1" d="M56.4 127.2l2.5 2.8V95.4h-2.5v31.8z"/>
  <path fill="none" stroke="#000" stroke-linecap="round" stroke-linejoin="round" stroke-width=".4" d="M56.4 127.2l2.5 2.8 2.5-2.8V95.4h-5v31.8z"/>
  <path fill="#0065b7" stroke="#000" stroke-linecap="round" stroke-linejoin="round" stroke-width=".4" d="M58.9 130V95.4"/>
  <path d="M58.9 97.7c.6 0 1.1-.7 1.1-1.6s-.5-1.7-1.1-1.7-1.1.7-1.1 1.7.5 1.6 1.1 1.6z" fill="none"/>
  <path d="M55.7 95.5c0-1.3.6-2.4 1.6-2.4s.7-.3 1.6-.3 1 .3 1.7.3 1.6 1.1 1.6 2.4-2.4 3.6-3.3 4.8c-.8-1.2-3.2-2.2-3.2-4.8z"/>
  <path d="M57.8 96.2c0 1 .5 1.9 1.1 1.9s1.2-.9 1.2-1.9c0-1-.5-1.9-1.2-1.9s-1.1.9-1.1 1.9z" fill="red" stroke="#000" stroke-linecap="round" stroke-linejoin="round" stroke-width=".55"/>
  <path d="M59 95.4c-.3-.1-.4 1.6.1 1.4m-.2-1.8c-.4-.1-.6.6-.6 1.2s.2 1.1.5 1.2.4-.1.5-.2" fill="none" stroke="#000" stroke-linecap="round" stroke-linejoin="round" stroke-width=".3"/>
  <path d="M56.4 95.5c0-1 .5-2 1.2-2a.4.4 0 1 1 0 .8c-.3 0-.5.8-.5 1.3a4.7 4.7 0 0 0 1.8 3.2c.5-.5 1.9-1.6 1.9-3.2s-.3-1.3-.6-1.3a.4.4 0 0 1 0-.8c.8 0 1.2 1 1.2 2s-1.9 3.3-2.5 3.9-2.5-1.8-2.5-3.9zm1.9-1.6a.6.6 0 0 1 .6-.5.7.7 0 0 1 .7.5c0 .3-.3.5-.7.5a.6.6 0 0 1-.6-.5z" fill="#febf10"/>
  <path d="M61.7 95.6a2.4 2.4 0 0 0 2.4 2.4 2.3 2.3 0 0 0 2.4-2.4 2.4 2.4 0 0 0-2.4-2.4 2.4 2.4 0 0 0-2.4 2.4zm-10.4 0a2.4 2.4 0 0 0 2.4 2.4 2.3 2.3 0 0 0 2.5-2.4 2.5 2.5 0 0 0-4.9 0z" fill="#febf10" stroke="#000" stroke-width=".4"/>
  <path d="M63.4 96.6a.7.7 0 1 1 .7.7.7.7 0 0 1-.7-.7zm0-2a.7.7 0 0 1 .7-.7.8.8 0 0 1 .7.7.7.7 0 0 1-1.4 0z" fill="#325723" stroke="#000" stroke-width=".42"/>
  <path d="M65.1 96.3a.7.7 0 1 1 .7-.7.7.7 0 0 1-.7.7zm-2 0a.7.7 0 1 1 .7-.7.7.7 0 0 1-.7.7z" fill="#325723" stroke="#000" stroke-width=".42"/>
  <path d="M64.1 96.3a.7.7 0 0 0 .7-.7.7.7 0 1 0-.7.7z" fill="#325723" stroke="#000" stroke-width=".3"/>
  <path d="M53.1 96.6a.7.7 0 1 1 1.4 0 .8.8 0 0 1-.8.7.6.6 0 0 1-.6-.7zm0-2a.7.7 0 0 1 .7-.7.8.8 0 0 1 .7.7.8.8 0 0 1-.8.7.6.6 0 0 1-.6-.7z" fill="#325723" stroke="#000" stroke-width=".42"/>
  <path d="M54.7 96.3a.7.7 0 0 1-.7-.7.8.8 0 0 1 .7-.7.7.7 0 1 1 0 1.4zm-1.9 0a.7.7 0 1 1 .7-.7.7.7 0 0 1-.7.7z" fill="#325723" stroke="#000" stroke-width=".42"/>
  <path d="M53.7 96.3a.8.8 0 0 0 .8-.7.7.7 0 1 0-1.4 0 .6.6 0 0 0 .6.7z" fill="#325723" stroke="#000" stroke-width=".3"/>
  <ellipse cx="58.9" cy="86.3" rx="2.4" ry="7.1" fill="#febf10"/>
  <path d="M58.9 79.2c-1.3 0-2.4 3.1-2.4 7.1s1.1 7 2.4 7" fill="#d09b07"/>
  <ellipse cx="58.9" cy="86.3" rx="2.4" ry="7.1" fill="none" stroke="#000" stroke-linecap="round" stroke-linejoin="round" stroke-width=".4"/>
  <rect x="55.7" y="81.8" width="5.6" height=".62" rx=".3" ry=".3" transform="rotate(135.1 58.5 82.12)" fill="#febf10" stroke="#000" stroke-linecap="round" stroke-linejoin="round" stroke-width=".3"/>
  <rect x="55.4" y="83.7" width="6.8" height=".62" rx=".3" ry=".3" transform="rotate(135.1 58.79 84.11)" fill="#febf10" stroke="#000" stroke-linecap="round" stroke-linejoin="round" stroke-width=".3"/>
  <circle cx="60.5" cy="81.2" r=".4" fill="red" stroke="#000" stroke-linecap="round" stroke-linejoin="round" stroke-width=".3"/>
  <circle cx="59.9" cy="81.8" r=".4" fill="red" stroke="#000" stroke-linecap="round" stroke-linejoin="round" stroke-width=".3"/>
  <circle cx="59.2" cy="82.5" r=".4" fill="red" stroke="#000" stroke-linecap="round" stroke-linejoin="round" stroke-width=".3"/>
  <circle cx="58.6" cy="83.1" r=".4" fill="red" stroke="#000" stroke-linecap="round" stroke-linejoin="round" stroke-width=".3"/>
  <circle cx="58" cy="83.7" r=".4" fill="red" stroke="#000" stroke-linecap="round" stroke-linejoin="round" stroke-width=".3"/>
  <circle cx="57.3" cy="84.4" r=".4" fill="red" stroke="#000" stroke-linecap="round" stroke-linejoin="round" stroke-width=".3"/>
  <circle cx="56.7" cy="85" r=".4" fill="red" stroke="#000" stroke-linecap="round" stroke-linejoin="round" stroke-width=".3"/>
  <rect x="56.2" y="88.5" width="6.2" height=".62" rx=".3" ry=".3" transform="rotate(-44.9 59.22 88.79)" fill="#febf10" stroke="#000" stroke-linecap="round" stroke-linejoin="round" stroke-width=".3"/>
  <rect x="55.6" y="86.5" width="6.8" height=".62" rx=".3" ry=".3" transform="rotate(-44.9 58.9 86.82)" fill="#febf10" stroke="#000" stroke-linecap="round" stroke-linejoin="round" stroke-width=".3"/>
  <circle cx="57.3" cy="89.7" r=".4" fill="red" stroke="#000" stroke-linecap="round" stroke-linejoin="round" stroke-width=".3"/>
  <circle cx="57.9" cy="89" r=".4" fill="red" stroke="#000" stroke-linecap="round" stroke-linejoin="round" stroke-width=".3"/>
  <circle cx="58.6" cy="88.4" r=".4" fill="red" stroke="#000" stroke-linecap="round" stroke-linejoin="round" stroke-width=".3"/>
  <circle cx="59.2" cy="87.8" r=".4" fill="red" stroke="#000" stroke-linecap="round" stroke-linejoin="round" stroke-width=".3"/>
  <circle cx="59.8" cy="87.1" r=".4" fill="red" stroke="#000" stroke-linecap="round" stroke-linejoin="round" stroke-width=".3"/>
  <circle cx="60.5" cy="86.5" r=".4" fill="red" stroke="#000" stroke-linecap="round" stroke-linejoin="round" stroke-width=".3"/>
  <circle cx="61.1" cy="85.9" r=".4" fill="red" stroke="#000" stroke-linecap="round" stroke-linejoin="round" stroke-width=".3"/>
  <circle cx="58.9" cy="78.9" r="1.1" fill="#0065b7" stroke="#000" stroke-linecap="round" stroke-linejoin="round" stroke-width=".4"/>
  <path d="M57.9 76.4a1 1 0 0 0 1 1 .9.9 0 0 0 1-1 .9.9 0 0 0-1-1 1 1 0 0 0-1 1z" fill="red" stroke="#000" stroke-linecap="round" stroke-linejoin="round" stroke-width=".4"/>
  <path d="M59.9 78.7c.4 0 .7-.5.7-1.1s-.3-1-.6-1-.7.4-.7 1a1.1 1.1 0 0 0 .6 1.1zm-2-.1c.4 0 .7-.4.7-1s-.3-1-.7-1-.6.4-.6 1 .3 1 .6 1z" fill="red" stroke="#000" stroke-linecap="round" stroke-linejoin="round" stroke-width=".4"/>
  <path d="M58.9 78.4c.4 0 .7-.4.7-1s-.3-1-.7-1-.6.4-.6 1 .3 1 .6 1z" fill="#980805" stroke="#000" stroke-linecap="round" stroke-linejoin="round" stroke-width=".4"/>
  <path d="M59 92.5a4.3 4.3 0 0 1 3-.9 4.8 4.8 0 0 0 3.2-1.2s-.5 2.4-1.8 2.7-1.7-.3-1.7-.3-.1.8-1.5.7-1.2-1-1.2-1zm-.1 0a4.3 4.3 0 0 0-3-.9 5.2 5.2 0 0 1-3.3-1.2s.6 2.4 1.9 2.7 1.7-.3 1.7-.3.1.8 1.4.7 1.3-1 1.3-1zm-16.6 1.8a1.1 1.1 0 0 1 1 .9c.4 7.7 2.6 13.6 6.3 16.8a11.2 11.2 0 0 0 7.7 2.9 1 1 0 0 1 1.1.9 1.2 1.2 0 0 1-1 1.1 13.3 13.3 0 0 1-9.1-3.3c-4.1-3.6-6.5-10-7-18.2a1 1 0 0 1 .9-1.1z" fill="#febf10" stroke="#000" stroke-linecap="round" stroke-linejoin="round" stroke-width=".4"/>
  <path d="M57.2 116S43 116 42.4 95.4" fill="none" stroke="#000" stroke-linecap="round" stroke-linejoin="round" stroke-width=".4"/>
  <path d="M49.9 117.6c.6-1 1.7-1.1 3-.4a27.5 27.5 0 0 0 2.8.9s-.8 1.3-3.1.4c-.5-.2-1.3-.7-1.6-.2s.5 1.2.9 1.5a2.5 2.5 0 0 1 .9 2.9s-1.6-1.7-2-2-1.6-2-.9-3.1z" fill="red" stroke="#000" stroke-linecap="round" stroke-linejoin="round" stroke-width=".4"/>
  <circle cx="53.4" cy="119.9" r=".9" fill="#0065b7" stroke="#000" stroke-linecap="round" stroke-linejoin="round" stroke-width=".4"/>
  <path d="M37.2 106.6a.7.7 0 0 0-.6.4c-2.8 7.1-6.9 9.2-7 9.2a.6.6 0 0 0 .5 1.1c.2-.1 4.7-2.3 7.6-9.8a.6.6 0 0 0-.3-.8z" fill="red" stroke="#000" stroke-linecap="round" stroke-linejoin="round" stroke-width=".4"/>
  <circle cx="53.4" cy="119.9" r=".3"/>
  <path d="M40.9 106.6a.8.8 0 0 1 .6.4c2.7 7.1 6.9 9.2 7 9.2a.5.5 0 0 1 .2.8.6.6 0 0 1-.8.3c-.2-.1-4.6-2.3-7.6-9.8a.7.7 0 0 1 .4-.8z" fill="red" stroke="#000" stroke-linecap="round" stroke-linejoin="round" stroke-width=".4"/>
  <path d="M39.2 117.2a2 2 0 0 0 1.9-1.8c.1-.8-.2-1.8-.8-1.7s-.3.1-.4-.3-1.6-.7-1.9.4c-.6-.5-1.2.4-1.1 1.3s.8 2 1.6 2zm1.8-.4a2.5 2.5 0 0 0 2.5-1.9c.2-.6.2-1.5-.3-1.5s-.6.7-.8.3-1-.5-1.1.2a3.8 3.8 0 0 1-.6 2.6.2.2 0 0 0 .3.3zm-3.7 0c.1-.5-.3-.7-.4-1.1s0-1.4-.3-2.1-.7-.2-1 .1-.5-.5-.9-.3-.3 1.1-.2 1.6a2.7 2.7 0 0 0 2.8 1.8z" fill="#325723" stroke="#000" stroke-linecap="round" stroke-linejoin="round" stroke-width=".4"/>
  <path d="M29.9 125.7a1.7 1.7 0 0 0 1-.3l.2 1c2.5-.1 2.7-3.2 2.7-3.2a5.9 5.9 0 0 0 .9 2.7s1-1 1.1-4.5c0-1.5.5-1.4.6-1.1s.2 1.2 1 1.2.6-.3.2-1.7.1-1.2.3-1.3a1 1 0 0 1 .6-.3c.3 0 1.1.2.8 1.6s.3 1.7.3 1.7.8-1 1-1.3.5-.4.4 1.2.3 2 .3 2l.7-.4c.3 2.4 1.3 2.9 1.3 2.9a5.9 5.9 0 0 0 .9-2.7s.3 3.1 2.8 3.2v-1a1.9 1.9 0 0 0 1 .3 1.8 1.8 0 0 0 1.8-1.7 1.8 1.8 0 0 0-1.8-1.8.9.9 0 0 0-.7 1.5H47a1.7 1.7 0 0 1-2.2-.9c-.7-1.6-1.1-6.2-6-6.1H38c-3.8.5-4.2 4.5-4.9 6a1.7 1.7 0 0 1-2.2.9h-.2a1 1 0 0 0-.8-1.5 1.8 1.8 0 0 0-1.8 1.8 1.8 1.8 0 0 0 1.8 1.8z" fill="#febf10"/>
  <path d="M30.9 123.6a1.7 1.7 0 0 0 2.2-.9c.7-1.5 1.1-5.5 4.9-6h.9c4.9-.1 5.3 4.5 6 6.1a1.7 1.7 0 0 0 2.2.9" fill="none" stroke="#000" stroke-linecap="round" stroke-linejoin="round" stroke-width=".4"/>
  <path d="M29.6 124c1.5.4 1.5-1.8.3-1.8a1.8 1.8 0 0 0-1.8 1.8 1.8 1.8 0 0 0 1.8 1.7 1.7 1.7 0 0 0 1-.3l.2 1c2.5-.1 2.7-3.2 2.7-3.2a5.9 5.9 0 0 0 .9 2.7s1-1 1.1-4.5c0-1.5.5-1.4.6-1.1s.2 1.2 1 1.2.6-.3.2-1.7.1-1.2.3-1.3a1 1 0 0 1 .6-.3c.3 0 1.1.2.8 1.6s.3 1.7.3 1.7.8-1 1-1.3.5-.4.4 1.2.3 2 .3 2l.7-.4c.3 2.4 1.3 2.9 1.3 2.9a5.9 5.9 0 0 0 .9-2.7s.3 3.1 2.8 3.2v-1a1.9 1.9 0 0 0 1 .3 1.8 1.8 0 0 0 1.8-1.7 1.8 1.8 0 0 0-1.8-1.8c-1.2 0-1.2 2.2.3 1.8" fill="none" stroke="#000" stroke-linecap="round" stroke-linejoin="round" stroke-width=".4"/>
  <circle cx="48.8" cy="117" r="1" fill="#0065b7" stroke="#000" stroke-linecap="round" stroke-linejoin="round" stroke-width=".4"/>
  <circle cx="48.8" cy="117" r=".3"/>
  <circle cx="60.6" cy="115.4" r="1.1" fill="red" stroke="#000" stroke-linecap="round" stroke-linejoin="round" stroke-width=".4"/>
  <circle cx="60.6" cy="115.4" r=".3"/>
  <path fill="#0065b7" d="M36.5 108.3l2.5 2.8 2.5-2.8V94.7h-5v13.6z"/>
  <path fill="#004da1" d="M36.5 108.3l2.5 2.8.1-16.4h-2.6v13.6z"/>
  <path fill="none" stroke="#000" stroke-linecap="round" stroke-linejoin="round" stroke-width=".4" d="M36.5 108.3l2.5 2.8 2.5-2.8V94.7h-5v13.6z"/>
  <path fill="#0065b7" stroke="#000" stroke-linecap="round" stroke-linejoin="round" stroke-width=".4" d="M39 111.1V94.8"/>
  <path d="M36.6 88.6a3.9 3.9 0 0 1-2.6-1s.4 2 1.5 2.2 1.3-.2 1.3-.2.1.6 1.2.6h.4v1.2a.7.7 0 0 0 .6.7c.4 0 .6-.3.6-.7v-1.3h.5c1 0 1.1-.6 1.1-.6s.3.5 1.4.2 1.5-2.2 1.5-2.2a4 4 0 0 1-2.7 1 4 4 0 0 0-1.8.4v-1.4a2 2 0 0 0 1.4-1.9 2 2 0 0 0-4 0 2 2 0 0 0 1.4 1.9V89a4 4 0 0 0-1.8-.4zm-14.9 22.1c2.8 0 3.7-3.1 3.8-4.3 0-3.5-2.5-6-6.8-6a7.8 7.8 0 0 0-1.6 15.4l.2-1.1a3.2 3.2 0 0 1-1.8-2.1 4.8 4.8 0 0 1 .7-3.8 1.7 1.7 0 0 0-2.2.8 4.3 4.3 0 0 1 2-3.8s-1.7-1.6-3.1 1.4c0 0-.2-3.9 3.5-3.2 0 0 .1-.8-1-1.3a8.9 8.9 0 0 1 5-.3c2.4.7 1.3.2 1.8.7a2.4 2.4 0 0 1-1 3.2s1.2.6 2.3-1.6c0 0-.3 2.5-1.7 3.6s1 .2 1.4-.1a3.1 3.1 0 0 1-1.9 1.5c-1.2.3-.6 1.2-.3 1.2z" fill="#febf10" stroke="#000" stroke-linecap="round" stroke-linejoin="round" stroke-width=".4"/>
  <path fill="#0065b7" d="M16.9 127.2l2.5 2.8 2.5-2.8V95.4h-5v31.8z"/>
  <path fill="#004da1" d="M16.9 127.2l2.5 2.8V95.4h-2.5v31.8z"/>
  <path fill="none" stroke="#000" stroke-linecap="round" stroke-linejoin="round" stroke-width=".4" d="M16.9 127.2l2.5 2.8 2.5-2.8V95.4h-5v31.8z"/>
  <path fill="#0065b7" stroke="#000" stroke-linecap="round" stroke-linejoin="round" stroke-width=".4" d="M19.4 130V95.4"/>
  <path d="M20.5 96.1c0-1-.5-1.7-1.1-1.7s-1.1.8-1.1 1.7.5 1.6 1.1 1.6 1.1-.7 1.1-1.6z" fill="none"/>
  <path d="M19.4 100.3c-.9-1.2-3.3-2.2-3.3-4.8s.6-2.4 1.6-2.4.8-.3 1.7-.3.9.3 1.6.3 1.6 1.1 1.6 2.4-2.4 3.6-3.2 4.8z"/>
  <path d="M20.5 96.2c.1-1-.5-1.9-1.1-1.9s-1.2.9-1.2 1.9c0 1 .5 1.9 1.2 1.9s1.1-.9 1.1-1.9z" fill="red" stroke="#000" stroke-linecap="round" stroke-linejoin="round" stroke-width=".55"/>
  <path d="M19.2 96.8c.5.2.4-1.5.1-1.4m-.3 1.8c.1.1.3.3.5.2s.5-.6.5-1.2-.2-1.3-.6-1.2" fill="none" stroke="#000" stroke-linecap="round" stroke-linejoin="round" stroke-width=".3"/>
  <path d="M19.4 99.4c-.6-.6-2.5-1.8-2.5-3.9s.4-2 1.2-2a.4.4 0 0 1 0 .8c-.3 0-.6.8-.6 1.3s1.4 2.7 1.9 3.2a4.7 4.7 0 0 0 1.8-3.2c0-.5-.2-1.3-.5-1.3a.4.4 0 0 1 0-.8c.7 0 1.2 1 1.2 2s-1.9 3.3-2.5 3.9zm0-5c-.4 0-.7-.2-.7-.5a.7.7 0 0 1 .7-.5.6.6 0 0 1 .6.5.6.6 0 0 1-.6.5z" fill="#febf10"/>
  <path d="M16.6 95.6a2.4 2.4 0 0 0-2.4-2.4 2.4 2.4 0 0 0-2.4 2.4 2.3 2.3 0 0 0 2.4 2.4 2.4 2.4 0 0 0 2.4-2.4zm10.4 0a2.5 2.5 0 0 0-4.9 0 2.3 2.3 0 0 0 2.5 2.4 2.4 2.4 0 0 0 2.4-2.4z" fill="#febf10" stroke="#000" stroke-width=".4"/>
  <path d="M14.2 97.3a.7.7 0 1 1 .7-.7.7.7 0 0 1-.7.7zm0-2a.7.7 0 0 1-.7-.7.8.8 0 0 1 .7-.7.7.7 0 1 1 0 1.4z" fill="#325723" stroke="#000" stroke-width=".42"/>
  <path d="M12.5 95.6a.7.7 0 1 1 .7.7.7.7 0 0 1-.7-.7zm2 0a.7.7 0 1 1 .7.7.7.7 0 0 1-.7-.7z" fill="#325723" stroke="#000" stroke-width=".42"/>
  <path d="M14.9 95.6a.7.7 0 0 0-1.4 0 .7.7 0 0 0 1.4 0z" fill="#325723" stroke="#000" stroke-width=".3"/>
  <path d="M24.6 97.3a.8.8 0 0 1-.8-.7.7.7 0 0 1 .7-.7.8.8 0 0 1 .8.7.8.8 0 0 1-.7.7zm0-2a.8.8 0 0 1-.8-.7.8.8 0 0 1 .7-.7.8.8 0 0 1 .8.7.8.8 0 0 1-.7.7z" fill="#325723" stroke="#000" stroke-width=".42"/>
  <path d="M22.9 95.6a.7.7 0 0 1 .7-.7.8.8 0 0 1 .7.7.7.7 0 1 1-1.4 0zm1.9 0a.7.7 0 1 1 .7.7.7.7 0 0 1-.7-.7z" fill="#325723" stroke="#000" stroke-width=".42"/>
  <path d="M25.3 95.6a.8.8 0 0 0-.8-.7.7.7 0 0 0-.7.7.8.8 0 0 0 .8.7.8.8 0 0 0 .7-.7z" fill="#325723" stroke="#000" stroke-width=".3"/>
  <ellipse cx="19.4" cy="86.3" rx="2.4" ry="7.1" fill="#febf10"/>
  <path d="M19.4 79.2c1.3 0 2.4 3.1 2.4 7.1s-1.1 7-2.4 7" fill="#d09b07"/>
  <ellipse cx="19.4" cy="86.3" rx="2.4" ry="7.1" fill="none" stroke="#000" stroke-linecap="round" stroke-linejoin="round" stroke-width=".4"/>
  <rect x="17" y="81.8" width="5.6" height=".62" rx=".3" ry=".3" transform="rotate(44.9 19.87 82.03)" fill="#febf10" stroke="#000" stroke-linecap="round" stroke-linejoin="round" stroke-width=".3"/>
  <rect x="16.1" y="83.7" width="6.8" height=".62" rx=".3" ry=".3" transform="rotate(44.9 19.55 84)" fill="#febf10" stroke="#000" stroke-linecap="round" stroke-linejoin="round" stroke-width=".3"/>
  <circle cx="17.8" cy="81.2" r=".4" fill="red" stroke="#000" stroke-linecap="round" stroke-linejoin="round" stroke-width=".3"/>
  <circle cx="18.4" cy="81.8" r=".4" fill="red" stroke="#000" stroke-linecap="round" stroke-linejoin="round" stroke-width=".3"/>
  <circle cx="19.1" cy="82.5" r=".4" fill="red" stroke="#000" stroke-linecap="round" stroke-linejoin="round" stroke-width=".3"/>
  <circle cx="19.7" cy="83.1" r=".4" fill="red" stroke="#000" stroke-linecap="round" stroke-linejoin="round" stroke-width=".3"/>
  <circle cx="20.3" cy="83.7" r=".4" fill="red" stroke="#000" stroke-linecap="round" stroke-linejoin="round" stroke-width=".3"/>
  <circle cx="21" cy="84.4" r=".4" fill="red" stroke="#000" stroke-linecap="round" stroke-linejoin="round" stroke-width=".3"/>
  <circle cx="21.6" cy="85" r=".4" fill="red" stroke="#000" stroke-linecap="round" stroke-linejoin="round" stroke-width=".3"/>
  <rect x="15.9" y="88.5" width="6.2" height=".62" rx=".3" ry=".3" transform="rotate(-135.1 19.06 88.77)" fill="#febf10" stroke="#000" stroke-linecap="round" stroke-linejoin="round" stroke-width=".3"/>
  <rect x="15.9" y="86.5" width="6.8" height=".62" rx=".3" ry=".3" transform="rotate(-135.1 19.3 86.8)" fill="#febf10" stroke="#000" stroke-linecap="round" stroke-linejoin="round" stroke-width=".3"/>
  <circle cx="21" cy="89.7" r=".4" fill="red" stroke="#000" stroke-linecap="round" stroke-linejoin="round" stroke-width=".3"/>
  <circle cx="20.4" cy="89" r=".4" fill="red" stroke="#000" stroke-linecap="round" stroke-linejoin="round" stroke-width=".3"/>
  <circle cx="19.7" cy="88.4" r=".4" fill="red" stroke="#000" stroke-linecap="round" stroke-linejoin="round" stroke-width=".3"/>
  <circle cx="19.1" cy="87.8" r=".4" fill="red" stroke="#000" stroke-linecap="round" stroke-linejoin="round" stroke-width=".3"/>
  <circle cx="18.5" cy="87.1" r=".4" fill="red" stroke="#000" stroke-linecap="round" stroke-linejoin="round" stroke-width=".3"/>
  <circle cx="17.8" cy="86.5" r=".4" fill="red" stroke="#000" stroke-linecap="round" stroke-linejoin="round" stroke-width=".3"/>
  <circle cx="17.2" cy="85.9" r=".4" fill="red" stroke="#000" stroke-linecap="round" stroke-linejoin="round" stroke-width=".3"/>
  <circle cx="19.4" cy="78.9" r="1.1" fill="#0065b7" stroke="#000" stroke-linecap="round" stroke-linejoin="round" stroke-width=".4"/>
  <path d="M20.4 76.4a1 1 0 0 0-1-1 .9.9 0 0 0-1 1 .9.9 0 0 0 1 1 1 1 0 0 0 1-1z" fill="red" stroke="#000" stroke-linecap="round" stroke-linejoin="round" stroke-width=".4"/>
  <path d="M19 77.6c0-.6-.3-1-.7-1s-.6.5-.6 1 .3 1.1.7 1.1a1.1 1.1 0 0 0 .6-1.1zm2 0c0-.6-.3-1-.6-1s-.6.4-.6 1 .2 1 .6 1 .6-.4.6-1z" fill="red" stroke="#000" stroke-linecap="round" stroke-linejoin="round" stroke-width=".4"/>
  <path d="M20 77.4c0-.6-.3-1-.6-1s-.7.4-.7 1 .3 1 .7 1 .6-.4.6-1z" fill="#980805" stroke="#000" stroke-linecap="round" stroke-linejoin="round" stroke-width=".4"/>
  <path d="M19.3 92.5a4.2 4.2 0 0 0-2.9-.9 4.9 4.9 0 0 1-3.3-1.2s.5 2.4 1.8 2.7 1.7-.3 1.7-.3.1.8 1.5.7 1.2-1 1.2-1zm.1 0a4.3 4.3 0 0 1 3-.9 5.2 5.2 0 0 0 3.3-1.2s-.6 2.4-1.9 2.7-1.7-.3-1.7-.3-.1.8-1.4.7-1.3-1-1.3-1zm16.4 1.8a1 1 0 0 0-1 .9c-.5 7.7-2.6 13.6-6.3 16.8a11.5 11.5 0 0 1-7.7 2.9.9.9 0 0 0-1.1.9 1.2 1.2 0 0 0 .9 1.1 13.5 13.5 0 0 0 9.2-3.3c4.1-3.6 6.5-10 7-18.2a1 1 0 0 0-.9-1.1z" fill="#febf10" stroke="#000" stroke-linecap="round" stroke-linejoin="round" stroke-width=".4"/>
  <path d="M20.9 116s14.2 0 14.8-20.6" fill="none" stroke="#000" stroke-linecap="round" stroke-linejoin="round" stroke-width=".4"/>
  <path d="M28.2 117.6c-.6-1-1.7-1.1-3-.4a27.5 27.5 0 0 1-2.8.9s.7 1.3 3.1.4c.5-.2 1.2-.7 1.6-.2s-.5 1.2-.9 1.5a2.6 2.6 0 0 0-1 2.9l2-2c1.3-.9 1.7-2 1-3.1z" fill="red" stroke="#000" stroke-linecap="round" stroke-linejoin="round" stroke-width=".4"/>
  <circle cx="24.6" cy="119.9" r=".9" fill="#0065b7" stroke="#000" stroke-linecap="round" stroke-linejoin="round" stroke-width=".4"/>
  <circle cx="24.6" cy="119.9" r=".3"/>
  <circle cx="29.3" cy="117" r="1" fill="#0065b7" stroke="#000" stroke-linecap="round" stroke-linejoin="round" stroke-width=".4"/>
  <circle cx="29.3" cy="117" r=".3"/>
  <circle cx="17.5" cy="115.4" r="1.1" fill="red" stroke="#000" stroke-linecap="round" stroke-linejoin="round" stroke-width=".4"/>
  <circle cx="17.5" cy="115.4" r=".3"/>
  <path d="M34.5 97.2c.1-1.4 2.1-2.5 4.5-2.5s4.2 1 4.5 2.3h1.6c-.2-2-2.9-3.5-6.1-3.5s-6.1 1.6-6.1 3.7h1.6z" fill="red"/>
  <path d="M33 97.8a1.7 1.7 0 0 1-.1-.7c0-2.1 2.7-3.7 6.1-3.7s6.1 1.6 6.1 3.7v.4" fill="none" stroke="#000" stroke-linecap="round" stroke-linejoin="round" stroke-width=".4"/>
  <path d="M34.5 97.2c0-1.4 2-2.5 4.5-2.5s4.5 1.1 4.5 2.5" fill="none" stroke="#000" stroke-linecap="round" stroke-linejoin="round" stroke-width=".4"/>
  <path fill="none" stroke="#000" stroke-linecap="round" stroke-linejoin="round" stroke-width=".4" d="M8 7.9h62v124.31H8z"/>
</svg>
