<svg xmlns="http://www.w3.org/2000/svg" viewBox="0 0 78 140">
  <rect width="78" height="140" rx="6" ry="6" fill="#fff"/>
  <path fill="#0065b7" d="M22.2 61.8l-2.7 3-2.7-3V37.3h5.4v24.5z"/>
  <path fill="#004da1" d="M22.2 61.8l-2.7 3-.1-27.5h2.8v24.5z"/>
  <path fill="none" stroke="#000" stroke-linecap="round" stroke-linejoin="round" stroke-width=".4" d="M22.2 61.8l-2.7 3-2.7-3V37.3h5.4v24.5z"/>
  <path fill="#0065b7" stroke="#000" stroke-linecap="round" stroke-linejoin="round" stroke-width=".4" d="M19.5 64.8V37.4"/>
  <path d="M19.4 38.4c.7 0 1.3-.8 1.3-1.9s-.5-1.9-1.2-1.9-1.3.8-1.3 1.9.5 1.9 1.2 1.9z" fill="none"/>
  <path d="M15.8 35.8c0-1.5.7-2.8 1.8-2.8s.9-.3 1.9-.3 1.1.3 1.9.3 1.8 1.3 1.8 2.8c0 3-2.8 4.2-3.7 5.6-1-1.4-3.7-2.6-3.7-5.6z"/>
  <path d="M18.1 36.6c0 1.2.6 2.2 1.4 2.2s1.3-1 1.3-2.2c0-1.2-.6-2.1-1.3-2.1s-1.4.9-1.4 2.1z" fill="red" stroke="#000" stroke-linecap="round" stroke-linejoin="round" stroke-width=".55"/>
  <path d="M19.6 35.7c-.4-.1-.5 1.9 0 1.7m-.1-2.2c-.6-.1-.8.8-.8 1.5a1.3 1.3 0 0 0 .6 1.3.4.4 0 0 0 .6-.2" fill="none" stroke="#000" stroke-linecap="round" stroke-linejoin="round" stroke-width=".3"/>
  <path d="M16.6 35.8c0-1.2.5-2.2 1.4-2.2a.4.4 0 0 1 .4.4c0 .2-.2.5-.4.5s-.6.9-.6 1.4 1.5 3.1 2.1 3.7 2.1-1.9 2.1-3.7-.3-1.4-.6-1.4a.5.5 0 0 1-.5-.5.5.5 0 0 1 .5-.4c.8 0 1.4 1 1.4 2.2s-2.2 3.8-2.9 4.5-2.9-2.1-2.9-4.5zm2.1-1.8c0-.3.4-.5.8-.5s.7.2.7.5a.7.7 0 0 1-.7.6c-.4 0-.8-.3-.8-.6z" fill="#febf10"/>
  <path d="M22.7 36a2.8 2.8 0 1 0 5.5 0 2.8 2.8 0 0 0-2.7-2.8 2.7 2.7 0 0 0-2.8 2.7zm-12 0a2.9 2.9 0 0 0 2.8 2.8 2.9 2.9 0 0 0 2.8-2.8 2.8 2.8 0 0 0-2.7-2.8 2.9 2.9 0 0 0-2.9 2.7z" fill="#febf10" stroke="#000" stroke-width=".4"/>
  <path d="M24.6 37.1a.8.8 0 0 1 .8-.8c.5 0 .9.4.8.8a.7.7 0 0 1-.8.8.9.9 0 0 1-.8-.8zm0-2.3a.9.9 0 0 1 .8-.8.8.8 0 0 1 .8.9.8.8 0 0 1-.8.8 1 1 0 0 1-.8-.9z" fill="#325723" stroke="#000" stroke-width=".42"/>
  <path d="M26.6 36.8a.8.8 0 0 1-.8-.8.7.7 0 0 1 .8-.8.8.8 0 0 1 .8.8.9.9 0 0 1-.8.8zm-2.3 0a.9.9 0 0 1-.8-.8.8.8 0 0 1 .8-.8.7.7 0 0 1 .8.8.9.9 0 0 1-.8.8z" fill="#325723" stroke="#000" stroke-width=".42"/>
  <path d="M25.4 36.8a.8.8 0 0 0 .8-.8c.1-.5-.3-.8-.8-.8a.8.8 0 0 0-.8.8.9.9 0 0 0 .8.8z" fill="#325723" stroke="#000" stroke-width=".3"/>
  <path d="M12.7 37.1a.8.8 0 0 1 1.6 0 .7.7 0 0 1-.8.8.9.9 0 0 1-.8-.8zm0-2.3a.9.9 0 0 1 .8-.8.8.8 0 0 1 .8.9.8.8 0 0 1-.8.8 1 1 0 0 1-.8-.9z" fill="#325723" stroke="#000" stroke-width=".42"/>
  <path d="M14.7 36.8a.8.8 0 1 1 0-1.6.8.8 0 0 1 .8.8.9.9 0 0 1-.8.8zm-2.3 0a.8.8 0 1 1 0-1.6.7.7 0 0 1 .8.8.9.9 0 0 1-.8.8z" fill="#325723" stroke="#000" stroke-width=".42"/>
  <path d="M13.5 36.8a.8.8 0 0 0 .8-.8.7.7 0 0 0-.8-.8.8.8 0 0 0-.8.8.9.9 0 0 0 .8.8z" fill="#325723" stroke="#000" stroke-width=".3"/>
  <ellipse cx="19.5" cy="25.2" rx="2.8" ry="8.2" fill="#febf10"/>
  <path d="M19.5 17c-1.5 0-2.8 3.7-2.8 8.2s1.3 8.2 2.8 8.2" fill="#d09b07"/>
  <ellipse cx="19.5" cy="25.2" rx="2.8" ry="8.2" fill="none" stroke="#000" stroke-linecap="round" stroke-linejoin="round" stroke-width=".4"/>
  <rect x="15.8" y="20.1" width="6.4" height=".72" rx=".3" ry=".3" transform="rotate(135.1 19 20.44)" fill="#febf10" stroke="#000" stroke-linecap="round" stroke-linejoin="round" stroke-width=".3"/>
  <rect x="15.4" y="22.3" width="7.8" height=".72" rx=".3" ry=".3" transform="rotate(135.1 19.31 22.67)" fill="#febf10" stroke="#000" stroke-linecap="round" stroke-linejoin="round" stroke-width=".3"/>
  <circle cx="21.3" cy="19.4" r=".5" fill="red" stroke="#000" stroke-linecap="round" stroke-linejoin="round" stroke-width=".3"/>
  <circle cx="20.6" cy="20.1" r=".5" fill="red" stroke="#000" stroke-linecap="round" stroke-linejoin="round" stroke-width=".3"/>
  <circle cx="19.8" cy="20.9" r=".5" fill="red" stroke="#000" stroke-linecap="round" stroke-linejoin="round" stroke-width=".3"/>
  <circle cx="19.1" cy="21.6" r=".5" fill="red" stroke="#000" stroke-linecap="round" stroke-linejoin="round" stroke-width=".3"/>
  <circle cx="18.4" cy="22.3" r=".5" fill="red" stroke="#000" stroke-linecap="round" stroke-linejoin="round" stroke-width=".3"/>
  <circle cx="17.6" cy="23" r=".5" fill="red" stroke="#000" stroke-linecap="round" stroke-linejoin="round" stroke-width=".3"/>
  <circle cx="16.9" cy="23.8" r=".5" fill="red" stroke="#000" stroke-linecap="round" stroke-linejoin="round" stroke-width=".3"/>
  <rect x="16.3" y="27.7" width="7.2" height=".72" rx=".3" ry=".3" transform="rotate(-44.9 19.86 28.04)" fill="#febf10" stroke="#000" stroke-linecap="round" stroke-linejoin="round" stroke-width=".3"/>
  <rect x="15.7" y="25.5" width="7.8" height=".72" rx=".3" ry=".3" transform="rotate(-44.9 19.52 25.78)" fill="#febf10" stroke="#000" stroke-linecap="round" stroke-linejoin="round" stroke-width=".3"/>
  <circle cx="17.6" cy="29.1" r=".5" fill="red" stroke="#000" stroke-linecap="round" stroke-linejoin="round" stroke-width=".3"/>
  <circle cx="18.3" cy="28.4" r=".5" fill="red" stroke="#000" stroke-linecap="round" stroke-linejoin="round" stroke-width=".3"/>
  <circle cx="19.1" cy="27.7" r=".5" fill="red" stroke="#000" stroke-linecap="round" stroke-linejoin="round" stroke-width=".3"/>
  <circle cx="19.8" cy="26.9" r=".5" fill="red" stroke="#000" stroke-linecap="round" stroke-linejoin="round" stroke-width=".3"/>
  <circle cx="20.5" cy="26.2" r=".5" fill="red" stroke="#000" stroke-linecap="round" stroke-linejoin="round" stroke-width=".3"/>
  <circle cx="21.2" cy="25.5" r=".5" fill="red" stroke="#000" stroke-linecap="round" stroke-linejoin="round" stroke-width=".3"/>
  <circle cx="22" cy="24.8" r=".5" fill="red" stroke="#000" stroke-linecap="round" stroke-linejoin="round" stroke-width=".3"/>
  <circle cx="19.5" cy="16.7" r="1.2" fill="#0065b7" stroke="#000" stroke-linecap="round" stroke-linejoin="round" stroke-width=".4"/>
  <path d="M18.3 13.9a1.1 1.1 0 0 0 1.2 1.1 1.1 1.1 0 0 0 1.1-1.1 1.1 1.1 0 0 0-1.1-1.2 1.2 1.2 0 0 0-1.2 1.2z" fill="red" stroke="#000" stroke-linecap="round" stroke-linejoin="round" stroke-width=".4"/>
  <path d="M20.6 16.5c.4 0 .8-.5.8-1.2s-.3-1.2-.7-1.2-.8.5-.8 1.2.3 1.2.7 1.2zm-2.3 0c.4 0 .7-.6.7-1.2s-.3-1.2-.7-1.2-.7.5-.7 1.2.3 1.2.7 1.2z" fill="red" stroke="#000" stroke-linecap="round" stroke-linejoin="round" stroke-width=".4"/>
  <path d="M19.5 16.2c.4 0 .7-.5.7-1.2s-.3-1.1-.7-1.1-.7.5-.7 1.1.3 1.2.7 1.2z" fill="#980805" stroke="#000" stroke-linecap="round" stroke-linejoin="round" stroke-width=".4"/>
  <path d="M19.5 32.4a5.4 5.4 0 0 1 3.5-1 5.6 5.6 0 0 0 3.7-1.4s-.6 2.7-2.1 3.1-1.9-.4-1.9-.4-.2.9-1.7.9-1.5-1.2-1.5-1.2zm0 0a5.4 5.4 0 0 0-3.5-1 6 6 0 0 1-3.8-1.4s.7 2.7 2.2 3.1 1.9-.4 1.9-.4.1.9 1.7.9 1.5-1.2 1.5-1.2z" fill="#febf10" stroke="#000" stroke-linecap="round" stroke-linejoin="round" stroke-width=".4"/>
  <path fill="#0065b7" d="M61.2 61.8l-2.7 3-2.7-3V37.3h5.4v24.5z"/>
  <path fill="#004da1" d="M61.2 61.8l-2.7 3V37.3h2.7v24.5z"/>
  <path fill="none" stroke="#000" stroke-linecap="round" stroke-linejoin="round" stroke-width=".4" d="M61.2 61.8l-2.7 3-2.7-3V37.3h5.4v24.5z"/>
  <path fill="#0065b7" stroke="#000" stroke-linecap="round" stroke-linejoin="round" stroke-width=".4" d="M58.5 64.8V37.4"/>
  <path d="M58.5 38.4c.7 0 1.2-.8 1.3-1.9s-.6-1.9-1.3-1.9-1.3.8-1.3 1.9.6 1.9 1.3 1.9z" fill="none"/>
  <path d="M54.8 35.8c0-1.5.7-2.8 1.8-2.8s.9-.3 1.9-.3 1.1.3 1.9.3 1.8 1.3 1.8 2.8c0 3-2.7 4.2-3.7 5.6-.9-1.4-3.7-2.6-3.7-5.6z"/>
  <path d="M57.2 36.6c0 1.2.6 2.2 1.3 2.2s1.4-1 1.4-2.2c0-1.2-.6-2.1-1.4-2.1s-1.3.9-1.3 2.1z" fill="red" stroke="#000" stroke-linecap="round" stroke-linejoin="round" stroke-width=".55"/>
  <path d="M58.6 35.7c-.4-.1-.5 1.9.1 1.7m-.2-2.2c-.5-.1-.7.8-.7 1.5s.2 1.2.5 1.3.6 0 .6-.2" fill="none" stroke="#000" stroke-linecap="round" stroke-linejoin="round" stroke-width=".3"/>
  <path d="M55.6 35.8c0-1.2.6-2.2 1.4-2.2a.5.5 0 0 1 .5.4.5.5 0 0 1-.5.5c-.3 0-.6.9-.6 1.4s1.5 3.1 2.1 3.7 2.1-1.9 2.1-3.7-.2-1.4-.6-1.4-.4-.3-.4-.5a.4.4 0 0 1 .4-.4c.9 0 1.4 1 1.4 2.2s-2.2 3.8-2.9 4.5-2.9-2.1-2.9-4.5zm2.2-1.8c0-.3.3-.5.7-.5s.8.2.8.5-.4.6-.8.6a.7.7 0 0 1-.7-.6z" fill="#febf10"/>
  <path d="M61.7 36a2.8 2.8 0 0 0 2.7 2.8 3 3 0 0 0 2.9-2.8 2.9 2.9 0 0 0-2.8-2.8 2.8 2.8 0 0 0-2.8 2.7zm-11.9 0a2.8 2.8 0 0 0 2.7 2.8 2.8 2.8 0 0 0 2.8-2.8 2.8 2.8 0 0 0-5.5-.1z" fill="#febf10" stroke="#000" stroke-width=".4"/>
  <path d="M63.7 37.1a.7.7 0 0 1 .8-.8.9.9 0 0 1 .8.8.8.8 0 0 1-1.6 0zm0-2.3a.8.8 0 0 1 .8-.8.9.9 0 0 1 .8.9.9.9 0 0 1-.8.8.9.9 0 0 1-.8-.9z" fill="#325723" stroke="#000" stroke-width=".42"/>
  <path d="M65.6 36.8a.8.8 0 0 1 0-1.6.7.7 0 0 1 .8.8.9.9 0 0 1-.8.8zm-2.3 0a.9.9 0 0 1-.8-.8.8.8 0 0 1 .8-.8.8.8 0 0 1 .9.8 1 1 0 0 1-.9.8z" fill="#325723" stroke="#000" stroke-width=".42"/>
  <path d="M64.5 36.8a.9.9 0 0 0 .8-.8.8.8 0 0 0-.8-.8.7.7 0 0 0-.8.8.8.8 0 0 0 .8.8z" fill="#325723" stroke="#000" stroke-width=".3"/>
  <path d="M51.8 37.1a.7.7 0 0 1 .8-.8.9.9 0 0 1 .8.8.8.8 0 0 1-.8.8c-.5 0-.9-.4-.8-.8zm0-2.3a.8.8 0 0 1 .8-.8.9.9 0 0 1 .8.9.9.9 0 0 1-.8.8c-.5-.1-.9-.4-.8-.9z" fill="#325723" stroke="#000" stroke-width=".42"/>
  <path d="M53.7 36.8a.8.8 0 1 1 .8-.8.9.9 0 0 1-.8.8zm-2.3 0a.9.9 0 0 1-.8-.8.8.8 0 0 1 .8-.8.7.7 0 0 1 .8.8.8.8 0 0 1-.8.8z" fill="#325723" stroke="#000" stroke-width=".42"/>
  <path d="M52.6 36.8a.9.9 0 0 0 .8-.8.8.8 0 0 0-.8-.8.7.7 0 0 0-.8.8c-.1.4.3.8.8.8z" fill="#325723" stroke="#000" stroke-width=".3"/>
  <ellipse cx="58.5" cy="25.2" rx="2.8" ry="8.2" fill="#febf10"/>
  <path d="M58.5 17c-1.5 0-2.7 3.7-2.7 8.2s1.2 8.2 2.7 8.2" fill="#d09b07"/>
  <ellipse cx="58.5" cy="25.2" rx="2.8" ry="8.2" fill="none" stroke="#000" stroke-linecap="round" stroke-linejoin="round" stroke-width=".4"/>
  <rect x="54.8" y="20.1" width="6.4" height=".72" rx=".3" ry=".3" transform="rotate(135.1 58.04 20.47)" fill="#febf10" stroke="#000" stroke-linecap="round" stroke-linejoin="round" stroke-width=".3"/>
  <rect x="54.5" y="22.3" width="7.8" height=".72" rx=".3" ry=".3" transform="rotate(135.1 58.35 22.7)" fill="#febf10" stroke="#000" stroke-linecap="round" stroke-linejoin="round" stroke-width=".3"/>
  <circle cx="60.3" cy="19.4" r=".5" fill="red" stroke="#000" stroke-linecap="round" stroke-linejoin="round" stroke-width=".3"/>
  <circle cx="59.6" cy="20.1" r=".5" fill="red" stroke="#000" stroke-linecap="round" stroke-linejoin="round" stroke-width=".3"/>
  <circle cx="58.9" cy="20.9" r=".5" fill="red" stroke="#000" stroke-linecap="round" stroke-linejoin="round" stroke-width=".3"/>
  <circle cx="58.1" cy="21.6" r=".5" fill="red" stroke="#000" stroke-linecap="round" stroke-linejoin="round" stroke-width=".3"/>
  <circle cx="57.4" cy="22.3" r=".5" fill="red" stroke="#000" stroke-linecap="round" stroke-linejoin="round" stroke-width=".3"/>
  <circle cx="56.7" cy="23" r=".5" fill="red" stroke="#000" stroke-linecap="round" stroke-linejoin="round" stroke-width=".3"/>
  <circle cx="55.9" cy="23.8" r=".5" fill="red" stroke="#000" stroke-linecap="round" stroke-linejoin="round" stroke-width=".3"/>
  <rect x="55.3" y="27.7" width="7.2" height=".72" rx=".3" ry=".3" transform="rotate(-44.9 58.8 28.12)" fill="#febf10" stroke="#000" stroke-linecap="round" stroke-linejoin="round" stroke-width=".3"/>
  <rect x="54.7" y="25.5" width="7.8" height=".72" rx=".3" ry=".3" transform="rotate(-44.9 58.57 25.9)" fill="#febf10" stroke="#000" stroke-linecap="round" stroke-linejoin="round" stroke-width=".3"/>
  <circle cx="56.6" cy="29.1" r=".5" fill="red" stroke="#000" stroke-linecap="round" stroke-linejoin="round" stroke-width=".3"/>
  <circle cx="57.4" cy="28.4" r=".5" fill="red" stroke="#000" stroke-linecap="round" stroke-linejoin="round" stroke-width=".3"/>
  <circle cx="58.1" cy="27.7" r=".5" fill="red" stroke="#000" stroke-linecap="round" stroke-linejoin="round" stroke-width=".3"/>
  <circle cx="58.8" cy="26.9" r=".5" fill="red" stroke="#000" stroke-linecap="round" stroke-linejoin="round" stroke-width=".3"/>
  <circle cx="59.5" cy="26.2" r=".5" fill="red" stroke="#000" stroke-linecap="round" stroke-linejoin="round" stroke-width=".3"/>
  <circle cx="60.3" cy="25.5" r=".5" fill="red" stroke="#000" stroke-linecap="round" stroke-linejoin="round" stroke-width=".3"/>
  <circle cx="61" cy="24.8" r=".5" fill="red" stroke="#000" stroke-linecap="round" stroke-linejoin="round" stroke-width=".3"/>
  <circle cx="58.5" cy="16.7" r="1.2" fill="#0065b7" stroke="#000" stroke-linecap="round" stroke-linejoin="round" stroke-width=".4"/>
  <path d="M57.4 13.9a1.1 1.1 0 0 0 1.1 1.1 1.1 1.1 0 0 0 1.2-1.1 1.2 1.2 0 0 0-1.2-1.2 1.1 1.1 0 0 0-1.1 1.2z" fill="red" stroke="#000" stroke-linecap="round" stroke-linejoin="round" stroke-width=".4"/>
  <path d="M59.6 16.5c.4 0 .8-.5.8-1.2s-.3-1.2-.7-1.2-.7.5-.7 1.2.2 1.2.6 1.2zm-2.3 0c.4 0 .8-.6.8-1.2s-.4-1.2-.8-1.2-.7.5-.7 1.2.3 1.2.7 1.2z" fill="red" stroke="#000" stroke-linecap="round" stroke-linejoin="round" stroke-width=".4"/>
  <path d="M58.5 16.2c.4 0 .7-.5.7-1.2s-.3-1.1-.7-1.1-.7.5-.7 1.1.3 1.2.7 1.2z" fill="#980805" stroke="#000" stroke-linecap="round" stroke-linejoin="round" stroke-width=".4"/>
  <path d="M58.5 32.4a5.4 5.4 0 0 1 3.5-1 6 6 0 0 0 3.8-1.4s-.7 2.7-2.2 3.1-1.9-.4-1.9-.4-.1.9-1.7.9-1.5-1.2-1.5-1.2z" fill="#febf10" stroke="#000" stroke-linecap="round" stroke-linejoin="round" stroke-width=".4"/>
  <path d="M58.5 32.4a5.4 5.4 0 0 0-3.5-1 5.6 5.6 0 0 1-3.7-1.4s.6 2.7 2.1 3.1 1.9-.4 1.9-.4.2.9 1.7.9 1.5-1.2 1.5-1.2z" fill="#febf10" stroke="#000" stroke-linecap="round" stroke-linejoin="round" stroke-width=".4"/>
  <path fill="#0065b7" d="M36.3 15.5l2.7-3 2.7 3v24.4h-5.4V15.5z"/>
  <path fill="#004da1" d="M36.3 15.5l2.7-3v27.4h-2.7V15.5z"/>
  <path fill="none" stroke="#000" stroke-linecap="round" stroke-linejoin="round" stroke-width=".4" d="M36.3 15.5l2.7-3 2.7 3v24.4h-5.4V15.5z"/>
  <path fill="#0065b7" stroke="#000" stroke-linecap="round" stroke-linejoin="round" stroke-width=".4" d="M39 12.5v27.3"/>
  <path d="M39.1 38.9c-.7 0-1.3.8-1.3 1.8s.5 1.9 1.2 1.9 1.3-.8 1.3-1.8-.5-1.9-1.2-1.9z" fill="none"/>
  <path d="M42.7 41.4c0 1.5-.7 2.8-1.8 2.8s-.9.4-1.9.4-1.1-.4-1.9-.4-1.8-1.3-1.8-2.8 2.7-4.1 3.7-5.5c1 1.4 3.7 2.6 3.7 5.5z"/>
  <path d="M40.4 40.6c0-1.2-.6-2.1-1.4-2.1s-1.4.9-1.4 2.1c0 1.2.6 2.2 1.4 2.2s1.4-1 1.4-2.2z" fill="red" stroke="#000" stroke-linecap="round" stroke-linejoin="round" stroke-width=".55"/>
  <path d="M38.9 41.5c.4.1.5-1.9 0-1.6M39 42c.5.2.8-.7.8-1.4a1.7 1.7 0 0 0-.6-1.4.5.5 0 0 0-.6.3" fill="none" stroke="#000" stroke-linecap="round" stroke-linejoin="round" stroke-width=".3"/>
  <path d="M41.9 41.4c0 1.2-.6 2.3-1.4 2.3s-.4-.3-.4-.5a.4.4 0 0 1 .4-.4c.3 0 .6-.9.6-1.5s-1.5-3.1-2.1-3.7-2.1 1.9-2.1 3.7.3 1.5.6 1.5a.4.4 0 0 1 .4.4c0 .2-.1.5-.4.5s-1.4-1.1-1.4-2.3 2.2-3.8 2.9-4.5 2.9 2.1 2.9 4.5zm-2.1 1.8c0 .3-.4.6-.8.6s-.8-.3-.8-.6.4-.5.8-.5.8.2.8.5z" fill="#febf10"/>
  <path d="M35.8 41.3a2.8 2.8 0 0 0-2.7-2.8 2.7 2.7 0 0 0-2.8 2.7 2.8 2.8 0 1 0 5.5 0zm11.9 0a2.8 2.8 0 1 0-5.5-.1 2.8 2.8 0 0 0 2.7 2.8 2.8 2.8 0 0 0 2.8-2.8z" fill="#febf10" stroke="#000" stroke-width=".4"/>
  <path d="M33.9 40.2a.9.9 0 0 1-.9.8 1 1 0 0 1-.8-.9.9.9 0 1 1 1.7.1zm0 2.2a.8.8 0 0 1-.9.8.9.9 0 0 1-.8-.8.8.8 0 0 1 .9-.8.9.9 0 0 1 .8.8z" fill="#325723" stroke="#000" stroke-width=".42"/>
  <path d="M31.9 40.5a.7.7 0 0 1 .8.8.8.8 0 0 1-.8.8.9.9 0 0 1-.8-.8.8.8 0 0 1 .8-.8zm2.3 0a.8.8 0 0 1 .8.8.9.9 0 0 1-.8.8.8.8 0 0 1-.8-.8.7.7 0 0 1 .8-.8z" fill="#325723" stroke="#000" stroke-width=".42"/>
  <path d="M33.1 40.5a.8.8 0 0 0-.9.8.9.9 0 0 0 .8.8.9.9 0 0 0 .9-.8.8.8 0 0 0-.8-.8z" fill="#325723" stroke="#000" stroke-width=".3"/>
  <path d="M45.8 40.2a.9.9 0 0 1-.9.8 1 1 0 0 1-.8-.9.9.9 0 1 1 1.7.1zm0 2.2a.8.8 0 0 1-.9.8.9.9 0 0 1-.8-.8.8.8 0 0 1 .9-.8.9.9 0 0 1 .8.8z" fill="#325723" stroke="#000" stroke-width=".42"/>
  <path d="M43.8 40.5a.7.7 0 0 1 .8.8.8.8 0 0 1-.8.8.9.9 0 0 1-.8-.8.8.8 0 0 1 .8-.8zm2.3 0a.8.8 0 0 1 .8.8.9.9 0 0 1-.8.8.8.8 0 0 1-.8-.8.7.7 0 0 1 .8-.8z" fill="#325723" stroke="#000" stroke-width=".42"/>
  <path d="M45 40.5a.8.8 0 0 0-.9.8.9.9 0 0 0 .8.8.9.9 0 0 0 .9-.8.8.8 0 0 0-.8-.8z" fill="#325723" stroke="#000" stroke-width=".3"/>
  <ellipse cx="39" cy="52" rx="2.8" ry="8.2" fill="#febf10"/>
  <path d="M39 60.2c1.5 0 2.8-3.7 2.8-8.2s-1.3-8.1-2.8-8.1" fill="#d09b07"/>
  <ellipse cx="39" cy="52" rx="2.8" ry="8.2" fill="none" stroke="#000" stroke-linecap="round" stroke-linejoin="round" stroke-width=".4"/>
  <rect x="36.3" y="56.4" width="6.4" height=".72" rx=".3" ry=".3" transform="rotate(-44.9 39.43 56.8)" fill="#febf10" stroke="#000" stroke-linecap="round" stroke-linejoin="round" stroke-width=".3"/>
  <rect x="35.3" y="54.2" width="7.8" height=".72" rx=".3" ry=".3" transform="rotate(-44.9 39.09 54.54)" fill="#febf10" stroke="#000" stroke-linecap="round" stroke-linejoin="round" stroke-width=".3"/>
  <circle cx="37.2" cy="57.9" r=".5" fill="red" stroke="#000" stroke-linecap="round" stroke-linejoin="round" stroke-width=".3"/>
  <circle cx="37.9" cy="57.1" r=".5" fill="red" stroke="#000" stroke-linecap="round" stroke-linejoin="round" stroke-width=".3"/>
  <circle cx="38.6" cy="56.4" r=".5" fill="red" stroke="#000" stroke-linecap="round" stroke-linejoin="round" stroke-width=".3"/>
  <circle cx="39.4" cy="55.7" r=".5" fill="red" stroke="#000" stroke-linecap="round" stroke-linejoin="round" stroke-width=".3"/>
  <circle cx="40.1" cy="54.9" r=".5" fill="red" stroke="#000" stroke-linecap="round" stroke-linejoin="round" stroke-width=".3"/>
  <circle cx="40.8" cy="54.2" r=".5" fill="red" stroke="#000" stroke-linecap="round" stroke-linejoin="round" stroke-width=".3"/>
  <circle cx="41.6" cy="53.5" r=".5" fill="red" stroke="#000" stroke-linecap="round" stroke-linejoin="round" stroke-width=".3"/>
  <rect x="35" y="48.8" width="7.2" height=".72" rx=".3" ry=".3" transform="rotate(135.1 38.57 49.18)" fill="#febf10" stroke="#000" stroke-linecap="round" stroke-linejoin="round" stroke-width=".3"/>
  <rect x="35" y="51" width="7.8" height=".72" rx=".3" ry=".3" transform="rotate(135.1 38.92 51.44)" fill="#febf10" stroke="#000" stroke-linecap="round" stroke-linejoin="round" stroke-width=".3"/>
  <circle cx="40.9" cy="48.1" r=".5" fill="red" stroke="#000" stroke-linecap="round" stroke-linejoin="round" stroke-width=".3"/>
  <circle cx="40.2" cy="48.8" r=".5" fill="red" stroke="#000" stroke-linecap="round" stroke-linejoin="round" stroke-width=".3"/>
  <circle cx="39.4" cy="49.6" r=".5" fill="red" stroke="#000" stroke-linecap="round" stroke-linejoin="round" stroke-width=".3"/>
  <circle cx="38.7" cy="50.3" r=".5" fill="red" stroke="#000" stroke-linecap="round" stroke-linejoin="round" stroke-width=".3"/>
  <circle cx="38" cy="51" r=".5" fill="red" stroke="#000" stroke-linecap="round" stroke-linejoin="round" stroke-width=".3"/>
  <circle cx="37.2" cy="51.8" r=".5" fill="red" stroke="#000" stroke-linecap="round" stroke-linejoin="round" stroke-width=".3"/>
  <circle cx="36.5" cy="52.5" r=".5" fill="red" stroke="#000" stroke-linecap="round" stroke-linejoin="round" stroke-width=".3"/>
  <circle cx="39" cy="60.5" r="1.2" fill="#0065b7" stroke="#000" stroke-linecap="round" stroke-linejoin="round" stroke-width=".4"/>
  <path d="M40.2 63.4a1.2 1.2 0 0 0-2.4 0 1.2 1.2 0 0 0 2.4 0z" fill="red" stroke="#000" stroke-linecap="round" stroke-linejoin="round" stroke-width=".4"/>
  <path d="M37.9 60.8c-.4 0-.8.5-.8 1.1s.3 1.2.7 1.2.7-.5.8-1.1-.3-1.2-.7-1.2zm2.3 0c-.4 0-.8.5-.8 1.2s.4 1.2.8 1.2.7-.6.7-1.2-.3-1.2-.7-1.2z" fill="red" stroke="#000" stroke-linecap="round" stroke-linejoin="round" stroke-width=".4"/>
  <path d="M39 61c-.4 0-.7.6-.7 1.2s.3 1.2.7 1.2.7-.5.7-1.2-.3-1.2-.7-1.2z" fill="#980805" stroke="#000" stroke-linecap="round" stroke-linejoin="round" stroke-width=".4"/>
  <path d="M39 44.8a5.4 5.4 0 0 1-3.5 1 5.8 5.8 0 0 0-3.8 1.5s.7-2.8 2.2-3.2 1.9.4 1.9.4.2-.9 1.7-.8 1.5 1.1 1.5 1.1z" fill="#febf10" stroke="#000" stroke-linecap="round" stroke-linejoin="round" stroke-width=".4"/>
  <path d="M39 44.8a5.4 5.4 0 0 0 3.5 1 5.8 5.8 0 0 1 3.8 1.5s-.7-2.8-2.2-3.2-1.9.4-1.9.4-.2-.9-1.7-.8-1.5 1.1-1.5 1.1z" fill="#febf10" stroke="#000" stroke-linecap="round" stroke-linejoin="round" stroke-width=".4"/>
  <path fill="#0065b7" d="M55.8 78.2l2.7-3 2.7 3v24.5h-5.4V78.2z"/>
  <path fill="#004da1" d="M55.8 78.2l2.7-3 .1 27.5h-2.8V78.2z"/>
  <path fill="none" stroke="#000" stroke-linecap="round" stroke-linejoin="round" stroke-width=".4" d="M55.8 78.2l2.7-3 2.7 3v24.5h-5.4V78.2z"/>
  <path fill="#0065b7" stroke="#000" stroke-linecap="round" stroke-linejoin="round" stroke-width=".4" d="M58.5 75.2v27.4"/>
  <path d="M58.6 101.6c-.7 0-1.3.8-1.3 1.9s.5 1.9 1.2 1.9 1.3-.8 1.3-1.9-.5-1.9-1.2-1.9z" fill="none"/>
  <path d="M62.2 104.2c0 1.5-.7 2.8-1.8 2.8s-.9.3-1.9.3-1.1-.3-1.9-.3-1.8-1.3-1.8-2.8 2.8-4.2 3.7-5.6c1 1.4 3.7 2.6 3.7 5.6z"/>
  <path d="M59.9 103.4c0-1.2-.6-2.2-1.4-2.2s-1.3 1-1.3 2.2c0 1.2.6 2.1 1.3 2.1s1.4-.9 1.4-2.1z" fill="red" stroke="#000" stroke-linecap="round" stroke-linejoin="round" stroke-width=".55"/>
  <path d="M58.4 104.3c.4.1.5-1.9 0-1.7m.1 2.2c.6.1.8-.8.8-1.5a1.3 1.3 0 0 0-.6-1.3.4.4 0 0 0-.6.2" fill="none" stroke="#000" stroke-linecap="round" stroke-linejoin="round" stroke-width=".3"/>
  <path d="M61.4 104.2c0 1.2-.5 2.2-1.4 2.2a.4.4 0 0 1-.4-.4c0-.2.2-.5.4-.5s.6-.9.6-1.4-1.5-3.1-2.1-3.7-2.1 1.9-2.1 3.7.3 1.4.6 1.4a.5.5 0 0 1 .5.5.5.5 0 0 1-.5.4c-.8 0-1.4-1-1.4-2.2s2.2-3.8 2.9-4.5 2.9 2.1 2.9 4.5zm-2.1 1.8c0 .3-.4.5-.8.5s-.7-.2-.7-.5a.7.7 0 0 1 .7-.6c.4 0 .8.3.8.6z" fill="#febf10"/>
  <path d="M55.3 104a2.7 2.7 0 0 0-2.7-2.8 2.8 2.8 0 0 0-2.8 2.8 2.8 2.8 0 0 0 2.7 2.8 2.7 2.7 0 0 0 2.8-2.7zm12 0a2.8 2.8 0 0 0-5.6 0 2.8 2.8 0 0 0 2.7 2.8 2.9 2.9 0 0 0 2.9-2.7z" fill="#febf10" stroke="#000" stroke-width=".4"/>
  <path d="M53.4 102.9a.9.9 0 0 1-.8.8c-.5 0-.9-.4-.8-.8a.7.7 0 0 1 .8-.8.9.9 0 0 1 .8.8zm0 2.3a.9.9 0 0 1-.8.8.8.8 0 0 1-.8-.9.8.8 0 0 1 .8-.8.9.9 0 0 1 .8.9z" fill="#325723" stroke="#000" stroke-width=".42"/>
  <path d="M51.4 103.2a.8.8 0 0 1 .8.8.7.7 0 0 1-.8.8.8.8 0 0 1-.8-.8.9.9 0 0 1 .8-.8zm2.3 0a.9.9 0 0 1 .8.8.8.8 0 0 1-.8.8.7.7 0 0 1-.8-.8.9.9 0 0 1 .8-.8z" fill="#325723" stroke="#000" stroke-width=".42"/>
  <path d="M52.6 103.2a.8.8 0 0 0-.8.8c-.1.5.3.8.8.8a.8.8 0 0 0 .8-.8.9.9 0 0 0-.8-.8z" fill="#325723" stroke="#000" stroke-width=".3"/>
  <path d="M65.3 102.9a.9.9 0 0 1-.8.8.8.8 0 0 1-.8-.8.7.7 0 0 1 .8-.8.9.9 0 0 1 .8.8zm0 2.3a.9.9 0 0 1-.8.8.8.8 0 0 1-.8-.9.8.8 0 0 1 .8-.8.9.9 0 0 1 .8.9z" fill="#325723" stroke="#000" stroke-width=".42"/>
  <path d="M63.3 103.2a.8.8 0 1 1 0 1.6.8.8 0 0 1-.8-.8.9.9 0 0 1 .8-.8zm2.3 0a.8.8 0 0 1 0 1.6.7.7 0 0 1-.8-.8.9.9 0 0 1 .8-.8z" fill="#325723" stroke="#000" stroke-width=".42"/>
  <path d="M64.5 103.2a.8.8 0 0 0-.8.8.7.7 0 0 0 .8.8.8.8 0 0 0 .8-.8.9.9 0 0 0-.8-.8z" fill="#325723" stroke="#000" stroke-width=".3"/>
  <ellipse cx="58.5" cy="114.8" rx="2.8" ry="8.2" fill="#febf10"/>
  <path d="M58.5 123c1.5 0 2.8-3.7 2.8-8.2s-1.3-8.2-2.8-8.2" fill="#d09b07"/>
  <ellipse cx="58.5" cy="114.8" rx="2.8" ry="8.2" fill="none" stroke="#000" stroke-linecap="round" stroke-linejoin="round" stroke-width=".4"/>
  <rect x="55.8" y="119.2" width="6.4" height=".72" rx=".3" ry=".3" transform="rotate(-44.9 58.9 119.4)" fill="#febf10" stroke="#000" stroke-linecap="round" stroke-linejoin="round" stroke-width=".3"/>
  <rect x="54.8" y="117" width="7.8" height=".72" rx=".3" ry=".3" transform="rotate(-44.9 58.63 117.3)" fill="#febf10" stroke="#000" stroke-linecap="round" stroke-linejoin="round" stroke-width=".3"/>
  <circle cx="56.7" cy="120.6" r=".5" fill="red" stroke="#000" stroke-linecap="round" stroke-linejoin="round" stroke-width=".3"/>
  <circle cx="57.4" cy="119.9" r=".5" fill="red" stroke="#000" stroke-linecap="round" stroke-linejoin="round" stroke-width=".3"/>
  <circle cx="58.2" cy="119.1" r=".5" fill="red" stroke="#000" stroke-linecap="round" stroke-linejoin="round" stroke-width=".3"/>
  <circle cx="58.9" cy="118.4" r=".5" fill="red" stroke="#000" stroke-linecap="round" stroke-linejoin="round" stroke-width=".3"/>
  <circle cx="59.6" cy="117.7" r=".5" fill="red" stroke="#000" stroke-linecap="round" stroke-linejoin="round" stroke-width=".3"/>
  <circle cx="60.4" cy="117" r=".5" fill="red" stroke="#000" stroke-linecap="round" stroke-linejoin="round" stroke-width=".3"/>
  <circle cx="61.1" cy="116.2" r=".5" fill="red" stroke="#000" stroke-linecap="round" stroke-linejoin="round" stroke-width=".3"/>
  <rect x="54.5" y="111.5" width="7.2" height=".72" rx=".3" ry=".3" transform="rotate(135.1 58.07 111.92)" fill="#febf10" stroke="#000" stroke-linecap="round" stroke-linejoin="round" stroke-width=".3"/>
  <rect x="54.5" y="113.8" width="7.8" height=".72" rx=".3" ry=".3" transform="rotate(135.1 58.43 114.17)" fill="#febf10" stroke="#000" stroke-linecap="round" stroke-linejoin="round" stroke-width=".3"/>
  <circle cx="60.4" cy="110.9" r=".5" fill="red" stroke="#000" stroke-linecap="round" stroke-linejoin="round" stroke-width=".3"/>
  <circle cx="59.7" cy="111.6" r=".5" fill="red" stroke="#000" stroke-linecap="round" stroke-linejoin="round" stroke-width=".3"/>
  <circle cx="58.9" cy="112.3" r=".5" fill="red" stroke="#000" stroke-linecap="round" stroke-linejoin="round" stroke-width=".3"/>
  <circle cx="58.2" cy="113" r=".5" fill="red" stroke="#000" stroke-linecap="round" stroke-linejoin="round" stroke-width=".3"/>
  <circle cx="57.5" cy="113.8" r=".5" fill="red" stroke="#000" stroke-linecap="round" stroke-linejoin="round" stroke-width=".3"/>
  <circle cx="56.8" cy="114.5" r=".5" fill="red" stroke="#000" stroke-linecap="round" stroke-linejoin="round" stroke-width=".3"/>
  <circle cx="56" cy="115.2" r=".5" fill="red" stroke="#000" stroke-linecap="round" stroke-linejoin="round" stroke-width=".3"/>
  <circle cx="58.5" cy="123.3" r="1.2" fill="#0065b7" stroke="#000" stroke-linecap="round" stroke-linejoin="round" stroke-width=".4"/>
  <path d="M59.7 126.1a1.1 1.1 0 0 0-1.2-1.1 1.1 1.1 0 0 0-1.1 1.1 1.1 1.1 0 0 0 1.1 1.2 1.2 1.2 0 0 0 1.2-1.2z" fill="red" stroke="#000" stroke-linecap="round" stroke-linejoin="round" stroke-width=".4"/>
  <path d="M57.4 123.5c-.4 0-.8.5-.8 1.2s.3 1.2.7 1.2.8-.5.8-1.2-.3-1.2-.7-1.2zm2.3 0c-.4 0-.7.6-.7 1.2s.3 1.2.7 1.2.7-.5.7-1.2-.3-1.2-.7-1.2z" fill="red" stroke="#000" stroke-linecap="round" stroke-linejoin="round" stroke-width=".4"/>
  <path d="M58.5 123.8c-.4 0-.7.5-.7 1.2s.3 1.1.7 1.1.7-.5.7-1.1-.3-1.2-.7-1.2z" fill="#980805" stroke="#000" stroke-linecap="round" stroke-linejoin="round" stroke-width=".4"/>
  <path d="M58.5 107.6a5.4 5.4 0 0 1-3.5 1 5.6 5.6 0 0 0-3.7 1.4s.6-2.7 2.1-3.1 1.9.4 1.9.4.2-.9 1.7-.9 1.5 1.2 1.5 1.2z" fill="#febf10" stroke="#000" stroke-linecap="round" stroke-linejoin="round" stroke-width=".4"/>
  <path d="M58.5 107.6a5.4 5.4 0 0 0 3.5 1 6 6 0 0 1 3.8 1.4s-.7-2.7-2.2-3.1-1.9.4-1.9.4-.1-.9-1.7-.9-1.5 1.2-1.5 1.2z" fill="#febf10" stroke="#000" stroke-linecap="round" stroke-linejoin="round" stroke-width=".4"/>
  <path fill="#0065b7" d="M16.8 78.2l2.7-3 2.7 3v24.5h-5.4V78.2z"/>
  <path fill="#004da1" d="M16.8 78.2l2.7-3v27.5h-2.7V78.2z"/>
  <path fill="none" stroke="#000" stroke-linecap="round" stroke-linejoin="round" stroke-width=".4" d="M16.8 78.2l2.7-3 2.7 3v24.5h-5.4V78.2z"/>
  <path fill="#0065b7" stroke="#000" stroke-linecap="round" stroke-linejoin="round" stroke-width=".4" d="M19.5 75.2v27.4"/>
  <path d="M19.5 101.6c-.7 0-1.2.8-1.3 1.9s.6 1.9 1.3 1.9 1.3-.8 1.3-1.9-.6-1.9-1.3-1.9z" fill="none"/>
  <path d="M23.2 104.2c0 1.5-.7 2.8-1.8 2.8s-.9.3-1.9.3-1.1-.3-1.9-.3-1.8-1.3-1.8-2.8 2.7-4.2 3.7-5.6c.9 1.4 3.7 2.6 3.7 5.6z"/>
  <path d="M20.8 103.4c0-1.2-.6-2.2-1.3-2.2s-1.4 1-1.4 2.2c0 1.2.6 2.1 1.4 2.1s1.3-.9 1.3-2.1z" fill="red" stroke="#000" stroke-linecap="round" stroke-linejoin="round" stroke-width=".55"/>
  <path d="M19.4 104.3c.4.1.5-1.9-.1-1.7m.2 2.2c.5.1.7-.8.7-1.5s-.2-1.2-.5-1.3-.6 0-.6.2" fill="none" stroke="#000" stroke-linecap="round" stroke-linejoin="round" stroke-width=".3"/>
  <path d="M22.4 104.2c0 1.2-.6 2.2-1.4 2.2a.5.5 0 0 1-.5-.4.5.5 0 0 1 .5-.5c.3 0 .6-.9.6-1.4s-1.5-3.1-2.1-3.7-2.1 1.9-2.1 3.7.2 1.4.6 1.4.4.3.4.5a.4.4 0 0 1-.4.4c-.9 0-1.4-1-1.4-2.2s2.2-3.8 2.9-4.5 2.9 2.1 2.9 4.5zm-2.2 1.8c0 .3-.3.5-.7.5s-.8-.2-.8-.5.4-.6.8-.6a.7.7 0 0 1 .7.6z" fill="#febf10"/>
  <path d="M16.3 104a2.8 2.8 0 0 0-2.7-2.8 3 3 0 0 0-2.9 2.8 2.9 2.9 0 0 0 2.8 2.8 2.8 2.8 0 0 0 2.8-2.7zm11.9 0a2.8 2.8 0 1 0-5.5 0 2.8 2.8 0 1 0 5.5.1z" fill="#febf10" stroke="#000" stroke-width=".4"/>
  <path d="M14.3 102.9a.8.8 0 0 1-.8.8.9.9 0 0 1-.8-.8.8.8 0 0 1 1.6 0zm0 2.3a.8.8 0 0 1-.8.8.9.9 0 0 1-.8-.9.9.9 0 0 1 .8-.8.8.8 0 0 1 .8.9z" fill="#325723" stroke="#000" stroke-width=".42"/>
  <path d="M12.4 103.2a.8.8 0 1 1 0 1.6.7.7 0 0 1-.8-.8.9.9 0 0 1 .8-.8zm2.3 0a.9.9 0 0 1 .8.8.8.8 0 0 1-.8.8.8.8 0 0 1-.9-.8 1 1 0 0 1 .9-.8z" fill="#325723" stroke="#000" stroke-width=".42"/>
  <path d="M13.5 103.2a.9.9 0 0 0-.8.8.8.8 0 0 0 .8.8.7.7 0 0 0 .8-.8.8.8 0 0 0-.8-.8z" fill="#325723" stroke="#000" stroke-width=".3"/>
  <path d="M26.2 102.9a.8.8 0 0 1-.8.8.9.9 0 0 1-.8-.8.8.8 0 0 1 .8-.8c.5 0 .9.4.8.8zm0 2.3a.8.8 0 0 1-.8.8.9.9 0 0 1-.8-.9.9.9 0 0 1 .8-.8.8.8 0 0 1 .8.9z" fill="#325723" stroke="#000" stroke-width=".42"/>
  <path d="M24.3 103.2a.8.8 0 1 1-.8.8.9.9 0 0 1 .8-.8zm2.3 0a.9.9 0 0 1 .8.8.8.8 0 0 1-.8.8.7.7 0 0 1-.8-.8.8.8 0 0 1 .8-.8z" fill="#325723" stroke="#000" stroke-width=".42"/>
  <path d="M25.4 103.2a.9.9 0 0 0-.8.8.8.8 0 0 0 .8.8.7.7 0 0 0 .8-.8c.1-.4-.3-.8-.8-.8z" fill="#325723" stroke="#000" stroke-width=".3"/>
  <ellipse cx="19.5" cy="114.8" rx="2.8" ry="8.2" fill="#febf10"/>
  <path d="M19.5 123c1.5 0 2.7-3.7 2.7-8.2s-1.2-8.2-2.7-8.2" fill="#d09b07"/>
  <ellipse cx="19.5" cy="114.8" rx="2.8" ry="8.2" fill="none" stroke="#000" stroke-linecap="round" stroke-linejoin="round" stroke-width=".4"/>
  <rect x="16.8" y="119.2" width="6.4" height=".72" rx=".3" ry=".3" transform="rotate(-44.9 19.92 119.44)" fill="#febf10" stroke="#000" stroke-linecap="round" stroke-linejoin="round" stroke-width=".3"/>
  <rect x="15.8" y="117" width="7.8" height=".72" rx=".3" ry=".3" transform="rotate(-44.9 19.58 117.18)" fill="#febf10" stroke="#000" stroke-linecap="round" stroke-linejoin="round" stroke-width=".3"/>
  <circle cx="17.7" cy="120.6" r=".5" fill="red" stroke="#000" stroke-linecap="round" stroke-linejoin="round" stroke-width=".3"/>
  <circle cx="18.4" cy="119.9" r=".5" fill="red" stroke="#000" stroke-linecap="round" stroke-linejoin="round" stroke-width=".3"/>
  <circle cx="19.1" cy="119.1" r=".5" fill="red" stroke="#000" stroke-linecap="round" stroke-linejoin="round" stroke-width=".3"/>
  <circle cx="19.9" cy="118.4" r=".5" fill="red" stroke="#000" stroke-linecap="round" stroke-linejoin="round" stroke-width=".3"/>
  <circle cx="20.6" cy="117.7" r=".5" fill="red" stroke="#000" stroke-linecap="round" stroke-linejoin="round" stroke-width=".3"/>
  <circle cx="21.3" cy="117" r=".5" fill="red" stroke="#000" stroke-linecap="round" stroke-linejoin="round" stroke-width=".3"/>
  <circle cx="22.1" cy="116.2" r=".5" fill="red" stroke="#000" stroke-linecap="round" stroke-linejoin="round" stroke-width=".3"/>
  <rect x="15.5" y="111.5" width="7.2" height=".72" rx=".3" ry=".3" transform="rotate(135.1 19.02 111.94)" fill="#febf10" stroke="#000" stroke-linecap="round" stroke-linejoin="round" stroke-width=".3"/>
  <rect x="15.5" y="113.8" width="7.8" height=".72" rx=".3" ry=".3" transform="rotate(135.1 19.37 114.19)" fill="#febf10" stroke="#000" stroke-linecap="round" stroke-linejoin="round" stroke-width=".3"/>
  <circle cx="21.4" cy="110.9" r=".5" fill="red" stroke="#000" stroke-linecap="round" stroke-linejoin="round" stroke-width=".3"/>
  <circle cx="20.6" cy="111.6" r=".5" fill="red" stroke="#000" stroke-linecap="round" stroke-linejoin="round" stroke-width=".3"/>
  <circle cx="19.9" cy="112.3" r=".5" fill="red" stroke="#000" stroke-linecap="round" stroke-linejoin="round" stroke-width=".3"/>
  <circle cx="19.2" cy="113" r=".5" fill="red" stroke="#000" stroke-linecap="round" stroke-linejoin="round" stroke-width=".3"/>
  <circle cx="18.5" cy="113.8" r=".5" fill="red" stroke="#000" stroke-linecap="round" stroke-linejoin="round" stroke-width=".3"/>
  <circle cx="17.7" cy="114.5" r=".5" fill="red" stroke="#000" stroke-linecap="round" stroke-linejoin="round" stroke-width=".3"/>
  <circle cx="17" cy="115.2" r=".5" fill="red" stroke="#000" stroke-linecap="round" stroke-linejoin="round" stroke-width=".3"/>
  <circle cx="19.5" cy="123.3" r="1.2" fill="#0065b7" stroke="#000" stroke-linecap="round" stroke-linejoin="round" stroke-width=".4"/>
  <path d="M20.6 126.1a1.1 1.1 0 0 0-1.1-1.1 1.1 1.1 0 0 0-1.2 1.1 1.2 1.2 0 0 0 1.2 1.2 1.1 1.1 0 0 0 1.1-1.2z" fill="red" stroke="#000" stroke-linecap="round" stroke-linejoin="round" stroke-width=".4"/>
  <path d="M18.4 123.5c-.4 0-.8.5-.8 1.2s.3 1.2.7 1.2.7-.5.7-1.2-.2-1.2-.6-1.2zm2.3 0c-.4 0-.8.6-.8 1.2s.4 1.2.8 1.2.7-.5.7-1.2-.3-1.2-.7-1.2z" fill="red" stroke="#000" stroke-linecap="round" stroke-linejoin="round" stroke-width=".4"/>
  <path d="M19.5 123.8c-.4 0-.7.5-.7 1.2s.3 1.1.7 1.1.7-.5.7-1.1-.3-1.2-.7-1.2z" fill="#980805" stroke="#000" stroke-linecap="round" stroke-linejoin="round" stroke-width=".4"/>
  <path d="M19.5 107.6a5.4 5.4 0 0 1-3.5 1 6 6 0 0 0-3.8 1.4s.7-2.7 2.2-3.1 1.9.4 1.9.4.1-.9 1.7-.9 1.5 1.2 1.5 1.2zm0 0a5.4 5.4 0 0 0 3.5 1 5.6 5.6 0 0 1 3.7 1.4s-.6-2.7-2.1-3.1-1.9.4-1.9.4-.2-.9-1.7-.9-1.5 1.2-1.5 1.2z" fill="#febf10" stroke="#000" stroke-linecap="round" stroke-linejoin="round" stroke-width=".4"/>
  <path fill="#0065b7" d="M41.7 124.5l-2.7 3-2.7-3v-24.4h5.4v24.4z"/>
  <path fill="#004da1" d="M41.7 124.5l-2.7 3v-27.4h2.7v24.4z"/>
  <path fill="none" stroke="#000" stroke-linecap="round" stroke-linejoin="round" stroke-width=".4" d="M41.7 124.5l-2.7 3-2.7-3v-24.4h5.4v24.4z"/>
  <path fill="#0065b7" stroke="#000" stroke-linecap="round" stroke-linejoin="round" stroke-width=".4" d="M39 127.5v-27.3"/>
  <path d="M38.9 101.1c.7 0 1.3-.8 1.3-1.8s-.5-1.9-1.2-1.9-1.3.8-1.3 1.8.5 1.9 1.2 1.9z" fill="none"/>
  <path d="M35.3 98.6c0-1.5.7-2.8 1.8-2.8s.9-.4 1.9-.4 1.1.4 1.9.4 1.8 1.3 1.8 2.8-2.7 4.1-3.7 5.5c-1-1.4-3.7-2.6-3.7-5.5z"/>
  <path d="M37.6 99.4c0 1.2.6 2.1 1.4 2.1s1.4-.9 1.4-2.1c0-1.2-.6-2.2-1.4-2.2s-1.4 1-1.4 2.2z" fill="red" stroke="#000" stroke-linecap="round" stroke-linejoin="round" stroke-width=".55"/>
  <path d="M39.1 98.5c-.4-.1-.5 1.9 0 1.6M39 98c-.5-.2-.8.7-.8 1.4a1.7 1.7 0 0 0 .6 1.4.5.5 0 0 0 .6-.3" fill="none" stroke="#000" stroke-linecap="round" stroke-linejoin="round" stroke-width=".3"/>
  <path d="M36.1 98.6c0-1.2.6-2.3 1.4-2.3s.4.3.4.5a.4.4 0 0 1-.4.4c-.3 0-.6.9-.6 1.5s1.5 3.1 2.1 3.7 2.1-1.9 2.1-3.7-.3-1.5-.6-1.5a.4.4 0 0 1-.4-.4c0-.2.1-.5.4-.5s1.4 1.1 1.4 2.3-2.2 3.8-2.9 4.5-2.9-2.1-2.9-4.5zm2.1-1.8c0-.3.4-.6.8-.6s.8.3.8.6-.4.5-.8.5-.8-.2-.8-.5z" fill="#febf10"/>
  <path d="M42.2 98.7a2.8 2.8 0 0 0 2.7 2.8 2.7 2.7 0 0 0 2.8-2.7 2.7 2.7 0 0 0-2.7-2.9 2.8 2.8 0 0 0-2.8 2.8zm-11.9 0a2.8 2.8 0 0 0 5.5.1 2.8 2.8 0 1 0-5.5 0z" fill="#febf10" stroke="#000" stroke-width=".4"/>
  <path d="M44.1 99.8a.9.9 0 1 1 .8.9.9.9 0 0 1-.8-.9zm0-2.2a.8.8 0 0 1 .9-.8.9.9 0 0 1 .8.8.9.9 0 0 1-.9.8.9.9 0 0 1-.8-.8z" fill="#325723" stroke="#000" stroke-width=".42"/>
  <path d="M46.1 99.5a.7.7 0 0 1-.8-.8.8.8 0 0 1 .8-.8.9.9 0 0 1 .8.8.8.8 0 0 1-.8.8zm-2.3 0a.8.8 0 0 1-.8-.8.9.9 0 0 1 .8-.8.8.8 0 0 1 .8.8.7.7 0 0 1-.8.8z" fill="#325723" stroke="#000" stroke-width=".42"/>
  <path d="M44.9 99.5a.8.8 0 0 0 .9-.8.9.9 0 0 0-.8-.8.9.9 0 0 0-.9.8.8.8 0 0 0 .8.8z" fill="#325723" stroke="#000" stroke-width=".3"/>
  <path d="M32.2 99.8a.9.9 0 1 1 .8.9.9.9 0 0 1-.8-.9zm0-2.2a.8.8 0 0 1 .9-.8.9.9 0 0 1 .8.8.9.9 0 0 1-.9.8.9.9 0 0 1-.8-.8z" fill="#325723" stroke="#000" stroke-width=".42"/>
  <path d="M34.2 99.5a.7.7 0 0 1-.8-.8.8.8 0 0 1 .8-.8.9.9 0 0 1 .8.8.8.8 0 0 1-.8.8zm-2.3 0a.8.8 0 0 1-.8-.8.9.9 0 0 1 .8-.8.8.8 0 0 1 .8.8.7.7 0 0 1-.8.8z" fill="#325723" stroke="#000" stroke-width=".42"/>
  <path d="M33 99.5a.8.8 0 0 0 .9-.8.9.9 0 0 0-.8-.8.9.9 0 0 0-.9.8.8.8 0 0 0 .8.8z" fill="#325723" stroke="#000" stroke-width=".3"/>
  <ellipse cx="39" cy="88" rx="2.8" ry="8.2" fill="#febf10"/>
  <path d="M39 79.8c-1.5 0-2.8 3.6-2.8 8.2s1.3 8.1 2.8 8.1" fill="#d09b07"/>
  <ellipse cx="39" cy="88" rx="2.8" ry="8.2" fill="none" stroke="#000" stroke-linecap="round" stroke-linejoin="round" stroke-width=".4"/>
  <rect x="35.3" y="82.8" width="6.4" height=".72" rx=".3" ry=".3" transform="rotate(135.1 38.5 83.22)" fill="#febf10" stroke="#000" stroke-linecap="round" stroke-linejoin="round" stroke-width=".3"/>
  <rect x="34.9" y="85.1" width="7.8" height=".72" rx=".3" ry=".3" transform="rotate(135.1 38.8 85.46)" fill="#febf10" stroke="#000" stroke-linecap="round" stroke-linejoin="round" stroke-width=".3"/>
  <circle cx="40.8" cy="82.1" r=".5" fill="red" stroke="#000" stroke-linecap="round" stroke-linejoin="round" stroke-width=".3"/>
  <circle cx="40.1" cy="82.9" r=".5" fill="red" stroke="#000" stroke-linecap="round" stroke-linejoin="round" stroke-width=".3"/>
  <circle cx="39.4" cy="83.6" r=".5" fill="red" stroke="#000" stroke-linecap="round" stroke-linejoin="round" stroke-width=".3"/>
  <circle cx="38.6" cy="84.3" r=".5" fill="red" stroke="#000" stroke-linecap="round" stroke-linejoin="round" stroke-width=".3"/>
  <circle cx="37.9" cy="85.1" r=".5" fill="red" stroke="#000" stroke-linecap="round" stroke-linejoin="round" stroke-width=".3"/>
  <circle cx="37.2" cy="85.8" r=".5" fill="red" stroke="#000" stroke-linecap="round" stroke-linejoin="round" stroke-width=".3"/>
  <circle cx="36.4" cy="86.5" r=".5" fill="red" stroke="#000" stroke-linecap="round" stroke-linejoin="round" stroke-width=".3"/>
  <rect x="35.8" y="90.5" width="7.2" height=".72" rx=".3" ry=".3" transform="rotate(-44.9 39.29 90.75)" fill="#febf10" stroke="#000" stroke-linecap="round" stroke-linejoin="round" stroke-width=".3"/>
  <rect x="35.2" y="88.2" width="7.8" height=".72" rx=".3" ry=".3" transform="rotate(-44.9 39.07 88.54)" fill="#febf10" stroke="#000" stroke-linecap="round" stroke-linejoin="round" stroke-width=".3"/>
  <circle cx="37.1" cy="91.9" r=".5" fill="red" stroke="#000" stroke-linecap="round" stroke-linejoin="round" stroke-width=".3"/>
  <circle cx="37.8" cy="91.2" r=".5" fill="red" stroke="#000" stroke-linecap="round" stroke-linejoin="round" stroke-width=".3"/>
  <circle cx="38.6" cy="90.4" r=".5" fill="red" stroke="#000" stroke-linecap="round" stroke-linejoin="round" stroke-width=".3"/>
  <circle cx="39.3" cy="89.7" r=".5" fill="red" stroke="#000" stroke-linecap="round" stroke-linejoin="round" stroke-width=".3"/>
  <circle cx="40" cy="89" r=".5" fill="red" stroke="#000" stroke-linecap="round" stroke-linejoin="round" stroke-width=".3"/>
  <circle cx="40.8" cy="88.2" r=".5" fill="red" stroke="#000" stroke-linecap="round" stroke-linejoin="round" stroke-width=".3"/>
  <circle cx="41.5" cy="87.5" r=".5" fill="red" stroke="#000" stroke-linecap="round" stroke-linejoin="round" stroke-width=".3"/>
  <circle cx="39" cy="79.5" r="1.2" fill="#0065b7" stroke="#000" stroke-linecap="round" stroke-linejoin="round" stroke-width=".4"/>
  <path d="M37.8 76.6a1.2 1.2 0 0 0 2.4 0 1.2 1.2 0 0 0-2.4 0z" fill="red" stroke="#000" stroke-linecap="round" stroke-linejoin="round" stroke-width=".4"/>
  <path d="M40.1 79.2c.4 0 .8-.5.8-1.1s-.3-1.2-.7-1.2-.7.5-.8 1.1.3 1.2.7 1.2zm-2.3 0c.4 0 .8-.5.8-1.2s-.4-1.2-.8-1.2-.7.6-.7 1.2.3 1.2.7 1.2z" fill="red" stroke="#000" stroke-linecap="round" stroke-linejoin="round" stroke-width=".4"/>
  <path d="M39 79c.4 0 .7-.6.7-1.2s-.3-1.2-.7-1.2-.7.5-.7 1.2.3 1.2.7 1.2z" fill="#980805" stroke="#000" stroke-linecap="round" stroke-linejoin="round" stroke-width=".4"/>
  <path d="M39 95.2a5.4 5.4 0 0 1 3.5-1 5.8 5.8 0 0 0 3.8-1.5s-.7 2.8-2.2 3.2-1.9-.4-1.9-.4-.2.9-1.7.8-1.5-1.1-1.5-1.1z" fill="#febf10" stroke="#000" stroke-linecap="round" stroke-linejoin="round" stroke-width=".4"/>
  <path d="M39 95.2a5.4 5.4 0 0 0-3.5-1 5.8 5.8 0 0 1-3.8-1.5s.7 2.8 2.2 3.2 1.9-.4 1.9-.4.2.9 1.7.8 1.5-1.1 1.5-1.1z" fill="#febf10" stroke="#000" stroke-linecap="round" stroke-linejoin="round" stroke-width=".4"/>
  <path fill="none" stroke="#000" stroke-linecap="round" stroke-linejoin="round" stroke-width=".4" d="M8 7.9h62v124.31H8z"/>
</svg>
