<svg xmlns="http://www.w3.org/2000/svg" viewBox="0 0 78 140">
  <rect width="78" height="140" rx="6" ry="6" fill="#fff"/>
  <path fill="#f3bc84" d="M43.3 108.8l1.5-3.2 2.6-3.5-6.3-.5-6.5.4-4.1 1 3 3.9 1.6 2.6H39l4.1-.2.2-.5z"/>
  <path d="M39.1 109.1a26.3 26.3 0 0 1-2-3.8c0-.9.2-3.5.2-3.5l-6.7 1.1 4.6 6.5z" fill="#c69c6d"/>
  <path fill="#0d3a12" d="M66.2 80.5l.1-10.5-48.6.1 4.4 20.4 44.1-10z"/>
  <path d="M30.1 79.3a112 112 0 0 0-3.8 12 18.2 18.2 0 0 0 .8 8.8h24.5s-.5-17.7-2-20.4-19.5-.4-19.5-.4z" fill="#0065b7" stroke="#000" stroke-linecap="round" stroke-linejoin="round" stroke-width=".4"/>
  <path d="M25.8 70l3.7 8.1 19.3-.4 4.5-7.6m0 0H25.8" fill="#febf10"/>
  <path fill="#d09b07" stroke="#000" stroke-linecap="round" stroke-linejoin="round" stroke-width=".4" d="M52 70.2l-3.8 6.5-18.1.4-.2-.6L27 70"/>
  <path d="M25.8 70l3.7 8.1 19.3-.4 4.4-7.5" fill="none" stroke="#000" stroke-linecap="round" stroke-linejoin="round" stroke-width=".4"/>
  <path d="M35.8 76a19.9 19.9 0 0 1 3.4-5.9h1.5a16.3 16.3 0 0 1 3.1 5.5l-8 .3" fill="#d09b07"/>
  <path fill="none" stroke="#000" stroke-linecap="round" stroke-linejoin="round" stroke-width=".4" d="M39.8 76v-5.9m.1 4.3l1.9-3.4m-1.7 3.6l3-1.3m-3.5 1L37.8 71m1.5 3.6l-2.8-1.3"/>
  <path d="M35.8 76a25.1 25.1 0 0 1 3.4-6H38a19.1 19.1 0 0 0-3.5 7l10.6-.3a16.7 16.7 0 0 0-3.3-6.7h-1.2a18.8 18.8 0 0 1 3.2 5.6l-8 .3" fill="#febf10"/>
  <path d="M40.6 70.1a18.8 18.8 0 0 1 3.2 5.6l-8 .3m2.1-5.9a19.3 19.3 0 0 0-3.4 6.9l10.6-.3a16.9 16.9 0 0 0-3.2-6.6M35.8 76a21.7 21.7 0 0 1 3.3-5.8" fill="none" stroke="#000" stroke-linecap="round" stroke-linejoin="round" stroke-width=".4"/>
  <path fill="#f2f2f2" stroke="#000" stroke-linecap="round" stroke-linejoin="round" stroke-width=".4" d="M49.8 96.3l.4-1.4-.9-1.1.6-1.6-1-.9.7-1.4-1-.8.7-1.5-1.2-1L49 85l-1.2-.6.5-1.5-1-.7.8-1.4-1.4-.6.6-1.6-1.5-.5-1.1.4 3.6 19.6 1.3-.2.2-1.6zM30.7 98l-.5-1.4 1-1.1-.7-1.6 1-.9-.6-1.4 1-.8-.8-1.5 1.2-1-.8-1.6 1.1-.6-.5-1.5 1.1-.7-.8-1.4 1.3-.6-.6-1.6 1.5-.5 1.2.4-3.7 19.6-1.2-.2-.2-1.6z"/>
  <path fill="#d09b07" d="M49.1 98l-3.8-19.7h-9.9l-3.6 20.2 8.5-.7 8.8.2z"/>
  <path fill="#004da1" d="M42.8 97.3l-1.5-18.7h-1.8l-.9 18.9 4.2-.2z"/>
  <path fill="none" stroke="#000" stroke-linecap="round" stroke-linejoin="round" stroke-width=".4" d="M41.7 97L39 94.2m2.7 1.1L39 92.6m2.7 1.1L39 91m2.7 1.1L39 89.4m2.7 1.1L39 87.8m2.7 1.1L39 86.1m2.7 1.1L39 84.5m2.7 1.1L39 82.9m2.7 1.1L39 81.3m2.7 1.1L39 79.7M39 97l2.7-2.8M39 95.3l2.7-2.7M39 93.7l2.7-2.7M39 92.1l2.7-2.7M39 90.5l2.7-2.7M39 88.9l2.7-2.8M39 87.2l2.7-2.7M39 85.6l2.7-2.7M39 84l2.7-2.7M39 82.4l2.7-2.7"/>
  <path d="M43.9 88.2a.5.5 0 0 0 .2.4 2.3 2.3 0 0 1 1 1.3 1.8 1.8 0 0 1-.1 1.3 1 1 0 0 1-1.6.4c-.3-.1-.4-.6-.2-1a.4.4 0 0 1 .4-.3h.3v.5c-.1.1 0 .3.2.4s.3 0 .4-.2a1.6 1.6 0 0 0 0-1 1 1 0 0 0-.8-.5 1.2 1.2 0 0 0-1.2.8 1.5 1.5 0 0 0 .5 1.8 1.7 1.7 0 0 0 1.3.3 6.6 6.6 0 0 0-1.6 2.1c-.1.1 0 .3.1.4s.4.1.5-.1a5.2 5.2 0 0 1 1.2-1.6 2.5 2.5 0 0 0 0 2.1 2.5 2.5 0 0 0 1.7 1.2 1.5 1.5 0 0 0 1.5-.7 1.1 1.1 0 0 0-.2-1.4 1 1 0 0 0-.9-.4 1.2 1.2 0 0 0-.9.4.5.5 0 0 0 0 .5h.5l.4-.2c.1 0 .2 0 .3.2s.3.4.2.6a.8.8 0 0 1-.8.3 1.5 1.5 0 0 1-1.2-.8 2.2 2.2 0 0 1 0-1.6l.4-.6a2.5 2.5 0 0 0 .3.7.4.4 0 0 0 .4.2c.2-.1.3-.4.2-.5A3.3 3.3 0 0 1 46 92c.1-.1.2-.1.2-.2l.9-1v-.3c0-.1-.1-.1-.1-.2s-.4-.1-.5.1l-.7.9a3 3 0 0 0-.1-1.6 2.3 2.3 0 0 0-.6-1.2l1.4-.2c.2 0 .3-.2.3-.4a.5.5 0 0 0-.4-.2l-2.2.3a.3.3 0 0 0-.3.2z" fill="#febf10" stroke="#000" stroke-linecap="round" stroke-linejoin="round" stroke-width=".3"/>
  <path d="M45.5 78.6a.5.5 0 0 1 .5.4c.9 2.9 3.4 18.5 3.5 19.1a.6.6 0 0 1-.5.6c-.2.1-.5-.1-.5-.4S45.9 82.2 45 79.2a.6.6 0 0 1 .4-.6z" fill="#febf10" stroke="#000" stroke-linecap="round" stroke-linejoin="round" stroke-width=".4"/>
  <path d="M41.2 78.2c.3 0 .4.2.5.4.5 3.1.9 18.3.9 19a.5.5 0 0 1-1 0c0-.2-.4-15.8-.9-18.9-.1-.2.1-.5.4-.5zm-1.7 0a.4.4 0 0 0-.4.4c-.5 3.1-.9 18.3-1 19a.6.6 0 0 0 .5.5.5.5 0 0 0 .5-.5c0-.2.5-15.8 1-18.9 0-.2-.2-.5-.4-.5z" fill="#0065b7" stroke="#000" stroke-linecap="round" stroke-linejoin="round" stroke-width=".4"/>
  <path d="M35.3 78.9a.5.5 0 0 0-.5.3c-.9 3-3.3 18.6-3.4 19.2a.4.4 0 0 0 .4.6c.2 0 .5-.1.5-.4s2.6-16.1 3.5-19.1c.1-.2-.1-.5-.4-.6z" fill="#febf10" stroke="#000" stroke-linecap="round" stroke-linejoin="round" stroke-width=".4"/>
  <path d="M44.1 81.2c.1.1 0 .2 0 .3a1.3 1.3 0 0 0-.5 1.1 1.5 1.5 0 0 0 .3 1c.5.4.9.4 1.3-.1a.6.6 0 0 0-.1-.7c-.1-.2-.3-.2-.3-.1h-.2a.4.4 0 0 0 .1.3.2.2 0 0 1-.1.4c-.1.1-.2 0-.3-.1s-.3-.4-.2-.7a.5.5 0 0 1 .4-.5.8.8 0 0 1 1.1.3 1.4 1.4 0 0 1 0 1.4 1.4 1.4 0 0 1-.9.5 4.6 4.6 0 0 1 1.6 1.2.2.2 0 0 1 0 .3h-.4a5 5 0 0 0-1.2-.9 1.6 1.6 0 0 1 .4 1.5 2.2 2.2 0 0 1-.9 1.3 1.1 1.1 0 0 1-1.3-.3c-.3-.2-.3-.6-.1-1a.8.8 0 0 1 .5-.5 1.5 1.5 0 0 1 .8.1.6.6 0 0 1 .1.4h-.7a.2.2 0 0 0-.2.2.4.4 0 0 0 0 .5.6.6 0 0 0 .6.1 1.3 1.3 0 0 0 .7-.9 1.1 1.1 0 0 0-.3-1.1l-.4-.4v.6a.5.5 0 0 1-.4.2l-.2-.3a1.2 1.2 0 0 0 0-1c0-.1-.1-.1-.2-.1l-.8-.6v-.2c.1-.1.1-.1.1-.2h.4l.7.5a2.1 2.1 0 0 1-.3-1.2 3.6 3.6 0 0 1 .2-1l-1 .2a.3.3 0 0 1-.3-.3c0-.2.1-.3.2-.3l1.7-.2a.2.2 0 0 1 .1.3zm-7.2 7.1a.5.5 0 0 1-.2.4 1.8 1.8 0 0 0-.9 1.3 1.5 1.5 0 0 0 0 1.3 1 1 0 0 0 1.6.4c.3-.1.3-.6.2-1a.4.4 0 0 0-.4-.3l-.3.2v.4c.1.1 0 .3-.1.4a.4.4 0 0 1-.5-.2 1.6 1.6 0 0 1 0-1 1 1 0 0 1 .8-.5 1.3 1.3 0 0 1 1.2.8 1.5 1.5 0 0 1-.5 1.8 1.7 1.7 0 0 1-1.3.3 6.6 6.6 0 0 1 1.6 2 .4.4 0 0 1-.6.4 6.4 6.4 0 0 0-1.1-1.7 2.1 2.1 0 0 1-.1 2.1 2.4 2.4 0 0 1-1.6 1.3 1.4 1.4 0 0 1-1.5-.8 1.2 1.2 0 0 1 .2-1.4 1.2 1.2 0 0 1 .8-.4 1.5 1.5 0 0 1 1 .5.2.2 0 0 1-.1.4.2.2 0 0 1-.4 0l-.4-.2-.4.2a.7.7 0 0 0-.1.6c.1.3.5.4.8.4a1.6 1.6 0 0 0 1.1-.9 1.4 1.4 0 0 0 0-1.5l-.3-.7a2.4 2.4 0 0 1-.3.8c-.1.2-.3.2-.5.1a.4.4 0 0 1-.1-.5 1.9 1.9 0 0 0 .3-1.2l-.2-.2-.8-1a.2.2 0 0 1 0-.3v-.2a.3.3 0 0 1 .5.1l.7.9a2.2 2.2 0 0 1 0-1.6 2.3 2.3 0 0 1 .6-1.2l-1.3-.2c-.2 0-.4-.2-.3-.4 0-.1.2-.2.3-.2l2.2.3zm-.3-7a.2.2 0 0 0 .1.3 1.8 1.8 0 0 1 .4 1.1 1 1 0 0 1-.2 1 .9.9 0 0 1-1.3 0 .8.8 0 0 1 0-.7c.2-.3.4-.2.4-.2l.2.2v.3c-.1.1 0 .2.1.3s.3.1.3-.1.3-.3.2-.7l-.5-.5a.9.9 0 0 0-1 .4 1.2 1.2 0 0 0 .1 1.4 1.1 1.1 0 0 0 .9.4 10.5 10.5 0 0 0-1.6 1.2.3.3 0 1 0 .4.4 5.8 5.8 0 0 1 1.1-1 1.8 1.8 0 0 0-.3 1.5 1.8 1.8 0 0 0 1 1.2 1.1 1.1 0 0 0 1.2-.2.9.9 0 0 0 .1-1.1c-.2-.3-.4-.4-.5-.4a1.5 1.5 0 0 0-.8.1c-.1.1-.1.2 0 .4s.2.1.3 0h.3c.1 0 .2 0 .2.1s.2.4 0 .5-.4.2-.6.1a1.1 1.1 0 0 1-.7-.8 1.1 1.1 0 0 1 .3-1.1l.3-.4a2.2 2.2 0 0 0 .1.6l.3.2c.2-.1.3-.2.2-.4a2.6 2.6 0 0 1 0-.9l.2-.2.7-.5a.4.4 0 0 0 .1-.3.3.3 0 0 0-.4 0l-.7.5a2.1 2.1 0 0 0 .3-1.2 3.8 3.8 0 0 0-.3-1h1.1c.1.1.2-.1.2-.2a.2.2 0 0 0-.2-.2h-2z" fill="#febf10" stroke="#000" stroke-linecap="round" stroke-linejoin="round" stroke-width=".3"/>
  <path d="M29.6 79.8c3.2-.7 8.9-.9 13.3-.9l7.4.2.8-3.6c-.2 0-4.8-.3-8.1-.3s-10.7.2-14.3 1l.9 3.6z" fill="#980805" stroke="#000" stroke-linecap="round" stroke-linejoin="round" stroke-width=".4"/>
  <path d="M29.1 77A99.8 99.8 0 0 1 43 76l7.1.3-.4 2-6.8-.2a91.7 91.7 0 0 0-13.3.9" fill="red" stroke="#000" stroke-linecap="round" stroke-linejoin="round" stroke-width=".4"/>
  <circle cx="44.1" cy="76.9" r="2.6" fill="#febf10" stroke="#000" stroke-linecap="round" stroke-linejoin="round" stroke-width=".4"/>
  <circle cx="44.1" cy="76.9" r="1.9" fill="#febf10" stroke="#000" stroke-linecap="round" stroke-linejoin="round" stroke-width=".4"/>
  <path fill="none" stroke="#000" stroke-linecap="round" stroke-linejoin="round" stroke-width=".4" d="M42.8 78.1l2.6-2.6m-2.6 0l2.6 2.6m-1.3.6V75m-1.8 1.8h3.6"/>
  <circle cx="44.1" cy="76.9" r=".5" fill="#febf10" stroke="#000" stroke-linecap="round" stroke-linejoin="round" stroke-width=".4"/>
  <circle cx="34.6" cy="77.2" r="2.6" fill="#febf10" stroke="#000" stroke-linecap="round" stroke-linejoin="round" stroke-width=".4"/>
  <circle cx="34.6" cy="77.2" r="1.9" fill="#febf10" stroke="#000" stroke-linecap="round" stroke-linejoin="round" stroke-width=".4"/>
  <path fill="none" stroke="#000" stroke-linecap="round" stroke-linejoin="round" stroke-width=".4" d="M33.3 78.5l2.6-2.6m-2.6 0l2.6 2.6m-1.3.5v-3.7m-1.8 1.9h3.6"/>
  <circle cx="34.6" cy="77.2" r=".5" fill="#febf10" stroke="#000" stroke-linecap="round" stroke-linejoin="round" stroke-width=".4"/>
  <circle cx="39.8" cy="74.4" r=".8" fill="#febf10" stroke="#000" stroke-linecap="round" stroke-linejoin="round" stroke-width=".4"/>
  <path fill="#0065b7" d="M47.9 101.6l2.6-2.8-3.9-1.1-14.1.6-4.1 1.6 1.5 2.5 6-.8 6.4-.3 4.5.3h1.1z"/>
  <path d="M41.3 100.7a44.7 44.7 0 0 1 7.7.6c.3.1.5.3.4.6s-.3.4-.6.4a47.3 47.3 0 0 0-19 .8c-.3.1-.6-.1-.6-.3s0-.6.3-.6a43.8 43.8 0 0 1 11.8-1.5z" fill="#febf10" stroke="#000" stroke-linecap="round" stroke-linejoin="round" stroke-width=".4"/>
  <path d="M48.5 107.8s.8-1.8 4.2-4 5.4-3.5 6.3-5l2.4-3.9a9.5 9.5 0 0 0 3.9-3.8A18.9 18.9 0 0 0 68.4 81a56.5 56.5 0 0 0 .1-7.3s.4-3.5.4-3.8h-4.7s-.5 5-.4 6-6.3 3.8-6.8 3-2.6-4-3.5-4.3a3.5 3.5 0 0 0-3.2.5c-.9.8-2.8 2.4-1.6 6.8s2.8 13.4 1.6 15.9-4.5 6.2-5.4 7.5a22.1 22.1 0 0 0-1.4 3.1l-.2 1.3a12.9 12.9 0 0 0 3.8-.5 3.2 3.2 0 0 0 1.4-1.4z" fill="red"/>
  <path d="M51.7 97.2s1.7-1.4 1.4-6.6-.2-7.4 1.3-8.3 3.2-1.5 3.4-1.8-3-4.7-3-4.7-1.4-1.6-2.8-1.3-3.3 1.8-3.4 2.9-.4 3.6 0 4.4 1.8 7.4 1.8 7.4l.4 4.3-.4 3.4.7.8z" fill="#980805"/>
  <path d="M64.2 70.1s-.5 4.8-.4 5.8-6.3 3.8-6.8 3-2.6-4-3.5-4.3a3.5 3.5 0 0 0-3.2.5c-.9.8-2.8 2.4-1.6 6.8s2.8 13.4 1.6 15.9-4.5 6.2-5.4 7.5a22.1 22.1 0 0 0-1.4 3.1l-.2 1.3s2.5-1.1 3.5-.7a.9.9 0 0 0 .9-.3 16.8 16.8 0 0 1 5-4.9c3.3-2.1 5.4-3.5 6.3-5l2.4-3.9a9.5 9.5 0 0 0 3.9-3.8A18.9 18.9 0 0 0 68.4 81a56.5 56.5 0 0 0 .1-7.3s.3-3.4.3-3.6" fill="none" stroke="#000" stroke-linecap="round" stroke-linejoin="round" stroke-width=".4"/>
  <path d="M41.5 97.2a44.7 44.7 0 0 1 7.7.6c.3.1.5.3.4.6s-.3.4-.6.4a47.3 47.3 0 0 0-19 .8c-.3.1-.6-.1-.6-.3s0-.6.3-.6a43.8 43.8 0 0 1 11.8-1.5z" fill="#febf10" stroke="#000" stroke-linecap="round" stroke-linejoin="round" stroke-width=".4"/>
  <circle cx="50.1" cy="98" r="1.5" fill="#febf10" stroke="#000" stroke-linecap="round" stroke-linejoin="round" stroke-width=".4"/>
  <path d="M19.7 75.6c.1.2 4.4 2 5.4 2.4s3-.3 3.7-.5 2.5-.8 2.3-1.2-2.1 0-2.1 0l1.1-1.1c.2-.6.4-.9.1-1.1s-.9.5-1 .5a2.3 2.3 0 0 0 .5-.5c.1-.3.1-.8-.5-.6h-.6c.1-.8-.8-.9-.8-.9a4.1 4.1 0 0 1-.2.7c-.1.2-1 .4-1.5.4l-3.7.2a7 7 0 0 0-2.8 1s0 .6.1.7zm8.2.2zm1.1-1z" fill="#f3bc84"/>
  <path d="M29 76.3s1.8-.3 2.1 0-1.6 1-2.3 1.2-2.7.8-3.7.5-5.3-2.2-5.4-2.4-.1-.5-.1-.5a7 7 0 0 1 2.8-1l3.7-.2c.5 0 1.4-.2 1.5-.4a4.1 4.1 0 0 0 .2-.7s1 .1.8 1-2.7 1-2.7 1" fill="none" stroke="#000" stroke-linecap="round" stroke-linejoin="round" stroke-width=".4"/>
  <path d="M26.3 77.2a12 12 0 0 0 2-.6 3.7 3.7 0 0 0 1.8-1.4c.2-.6.4-.9.1-1.1s-1 .5-1 .5" fill="none" stroke="#000" stroke-linecap="round" stroke-linejoin="round" stroke-width=".4"/>
  <path d="M26.1 75.7a3.2 3.2 0 0 0 1.8-.2 5.1 5.1 0 0 0 1.8-1.4c.1-.3.1-.8-.5-.6h-.5" fill="none" stroke="#000" stroke-linecap="round" stroke-linejoin="round" stroke-width=".4"/>
  <path fill="#0065b7" d="M64.8 122.2l-2.5 4.1-3-3.8L58 84.2l3.6-.2 3.2 38.2z"/>
  <path fill="#004da1" d="M59.3 122.3l3 3.8L59.8 84l-1.9.1 1.4 38.2z"/>
  <path fill="none" stroke="#000" stroke-linecap="round" stroke-linejoin="round" stroke-width=".4" d="M64.8 122.2l-2.5 4.1-3-3.8L58 84.2l3.6-.2 3.2 38.2z"/>
  <path fill="#0065b7" stroke="#000" stroke-linecap="round" stroke-linejoin="round" stroke-width=".4" d="M62.3 126.3l-2.5-42.1"/>
  <path d="M64.1 85.2s-1.5-.4-1.5 1 1.5 1.7 2.5.9 1.4-4.6-3.2-5h-.6l.5 2s1.8.1 2.3 1.1z" fill="#febf10" stroke="#000" stroke-linecap="round" stroke-linejoin="round" stroke-width=".4"/>
  <circle cx="64.4" cy="85.9" r=".6" fill="#980805" stroke="#000" stroke-linecap="round" stroke-linejoin="round" stroke-width=".4"/>
  <path d="M55.7 86s1.4-.8 1.6.6-1 2-2.2 1.5-2.5-4.2 1.9-5.7l.5-.2v2s-1.6.7-1.8 1.8z" fill="#febf10" stroke="#000" stroke-linecap="round" stroke-linejoin="round" stroke-width=".4"/>
  <circle cx="55.5" cy="86.7" r=".6" fill="#980805" stroke="#000" stroke-linecap="round" stroke-linejoin="round" stroke-width=".4"/>
  <path fill="#febf10" stroke="#000" stroke-linecap="round" stroke-linejoin="round" stroke-width=".4" d="M62.1 83.9l-2.2 2.3-2.3-2.1-.1-1.9 2.2-1.4 2.4 1.2v1.9z"/>
  <path fill="red" stroke="#000" stroke-linecap="round" stroke-linejoin="round" stroke-width=".4" d="M61 83.8l-1.1 1.1-1.3-1V83l1.2-.8 1.2.7v.9z"/>
  <ellipse cx="59.2" cy="75.2" rx="1.4" ry="2.3" transform="rotate(-3.4 60.13 75.98)" fill="#febf10" stroke="#000" stroke-linecap="round" stroke-linejoin="round" stroke-width=".4"/>
  <circle cx="59.1" cy="71.7" r="1.2" fill="red" stroke="#000" stroke-linecap="round" stroke-linejoin="round" stroke-width=".4"/>
  <path d="M59.1 72.2a.5.5 0 0 1 0-1" fill="red" stroke="#000" stroke-linecap="round" stroke-linejoin="round" stroke-width=".3"/>
  <path d="M56.6 79.8h-.2c-.3.2-.8 1.3.6 1.4s5 .5 5.7 0a5.5 5.5 0 0 0 1.3-4.3 13.2 13.2 0 0 0-.4-2.2 10.7 10.7 0 0 0-2 0 9.9 9.9 0 0 0-3.1.6c-.7.3-1.3 1-.8 1.1h.4c0 .1-.1.1-.1.2a1.4 1.4 0 0 0-.9.4c-.3.3.1.8.5.9h-.5c-.5.1-1.3.9-.5 1.5z" fill="#f3bc84"/>
  <path d="M60.1 79.7h-3.7c-.3.2-.8 1.3.6 1.4s5 .5 5.7 0a5.5 5.5 0 0 0 1.3-4.2 13.2 13.2 0 0 0-.4-2.2 10.7 10.7 0 0 0-2 0 9.9 9.9 0 0 0-3.1.6c-.7.3-1.3 1-.8 1.1a13.3 13.3 0 0 0 2.6.2" fill="none" stroke="#000" stroke-linecap="round" stroke-linejoin="round" stroke-width=".4"/>
  <path d="M60.7 77.9l-3.6.3c-.5.1-1.3.9-.5 1.6m1.8-3.3a3.3 3.3 0 0 0-1.3.6c-.3.3.3 1 .8 1" fill="none" stroke="#000" stroke-linecap="round" stroke-linejoin="round" stroke-width=".4"/>
  <path d="M25.4 78.1c.6.3.4.9.8 1.9s.5 7.3 1.1 12.2a56.8 56.8 0 0 0 2 9.6c-2.1 1.9-9.2 1.3-9.2 1.3a4.4 4.4 0 0 0-1.3-2.8c-1.3-.9-4.5-5-6-8.1L8.2 87V70.1l10.6.2a36.5 36.5 0 0 0 1.1 5.4 24.3 24.3 0 0 1 4.7 1.9z" fill="red"/>
  <path d="M24.6 102.5a13.7 13.7 0 0 1-3.4-6.6 11.4 11.4 0 0 0-4.5-7.2s-2.6 1.1-4.1-.4c0 0 .8-5.8-4.5-5.5V87l4.6 5.1a37.2 37.2 0 0 0 3.6 5.8l3 2.9.5 1.2a4.6 4.6 0 0 0 2.7.8c1.8.2.9 0 1.3 0a1.5 1.5 0 0 0 .8-.3zm-6.1-16.4a18.1 18.1 0 0 1 3.2-3.4 23.3 23.3 0 0 0 4-4.4l-5.1.5-2.2 1.3a7.6 7.6 0 0 1 .1 6z" fill="#980805"/>
  <path d="M20.1 103.1a4.4 4.4 0 0 0-1.3-2.8c-1.3-.9-4.5-5-6-8.1L8.2 87" fill="none" stroke="#000" stroke-linecap="round" stroke-linejoin="round" stroke-width=".4"/>
  <path d="M24 102.9a8.2 8.2 0 0 1-4.1-.7 8.2 8.2 0 0 0-1.3 2.5 5.5 5.5 0 0 0 3.6-.4 5.6 5.6 0 0 0 1.8-1.4z" fill="#980805"/>
  <path d="M18.6 104.7a8.2 8.2 0 0 1 1.3-2.5 8.2 8.2 0 0 0 4.1.7m5.3-1.1a56.8 56.8 0 0 1-2-9.6c-.6-4.9-.8-11.2-1.1-12.2s-.2-1.6-.8-1.9M12.3 88.2s3.6 2.3 5.4-.9 1.4-5.5.7-6.6m-8.8-1.4s1.2 1.7 4.9 1.5a12.5 12.5 0 0 0 6-2" fill="none" stroke="#000" stroke-linecap="round" stroke-linejoin="round" stroke-width=".4"/>
  <path d="M16.6 78.8h5.1a19.6 19.6 0 0 0 4-.6s-4.5-2.3-5.9-2.5a36.5 36.5 0 0 1-1.1-5.4" fill="none" stroke="#000" stroke-linecap="round" stroke-linejoin="round" stroke-width=".4"/>
  <path d="M14.2 70a18.5 18.5 0 0 1 2 3.9 6.3 6.3 0 0 0 2.6 3.4 5.5 5.5 0 0 1-1.2-2.5A16.7 16.7 0 0 0 16 70m4.2 19s1-5.5 2.7-7.3" fill="none" stroke="#000" stroke-linecap="round" stroke-linejoin="round" stroke-width=".4"/>
  <path d="M35.3 109.3s-5.8-1.2-7.8-2.3a14.1 14.1 0 0 0-6.2-1.4 5.5 5.5 0 0 1-2.7-.9 7.1 7.1 0 0 0 4.6-1c2-1.4 3.5-3.1 4.6-2.9s3.7 3 4.3 3.9a48.5 48.5 0 0 0 3 4.1c.6.4.2.5.2.5z" fill="red"/>
  <path d="M35.3 109.3s-5.8-1.2-7.8-2.3a14.1 14.1 0 0 0-6.2-1.4 5.5 5.5 0 0 1-2.7-.9 7.1 7.1 0 0 0 4.6-1c2-1.4 3.5-3.1 4.6-2.9s3.7 3 4.3 3.9a48.5 48.5 0 0 0 3 4.1c.6.4.2.5.2.5z" fill="none" stroke="#000" stroke-linecap="round" stroke-linejoin="round" stroke-width=".4"/>
  <circle cx="29" cy="99.1" r="1.5" fill="#febf10" stroke="#000" stroke-linecap="round" stroke-linejoin="round" stroke-width=".4"/>
  <path d="M30.8 108.7a.9.9 0 0 0-.3 1 8.5 8.5 0 0 1 .7 4.4 7.7 7.7 0 0 0 .3 3.3c.9 2.8 2.6 3.7 2.7 3.7a.7.7 0 0 0 1-.3.8.8 0 0 0-.3-1.1 5.1 5.1 0 0 1-1.9-2.8 6.3 6.3 0 0 1-.2-2.7 10.5 10.5 0 0 0-.8-5.1.8.8 0 0 0-1-.5z" fill="#856353" stroke="#000" stroke-linecap="round" stroke-linejoin="round" stroke-width=".4"/>
  <path d="M34.2 108.3a.8.8 0 0 0-.4.9 9.5 9.5 0 0 1-.4 4.4 8.5 8.5 0 0 0-.5 3.3 6.9 6.9 0 0 0 1.7 4.2.9.9 0 0 0 1.2 0 .9.9 0 0 0-.1-1.1 5.2 5.2 0 0 1-1.2-3.3 5.9 5.9 0 0 1 .4-2.6 10.1 10.1 0 0 0 .4-5.2.7.7 0 0 0-.9-.6z" fill="#856353" stroke="#000" stroke-linecap="round" stroke-linejoin="round" stroke-width=".4"/>
  <path d="M32.8 108.3a.7.7 0 0 0-.4.8 10 10 0 0 1-.4 4.5 8.3 8.3 0 0 0-.5 3.2 7.4 7.4 0 0 0 1.7 4.3.8.8 0 0 0 1.2-.1.9.9 0 0 0-.1-1.1c-.1 0-1-1-1.2-3.2a5.5 5.5 0 0 1 .4-2.6 11.3 11.3 0 0 0 .5-5.2.8.8 0 0 0-1-.7z" fill="#856353" stroke="#000" stroke-linecap="round" stroke-linejoin="round" stroke-width=".4"/>
  <path d="M33.4 115.5a4.7 4.7 0 0 1 .4 3.2 4.8 4.8 0 0 0 0 2.6 4 4 0 0 0 4 2.5c3.1-.1 7.1-2.8 7.2-6.3a22.4 22.4 0 0 0-1.5-7.9l-6.3-4.5-.2 2.6v1.4a2.5 2.5 0 0 0-1.7.3c-2.1 1.1-2.1 5.5-1.9 6.1z" fill="#f3bc84"/>
  <path d="M35.8 122.2s-1-4.6-.7-6.3 1.1-5.4.5-6.6-1.4.3-1.9 2.6a10.1 10.1 0 0 0-.1 4l.4 1.7-.4 2.1.3 1.3 1.3 1.1z" fill="#c69c6d"/>
  <path d="M41.8 118.6a2.6 2.6 0 0 1-3.9.1m-4.1 1.4s2.7.2 2.8-1.9a5.1 5.1 0 0 0-.9-3.1c-.2-.3.3-1.2.3-1.2m1.5.9s.4-.7 0-.9-.7.1-.9.2l-.3.2m.2-.6l.1.4m-.7 0l-.4-.2m2.4-1.8s-1.9-1.5-3 .5" fill="none" stroke="#000" stroke-linecap="round" stroke-linejoin="round" stroke-width=".3"/>
  <path d="M47.4 107.4a.7.7 0 0 1 .4.9 9.9 9.9 0 0 0-.1 4.5 7.2 7.2 0 0 1 .1 3.3 6.6 6.6 0 0 1-2.1 4 .8.8 0 0 1-1.2-.2.9.9 0 0 1 .2-1.1c.1 0 1.1-.9 1.6-3.1a7.6 7.6 0 0 0-.1-2.6 10.2 10.2 0 0 1 .1-5.2.8.8 0 0 1 1-.6z" fill="#856353" stroke="#000" stroke-linecap="round" stroke-linejoin="round" stroke-width=".4"/>
  <path d="M45.2 107.4a.8.8 0 0 1 .6.8 9.5 9.5 0 0 0 1 4.4 7.1 7.1 0 0 1 .8 3.1c.1 3-1.1 4.4-1.2 4.5a.9.9 0 0 1-1.1.1 1 1 0 0 1-.1-1.2c.1 0 .9-1.1.8-3.3a5.9 5.9 0 0 0-.7-2.6 11.7 11.7 0 0 1-1.1-5.1.8.8 0 0 1 .8-.7z" fill="#856353" stroke="#000" stroke-linecap="round" stroke-linejoin="round" stroke-width=".4"/>
  <path d="M43.9 108a.8.8 0 0 1 .6.8 8.4 8.4 0 0 0 1 4.4 7.1 7.1 0 0 1 .8 3.1c.1 3-1.1 4.4-1.2 4.5a.8.8 0 1 1-1.2-1.1c.1 0 .9-1.1.8-3.3a5.9 5.9 0 0 0-.7-2.6 10.4 10.4 0 0 1-1.1-5.1.8.8 0 0 1 .8-.7z" fill="#856353" stroke="#000" stroke-linecap="round" stroke-linejoin="round" stroke-width=".4"/>
  <path d="M42.7 108.3a.8.8 0 0 1 .6.8 9.9 9.9 0 0 0 1 4.4 7.1 7.1 0 0 1 .8 3.1c.1 3-1.1 4.4-1.2 4.5s-1.5.9-1.9.6.3-.9.7-1.7.9-1.1.8-3.3a5.9 5.9 0 0 0-.7-2.6 11.7 11.7 0 0 1-1.1-5.1.8.8 0 0 1 .8-.7z" fill="#856353" stroke="#000" stroke-linecap="round" stroke-linejoin="round" stroke-width=".4"/>
  <path d="M41 117.4a2.5 2.5 0 0 0-1.8-.5 1.5 1.5 0 0 0-1 .6 1.8 1.8 0 0 0 1.6.4c1-.1 1.2-.5 1.2-.5z" fill="#fff"/>
  <path d="M40.9 117.6a4 4 0 0 1-1.3.3 3.4 3.4 0 0 1-1.5-.4 2.3 2.3 0 0 1 1.5-.6 2.1 2.1 0 0 1 1.5.6m-3 0a1.8 1.8 0 0 0 3 0" fill="none" stroke="#000" stroke-linecap="round" stroke-linejoin="round" stroke-width=".3"/>
  <ellipse cx="39.4" cy="117.4" rx=".7" ry=".6" transform="rotate(-1.6 37.74 118.71)"/>
  <circle cx="39.2" cy="117.6" r=".2" fill="#fff"/>
  <path d="M36.6 117.4a2.8 2.8 0 0 0-1.8-.2 1.4 1.4 0 0 0-1 .7 2 2 0 0 0 1.7.2c.9-.2 1.1-.7 1.1-.7z" fill="#fff"/>
  <path d="M36.4 117.7l-1.1.4a3 3 0 0 1-1.4-.2 2.1 2.1 0 0 1 1.2-.8 2.4 2.4 0 0 1 1.5.4m-2.7.4a1.6 1.6 0 0 0 2.7-.4" fill="none" stroke="#000" stroke-linecap="round" stroke-linejoin="round" stroke-width=".3"/>
  <ellipse cx="35.1" cy="117.6" rx=".6" ry=".5" transform="rotate(-8.8 35.34 118.42)"/>
  <ellipse cx="34.9" cy="117.8" rx=".2" ry=".2" transform="rotate(-8.8 35.34 118.42)" fill="#fff"/>
  <path d="M33.9 121a3.4 3.4 0 0 1-.1-2.4 4.6 4.6 0 0 0-.5-3.1c-.2-.6-.1-5 2-6.1s5.5 1.2 5.5 1.2" fill="none" stroke="#000" stroke-linecap="round" stroke-linejoin="round" stroke-width=".4"/>
  <path d="M36 113.7a1.4 1.4 0 0 0 1.8-.1c.9-.8.8-1.7 2.2-1.4s-1.2-1.5-3.5-.1l-.6.3a2.9 2.9 0 0 0-2.9 0 2.9 2.9 0 0 1 1.4.7c.3.6.8 1.3 1.6.6z" fill="#856353" stroke="#000" stroke-linecap="round" stroke-linejoin="round" stroke-width=".3"/>
  <path fill="#f2f2f2" stroke="#000" stroke-linecap="round" stroke-linejoin="round" stroke-width=".4" d="M36.9 108.9l.2-3.1"/>
  <path d="M33.1 124.7s-1.5-7.4-6-8.7-5.1 2.5-4.9 3.2-.1 1.9 2.9 2.7 4.2 2.9 7.4 3.9.6-1.1.6-1.1z" fill="#0065b7"/>
  <path d="M22.1 119c1.5-2.5 4-1.5 5.8-.9s4.3 5.3 4.3 5.3l.4-.7s-1.9-4.2-2.7-5-2.9-2.3-4.8-2a2.8 2.8 0 0 0-2.5 1.6 12.8 12.8 0 0 0-.5 1.7z" fill="#004da1"/>
  <path d="M33.1 124.7s-1.5-7.4-6-8.7-5.1 2.5-4.9 3.2-.1 1.9 2.9 2.7 4.2 2.9 7.4 3.9.6-1.1.6-1.1z" fill="none" stroke="#000" stroke-linecap="round" stroke-linejoin="round" stroke-width=".4"/>
  <path d="M38.5 129.1s-2.9 2.4-7.7.6-7.8-1.4-9.5-.9-4.3 1.1-5-3.2 5.2-5.8 9.2-4.5 6.1 6 6.9 6.4a8.6 8.6 0 0 0 5.2.5c2.3-.4.9 1.1.9 1.1z" fill="#febf10"/>
  <path d="M37.3 128.4s-3.9 1.7-6.2-.4-10.2-7.6-14-5.2l.5-.6 2.3-1.2s3.5-.9 5.3 0a29.5 29.5 0 0 1 3.5 2.2l1.6 1.8.9 1.1a3.1 3.1 0 0 0 1.9 1.6l3.6.4z" fill="#d09b07"/>
  <path d="M38.5 129.1s-2.9 2.4-7.7.6-7.8-1.4-9.5-.9-4.3 1.1-5-3.2 5.2-5.8 9.2-4.5 6 6 6.9 6.5a8.8 8.8 0 0 0 5.2.4c2.3-.4.9 1.1.9 1.1z" fill="none" stroke="#000" stroke-linecap="round" stroke-linejoin="round" stroke-width=".4"/>
  <path d="M38.3 128.1a5.9 5.9 0 0 1-6.8.6c-4-2.1-6.4-4.3-10-4m11.1.4s-2-4.3-3.9-5.2" fill="none" stroke="#000" stroke-linecap="round" stroke-linejoin="round" stroke-width=".4"/>
  <path d="M37.1 128.1s.5 2 4.2 1.3 5.7-3.1 5.2-4.8-9.4 2-9.4 2z" fill="#325723"/>
  <path d="M37.1 128.1s.5 2 4.2 1.3 5.7-3.1 5.2-4.8-9.4 2-9.4 2z" fill="none" stroke="#000" stroke-linecap="round" stroke-linejoin="round" stroke-width=".4"/>
  <path d="M46.6 117.6s-5.4 4.9-12.7 3.4c0 0-2.2 2.5-2.3 5s2.8 2.3 3.3 2.3 8.5-.7 13.2-4.6 3.2-4.9 2.7-5.1a11.3 11.3 0 0 0-4.2-1z" fill="#325723"/>
  <path d="M39.3 126.7a8.1 8.1 0 0 1-1.1-5.4l-4.2-.2a16.7 16.7 0 0 0-2.2 3.7 3.9 3.9 0 0 0-.1 1.5l1.9.4 2.4.2 2.2-.2z" fill="#0d3a12"/>
  <path d="M50.6 118.6l.7.5-.2 1.2-1.9 2.4-2.9 2.2-4.1 1.9-4.1 1.1-2.2.3h-2.3l-1.3-.4-.6-.7v-.9a13.3 13.3 0 0 0 8.5 0c5.9-1.9 9.6-4.5 10.4-7.6" fill="red"/>
  <path d="M46.6 117.6s-5.4 4.9-12.7 3.4c0 0-2.2 2.5-2.3 5s2.8 2.3 3.3 2.3 8.5-.7 13.2-4.6 3.2-4.9 2.7-5.1a11.3 11.3 0 0 0-4.2-1z" fill="none" stroke="#000" stroke-linecap="round" stroke-linejoin="round" stroke-width=".4"/>
  <path d="M31.6 126.2a13.3 13.3 0 0 0 8.5 0c5.9-1.9 9.6-4.5 10.4-7.6" fill="none" stroke="#000" stroke-linecap="round" stroke-linejoin="round" stroke-width=".4"/>
  <path fill="#f3bc84" d="M34.7 31.3l-1.4 3.2-2.7 3.5 6.4.5 6.4-.4 4.1-1-3-3.9-1.6-2.6H39l-4.1.2-.2.5z"/>
  <path d="M38.9 31a26.3 26.3 0 0 1 2 3.8c0 .9-.2 3.5-.2 3.5l6.7-1.1-4.6-6.5z" fill="#c69c6d"/>
  <path fill="#0d3a12" d="M11.8 59.6l-.1 10.5 48.6-.1L56 49.6l-44.2 10z"/>
  <path d="M47.9 60.8a112 112 0 0 0 3.8-12 18.2 18.2 0 0 0-.8-8.8H26.4s.6 17.7 2.1 20.4 19.4.4 19.4.4z" fill="#0065b7" stroke="#000" stroke-linecap="round" stroke-linejoin="round" stroke-width=".4"/>
  <path d="M52.2 70.1L48.5 62l-19.2.4-4.5 7.6m0 0h27.4" fill="#febf10"/>
  <path fill="#d09b07" stroke="#000" stroke-linecap="round" stroke-linejoin="round" stroke-width=".4" d="M26 69.9l3.8-6.5 18.1-.4.2.6 2.9 6.5"/>
  <path d="M52.2 70.1L48.5 62l-19.2.4-4.5 7.5" fill="none" stroke="#000" stroke-linecap="round" stroke-linejoin="round" stroke-width=".4"/>
  <path d="M42.2 64.1a19.9 19.9 0 0 1-3.4 5.9h-1.5a16.3 16.3 0 0 1-3.1-5.5l8-.3" fill="#d09b07"/>
  <path fill="none" stroke="#000" stroke-linecap="round" stroke-linejoin="round" stroke-width=".4" d="M38.2 64.1V70m-.1-4.3l-1.9 3.4m1.7-3.6l-3 1.3m3.5-1l1.9 3.3m-1.6-3.6l2.8 1.3"/>
  <path d="M42.2 64.1a22.1 22.1 0 0 1-3.4 6H40a20.8 20.8 0 0 0 3.6-7l-10.7.3a16.7 16.7 0 0 0 3.3 6.7h1.2a18.8 18.8 0 0 1-3.2-5.6l8-.3" fill="#febf10"/>
  <path d="M37.4 70a18.8 18.8 0 0 1-3.2-5.6l8-.3M40.1 70a21.1 21.1 0 0 0 3.5-6.9l-10.7.3a16.9 16.9 0 0 0 3.2 6.6m6.1-5.9a19.3 19.3 0 0 1-3.3 5.8" fill="none" stroke="#000" stroke-linecap="round" stroke-linejoin="round" stroke-width=".4"/>
  <path fill="#f2f2f2" stroke="#000" stroke-linecap="round" stroke-linejoin="round" stroke-width=".4" d="M28.3 43.8l-.5 1.4 1 1.1-.7 1.6 1 .9-.6 1.4 1 .8-.8 1.5 1.2 1-.9 1.6 1.2.6-.5 1.5 1.1.7-.8 1.4 1.3.6-.6 1.6 1.5.5 1.1-.4L29.7 42l-1.2.2-.2 1.6zm19-1.7l.5 1.4-1 1.1.7 1.6-1 .9.6 1.4-1 .8.8 1.5-1.2 1 .8 1.6-1.1.6.5 1.5-1.1.7.8 1.4-1.3.6.6 1.6-1.5.5-1.1-.4 3.6-19.6 1.2.2.2 1.6z"/>
  <path fill="#d09b07" d="M28.9 42.1l3.9 19.7h9.8l3.6-20.2-8.4.7-8.9-.2z"/>
  <path fill="#004da1" d="M35.3 42.8l1.4 18.7h1.8l1-18.9-4.2.2z"/>
  <path fill="none" stroke="#000" stroke-linecap="round" stroke-linejoin="round" stroke-width=".4" d="M36.3 43.1l2.7 2.8m-2.7-1.2l2.7 2.8m-2.7-1.1l2.7 2.7M36.3 48l2.7 2.7m-2.7-1.1l2.7 2.7m-2.7-1.1L39 54m-2.7-1.2l2.7 2.8m-2.7-1.1l2.7 2.7m-2.7-1.1l2.7 2.7m-2.7-1.1l2.7 2.7m0-17.3l-2.7 2.8m2.7-1.2l-2.7 2.8m2.7-1.1l-2.7 2.7M39 48l-2.7 2.7m2.7-1.1l-2.7 2.7m2.7-1.1L36.3 54m2.7-1.2l-2.7 2.8m2.7-1.1l-2.7 2.7m2.7-1.1l-2.7 2.7m2.7-1.1l-2.7 2.7"/>
  <path d="M34.1 51.9c0-.2 0-.3-.2-.4a2.3 2.3 0 0 1-1-1.3 1.8 1.8 0 0 1 .1-1.3 1 1 0 0 1 1.6-.4c.3.1.4.6.2 1a.4.4 0 0 1-.4.3l-.3-.2a.6.6 0 0 1 .1-.4c0-.2-.1-.4-.2-.4a.4.4 0 0 0-.5.2 1.6 1.6 0 0 0 0 1 1 1 0 0 0 .8.5 1.2 1.2 0 0 0 1.2-.8 1.5 1.5 0 0 0-.5-1.8 1.7 1.7 0 0 0-1.3-.3 6.6 6.6 0 0 0 1.6-2.1c.1-.1 0-.3-.1-.4s-.4-.1-.5.1a5.2 5.2 0 0 1-1.2 1.6 2.5 2.5 0 0 0 0-2.1 2.5 2.5 0 0 0-1.7-1.2 1.5 1.5 0 0 0-1.5.7 1.2 1.2 0 0 0 .2 1.4 1.4 1.4 0 0 0 .9.4 1.4 1.4 0 0 0 .9-.4.5.5 0 0 0 0-.5.4.4 0 0 0-.5 0 .5.5 0 0 1-.4.2c-.1 0-.2 0-.3-.2s-.3-.4-.2-.6a.8.8 0 0 1 .8-.3 1.5 1.5 0 0 1 1.2.8 2.2 2.2 0 0 1 0 1.6 1.6 1.6 0 0 1-.3.6c-.2-.4-.3-.7-.4-.7s-.3-.3-.4-.2-.3.4-.2.5a3.3 3.3 0 0 1 .4 1.3l-.2.2-.9 1v.3c0 .1.1.1.1.2a.4.4 0 0 0 .5-.1 7.3 7.3 0 0 1 .8-.9 2.2 2.2 0 0 0 0 1.6 2.3 2.3 0 0 0 .6 1.2l-1.4.2c-.2 0-.3.2-.3.4l.4.2 2.2-.3a.3.3 0 0 0 .3-.2z" fill="#febf10" stroke="#000" stroke-linecap="round" stroke-linejoin="round" stroke-width=".3"/>
  <path d="M32.5 61.5a.5.5 0 0 1-.5-.4c-.9-3-3.3-18.5-3.5-19.1a.6.6 0 0 1 .5-.6c.2-.1.5.1.5.4s2.6 16.1 3.5 19.1c.1.2-.1.5-.4.6z" fill="#febf10" stroke="#000" stroke-linecap="round" stroke-linejoin="round" stroke-width=".4"/>
  <path d="M36.8 61.9c-.3 0-.4-.2-.5-.4-.4-3.1-.9-18.3-.9-19a.5.5 0 0 1 1 0c0 .2.5 15.8.9 18.9.1.2-.1.5-.4.5zm1.7 0a.4.4 0 0 0 .4-.4c.5-3.1.9-18.3 1-19a.5.5 0 0 0-.5-.5.5.5 0 0 0-.5.5c0 .2-.5 15.8-1 18.9 0 .2.2.5.4.5z" fill="#0065b7" stroke="#000" stroke-linecap="round" stroke-linejoin="round" stroke-width=".4"/>
  <path d="M42.7 61.2a.5.5 0 0 0 .5-.4c.9-2.9 3.4-18.5 3.5-19.1a.6.6 0 0 0-.5-.6c-.2-.1-.5.1-.5.4s-2.6 16.1-3.5 19.1a.6.6 0 0 0 .4.6z" fill="#febf10" stroke="#000" stroke-linecap="round" stroke-linejoin="round" stroke-width=".4"/>
  <path d="M33.9 58.9c-.1-.1 0-.2.1-.3a1.6 1.6 0 0 0 .4-1.1 1.3 1.3 0 0 0-.3-1 .8.8 0 0 0-1.3.1.6.6 0 0 0 .1.7.2.2 0 0 0 .4.1h.1c0-.1 0-.3-.1-.3s0-.3.1-.4a.2.2 0 0 1 .3.1c.1 0 .3.4.2.7a.5.5 0 0 1-.4.5.8.8 0 0 1-1.1-.3 1.4 1.4 0 0 1 0-1.4 1.4 1.4 0 0 1 .9-.5c-.7-.2-1.5-1.2-1.6-1.2a.2.2 0 0 1 0-.3c.1-.1.3-.2.4 0a5 5 0 0 0 1.2.9 1.6 1.6 0 0 1-.4-1.5 1.7 1.7 0 0 1 1-1.3 1.1 1.1 0 0 1 1.2.2.9.9 0 0 1 .1 1.1c-.1.3-.3.5-.5.5a1.5 1.5 0 0 1-.8-.1.3.3 0 0 1 0-.4c0-.1.2-.1.3-.1h.4l.2-.2a.4.4 0 0 0-.1-.5.6.6 0 0 0-.6-.1 1.3 1.3 0 0 0-.7.9 1.1 1.1 0 0 0 .3 1.1l.4.4a2.2 2.2 0 0 1 .1-.6c0-.1.1-.2.3-.2s.2.2.2.3a1.7 1.7 0 0 0 0 1h.2l.8.6a.3.3 0 0 1 .1.2c0 .1-.1.1-.1.2a.3.3 0 0 1-.4 0l-.7-.5a2.1 2.1 0 0 1 .3 1.2 3.6 3.6 0 0 1-.2 1l1.1-.2c.1 0 .2.1.2.3h.1l-.3.3-1.6.2c-.2.1-.3 0-.3-.1zm7.2-7.1a.5.5 0 0 1 .2-.4 1.8 1.8 0 0 0 .9-1.3 1.5 1.5 0 0 0 0-1.3 1 1 0 0 0-1.6-.4c-.2.1-.3.6-.2 1a.4.4 0 0 0 .4.3l.3-.2v-.4c-.1-.2 0-.4.2-.4s.3 0 .4.2a1.6 1.6 0 0 1 0 1 .8.8 0 0 1-.8.4 1 1 0 0 1-1.1-.7 1.5 1.5 0 0 1 .4-1.8 1.7 1.7 0 0 1 1.3-.3 8.1 8.1 0 0 1-1.6-2 .4.4 0 0 1 .1-.5c.2-.1.4-.1.5.1a6.7 6.7 0 0 0 1.2 1.7 2.5 2.5 0 0 1 0-2.1 2.4 2.4 0 0 1 1.6-1.3 1.5 1.5 0 0 1 1.5.7 1.2 1.2 0 0 1-.2 1.5 1.2 1.2 0 0 1-.8.4 1.1 1.1 0 0 1-.9-.5.2.2 0 0 1 0-.4c.1-.2.3-.2.5 0l.4.2.3-.2a.5.5 0 0 0 .1-.6c-.1-.3-.5-.4-.8-.4a2.2 2.2 0 0 0-1.1.9 1.9 1.9 0 0 0 0 1.5l.3.7a2.4 2.4 0 0 1 .3-.8c.1-.2.3-.2.5-.1a.4.4 0 0 1 .1.5 3 3 0 0 0-.3 1.2l.2.2.8 1a.2.2 0 0 1 0 .3c0 .1 0 .1-.1.2s-.3.1-.5-.1l-.7-.9a2.2 2.2 0 0 1 0 1.6 2.3 2.3 0 0 1-.6 1.2l1.4.2a.3.3 0 0 1 .2.4l-.3.2-2.2-.3c-.1 0-.3-.1-.3-.2zm.3 7c.1-.2 0-.3-.1-.3a1.8 1.8 0 0 1-.4-1.1 1 1 0 0 1 .2-1 .9.9 0 0 1 1.3 0 .8.8 0 0 1 0 .7c-.2.3-.4.2-.4.2s-.2-.1-.2-.2a1 1 0 0 0 .1-.3c.1-.1.1-.2-.1-.3a.2.2 0 0 0-.3 0c0 .1-.3.4-.2.8a2.3 2.3 0 0 0 .5.5.8.8 0 0 0 1-.4 1.2 1.2 0 0 0 0-1.4 1.3 1.3 0 0 0-1-.4 6.9 6.9 0 0 0 1.6-1.2.3.3 0 0 0-.4-.4 5.8 5.8 0 0 1-1.1 1 1.8 1.8 0 0 0 .3-1.5 1.6 1.6 0 0 0-1-1.2 1.1 1.1 0 0 0-1.2.2.9.9 0 0 0-.1 1.1c.2.3.4.4.5.4a1.5 1.5 0 0 0 .8-.1c.1-.1.1-.2.1-.4a.3.3 0 0 0-.4 0c-.1 0-.2.1-.3 0s-.2 0-.2-.2a.3.3 0 0 1 0-.4c.1-.2.4-.2.6-.1a1.1 1.1 0 0 1 .7.8 1.1 1.1 0 0 1-.3 1.1l-.3.4a2.2 2.2 0 0 0-.1-.6c0-.1-.2-.2-.3-.2s-.2.2-.2.4a2.6 2.6 0 0 1 0 .9c0 .1-.1.1-.2.2l-.7.5a.4.4 0 0 0-.1.3h.4l.7-.5a2.1 2.1 0 0 0-.3 1.2 9.4 9.4 0 0 0 .3.9h-1c-.2-.1-.3 0-.3.2s.1.3.2.3h1.7c.1.2.2.2.2.1z" fill="#febf10" stroke="#000" stroke-linecap="round" stroke-linejoin="round" stroke-width=".3"/>
  <path d="M48.4 60.3c-3.2.7-8.9.9-13.3.9l-7.4-.2-.8 3.6c.2 0 4.8.3 8.1.3s10.7-.2 14.3-1l-.9-3.6z" fill="#980805" stroke="#000" stroke-linecap="round" stroke-linejoin="round" stroke-width=".4"/>
  <path d="M48.9 63.1a99.8 99.8 0 0 1-13.9 1l-7.1-.3.4-2 6.8.2a94.1 94.1 0 0 0 13.4-.9" fill="red" stroke="#000" stroke-linecap="round" stroke-linejoin="round" stroke-width=".4"/>
  <circle cx="33.9" cy="63.2" r="2.6" fill="#febf10" stroke="#000" stroke-linecap="round" stroke-linejoin="round" stroke-width=".4"/>
  <circle cx="33.9" cy="63.2" r="1.9" fill="#febf10" stroke="#000" stroke-linecap="round" stroke-linejoin="round" stroke-width=".4"/>
  <path fill="none" stroke="#000" stroke-linecap="round" stroke-linejoin="round" stroke-width=".4" d="M35.2 62l-2.6 2.5m2.6 0L32.6 62m1.3-.6v3.7m1.8-1.9l-3.6.1"/>
  <circle cx="33.9" cy="63.2" r=".5" fill="#febf10" stroke="#000" stroke-linecap="round" stroke-linejoin="round" stroke-width=".4"/>
  <circle cx="43.4" cy="62.9" r="2.6" fill="#febf10" stroke="#000" stroke-linecap="round" stroke-linejoin="round" stroke-width=".4"/>
  <circle cx="43.4" cy="62.9" r="1.9" fill="#febf10" stroke="#000" stroke-linecap="round" stroke-linejoin="round" stroke-width=".4"/>
  <path fill="none" stroke="#000" stroke-linecap="round" stroke-linejoin="round" stroke-width=".4" d="M44.7 61.6l-2.6 2.6m2.6 0l-2.6-2.6m1.3-.5v3.6m1.8-1.8h-3.6"/>
  <circle cx="43.4" cy="62.9" r=".5" fill="#febf10" stroke="#000" stroke-linecap="round" stroke-linejoin="round" stroke-width=".4"/>
  <circle cx="38.2" cy="65.7" r=".8" fill="#febf10" stroke="#000" stroke-linecap="round" stroke-linejoin="round" stroke-width=".4"/>
  <path fill="#0065b7" d="M30.1 38.5l-2.6 2.8 3.9 1.1 14.1-.6 4.1-1.6-1.5-2.5-6 .8-6.4.3-4.5-.3h-1.1z"/>
  <path d="M36.7 39.4a44.7 44.7 0 0 1-7.7-.6c-.3-.1-.5-.3-.4-.6a.4.4 0 0 1 .6-.4 47.3 47.3 0 0 0 19-.8.6.6 0 0 1 .7.3c0 .3-.1.6-.4.6a43.8 43.8 0 0 1-11.8 1.5z" fill="#febf10" stroke="#000" stroke-linecap="round" stroke-linejoin="round" stroke-width=".4"/>
  <path d="M29.5 32.3s-.8 1.8-4.2 4-5.4 3.5-6.3 5l-2.4 3.9a9.5 9.5 0 0 0-3.9 3.8 18.9 18.9 0 0 0-3.1 10.1 56.5 56.5 0 0 0-.1 7.3s-.4 3.5-.4 3.8h4.7s.5-5 .4-6 6.3-3.8 6.8-3 2.6 4 3.5 4.3a3.5 3.5 0 0 0 3.2-.5c.9-.8 2.8-2.4 1.6-6.8s-2.8-13.4-1.6-15.9 4.5-6.2 5.4-7.5a22.1 22.1 0 0 0 1.4-3.1l.2-1.3a12.3 12.3 0 0 0-3.7.5 3.8 3.8 0 0 0-1.5 1.4z" fill="red"/>
  <path d="M26.3 42.9s-1.7 1.4-1.3 6.6.1 7.4-1.4 8.3-3.1 1.5-3.4 1.8 3 4.7 3 4.7 1.4 1.6 2.8 1.3 3.3-1.8 3.5-2.9a16.2 16.2 0 0 0 0-4.4c-.4-.8-1.9-7.4-1.9-7.4l-.4-4.3.4-3.4-.7-.8z" fill="#980805"/>
  <path d="M13.8 70s.5-4.8.4-5.8 6.3-3.8 6.8-3 2.6 4 3.5 4.3a3.5 3.5 0 0 0 3.2-.5c.9-.8 2.8-2.4 1.6-6.8s-2.8-13.4-1.6-15.9 4.5-6.2 5.4-7.5a22.1 22.1 0 0 0 1.4-3.1l.2-1.3s-2.5 1-3.5.7a.9.9 0 0 0-.9.3 16.8 16.8 0 0 1-5 4.9c-3.3 2.1-5.4 3.5-6.3 5l-2.4 3.9a9.5 9.5 0 0 0-3.9 3.8 18.9 18.9 0 0 0-3.1 10.1 56.5 56.5 0 0 0-.1 7.3s-.3 3.4-.3 3.6" fill="none" stroke="#000" stroke-linecap="round" stroke-linejoin="round" stroke-width=".4"/>
  <path d="M36.5 42.9a44.7 44.7 0 0 1-7.7-.6c-.3-.1-.5-.3-.4-.6a.4.4 0 0 1 .6-.4 47.3 47.3 0 0 0 19-.8c.3-.1.6.1.6.3s0 .6-.3.6a43.8 43.8 0 0 1-11.8 1.5z" fill="#febf10" stroke="#000" stroke-linecap="round" stroke-linejoin="round" stroke-width=".4"/>
  <circle cx="27.9" cy="42.1" r="1.5" fill="#febf10" stroke="#000" stroke-linecap="round" stroke-linejoin="round" stroke-width=".4"/>
  <path d="M58.3 64.5a51.3 51.3 0 0 0-5.4-2.4c-1-.3-3 .3-3.7.5s-2.5.8-2.2 1.2 2 0 2 0c-.4.3-.9.7-1 1.1s-.5.9-.2 1.1.9-.5 1-.5l-.5.5c0 .3-.1.8.5.6h.6a.9.9 0 0 0 .8.9 4.1 4.1 0 0 1 .2-.7c.1-.2 1-.4 1.5-.4l3.7-.2a7.8 7.8 0 0 0 2.9-1 1.7 1.7 0 0 0-.2-.7zm-8.2-.2zm-1.1.9h.1c-.1 0-.2 0-.2.1z" fill="#f3bc84"/>
  <path d="M49 63.8s-1.8.3-2 0 1.5-1 2.2-1.2 2.7-.8 3.7-.5 5.3 2.2 5.4 2.4a1.7 1.7 0 0 1 .2.5 7.8 7.8 0 0 1-2.9 1l-3.7.2c-.5 0-1.4.2-1.5.4a4.1 4.1 0 0 0-.2.7s-1-.1-.7-1 2.6-1 2.6-1" fill="none" stroke="#000" stroke-linecap="round" stroke-linejoin="round" stroke-width=".4"/>
  <path d="M51.7 62.9a12 12 0 0 0-2 .6 3 3 0 0 0-1.7 1.4c-.3.6-.5.9-.2 1.1s1-.5 1-.5" fill="none" stroke="#000" stroke-linecap="round" stroke-linejoin="round" stroke-width=".4"/>
  <path d="M51.9 64.4a3.2 3.2 0 0 0-1.8.2 5.1 5.1 0 0 0-1.8 1.4c-.1.3-.1.8.5.6h.5" fill="none" stroke="#000" stroke-linecap="round" stroke-linejoin="round" stroke-width=".4"/>
  <path fill="#0065b7" d="M13.2 17.9l2.5-4.1 3 3.8L20 55.9l-3.6.2-3.2-38.2z"/>
  <path fill="#004da1" d="M18.7 17.7l-3-3.8 2.5 42.2 1.9-.1-1.4-38.3z"/>
  <path fill="none" stroke="#000" stroke-linecap="round" stroke-linejoin="round" stroke-width=".4" d="M13.2 17.9l2.5-4.1 3 3.8L20 55.9l-3.6.2-3.2-38.2z"/>
  <path fill="#0065b7" stroke="#000" stroke-linecap="round" stroke-linejoin="round" stroke-width=".4" d="M15.7 13.8l2.5 42.1"/>
  <path d="M13.9 54.9s1.6.4 1.5-1-1.5-1.7-2.5-.9-1.4 4.6 3.2 5h.6l-.5-2s-1.8-.1-2.3-1.1z" fill="#febf10" stroke="#000" stroke-linecap="round" stroke-linejoin="round" stroke-width=".4"/>
  <circle cx="13.6" cy="54.2" r=".6" fill="#980805" stroke="#000" stroke-linecap="round" stroke-linejoin="round" stroke-width=".4"/>
  <path d="M22.3 54.1s-1.3.8-1.6-.6 1-2 2.2-1.5 2.5 4.2-1.9 5.7l-.5.2v-2s1.6-.7 1.8-1.8z" fill="#febf10" stroke="#000" stroke-linecap="round" stroke-linejoin="round" stroke-width=".4"/>
  <circle cx="22.5" cy="53.4" r=".6" fill="#980805" stroke="#000" stroke-linecap="round" stroke-linejoin="round" stroke-width=".4"/>
  <path fill="#febf10" stroke="#000" stroke-linecap="round" stroke-linejoin="round" stroke-width=".4" d="M15.9 56.2l2.2-2.3 2.3 2.1.1 1.9-2.2 1.4-2.3-1.2-.1-1.9z"/>
  <path fill="red" stroke="#000" stroke-linecap="round" stroke-linejoin="round" stroke-width=".4" d="M17 56.3l1.1-1.1 1.3 1v.9l-1.1.8-1.3-.7v-.9z"/>
  <ellipse cx="18.8" cy="64.9" rx="1.4" ry="2.3" transform="rotate(-3.4 18.27 66.3)" fill="#febf10" stroke="#000" stroke-linecap="round" stroke-linejoin="round" stroke-width=".4"/>
  <circle cx="18.9" cy="68.4" r="1.2" fill="red" stroke="#000" stroke-linecap="round" stroke-linejoin="round" stroke-width=".4"/>
  <path d="M18.9 67.9a.5.5 0 1 1 0 1" fill="red" stroke="#000" stroke-linecap="round" stroke-linejoin="round" stroke-width=".3"/>
  <path d="M21.4 60.3h.2c.4-.2.8-1.3-.6-1.4s-5-.5-5.7 0-1.5 2.6-1.3 4.3l.4 2.2h2.1a9.8 9.8 0 0 0 3-.6c.7-.3 1.3-1 .8-1.1h-.4c0-.1.1-.1.1-.2a1.4 1.4 0 0 0 .9-.4c.3-.3-.1-.8-.5-.9h.6c.4-.1 1.2-.9.4-1.5z" fill="#f3bc84"/>
  <path d="M18 60.4h3.6c.4-.2.8-1.3-.6-1.4s-5-.5-5.7 0a5.5 5.5 0 0 0-1.3 4.2 13.2 13.2 0 0 0 .4 2.2h2.1a9.8 9.8 0 0 0 3-.6c.7-.3 1.3-1 .8-1.1a13.3 13.3 0 0 0-2.6-.2" fill="none" stroke="#000" stroke-linecap="round" stroke-linejoin="round" stroke-width=".4"/>
  <path d="M17.3 62.2l3.7-.3c.4-.1 1.2-.9.4-1.6m-1.8 3.3a3.3 3.3 0 0 0 1.3-.6c.3-.3-.3-1-.8-1" fill="none" stroke="#000" stroke-linecap="round" stroke-linejoin="round" stroke-width=".4"/>
  <path d="M52.6 62c-.6-.3-.4-.9-.8-1.9s-.5-7.3-1.1-12.2a56.8 56.8 0 0 0-2-9.6c2.1-1.9 9.2-1.3 9.2-1.3a4.4 4.4 0 0 0 1.3 2.8c1.3.9 4.5 5 6 8.1l4.6 5.2V70l-10.6-.2a36.5 36.5 0 0 0-1.1-5.4 24.3 24.3 0 0 1-4.7-1.9z" fill="red"/>
  <path d="M53.4 37.6a13.7 13.7 0 0 1 3.4 6.6 11.4 11.4 0 0 0 4.5 7.2s2.7-1.1 4.2.4-.9 5.9 4.5 5.6l-.2-4.3-4.6-5.1a37.2 37.2 0 0 0-3.6-5.8l-3-2.9-.5-1.2a4.5 4.5 0 0 0-2.6-.8c-1.9-.2-1 0-1.4 0a1.5 1.5 0 0 0-.7.3zM59.5 54a18.1 18.1 0 0 1-3.2 3.4 23.3 23.3 0 0 0-4 4.4l5.1-.5 2.2-1.3a7.6 7.6 0 0 1-.1-6z" fill="#980805"/>
  <path d="M57.9 37a4.4 4.4 0 0 0 1.3 2.8c1.3.9 4.5 5 6 8.1l4.6 5.2" fill="none" stroke="#000" stroke-linecap="round" stroke-linejoin="round" stroke-width=".4"/>
  <path d="M54 37.2a8.2 8.2 0 0 1 4.1.7 8.2 8.2 0 0 0 1.3-2.5 5.5 5.5 0 0 0-3.6.4 5.6 5.6 0 0 0-1.8 1.4z" fill="#980805"/>
  <path d="M59.4 35.4a8.2 8.2 0 0 1-1.3 2.5 8.2 8.2 0 0 0-4.1-.7m-5.3 1.1a56.8 56.8 0 0 1 2 9.6c.6 4.9.8 11.2 1.1 12.2s.2 1.6.8 1.9m13.1-10.1s-3.6-2.3-5.4.9-1.4 5.5-.7 6.6m8.8 1.4s-1.2-1.7-4.9-1.5a12.5 12.5 0 0 0-6 2" fill="none" stroke="#000" stroke-linecap="round" stroke-linejoin="round" stroke-width=".4"/>
  <path d="M61.4 61.3h-5.1a19.6 19.6 0 0 0-4 .6s4.5 2.3 5.9 2.5a36.5 36.5 0 0 1 1.1 5.4" fill="none" stroke="#000" stroke-linecap="round" stroke-linejoin="round" stroke-width=".4"/>
  <path d="M63.8 70.1a18.5 18.5 0 0 1-2-3.9 6.3 6.3 0 0 0-2.6-3.4 5.5 5.5 0 0 1 1.2 2.5 16.7 16.7 0 0 0 1.6 4.8m-4.2-19s-1 5.5-2.7 7.3" fill="none" stroke="#000" stroke-linecap="round" stroke-linejoin="round" stroke-width=".4"/>
  <path d="M42.7 30.8s5.8 1.2 7.8 2.3a14.1 14.1 0 0 0 6.2 1.4 5.5 5.5 0 0 1 2.7.9 7.1 7.1 0 0 0-4.6 1c-2 1.4-3.5 3.1-4.6 2.9s-3.7-3-4.3-3.9a48.5 48.5 0 0 0-3-4.1c-.6-.4-.2-.5-.2-.5z" fill="red"/>
  <path d="M42.7 30.8s5.8 1.2 7.8 2.3a14.1 14.1 0 0 0 6.2 1.4 5.5 5.5 0 0 1 2.7.9 7.1 7.1 0 0 0-4.6 1c-2 1.4-3.5 3.1-4.6 2.9s-3.7-3-4.3-3.9a48.5 48.5 0 0 0-3-4.1c-.6-.4-.2-.5-.2-.5z" fill="none" stroke="#000" stroke-linecap="round" stroke-linejoin="round" stroke-width=".4"/>
  <circle cx="49" cy="41" r="1.5" fill="#febf10" stroke="#000" stroke-linecap="round" stroke-linejoin="round" stroke-width=".4"/>
  <path d="M47.2 31.4a.9.9 0 0 0 .3-1 9.7 9.7 0 0 1-.7-4.4 7.7 7.7 0 0 0-.3-3.3 6.4 6.4 0 0 0-2.6-3.7.8.8 0 0 0-.8 1.4c.1 0 1.2.7 1.9 2.8a6.3 6.3 0 0 1 .2 2.7A11.9 11.9 0 0 0 46 31a.9.9 0 0 0 1 .5z" fill="#856353" stroke="#000" stroke-linecap="round" stroke-linejoin="round" stroke-width=".4"/>
  <path d="M43.8 31.8a.8.8 0 0 0 .4-.9 10.2 10.2 0 0 1 .4-4.5 7.7 7.7 0 0 0 .5-3.2 6.9 6.9 0 0 0-1.7-4.2.8.8 0 1 0-1.1 1.1 5.2 5.2 0 0 1 1.2 3.3 5.9 5.9 0 0 1-.4 2.6 10.1 10.1 0 0 0-.4 5.2.7.7 0 0 0 .9.6z" fill="#856353" stroke="#000" stroke-linecap="round" stroke-linejoin="round" stroke-width=".4"/>
  <path d="M45.2 31.8a.7.7 0 0 0 .4-.8 10 10 0 0 1 .4-4.5 8.5 8.5 0 0 0 .5-3.3 6.9 6.9 0 0 0-1.7-4.2c-.4-.3-.9-.3-1.1.1a.8.8 0 0 0 0 1.1c.1 0 1 1 1.2 3.2a5.7 5.7 0 0 1-.4 2.6 10.2 10.2 0 0 0-.4 5.2.8.8 0 0 0 .9.7z" fill="#856353" stroke="#000" stroke-linecap="round" stroke-linejoin="round" stroke-width=".4"/>
  <path d="M44.6 24.6a5.5 5.5 0 0 1-.4-3.2 4.8 4.8 0 0 0 0-2.6 3.9 3.9 0 0 0-4-2.5c-3.1.1-7.1 2.8-7.2 6.3a22.4 22.4 0 0 0 1.5 7.9l6.3 4.5.2-2.6V31a2.4 2.4 0 0 0 1.7-.3c2.1-1.1 2.1-5.5 1.9-6.1z" fill="#f3bc84"/>
  <path d="M42.2 17.9s1.1 4.6.8 6.3-1.2 5.4-.6 6.6 1.4-.3 1.9-2.6a12.1 12.1 0 0 0 .2-4.1l-.5-1.7.4-2-.2-1.3-1.4-1.1z" fill="#c69c6d"/>
  <path d="M36.2 21.5a2.6 2.6 0 0 1 3.9-.1m4.1-1.4s-2.6-.2-2.8 1.9a5.1 5.1 0 0 0 .9 3.1c.2.3-.3 1.2-.3 1.2m-1.5-.9s-.3.7 0 .9.7-.1.9-.2l.3-.2m-.2.6l-.1-.4m.7 0l.4.2M40.1 28s2 1.5 3-.5" fill="none" stroke="#000" stroke-linecap="round" stroke-linejoin="round" stroke-width=".3"/>
  <path d="M30.6 32.7a.8.8 0 0 1-.4-.9 9.9 9.9 0 0 0 .1-4.5 7.2 7.2 0 0 1-.1-3.3 5.9 5.9 0 0 1 2.2-4 .7.7 0 0 1 1.1.2.9.9 0 0 1-.2 1.1 5 5 0 0 0-1.6 3 8.1 8.1 0 0 0 .1 2.7 9.2 9.2 0 0 1-.1 5.2.8.8 0 0 1-.9.6z" fill="#856353" stroke="#000" stroke-linecap="round" stroke-linejoin="round" stroke-width=".4"/>
  <path d="M32.8 32.7a.8.8 0 0 1-.6-.8 8.4 8.4 0 0 0-1-4.4 7.1 7.1 0 0 1-.8-3.1c-.1-3 1.1-4.4 1.2-4.5a.8.8 0 1 1 1.2 1.1c-.1 0-.9 1.1-.8 3.3a5.9 5.9 0 0 0 .7 2.6 10.4 10.4 0 0 1 1.1 5.1.8.8 0 0 1-.8.7z" fill="#856353" stroke="#000" stroke-linecap="round" stroke-linejoin="round" stroke-width=".4"/>
  <path d="M34.1 32.1a.8.8 0 0 1-.6-.8 8.4 8.4 0 0 0-1-4.4 7.5 7.5 0 0 1-.8-3.1c-.1-3 1.1-4.4 1.2-4.5a.8.8 0 0 1 1.1-.1.9.9 0 0 1 .1 1.2c-.1 0-.9 1.1-.8 3.3a5.9 5.9 0 0 0 .7 2.6 10.3 10.3 0 0 1 1.1 5 .8.8 0 0 1-.8.8z" fill="#856353" stroke="#000" stroke-linecap="round" stroke-linejoin="round" stroke-width=".4"/>
  <path d="M35.3 31.8a.8.8 0 0 1-.6-.8 8.4 8.4 0 0 0-1-4.4 7.1 7.1 0 0 1-.8-3.1c-.1-3 1.1-4.4 1.2-4.5s1.5-.9 1.9-.6-.3.9-.7 1.7-.9 1.1-.8 3.3a5.9 5.9 0 0 0 .7 2.6 10.4 10.4 0 0 1 1.1 5.1.8.8 0 0 1-.8.7z" fill="#856353" stroke="#000" stroke-linecap="round" stroke-linejoin="round" stroke-width=".4"/>
  <path d="M37 22.7a2.5 2.5 0 0 0 1.8.5 1.5 1.5 0 0 0 1-.6 1.8 1.8 0 0 0-1.6-.4c-1 .1-1.2.5-1.2.5z" fill="#fff"/>
  <path d="M37.1 22.5a4 4 0 0 1 1.3-.3 3.4 3.4 0 0 1 1.5.4 2.2 2.2 0 0 1-1.4.6 3.2 3.2 0 0 1-1.6-.6m3 0a1.8 1.8 0 0 0-3 0" fill="none" stroke="#000" stroke-linecap="round" stroke-linejoin="round" stroke-width=".3"/>
  <ellipse cx="38.6" cy="22.7" rx=".7" ry=".6" transform="rotate(-1.6 39.09 22.03)"/>
  <circle cx="38.8" cy="22.5" r=".2" fill="#fff"/>
  <path d="M41.4 22.7a3 3 0 0 0 1.9.2 1.8 1.8 0 0 0 .9-.7 1.9 1.9 0 0 0-1.7-.3 1.7 1.7 0 0 0-1.1.8z" fill="#fff"/>
  <path d="M41.6 22.4l1.1-.4a3 3 0 0 1 1.4.2 2.1 2.1 0 0 1-1.2.8 2.4 2.4 0 0 1-1.5-.4m2.7-.4a1.6 1.6 0 0 0-2.7.4" fill="none" stroke="#000" stroke-linecap="round" stroke-linejoin="round" stroke-width=".3"/>
  <ellipse cx="42.9" cy="22.5" rx=".6" ry=".5" transform="rotate(-8.8 43.39 22.3)"/>
  <ellipse cx="43.1" cy="22.2" rx=".2" ry=".2" transform="rotate(-8.8 43.39 22.3)" fill="#fff"/>
  <path d="M44.1 19.1a3.4 3.4 0 0 1 .1 2.4 4.6 4.6 0 0 0 .5 3.1c.2.6.1 5-2 6.1s-5.5-1.3-5.5-1.3" fill="none" stroke="#000" stroke-linecap="round" stroke-linejoin="round" stroke-width=".4"/>
  <path d="M42.1 26.3a1.7 1.7 0 0 0-1.9.1c-.9.8-.8 1.8-2.2 1.5s1.2 1.5 3.5 0l.6-.2a2.8 2.8 0 0 0 2.9-.1s-1-.1-1.3-.6-.8-1.3-1.6-.7z" fill="#856353" stroke="#000" stroke-linecap="round" stroke-linejoin="round" stroke-width=".3"/>
  <path fill="#f2f2f2" stroke="#000" stroke-linecap="round" stroke-linejoin="round" stroke-width=".4" d="M41.1 31.2l-.1 3.1"/>
  <path d="M44.9 15.4s1.5 7.4 6 8.7 5.1-2.5 4.9-3.2.2-1.9-2.9-2.7-4.2-2.9-7.4-3.9-.6 1.1-.6 1.1z" fill="#0065b7"/>
  <path d="M55.9 21.1c-1.4 2.5-3.9 1.5-5.8.9s-4.3-5.3-4.3-5.3l-.3.7s1.8 4.2 2.6 5 2.9 2.3 4.8 2a2.8 2.8 0 0 0 2.5-1.6 12.8 12.8 0 0 0 .5-1.7z" fill="#004da1"/>
  <path d="M44.9 15.4s1.5 7.4 6 8.7 5.1-2.5 4.9-3.2.2-1.9-2.9-2.7-4.2-2.9-7.4-3.9-.6 1.1-.6 1.1z" fill="none" stroke="#000" stroke-linecap="round" stroke-linejoin="round" stroke-width=".4"/>
  <path d="M39.5 11s2.9-2.4 7.7-.6 7.8 1.4 9.5.9 4.3-1.1 5 3.2-5.2 5.8-9.2 4.5-6-6-6.9-6.4a8.4 8.4 0 0 0-5.1-.5c-2.4.4-1-1.1-1-1.1z" fill="#febf10"/>
  <path d="M40.7 11.7s3.9-1.7 6.2.4 10.2 7.5 14 5.2l-.4.6-2.4 1.2s-3.5.9-5.3 0-3.5-2.2-3.5-2.2l-1.6-1.8-.9-1.1a3.1 3.1 0 0 0-1.8-1.6l-3.7-.4z" fill="#d09b07"/>
  <path d="M39.5 11s2.9-2.4 7.7-.6 7.8 1.4 9.5.9 4.3-1.1 5 3.2-5.2 5.8-9.2 4.5-6-6-6.9-6.5a8.5 8.5 0 0 0-5.1-.4c-2.4.4-1-1.1-1-1.1z" fill="none" stroke="#000" stroke-linecap="round" stroke-linejoin="round" stroke-width=".4"/>
  <path d="M39.7 12a5.9 5.9 0 0 1 6.8-.6c4 2.1 6.4 4.3 10 4m-11-.4s1.9 4.3 3.8 5.2" fill="none" stroke="#000" stroke-linecap="round" stroke-linejoin="round" stroke-width=".4"/>
  <path d="M40.9 12s-.5-2-4.2-1.3-5.7 3.1-5.2 4.8 9.4-2 9.4-2z" fill="#325723"/>
  <path d="M40.9 12s-.5-2-4.2-1.3-5.7 3.1-5.2 4.8 9.4-2 9.4-2z" fill="none" stroke="#000" stroke-linecap="round" stroke-linejoin="round" stroke-width=".4"/>
  <path d="M31.5 22.5a15.3 15.3 0 0 1 12.6-3.4s2.2-2.5 2.4-5-2.9-2.3-3.4-2.3-8.5.7-13.1 4.6-3.3 4.9-2.8 5.1a11.3 11.3 0 0 0 4.3 1z" fill="#325723"/>
  <path d="M38.7 13.4a8.1 8.1 0 0 1 1.1 5.4l4.2.2s2-2.5 2.2-3.7.1-1.5.1-1.5l-1.9-.4-2.4-.2-2.2.2z" fill="#0d3a12"/>
  <path d="M27.5 21.5l-.8-.5.2-1.2 1.9-2.4 2.9-2.3 4.1-1.8 4.1-1.1 2.2-.3h2.3l1.3.4.6.7v.9a13.3 13.3 0 0 0-8.5 0c-5.9 1.9-9.6 4.5-10.4 7.6" fill="red"/>
  <path d="M31.5 22.5a15.3 15.3 0 0 1 12.6-3.4s2.2-2.5 2.4-5-2.9-2.3-3.4-2.3-8.5.7-13.1 4.6-3.3 4.9-2.8 5.1a11.3 11.3 0 0 0 4.3 1z" fill="none" stroke="#000" stroke-linecap="round" stroke-linejoin="round" stroke-width=".4"/>
  <path d="M46.4 13.9a13.3 13.3 0 0 0-8.5 0c-5.9 1.9-9.6 4.5-10.4 7.6" fill="none" stroke="#000" stroke-linecap="round" stroke-linejoin="round" stroke-width=".4"/>
  <path fill="none" stroke="#000" stroke-linecap="round" stroke-linejoin="round" stroke-width=".4" d="M8 7.9h62v124.31H8zM8.1 70H70"/>
</svg>
