<svg xmlns="http://www.w3.org/2000/svg" viewBox="0 0 78 140">
  <rect width="78" height="140" rx="6" ry="6" fill="#fff"/>
  <path d="M25 26.8s-.2 5.2 4.1 3.8 2.8-5.3 3-6.5a10.6 10.6 0 0 1 2.8-4.6c1.1-.9-8 .1-9.9 7.3z" fill="#325723"/>
  <path d="M31.2 22.9s-2.6 3.8-2.2 6 1.6 1.1 1.6 1.1l1-1.1.5-1.6.8-3.9.2-1.9.4-.8z" fill="#0d3a12"/>
  <path fill="#f3bc84" d="M41.4 32.6l6.1-1.2.1 3.4-1.9 2.3-5.2.1-2.4-1.9 2.8-2.7h.5z"/>
  <path d="M25 26.8s-.2 5.2 4.1 3.8 2.8-5.3 3-6.5a10.6 10.6 0 0 1 2.8-4.6c1.1-.9-8 .1-9.9 7.3z" fill="none" stroke="#000" stroke-linecap="round" stroke-linejoin="round" stroke-width=".4"/>
  <path fill="#a77e6a" d="M44.5 56.2l6.6 10.7-.5 3.2-25.8-.2.8-.8 9.3-3.2 2.4-2.3 6.3-6 .9-1.4z"/>
  <path d="M38.7 64.2s2.8 5.5 3.4 5.7h8.4l.5-2.6-2.5-1.3-1.7-2-1-3z" fill="#856353"/>
  <path d="M68 69.9s-7.3-5.6-16.4-4.3a15.5 15.5 0 0 0-1.1 4.4" fill="#325723" stroke="#000" stroke-linecap="round" stroke-linejoin="round" stroke-width=".4"/>
  <path d="M40.3 37.8l9.7-2.3L60.9 54 68 69.9s-6.2.1-8.8-1.2-5.6-3.4-8.6-1.9L35 42.3z" fill="#0065b7"/>
  <path d="M52.2 45.4s5.9 16.7 5.9 22.5l2.4 1.3 6.8.7-7.7-16.8-1-3.7z" fill="#004da1"/>
  <path d="M40.3 37.8l9.7-2.3L60.9 54 68 69.9s-6.2.1-8.8-1.2-5.6-3.4-8.6-1.9L35 42.3z" fill="none" stroke="#000" stroke-linecap="round" stroke-linejoin="round" stroke-width=".4"/>
  <path d="M49 56.8a.5.5 0 0 1-.5-.5c-.1-.3.1-.5.4-.5l5.4-.7c3.7-.4 4.3-2 4.3-2a.4.4 0 0 1 .6-.3.5.5 0 0 1 .4.6c-.1.1-.8 2.2-5.1 2.7l-5.5.6z" fill="#febf10" stroke="#000" stroke-linecap="round" stroke-linejoin="round" stroke-width=".4"/>
  <path d="M50.4 64.8l-.4-.2a.5.5 0 0 1 .1-.7 16.2 16.2 0 0 1 6.6-2.3c3.3-.4 4.4-1.9 4.4-1.9a.5.5 0 0 1 .9.5c-.2.4-1.7 2-5.2 2.4a16.3 16.3 0 0 0-6.1 2.1z" fill="none" stroke="#000" stroke-linecap="round" stroke-linejoin="round" stroke-width=".4"/>
  <path d="M15 69.9a16.4 16.4 0 0 1 .3-2.2c0-.3.3-.4.6-.4a.6.6 0 0 1 .4.6 10.8 10.8 0 0 0-.3 1.9" fill="#febf10" stroke="#000" stroke-linecap="round" stroke-linejoin="round" stroke-width=".4"/>
  <ellipse cx="53.3" cy="47" rx="2.3" ry="1.4" transform="rotate(-78.4 53.2 47.06)" fill="#febf10" stroke="#000" stroke-linecap="round" stroke-linejoin="round" stroke-width=".4"/>
  <circle cx="52.5" cy="49.9" r=".7" fill="red" stroke="#000" stroke-linecap="round" stroke-linejoin="round" stroke-width=".4"/>
  <path d="M47.5 30.1A15.4 15.4 0 0 1 59 31.9l-3.2 12.9-6.9 2.3-5.3-9.8s6.6-.3 3.9-7.2z" fill="#0065b7"/>
  <path d="M48.4 32a8.9 8.9 0 0 1 2.7 2l1.2-.8a7.9 7.9 0 0 0-3.6-2.9.8.8 0 0 1-.2-.4l-1 .2a8.4 8.4 0 0 1 .5 2zm5.2 3.5l-1.1.8.3.8 1-1.1zm-3 5.4a4.7 4.7 0 0 0 1.7-.3 8.1 8.1 0 0 0 0-2.2l-1.5.7a14.1 14.1 0 0 1-.2 1.8zm-.6 1.9a6.6 6.6 0 0 0 2-.1l.3-1.3-1.9.3a4.9 4.9 0 0 1-.4 1.1zm.9-12.7c-.2-.1-.2-.2-.2-.4h-1.1a10.3 10.3 0 0 1 3.3 3l.7-.8a21.1 21.1 0 0 0-2.7-1.8zm4.7.3c-.1 0-.3.6-.8 1.3a16.3 16.3 0 0 1 3.3 3.6l.9-3.5a14.2 14.2 0 0 0-3.4-1.4zm-3.8-.7l2.3 1.6c.4-.5.6-1 .7-1.1a18.7 18.7 0 0 0-3-.5zm-2.2 12h-1.1l-.3.9 1 .2z" fill="#f2f2f2"/>
  <path d="M57.7 36.2a15.1 15.1 0 0 0-3.4-3.7l-.9.9.5.8.7-.8c.1-.2.3-.2.5 0s.2.3.1.5l-1 1.1c.1 0 .1.1.1.2a.4.4 0 0 1 .5 0 .4.4 0 0 1 .2.5l-.3.4a7.4 7.4 0 0 0 .4 1.4.5.5 0 0 1-.3.5h-.1c-.2 0-.4-.1-.4-.3a2.4 2.4 0 0 1-.2-.8 5 5 0 0 1-1.1 1 16.4 16.4 0 0 1 .2 2.3.4.4 0 0 1 .5.2c.1.2.1.4-.1.5l-.5.2a5 5 0 0 1-.2 1.2c.2 0 .4 0 .5.2s.1.5-.1.6l-.6.2c-.1.5-.3 1-.4 1.5a.5.5 0 0 1-.4.3h-.2a.4.4 0 0 1-.2-.5l.3-1.1h-2.1l-.6 1.3-.4.2h-.2c-.2-.1-.2-.3-.1-.5l.5-1-1.4-.4c-.2 0-.3-.3-.3-.5l.2-.2.3-.9-1.4-.4a.4.4 0 0 1-.2-.5.5.5 0 0 1 .5-.3l1.2.4a9.3 9.3 0 0 0 .2-1.4 14.5 14.5 0 0 1-3.2-1 .5.5 0 0 1-.1-.6.3.3 0 0 1 .5-.1 9.3 9.3 0 0 0 2.7.9 3.3 3.3 0 0 0-.5-1.7.4.4 0 0 1 0-.5.4.4 0 0 1 .5-.1l1.3.2-.4-.7-1.4.2h-.3a5.7 5.7 0 0 1-3.5 1.5l5.1 9.5 7-2.3 2.2-8.2z" fill="#f2f2f2"/>
  <path d="M49.9 38.5a5 5 0 0 0-.3-1.3h-1.1a13 13 0 0 1 .3 1.3 4 4 0 0 0 1.1 0zm1.6-2.6l-.6-.9-1.3.5.5.9zm.1-1.2l.6.8 1-.7-.4-.9zm-3.5-2a6.1 6.1 0 0 1-.1 1.4h.2a5 5 0 0 1 .8.8l1.4-.5a8.1 8.1 0 0 0-2.3-1.7zm-.3 2.1l-.2.3h.5c-.1-.2-.3-.2-.3-.3zm2 6.1a9.9 9.9 0 0 0 .2-1.7h-1.2a7.7 7.7 0 0 1-.2 1.5zm.6-3.8l.3 1.2 1.4-.7-.3-1a3.4 3.4 0 0 1-1.4.5z" fill="#f2f2f2"/>
  <path d="M37.4 35.3s-5.4 5.2-6.8 11.8l14.6.8-1-10.3a7.3 7.3 0 0 1-6.8-2.3z" fill="#0065b7"/>
  <path d="M38.8 37.5a3.8 3.8 0 0 1 .1-.8h.1l-.8-.5a5.7 5.7 0 0 0-.6 1.7 5.3 5.3 0 0 0 1.2-.4zm-4 2.5a5.7 5.7 0 0 1-.1-1.2h-.2l-.8 1.2zm5.1-2.9h-.2c0 .1-.1.1-.1.3zm-7.7 5.7l3.2-.2a8.3 8.3 0 0 1-.5-1.8h-1.6L32.1 43zm9-.1l1.4-1.3-.9-.6-1.2.9zm.1 3.1a4.5 4.5 0 0 0 1-.9 11.4 11.4 0 0 1-1.1-1.1l-1.1.8zm-2.4-6.6a2.5 2.5 0 0 1-.1-.8l-1.2.2v1zm-.3 3.4l1 1.4 1-.8a10.5 10.5 0 0 0-.8-1.1zm-3.1-3.8a4.5 4.5 0 0 0 .1 1.1l1.3-.2a3.1 3.1 0 0 1-.1-1zm4.1-.7v.7l.8-.4a1.3 1.3 0 0 1-.1-.6zm-4-.2h1.2a7.3 7.3 0 0 1 .7-2.3.1.1 0 0 0 .1-.1c-.1-.1-.1-.2-.2-.2a18.5 18.5 0 0 0-2 2.2.5.5 0 0 1 .2.4zm5.5-.4v.4l.5-.3z" fill="#f2f2f2"/>
  <path d="M43.9 37.6h-1.5a.4.4 0 0 1-.1.3l-1 .8a1.4 1.4 0 0 0 .5.8 4.6 4.6 0 0 0 .7-1.1.4.4 0 0 1 .6-.2c.2 0 .3.3.2.5a5 5 0 0 1-1 1.4l1.1.8c.1 0 .2.1.2.3s0 .2-.1.3a11.5 11.5 0 0 1-1.7 1.7l1.1 1 .3-.4c.1-.2.4-.2.6-.1s.2.4.1.6l-.4.4.4.2c.2.2.3.4.1.6s-.2.2-.3.2h-.2l-.5-.3-1 .9c.1.2.2.4 0 .6h-.3c-.1 0-.2 0-.2-.1h-.7c-.1 0-.3 0-.3-.2a.4.4 0 0 1 .1-.5L39.5 45 38 46h.1a.5.5 0 0 1-.1.6h-.6c0-.1-.1-.2-.2-.3a2.9 2.9 0 0 1-1 .3h-.1l-.7-.2c-.5-.2.3-.4.6-.5l.8-.3a16.4 16.4 0 0 1-1.2-2.2l-3.4.2h-.4a19 19 0 0 0-1.2 3.6l14.2.6z" fill="#f2f2f2"/>
  <path d="M39.7 39.7a11.2 11.2 0 0 0 .5 1.3l1-.8a2.7 2.7 0 0 1-.6-1zm-2.7.8l-1.3.2a15.4 15.4 0 0 0 .5 1.7 5 5 0 0 0 1.3-.3 9.8 9.8 0 0 1-.5-1.6zm2 4a11.6 11.6 0 0 1-1.1-1.6l-1.4.3a10 10 0 0 0 1 2.1zm.5-3.2A6.9 6.9 0 0 1 39 40l-1.2.4a6.5 6.5 0 0 0 .5 1.5z" fill="#f2f2f2"/>
  <path fill="#f2f2f2" d="M43.9 37.6l.9 10.1-14.2-.6.2-1.1 13 .7-.8-9 .9-.1z"/>
  <path fill="#f2f2f2" d="M44.5 36.8l4.6 9.2 7.1-3.1-.5 1.7-7 2.2-5.2-9.7 1-.3z"/>
  <path d="M67.1 69.9c-.4-1.2-2.5-3.7-5.4-8.7a30.1 30.1 0 0 1-3.6-11s2.5.4 3.4 1.8L70 68.3l-.4 1.7z" fill="#d09b07"/>
  <path d="M58.1 50.2a30.1 30.1 0 0 0 3.6 11c2.9 5 5 7.5 5.4 8.7M37.4 35.3s-5.4 5.2-6.8 11.8l14.2.5-1-10a6.7 6.7 0 0 1-6.4-2.3z" fill="none" stroke="#000" stroke-linecap="round" stroke-linejoin="round" stroke-width=".4"/>
  <path d="M47.5 30.1A15.4 15.4 0 0 1 59 31.9l-3.4 12.6-6.9 2.3-5.1-9.5s6.6-.3 3.9-7.2zm-4.6 7.6l1 9.1-13-.8" fill="none" stroke="#000" stroke-linecap="round" stroke-linejoin="round" stroke-width=".4"/>
  <path fill="none" stroke="#000" stroke-linecap="round" stroke-linejoin="round" stroke-width=".4" d="M44.6 37.2l4.5 8.7 7-2.9m-18.2-7.2s-3.2 5.2 3.8 10.8m-2.4-9.8s-1.3 5 4.4 8.6"/>
  <path d="M40.7 37.5a4.1 4.1 0 0 0 2.5 3.8s-3.7 4.1-7.1 5m-.9-8.5a12.1 12.1 0 0 0 2.5 8.5m-2.9-7.9a12.2 12.2 0 0 0 5.7-1.1m-6.9 3s4.9.6 8.4-2.6m.9.9s-1.7 4.7-10.8 4.6m11.4.9a7.3 7.3 0 0 1-2.7 2.4m10.3-16.7s4.7 2.6 6.9 6.2m-9.1-6.1s4.4 1.6 5.8 7.7" fill="none" stroke="#000" stroke-linecap="round" stroke-linejoin="round" stroke-width=".4"/>
  <path d="M70 40.3c-2.7-3.4-12-9-12-9l-2.9 13.2 9 8.9 5.8 11.7z" fill="red"/>
  <path d="M58.8 31.8s9.6 5.9 11 8.4v4.6S59.6 37.1 57 36.9z" fill="#980805"/>
  <path d="M48.2 32.4s7 2.6 3.7 12.3M48 34.5s4.8 2.9.7 10.2M45 37.9s5.9 3.5 9.6-2.4" fill="none" stroke="#000" stroke-linecap="round" stroke-linejoin="round" stroke-width=".4"/>
  <path fill="#febf10" stroke="#000" stroke-linecap="round" stroke-linejoin="round" stroke-width=".4" d="M53.87 38.65l2.85.57-1.01 4.96-2.84-.58z"/>
  <path d="M46.5 40.7s4 1.5 6.9-.1m-5.8 2.2s3.3 1.1 5.5-.1m2.1-12.4a9.4 9.4 0 0 1-7.8 5.2" fill="none" stroke="#000" stroke-linecap="round" stroke-linejoin="round" stroke-width=".4"/>
  <path d="M54.9 33.7s-3.4 4.3-7.2 2.8c0 0 1.5 1.9 0 6.3" fill="none" stroke="#000" stroke-linecap="round" stroke-linejoin="round" stroke-width=".4"/>
  <path d="M42.8 38.5a7.8 7.8 0 0 1-5.9-2.7l1.1-1.2a6.1 6.1 0 0 0 6.8 2 3.5 3.5 0 0 0 2.1-1.8c.8-1.7-.3-4.5-.3-4.5l1.4-.4a7.4 7.4 0 0 1 .3 5.6 4.6 4.6 0 0 1-3 2.6 7.7 7.7 0 0 1-2.5.4z" fill="#febf10" stroke="#000" stroke-linecap="round" stroke-linejoin="round" stroke-width=".4"/>
  <path d="M60.8 46.8l-1.7-1.6a7.9 7.9 0 0 0-2.9-4l-.4.4s-3.3-.2-3.6.4a2.1 2.1 0 0 0-.2 1.2l-.5.3a.9.9 0 0 0 0 1.3l.2-.2v.2a.8.8 0 0 0-.5.5c-.2.7.2.8.5.8a.8.8 0 0 0-.4.4c-.7 1 2.2 1.5 2.6 1.5a6.2 6.2 0 0 0 4.8 2.1 8.2 8.2 0 0 1 2.6 1.7l.8.6s-.1-4.4-1.3-5.6z" fill="#f3bc84"/>
  <path d="M54 43.1s-1.9-.3-2.5.4a.9.9 0 0 0 0 1.3" fill="none" stroke="#000" stroke-linecap="round" stroke-linejoin="round" stroke-width=".4"/>
  <path d="M53.9 44.4s-2.4-.1-2.7.9.5.8.5.8" fill="none" stroke="#000" stroke-linecap="round" stroke-linejoin="round" stroke-width=".4"/>
  <path d="M53.8 46s-1.9-.5-2.6.5 2.3 1.5 2.7 1.5a6 6 0 0 0 4.8 2.1 8.2 8.2 0 0 1 2.6 1.7l.8.6s-.1-4.4-1.4-5.6l-1.6-1.6a7.9 7.9 0 0 0-2.9-4l-.4.4s-3.3-.2-3.6.4a2.1 2.1 0 0 0-.2 1.2" fill="none" stroke="#000" stroke-linecap="round" stroke-linejoin="round" stroke-width=".4"/>
  <path d="M69.9 62.8a19.8 19.8 0 0 1-4.5-11.4c-.3-3.3-2.6-4-2.6-4l-3.1-1.6s1.3.8 1.7 4.9a32.5 32.5 0 0 0 4.5 12.8c2 3 4 6.6 4 6.6" fill="#febf10"/>
  <path d="M69.9 62.8a19.8 19.8 0 0 1-4.5-11.4c-.3-3.3-2.6-4-2.6-4l-3.1-1.6s1.3.8 1.7 4.9a32.5 32.5 0 0 0 4.5 12.8c2 3 4 6.6 4 6.6M58 31.3s9.3 5.6 12 9m0 4.6a5.4 5.4 0 0 0-3.9 2.2m2.2.3a10.9 10.9 0 0 0-5.2.1" fill="none" stroke="#000" stroke-linecap="round" stroke-linejoin="round" stroke-width=".4"/>
  <path fill="#0065b7" d="M57.2 17.2l3.9-5.3 1.5 6.4-5.9 20.3-2.6-.6 3.1-20.8z"/>
  <path fill="#004da1" d="M62.6 18.4L61.1 12l-5.7 26.5 1.4.3 5.8-20.4z"/>
  <path fill="none" stroke="#000" stroke-linecap="round" stroke-linejoin="round" stroke-width=".4" d="M57.2 17.2l3.9-5.3 1.5 6.4-5.9 20.3-2.6-.6 3.1-20.8z"/>
  <path fill="#0065b7" stroke="#000" stroke-linecap="round" stroke-linejoin="round" stroke-width=".4" d="M61.1 11.9l-5.7 26.4"/>
  <path d="M53.3 37.7c-4.1 0-3.9 3.4-3.9 3.4a6.8 6.8 0 0 1 3.4-1.1h1.1l.6-2.3z" fill="#febf10" stroke="#000" stroke-linecap="round" stroke-linejoin="round" stroke-width=".4"/>
  <path d="M53.3 38.2h.6l-.4 1.2h-.7a5.1 5.1 0 0 0-2.7.7 2.4 2.4 0 0 1 .6-1.1 3.3 3.3 0 0 1 2.6-.9"/>
  <path d="M57.8 38.7l-1.1-.4-.5 2.3 1.1.4a6.5 6.5 0 0 1 2.5 2.5s1.7-3-2-4.8z" fill="#febf10" stroke="#000" stroke-linecap="round" stroke-linejoin="round" stroke-width=".4"/>
  <path d="M57.6 39.2a3.3 3.3 0 0 1 1.9 2 1.7 1.7 0 0 1 .1 1.2 6.6 6.6 0 0 0-2.1-1.9l-.7-.3.3-1.3.5.3"/>
  <path fill="#febf10" stroke="#000" stroke-linecap="round" stroke-linejoin="round" stroke-width=".4" d="M53.7 38.1l2-1.3 1.3 2-.4 1.7-1.8.5-1.5-1.2.4-1.7z"/>
  <path fill="red" stroke="#000" stroke-linecap="round" stroke-linejoin="round" stroke-width=".4" d="M54.5 38.4l.9-.4.8.8-.2.8-1 .4-.7-.8.2-.8z"/>
  <path d="M42.7 54.6s-4.2-7.6-7.4-11-9.3-6.2-11.8-7-5.2.1-8.3.9c-1.3-1.3-3.7-1.9-4.1-1.7s.4.5.7 1.8a6.3 6.3 0 0 0 .4.9 3.7 3.7 0 0 0-1.6.9c-1 1.3-1.3 10.4-1.3 10.4s0 2.6.4 3.1 1.7.3 1.9 4 .7 6.4.7 6.4-1.2.5-1.2 1.3.8 1.2 1.2 1.3.4 1.4 2 1.7a16 16 0 0 0 2.7.5s.1 1.3 1.6 1a1.5 1.5 0 0 0 1-1.4v.7c2.8.5 3.1-2.4 2.8-3.4a2.1 2.1 0 0 0-1.4-1.3 25.3 25.3 0 0 1-.1-2.9 3.7 3.7 0 0 1 .4-1.1l1.3-2.6a7.3 7.3 0 0 0 1.4-2.8l.2-.4s.9.2.2 7.3-.5 7.6-.5 7.6l.2.4 7.4-1.8 8-6 4.5-5.2zm-22.4 6.9z" fill="#a77e6a"/>
  <path d="M48.8 50.5a6.8 6.8 0 0 0-3.2-.9 14.1 14.1 0 0 0-4.1.8s1.9 4.4 3 5.3a7.5 7.5 0 0 0 2.3-.3.9.9 0 0 0 .5-.9c.4-.1.7-.3.7-.5s-.1-.8-.3-.9l.9-.2a.7.7 0 0 0-.2-.9v-.2h.1c.8-.3.5-.9.3-1.3z" fill="#f3bc84"/>
  <path d="M41.5 50.4a14.1 14.1 0 0 1 4.1-.8 5.9 5.9 0 0 1 3.1.9c.3.4.6 1-.2 1.2a5.6 5.6 0 0 1-1.7.1m-2.3 3.9a7.5 7.5 0 0 0 2.3-.3.9.9 0 0 0 .5-.9m-.7-1.5s1.7.1 2-.2a.7.7 0 0 0-.4-1" fill="none" stroke="#000" stroke-linecap="round" stroke-linejoin="round" stroke-width=".4"/>
  <path d="M46 54.6s1.8.1 2-.6a.7.7 0 0 0-.5-1" fill="none" stroke="#000" stroke-linecap="round" stroke-linejoin="round" stroke-width=".4"/>
  <path d="M22.3 45.8s-.2 5.5-.8 7.3V58l1.5-1.9 1.3-3.5-.3-2.8-1.1-3.2z" fill="#856353"/>
  <path d="M18.6 44.3l-8.7-.2a1 1 0 0 1-1-1.1 1 1 0 0 1 1-.9l8.8.2a.9.9 0 0 1 .9 1 1 1 0 0 1-1 1z" fill="#febf10" stroke="#000" stroke-linecap="round" stroke-linejoin="round" stroke-width=".4"/>
  <path d="M38.8 45.7c-2.7-3.1-4-5.8-7-5.9v-.2a3.2 3.2 0 0 0-2.9-2.8l.2.3H29a2.1 2.1 0 0 0-2.7-1.1l.3.2h-.2c-1.5-1.7-2.9-.8-2.9-.8a2.2 2.2 0 0 0-1.9-.2l.5.2h-.2l-.7-.4a3 3 0 0 0-2.7.4l.8.2h-.1l-.9-.2a3.7 3.7 0 0 0-3.5 1.6l1.2 1.6 1.3-.2s3.6 1.5 6 .3a21.3 21.3 0 0 0 2.7 1l-1.3-.7h.3l1.9.7h1.5l.4 1.2h-.1a1.5 1.5 0 0 0 1.2.7h.2a1.9 1.9 0 0 0 2.3 1.3h.1a1.3 1.3 0 0 0 .1.6 4.4 4.4 0 0 1-.1 2 .7.7 0 0 0 .9-.2l1.9-1.9v1.2l-.9.6-.5 1.9c-1.3 0-2.8 0-3.5 1.9a4.6 4.6 0 0 1 2.5.2l1.7.3a4.4 4.4 0 0 0-2.8 1.6c-.9 1.5.3 3.3.3 3.3s-.4-1.6 1.8-2.1l3.8-.8-2.2 1.5c-1 .7-1.2 2.3-1 4a1.3 1.3 0 0 0 .8-.3l-.4 1.4a3 3 0 0 0 1.8-.5 4.3 4.3 0 0 0 2.5 3.4s5.2-4.6 5.2-5.7-2.9-6.5-5.6-9.6zm-27.6-2.6a.8.8 0 0 0 .2-.5v.2s1.1 0 0-1.6a1.6 1.6 0 0 1-.3-1.4v-.2a1.7 1.7 0 0 1 .8-.9l-.2-.9S9 37.6 8 39.3v10.8s1.4.4 1.5-1.4c0 0 1 .1 1-1.1a4.5 4.5 0 0 0-.7-1.8h.2a1.7 1.7 0 0 0 1.8-.2s0 1 .7 1.2a2 2 0 0 1 0-1.2 2.1 2.1 0 0 0-1.3-2.5z" fill="#856353"/>
  <path d="M9.3 49.8s0 2.6.4 3.1 1.7.3 1.9 4 .7 6.4.7 6.4-1.2.5-1.2 1.3.8 1.2 1.2 1.3.4 1.4 2 1.7a16 16 0 0 0 2.7.5c.6-.1 2-.2 2.1-1.8s.7-3.8.7-3.8m2.4-17.3s2.1 3.8 2.1 7.1-2.5 5.8-2.5 5.8l-.9 2.7a25.3 25.3 0 0 0 .1 2.9 2.1 2.1 0 0 1 1.3 1.3c.3 1 0 3.9-2.8 3.4" fill="none" stroke="#000" stroke-linecap="round" stroke-linejoin="round" stroke-width=".4"/>
  <path d="M24.6 54.5s7 7.6 8.5 13.4l-9.2 1.4v-3.2l.5-6.3v-5.3z" fill="#856353"/>
  <path d="M13.4 40.8a22.2 22.2 0 0 1-1.6-3.2c-.3-1.3-1-1.7-.7-1.8a6.4 6.4 0 0 1 4.5 2.2 19.9 19.9 0 0 1 1.9 3.8m-5.2-5a10.7 10.7 0 0 1 2.4 3.5m9.5 13.6s.9.2.2 7.3-.5 7.6-.5 7.6" fill="none" stroke="#000" stroke-linecap="round" stroke-linejoin="round" stroke-width=".4"/>
  <path d="M16.7 63.2c-.4-.5-.1.5-.7.7a1.3 1.3 0 0 0-.6 2.2c1 .9 1.8-.3 1.7-1a1.7 1.7 0 0 0-.4-1.9z" fill="#856353" stroke="#000" stroke-linecap="round" stroke-linejoin="round" stroke-width=".4"/>
  <path d="M8.1 50.1s1.4.4 1.5-1.4c0 0 1 .1 1-1.1s-1.3-2.3-1.3-3.1m.7 1.3a1.6 1.6 0 0 0 1.7-.2s0 1 .8 1.2a1.4 1.4 0 0 1 0-1.2c.3-.7-.2-2.6-2.5-2.8m1.7-4.7s-2.1.4-2.3 2.2 1.3 1.5 1.7 1.6.3.9.3.9 1.1 0 0-1.6a1.7 1.7 0 0 1 .6-2.5m-.2-.9S9 37.6 8 39.3m6.8-2.1a3.6 3.6 0 0 1 3.4-1.6 4.5 4.5 0 0 1 3 1.7m-3.9 1.1s3.6 1.5 6 .3c0 0 3.4 1.6 5.1 1.2 0 0-.1 1.8 1.6 1.8m-.1-.8a2.2 2.2 0 0 0 2.6 2.2" fill="none" stroke="#000" stroke-linecap="round" stroke-linejoin="round" stroke-width=".4"/>
  <path d="M32.5 41.4a11 11 0 0 0 .1 2.4 4.4 4.4 0 0 1-.1 2s.9.5 1.3-.9m0 0c1.2-.5 1.2-1.3 1.2-1.3s.9.4-.3 1.6-.5 2.1-.5 2.1" fill="none" stroke="#000" stroke-linecap="round" stroke-linejoin="round" stroke-width=".4"/>
  <path d="M35.5 46.8s0 .6-1.5.6-3-.1-3.8 1.9a5 5 0 0 1 2.6.2 3.2 3.2 0 0 0 2.3.2" fill="none" stroke="#000" stroke-linecap="round" stroke-linejoin="round" stroke-width=".4"/>
  <path d="M50 55.5s1 .7.9 6.3.5 5.5.5 5.5a7.8 7.8 0 0 1-5.6-6.1 45.6 45.6 0 0 0-1.1-5.4 22.9 22.9 0 0 1 5.3-.3z" fill="red"/>
  <path d="M47.2 55.6h2.9a29.2 29.2 0 0 1 .9 6.3 48.5 48.5 0 0 0 .3 5.4s-2.3-.4-3.1-4.4-1-7.3-1-7.3z" fill="#980805"/>
  <path d="M50 55.5s.9.7.9 6.3.5 5.5.5 5.5a7.8 7.8 0 0 1-5.6-6.1 45.6 45.6 0 0 0-1.1-5.4 22.9 22.9 0 0 1 5.3-.3z" fill="none" stroke="#000" stroke-linecap="round" stroke-linejoin="round" stroke-width=".4"/>
  <path d="M48.4 55.5s1.7.5 1.5 4.6-.6 4.8 1.1 6.9M38 47.4a2.3 2.3 0 0 1-1.2 1.7c-2 .9-4.2.9-5.1 2.4s.3 3.3.3 3.3-.4-1.6 1.7-2.1 4.3-.5 5.3-2.3" fill="none" stroke="#000" stroke-linecap="round" stroke-linejoin="round" stroke-width=".4"/>
  <path d="M37.3 51.8s-.1.8-1.5 1.4-1.6 2.3-1.4 4.2a1.3 1.3 0 0 0 .8-.3l-.4 1.4s2.7.3 3.3-2.9 1.2-3.5 1.9-4" fill="none" stroke="#000" stroke-linecap="round" stroke-linejoin="round" stroke-width=".4"/>
  <path d="M36.6 58a4.2 4.2 0 0 0 2.5 3.4s5.2-4.6 5.2-5.7-2.8-6.9-5.5-10-4-5.8-7-5.9m-13.3-4.2a3 3 0 0 1 2.7-.4 4.4 4.4 0 0 1 1.9 1.7m-1.5-1.5s2-.8 3.2 1.7" fill="none" stroke="#000" stroke-linecap="round" stroke-linejoin="round" stroke-width=".4"/>
  <path d="M42.2 59.8c-.5.6-1 1.3-1.6 1.9l1.6.6a4.8 4.8 0 0 0 1.5.4 3 3 0 0 0-.4-1.1l-1.1-1.8m-2.1 2.5l-2.1 2a7.7 7.7 0 0 0 3.3 1.3 7.2 7.2 0 0 0-1-3zM37 65.1l-2.2 1.5a8.5 8.5 0 0 0 2.9 1.9 9.1 9.1 0 0 0-.7-3.4" fill="#0065b7"/>
  <path d="M31.1 70a12.1 12.1 0 0 0-.3-1.4 14.8 14.8 0 0 1-2.7 1l.4.5zm-3-.4l.4.5m5.4-2.9a12.9 12.9 0 0 1 .4 2.8h-1.4a16.9 16.9 0 0 1-1.4-1.6l.3-.2 2.1-1" fill="red"/>
  <path d="M44.4 56.6l-1.6 2.3a22.9 22.9 0 0 0 2.8 1.7 11 11 0 0 0-1.2-4" fill="#0065b7"/>
  <path d="M44.4 56.6a11 11 0 0 1 1.2 4 22.9 22.9 0 0 1-2.8-1.7l1.6-2.3m-2.2 3.2l1.1 1.8a3 3 0 0 1 .4 1.1 4.8 4.8 0 0 1-1.5-.4l-1.6-.6c.6-.6 1.1-1.3 1.6-1.9m-1.9 2.8a7.2 7.2 0 0 1 1 3 7.7 7.7 0 0 1-3.3-1.3l2.1-2zM37 65.1a9.1 9.1 0 0 1 .7 3.4 8.5 8.5 0 0 1-2.9-1.9l2.2-1.5M35.4 70a4.7 4.7 0 0 0-.2-1.7 9.3 9.3 0 0 0 3.3 1.4 7.2 7.2 0 0 0-.1-3.9 8.5 8.5 0 0 0 3.8.9 9.4 9.4 0 0 0-.3-3.4 9.4 9.4 0 0 0 2.9.5 4.1 4.1 0 0 0-.7-2.7 4.4 4.4 0 0 0 2.6.5s-.1-3.2-1.1-4.6a2.6 2.6 0 0 1-.1-2.3c.7-1.4 1.3-4.2 1-5.3s-3.4 12.5-15.1 17.9a26.3 26.3 0 0 1-7.8 2.2l-.6.5" fill="red" stroke="#000" stroke-linecap="round" stroke-linejoin="round" stroke-width=".4"/>
  <path d="M23.5 35.4s1.9-1.3 3.6 1.9m-.8-1.3s2.1-.8 2.9 1.8m-.4-1a3.2 3.2 0 0 1 3 3.5" fill="none" stroke="#000" stroke-linecap="round" stroke-linejoin="round" stroke-width=".4"/>
  <path d="M21.1 59.7H21a.5.5 0 0 1-.3-.7s.6-2.4-.7-11.4-3.9-9.1-3.9-9.1-.5-.3-.4-.5a.5.5 0 0 1 .5-.5c.3 0 3.4.4 4.8 9.9s.7 11.8.6 11.9a.5.5 0 0 1-.5.4z" fill="#febf10" stroke="#000" stroke-linecap="round" stroke-linejoin="round" stroke-width=".4"/>
  <path d="M18.8 59.1a.6.6 0 0 1-.5-.6c.9-10 .2-13.1.2-13.1s.1-.6.3-.6.6.1.6.3.9 3.3-.1 13.5a.5.5 0 0 1-.5.5z" fill="#febf10" stroke="#000" stroke-linecap="round" stroke-linejoin="round" stroke-width=".4"/>
  <path d="M15.4 60.6a10.2 10.2 0 0 1-3.7-.7.5.5 0 0 1 .5-.9 10.3 10.3 0 0 0 6.6.1c.3-.1.6.1.6.3s0 .6-.3.6a13.5 13.5 0 0 1-3.7.6zm7.7 9.1h-.2a.5.5 0 0 1-.5-.5.5.5 0 0 1 .5-.5c.2 0 14.8.3 23-18.6a.5.5 0 0 1 .7-.3c.2.1.4.4.3.6-4.5 10.3-10.7 15-15.2 17.1a20.3 20.3 0 0 1-8.6 2.2z" fill="#febf10" stroke="#000" stroke-linecap="round" stroke-linejoin="round" stroke-width=".4"/>
  <path d="M19.7 59.9a.5.5 0 1 1 0-1c.1 0 12.7-.4 26.5-9.9.3-.1.6-.1.7.2a.5.5 0 0 1-.1.7c-14.1 9.6-27 10-27.1 10zm2.5 10v-.5l.4.2h.2a.5.5 0 0 0 .5-.3.4.4 0 0 0-.3-.6l-.5-.3h-.1a13.8 13.8 0 0 1 .5-2.5c.6-2.3.7-2.9-.2-3.9a1.9 1.9 0 0 0-2.2-.4c-.2-.5-.6-1.1-.7-1.4a.7.7 0 0 0-.7-.2.6.6 0 0 0-.2.7l1 1.8a.6.6 0 0 0 .7.1s.9-.4 1.4 0 .5.8-.1 3a21.9 21.9 0 0 0-.7 4.4" fill="#febf10" stroke="#000" stroke-linecap="round" stroke-linejoin="round" stroke-width=".4"/>
  <ellipse cx="18.9" cy="59.8" rx="1.2" ry="1.3" fill="#325723" stroke="#000" stroke-linecap="round" stroke-linejoin="round" stroke-width=".4"/>
  <ellipse cx="18.9" cy="59.8" rx=".4" ry=".5" fill="#325723" stroke="#000" stroke-linecap="round" stroke-linejoin="round" stroke-width=".4"/>
  <path fill="#0065b7" stroke="#000" stroke-linecap="round" stroke-linejoin="round" stroke-width=".4" d="M18.6 46.1l-1.5-.8-.6-1.7.8-1.6 1.8-.6 1.5.9.6 1.7-.8 1.6-1.8.5z"/>
  <circle cx="18.9" cy="43.8" r="1.4" fill="#980805" stroke="#000" stroke-linecap="round" stroke-linejoin="round" stroke-width=".4"/>
  <path d="M28.2 70v-.4a14.8 14.8 0 0 0 2.7-1 12.1 12.1 0 0 1 .3 1.4m1.7 0a9.2 9.2 0 0 1-1.4-1.6l.3-.2 2.1-1v.2a9.2 9.2 0 0 1 .4 2.6" fill="#0065b7" stroke="#000" stroke-linecap="round" stroke-linejoin="round" stroke-width=".4"/>
  <path d="M17 68.1s.1 1.3 1.6 1 1.1-2.8.7-3.7m-4.9-1.6a1.9 1.9 0 0 0-.3 1.2m2.7-16.1s-3.1-.4-3.5 2.5" fill="none" stroke="#000" stroke-linecap="round" stroke-linejoin="round" stroke-width=".4"/>
  <path d="M17.9 49.7a4 4 0 0 0-3.4 2.1" fill="none" stroke="#000" stroke-linecap="round" stroke-linejoin="round" stroke-width=".3"/>
  <path d="M17.4 50.5a.5.5 0 0 1 .2.7 10.4 10.4 0 0 1-1.9 1.3c-1 .5-1.2.2-1.2.2a2.3 2.3 0 0 1 1.1-1.8 2.6 2.6 0 0 1 1.8-.4z" fill="#fff"/>
  <path d="M17.4 50.5a3.5 3.5 0 0 0-2.2.8 2 2 0 0 0-.7 1.4 1.8 1.8 0 0 0 1.4-.3L18 51" fill="none" stroke="#000" stroke-linecap="round" stroke-linejoin="round" stroke-width=".3"/>
  <ellipse cx="15.9" cy="51.6" rx=".8" ry=".7" transform="rotate(-33.9 16 51.54)"/>
  <circle cx="16.1" cy="51.3" r=".2" fill="#fff"/>
  <path d="M15.8 52.5a17.1 17.1 0 0 0 2.2-.9" fill="none" stroke="#000" stroke-linecap="round" stroke-linejoin="round" stroke-width=".3"/>
  <path d="M49.7 31.9a.6.6 0 0 0 0-.8 7.5 7.5 0 0 1-1.6-3.5 7.4 7.4 0 0 0-1-2.7 6.3 6.3 0 0 0-3.1-2.4.7.7 0 0 0-.9.5.8.8 0 0 0 .6.8 4.5 4.5 0 0 1 2.2 1.9 6 6 0 0 1 .9 2.2 8 8 0 0 0 1.8 4 .7.7 0 0 0 1 .1.1.1 0 0 0 .1-.1z" fill="#856353" stroke="#000" stroke-linecap="round" stroke-linejoin="round" stroke-width=".4"/>
  <path d="M47.7 32.3a.5.5 0 0 0 .2-.8 8.8 8.8 0 0 1-.7-3.8 7 7 0 0 0-.4-2.8 5.5 5.5 0 0 0-2.4-3.1.8.8 0 0 0-1 .3.7.7 0 0 0 .4.9 4.9 4.9 0 0 1 1.7 2.4 6.1 6.1 0 0 1 .3 2.3 9.4 9.4 0 0 0 .9 4.4.6.6 0 0 0 .9.3z" fill="#856353" stroke="#000" stroke-linecap="round" stroke-linejoin="round" stroke-width=".4"/>
  <path d="M45.2 22.8a21.5 21.5 0 0 0 1 3.8 6.3 6.3 0 0 1 .2 4.8c-.6 2.1-2.9 2-6.3 1.6s-4.1-7.3-3.5-8.2a8.9 8.9 0 0 1 8.6-2z" fill="#f3bc84"/>
  <path d="M44 22.8a23.2 23.2 0 0 0 .9 4.4c.7 1.5.4 4.8-1.6 6 .1 0 2.1.1 2.8-1.1a5.6 5.6 0 0 0 .6-4.2c-.5-1.4-1.5-4.7-1.5-4.7v-.4z" fill="#c69c6d"/>
  <path d="M45.2 22.8a21.5 21.5 0 0 0 1 3.8 6.3 6.3 0 0 1 .2 4.8c-.6 2.1-2.9 2-6.3 1.6s-4.1-7.3-3.5-8.2a8.9 8.9 0 0 1 8.6-2z" fill="none" stroke="#000" stroke-linecap="round" stroke-linejoin="round" stroke-width=".4"/>
  <path d="M38.2 26.1a2.2 2.2 0 0 1 3.2-1m2.7-2a2 2 0 0 0-1.4 2 4.3 4.3 0 0 0 1.6 2.6c.2.2 0 1.1 0 1.1m-1.5-.4s-.1.7.2.8a1.8 1.8 0 0 0 .8-.5h.2m-.1.4l-.1-.4m.6-.2l.4.2" fill="none" stroke="#000" stroke-linecap="round" stroke-linejoin="round" stroke-width=".3"/>
  <path d="M44.7 29.8a.4.4 0 0 0-.3.2H44a5.9 5.9 0 0 0-.8 1.1l2.3-.9-2.3.8s2 1 2.5-.9-.9-.4-1-.3z" fill="red"/>
  <path d="M42.8 30.9a10.5 10.5 0 0 0 3.1-1.1m-2.7 1.1s2 1 2.5-.9" fill="none" stroke="#000" stroke-linecap="round" stroke-linejoin="round" stroke-width=".3"/>
  <path d="M45.6 29.8s-.8-.1-.9 0a.4.4 0 0 0-.3.2H44a5.7 5.7 0 0 0-.8.9" fill="none" stroke="#000" stroke-linecap="round" stroke-linejoin="round" stroke-width=".3"/>
  <path d="M37.5 36.7a.6.6 0 0 1-.6-.6 7.5 7.5 0 0 0-1-3.8 6.1 6.1 0 0 1-.8-2.6 6.5 6.5 0 0 1 .8-3.9.7.7 0 1 1 1.1.9c-.1 0-.7.9-.6 2.9a5.4 5.4 0 0 0 .8 2.1 9 9 0 0 1 1.1 4.4.8.8 0 0 1-.7.7z" fill="#856353" stroke="#000" stroke-linecap="round" stroke-linejoin="round" stroke-width=".4"/>
  <path d="M38.9 35.9a.8.8 0 0 1-.7-.5 8.7 8.7 0 0 0-1.8-3.4 6.5 6.5 0 0 1-1.5-2.4 6 6 0 0 1-.1-4 .7.7 0 0 1 .9-.3.7.7 0 0 1 .4.9c-.1.1-.5 1.1.1 3a6.2 6.2 0 0 0 1.2 1.9 9.2 9.2 0 0 1 2.1 4 .7.7 0 0 1-.5.8z" fill="#856353" stroke="#000" stroke-linecap="round" stroke-linejoin="round" stroke-width=".4"/>
  <path d="M39.8 35.1a.8.8 0 0 1-.7-.5 6.7 6.7 0 0 0-1.8-3.4 8.2 8.2 0 0 1-1.5-2.4 6 6 0 0 1-.1-4 .8.8 0 0 1 1-.3c.3.1.4.6.3.9a4.3 4.3 0 0 0 .1 2.9 5.6 5.6 0 0 0 1.2 2 9.3 9.3 0 0 1 2.2 3.9.8.8 0 0 1-.5.9z" fill="#856353" stroke="#000" stroke-linecap="round" stroke-linejoin="round" stroke-width=".4"/>
  <path d="M40.7 34.6a.6.6 0 0 1-.6-.5 7.6 7.6 0 0 0-1.9-3.4 9.7 9.7 0 0 1-1.5-2.5c-.7-2.4-.1-3.8 0-3.9s1-1.2 1.4-1 0 .9-.2 1.6a4.2 4.2 0 0 0 .1 2.9 5.3 5.3 0 0 0 1.3 2 10.6 10.6 0 0 1 2.1 3.9c.1.4-.1.8-.5.8z" fill="#856353" stroke="#000" stroke-linecap="round" stroke-linejoin="round" stroke-width=".4"/>
  <path d="M39.2 26.9a2.6 2.6 0 0 0 1.6 0 1.6 1.6 0 0 0 .7-.8 2.2 2.2 0 0 0-1.5 0c-.8.4-.8.8-.8.8z" fill="#fff"/>
  <path d="M39.2 26.7l1-.6a2.9 2.9 0 0 1 1.4 0 2.1 2.1 0 0 1-1.1.9 2.2 2.2 0 0 1-1.4-.2m2.5-.7a1.6 1.6 0 0 0-2.5.7" fill="none" stroke="#000" stroke-linecap="round" stroke-linejoin="round" stroke-width=".3"/>
  <ellipse cx="40.5" cy="26.5" rx=".6" ry=".5" transform="rotate(-17.7 40.3 26.34)"/>
  <circle cx="40.6" cy="26.3" r=".2" fill="#fff"/>
  <path d="M43 25.7a2 2 0 0 0 1.6 0 1.2 1.2 0 0 0 .7-.7 1.7 1.7 0 0 0-1.5 0c-.7.4-.8.7-.8.7z" fill="#fff"/>
  <path d="M43.1 25.5l.9-.5a4.1 4.1 0 0 1 1.2 0 1.4 1.4 0 0 1-.9.8 2 2 0 0 1-1.3-.1m2.2-.7a1.3 1.3 0 0 0-2.2.7" fill="none" stroke="#000" stroke-linecap="round" stroke-linejoin="round" stroke-width=".3"/>
  <ellipse cx="44.2" cy="25.4" rx=".5" ry=".5" transform="rotate(-17.6 44.36 25.39)"/>
  <ellipse cx="44.3" cy="25.2" rx=".2" ry=".2" transform="rotate(-17.6 44.4 25.06)" fill="#fff"/>
  <path d="M44.6 33.2a4.5 4.5 0 0 0 .5 1.7" fill="none" stroke="#000" stroke-linecap="round" stroke-linejoin="round" stroke-width=".4"/>
  <path d="M51.7 16.7s3.4 2.4 3 4.8-3.6 3.9-6.1 1.6-3.7-3.5-5.1-3.8a1.7 1.7 0 0 1 .2-3.4c2.2-.8 7.8.6 8 .8z" fill="#febf10"/>
  <path d="M43.6 17.8s4.9.8 7 2.6 1.6 3.5 1.3 3.7A10.3 10.3 0 0 1 50 24l-1.3-.9-1.5-1.5-1.2-1-2.5-1.6z" fill="#d09b07"/>
  <path d="M51.7 16.7s3.4 2.4 3 4.8-3.6 3.9-6.1 1.6-3.7-3.5-5.1-3.8a1.7 1.7 0 0 1 .2-3.4c2.2-.8 7.8.6 8 .8zm-9.4.7s6.2-.6 9.2 2.8m-16.9-.8s-5.8 3.3-6.4 7.6" fill="none" stroke="#000" stroke-linecap="round" stroke-linejoin="round" stroke-width=".4"/>
  <path d="M37.3 17.6s-7.8-3.2-13.3 2.5-1 8.7.3 8.5 3.3-6.8 9.3-8.2 3.7-2.8 3.7-2.8z" fill="#febf10"/>
  <path d="M35.2 18.8s-7.3.5-9.4 3.8-.8 5.3-.8 5.3l3.1-4.3 1.6-1.6 1.6-.8 2.2-.9z" fill="#d09b07"/>
  <path d="M37.3 17.6s-7.8-3.2-13.3 2.5-1 8.7.3 8.5 3.3-6.8 9.3-8.2 3.7-2.8 3.7-2.8z" fill="none" stroke="#000" stroke-linecap="round" stroke-linejoin="round" stroke-width=".4"/>
  <path d="M38 16.4a11.2 11.2 0 0 1 8.2-4.6c5.6-.4 7.1 2.9 7.1 4.2s-.5 2.2-3.4 1.6-5.5-1.2-8.1-.3-4 0-3.8-.9z" fill="#0065b7"/>
  <path d="M39.8 16.2s4.8-2.3 8.2-1.6 2.6 2.9 2.3 3a8.4 8.4 0 0 1-1.9-.3l-2-.5h-1.3l-3.1-.4-2.4.4z" fill="#004da1"/>
  <path d="M38 16.4a11.2 11.2 0 0 1 8.2-4.6c5.6-.4 7.1 2.9 7.1 4.2s-.5 2.2-3.4 1.6-5.5-1.2-8.1-.3-4 0-3.8-.9z" fill="none" stroke="#000" stroke-linecap="round" stroke-linejoin="round" stroke-width=".4"/>
  <path d="M32.4 9.6s-2.9.7-2.1 4.7 8 2.2 8 2.2-3.1-1.4-3.2-3.7-1-3.7-2.7-3.2z" fill="red"/>
  <path d="M30.8 10.9a6 6 0 0 0 6 5.6l-.3.3h-2.8l-2.1-.6-1.2-1.4-.3-2.3.4-1.4z" fill="#980805"/>
  <path d="M32.4 9.6s-2.9.7-2.1 4.7 8 2.2 8 2.2-3.1-1.4-3.2-3.7-1-3.7-2.7-3.2zm5.1 8.8s-9-2.4-13.4 4.2m7.7-10.9s-.2 3.7 6.2 4.7m.4.6a12.2 12.2 0 0 1 10.1-3.2" fill="none" stroke="#000" stroke-linecap="round" stroke-linejoin="round" stroke-width=".4"/>
  <path d="M45.2 22.7a27.8 27.8 0 0 0-.1-5.7c-.5-1.8-7.8-.4-11.5 3.3s-3.1 5.6-2.3 6l3.1 1.6s4.6-6.3 10.8-5.2z" fill="red"/>
  <path d="M40.1 16.8s1.5 3.8 1.2 6.1l2.3-.2h1.6v-5l-.3-1-1-.5H42z" fill="#980805"/>
  <path d="M31.6 26.4s-1-3.6 5.7-7.7c3.2-1.4 6.5-1.7 7.8-1" fill="none" stroke="#000" stroke-linecap="round" stroke-linejoin="round" stroke-width=".4"/>
  <path d="M45.2 22.8a28.8 28.8 0 0 0-.1-5.8c-.5-1.8-7.8-.4-11.5 3.3s-3.1 5.6-2.3 6l3.2 1.7s4.5-6.3 10.7-5.2z" fill="none" stroke="#000" stroke-linecap="round" stroke-linejoin="round" stroke-width=".4"/>
  <path fill="#0065b7" stroke="#000" stroke-linecap="round" stroke-linejoin="round" stroke-width=".4" d="M37.3 15.24l2.67.83-.82 2.65-2.68-.84z"/>
  <path fill="#004da1" stroke="#000" stroke-linecap="round" stroke-linejoin="round" stroke-width=".4" d="M37.85 16.14l1.24.39-.38 1.24-1.24-.38z"/>
  <path d="M18.9 43l.2.5.5.1-.3.3v.6l-.4-.3-.5.3.1-.6-.4-.3.5-.1.3-.5z"/>
  <path d="M53 113.3s.2-5.2-4.1-3.8-2.8 5.3-3 6.5a10.6 10.6 0 0 1-2.8 4.6c-1.1 1 8 0 9.9-7.3z" fill="#325723"/>
  <path d="M46.8 117.2s2.6-3.8 2.2-6-1.6-1.1-1.6-1.1l-1 1.2-.5 1.6-.8 3.8-.2 2-.4.7z" fill="#0d3a12"/>
  <path fill="#f3bc84" d="M36.6 107.5l-6.1 1.3-.1-3.4 1.9-2.4h5.2l2.4 1.9-2.8 2.6h-.5z"/>
  <path d="M53 113.3s.2-5.2-4.1-3.8-2.8 5.3-3 6.5a10.6 10.6 0 0 1-2.8 4.6c-1.1 1 8 0 9.9-7.3z" fill="none" stroke="#000" stroke-linecap="round" stroke-linejoin="round" stroke-width=".4"/>
  <path fill="#a77e6a" d="M33.5 83.9l-6.6-10.6.5-3.3 25.8.2-.8.8-9.3 3.3-2.4 2.2-6.3 6-.9 1.4z"/>
  <path d="M39.3 75.9s-2.8-5.5-3.4-5.7h-8.4l-.5 2.6 2.5 1.3 1.7 2 1 3z" fill="#856353"/>
  <path d="M10 70.2s7.3 5.7 16.4 4.3a15.5 15.5 0 0 0 1.1-4.4" fill="#325723" stroke="#000" stroke-linecap="round" stroke-linejoin="round" stroke-width=".4"/>
  <path d="M37.7 102.3l-9.7 2.3-10.9-18.5L10 70.2s6.2-.1 8.8 1.3 5.6 3.4 8.6 1.8L43 97.8z" fill="#0065b7"/>
  <path d="M25.8 94.7S19.9 78 19.9 72.2l-2.4-1.3-6.8-.6 7.7 16.8 1 3.7z" fill="#004da1"/>
  <path d="M37.7 102.3l-9.7 2.3-10.9-18.5L10 70.2s6.2-.1 8.8 1.3 5.6 3.4 8.6 1.8L43 97.8z" fill="none" stroke="#000" stroke-linecap="round" stroke-linejoin="round" stroke-width=".4"/>
  <path d="M29 83.4a.5.5 0 0 1 .5.4.4.4 0 0 1-.4.6l-5.4.6c-3.7.4-4.3 2-4.3 2a.4.4 0 0 1-.6.3c-.3 0-.4-.3-.4-.6s.8-2.2 5.1-2.7l5.5-.6z" fill="#febf10" stroke="#000" stroke-linecap="round" stroke-linejoin="round" stroke-width=".4"/>
  <path d="M27.6 75.3a.5.5 0 0 1 .4.2.5.5 0 0 1-.1.7 16.2 16.2 0 0 1-6.6 2.3c-3.3.4-4.4 1.9-4.4 1.9s-.4.3-.7.2a.5.5 0 0 1-.2-.6c.2-.4 1.7-2 5.2-2.5a13.2 13.2 0 0 0 6.1-2.1z" fill="none" stroke="#000" stroke-linecap="round" stroke-linejoin="round" stroke-width=".4"/>
  <path d="M63 70.1a18.8 18.8 0 0 1-.3 2.3.4.4 0 0 1-.6.4.5.5 0 0 1-.4-.6 10.6 10.6 0 0 0 .3-2" fill="#febf10" stroke="#000" stroke-linecap="round" stroke-linejoin="round" stroke-width=".4"/>
  <ellipse cx="24.7" cy="93.1" rx="2.3" ry="1.4" transform="rotate(-78.4 24.69 93.02)" fill="#febf10" stroke="#000" stroke-linecap="round" stroke-linejoin="round" stroke-width=".4"/>
  <circle cx="25.5" cy="90.2" r=".7" fill="red" stroke="#000" stroke-linecap="round" stroke-linejoin="round" stroke-width=".4"/>
  <path d="M30.5 110a15.1 15.1 0 0 1-11.5-1.7l3.2-12.9 6.9-2.4 5.3 9.9s-6.7.2-3.9 7.1z" fill="#0065b7"/>
  <path d="M29.6 108.1a7.2 7.2 0 0 1-2.7-2l-1.2.8a8.5 8.5 0 0 0 3.6 3c.1 0 .2.2.2.3l1-.2a7.7 7.7 0 0 1-.5-1.9.3.3 0 0 1-.4 0zm-5.2-3.5l1.1-.7-.3-.8-1 1c.1.2.1.4.2.5zm3-5.4l-1.7.3a8.1 8.1 0 0 0 0 2.2l1.5-.7a14.1 14.1 0 0 1 .2-1.8zm.6-1.9a6.5 6.5 0 0 0-2 .2l-.3 1.2 1.9-.3a7.6 7.6 0 0 1 .4-1.1zm-.9 12.7a.4.4 0 0 1 .2.4h1.1a10.3 10.3 0 0 1-3.3-3l-.7.8a21.1 21.1 0 0 0 2.7 1.8zm-4.7-.3l.8-1.4a16.3 16.3 0 0 1-3.3-3.6l-.9 3.6a18.8 18.8 0 0 0 3.4 1.4zm3.8.7l-2.3-1.6-.7 1.1a11.7 11.7 0 0 0 3 .5zm2.2-12h1.1l.3-.9-1-.2a10.4 10.4 0 0 1-.4 1.1z" fill="#f2f2f2"/>
  <path d="M20.3 104a17.2 17.2 0 0 0 3.4 3.7l.9-.9a4.1 4.1 0 0 0-.5-.9l-.7.8c-.1.2-.3.2-.5.1a.5.5 0 0 1-.1-.6c.1 0 .4-.5 1-1a.4.4 0 0 1-.1-.3c-.2.1-.4.2-.5.1a.5.5 0 0 1-.2-.6l.3-.4a10.3 10.3 0 0 0-.4-1.4c0-.2.1-.4.3-.4a.1.1 0 0 0 .1-.1.4.4 0 0 1 .4.4 1.9 1.9 0 0 1 .2.7l1.1-1a16.4 16.4 0 0 1-.2-2.3.4.4 0 0 1-.5-.2c-.1-.2-.1-.4.1-.5l.5-.2a5 5 0 0 1 .2-1.2.4.4 0 0 1-.5-.2c-.1-.2-.1-.4.1-.5l.6-.3c.1-.5.3-1 .4-1.5a.5.5 0 0 1 .4-.3h.2a.4.4 0 0 1 .2.6l-.3 1h2.1l.6-1.2a.4.4 0 0 1 .4-.2h.2c.2.1.2.4.1.6a9.3 9.3 0 0 0-.5 1l1.4.3a.5.5 0 0 1 .3.5l-.2.2-.3 1 1.4.3a.5.5 0 0 1 .2.6.4.4 0 0 1-.5.2l-1.2-.3a7.8 7.8 0 0 0-.2 1.4 10.3 10.3 0 0 1 3.2 1c.2.1.2.3.1.5s-.4.3-.5.2a8.1 8.1 0 0 0-2.7-1 3.3 3.3 0 0 0 .5 1.7.4.4 0 0 1 0 .5c-.1.2-.3.2-.5.2a3.1 3.1 0 0 0-1.3-.3 4.3 4.3 0 0 0 .4.7l1.4-.2h.3a6 6 0 0 1 3.5-1.4l-5.2-9.6-6.9 2.4-2.2 8.1z" fill="#f2f2f2"/>
  <path d="M28.1 101.7a5.3 5.3 0 0 0 .3 1.2h1.1c-.1-.4-.2-.8-.3-1.4zm-1.6 2.5l.6.9 1.3-.5-.5-.8zm-.1 1.3l-.6-.9a3.9 3.9 0 0 0-1 .8 5.9 5.9 0 0 0 .4.8zm3.5 1.9a4.9 4.9 0 0 1 .1-1.3h-.2a2.7 2.7 0 0 1-.8-.7l-1.4.4a8.1 8.1 0 0 0 2.3 1.6zm.3-2.1l.2-.3h-.5zm-2-6.1a11.1 11.1 0 0 0-.2 1.7h1.2a10.4 10.4 0 0 1 .2-1.5zm-.6 3.8c-.1-.4-.2-.7-.3-1.2l-1.4.7.3 1z" fill="#f2f2f2"/>
  <path d="M40.6 104.9S46 99.7 47.4 93l-14.6-.7 1 10.2a7.5 7.5 0 0 1 6.8 2.4z" fill="#0065b7"/>
  <path d="M39.2 102.6a2.8 2.8 0 0 1-.1.8H39l.8.6a6.9 6.9 0 0 0 .6-1.8zm4-2.4a4.5 4.5 0 0 1 .1 1.1h.2l.8-1.2zm-5.1 2.8h.2v-.2zm7.7-5.7l-3.2.2a7.7 7.7 0 0 1 .5 1.9h1.6l1.2-2.2zm-9 .1l-1.4 1.3.9.6 1.2-.9a8.6 8.6 0 0 1-.7-1zm-.1-3a2.7 2.7 0 0 0-1 .8l1.1 1.1 1.1-.8zm2.4 6.6a1.9 1.9 0 0 1 .1.8 5.3 5.3 0 0 1 1.2-.3v-.9zm.3-3.5l-1-1.4-1 .8.8 1.2zm3.1 3.8a4.5 4.5 0 0 0-.1-1.1l-1.3.2a3.4 3.4 0 0 1 .1 1zm-4.1.7v-.7l-.8.4a1.5 1.5 0 0 1 .1.6zm4 .3v-.2h-1.2a7.3 7.3 0 0 1-.7 2.3h-.1l.2.3a28.3 28.3 0 0 0 2-2.3c-.1.2-.2 0-.2-.1zm-5.5.3v-.4l-.5.4z" fill="#f2f2f2"/>
  <path d="M34.1 102.5h1.5c0-.2 0-.3.1-.4l1-.8a2.5 2.5 0 0 0-.5-.8 4.6 4.6 0 0 0-.7 1.1.4.4 0 0 1-.6.3.4.4 0 0 1-.2-.5 4.7 4.7 0 0 1 1-1.5 4.1 4.1 0 0 0-1.1-.7l-.2-.3c-.1-.2 0-.3.1-.4l1.7-1.7-1.1-1-.3.4a.4.4 0 0 1-.6.1c-.2-.1-.2-.3-.1-.5l.4-.4-.4-.3a.4.4 0 0 1-.1-.6h.5l.5.4 1-1c-.1-.1-.2-.4 0-.5l.3-.2c.1 0 .2 0 .2.1s.2.1.2.2l.3-.2h.2c.1 0 .3.1.3.2a.4.4 0 0 1-.1.5l1.1 1.2 1.5-.9c0-.1 0-.1-.1-.2a.3.3 0 0 1 .1-.5h.2l.4.2c0 .1.1.1.2.2l1-.3h.1l.7.3c.5.1-.3.3-.6.4l-.8.3a17.1 17.1 0 0 1 1.2 2.3 17.2 17.2 0 0 1 3.4-.3l.4.2a22.9 22.9 0 0 0 1.2-3.9l-14.2-.5z" fill="#f2f2f2"/>
  <path d="M38.3 100.5a6.9 6.9 0 0 0-.5-1.3l-1 .7a3.7 3.7 0 0 1 .6 1zm2.7-.9l1.3-.2a15.4 15.4 0 0 0-.5-1.7l-1.3.3a14.2 14.2 0 0 1 .5 1.6zm-2-3.9a7.6 7.6 0 0 1 1.1 1.6l1.4-.4a12.4 12.4 0 0 0-1-2zm-.5 3.1a7.8 7.8 0 0 1 .5 1.4l1.2-.4a4.4 4.4 0 0 0-.5-1.5z" fill="#f2f2f2"/>
  <path fill="#f2f2f2" d="M34.1 102.5l-.9-10.1 14.2.6-.2 1.1-13-.7.8 9.1h-.9z"/>
  <path fill="#f2f2f2" d="M33.5 103.4l-4.6-9.2-7.1 3 .5-1.7 7-2.2 5.2 9.7-1 .4z"/>
  <path d="M10.9 70.2c.3 1.3 2.5 3.8 5.4 8.8a30.1 30.1 0 0 1 3.6 11s-2.5-.5-3.4-1.9L8 71.8l.4-1.7z" fill="#d09b07"/>
  <path d="M19.9 90a30.1 30.1 0 0 0-3.6-11c-2.9-5-5.1-7.5-5.4-8.8m29.7 34.7S46 99.7 47.4 93l-14.2-.5 1 10a6.9 6.9 0 0 1 6.4 2.4zM30.5 110a15.1 15.1 0 0 1-11.5-1.7l3.4-12.6 6.9-2.4 5.1 9.6s-6.7.2-3.9 7.1z" fill="none" stroke="#000" stroke-linecap="round" stroke-linejoin="round" stroke-width=".4"/>
  <path fill="none" stroke="#000" stroke-linecap="round" stroke-linejoin="round" stroke-width=".4" d="M35.1 102.4l-1-9 13 .7M33.4 103l-4.5-8.8-7 3m18.2 7.1s3.1-5.2-3.8-10.8m2.4 9.8s1.3-5-4.4-8.5"/>
  <path d="M37.3 102.6a4.1 4.1 0 0 0-2.6-3.8s3.8-4 7.2-4.9m.9 8.4a11.9 11.9 0 0 0-2.6-8.5m3 7.9a12.2 12.2 0 0 0-5.7 1.1m6.9-3s-4.9-.5-8.4 2.6m-.9-.9s1.7-4.6 10.8-4.6M34.5 96a8.3 8.3 0 0 1 2.7-2.4m-10.3 16.8s-4.7-2.6-6.9-6.2m9.1 6.1s-4.4-1.7-5.8-7.8" fill="none" stroke="#000" stroke-linecap="round" stroke-linejoin="round" stroke-width=".4"/>
  <path d="M8 99.8c2.7 3.5 12 9.1 12 9.1l2.9-13.3-9-8.9L8.1 75z" fill="red"/>
  <path d="M19.2 108.4s-9.6-6-11-8.5v-4.6s10.2 7.8 12.8 7.9z" fill="#980805"/>
  <path d="M29.7 107.8s-6.9-2.7-3.6-12.4m3.9 10.3s-4.8-3-.7-10.2m3.7 6.7s-5.9-3.5-9.6 2.4" fill="none" stroke="#000" stroke-linecap="round" stroke-linejoin="round" stroke-width=".4"/>
  <path fill="#febf10" stroke="#000" stroke-linecap="round" stroke-linejoin="round" stroke-width=".4" d="M24.2 101.48l-2.84-.58 1-4.95 2.85.57z"/>
  <path d="M31.5 99.4s-4-1.4-6.9.1m5.8-2.1s-3.3-1.1-5.5 0m-2.1 12.4a9.4 9.4 0 0 1 7.8-5.2" fill="none" stroke="#000" stroke-linecap="round" stroke-linejoin="round" stroke-width=".4"/>
  <path d="M23.1 106.5s3.4-4.4 7.1-2.9c0 0-1.4-1.8.1-6.2" fill="none" stroke="#000" stroke-linecap="round" stroke-linejoin="round" stroke-width=".4"/>
  <path d="M35.2 101.6a7.5 7.5 0 0 1 5.9 2.8l-1.1 1.1a6.3 6.3 0 0 0-6.8-1.9 3.3 3.3 0 0 0-2.1 1.7c-.8 1.8.3 4.6.3 4.6l-1.4.4c-.1-.2-1.4-3.2-.3-5.7a4.6 4.6 0 0 1 3-2.6 7.7 7.7 0 0 1 2.5-.4z" fill="#febf10" stroke="#000" stroke-linecap="round" stroke-linejoin="round" stroke-width=".4"/>
  <path d="M17.2 93.4l1.7 1.5a7.9 7.9 0 0 0 2.9 4.1l.4-.5s3.3.2 3.6-.3a2.5 2.5 0 0 0 .2-1.3l.5-.3a.9.9 0 0 0 0-1.3l-.2.2.5-.5c.2-.7-.2-.9-.5-.9a.8.8 0 0 0 .4-.4c.7-.9-2.2-1.5-2.6-1.5a6.2 6.2 0 0 0-4.8-2.2 7.3 7.3 0 0 1-2.6-1.6l-.8-.7s.1 4.5 1.3 5.7z" fill="#f3bc84"/>
  <path d="M24 97s1.9.3 2.5-.4a.9.9 0 0 0 0-1.3" fill="none" stroke="#000" stroke-linecap="round" stroke-linejoin="round" stroke-width=".4"/>
  <path d="M24.1 95.7s2.4.1 2.7-.8-.7-.8-.7-.8" fill="none" stroke="#000" stroke-linecap="round" stroke-linejoin="round" stroke-width=".4"/>
  <path d="M24.2 94.1s1.9.5 2.5-.5-2.2-1.5-2.6-1.5a6.2 6.2 0 0 0-4.8-2.1 7.3 7.3 0 0 1-2.6-1.6l-.8-.7s.1 4.5 1.3 5.7l1.7 1.5a7.9 7.9 0 0 0 2.9 4.1l.4-.5s3.3.2 3.6-.3a2.5 2.5 0 0 0 .2-1.3" fill="none" stroke="#000" stroke-linecap="round" stroke-linejoin="round" stroke-width=".4"/>
  <path d="M8.1 77.3a20.1 20.1 0 0 1 4.5 11.4c.3 3.3 2.6 4.1 2.6 4.1a9.2 9.2 0 0 0 3.1 1.5s-1.3-.8-1.7-4.8a33 33 0 0 0-4.5-12.9c-2-3-4-6.6-4-6.6" fill="#febf10"/>
  <path d="M8.1 77.3a20.1 20.1 0 0 1 4.5 11.4c.3 3.3 2.6 4.1 2.6 4.1a9.2 9.2 0 0 0 3.1 1.5s-1.3-.8-1.7-4.8a33 33 0 0 0-4.5-12.9c-2-3-4-6.6-4-6.6M20 108.9s-9.3-5.6-12-9.1m0-4.5a5.7 5.7 0 0 0 3.9-2.3m-2.2-.2a11.5 11.5 0 0 0 5.2-.2" fill="none" stroke="#000" stroke-linecap="round" stroke-linejoin="round" stroke-width=".4"/>
  <path fill="#0065b7" d="M20.8 123l-3.9 5.2-1.5-6.4 5.9-20.3 2.6.6-3.1 20.9z"/>
  <path fill="#004da1" d="M15.4 121.7l1.5 6.4 5.7-26.5-1.3-.3-5.9 20.4z"/>
  <path fill="none" stroke="#000" stroke-linecap="round" stroke-linejoin="round" stroke-width=".4" d="M20.8 123l-3.9 5.2-1.5-6.4 5.9-20.3 2.6.6-3.1 20.9z"/>
  <path fill="#0065b7" stroke="#000" stroke-linecap="round" stroke-linejoin="round" stroke-width=".4" d="M16.9 128.2l5.7-26.3"/>
  <path d="M24.7 102.4c4.1 0 3.9-3.4 3.9-3.4a6.8 6.8 0 0 1-3.4 1.1h-1.1l-.6 2.3z" fill="#febf10" stroke="#000" stroke-linecap="round" stroke-linejoin="round" stroke-width=".4"/>
  <path d="M24.7 101.9h-.6l.4-1.3h.7a5.1 5.1 0 0 0 2.7-.7 1.7 1.7 0 0 1-.6 1.1 3.3 3.3 0 0 1-2.6.9"/>
  <path d="M20.2 101.4l1.1.5.5-2.4a4.5 4.5 0 0 1-1.1-.3 6.5 6.5 0 0 1-2.5-2.6s-1.7 3 2 4.8z" fill="#febf10" stroke="#000" stroke-linecap="round" stroke-linejoin="round" stroke-width=".4"/>
  <path d="M20.4 101a3.6 3.6 0 0 1-1.9-2 1.7 1.7 0 0 1-.1-1.2 6.4 6.4 0 0 0 2.1 1.8l.7.3-.3 1.3-.5-.2"/>
  <path fill="#febf10" stroke="#000" stroke-linecap="round" stroke-linejoin="round" stroke-width=".4" d="M24.3 102l-2 1.3-1.3-2 .4-1.7 1.8-.5 1.5 1.3-.4 1.6z"/>
  <path fill="red" stroke="#000" stroke-linecap="round" stroke-linejoin="round" stroke-width=".4" d="M23.6 101.7l-1 .4-.8-.8.2-.8 1-.4.7.8-.1.8z"/>
  <path d="M35.3 85.5s4.2 7.6 7.4 11 9.3 6.3 11.8 7 5.2-.1 8.3-.9c1.3 1.3 3.7 2 4.1 1.8s-.4-.6-.7-1.8a3.6 3.6 0 0 0-.4-.9l1.6-.9c1-1.4 1.3-10.5 1.3-10.5s0-2.5-.4-3-1.7-.4-1.9-4.1-.7-6.3-.7-6.3 1.2-.6 1.2-1.4a1.3 1.3 0 0 0-1.2-1.2c-.3-.1-.4-1.4-2-1.7s-2-.6-2.7-.5-.1-1.3-1.6-1a1.4 1.4 0 0 0-1 1.3v-.7c-2.8-.4-3.1 2.4-2.8 3.4a2.1 2.1 0 0 0 1.4 1.3 26.3 26.3 0 0 1 .1 3l-.4 1.1-1.3 2.5a8.7 8.7 0 0 0-1.4 2.9l-.2.3s-.9-.1-.2-7.3.5-7.6.5-7.6l-.2-.4-7.4 1.9-8 5.9-4.5 5.2zm22.4-6.8z" fill="#a77e6a"/>
  <path d="M29.2 89.6a6.8 6.8 0 0 0 3.2.9 12.1 12.1 0 0 0 4.1-.7s-1.9-4.5-3-5.3-1.8-.1-2.3.3a.8.8 0 0 0-.5.8c-.4.1-.7.3-.7.6a.6.6 0 0 0 .3.8c-.4 0-.8.1-.9.3a.8.8 0 0 0 .2.9h-.1c-.8.4-.5 1.1-.3 1.4z" fill="#f3bc84"/>
  <path d="M36.5 89.8a12.1 12.1 0 0 1-4.1.7 6.8 6.8 0 0 1-3.2-.9c-.2-.3-.5-1 .3-1.2a5.6 5.6 0 0 1 1.7-.1m2.3-3.8s-1.8-.1-2.3.3a.8.8 0 0 0-.5.8m.7 1.5s-1.7-.1-2 .3a.6.6 0 0 0 .3.9" fill="none" stroke="#000" stroke-linecap="round" stroke-linejoin="round" stroke-width=".4"/>
  <path d="M32 85.5s-1.8-.1-2 .7.5.9.5.9" fill="none" stroke="#000" stroke-linecap="round" stroke-linejoin="round" stroke-width=".4"/>
  <path d="M55.7 94.4s.2-5.5.8-7.3v-5L54.9 84l-1.3 3.6.4 2.8 1.1 3.1z" fill="#856353"/>
  <path d="M59.4 95.9l8.7.2a.9.9 0 0 1 1 1 1.1 1.1 0 0 1-1 1l-8.8-.2a.9.9 0 0 1-.9-1 .9.9 0 0 1 1-1z" fill="#febf10" stroke="#000" stroke-linecap="round" stroke-linejoin="round" stroke-width=".4"/>
  <path d="M39.2 94.4c2.7 3.1 4 5.8 7 6h.1a3.1 3.1 0 0 0 2.9 2.8l-.2-.2h.1a2 2 0 0 0 2.6 1l-.3-.2h.2c1.5 1.8 2.9.8 2.9.8a2.7 2.7 0 0 0 1.9.2l-.5-.3h.2l.7.3a2.8 2.8 0 0 0 2.7-.3l-.8-.3h.1l.9.2a3.7 3.7 0 0 0 3.5-1.5l-1.2-1.3h-1.3s-3.6-1.4-6-.3a14.7 14.7 0 0 0-2.7-.9l1.3.6H53l-1.9-.7h-1.5l-.4-1.3h.1a1.8 1.8 0 0 0-1.2-.7h-.2a2 2 0 0 0-2.3-1.3h-.1a1.3 1.3 0 0 0-.1-.6 4.4 4.4 0 0 1 .1-2 .9.9 0 0 0-.9.2l-1.9 1.9v-1.3l.9-.6.5-1.8c1.3 0 2.8-.1 3.5-2a5.3 5.3 0 0 1-2.5-.1 4.5 4.5 0 0 0-1.7-.4 4 4 0 0 0 2.8-1.6c.9-1.5-.3-3.3-.3-3.3s.4 1.7-1.8 2.2l-3.8.8 2.2-1.6c1-.7 1.2-2.3 1-4l-.8.3.4-1.4a3 3 0 0 0-1.8.5 4.3 4.3 0 0 0-2.5-3.4s-5.2 4.7-5.2 5.7 2.9 6.9 5.6 9.9zM66.8 97a1.4 1.4 0 0 0-.2.6v-.3s-1.1 0 0 1.6a1.8 1.8 0 0 1 .3 1.5h-.1a1.7 1.7 0 0 1-.8.9l.2.9s2.8.2 3.8-1.4V90s-1.4-.4-1.5 1.5c0 0-1-.2-1 1a4.5 4.5 0 0 0 .7 1.8H68a1.7 1.7 0 0 0-1.8.2s0-1-.7-1.2a2.1 2.1 0 0 1 0 1.2 2.1 2.1 0 0 0 1.3 2.5z" fill="#856353"/>
  <path d="M68.7 90.3s0-2.5-.4-3-1.7-.4-1.9-4.1-.7-6.3-.7-6.3 1.2-.6 1.2-1.4a1.3 1.3 0 0 0-1.2-1.2c-.3-.1-.4-1.4-2-1.7s-2-.6-2.7-.5a1.8 1.8 0 0 0-2.1 1.8 35 35 0 0 1-.7 3.7m-2.4 17.3s-2.1-3.8-2.1-7a8.6 8.6 0 0 1 2.5-5.8l.9-2.7a26.3 26.3 0 0 0-.1-3 2.1 2.1 0 0 1-1.3-1.3c-.3-1 0-3.8 2.8-3.4" fill="none" stroke="#000" stroke-linecap="round" stroke-linejoin="round" stroke-width=".4"/>
  <path d="M53.4 85.6s-7-7.5-8.5-13.3l9.2-1.4v3.2l-.5 6.2v5.3z" fill="#856353"/>
  <path d="M64.6 99.4a17.6 17.6 0 0 1 1.6 3.2c.3 1.2 1 1.6.7 1.8a6.2 6.2 0 0 1-4.5-2.3 19.9 19.9 0 0 1-1.9-3.8m5.2 5.1a12.2 12.2 0 0 1-2.4-3.5m-9.5-13.7s-.9-.1-.2-7.3.5-7.6.5-7.6" fill="none" stroke="#000" stroke-linecap="round" stroke-linejoin="round" stroke-width=".4"/>
  <path d="M61.3 77c.4.4.1-.6.7-.8a1.2 1.2 0 0 0 .6-2.1c-1-1-1.8.2-1.7.9a1.8 1.8 0 0 0 .4 2z" fill="#856353" stroke="#000" stroke-linecap="round" stroke-linejoin="round" stroke-width=".4"/>
  <path d="M69.9 90s-1.4-.4-1.5 1.5c0 0-1-.2-1 1s1.3 2.4 1.3 3.2m-.7-1.4a1.7 1.7 0 0 0-1.8.2s0-1-.7-1.2a2.1 2.1 0 0 1 0 1.2c-.3.7.2 2.6 2.5 2.8m-1.8 4.7s2.2-.3 2.4-2.2-1.3-1.4-1.7-1.6-.3-.9-.3-.9-1.1 0 0 1.6a1.7 1.7 0 0 1-.6 2.5m.2.9s2.8.2 3.8-1.4m-6.8 2.1a3.7 3.7 0 0 1-3.5 1.5 4.5 4.5 0 0 1-2.9-1.7m3.9-1.1s-3.6-1.4-6-.3c0 0-3.4-1.6-5.1-1.1 0 0 .1-1.9-1.6-1.9m.1.8a2.2 2.2 0 0 0-2.6-2.2" fill="none" stroke="#000" stroke-linecap="round" stroke-linejoin="round" stroke-width=".4"/>
  <path d="M45.5 98.7a11 11 0 0 0-.1-2.4 4.4 4.4 0 0 1 .1-2s-.9-.4-1.3 1m0-.1c-1.2.5-1.2 1.3-1.2 1.3s-.9-.3.3-1.6.5-2.1.5-2.1" fill="none" stroke="#000" stroke-linecap="round" stroke-linejoin="round" stroke-width=".4"/>
  <path d="M42.5 93.4s0-.6 1.5-.6 3 0 3.7-2a5.3 5.3 0 0 1-2.5-.1 4.2 4.2 0 0 0-2.3-.3" fill="none" stroke="#000" stroke-linecap="round" stroke-linejoin="round" stroke-width=".4"/>
  <path d="M28 84.6s-1-.6-.9-6.2-.5-5.6-.5-5.6a8.2 8.2 0 0 1 5.6 6.2 45.6 45.6 0 0 0 1.1 5.4 20.1 20.1 0 0 1-5.3.2z" fill="red"/>
  <path d="M30.8 84.5h-2.9a30.7 30.7 0 0 1-.9-6.4 50.9 50.9 0 0 0-.3-5.4s2.3.5 3.1 4.5 1 7.3 1 7.3z" fill="#980805"/>
  <path d="M28 84.6s-.9-.6-.9-6.2-.5-5.6-.5-5.6a8.2 8.2 0 0 1 5.6 6.2 45.6 45.6 0 0 0 1.1 5.4 20.1 20.1 0 0 1-5.3.2z" fill="none" stroke="#000" stroke-linecap="round" stroke-linejoin="round" stroke-width=".4"/>
  <path d="M29.6 84.6s-1.7-.5-1.5-4.6.6-4.8-1.1-6.9m13 19.6a2.3 2.3 0 0 1 1.2-1.7c2-.9 4.2-.9 5.1-2.4s-.3-3.3-.3-3.3.4 1.7-1.8 2.2-4.2.4-5.2 2.3" fill="none" stroke="#000" stroke-linecap="round" stroke-linejoin="round" stroke-width=".4"/>
  <path d="M40.7 88.3s0-.8 1.5-1.3 1.6-2.4 1.4-4.3l-.8.3.4-1.4a3.2 3.2 0 0 0-3.3 3c-.7 3.2-1.2 3.4-1.9 4" fill="none" stroke="#000" stroke-linecap="round" stroke-linejoin="round" stroke-width=".4"/>
  <path d="M41.4 82.1a4.2 4.2 0 0 0-2.5-3.4s-5.2 4.7-5.2 5.7 2.8 7 5.5 10 4 5.9 7 6m13.3 4.2a2.8 2.8 0 0 1-2.7.3 4.4 4.4 0 0 1-1.9-1.7m1.5 1.6s-2 .8-3.2-1.7" fill="none" stroke="#000" stroke-linecap="round" stroke-linejoin="round" stroke-width=".4"/>
  <path d="M35.8 80.3l1.6-1.8-1.6-.7-1.5-.4a3 3 0 0 0 .4 1.1l1.1 1.8m2.1-2.4a19.9 19.9 0 0 1 2.1-2 8.8 8.8 0 0 0-3.3-1.4 7.8 7.8 0 0 0 1 3.1zm3.1-2.8l2.2-1.6a7.4 7.4 0 0 0-2.9-1.8 9.7 9.7 0 0 0 .7 3.4" fill="#0065b7"/>
  <path d="M46.9 70.1a8.1 8.1 0 0 0 .3 1.4l2.7-1-.4-.4zm3 .4l-.4-.5m-5.4 3a12.9 12.9 0 0 1-.4-2.8h1.4a9.2 9.2 0 0 1 1.4 1.6h-.3L44.1 73" fill="red"/>
  <path d="M33.6 83.6l1.6-2.4-2.8-1.7a11 11 0 0 0 1.2 4.1" fill="#0065b7"/>
  <path d="M33.6 83.6a11 11 0 0 1-1.2-4.1l2.8 1.7-1.6 2.4m2.2-3.3l-1.1-1.8a3 3 0 0 1-.4-1.1l1.5.4 1.6.7-1.6 1.8m1.9-2.7a7.8 7.8 0 0 1-1-3.1 8.8 8.8 0 0 1 3.3 1.4 19.9 19.9 0 0 0-2.1 2zm3.3-2.5a9.7 9.7 0 0 1-.7-3.4 7.4 7.4 0 0 1 2.9 1.8L41 75.1m1.6-5a4.7 4.7 0 0 0 .2 1.7 9.3 9.3 0 0 0-3.3-1.4 7.2 7.2 0 0 0 .1 3.9 7.9 7.9 0 0 0-3.8-.8 9.5 9.5 0 0 0 .3 3.4 8 8 0 0 0-2.9-.6 4.1 4.1 0 0 0 .7 2.7 4.4 4.4 0 0 0-2.6-.5s.1 3.2 1.1 4.7a2.4 2.4 0 0 1 .1 2.2c-.7 1.4-1.3 4.2-1 5.3s3.4-12.5 15.1-17.9a29.7 29.7 0 0 1 7.8-2.2l.6-.5" fill="red" stroke="#000" stroke-linecap="round" stroke-linejoin="round" stroke-width=".4"/>
  <path d="M54.5 104.7s-1.9 1.3-3.6-1.8m.8 1.2s-2.1.8-2.9-1.8m.4 1a3.2 3.2 0 0 1-3-3.5" fill="none" stroke="#000" stroke-linecap="round" stroke-linejoin="round" stroke-width=".4"/>
  <path d="M56.9 80.4h.1c.3 0 .4.3.3.6s-.6 2.4.7 11.5 3.9 9 3.9 9 .5.3.4.6a.5.5 0 0 1-.5.4c-.3 0-3.4-.4-4.8-9.9s-.7-11.8-.6-11.9a.5.5 0 0 1 .5-.3z" fill="#febf10" stroke="#000" stroke-linecap="round" stroke-linejoin="round" stroke-width=".4"/>
  <path d="M59.2 81.1a.5.5 0 0 1 .5.5c-.9 10-.2 13.1-.2 13.2s-.1.5-.3.6-.6-.1-.6-.4-.9-3.3.1-13.5a.5.5 0 0 1 .5-.4z" fill="#febf10" stroke="#000" stroke-linecap="round" stroke-linejoin="round" stroke-width=".4"/>
  <path d="M62.6 79.6a11.6 11.6 0 0 1 3.7.6.7.7 0 0 1 .2.7.4.4 0 0 1-.7.2 9.9 9.9 0 0 0-6.6 0c-.3 0-.6-.1-.6-.4a.4.4 0 0 1 .3-.6 13 13 0 0 1 3.7-.5zm-7.7-9.2h.2a.6.6 0 0 1 .5.6.4.4 0 0 1-.5.4c-.2 0-14.8-.3-23 18.7a.5.5 0 0 1-.7.2c-.2-.1-.4-.4-.3-.6 4.5-10.3 10.7-14.9 15.2-17.1a22.1 22.1 0 0 1 8.6-2.2z" fill="#febf10" stroke="#000" stroke-linecap="round" stroke-linejoin="round" stroke-width=".4"/>
  <path d="M58.3 80.3a.5.5 0 0 1 .5.4.6.6 0 0 1-.5.6c-.1 0-12.7.3-26.5 9.8a.5.5 0 1 1-.6-.8c14.1-9.7 27-10 27.1-10zm-2.5-10.1v.5l-.4-.2h-.2a.5.5 0 0 0-.5.3.5.5 0 0 0 .3.7l.5.2h.1a16.6 16.6 0 0 1-.5 2.6c-.6 2.2-.7 2.8.2 3.8a1.9 1.9 0 0 0 2.2.5l.7 1.3c.2.3.5.4.7.2a.5.5 0 0 0 .2-.6 11.9 11.9 0 0 0-1-1.8.6.6 0 0 0-.7-.2s-.9.5-1.4 0-.5-.8.1-3a22.5 22.5 0 0 0 .7-4.3" fill="#febf10" stroke="#000" stroke-linecap="round" stroke-linejoin="round" stroke-width=".4"/>
  <ellipse cx="59.1" cy="80.4" rx="1.2" ry="1.3" fill="#325723" stroke="#000" stroke-linecap="round" stroke-linejoin="round" stroke-width=".4"/>
  <ellipse cx="59.1" cy="80.4" rx=".4" ry=".5" fill="#325723" stroke="#000" stroke-linecap="round" stroke-linejoin="round" stroke-width=".4"/>
  <path fill="#0065b7" stroke="#000" stroke-linecap="round" stroke-linejoin="round" stroke-width=".4" d="M59.4 94l1.5.9.6 1.7-.8 1.6-1.8.5-1.5-.8-.6-1.7.8-1.6 1.8-.6z"/>
  <circle cx="59.1" cy="96.4" r="1.4" fill="#980805" stroke="#000" stroke-linecap="round" stroke-linejoin="round" stroke-width=".4"/>
  <path d="M49.8 70.1v.4l-2.7 1a8.1 8.1 0 0 1-.3-1.4m-1.7 0a12.7 12.7 0 0 1 1.4 1.7h-.3L44.1 73v-.3a9.2 9.2 0 0 1-.4-2.6" fill="#0065b7" stroke="#000" stroke-linecap="round" stroke-linejoin="round" stroke-width=".4"/>
  <path d="M61 72.1s-.1-1.3-1.6-1-1.1 2.7-.7 3.7m4.9 1.6a2.1 2.1 0 0 0 .3-1.3m-2.7 16.1s3.1.5 3.5-2.5" fill="none" stroke="#000" stroke-linecap="round" stroke-linejoin="round" stroke-width=".4"/>
  <path d="M60.1 90.4a4 4 0 0 0 3.4-2" fill="none" stroke="#000" stroke-linecap="round" stroke-linejoin="round" stroke-width=".3"/>
  <path d="M60.6 89.6c-.2-.1-.4-.4-.2-.6a5.3 5.3 0 0 1 1.9-1.3c1-.6 1.2-.2 1.2-.2a2.1 2.1 0 0 1-1.1 1.7c-1.2.7-1.8.4-1.8.4z" fill="#fff"/>
  <path d="M60.6 89.6a3.9 3.9 0 0 0 2.2-.7 2.2 2.2 0 0 0 .7-1.4 1.5 1.5 0 0 0-1.4.2L60 89.2" fill="none" stroke="#000" stroke-linecap="round" stroke-linejoin="round" stroke-width=".3"/>
  <ellipse cx="62.1" cy="88.5" rx=".8" ry=".7" transform="rotate(-34 62 88.52)"/>
  <circle cx="61.9" cy="88.8" r=".2" fill="#fff"/>
  <path d="M62.2 87.7a15.2 15.2 0 0 0-2.2.8" fill="none" stroke="#000" stroke-linecap="round" stroke-linejoin="round" stroke-width=".3"/>
  <path d="M28.3 108.2a.6.6 0 0 0 0 .8 7.8 7.8 0 0 1 1.6 3.6 7.7 7.7 0 0 0 1 2.6 7 7 0 0 0 3.1 2.5.9.9 0 0 0 .9-.6.8.8 0 0 0-.6-.8 4.5 4.5 0 0 1-2.2-1.9 6.4 6.4 0 0 1-.9-2.1 8.3 8.3 0 0 0-1.8-4.1.8.8 0 0 0-1-.1z" fill="#856353" stroke="#000" stroke-linecap="round" stroke-linejoin="round" stroke-width=".4"/>
  <path d="M30.3 107.8a.6.6 0 0 0-.2.8 8.9 8.9 0 0 1 .7 3.9 6.8 6.8 0 0 0 .4 2.7 5.5 5.5 0 0 0 2.4 3.1.7.7 0 0 0 1-.3.7.7 0 0 0-.4-.9 4.9 4.9 0 0 1-1.7-2.4 5.3 5.3 0 0 1-.3-2.2 9 9 0 0 0-.9-4.4c-.1-.4-.5-.5-.9-.4z" fill="#856353" stroke="#000" stroke-linecap="round" stroke-linejoin="round" stroke-width=".4"/>
  <path d="M32.8 117.3a21.5 21.5 0 0 0-1-3.8 6.3 6.3 0 0 1-.2-4.8c.6-2.1 2.9-2 6.3-1.5s4.1 7.3 3.5 8.1-4.5 3.4-8.6 2z" fill="#f3bc84"/>
  <path d="M34 117.4a21.8 21.8 0 0 0-.9-4.4c-.7-1.6-.4-4.8 1.6-6-.1-.1-2.1-.2-2.8 1a5.6 5.6 0 0 0-.6 4.2c.5 1.4 1.5 4.7 1.5 4.7v.5z" fill="#c69c6d"/>
  <path d="M32.8 117.3a21.5 21.5 0 0 0-1-3.8 6.3 6.3 0 0 1-.2-4.8c.6-2.1 2.9-2 6.3-1.5s4.1 7.3 3.5 8.1-4.5 3.4-8.6 2z" fill="none" stroke="#000" stroke-linecap="round" stroke-linejoin="round" stroke-width=".4"/>
  <path d="M39.8 114a2.2 2.2 0 0 1-3.2 1m-2.7 2a2 2 0 0 0 1.4-2 3.7 3.7 0 0 0-1.6-2.5c-.2-.3 0-1.1 0-1.1m1.5.3s.1-.7-.2-.7-.6.2-.8.4l-.2.2m.1-.6l.1.4m-.6.2l-.4-.2" fill="none" stroke="#000" stroke-linecap="round" stroke-linejoin="round" stroke-width=".3"/>
  <path d="M33.3 110.4l.3-.2h.4c.2 0 .8-1 .8-1l-2.3.9 2.3-.9s-2-.9-2.5.9z" fill="red"/>
  <path d="M35.2 109.2a14.7 14.7 0 0 0-3.1 1.1m2.7-1.1s-2-.9-2.5.9" fill="none" stroke="#000" stroke-linecap="round" stroke-linejoin="round" stroke-width=".3"/>
  <path d="M32.4 110.3h.9l.3-.2h.4c.2 0 .8-.8.8-.8" fill="none" stroke="#000" stroke-linecap="round" stroke-linejoin="round" stroke-width=".3"/>
  <path d="M40.5 103.4c.3.1.6.3.6.6a7.5 7.5 0 0 0 1 3.8 6.6 6.6 0 0 1 .8 2.7 5.8 5.8 0 0 1-.8 3.8.7.7 0 0 1-1 .1.6.6 0 0 1-.1-.9 4.4 4.4 0 0 0 .6-2.9 5.3 5.3 0 0 0-.8-2.2 8.6 8.6 0 0 1-1.1-4.3.7.7 0 0 1 .7-.7z" fill="#856353" stroke="#000" stroke-linecap="round" stroke-linejoin="round" stroke-width=".4"/>
  <path d="M39.1 104.2a.8.8 0 0 1 .7.5 8.7 8.7 0 0 0 1.8 3.4 6.5 6.5 0 0 1 1.5 2.4 6 6 0 0 1 .1 4 .7.7 0 0 1-.9.3c-.4-.1-.5-.5-.4-.9s.5-1.1-.1-2.9a6.7 6.7 0 0 0-1.2-2 9.3 9.3 0 0 1-2.1-3.9.7.7 0 0 1 .5-.9z" fill="#856353" stroke="#000" stroke-linecap="round" stroke-linejoin="round" stroke-width=".4"/>
  <path d="M38.2 105a.8.8 0 0 1 .7.5 7.6 7.6 0 0 0 1.8 3.5 6.2 6.2 0 0 1 1.5 2.4 5.7 5.7 0 0 1 .1 3.9.7.7 0 0 1-1 .3c-.3-.1-.4-.5-.3-.9a4.2 4.2 0 0 0-.1-2.9 6.7 6.7 0 0 0-1.2-2 9.3 9.3 0 0 1-2.2-3.9.7.7 0 0 1 .5-.8z" fill="#856353" stroke="#000" stroke-linecap="round" stroke-linejoin="round" stroke-width=".4"/>
  <path d="M37.3 105.6a.6.6 0 0 1 .6.5 8.2 8.2 0 0 0 1.9 3.4 7.6 7.6 0 0 1 1.5 2.4c.7 2.4.1 3.9 0 3.9s-1 1.2-1.4 1 0-.8.2-1.5a4.7 4.7 0 0 0-.1-3 5 5 0 0 0-1.3-1.9 10.4 10.4 0 0 1-2.1-4 .7.7 0 0 1 .5-.8z" fill="#856353" stroke="#000" stroke-linecap="round" stroke-linejoin="round" stroke-width=".4"/>
  <path d="M38.8 113.2a2.6 2.6 0 0 0-1.6 0 1.6 1.6 0 0 0-.7.8 1.7 1.7 0 0 0 1.5 0c.8-.4.8-.8.8-.8z" fill="#fff"/>
  <path d="M38.8 113.5a2.8 2.8 0 0 1-1 .5 2.9 2.9 0 0 1-1.4 0 2.2 2.2 0 0 1 1.1-.8 1.8 1.8 0 0 1 1.4.1m-2.5.8a1.6 1.6 0 0 0 2.5-.8" fill="none" stroke="#000" stroke-linecap="round" stroke-linejoin="round" stroke-width=".3"/>
  <ellipse cx="37.5" cy="113.6" rx=".6" ry=".5" transform="rotate(-17.7 37.28 113.36)"/>
  <circle cx="37.4" cy="113.9" r=".2" fill="#fff"/>
  <path d="M35 114.4a2.6 2.6 0 0 0-1.6 0 1.2 1.2 0 0 0-.7.7 1.7 1.7 0 0 0 1.5 0c.7-.3.8-.7.8-.7z" fill="#fff"/>
  <path d="M34.9 114.6a2 2 0 0 1-.9.5 2.1 2.1 0 0 1-1.2 0 1.7 1.7 0 0 1 .9-.8 2 2 0 0 1 1.3.1m-2.2.7a1.3 1.3 0 0 0 2.2-.7" fill="none" stroke="#000" stroke-linecap="round" stroke-linejoin="round" stroke-width=".3"/>
  <ellipse cx="33.8" cy="114.7" rx=".5" ry=".5" transform="matrix(.95 -.3 .3 .95 -33.15 15.61)"/>
  <ellipse cx="33.7" cy="115" rx=".2" ry=".2" transform="rotate(-17.6 33.78 115.03)" fill="#fff"/>
  <path d="M33.4 107a4.5 4.5 0 0 0-.5-1.7" fill="none" stroke="#000" stroke-linecap="round" stroke-linejoin="round" stroke-width=".4"/>
  <path d="M26.3 123.4s-3.4-2.4-3-4.8 3.6-3.8 6.1-1.5 3.7 3.5 5.1 3.8 2 2.6-.2 3.4-7.8-.7-8-.9z" fill="#febf10"/>
  <path d="M34.4 122.4s-4.9-.9-7-2.7-1.6-3.5-1.3-3.6a6 6 0 0 1 1.9 0l1.3.9 1.5 1.5 1.2 1.1 2.5 1.5z" fill="#d09b07"/>
  <path d="M26.3 123.4s-3.4-2.4-3-4.8 3.6-3.8 6.1-1.5 3.7 3.5 5.1 3.8 2 2.6-.2 3.4-7.8-.7-8-.9zm9.4-.6s-6.2.6-9.2-2.9m16.9.9s5.8-3.4 6.4-7.7" fill="none" stroke="#000" stroke-linecap="round" stroke-linejoin="round" stroke-width=".4"/>
  <path d="M40.7 122.5s7.8 3.3 13.3-2.4 1-8.7-.3-8.6-3.3 6.9-9.3 8.3-3.7 2.7-3.7 2.7z" fill="#febf10"/>
  <path d="M42.8 121.3s7.3-.4 9.4-3.8.8-5.3.8-5.3l-3.1 4.3-1.6 1.6-1.6.8-2.2.9z" fill="#d09b07"/>
  <path d="M40.7 122.5s7.8 3.3 13.3-2.4 1-8.7-.3-8.6-3.3 6.9-9.3 8.3-3.7 2.7-3.7 2.7z" fill="none" stroke="#000" stroke-linecap="round" stroke-linejoin="round" stroke-width=".4"/>
  <path d="M40 123.8a11 11 0 0 1-8.2 4.5c-5.6.5-7.1-2.9-7.1-4.2s.5-2.2 3.4-1.5 5.5 1.1 8.1.3 4-.1 3.8.9z" fill="#0065b7"/>
  <path d="M38.2 124s-4.8 2.3-8.2 1.5-2.6-2.9-2.3-3l1.9.3 2 .5 1.3.2 3.1.2 2.4-.4z" fill="#004da1"/>
  <path d="M40 123.8a11 11 0 0 1-8.2 4.5c-5.6.5-7.1-2.9-7.1-4.2s.5-2.2 3.4-1.5 5.5 1.1 8.1.3 4-.1 3.8.9z" fill="none" stroke="#000" stroke-linecap="round" stroke-linejoin="round" stroke-width=".4"/>
  <path d="M45.6 130.5s2.9-.6 2.1-4.6-8-2.3-8-2.3 3.1 1.5 3.2 3.7 1 3.8 2.7 3.2z" fill="red"/>
  <path d="M47.2 129.3a6.1 6.1 0 0 0-6-5.7l.3-.2h2.8l2.1.6 1.2 1.4.3 2.2-.4 1.4z" fill="#980805"/>
  <path d="M45.6 130.5s2.9-.6 2.1-4.6-8-2.3-8-2.3 3.1 1.5 3.2 3.7 1 3.8 2.7 3.2zm-5.1-8.7s9 2.3 13.4-4.2m-7.7 10.8s.2-3.6-6.2-4.6m-.4-.7a12.5 12.5 0 0 1-10.1 3.3" fill="none" stroke="#000" stroke-linecap="round" stroke-linejoin="round" stroke-width=".4"/>
  <path d="M32.8 117.4a27.8 27.8 0 0 0 .1 5.7c.5 1.9 7.8.5 11.5-3.3s3.1-5.6 2.3-6l-3.1-1.6s-4.6 6.3-10.8 5.2z" fill="red"/>
  <path d="M37.9 123.4s-1.5-3.9-1.2-6.2l-2.3.3-1.6-.2v5.1l.3 1 1 .5H36z" fill="#980805"/>
  <path d="M46.4 113.8s1 3.6-5.7 7.6c-3.2 1.5-6.5 1.8-7.8 1" fill="none" stroke="#000" stroke-linecap="round" stroke-linejoin="round" stroke-width=".4"/>
  <path d="M32.7 117.4a30.6 30.6 0 0 0 .2 5.7c.5 1.9 7.8.5 11.5-3.3s3.1-5.6 2.3-6l-3.2-1.6s-4.5 6.2-10.8 5.2z" fill="none" stroke="#000" stroke-linecap="round" stroke-linejoin="round" stroke-width=".4"/>
  <path fill="#0065b7" stroke="#000" stroke-linecap="round" stroke-linejoin="round" stroke-width=".4" d="M40.66 124.9l-2.68-.84.83-2.65 2.67.84z"/>
  <path fill="#004da1" stroke="#000" stroke-linecap="round" stroke-linejoin="round" stroke-width=".4" d="M40.2 124.01l-1.24-.38.38-1.24 1.24.38z"/>
  <path d="M59.1 97.1l-.2-.4-.5-.1.3-.4v-.5l.4.2.5-.2-.1.5.4.4-.5.1-.3.4z"/>
  <path fill="none" stroke="#000" stroke-linecap="round" stroke-linejoin="round" stroke-width=".4" d="M8 7.9h62v124.31H8zM8.1 70H70"/>
</svg>
