<svg xmlns="http://www.w3.org/2000/svg" viewBox="0 0 78 140">
  <rect width="78" height="140" rx="6" ry="6" fill="#fff"/>
  <path d="M32.4 43.3a6.3 6.3 0 0 0-2.8-2.5c-3.5-1.7-2.7-4.3-1.8-5.5s3.8-1.1 3.3-.4a1.6 1.6 0 0 0 .4 2.1c3.2 2.1 5.1 3.5 4.9 4.9s-3.6 2-4 1.4z" fill="#febf10"/>
  <path d="M32.4 43.3a6.3 6.3 0 0 0-2.8-2.5c-3.5-1.7-2.7-4.3-1.8-5.5s3.8-1.1 3.3-.4a1.6 1.6 0 0 0 .4 2.1c3.2 2.1 5.1 3.5 4.9 4.9s-3.6 2-4 1.4z" fill="none" stroke="#000" stroke-linecap="round" stroke-linejoin="round" stroke-width=".4"/>
  <path d="M22.5 46.3l2.2-.8-.9-2.3c0-.1 1 1 2.2.8s2.2-1.5 5.2-1 5.2-1.4 5.2-1.3-1.1 4.2-1.7 4.5-1 .9-4.2.5-2.9 1.1-4.4 1.3-1.5 0-3.6-1.7z" fill="red"/>
  <path d="M36.4 41.7c-.1 0-1.2 2.1-5.2 1.3s-3.7.8-5.2 1a2.1 2.1 0 0 1-.8 0 3.1 3.1 0 0 1-1.4-.8l.9 2.3-2.2.8a12.7 12.7 0 0 0 2.7 1.7 1.4 1.4 0 0 0 .9 0c1.5-.2 1.5-1.7 4.4-1.3s3.6-.1 4.2-.5 2.1-2.9 1.7-4.5z" fill="none" stroke="#000" stroke-linecap="round" stroke-linejoin="round" stroke-width=".4"/>
  <path d="M28.2 33.1c.8-3.7 7-1.4 8.8-.6s4.2 2.4 7.7 2.3c5.8-.3 8.3 4.1 8.1 4.4a6.7 6.7 0 0 0-.7 2.8 9 9 0 0 0-7.2-3.1c-4.8.5-9-2.2-10.4-2.9l-.3-.2c-.4-.2-4-1.7-6.8.2 0 0 .2-.5.8-2.9z" fill="#325723"/>
  <path d="M47.8 35.1c3.6 1 5.1 3.8 5 4.1a6.7 6.7 0 0 0-.7 2.8 9.9 9.9 0 0 0-4.5-2.8 5.9 5.9 0 0 0-2.7-.3 12.7 12.7 0 0 1-4.8-.4 23.7 23.7 0 0 1-5.6-2.5l-.3-.2-1.2-.5a7.2 7.2 0 0 0-5.6.7s.2-.5.8-2.9 3.6-2.2 6.1-1.5l2.7.9a32.5 32.5 0 0 0 4.3 1.9 17.6 17.6 0 0 0 3.4.4 7.6 7.6 0 0 1 3.1.3z" fill="none" stroke="#000" stroke-linecap="round" stroke-linejoin="round" stroke-width=".4"/>
  <path d="M56.6 35.5a5 5 0 0 1 2.3-2.9c3-2.4 1.8-4.8.8-5.8s-4-.4-3.4.2a1.6 1.6 0 0 1 0 2.2c-2.8 2.6-4.4 4.3-3.9 5.7s3.8 1.3 4.2.6z" fill="#febf10"/>
  <path d="M57.9 27.3a2.2 2.2 0 0 1 .2 3.1c-1.3 1.7-3.4 3.9-3.5 5h2s.5-1.9 1.2-2.2 2.4-1.4 2.7-2.3a7.1 7.1 0 0 0 .2-2.3 15 15 0 0 0-.9-1.8h-2.3z" fill="#d09b07"/>
  <path d="M56.6 35.5a5 5 0 0 1 2.3-2.9c3-2.4 1.8-4.8.8-5.8s-4-.4-3.4.2a1.6 1.6 0 0 1 0 2.2c-2.8 2.6-4.4 4.3-3.9 5.7s3.8 1.3 4.2.6z" fill="none" stroke="#000" stroke-linecap="round" stroke-linejoin="round" stroke-width=".4"/>
  <path d="M66.8 36.7l-2.3-.4.5-2.4a3.2 3.2 0 0 1-2.1 1.2c-1.5.1-2.4-1.2-5.2 0s-5.4-.6-5.4-.4 1.8 3.9 2.4 4.1 1.2.7 4.3-.3 3.1.6 4.6.5 1.4-.2 3.2-2.3z" fill="red"/>
  <path d="M64.4 36.3c-.3.1-.8 1.2-1.9 1a6.2 6.2 0 0 0-3.4-.4 30.9 30.9 0 0 0-3.8.9l.8 1.5a12.5 12.5 0 0 0 2.6-.5 5.7 5.7 0 0 1 2.1-.6l1.3.4 1.4.5 1.8-.8 1.5-1.7z" fill="#980805"/>
  <path d="M52.3 34.7c-.1 1.6 1.8 3.9 2.4 4.1s1.2.7 4.3-.3 3.1.6 4.6.5a1.3 1.3 0 0 0 .8-.2 7.3 7.3 0 0 0 2.4-2.1l-2.3-.4.5-2.4a3.3 3.3 0 0 1-1.2 1l-.9.2c-1.5.1-2.4-1.2-5.2 0s-5.3-.5-5.4-.4z" fill="none" stroke="#000" stroke-linecap="round" stroke-linejoin="round" stroke-width=".4"/>
  <path d="M58.9 24.7c-1.5-3.4-7.1-.1-8.8 1.1s-3.7 3-7.2 3.5c-5.8.7-7.4 5.5-7.2 5.8a7.5 7.5 0 0 1 1.2 2.6s2.4-4 6.5-4.3 8.5-3.7 9.7-4.7l.3-.2c.4-.3 3.6-2.5 6.8-1.1a18.8 18.8 0 0 1-1.3-2.7z" fill="red"/>
  <path d="M58.8 25.2a7.1 7.1 0 0 0-6 .7c-3 2-6 5.2-7.3 5.9l2.5.3a12.3 12.3 0 0 0 3.3-1.9c1-1 3-2.7 4.2-2.9S59 27 59 27l1.1.4-.9-1.7z" fill="#980805"/>
  <path d="M39.9 30.2c-3.4 1.6-4.4 4.7-4.2 4.9a7.5 7.5 0 0 1 1.2 2.6 11 11 0 0 1 3.9-3.6 11.1 11.1 0 0 1 2.6-.7 11.7 11.7 0 0 0 4.7-1.3 21.6 21.6 0 0 0 5-3.4l.3-.2 1.1-.7a7.2 7.2 0 0 1 5.7-.4 18.8 18.8 0 0 1-1.3-2.7c-1-2.3-4-1.5-6.3-.4a12.5 12.5 0 0 0-2.5 1.5 34.3 34.3 0 0 1-3.9 2.5 11.5 11.5 0 0 1-3.3 1 8.8 8.8 0 0 0-3 .9z" fill="none" stroke="#000" stroke-linecap="round" stroke-linejoin="round" stroke-width=".4"/>
  <path fill="#0065b7" d="M28.5 36.8l-4.8 3.4 3 18.1 22.6.3.1-22.6-5.6-1.2-15.3 2z"/>
  <path d="M38.4 39.3s3.1 6.9 2.8 12.6l3.1.2L48 41.8l.8-5.1-1.4-1.1-9.1 3z" fill="#004da1"/>
  <path fill="#e6e6e6" d="M55.5 44.2l-7.6 15L50 69.9l6.8.1 1.1-21.2-2-4.9-.4.3z"/>
  <path d="M52.6 52.8s2.1 6.5 1.5 17l1.9.2 1.1-12.4v-5.7l-.7-3.8-.6-2.5-.5-.8-.7 2.8-.5 2-.5 1.5z" fill="#b3b3b3"/>
  <path d="M56.1 70l.9-12.6c.6-8.3-1.8-12.7-1.8-12.7s-1.3-5.1-1-5.2 2.4 1.1 2.4 1.1a.6.6 0 0 1 .1.4.4.4 0 0 1 .1.3c1.5 5.7 3 8.9 3.1 11.7a23.5 23.5 0 0 1 0 4.3s.1 9.2-.8 12.7z" fill="#febf10"/>
  <path d="M40.8 30.4a4.8 4.8 0 0 0 5.1 1.4v2c-9.4 6-15.3.2-15.3.2 4.6-1.3 3.7-6.1 3.7-6.1z" fill="#f3bc84"/>
  <path d="M38.6 30.8a8 8 0 0 1 1.1 5.2l5-1.5.9-1.2-1.2-1.2-1.6-.2-1.5-.9-.3-.3h-2.4z" fill="#c69c6d"/>
  <path d="M34.4 27.9s.9 4.8-3.7 6.1c0 0 5.9 5.8 15.3-.2v-2a4.8 4.8 0 0 1-5.1-1.4" fill="none" stroke="#000" stroke-linecap="round" stroke-linejoin="round" stroke-width=".4"/>
  <path d="M29.5 36.8l1.8-2.6s-4.4-2.4-5.2 2.2H26c-1.7.7-4.4 3.3-7.2 11.5 0 0-7.7 14.3-3.5 20.9l.5.9h11l-1.3-25-.5-4.3h-.5c2-1.2 5-3.6 5-3.6z" fill="#325723"/>
  <path fill="#0d3a12" d="M23 41.4l2.1-1.1.4 5-2.1 1.6-.4-5.5z"/>
  <path d="M20.4 54.3s-1.6 2.5-1.4 7.5l5 3.4s2.2-2.7 2.3-10.4c0 0-3.2-3.5-5.9-.5z" fill="red"/>
  <path d="M20.4 54.3s-1.6 2.5-1.4 7.5l5 3.4s2.2-2.7 2.3-10.4c0 0-3.2-3.5-5.9-.5z" fill="none" stroke="#000" stroke-linecap="round" stroke-linejoin="round" stroke-width=".4"/>
  <path d="M24.5 69.9a8.3 8.3 0 0 1 .7-2.1l.2-2.3 24.8.3a10.5 10.5 0 0 1 1 4.2z" fill="red"/>
  <path d="M38 67.1a12.9 12.9 0 0 1 .5 2.8h12.8l-.2-1.9-1-2.1z" fill="#980805"/>
  <ellipse cx="22.2" cy="52.4" rx="1.7" ry="5" transform="rotate(-3.6 22.22 53.25)" fill="#febf10"/>
  <path d="M22.6 57.4c-1 .1-1.9-2.1-2.1-4.9s.5-5 1.4-5.1" fill="#d09b07"/>
  <ellipse cx="22.2" cy="52.4" rx="1.7" ry="5" transform="rotate(-3.6 22.22 53.25)" fill="none" stroke="#000" stroke-linecap="round" stroke-linejoin="round" stroke-width=".4"/>
  <rect x="20.2" y="55.1" width="3.9" height=".44" rx=".2" ry=".2" transform="rotate(-138.7 22.11 55.34)" fill="#febf10" stroke="#000" stroke-linecap="round" stroke-linejoin="round" stroke-width=".3"/>
  <rect x="19.8" y="53.7" width="4.8" height=".44" rx=".2" ry=".2" transform="rotate(-138.7 22.28 53.96)" fill="#febf10" stroke="#000" stroke-linecap="round" stroke-linejoin="round" stroke-width=".3"/>
  <rect x="20.2" y="50.4" width="4.4" height=".44" rx=".2" ry=".2" transform="rotate(41.3 22.37 50.5)" fill="#febf10" stroke="#000" stroke-linecap="round" stroke-linejoin="round" stroke-width=".3"/>
  <rect x="19.9" y="51.8" width="4.8" height=".44" rx=".2" ry=".2" transform="rotate(41.3 22.29 51.9)" fill="#febf10" stroke="#000" stroke-linecap="round" stroke-linejoin="round" stroke-width=".3"/>
  <circle cx="22.6" cy="57.6" r=".7" fill="#0065b7" stroke="#000" stroke-linecap="round" stroke-linejoin="round" stroke-width=".4"/>
  <path d="M22 59.4a.6.6 0 0 0 .7.6.7.7 0 0 0 .7-.7.8.8 0 0 0-.8-.7c-.4.1-.7.4-.6.8z" fill="red" stroke="#000" stroke-linecap="round" stroke-linejoin="round" stroke-width=".4"/>
  <path d="M22.9 58.5c0 .4.2.7.5.7a.9.9 0 0 0 .4-.8c-.1-.4-.3-.7-.5-.7s-.5.4-.4.8zm-1.4.1c0 .4.2.7.4.7a.6.6 0 0 0 .4-.8c0-.4-.2-.7-.4-.7s-.5.4-.4.8z" fill="red" stroke="#000" stroke-linecap="round" stroke-linejoin="round" stroke-width=".4"/>
  <path d="M22.2 58.7c0 .4.2.7.5.7a.9.9 0 0 0 .4-.8c-.1-.4-.3-.7-.5-.7s-.4.4-.4.8z" fill="#980805" stroke="#000" stroke-linecap="round" stroke-linejoin="round" stroke-width=".4"/>
  <path d="M28.1 55.7s-.8-.1-.2-3.4 1.2-2.3 1.3-2 0 3.8-.5 4.6-.6.8-.6.8z" fill="#febf10" stroke="#000" stroke-linecap="round" stroke-linejoin="round" stroke-width=".4"/>
  <path d="M24.8 48c-.9-.1-1.2 0-1.2.2a2.1 2.1 0 0 1-.6 1.9s-2.2.2-2.5-.3 0-.6 0-.6-.8.4-.9 1a.9.9 0 0 0 .6 1.1l-.4-.3c-.4.7 0 1.2.7 1.6s-.1.1-.1.2l-.5-.4c-.4.5-.1.9.4 1.3-.4 0-.3.4-.2.6a7.3 7.3 0 0 0 2.3 1c.8.2 1.9-.3 3.8-.7s2.3-.2 2.3-.2l.8-4.3a31.6 31.6 0 0 0-4.5-2.1z" fill="#f3bc84"/>
  <path d="M29.3 50.2s-3.7-2.1-4.6-2.2-1.1 0-1.1.2a2.1 2.1 0 0 1-.6 1.9s-2.3.2-2.5-.3 0-.6 0-.6-.8.4-.9 1-.2 1.1 2.6 1.6m6.3 2.7s-.4-.2-2.3.2-3 .9-3.8.7a6.3 6.3 0 0 1-2.3-1c-.1-.2-.2-.6.1-.6m2-.4s-3.4-.8-2.4-2.3m2.5 3.4s-3.3-.6-2.4-2" fill="none" stroke="#000" stroke-linecap="round" stroke-linejoin="round" stroke-width=".4"/>
  <path d="M50.3 56.8a47.7 47.7 0 0 1-11.6 1.4 60.8 60.8 0 0 1-12.3-1.3l-1 8.6a37.3 37.3 0 0 0 12.7 1.9c3.9 0 11.5-1 12.1-1.6-.9-2.5.1-9 .1-9z" fill="#d09b07"/>
  <path d="M26.3 57s8.3 1.2 9.2 1.2l10.5-.4 4.2-1v1.1L43 59h-6.1l-7.1-.6-3.5-.6zm-.7 7.6l6.7 1.6 5.3.3 6.6-.6 3.8-.6 1.8-.4.3 1-2.9.8-4.7.5-6.8.2-5.2-.6-3.3-.6-1.9-.7.3-.9z" fill="#febf10"/>
  <path d="M27.3 45.3c1.3 1.6 1.8-.2 1.8-.2l.3 1.6.6 1.2s-2.2-.4-2.7-1.5.4-2.8 2.7-2.1.6 4.8.6 4.8c2.4-1.3 1.7-4.3.5-5.8a3.8 3.8 0 0 1-.8-3.9" fill="none" stroke="#000" stroke-linecap="round" stroke-linejoin="round" stroke-width=".4"/>
  <circle cx="31" cy="39.6" r=".7" fill="none" stroke="#000" stroke-linecap="round" stroke-linejoin="round" stroke-width=".4"/>
  <path d="M28.7 40.8s.3 2.1 1.2 2.6a2.8 2.8 0 0 0-2.2.1 1 1 0 0 1 .6-1s-.6-1.5.4-1.7z" fill="none" stroke="#000" stroke-linecap="round" stroke-linejoin="round" stroke-width=".4"/>
  <circle cx="27" cy="42.1" r=".5" fill="none" stroke="#000" stroke-linecap="round" stroke-linejoin="round" stroke-width=".4"/>
  <circle cx="25.7" cy="41.9" r=".4" fill="none" stroke="#000" stroke-linecap="round" stroke-linejoin="round" stroke-width=".4"/>
  <path d="M45 46.5c-1.5 1.4-1.8-.4-1.8-.4l-.5 1.4-.7 1.1s2.2.1 2.8-1 .1-2.8-2.3-2.5-1.3 4.6-1.3 4.6c-2.2-1.6-1-4.5.3-5.7a4.3 4.3 0 0 0 1.5-3.8" fill="none" stroke="#000" stroke-linecap="round" stroke-linejoin="round" stroke-width=".4"/>
  <circle cx="42.2" cy="40.3" r=".7" fill="none" stroke="#000" stroke-linecap="round" stroke-linejoin="round" stroke-width=".4"/>
  <path d="M44.3 41.8s-.6 2.1-1.6 2.4a3.1 3.1 0 0 1 2.2.5 1.3 1.3 0 0 0-.4-1.1s.8-1.4-.2-1.8z" fill="none" stroke="#000" stroke-linecap="round" stroke-linejoin="round" stroke-width=".4"/>
  <circle cx="45.7" cy="43.4" r=".5" fill="none" stroke="#000" stroke-linecap="round" stroke-linejoin="round" stroke-width=".4"/>
  <circle cx="47.1" cy="43.3" r=".4" fill="none" stroke="#000" stroke-linecap="round" stroke-linejoin="round" stroke-width=".4"/>
  <path d="M39.1 47.5c-.1 1.5-3.3 3.3-3.3 3.3s-3.1-2.2-3-3.6 0-3.1.8-3.7a4.5 4.5 0 0 1 2.6-.3 3.9 3.9 0 0 1 2.8 1c.5.7.1 2.4.1 3.3z" fill="#fff" stroke="#000" stroke-linecap="round" stroke-linejoin="round" stroke-width=".4"/>
  <path d="M36.8 47.7l-.2 2.6a6.1 6.1 0 0 0 2.4-2.4zM35.2 46l.2-2.9a3 3 0 0 0-1.8.4c-.6.4-.7 1.4-.7 2.3zm1.7.1h2.3a3.1 3.1 0 0 0-.2-2 3.1 3.1 0 0 0-2-.9zm-1.8 1.5h-2.2a6.6 6.6 0 0 0 2.1 2.6z" fill="red" stroke="#000" stroke-linecap="round" stroke-linejoin="round" stroke-width=".4"/>
  <ellipse cx="29.8" cy="61.9" rx="1.6" ry="1.6" fill="#0065b7"/>
  <ellipse cx="34.9" cy="62.6" rx="1.6" ry="1.6" fill="#0065b7"/>
  <ellipse cx="39.9" cy="62.6" rx="1.6" ry="1.6" fill="#0065b7"/>
  <ellipse cx="45" cy="62.3" rx="1.6" ry="1.6" fill="#0065b7"/>
  <path d="M25.6 64a8.1 8.1 0 0 0 2.6-1.8l.8-.7" fill="red"/>
  <path d="M25.9 61.1c.3-.2.3-.3.6-.6s2.4-2.1 4-1.8a3.6 3.6 0 0 1 2.3 1.3 3.1 3.1 0 0 1 .5 2.5 1.1 1.1 0 0 1-1.4.9 1.2 1.2 0 0 1-1-1.3 1.1 1.1 0 0 0-.1-.8.9.9 0 0 0-.6-.3c-.3-.1-.7.1-1.2.5a23.9 23.9 0 0 1-2.5 2.1l-.9.4z" fill="#febf10"/>
  <path d="M29 61.5c.5-.4.9-.6 1.2-.5a.9.9 0 0 1 .6.3 1.1 1.1 0 0 1 .1.8 1.2 1.2 0 0 0 1 1.3 1.1 1.1 0 0 0 1.4-.9 3.1 3.1 0 0 0-.5-2.5 3.6 3.6 0 0 0-2.3-1.3c-1.6-.3-2.9.8-4 1.8l-.6.5" fill="none" stroke="#000" stroke-linecap="round" stroke-linejoin="round" stroke-width=".4"/>
  <path d="M25.6 64a8.1 8.1 0 0 0 2.6-1.8l.8-.7" fill="none" stroke="#000" stroke-linecap="round" stroke-linejoin="round" stroke-width=".4"/>
  <path d="M34.1 62.1c.4-.4.7-.7 1-.7a.9.9 0 0 1 .7.3 1 1 0 0 1 .3.8 1 1 0 0 0 1.1 1.1 1.2 1.2 0 0 0 1.3-1.1 3.4 3.4 0 0 0-.9-2.4 3.7 3.7 0 0 0-2.4-1c-1.7 0-2.8 1.3-3.7 2.4s-1.4 1.7-2 1.6a1 1 0 0 1-1-.9c0-.2.1.1 0 0a10.7 10.7 0 0 1-1.9 1.5 4.5 4.5 0 0 0 2.8 1.8c1.9 0 3-1.4 4-2.6l.7-.8" fill="#febf10"/>
  <path d="M34.1 62.1c.4-.4.7-.7 1-.7a.9.9 0 0 1 .7.3 1 1 0 0 1 .3.8 1 1 0 0 0 1.1 1.1 1.2 1.2 0 0 0 1.3-1.1 3.4 3.4 0 0 0-.9-2.4 3.7 3.7 0 0 0-2.4-1c-1.7 0-2.8 1.3-3.7 2.4s-1.4 1.7-2 1.6a1.2 1.2 0 0 1-1-1.1" fill="none" stroke="#000" stroke-linecap="round" stroke-linejoin="round" stroke-width=".4"/>
  <path d="M26.5 63.6a3.4 3.4 0 0 0 2.9 1.9c1.9 0 3-1.4 4-2.6l.7-.8" fill="none" stroke="#000" stroke-linecap="round" stroke-linejoin="round" stroke-width=".4"/>
  <path d="M39.2 62.3a1.9 1.9 0 0 1 1-.8l.6.2a1 1 0 0 1 .4.8 1.1 1.1 0 0 0 1.3 1 1.1 1.1 0 0 0 1.1-1.3 3.5 3.5 0 0 0-1.2-2.3 3.4 3.4 0 0 0-2.4-.7c-1.7.2-2.7 1.6-3.5 2.8s-1.2 1.8-1.8 1.8a.8.8 0 0 1-1-.8c0-.2 0 .1-.1 0a12.4 12.4 0 0 1-1.7 1.7 4 4 0 0 0 3 1.4c1.8-.1 2.9-1.6 3.7-2.9l.6-.9" fill="#febf10"/>
  <path d="M39.2 62.3a1.9 1.9 0 0 1 1-.8l.6.2a1 1 0 0 1 .4.8 1.1 1.1 0 0 0 1.3 1 1.1 1.1 0 0 0 1.1-1.3 3.5 3.5 0 0 0-1.2-2.3 3.4 3.4 0 0 0-2.4-.7c-1.7.2-2.7 1.6-3.5 2.8s-1.2 1.8-1.8 1.8-1-.5-1.1-1" fill="none" stroke="#000" stroke-linecap="round" stroke-linejoin="round" stroke-width=".4"/>
  <path d="M31.8 64.6a3 3 0 0 0 3.1 1.5c1.8-.1 2.9-1.6 3.7-2.9l.6-.9" fill="none" stroke="#000" stroke-linecap="round" stroke-linejoin="round" stroke-width=".4"/>
  <path d="M44.1 62.1a1.9 1.9 0 0 1 .9-.9h.7a1 1 0 0 1 .4.7 1.2 1.2 0 0 0 1.4.9 1.2 1.2 0 0 0 1-1.4 3.1 3.1 0 0 0-1.4-2.1 3.6 3.6 0 0 0-2.5-.5c-1.7.4-2.5 1.8-3.2 3.2s-.9 1.9-1.5 2a1 1 0 0 1-1.2-.7c0-.2.1.1 0 0a18.4 18.4 0 0 1-1.5 1.8 3.9 3.9 0 0 0 3.1 1.2c1.8-.4 2.7-2 3.3-3.3l.5-1" fill="#febf10"/>
  <path d="M44.1 62.1a1.9 1.9 0 0 1 .9-.9h.7a1 1 0 0 1 .4.7 1.2 1.2 0 0 0 1.4.9 1.2 1.2 0 0 0 1-1.4 3.1 3.1 0 0 0-1.4-2.1 3.6 3.6 0 0 0-2.5-.5c-1.7.4-2.5 1.8-3.2 3.2s-.9 1.9-1.5 2a1.2 1.2 0 0 1-1.3-.9" fill="none" stroke="#000" stroke-linecap="round" stroke-linejoin="round" stroke-width=".4"/>
  <path d="M37 65.2a3.3 3.3 0 0 0 3.3 1.2c1.8-.4 2.7-2 3.3-3.3l.5-1" fill="none" stroke="#000" stroke-linecap="round" stroke-linejoin="round" stroke-width=".4"/>
  <path d="M49.1 60.9l-.3 1c-.5 1.4-1.1 3.1-2.9 3.7a3.9 3.9 0 0 1-3.2-.7 15.8 15.8 0 0 0 1.2-2c.1.1 0-.2.1 0a1 1 0 0 0 1.2.5c.6-.2.9-1.2 1.3-2.2a7.4 7.4 0 0 1 1.4-2.8L50 58v1.8z" fill="#febf10"/>
  <path d="M49.1 60.9c.3-.5.5-.9.8-1h.1" fill="red"/>
  <path d="M47.9 58.3a7.8 7.8 0 0 0-1.4 2.9c-.4 1-.7 2-1.3 2.2a1.1 1.1 0 0 1-1.3-.7m5.2-1.8c.3-.5.5-.9.8-1" fill="none" stroke="#000" stroke-linecap="round" stroke-linejoin="round" stroke-width=".4"/>
  <path d="M42.5 64.9a3.2 3.2 0 0 0 3.4.7c1.8-.6 2.4-2.3 2.9-3.7l.3-1" fill="none" stroke="#000" stroke-linecap="round" stroke-linejoin="round" stroke-width=".4"/>
  <path d="M39 44.5l1.5-2a1.8 1.8 0 0 1-1.8-.4 1.7 1.7 0 0 1-2.4-.2 1.5 1.5 0 0 1-2.2 0c-.4.8-1.8 0-1.8 0l.9 1.8s4.3-.4 5.8.8z" fill="#febf10" stroke="#000" stroke-linecap="round" stroke-linejoin="round" stroke-width=".4"/>
  <circle cx="32" cy="41.5" r=".5" fill="#febf10" stroke="#000" stroke-linecap="round" stroke-linejoin="round" stroke-width=".4"/>
  <path d="M26.4 57.8a63.9 63.9 0 0 0 12.3 1.4A56.5 56.5 0 0 0 50 57.9m0 7.1a84.8 84.8 0 0 1-11.9 1.4 42.2 42.2 0 0 1-12.4-1.8" fill="none" stroke="#000" stroke-linecap="round" stroke-linejoin="round" stroke-width=".4"/>
  <path d="M50.3 56.8a47.7 47.7 0 0 1-11.6 1.4 60.8 60.8 0 0 1-12.3-1.3l-1 8.6a37.3 37.3 0 0 0 12.7 1.9c3.9 0 11.5-1 12.1-1.6-.9-2.5.1-9 .1-9z" fill="none" stroke="#000" stroke-linecap="round" stroke-linejoin="round" stroke-width=".4"/>
  <circle cx="34.1" cy="41.3" r=".5" fill="#febf10" stroke="#000" stroke-linecap="round" stroke-linejoin="round" stroke-width=".4"/>
  <circle cx="36.3" cy="41.3" r=".5" fill="#febf10" stroke="#000" stroke-linecap="round" stroke-linejoin="round" stroke-width=".4"/>
  <circle cx="38.8" cy="41.5" r=".5" fill="#febf10" stroke="#000" stroke-linecap="round" stroke-linejoin="round" stroke-width=".4"/>
  <circle cx="40.8" cy="42.1" r=".5" fill="#febf10" stroke="#000" stroke-linecap="round" stroke-linejoin="round" stroke-width=".4"/>
  <path d="M44.2 45.5s-.4-8.6 5.2-9 7.4 6 4.8 11.7c0 0-5.3-5-10-2.7z" fill="red"/>
  <path d="M44.2 45.5s-.4-8.6 5.2-9 7.4 6 4.8 11.7c0 0-5.3-5-10-2.7z" fill="none" stroke="#000" stroke-linecap="round" stroke-linejoin="round" stroke-width=".4"/>
  <path d="M48.2 53.8c-6.5-5.1-15.1-3.3-15.1-3.3v6s6.8 2.2 11.6 1.7 7-2.2 7.4-5.1c0 0-1.9-4.4-7.7-4.1a2.4 2.4 0 0 0-1.5 2" fill="red"/>
  <path d="M48.7 50.4a1.9 1.9 0 0 0-2.1 2v.4s-10-1.1-12.6 1.9l-.7 1.9 5.5 1.3 5.5.4 3.2-.6 3-1.3 1.2-2.1.3-1.5-2-1.7z" fill="#980805"/>
  <path d="M33.1 50.5s8.6-1.8 15.1 3.3m-15.1 2.7s6.8 2.2 11.6 1.7 6.9-1.8 7.4-5.1c0 0-1.9-4.4-7.7-4.1a2.4 2.4 0 0 0-1.5 2" fill="none" stroke="#000" stroke-linecap="round" stroke-linejoin="round" stroke-width=".4"/>
  <path fill="#febf10" d="M48.9 39.3l-1.2.2-.8.9-.6 1.4 1.3-.4.6.4.6-.1.2-.4-.6-.5-.1-.6.5-.5.1-.4z"/>
  <path d="M49.1 39.4c-1.7 1.1-.1 1.9-.1 1.9l-1.5.1-1.2.4s.6-2.2 1.8-2.5 2.6.8 1.7 3-4.8-.1-4.8-.1c1 2.6 3.9 2.3 5.5 1.3a4 4 0 0 1 3.9-.3" fill="none" stroke="#000" stroke-linecap="round" stroke-linejoin="round" stroke-width=".4"/>
  <ellipse cx="54.1" cy="43.9" rx=".7" ry=".7" transform="rotate(-82 54.06 43.87)" fill="#febf10" stroke="#000" stroke-linecap="round" stroke-linejoin="round" stroke-width=".4"/>
  <path d="M53.3 41.5s-2.1 0-2.7.8a2.7 2.7 0 0 0 .2-2.2 1 1 0 0 1 .9.7s1.5-.4 1.6.7z" fill="#febf10" stroke="#000" stroke-linecap="round" stroke-linejoin="round" stroke-width=".4"/>
  <ellipse cx="52.2" cy="39.6" rx=".5" ry=".5" transform="rotate(-82 52.2 39.62)" fill="#febf10" stroke="#000" stroke-linecap="round" stroke-linejoin="round" stroke-width=".4"/>
  <ellipse cx="52.7" cy="38.4" rx=".4" ry=".4" transform="rotate(-82 52.66 38.4)" fill="#febf10" stroke="#000" stroke-linecap="round" stroke-linejoin="round" stroke-width=".4"/>
  <path d="M29.2 50a8.3 8.3 0 0 1 3.8.4c1.4.6-.5 6.2-.5 6.2s-3.1-.3-4-1.3 1.8-3.4.7-5.3z" fill="#febf10" stroke="#000" stroke-linecap="round" stroke-linejoin="round" stroke-width=".4"/>
  <path d="M28.4 56h-.2a.4.4 0 0 1-.2-.7 6.6 6.6 0 0 0 .8-5.1.4.4 0 0 1 .3-.6.5.5 0 0 1 .6.2c.1.1 1 2.7-.8 6a.5.5 0 0 1-.5.2zm4.2 1h-.3a.5.5 0 0 1-.1-.7 5.7 5.7 0 0 0 .3-5.7.4.4 0 0 1 .2-.7.4.4 0 0 1 .6.1 6.8 6.8 0 0 1-.3 6.9.5.5 0 0 1-.4.1z" fill="#febf10" stroke="#000" stroke-linecap="round" stroke-linejoin="round" stroke-width=".4"/>
  <circle cx="31.2" cy="51" r=".4" fill="#febf10" stroke="#000" stroke-linecap="round" stroke-linejoin="round" stroke-width=".3"/>
  <circle cx="31.3" cy="52.4" r=".4" fill="#febf10" stroke="#000" stroke-linecap="round" stroke-linejoin="round" stroke-width=".3"/>
  <circle cx="31.1" cy="53.9" r=".4" fill="#febf10" stroke="#000" stroke-linecap="round" stroke-linejoin="round" stroke-width=".3"/>
  <circle cx="30.9" cy="55.3" r=".4" fill="#febf10" stroke="#000" stroke-linecap="round" stroke-linejoin="round" stroke-width=".3"/>
  <path d="M25.4 65.5l-.2 2.3a8.3 8.3 0 0 0-.7 2.1m25.7-4.1a10.5 10.5 0 0 1 1 4.2" fill="none" stroke="#000" stroke-linecap="round" stroke-linejoin="round" stroke-width=".4"/>
  <path d="M21.5 69.1s-.4.7-3.2-1.2-1.6-2-1.3-1.9 3.5 1.4 4.1 2.2.4.9.4.9z" fill="#febf10" stroke="#000" stroke-linecap="round" stroke-linejoin="round" stroke-width=".4"/>
  <path d="M20.9 68.8a4.5 4.5 0 0 1-.6 1.3l-5.5-.2a17.5 17.5 0 0 1 2.2-3.4s.2-1 1.9-.6a2.5 2.5 0 0 1 2 2.9z" fill="#f3bc84"/>
  <path d="M16.8 65.8a8.2 8.2 0 0 1 1.8-3.3c1.2-1 5.5 2.9 5.5 2.9s-1.5 2.8-2.8 3.2-2.4-3-4.5-2.8z" fill="#febf10" stroke="#000" stroke-linecap="round" stroke-linejoin="round" stroke-width=".4"/>
  <path d="M21.9 68.9l-.2.2a.5.5 0 0 1-.7-.1 6.8 6.8 0 0 0-4.3-2.8.5.5 0 0 1-.5-.5.5.5 0 0 1 .5-.5 7.8 7.8 0 0 1 5.1 3.2c.1.2.2.4.1.5zm2.6-3.4l-.2.2a.5.5 0 0 1-.7-.1 5.6 5.6 0 0 0-5.1-2.6.7.7 0 0 1-.6-.4c0-.3.2-.6.4-.6a6.8 6.8 0 0 1 6.2 3 .4.4 0 0 1 0 .5z" fill="#febf10" stroke="#000" stroke-linecap="round" stroke-linejoin="round" stroke-width=".4"/>
  <circle cx="18.4" cy="64.3" r=".4" fill="#febf10" stroke="#000" stroke-linecap="round" stroke-linejoin="round" stroke-width=".3"/>
  <circle cx="19.8" cy="64.9" r=".4" fill="#febf10" stroke="#000" stroke-linecap="round" stroke-linejoin="round" stroke-width=".3"/>
  <circle cx="21.1" cy="65.6" r=".4" fill="#febf10" stroke="#000" stroke-linecap="round" stroke-linejoin="round" stroke-width=".3"/>
  <circle cx="22.3" cy="66.4" r=".4" fill="#febf10" stroke="#000" stroke-linecap="round" stroke-linejoin="round" stroke-width=".3"/>
  <path d="M17 66.5a17.5 17.5 0 0 0-2.2 3.4m6.1-1.1a7.8 7.8 0 0 1-.5 1.2" fill="#febf10" stroke="#000" stroke-linecap="round" stroke-linejoin="round" stroke-width=".4"/>
  <path d="M31.3 34.2s-4.4-2.4-5.2 2.2m1.9-.1s-4.5-2.1-9.2 11.7c0 0-7.7 14.3-3.6 20.9m40-24.2s2.4 4.5 1.8 12.7-.9 12.6-.9 12.6m.6-29s-1-1.2-1.9-1.2m-25.3-3s-4.9 4-6.4 4.6m2-1.1l.4 4.6m28.6 7.9l.3.8.7-.8m-2.7 5.5l.6.6.3-1" fill="none" stroke="#000" stroke-linecap="round" stroke-linejoin="round" stroke-width=".4"/>
  <path fill="none" stroke="#000" stroke-linecap="round" stroke-linejoin="round" stroke-width=".4" d="M54.9 59.4l.4.9.6-.9m-4.6 2.9l.6.7.4-.9m1.3 2.2l.3.8.7-.8m-.4 3.3l.4.8.6-1"/>
  <path fill="#0065b7" d="M16.6 16.8l1.8-5.2 2.7 4.7 2.3 29.6-3.5.3-3.3-29.4z"/>
  <path fill="#0065b7" d="M16.6 16.8l1.8-5.2 2.7 4.7 2.3 29.6-3.5.3-3.3-29.4z"/>
  <path fill="#004da1" d="M18.4 11.6l2.7 4.7 2.3 29.6-1.7.1"/>
  <path fill="none" stroke="#000" stroke-linecap="round" stroke-linejoin="round" stroke-width=".4" d="M16.6 16.8l1.8-5.2 2.7 4.7 2.3 29.6-3.5.3-3.3-29.4z"/>
  <path fill="#0065b7" stroke="#000" stroke-linecap="round" stroke-linejoin="round" stroke-width=".4" d="M18.4 11.6L21.6 46"/>
  <path d="M20.9 47c.1.6.5 1.1.9 1s.8-.6.7-1.2-.5-1.2-.9-1.1-.8.6-.7 1.3z" fill="none"/>
  <path d="M21.4 43.8c.7.8 2.5 1.4 2.7 3.3s-.3 1.8-.9 1.8-.6.3-1.2.4-.7-.2-1.3-.1-1.2-.7-1.3-1.7 1.5-2.8 2-3.7z"/>
  <path d="M20.9 46.9c0 .7.5 1.3 1 1.2s.7-.7.7-1.4c-.1-.8-.5-1.3-1-1.3s-.8.7-.7 1.5z" fill="red" stroke="#000" stroke-linecap="round" stroke-linejoin="round" stroke-width=".55"/>
  <path d="M21.5 44.4c.5.5 1.9 1.2 2.1 2.7s-.2 1.4-.8 1.5-.2-.1-.3-.3l.3-.3c.2 0 .3-.6.3-.9a3.3 3.3 0 0 0-1.6-2.2 3.6 3.6 0 0 0-1.1 2.4c.1.4.3 1 .5.9a.3.3 0 0 1 .3.3c0 .1-.1.3-.2.3s-1-.6-1-1.4 1.1-2.5 1.5-3zm.3 3.7a.5.5 0 0 1 .6.3c0 .2-.2.3-.5.4s-.5-.1-.5-.3a.4.4 0 0 1 .4-.4z" fill="#febf10"/>
  <path d="M23.8 47a1.7 1.7 0 0 0 1.9 1.6 1.7 1.7 0 0 0 1.5-2 1.7 1.7 0 0 0-1.9-1.5 1.6 1.6 0 0 0-1.5 1.9zm-7.5.7a1.7 1.7 0 0 0 1.9 1.6 1.8 1.8 0 0 0 1.6-1.9 1.8 1.8 0 0 0-2-1.6 1.8 1.8 0 0 0-1.5 1.9z" fill="#febf10" stroke="#000" stroke-width=".4"/>
  <path d="M25.4 45.6a.5.5 0 0 1 .5.5c.1.2-.1.5-.4.5s-.5-.2-.6-.4a.6.6 0 0 1 .5-.6zm.1 1.4a.6.6 0 0 1 .6.5.5.5 0 0 1-.5.5c-.3.1-.5-.1-.5-.4s.1-.5.4-.6z" fill="red" stroke="#000" stroke-width=".42"/>
  <path d="M26.7 46.7a.7.7 0 0 1-.4.6.6.6 0 0 1-.6-.5.6.6 0 0 1 .5-.6.5.5 0 0 1 .5.5zm-1.4.1a.6.6 0 0 1-.5.6.5.5 0 0 1-.5-.5c0-.2.2-.5.4-.5s.6.2.6.4z" fill="red" stroke="#000" stroke-width=".42"/>
  <path d="M25 46.9a.4.4 0 0 0 .6.4c.2 0 .4-.3.4-.5a.6.6 0 0 0-.6-.5c-.2 0-.4.3-.4.6z" fill="red" stroke="#000" stroke-width=".3"/>
  <path d="M17.9 46.3a.6.6 0 1 1-.5.6.6.6 0 0 1 .5-.6zm.1 1.5a.4.4 0 0 1 .6.4.6.6 0 0 1-.5.6.5.5 0 0 1-.5-.5.5.5 0 0 1 .4-.5z" fill="red" stroke="#000" stroke-width=".42"/>
  <path d="M19.2 47.4a.4.4 0 0 1-.4.6.6.6 0 0 1-.6-.5.5.5 0 0 1 .5-.5c.3-.1.5.1.5.4zm-1.4.2c.1.2-.2.5-.4.5a.4.4 0 0 1-.6-.4.6.6 0 0 1 .5-.6.5.5 0 0 1 .5.5z" fill="red" stroke="#000" stroke-width=".42"/>
  <path d="M17.5 47.6a.6.6 0 0 0 .6.5c.3-.1.5-.3.4-.6a.5.5 0 0 0-.5-.5.6.6 0 0 0-.5.6z" fill="red" stroke="#000" stroke-width=".3"/>
  <path d="M30.7 30.5a.8.8 0 0 1-.3-.9 8.7 8.7 0 0 0 .7-4.2 6.5 6.5 0 0 1 .3-3c.9-2.6 2.4-3.4 2.5-3.4a.7.7 0 0 1 1 .3.8.8 0 0 1-.3 1c-.1 0-1.1.6-1.8 2.6a7.2 7.2 0 0 0-.3 2.5 9.2 9.2 0 0 1-.7 4.8 1 1 0 0 1-1 .4.1.1 0 0 0-.1-.1zm15.2.3a.8.8 0 0 0 .3-.9 8 8 0 0 1-.5-4.1 6.8 6.8 0 0 0-.2-3.1c-.8-2.6-2.3-3.5-2.4-3.5a.7.7 0 1 0-.7 1.3 4.9 4.9 0 0 1 1.7 2.7 5.3 5.3 0 0 1 .1 2.5 10 10 0 0 0 .6 4.8.9.9 0 0 0 1 .4z" fill="#856353" stroke="#000" stroke-linecap="round" stroke-linejoin="round" stroke-width=".4"/>
  <path d="M42.7 31.1a.8.8 0 0 0 .5-.8 7.2 7.2 0 0 1 .5-4.1 7 7 0 0 0 .5-3 6.2 6.2 0 0 0-1.5-4 .8.8 0 0 0-1.1 0 .8.8 0 0 0 .1 1 5.6 5.6 0 0 1 1 3.1 6.4 6.4 0 0 1-.4 2.4 9.3 9.3 0 0 0-.6 4.8.8.8 0 0 0 .8.7z" fill="#856353" stroke="#000" stroke-linecap="round" stroke-linejoin="round" stroke-width=".4"/>
  <path d="M44 31.2a.9.9 0 0 0 .5-.8 7.6 7.6 0 0 1 .5-4.2 6.7 6.7 0 0 0 .5-3 7 7 0 0 0-1.5-4 .9.9 0 0 0-1.1.1.8.8 0 0 0 .1 1 5.5 5.5 0 0 1 1 3 6.6 6.6 0 0 1-.4 2.5 9.3 9.3 0 0 0-.6 4.8.6.6 0 0 0 .8.6z" fill="#856353" stroke="#000" stroke-linecap="round" stroke-linejoin="round" stroke-width=".4"/>
  <path d="M43.6 20.5a22 22 0 0 0-.2 4.2 7.1 7.1 0 0 1-1.3 5c-1.3 2-3.6 1.2-6.9-.5s-1.7-8.8-.9-9.5a9.1 9.1 0 0 1 9.3.8z" fill="#f3bc84"/>
  <path d="M42.5 19.4a26.1 26.1 0 0 0-.5 5.4c.1 1.8-1.3 5.1-3.6 5.7 0 .1 2.1.9 3.1-.2a6.2 6.2 0 0 0 2-4.1c0-1.6.1-5.3.1-5.3v-1z" fill="#c69c6d"/>
  <path d="M43.8 19.9a25.1 25.1 0 0 0-.4 4.8 7.1 7.1 0 0 1-1.3 5c-1.3 2-3.6 1.2-6.9-.5s-1.7-8.8-.9-9.5 5.8-2.5 9.5.2z" fill="none" stroke="#000" stroke-linecap="round" stroke-linejoin="round" stroke-width=".4"/>
  <path d="M35.5 21.5a2.3 2.3 0 0 1 3.5 0m3.9-1.3s-2.3 0-2.5 1.8a4.9 4.9 0 0 0 .8 3.2c.1.3-.4 1.1-.4 1.1m-1.4-.9s-.3.7 0 .9.6-.1.9-.2h.2m-.1.4l-.1-.4m.7 0l.3.3" fill="none" stroke="#000" stroke-linecap="round" stroke-linejoin="round" stroke-width=".3"/>
  <path d="M40.7 27.4a.2.2 0 0 0-.3.1.7.7 0 0 0-.4-.2 6.2 6.2 0 0 0-1.2.9l2.7-.3-2.6.3s1.8 1.5 2.8-.3z" fill="red"/>
  <path d="M38.5 28a11.7 11.7 0 0 0 3.4-.3m-3 .5s1.8 1.5 2.8-.3" fill="none" stroke="#000" stroke-linecap="round" stroke-linejoin="round" stroke-width=".3"/>
  <path d="M41.6 27.7l-.9-.3a.2.2 0 0 0-.3.1.7.7 0 0 0-.4-.2 5.2 5.2 0 0 0-1.1.7" fill="none" stroke="#000" stroke-linecap="round" stroke-linejoin="round" stroke-width=".3"/>
  <path d="M32 31.5a.7.7 0 0 1-.4-.8 7.7 7.7 0 0 0 .2-4.2 7.6 7.6 0 0 1 0-3c.6-2.7 2.1-3.7 2.2-3.7s.7-.2 1 .2a.8.8 0 0 1-.2 1 4.1 4.1 0 0 0-1.5 2.8 5.3 5.3 0 0 0 0 2.5 9.1 9.1 0 0 1-.3 4.8.7.7 0 0 1-.9.5.1.1 0 0 1-.1-.1z" fill="#856353" stroke="#000" stroke-linecap="round" stroke-linejoin="round" stroke-width=".4"/>
  <path d="M33.7 31.2a.8.8 0 0 1-.5-.7 8.4 8.4 0 0 0-.8-4.1 8.8 8.8 0 0 1-.7-3 6.9 6.9 0 0 1 1.2-4.1.8.8 0 0 1 1.1 0 .8.8 0 0 1 0 1 5.6 5.6 0 0 0-.8 3.1 6.5 6.5 0 0 0 .6 2.4 11.3 11.3 0 0 1 .9 4.8.8.8 0 0 1-.8.7z" fill="#856353" stroke="#000" stroke-linecap="round" stroke-linejoin="round" stroke-width=".4"/>
  <path d="M34.8 31a.8.8 0 0 1-.5-.8 7.9 7.9 0 0 0-.8-4.1 7.7 7.7 0 0 1-.7-2.9 6.2 6.2 0 0 1 1.2-4.1c.3-.3 1.5-.9 1.8-.6s-.2.9-.7 1.6a5.2 5.2 0 0 0-.8 3.1 6.5 6.5 0 0 0 .6 2.4 9.3 9.3 0 0 1 .9 4.7.8.8 0 0 1-.8.7z" fill="#856353" stroke="#000" stroke-linecap="round" stroke-linejoin="round" stroke-width=".4"/>
  <path d="M36 31a.8.8 0 0 1-.5-.8 7.9 7.9 0 0 0-.8-4.1 7.7 7.7 0 0 1-.7-2.9 6.2 6.2 0 0 1 1.2-4.1c.3-.3 1.5-.9 1.8-.6s-.2.9-.7 1.6a5.2 5.2 0 0 0-.8 3.1 6.5 6.5 0 0 0 .6 2.4 9.3 9.3 0 0 1 .9 4.7.8.8 0 0 1-.8.7z" fill="#856353" stroke="#000" stroke-linecap="round" stroke-linejoin="round" stroke-width=".4"/>
  <path d="M36.1 22.7a2.4 2.4 0 0 0 1.7.5c.8-.1 1-.5 1-.5a2 2 0 0 0-1.5-.5c-1 .2-1.2.5-1.2.5z" fill="#fff"/>
  <path d="M36.3 22.5a2.2 2.2 0 0 1 1.2-.2 2.6 2.6 0 0 1 1.3.4 2.3 2.3 0 0 1-1.3.5 2.2 2.2 0 0 1-1.4-.6m2.7.1a1.6 1.6 0 0 0-2.7-.1" fill="none" stroke="#000" stroke-linecap="round" stroke-linejoin="round" stroke-width=".3"/>
  <ellipse cx="37.6" cy="22.7" rx=".6" ry=".5" transform="rotate(-.1 57.3 .05)"/>
  <ellipse cx="37.8" cy="22.6" rx=".2" ry=".2" transform="rotate(-88.8 37.83 22.55)" fill="#fff"/>
  <path d="M40.5 22.7a2.7 2.7 0 0 0 1.7.3 1.8 1.8 0 0 0 .9-.7 2.2 2.2 0 0 0-1.6-.3 1.8 1.8 0 0 0-1 .7z" fill="#fff"/>
  <path d="M40.6 22.5l1.1-.4a2.1 2.1 0 0 1 1.3.3 1.8 1.8 0 0 1-1.2.6 2.1 2.1 0 0 1-1.3-.4m2.5-.3a1.5 1.5 0 0 0-2.5.3" fill="none" stroke="#000" stroke-linecap="round" stroke-linejoin="round" stroke-width=".3"/>
  <ellipse cx="41.9" cy="22.5" rx=".6" ry=".5" transform="rotate(-8.4 42.13 22.95)"/>
  <ellipse cx="42.1" cy="22.3" rx=".2" ry=".2" transform="rotate(-4.7 41.8 22.46)" fill="#fff"/>
  <circle cx="36.9" cy="14.9" r="1.6" fill="red"/>
  <path d="M36.8 16.6c-.3.5 1.7-.1 1.7-1.6a1.6 1.6 0 0 0-1.6-1.7 6 6 0 0 1-.1 3.3z" fill="#980805"/>
  <circle cx="36.9" cy="14.9" r="1.6" fill="none" stroke="#000" stroke-linecap="round" stroke-linejoin="round" stroke-width=".4"/>
  <circle cx="41.1" cy="15.2" r="1.6" fill="red"/>
  <path d="M40.7 16.8c-.3.5 1.7.2 2-1.2a1.6 1.6 0 0 0-1.2-2 5.7 5.7 0 0 1-.8 3.2z" fill="#980805"/>
  <circle cx="41.1" cy="15.2" r="1.6" fill="none" stroke="#000" stroke-linecap="round" stroke-linejoin="round" stroke-width=".4"/>
  <circle cx="44.3" cy="15.8" r="1.4" fill="red"/>
  <path d="M43.7 17.1c-.4.4 1.5.5 1.9-.7a1.4 1.4 0 0 0-.7-1.9 4.7 4.7 0 0 1-1.2 2.6z" fill="#980805"/>
  <circle cx="44.3" cy="15.8" r="1.4" fill="none" stroke="#000" stroke-linecap="round" stroke-linejoin="round" stroke-width=".4"/>
  <circle cx="32.9" cy="15.7" r="1.6" fill="red"/>
  <path d="M33.3 17.3c-.1.6 1.6-.5 1.2-1.9a1.6 1.6 0 0 0-1.9-1.3 6.7 6.7 0 0 1 .7 3.2z" fill="#980805"/>
  <circle cx="32.9" cy="15.7" r="1.6" fill="none" stroke="#000" stroke-linecap="round" stroke-linejoin="round" stroke-width=".4"/>
  <circle cx="31.3" cy="16.1" r="1.3" fill="red"/>
  <path d="M31.9 17.2c0 .5 1.1-.8.5-1.7a1.3 1.3 0 0 0-1.8-.5 5.2 5.2 0 0 1 1.3 2.2z" fill="#980805"/>
  <circle cx="31.3" cy="16.1" r="1.3" fill="none" stroke="#000" stroke-linecap="round" stroke-linejoin="round" stroke-width=".4"/>
  <path d="M31.4 18l-4.2-3.1s4.1 2.1 4 1.3a19.2 19.2 0 0 0-.9-3s2.4 2.9 3.2 2.4.5-4.1.5-4.1 2 3.7 3.4 3.6 1.9-4.1 1.9-4.1.3 4 2.2 4.1 2.9-3.1 2.9-3.1-.9 3.3 0 3.7 3.4-1.4 3.4-1.4a19.4 19.4 0 0 0-2.6 2.8l-.4.4z" fill="#febf10" stroke="#000" stroke-linecap="round" stroke-linejoin="round" stroke-width=".4"/>
  <circle cx="27.3" cy="15.1" r=".9" fill="#febf10" stroke="#000" stroke-linecap="round" stroke-linejoin="round" stroke-width=".4"/>
  <path d="M27.4 14.8a.3.3 0 0 1 .3.3.3.3 0 0 1-.3.3" fill="none" stroke="#000" stroke-linecap="round" stroke-linejoin="round" stroke-width=".3"/>
  <circle cx="30.1" cy="12.9" r=".9" fill="#febf10" stroke="#000" stroke-linecap="round" stroke-linejoin="round" stroke-width=".4"/>
  <path d="M30.2 12.6a.3.3 0 0 1 .3.3c0 .2-.2.3-.4.3" fill="none" stroke="#000" stroke-linecap="round" stroke-linejoin="round" stroke-width=".3"/>
  <circle cx="34.1" cy="11.5" r=".9" fill="#febf10" stroke="#000" stroke-linecap="round" stroke-linejoin="round" stroke-width=".4"/>
  <path d="M34.2 11.2a.3.3 0 0 1 .3.3.3.3 0 0 1-.3.3" fill="none" stroke="#000" stroke-linecap="round" stroke-linejoin="round" stroke-width=".3"/>
  <circle cx="39.3" cy="10.9" r=".9" fill="#febf10" stroke="#000" stroke-linecap="round" stroke-linejoin="round" stroke-width=".4"/>
  <path d="M39.3 10.6a.3.3 0 0 1 0 .6" fill="none" stroke="#000" stroke-linecap="round" stroke-linejoin="round" stroke-width=".3"/>
  <circle cx="44.4" cy="11.8" r=".9" fill="#febf10" stroke="#000" stroke-linecap="round" stroke-linejoin="round" stroke-width=".4"/>
  <path d="M44.5 11.5a.5.5 0 0 1 .3.3c0 .2-.2.4-.4.3" fill="none" stroke="#000" stroke-linecap="round" stroke-linejoin="round" stroke-width=".3"/>
  <path d="M32.5 20.1l-.8-1.6c.3-.1 6.4-2.8 12.7-.7l-.6 1.7c-5.6-1.9-11.3.6-11.3.6z" fill="#d09b07" stroke="#000" stroke-linecap="round" stroke-linejoin="round" stroke-width=".4"/>
  <path d="M31.5 18.6c-.1 0-.2 0-.3-.2a.4.4 0 0 1 .2-.5 19.6 19.6 0 0 1 13.3-.8.4.4 0 0 1 .2.5c0 .2-.2.4-.4.3a18.7 18.7 0 0 0-12.7.7z" fill="#febf10" stroke="#000" stroke-linecap="round" stroke-linejoin="round" stroke-width=".4"/>
  <path d="M32.3 20.6l-.3-.2a.5.5 0 0 1 .2-.6 19.5 19.5 0 0 1 11.8-.7c.2 0 .3.3.3.5a.5.5 0 0 1-.5.3c-6.8-1.6-11.2.6-11.2.6z" fill="#febf10" stroke="#000" stroke-linecap="round" stroke-linejoin="round" stroke-width=".4"/>
  <circle cx="47.8" cy="14.1" r=".9" fill="#febf10" stroke="#000" stroke-linecap="round" stroke-linejoin="round" stroke-width=".4"/>
  <path d="M47.9 13.7c.2 0 .3.2.3.4s-.2.3-.4.3" fill="none" stroke="#000" stroke-linecap="round" stroke-linejoin="round" stroke-width=".3"/>
  <path fill="#325723" stroke="#000" stroke-linecap="round" stroke-linejoin="round" stroke-width=".4" d="M37.2 17.9l.9-.6 1 .5-.9.6-1-.5zm3.3 0l1-.4.9.7-1.1.4-.8-.7zm-6.8.7l.8-.8 1.1.3-.8.8-1.1-.3z"/>
  <path d="M44.2 45.1a21.5 21.5 0 0 0 0 3.7s5 .5 8 4.2c0 0 1.7-1.1 2-4.9 0 0-4.2-4.8-10-3zm.1.8a9.9 9.9 0 0 1 9.7 2.9" fill="#febf10" stroke="#000" stroke-linecap="round" stroke-linejoin="round" stroke-width=".4"/>
  <path d="M48.7 36.7c-1-.9-4.5-4.8-4.5-4.8a8.1 8.1 0 0 1 7.7 2.9s3.3.6 4.8 6.2a23.8 23.8 0 0 1-2.8-1.3z" fill="#325723"/>
  <path d="M59.1 70c.9-3.5.8-12.7.8-12.7a23.5 23.5 0 0 0 0-4.3c-.1-2.8-1.6-6-3.1-11.7a.4.4 0 0 0-.1-.3c-1.5-5.8-4.8-6.2-4.8-6.2a8.1 8.1 0 0 0-7.7-2.9s3.5 3.9 4.4 4.7 5.4 3.5 8.1 4.4" fill="none" stroke="#000" stroke-linecap="round" stroke-linejoin="round" stroke-width=".4"/>
  <path d="M45.9 33a12 12 0 0 1-8 3.1 13.1 13.1 0 0 1-6.6-1.9l-1.7 2.4a16.2 16.2 0 0 0 8.4 2.5 15.1 15.1 0 0 0 9.9-3.8l-2-2.3z" fill="#febf10" stroke="#000" stroke-linecap="round" stroke-linejoin="round" stroke-width=".4"/>
  <path d="M45.8 34.1l.9 1.1a13.8 13.8 0 0 1-8.7 3.1 16.7 16.7 0 0 1-7.3-1.9l.8-1.2a12.7 12.7 0 0 0 6.4 1.7 12.5 12.5 0 0 0 7.9-2.8" fill="#d09b07" stroke="#000" stroke-linecap="round" stroke-linejoin="round" stroke-width=".4"/>
  <path fill="none" stroke="#000" stroke-linecap="round" stroke-linejoin="round" stroke-width=".4" d="M30.9 36.3l1.6-.4.4 1.4 1.4-.8.4 1.4 1.3-1 .7 1.2 1.1-1 1.1 1.2 1.1-1.5 1.2 1 .7-1.4 1.2.9.4-1.7 1.5.7.1-1.5 1.5.4"/>
  <circle cx="30.7" cy="35.6" r="1.6" fill="#febf10" stroke="#000" stroke-linecap="round" stroke-linejoin="round" stroke-width=".4"/>
  <path d="M30.7 34.7l.3.5.6.1-.4.5.1.6-.6-.3-.6.3.1-.6-.4-.5.6-.1.3-.5z"/>
  <circle cx="46.6" cy="34.4" r="1.6" fill="#febf10" stroke="#000" stroke-linecap="round" stroke-linejoin="round" stroke-width=".4"/>
  <path d="M46.6 33.5l.3.5.6.1-.4.5.1.6-.6-.3-.5.3.1-.6-.5-.5.6-.1.3-.5z"/>
  <path d="M45.6 96.7a5.8 5.8 0 0 0 2.8 2.5c3.4 1.8 2.7 4.4 1.8 5.6s-3.8 1-3.3.4a1.7 1.7 0 0 0-.4-2.2c-3.2-2.1-5.1-3.5-4.9-4.9s3.5-2 4-1.4z" fill="#febf10"/>
  <path d="M45.6 96.7a5.8 5.8 0 0 0 2.8 2.5c3.4 1.8 2.7 4.4 1.8 5.6s-3.8 1-3.3.4a1.7 1.7 0 0 0-.4-2.2c-3.2-2.1-5.1-3.5-4.9-4.9s3.5-2 4-1.4z" fill="none" stroke="#000" stroke-linecap="round" stroke-linejoin="round" stroke-width=".4"/>
  <path d="M55.5 93.8l-2.2.7.9 2.3a3.4 3.4 0 0 0-2.3-.8c-1.4.2-2.1 1.6-5.1 1s-5.2 1.5-5.2 1.3 1.1-4.1 1.7-4.5.9-.9 4.2-.4 2.9-1.2 4.4-1.4 1.5.1 3.6 1.8z" fill="red"/>
  <path d="M41.6 98.3c.1.1 1.1-2.1 5.2-1.3s3.7-.8 5.1-1h.9a5.4 5.4 0 0 1 1.4.7l-.9-2.3 2.2-.7a7.6 7.6 0 0 0-2.8-1.7h-.8c-1.5.2-1.6 1.8-4.4 1.4s-3.6.1-4.2.4-2.1 3-1.7 4.5z" fill="none" stroke="#000" stroke-linecap="round" stroke-linejoin="round" stroke-width=".4"/>
  <path d="M49.8 106.9c-.8 3.7-7 1.4-8.9.6s-4.1-2.4-7.6-2.2c-5.8.3-8.3-4.1-8.1-4.4a7 7 0 0 0 .7-2.8s3 3.5 7.2 3 9 2.2 10.4 3l.2.2c.5.2 4.1 1.7 6.9-.2a20.4 20.4 0 0 0-.8 2.8z" fill="#325723"/>
  <path d="M30.2 105c-3.6-1-5.2-3.9-5-4.1a7 7 0 0 0 .7-2.8 10.9 10.9 0 0 0 4.5 2.8 7.8 7.8 0 0 0 2.7.2 12.7 12.7 0 0 1 4.8.5 23.7 23.7 0 0 1 5.6 2.5l.2.2 1.3.4a6.7 6.7 0 0 0 5.6-.6 20.4 20.4 0 0 0-.8 2.8c-.5 2.5-3.6 2.3-6.1 1.6l-2.8-1a19.8 19.8 0 0 0-4.2-1.8 9.6 9.6 0 0 0-3.4-.4 14.2 14.2 0 0 1-3.1-.3z" fill="none" stroke="#000" stroke-linecap="round" stroke-linejoin="round" stroke-width=".4"/>
  <path d="M21.4 104.5a5.1 5.1 0 0 1-2.3 3c-3 2.3-1.8 4.7-.8 5.7s4 .4 3.4-.2a1.4 1.4 0 0 1 0-2.1c2.8-2.7 4.4-4.4 3.9-5.7s-3.8-1.4-4.2-.7z" fill="#febf10"/>
  <path d="M20.1 112.7a2.1 2.1 0 0 1-.3-3c1.4-1.7 3.5-4 3.5-5.1h-1.9s-.6 1.8-1.2 2.2-2.4 1.4-2.7 2.3a6.4 6.4 0 0 0-.2 2.2 15 15 0 0 0 .9 1.8h2.3z" fill="#d09b07"/>
  <path d="M21.4 104.5a5.1 5.1 0 0 1-2.3 3c-3 2.3-1.8 4.7-.8 5.7s4 .4 3.4-.2a1.4 1.4 0 0 1 0-2.1c2.8-2.7 4.4-4.4 3.9-5.7s-3.8-1.4-4.2-.7z" fill="none" stroke="#000" stroke-linecap="round" stroke-linejoin="round" stroke-width=".4"/>
  <path d="M11.2 103.3l2.3.4-.5 2.4a3.7 3.7 0 0 1 2.1-1.2c1.5 0 2.4 1.2 5.2.1s5.4.5 5.4.4c.1-1.6-1.8-3.9-2.5-4.2s-1.1-.7-4.2.3-3.1-.6-4.6-.5-1.4.3-3.2 2.3z" fill="red"/>
  <path d="M13.6 103.7c.3 0 .7-1.2 1.9-.9a8.3 8.3 0 0 0 3.3.4l3.9-.9-.8-1.5a12.5 12.5 0 0 0-2.6.5 10.2 10.2 0 0 1-2.1.6l-1.3-.5-1.4-.5-1.8.8-1.5 1.7z" fill="#980805"/>
  <path d="M25.7 105.4c.1-1.6-1.8-3.9-2.5-4.2s-1.1-.7-4.2.3-3.1-.6-4.6-.5l-.8.2a9.3 9.3 0 0 0-2.4 2.1l2.3.4-.5 2.4a5.6 5.6 0 0 1 1.2-.9 1.6 1.6 0 0 1 .9-.3c1.5 0 2.4 1.2 5.2.1s5.3.4 5.4.4z" fill="none" stroke="#000" stroke-linecap="round" stroke-linejoin="round" stroke-width=".4"/>
  <path d="M19.1 115.3c1.5 3.5 7.1.1 8.8-1s3.7-3.1 7.2-3.5c5.8-.8 7.4-5.6 7.2-5.8a7.6 7.6 0 0 1-1.2-2.7c0 .1-2.4 4-6.5 4.3s-8.5 3.8-9.7 4.8l-.3.2c-.4.3-3.6 2.4-6.8 1a18.8 18.8 0 0 1 1.3 2.7z" fill="red"/>
  <path d="M19.2 114.9a7.3 7.3 0 0 0 6-.8c3-1.9 6-5.2 7.3-5.8L30 108a12.3 12.3 0 0 0-3.3 1.9c-1 1-3 2.6-4.2 2.8l-3.5.3-1.2-.4 1 1.8z" fill="#980805"/>
  <path d="M38.1 109.9c3.3-1.6 4.4-4.7 4.2-4.9a7.6 7.6 0 0 1-1.2-2.7 9.4 9.4 0 0 1-3.9 3.6 7.7 7.7 0 0 1-2.6.7 11.7 11.7 0 0 0-4.7 1.3 19.1 19.1 0 0 0-5 3.5l-.3.2-1.1.7a6.8 6.8 0 0 1-5.7.3 18.8 18.8 0 0 1 1.3 2.7c1 2.4 4 1.6 6.3.5a20.2 20.2 0 0 0 2.5-1.5 24.3 24.3 0 0 1 3.9-2.5 9.1 9.1 0 0 1 3.3-1 13.2 13.2 0 0 0 3-.9z" fill="none" stroke="#000" stroke-linecap="round" stroke-linejoin="round" stroke-width=".4"/>
  <path fill="#0065b7" d="M49.5 103.3l4.8-3.4-3-18.2-22.6-.2-.1 22.5 5.6 1.3 15.3-2z"/>
  <path d="M39.6 100.7s-3.1-6.8-2.8-12.6h-3.1L30 98.3l-.8 5.1 1.4 1.1 9.1-3z" fill="#004da1"/>
  <path fill="#e6e6e6" d="M22.5 95.9l7.6-15L28 70.1l-6.8-.1-1.1 21.2 2 4.9.4-.2z"/>
  <path d="M25.4 87.3s-2.1-6.5-1.5-17.1L22 70l-1.1 12.5v5.6l.7 3.9.6 2.4.5.8.7-2.7.5-2.1.4-1.5z" fill="#b3b3b3"/>
  <path d="M21.9 70s-.3 4.4-.9 12.6 1.7 12.8 1.7 12.8 1.4 5.1 1 5.1a9.9 9.9 0 0 1-2.3-1l-.2-.5v-.3c-1.5-5.6-3-8.9-3.1-11.7a23.5 23.5 0 0 1 0-4.3s-.1-9.2.8-12.7z" fill="#febf10"/>
  <path d="M37.2 109.6a4.8 4.8 0 0 0-5.1-1.4v-1.9c9.4-6.1 15.3-.3 15.3-.3-4.6 1.3-3.7 6.1-3.7 6.1z" fill="#f3bc84"/>
  <path d="M39.3 109.3a8.6 8.6 0 0 1-1-5.3l-5 1.5-1 1.2 1.3 1.2 1.6.3 1.5.8.3.4 1.8-.2z" fill="#c69c6d"/>
  <path d="M43.6 112.1s-.9-4.8 3.7-6.1c0 0-5.9-5.8-15.3.3v1.9a4.8 4.8 0 0 1 5.1 1.4" fill="none" stroke="#000" stroke-linecap="round" stroke-linejoin="round" stroke-width=".4"/>
  <path d="M48.5 103.2l-1.8 2.7s4.4 2.4 5.2-2.3c1.8-.8 4.5-3.3 7.3-11.5 0 0 7.7-14.4 3.5-21l-.5-.9h-11l1.3 25 .5 4.5.5-.2z" fill="#325723"/>
  <path fill="#0d3a12" d="M55 98.7l-2.1 1.1-.4-5 2.1-1.6.4 5.5z"/>
  <path d="M57.6 85.8s1.6-2.5 1.3-7.5L54 74.9s-2.2 2.7-2.3 10.4c0 0 3.2 3.4 5.9.5z" fill="red"/>
  <path d="M57.6 85.8s1.6-2.5 1.3-7.5L54 74.9s-2.2 2.7-2.3 10.4c0 0 3.2 3.4 5.9.5z" fill="none" stroke="#000" stroke-linecap="round" stroke-linejoin="round" stroke-width=".4"/>
  <path d="M53.5 70.1a10.3 10.3 0 0 1-.8 2.1v2.3l-24.8-.3a11.1 11.1 0 0 1-1.2-4.2z" fill="red"/>
  <path d="M40 72.9a12.8 12.8 0 0 1-.5-2.7H26.7V72l1 2.2z" fill="#980805"/>
  <ellipse cx="55.8" cy="87.6" rx="1.7" ry="5" transform="rotate(-3.6 56.17 87.77)" fill="#febf10"/>
  <path d="M55.4 82.6c1 0 1.9 2.2 2 4.9s-.4 5.1-1.3 5.1" fill="#d09b07"/>
  <ellipse cx="55.8" cy="87.6" rx="1.7" ry="5" transform="rotate(-3.6 56.17 87.77)" fill="none" stroke="#000" stroke-linecap="round" stroke-linejoin="round" stroke-width=".4"/>
  <rect x="53.9" y="84.5" width="3.9" height=".44" rx=".2" ry=".2" transform="rotate(41.3 55.81 84.57)" fill="#febf10" stroke="#000" stroke-linecap="round" stroke-linejoin="round" stroke-width=".3"/>
  <rect x="53.4" y="85.9" width="4.8" height=".44" rx=".2" ry=".2" transform="rotate(41.3 55.73 85.97)" fill="#febf10" stroke="#000" stroke-linecap="round" stroke-linejoin="round" stroke-width=".3"/>
  <rect x="53.4" y="89.2" width="4.4" height=".44" rx=".2" ry=".2" transform="rotate(-138.7 55.67 89.4)" fill="#febf10" stroke="#000" stroke-linecap="round" stroke-linejoin="round" stroke-width=".3"/>
  <rect x="53.3" y="87.8" width="4.8" height=".44" rx=".2" ry=".2" transform="rotate(-138.7 55.77 87.99)" fill="#febf10" stroke="#000" stroke-linecap="round" stroke-linejoin="round" stroke-width=".3"/>
  <circle cx="55.4" cy="82.4" r=".7" fill="#0065b7" stroke="#000" stroke-linecap="round" stroke-linejoin="round" stroke-width=".4"/>
  <path d="M56 80.7a.7.7 0 0 0-.7-.7.8.8 0 0 0-.7.7c0 .3.4.6.8.6a.6.6 0 0 0 .6-.7z" fill="red" stroke="#000" stroke-linecap="round" stroke-linejoin="round" stroke-width=".4"/>
  <path d="M55.1 81.6a.7.7 0 0 0-.5-.7c-.2 0-.4.4-.4.8s.3.7.5.6.4-.3.4-.7zm1.4-.1c0-.4-.2-.7-.5-.7s-.4.3-.4.7.3.7.5.7.5-.3.4-.7z" fill="red" stroke="#000" stroke-linecap="round" stroke-linejoin="round" stroke-width=".4"/>
  <path d="M55.8 81.4c0-.4-.2-.7-.5-.7s-.4.3-.4.7a.7.7 0 0 0 .5.7c.3 0 .4-.3.4-.7z" fill="#980805" stroke="#000" stroke-linecap="round" stroke-linejoin="round" stroke-width=".4"/>
  <path d="M49.9 84.4s.8.1.2 3.4-1.2 2.2-1.3 2-.1-3.9.4-4.7.7-.7.7-.7z" fill="#febf10" stroke="#000" stroke-linecap="round" stroke-linejoin="round" stroke-width=".4"/>
  <path d="M53.2 92c.9.2 1.2.1 1.2-.1A2.1 2.1 0 0 1 55 90s2.2-.2 2.4.2.1.7.1.7.8-.5.9-1.1a.8.8 0 0 0-.6-1v-.2l.4.4c.4-.7 0-1.3-.7-1.7h.1l.5.4a.9.9 0 0 0-.4-1.3c.4 0 .3-.5.2-.7a9.1 9.1 0 0 0-2.3-.9c-.8-.2-1.9.2-3.8.6s-2.4.3-2.4.3a14.6 14.6 0 0 0-.7 4.2 31.6 31.6 0 0 0 4.5 2.1z" fill="#f3bc84"/>
  <path d="M48.7 89.8a31.6 31.6 0 0 0 4.5 2.2c.9.2 1.2.1 1.2-.1A2.1 2.1 0 0 1 55 90s2.2-.2 2.4.2.1.7.1.7.8-.5.9-1.1.2-1-2.7-1.6m-6.3-2.6s.5.2 2.4-.3 3-.8 3.8-.6a9.1 9.1 0 0 1 2.3.9c.1.2.2.7-.2.7m-2 .4s3.5.7 2.5 2.3m-2.5-3.5s3.3.7 2.4 2.1" fill="none" stroke="#000" stroke-linecap="round" stroke-linejoin="round" stroke-width=".4"/>
  <path d="M27.7 83.3a43.3 43.3 0 0 1 11.6-1.4 65.6 65.6 0 0 1 12.3 1.2l1-8.6a37.6 37.6 0 0 0-12.8-1.9c-3.8 0-11.4 1-12 1.6.9 2.5-.1 9.1-.1 9.1z" fill="#d09b07"/>
  <path d="M51.7 83.1s-8.3-1.2-9.2-1.2l-10.5.3-4.2 1v-1.1L35 81h6.1l7.1.5 3.5.7zm.7-7.6l-6.7-1.6-5.3-.3-6.6.6-3.8.5-1.8.4-.4-.9 3-.8 4.7-.6 6.8-.2 5.2.6 3.3.7 1.9.7-.3.9z" fill="#febf10"/>
  <path d="M50.7 94.7c-1.3-1.5-1.8.2-1.8.2l-.3-1.5-.6-1.2s2.2.3 2.7 1.5-.4 2.8-2.7 2.1-.6-4.8-.6-4.8c-2.4 1.3-1.7 4.3-.5 5.7a3.9 3.9 0 0 1 .8 3.9" fill="none" stroke="#000" stroke-linecap="round" stroke-linejoin="round" stroke-width=".4"/>
  <circle cx="47" cy="100.4" r=".7" fill="none" stroke="#000" stroke-linecap="round" stroke-linejoin="round" stroke-width=".4"/>
  <path d="M49.3 99.3s-.3-2.2-1.2-2.6a3 3 0 0 0 2.2-.2 1.2 1.2 0 0 1-.6 1.1s.6 1.4-.4 1.7z" fill="none" stroke="#000" stroke-linecap="round" stroke-linejoin="round" stroke-width=".4"/>
  <circle cx="51" cy="97.9" r=".5" fill="none" stroke="#000" stroke-linecap="round" stroke-linejoin="round" stroke-width=".4"/>
  <circle cx="52.3" cy="98.2" r=".4" fill="none" stroke="#000" stroke-linecap="round" stroke-linejoin="round" stroke-width=".4"/>
  <path d="M33 93.5c1.5-1.3 1.7.5 1.7.5l.6-1.5.7-1.1s-2.2 0-2.8 1.1-.1 2.8 2.3 2.5 1.3-4.7 1.3-4.7c2.2 1.7 1 4.5-.4 5.8a4.3 4.3 0 0 0-1.4 3.7" fill="none" stroke="#000" stroke-linecap="round" stroke-linejoin="round" stroke-width=".4"/>
  <circle cx="35.8" cy="99.7" r=".7" fill="none" stroke="#000" stroke-linecap="round" stroke-linejoin="round" stroke-width=".4"/>
  <path d="M33.7 98.3s.6-2.1 1.6-2.5-1.5.3-2.2-.5a1.6 1.6 0 0 0 .4 1.2s-.8 1.3.2 1.8z" fill="none" stroke="#000" stroke-linecap="round" stroke-linejoin="round" stroke-width=".4"/>
  <circle cx="32.3" cy="96.6" r=".5" fill="none" stroke="#000" stroke-linecap="round" stroke-linejoin="round" stroke-width=".4"/>
  <circle cx="30.9" cy="96.7" r=".4" fill="none" stroke="#000" stroke-linecap="round" stroke-linejoin="round" stroke-width=".4"/>
  <path d="M38.9 92.5c.1-1.5 3.3-3.3 3.3-3.3s3.1 2.2 3 3.7 0 3.1-.8 3.7-1.9.3-2.6.3-2.3-.3-2.8-1.1-.2-2.4-.1-3.3z" fill="#fff" stroke="#000" stroke-linecap="round" stroke-linejoin="round" stroke-width=".4"/>
  <path d="M41.2 92.3v-2.5a5.9 5.9 0 0 0-2.2 2.4zm1.6 1.8l-.2 2.8a3.2 3.2 0 0 0 1.8-.3c.6-.4.7-1.4.7-2.4zm-1.7-.1l-2.3-.2a3.1 3.1 0 0 0 .2 2 3.2 3.2 0 0 0 1.9 1zm1.8-1.6h2.2a6.6 6.6 0 0 0-2.1-2.6z" fill="red" stroke="#000" stroke-linecap="round" stroke-linejoin="round" stroke-width=".4"/>
  <ellipse cx="48.1" cy="78.2" rx="1.6" ry="1.6" fill="#0065b7"/>
  <ellipse cx="43.1" cy="77.5" rx="1.6" ry="1.6" fill="#0065b7"/>
  <ellipse cx="38" cy="77.4" rx="1.6" ry="1.6" fill="#0065b7"/>
  <ellipse cx="33" cy="77.7" rx="1.6" ry="1.6" fill="#0065b7"/>
  <path d="M52.4 76.1a6.8 6.8 0 0 0-2.6 1.8 2.7 2.7 0 0 0-.8.7" fill="red"/>
  <path d="M52.1 79l-.6.6c-1.1.9-2.4 2.1-4.1 1.8a3.8 3.8 0 0 1-2.2-1.3 3.6 3.6 0 0 1-.6-2.5 1.3 1.3 0 0 1 1.5-1 1.2 1.2 0 0 1 1 1.3.9.9 0 0 0 .1.8c.1.2.4.3.6.4a2.8 2.8 0 0 0 1.2-.5 23.9 23.9 0 0 1 2.5-2.1l.9-.5z" fill="#febf10"/>
  <path d="M49 78.6a2.8 2.8 0 0 1-1.2.5c-.2-.1-.5-.2-.6-.4a.9.9 0 0 1-.1-.8 1.2 1.2 0 0 0-1-1.3 1.3 1.3 0 0 0-1.5 1 3.6 3.6 0 0 0 .6 2.5 3.8 3.8 0 0 0 2.2 1.3c1.7.3 3-.9 4.1-1.8l.5-.6" fill="none" stroke="#000" stroke-linecap="round" stroke-linejoin="round" stroke-width=".4"/>
  <path d="M52.4 76.1a6.1 6.1 0 0 0-2.6 1.8 2.7 2.7 0 0 0-.8.7" fill="none" stroke="#000" stroke-linecap="round" stroke-linejoin="round" stroke-width=".4"/>
  <path d="M43.9 77.9c-.4.4-.7.7-1 .7l-.7-.2a1.1 1.1 0 0 1-.3-.8 1.1 1.1 0 0 0-1.2-1.2 1.2 1.2 0 0 0-1.2 1.2 3.1 3.1 0 0 0 3.3 3.3c1.7.1 2.8-1.2 3.7-2.4s1.4-1.6 2-1.6a.9.9 0 0 1 .9.9c0 .2 0-.1.1.1a15.3 15.3 0 0 1 1.9-1.6 4.1 4.1 0 0 0-2.8-1.7c-1.9-.1-3.1 1.4-4 2.5l-.7.8" fill="#febf10"/>
  <path d="M43.9 77.9c-.4.4-.7.7-1 .7l-.7-.2a1.1 1.1 0 0 1-.3-.8 1.1 1.1 0 0 0-1.2-1.2 1.2 1.2 0 0 0-1.2 1.2 3.1 3.1 0 0 0 3.3 3.3c1.7.1 2.8-1.2 3.7-2.4s1.4-1.6 2-1.6a1.2 1.2 0 0 1 1 1.1" fill="none" stroke="#000" stroke-linecap="round" stroke-linejoin="round" stroke-width=".4"/>
  <path d="M51.5 76.4a3.1 3.1 0 0 0-2.9-1.8c-1.9-.1-3.1 1.4-4 2.5l-.7.8" fill="none" stroke="#000" stroke-linecap="round" stroke-linejoin="round" stroke-width=".4"/>
  <path d="M38.8 77.7c-.3.4-.7.8-1 .8s-.5 0-.6-.2a.8.8 0 0 1-.4-.7 1.2 1.2 0 0 0-1.3-1.1 1.2 1.2 0 0 0-1.1 1.3 3.5 3.5 0 0 0 1.2 2.3 3.4 3.4 0 0 0 2.4.7c1.7-.1 2.7-1.5 3.5-2.8s1.2-1.7 1.8-1.8a.9.9 0 0 1 1 .9l1.8-1.8a4 4 0 0 0-3-1.4c-1.9.1-2.9 1.7-3.7 2.9l-.6.9" fill="#febf10"/>
  <path d="M38.8 77.7c-.3.4-.7.8-1 .8s-.5 0-.6-.2a.8.8 0 0 1-.4-.7 1.2 1.2 0 0 0-1.3-1.1 1.2 1.2 0 0 0-1.1 1.3 3.5 3.5 0 0 0 1.2 2.3 3.4 3.4 0 0 0 2.4.7c1.7-.1 2.7-1.5 3.5-2.8s1.2-1.7 1.8-1.8a1.3 1.3 0 0 1 1.1 1" fill="none" stroke="#000" stroke-linecap="round" stroke-linejoin="round" stroke-width=".4"/>
  <path d="M46.2 75.4a3.2 3.2 0 0 0-3.1-1.5c-1.9.1-2.9 1.7-3.7 2.9l-.6.9" fill="none" stroke="#000" stroke-linecap="round" stroke-linejoin="round" stroke-width=".4"/>
  <path d="M33.9 77.9c-.3.5-.6.9-.9.9a.6.6 0 0 1-.7-.1.7.7 0 0 1-.4-.7 1.3 1.3 0 0 0-1.5-.9 1.2 1.2 0 0 0-.9 1.4 3 3 0 0 0 1.4 2.2 3.5 3.5 0 0 0 2.5.4c1.7-.3 2.5-1.8 3.1-3.1s1-1.9 1.6-2a.9.9 0 0 1 1.1.7c.1.1 0-.1.1 0a15.3 15.3 0 0 1 1.5-1.9 3.8 3.8 0 0 0-3.1-1.1c-1.8.3-2.7 2-3.3 3.3a4.1 4.1 0 0 0-.5.9" fill="#febf10"/>
  <path d="M33.9 77.9c-.3.5-.6.9-.9.9a.6.6 0 0 1-.7-.1.7.7 0 0 1-.4-.7 1.3 1.3 0 0 0-1.5-.9 1.2 1.2 0 0 0-.9 1.4 3 3 0 0 0 1.4 2.2 3.5 3.5 0 0 0 2.5.4c1.7-.3 2.5-1.8 3.1-3.1s1-1.9 1.6-2a1.3 1.3 0 0 1 1.3.8" fill="none" stroke="#000" stroke-linecap="round" stroke-linejoin="round" stroke-width=".4"/>
  <path d="M41 74.9a3.2 3.2 0 0 0-3.3-1.2c-1.8.3-2.7 2-3.3 3.3a4.1 4.1 0 0 0-.5.9" fill="none" stroke="#000" stroke-linecap="round" stroke-linejoin="round" stroke-width=".4"/>
  <path d="M28.8 79.2l.4-1c.5-1.4 1.1-3.2 2.9-3.8a3.9 3.9 0 0 1 3.2.7 14.3 14.3 0 0 0-1.2 2.1c-.2-.1 0 .1-.1 0a1 1 0 0 0-1.2-.6c-.6.2-.9 1.3-1.3 2.2a6.7 6.7 0 0 1-1.4 2.8L28 82v-1.7z" fill="#febf10"/>
  <path d="M28.8 79.2c-.2.5-.4.9-.7 1H28" fill="red"/>
  <path d="M30.1 81.7a7.8 7.8 0 0 0 1.4-2.9c.4-.9.7-2 1.3-2.2a1.3 1.3 0 0 1 1.3.7m-5.3 1.9c-.2.5-.4.9-.7 1" fill="none" stroke="#000" stroke-linecap="round" stroke-linejoin="round" stroke-width=".4"/>
  <path d="M35.5 75.1a3.4 3.4 0 0 0-3.4-.7c-1.8.6-2.4 2.4-2.9 3.8l-.4 1" fill="none" stroke="#000" stroke-linecap="round" stroke-linejoin="round" stroke-width=".4"/>
  <path d="M38.9 95.5l-1.4 2a1.9 1.9 0 0 1 1.8.4c1.2-1 2.4.3 2.4.3h2.2l1.8-.1-.9-1.8s-4.4.5-5.9-.8z" fill="#febf10" stroke="#000" stroke-linecap="round" stroke-linejoin="round" stroke-width=".4"/>
  <circle cx="45.9" cy="98.5" r=".5" fill="#febf10" stroke="#000" stroke-linecap="round" stroke-linejoin="round" stroke-width=".4"/>
  <path d="M51.6 82.2a68.2 68.2 0 0 0-12.3-1.3 51 51 0 0 0-11.4 1.3m.1-7.1a71.2 71.2 0 0 1 11.8-1.5 40.8 40.8 0 0 1 12.4 1.9" fill="none" stroke="#000" stroke-linecap="round" stroke-linejoin="round" stroke-width=".4"/>
  <path d="M27.7 83.3a43.3 43.3 0 0 1 11.6-1.4 65.6 65.6 0 0 1 12.3 1.2l1-8.6a37.6 37.6 0 0 0-12.8-1.9c-3.8 0-11.4 1-12 1.6.9 2.5-.1 9.1-.1 9.1z" fill="none" stroke="#000" stroke-linecap="round" stroke-linejoin="round" stroke-width=".4"/>
  <circle cx="43.9" cy="98.8" r=".5" fill="#febf10" stroke="#000" stroke-linecap="round" stroke-linejoin="round" stroke-width=".4"/>
  <circle cx="41.7" cy="98.8" r=".5" fill="#febf10" stroke="#000" stroke-linecap="round" stroke-linejoin="round" stroke-width=".4"/>
  <circle cx="39.2" cy="98.5" r=".5" fill="#febf10" stroke="#000" stroke-linecap="round" stroke-linejoin="round" stroke-width=".4"/>
  <circle cx="37.2" cy="97.9" r=".5" fill="#febf10" stroke="#000" stroke-linecap="round" stroke-linejoin="round" stroke-width=".4"/>
  <path d="M33.8 94.5s.4 8.7-5.2 9-7.4-6-4.8-11.7c0 0 5.3 5.1 10 2.7z" fill="red"/>
  <path d="M33.8 94.5s.4 8.7-5.2 9-7.4-6-4.8-11.7c0 0 5.3 5.1 10 2.7z" fill="none" stroke="#000" stroke-linecap="round" stroke-linejoin="round" stroke-width=".4"/>
  <path d="M29.8 86.2c6.4 5.2 15.1 3.3 15.1 3.3v-6s-6.8-2.2-11.7-1.7-6.9 2.2-7.3 5.2c0 0 1.8 4.3 7.7 4.1a2.4 2.4 0 0 0 1.5-2.1" fill="red"/>
  <path d="M29.3 89.6s2 .3 2-2v-.4s10 1.2 12.6-1.8l.7-1.9-5.5-1.3-5.5-.5-3.2.7-3 1.2-1.2 2.1-.2 1.6 2 1.7z" fill="#980805"/>
  <path d="M44.9 89.5s-8.7 1.9-15.1-3.3m15.1-2.7s-6.8-2.2-11.7-1.7-6.8 1.8-7.3 5.2c0 0 1.8 4.3 7.7 4.1a2.4 2.4 0 0 0 1.5-2.1" fill="none" stroke="#000" stroke-linecap="round" stroke-linejoin="round" stroke-width=".4"/>
  <path fill="#febf10" d="M29.1 100.8l1.2-.2.8-1 .6-1.3-1.3.4-.6-.4h-.6l-.2.5.6.4.1.6-.5.6-.1.4z"/>
  <path d="M28.9 100.6c1.7-1.1 0-1.8 0-1.8l1.6-.1 1.2-.4s-.6 2.1-1.8 2.4-2.6-.7-1.7-2.9 4.8 0 4.8 0c-1-2.5-3.9-2.2-5.5-1.2a3.9 3.9 0 0 1-3.9.2" fill="none" stroke="#000" stroke-linecap="round" stroke-linejoin="round" stroke-width=".4"/>
  <ellipse cx="23.9" cy="96.2" rx=".7" ry=".7" transform="rotate(-82 23.9 96.1)" fill="#febf10" stroke="#000" stroke-linecap="round" stroke-linejoin="round" stroke-width=".4"/>
  <path d="M24.7 98.6s2.1 0 2.7-.8a2.7 2.7 0 0 0-.2 2.2 1.3 1.3 0 0 1-.9-.8s-1.5.4-1.6-.6z" fill="#febf10" stroke="#000" stroke-linecap="round" stroke-linejoin="round" stroke-width=".4"/>
  <ellipse cx="25.8" cy="100.4" rx=".5" ry=".5" transform="rotate(-82 25.82 100.4)" fill="#febf10" stroke="#000" stroke-linecap="round" stroke-linejoin="round" stroke-width=".4"/>
  <ellipse cx="25.3" cy="101.7" rx=".4" ry=".4" transform="rotate(-82 25.32 101.68)" fill="#febf10" stroke="#000" stroke-linecap="round" stroke-linejoin="round" stroke-width=".4"/>
  <path d="M48.7 90a8.8 8.8 0 0 1-3.7-.3c-1.4-.7.4-6.2.4-6.2s3.2.2 4.1 1.2-1.8 3.4-.8 5.3z" fill="#febf10" stroke="#000" stroke-linecap="round" stroke-linejoin="round" stroke-width=".4"/>
  <path d="M49.6 84.1h.2a.4.4 0 0 1 .2.6 6.6 6.6 0 0 0-.8 5.1.5.5 0 0 1-.3.7.4.4 0 0 1-.6-.3c-.1-.1-1.1-2.7.8-6zM45.4 83h.3a.5.5 0 0 1 .1.7 5.6 5.6 0 0 0-.3 5.8.5.5 0 0 1-.2.7.7.7 0 0 1-.7-.2 7 7 0 0 1 .4-6.8c.1-.1.2-.2.4-.2z" fill="#febf10" stroke="#000" stroke-linecap="round" stroke-linejoin="round" stroke-width=".4"/>
  <circle cx="46.7" cy="89.1" r=".4" fill="#febf10" stroke="#000" stroke-linecap="round" stroke-linejoin="round" stroke-width=".3"/>
  <circle cx="46.7" cy="87.6" r=".4" fill="#febf10" stroke="#000" stroke-linecap="round" stroke-linejoin="round" stroke-width=".3"/>
  <circle cx="46.9" cy="86.2" r=".4" fill="#febf10" stroke="#000" stroke-linecap="round" stroke-linejoin="round" stroke-width=".3"/>
  <circle cx="47.1" cy="84.7" r=".4" fill="#febf10" stroke="#000" stroke-linecap="round" stroke-linejoin="round" stroke-width=".3"/>
  <path d="M52.6 74.5v-2.3a10.3 10.3 0 0 0 .8-2.1m-25.6 4.1a11.1 11.1 0 0 1-1.1-4.2" fill="none" stroke="#000" stroke-linecap="round" stroke-linejoin="round" stroke-width=".4"/>
  <path d="M56.5 71s.4-.7 3.2 1.1 1.6 2.1 1.3 2-3.6-1.5-4.1-2.3-.4-.8-.4-.8z" fill="#febf10" stroke="#000" stroke-linecap="round" stroke-linejoin="round" stroke-width=".4"/>
  <path d="M57.1 71.2a6.1 6.1 0 0 1 .6-1.3l5.5.2a18.1 18.1 0 0 1-2.3 3.5s-.1.9-1.8.6-2.1-1.6-2-3z" fill="#f3bc84"/>
  <path d="M61.2 74.3a7.5 7.5 0 0 1-1.8 3.2c-1.2 1.1-5.5-2.8-5.5-2.8s1.5-2.8 2.8-3.3 2.4 3.1 4.5 2.9z" fill="#febf10" stroke="#000" stroke-linecap="round" stroke-linejoin="round" stroke-width=".4"/>
  <path d="M56.1 71.1l.2-.2a.6.6 0 0 1 .7.1 5.9 5.9 0 0 0 4.3 2.8.5.5 0 0 1 0 1 6.9 6.9 0 0 1-5.1-3.2c-.2-.1-.2-.3-.1-.5zm-2.6 3.4a.3.3 0 0 0 .1-.2c.3-.1.6-.1.7.1a6 6 0 0 0 5.2 2.7c.3-.1.5.1.6.4a.5.5 0 0 1-.5.5c-.1.1-3.5.5-6.1-3a.4.4 0 0 1 0-.5z" fill="#febf10" stroke="#000" stroke-linecap="round" stroke-linejoin="round" stroke-width=".4"/>
  <circle cx="59.6" cy="75.7" r=".4" fill="#febf10" stroke="#000" stroke-linecap="round" stroke-linejoin="round" stroke-width=".3"/>
  <circle cx="58.2" cy="75.2" r=".4" fill="#febf10" stroke="#000" stroke-linecap="round" stroke-linejoin="round" stroke-width=".3"/>
  <circle cx="56.9" cy="74.4" r=".4" fill="#febf10" stroke="#000" stroke-linecap="round" stroke-linejoin="round" stroke-width=".3"/>
  <circle cx="55.7" cy="73.6" r=".4" fill="#febf10" stroke="#000" stroke-linecap="round" stroke-linejoin="round" stroke-width=".3"/>
  <path d="M60.9 73.6a18.1 18.1 0 0 0 2.3-3.5m-6.1 1.1l.5-1.2" fill="#febf10" stroke="#000" stroke-linecap="round" stroke-linejoin="round" stroke-width=".4"/>
  <path d="M46.7 105.9s4.4 2.4 5.2-2.3m-1.9.1s4.5 2.2 9.2-11.6c0 0 7.7-14.4 3.5-21m-40 24.3s-2.3-4.5-1.7-12.8l.9-12.6m-.7 29a3.9 3.9 0 0 0 2 1.3m25.3 2.9s4.9-3.9 6.4-4.5m-2 1.1l-.5-4.6m-28.5-7.9l-.3-.8-.7.8m2.7-5.6l-.6-.6-.3 1" fill="none" stroke="#000" stroke-linecap="round" stroke-linejoin="round" stroke-width=".4"/>
  <path fill="none" stroke="#000" stroke-linecap="round" stroke-linejoin="round" stroke-width=".4" d="M23.1 80.6l-.4-.8-.6.8m4.6-2.9l-.6-.7-.4 1m-1.3-2.2l-.3-.8-.7.8m.4-3.3l-.5-.8-.5.9"/>
  <path fill="#0065b7" d="M61.4 123.3l-1.8 5.1-2.7-4.7-2.3-29.5 3.5-.4 3.3 29.5z"/>
  <path fill="#004da1" d="M59.7 128.4l-2.8-4.7-2.2-29.5 1.7-.2"/>
  <path fill="none" stroke="#000" stroke-linecap="round" stroke-linejoin="round" stroke-width=".4" d="M61.4 123.3l-1.8 5.1-2.7-4.7-2.3-29.5 3.5-.4 3.3 29.5z"/>
  <path fill="#0065b7" stroke="#000" stroke-linecap="round" stroke-linejoin="round" stroke-width=".4" d="M59.6 128.4l-3.3-34.3"/>
  <path d="M57.1 93.1c-.1-.7-.5-1.1-.9-1.1s-.8.6-.7 1.3.5 1.1.9 1.1.8-.6.7-1.3z" fill="none"/>
  <path d="M56.6 96.3c-.7-.9-2.5-1.4-2.7-3.3s.2-1.8.9-1.9.6-.2 1.2-.3.7.1 1.3.1 1.2.7 1.3 1.6-1.5 2.8-2 3.8z"/>
  <path d="M57.1 93.2c0-.8-.5-1.3-1-1.3a1.3 1.3 0 0 0-.7 1.5c.1.7.5 1.3 1 1.2s.8-.7.7-1.4z" fill="red" stroke="#000" stroke-linecap="round" stroke-linejoin="round" stroke-width=".55"/>
  <path d="M56.5 95.6c-.5-.4-1.9-1.1-2.1-2.6s.2-1.5.7-1.5.3.1.3.2 0 .3-.2.3-.3.6-.3 1 1.2 1.8 1.6 2.2 1.2-1.4 1.1-2.5-.3-.9-.5-.9-.3-.1-.3-.2.1-.3.2-.3 1 .5 1 1.3-1.1 2.5-1.5 3zm-.4-3.6c-.2 0-.5-.1-.5-.3a.5.5 0 0 1 .5-.4c.2 0 .5.1.5.3a.5.5 0 0 1-.5.4z" fill="#febf10"/>
  <path d="M54.2 93a1.8 1.8 0 0 0-3.5.4 1.8 1.8 0 1 0 3.5-.4zm7.5-.7a1.8 1.8 0 0 0-1.9-1.6 1.8 1.8 0 0 0-1.6 2 1.8 1.8 0 0 0 2 1.5 1.7 1.7 0 0 0 1.5-1.9z" fill="#febf10" stroke="#000" stroke-width=".4"/>
  <path d="M52.6 94.4c-.3.1-.5-.1-.6-.4a.6.6 0 0 1 1.1-.1.5.5 0 0 1-.5.5zm-.1-1.4a.4.4 0 0 1-.6-.4.6.6 0 0 1 .5-.6.5.5 0 0 1 .5.5c.1.2-.1.5-.4.5z" fill="red" stroke="#000" stroke-width=".42"/>
  <path d="M51.3 93.4a.4.4 0 0 1 .4-.6c.3 0 .6.2.6.4a.6.6 0 0 1-.5.6c-.2 0-.5-.2-.5-.4zm1.4-.2a.7.7 0 0 1 .4-.6.6.6 0 0 1 .6.5.7.7 0 0 1-.4.6.6.6 0 0 1-.6-.5z" fill="red" stroke="#000" stroke-width=".42"/>
  <path d="M53 93.2a.6.6 0 0 0-.6-.5.5.5 0 0 0-.4.6c0 .3.3.5.5.4a.5.5 0 0 0 .5-.5z" fill="red" stroke="#000" stroke-width=".3"/>
  <path d="M60.1 93.7a.7.7 0 0 1-.6-.4.6.6 0 0 1 .5-.6.5.5 0 0 1 .5.4.4.4 0 0 1-.4.6zm-.1-1.4a.6.6 0 0 1-.6-.5c0-.2.2-.5.4-.5a.4.4 0 0 1 .6.4c0 .3-.2.6-.4.6z" fill="red" stroke="#000" stroke-width=".42"/>
  <path d="M58.8 92.6c-.1-.3.1-.5.4-.5s.5.1.6.4a.6.6 0 0 1-.5.6.5.5 0 0 1-.5-.5zm1.4-.1a.4.4 0 0 1 .4-.6.6.6 0 0 1 .6.5.5.5 0 0 1-.5.5c-.2.1-.5-.1-.5-.4z" fill="red" stroke="#000" stroke-width=".42"/>
  <path d="M60.5 92.4a.7.7 0 0 0-.6-.4c-.3 0-.5.3-.4.5a.5.5 0 0 0 .5.5.6.6 0 0 0 .5-.6z" fill="red" stroke="#000" stroke-width=".3"/>
  <path d="M47.3 109.6a.8.8 0 0 1 .3.9 8.5 8.5 0 0 0-.7 4.1 6.4 6.4 0 0 1-.3 3c-.9 2.6-2.4 3.5-2.5 3.5a.8.8 0 0 1-1-.3.7.7 0 0 1 .3-1 5.2 5.2 0 0 0 1.8-2.7 4.9 4.9 0 0 0 .2-2.4 10.4 10.4 0 0 1 .8-4.8.7.7 0 0 1 1-.4zm-15.2-.4a.8.8 0 0 0-.3.9 8.3 8.3 0 0 1 .5 4.2 6.3 6.3 0 0 0 .2 3 6.6 6.6 0 0 0 2.4 3.6.8.8 0 0 0 1-.3.7.7 0 0 0-.3-1 4.8 4.8 0 0 1-1.7-2.7 5.3 5.3 0 0 1-.1-2.5 9.8 9.8 0 0 0-.6-4.8.7.7 0 0 0-1-.4z" fill="#856353" stroke="#000" stroke-linecap="round" stroke-linejoin="round" stroke-width=".4"/>
  <path d="M35.3 108.9a1 1 0 0 0-.5.8 7.4 7.4 0 0 1-.5 4.2 7 7 0 0 0-.5 3 6.3 6.3 0 0 0 1.5 4 .8.8 0 0 0 1 0 .8.8 0 0 0 0-1.1 4.7 4.7 0 0 1-1-3 7.3 7.3 0 0 1 .4-2.5 9.1 9.1 0 0 0 .6-4.8c-.1-.4-.4-.7-.8-.6z" fill="#856353" stroke="#000" stroke-linecap="round" stroke-linejoin="round" stroke-width=".4"/>
  <path d="M34 108.9a.8.8 0 0 0-.5.7 7.4 7.4 0 0 1-.5 4.2 7 7 0 0 0-.5 3c.2 2.7 1.4 4 1.5 4a.7.7 0 0 0 1 0 .8.8 0 0 0 0-1.1 4.7 4.7 0 0 1-1-3 6.4 6.4 0 0 1 .4-2.4 9.5 9.5 0 0 0 .6-4.8.8.8 0 0 0-.8-.7c-.1 0-.2 0-.2.1z" fill="#856353" stroke="#000" stroke-linecap="round" stroke-linejoin="round" stroke-width=".4"/>
  <path d="M34.4 119.6a23.2 23.2 0 0 0 .2-4.3 7.2 7.2 0 0 1 1.3-5c1.3-1.9 3.6-1.1 6.8.5s1.8 8.9.9 9.5a9 9 0 0 1-9.2-.7z" fill="#f3bc84"/>
  <path d="M35.4 120.6a23.4 23.4 0 0 0 .6-5.4c-.1-1.8 1.3-5.1 3.6-5.7 0 0-2.1-.8-3.1.2a6.2 6.2 0 0 0-2 4.1c0 1.7-.1 5.4-.1 5.4v1z" fill="#c69c6d"/>
  <path d="M34.2 120.1a25.1 25.1 0 0 0 .4-4.8 7.2 7.2 0 0 1 1.3-5c1.3-1.9 3.6-1.1 6.8.5s1.8 8.9.9 9.5-5.7 2.6-9.4-.2z" fill="none" stroke="#000" stroke-linecap="round" stroke-linejoin="round" stroke-width=".4"/>
  <path d="M42.5 118.5a2.2 2.2 0 0 1-3.5 0m-3.9 1.3s2.3 0 2.5-1.8a4.8 4.8 0 0 0-.8-3.1c-.2-.3.4-1.2.4-1.2m1.4.9s.3-.6 0-.8a1 1 0 0 0-.9.2h-.2m.1-.5l.1.5m-.7-.1l-.3-.2" fill="none" stroke="#000" stroke-linecap="round" stroke-linejoin="round" stroke-width=".3"/>
  <path d="M37.3 112.7h.7c.2 0 1.1-.8 1.1-.8l-2.6.3 2.6-.3s-1.8-1.5-2.8.3z" fill="red"/>
  <path d="M39.5 112a11.5 11.5 0 0 0-3.4.3m3-.4s-1.8-1.5-2.8.3m.1.1l.9.4h.7a5.4 5.4 0 0 0 1.1-.6" fill="none" stroke="#000" stroke-linecap="round" stroke-linejoin="round" stroke-width=".3"/>
  <path d="M46 108.5a.7.7 0 0 1 .4.8 7.7 7.7 0 0 0-.2 4.2 8.1 8.1 0 0 1 0 3.1 6.2 6.2 0 0 1-2.2 3.7.8.8 0 0 1-1-.2.9.9 0 0 1 .2-1.1c.1 0 1.1-.7 1.5-2.8a6.5 6.5 0 0 0 0-2.4 10.4 10.4 0 0 1 .2-4.9.9.9 0 0 1 1-.5z" fill="#856353" stroke="#000" stroke-linecap="round" stroke-linejoin="round" stroke-width=".4"/>
  <path d="M44.3 108.8a.8.8 0 0 1 .5.8 9 9 0 0 0 .8 4.1 7.7 7.7 0 0 1 .7 2.9 6.2 6.2 0 0 1-1.2 4.1.7.7 0 1 1-1.1-1 5 5 0 0 0 .8-3 6.6 6.6 0 0 0-.6-2.5 9.3 9.3 0 0 1-.9-4.7.8.8 0 0 1 .8-.7z" fill="#856353" stroke="#000" stroke-linecap="round" stroke-linejoin="round" stroke-width=".4"/>
  <path d="M43.2 109.1a.8.8 0 0 1 .5.7 7.4 7.4 0 0 0 .8 4.1 8.8 8.8 0 0 1 .7 3A6.9 6.9 0 0 1 44 121c-.3.3-1.5.8-1.8.5s.2-.9.7-1.5a5.6 5.6 0 0 0 .8-3.1 6.5 6.5 0 0 0-.6-2.4 10 10 0 0 1-.9-4.8.8.8 0 0 1 .8-.7z" fill="#856353" stroke="#000" stroke-linecap="round" stroke-linejoin="round" stroke-width=".4"/>
  <path d="M42 109.1a.8.8 0 0 1 .5.7 8.6 8.6 0 0 0 .7 4.1 7 7 0 0 1 .8 3 6 6 0 0 1-1.3 4.1c-.2.3-1.4.8-1.7.5s.2-.9.7-1.5a5.6 5.6 0 0 0 .8-3.1 6.5 6.5 0 0 0-.6-2.4 10 10 0 0 1-.9-4.8.8.8 0 0 1 .8-.7z" fill="#856353" stroke="#000" stroke-linecap="round" stroke-linejoin="round" stroke-width=".4"/>
  <path d="M41.9 117.3a3 3 0 0 0-1.7-.5 1.7 1.7 0 0 0-1 .5 1.6 1.6 0 0 0 1.5.5c1-.1 1.2-.5 1.2-.5z" fill="#fff"/>
  <path d="M41.7 117.6a4.4 4.4 0 0 1-1.2.2 2.6 2.6 0 0 1-1.3-.4 1.8 1.8 0 0 1 1.3-.6 2.6 2.6 0 0 1 1.4.6m-2.8 0a1.7 1.7 0 0 0 2.8 0" fill="none" stroke="#000" stroke-linecap="round" stroke-linejoin="round" stroke-width=".3"/>
  <ellipse cx="40.4" cy="117.3" rx=".6" ry=".5" transform="translate(-.22 .08)"/>
  <ellipse cx="40.2" cy="117.5" rx=".2" ry=".2" transform="rotate(-88.8 40.14 117.53)" fill="#fff"/>
  <path d="M37.5 117.4a2.3 2.3 0 0 0-1.7-.3 1.4 1.4 0 0 0-.9.6 1.5 1.5 0 0 0 1.5.3c.9-.2 1.1-.6 1.1-.6z" fill="#fff"/>
  <path d="M37.4 117.6a3 3 0 0 1-1.1.3 2.4 2.4 0 0 1-1.3-.2 2.2 2.2 0 0 1 1.2-.7 2.1 2.1 0 0 1 1.3.4m-2.5.3a1.4 1.4 0 0 0 2.5-.3" fill="none" stroke="#000" stroke-linecap="round" stroke-linejoin="round" stroke-width=".3"/>
  <ellipse cx="36.1" cy="117.5" rx=".6" ry=".5" transform="rotate(-8.4 36.54 117.69)"/>
  <ellipse cx="35.9" cy="117.7" rx=".2" ry=".2" transform="rotate(-4.7 35.46 117.4)" fill="#fff"/>
  <circle cx="41.1" cy="125.1" r="1.6" fill="red"/>
  <path d="M41.2 123.5c.3-.6-1.7.1-1.7 1.5a1.6 1.6 0 0 0 1.5 1.7 6.1 6.1 0 0 1 .2-3.2z" fill="#980805"/>
  <circle cx="41.1" cy="125.1" r="1.6" fill="none" stroke="#000" stroke-linecap="round" stroke-linejoin="round" stroke-width=".4"/>
  <circle cx="36.9" cy="124.8" r="1.6" fill="red"/>
  <path d="M37.3 123.2c.3-.5-1.7-.2-2 1.2a1.6 1.6 0 0 0 1.2 2 5.7 5.7 0 0 1 .8-3.2z" fill="#980805"/>
  <circle cx="36.9" cy="124.8" r="1.6" fill="none" stroke="#000" stroke-linecap="round" stroke-linejoin="round" stroke-width=".4"/>
  <circle cx="33.7" cy="124.3" r="1.4" fill="red"/>
  <path d="M34.3 122.9c.3-.3-1.5-.4-2 .8a1.6 1.6 0 0 0 .8 1.9 5.2 5.2 0 0 1 1.2-2.7z" fill="#980805"/>
  <circle cx="33.7" cy="124.3" r="1.4" fill="none" stroke="#000" stroke-linecap="round" stroke-linejoin="round" stroke-width=".4"/>
  <circle cx="45.1" cy="124.3" r="1.6" fill="red"/>
  <path d="M44.7 122.7c.1-.6-1.6.6-1.2 2a1.5 1.5 0 0 0 1.9 1.2 6.3 6.3 0 0 1-.7-3.2z" fill="#980805"/>
  <circle cx="45.1" cy="124.3" r="1.6" fill="none" stroke="#000" stroke-linecap="round" stroke-linejoin="round" stroke-width=".4"/>
  <circle cx="46.7" cy="124" r="1.3" fill="red"/>
  <path d="M46.1 122.9c0-.5-1.1.7-.5 1.7a1.3 1.3 0 0 0 1.7.5 5.4 5.4 0 0 1-1.2-2.2z" fill="#980805"/>
  <circle cx="46.7" cy="124" r="1.3" fill="none" stroke="#000" stroke-linecap="round" stroke-linejoin="round" stroke-width=".4"/>
  <path d="M46.5 122l4.3 3.2s-4.1-2.2-4-1.3a20.9 20.9 0 0 0 .9 2.9s-2.4-2.9-3.2-2.3-.5 4-.5 4-2-3.7-3.4-3.6-1.9 4.2-1.9 4.2-.3-4-2.2-4.2-2.9 3.1-2.9 3.1.9-3.2 0-3.7-3.4 1.5-3.4 1.5a19.4 19.4 0 0 0 2.6-2.8l.4-.5z" fill="#febf10" stroke="#000" stroke-linecap="round" stroke-linejoin="round" stroke-width=".4"/>
  <circle cx="50.6" cy="125" r=".9" fill="#febf10" stroke="#000" stroke-linecap="round" stroke-linejoin="round" stroke-width=".4"/>
  <path d="M50.6 125.3a.3.3 0 0 1-.3-.3c0-.2.1-.4.3-.4" fill="none" stroke="#000" stroke-linecap="round" stroke-linejoin="round" stroke-width=".3"/>
  <circle cx="47.9" cy="127.1" r=".9" fill="#febf10" stroke="#000" stroke-linecap="round" stroke-linejoin="round" stroke-width=".4"/>
  <path d="M47.8 127.5a.4.4 0 0 1-.3-.4c0-.2.2-.3.4-.3" fill="none" stroke="#000" stroke-linecap="round" stroke-linejoin="round" stroke-width=".3"/>
  <circle cx="43.9" cy="128.6" r=".9" fill="#febf10" stroke="#000" stroke-linecap="round" stroke-linejoin="round" stroke-width=".4"/>
  <path d="M43.8 128.9a.3.3 0 0 1-.3-.3.4.4 0 0 1 .3-.4" fill="none" stroke="#000" stroke-linecap="round" stroke-linejoin="round" stroke-width=".3"/>
  <circle cx="38.7" cy="129.1" r=".9" fill="#febf10" stroke="#000" stroke-linecap="round" stroke-linejoin="round" stroke-width=".4"/>
  <path d="M38.7 129.5c-.2 0-.3-.2-.3-.4a.3.3 0 0 1 .3-.3" fill="none" stroke="#000" stroke-linecap="round" stroke-linejoin="round" stroke-width=".3"/>
  <circle cx="33.6" cy="128.2" r=".9" fill="#febf10" stroke="#000" stroke-linecap="round" stroke-linejoin="round" stroke-width=".4"/>
  <path d="M33.5 128.6c-.1-.1-.3-.2-.3-.4s.2-.3.4-.3" fill="none" stroke="#000" stroke-linecap="round" stroke-linejoin="round" stroke-width=".3"/>
  <path d="M45.5 119.9l.7 1.6c-.2.1-6.3 2.9-12.6.7l.6-1.6c5.6 1.9 11.2-.7 11.3-.7z" fill="#d09b07" stroke="#000" stroke-linecap="round" stroke-linejoin="round" stroke-width=".4"/>
  <path d="M46.5 121.4l.3.2a.4.4 0 0 1-.2.5 18.4 18.4 0 0 1-13.3.8.5.5 0 0 1-.3-.5.4.4 0 0 1 .5-.2 18.3 18.3 0 0 0 12.7-.8zm-.8-1.9a.2.2 0 0 1 .2.2c.1.2.1.4-.1.5s-4.7 2.4-11.8.8a.5.5 0 0 1-.3-.5.3.3 0 0 1 .5-.3c6.8 1.5 11.2-.7 11.2-.7z" fill="#febf10" stroke="#000" stroke-linecap="round" stroke-linejoin="round" stroke-width=".4"/>
  <circle cx="30.2" cy="126" r=".9" fill="#febf10" stroke="#000" stroke-linecap="round" stroke-linejoin="round" stroke-width=".4"/>
  <path d="M30.1 126.3a.3.3 0 0 1 0-.6" fill="none" stroke="#000" stroke-linecap="round" stroke-linejoin="round" stroke-width=".3"/>
  <path fill="#325723" stroke="#000" stroke-linecap="round" stroke-linejoin="round" stroke-width=".4" d="M40.8 122.1l-1 .7-1-.6 1-.6 1 .5zm-3.3.1l-1 .4-.9-.8 1.1-.4.8.8zm6.8-.7l-.8.8-1.1-.4.8-.7 1.1.3z"/>
  <path d="M33.7 94.9a30.5 30.5 0 0 0 .1-3.6s-5-.5-8-4.2c0 0-1.7 1-2.1 4.8 0 0 4.3 4.9 10 3zm0-.8a10 10 0 0 1-9.7-2.8" fill="#febf10" stroke="#000" stroke-linecap="round" stroke-linejoin="round" stroke-width=".4"/>
  <path d="M29.3 103.4c.9.8 4.5 4.7 4.5 4.7a8.1 8.1 0 0 1-7.7-2.9s-3.3-.5-4.8-6.1l2.8 1.2z" fill="#325723"/>
  <path d="M18.9 70c-.9 3.5-.8 12.7-.8 12.7a23.5 23.5 0 0 0 0 4.3c.1 2.8 1.6 6.1 3.1 11.7v.3c1.5 5.9 4.9 6.2 4.9 6.2a8.1 8.1 0 0 0 7.7 2.9s-3.5-3.8-4.4-4.6a62.1 62.1 0 0 0-8.1-4.5" fill="none" stroke="#000" stroke-linecap="round" stroke-linejoin="round" stroke-width=".4"/>
  <path d="M32.1 107a12.5 12.5 0 0 1 7.9-3.1 12.8 12.8 0 0 1 6.7 2l1.7-2.4a15.7 15.7 0 0 0-8.5-2.5 15.5 15.5 0 0 0-9.8 3.7l2 2.3z" fill="#febf10" stroke="#000" stroke-linecap="round" stroke-linejoin="round" stroke-width=".4"/>
  <path d="M32.2 105.9l-.9-1.1a14.3 14.3 0 0 1 8.6-3 15.9 15.9 0 0 1 7.4 1.9l-.9 1.1a13.4 13.4 0 0 0-6.4-1.7 13.1 13.1 0 0 0-7.8 2.8" fill="#d09b07" stroke="#000" stroke-linecap="round" stroke-linejoin="round" stroke-width=".4"/>
  <path fill="none" stroke="#000" stroke-linecap="round" stroke-linejoin="round" stroke-width=".4" d="M47.1 103.7l-1.6.4-.4-1.3-1.4.7-.4-1.3-1.3.9-.7-1.2-1.1 1.1-1.1-1.2-1.1 1.4-1.2-1-.7 1.5-1.3-.9-.3 1.6-1.6-.6v1.5l-1.5-.5"/>
  <circle cx="47.3" cy="104.5" r="1.6" fill="#febf10" stroke="#000" stroke-linecap="round" stroke-linejoin="round" stroke-width=".4"/>
  <path d="M47.3 105.4l-.3-.6-.6-.1.4-.4-.1-.7.6.3.6-.3-.2.7.5.4-.6.1-.3.6z"/>
  <circle cx="31.4" cy="105.7" r="1.6" fill="#febf10" stroke="#000" stroke-linecap="round" stroke-linejoin="round" stroke-width=".4"/>
  <path d="M31.4 106.6l-.3-.6-.7-.1.5-.4-.1-.7.6.3.5-.3-.1.7.5.4-.7.1-.2.6z"/>
  <path fill="none" stroke="#000" stroke-linecap="round" stroke-linejoin="round" stroke-width=".4" d="M8 7.9h62v124.31H8zM8.1 70H70"/>
</svg>
